{"accessors":[{"bufferView":139,"byteOffset":0,"componentType":5123,"count":81,"type":"SCALAR","min":[0],"max":[24],"name":"accessor_1013"},{"bufferView":15,"byteOffset":0,"componentType":5126,"count":25,"max":[0.5110164880752563,0.6753199100494385,-8.895299911499023],"min":[0.011016436852514744,0.4714698791503906,-11.100299835205078],"type":"VEC3","name":"accessor_1015"},{"bufferView":15,"byteOffset":300,"componentType":5126,"count":25,"max":[0.2986159920692444,-0.9537230134010315,-0.03431189805269241],"min":[0.08392530679702759,-0.9942880272865295,-0.11709199100732803],"type":"VEC3","name":"accessor_1017"},{"bufferView":16,"byteOffset":0,"componentType":5126,"count":25,"max":[0.8152850270271301,0.35613101720809937],"min":[0.7581380009651184,0.3508480191230774],"type":"VEC2","name":"accessor_1019"},{"bufferView":139,"byteOffset":162,"componentType":5123,"count":1068,"type":"SCALAR","min":[0],"max":[1067],"name":"accessor_102"},{"bufferView":17,"byteOffset":0,"componentType":5126,"count":1068,"max":[5.040499687194824,0.5326390266418457,0.5326380133628845],"min":[3.3651599884033203,-0.5306389927864075,-0.5306389927864075],"type":"VEC3","name":"accessor_104"},{"bufferView":139,"byteOffset":2298,"componentType":5123,"count":138,"type":"SCALAR","min":[0],"max":[45],"name":"accessor_1040"},{"bufferView":17,"byteOffset":12816,"componentType":5126,"count":46,"max":[0.5110165476799011,1.5285998582839966,-8.416399955749512],"min":[-0.48898354172706604,0.45109987258911133,-11.100300788879395],"type":"VEC3","name":"accessor_1042"},{"bufferView":17,"byteOffset":13368,"componentType":5126,"count":46,"max":[1,0.0643370971083641,0.9999470114707947],"min":[-1,-0.7073299884796143,-0.9999979734420776],"type":"VEC3","name":"accessor_1044"},{"bufferView":17,"byteOffset":13920,"componentType":5126,"count":1068,"max":[0.1973090022802353,0.9964810013771057,0.998753011226654],"min":[-0.5613309741020203,-0.9964810013771057,-0.9892110228538513],"type":"VEC3","name":"accessor_106"},{"bufferView":139,"byteOffset":2574,"componentType":5123,"count":13980,"type":"SCALAR","min":[0],"max":[2445],"name":"accessor_1067"},{"bufferView":17,"byteOffset":26736,"componentType":5126,"count":2446,"max":[1.958726406097412,3.3052468299865723,7.951198577880859],"min":[-1.936693549156189,2.8608009815216064,-7.953100204467773],"type":"VEC3","name":"accessor_1069"},{"bufferView":17,"byteOffset":56088,"componentType":5126,"count":2446,"max":[0.9957540035247803,0.8583930134773254,0.8491979837417603],"min":[-0.995756983757019,-0.9160879850387573,-0.8397699594497681],"type":"VEC3","name":"accessor_1071"},{"bufferView":139,"byteOffset":30534,"componentType":5123,"count":144,"type":"SCALAR","min":[0],"max":[107],"name":"accessor_1094"},{"bufferView":17,"byteOffset":85440,"componentType":5126,"count":108,"max":[1.8444931507110596,1.8396939039230347,0.18838007748126984],"min":[-1.8915069103240967,1.0387089252471924,-2.605048179626465],"type":"VEC3","name":"accessor_1096"},{"bufferView":17,"byteOffset":86736,"componentType":5126,"count":108,"max":[1,0.9999899864196777,1],"min":[-1,-1,-1],"type":"VEC3","name":"accessor_1098"},{"bufferView":139,"byteOffset":30822,"componentType":5123,"count":1644,"type":"SCALAR","min":[0],"max":[1643],"name":"accessor_1121"},{"bufferView":17,"byteOffset":88032,"componentType":5126,"count":1644,"max":[12.027692794799805,2.3876709938049316,3.2615203857421875],"min":[-12.074606895446777,1.209913969039917,-0.031850311905145645],"type":"VEC3","name":"accessor_1123"},{"bufferView":17,"byteOffset":107760,"componentType":5126,"count":1644,"max":[0.9991699457168579,0.9787999987602234,0.39111098647117615],"min":[-0.9991699457168579,-0.9787999987602234,-0.3911280035972595],"type":"VEC3","name":"accessor_1125"},{"bufferView":18,"byteOffset":0,"componentType":5126,"count":1644,"max":[0.4022679924964905,0.679144024848938],"min":[0.1625179946422577,0.5499969720840454],"type":"VEC2","name":"accessor_1127"},{"bufferView":139,"byteOffset":34110,"componentType":5123,"count":3264,"type":"SCALAR","min":[0],"max":[3171],"name":"accessor_1148"},{"bufferView":19,"byteOffset":0,"componentType":5126,"count":3172,"max":[16.32579231262207,2.9695000648498535,5.513920307159424],"min":[-16.372806549072266,1.0387089252471924,-3.2256200313568115],"type":"VEC3","name":"accessor_1150"},{"bufferView":19,"byteOffset":38064,"componentType":5126,"count":3172,"max":[1,0.9990509748458862,1],"min":[-1,-0.9971099495887756,-1],"type":"VEC3","name":"accessor_1152"},{"bufferView":20,"byteOffset":0,"componentType":5126,"count":3172,"max":[0.9779390096664429,0.7674700021743774],"min":[0.022092901170253754,0.4247559905052185],"type":"VEC2","name":"accessor_1154"},{"bufferView":139,"byteOffset":40638,"componentType":5123,"count":18,"type":"SCALAR","min":[0],"max":[17],"name":"accessor_1175"},{"bufferView":21,"byteOffset":0,"componentType":5126,"count":18,"max":[-13.418306350708008,2.9212698936462402,5.89847993850708],"min":[-16.35230827331543,2.540091037750244,4.437399387359619],"type":"VEC3","name":"accessor_1177"},{"bufferView":21,"byteOffset":216,"componentType":5126,"count":18,"max":[0.9969189763069153,0.9723309874534607,0.18773099780082703],"min":[-0.9966809749603271,-0.9955430030822754,-0.0000015304732414733735],"type":"VEC3","name":"accessor_1179"},{"bufferView":22,"byteOffset":0,"componentType":5126,"count":18,"max":[0.975741982460022,0.7825509905815125],"min":[0.024258499965071678,0.725255012512207],"type":"VEC2","name":"accessor_1181"},{"bufferView":23,"byteOffset":0,"componentType":5126,"count":18,"max":[16.3052921295166,2.9212698936462402,5.8984808921813965],"min":[13.371293067932129,2.540091037750244,4.4374003410339355],"type":"VEC3","name":"accessor_1204"},{"bufferView":23,"byteOffset":216,"componentType":5126,"count":18,"max":[0.9966809749603271,0.9723309874534607,0.18773199617862701],"min":[-0.9969189763069153,-0.9955430030822754,-0.0000016176267081391416],"type":"VEC3","name":"accessor_1206"},{"bufferView":24,"byteOffset":0,"componentType":5126,"count":18,"max":[0.9772679805755615,0.7825509905815125],"min":[0.022732000797986984,0.725255012512207],"type":"VEC2","name":"accessor_1208"},{"bufferView":139,"byteOffset":40674,"componentType":5123,"count":2,"type":"SCALAR","min":[0],"max":[1],"name":"accessor_1246"},{"bufferView":139,"byteOffset":40678,"componentType":5123,"count":330,"type":"SCALAR","min":[0],"max":[323],"name":"accessor_1249"},{"bufferView":25,"byteOffset":0,"componentType":5126,"count":324,"max":[-4.75736665725708,1.7168259620666504,3.6993796825408936],"min":[-5.093306541442871,1.1588588953018188,1.1091396808624268],"type":"VEC3","name":"accessor_1251"},{"bufferView":25,"byteOffset":3888,"componentType":5126,"count":324,"max":[0.9923790097236633,0.9649249911308289,1],"min":[-0.9998160004615784,-0.9989259839057922,-0.059974122792482376],"type":"VEC3","name":"accessor_1253"},{"bufferView":26,"byteOffset":0,"componentType":5126,"count":324,"max":[0.40316298604011536,1],"min":[0,0.5947400331497192],"type":"VEC2","name":"accessor_1255"},{"bufferView":139,"byteOffset":41338,"componentType":5123,"count":363,"type":"SCALAR","min":[0],"max":[353],"name":"accessor_1276"},{"bufferView":27,"byteOffset":0,"componentType":5126,"count":354,"max":[-8.166586875915527,2.119117021560669,4.295379161834717],"min":[-8.500716209411621,1.5588289499282837,1.8329893350601196],"type":"VEC3","name":"accessor_1278"},{"bufferView":27,"byteOffset":4248,"componentType":5126,"count":354,"max":[0.9957999587059021,0.9652180075645447,1],"min":[-0.9990599751472473,-0.9967939853668213,-0.12585800886154175],"type":"VEC3","name":"accessor_1280"},{"bufferView":28,"byteOffset":0,"componentType":5126,"count":354,"max":[0.29175400733947754,0.7196860313415527],"min":[0.28083598613739014,0.6231249570846558],"type":"VEC2","name":"accessor_1282"},{"bufferView":139,"byteOffset":42064,"componentType":5123,"count":387,"type":"SCALAR","min":[0],"max":[382],"name":"accessor_129"},{"bufferView":139,"byteOffset":42838,"componentType":5123,"count":357,"type":"SCALAR","min":[0],"max":[350],"name":"accessor_1303"},{"bufferView":29,"byteOffset":0,"componentType":5126,"count":351,"max":[-11.795806884765625,2.4506850242614746,5.36837911605835],"min":[-12.09960651397705,1.9349119663238525,3.1442995071411133],"type":"VEC3","name":"accessor_1305"},{"bufferView":29,"byteOffset":4212,"componentType":5126,"count":351,"max":[0.9965760111808777,0.9676669836044312,1],"min":[-0.9996060132980347,-0.9996780157089233,-0.22451800107955933],"type":"VEC3","name":"accessor_1307"},{"bufferView":30,"byteOffset":0,"componentType":5126,"count":351,"max":[0.17315800487995148,0.7617629766464233],"min":[0.16323000192642212,0.6745469570159912],"type":"VEC2","name":"accessor_1309"},{"bufferView":31,"byteOffset":0,"componentType":5126,"count":383,"max":[2.063000202178955,1.0620399713516235,1.0411800146102905],"min":[0.7560000419616699,-1.06003999710083,-1.2619400024414062],"type":"VEC3","name":"accessor_131"},{"bufferView":31,"byteOffset":4596,"componentType":5126,"count":383,"max":[1,1,0.9924830198287964],"min":[-0.14594699442386627,-1,-0.9950979948043823],"type":"VEC3","name":"accessor_133"},{"bufferView":32,"byteOffset":0,"componentType":5126,"count":383,"max":[0.944517970085144,0.49303102493286133],"min":[0.05560019984841347,0.3926609754562378],"type":"VEC2","name":"accessor_135"},{"bufferView":139,"byteOffset":43552,"componentType":5123,"count":330,"type":"SCALAR","min":[0],"max":[323],"name":"accessor_1350"},{"bufferView":33,"byteOffset":0,"componentType":5126,"count":324,"max":[5.046293258666992,1.7168259620666504,3.6993801593780518],"min":[4.710352897644043,1.1588588953018188,1.109140157699585],"type":"VEC3","name":"accessor_1352"},{"bufferView":33,"byteOffset":3888,"componentType":5126,"count":324,"max":[0.9998160004615784,0.9649249911308289,1],"min":[-0.9923779964447021,-0.9989259839057922,-0.059971779584884644],"type":"VEC3","name":"accessor_1354"},{"bufferView":34,"byteOffset":0,"componentType":5126,"count":324,"max":[0.401636004447937,1],"min":[0,0.5947400331497192],"type":"VEC2","name":"accessor_1356"},{"bufferView":139,"byteOffset":44212,"componentType":5123,"count":363,"type":"SCALAR","min":[0],"max":[353],"name":"accessor_1377"},{"bufferView":35,"byteOffset":0,"componentType":5126,"count":354,"max":[8.453702926635742,2.119117021560669,4.295380115509033],"min":[8.119572639465332,1.5588289499282837,1.832990050315857],"type":"VEC3","name":"accessor_1379"},{"bufferView":35,"byteOffset":4248,"componentType":5126,"count":354,"max":[0.9990599751472473,0.9652220010757446,1],"min":[-0.9957999587059021,-0.9967949986457825,-0.1258629858493805],"type":"VEC3","name":"accessor_1381"},{"bufferView":36,"byteOffset":0,"componentType":5126,"count":354,"max":[0.290228009223938,0.7196860313415527],"min":[0.2793090045452118,0.6231249570846558],"type":"VEC2","name":"accessor_1383"},{"bufferView":139,"byteOffset":44938,"componentType":5123,"count":357,"type":"SCALAR","min":[0],"max":[350],"name":"accessor_1404"},{"bufferView":37,"byteOffset":0,"componentType":5126,"count":351,"max":[12.052594184875488,2.4506850242614746,5.368380069732666],"min":[11.74879264831543,1.9349119663238525,3.1443004608154297],"type":"VEC3","name":"accessor_1406"},{"bufferView":37,"byteOffset":4212,"componentType":5126,"count":351,"max":[0.9996050000190735,0.9676569700241089,1],"min":[-0.9965729713439941,-0.9996780157089233,-0.22452400624752045],"type":"VEC3","name":"accessor_1408"},{"bufferView":38,"byteOffset":0,"componentType":5126,"count":351,"max":[0.17163099348545074,0.7617629766464233],"min":[0.16170400381088257,0.6745469570159912],"type":"VEC2","name":"accessor_1410"},{"bufferView":139,"byteOffset":45652,"componentType":5123,"count":153,"type":"SCALAR","min":[0],"max":[153],"name":"accessor_1451"},{"bufferView":39,"byteOffset":0,"componentType":5126,"count":154,"max":[-2.078706979751587,2.032322883605957,2.8552799224853516],"min":[-6.274106502532959,1.2625548839569092,1.8116695880889893],"type":"VEC3","name":"accessor_1453"},{"bufferView":39,"byteOffset":1848,"componentType":5126,"count":154,"max":[0.9879559874534607,0.989425003528595,1],"min":[-0.987966001033783,-0.9895970225334167,-0.9999920129776001],"type":"VEC3","name":"accessor_1455"},{"bufferView":40,"byteOffset":0,"componentType":5126,"count":154,"max":[0.6464020013809204,1],"min":[0,0.6222890019416809],"type":"VEC2","name":"accessor_1457"},{"bufferView":139,"byteOffset":45958,"componentType":5123,"count":129,"type":"SCALAR","min":[0],"max":[128],"name":"accessor_1478"},{"bufferView":41,"byteOffset":0,"componentType":5126,"count":129,"max":[-6.347526550292969,2.623839855194092,4.967179775238037],"min":[-13.296806335449219,1.837243914604187,1.8146097660064697],"type":"VEC3","name":"accessor_1480"},{"bufferView":41,"byteOffset":1548,"componentType":5126,"count":129,"max":[0.995822012424469,0.9957289695739746,0.21501199901103973],"min":[-0.9958059787750244,-0.9959840178489685,-0.9424489736557007],"type":"VEC3","name":"accessor_1482"},{"bufferView":42,"byteOffset":0,"componentType":5126,"count":129,"max":[0.8758940100669861,0.7460299730300903],"min":[0.12410599738359451,0.6224039793014526],"type":"VEC2","name":"accessor_1484"},{"bufferView":43,"byteOffset":0,"componentType":5126,"count":154,"max":[6.22709321975708,2.032322883605957,2.8552801609039307],"min":[2.0316929817199707,1.2625548839569092,1.8116700649261475],"type":"VEC3","name":"accessor_1527"},{"bufferView":43,"byteOffset":1848,"componentType":5126,"count":154,"max":[0.9879530072212219,0.989425003528595,1],"min":[-0.9879540205001831,-0.9895960092544556,-0.9999920129776001],"type":"VEC3","name":"accessor_1529"},{"bufferView":44,"byteOffset":0,"componentType":5126,"count":154,"max":[0.6479290127754211,1],"min":[0,0.6222890019416809],"type":"VEC2","name":"accessor_1531"},{"bufferView":45,"byteOffset":0,"componentType":5126,"count":129,"max":[13.24979305267334,2.623839855194092,4.9671807289123535],"min":[6.300512790679932,1.837243914604187,1.814610242843628],"type":"VEC3","name":"accessor_1554"},{"bufferView":45,"byteOffset":1548,"componentType":5126,"count":129,"max":[0.9957730174064636,0.9957289695739746,0.21501299738883972],"min":[-0.995826005935669,-0.9959840178489685,-0.9424489736557007],"type":"VEC3","name":"accessor_1556"},{"bufferView":46,"byteOffset":0,"componentType":5126,"count":129,"max":[0.8774199485778809,0.7460299730300903],"min":[0.12257999926805496,0.6224039793014526],"type":"VEC2","name":"accessor_1558"},{"bufferView":139,"byteOffset":46216,"componentType":5123,"count":390,"type":"SCALAR","min":[0],"max":[389],"name":"accessor_156"},{"bufferView":139,"byteOffset":46996,"componentType":5123,"count":42,"type":"SCALAR","min":[0],"max":[41],"name":"accessor_1579"},{"bufferView":47,"byteOffset":0,"componentType":5126,"count":390,"max":[0.9420000314712524,0.8684099912643433,0.8684099912643433],"min":[0.11022800207138062,-0.866409957408905,-0.8824359774589539],"type":"VEC3","name":"accessor_158"},{"bufferView":47,"byteOffset":4680,"componentType":5126,"count":42,"max":[4.429553031921387,1.867094874382019,2.355760097503662],"min":[-4.476566791534424,1.3634589910507202,1.6962096691131592],"type":"VEC3","name":"accessor_1581"},{"bufferView":47,"byteOffset":5184,"componentType":5126,"count":42,"max":[0.9885309934616089,0.9753220081329346,0.20046000182628632],"min":[-0.9885290265083313,-0.9853259921073914,-1],"type":"VEC3","name":"accessor_1583"},{"bufferView":48,"byteOffset":0,"componentType":5126,"count":42,"max":[0.5891879796981812,0.643625020980835],"min":[0.41081199049949646,0.6177610158920288],"type":"VEC2","name":"accessor_1585"},{"bufferView":49,"byteOffset":0,"componentType":5126,"count":390,"max":[0.28291600942611694,0.98676997423172,0.9795370101928711],"min":[-0.41938701272010803,-0.98676997423172,-0.9808419942855835],"type":"VEC3","name":"accessor_160"},{"bufferView":139,"byteOffset":47080,"componentType":5123,"count":168,"type":"SCALAR","min":[0],"max":[167],"name":"accessor_1606"},{"bufferView":49,"byteOffset":4680,"componentType":5126,"count":168,"max":[-2.3160266876220703,2.049867868423462,-1.1110103130340576],"min":[-5.37498664855957,1.5583579540252686,-2.999737024307251],"type":"VEC3","name":"accessor_1608"},{"bufferView":49,"byteOffset":6696,"componentType":5126,"count":168,"max":[0.997497022151947,0.9823809862136841,0.8849930167198181],"min":[-0.8855890035629272,-0.9172559976577759,-0.8883900046348572],"type":"VEC3","name":"accessor_1610"},{"bufferView":50,"byteOffset":0,"componentType":5126,"count":168,"max":[0.6170200109481812,0.5076780319213867],"min":[0.5170580148696899,0.43361401557922363],"type":"VEC2","name":"accessor_1612"},{"bufferView":139,"byteOffset":47416,"componentType":5123,"count":339,"type":"SCALAR","min":[0],"max":[338],"name":"accessor_1633"},{"bufferView":51,"byteOffset":0,"componentType":5126,"count":339,"max":[-6.137016773223877,2.352921962738037,0.800089418888092],"min":[-9.096646308898926,1.9286189079284668,-1.0268702507019043],"type":"VEC3","name":"accessor_1635"},{"bufferView":51,"byteOffset":4068,"componentType":5126,"count":339,"max":[0.9976469874382019,0.9931889772415161,0.8923699855804443],"min":[-0.8856819868087769,-0.9380099773406982,-0.8884170055389404],"type":"VEC3","name":"accessor_1637"},{"bufferView":52,"byteOffset":0,"componentType":5126,"count":339,"max":[0.7386389970779419,0.5826209783554077],"min":[0.6419219970703125,0.5109779834747314],"type":"VEC2","name":"accessor_1639"},{"bufferView":139,"byteOffset":48094,"componentType":5123,"count":240,"type":"SCALAR","min":[0],"max":[239],"name":"accessor_1660"},{"bufferView":53,"byteOffset":0,"componentType":5126,"count":240,"max":[-8.94440746307373,2.558948040008545,2.0711593627929688],"min":[-11.590906143188477,2.2011289596557617,0.5050795674324036],"type":"VEC3","name":"accessor_1662"},{"bufferView":53,"byteOffset":2880,"componentType":5126,"count":240,"max":[0.8857229948043823,0.9827060103416443,0.8817769885063171],"min":[-0.8859509825706482,-0.9450089931488037,-0.8884199857711792],"type":"VEC3","name":"accessor_1664"},{"bufferView":54,"byteOffset":0,"componentType":5126,"count":240,"max":[0.8201479911804199,0.6324650049209595],"min":[0.7336639761924744,0.5710520148277283],"type":"VEC2","name":"accessor_1666"},{"bufferView":139,"byteOffset":48574,"componentType":5123,"count":246,"type":"SCALAR","min":[0],"max":[245],"name":"accessor_1687"},{"bufferView":55,"byteOffset":0,"componentType":5126,"count":246,"max":[-11.452507019042969,2.7607998847961426,3.3155791759490967],"min":[-14.031806945800781,2.4269189834594727,1.7957391738891602],"type":"VEC3","name":"accessor_1689"},{"bufferView":55,"byteOffset":2952,"componentType":5126,"count":246,"max":[0.8856980204582214,0.9839730262756348,0.8843389749526978],"min":[-0.8857020139694214,-0.9522849917411804,-0.8884509801864624],"type":"VEC3","name":"accessor_1691"},{"bufferView":56,"byteOffset":0,"componentType":5126,"count":246,"max":[0.8999130129814148,0.6812640428543091],"min":[0.8156239986419678,0.6216650009155273],"type":"VEC2","name":"accessor_1693"},{"bufferView":139,"byteOffset":49066,"componentType":5123,"count":222,"type":"SCALAR","min":[0],"max":[221],"name":"accessor_1714"},{"bufferView":57,"byteOffset":0,"componentType":5126,"count":222,"max":[-13.899206161499023,2.9533300399780273,4.499179363250732],"min":[-16.34640884399414,2.6458098888397217,3.055009126663208],"type":"VEC3","name":"accessor_1716"},{"bufferView":57,"byteOffset":2664,"componentType":5126,"count":222,"max":[0.8857560157775879,0.9879130125045776,0.8850299715995789],"min":[-0.885703980922699,-0.9687569737434387,-0.8655110001564026],"type":"VEC3","name":"accessor_1718"},{"bufferView":58,"byteOffset":0,"componentType":5126,"count":222,"max":[0.9755499958992004,0.7276780009269714],"min":[0.895579993724823,0.6710460186004639],"type":"VEC2","name":"accessor_1720"},{"bufferView":59,"byteOffset":0,"componentType":5126,"count":168,"max":[5.327972888946533,2.049867868423462,-1.1110098361968994],"min":[2.26900315284729,1.5583579540252686,-2.999736785888672],"type":"VEC3","name":"accessor_1743"},{"bufferView":59,"byteOffset":2016,"componentType":5126,"count":168,"max":[0.8856099843978882,0.9823809862136841,0.8849930167198181],"min":[-0.9974960088729858,-0.9172570109367371,-0.888388991355896],"type":"VEC3","name":"accessor_1745"},{"bufferView":60,"byteOffset":0,"componentType":5126,"count":168,"max":[0.6185470223426819,0.5076780319213867],"min":[0.5185840129852295,0.43361401557922363],"type":"VEC2","name":"accessor_1747"},{"bufferView":61,"byteOffset":0,"componentType":5126,"count":339,"max":[9.049633026123047,2.352921962738037,0.8000902533531189],"min":[6.09000301361084,1.9286189079284668,-1.026869773864746],"type":"VEC3","name":"accessor_1770"},{"bufferView":61,"byteOffset":4068,"componentType":5126,"count":339,"max":[0.885683000087738,0.9931960105895996,0.8923799991607666],"min":[-0.9975879788398743,-0.9380099773406982,-0.8884289860725403],"type":"VEC3","name":"accessor_1772"},{"bufferView":62,"byteOffset":0,"componentType":5126,"count":339,"max":[0.7401649951934814,0.5826209783554077],"min":[0.6434490084648132,0.5109779834747314],"type":"VEC2","name":"accessor_1774"},{"bufferView":63,"byteOffset":0,"componentType":5126,"count":240,"max":[11.543892860412598,2.558948040008545,2.071160316467285],"min":[8.897393226623535,2.2011289596557617,0.5050804018974304],"type":"VEC3","name":"accessor_1797"},{"bufferView":63,"byteOffset":2880,"componentType":5126,"count":240,"max":[0.8859509825706482,0.9827060103416443,0.8817740082740784],"min":[-0.8857229948043823,-0.9450089931488037,-0.8884199857711792],"type":"VEC3","name":"accessor_1799"},{"bufferView":64,"byteOffset":0,"componentType":5126,"count":240,"max":[0.8216750025749207,0.6324650049209595],"min":[0.7351899743080139,0.5710520148277283],"type":"VEC2","name":"accessor_1801"},{"bufferView":65,"byteOffset":0,"componentType":5126,"count":246,"max":[13.984792709350586,2.7607998847961426,3.3155806064605713],"min":[11.405492782592773,2.4269189834594727,1.7957401275634766],"type":"VEC3","name":"accessor_1824"},{"bufferView":65,"byteOffset":2952,"componentType":5126,"count":246,"max":[0.8856909871101379,0.9839730262756348,0.8843389749526978],"min":[-0.8856980204582214,-0.9522860050201416,-0.8884220123291016],"type":"VEC3","name":"accessor_1826"},{"bufferView":66,"byteOffset":0,"componentType":5126,"count":246,"max":[0.9014390110969543,0.6812640428543091],"min":[0.8171510100364685,0.6216650009155273],"type":"VEC2","name":"accessor_1828"},{"bufferView":139,"byteOffset":49510,"componentType":5123,"count":1224,"type":"SCALAR","min":[0],"max":[1183],"name":"accessor_183"},{"bufferView":67,"byteOffset":0,"componentType":5126,"count":1184,"max":[0.9420000314712524,1.029189944267273,1.029189944267273],"min":[0.0008420000085607171,-1.0271899700164795,-1.2146199941635132],"type":"VEC3","name":"accessor_185"},{"bufferView":67,"byteOffset":14208,"componentType":5126,"count":222,"max":[16.299392700195312,2.9533300399780273,4.499180316925049],"min":[13.852192878723145,2.6458098888397217,3.0550105571746826],"type":"VEC3","name":"accessor_1851"},{"bufferView":67,"byteOffset":16872,"componentType":5126,"count":222,"max":[0.8857709765434265,0.9879130125045776,0.8850319981575012],"min":[-0.8857520222663879,-0.9685450196266174,-0.8654620051383972],"type":"VEC3","name":"accessor_1853"},{"bufferView":68,"byteOffset":0,"componentType":5126,"count":222,"max":[0.97707599401474,0.7276780009269714],"min":[0.8971070051193237,0.6710460186004639],"type":"VEC2","name":"accessor_1855"},{"bufferView":69,"byteOffset":0,"componentType":5126,"count":1184,"max":[1,0.9773709774017334,0.9828979969024658],"min":[-0.9965479969978333,-0.9773709774017334,-0.9788399934768677],"type":"VEC3","name":"accessor_187"},{"bufferView":139,"byteOffset":51958,"componentType":5123,"count":30,"type":"SCALAR","min":[0],"max":[29],"name":"accessor_1876"},{"bufferView":69,"byteOffset":14208,"componentType":5126,"count":30,"max":[-4.469676494598389,2.118588924407959,2.3041298389434814],"min":[-6.232196807861328,1.764190912246704,1.6534497737884521],"type":"VEC3","name":"accessor_1878"},{"bufferView":69,"byteOffset":14568,"componentType":5126,"count":30,"max":[0.9885240197181702,0.9793840050697327,0.1694290041923523],"min":[-0.9885259866714478,-0.9853259921073914,-0.9967599511146545],"type":"VEC3","name":"accessor_1880"},{"bufferView":70,"byteOffset":0,"componentType":5126,"count":30,"max":[0.6450330018997192,0.6416009664535522],"min":[0.35496801137924194,0.6160839796066284],"type":"VEC2","name":"accessor_1882"},{"bufferView":70,"byteOffset":240,"componentType":5126,"count":1184,"max":[0.986312985420227,0.4909690022468567],"min":[0.01380470022559166,0.39318400621414185],"type":"VEC2","name":"accessor_189"},{"bufferView":139,"byteOffset":52018,"componentType":5123,"count":24,"type":"SCALAR","min":[0],"max":[23],"name":"accessor_1903"},{"bufferView":71,"byteOffset":0,"componentType":5126,"count":24,"max":[-6.714046478271484,2.3169028759002686,3.068289279937744],"min":[-8.58609676361084,2.0687549114227295,1.8579694032669067],"type":"VEC3","name":"accessor_1905"},{"bufferView":71,"byteOffset":288,"componentType":5126,"count":24,"max":[0.9386169910430908,0.9822799563407898,0.336806982755661],"min":[-0.9386159777641296,-0.9895899891853333,-0.9371439814567566],"type":"VEC3","name":"accessor_1907"},{"bufferView":72,"byteOffset":0,"componentType":5126,"count":24,"max":[0.7219550013542175,0.6715660095214844],"min":[0.27804601192474365,0.6241049766540527],"type":"VEC2","name":"accessor_1909"},{"bufferView":73,"byteOffset":0,"componentType":5126,"count":24,"max":[-8.390417098999023,2.446769952774048,3.636139392852783],"min":[-10.168606758117676,2.2018938064575195,2.4595093727111816],"type":"VEC3","name":"accessor_1932"},{"bufferView":73,"byteOffset":288,"componentType":5126,"count":24,"max":[0.9386129975318909,0.9813519716262817,0.33680495619773865],"min":[-0.9386199712753296,-0.9895899891853333,-0.9371479749679565],"type":"VEC3","name":"accessor_1934"},{"bufferView":74,"byteOffset":0,"componentType":5126,"count":24,"max":[0.7736690044403076,0.6938350200653076],"min":[0.22633199393749237,0.6476939916610718],"type":"VEC2","name":"accessor_1936"},{"bufferView":75,"byteOffset":0,"componentType":5126,"count":24,"max":[-9.972936630249023,2.567657947540283,4.1580891609191895],"min":[-11.626306533813477,2.3275809288024902,3.0273594856262207],"type":"VEC3","name":"accessor_1959"},{"bufferView":75,"byteOffset":288,"componentType":5126,"count":24,"max":[0.9386159777641296,0.9801949858665466,0.33680397272109985],"min":[-0.938618004322052,-0.9895899891853333,-0.9371479749679565],"type":"VEC3","name":"accessor_1961"},{"bufferView":76,"byteOffset":0,"componentType":5126,"count":24,"max":[0.8213030099868774,0.7143020033836365],"min":[0.17869700491428375,0.6699619889259338],"type":"VEC2","name":"accessor_1963"},{"bufferView":77,"byteOffset":0,"componentType":5126,"count":30,"max":[-11.43100643157959,2.688610076904297,4.682259559631348],"min":[-13.083906173706055,2.4434919357299805,3.550419330596924],"type":"VEC3","name":"accessor_1986"},{"bufferView":77,"byteOffset":360,"componentType":5126,"count":30,"max":[0.938614010810852,0.9786840081214905,0.33680495619773865],"min":[-0.9386199712753296,-0.9895899891853333,-0.9371500015258789],"type":"VEC3","name":"accessor_1988"},{"bufferView":78,"byteOffset":0,"componentType":5126,"count":30,"max":[0.8689379692077637,0.7348569631576538],"min":[0.13106200098991394,0.6904729604721069],"type":"VEC2","name":"accessor_1990"},{"bufferView":139,"byteOffset":52066,"componentType":5123,"count":51,"type":"SCALAR","min":[0],"max":[50],"name":"accessor_2011"},{"bufferView":79,"byteOffset":0,"componentType":5126,"count":51,"max":[6.185183048248291,2.118588924407959,2.3041303157806396],"min":[4.418862819671631,1.7641528844833374,1.6534502506256104],"type":"VEC3","name":"accessor_2013"},{"bufferView":79,"byteOffset":612,"componentType":5126,"count":51,"max":[0.9885259866714478,0.9793840050697327,0.1694290041923523],"min":[-0.9885280132293701,-0.9853259921073914,-0.9967599511146545],"type":"VEC3","name":"accessor_2015"},{"bufferView":80,"byteOffset":0,"componentType":5126,"count":51,"max":[0.6465590000152588,0.6416009664535522],"min":[0.3534409999847412,0.6160839796066284],"type":"VEC2","name":"accessor_2017"},{"bufferView":81,"byteOffset":0,"componentType":5126,"count":24,"max":[8.539082527160645,2.316904067993164,3.0682902336120605],"min":[6.6670331954956055,2.0687549114227295,1.857970118522644],"type":"VEC3","name":"accessor_2040"},{"bufferView":81,"byteOffset":288,"componentType":5126,"count":24,"max":[0.9386159777641296,0.9822799563407898,0.3368130326271057],"min":[-0.9386159777641296,-0.9895899891853333,-0.9371449947357178],"type":"VEC3","name":"accessor_2042"},{"bufferView":82,"byteOffset":0,"componentType":5126,"count":24,"max":[0.7234809994697571,0.6715660095214844],"min":[0.2765190005302429,0.6241049766540527],"type":"VEC2","name":"accessor_2044"},{"bufferView":83,"byteOffset":0,"componentType":5126,"count":24,"max":[10.121593475341797,2.446769952774048,3.6361403465270996],"min":[8.343402862548828,2.2018938064575195,2.459510326385498],"type":"VEC3","name":"accessor_2067"},{"bufferView":83,"byteOffset":288,"componentType":5126,"count":24,"max":[0.9386199712753296,0.9813519716262817,0.3368050158023834],"min":[-0.938614010810852,-0.9895899891853333,-0.9371479749679565],"type":"VEC3","name":"accessor_2069"},{"bufferView":84,"byteOffset":0,"componentType":5126,"count":24,"max":[0.7751950025558472,0.6938350200653076],"min":[0.22480499744415283,0.6476939916610718],"type":"VEC2","name":"accessor_2071"},{"bufferView":85,"byteOffset":0,"componentType":5126,"count":24,"max":[11.579293251037598,2.567657947540283,4.158090114593506],"min":[9.925923347473145,2.3275809288024902,3.027360439300537],"type":"VEC3","name":"accessor_2094"},{"bufferView":85,"byteOffset":288,"componentType":5126,"count":24,"max":[0.938618004322052,0.9801949858665466,0.33680403232574463],"min":[-0.9386150240898132,-0.9895899891853333,-0.9371479749679565],"type":"VEC3","name":"accessor_2096"},{"bufferView":86,"byteOffset":0,"componentType":5126,"count":24,"max":[0.8228299617767334,0.7143020033836365],"min":[0.17716999351978302,0.6699619889259338],"type":"VEC2","name":"accessor_2098"},{"bufferView":139,"byteOffset":52168,"componentType":5123,"count":960,"type":"SCALAR","min":[0],"max":[909],"name":"accessor_21"},{"bufferView":139,"byteOffset":54088,"componentType":5123,"count":96,"type":"SCALAR","min":[0],"max":[93],"name":"accessor_210"},{"bufferView":87,"byteOffset":0,"componentType":5126,"count":94,"max":[0.2420639991760254,0.8675659894943237,0.8675659894943237],"min":[0.1303430050611496,-0.8675659894943237,-0.8675659894943237],"type":"VEC3","name":"accessor_212"},{"bufferView":87,"byteOffset":1128,"componentType":5126,"count":30,"max":[13.036892890930176,2.688610076904297,4.682260513305664],"min":[11.383993148803711,2.4434919357299805,3.5504202842712402],"type":"VEC3","name":"accessor_2121"},{"bufferView":87,"byteOffset":1488,"componentType":5126,"count":30,"max":[0.9386199712753296,0.9786840081214905,0.3368050158023834],"min":[-0.9386169910430908,-0.9895899891853333,-0.9371500015258789],"type":"VEC3","name":"accessor_2123"},{"bufferView":88,"byteOffset":0,"componentType":5126,"count":30,"max":[0.870464026927948,0.7348569631576538],"min":[0.1295360028743744,0.6904729604721069],"type":"VEC2","name":"accessor_2125"},{"bufferView":89,"byteOffset":0,"componentType":5126,"count":94,"max":[-0.11406499892473221,0.9743840098381042,0.9743840098381042],"min":[-0.11407499760389328,-0.9743840098381042,-0.9743840098381042],"type":"VEC3","name":"accessor_214"},{"bufferView":139,"byteOffset":54280,"componentType":5123,"count":504,"type":"SCALAR","min":[0],"max":[503],"name":"accessor_2146"},{"bufferView":89,"byteOffset":1128,"componentType":5126,"count":504,"max":[16.93149185180664,3.0144598484039307,6.089750289916992],"min":[-16.97850799560547,2.794029951095581,4.246179580688477],"type":"VEC3","name":"accessor_2148"},{"bufferView":89,"byteOffset":7176,"componentType":5126,"count":504,"max":[0.9823079705238342,0.9995530247688293,0.22432701289653778],"min":[-0.9823079705238342,-0.9974480271339417,-0.8124189972877502],"type":"VEC3","name":"accessor_2150"},{"bufferView":90,"byteOffset":0,"componentType":5126,"count":504,"max":[0.9977329969406128,0.7900509834289551],"min":[0.003050510073080659,0.717756986618042],"type":"VEC2","name":"accessor_2152"},{"bufferView":139,"byteOffset":55288,"componentType":5123,"count":1446,"type":"SCALAR","min":[0],"max":[321],"name":"accessor_2173"},{"bufferView":91,"byteOffset":0,"componentType":5126,"count":322,"max":[6.303991794586182,3.9717202186584473,16.077829360961914],"min":[-6.142207622528076,3.0445010662078857,11.58018970489502],"type":"VEC3","name":"accessor_2175"},{"bufferView":91,"byteOffset":3864,"componentType":5126,"count":322,"max":[0.9993109703063965,0.9984239935874939,0.7595679759979248],"min":[-0.9993109703063965,-0.9929199814796448,-0.8766499757766724],"type":"VEC3","name":"accessor_2177"},{"bufferView":92,"byteOffset":0,"componentType":5126,"count":322,"max":[0.704692006111145,0.8345580101013184],"min":[0.2953070104122162,0.6732710003852844],"type":"VEC2","name":"accessor_2179"},{"bufferView":139,"byteOffset":58180,"componentType":5123,"count":318,"type":"SCALAR","min":[0],"max":[79],"name":"accessor_2200"},{"bufferView":93,"byteOffset":0,"componentType":5126,"count":80,"max":[-0.6534148454666138,3.939800262451172,16.428329467773438],"min":[-6.142517566680908,3.2238082885742188,14.13109016418457],"type":"VEC3","name":"accessor_2202"},{"bufferView":93,"byteOffset":960,"componentType":5126,"count":80,"max":[1,0.9933469891548157,0.9666770100593567],"min":[-0.9998359680175781,-0.9927430152893066,-0.943818986415863],"type":"VEC3","name":"accessor_2204"},{"bufferView":94,"byteOffset":0,"componentType":5126,"count":80,"max":[0.6806920170783997,0.8471270203590393],"min":[0.5017459988594055,0.7647470235824585],"type":"VEC2","name":"accessor_2206"},{"bufferView":139,"byteOffset":58816,"componentType":5123,"count":318,"type":"SCALAR","min":[0],"max":[79],"name":"accessor_2227"},{"bufferView":95,"byteOffset":0,"componentType":5126,"count":80,"max":[6.304301738739014,3.939800262451172,16.428329467773438],"min":[0.8151991367340088,3.2238082885742188,14.13109016418457],"type":"VEC3","name":"accessor_2229"},{"bufferView":95,"byteOffset":960,"componentType":5126,"count":80,"max":[0.9998359680175781,0.9933459758758545,0.9666770100593567],"min":[-1,-0.9927430152893066,-0.943805992603302],"type":"VEC3","name":"accessor_2231"},{"bufferView":96,"byteOffset":0,"componentType":5126,"count":80,"max":[0.4982540011405945,0.8471270203590393],"min":[0.31930801272392273,0.7647470235824585],"type":"VEC2","name":"accessor_2233"},{"bufferView":139,"byteOffset":59452,"componentType":5123,"count":60,"type":"SCALAR","min":[0],"max":[21],"name":"accessor_2254"},{"bufferView":97,"byteOffset":0,"componentType":5126,"count":22,"max":[-1.4172077178955078,3.888150215148926,14.834969520568848],"min":[-5.417207717895508,3.3179211616516113,12.204754829406738],"type":"VEC3","name":"accessor_2256"},{"bufferView":97,"byteOffset":264,"componentType":5126,"count":22,"max":[0.02666710503399372,0.9916399717330933,-0.1262499988079071],"min":[-0.5400329232215881,-0.9272990226745605,-0.8400309681892395],"type":"VEC3","name":"accessor_2258"},{"bufferView":98,"byteOffset":0,"componentType":5126,"count":22,"max":[0.6557919979095459,0.7899889945983887],"min":[0.5253909826278687,0.6956679821014404],"type":"VEC2","name":"accessor_2260"},{"bufferView":139,"byteOffset":59572,"componentType":5123,"count":60,"type":"SCALAR","min":[0],"max":[21],"name":"accessor_2281"},{"bufferView":99,"byteOffset":0,"componentType":5126,"count":22,"max":[5.578991889953613,3.888150215148926,14.834970474243164],"min":[1.5789921283721924,3.3179211616516113,12.204754829406738],"type":"VEC3","name":"accessor_2283"},{"bufferView":99,"byteOffset":264,"componentType":5126,"count":22,"max":[0.5400240421295166,0.9916399717330933,-0.1262499988079071],"min":[-0.0266667939722538,-0.9272990226745605,-0.8400430083274841],"type":"VEC3","name":"accessor_2285"},{"bufferView":100,"byteOffset":0,"componentType":5126,"count":22,"max":[0.47460898756980896,0.7899889945983887],"min":[0.3442080020904541,0.6956679821014404],"type":"VEC2","name":"accessor_2287"},{"bufferView":101,"byteOffset":0,"componentType":5126,"count":910,"max":[3.5799999237060547,1.0368099212646484,1.0253000259399414],"min":[1.877000093460083,-1.034809947013855,-1.1988499164581299],"type":"VEC3","name":"accessor_23"},{"bufferView":139,"byteOffset":59692,"componentType":5123,"count":411,"type":"SCALAR","min":[0],"max":[124],"name":"accessor_2308"},{"bufferView":101,"byteOffset":10920,"componentType":5126,"count":125,"max":[0.3631853461265564,10.93838882446289,17.35529899597168],"min":[-0.1638146936893463,4.303599834442139,9.05929946899414],"type":"VEC3","name":"accessor_2310"},{"bufferView":101,"byteOffset":12420,"componentType":5126,"count":125,"max":[0.9990800023078918,0.9954450130462646,0.946956992149353],"min":[-0.9990800023078918,-1,-0.6918389797210693],"type":"VEC3","name":"accessor_2312"},{"bufferView":102,"byteOffset":0,"componentType":5126,"count":125,"max":[0.8837940096855164,0.9899243712425232],"min":[0.11532700061798096,0.7643700242042542],"type":"VEC2","name":"accessor_2314"},{"bufferView":139,"byteOffset":60514,"componentType":5123,"count":132,"type":"SCALAR","min":[0],"max":[105],"name":"accessor_2335"},{"bufferView":103,"byteOffset":0,"componentType":5126,"count":106,"max":[0.279579222202301,10.248970031738281,17.179048538208008],"min":[-0.080213762819767,4.228699684143066,13.800599098205566],"type":"VEC3","name":"accessor_2337"},{"bufferView":103,"byteOffset":1272,"componentType":5126,"count":106,"max":[0.9990800023078918,1,0.9391220211982727],"min":[-0.9990800023078918,-1,-0.9142969846725464],"type":"VEC3","name":"accessor_2339"},{"bufferView":104,"byteOffset":0,"componentType":5126,"count":106,"max":[0.8778029680252075,0.9924706816673279],"min":[0.12131799757480621,0.7878069877624512],"type":"VEC2","name":"accessor_2341"},{"bufferView":105,"byteOffset":0,"componentType":5126,"count":910,"max":[0.30073198676109314,1,0.98853600025177],"min":[-1,-1,-0.9747899770736694],"type":"VEC3","name":"accessor_2366"},{"bufferView":106,"byteOffset":0,"componentType":5126,"count":910,"max":[0.8824740052223206,0.49028199911117554],"min":[0.11764399707317352,0.39335399866104126],"type":"VEC2","name":"accessor_2368"},{"bufferView":139,"byteOffset":60778,"componentType":5123,"count":1056,"type":"SCALAR","min":[0],"max":[990],"name":"accessor_237"},{"bufferView":139,"byteOffset":62890,"componentType":5123,"count":711,"type":"SCALAR","min":[0],"max":[704],"name":"accessor_2389"},{"bufferView":107,"byteOffset":0,"componentType":5126,"count":991,"max":[2.2948198318481445,0.5182650089263916,0.5182650089263916],"min":[0.313946008682251,-0.5182650089263916,-0.5182650089263916],"type":"VEC3","name":"accessor_239"},{"bufferView":107,"byteOffset":11892,"componentType":5126,"count":705,"max":[3.5799999237060547,0.6063349843025208,0.9828580021858215],"min":[1.877000093460083,-0.6043350100517273,-1.1988499164581299],"type":"VEC3","name":"accessor_2391"},{"bufferView":107,"byteOffset":20352,"componentType":5126,"count":705,"max":[1,0.4132139980792999,0.9989209771156311],"min":[-0.2615010142326355,-1,-0.9800710082054138],"type":"VEC3","name":"accessor_2393"},{"bufferView":107,"byteOffset":28812,"componentType":5126,"count":991,"max":[1,0.9804679751396179,0.9804679751396179],"min":[-1,-0.9804679751396179,-0.9804679751396179],"type":"VEC3","name":"accessor_241"},{"bufferView":139,"byteOffset":64312,"componentType":5123,"count":840,"type":"SCALAR","min":[0],"max":[746],"name":"accessor_2524"},{"bufferView":107,"byteOffset":40704,"componentType":5126,"count":747,"max":[2.393120050430298,0.4120909869670868,0.4120909869670868],"min":[1.407480001449585,-0.4120909869670868,-0.412092000246048],"type":"VEC3","name":"accessor_2526"},{"bufferView":107,"byteOffset":49668,"componentType":5126,"count":747,"max":[1,1,1],"min":[-1,-1,-1],"type":"VEC3","name":"accessor_2528"},{"bufferView":139,"byteOffset":65992,"componentType":5123,"count":216,"type":"SCALAR","min":[0],"max":[183],"name":"accessor_2551"},{"bufferView":107,"byteOffset":58632,"componentType":5126,"count":184,"max":[0.8667640089988708,0.8222599625587463,0.8222599625587463],"min":[0.6650919914245605,-0.831125020980835,-0.831125020980835],"type":"VEC3","name":"accessor_2553"},{"bufferView":107,"byteOffset":60840,"componentType":5126,"count":184,"max":[1,1,1],"min":[-1,-1,-1],"type":"VEC3","name":"accessor_2555"},{"bufferView":139,"byteOffset":66424,"componentType":5123,"count":666,"type":"SCALAR","min":[0],"max":[662],"name":"accessor_2578"},{"bufferView":107,"byteOffset":63048,"componentType":5126,"count":663,"max":[0.2524619996547699,0.8612239956855774,0.8671910166740417],"min":[0.11935199797153473,-0.8731560111045837,-0.8671900033950806],"type":"VEC3","name":"accessor_2580"},{"bufferView":107,"byteOffset":71004,"componentType":5126,"count":663,"max":[-0.034808199852705,0.9989029765129089,0.9989029765129089],"min":[-0.9675819873809814,-0.9989029765129089,-0.9989020228385925],"type":"VEC3","name":"accessor_2582"},{"bufferView":139,"byteOffset":67756,"componentType":5123,"count":576,"type":"SCALAR","min":[0],"max":[467],"name":"accessor_2605"},{"bufferView":107,"byteOffset":78960,"componentType":5126,"count":468,"max":[0.8845629692077637,0.9024739861488342,0.9024739861488342],"min":[9.999999974752427e-7,-0.9024739861488342,-0.9024739861488342],"type":"VEC3","name":"accessor_2607"},{"bufferView":107,"byteOffset":84576,"componentType":5126,"count":468,"max":[0.9992210268974304,0.9807860255241394,0.9807860255241394],"min":[-1,-0.9807860255241394,-0.9807860255241394],"type":"VEC3","name":"accessor_2609"},{"bufferView":139,"byteOffset":68908,"componentType":5123,"count":183,"type":"SCALAR","min":[129],"max":[311],"name":"accessor_2652"},{"bufferView":107,"byteOffset":90192,"componentType":5126,"count":312,"max":[-0.1609649956226349,0.17672599852085114,0.17672599852085114],"min":[-0.5204499959945679,-0.17672599852085114,-0.17672599852085114],"type":"VEC3","name":"accessor_2654"},{"bufferView":107,"byteOffset":93936,"componentType":5126,"count":312,"max":[-0.4135189950466156,0.8834630250930786,0.8834609985351562],"min":[-0.4354510009288788,-0.8834589719772339,-0.8834570050239563],"type":"VEC3","name":"accessor_2656"},{"bufferView":139,"byteOffset":69274,"componentType":5123,"count":96,"type":"SCALAR","min":[0],"max":[95],"name":"accessor_2679"},{"bufferView":107,"byteOffset":97680,"componentType":5126,"count":96,"max":[0.3477630019187927,0.42681998014450073,0.42681998014450073],"min":[-0.1609649956226349,-0.42681998014450073,-0.42681998014450073],"type":"VEC3","name":"accessor_2681"},{"bufferView":107,"byteOffset":98832,"componentType":5126,"count":96,"max":[-0.43431198596954346,0.8834549784660339,0.8834549784660339],"min":[-0.4343140125274658,-0.8834549784660339,-0.8834549784660339],"type":"VEC3","name":"accessor_2683"},{"bufferView":139,"byteOffset":69466,"componentType":5123,"count":96,"type":"SCALAR","min":[0],"max":[81],"name":"accessor_2760"},{"bufferView":107,"byteOffset":99984,"componentType":5126,"count":82,"max":[0.22648200392723083,0.6428639888763428,0.6428639888763428],"min":[0.13898099958896637,-0.6428639888763428,-0.6428639888763428],"type":"VEC3","name":"accessor_2762"},{"bufferView":107,"byteOffset":100968,"componentType":5126,"count":82,"max":[0,0.9807860255241394,0.9807860255241394],"min":[0,-0.9807860255241394,-0.9807860255241394],"type":"VEC3","name":"accessor_2764"},{"bufferView":139,"byteOffset":69658,"componentType":5123,"count":774,"type":"SCALAR","min":[0],"max":[689],"name":"accessor_2787"},{"bufferView":107,"byteOffset":101952,"componentType":5126,"count":690,"max":[-6.037943363189697,2.0861399173736572,3.407440662384033],"min":[-6.595855236053467,0.7649979591369629,-3.3570902347564697],"type":"VEC3","name":"accessor_2789"},{"bufferView":107,"byteOffset":110232,"componentType":5126,"count":690,"max":[1,0.9998199939727783,1],"min":[-1,-0.9999819993972778,-1],"type":"VEC3","name":"accessor_2791"},{"bufferView":139,"byteOffset":71206,"componentType":5123,"count":774,"type":"SCALAR","min":[0],"max":[689],"name":"accessor_446"},{"bufferView":107,"byteOffset":118512,"componentType":5126,"count":690,"max":[6.547445774078369,2.0561840534210205,3.2621397972106934],"min":[5.9895339012146,0.7350419759750366,-3.5023910999298096],"type":"VEC3","name":"accessor_448"},{"bufferView":107,"byteOffset":126792,"componentType":5126,"count":690,"max":[1,0.9998199939727783,1],"min":[-1,-0.9999819993972778,-1],"type":"VEC3","name":"accessor_450"},{"bufferView":139,"byteOffset":72754,"componentType":5123,"count":360,"type":"SCALAR","min":[0],"max":[119],"name":"accessor_473"},{"bufferView":107,"byteOffset":135072,"componentType":5126,"count":120,"max":[1.5180565118789673,3.532099723815918,-10.700300216674805],"min":[-1.496023416519165,2.960099935531616,-12.580349922180176],"type":"VEC3","name":"accessor_475"},{"bufferView":107,"byteOffset":136512,"componentType":5126,"count":120,"max":[0.8108689785003662,0.678072988986969,-0.2953939735889435],"min":[-0.8108630180358887,0.5022580027580261,-0.6820600032806396],"type":"VEC3","name":"accessor_477"},{"bufferView":139,"byteOffset":73474,"componentType":5123,"count":234,"type":"SCALAR","min":[0],"max":[89],"name":"accessor_500"},{"bufferView":107,"byteOffset":137952,"componentType":5126,"count":90,"max":[1.4888265132904053,3.495349884033203,-10.747869491577148],"min":[-1.466793417930603,3.001044988632202,-12.532540321350098],"type":"VEC3","name":"accessor_502"},{"bufferView":107,"byteOffset":139032,"componentType":5126,"count":90,"max":[0.8108639717102051,0.6738150119781494,-0.2550469636917114],"min":[-0.8108639717102051,0.5040950179100037,-0.6790879964828491],"type":"VEC3","name":"accessor_504"},{"bufferView":139,"byteOffset":73942,"componentType":5123,"count":12060,"type":"SCALAR","min":[0],"max":[2904],"name":"accessor_527"},{"bufferView":107,"byteOffset":140112,"componentType":5126,"count":2905,"max":[2.1899662017822266,4.581099987030029,17.751697540283203],"min":[-2.167933702468872,0.44009995460510254,-13.954289436340332],"type":"VEC3","name":"accessor_529"},{"bufferView":107,"byteOffset":174972,"componentType":5126,"count":2905,"max":[0.9999989867210388,1,0.9962310194969177],"min":[-0.9999989867210388,-1,-0.999983012676239],"type":"VEC3","name":"accessor_531"},{"bufferView":108,"byteOffset":0,"componentType":5126,"count":2905,"max":[0.8892530202865601,0.3569440245628357],"min":[0.06260839849710464,0.08360099792480469],"type":"VEC2","name":"accessor_533"},{"bufferView":139,"byteOffset":98062,"componentType":5123,"count":1395,"type":"SCALAR","min":[0],"max":[345],"name":"accessor_554"},{"bufferView":109,"byteOffset":0,"componentType":5126,"count":346,"max":[2.2393062114715576,2.2465708255767822,5.934700012207031],"min":[-2.217273712158203,0.08777999877929688,-5.554300308227539],"type":"VEC3","name":"accessor_556"},{"bufferView":109,"byteOffset":4152,"componentType":5126,"count":346,"max":[0.9998739957809448,0.8246619701385498,0.29994603991508484],"min":[-0.9998739957809448,-0.9999859929084778,-1],"type":"VEC3","name":"accessor_558"},{"bufferView":110,"byteOffset":0,"componentType":5126,"count":346,"max":[0.6715490221977234,0.36607497930526733],"min":[0.2803120017051697,0.14410501718521118],"type":"VEC2","name":"accessor_560"},{"bufferView":139,"byteOffset":100852,"componentType":5123,"count":57,"type":"SCALAR","min":[0],"max":[18],"name":"accessor_581"},{"bufferView":111,"byteOffset":0,"componentType":5126,"count":19,"max":[-0.4536559581756592,1.132469892501831,2.206899642944336],"min":[-1.9514338970184326,0.08777999877929688,0.5974997878074646],"type":"VEC3","name":"accessor_583"},{"bufferView":111,"byteOffset":228,"componentType":5126,"count":19,"max":[0.006053030025213957,-0.09077860414981842,0.014323560521006584],"min":[-0.9956949949264526,-0.9999939799308777,-0.04219293221831322],"type":"VEC3","name":"accessor_585"},{"bufferView":112,"byteOffset":0,"componentType":5126,"count":19,"max":[0.4814609885215759,0.20005500316619873],"min":[0.43974798917770386,0.17298001050949097],"type":"VEC2","name":"accessor_587"},{"bufferView":139,"byteOffset":100966,"componentType":5123,"count":57,"type":"SCALAR","min":[0],"max":[18],"name":"accessor_608"},{"bufferView":113,"byteOffset":0,"componentType":5126,"count":19,"max":[1.9734660387039185,1.132469892501831,2.206899642944336],"min":[0.47568798065185547,0.08777999877929688,0.5974999070167542],"type":"VEC3","name":"accessor_610"},{"bufferView":113,"byteOffset":228,"componentType":5126,"count":19,"max":[0.9956949949264526,-0.09078489989042282,0.014327640645205975],"min":[-0.006053030025213957,-0.9999939799308777,-0.04219316691160202],"type":"VEC3","name":"accessor_612"},{"bufferView":114,"byteOffset":0,"componentType":5126,"count":19,"max":[0.5121129751205444,0.36607497930526733],"min":[0.47039997577667236,0.33899998664855957],"type":"VEC2","name":"accessor_614"},{"bufferView":139,"byteOffset":101080,"componentType":5123,"count":72,"type":"SCALAR","min":[0],"max":[25],"name":"accessor_635"},{"bufferView":115,"byteOffset":0,"componentType":5126,"count":26,"max":[1.9292763471603394,2.097430944442749,-5.572299957275391],"min":[0.6453523635864258,0.558150053024292,-6.859400749206543],"type":"VEC3","name":"accessor_637"},{"bufferView":115,"byteOffset":312,"componentType":5126,"count":26,"max":[0.9789440035820007,-0.20412899553775787,0.000023184233214124106],"min":[0.33470600843429565,-0.9423229694366455,-0.00002315506753802765],"type":"VEC3","name":"accessor_639"},{"bufferView":116,"byteOffset":0,"componentType":5126,"count":26,"max":[0.7053719758987427,0.3538849949836731],"min":[0.672016978263855,0.3139910101890564],"type":"VEC2","name":"accessor_641"},{"bufferView":139,"byteOffset":101224,"componentType":5123,"count":228,"type":"SCALAR","min":[0],"max":[51],"name":"accessor_662"},{"bufferView":117,"byteOffset":0,"componentType":5126,"count":52,"max":[1.9292763471603394,2.097430944442749,-5.572299957275391],"min":[0.6358173489570618,0.558150053024292,-6.859400749206543],"type":"VEC3","name":"accessor_664"},{"bufferView":117,"byteOffset":624,"componentType":5126,"count":52,"max":[-0.08842840790748596,0.9832459688186646,0.8561390042304993],"min":[-0.9845719933509827,-0.07073549926280975,-0.8561519980430603],"type":"VEC3","name":"accessor_666"},{"bufferView":139,"byteOffset":101680,"componentType":5123,"count":279,"type":"SCALAR","min":[0],"max":[91],"name":"accessor_689"},{"bufferView":117,"byteOffset":1248,"componentType":5126,"count":92,"max":[1.919575810432434,2.096989870071411,6.1378021240234375],"min":[0.7763698101043701,0.7229899168014526,4.854801177978516],"type":"VEC3","name":"accessor_691"},{"bufferView":117,"byteOffset":2352,"componentType":5126,"count":92,"max":[0.9835730195045471,0.9855489730834961,0.637967050075531],"min":[0.16939100623130798,-0.9439219832420349,-0.6937099099159241],"type":"VEC3","name":"accessor_693"},{"bufferView":118,"byteOffset":0,"componentType":5126,"count":92,"max":[0.40177398920059204,0.3496130108833313],"min":[0.3685219883918762,0.31400197744369507],"type":"VEC2","name":"accessor_695"},{"bufferView":139,"byteOffset":102238,"componentType":5123,"count":417,"type":"SCALAR","min":[0],"max":[94],"name":"accessor_716"},{"bufferView":119,"byteOffset":0,"componentType":5126,"count":95,"max":[1.919575810432434,2.096989870071411,6.1378021240234375],"min":[0.7752748131752014,0.7229899168014526,4.854801177978516],"type":"VEC3","name":"accessor_718"},{"bufferView":119,"byteOffset":1140,"componentType":5126,"count":95,"max":[0.0014556838432326913,0.9974730014801025,0.8607749938964844],"min":[-0.9948930144309998,-0.17655999958515167,-0.8974120020866394],"type":"VEC3","name":"accessor_720"},{"bufferView":139,"byteOffset":103072,"componentType":5123,"count":90,"type":"SCALAR","min":[0],"max":[31],"name":"accessor_743"},{"bufferView":119,"byteOffset":2280,"componentType":5126,"count":32,"max":[-1.0633734464645386,4.104559898376465,-8.36870002746582],"min":[-1.9472734928131104,2.085883855819702,-9.384930610656738],"type":"VEC3","name":"accessor_745"},{"bufferView":119,"byteOffset":2664,"componentType":5126,"count":32,"max":[-0.6344299912452698,0.769698977470398,-0.04465584456920624],"min":[-0.9986979961395264,-0.09671320021152496,-0.126194030046463],"type":"VEC3","name":"accessor_747"},{"bufferView":120,"byteOffset":0,"componentType":5126,"count":32,"max":[0.20737199485301971,0.14827001094818115],"min":[0.18103300034999847,0.09595197439193726],"type":"VEC2","name":"accessor_749"},{"bufferView":139,"byteOffset":103252,"componentType":5123,"count":138,"type":"SCALAR","min":[0],"max":[45],"name":"accessor_770"},{"bufferView":121,"byteOffset":0,"componentType":5126,"count":46,"max":[-1.7428938150405884,3.4935858249664307,-0.5598011612892151],"min":[-1.963913917541504,2.4865567684173584,-1.0598012208938599],"type":"VEC3","name":"accessor_772"},{"bufferView":121,"byteOffset":552,"componentType":5126,"count":46,"max":[-0.8845570087432861,0.46643200516700745,0.000015008587070042267],"min":[-0.999966025352478,-0.10678400099277496,-0.000015092413377715275],"type":"VEC3","name":"accessor_774"},{"bufferView":122,"byteOffset":0,"componentType":5126,"count":46,"max":[0.40975499153137207,0.13788598775863647],"min":[0.3967970013618469,0.11178600788116455],"type":"VEC2","name":"accessor_776"},{"bufferView":139,"byteOffset":103528,"componentType":5123,"count":120,"type":"SCALAR","min":[0],"max":[40],"name":"accessor_797"},{"bufferView":123,"byteOffset":0,"componentType":5126,"count":41,"max":[-1.1034643650054932,4.1243896484375,10.308399200439453],"min":[-1.7910442352294922,2.063999891281128,9.282400131225586],"type":"VEC3","name":"accessor_799"},{"bufferView":123,"byteOffset":492,"componentType":5126,"count":41,"max":[-0.6043810248374939,0.796051025390625,0.18359895050525665],"min":[-0.9909610152244568,-0.5760409832000732,0.03204937279224396],"type":"VEC3","name":"accessor_801"},{"bufferView":124,"byteOffset":0,"componentType":5126,"count":41,"max":[0.6914290189743042,0.14883702993392944],"min":[0.6648380160331726,0.09543800354003906],"type":"VEC2","name":"accessor_803"},{"bufferView":139,"byteOffset":103768,"componentType":5123,"count":90,"type":"SCALAR","min":[0],"max":[31],"name":"accessor_824"},{"bufferView":125,"byteOffset":0,"componentType":5126,"count":32,"max":[1.9693063497543335,4.104559898376465,-8.36870002746582],"min":[1.0854065418243408,2.085883855819702,-9.384930610656738],"type":"VEC3","name":"accessor_826"},{"bufferView":125,"byteOffset":384,"componentType":5126,"count":32,"max":[0.9986979961395264,0.769665002822876,-0.04465685412287712],"min":[0.6344689726829529,-0.09667820483446121,-0.12620197236537933],"type":"VEC3","name":"accessor_828"},{"bufferView":126,"byteOffset":0,"componentType":5126,"count":32,"max":[0.7708280086517334,0.31429004669189453],"min":[0.7444890141487122,0.26197201013565063],"type":"VEC2","name":"accessor_830"},{"bufferView":139,"byteOffset":103948,"componentType":5123,"count":138,"type":"SCALAR","min":[0],"max":[45],"name":"accessor_851"},{"bufferView":127,"byteOffset":0,"componentType":5126,"count":46,"max":[1.9859461784362793,3.4935858249664307,-0.5598010420799255],"min":[1.7649259567260742,2.4865567684173584,-1.0598009824752808],"type":"VEC3","name":"accessor_853"},{"bufferView":127,"byteOffset":552,"componentType":5126,"count":46,"max":[0.999966025352478,0.466403990983963,0.000016410333046223968],"min":[0.8845719695091248,-0.10672900080680847,-0.00001632326893741265],"type":"VEC3","name":"accessor_855"},{"bufferView":128,"byteOffset":0,"componentType":5126,"count":46,"max":[0.5550640225410461,0.30390602350234985],"min":[0.5421050190925598,0.27780699729919434],"type":"VEC2","name":"accessor_857"},{"bufferView":139,"byteOffset":104224,"componentType":5123,"count":120,"type":"SCALAR","min":[0],"max":[40],"name":"accessor_878"},{"bufferView":129,"byteOffset":0,"componentType":5126,"count":41,"max":[1.8130756616592407,4.1243896484375,10.308399200439453],"min":[1.1254955530166626,2.063999891281128,9.282400131225586],"type":"VEC3","name":"accessor_880"},{"bufferView":129,"byteOffset":492,"componentType":5126,"count":41,"max":[0.9909610152244568,0.796068012714386,0.18358704447746277],"min":[0.604358971118927,-0.5759570002555847,0.03202502429485321],"type":"VEC3","name":"accessor_882"},{"bufferView":130,"byteOffset":0,"componentType":5126,"count":41,"max":[0.28702300786972046,0.31485700607299805],"min":[0.26043200492858887,0.26145797967910767],"type":"VEC2","name":"accessor_884"},{"bufferView":139,"byteOffset":104464,"componentType":5123,"count":24,"type":"SCALAR","min":[0],"max":[9],"name":"accessor_905"},{"bufferView":131,"byteOffset":0,"componentType":5126,"count":10,"max":[0.011016424745321274,0.5411398410797119,-8.416500091552734],"min":[-0.48898354172706604,0.45109987258911133,-8.895299911499023],"type":"VEC3","name":"accessor_907"},{"bufferView":131,"byteOffset":120,"componentType":5126,"count":10,"max":[-0.10183999687433243,-0.953698992729187,-0.02847360447049141],"min":[-0.2993850111961365,-0.994388997554779,-0.030622711405158043],"type":"VEC3","name":"accessor_909"},{"bufferView":132,"byteOffset":0,"componentType":5126,"count":10,"max":[0.20613299310207367,0.19063901901245117],"min":[0.19372299313545227,0.18830502033233643],"type":"VEC2","name":"accessor_911"},{"bufferView":139,"byteOffset":104512,"componentType":5123,"count":24,"type":"SCALAR","min":[0],"max":[9],"name":"accessor_932"},{"bufferView":133,"byteOffset":0,"componentType":5126,"count":10,"max":[0.5110164284706116,0.5411398410797119,-8.416500091552734],"min":[0.011016403324902058,0.45109987258911133,-8.895299911499023],"type":"VEC3","name":"accessor_934"},{"bufferView":133,"byteOffset":120,"componentType":5126,"count":10,"max":[0.2993850111961365,-0.953698992729187,-0.028473496437072754],"min":[0.10183899849653244,-0.9943899512290955,-0.03062288835644722],"type":"VEC3","name":"accessor_936"},{"bufferView":134,"byteOffset":0,"componentType":5126,"count":10,"max":[0.7581380009651184,0.3566589951515198],"min":[0.7457280158996582,0.35432499647140503],"type":"VEC2","name":"accessor_938"},{"bufferView":139,"byteOffset":104560,"componentType":5123,"count":24,"type":"SCALAR","min":[0],"max":[11],"name":"accessor_959"},{"bufferView":135,"byteOffset":0,"componentType":5126,"count":12,"max":[0.13601647317409515,0.4876899719238281,-8.895299911499023],"min":[-0.11398353427648544,0.4651000499725342,-9.176300048828125],"type":"VEC3","name":"accessor_961"},{"bufferView":135,"byteOffset":144,"componentType":5126,"count":12,"max":[0.1013989970088005,-0.9942479729652405,-0.03449489548802376],"min":[-0.1013989970088005,-0.9993810057640076,-0.035437799990177155],"type":"VEC3","name":"accessor_963"},{"bufferView":136,"byteOffset":0,"componentType":5126,"count":12,"max":[0.7654209733009338,0.35629600286483765],"min":[0.18643999099731445,0.1896899938583374],"type":"VEC2","name":"accessor_965"},{"bufferView":139,"byteOffset":104608,"componentType":5123,"count":81,"type":"SCALAR","min":[0],"max":[24],"name":"accessor_986"},{"bufferView":137,"byteOffset":0,"componentType":5126,"count":25,"max":[0.01101652067154646,0.6753199100494385,-8.895299911499023],"min":[-0.48898351192474365,0.4714698791503906,-11.100299835205078],"type":"VEC3","name":"accessor_988"},{"bufferView":137,"byteOffset":300,"componentType":5126,"count":25,"max":[-0.0839252918958664,-0.9537240266799927,-0.03430810570716858],"min":[-0.2986139953136444,-0.9942880272865295,-0.11709200590848923],"type":"VEC3","name":"accessor_990"},{"bufferView":138,"byteOffset":0,"componentType":5126,"count":25,"max":[0.19372299313545227,0.190110981464386],"min":[0.13657599687576294,0.184827983379364],"type":"VEC2","name":"accessor_992"},{"bufferView":140,"componentType":5126,"count":477,"type":"VEC3","min":[-0.8987765502929672,3.3206196948885918,-15.852993488311768],"max":[0.6646465253829973,10.93838882446289,-7.279595851898193]},{"bufferView":141,"componentType":5126,"count":477,"type":"VEC3"},{"bufferView":142,"componentType":5126,"count":204,"type":"VEC3","min":[-0.3571408285228828,6.557837377141296,-14.138907437216185],"max":[0.11075648521573778,8.689317262502081,-12.007427551855399]},{"bufferView":143,"componentType":5126,"count":204,"type":"VEC3"},{"bufferView":144,"componentType":5126,"count":204,"type":"VEC2"}],"asset":{"generator":"collada2gltf@","version":"2.0","copyright":"FlightGear model authors / Flightradar24 contributors; GPLv2. See UPSTREAM-CREDITS.md and LICENSE.txt."},"bufferViews":[{"buffer":0,"byteLength":583,"byteOffset":914394,"name":"binary_bufferView0"},{"buffer":0,"byteLength":355,"byteOffset":914977,"name":"binary_bufferView1"},{"buffer":0,"byteLength":668,"byteOffset":915332,"name":"binary_bufferView2"},{"buffer":0,"byteLength":439,"byteOffset":916000,"name":"binary_bufferView3"},{"buffer":0,"byteLength":620,"byteOffset":916439,"name":"binary_bufferView4"},{"buffer":0,"byteLength":439,"byteOffset":917059,"name":"binary_bufferView5"},{"buffer":0,"byteLength":583,"byteOffset":917498,"name":"binary_bufferView6"},{"buffer":0,"byteLength":355,"byteOffset":918081,"name":"binary_bufferView7"},{"buffer":0,"byteLength":631,"byteOffset":918436,"name":"binary_bufferView8"},{"buffer":0,"byteLength":355,"byteOffset":919067,"name":"binary_bufferView9"},{"buffer":0,"byteLength":535,"byteOffset":919422,"name":"binary_bufferView10"},{"buffer":0,"byteLength":355,"byteOffset":919957,"name":"binary_bufferView11"},{"buffer":0,"byteLength":469,"byteOffset":920312,"name":"binary_bufferView12"},{"buffer":0,"byteLength":355,"byteOffset":920781,"name":"binary_bufferView13"},{"buffer":0,"byteLength":102198,"byteOffset":921136,"name":"binary_bufferView14"},{"buffer":0,"byteLength":600,"byteOffset":0,"target":34962,"name":"bufferView_0","byteStride":12},{"buffer":0,"byteLength":200,"byteOffset":600,"target":34962,"name":"bufferView_0","byteStride":8},{"buffer":0,"byteLength":127488,"byteOffset":800,"target":34962,"name":"bufferView_0","byteStride":12},{"buffer":0,"byteLength":13152,"byteOffset":128288,"target":34962,"name":"bufferView_0","byteStride":8},{"buffer":0,"byteLength":76128,"byteOffset":141440,"target":34962,"name":"bufferView_0","byteStride":12},{"buffer":0,"byteLength":25376,"byteOffset":217568,"target":34962,"name":"bufferView_0","byteStride":8},{"buffer":0,"byteLength":432,"byteOffset":242944,"target":34962,"name":"bufferView_0","byteStride":12},{"buffer":0,"byteLength":144,"byteOffset":243376,"target":34962,"name":"bufferView_0","byteStride":8},{"buffer":0,"byteLength":432,"byteOffset":243520,"target":34962,"name":"bufferView_0","byteStride":12},{"buffer":0,"byteLength":144,"byteOffset":243952,"target":34962,"name":"bufferView_0","byteStride":8},{"buffer":0,"byteLength":7776,"byteOffset":244096,"target":34962,"name":"bufferView_0","byteStride":12},{"buffer":0,"byteLength":2592,"byteOffset":251872,"target":34962,"name":"bufferView_0","byteStride":8},{"buffer":0,"byteLength":8496,"byteOffset":254464,"target":34962,"name":"bufferView_0","byteStride":12},{"buffer":0,"byteLength":2832,"byteOffset":262960,"target":34962,"name":"bufferView_0","byteStride":8},{"buffer":0,"byteLength":8424,"byteOffset":265792,"target":34962,"name":"bufferView_0","byteStride":12},{"buffer":0,"byteLength":2808,"byteOffset":274216,"target":34962,"name":"bufferView_0","byteStride":8},{"buffer":0,"byteLength":9192,"byteOffset":277024,"target":34962,"name":"bufferView_0","byteStride":12},{"buffer":0,"byteLength":3064,"byteOffset":286216,"target":34962,"name":"bufferView_0","byteStride":8},{"buffer":0,"byteLength":7776,"byteOffset":289280,"target":34962,"name":"bufferView_0","byteStride":12},{"buffer":0,"byteLength":2592,"byteOffset":297056,"target":34962,"name":"bufferView_0","byteStride":8},{"buffer":0,"byteLength":8496,"byteOffset":299648,"target":34962,"name":"bufferView_0","byteStride":12},{"buffer":0,"byteLength":2832,"byteOffset":308144,"target":34962,"name":"bufferView_0","byteStride":8},{"buffer":0,"byteLength":8424,"byteOffset":310976,"target":34962,"name":"bufferView_0","byteStride":12},{"buffer":0,"byteLength":2808,"byteOffset":319400,"target":34962,"name":"bufferView_0","byteStride":8},{"buffer":0,"byteLength":3696,"byteOffset":322208,"target":34962,"name":"bufferView_0","byteStride":12},{"buffer":0,"byteLength":1232,"byteOffset":325904,"target":34962,"name":"bufferView_0","byteStride":8},{"buffer":0,"byteLength":3096,"byteOffset":327136,"target":34962,"name":"bufferView_0","byteStride":12},{"buffer":0,"byteLength":1032,"byteOffset":330232,"target":34962,"name":"bufferView_0","byteStride":8},{"buffer":0,"byteLength":3696,"byteOffset":331264,"target":34962,"name":"bufferView_0","byteStride":12},{"buffer":0,"byteLength":1232,"byteOffset":334960,"target":34962,"name":"bufferView_0","byteStride":8},{"buffer":0,"byteLength":3096,"byteOffset":336192,"target":34962,"name":"bufferView_0","byteStride":12},{"buffer":0,"byteLength":1032,"byteOffset":339288,"target":34962,"name":"bufferView_0","byteStride":8},{"buffer":0,"byteLength":5688,"byteOffset":340320,"target":34962,"name":"bufferView_0","byteStride":12},{"buffer":0,"byteLength":336,"byteOffset":346008,"target":34962,"name":"bufferView_0","byteStride":8},{"buffer":0,"byteLength":8712,"byteOffset":346344,"target":34962,"name":"bufferView_0","byteStride":12},{"buffer":0,"byteLength":1344,"byteOffset":355056,"target":34962,"name":"bufferView_0","byteStride":8},{"buffer":0,"byteLength":8136,"byteOffset":356400,"target":34962,"name":"bufferView_0","byteStride":12},{"buffer":0,"byteLength":2712,"byteOffset":364536,"target":34962,"name":"bufferView_0","byteStride":8},{"buffer":0,"byteLength":5760,"byteOffset":367248,"target":34962,"name":"bufferView_0","byteStride":12},{"buffer":0,"byteLength":1920,"byteOffset":373008,"target":34962,"name":"bufferView_0","byteStride":8},{"buffer":0,"byteLength":5904,"byteOffset":374928,"target":34962,"name":"bufferView_0","byteStride":12},{"buffer":0,"byteLength":1968,"byteOffset":380832,"target":34962,"name":"bufferView_0","byteStride":8},{"buffer":0,"byteLength":5328,"byteOffset":382800,"target":34962,"name":"bufferView_0","byteStride":12},{"buffer":0,"byteLength":1776,"byteOffset":388128,"target":34962,"name":"bufferView_0","byteStride":8},{"buffer":0,"byteLength":4032,"byteOffset":389904,"target":34962,"name":"bufferView_0","byteStride":12},{"buffer":0,"byteLength":1344,"byteOffset":393936,"target":34962,"name":"bufferView_0","byteStride":8},{"buffer":0,"byteLength":8136,"byteOffset":395280,"target":34962,"name":"bufferView_0","byteStride":12},{"buffer":0,"byteLength":2712,"byteOffset":403416,"target":34962,"name":"bufferView_0","byteStride":8},{"buffer":0,"byteLength":5760,"byteOffset":406128,"target":34962,"name":"bufferView_0","byteStride":12},{"buffer":0,"byteLength":1920,"byteOffset":411888,"target":34962,"name":"bufferView_0","byteStride":8},{"buffer":0,"byteLength":5904,"byteOffset":413808,"target":34962,"name":"bufferView_0","byteStride":12},{"buffer":0,"byteLength":1968,"byteOffset":419712,"target":34962,"name":"bufferView_0","byteStride":8},{"buffer":0,"byteLength":19536,"byteOffset":421680,"target":34962,"name":"bufferView_0","byteStride":12},{"buffer":0,"byteLength":1776,"byteOffset":441216,"target":34962,"name":"bufferView_0","byteStride":8},{"buffer":0,"byteLength":14928,"byteOffset":442992,"target":34962,"name":"bufferView_0","byteStride":12},{"buffer":0,"byteLength":9712,"byteOffset":457920,"target":34962,"name":"bufferView_0","byteStride":8},{"buffer":0,"byteLength":576,"byteOffset":467632,"target":34962,"name":"bufferView_0","byteStride":12},{"buffer":0,"byteLength":192,"byteOffset":468208,"target":34962,"name":"bufferView_0","byteStride":8},{"buffer":0,"byteLength":576,"byteOffset":468400,"target":34962,"name":"bufferView_0","byteStride":12},{"buffer":0,"byteLength":192,"byteOffset":468976,"target":34962,"name":"bufferView_0","byteStride":8},{"buffer":0,"byteLength":576,"byteOffset":469168,"target":34962,"name":"bufferView_0","byteStride":12},{"buffer":0,"byteLength":192,"byteOffset":469744,"target":34962,"name":"bufferView_0","byteStride":8},{"buffer":0,"byteLength":720,"byteOffset":469936,"target":34962,"name":"bufferView_0","byteStride":12},{"buffer":0,"byteLength":240,"byteOffset":470656,"target":34962,"name":"bufferView_0","byteStride":8},{"buffer":0,"byteLength":1224,"byteOffset":470896,"target":34962,"name":"bufferView_0","byteStride":12},{"buffer":0,"byteLength":408,"byteOffset":472120,"target":34962,"name":"bufferView_0","byteStride":8},{"buffer":0,"byteLength":576,"byteOffset":472528,"target":34962,"name":"bufferView_0","byteStride":12},{"buffer":0,"byteLength":192,"byteOffset":473104,"target":34962,"name":"bufferView_0","byteStride":8},{"buffer":0,"byteLength":576,"byteOffset":473296,"target":34962,"name":"bufferView_0","byteStride":12},{"buffer":0,"byteLength":192,"byteOffset":473872,"target":34962,"name":"bufferView_0","byteStride":8},{"buffer":0,"byteLength":576,"byteOffset":474064,"target":34962,"name":"bufferView_0","byteStride":12},{"buffer":0,"byteLength":192,"byteOffset":474640,"target":34962,"name":"bufferView_0","byteStride":8},{"buffer":0,"byteLength":1848,"byteOffset":474832,"target":34962,"name":"bufferView_0","byteStride":12},{"buffer":0,"byteLength":240,"byteOffset":476680,"target":34962,"name":"bufferView_0","byteStride":8},{"buffer":0,"byteLength":13224,"byteOffset":476920,"target":34962,"name":"bufferView_0","byteStride":12},{"buffer":0,"byteLength":4032,"byteOffset":490144,"target":34962,"name":"bufferView_0","byteStride":8},{"buffer":0,"byteLength":7728,"byteOffset":494176,"target":34962,"name":"bufferView_0","byteStride":12},{"buffer":0,"byteLength":2576,"byteOffset":501904,"target":34962,"name":"bufferView_0","byteStride":8},{"buffer":0,"byteLength":1920,"byteOffset":504480,"target":34962,"name":"bufferView_0","byteStride":12},{"buffer":0,"byteLength":640,"byteOffset":506400,"target":34962,"name":"bufferView_0","byteStride":8},{"buffer":0,"byteLength":1920,"byteOffset":507040,"target":34962,"name":"bufferView_0","byteStride":12},{"buffer":0,"byteLength":640,"byteOffset":508960,"target":34962,"name":"bufferView_0","byteStride":8},{"buffer":0,"byteLength":528,"byteOffset":509600,"target":34962,"name":"bufferView_0","byteStride":12},{"buffer":0,"byteLength":176,"byteOffset":510128,"target":34962,"name":"bufferView_0","byteStride":8},{"buffer":0,"byteLength":528,"byteOffset":510304,"target":34962,"name":"bufferView_0","byteStride":12},{"buffer":0,"byteLength":176,"byteOffset":510832,"target":34962,"name":"bufferView_0","byteStride":8},{"buffer":0,"byteLength":13920,"byteOffset":511008,"target":34962,"name":"bufferView_0","byteStride":12},{"buffer":0,"byteLength":1000,"byteOffset":524928,"target":34962,"name":"bufferView_0","byteStride":8},{"buffer":0,"byteLength":2544,"byteOffset":525928,"target":34962,"name":"bufferView_0","byteStride":12},{"buffer":0,"byteLength":848,"byteOffset":528472,"target":34962,"name":"bufferView_0","byteStride":8},{"buffer":0,"byteLength":10920,"byteOffset":529320,"target":34962,"name":"bufferView_0","byteStride":12},{"buffer":0,"byteLength":7280,"byteOffset":540240,"target":34962,"name":"bufferView_0","byteStride":8},{"buffer":0,"byteLength":209832,"byteOffset":547520,"target":34962,"name":"bufferView_0","byteStride":12},{"buffer":0,"byteLength":23240,"byteOffset":757352,"target":34962,"name":"bufferView_0","byteStride":8},{"buffer":0,"byteLength":8304,"byteOffset":780592,"target":34962,"name":"bufferView_0","byteStride":12},{"buffer":0,"byteLength":2768,"byteOffset":788896,"target":34962,"name":"bufferView_0","byteStride":8},{"buffer":0,"byteLength":456,"byteOffset":791664,"target":34962,"name":"bufferView_0","byteStride":12},{"buffer":0,"byteLength":152,"byteOffset":792120,"target":34962,"name":"bufferView_0","byteStride":8},{"buffer":0,"byteLength":456,"byteOffset":792272,"target":34962,"name":"bufferView_0","byteStride":12},{"buffer":0,"byteLength":152,"byteOffset":792728,"target":34962,"name":"bufferView_0","byteStride":8},{"buffer":0,"byteLength":624,"byteOffset":792880,"target":34962,"name":"bufferView_0","byteStride":12},{"buffer":0,"byteLength":208,"byteOffset":793504,"target":34962,"name":"bufferView_0","byteStride":8},{"buffer":0,"byteLength":3456,"byteOffset":793712,"target":34962,"name":"bufferView_0","byteStride":12},{"buffer":0,"byteLength":736,"byteOffset":797168,"target":34962,"name":"bufferView_0","byteStride":8},{"buffer":0,"byteLength":3048,"byteOffset":797904,"target":34962,"name":"bufferView_0","byteStride":12},{"buffer":0,"byteLength":256,"byteOffset":800952,"target":34962,"name":"bufferView_0","byteStride":8},{"buffer":0,"byteLength":1104,"byteOffset":801208,"target":34962,"name":"bufferView_0","byteStride":12},{"buffer":0,"byteLength":368,"byteOffset":802312,"target":34962,"name":"bufferView_0","byteStride":8},{"buffer":0,"byteLength":984,"byteOffset":802680,"target":34962,"name":"bufferView_0","byteStride":12},{"buffer":0,"byteLength":328,"byteOffset":803664,"target":34962,"name":"bufferView_0","byteStride":8},{"buffer":0,"byteLength":768,"byteOffset":803992,"target":34962,"name":"bufferView_0","byteStride":12},{"buffer":0,"byteLength":256,"byteOffset":804760,"target":34962,"name":"bufferView_0","byteStride":8},{"buffer":0,"byteLength":1104,"byteOffset":805016,"target":34962,"name":"bufferView_0","byteStride":12},{"buffer":0,"byteLength":368,"byteOffset":806120,"target":34962,"name":"bufferView_0","byteStride":8},{"buffer":0,"byteLength":984,"byteOffset":806488,"target":34962,"name":"bufferView_0","byteStride":12},{"buffer":0,"byteLength":328,"byteOffset":807472,"target":34962,"name":"bufferView_0","byteStride":8},{"buffer":0,"byteLength":240,"byteOffset":807800,"target":34962,"name":"bufferView_0","byteStride":12},{"buffer":0,"byteLength":80,"byteOffset":808040,"target":34962,"name":"bufferView_0","byteStride":8},{"buffer":0,"byteLength":240,"byteOffset":808120,"target":34962,"name":"bufferView_0","byteStride":12},{"buffer":0,"byteLength":80,"byteOffset":808360,"target":34962,"name":"bufferView_0","byteStride":8},{"buffer":0,"byteLength":288,"byteOffset":808440,"target":34962,"name":"bufferView_0","byteStride":12},{"buffer":0,"byteLength":96,"byteOffset":808728,"target":34962,"name":"bufferView_0","byteStride":8},{"buffer":0,"byteLength":600,"byteOffset":808824,"target":34962,"name":"bufferView_0","byteStride":12},{"buffer":0,"byteLength":200,"byteOffset":809424,"target":34962,"name":"bufferView_0","byteStride":8},{"buffer":0,"byteLength":104770,"byteOffset":809624,"target":34963,"name":"bufferView_1"},{"buffer":1,"byteOffset":0,"byteLength":5724,"target":34962},{"buffer":1,"byteOffset":5724,"byteLength":5724,"target":34962},{"buffer":1,"byteOffset":11448,"byteLength":2448,"target":34962},{"buffer":1,"byteOffset":13896,"byteLength":2448,"target":34962},{"buffer":1,"byteOffset":16344,"byteLength":1632,"target":34962}],"buffers":[{"byteLength":1023334,"extras":{},"name":"binary_glTF","uri":"../a318-v1-0.bin"},{"uri":"a318-tail-v1.bin?tail=2","byteLength":17976}],"images":[{"name":"image1","extras":{},"bufferView":14,"mimeType":"image/jpeg"},{"uri":"../../../airlines/QFA.png"}],"materials":[{"name":"CockpitFrame_001","doubleSided":true,"pbrMetallicRoughness":{"roughnessFactor":1,"metallicFactor":0,"baseColorFactor":[0.2603565055070532,0.2603565055070532,0.2603565055070532,1]}},{"name":"DefaultWhite_001","doubleSided":true,"pbrMetallicRoughness":{"roughnessFactor":1,"metallicFactor":0,"baseColorTexture":{"index":0}}},{"name":"DefaultWhite_003","doubleSided":true,"pbrMetallicRoughness":{"roughnessFactor":1,"metallicFactor":0,"baseColorFactor":[0.6038273590607633,0.6038273590607633,0.6038273590607633,1]}},{"name":"DefaultWhite_004","pbrMetallicRoughness":{"roughnessFactor":1,"metallicFactor":0,"baseColorTexture":{"index":0}}},{"name":"DefaultWhite_005","doubleSided":true,"pbrMetallicRoughness":{"roughnessFactor":1,"metallicFactor":0,"baseColorFactor":[0.6038273590607633,0.6038273590607633,0.6038273590607633,1]}},{"name":"DefaultWhite_006","pbrMetallicRoughness":{"roughnessFactor":1,"metallicFactor":0,"baseColorTexture":{"index":0}}},{"name":"DefaultWhite_007","pbrMetallicRoughness":{"roughnessFactor":1,"metallicFactor":0,"baseColorTexture":{"index":0}}},{"name":"DefaultWhite_008","doubleSided":true,"pbrMetallicRoughness":{"roughnessFactor":1,"metallicFactor":0,"baseColorFactor":[0.6038273590607633,0.6038273590607633,0.6038273590607633,1]}},{"name":"DefaultWhite_009","pbrMetallicRoughness":{"roughnessFactor":1,"metallicFactor":0,"baseColorTexture":{"index":0}}},{"name":"DefaultWhite_010","doubleSided":true,"pbrMetallicRoughness":{"roughnessFactor":1,"metallicFactor":0,"baseColorFactor":[0.6038273590607633,0.6038273590607633,0.6038273590607633,1]}},{"name":"DefaultWhite_011","pbrMetallicRoughness":{"roughnessFactor":1,"metallicFactor":0,"baseColorTexture":{"index":0}}},{"name":"DoorInterior_001","doubleSided":true,"pbrMetallicRoughness":{"roughnessFactor":1,"metallicFactor":0,"baseColorFactor":[0.022866111412981064,0.022866111412981064,0.022866111412981064,1]}},{"name":"Glass_001","alphaMode":"BLEND","doubleSided":true,"pbrMetallicRoughness":{"roughnessFactor":1,"metallicFactor":0,"baseColorFactor":[0.36724645006859014,0.36724645006859014,0.36724645006859014,1]}},{"name":"Glass_001","alphaMode":"BLEND","doubleSided":true,"pbrMetallicRoughness":{"roughnessFactor":1,"metallicFactor":0,"baseColorFactor":[0.36724645006859014,0.36724645006859014,0.36724645006859014,1]}},{"name":"IntakeInterior","pbrMetallicRoughness":{"roughnessFactor":1,"metallicFactor":0,"baseColorFactor":[0.24468416949706098,0.24468416949706098,0.24468416949706098,1]}},{"name":"IntakeInterior_001","pbrMetallicRoughness":{"roughnessFactor":1,"metallicFactor":0,"baseColorFactor":[0.24468416949706098,0.24468416949706098,0.24468416949706098,1]}},{"name":"Nozzle","pbrMetallicRoughness":{"roughnessFactor":1,"metallicFactor":0,"baseColorFactor":[0.6038273590607633,0.6038273590607633,0.6038273590607633,1]}},{"name":"Nozzle_001","pbrMetallicRoughness":{"roughnessFactor":1,"metallicFactor":0,"baseColorFactor":[0.6038273590607633,0.6038273590607633,0.6038273590607633,1]}},{"name":"Pylon","doubleSided":true,"pbrMetallicRoughness":{"roughnessFactor":1,"metallicFactor":0,"baseColorFactor":[0.2302963787266814,0.2302963787266814,0.2302963787266814,1]}},{"name":"Pylon_001","doubleSided":true,"pbrMetallicRoughness":{"roughnessFactor":1,"metallicFactor":0,"baseColorFactor":[0.2302963787266814,0.2302963787266814,0.2302963787266814,1]}},{"name":"aluminum","pbrMetallicRoughness":{"roughnessFactor":1,"metallicFactor":0,"baseColorFactor":[0.04821866009990484,0.05321053450733547,0.058491969679291836,1]}},{"name":"aluminum_001","pbrMetallicRoughness":{"roughnessFactor":1,"metallicFactor":0,"baseColorFactor":[0.04821866009990484,0.05321053450733547,0.058491969679291836,1]}},{"name":"black","pbrMetallicRoughness":{"roughnessFactor":1,"metallicFactor":0,"baseColorFactor":[0.006391944171445817,0.006391944171445817,0.006391944171445817,1]}},{"name":"black_001","pbrMetallicRoughness":{"roughnessFactor":1,"metallicFactor":0,"baseColorFactor":[0.006391944171445817,0.006391944171445817,0.006391944171445817,1]}},{"name":"grey","doubleSided":true,"pbrMetallicRoughness":{"roughnessFactor":1,"metallicFactor":0,"baseColorFactor":[0.016435930611271916,0.016435930611271916,0.016435930611271916,1]}},{"name":"grey_001","doubleSided":true,"pbrMetallicRoughness":{"roughnessFactor":1,"metallicFactor":0,"baseColorFactor":[0.016435930611271916,0.016435930611271916,0.016435930611271916,1]}},{"name":"material2","pbrMetallicRoughness":{"roughnessFactor":1,"metallicFactor":0,"baseColorFactor":[0,0,0,1]}},{"name":"material3","pbrMetallicRoughness":{"roughnessFactor":1,"metallicFactor":0,"baseColorFactor":[0,0,0,1]}},{"name":"material4","pbrMetallicRoughness":{"roughnessFactor":1,"metallicFactor":0,"baseColorFactor":[0,0,0,1]}},{"name":"material5","pbrMetallicRoughness":{"roughnessFactor":1,"metallicFactor":0,"baseColorFactor":[0,0,0,1]}},{"name":"white","pbrMetallicRoughness":{"roughnessFactor":1,"metallicFactor":0,"baseColorFactor":[0.32397645079923604,0.32397645079923604,0.32397645079923604,1]}},{"name":"white_001","pbrMetallicRoughness":{"roughnessFactor":1,"metallicFactor":0,"baseColorFactor":[0.32397645079923604,0.32397645079923604,0.32397645079923604,1]}},{"name":"Operator tail paint","doubleSided":true,"pbrMetallicRoughness":{"baseColorFactor":[0.796078431372549,0.12549019607843137,0.2,1],"metallicFactor":0,"roughnessFactor":0.65}},{"name":"Operator logo identification","doubleSided":true,"alphaMode":"MASK","alphaCutoff":0.08,"pbrMetallicRoughness":{"baseColorTexture":{"index":1},"metallicFactor":0,"roughnessFactor":0.7},"emissiveFactor":[0.18,0.18,0.18],"emissiveTexture":{"index":1}}],"meshes":[{"name":"Cube_004","primitives":[{"attributes":{"NORMAL":203,"POSITION":202},"indices":201,"material":30,"mode":4}]},{"name":"Cube_000","primitives":[{"attributes":{"NORMAL":203,"POSITION":202},"indices":201,"material":31,"mode":4}]},{"name":"EngineR","primitives":[{"attributes":{"NORMAL":190,"POSITION":181,"TEXCOORD_0":191},"indices":150,"material":10,"mode":4}]},{"name":"Intake_001","primitives":[{"attributes":{"NORMAL":118,"POSITION":114,"TEXCOORD_0":123},"indices":113,"material":10,"mode":4}]},{"name":"IntakeInterior","primitives":[{"attributes":{"NORMAL":80,"POSITION":76},"indices":74,"material":14,"mode":4}]},{"name":"Intake","primitives":[{"attributes":{"NORMAL":118,"POSITION":114,"TEXCOORD_0":123},"indices":113,"material":8,"mode":4}]},{"name":"EngineL","primitives":[{"attributes":{"NORMAL":190,"POSITION":181,"TEXCOORD_0":191},"indices":150,"material":8,"mode":4}]},{"name":"IntakeInterior_001","primitives":[{"attributes":{"NORMAL":80,"POSITION":76},"indices":74,"material":15,"mode":4}]},{"name":"Nacelle","primitives":[{"attributes":{"NORMAL":46,"POSITION":45,"TEXCOORD_0":47},"indices":40,"material":8,"mode":4}]},{"name":"Nacelle_001","primitives":[{"attributes":{"NORMAL":46,"POSITION":45,"TEXCOORD_0":47},"indices":40,"material":10,"mode":4}]},{"name":"Nozzle","primitives":[{"attributes":{"NORMAL":9,"POSITION":5},"indices":4,"material":16,"mode":4}]},{"name":"Nozzle_001","primitives":[{"attributes":{"NORMAL":9,"POSITION":5},"indices":4,"material":17,"mode":4}]},{"name":"Plane","primitives":[{"attributes":{"NORMAL":200,"POSITION":199},"indices":198,"material":30,"mode":4}]},{"name":"Plane_001","primitives":[{"attributes":{"NORMAL":200,"POSITION":199},"indices":198,"material":31,"mode":4}]},{"name":"Core","primitives":[{"attributes":{"NORMAL":196,"POSITION":195},"indices":193,"material":7,"mode":4}]},{"name":"Core_001","primitives":[{"attributes":{"NORMAL":196,"POSITION":195},"indices":193,"material":9,"mode":4}]},{"name":"blades","primitives":[{"attributes":{"NORMAL":206,"POSITION":205},"indices":204,"material":24,"mode":4}]},{"name":"blades_001","primitives":[{"attributes":{"NORMAL":206,"POSITION":205},"indices":204,"material":25,"mode":4}]},{"name":"casing","primitives":[{"attributes":{"NORMAL":209,"POSITION":208},"indices":207,"material":20,"mode":4}]},{"name":"casing_001","primitives":[{"attributes":{"NORMAL":209,"POSITION":208},"indices":207,"material":21,"mode":4}]},{"name":"cone2","primitives":[{"attributes":{"NORMAL":215,"POSITION":214},"indices":213,"material":20,"mode":4}]},{"name":"cone2_001","primitives":[{"attributes":{"NORMAL":215,"POSITION":214},"indices":213,"material":21,"mode":4}]},{"name":"cone","primitives":[{"attributes":{"NORMAL":212,"POSITION":211},"indices":64,"material":30,"mode":4},{"attributes":{"NORMAL":212,"POSITION":211},"indices":210,"material":22,"mode":4}]},{"name":"cone_001","primitives":[{"attributes":{"NORMAL":212,"POSITION":211},"indices":64,"material":31,"mode":4},{"attributes":{"NORMAL":212,"POSITION":211},"indices":210,"material":23,"mode":4}]},{"name":"exhaust","primitives":[{"attributes":{"NORMAL":197,"POSITION":194},"indices":192,"material":20,"mode":4}]},{"name":"exhaust_001","primitives":[{"attributes":{"NORMAL":197,"POSITION":194},"indices":192,"material":21,"mode":4}]},{"name":"fanWheel","primitives":[{"attributes":{"NORMAL":156,"POSITION":152},"indices":151,"material":24,"mode":4}]},{"name":"fanWheel_001","primitives":[{"attributes":{"NORMAL":156,"POSITION":152},"indices":151,"material":25,"mode":4}]},{"name":"shroud","primitives":[{"attributes":{"NORMAL":218,"POSITION":217},"indices":216,"material":24,"mode":4}]},{"name":"shroud_001","primitives":[{"attributes":{"NORMAL":218,"POSITION":217},"indices":216,"material":25,"mode":4}]},{"name":"rootNode_mesh","primitives":[{"attributes":{"NORMAL":224,"POSITION":223},"indices":222,"material":19,"mode":4},{"attributes":{"NORMAL":12,"POSITION":11},"indices":10,"material":13,"mode":4},{"attributes":{"NORMAL":8,"POSITION":7},"indices":6,"material":2,"mode":4},{"attributes":{"NORMAL":2,"POSITION":1,"TEXCOORD_0":3},"indices":0,"material":1,"mode":4},{"attributes":{"NORMAL":299,"POSITION":298,"TEXCOORD_0":300},"indices":297,"material":1,"mode":4},{"attributes":{"NORMAL":295,"POSITION":294,"TEXCOORD_0":296},"indices":293,"material":1,"mode":4},{"attributes":{"NORMAL":291,"POSITION":290,"TEXCOORD_0":292},"indices":289,"material":1,"mode":4},{"attributes":{"NORMAL":287,"POSITION":286,"TEXCOORD_0":288},"indices":285,"material":1,"mode":4},{"attributes":{"NORMAL":283,"POSITION":282,"TEXCOORD_0":284},"indices":281,"material":1,"mode":4},{"attributes":{"NORMAL":279,"POSITION":278,"TEXCOORD_0":280},"indices":277,"material":1,"mode":4},{"attributes":{"NORMAL":275,"POSITION":274,"TEXCOORD_0":276},"indices":273,"material":1,"mode":4},{"attributes":{"NORMAL":271,"POSITION":270,"TEXCOORD_0":272},"indices":269,"material":1,"mode":4},{"attributes":{"NORMAL":267,"POSITION":266,"TEXCOORD_0":268},"indices":265,"material":1,"mode":4},{"attributes":{"NORMAL":263,"POSITION":262,"TEXCOORD_0":264},"indices":261,"material":1,"mode":4},{"attributes":{"NORMAL":260,"POSITION":259},"indices":258,"material":11,"mode":4},{"attributes":{"NORMAL":256,"POSITION":255,"TEXCOORD_0":257},"indices":254,"material":1,"mode":4},{"attributes":{"NORMAL":253,"POSITION":252},"indices":251,"material":11,"mode":4},{"attributes":{"NORMAL":249,"POSITION":248,"TEXCOORD_0":250},"indices":247,"material":1,"mode":4},{"attributes":{"NORMAL":237,"POSITION":236,"TEXCOORD_0":238},"indices":235,"material":1,"mode":4},{"attributes":{"NORMAL":241,"POSITION":240,"TEXCOORD_0":242},"indices":239,"material":1,"mode":4},{"attributes":{"NORMAL":245,"POSITION":244,"TEXCOORD_0":246},"indices":243,"material":1,"mode":4},{"attributes":{"NORMAL":233,"POSITION":232,"TEXCOORD_0":234},"indices":231,"material":1,"mode":4},{"attributes":{"NORMAL":227,"POSITION":226},"indices":225,"material":0,"mode":4},{"attributes":{"NORMAL":230,"POSITION":229},"indices":228,"material":12,"mode":4},{"attributes":{"NORMAL":159,"POSITION":158,"TEXCOORD_0":160},"indices":157,"material":3,"mode":4},{"attributes":{"NORMAL":154,"POSITION":153,"TEXCOORD_0":155},"indices":119,"material":3,"mode":4},{"attributes":{"NORMAL":148,"POSITION":147,"TEXCOORD_0":149},"indices":124,"material":3,"mode":4},{"attributes":{"NORMAL":145,"POSITION":144,"TEXCOORD_0":146},"indices":124,"material":3,"mode":4},{"attributes":{"NORMAL":142,"POSITION":141,"TEXCOORD_0":143},"indices":124,"material":3,"mode":4},{"attributes":{"NORMAL":139,"POSITION":138,"TEXCOORD_0":140},"indices":137,"material":3,"mode":4},{"attributes":{"NORMAL":135,"POSITION":134,"TEXCOORD_0":136},"indices":119,"material":3,"mode":4},{"attributes":{"NORMAL":132,"POSITION":131,"TEXCOORD_0":133},"indices":124,"material":3,"mode":4},{"attributes":{"NORMAL":129,"POSITION":128,"TEXCOORD_0":130},"indices":124,"material":3,"mode":4},{"attributes":{"NORMAL":126,"POSITION":125,"TEXCOORD_0":127},"indices":124,"material":3,"mode":4},{"attributes":{"NORMAL":121,"POSITION":120,"TEXCOORD_0":122},"indices":119,"material":3,"mode":4},{"attributes":{"NORMAL":116,"POSITION":115,"TEXCOORD_0":117},"indices":97,"material":3,"mode":4},{"attributes":{"NORMAL":111,"POSITION":110,"TEXCOORD_0":112},"indices":93,"material":3,"mode":4},{"attributes":{"NORMAL":108,"POSITION":107,"TEXCOORD_0":109},"indices":89,"material":3,"mode":4},{"attributes":{"NORMAL":105,"POSITION":104,"TEXCOORD_0":106},"indices":85,"material":3,"mode":4},{"attributes":{"NORMAL":102,"POSITION":101,"TEXCOORD_0":103},"indices":81,"material":3,"mode":4},{"attributes":{"NORMAL":99,"POSITION":98,"TEXCOORD_0":100},"indices":97,"material":3,"mode":4},{"attributes":{"NORMAL":95,"POSITION":94,"TEXCOORD_0":96},"indices":93,"material":3,"mode":4},{"attributes":{"NORMAL":91,"POSITION":90,"TEXCOORD_0":92},"indices":89,"material":3,"mode":4},{"attributes":{"NORMAL":87,"POSITION":86,"TEXCOORD_0":88},"indices":85,"material":3,"mode":4},{"attributes":{"NORMAL":83,"POSITION":82,"TEXCOORD_0":84},"indices":81,"material":3,"mode":4},{"attributes":{"NORMAL":78,"POSITION":77,"TEXCOORD_0":79},"indices":75,"material":3,"mode":4},{"attributes":{"NORMAL":72,"POSITION":71,"TEXCOORD_0":73},"indices":64,"material":3,"mode":4},{"attributes":{"NORMAL":69,"POSITION":68},"indices":31,"material":29,"mode":1},{"attributes":{"NORMAL":69,"POSITION":68,"TEXCOORD_0":70},"indices":60,"material":3,"mode":4},{"attributes":{"NORMAL":66,"POSITION":65,"TEXCOORD_0":67},"indices":64,"material":3,"mode":4},{"attributes":{"NORMAL":62,"POSITION":61},"indices":31,"material":28,"mode":1},{"attributes":{"NORMAL":62,"POSITION":61,"TEXCOORD_0":63},"indices":60,"material":3,"mode":4},{"attributes":{"NORMAL":58,"POSITION":57,"TEXCOORD_0":59},"indices":56,"material":3,"mode":4},{"attributes":{"NORMAL":54,"POSITION":53,"TEXCOORD_0":55},"indices":52,"material":3,"mode":4},{"attributes":{"NORMAL":50,"POSITION":49},"indices":31,"material":27,"mode":1},{"attributes":{"NORMAL":50,"POSITION":49,"TEXCOORD_0":51},"indices":48,"material":3,"mode":4},{"attributes":{"NORMAL":43,"POSITION":42,"TEXCOORD_0":44},"indices":41,"material":3,"mode":4},{"attributes":{"NORMAL":38,"POSITION":37,"TEXCOORD_0":39},"indices":36,"material":3,"mode":4},{"attributes":{"NORMAL":34,"POSITION":33},"indices":31,"material":26,"mode":1},{"attributes":{"NORMAL":34,"POSITION":33,"TEXCOORD_0":35},"indices":32,"material":3,"mode":4},{"attributes":{"NORMAL":29,"POSITION":28,"TEXCOORD_0":30},"indices":24,"material":3,"mode":4},{"attributes":{"NORMAL":26,"POSITION":25,"TEXCOORD_0":27},"indices":24,"material":3,"mode":4},{"attributes":{"NORMAL":22,"POSITION":21,"TEXCOORD_0":23},"indices":20,"material":3,"mode":4},{"attributes":{"NORMAL":18,"POSITION":17,"TEXCOORD_0":19},"indices":16,"material":3,"mode":4},{"attributes":{"NORMAL":15,"POSITION":14},"indices":13,"material":4,"mode":4},{"attributes":{"NORMAL":179,"POSITION":178,"TEXCOORD_0":180},"indices":177,"material":5,"mode":4},{"attributes":{"NORMAL":175,"POSITION":174,"TEXCOORD_0":176},"indices":173,"material":5,"mode":4},{"attributes":{"NORMAL":171,"POSITION":170,"TEXCOORD_0":172},"indices":169,"material":5,"mode":4},{"attributes":{"NORMAL":167,"POSITION":166,"TEXCOORD_0":168},"indices":165,"material":5,"mode":4},{"attributes":{"NORMAL":163,"POSITION":162,"TEXCOORD_0":164},"indices":161,"material":5,"mode":4},{"attributes":{"NORMAL":188,"POSITION":187,"TEXCOORD_0":189},"indices":186,"material":6,"mode":4},{"attributes":{"NORMAL":184,"POSITION":183,"TEXCOORD_0":185},"indices":182,"material":6,"mode":4},{"attributes":{"NORMAL":221,"POSITION":220},"indices":219,"material":18,"mode":4}]},{"name":"Airline tail surface overlay","primitives":[{"attributes":{"POSITION":301,"NORMAL":302},"material":32},{"attributes":{"POSITION":303,"NORMAL":304,"TEXCOORD_0":305},"material":33}]}],"nodes":[{"matrix":[1,3.5e-15,0,0,-1.58932991e-8,1,0,0,0,0,1,0,4.7683698759999997e-7,4.7683698759999997e-7,0,1],"name":"Core","mesh":14},{"matrix":[1,-3.5e-15,-2e-16,0,-1.58932991e-8,1,0,0,0,0,1,0,0,0,0,1],"name":"Core_001","mesh":15},{"matrix":[1,-3.5e-15,-2e-16,0,-1.58932991e-8,1,0,0,0,0,1,0,0.3264909982681274,0,0.010532000102,1],"name":"Cube_000","mesh":1},{"matrix":[1,3.5e-15,0,0,-1.58932991e-8,1,0,0,0,0,1,0,0.32649201154708857,4.7683698759999997e-7,0.010532000102,1],"name":"Cube_004","mesh":0},{"children":[28,26,24,21,20,18,16,3,14,6,7,10,12,0],"matrix":[-4.3711398899999997e-8,0,1,0,1,0,4.3711398899999997e-8,0,0,1,0,0,-6.31689977645874,0.5106399655342102,-4.033479690551759,1],"name":"EngineL","mesh":6},{"children":[17,19,23,22,1,2,25,27,9,8,11,13,15,29],"matrix":[-4.3711398899999997e-8,0,1,0,1,0,4.3711398899999997e-8,0,0,1,0,0,6.268489837646484,0.48068401217460627,-4.17878007888794,1],"name":"EngineR","mesh":2},{"matrix":[1,3.5e-15,0,0,-1.58932991e-8,1,0,0,0,0,1,0,4.7683698759999997e-7,4.7683698759999997e-7,0,1],"name":"Intake","mesh":5},{"matrix":[1,3.5e-15,0,0,-1.58932991e-8,1,0,0,0,0,1,0,4.7683698759999997e-7,4.7683698759999997e-7,0,1],"name":"IntakeInterior","mesh":4},{"matrix":[1,-3.5e-15,-2e-16,0,-1.58932991e-8,1,0,0,0,0,1,0,0,0,0,1],"name":"IntakeInterior_001","mesh":7},{"matrix":[1,-3.5e-15,-2e-16,0,-1.58932991e-8,1,0,0,0,0,1,0,0,0,0,1],"name":"Intake_001","mesh":3},{"matrix":[1,3.5e-15,0,0,-1.58932991e-8,1,0,0,0,0,1,0,4.7683698759999997e-7,4.7683698759999997e-7,0,1],"name":"Nacelle","mesh":8},{"matrix":[1,-3.5e-15,-2e-16,0,-1.58932991e-8,1,0,0,0,0,1,0,0,0,0,1],"name":"Nacelle_001","mesh":9},{"matrix":[1,3.5e-15,0,0,-1.58932991e-8,1,0,0,0,0,1,0,4.7683698759999997e-7,4.7683698759999997e-7,0,1],"name":"Nozzle","mesh":10},{"matrix":[1,-3.5e-15,-2e-16,0,-1.58932991e-8,1,0,0,0,0,1,0,0,0,0,1],"name":"Nozzle_001","mesh":11},{"matrix":[1,3.5e-15,0,0,-1.58932991e-8,1,0,0,0,0,1,0,0.32649201154708857,4.7683698759999997e-7,0.010532000102,1],"name":"Plane","mesh":12},{"matrix":[1,-3.5e-15,-2e-16,0,-1.58932991e-8,1,0,0,0,0,1,0,0.3264909982681274,0,0.010532000102,1],"name":"Plane_001","mesh":13},{"matrix":[1,3.5e-15,0,0,-1.58932991e-8,1,0,0,0,0,1,0,0.32649201154708857,4.7683698759999997e-7,0.010532000102,1],"name":"blades","mesh":16},{"matrix":[1,-3.5e-15,-2e-16,0,-1.58932991e-8,1,0,0,0,0,1,0,0.3264909982681274,0,0.010532000102,1],"name":"blades_001","mesh":17},{"matrix":[1,3.5e-15,0,0,-1.58932991e-8,1,0,0,0,0,1,0,0.32649201154708857,4.7683698759999997e-7,0.010532000102,1],"name":"casing","mesh":18},{"matrix":[1,-3.5e-15,-2e-16,0,-1.58932991e-8,1,0,0,0,0,1,0,0.3264909982681274,0,0.010532000102,1],"name":"casing_001","mesh":19},{"matrix":[1,3.5e-15,0,0,-1.58932991e-8,1,0,0,0,0,1,0,0.32649201154708857,4.7683698759999997e-7,0.010532000102,1],"name":"cone","mesh":22},{"matrix":[1,3.5e-15,0,0,-1.58932991e-8,1,0,0,0,0,1,0,0.32649201154708857,4.7683698759999997e-7,0.010532000102,1],"name":"cone2","mesh":20},{"matrix":[1,-3.5e-15,-2e-16,0,-1.58932991e-8,1,0,0,0,0,1,0,0.3264909982681274,0,0.010532000102,1],"name":"cone2_001","mesh":21},{"matrix":[1,-3.5e-15,-2e-16,0,-1.58932991e-8,1,0,0,0,0,1,0,0.3264909982681274,0,0.010532000102,1],"name":"cone_001","mesh":23},{"matrix":[1,3.5e-15,0,0,-1.58932991e-8,1,0,0,0,0,1,0,0.32649201154708857,4.7683698759999997e-7,0.010532000102,1],"name":"exhaust","mesh":24},{"matrix":[1,-3.5e-15,-2e-16,0,-1.58932991e-8,1,0,0,0,0,1,0,0.3264909982681274,0,0.010532000102,1],"name":"exhaust_001","mesh":25},{"matrix":[1,3.5e-15,0,0,-1.58932991e-8,1,0,0,0,0,1,0,0.32649201154708857,4.7683698759999997e-7,0.010532000102,1],"name":"fanWheel","mesh":26},{"matrix":[1,-3.5e-15,-2e-16,0,-1.58932991e-8,1,0,0,0,0,1,0,0.3264909982681274,0,0.010532000102,1],"name":"fanWheel_001","mesh":27},{"matrix":[1,3.5e-15,0,0,-1.58932991e-8,1,0,0,0,0,1,0,0.32649201154708857,4.7683698759999997e-7,0.010532000102,1],"name":"shroud","mesh":28},{"matrix":[1,-3.5e-15,-2e-16,0,-1.58932991e-8,1,0,0,0,0,1,0,0.3264909982681274,0,0.010532000102,1],"name":"shroud_001","mesh":29},{"children":[5,4],"matrix":[1,0,0,0,0,1,0,0,0,0,1,0,0,0,0,1],"name":"rootNode","mesh":30},{"name":"SkywardCoordinateAlignment","matrix":[-1,0,-1.2246467991473532e-16,0,0,1,0,0,1.2246467991473532e-16,0,-1,0,-0.023508071899414295,0,1.8987040519714355,1],"children":[30]},{"name":"AirlineTailBranding","mesh":31}],"samplers":[{"magFilter":9729,"minFilter":9729,"wrapS":10497,"wrapT":10497,"name":"sampler_0"},{"magFilter":9729,"minFilter":9987,"wrapS":33071,"wrapT":33071}],"scene":0,"scenes":[{"nodes":[31,32],"name":"defaultScene"}],"textures":[{"sampler":0,"source":0,"name":"texture_image1"},{"source":1,"sampler":1}],"extras":{"skyward":{"source":"https://github.com/Flightradar24/fr24-3d-models","commit":"dd53267690c6a4ecbb290a3acf0284333a5d68a9","changes":"Converted legacy glTF to glTF 2.0 with Cesium; rigid axis alignment and horizontal centering only. Original geometry, materials and paint retained. Added surface-following operator tail paint and unmodified identification-logo texture. Branding is illustrative, not a registration-specific livery.","license":"GPL-2.0","sourceFiles":["source/a318/a318.blend","source/a318/a318.zip"],"operator":"QFA"}}}