{"accessors":[{"bufferView":143,"byteOffset":0,"componentType":5123,"count":339,"type":"SCALAR","min":[0],"max":[338],"name":"accessor_1012"},{"bufferView":15,"byteOffset":0,"componentType":5126,"count":339,"max":[-6.137016773223877,2.352921962738037,0.800089418888092],"min":[-9.096646308898926,1.9286189079284668,-1.0268702507019043],"type":"VEC3","name":"accessor_1014"},{"bufferView":15,"byteOffset":4068,"componentType":5126,"count":339,"max":[0.9976469874382019,0.9931889772415161,0.8923699855804443],"min":[-0.8856819868087769,-0.9380099773406982,-0.8884170055389404],"type":"VEC3","name":"accessor_1016"},{"bufferView":16,"byteOffset":0,"componentType":5126,"count":339,"max":[0.7386389970779419,0.5826209783554077],"min":[0.6419219970703125,0.5109779834747314],"type":"VEC2","name":"accessor_1018"},{"bufferView":143,"byteOffset":678,"componentType":5123,"count":1068,"type":"SCALAR","min":[0],"max":[1067],"name":"accessor_102"},{"bufferView":143,"byteOffset":2814,"componentType":5123,"count":240,"type":"SCALAR","min":[0],"max":[239],"name":"accessor_1039"},{"bufferView":17,"byteOffset":0,"componentType":5126,"count":1068,"max":[5.040499687194824,0.5326390266418457,0.5326380133628845],"min":[3.3651599884033203,-0.5306389927864075,-0.5306389927864075],"type":"VEC3","name":"accessor_104"},{"bufferView":17,"byteOffset":12816,"componentType":5126,"count":240,"max":[-8.94440746307373,2.558948040008545,2.0711593627929688],"min":[-11.590906143188477,2.2011289596557617,0.5050795674324036],"type":"VEC3","name":"accessor_1041"},{"bufferView":17,"byteOffset":15696,"componentType":5126,"count":240,"max":[0.8857229948043823,0.9827060103416443,0.8817769885063171],"min":[-0.8859509825706482,-0.9450089931488037,-0.8884199857711792],"type":"VEC3","name":"accessor_1043"},{"bufferView":18,"byteOffset":0,"componentType":5126,"count":240,"max":[0.8201479911804199,0.6324650049209595],"min":[0.7336639761924744,0.5710520148277283],"type":"VEC2","name":"accessor_1045"},{"bufferView":19,"byteOffset":0,"componentType":5126,"count":1068,"max":[0.1973090022802353,0.9964810013771057,0.998753011226654],"min":[-0.5613309741020203,-0.9964810013771057,-0.9892110228538513],"type":"VEC3","name":"accessor_106"},{"bufferView":143,"byteOffset":3294,"componentType":5123,"count":246,"type":"SCALAR","min":[0],"max":[245],"name":"accessor_1066"},{"bufferView":19,"byteOffset":12816,"componentType":5126,"count":246,"max":[-11.452507019042969,2.7607998847961426,3.3155791759490967],"min":[-14.031806945800781,2.4269189834594727,1.7957391738891602],"type":"VEC3","name":"accessor_1068"},{"bufferView":19,"byteOffset":15768,"componentType":5126,"count":246,"max":[0.8856980204582214,0.9839730262756348,0.8843389749526978],"min":[-0.8857020139694214,-0.9522849917411804,-0.8884509801864624],"type":"VEC3","name":"accessor_1070"},{"bufferView":20,"byteOffset":0,"componentType":5126,"count":246,"max":[0.8999130129814148,0.6812640428543091],"min":[0.8156239986419678,0.6216650009155273],"type":"VEC2","name":"accessor_1072"},{"bufferView":143,"byteOffset":3786,"componentType":5123,"count":222,"type":"SCALAR","min":[0],"max":[221],"name":"accessor_1093"},{"bufferView":21,"byteOffset":0,"componentType":5126,"count":222,"max":[-13.899206161499023,2.9533300399780273,4.499179363250732],"min":[-16.34640884399414,2.6458098888397217,3.055009126663208],"type":"VEC3","name":"accessor_1095"},{"bufferView":21,"byteOffset":2664,"componentType":5126,"count":222,"max":[0.8857560157775879,0.9879130125045776,0.8850299715995789],"min":[-0.885703980922699,-0.9687569737434387,-0.8655110001564026],"type":"VEC3","name":"accessor_1097"},{"bufferView":22,"byteOffset":0,"componentType":5126,"count":222,"max":[0.9755499958992004,0.7276780009269714],"min":[0.895579993724823,0.6710460186004639],"type":"VEC2","name":"accessor_1099"},{"bufferView":143,"byteOffset":4230,"componentType":5123,"count":168,"type":"SCALAR","min":[0],"max":[167],"name":"accessor_1120"},{"bufferView":23,"byteOffset":0,"componentType":5126,"count":168,"max":[5.327972888946533,2.049867868423462,-1.1110098361968994],"min":[2.26900315284729,1.5583579540252686,-2.999736785888672],"type":"VEC3","name":"accessor_1122"},{"bufferView":23,"byteOffset":2016,"componentType":5126,"count":168,"max":[0.8856099843978882,0.9823809862136841,0.8849930167198181],"min":[-0.9974960088729858,-0.9172570109367371,-0.888388991355896],"type":"VEC3","name":"accessor_1124"},{"bufferView":24,"byteOffset":0,"componentType":5126,"count":168,"max":[0.6185470223426819,0.5076780319213867],"min":[0.5185840129852295,0.43361401557922363],"type":"VEC2","name":"accessor_1126"},{"bufferView":25,"byteOffset":0,"componentType":5126,"count":339,"max":[9.049633026123047,2.352921962738037,0.8000902533531189],"min":[6.09000301361084,1.9286189079284668,-1.026869773864746],"type":"VEC3","name":"accessor_1149"},{"bufferView":25,"byteOffset":4068,"componentType":5126,"count":339,"max":[0.885683000087738,0.9931960105895996,0.8923799991607666],"min":[-0.9975879788398743,-0.9380099773406982,-0.8884289860725403],"type":"VEC3","name":"accessor_1151"},{"bufferView":26,"byteOffset":0,"componentType":5126,"count":339,"max":[0.7401649951934814,0.5826209783554077],"min":[0.6434490084648132,0.5109779834747314],"type":"VEC2","name":"accessor_1153"},{"bufferView":27,"byteOffset":0,"componentType":5126,"count":240,"max":[11.543892860412598,2.558948040008545,2.071160316467285],"min":[8.897393226623535,2.2011289596557617,0.5050804018974304],"type":"VEC3","name":"accessor_1176"},{"bufferView":27,"byteOffset":2880,"componentType":5126,"count":240,"max":[0.8859509825706482,0.9827060103416443,0.8817740082740784],"min":[-0.8857229948043823,-0.9450089931488037,-0.8884199857711792],"type":"VEC3","name":"accessor_1178"},{"bufferView":28,"byteOffset":0,"componentType":5126,"count":240,"max":[0.8216750025749207,0.6324650049209595],"min":[0.7351899743080139,0.5710520148277283],"type":"VEC2","name":"accessor_1180"},{"bufferView":29,"byteOffset":0,"componentType":5126,"count":246,"max":[13.984792709350586,2.7607998847961426,3.3155806064605713],"min":[11.405492782592773,2.4269189834594727,1.7957401275634766],"type":"VEC3","name":"accessor_1203"},{"bufferView":29,"byteOffset":2952,"componentType":5126,"count":246,"max":[0.8856909871101379,0.9839730262756348,0.8843389749526978],"min":[-0.8856980204582214,-0.9522860050201416,-0.8884220123291016],"type":"VEC3","name":"accessor_1205"},{"bufferView":30,"byteOffset":0,"componentType":5126,"count":246,"max":[0.9014390110969543,0.6812640428543091],"min":[0.8171510100364685,0.6216650009155273],"type":"VEC2","name":"accessor_1207"},{"bufferView":31,"byteOffset":0,"componentType":5126,"count":222,"max":[16.299392700195312,2.9533300399780273,4.499180316925049],"min":[13.852192878723145,2.6458098888397217,3.0550105571746826],"type":"VEC3","name":"accessor_1230"},{"bufferView":31,"byteOffset":2664,"componentType":5126,"count":222,"max":[0.8857709765434265,0.9879130125045776,0.8850319981575012],"min":[-0.8857520222663879,-0.9685450196266174,-0.8654620051383972],"type":"VEC3","name":"accessor_1232"},{"bufferView":32,"byteOffset":0,"componentType":5126,"count":222,"max":[0.97707599401474,0.7276780009269714],"min":[0.8971070051193237,0.6710460186004639],"type":"VEC2","name":"accessor_1234"},{"bufferView":143,"byteOffset":4566,"componentType":5123,"count":30,"type":"SCALAR","min":[0],"max":[29],"name":"accessor_1255"},{"bufferView":33,"byteOffset":0,"componentType":5126,"count":30,"max":[-4.469676494598389,2.118588924407959,2.3041298389434814],"min":[-6.232196807861328,1.764190912246704,1.6534497737884521],"type":"VEC3","name":"accessor_1257"},{"bufferView":33,"byteOffset":360,"componentType":5126,"count":30,"max":[0.9885240197181702,0.9793840050697327,0.1694290041923523],"min":[-0.9885259866714478,-0.9853259921073914,-0.9967599511146545],"type":"VEC3","name":"accessor_1259"},{"bufferView":34,"byteOffset":0,"componentType":5126,"count":30,"max":[0.6450330018997192,0.6416009664535522],"min":[0.35496801137924194,0.6160839796066284],"type":"VEC2","name":"accessor_1261"},{"bufferView":143,"byteOffset":4626,"componentType":5123,"count":24,"type":"SCALAR","min":[0],"max":[23],"name":"accessor_1282"},{"bufferView":35,"byteOffset":0,"componentType":5126,"count":24,"max":[-6.714046478271484,2.3169028759002686,3.068289279937744],"min":[-8.58609676361084,2.0687549114227295,1.8579694032669067],"type":"VEC3","name":"accessor_1284"},{"bufferView":35,"byteOffset":288,"componentType":5126,"count":24,"max":[0.9386169910430908,0.9822799563407898,0.336806982755661],"min":[-0.9386159777641296,-0.9895899891853333,-0.9371439814567566],"type":"VEC3","name":"accessor_1286"},{"bufferView":36,"byteOffset":0,"componentType":5126,"count":24,"max":[0.7219550013542175,0.6715660095214844],"min":[0.27804601192474365,0.6241049766540527],"type":"VEC2","name":"accessor_1288"},{"bufferView":143,"byteOffset":4674,"componentType":5123,"count":387,"type":"SCALAR","min":[0],"max":[382],"name":"accessor_129"},{"bufferView":37,"byteOffset":0,"componentType":5126,"count":383,"max":[2.063000202178955,1.0620399713516235,1.0411800146102905],"min":[0.7560000419616699,-1.06003999710083,-1.2619400024414062],"type":"VEC3","name":"accessor_131"},{"bufferView":37,"byteOffset":4596,"componentType":5126,"count":24,"max":[-8.390417098999023,2.446769952774048,3.636139392852783],"min":[-10.168606758117676,2.2018938064575195,2.4595093727111816],"type":"VEC3","name":"accessor_1311"},{"bufferView":37,"byteOffset":4884,"componentType":5126,"count":24,"max":[0.9386129975318909,0.9813519716262817,0.33680495619773865],"min":[-0.9386199712753296,-0.9895899891853333,-0.9371479749679565],"type":"VEC3","name":"accessor_1313"},{"bufferView":38,"byteOffset":0,"componentType":5126,"count":24,"max":[0.7736690044403076,0.6938350200653076],"min":[0.22633199393749237,0.6476939916610718],"type":"VEC2","name":"accessor_1315"},{"bufferView":39,"byteOffset":0,"componentType":5126,"count":383,"max":[1,1,0.9924830198287964],"min":[-0.14594699442386627,-1,-0.9950979948043823],"type":"VEC3","name":"accessor_133"},{"bufferView":39,"byteOffset":4596,"componentType":5126,"count":24,"max":[-9.972936630249023,2.567657947540283,4.1580891609191895],"min":[-11.626306533813477,2.3275809288024902,3.0273594856262207],"type":"VEC3","name":"accessor_1338"},{"bufferView":39,"byteOffset":4884,"componentType":5126,"count":24,"max":[0.9386159777641296,0.9801949858665466,0.33680397272109985],"min":[-0.938618004322052,-0.9895899891853333,-0.9371479749679565],"type":"VEC3","name":"accessor_1340"},{"bufferView":40,"byteOffset":0,"componentType":5126,"count":24,"max":[0.8213030099868774,0.7143020033836365],"min":[0.17869700491428375,0.6699619889259338],"type":"VEC2","name":"accessor_1342"},{"bufferView":40,"byteOffset":192,"componentType":5126,"count":383,"max":[0.944517970085144,0.49303102493286133],"min":[0.05560019984841347,0.3926609754562378],"type":"VEC2","name":"accessor_135"},{"bufferView":41,"byteOffset":0,"componentType":5126,"count":30,"max":[-11.43100643157959,2.688610076904297,4.682259559631348],"min":[-13.083906173706055,2.4434919357299805,3.550419330596924],"type":"VEC3","name":"accessor_1365"},{"bufferView":41,"byteOffset":360,"componentType":5126,"count":30,"max":[0.938614010810852,0.9786840081214905,0.33680495619773865],"min":[-0.9386199712753296,-0.9895899891853333,-0.9371500015258789],"type":"VEC3","name":"accessor_1367"},{"bufferView":42,"byteOffset":0,"componentType":5126,"count":30,"max":[0.8689379692077637,0.7348569631576538],"min":[0.13106200098991394,0.6904729604721069],"type":"VEC2","name":"accessor_1369"},{"bufferView":143,"byteOffset":5448,"componentType":5123,"count":51,"type":"SCALAR","min":[0],"max":[50],"name":"accessor_1390"},{"bufferView":43,"byteOffset":0,"componentType":5126,"count":51,"max":[6.185183048248291,2.118588924407959,2.3041303157806396],"min":[4.418862819671631,1.7641528844833374,1.6534502506256104],"type":"VEC3","name":"accessor_1392"},{"bufferView":43,"byteOffset":612,"componentType":5126,"count":51,"max":[0.9885259866714478,0.9793840050697327,0.1694290041923523],"min":[-0.9885280132293701,-0.9853259921073914,-0.9967599511146545],"type":"VEC3","name":"accessor_1394"},{"bufferView":44,"byteOffset":0,"componentType":5126,"count":51,"max":[0.6465590000152588,0.6416009664535522],"min":[0.3534409999847412,0.6160839796066284],"type":"VEC2","name":"accessor_1396"},{"bufferView":45,"byteOffset":0,"componentType":5126,"count":24,"max":[8.539082527160645,2.316904067993164,3.0682902336120605],"min":[6.6670331954956055,2.0687549114227295,1.857970118522644],"type":"VEC3","name":"accessor_1419"},{"bufferView":45,"byteOffset":288,"componentType":5126,"count":24,"max":[0.9386159777641296,0.9822799563407898,0.3368130326271057],"min":[-0.9386159777641296,-0.9895899891853333,-0.9371449947357178],"type":"VEC3","name":"accessor_1421"},{"bufferView":46,"byteOffset":0,"componentType":5126,"count":24,"max":[0.7234809994697571,0.6715660095214844],"min":[0.2765190005302429,0.6241049766540527],"type":"VEC2","name":"accessor_1423"},{"bufferView":47,"byteOffset":0,"componentType":5126,"count":24,"max":[10.121593475341797,2.446769952774048,3.6361403465270996],"min":[8.343402862548828,2.2018938064575195,2.459510326385498],"type":"VEC3","name":"accessor_1446"},{"bufferView":47,"byteOffset":288,"componentType":5126,"count":24,"max":[0.9386199712753296,0.9813519716262817,0.3368050158023834],"min":[-0.938614010810852,-0.9895899891853333,-0.9371479749679565],"type":"VEC3","name":"accessor_1448"},{"bufferView":48,"byteOffset":0,"componentType":5126,"count":24,"max":[0.7751950025558472,0.6938350200653076],"min":[0.22480499744415283,0.6476939916610718],"type":"VEC2","name":"accessor_1450"},{"bufferView":49,"byteOffset":0,"componentType":5126,"count":24,"max":[11.579293251037598,2.567657947540283,4.158090114593506],"min":[9.925923347473145,2.3275809288024902,3.027360439300537],"type":"VEC3","name":"accessor_1473"},{"bufferView":49,"byteOffset":288,"componentType":5126,"count":24,"max":[0.938618004322052,0.9801949858665466,0.33680403232574463],"min":[-0.9386150240898132,-0.9895899891853333,-0.9371479749679565],"type":"VEC3","name":"accessor_1475"},{"bufferView":50,"byteOffset":0,"componentType":5126,"count":24,"max":[0.8228299617767334,0.7143020033836365],"min":[0.17716999351978302,0.6699619889259338],"type":"VEC2","name":"accessor_1477"},{"bufferView":51,"byteOffset":0,"componentType":5126,"count":30,"max":[13.036892890930176,2.688610076904297,4.682260513305664],"min":[11.383993148803711,2.4434919357299805,3.5504202842712402],"type":"VEC3","name":"accessor_1500"},{"bufferView":51,"byteOffset":360,"componentType":5126,"count":30,"max":[0.9386199712753296,0.9786840081214905,0.3368050158023834],"min":[-0.9386169910430908,-0.9895899891853333,-0.9371500015258789],"type":"VEC3","name":"accessor_1502"},{"bufferView":52,"byteOffset":0,"componentType":5126,"count":30,"max":[0.870464026927948,0.7348569631576538],"min":[0.1295360028743744,0.6904729604721069],"type":"VEC2","name":"accessor_1504"},{"bufferView":143,"byteOffset":5550,"componentType":5123,"count":504,"type":"SCALAR","min":[0],"max":[503],"name":"accessor_1525"},{"bufferView":53,"byteOffset":0,"componentType":5126,"count":504,"max":[16.93149185180664,3.0144598484039307,6.089750289916992],"min":[-16.97850799560547,2.794029951095581,4.246179580688477],"type":"VEC3","name":"accessor_1527"},{"bufferView":53,"byteOffset":6048,"componentType":5126,"count":504,"max":[0.9823079705238342,0.9995530247688293,0.22432701289653778],"min":[-0.9823079705238342,-0.9974480271339417,-0.8124189972877502],"type":"VEC3","name":"accessor_1529"},{"bufferView":54,"byteOffset":0,"componentType":5126,"count":504,"max":[0.9977329969406128,0.7900509834289551],"min":[0.003050510073080659,0.717756986618042],"type":"VEC2","name":"accessor_1531"},{"bufferView":143,"byteOffset":6558,"componentType":5123,"count":1446,"type":"SCALAR","min":[0],"max":[321],"name":"accessor_1552"},{"bufferView":55,"byteOffset":0,"componentType":5126,"count":322,"max":[6.192139148712158,3.8962597846984863,18.040029525756836],"min":[-6.2540602684021,2.969040870666504,13.542388916015625],"type":"VEC3","name":"accessor_1554"},{"bufferView":55,"byteOffset":3864,"componentType":5126,"count":322,"max":[0.9993109703063965,0.9984239935874939,0.7595679759979248],"min":[-0.9993109703063965,-0.9929199814796448,-0.8766499757766724],"type":"VEC3","name":"accessor_1556"},{"bufferView":56,"byteOffset":0,"componentType":5126,"count":322,"max":[0.704692006111145,0.8345580101013184],"min":[0.2953070104122162,0.6732710003852844],"type":"VEC2","name":"accessor_1558"},{"bufferView":143,"byteOffset":9450,"componentType":5123,"count":390,"type":"SCALAR","min":[0],"max":[389],"name":"accessor_156"},{"bufferView":143,"byteOffset":10230,"componentType":5123,"count":318,"type":"SCALAR","min":[0],"max":[79],"name":"accessor_1579"},{"bufferView":57,"byteOffset":0,"componentType":5126,"count":390,"max":[0.9420000314712524,0.8684099912643433,0.8684099912643433],"min":[0.11022800207138062,-0.866409957408905,-0.8824359774589539],"type":"VEC3","name":"accessor_158"},{"bufferView":57,"byteOffset":4680,"componentType":5126,"count":80,"max":[-0.765267550945282,3.864339828491211,18.39052963256836],"min":[-6.254370212554932,3.148347854614258,16.09328842163086],"type":"VEC3","name":"accessor_1581"},{"bufferView":57,"byteOffset":5640,"componentType":5126,"count":80,"max":[1,0.9933469891548157,0.9666770100593567],"min":[-0.9998359680175781,-0.9927430152893066,-0.943818986415863],"type":"VEC3","name":"accessor_1583"},{"bufferView":58,"byteOffset":0,"componentType":5126,"count":80,"max":[0.6806920170783997,0.8471270203590393],"min":[0.5017459988594055,0.7647470235824585],"type":"VEC2","name":"accessor_1585"},{"bufferView":59,"byteOffset":0,"componentType":5126,"count":390,"max":[0.28291600942611694,0.98676997423172,0.9795370101928711],"min":[-0.41938701272010803,-0.98676997423172,-0.9808419942855835],"type":"VEC3","name":"accessor_160"},{"bufferView":143,"byteOffset":10866,"componentType":5123,"count":318,"type":"SCALAR","min":[0],"max":[79],"name":"accessor_1606"},{"bufferView":59,"byteOffset":4680,"componentType":5126,"count":80,"max":[6.19244909286499,3.864339828491211,18.39052963256836],"min":[0.7033464312553406,3.148347854614258,16.09328842163086],"type":"VEC3","name":"accessor_1608"},{"bufferView":59,"byteOffset":5640,"componentType":5126,"count":80,"max":[0.9998359680175781,0.9933459758758545,0.9666770100593567],"min":[-1,-0.9927430152893066,-0.943805992603302],"type":"VEC3","name":"accessor_1610"},{"bufferView":60,"byteOffset":0,"componentType":5126,"count":80,"max":[0.4982540011405945,0.8471270203590393],"min":[0.31930801272392273,0.7647470235824585],"type":"VEC2","name":"accessor_1612"},{"bufferView":143,"byteOffset":11502,"componentType":5123,"count":60,"type":"SCALAR","min":[0],"max":[21],"name":"accessor_1633"},{"bufferView":61,"byteOffset":0,"componentType":5126,"count":22,"max":[-1.5290603637695312,3.812689781188965,16.797168731689453],"min":[-5.529060363769531,3.2424609661102295,14.166954040527344],"type":"VEC3","name":"accessor_1635"},{"bufferView":61,"byteOffset":264,"componentType":5126,"count":22,"max":[0.02666710503399372,0.9916399717330933,-0.1262499988079071],"min":[-0.5400329232215881,-0.9272990226745605,-0.8400309681892395],"type":"VEC3","name":"accessor_1637"},{"bufferView":62,"byteOffset":0,"componentType":5126,"count":22,"max":[0.6557919979095459,0.7899889945983887],"min":[0.5253909826278687,0.6956679821014404],"type":"VEC2","name":"accessor_1639"},{"bufferView":143,"byteOffset":11622,"componentType":5123,"count":60,"type":"SCALAR","min":[0],"max":[21],"name":"accessor_1660"},{"bufferView":63,"byteOffset":0,"componentType":5126,"count":22,"max":[5.46713924407959,3.812689781188965,16.797168731689453],"min":[1.467139482498169,3.2424609661102295,14.166954040527344],"type":"VEC3","name":"accessor_1662"},{"bufferView":63,"byteOffset":264,"componentType":5126,"count":22,"max":[0.5400240421295166,0.9916399717330933,-0.1262499988079071],"min":[-0.0266667939722538,-0.9272990226745605,-0.8400430083274841],"type":"VEC3","name":"accessor_1664"},{"bufferView":64,"byteOffset":0,"componentType":5126,"count":22,"max":[0.47460898756980896,0.7899889945983887],"min":[0.3442080020904541,0.6956679821014404],"type":"VEC2","name":"accessor_1666"},{"bufferView":143,"byteOffset":11742,"componentType":5123,"count":411,"type":"SCALAR","min":[0],"max":[124],"name":"accessor_1687"},{"bufferView":65,"byteOffset":0,"componentType":5126,"count":125,"max":[0.2513326406478882,10.862929344177246,19.3174991607666],"min":[-0.2756673991680145,4.228139877319336,11.021499633789062],"type":"VEC3","name":"accessor_1689"},{"bufferView":65,"byteOffset":1500,"componentType":5126,"count":125,"max":[0.9990800023078918,0.9954450130462646,0.946956992149353],"min":[-0.9990800023078918,-1,-0.6918389797210693],"type":"VEC3","name":"accessor_1691"},{"bufferView":66,"byteOffset":0,"componentType":5126,"count":125,"max":[0.8837940096855164,0.9899243712425232],"min":[0.11532700061798096,0.7643700242042542],"type":"VEC2","name":"accessor_1693"},{"bufferView":143,"byteOffset":12564,"componentType":5123,"count":132,"type":"SCALAR","min":[0],"max":[105],"name":"accessor_1714"},{"bufferView":67,"byteOffset":0,"componentType":5126,"count":106,"max":[0.167726531624794,10.17350959777832,19.14124870300293],"min":[-0.19206646084785461,4.153239727020264,15.762799263000488],"type":"VEC3","name":"accessor_1716"},{"bufferView":67,"byteOffset":1272,"componentType":5126,"count":106,"max":[0.9990800023078918,1,0.9391220211982727],"min":[-0.9990800023078918,-1,-0.9142969846725464],"type":"VEC3","name":"accessor_1718"},{"bufferView":68,"byteOffset":0,"componentType":5126,"count":106,"max":[0.8778029680252075,0.9924706816673279],"min":[0.12131799757480621,0.7878069877624512],"type":"VEC2","name":"accessor_1720"},{"bufferView":143,"byteOffset":12828,"componentType":5123,"count":960,"type":"SCALAR","min":[0],"max":[909],"name":"accessor_1741"},{"bufferView":69,"byteOffset":0,"componentType":5126,"count":910,"max":[3.5799999237060547,1.0368099212646484,1.0253000259399414],"min":[1.877000093460083,-1.034809947013855,-1.1988499164581299],"type":"VEC3","name":"accessor_1743"},{"bufferView":69,"byteOffset":10920,"componentType":5126,"count":910,"max":[0.30073198676109314,1,0.98853600025177],"min":[-1,-1,-0.9747899770736694],"type":"VEC3","name":"accessor_1745"},{"bufferView":70,"byteOffset":0,"componentType":5126,"count":910,"max":[0.8824740052223206,0.49028199911117554],"min":[0.11764399707317352,0.39335399866104126],"type":"VEC2","name":"accessor_1747"},{"bufferView":143,"byteOffset":14748,"componentType":5123,"count":711,"type":"SCALAR","min":[0],"max":[704],"name":"accessor_1768"},{"bufferView":71,"byteOffset":0,"componentType":5126,"count":705,"max":[3.5799999237060547,0.6063349843025208,0.9828580021858215],"min":[1.877000093460083,-0.6043350100517273,-1.1988499164581299],"type":"VEC3","name":"accessor_1770"},{"bufferView":71,"byteOffset":8460,"componentType":5126,"count":705,"max":[1,0.4132139980792999,0.9989209771156311],"min":[-0.2615010142326355,-1,-0.9800710082054138],"type":"VEC3","name":"accessor_1772"},{"bufferView":143,"byteOffset":16170,"componentType":5123,"count":1224,"type":"SCALAR","min":[0],"max":[1183],"name":"accessor_183"},{"bufferView":71,"byteOffset":16920,"componentType":5126,"count":1184,"max":[0.9420000314712524,1.029189944267273,1.029189944267273],"min":[0.0008420000085607171,-1.0271899700164795,-1.2146199941635132],"type":"VEC3","name":"accessor_185"},{"bufferView":71,"byteOffset":31128,"componentType":5126,"count":1184,"max":[1,0.9773709774017334,0.9828979969024658],"min":[-0.9965479969978333,-0.9773709774017334,-0.9788399934768677],"type":"VEC3","name":"accessor_187"},{"bufferView":72,"byteOffset":0,"componentType":5126,"count":1184,"max":[0.986312985420227,0.4909690022468567],"min":[0.01380470022559166,0.39318400621414185],"type":"VEC2","name":"accessor_1882"},{"bufferView":143,"byteOffset":18618,"componentType":5123,"count":840,"type":"SCALAR","min":[0],"max":[746],"name":"accessor_1903"},{"bufferView":73,"byteOffset":0,"componentType":5126,"count":747,"max":[2.393120050430298,0.4120909869670868,0.4120909869670868],"min":[1.407480001449585,-0.4120909869670868,-0.412092000246048],"type":"VEC3","name":"accessor_1905"},{"bufferView":73,"byteOffset":8964,"componentType":5126,"count":747,"max":[1,1,1],"min":[-1,-1,-1],"type":"VEC3","name":"accessor_1907"},{"bufferView":143,"byteOffset":20298,"componentType":5123,"count":216,"type":"SCALAR","min":[0],"max":[183],"name":"accessor_1930"},{"bufferView":73,"byteOffset":17928,"componentType":5126,"count":184,"max":[0.8667640089988708,0.8222599625587463,0.8222599625587463],"min":[0.6650919914245605,-0.831125020980835,-0.831125020980835],"type":"VEC3","name":"accessor_1932"},{"bufferView":73,"byteOffset":20136,"componentType":5126,"count":184,"max":[1,1,1],"min":[-1,-1,-1],"type":"VEC3","name":"accessor_1934"},{"bufferView":143,"byteOffset":20730,"componentType":5123,"count":666,"type":"SCALAR","min":[0],"max":[662],"name":"accessor_1957"},{"bufferView":73,"byteOffset":22344,"componentType":5126,"count":663,"max":[0.2524619996547699,0.8612239956855774,0.8671910166740417],"min":[0.11935199797153473,-0.8731560111045837,-0.8671900033950806],"type":"VEC3","name":"accessor_1959"},{"bufferView":73,"byteOffset":30300,"componentType":5126,"count":663,"max":[-0.034808199852705,0.9989029765129089,0.9989029765129089],"min":[-0.9675819873809814,-0.9989029765129089,-0.9989020228385925],"type":"VEC3","name":"accessor_1961"},{"bufferView":143,"byteOffset":22062,"componentType":5123,"count":576,"type":"SCALAR","min":[0],"max":[467],"name":"accessor_1984"},{"bufferView":73,"byteOffset":38256,"componentType":5126,"count":468,"max":[0.8845629692077637,0.9024739861488342,0.9024739861488342],"min":[9.999999974752427e-7,-0.9024739861488342,-0.9024739861488342],"type":"VEC3","name":"accessor_1986"},{"bufferView":73,"byteOffset":43872,"componentType":5126,"count":468,"max":[0.9992210268974304,0.9807860255241394,0.9807860255241394],"min":[-1,-0.9807860255241394,-0.9807860255241394],"type":"VEC3","name":"accessor_1988"},{"bufferView":143,"byteOffset":23214,"componentType":5123,"count":129,"type":"SCALAR","min":[0],"max":[128],"name":"accessor_2028"},{"bufferView":143,"byteOffset":23472,"componentType":5123,"count":183,"type":"SCALAR","min":[129],"max":[311],"name":"accessor_2031"},{"bufferView":73,"byteOffset":49488,"componentType":5126,"count":312,"max":[-0.1609649956226349,0.17672599852085114,0.17672599852085114],"min":[-0.5204499959945679,-0.17672599852085114,-0.17672599852085114],"type":"VEC3","name":"accessor_2033"},{"bufferView":73,"byteOffset":53232,"componentType":5126,"count":312,"max":[-0.4135189950466156,0.8834630250930786,0.8834609985351562],"min":[-0.4354510009288788,-0.8834589719772339,-0.8834570050239563],"type":"VEC3","name":"accessor_2035"},{"bufferView":143,"byteOffset":23838,"componentType":5123,"count":96,"type":"SCALAR","min":[0],"max":[95],"name":"accessor_2058"},{"bufferView":73,"byteOffset":56976,"componentType":5126,"count":96,"max":[0.3477630019187927,0.42681998014450073,0.42681998014450073],"min":[-0.1609649956226349,-0.42681998014450073,-0.42681998014450073],"type":"VEC3","name":"accessor_2060"},{"bufferView":73,"byteOffset":58128,"componentType":5126,"count":96,"max":[-0.43431198596954346,0.8834549784660339,0.8834549784660339],"min":[-0.4343140125274658,-0.8834549784660339,-0.8834549784660339],"type":"VEC3","name":"accessor_2062"},{"bufferView":143,"byteOffset":24030,"componentType":5123,"count":1056,"type":"SCALAR","min":[0],"max":[990],"name":"accessor_2085"},{"bufferView":73,"byteOffset":59280,"componentType":5126,"count":991,"max":[2.2948198318481445,0.5182650089263916,0.5182650089263916],"min":[0.313946008682251,-0.5182650089263916,-0.5182650089263916],"type":"VEC3","name":"accessor_2087"},{"bufferView":73,"byteOffset":71172,"componentType":5126,"count":991,"max":[1,0.9804679751396179,0.9804679751396179],"min":[-1,-0.9804679751396179,-0.9804679751396179],"type":"VEC3","name":"accessor_2089"},{"bufferView":143,"byteOffset":26142,"componentType":5123,"count":96,"type":"SCALAR","min":[0],"max":[93],"name":"accessor_210"},{"bufferView":73,"byteOffset":83064,"componentType":5126,"count":94,"max":[0.2420639991760254,0.8675659894943237,0.8675659894943237],"min":[0.1303430050611496,-0.8675659894943237,-0.8675659894943237],"type":"VEC3","name":"accessor_2114"},{"bufferView":73,"byteOffset":84192,"componentType":5126,"count":94,"max":[-0.11406499892473221,0.9743840098381042,0.9743840098381042],"min":[-0.11407499760389328,-0.9743840098381042,-0.9743840098381042],"type":"VEC3","name":"accessor_2116"},{"bufferView":143,"byteOffset":26334,"componentType":5123,"count":96,"type":"SCALAR","min":[0],"max":[81],"name":"accessor_2139"},{"bufferView":73,"byteOffset":85320,"componentType":5126,"count":82,"max":[0.22648200392723083,0.6428639888763428,0.6428639888763428],"min":[0.13898099958896637,-0.6428639888763428,-0.6428639888763428],"type":"VEC3","name":"accessor_2141"},{"bufferView":73,"byteOffset":86304,"componentType":5126,"count":82,"max":[0,0.9807860255241394,0.9807860255241394],"min":[0,-0.9807860255241394,-0.9807860255241394],"type":"VEC3","name":"accessor_2143"},{"bufferView":143,"byteOffset":26526,"componentType":5123,"count":774,"type":"SCALAR","min":[0],"max":[689],"name":"accessor_2166"},{"bufferView":73,"byteOffset":87288,"componentType":5126,"count":690,"max":[-6.037943363189697,2.0861399173736572,3.407440662384033],"min":[-6.595855236053467,0.7649979591369629,-3.3570902347564697],"type":"VEC3","name":"accessor_2168"},{"bufferView":73,"byteOffset":95568,"componentType":5126,"count":690,"max":[1,0.9998199939727783,1],"min":[-1,-0.9999819993972778,-1],"type":"VEC3","name":"accessor_2170"},{"bufferView":143,"byteOffset":28074,"componentType":5123,"count":360,"type":"SCALAR","min":[0],"max":[119],"name":"accessor_2193"},{"bufferView":73,"byteOffset":103848,"componentType":5126,"count":120,"max":[1.4687455892562866,3.4942994117736816,-11.318999290466309],"min":[-1.5453343391418457,2.92229962348938,-13.19904899597168],"type":"VEC3","name":"accessor_2195"},{"bufferView":73,"byteOffset":105288,"componentType":5126,"count":120,"max":[0.8108710050582886,0.678072988986969,-0.2953939735889435],"min":[-0.8108659982681274,0.5022389888763428,-0.6820629835128784],"type":"VEC3","name":"accessor_2197"},{"bufferView":143,"byteOffset":28794,"componentType":5123,"count":234,"type":"SCALAR","min":[0],"max":[89],"name":"accessor_2220"},{"bufferView":73,"byteOffset":106728,"componentType":5126,"count":90,"max":[1.4395155906677246,3.457549571990967,-11.366568565368652],"min":[-1.5161043405532837,2.963244676589966,-13.151239395141602],"type":"VEC3","name":"accessor_2222"},{"bufferView":73,"byteOffset":107808,"componentType":5126,"count":90,"max":[0.8108639717102051,0.673812985420227,-0.2550469636917114],"min":[-0.8108639717102051,0.5040950179100037,-0.6790879964828491],"type":"VEC3","name":"accessor_2224"},{"bufferView":143,"byteOffset":29262,"componentType":5123,"count":12168,"type":"SCALAR","min":[0],"max":[2956],"name":"accessor_2247"},{"bufferView":73,"byteOffset":108888,"componentType":5126,"count":2957,"max":[2.140655279159546,4.543299674987793,19.26999855041504],"min":[-2.2172446250915527,0.4022998809814453,-13.772998809814453],"type":"VEC3","name":"accessor_2249"},{"bufferView":73,"byteOffset":144372,"componentType":5126,"count":2957,"max":[0.9999989867210388,1,0.9962310194969177],"min":[-0.9999989867210388,-1,-0.9762960076332092],"type":"VEC3","name":"accessor_2251"},{"bufferView":74,"byteOffset":0,"componentType":5126,"count":2957,"max":[0.9317799806594849,0.37470299005508423],"min":[0.06743329763412476,0.07615900039672852],"type":"VEC2","name":"accessor_2253"},{"bufferView":143,"byteOffset":53598,"componentType":5123,"count":1395,"type":"SCALAR","min":[0],"max":[345],"name":"accessor_2274"},{"bufferView":75,"byteOffset":0,"componentType":5126,"count":346,"max":[2.189995288848877,2.208770513534546,5.849000930786133],"min":[-2.266584634780884,0.04997968673706055,-5.6399993896484375],"type":"VEC3","name":"accessor_2276"},{"bufferView":75,"byteOffset":4152,"componentType":5126,"count":346,"max":[0.9998739957809448,0.8246489763259888,0.8703879714012146],"min":[-0.9998739957809448,-0.9999859929084778,-1],"type":"VEC3","name":"accessor_2278"},{"bufferView":76,"byteOffset":0,"componentType":5126,"count":346,"max":[0.7196679711341858,0.38572901487350464],"min":[0.27954500913619995,0.1492210030555725],"type":"VEC2","name":"accessor_2280"},{"bufferView":143,"byteOffset":56388,"componentType":5123,"count":57,"type":"SCALAR","min":[0],"max":[18],"name":"accessor_2301"},{"bufferView":77,"byteOffset":0,"componentType":5126,"count":19,"max":[-0.5029669404029846,1.0946695804595947,2.1212005615234375],"min":[-2.0007450580596924,0.04997968673706055,0.5118007063865662],"type":"VEC3","name":"accessor_2303"},{"bufferView":77,"byteOffset":228,"componentType":5126,"count":19,"max":[0.006053030025213957,-0.09077860414981842,0.014323560521006584],"min":[-0.9956949949264526,-0.9999939799308777,-0.04219293221831322],"type":"VEC3","name":"accessor_2305"},{"bufferView":78,"byteOffset":0,"componentType":5126,"count":19,"max":[0.4819599986076355,0.21678400039672852],"min":[0.4399850070476532,0.18408900499343872],"type":"VEC2","name":"accessor_2307"},{"bufferView":143,"byteOffset":56502,"componentType":5123,"count":57,"type":"SCALAR","min":[0],"max":[18],"name":"accessor_2328"},{"bufferView":79,"byteOffset":0,"componentType":5126,"count":19,"max":[1.9241549968719482,1.0946695804595947,2.1212005615234375],"min":[0.42637696862220764,0.04997968673706055,0.5118008255958557],"type":"VEC3","name":"accessor_2330"},{"bufferView":79,"byteOffset":228,"componentType":5126,"count":19,"max":[0.9956949949264526,-0.09078489989042282,0.014327640645205975],"min":[-0.006053030025213957,-0.9999939799308777,-0.04219316691160202],"type":"VEC3","name":"accessor_2332"},{"bufferView":80,"byteOffset":0,"componentType":5126,"count":19,"max":[0.5592280030250549,0.38572901487350464],"min":[0.5172529816627502,0.35303401947021484],"type":"VEC2","name":"accessor_2334"},{"bufferView":143,"byteOffset":56616,"componentType":5123,"count":72,"type":"SCALAR","min":[0],"max":[25],"name":"accessor_2355"},{"bufferView":81,"byteOffset":0,"componentType":5126,"count":26,"max":[1.8799653053283691,2.059630870819092,-5.657999038696289],"min":[0.5960413217544556,0.5203499794006348,-7.478099822998047],"type":"VEC3","name":"accessor_2357"},{"bufferView":81,"byteOffset":312,"componentType":5126,"count":26,"max":[0.9789419770240784,-0.2041420042514801,0.000023184233214124106],"min":[0.33470600843429565,-0.9423229694366455,-0.00002315506753802765],"type":"VEC3","name":"accessor_2359"},{"bufferView":82,"byteOffset":0,"componentType":5126,"count":26,"max":[0.7676050066947937,0.3710079789161682],"min":[0.7201390266418457,0.3228340148925781],"type":"VEC2","name":"accessor_2361"},{"bufferView":143,"byteOffset":56760,"componentType":5123,"count":228,"type":"SCALAR","min":[0],"max":[51],"name":"accessor_2382"},{"bufferView":83,"byteOffset":0,"componentType":5126,"count":52,"max":[1.8799653053283691,2.059630870819092,-5.657999038696289],"min":[0.5865063071250916,0.5203499794006348,-7.478099822998047],"type":"VEC3","name":"accessor_2384"},{"bufferView":83,"byteOffset":624,"componentType":5126,"count":52,"max":[-0.08842840790748596,0.9832459688186646,0.8561399579048157],"min":[-0.9845719933509827,-0.07073590159416199,-0.8561509847640991],"type":"VEC3","name":"accessor_2386"},{"bufferView":143,"byteOffset":57216,"componentType":5123,"count":213,"type":"SCALAR","min":[0],"max":[73],"name":"accessor_2409"},{"bufferView":83,"byteOffset":1248,"componentType":5126,"count":74,"max":[1.8751248121261597,2.059189796447754,6.877101898193359],"min":[0.5280347466468811,0.5570697784423828,5.057102203369141],"type":"VEC3","name":"accessor_2411"},{"bufferView":83,"byteOffset":2136,"componentType":5126,"count":74,"max":[0.9837260246276855,-0.01964630000293255,0.2513290345668793],"min":[0.10929299145936966,-0.9706979990005493,0.003401082707569003],"type":"VEC3","name":"accessor_2413"},{"bufferView":84,"byteOffset":0,"componentType":5126,"count":74,"max":[0.4406830072402954,0.369858980178833],"min":[0.393216997385025,0.32284802198410034],"type":"VEC2","name":"accessor_2415"},{"bufferView":143,"byteOffset":57642,"componentType":5123,"count":387,"type":"SCALAR","min":[0],"max":[85],"name":"accessor_2436"},{"bufferView":85,"byteOffset":0,"componentType":5126,"count":86,"max":[1.8751248121261597,2.059189796447754,6.877101898193359],"min":[0.5280347466468811,0.5570697784423828,5.057102203369141],"type":"VEC3","name":"accessor_2438"},{"bufferView":85,"byteOffset":1032,"componentType":5126,"count":86,"max":[0.6732609868049622,0.9500529766082764,0.7416070103645325],"min":[-0.9973819851875305,-0.7553250193595886,-0.8028169870376587],"type":"VEC3","name":"accessor_2440"},{"bufferView":143,"byteOffset":58416,"componentType":5123,"count":90,"type":"SCALAR","min":[0],"max":[31],"name":"accessor_2463"},{"bufferView":85,"byteOffset":2064,"componentType":5126,"count":32,"max":[-1.1126844882965088,4.066760063171387,-8.987359046936035],"min":[-1.996584415435791,2.048083782196045,-10.003629684448242],"type":"VEC3","name":"accessor_2465"},{"bufferView":85,"byteOffset":2448,"componentType":5126,"count":32,"max":[-0.6344299912452698,0.769698977470398,-0.04465584456920624],"min":[-0.9986979961395264,-0.09671320021152496,-0.126194030046463],"type":"VEC3","name":"accessor_2467"},{"bufferView":86,"byteOffset":0,"componentType":5126,"count":32,"max":[0.19224399328231812,0.15425002574920654],"min":[0.1657399982213974,0.09107297658920288],"type":"VEC2","name":"accessor_2469"},{"bufferView":143,"byteOffset":58596,"componentType":5123,"count":138,"type":"SCALAR","min":[0],"max":[45],"name":"accessor_2490"},{"bufferView":87,"byteOffset":0,"componentType":5126,"count":46,"max":[-1.7922048568725586,3.4557857513427734,-0.6455002427101135],"min":[-2.0132248401641846,2.448756694793701,-1.1455003023147583],"type":"VEC3","name":"accessor_2492"},{"bufferView":87,"byteOffset":552,"componentType":5126,"count":46,"max":[-0.884555995464325,0.4664340019226074,0.000015008887203293853],"min":[-0.999966025352478,-0.10678300261497498,-0.000015092613466549665],"type":"VEC3","name":"accessor_2494"},{"bufferView":88,"byteOffset":0,"componentType":5126,"count":46,"max":[0.40980300307273865,0.14171099662780762],"min":[0.39676299691200256,0.11019402742385864],"type":"VEC2","name":"accessor_2496"},{"bufferView":143,"byteOffset":58872,"componentType":5123,"count":120,"type":"SCALAR","min":[0],"max":[40],"name":"accessor_2517"},{"bufferView":89,"byteOffset":0,"componentType":5126,"count":41,"max":[-1.1527754068374634,4.086589813232422,11.826700210571289],"min":[-1.8403552770614624,2.0261998176574707,10.800701141357422],"type":"VEC3","name":"accessor_2519"},{"bufferView":89,"byteOffset":492,"componentType":5126,"count":41,"max":[-0.6043220162391663,0.7960950136184692,0.18358995020389557],"min":[-0.9909610152244568,-0.5760999917984009,0.03205117583274841],"type":"VEC3","name":"accessor_2521"},{"bufferView":90,"byteOffset":0,"componentType":5126,"count":41,"max":[0.7350829839706421,0.15493500232696533],"min":[0.7083240151405334,0.09045201539993286],"type":"VEC2","name":"accessor_2523"},{"bufferView":143,"byteOffset":59112,"componentType":5123,"count":90,"type":"SCALAR","min":[0],"max":[31],"name":"accessor_2544"},{"bufferView":91,"byteOffset":0,"componentType":5126,"count":32,"max":[1.9199954271316528,4.066760063171387,-8.987359046936035],"min":[1.0360954999923706,2.048083782196045,-10.003629684448242],"type":"VEC3","name":"accessor_2546"},{"bufferView":91,"byteOffset":384,"componentType":5126,"count":32,"max":[0.9986979961395264,0.769665002822876,-0.04465685412287712],"min":[0.6344689726829529,-0.09667820483446121,-0.12620197236537933],"type":"VEC3","name":"accessor_2548"},{"bufferView":92,"byteOffset":0,"componentType":5126,"count":32,"max":[0.8334730267524719,0.3231949806213379],"min":[0.8069679737091064,0.260017991065979],"type":"VEC2","name":"accessor_2550"},{"bufferView":143,"byteOffset":59292,"componentType":5123,"count":138,"type":"SCALAR","min":[0],"max":[45],"name":"accessor_2571"},{"bufferView":93,"byteOffset":0,"componentType":5126,"count":46,"max":[1.936635136604309,3.4557857513427734,-0.645500123500824],"min":[1.7156150341033936,2.448756694793701,-1.1455000638961792],"type":"VEC3","name":"accessor_2573"},{"bufferView":93,"byteOffset":552,"componentType":5126,"count":46,"max":[0.999966025352478,0.46640199422836304,0.000016410333046223968],"min":[0.8845729827880859,-0.10672900080680847,-0.00001632326893741265],"type":"VEC3","name":"accessor_2575"},{"bufferView":94,"byteOffset":0,"componentType":5126,"count":46,"max":[0.6024500131607056,0.31065601110458374],"min":[0.5894100069999695,0.27913898229599],"type":"VEC2","name":"accessor_2577"},{"bufferView":143,"byteOffset":59568,"componentType":5123,"count":120,"type":"SCALAR","min":[0],"max":[40],"name":"accessor_2598"},{"bufferView":95,"byteOffset":0,"componentType":5126,"count":41,"max":[1.7637646198272705,4.086589813232422,11.826700210571289],"min":[1.0761845111846924,2.0261998176574707,10.800701141357422],"type":"VEC3","name":"accessor_2600"},{"bufferView":95,"byteOffset":492,"componentType":5126,"count":41,"max":[0.9909610152244568,0.7961130142211914,0.1835770457983017],"min":[0.6042999625205994,-0.5760160088539124,0.032026827335357666],"type":"VEC3","name":"accessor_2602"},{"bufferView":96,"byteOffset":0,"componentType":5126,"count":41,"max":[0.2908880114555359,0.32388001680374146],"min":[0.26412999629974365,0.2593979835510254],"type":"VEC2","name":"accessor_2604"},{"bufferView":143,"byteOffset":59808,"componentType":5123,"count":24,"type":"SCALAR","min":[0],"max":[9],"name":"accessor_2625"},{"bufferView":97,"byteOffset":0,"componentType":5126,"count":10,"max":[-0.03829454258084297,0.5033397674560547,-9.03515911102295],"min":[-0.5382944941520691,0.4132997989654541,-9.513998985290527],"type":"VEC3","name":"accessor_2627"},{"bufferView":97,"byteOffset":120,"componentType":5126,"count":10,"max":[-0.10183899849653244,-0.953698992729187,-0.02847360447049141],"min":[-0.2993850111961365,-0.994388997554779,-0.030622711405158043],"type":"VEC3","name":"accessor_2629"},{"bufferView":98,"byteOffset":0,"componentType":5126,"count":10,"max":[0.19099800288677216,0.20541298389434814],"min":[0.17850999534130096,0.20259499549865723],"type":"VEC2","name":"accessor_2631"},{"bufferView":143,"byteOffset":59856,"componentType":5123,"count":24,"type":"SCALAR","min":[0],"max":[9],"name":"accessor_2652"},{"bufferView":99,"byteOffset":0,"componentType":5126,"count":10,"max":[0.46170544624328613,0.5033397674560547,-9.03515911102295],"min":[-0.03829456493258476,0.4132997989654541,-9.513998985290527],"type":"VEC3","name":"accessor_2654"},{"bufferView":99,"byteOffset":120,"componentType":5126,"count":10,"max":[0.2993850111961365,-0.953698992729187,-0.028473496437072754],"min":[0.10183899849653244,-0.9943899512290955,-0.03062288835644722],"type":"VEC3","name":"accessor_2656"},{"bufferView":100,"byteOffset":0,"componentType":5126,"count":10,"max":[0.8207029700279236,0.37435799837112427],"min":[0.8082150220870972,0.37154000997543335],"type":"VEC2","name":"accessor_2658"},{"bufferView":143,"byteOffset":59904,"componentType":5123,"count":24,"type":"SCALAR","min":[0],"max":[11],"name":"accessor_2679"},{"bufferView":101,"byteOffset":0,"componentType":5126,"count":12,"max":[0.0867055132985115,0.4498898983001709,-9.513998985290527],"min":[-0.1632944941520691,0.42729997634887695,-9.794999122619629],"type":"VEC3","name":"accessor_2681"},{"bufferView":101,"byteOffset":144,"componentType":5126,"count":12,"max":[0.10140299797058105,-0.9942470192909241,-0.03449489548802376],"min":[-0.10140299797058105,-0.9993810057640076,-0.035437799990177155],"type":"VEC3","name":"accessor_2683"},{"bufferView":102,"byteOffset":0,"componentType":5126,"count":12,"max":[0.8280320167541504,0.3739200234413147],"min":[0.17118099331855774,0.2042679786682129],"type":"VEC2","name":"accessor_2685"},{"bufferView":143,"byteOffset":59952,"componentType":5123,"count":81,"type":"SCALAR","min":[0],"max":[24],"name":"accessor_2706"},{"bufferView":103,"byteOffset":0,"componentType":5126,"count":25,"max":[-0.03829444572329521,0.6375198364257812,-9.513998985290527],"min":[-0.5382944941520691,0.4336698055267334,-11.718998908996582],"type":"VEC3","name":"accessor_2708"},{"bufferView":103,"byteOffset":300,"componentType":5126,"count":25,"max":[-0.08392549306154251,-0.9537230134010315,-0.03430810570716858],"min":[-0.2986139953136444,-0.9942880272865295,-0.11709600687026978],"type":"VEC3","name":"accessor_2710"},{"bufferView":104,"byteOffset":0,"componentType":5126,"count":25,"max":[0.17850999534130096,0.20477497577667236],"min":[0.12100199609994888,0.19839602708816528],"type":"VEC2","name":"accessor_2712"},{"bufferView":143,"byteOffset":60114,"componentType":5123,"count":81,"type":"SCALAR","min":[0],"max":[24],"name":"accessor_2733"},{"bufferView":105,"byteOffset":0,"componentType":5126,"count":25,"max":[0.4617055356502533,0.6375198364257812,-9.513998985290527],"min":[-0.038294531404972076,0.4336698055267334,-11.718998908996582],"type":"VEC3","name":"accessor_2735"},{"bufferView":105,"byteOffset":300,"componentType":5126,"count":25,"max":[0.29861700534820557,-0.9537230134010315,-0.03431189805269241],"min":[0.0839255079627037,-0.9942880272865295,-0.1170949935913086],"type":"VEC3","name":"accessor_2737"},{"bufferView":106,"byteOffset":0,"componentType":5126,"count":25,"max":[0.8782099485397339,0.37372100353240967],"min":[0.8207029700279236,0.36734098196029663],"type":"VEC2","name":"accessor_2739"},{"bufferView":143,"byteOffset":60276,"componentType":5123,"count":678,"type":"SCALAR","min":[0],"max":[141],"name":"accessor_2760"},{"bufferView":107,"byteOffset":0,"componentType":5126,"count":142,"max":[0.878429651260376,2.698469877243042,-13.612998962402344],"min":[-0.9550183415412903,0.9632399082183838,-14.572988510131836],"type":"VEC3","name":"accessor_2762"},{"bufferView":107,"byteOffset":1704,"componentType":5126,"count":142,"max":[0.8895350098609924,0.8783050179481506,-0.37703201174736023],"min":[-0.8895350098609924,-0.925724983215332,-0.999983012676239],"type":"VEC3","name":"accessor_2764"},{"bufferView":108,"byteOffset":0,"componentType":5126,"count":142,"max":[0.9526439905166626,0.3571469783782959],"min":[0.04656929895281792,0.13389497995376587],"type":"VEC2","name":"accessor_2766"},{"bufferView":143,"byteOffset":61632,"componentType":5123,"count":120,"type":"SCALAR","min":[0],"max":[47],"name":"accessor_2787"},{"bufferView":109,"byteOffset":0,"componentType":5126,"count":48,"max":[1.377495288848877,1.8321747779846191,-7.701999664306641],"min":[-1.4540846347808838,0.909889817237854,-12.96299934387207],"type":"VEC3","name":"accessor_2789"},{"bufferView":109,"byteOffset":576,"componentType":5126,"count":48,"max":[0.8999210000038147,-0.09937810152769089,0.007168198470026255],"min":[-0.8999189734458923,-0.6984180212020874,-0.42522501945495605],"type":"VEC3","name":"accessor_2791"},{"bufferView":110,"byteOffset":0,"componentType":5126,"count":48,"max":[0.9106540083885193,0.3588169813156128],"min":[0.08855839818716049,0.16100698709487915],"type":"VEC2","name":"accessor_2793"},{"bufferView":143,"byteOffset":61872,"componentType":5123,"count":16008,"type":"SCALAR","min":[0],"max":[2799],"name":"accessor_2814"},{"bufferView":111,"byteOffset":0,"componentType":5126,"count":2800,"max":[1.909415364265442,3.267446756362915,9.469499588012695],"min":[-1.9860045909881592,2.823000907897949,-8.571799278259277],"type":"VEC3","name":"accessor_2816"},{"bufferView":111,"byteOffset":33600,"componentType":5126,"count":2800,"max":[0.9961559772491455,0.8583930134773254,0.8491849899291992],"min":[-0.9961559772491455,-0.9160879850387573,-0.8397699594497681],"type":"VEC3","name":"accessor_2818"},{"bufferView":143,"byteOffset":93888,"componentType":5123,"count":138,"type":"SCALAR","min":[0],"max":[45],"name":"accessor_2841"},{"bufferView":111,"byteOffset":67200,"componentType":5126,"count":46,"max":[0.4617055356502533,1.4907997846603394,-9.035149574279785],"min":[-0.5382944941520691,0.4132997989654541,-11.718999862670898],"type":"VEC3","name":"accessor_2843"},{"bufferView":111,"byteOffset":67752,"componentType":5126,"count":46,"max":[1,0.06433720141649246,0.9999470114707947],"min":[-1,-0.7073299884796143,-0.9999979734420776],"type":"VEC3","name":"accessor_2845"},{"bufferView":143,"byteOffset":94164,"componentType":5123,"count":774,"type":"SCALAR","min":[0],"max":[689],"name":"accessor_446"},{"bufferView":111,"byteOffset":68304,"componentType":5126,"count":690,"max":[6.547445774078369,2.0561840534210205,3.2621397972106934],"min":[5.9895339012146,0.7350419759750366,-3.5023910999298096],"type":"VEC3","name":"accessor_448"},{"bufferView":111,"byteOffset":76584,"componentType":5126,"count":690,"max":[1,0.9998199939727783,1],"min":[-1,-0.9999819993972778,-1],"type":"VEC3","name":"accessor_450"},{"bufferView":143,"byteOffset":95712,"componentType":5123,"count":144,"type":"SCALAR","min":[0],"max":[107],"name":"accessor_473"},{"bufferView":111,"byteOffset":84864,"componentType":5126,"count":108,"max":[1.8444931507110596,1.8396939039230347,0.18838007748126984],"min":[-1.8915069103240967,1.0387089252471924,-2.605048179626465],"type":"VEC3","name":"accessor_475"},{"bufferView":111,"byteOffset":86160,"componentType":5126,"count":108,"max":[1,0.9999899864196777,1],"min":[-1,-1,-1],"type":"VEC3","name":"accessor_477"},{"bufferView":143,"byteOffset":96000,"componentType":5123,"count":1644,"type":"SCALAR","min":[0],"max":[1643],"name":"accessor_500"},{"bufferView":111,"byteOffset":87456,"componentType":5126,"count":1644,"max":[12.027692794799805,2.3876709938049316,3.2615203857421875],"min":[-12.074606895446777,1.209913969039917,-0.031850311905145645],"type":"VEC3","name":"accessor_502"},{"bufferView":111,"byteOffset":107184,"componentType":5126,"count":1644,"max":[0.9991699457168579,0.9787999987602234,0.39111098647117615],"min":[-0.9991699457168579,-0.9787999987602234,-0.3911280035972595],"type":"VEC3","name":"accessor_504"},{"bufferView":112,"byteOffset":0,"componentType":5126,"count":1644,"max":[0.4022679924964905,0.679144024848938],"min":[0.1625179946422577,0.5499969720840454],"type":"VEC2","name":"accessor_506"},{"bufferView":143,"byteOffset":99288,"componentType":5123,"count":3264,"type":"SCALAR","min":[0],"max":[3171],"name":"accessor_527"},{"bufferView":113,"byteOffset":0,"componentType":5126,"count":3172,"max":[16.32579231262207,2.9695000648498535,5.513920307159424],"min":[-16.372806549072266,1.0387089252471924,-3.2256200313568115],"type":"VEC3","name":"accessor_529"},{"bufferView":113,"byteOffset":38064,"componentType":5126,"count":3172,"max":[1,0.9990509748458862,1],"min":[-1,-0.9971099495887756,-1],"type":"VEC3","name":"accessor_531"},{"bufferView":114,"byteOffset":0,"componentType":5126,"count":3172,"max":[0.9779390096664429,0.7674700021743774],"min":[0.022092901170253754,0.4247559905052185],"type":"VEC2","name":"accessor_533"},{"bufferView":143,"byteOffset":105816,"componentType":5123,"count":18,"type":"SCALAR","min":[0],"max":[17],"name":"accessor_554"},{"bufferView":115,"byteOffset":0,"componentType":5126,"count":18,"max":[-13.418306350708008,2.9212698936462402,5.89847993850708],"min":[-16.35230827331543,2.540091037750244,4.437399387359619],"type":"VEC3","name":"accessor_556"},{"bufferView":115,"byteOffset":216,"componentType":5126,"count":18,"max":[0.9969189763069153,0.9723309874534607,0.18773099780082703],"min":[-0.9966809749603271,-0.9955430030822754,-0.0000015304732414733735],"type":"VEC3","name":"accessor_558"},{"bufferView":116,"byteOffset":0,"componentType":5126,"count":18,"max":[0.975741982460022,0.7825509905815125],"min":[0.024258499965071678,0.725255012512207],"type":"VEC2","name":"accessor_560"},{"bufferView":117,"byteOffset":0,"componentType":5126,"count":18,"max":[16.3052921295166,2.9212698936462402,5.8984808921813965],"min":[13.371293067932129,2.540091037750244,4.4374003410339355],"type":"VEC3","name":"accessor_583"},{"bufferView":117,"byteOffset":216,"componentType":5126,"count":18,"max":[0.9966809749603271,0.9723309874534607,0.18773199617862701],"min":[-0.9969189763069153,-0.9955430030822754,-0.0000016176267081391416],"type":"VEC3","name":"accessor_585"},{"bufferView":118,"byteOffset":0,"componentType":5126,"count":18,"max":[0.9772679805755615,0.7825509905815125],"min":[0.022732000797986984,0.725255012512207],"type":"VEC2","name":"accessor_587"},{"bufferView":143,"byteOffset":105852,"componentType":5123,"count":2,"type":"SCALAR","min":[0],"max":[1],"name":"accessor_625"},{"bufferView":143,"byteOffset":105856,"componentType":5123,"count":330,"type":"SCALAR","min":[0],"max":[323],"name":"accessor_628"},{"bufferView":119,"byteOffset":0,"componentType":5126,"count":324,"max":[-4.75736665725708,1.7168259620666504,3.6993796825408936],"min":[-5.093306541442871,1.1588588953018188,1.1091396808624268],"type":"VEC3","name":"accessor_630"},{"bufferView":119,"byteOffset":3888,"componentType":5126,"count":324,"max":[0.9923790097236633,0.9649249911308289,1],"min":[-0.9998160004615784,-0.9989259839057922,-0.059974122792482376],"type":"VEC3","name":"accessor_632"},{"bufferView":120,"byteOffset":0,"componentType":5126,"count":324,"max":[0.40316298604011536,1],"min":[0,0.5947400331497192],"type":"VEC2","name":"accessor_634"},{"bufferView":143,"byteOffset":106516,"componentType":5123,"count":363,"type":"SCALAR","min":[0],"max":[353],"name":"accessor_655"},{"bufferView":121,"byteOffset":0,"componentType":5126,"count":354,"max":[-8.166586875915527,2.119117021560669,4.295379161834717],"min":[-8.500716209411621,1.5588289499282837,1.8329893350601196],"type":"VEC3","name":"accessor_657"},{"bufferView":121,"byteOffset":4248,"componentType":5126,"count":354,"max":[0.9957999587059021,0.9652180075645447,1],"min":[-0.9990599751472473,-0.9967939853668213,-0.12585800886154175],"type":"VEC3","name":"accessor_659"},{"bufferView":122,"byteOffset":0,"componentType":5126,"count":354,"max":[0.29175400733947754,0.7196860313415527],"min":[0.28083598613739014,0.6231249570846558],"type":"VEC2","name":"accessor_661"},{"bufferView":143,"byteOffset":107242,"componentType":5123,"count":357,"type":"SCALAR","min":[0],"max":[350],"name":"accessor_682"},{"bufferView":123,"byteOffset":0,"componentType":5126,"count":351,"max":[-11.795806884765625,2.4506850242614746,5.36837911605835],"min":[-12.09960651397705,1.9349119663238525,3.1442995071411133],"type":"VEC3","name":"accessor_684"},{"bufferView":123,"byteOffset":4212,"componentType":5126,"count":351,"max":[0.9965760111808777,0.9676669836044312,1],"min":[-0.9996060132980347,-0.9996780157089233,-0.22451800107955933],"type":"VEC3","name":"accessor_686"},{"bufferView":124,"byteOffset":0,"componentType":5126,"count":351,"max":[0.17315800487995148,0.7617629766464233],"min":[0.16323000192642212,0.6745469570159912],"type":"VEC2","name":"accessor_688"},{"bufferView":143,"byteOffset":107956,"componentType":5123,"count":330,"type":"SCALAR","min":[0],"max":[323],"name":"accessor_729"},{"bufferView":125,"byteOffset":0,"componentType":5126,"count":324,"max":[5.046293258666992,1.7168259620666504,3.6993801593780518],"min":[4.710352897644043,1.1588588953018188,1.109140157699585],"type":"VEC3","name":"accessor_731"},{"bufferView":125,"byteOffset":3888,"componentType":5126,"count":324,"max":[0.9998160004615784,0.9649249911308289,1],"min":[-0.9923779964447021,-0.9989259839057922,-0.059971779584884644],"type":"VEC3","name":"accessor_733"},{"bufferView":126,"byteOffset":0,"componentType":5126,"count":324,"max":[0.401636004447937,1],"min":[0,0.5947400331497192],"type":"VEC2","name":"accessor_735"},{"bufferView":143,"byteOffset":108616,"componentType":5123,"count":363,"type":"SCALAR","min":[0],"max":[353],"name":"accessor_756"},{"bufferView":127,"byteOffset":0,"componentType":5126,"count":354,"max":[8.453702926635742,2.119117021560669,4.295380115509033],"min":[8.119572639465332,1.5588289499282837,1.832990050315857],"type":"VEC3","name":"accessor_758"},{"bufferView":127,"byteOffset":4248,"componentType":5126,"count":354,"max":[0.9990599751472473,0.9652220010757446,1],"min":[-0.9957999587059021,-0.9967949986457825,-0.1258629858493805],"type":"VEC3","name":"accessor_760"},{"bufferView":128,"byteOffset":0,"componentType":5126,"count":354,"max":[0.290228009223938,0.7196860313415527],"min":[0.2793090045452118,0.6231249570846558],"type":"VEC2","name":"accessor_762"},{"bufferView":143,"byteOffset":109342,"componentType":5123,"count":357,"type":"SCALAR","min":[0],"max":[350],"name":"accessor_783"},{"bufferView":129,"byteOffset":0,"componentType":5126,"count":351,"max":[12.052594184875488,2.4506850242614746,5.368380069732666],"min":[11.74879264831543,1.9349119663238525,3.1443004608154297],"type":"VEC3","name":"accessor_785"},{"bufferView":129,"byteOffset":4212,"componentType":5126,"count":351,"max":[0.9996050000190735,0.9676569700241089,1],"min":[-0.9965729713439941,-0.9996780157089233,-0.22452400624752045],"type":"VEC3","name":"accessor_787"},{"bufferView":130,"byteOffset":0,"componentType":5126,"count":351,"max":[0.17163099348545074,0.7617629766464233],"min":[0.16170400381088257,0.6745469570159912],"type":"VEC2","name":"accessor_789"},{"bufferView":143,"byteOffset":110056,"componentType":5123,"count":153,"type":"SCALAR","min":[0],"max":[153],"name":"accessor_830"},{"bufferView":131,"byteOffset":0,"componentType":5126,"count":154,"max":[-2.078706979751587,2.032322883605957,2.8552799224853516],"min":[-6.274106502532959,1.2625548839569092,1.8116695880889893],"type":"VEC3","name":"accessor_832"},{"bufferView":131,"byteOffset":1848,"componentType":5126,"count":154,"max":[0.9879559874534607,0.989425003528595,1],"min":[-0.987966001033783,-0.9895970225334167,-0.9999920129776001],"type":"VEC3","name":"accessor_834"},{"bufferView":132,"byteOffset":0,"componentType":5126,"count":154,"max":[0.6464020013809204,1],"min":[0,0.6222890019416809],"type":"VEC2","name":"accessor_836"},{"bufferView":133,"byteOffset":0,"componentType":5126,"count":129,"max":[-6.347526550292969,2.623839855194092,4.967179775238037],"min":[-13.296806335449219,1.837243914604187,1.8146097660064697],"type":"VEC3","name":"accessor_859"},{"bufferView":133,"byteOffset":1548,"componentType":5126,"count":129,"max":[0.995822012424469,0.9957289695739746,0.21501199901103973],"min":[-0.9958059787750244,-0.9959840178489685,-0.9424489736557007],"type":"VEC3","name":"accessor_861"},{"bufferView":134,"byteOffset":0,"componentType":5126,"count":129,"max":[0.8758940100669861,0.7460299730300903],"min":[0.12410599738359451,0.6224039793014526],"type":"VEC2","name":"accessor_863"},{"bufferView":135,"byteOffset":0,"componentType":5126,"count":154,"max":[6.22709321975708,2.032322883605957,2.8552801609039307],"min":[2.0316929817199707,1.2625548839569092,1.8116700649261475],"type":"VEC3","name":"accessor_906"},{"bufferView":135,"byteOffset":1848,"componentType":5126,"count":154,"max":[0.9879530072212219,0.989425003528595,1],"min":[-0.9879540205001831,-0.9895960092544556,-0.9999920129776001],"type":"VEC3","name":"accessor_908"},{"bufferView":136,"byteOffset":0,"componentType":5126,"count":154,"max":[0.6479290127754211,1],"min":[0,0.6222890019416809],"type":"VEC2","name":"accessor_910"},{"bufferView":137,"byteOffset":0,"componentType":5126,"count":129,"max":[13.24979305267334,2.623839855194092,4.9671807289123535],"min":[6.300512790679932,1.837243914604187,1.814610242843628],"type":"VEC3","name":"accessor_933"},{"bufferView":137,"byteOffset":1548,"componentType":5126,"count":129,"max":[0.9957730174064636,0.9957289695739746,0.21501299738883972],"min":[-0.995826005935669,-0.9959840178489685,-0.9424489736557007],"type":"VEC3","name":"accessor_935"},{"bufferView":138,"byteOffset":0,"componentType":5126,"count":129,"max":[0.8774199485778809,0.7460299730300903],"min":[0.12257999926805496,0.6224039793014526],"type":"VEC2","name":"accessor_937"},{"bufferView":143,"byteOffset":110362,"componentType":5123,"count":42,"type":"SCALAR","min":[0],"max":[41],"name":"accessor_958"},{"bufferView":139,"byteOffset":0,"componentType":5126,"count":42,"max":[4.429553031921387,1.867094874382019,2.355760097503662],"min":[-4.476566791534424,1.3634589910507202,1.6962096691131592],"type":"VEC3","name":"accessor_960"},{"bufferView":139,"byteOffset":504,"componentType":5126,"count":42,"max":[0.9885309934616089,0.9753220081329346,0.20046000182628632],"min":[-0.9885290265083313,-0.9853259921073914,-1],"type":"VEC3","name":"accessor_962"},{"bufferView":140,"byteOffset":0,"componentType":5126,"count":42,"max":[0.5891879796981812,0.643625020980835],"min":[0.41081199049949646,0.6177610158920288],"type":"VEC2","name":"accessor_964"},{"bufferView":141,"byteOffset":0,"componentType":5126,"count":168,"max":[-2.3160266876220703,2.049867868423462,-1.1110103130340576],"min":[-5.37498664855957,1.5583579540252686,-2.999737024307251],"type":"VEC3","name":"accessor_987"},{"bufferView":141,"byteOffset":2016,"componentType":5126,"count":168,"max":[0.997497022151947,0.9823809862136841,0.8849930167198181],"min":[-0.8855890035629272,-0.9172559976577759,-0.8883900046348572],"type":"VEC3","name":"accessor_989"},{"bufferView":142,"byteOffset":0,"componentType":5126,"count":168,"max":[0.6170200109481812,0.5076780319213867],"min":[0.5170580148696899,0.43361401557922363],"type":"VEC2","name":"accessor_991"},{"bufferView":144,"componentType":5126,"count":513,"type":"VEC3","min":[-0.8472935910224898,3.294208876788616,-16.94524383544922],"max":[0.759809588909151,10.862929344177246,-8.768244743347168]},{"bufferView":145,"componentType":5126,"count":513,"type":"VEC3"},{"bufferView":146,"componentType":5126,"count":192,"type":"VEC3","min":[-0.27398903933979607,4.63247595166837,-15.019879489223909],"max":[0.2513086872715202,7.246989394709532,-12.405366046182747]},{"bufferView":147,"componentType":5126,"count":192,"type":"VEC3"},{"bufferView":148,"componentType":5126,"count":192,"type":"VEC2"}],"asset":{"generator":"collada2gltf@","version":"2.0","copyright":"FlightGear model authors / Flightradar24 contributors; GPLv2. See UPSTREAM-CREDITS.md and LICENSE.txt."},"bufferViews":[{"buffer":0,"byteLength":583,"byteOffset":935518,"name":"binary_bufferView0"},{"buffer":0,"byteLength":355,"byteOffset":936101,"name":"binary_bufferView1"},{"buffer":0,"byteLength":668,"byteOffset":936456,"name":"binary_bufferView2"},{"buffer":0,"byteLength":439,"byteOffset":937124,"name":"binary_bufferView3"},{"buffer":0,"byteLength":620,"byteOffset":937563,"name":"binary_bufferView4"},{"buffer":0,"byteLength":439,"byteOffset":938183,"name":"binary_bufferView5"},{"buffer":0,"byteLength":583,"byteOffset":938622,"name":"binary_bufferView6"},{"buffer":0,"byteLength":355,"byteOffset":939205,"name":"binary_bufferView7"},{"buffer":0,"byteLength":631,"byteOffset":939560,"name":"binary_bufferView8"},{"buffer":0,"byteLength":355,"byteOffset":940191,"name":"binary_bufferView9"},{"buffer":0,"byteLength":535,"byteOffset":940546,"name":"binary_bufferView10"},{"buffer":0,"byteLength":355,"byteOffset":941081,"name":"binary_bufferView11"},{"buffer":0,"byteLength":469,"byteOffset":941436,"name":"binary_bufferView12"},{"buffer":0,"byteLength":355,"byteOffset":941905,"name":"binary_bufferView13"},{"buffer":0,"byteLength":103692,"byteOffset":942260,"name":"binary_bufferView14"},{"buffer":0,"byteLength":8136,"byteOffset":0,"target":34962,"name":"bufferView_0","byteStride":12},{"buffer":0,"byteLength":2712,"byteOffset":8136,"target":34962,"name":"bufferView_0","byteStride":8},{"buffer":0,"byteLength":18576,"byteOffset":10848,"target":34962,"name":"bufferView_0","byteStride":12},{"buffer":0,"byteLength":1920,"byteOffset":29424,"target":34962,"name":"bufferView_0","byteStride":8},{"buffer":0,"byteLength":18720,"byteOffset":31344,"target":34962,"name":"bufferView_0","byteStride":12},{"buffer":0,"byteLength":1968,"byteOffset":50064,"target":34962,"name":"bufferView_0","byteStride":8},{"buffer":0,"byteLength":5328,"byteOffset":52032,"target":34962,"name":"bufferView_0","byteStride":12},{"buffer":0,"byteLength":1776,"byteOffset":57360,"target":34962,"name":"bufferView_0","byteStride":8},{"buffer":0,"byteLength":4032,"byteOffset":59136,"target":34962,"name":"bufferView_0","byteStride":12},{"buffer":0,"byteLength":1344,"byteOffset":63168,"target":34962,"name":"bufferView_0","byteStride":8},{"buffer":0,"byteLength":8136,"byteOffset":64512,"target":34962,"name":"bufferView_0","byteStride":12},{"buffer":0,"byteLength":2712,"byteOffset":72648,"target":34962,"name":"bufferView_0","byteStride":8},{"buffer":0,"byteLength":5760,"byteOffset":75360,"target":34962,"name":"bufferView_0","byteStride":12},{"buffer":0,"byteLength":1920,"byteOffset":81120,"target":34962,"name":"bufferView_0","byteStride":8},{"buffer":0,"byteLength":5904,"byteOffset":83040,"target":34962,"name":"bufferView_0","byteStride":12},{"buffer":0,"byteLength":1968,"byteOffset":88944,"target":34962,"name":"bufferView_0","byteStride":8},{"buffer":0,"byteLength":5328,"byteOffset":90912,"target":34962,"name":"bufferView_0","byteStride":12},{"buffer":0,"byteLength":1776,"byteOffset":96240,"target":34962,"name":"bufferView_0","byteStride":8},{"buffer":0,"byteLength":720,"byteOffset":98016,"target":34962,"name":"bufferView_0","byteStride":12},{"buffer":0,"byteLength":240,"byteOffset":98736,"target":34962,"name":"bufferView_0","byteStride":8},{"buffer":0,"byteLength":576,"byteOffset":98976,"target":34962,"name":"bufferView_0","byteStride":12},{"buffer":0,"byteLength":192,"byteOffset":99552,"target":34962,"name":"bufferView_0","byteStride":8},{"buffer":0,"byteLength":5172,"byteOffset":99744,"target":34962,"name":"bufferView_0","byteStride":12},{"buffer":0,"byteLength":192,"byteOffset":104916,"target":34962,"name":"bufferView_0","byteStride":8},{"buffer":0,"byteLength":5172,"byteOffset":105108,"target":34962,"name":"bufferView_0","byteStride":12},{"buffer":0,"byteLength":3256,"byteOffset":110280,"target":34962,"name":"bufferView_0","byteStride":8},{"buffer":0,"byteLength":720,"byteOffset":113536,"target":34962,"name":"bufferView_0","byteStride":12},{"buffer":0,"byteLength":240,"byteOffset":114256,"target":34962,"name":"bufferView_0","byteStride":8},{"buffer":0,"byteLength":1224,"byteOffset":114496,"target":34962,"name":"bufferView_0","byteStride":12},{"buffer":0,"byteLength":408,"byteOffset":115720,"target":34962,"name":"bufferView_0","byteStride":8},{"buffer":0,"byteLength":576,"byteOffset":116128,"target":34962,"name":"bufferView_0","byteStride":12},{"buffer":0,"byteLength":192,"byteOffset":116704,"target":34962,"name":"bufferView_0","byteStride":8},{"buffer":0,"byteLength":576,"byteOffset":116896,"target":34962,"name":"bufferView_0","byteStride":12},{"buffer":0,"byteLength":192,"byteOffset":117472,"target":34962,"name":"bufferView_0","byteStride":8},{"buffer":0,"byteLength":576,"byteOffset":117664,"target":34962,"name":"bufferView_0","byteStride":12},{"buffer":0,"byteLength":192,"byteOffset":118240,"target":34962,"name":"bufferView_0","byteStride":8},{"buffer":0,"byteLength":720,"byteOffset":118432,"target":34962,"name":"bufferView_0","byteStride":12},{"buffer":0,"byteLength":240,"byteOffset":119152,"target":34962,"name":"bufferView_0","byteStride":8},{"buffer":0,"byteLength":12096,"byteOffset":119392,"target":34962,"name":"bufferView_0","byteStride":12},{"buffer":0,"byteLength":4032,"byteOffset":131488,"target":34962,"name":"bufferView_0","byteStride":8},{"buffer":0,"byteLength":7728,"byteOffset":135520,"target":34962,"name":"bufferView_0","byteStride":12},{"buffer":0,"byteLength":2576,"byteOffset":143248,"target":34962,"name":"bufferView_0","byteStride":8},{"buffer":0,"byteLength":6600,"byteOffset":145824,"target":34962,"name":"bufferView_0","byteStride":12},{"buffer":0,"byteLength":640,"byteOffset":152424,"target":34962,"name":"bufferView_0","byteStride":8},{"buffer":0,"byteLength":6600,"byteOffset":153064,"target":34962,"name":"bufferView_0","byteStride":12},{"buffer":0,"byteLength":640,"byteOffset":159664,"target":34962,"name":"bufferView_0","byteStride":8},{"buffer":0,"byteLength":528,"byteOffset":160304,"target":34962,"name":"bufferView_0","byteStride":12},{"buffer":0,"byteLength":176,"byteOffset":160832,"target":34962,"name":"bufferView_0","byteStride":8},{"buffer":0,"byteLength":528,"byteOffset":161008,"target":34962,"name":"bufferView_0","byteStride":12},{"buffer":0,"byteLength":176,"byteOffset":161536,"target":34962,"name":"bufferView_0","byteStride":8},{"buffer":0,"byteLength":3000,"byteOffset":161712,"target":34962,"name":"bufferView_0","byteStride":12},{"buffer":0,"byteLength":1000,"byteOffset":164712,"target":34962,"name":"bufferView_0","byteStride":8},{"buffer":0,"byteLength":2544,"byteOffset":165712,"target":34962,"name":"bufferView_0","byteStride":12},{"buffer":0,"byteLength":848,"byteOffset":168256,"target":34962,"name":"bufferView_0","byteStride":8},{"buffer":0,"byteLength":21840,"byteOffset":169104,"target":34962,"name":"bufferView_0","byteStride":12},{"buffer":0,"byteLength":7280,"byteOffset":190944,"target":34962,"name":"bufferView_0","byteStride":8},{"buffer":0,"byteLength":45336,"byteOffset":198224,"target":34962,"name":"bufferView_0","byteStride":12},{"buffer":0,"byteLength":9472,"byteOffset":243560,"target":34962,"name":"bufferView_0","byteStride":8},{"buffer":0,"byteLength":179856,"byteOffset":253032,"target":34962,"name":"bufferView_0","byteStride":12},{"buffer":0,"byteLength":23656,"byteOffset":432888,"target":34962,"name":"bufferView_0","byteStride":8},{"buffer":0,"byteLength":8304,"byteOffset":456544,"target":34962,"name":"bufferView_0","byteStride":12},{"buffer":0,"byteLength":2768,"byteOffset":464848,"target":34962,"name":"bufferView_0","byteStride":8},{"buffer":0,"byteLength":456,"byteOffset":467616,"target":34962,"name":"bufferView_0","byteStride":12},{"buffer":0,"byteLength":152,"byteOffset":468072,"target":34962,"name":"bufferView_0","byteStride":8},{"buffer":0,"byteLength":456,"byteOffset":468224,"target":34962,"name":"bufferView_0","byteStride":12},{"buffer":0,"byteLength":152,"byteOffset":468680,"target":34962,"name":"bufferView_0","byteStride":8},{"buffer":0,"byteLength":624,"byteOffset":468832,"target":34962,"name":"bufferView_0","byteStride":12},{"buffer":0,"byteLength":208,"byteOffset":469456,"target":34962,"name":"bufferView_0","byteStride":8},{"buffer":0,"byteLength":3024,"byteOffset":469664,"target":34962,"name":"bufferView_0","byteStride":12},{"buffer":0,"byteLength":592,"byteOffset":472688,"target":34962,"name":"bufferView_0","byteStride":8},{"buffer":0,"byteLength":2832,"byteOffset":473280,"target":34962,"name":"bufferView_0","byteStride":12},{"buffer":0,"byteLength":256,"byteOffset":476112,"target":34962,"name":"bufferView_0","byteStride":8},{"buffer":0,"byteLength":1104,"byteOffset":476368,"target":34962,"name":"bufferView_0","byteStride":12},{"buffer":0,"byteLength":368,"byteOffset":477472,"target":34962,"name":"bufferView_0","byteStride":8},{"buffer":0,"byteLength":984,"byteOffset":477840,"target":34962,"name":"bufferView_0","byteStride":12},{"buffer":0,"byteLength":328,"byteOffset":478824,"target":34962,"name":"bufferView_0","byteStride":8},{"buffer":0,"byteLength":768,"byteOffset":479152,"target":34962,"name":"bufferView_0","byteStride":12},{"buffer":0,"byteLength":256,"byteOffset":479920,"target":34962,"name":"bufferView_0","byteStride":8},{"buffer":0,"byteLength":1104,"byteOffset":480176,"target":34962,"name":"bufferView_0","byteStride":12},{"buffer":0,"byteLength":368,"byteOffset":481280,"target":34962,"name":"bufferView_0","byteStride":8},{"buffer":0,"byteLength":984,"byteOffset":481648,"target":34962,"name":"bufferView_0","byteStride":12},{"buffer":0,"byteLength":328,"byteOffset":482632,"target":34962,"name":"bufferView_0","byteStride":8},{"buffer":0,"byteLength":240,"byteOffset":482960,"target":34962,"name":"bufferView_0","byteStride":12},{"buffer":0,"byteLength":80,"byteOffset":483200,"target":34962,"name":"bufferView_0","byteStride":8},{"buffer":0,"byteLength":240,"byteOffset":483280,"target":34962,"name":"bufferView_0","byteStride":12},{"buffer":0,"byteLength":80,"byteOffset":483520,"target":34962,"name":"bufferView_0","byteStride":8},{"buffer":0,"byteLength":288,"byteOffset":483600,"target":34962,"name":"bufferView_0","byteStride":12},{"buffer":0,"byteLength":96,"byteOffset":483888,"target":34962,"name":"bufferView_0","byteStride":8},{"buffer":0,"byteLength":600,"byteOffset":483984,"target":34962,"name":"bufferView_0","byteStride":12},{"buffer":0,"byteLength":200,"byteOffset":484584,"target":34962,"name":"bufferView_0","byteStride":8},{"buffer":0,"byteLength":600,"byteOffset":484784,"target":34962,"name":"bufferView_0","byteStride":12},{"buffer":0,"byteLength":200,"byteOffset":485384,"target":34962,"name":"bufferView_0","byteStride":8},{"buffer":0,"byteLength":3408,"byteOffset":485584,"target":34962,"name":"bufferView_0","byteStride":12},{"buffer":0,"byteLength":1136,"byteOffset":488992,"target":34962,"name":"bufferView_0","byteStride":8},{"buffer":0,"byteLength":1152,"byteOffset":490128,"target":34962,"name":"bufferView_0","byteStride":12},{"buffer":0,"byteLength":384,"byteOffset":491280,"target":34962,"name":"bufferView_0","byteStride":8},{"buffer":0,"byteLength":126912,"byteOffset":491664,"target":34962,"name":"bufferView_0","byteStride":12},{"buffer":0,"byteLength":13152,"byteOffset":618576,"target":34962,"name":"bufferView_0","byteStride":8},{"buffer":0,"byteLength":76128,"byteOffset":631728,"target":34962,"name":"bufferView_0","byteStride":12},{"buffer":0,"byteLength":25376,"byteOffset":707856,"target":34962,"name":"bufferView_0","byteStride":8},{"buffer":0,"byteLength":432,"byteOffset":733232,"target":34962,"name":"bufferView_0","byteStride":12},{"buffer":0,"byteLength":144,"byteOffset":733664,"target":34962,"name":"bufferView_0","byteStride":8},{"buffer":0,"byteLength":432,"byteOffset":733808,"target":34962,"name":"bufferView_0","byteStride":12},{"buffer":0,"byteLength":144,"byteOffset":734240,"target":34962,"name":"bufferView_0","byteStride":8},{"buffer":0,"byteLength":7776,"byteOffset":734384,"target":34962,"name":"bufferView_0","byteStride":12},{"buffer":0,"byteLength":2592,"byteOffset":742160,"target":34962,"name":"bufferView_0","byteStride":8},{"buffer":0,"byteLength":8496,"byteOffset":744752,"target":34962,"name":"bufferView_0","byteStride":12},{"buffer":0,"byteLength":2832,"byteOffset":753248,"target":34962,"name":"bufferView_0","byteStride":8},{"buffer":0,"byteLength":8424,"byteOffset":756080,"target":34962,"name":"bufferView_0","byteStride":12},{"buffer":0,"byteLength":2808,"byteOffset":764504,"target":34962,"name":"bufferView_0","byteStride":8},{"buffer":0,"byteLength":7776,"byteOffset":767312,"target":34962,"name":"bufferView_0","byteStride":12},{"buffer":0,"byteLength":2592,"byteOffset":775088,"target":34962,"name":"bufferView_0","byteStride":8},{"buffer":0,"byteLength":8496,"byteOffset":777680,"target":34962,"name":"bufferView_0","byteStride":12},{"buffer":0,"byteLength":2832,"byteOffset":786176,"target":34962,"name":"bufferView_0","byteStride":8},{"buffer":0,"byteLength":8424,"byteOffset":789008,"target":34962,"name":"bufferView_0","byteStride":12},{"buffer":0,"byteLength":2808,"byteOffset":797432,"target":34962,"name":"bufferView_0","byteStride":8},{"buffer":0,"byteLength":3696,"byteOffset":800240,"target":34962,"name":"bufferView_0","byteStride":12},{"buffer":0,"byteLength":1232,"byteOffset":803936,"target":34962,"name":"bufferView_0","byteStride":8},{"buffer":0,"byteLength":3096,"byteOffset":805168,"target":34962,"name":"bufferView_0","byteStride":12},{"buffer":0,"byteLength":1032,"byteOffset":808264,"target":34962,"name":"bufferView_0","byteStride":8},{"buffer":0,"byteLength":3696,"byteOffset":809296,"target":34962,"name":"bufferView_0","byteStride":12},{"buffer":0,"byteLength":1232,"byteOffset":812992,"target":34962,"name":"bufferView_0","byteStride":8},{"buffer":0,"byteLength":3096,"byteOffset":814224,"target":34962,"name":"bufferView_0","byteStride":12},{"buffer":0,"byteLength":1032,"byteOffset":817320,"target":34962,"name":"bufferView_0","byteStride":8},{"buffer":0,"byteLength":1008,"byteOffset":818352,"target":34962,"name":"bufferView_0","byteStride":12},{"buffer":0,"byteLength":336,"byteOffset":819360,"target":34962,"name":"bufferView_0","byteStride":8},{"buffer":0,"byteLength":4032,"byteOffset":819696,"target":34962,"name":"bufferView_0","byteStride":12},{"buffer":0,"byteLength":1344,"byteOffset":823728,"target":34962,"name":"bufferView_0","byteStride":8},{"buffer":0,"byteLength":110446,"byteOffset":825072,"target":34963,"name":"bufferView_1"},{"buffer":1,"byteOffset":0,"byteLength":6156,"target":34962},{"buffer":1,"byteOffset":6156,"byteLength":6156,"target":34962},{"buffer":1,"byteOffset":12312,"byteLength":2304,"target":34962},{"buffer":1,"byteOffset":14616,"byteLength":2304,"target":34962},{"buffer":1,"byteOffset":16920,"byteLength":1536,"target":34962}],"buffers":[{"byteLength":1045952,"extras":{},"name":"binary_glTF","uri":"../a319-v1-0.bin"},{"uri":"a319-tail-v1.bin","byteLength":18456}],"images":[{"name":"image1","extras":{},"bufferView":14,"mimeType":"image/jpeg"},{"uri":"../../../airlines/DAL.png"}],"materials":[{"name":"CockpitFrame","doubleSided":true,"pbrMetallicRoughness":{"roughnessFactor":1,"metallicFactor":0,"baseColorFactor":[0.2603565055070532,0.2603565055070532,0.2603565055070532,1]}},{"name":"DefaultWhite","doubleSided":true,"pbrMetallicRoughness":{"roughnessFactor":1,"metallicFactor":0,"baseColorTexture":{"index":0}}},{"name":"DefaultWhite_002","doubleSided":true,"pbrMetallicRoughness":{"roughnessFactor":1,"metallicFactor":0,"baseColorFactor":[0.6038273590607633,0.6038273590607633,0.6038273590607633,1]}},{"name":"DefaultWhite_004","pbrMetallicRoughness":{"roughnessFactor":1,"metallicFactor":0,"baseColorTexture":{"index":0}}},{"name":"DefaultWhite_005","doubleSided":true,"pbrMetallicRoughness":{"roughnessFactor":1,"metallicFactor":0,"baseColorFactor":[0.6038273590607633,0.6038273590607633,0.6038273590607633,1]}},{"name":"DefaultWhite_006","pbrMetallicRoughness":{"roughnessFactor":1,"metallicFactor":0,"baseColorTexture":{"index":0}}},{"name":"DefaultWhite_007","pbrMetallicRoughness":{"roughnessFactor":1,"metallicFactor":0,"baseColorTexture":{"index":0}}},{"name":"DefaultWhite_008","doubleSided":true,"pbrMetallicRoughness":{"roughnessFactor":1,"metallicFactor":0,"baseColorFactor":[0.6038273590607633,0.6038273590607633,0.6038273590607633,1]}},{"name":"DefaultWhite_009","pbrMetallicRoughness":{"roughnessFactor":1,"metallicFactor":0,"baseColorTexture":{"index":0}}},{"name":"DefaultWhite_010","doubleSided":true,"pbrMetallicRoughness":{"roughnessFactor":1,"metallicFactor":0,"baseColorFactor":[0.6038273590607633,0.6038273590607633,0.6038273590607633,1]}},{"name":"DefaultWhite_011","pbrMetallicRoughness":{"roughnessFactor":1,"metallicFactor":0,"baseColorTexture":{"index":0}}},{"name":"DoorInterior","doubleSided":true,"pbrMetallicRoughness":{"roughnessFactor":1,"metallicFactor":0,"baseColorFactor":[0.022866111412981064,0.022866111412981064,0.022866111412981064,1]}},{"name":"Glass","alphaMode":"BLEND","doubleSided":true,"pbrMetallicRoughness":{"roughnessFactor":1,"metallicFactor":0,"baseColorFactor":[0.36724645006859014,0.36724645006859014,0.36724645006859014,1]}},{"name":"Glass","alphaMode":"BLEND","doubleSided":true,"pbrMetallicRoughness":{"roughnessFactor":1,"metallicFactor":0,"baseColorFactor":[0.36724645006859014,0.36724645006859014,0.36724645006859014,1]}},{"name":"IntakeInterior","pbrMetallicRoughness":{"roughnessFactor":1,"metallicFactor":0,"baseColorFactor":[0.24468416949706098,0.24468416949706098,0.24468416949706098,1]}},{"name":"IntakeInterior_001","pbrMetallicRoughness":{"roughnessFactor":1,"metallicFactor":0,"baseColorFactor":[0.24468416949706098,0.24468416949706098,0.24468416949706098,1]}},{"name":"Nozzle","pbrMetallicRoughness":{"roughnessFactor":1,"metallicFactor":0,"baseColorFactor":[0.6038273590607633,0.6038273590607633,0.6038273590607633,1]}},{"name":"Nozzle_001","pbrMetallicRoughness":{"roughnessFactor":1,"metallicFactor":0,"baseColorFactor":[0.6038273590607633,0.6038273590607633,0.6038273590607633,1]}},{"name":"Pylon","doubleSided":true,"pbrMetallicRoughness":{"roughnessFactor":1,"metallicFactor":0,"baseColorFactor":[0.2302963787266814,0.2302963787266814,0.2302963787266814,1]}},{"name":"Pylon_001","doubleSided":true,"pbrMetallicRoughness":{"roughnessFactor":1,"metallicFactor":0,"baseColorFactor":[0.2302963787266814,0.2302963787266814,0.2302963787266814,1]}},{"name":"aluminum","pbrMetallicRoughness":{"roughnessFactor":1,"metallicFactor":0,"baseColorFactor":[0.04821866009990484,0.05321053450733547,0.058491969679291836,1]}},{"name":"aluminum_001","pbrMetallicRoughness":{"roughnessFactor":1,"metallicFactor":0,"baseColorFactor":[0.04821866009990484,0.05321053450733547,0.058491969679291836,1]}},{"name":"black","pbrMetallicRoughness":{"roughnessFactor":1,"metallicFactor":0,"baseColorFactor":[0.006391944171445817,0.006391944171445817,0.006391944171445817,1]}},{"name":"black_001","pbrMetallicRoughness":{"roughnessFactor":1,"metallicFactor":0,"baseColorFactor":[0.006391944171445817,0.006391944171445817,0.006391944171445817,1]}},{"name":"grey","doubleSided":true,"pbrMetallicRoughness":{"roughnessFactor":1,"metallicFactor":0,"baseColorFactor":[0.016435930611271916,0.016435930611271916,0.016435930611271916,1]}},{"name":"grey_001","doubleSided":true,"pbrMetallicRoughness":{"roughnessFactor":1,"metallicFactor":0,"baseColorFactor":[0.016435930611271916,0.016435930611271916,0.016435930611271916,1]}},{"name":"material2","pbrMetallicRoughness":{"roughnessFactor":1,"metallicFactor":0,"baseColorFactor":[0,0,0,1]}},{"name":"material3","pbrMetallicRoughness":{"roughnessFactor":1,"metallicFactor":0,"baseColorFactor":[0,0,0,1]}},{"name":"material4","pbrMetallicRoughness":{"roughnessFactor":1,"metallicFactor":0,"baseColorFactor":[0,0,0,1]}},{"name":"material5","pbrMetallicRoughness":{"roughnessFactor":1,"metallicFactor":0,"baseColorFactor":[0,0,0,1]}},{"name":"white","pbrMetallicRoughness":{"roughnessFactor":1,"metallicFactor":0,"baseColorFactor":[0.32397645079923604,0.32397645079923604,0.32397645079923604,1]}},{"name":"white_001","pbrMetallicRoughness":{"roughnessFactor":1,"metallicFactor":0,"baseColorFactor":[0.32397645079923604,0.32397645079923604,0.32397645079923604,1]}},{"name":"Operator tail paint","doubleSided":true,"pbrMetallicRoughness":{"baseColorFactor":[0.7176470588235294,0.10588235294117647,0.2235294117647059,1],"metallicFactor":0,"roughnessFactor":0.65}},{"name":"Operator logo identification","doubleSided":true,"alphaMode":"BLEND","pbrMetallicRoughness":{"baseColorTexture":{"index":1},"metallicFactor":0,"roughnessFactor":0.7},"emissiveFactor":[0.18,0.18,0.18],"emissiveTexture":{"index":1}}],"meshes":[{"name":"Cube_004","primitives":[{"attributes":{"NORMAL":123,"POSITION":122},"indices":121,"material":30,"mode":4}]},{"name":"Cube_000","primitives":[{"attributes":{"NORMAL":123,"POSITION":122},"indices":121,"material":31,"mode":4}]},{"name":"EngineR","primitives":[{"attributes":{"NORMAL":109,"POSITION":108,"TEXCOORD_0":110},"indices":107,"material":10,"mode":4}]},{"name":"Intake_001","primitives":[{"attributes":{"NORMAL":116,"POSITION":115,"TEXCOORD_0":117},"indices":114,"material":10,"mode":4}]},{"name":"IntakeInterior","primitives":[{"attributes":{"NORMAL":86,"POSITION":82},"indices":80,"material":14,"mode":4}]},{"name":"Intake","primitives":[{"attributes":{"NORMAL":116,"POSITION":115,"TEXCOORD_0":117},"indices":114,"material":8,"mode":4}]},{"name":"EngineL","primitives":[{"attributes":{"NORMAL":109,"POSITION":108,"TEXCOORD_0":110},"indices":107,"material":8,"mode":4}]},{"name":"IntakeInterior_001","primitives":[{"attributes":{"NORMAL":86,"POSITION":82},"indices":80,"material":15,"mode":4}]},{"name":"Nacelle","primitives":[{"attributes":{"NORMAL":48,"POSITION":44,"TEXCOORD_0":52},"indices":43,"material":8,"mode":4}]},{"name":"Nacelle_001","primitives":[{"attributes":{"NORMAL":48,"POSITION":44,"TEXCOORD_0":52},"indices":43,"material":10,"mode":4}]},{"name":"Nozzle","primitives":[{"attributes":{"NORMAL":10,"POSITION":6},"indices":4,"material":16,"mode":4}]},{"name":"Nozzle_001","primitives":[{"attributes":{"NORMAL":10,"POSITION":6},"indices":4,"material":17,"mode":4}]},{"name":"Plane","primitives":[{"attributes":{"NORMAL":120,"POSITION":119},"indices":118,"material":30,"mode":4}]},{"name":"Plane_001","primitives":[{"attributes":{"NORMAL":120,"POSITION":119},"indices":118,"material":31,"mode":4}]},{"name":"Core","primitives":[{"attributes":{"NORMAL":113,"POSITION":112},"indices":111,"material":7,"mode":4}]},{"name":"Core_001","primitives":[{"attributes":{"NORMAL":113,"POSITION":112},"indices":111,"material":9,"mode":4}]},{"name":"blades","primitives":[{"attributes":{"NORMAL":126,"POSITION":125},"indices":124,"material":24,"mode":4}]},{"name":"blades_001","primitives":[{"attributes":{"NORMAL":126,"POSITION":125},"indices":124,"material":25,"mode":4}]},{"name":"casing","primitives":[{"attributes":{"NORMAL":129,"POSITION":128},"indices":127,"material":20,"mode":4}]},{"name":"casing_001","primitives":[{"attributes":{"NORMAL":129,"POSITION":128},"indices":127,"material":21,"mode":4}]},{"name":"cone2","primitives":[{"attributes":{"NORMAL":136,"POSITION":135},"indices":134,"material":20,"mode":4}]},{"name":"cone2_001","primitives":[{"attributes":{"NORMAL":136,"POSITION":135},"indices":134,"material":21,"mode":4}]},{"name":"cone","primitives":[{"attributes":{"NORMAL":133,"POSITION":132},"indices":130,"material":30,"mode":4},{"attributes":{"NORMAL":133,"POSITION":132},"indices":131,"material":22,"mode":4}]},{"name":"cone_001","primitives":[{"attributes":{"NORMAL":133,"POSITION":132},"indices":130,"material":31,"mode":4},{"attributes":{"NORMAL":133,"POSITION":132},"indices":131,"material":23,"mode":4}]},{"name":"exhaust","primitives":[{"attributes":{"NORMAL":139,"POSITION":138},"indices":137,"material":20,"mode":4}]},{"name":"exhaust_001","primitives":[{"attributes":{"NORMAL":139,"POSITION":138},"indices":137,"material":21,"mode":4}]},{"name":"fanWheel","primitives":[{"attributes":{"NORMAL":142,"POSITION":141},"indices":140,"material":24,"mode":4}]},{"name":"fanWheel_001","primitives":[{"attributes":{"NORMAL":142,"POSITION":141},"indices":140,"material":25,"mode":4}]},{"name":"shroud","primitives":[{"attributes":{"NORMAL":145,"POSITION":144},"indices":143,"material":24,"mode":4}]},{"name":"shroud_001","primitives":[{"attributes":{"NORMAL":145,"POSITION":144},"indices":143,"material":25,"mode":4}]},{"name":"rootNode_mesh","primitives":[{"attributes":{"NORMAL":245,"POSITION":244},"indices":243,"material":19,"mode":4},{"attributes":{"NORMAL":74,"POSITION":73,"TEXCOORD_0":75},"indices":72,"material":3,"mode":4},{"attributes":{"NORMAL":70,"POSITION":69,"TEXCOORD_0":71},"indices":35,"material":3,"mode":4},{"attributes":{"NORMAL":67,"POSITION":66,"TEXCOORD_0":68},"indices":39,"material":3,"mode":4},{"attributes":{"NORMAL":64,"POSITION":63,"TEXCOORD_0":65},"indices":39,"material":3,"mode":4},{"attributes":{"NORMAL":61,"POSITION":60,"TEXCOORD_0":62},"indices":39,"material":3,"mode":4},{"attributes":{"NORMAL":58,"POSITION":57,"TEXCOORD_0":59},"indices":56,"material":3,"mode":4},{"attributes":{"NORMAL":54,"POSITION":53,"TEXCOORD_0":55},"indices":35,"material":3,"mode":4},{"attributes":{"NORMAL":50,"POSITION":49,"TEXCOORD_0":51},"indices":39,"material":3,"mode":4},{"attributes":{"NORMAL":46,"POSITION":45,"TEXCOORD_0":47},"indices":39,"material":3,"mode":4},{"attributes":{"NORMAL":41,"POSITION":40,"TEXCOORD_0":42},"indices":39,"material":3,"mode":4},{"attributes":{"NORMAL":37,"POSITION":36,"TEXCOORD_0":38},"indices":35,"material":3,"mode":4},{"attributes":{"NORMAL":33,"POSITION":32,"TEXCOORD_0":34},"indices":15,"material":3,"mode":4},{"attributes":{"NORMAL":30,"POSITION":29,"TEXCOORD_0":31},"indices":11,"material":3,"mode":4},{"attributes":{"NORMAL":27,"POSITION":26,"TEXCOORD_0":28},"indices":5,"material":3,"mode":4},{"attributes":{"NORMAL":24,"POSITION":23,"TEXCOORD_0":25},"indices":0,"material":3,"mode":4},{"attributes":{"NORMAL":21,"POSITION":20,"TEXCOORD_0":22},"indices":19,"material":3,"mode":4},{"attributes":{"NORMAL":17,"POSITION":16,"TEXCOORD_0":18},"indices":15,"material":3,"mode":4},{"attributes":{"NORMAL":13,"POSITION":12,"TEXCOORD_0":14},"indices":11,"material":3,"mode":4},{"attributes":{"NORMAL":8,"POSITION":7,"TEXCOORD_0":9},"indices":5,"material":3,"mode":4},{"attributes":{"NORMAL":2,"POSITION":1,"TEXCOORD_0":3},"indices":0,"material":3,"mode":4},{"attributes":{"NORMAL":307,"POSITION":306,"TEXCOORD_0":308},"indices":19,"material":3,"mode":4},{"attributes":{"NORMAL":304,"POSITION":303,"TEXCOORD_0":305},"indices":302,"material":3,"mode":4},{"attributes":{"NORMAL":300,"POSITION":299,"TEXCOORD_0":301},"indices":130,"material":3,"mode":4},{"attributes":{"NORMAL":297,"POSITION":296},"indices":264,"material":29,"mode":1},{"attributes":{"NORMAL":297,"POSITION":296,"TEXCOORD_0":298},"indices":289,"material":3,"mode":4},{"attributes":{"NORMAL":294,"POSITION":293,"TEXCOORD_0":295},"indices":130,"material":3,"mode":4},{"attributes":{"NORMAL":291,"POSITION":290},"indices":264,"material":28,"mode":1},{"attributes":{"NORMAL":291,"POSITION":290,"TEXCOORD_0":292},"indices":289,"material":3,"mode":4},{"attributes":{"NORMAL":287,"POSITION":286,"TEXCOORD_0":288},"indices":285,"material":3,"mode":4},{"attributes":{"NORMAL":283,"POSITION":282,"TEXCOORD_0":284},"indices":281,"material":3,"mode":4},{"attributes":{"NORMAL":279,"POSITION":278},"indices":264,"material":27,"mode":1},{"attributes":{"NORMAL":279,"POSITION":278,"TEXCOORD_0":280},"indices":277,"material":3,"mode":4},{"attributes":{"NORMAL":275,"POSITION":274,"TEXCOORD_0":276},"indices":273,"material":3,"mode":4},{"attributes":{"NORMAL":271,"POSITION":270,"TEXCOORD_0":272},"indices":269,"material":3,"mode":4},{"attributes":{"NORMAL":267,"POSITION":266},"indices":264,"material":26,"mode":1},{"attributes":{"NORMAL":267,"POSITION":266,"TEXCOORD_0":268},"indices":265,"material":3,"mode":4},{"attributes":{"NORMAL":262,"POSITION":261,"TEXCOORD_0":263},"indices":257,"material":3,"mode":4},{"attributes":{"NORMAL":259,"POSITION":258,"TEXCOORD_0":260},"indices":257,"material":3,"mode":4},{"attributes":{"NORMAL":255,"POSITION":254,"TEXCOORD_0":256},"indices":253,"material":3,"mode":4},{"attributes":{"NORMAL":251,"POSITION":250,"TEXCOORD_0":252},"indices":249,"material":3,"mode":4},{"attributes":{"NORMAL":248,"POSITION":247},"indices":246,"material":4,"mode":4},{"attributes":{"NORMAL":97,"POSITION":96,"TEXCOORD_0":98},"indices":95,"material":5,"mode":4},{"attributes":{"NORMAL":93,"POSITION":92,"TEXCOORD_0":94},"indices":91,"material":5,"mode":4},{"attributes":{"NORMAL":89,"POSITION":88,"TEXCOORD_0":90},"indices":87,"material":5,"mode":4},{"attributes":{"NORMAL":84,"POSITION":83,"TEXCOORD_0":85},"indices":81,"material":5,"mode":4},{"attributes":{"NORMAL":78,"POSITION":77,"TEXCOORD_0":79},"indices":76,"material":5,"mode":4},{"attributes":{"NORMAL":105,"POSITION":104,"TEXCOORD_0":106},"indices":103,"material":6,"mode":4},{"attributes":{"NORMAL":101,"POSITION":100,"TEXCOORD_0":102},"indices":99,"material":6,"mode":4},{"attributes":{"NORMAL":148,"POSITION":147},"indices":146,"material":18,"mode":4},{"attributes":{"NORMAL":242,"POSITION":241},"indices":240,"material":2,"mode":4},{"attributes":{"NORMAL":239,"POSITION":238},"indices":237,"material":13,"mode":4},{"attributes":{"NORMAL":235,"POSITION":234,"TEXCOORD_0":236},"indices":233,"material":1,"mode":4},{"attributes":{"NORMAL":231,"POSITION":230,"TEXCOORD_0":232},"indices":229,"material":1,"mode":4},{"attributes":{"NORMAL":227,"POSITION":226,"TEXCOORD_0":228},"indices":225,"material":1,"mode":4},{"attributes":{"NORMAL":223,"POSITION":222,"TEXCOORD_0":224},"indices":221,"material":1,"mode":4},{"attributes":{"NORMAL":219,"POSITION":218,"TEXCOORD_0":220},"indices":217,"material":1,"mode":4},{"attributes":{"NORMAL":215,"POSITION":214,"TEXCOORD_0":216},"indices":213,"material":1,"mode":4},{"attributes":{"NORMAL":211,"POSITION":210,"TEXCOORD_0":212},"indices":209,"material":1,"mode":4},{"attributes":{"NORMAL":207,"POSITION":206,"TEXCOORD_0":208},"indices":205,"material":1,"mode":4},{"attributes":{"NORMAL":203,"POSITION":202,"TEXCOORD_0":204},"indices":201,"material":1,"mode":4},{"attributes":{"NORMAL":199,"POSITION":198,"TEXCOORD_0":200},"indices":197,"material":1,"mode":4},{"attributes":{"NORMAL":195,"POSITION":194,"TEXCOORD_0":196},"indices":193,"material":1,"mode":4},{"attributes":{"NORMAL":191,"POSITION":190,"TEXCOORD_0":192},"indices":189,"material":1,"mode":4},{"attributes":{"NORMAL":187,"POSITION":186,"TEXCOORD_0":188},"indices":185,"material":1,"mode":4},{"attributes":{"NORMAL":184,"POSITION":183},"indices":182,"material":11,"mode":4},{"attributes":{"NORMAL":180,"POSITION":179,"TEXCOORD_0":181},"indices":178,"material":1,"mode":4},{"attributes":{"NORMAL":177,"POSITION":176},"indices":175,"material":11,"mode":4},{"attributes":{"NORMAL":173,"POSITION":172,"TEXCOORD_0":174},"indices":171,"material":1,"mode":4},{"attributes":{"NORMAL":161,"POSITION":160,"TEXCOORD_0":162},"indices":159,"material":1,"mode":4},{"attributes":{"NORMAL":165,"POSITION":164,"TEXCOORD_0":166},"indices":163,"material":1,"mode":4},{"attributes":{"NORMAL":169,"POSITION":168,"TEXCOORD_0":170},"indices":167,"material":1,"mode":4},{"attributes":{"NORMAL":157,"POSITION":156,"TEXCOORD_0":158},"indices":155,"material":1,"mode":4},{"attributes":{"NORMAL":151,"POSITION":150},"indices":149,"material":0,"mode":4},{"attributes":{"NORMAL":154,"POSITION":153},"indices":152,"material":12,"mode":4}]},{"name":"Airline tail surface overlay","primitives":[{"attributes":{"POSITION":309,"NORMAL":310},"material":32},{"attributes":{"POSITION":311,"NORMAL":312,"TEXCOORD_0":313},"material":33}]}],"nodes":[{"matrix":[1,3.5e-15,0,0,-1.58932991e-8,1,0,0,0,0,1,0,4.7683698759999997e-7,4.7683698759999997e-7,0,1],"name":"Core","mesh":14},{"matrix":[1,-3.5e-15,-2e-16,0,-1.58932991e-8,1,0,0,0,0,1,0,0,0,0,1],"name":"Core_001","mesh":15},{"matrix":[1,-3.5e-15,-2e-16,0,-1.58932991e-8,1,0,0,0,0,1,0,0.3264909982681274,0,0.010532000102,1],"name":"Cube_000","mesh":1},{"matrix":[1,3.5e-15,0,0,-1.58932991e-8,1,0,0,0,0,1,0,0.32649201154708857,4.7683698759999997e-7,0.010532000102,1],"name":"Cube_004","mesh":0},{"children":[28,26,24,21,20,18,16,3,14,6,7,10,12,0],"matrix":[-4.3711398899999997e-8,0,1,0,1,0,4.3711398899999997e-8,0,0,1,0,0,-6.31689977645874,0.5106399655342102,-4.033479690551759,1],"name":"EngineL","mesh":6},{"children":[17,19,23,22,1,2,25,27,9,8,11,13,15,29],"matrix":[-4.3711398899999997e-8,0,1,0,1,0,4.3711398899999997e-8,0,0,1,0,0,6.268489837646484,0.48068401217460627,-4.17878007888794,1],"name":"EngineR","mesh":2},{"matrix":[1,3.5e-15,0,0,-1.58932991e-8,1,0,0,0,0,1,0,4.7683698759999997e-7,4.7683698759999997e-7,0,1],"name":"Intake","mesh":5},{"matrix":[1,3.5e-15,0,0,-1.58932991e-8,1,0,0,0,0,1,0,4.7683698759999997e-7,4.7683698759999997e-7,0,1],"name":"IntakeInterior","mesh":4},{"matrix":[1,-3.5e-15,-2e-16,0,-1.58932991e-8,1,0,0,0,0,1,0,0,0,0,1],"name":"IntakeInterior_001","mesh":7},{"matrix":[1,-3.5e-15,-2e-16,0,-1.58932991e-8,1,0,0,0,0,1,0,0,0,0,1],"name":"Intake_001","mesh":3},{"matrix":[1,3.5e-15,0,0,-1.58932991e-8,1,0,0,0,0,1,0,4.7683698759999997e-7,4.7683698759999997e-7,0,1],"name":"Nacelle","mesh":8},{"matrix":[1,-3.5e-15,-2e-16,0,-1.58932991e-8,1,0,0,0,0,1,0,0,0,0,1],"name":"Nacelle_001","mesh":9},{"matrix":[1,3.5e-15,0,0,-1.58932991e-8,1,0,0,0,0,1,0,4.7683698759999997e-7,4.7683698759999997e-7,0,1],"name":"Nozzle","mesh":10},{"matrix":[1,-3.5e-15,-2e-16,0,-1.58932991e-8,1,0,0,0,0,1,0,0,0,0,1],"name":"Nozzle_001","mesh":11},{"matrix":[1,3.5e-15,0,0,-1.58932991e-8,1,0,0,0,0,1,0,0.32649201154708857,4.7683698759999997e-7,0.010532000102,1],"name":"Plane","mesh":12},{"matrix":[1,-3.5e-15,-2e-16,0,-1.58932991e-8,1,0,0,0,0,1,0,0.3264909982681274,0,0.010532000102,1],"name":"Plane_001","mesh":13},{"matrix":[1,3.5e-15,0,0,-1.58932991e-8,1,0,0,0,0,1,0,0.32649201154708857,4.7683698759999997e-7,0.010532000102,1],"name":"blades","mesh":16},{"matrix":[1,-3.5e-15,-2e-16,0,-1.58932991e-8,1,0,0,0,0,1,0,0.3264909982681274,0,0.010532000102,1],"name":"blades_001","mesh":17},{"matrix":[1,3.5e-15,0,0,-1.58932991e-8,1,0,0,0,0,1,0,0.32649201154708857,4.7683698759999997e-7,0.010532000102,1],"name":"casing","mesh":18},{"matrix":[1,-3.5e-15,-2e-16,0,-1.58932991e-8,1,0,0,0,0,1,0,0.3264909982681274,0,0.010532000102,1],"name":"casing_001","mesh":19},{"matrix":[1,3.5e-15,0,0,-1.58932991e-8,1,0,0,0,0,1,0,0.32649201154708857,4.7683698759999997e-7,0.010532000102,1],"name":"cone","mesh":22},{"matrix":[1,3.5e-15,0,0,-1.58932991e-8,1,0,0,0,0,1,0,0.32649201154708857,4.7683698759999997e-7,0.010532000102,1],"name":"cone2","mesh":20},{"matrix":[1,-3.5e-15,-2e-16,0,-1.58932991e-8,1,0,0,0,0,1,0,0.3264909982681274,0,0.010532000102,1],"name":"cone2_001","mesh":21},{"matrix":[1,-3.5e-15,-2e-16,0,-1.58932991e-8,1,0,0,0,0,1,0,0.3264909982681274,0,0.010532000102,1],"name":"cone_001","mesh":23},{"matrix":[1,3.5e-15,0,0,-1.58932991e-8,1,0,0,0,0,1,0,0.32649201154708857,4.7683698759999997e-7,0.010532000102,1],"name":"exhaust","mesh":24},{"matrix":[1,-3.5e-15,-2e-16,0,-1.58932991e-8,1,0,0,0,0,1,0,0.3264909982681274,0,0.010532000102,1],"name":"exhaust_001","mesh":25},{"matrix":[1,3.5e-15,0,0,-1.58932991e-8,1,0,0,0,0,1,0,0.32649201154708857,4.7683698759999997e-7,0.010532000102,1],"name":"fanWheel","mesh":26},{"matrix":[1,-3.5e-15,-2e-16,0,-1.58932991e-8,1,0,0,0,0,1,0,0.3264909982681274,0,0.010532000102,1],"name":"fanWheel_001","mesh":27},{"matrix":[1,3.5e-15,0,0,-1.58932991e-8,1,0,0,0,0,1,0,0.32649201154708857,4.7683698759999997e-7,0.010532000102,1],"name":"shroud","mesh":28},{"matrix":[1,-3.5e-15,-2e-16,0,-1.58932991e-8,1,0,0,0,0,1,0,0.3264909982681274,0,0.010532000102,1],"name":"shroud_001","mesh":29},{"children":[5,4],"matrix":[1,0,0,0,0,1,0,0,0,0,1,0,0,0,0,1],"name":"rootNode","mesh":30},{"name":"SkywardCoordinateAlignment","matrix":[-1,0,-1.2246467991473532e-16,0,0,1,0,0,1.2246467991473532e-16,0,-1,0,-0.023508071899414354,0,2.372255325317383,1],"children":[30]},{"name":"AirlineTailBranding","mesh":31}],"samplers":[{"magFilter":9729,"minFilter":9729,"wrapS":10497,"wrapT":10497,"name":"sampler_0"},{"magFilter":9729,"minFilter":9987,"wrapS":33071,"wrapT":33071}],"scene":0,"scenes":[{"nodes":[31,32],"name":"defaultScene"}],"textures":[{"sampler":0,"source":0,"name":"texture_image1"},{"source":1,"sampler":1}],"extras":{"skyward":{"source":"https://github.com/Flightradar24/fr24-3d-models","commit":"dd53267690c6a4ecbb290a3acf0284333a5d68a9","changes":"Converted legacy glTF to glTF 2.0 with Cesium; rigid axis alignment and horizontal centering only. Original geometry, materials and paint retained. Added surface-following operator tail paint and unmodified identification-logo texture. Branding is illustrative, not a registration-specific livery.","license":"GPL-2.0","sourceFiles":["source/a319/a319.blend","source/a319/a319.zip"],"operator":"DAL"}}}