{"accessors":[{"bufferView":66,"byteOffset":0,"componentType":5123,"count":4728,"type":"SCALAR","min":[0],"max":[1634],"name":"accessor_102"},{"bufferView":10,"byteOffset":0,"componentType":5126,"count":1635,"max":[0.15360602736473083,1.1924949884414673,-1.1295650005340576],"min":[-0.5357400178909302,0.7372492551803589,-2.2084360122680664],"type":"VEC3","name":"accessor_104"},{"bufferView":10,"byteOffset":19620,"componentType":5126,"count":1635,"max":[0.9998059868812561,0.9956629872322083,0.9965029954910278],"min":[-0.9999470114707947,-0.9956640005111694,-0.9998070001602173],"type":"VEC3","name":"accessor_106"},{"bufferView":11,"byteOffset":0,"componentType":5126,"count":1635,"max":[0.7684379816055298,0.27034199237823486],"min":[0.23184999823570251,0.005998015403747559],"type":"VEC2","name":"accessor_108"},{"bufferView":66,"byteOffset":9456,"componentType":5123,"count":618,"type":"SCALAR","min":[0],"max":[159],"name":"accessor_129"},{"bufferView":12,"byteOffset":0,"componentType":5126,"count":160,"max":[-0.18674220144748688,0.449156790971756,-3.8661699295043945],"min":[-0.19539178907871246,0.4405072033405304,-3.9784648418426514],"type":"VEC3","name":"accessor_131"},{"bufferView":12,"byteOffset":1920,"componentType":5126,"count":160,"max":[1,1,4.3711398944878965e-8],"min":[-1,-1,-1],"type":"VEC3","name":"accessor_133"},{"bufferView":66,"byteOffset":10692,"componentType":5123,"count":3564,"type":"SCALAR","min":[0],"max":[1080],"name":"accessor_156"},{"bufferView":12,"byteOffset":3840,"componentType":5126,"count":1081,"max":[1.3194719552993774,2.033717155456543,4.207246780395508],"min":[-1.7016080617904663,1.9823936223983765,3.9709858894348145],"type":"VEC3","name":"accessor_158"},{"bufferView":12,"byteOffset":16812,"componentType":5126,"count":1081,"max":[1,0.9953099489212036,0.8355860114097595],"min":[-1,-0.9998769760131836,-0.9215179681777954],"type":"VEC3","name":"accessor_160"},{"bufferView":66,"byteOffset":17820,"componentType":5123,"count":6348,"type":"SCALAR","min":[0],"max":[1470],"name":"accessor_183"},{"bufferView":12,"byteOffset":29784,"componentType":5126,"count":1471,"max":[0.1587730050086975,1.189932942390442,3.9773802757263184],"min":[-0.5409069657325745,0.16866594552993774,-3.9927000999450684],"type":"VEC3","name":"accessor_185"},{"bufferView":12,"byteOffset":47436,"componentType":5126,"count":1471,"max":[1,1,0.9992679953575134],"min":[-1,-1,-1],"type":"VEC3","name":"accessor_187"},{"bufferView":13,"byteOffset":0,"componentType":5126,"count":1471,"max":[0.9869699478149414,0.5203460454940796],"min":[0.008518990129232407,0.0035939812660217285],"type":"VEC2","name":"accessor_189"},{"bufferView":66,"byteOffset":30516,"componentType":5123,"count":156,"type":"SCALAR","min":[0],"max":[67],"name":"accessor_21"},{"bufferView":66,"byteOffset":30828,"componentType":5123,"count":672,"type":"SCALAR","min":[0],"max":[135],"name":"accessor_210"},{"bufferView":14,"byteOffset":0,"componentType":5126,"count":136,"max":[-0.11442504823207855,0.26478299498558044,-2.851140022277832],"min":[-0.2677086591720581,0.17120100557804108,-3.287099838256836],"type":"VEC3","name":"accessor_212"},{"bufferView":14,"byteOffset":1632,"componentType":5126,"count":136,"max":[0.8892040252685547,-0.45451000332832336,0.5370489954948425],"min":[-0.8892030119895935,-0.9265339970588684,-0.830955982208252],"type":"VEC3","name":"accessor_214"},{"bufferView":15,"byteOffset":0,"componentType":5126,"count":136,"max":[0.0308499988168478,0.7132660150527954],"min":[0.017467999830842018,0.5256370306015015],"type":"VEC2","name":"accessor_216"},{"bufferView":16,"byteOffset":0,"componentType":5126,"count":68,"max":[-5.348841667175293,1.3067619800567627,-0.47108620405197144],"min":[-8.132291793823242,1.0340080261230469,-1.038110375404358],"type":"VEC3","name":"accessor_23"},{"bufferView":66,"byteOffset":32172,"componentType":5123,"count":864,"type":"SCALAR","min":[0],"max":[179],"name":"accessor_237"},{"bufferView":16,"byteOffset":816,"componentType":5126,"count":180,"max":[-0.013329938054084778,0.4679070711135864,-0.17006798088550568],"min":[-0.3688039779663086,0.1215110570192337,-1.4343888759613037],"type":"VEC3","name":"accessor_239"},{"bufferView":16,"byteOffset":2976,"componentType":5126,"count":180,"max":[0.9855390191078186,-0.1636510044336319,0.6331989765167236],"min":[-0.9855470061302185,-0.9567779898643494,-0.4646899998188019],"type":"VEC3","name":"accessor_241"},{"bufferView":17,"byteOffset":0,"componentType":5126,"count":180,"max":[0.5743910074234009,0.972307026386261],"min":[0.5316190123558044,0.5387250185012817],"type":"VEC2","name":"accessor_243"},{"bufferView":18,"byteOffset":0,"componentType":5126,"count":68,"max":[0.9999989867210388,1,0.6300309896469116],"min":[-1,-0.996895968914032,-0.93196702003479],"type":"VEC3","name":"accessor_25"},{"bufferView":66,"byteOffset":33900,"componentType":5123,"count":672,"type":"SCALAR","min":[0],"max":[135],"name":"accessor_264"},{"bufferView":18,"byteOffset":816,"componentType":5126,"count":136,"max":[-0.14069834351539612,0.6583960652351379,3.9643309116363525],"min":[-0.2414347529411316,0.5753880739212036,3.5618507862091064],"type":"VEC3","name":"accessor_266"},{"bufferView":18,"byteOffset":2448,"componentType":5126,"count":136,"max":[0.961089015007019,-0.21467700600624084,0.9051250219345093],"min":[-0.9610909819602966,-0.9556210041046143,-0.32414600253105164],"type":"VEC3","name":"accessor_268"},{"bufferView":19,"byteOffset":0,"componentType":5126,"count":68,"max":[0.4743970036506653,0.9336540102958679],"min":[0.22777199745178223,0.07125598192214966],"type":"VEC2","name":"accessor_27"},{"bufferView":19,"byteOffset":544,"componentType":5126,"count":136,"max":[0.029930900782346725,0.9340689778327942],"min":[0.014344999566674232,0.8025360107421875],"type":"VEC2","name":"accessor_270"},{"bufferView":66,"byteOffset":35244,"componentType":5123,"count":2118,"type":"SCALAR","min":[0],"max":[524],"name":"accessor_291"},{"bufferView":20,"byteOffset":0,"componentType":5126,"count":525,"max":[-0.12110324949026108,2.029129981994629,4.036207675933838],"min":[-0.25994443893432617,0.6958520412445068,2.9388279914855957],"type":"VEC3","name":"accessor_293"},{"bufferView":20,"byteOffset":6300,"componentType":5126,"count":525,"max":[0.9994289875030518,1,0.9703239798545837],"min":[-0.9995110034942627,-1,-0.9538379907608032],"type":"VEC3","name":"accessor_295"},{"bufferView":21,"byteOffset":0,"componentType":5126,"count":525,"max":[0.3773689866065979,0.9940540194511414],"min":[0.0984330028295517,0.5185779929161072],"type":"VEC2","name":"accessor_297"},{"bufferView":66,"byteOffset":39480,"componentType":5123,"count":708,"type":"SCALAR","min":[0],"max":[183],"name":"accessor_318"},{"bufferView":22,"byteOffset":0,"componentType":5126,"count":184,"max":[-0.14896996319293976,2.0491299629211426,4.332351207733154],"min":[-0.23316435515880585,0.6333330869674683,3.9497909545898438],"type":"VEC3","name":"accessor_320"},{"bufferView":22,"byteOffset":2208,"componentType":5126,"count":184,"max":[0.9981819987297058,1,0.21665699779987335],"min":[-0.9981819987297058,-1,-0.9342290163040161],"type":"VEC3","name":"accessor_322"},{"bufferView":23,"byteOffset":0,"componentType":5126,"count":184,"max":[0.4231959879398346,0.9894269704818726],"min":[0.3658429980278015,0.5321229696273804],"type":"VEC2","name":"accessor_324"},{"bufferView":66,"byteOffset":40896,"componentType":5123,"count":150,"type":"SCALAR","min":[0],"max":[68],"name":"accessor_345"},{"bufferView":24,"byteOffset":0,"componentType":5126,"count":69,"max":[-2.914076805114746,1.1169710159301758,-0.9211820960044861],"min":[-4.31676721572876,0.9144940376281738,-1.0371662378311157],"type":"VEC3","name":"accessor_347"},{"bufferView":24,"byteOffset":828,"componentType":5126,"count":69,"max":[1,0.9972259998321533,0.9993659853935242],"min":[-1,-0.9996560215950012,-0.9994279742240906],"type":"VEC3","name":"accessor_349"},{"bufferView":25,"byteOffset":0,"componentType":5126,"count":69,"max":[0.4208570122718811,0.4699519872665405],"min":[0.004830960184335709,0.0020869970321655273],"type":"VEC2","name":"accessor_351"},{"bufferView":66,"byteOffset":41196,"componentType":5123,"count":276,"type":"SCALAR","min":[0],"max":[103],"name":"accessor_372"},{"bufferView":26,"byteOffset":0,"componentType":5126,"count":104,"max":[-3.254009962081909,0.9791907072067261,-0.9425820112228394],"min":[-3.52420973777771,0.9168312549591064,-0.9766695499420166],"type":"VEC3","name":"accessor_374"},{"bufferView":26,"byteOffset":1248,"componentType":5126,"count":104,"max":[1,0.9872239828109741,1],"min":[-1,-0.9872239828109741,-1],"type":"VEC3","name":"accessor_376"},{"bufferView":27,"byteOffset":0,"componentType":5126,"count":104,"max":[0.019348999485373497,0.17633801698684692],"min":[0.011884000152349472,0.07825702428817749],"type":"VEC2","name":"accessor_378"},{"bufferView":66,"byteOffset":41748,"componentType":5123,"count":276,"type":"SCALAR","min":[0],"max":[103],"name":"accessor_399"},{"bufferView":28,"byteOffset":0,"componentType":5126,"count":104,"max":[-3.9417600631713867,1.0262658596038818,-0.9673960208892822],"min":[-4.2119598388671875,0.9639042019844055,-1.0014835596084595],"type":"VEC3","name":"accessor_401"},{"bufferView":28,"byteOffset":1248,"componentType":5126,"count":104,"max":[1,0.9872229695320129,1],"min":[-1,-0.9872229695320129,-1],"type":"VEC3","name":"accessor_403"},{"bufferView":29,"byteOffset":0,"componentType":5126,"count":104,"max":[0.019348999485373497,0.17633801698684692],"min":[0.011884000152349472,0.07825702428817749],"type":"VEC2","name":"accessor_405"},{"bufferView":66,"byteOffset":42300,"componentType":5123,"count":150,"type":"SCALAR","min":[0],"max":[68],"name":"accessor_426"},{"bufferView":30,"byteOffset":0,"componentType":5126,"count":69,"max":[3.9346330165863037,1.1169710159301758,-0.921181857585907],"min":[2.531942844390869,0.9144940376281738,-1.0371657609939575],"type":"VEC3","name":"accessor_428"},{"bufferView":30,"byteOffset":828,"componentType":5126,"count":69,"max":[1,0.9972259998321533,0.9993659853935242],"min":[-1,-0.9996560215950012,-0.9994279742240906],"type":"VEC3","name":"accessor_430"},{"bufferView":31,"byteOffset":0,"componentType":5126,"count":69,"max":[0.6681659817695618,0.4699519872665405],"min":[0.004830960184335709,0.0020869970321655273],"type":"VEC2","name":"accessor_432"},{"bufferView":66,"byteOffset":42600,"componentType":5123,"count":276,"type":"SCALAR","min":[0],"max":[103],"name":"accessor_453"},{"bufferView":32,"byteOffset":0,"componentType":5126,"count":104,"max":[0.009499969892203808,0.13509999215602875,0.03118080087006092],"min":[-0.0245875995606184,-0.13509999215602875,-0.03118080087006092],"type":"VEC3","name":"accessor_455"},{"bufferView":32,"byteOffset":1248,"componentType":5126,"count":104,"max":[1,0.9973620176315308,0.9923530220985413],"min":[-1,-0.9973629713058472,-0.99235999584198],"type":"VEC3","name":"accessor_457"},{"bufferView":33,"byteOffset":0,"componentType":5126,"count":104,"max":[0.019348999485373497,0.17633801698684692],"min":[0.011884000152349472,0.07825702428817749],"type":"VEC2","name":"accessor_459"},{"bufferView":66,"byteOffset":43152,"componentType":5123,"count":168,"type":"SCALAR","min":[0],"max":[82],"name":"accessor_48"},{"bufferView":34,"byteOffset":0,"componentType":5126,"count":83,"max":[7.750153064727783,1.306514024734497,-0.471085786819458],"min":[4.966702938079834,1.0340070724487305,-1.0349736213684082],"type":"VEC3","name":"accessor_50"},{"bufferView":66,"byteOffset":43488,"componentType":5123,"count":1308,"type":"SCALAR","min":[0],"max":[773],"name":"accessor_507"},{"bufferView":34,"byteOffset":996,"componentType":5126,"count":774,"max":[-0.10957759618759155,0.8176493048667908,3.9768428802490234],"min":[-0.27255839109420776,0.799203634262085,3.962757110595703],"type":"VEC3","name":"accessor_509"},{"bufferView":34,"byteOffset":10284,"componentType":5126,"count":774,"max":[1,1,1],"min":[-1,-1,-1],"type":"VEC3","name":"accessor_511"},{"bufferView":35,"byteOffset":0,"componentType":5126,"count":774,"max":[0.05797800049185753,0.3527719974517822],"min":[0.02195890061557293,0.34373801946640015],"type":"VEC2","name":"accessor_513"},{"bufferView":36,"byteOffset":0,"componentType":5126,"count":83,"max":[1,1,0.3241809904575348],"min":[-0.9999989867210388,-0.9968950152397156,-0.9450730085372925],"type":"VEC3","name":"accessor_52"},{"bufferView":66,"byteOffset":46104,"componentType":5123,"count":1344,"type":"SCALAR","min":[0],"max":[341],"name":"accessor_534"},{"bufferView":36,"byteOffset":996,"componentType":5126,"count":342,"max":[-0.09568939357995987,0.8250380754470825,3.9847893714904785],"min":[-0.28644660115242004,0.7889199256896973,3.7646288871765137],"type":"VEC3","name":"accessor_536"},{"bufferView":36,"byteOffset":5100,"componentType":5126,"count":342,"max":[0.9796680212020874,0.9987069964408875,0.9964630007743835],"min":[-0.9796680212020874,-0.9987069964408875,-0.44421297311782837],"type":"VEC3","name":"accessor_538"},{"bufferView":37,"byteOffset":0,"componentType":5126,"count":83,"max":[0.6775519847869873,0.9406840205192566],"min":[0.06652899831533432,0.06652802228927612],"type":"VEC2","name":"accessor_54"},{"bufferView":37,"byteOffset":664,"componentType":5126,"count":342,"max":[0.35777899622917175,0.9312019944190979],"min":[0.315775990486145,0.9174200296401978],"type":"VEC2","name":"accessor_540"},{"bufferView":66,"byteOffset":48792,"componentType":5123,"count":666,"type":"SCALAR","min":[0],"max":[164],"name":"accessor_561"},{"bufferView":38,"byteOffset":0,"componentType":5126,"count":165,"max":[-0.10245489329099655,0.823756992816925,3.9838905334472656],"min":[-0.279680997133255,0.7902010083198547,3.845468759536743],"type":"VEC3","name":"accessor_563"},{"bufferView":38,"byteOffset":1980,"componentType":5126,"count":165,"max":[0.9543110132217407,0.9982370138168335,1],"min":[-0.9543110132217407,-0.9982370138168335,0.059358902275562286],"type":"VEC3","name":"accessor_565"},{"bufferView":39,"byteOffset":0,"componentType":5126,"count":165,"max":[0.05938899889588356,0.3495190143585205],"min":[0.03292600065469742,0.30580002069473267],"type":"VEC2","name":"accessor_567"},{"bufferView":66,"byteOffset":50124,"componentType":5123,"count":48,"type":"SCALAR","min":[0],"max":[31],"name":"accessor_588"},{"bufferView":40,"byteOffset":0,"componentType":5126,"count":32,"max":[-0.21955938637256622,0.8079626560211182,3.970223903656006],"min":[-0.2665712535381317,0.8045172691345215,3.8199408054351807],"type":"VEC3","name":"accessor_590"},{"bufferView":40,"byteOffset":384,"componentType":5126,"count":32,"max":[0.8866890072822571,0.9238730072975159,0.25953802466392517],"min":[-0.8866890072822571,-0.9238730072975159,-0.25953802466392517],"type":"VEC3","name":"accessor_592"},{"bufferView":41,"byteOffset":0,"componentType":5126,"count":32,"max":[0.07185599952936172,0.3809630274772644],"min":[0.02039800025522709,0.35207700729370117],"type":"VEC2","name":"accessor_594"},{"bufferView":42,"byteOffset":0,"componentType":5126,"count":32,"max":[-0.11556575447320938,0.8079617023468018,3.970223903656006],"min":[-0.16257749497890472,0.8045163154602051,3.8199408054351807],"type":"VEC3","name":"accessor_617"},{"bufferView":42,"byteOffset":384,"componentType":5126,"count":32,"max":[0.8866890072822571,0.9238730072975159,0.2595379650592804],"min":[-0.8866890072822571,-0.9238730072975159,-0.2595379650592804],"type":"VEC3","name":"accessor_619"},{"bufferView":43,"byteOffset":0,"componentType":5126,"count":32,"max":[0.07185599952936172,0.3809630274772644],"min":[0.02039800025522709,0.35207700729370117],"type":"VEC2","name":"accessor_621"},{"bufferView":66,"byteOffset":50220,"componentType":5123,"count":4542,"type":"SCALAR","min":[0],"max":[1188],"name":"accessor_642"},{"bufferView":44,"byteOffset":0,"componentType":5126,"count":1189,"max":[1.316931962966919,2.061842679977417,3.9937360286712646],"min":[-1.6990680694580078,1.9676915407180786,3.4568800926208496],"type":"VEC3","name":"accessor_644"},{"bufferView":44,"byteOffset":14268,"componentType":5126,"count":1189,"max":[1,0.9999169707298279,0.9217259883880615],"min":[-1,-0.9999579787254333,-0.9996579885482788],"type":"VEC3","name":"accessor_646"},{"bufferView":66,"byteOffset":59304,"componentType":5123,"count":3252,"type":"SCALAR","min":[0],"max":[770],"name":"accessor_669"},{"bufferView":44,"byteOffset":28536,"componentType":5126,"count":771,"max":[-0.14852029085159302,0.31875598430633545,-2.9572408199310303],"min":[-0.23361369967460632,0.07533299177885056,-3.2016217708587646],"type":"VEC3","name":"accessor_671"},{"bufferView":44,"byteOffset":37788,"componentType":5126,"count":771,"max":[1,1,1],"min":[-1,-0.9952229857444763,-1],"type":"VEC3","name":"accessor_673"},{"bufferView":45,"byteOffset":0,"componentType":5126,"count":771,"max":[0.9807899594306946,0.8582500219345093],"min":[0.8066009879112244,0.5098710060119629],"type":"VEC2","name":"accessor_675"},{"bufferView":66,"byteOffset":65808,"componentType":5123,"count":3252,"type":"SCALAR","min":[0],"max":[774],"name":"accessor_696"},{"bufferView":46,"byteOffset":0,"componentType":5126,"count":775,"max":[-0.11606698483228683,0.3841799795627594,-0.6277430057525635],"min":[-0.2660669982433319,0.004179999232292175,-1.007743000984192],"type":"VEC3","name":"accessor_698"},{"bufferView":46,"byteOffset":9300,"componentType":5126,"count":775,"max":[1,1,1],"min":[-1,-0.9951850175857544,-1],"type":"VEC3","name":"accessor_700"},{"bufferView":47,"byteOffset":0,"componentType":5126,"count":775,"max":[0.9813650250434875,0.8611010313034058],"min":[0.8052049875259399,0.508778989315033],"type":"VEC2","name":"accessor_702"},{"bufferView":66,"byteOffset":72312,"componentType":5123,"count":3252,"type":"SCALAR","min":[0],"max":[731],"name":"accessor_723"},{"bufferView":48,"byteOffset":0,"componentType":5126,"count":732,"max":[-0.16945575177669525,0.723641037940979,3.9097509384155273],"min":[-0.212678462266922,0.5136410593986511,3.6997509002685547],"type":"VEC3","name":"accessor_725"},{"bufferView":48,"byteOffset":8784,"componentType":5126,"count":732,"max":[1,1,1],"min":[-1,-0.9951930046081543,-1],"type":"VEC3","name":"accessor_727"},{"bufferView":49,"byteOffset":0,"componentType":5126,"count":732,"max":[0.9818530082702637,0.8603119850158691],"min":[0.8050050139427185,0.5066180229187012],"type":"VEC2","name":"accessor_729"},{"bufferView":66,"byteOffset":78816,"componentType":5123,"count":2112,"type":"SCALAR","min":[0],"max":[747],"name":"accessor_75"},{"bufferView":66,"byteOffset":83040,"componentType":5123,"count":792,"type":"SCALAR","min":[0],"max":[177],"name":"accessor_750"},{"bufferView":50,"byteOffset":0,"componentType":5126,"count":178,"max":[0.13981904089450836,1.149035930633545,-2.2270278930664062],"min":[-0.5219239592552185,0.6302242875099182,-3.335909843444824],"type":"VEC3","name":"accessor_752"},{"bufferView":50,"byteOffset":2136,"componentType":5126,"count":178,"max":[0.9932590126991272,0.9808139801025391,-0.004181641153991222],"min":[-0.9940980076789856,0.09473709762096405,-0.3871060013771057],"type":"VEC3","name":"accessor_754"},{"bufferView":50,"byteOffset":4272,"componentType":5126,"count":748,"max":[0.14331702888011932,1.154147982597351,-2.198274850845337],"min":[-0.5256659388542175,0.5962759852409363,-3.367109775543213],"type":"VEC3","name":"accessor_77"},{"bufferView":66,"byteOffset":84624,"componentType":5123,"count":1008,"type":"SCALAR","min":[0],"max":[273],"name":"accessor_777"},{"bufferView":50,"byteOffset":13248,"componentType":5126,"count":274,"max":[0.15168601274490356,1.2110989093780518,-1.1568928956985474],"min":[-0.5338199734687805,0.7652645707130432,-2.1873369216918945],"type":"VEC3","name":"accessor_779"},{"bufferView":50,"byteOffset":16536,"componentType":5126,"count":274,"max":[0.997655987739563,0.9999899864196777,0.09325530380010605],"min":[-0.9977440237998962,0.05442240089178085,-0.1061990037560463],"type":"VEC3","name":"accessor_781"},{"bufferView":50,"byteOffset":19824,"componentType":5126,"count":748,"max":[1,0.9808599948883057,0.9924150109291077],"min":[-1,-0.9808599948883057,-0.9859529733657837],"type":"VEC3","name":"accessor_79"},{"bufferView":66,"byteOffset":86640,"componentType":5123,"count":945,"type":"SCALAR","min":[0],"max":[252],"name":"accessor_804"},{"bufferView":50,"byteOffset":28800,"componentType":5126,"count":253,"max":[-0.4423083961009979,1.0140509605407715,0.15713995695114136],"min":[-2.5230469703674316,0.6280499696731567,-1.4447611570358276],"type":"VEC3","name":"accessor_806"},{"bufferView":50,"byteOffset":31836,"componentType":5126,"count":253,"max":[0.10021401196718216,0.9998299479484558,0.33786600828170776],"min":[-1,-0.9987969994544983,-0.9317539930343628],"type":"VEC3","name":"accessor_808"},{"bufferView":51,"byteOffset":0,"componentType":5126,"count":748,"max":[0.9084150195121765,0.3043869733810425],"min":[0.007110950071364641,0.002736032009124756],"type":"VEC2","name":"accessor_81"},{"bufferView":51,"byteOffset":5984,"componentType":5126,"count":253,"max":[0.528203010559082,0.9972430467605591],"min":[0.1289059966802597,0.015530049800872803],"type":"VEC2","name":"accessor_810"},{"bufferView":66,"byteOffset":88530,"componentType":5123,"count":426,"type":"SCALAR","min":[0],"max":[165],"name":"accessor_831"},{"bufferView":52,"byteOffset":0,"componentType":5126,"count":166,"max":[-2.5230519771575928,1.1298049688339233,-0.17229411005973816],"min":[-4.518901824951172,0.7926977872848511,-1.446511149406433],"type":"VEC3","name":"accessor_833"},{"bufferView":52,"byteOffset":1992,"componentType":5126,"count":166,"max":[1,1,0.9992659687995911],"min":[-1,-0.9973229765892029,-0.9993659853935242],"type":"VEC3","name":"accessor_835"},{"bufferView":53,"byteOffset":0,"componentType":5126,"count":166,"max":[0.49486100673675537,1],"min":[0,0.26380300521850586],"type":"VEC2","name":"accessor_837"},{"bufferView":66,"byteOffset":89382,"componentType":5123,"count":333,"type":"SCALAR","min":[0],"max":[138],"name":"accessor_858"},{"bufferView":54,"byteOffset":0,"componentType":5126,"count":139,"max":[-4.518901824951172,1.3437199592590332,-0.3608691990375519],"min":[-8.132291793823242,0.9449970126152039,-1.446511149406433],"type":"VEC3","name":"accessor_860"},{"bufferView":54,"byteOffset":1668,"componentType":5126,"count":139,"max":[1,1,0.9538599848747253],"min":[-0.9999989867210388,-0.996895968914032,-0.927827000617981],"type":"VEC3","name":"accessor_862"},{"bufferView":55,"byteOffset":0,"componentType":5126,"count":139,"max":[0.47577500343322754,0.9330970048904419],"min":[0.1858540028333664,0.07131999731063843],"type":"VEC2","name":"accessor_864"},{"bufferView":66,"byteOffset":90048,"componentType":5123,"count":1374,"type":"SCALAR","min":[0],"max":[358],"name":"accessor_885"},{"bufferView":56,"byteOffset":0,"componentType":5126,"count":359,"max":[-8.125441551208496,1.370378017425537,-0.8405835628509521],"min":[-8.646121978759766,1.2173399925231934,-1.420296311378479],"type":"VEC3","name":"accessor_887"},{"bufferView":56,"byteOffset":4308,"componentType":5126,"count":359,"max":[1,1,0.3026390075683594],"min":[-0.9995020031929016,-0.9999930262565613,-0.9118760228157043],"type":"VEC3","name":"accessor_889"},{"bufferView":57,"byteOffset":0,"componentType":5126,"count":359,"max":[0.42722201347351074,1],"min":[0,0.009599030017852783],"type":"VEC2","name":"accessor_891"},{"bufferView":66,"byteOffset":92796,"componentType":5123,"count":945,"type":"SCALAR","min":[0],"max":[254],"name":"accessor_912"},{"bufferView":58,"byteOffset":0,"componentType":5126,"count":255,"max":[2.1409130096435547,1.0140509605407715,0.15713995695114136],"min":[0.060174379497766495,0.6280499696731567,-1.4447609186172485],"type":"VEC3","name":"accessor_914"},{"bufferView":58,"byteOffset":3060,"componentType":5126,"count":255,"max":[1,0.9998299479484558,0.33786600828170776],"min":[-0.09864408522844315,-0.9987969994544983,-0.9317539930343628],"type":"VEC3","name":"accessor_916"},{"bufferView":59,"byteOffset":0,"componentType":5126,"count":255,"max":[0.699226975440979,0.9773650169372559],"min":[0.0005949999904260039,0.015530049800872803],"type":"VEC2","name":"accessor_918"},{"bufferView":66,"byteOffset":94686,"componentType":5123,"count":252,"type":"SCALAR","min":[0],"max":[99],"name":"accessor_939"},{"bufferView":60,"byteOffset":0,"componentType":5126,"count":100,"max":[4.136767864227295,1.129802942276001,-0.1722899079322815],"min":[2.1408779621124268,0.7903264760971069,-1.446509838104248],"type":"VEC3","name":"accessor_941"},{"bufferView":60,"byteOffset":1200,"componentType":5126,"count":100,"max":[1,0.9982499480247498,0.9992659687995911],"min":[-1,-0.9973220229148865,-0.9993659853935242],"type":"VEC3","name":"accessor_943"},{"bufferView":61,"byteOffset":0,"componentType":5126,"count":100,"max":[0.705079972743988,1],"min":[0,0.2641500234603882],"type":"VEC2","name":"accessor_945"},{"bufferView":66,"byteOffset":95190,"componentType":5123,"count":270,"type":"SCALAR","min":[0],"max":[118],"name":"accessor_966"},{"bufferView":62,"byteOffset":0,"componentType":5126,"count":119,"max":[7.750187873840332,1.3441280126571655,-0.36086881160736084],"min":[4.136767864227295,0.9449959993362427,-1.446509838104248],"type":"VEC3","name":"accessor_968"},{"bufferView":62,"byteOffset":1428,"componentType":5126,"count":119,"max":[1,1,0.9099609851837158],"min":[-1,-0.9968940019607544,-0.9278280138969421],"type":"VEC3","name":"accessor_970"},{"bufferView":63,"byteOffset":0,"componentType":5126,"count":119,"max":[0.705079972743988,1],"min":[0,0.0672680139541626],"type":"VEC2","name":"accessor_972"},{"bufferView":66,"byteOffset":95730,"componentType":5123,"count":1374,"type":"SCALAR","min":[0],"max":[357],"name":"accessor_993"},{"bufferView":64,"byteOffset":0,"componentType":5126,"count":358,"max":[8.263978004455566,1.3703770637512207,-0.8405828475952148],"min":[7.750147819519043,1.217339038848877,-1.42024564743042],"type":"VEC3","name":"accessor_995"},{"bufferView":64,"byteOffset":4296,"componentType":5126,"count":358,"max":[0.9995020031929016,1,0.3026370108127594],"min":[-1,-0.9999930262565613,-0.9118049740791321],"type":"VEC3","name":"accessor_997"},{"bufferView":65,"byteOffset":0,"componentType":5126,"count":358,"max":[0.702318012714386,1.0001009702682495],"min":[0,0.0057790279388427734],"type":"VEC2","name":"accessor_999"},{"bufferView":67,"componentType":5126,"count":3537,"type":"VEC3","min":[-0.23475614672748854,0.7243619374930859,-4.162224575576645],"max":[0.23474639707653275,2.0491299629211426,-0.9995999999999999]},{"bufferView":68,"componentType":5126,"count":3537,"type":"VEC3"},{"bufferView":69,"componentType":5126,"count":960,"type":"VEC3","min":[-0.10726830310751068,1.193992202507332,-4.123475110832874],"max":[0.10625476211927723,1.968981497382745,-3.3484858159574618]},{"bufferView":70,"componentType":5126,"count":960,"type":"VEC3"},{"bufferView":71,"componentType":5126,"count":960,"type":"VEC2"}],"asset":{"generator":"collada2gltf@","version":"2.0","copyright":"FlightGear model authors / Flightradar24 contributors; GPLv2. See UPSTREAM-CREDITS.md and LICENSE.txt."},"bufferViews":[{"buffer":0,"byteLength":685,"byteOffset":519262,"name":"binary_bufferView0"},{"buffer":0,"byteLength":439,"byteOffset":519947,"name":"binary_bufferView1"},{"buffer":0,"byteLength":733,"byteOffset":520386,"name":"binary_bufferView2"},{"buffer":0,"byteLength":439,"byteOffset":521119,"name":"binary_bufferView3"},{"buffer":0,"byteLength":629,"byteOffset":521558,"name":"binary_bufferView4"},{"buffer":0,"byteLength":355,"byteOffset":522187,"name":"binary_bufferView5"},{"buffer":0,"byteLength":677,"byteOffset":522542,"name":"binary_bufferView6"},{"buffer":0,"byteLength":355,"byteOffset":523219,"name":"binary_bufferView7"},{"buffer":0,"byteLength":41231,"byteOffset":523574,"name":"binary_bufferView8"},{"buffer":0,"byteLength":126299,"byteOffset":564805,"name":"binary_bufferView9"},{"buffer":0,"byteLength":39240,"byteOffset":0,"target":34962,"name":"bufferView_0","byteStride":12},{"buffer":0,"byteLength":13080,"byteOffset":39240,"target":34962,"name":"bufferView_0","byteStride":8},{"buffer":0,"byteLength":65088,"byteOffset":52320,"target":34962,"name":"bufferView_0","byteStride":12},{"buffer":0,"byteLength":11768,"byteOffset":117408,"target":34962,"name":"bufferView_0","byteStride":8},{"buffer":0,"byteLength":3264,"byteOffset":129176,"target":34962,"name":"bufferView_0","byteStride":12},{"buffer":0,"byteLength":1088,"byteOffset":132440,"target":34962,"name":"bufferView_0","byteStride":8},{"buffer":0,"byteLength":5136,"byteOffset":133528,"target":34962,"name":"bufferView_0","byteStride":12},{"buffer":0,"byteLength":1440,"byteOffset":138664,"target":34962,"name":"bufferView_0","byteStride":8},{"buffer":0,"byteLength":4080,"byteOffset":140104,"target":34962,"name":"bufferView_0","byteStride":12},{"buffer":0,"byteLength":1632,"byteOffset":144184,"target":34962,"name":"bufferView_0","byteStride":8},{"buffer":0,"byteLength":12600,"byteOffset":145816,"target":34962,"name":"bufferView_0","byteStride":12},{"buffer":0,"byteLength":4200,"byteOffset":158416,"target":34962,"name":"bufferView_0","byteStride":8},{"buffer":0,"byteLength":4416,"byteOffset":162616,"target":34962,"name":"bufferView_0","byteStride":12},{"buffer":0,"byteLength":1472,"byteOffset":167032,"target":34962,"name":"bufferView_0","byteStride":8},{"buffer":0,"byteLength":1656,"byteOffset":168504,"target":34962,"name":"bufferView_0","byteStride":12},{"buffer":0,"byteLength":552,"byteOffset":170160,"target":34962,"name":"bufferView_0","byteStride":8},{"buffer":0,"byteLength":2496,"byteOffset":170712,"target":34962,"name":"bufferView_0","byteStride":12},{"buffer":0,"byteLength":832,"byteOffset":173208,"target":34962,"name":"bufferView_0","byteStride":8},{"buffer":0,"byteLength":2496,"byteOffset":174040,"target":34962,"name":"bufferView_0","byteStride":12},{"buffer":0,"byteLength":832,"byteOffset":176536,"target":34962,"name":"bufferView_0","byteStride":8},{"buffer":0,"byteLength":1656,"byteOffset":177368,"target":34962,"name":"bufferView_0","byteStride":12},{"buffer":0,"byteLength":552,"byteOffset":179024,"target":34962,"name":"bufferView_0","byteStride":8},{"buffer":0,"byteLength":2496,"byteOffset":179576,"target":34962,"name":"bufferView_0","byteStride":12},{"buffer":0,"byteLength":832,"byteOffset":182072,"target":34962,"name":"bufferView_0","byteStride":8},{"buffer":0,"byteLength":19572,"byteOffset":182904,"target":34962,"name":"bufferView_0","byteStride":12},{"buffer":0,"byteLength":6192,"byteOffset":202476,"target":34962,"name":"bufferView_0","byteStride":8},{"buffer":0,"byteLength":9204,"byteOffset":208668,"target":34962,"name":"bufferView_0","byteStride":12},{"buffer":0,"byteLength":3400,"byteOffset":217872,"target":34962,"name":"bufferView_0","byteStride":8},{"buffer":0,"byteLength":3960,"byteOffset":221272,"target":34962,"name":"bufferView_0","byteStride":12},{"buffer":0,"byteLength":1320,"byteOffset":225232,"target":34962,"name":"bufferView_0","byteStride":8},{"buffer":0,"byteLength":768,"byteOffset":226552,"target":34962,"name":"bufferView_0","byteStride":12},{"buffer":0,"byteLength":256,"byteOffset":227320,"target":34962,"name":"bufferView_0","byteStride":8},{"buffer":0,"byteLength":768,"byteOffset":227576,"target":34962,"name":"bufferView_0","byteStride":12},{"buffer":0,"byteLength":256,"byteOffset":228344,"target":34962,"name":"bufferView_0","byteStride":8},{"buffer":0,"byteLength":47040,"byteOffset":228600,"target":34962,"name":"bufferView_0","byteStride":12},{"buffer":0,"byteLength":6168,"byteOffset":275640,"target":34962,"name":"bufferView_0","byteStride":8},{"buffer":0,"byteLength":18600,"byteOffset":281808,"target":34962,"name":"bufferView_0","byteStride":12},{"buffer":0,"byteLength":6200,"byteOffset":300408,"target":34962,"name":"bufferView_0","byteStride":8},{"buffer":0,"byteLength":17568,"byteOffset":306608,"target":34962,"name":"bufferView_0","byteStride":12},{"buffer":0,"byteLength":5856,"byteOffset":324176,"target":34962,"name":"bufferView_0","byteStride":8},{"buffer":0,"byteLength":34872,"byteOffset":330032,"target":34962,"name":"bufferView_0","byteStride":12},{"buffer":0,"byteLength":8008,"byteOffset":364904,"target":34962,"name":"bufferView_0","byteStride":8},{"buffer":0,"byteLength":3984,"byteOffset":372912,"target":34962,"name":"bufferView_0","byteStride":12},{"buffer":0,"byteLength":1328,"byteOffset":376896,"target":34962,"name":"bufferView_0","byteStride":8},{"buffer":0,"byteLength":3336,"byteOffset":378224,"target":34962,"name":"bufferView_0","byteStride":12},{"buffer":0,"byteLength":1112,"byteOffset":381560,"target":34962,"name":"bufferView_0","byteStride":8},{"buffer":0,"byteLength":8616,"byteOffset":382672,"target":34962,"name":"bufferView_0","byteStride":12},{"buffer":0,"byteLength":2872,"byteOffset":391288,"target":34962,"name":"bufferView_0","byteStride":8},{"buffer":0,"byteLength":6120,"byteOffset":394160,"target":34962,"name":"bufferView_0","byteStride":12},{"buffer":0,"byteLength":2040,"byteOffset":400280,"target":34962,"name":"bufferView_0","byteStride":8},{"buffer":0,"byteLength":2400,"byteOffset":402320,"target":34962,"name":"bufferView_0","byteStride":12},{"buffer":0,"byteLength":800,"byteOffset":404720,"target":34962,"name":"bufferView_0","byteStride":8},{"buffer":0,"byteLength":2856,"byteOffset":405520,"target":34962,"name":"bufferView_0","byteStride":12},{"buffer":0,"byteLength":952,"byteOffset":408376,"target":34962,"name":"bufferView_0","byteStride":8},{"buffer":0,"byteLength":8592,"byteOffset":409328,"target":34962,"name":"bufferView_0","byteStride":12},{"buffer":0,"byteLength":2864,"byteOffset":417920,"target":34962,"name":"bufferView_0","byteStride":8},{"buffer":0,"byteLength":98478,"byteOffset":420784,"target":34963,"name":"bufferView_1"},{"buffer":1,"byteOffset":0,"byteLength":42444,"target":34962},{"buffer":1,"byteOffset":42444,"byteLength":42444,"target":34962},{"buffer":1,"byteOffset":84888,"byteLength":11520,"target":34962},{"buffer":1,"byteOffset":96408,"byteLength":11520,"target":34962},{"buffer":1,"byteOffset":107928,"byteLength":7680,"target":34962}],"buffers":[{"byteLength":691104,"extras":{},"name":"binary_glTF","uri":"../ask21-v1-0.bin"},{"uri":"ask21-tail-v1.bin?tail=2","byteLength":115608}],"images":[{"name":"blank-wings_png_001","extras":{},"bufferView":8,"mimeType":"image/jpeg"},{"name":"blank_png_001","extras":{},"bufferView":9,"mimeType":"image/jpeg"},{"uri":"../../../airlines/THY.png"}],"materials":[{"name":"ASK21","pbrMetallicRoughness":{"roughnessFactor":1,"metallicFactor":0,"baseColorTexture":{"index":1}}},{"name":"ASK21","doubleSided":true,"pbrMetallicRoughness":{"roughnessFactor":1,"metallicFactor":0,"baseColorTexture":{"index":1}}},{"name":"ASK21","doubleSided":true,"pbrMetallicRoughness":{"roughnessFactor":1,"metallicFactor":0,"baseColorTexture":{"index":1}}},{"name":"ASK21","doubleSided":true,"pbrMetallicRoughness":{"roughnessFactor":1,"metallicFactor":0,"baseColorTexture":{"index":1}}},{"name":"ASK21","doubleSided":true,"pbrMetallicRoughness":{"roughnessFactor":1,"metallicFactor":0,"baseColorTexture":{"index":1}}},{"name":"ASK21","doubleSided":true,"pbrMetallicRoughness":{"roughnessFactor":1,"metallicFactor":0,"baseColorTexture":{"index":1}}},{"name":"DefaultWhite","pbrMetallicRoughness":{"roughnessFactor":1,"metallicFactor":0,"baseColorFactor":[0.6038273590607633,0.6038273590607633,0.6038273590607633,1]}},{"name":"DefaultWhite_000","pbrMetallicRoughness":{"roughnessFactor":1,"metallicFactor":0,"baseColorTexture":{"index":0}}},{"name":"GLASS","alphaMode":"BLEND","doubleSided":true,"pbrMetallicRoughness":{"roughnessFactor":1,"metallicFactor":0,"baseColorFactor":[0.09234606239463537,0.09234606239463537,0.09234606239463537,1]}},{"name":"Operator tail paint","doubleSided":true,"pbrMetallicRoughness":{"baseColorFactor":[0.7843137254901961,0.09803921568627451,0.19607843137254902,1],"metallicFactor":0,"roughnessFactor":0.65}},{"name":"Operator logo identification","doubleSided":true,"alphaMode":"MASK","alphaCutoff":0.08,"pbrMetallicRoughness":{"baseColorTexture":{"index":2},"metallicFactor":0,"roughnessFactor":0.7},"emissiveFactor":[0.18,0.18,0.18],"emissiveTexture":{"index":2}}],"meshes":[{"primitives":[{"attributes":{"NORMAL":56,"POSITION":55,"TEXCOORD_0":57},"indices":54,"material":7,"mode":4}],"name":"mesh-split"},{"name":"rootNode_mesh","primitives":[{"attributes":{"NORMAL":24,"POSITION":19,"TEXCOORD_0":28},"indices":14,"material":7,"mode":4},{"attributes":{"NORMAL":64,"POSITION":59,"TEXCOORD_0":68},"indices":58,"material":7,"mode":4},{"attributes":{"NORMAL":104,"POSITION":100,"TEXCOORD_0":108},"indices":96,"material":0,"mode":4},{"attributes":{"NORMAL":2,"POSITION":1,"TEXCOORD_0":3},"indices":0,"material":0,"mode":4},{"attributes":{"NORMAL":6,"POSITION":5},"indices":4,"material":6,"mode":4},{"attributes":{"NORMAL":9,"POSITION":8},"indices":7,"material":6,"mode":4},{"attributes":{"NORMAL":12,"POSITION":11,"TEXCOORD_0":13},"indices":10,"material":0,"mode":4},{"attributes":{"NORMAL":17,"POSITION":16,"TEXCOORD_0":18},"indices":15,"material":1,"mode":4},{"attributes":{"NORMAL":22,"POSITION":21,"TEXCOORD_0":23},"indices":20,"material":0,"mode":4},{"attributes":{"NORMAL":27,"POSITION":26,"TEXCOORD_0":29},"indices":25,"material":2,"mode":4},{"attributes":{"NORMAL":32,"POSITION":31,"TEXCOORD_0":33},"indices":30,"material":0,"mode":4},{"attributes":{"NORMAL":36,"POSITION":35,"TEXCOORD_0":37},"indices":34,"material":0,"mode":4},{"attributes":{"NORMAL":40,"POSITION":39,"TEXCOORD_0":41},"indices":38,"material":7,"mode":4},{"attributes":{"NORMAL":44,"POSITION":43,"TEXCOORD_0":45},"indices":42,"material":7,"mode":4},{"attributes":{"NORMAL":48,"POSITION":47,"TEXCOORD_0":49},"indices":46,"material":7,"mode":4},{"attributes":{"NORMAL":52,"POSITION":51,"TEXCOORD_0":53},"indices":50,"material":7,"mode":4},{"attributes":{"NORMAL":62,"POSITION":61,"TEXCOORD_0":63},"indices":60,"material":0,"mode":4},{"attributes":{"NORMAL":67,"POSITION":66,"TEXCOORD_0":69},"indices":65,"material":0,"mode":4},{"attributes":{"NORMAL":72,"POSITION":71,"TEXCOORD_0":73},"indices":70,"material":0,"mode":4},{"attributes":{"NORMAL":76,"POSITION":75,"TEXCOORD_0":77},"indices":74,"material":0,"mode":4},{"attributes":{"NORMAL":79,"POSITION":78,"TEXCOORD_0":80},"indices":74,"material":0,"mode":4},{"attributes":{"NORMAL":83,"POSITION":82},"indices":81,"material":6,"mode":4},{"attributes":{"NORMAL":86,"POSITION":85,"TEXCOORD_0":87},"indices":84,"material":3,"mode":4},{"attributes":{"NORMAL":90,"POSITION":89,"TEXCOORD_0":91},"indices":88,"material":4,"mode":4},{"attributes":{"NORMAL":94,"POSITION":93,"TEXCOORD_0":95},"indices":92,"material":5,"mode":4},{"attributes":{"NORMAL":99,"POSITION":98},"indices":97,"material":8,"mode":4},{"attributes":{"NORMAL":103,"POSITION":102},"indices":101,"material":8,"mode":4},{"attributes":{"NORMAL":107,"POSITION":106,"TEXCOORD_0":109},"indices":105,"material":7,"mode":4},{"attributes":{"NORMAL":112,"POSITION":111,"TEXCOORD_0":113},"indices":110,"material":7,"mode":4},{"attributes":{"NORMAL":116,"POSITION":115,"TEXCOORD_0":117},"indices":114,"material":7,"mode":4},{"attributes":{"NORMAL":120,"POSITION":119,"TEXCOORD_0":121},"indices":118,"material":7,"mode":4},{"attributes":{"NORMAL":124,"POSITION":123,"TEXCOORD_0":125},"indices":122,"material":7,"mode":4},{"attributes":{"NORMAL":128,"POSITION":127,"TEXCOORD_0":129},"indices":126,"material":7,"mode":4},{"attributes":{"NORMAL":132,"POSITION":131,"TEXCOORD_0":133},"indices":130,"material":7,"mode":4},{"attributes":{"NORMAL":136,"POSITION":135,"TEXCOORD_0":137},"indices":134,"material":7,"mode":4}]},{"name":"Airline tail surface overlay","primitives":[{"attributes":{"POSITION":138,"NORMAL":139},"material":9},{"attributes":{"POSITION":140,"NORMAL":141,"TEXCOORD_0":142},"material":10}]}],"nodes":[{"matrix":[-4.3711398899999997e-8,0,1,0,1,0,4.3711398899999997e-8,0,0,1,0,0,3.006969928741455,0.9480109810829164,-0.9520819783210753,1],"name":"speedbrakeRac1","mesh":0},{"matrix":[-4.3711398899999997e-8,0,1,0,1,0,4.3711398899999997e-8,0,0,1,0,0,3.6947197914123535,0.9950850009918212,-0.9768959879875184,1],"name":"speedbrakeRac2","mesh":0},{"children":[0,1],"matrix":[1,0,0,0,0,1,0,0,0,0,1,0,0,0,0,1],"name":"rootNode","mesh":1},{"name":"SkywardCoordinateAlignment","matrix":[-1,0,-1.2246467991473532e-16,0,0,1,0,0,1.2246467991473532e-16,0,-1,0,-0.19107198715209964,0,0.16982555389404294,1],"children":[2]},{"name":"AirlineTailBranding","mesh":2}],"samplers":[{"magFilter":9729,"minFilter":9729,"wrapS":10497,"wrapT":10497,"name":"sampler_0"},{"magFilter":9729,"minFilter":9987,"wrapS":33071,"wrapT":33071}],"scene":0,"scenes":[{"nodes":[3,4],"name":"defaultScene"}],"textures":[{"sampler":0,"source":0,"name":"texture_blank-wings_png_001"},{"sampler":0,"source":1,"name":"texture_blank_png_001"},{"source":2,"sampler":1}],"extras":{"skyward":{"source":"https://github.com/Flightradar24/fr24-3d-models","commit":"dd53267690c6a4ecbb290a3acf0284333a5d68a9","changes":"Converted legacy glTF to glTF 2.0 with Cesium; rigid axis alignment and horizontal centering only. Original geometry, materials and paint retained. Added surface-following operator tail paint and unmodified identification-logo texture. Branding is illustrative, not a registration-specific livery.","license":"GPL-2.0","sourceFiles":["source/ask21/ask21.blend","source/ask21/ask21.zip"],"operator":"THY"}}}