{"accessors":[{"bufferView":2,"componentType":5123,"count":7152,"max":[3079],"min":[0],"type":"SCALAR"},{"bufferView":3,"componentType":5126,"count":3080,"max":[20.12912940979004,1.3575201034545898,8.93407917022705],"min":[-20.1273193359375,-1.7173341512680054,-6.604703903198242],"type":"VEC3"},{"bufferView":4,"componentType":5126,"count":3080,"type":"VEC3"},{"bufferView":5,"componentType":5126,"count":3080,"max":[1,1],"min":[0,0],"type":"VEC2"},{"bufferView":6,"componentType":5123,"count":744,"max":[515],"min":[0],"type":"SCALAR"},{"bufferView":7,"componentType":5126,"count":516,"max":[19.348543167114258,2.2761218547821045,0.046353425830602646],"min":[-19.348529815673828,-1.0634280443191528,-22.774770736694336],"type":"VEC3"},{"bufferView":8,"componentType":5126,"count":516,"type":"VEC3"},{"bufferView":9,"componentType":5126,"count":516,"max":[1,1],"min":[0,0],"type":"VEC2"},{"bufferView":10,"componentType":5121,"count":288,"max":[127],"min":[0],"type":"SCALAR"},{"bufferView":11,"componentType":5126,"count":128,"max":[20.282859802246094,2.26261305809021,7.671139240264893],"min":[-20.282819747924805,-1.3302000761032104,-21.595951080322266],"type":"VEC3"},{"bufferView":12,"componentType":5126,"count":128,"type":"VEC3"},{"bufferView":13,"componentType":5126,"count":128,"max":[1,1],"min":[0,0],"type":"VEC2"},{"bufferView":14,"componentType":5121,"count":36,"max":[23],"min":[0],"type":"SCALAR"},{"bufferView":15,"componentType":5126,"count":24,"max":[1.2413572072982788,1.4203760623931885,21.370969772338867],"min":[-1.2472127676010132,0.9521790146827698,19.674968719482422],"type":"VEC3"},{"bufferView":16,"componentType":5126,"count":24,"type":"VEC3"},{"bufferView":17,"componentType":5126,"count":24,"max":[0.5168579816818237,0.4247009754180908],"min":[0.4720799922943115,0.3971319794654846],"type":"VEC2"},{"bufferView":18,"componentType":5121,"count":300,"max":[157],"min":[0],"type":"SCALAR"},{"bufferView":19,"componentType":5126,"count":158,"max":[21.020071029663086,2.2611749172210693,8.8762788772583],"min":[-21.020071029663086,-0.8687999844551086,-20.610532760620117],"type":"VEC3"},{"bufferView":20,"componentType":5126,"count":158,"type":"VEC3"},{"bufferView":21,"componentType":5126,"count":158,"max":[1,1],"min":[0,0],"type":"VEC2"},{"bufferView":22,"componentType":5121,"count":84,"max":[59],"min":[0],"type":"SCALAR"},{"bufferView":23,"componentType":5126,"count":60,"max":[20.921710968017578,2.7818875312805176,2.185591697692871],"min":[-0.09574320167303085,-1.8528274297714233,-7.923437118530273],"type":"VEC3"},{"bufferView":24,"componentType":5126,"count":60,"type":"VEC3"},{"bufferView":25,"componentType":5126,"count":60,"max":[1,1],"min":[0,0],"type":"VEC2"},{"bufferView":26,"componentType":5123,"count":3564,"max":[1385],"min":[0],"type":"SCALAR"},{"bufferView":27,"componentType":5126,"count":1386,"max":[1.8505659103393555,1.2969579696655273,15.454667091369629],"min":[-1.8526604175567627,0.8260419368743896,-9.838332176208496],"type":"VEC3"},{"bufferView":28,"componentType":5126,"count":1386,"type":"VEC3"},{"bufferView":29,"componentType":5126,"count":1386,"max":[1,1],"min":[0,0],"type":"VEC2"},{"bufferView":30,"componentType":5123,"count":750,"max":[428],"min":[0],"type":"SCALAR"},{"bufferView":31,"componentType":5126,"count":429,"max":[1.7789901494979858,10.075419425964355,19.604768753051758],"min":[-1.8118689060211182,-1.7181559801101685,-22.087209701538086],"type":"VEC3"},{"bufferView":32,"componentType":5126,"count":429,"type":"VEC3"},{"bufferView":33,"componentType":5126,"count":429,"max":[1,1],"min":[0,0],"type":"VEC2"},{"bufferView":34,"componentType":5121,"count":12,"max":[11],"min":[0],"type":"SCALAR"},{"bufferView":35,"componentType":5126,"count":12,"max":[-20.88218879699707,1.5767055749893188,-7.736162185668945],"min":[-20.92860221862793,1.5594658851623535,-7.957060813903809],"type":"VEC3"},{"bufferView":36,"componentType":5126,"count":12,"type":"VEC3"},{"bufferView":37,"componentType":5126,"count":12,"max":[1,1],"min":[0,0],"type":"VEC2"},{"bufferView":38,"componentType":5121,"count":288,"max":[191],"min":[0],"type":"SCALAR"},{"bufferView":39,"componentType":5126,"count":192,"max":[1.585527777671814,0.001408994197845459,20.055559158325195],"min":[-1.5840222835540771,-0.48649799823760986,19.199758529663086],"type":"VEC3"},{"bufferView":40,"componentType":5126,"count":192,"type":"VEC3"},{"bufferView":41,"componentType":5126,"count":192,"max":[1,1],"min":[0,0],"type":"VEC2"},{"bufferView":42,"componentType":5121,"count":576,"max":[191],"min":[0],"type":"SCALAR"},{"bufferView":43,"componentType":5126,"count":192,"max":[15.391074180603027,0.31256598234176636,1.8456804752349854],"min":[-15.389549255371094,-1.5886040925979614,-2.7553162574768066],"type":"VEC3"},{"bufferView":44,"componentType":5126,"count":192,"type":"VEC3"},{"bufferView":45,"componentType":5126,"count":192,"max":[0,1],"min":[0,1],"type":"VEC2"},{"bufferView":46,"componentType":5123,"count":6624,"max":[1203],"min":[0],"type":"SCALAR"},{"bufferView":47,"componentType":5126,"count":1204,"max":[14.922152519226074,-0.05436903238296509,5.41792631149292],"min":[-14.920748710632324,-1.0190101861953735,1.3644919395446777],"type":"VEC3"},{"bufferView":48,"componentType":5126,"count":1204,"type":"VEC3"},{"bufferView":49,"componentType":5126,"count":1204,"max":[0.15647000074386597,0.6207740008831024],"min":[0.10108800232410431,0.5664069950580597],"type":"VEC2"},{"bufferView":50,"componentType":5121,"count":288,"max":[95],"min":[0],"type":"SCALAR"},{"bufferView":51,"componentType":5126,"count":96,"max":[1.273442268371582,1.457633137702942,21.437419891357422],"min":[-1.2807676792144775,0.8921670913696289,19.604719161987305],"type":"VEC3"},{"bufferView":52,"componentType":5126,"count":96,"type":"VEC3"},{"bufferView":53,"componentType":5126,"count":96,"max":[0.5205309987068176,0.4269779920578003],"min":[0.470319002866745,0.3949660062789917],"type":"VEC2"},{"bufferView":54,"componentType":5121,"count":54,"max":[19],"min":[0],"type":"SCALAR"},{"bufferView":55,"componentType":5126,"count":20,"max":[1.3996434211730957,2.3295302391052246,-14.825030326843262],"min":[-1.3891966342926025,-0.25731998682022095,-14.825031280517578],"type":"VEC3"},{"bufferView":56,"componentType":5126,"count":20,"type":"VEC3"},{"bufferView":57,"componentType":5126,"count":20,"max":[0.5294700264930725,0.10208302736282349],"min":[0.42759600281715393,0.007587015628814697],"type":"VEC2"},{"bufferView":58,"componentType":5121,"count":264,"max":[165],"min":[0],"type":"SCALAR"},{"bufferView":59,"componentType":5126,"count":166,"max":[20.42593002319336,2.2614948749542236,9.181689262390137],"min":[-20.42588996887207,-1.4554041624069214,-20.610231399536133],"type":"VEC3"},{"bufferView":60,"componentType":5126,"count":166,"type":"VEC3"},{"bufferView":61,"componentType":5126,"count":166,"max":[1,1],"min":[0,0],"type":"VEC2"},{"bufferView":62,"componentType":5121,"count":84,"max":[31],"min":[0],"type":"SCALAR"},{"bufferView":63,"componentType":5126,"count":32,"max":[1.6865742206573486,-0.1004980206489563,21.713407516479492],"min":[-1.6850779056549072,-0.3001819849014282,-13.411433219909668],"type":"VEC3"},{"bufferView":64,"componentType":5126,"count":32,"type":"VEC3"},{"bufferView":65,"componentType":5126,"count":32,"max":[0,1],"min":[0,1],"type":"VEC2"},{"bufferView":66,"componentType":5121,"count":51,"max":[24],"min":[0],"type":"SCALAR"},{"bufferView":67,"componentType":5126,"count":25,"max":[0.06424575299024582,10.019662857055664,-17.742130279541016],"min":[-7.031601428985596,2.094433069229126,-22.774370193481445],"type":"VEC3"},{"bufferView":68,"componentType":5126,"count":25,"type":"VEC3"},{"bufferView":69,"componentType":5126,"count":25,"max":[1,1],"min":[0,0],"type":"VEC2"},{"bufferView":70,"componentType":5121,"count":192,"max":[83],"min":[0],"type":"SCALAR"},{"bufferView":71,"componentType":5126,"count":84,"max":[15.340287208557129,3.2503159046173096,15.834547996520996],"min":[-15.338847160339355,-2.2302639484405518,-13.012452125549316],"type":"VEC3"},{"bufferView":72,"componentType":5126,"count":84,"type":"VEC3"},{"bufferView":73,"componentType":5126,"count":84,"max":[0.804847002029419,0.7172560095787048],"min":[0.0038007900584489107,0.12849301099777222],"type":"VEC2"},{"bufferView":74,"componentType":5123,"count":1842,"max":[551],"min":[0],"type":"SCALAR"},{"bufferView":75,"componentType":5126,"count":552,"max":[1.8585327863693237,2.6613571643829346,22.774770736694336],"min":[-1.871666669845581,-1.7186671495437622,-20.703031539916992],"type":"VEC3"},{"bufferView":76,"componentType":5126,"count":552,"type":"VEC3"},{"bufferView":77,"componentType":5126,"count":552,"max":[0.9918410181999207,0.2468019723892212],"min":[0.0031383300665766,0.005308985710144043],"type":"VEC2"},{"bufferView":78,"componentType":5123,"count":18147,"max":[12290],"min":[0],"type":"SCALAR"},{"bufferView":79,"componentType":5126,"count":12291,"max":[15.417130470275879,0.3364260196685791,1.1328895092010498],"min":[-15.415548324584961,-1.6178590059280396,-3.493340253829956],"type":"VEC3"},{"bufferView":80,"componentType":5126,"count":12291,"type":"VEC3"},{"bufferView":81,"componentType":5126,"count":12291,"max":[0.875,1],"min":[0,0],"type":"VEC2"},{"bufferView":82,"componentType":5123,"count":6282,"max":[1300],"min":[0],"type":"SCALAR"},{"bufferView":83,"componentType":5126,"count":1301,"max":[19.85218048095703,2.26213002204895,19.338560104370117],"min":[-20.466306686401367,-1.7604762315750122,-22.199533462524414],"type":"VEC3"},{"bufferView":84,"componentType":5126,"count":1301,"type":"VEC3"},{"bufferView":85,"componentType":5126,"count":1301,"max":[1,1],"min":[0,0],"type":"VEC2"},{"bufferView":86,"componentType":5126,"count":282,"type":"VEC3","min":[-0.31768768524231006,2.0767252326011656,-22.087209701538086],"max":[0.24553251814842225,10.075419425964355,-12.968851089477539]},{"bufferView":87,"componentType":5126,"count":282,"type":"VEC3"},{"bufferView":88,"componentType":5126,"count":72,"type":"VEC3","min":[-0.2088495894052071,2.5372322536894716,-19.91701044068843],"max":[0.22867821505378866,5.607279060944841,-16.846963633433056]},{"bufferView":89,"componentType":5126,"count":72,"type":"VEC3"},{"bufferView":90,"componentType":5126,"count":72,"type":"VEC2"}],"asset":{"generator":"Khronos Blender glTF 2.0 exporter","version":"2.0","copyright":"FlightGear model authors / FlightAirMap contributors; GPL-3.0. See source/flightairmap/b707/ for license and editable sources."},"bufferViews":[{"buffer":0,"byteLength":166158,"byteOffset":0},{"buffer":0,"byteLength":438285,"byteOffset":166158},{"buffer":0,"byteLength":14304,"byteOffset":604444,"target":34963},{"buffer":0,"byteLength":36960,"byteOffset":618748,"target":34962},{"buffer":0,"byteLength":36960,"byteOffset":655708,"target":34962},{"buffer":0,"byteLength":24640,"byteOffset":692668,"target":34962},{"buffer":0,"byteLength":1488,"byteOffset":717308,"target":34963},{"buffer":0,"byteLength":6192,"byteOffset":718796,"target":34962},{"buffer":0,"byteLength":6192,"byteOffset":724988,"target":34962},{"buffer":0,"byteLength":4128,"byteOffset":731180,"target":34962},{"buffer":0,"byteLength":288,"byteOffset":735308,"target":34963},{"buffer":0,"byteLength":1536,"byteOffset":735596,"target":34962},{"buffer":0,"byteLength":1536,"byteOffset":737132,"target":34962},{"buffer":0,"byteLength":1024,"byteOffset":738668,"target":34962},{"buffer":0,"byteLength":36,"byteOffset":739692,"target":34963},{"buffer":0,"byteLength":288,"byteOffset":739728,"target":34962},{"buffer":0,"byteLength":288,"byteOffset":740016,"target":34962},{"buffer":0,"byteLength":192,"byteOffset":740304,"target":34962},{"buffer":0,"byteLength":300,"byteOffset":740496,"target":34963},{"buffer":0,"byteLength":1896,"byteOffset":740796,"target":34962},{"buffer":0,"byteLength":1896,"byteOffset":742692,"target":34962},{"buffer":0,"byteLength":1264,"byteOffset":744588,"target":34962},{"buffer":0,"byteLength":84,"byteOffset":745852,"target":34963},{"buffer":0,"byteLength":720,"byteOffset":745936,"target":34962},{"buffer":0,"byteLength":720,"byteOffset":746656,"target":34962},{"buffer":0,"byteLength":480,"byteOffset":747376,"target":34962},{"buffer":0,"byteLength":7128,"byteOffset":747856,"target":34963},{"buffer":0,"byteLength":16632,"byteOffset":754984,"target":34962},{"buffer":0,"byteLength":16632,"byteOffset":771616,"target":34962},{"buffer":0,"byteLength":11088,"byteOffset":788248,"target":34962},{"buffer":0,"byteLength":1500,"byteOffset":799336,"target":34963},{"buffer":0,"byteLength":5148,"byteOffset":800836,"target":34962},{"buffer":0,"byteLength":5148,"byteOffset":805984,"target":34962},{"buffer":0,"byteLength":3432,"byteOffset":811132,"target":34962},{"buffer":0,"byteLength":12,"byteOffset":814564,"target":34963},{"buffer":0,"byteLength":144,"byteOffset":814576,"target":34962},{"buffer":0,"byteLength":144,"byteOffset":814720,"target":34962},{"buffer":0,"byteLength":96,"byteOffset":814864,"target":34962},{"buffer":0,"byteLength":288,"byteOffset":814960,"target":34963},{"buffer":0,"byteLength":2304,"byteOffset":815248,"target":34962},{"buffer":0,"byteLength":2304,"byteOffset":817552,"target":34962},{"buffer":0,"byteLength":1536,"byteOffset":819856,"target":34962},{"buffer":0,"byteLength":576,"byteOffset":821392,"target":34963},{"buffer":0,"byteLength":2304,"byteOffset":821968,"target":34962},{"buffer":0,"byteLength":2304,"byteOffset":824272,"target":34962},{"buffer":0,"byteLength":1536,"byteOffset":826576,"target":34962},{"buffer":0,"byteLength":13248,"byteOffset":828112,"target":34963},{"buffer":0,"byteLength":14448,"byteOffset":841360,"target":34962},{"buffer":0,"byteLength":14448,"byteOffset":855808,"target":34962},{"buffer":0,"byteLength":9632,"byteOffset":870256,"target":34962},{"buffer":0,"byteLength":288,"byteOffset":879888,"target":34963},{"buffer":0,"byteLength":1152,"byteOffset":880176,"target":34962},{"buffer":0,"byteLength":1152,"byteOffset":881328,"target":34962},{"buffer":0,"byteLength":768,"byteOffset":882480,"target":34962},{"buffer":0,"byteLength":54,"byteOffset":883248,"target":34963},{"buffer":0,"byteLength":240,"byteOffset":883304,"target":34962},{"buffer":0,"byteLength":240,"byteOffset":883544,"target":34962},{"buffer":0,"byteLength":160,"byteOffset":883784,"target":34962},{"buffer":0,"byteLength":264,"byteOffset":883944,"target":34963},{"buffer":0,"byteLength":1992,"byteOffset":884208,"target":34962},{"buffer":0,"byteLength":1992,"byteOffset":886200,"target":34962},{"buffer":0,"byteLength":1328,"byteOffset":888192,"target":34962},{"buffer":0,"byteLength":84,"byteOffset":889520,"target":34963},{"buffer":0,"byteLength":384,"byteOffset":889604,"target":34962},{"buffer":0,"byteLength":384,"byteOffset":889988,"target":34962},{"buffer":0,"byteLength":256,"byteOffset":890372,"target":34962},{"buffer":0,"byteLength":51,"byteOffset":890628,"target":34963},{"buffer":0,"byteLength":300,"byteOffset":890680,"target":34962},{"buffer":0,"byteLength":300,"byteOffset":890980,"target":34962},{"buffer":0,"byteLength":200,"byteOffset":891280,"target":34962},{"buffer":0,"byteLength":192,"byteOffset":891480,"target":34963},{"buffer":0,"byteLength":1008,"byteOffset":891672,"target":34962},{"buffer":0,"byteLength":1008,"byteOffset":892680,"target":34962},{"buffer":0,"byteLength":672,"byteOffset":893688,"target":34962},{"buffer":0,"byteLength":3684,"byteOffset":894360,"target":34963},{"buffer":0,"byteLength":6624,"byteOffset":898044,"target":34962},{"buffer":0,"byteLength":6624,"byteOffset":904668,"target":34962},{"buffer":0,"byteLength":4416,"byteOffset":911292,"target":34962},{"buffer":0,"byteLength":36294,"byteOffset":915708,"target":34963},{"buffer":0,"byteLength":147492,"byteOffset":952004,"target":34962},{"buffer":0,"byteLength":147492,"byteOffset":1099496,"target":34962},{"buffer":0,"byteLength":98328,"byteOffset":1246988,"target":34962},{"buffer":0,"byteLength":12564,"byteOffset":1345316,"target":34963},{"buffer":0,"byteLength":15612,"byteOffset":1357880,"target":34962},{"buffer":0,"byteLength":15612,"byteOffset":1373492,"target":34962},{"buffer":0,"byteLength":10408,"byteOffset":1389104,"target":34962},{"buffer":1,"byteOffset":0,"byteLength":3384,"target":34962},{"buffer":1,"byteOffset":3384,"byteLength":3384,"target":34962},{"buffer":1,"byteOffset":6768,"byteLength":864,"target":34962},{"buffer":1,"byteOffset":7632,"byteLength":864,"target":34962},{"buffer":1,"byteOffset":8496,"byteLength":576,"target":34962}],"buffers":[{"byteLength":1399512,"extras":{},"uri":"../b703-v1-0.bin"},{"uri":"b703-tail-v1.bin","byteLength":9072}],"images":[{"bufferView":0,"mimeType":"image/png","extras":{}},{"bufferView":1,"mimeType":"image/png","extras":{}},{"uri":"../../../airlines/EZY.png"}],"materials":[{"name":"ac3dmat1","pbrMetallicRoughness":{"baseColorFactor":[0.800000011920929,0.800000011920929,0.800000011920929,1],"baseColorTexture":{"index":0},"metallicFactor":0}},{"emissiveFactor":[0.028096784846436296,0.028096784846436296,0.028096784846436296],"name":"ac3dmat1.001","pbrMetallicRoughness":{"baseColorFactor":[0.09098000065952538,0.09098000065952538,0.09098000065952538,1],"baseColorTexture":{"index":1},"metallicFactor":0}},{"name":"ac3dmat1.002","pbrMetallicRoughness":{"baseColorFactor":[0.800000011920929,0.800000011920929,0.800000011920929,1],"baseColorTexture":{"index":0},"metallicFactor":0}},{"name":"ac3dmat1.003","pbrMetallicRoughness":{"baseColorFactor":[0.800000011920929,0.800000011920929,0.800000011920929,1],"metallicFactor":0}},{"name":"ac3dmat1.004","pbrMetallicRoughness":{"baseColorFactor":[0.800000011920929,0.800000011920929,0.800000011920929,1],"metallicFactor":0}},{"name":"ac3dmat12","pbrMetallicRoughness":{"baseColorFactor":[0.21333360989888916,0.21333360989888916,0.21333360989888916,1],"metallicFactor":0}},{"name":"ac3dmat12.001","pbrMetallicRoughness":{"baseColorFactor":[0.21333360989888916,0.21333360989888916,0.21333360989888916,1],"metallicFactor":0}},{"name":"ac3dmat13","pbrMetallicRoughness":{"baseColorFactor":[0.4266664091745973,0.4266664091745973,0.4266664091745973,1],"baseColorTexture":{"index":0},"metallicFactor":0}},{"name":"ac3dmat13.001","pbrMetallicRoughness":{"baseColorFactor":[0.4266664091745973,0.4266664091745973,0.4266664091745973,1],"metallicFactor":0}},{"name":"ac3dmat13.002","pbrMetallicRoughness":{"baseColorFactor":[0.4015999853849408,0.4015999853849408,0.4015999853849408,1],"metallicFactor":0}},{"name":"ac3dmat13.004","pbrMetallicRoughness":{"baseColorFactor":[0.32000000953674324,0.32000000953674324,0.32000000953674324,1],"metallicFactor":0}},{"name":"ac3dmat13.005","pbrMetallicRoughness":{"baseColorFactor":[0.4266664091745973,0.4266664091745973,0.4266664091745973,1],"metallicFactor":0}},{"emissiveFactor":[0.0005680000455752024,0.0005680000455752024,0.0005680000455752024],"name":"ac3dmat14","pbrMetallicRoughness":{"baseColorFactor":[0.0568000027060509,0.0568000027060509,0.0568000027060509,1],"metallicFactor":0}},{"name":"ac3dmat14.001","pbrMetallicRoughness":{"baseColorFactor":[0.5616000259160998,0.5616000259160998,0.5616000259160998,1],"metallicFactor":0}},{"name":"ac3dmat14.002","pbrMetallicRoughness":{"baseColorFactor":[0.6400000190734865,0.6400000190734865,0.6400000190734865,1],"metallicFactor":0}},{"emissiveFactor":[0.3333333432674408,0,0],"name":"ac3dmat3","pbrMetallicRoughness":{"baseColorFactor":[0.800000011920929,0,0,1],"metallicFactor":0}},{"name":"ac3dmat6","pbrMetallicRoughness":{"baseColorFactor":[0,0.800000011920929,0,1],"metallicFactor":0}},{"name":"DefaultWhite.004","pbrMetallicRoughness":{"baseColorFactor":[0.800000011920929,0.800000011920929,0.800000011920929,1],"metallicFactor":0}},{"name":"fuselage_paint","pbrMetallicRoughness":{"baseColorFactor":[0.6840000254511835,0.6840000254511835,0.6840000254511835,1],"baseColorTexture":{"index":0},"metallicFactor":0}},{"name":"glass","pbrMetallicRoughness":{"baseColorFactor":[0.6711999993205069,0.6776000123858452,0.7087999926328656,1],"baseColorTexture":{"index":0},"metallicFactor":0}},{"emissiveFactor":[0.8496666550636292,0.8496666550636292,0.44012733299509676],"name":"iluminacaonoturna","pbrMetallicRoughness":{"baseColorFactor":[0.800000011920929,0.800000011920929,0.41440001151561745,1],"metallicFactor":0}},{"name":"Operator tail paint","doubleSided":true,"pbrMetallicRoughness":{"baseColorFactor":[0.9450980392156862,0.4196078431372549,0.13333333333333333,1],"metallicFactor":0,"roughnessFactor":0.65}},{"name":"Operator logo identification","doubleSided":true,"alphaMode":"BLEND","pbrMetallicRoughness":{"baseColorTexture":{"index":2},"metallicFactor":0,"roughnessFactor":0.7},"emissiveFactor":[0.18,0.18,0.18],"emissiveTexture":{"index":2}}],"meshes":[{"name":"fuselage.mesh","primitives":[{"attributes":{"NORMAL":2,"POSITION":1,"TEXCOORD_0":3},"indices":0,"material":8},{"attributes":{"NORMAL":6,"POSITION":5,"TEXCOORD_0":7},"indices":4,"material":10},{"attributes":{"NORMAL":10,"POSITION":9,"TEXCOORD_0":11},"indices":8,"material":6},{"attributes":{"NORMAL":14,"POSITION":13,"TEXCOORD_0":15},"indices":12,"material":19},{"attributes":{"NORMAL":18,"POSITION":17,"TEXCOORD_0":19},"indices":16,"material":13},{"attributes":{"NORMAL":22,"POSITION":21,"TEXCOORD_0":23},"indices":20,"material":15},{"attributes":{"NORMAL":26,"POSITION":25,"TEXCOORD_0":27},"indices":24,"material":20},{"attributes":{"NORMAL":30,"POSITION":29,"TEXCOORD_0":31},"indices":28,"material":2},{"attributes":{"NORMAL":34,"POSITION":33,"TEXCOORD_0":35},"indices":32,"material":16},{"attributes":{"NORMAL":38,"POSITION":37,"TEXCOORD_0":39},"indices":36,"material":17},{"attributes":{"NORMAL":42,"POSITION":41,"TEXCOORD_0":43},"indices":40,"material":5},{"attributes":{"NORMAL":46,"POSITION":45,"TEXCOORD_0":47},"indices":44,"material":7},{"attributes":{"NORMAL":50,"POSITION":49,"TEXCOORD_0":51},"indices":48,"material":11},{"attributes":{"NORMAL":54,"POSITION":53,"TEXCOORD_0":55},"indices":52,"material":1},{"attributes":{"NORMAL":58,"POSITION":57,"TEXCOORD_0":59},"indices":56,"material":14},{"attributes":{"NORMAL":62,"POSITION":61,"TEXCOORD_0":63},"indices":60,"material":4},{"attributes":{"NORMAL":66,"POSITION":65,"TEXCOORD_0":67},"indices":64,"material":3},{"attributes":{"NORMAL":70,"POSITION":69,"TEXCOORD_0":71},"indices":68,"material":0},{"attributes":{"NORMAL":74,"POSITION":73,"TEXCOORD_0":75},"indices":72,"material":18},{"attributes":{"NORMAL":78,"POSITION":77,"TEXCOORD_0":79},"indices":76,"material":12},{"attributes":{"NORMAL":82,"POSITION":81,"TEXCOORD_0":83},"indices":80,"material":9}]},{"name":"Airline tail surface overlay","primitives":[{"attributes":{"POSITION":84,"NORMAL":85},"material":21},{"attributes":{"POSITION":86,"NORMAL":87,"TEXCOORD_0":88},"material":22}]}],"nodes":[{"children":[2],"name":"FrtGear.001"},{"mesh":0,"name":"fuselage"},{"name":"Fuselage.003"},{"name":"SkywardCoordinateAlignment","matrix":[1,0,0,0,0,1,0,0,0,0,1,0,0,0,0,1],"children":[1,0]},{"name":"AirlineTailBranding","mesh":1}],"samplers":[{},{"magFilter":9729,"minFilter":9987,"wrapS":33071,"wrapT":33071}],"scene":0,"scenes":[{"name":"Scene","nodes":[3,4]}],"textures":[{"sampler":0,"source":0},{"sampler":0,"source":1},{"source":2,"sampler":1}],"extras":{"skyward":{"source":"https://github.com/Ysurac/FlightAirMap-3dmodels","commit":"0906d9ba1bdd906ce45807e45ed706c09912db19","changes":"Converted legacy glTF to glTF 2.0 with Cesium; rigid axis alignment, horizontal centering, and source transforms baked into positions/normals for correct Cesium bounds. Original shape, materials and paint retained. Added surface-following operator tail paint and unmodified identification-logo texture. Branding is illustrative, not a registration-specific livery.","license":"GPL-3.0","sourceFiles":["source/flightairmap/b707/707.blend","source/flightairmap/b707/707.png.001.png","source/flightairmap/b707/LICENCE.txt","source/flightairmap/b707/misc.png.001.png"],"operator":"EZY"}}}