{"accessors":[{"bufferView":11,"byteOffset":55110,"componentType":5123,"count":180,"type":"SCALAR","name":"accessor_1013"},{"bufferView":82,"byteOffset":0,"componentType":5126,"count":180,"max":[11.953700065612793,20.367599487304688,0.7133709788322449],"min":[7.261669635772705,11.690400123596191,-0.1562349945306778],"type":"VEC3","name":"accessor_1015"},{"bufferView":82,"byteOffset":2160,"componentType":5126,"count":180,"max":[0.7101190090179443,0.8963860273361206,0.9899789690971375],"min":[-0.6635630130767822,-0.8959460258483887,-0.9923819899559021],"type":"VEC3","name":"accessor_1017"},{"bufferView":83,"byteOffset":0,"componentType":5126,"count":180,"max":[0.6362339854240417,0.617900013923645],"min":[0.4945319890975952,0.5865490436553955],"type":"VEC2","name":"accessor_1019"},{"bufferView":11,"byteOffset":4218,"componentType":5123,"count":7500,"type":"SCALAR","name":"accessor_102"},{"bufferView":18,"byteOffset":0,"componentType":5126,"count":7500,"max":[37.55759811401367,3.104059934616089,3.446460008621216],"min":[-25.350799560546875,-3.104059934616089,-3.7236897945404053],"type":"VEC3","name":"accessor_104"},{"bufferView":11,"byteOffset":55542,"componentType":5123,"count":1980,"type":"SCALAR","name":"accessor_1040"},{"bufferView":86,"byteOffset":0,"componentType":5126,"count":1980,"max":[-3.165059804916382,11.351799964904785,-1.5359299182891846],"min":[-3.490229845046997,8.436180114746094,-4.4515700340271],"type":"VEC3","name":"accessor_1042"},{"bufferView":86,"byteOffset":23760,"componentType":5126,"count":1980,"max":[-0.6291810274124146,0.7752519845962524,0.7751280069351196],"min":[-1,-0.7751150131225586,-0.7751299738883972],"type":"VEC3","name":"accessor_1044"},{"bufferView":87,"byteOffset":0,"componentType":5126,"count":1980,"max":[0.22167499363422394,0.14129900932312012],"min":[0.0044249300844967365,0.004889011383056641],"type":"VEC2","name":"accessor_1046"},{"bufferView":18,"byteOffset":90000,"componentType":5126,"count":7500,"max":[1,1,1],"min":[-1,-1,-1],"type":"VEC3","name":"accessor_106"},{"bufferView":11,"byteOffset":59502,"componentType":5123,"count":90,"type":"SCALAR","name":"accessor_1067"},{"bufferView":88,"byteOffset":0,"componentType":5126,"count":90,"max":[9.080649375915527,7.8618998527526855,-0.660789966583252],"min":[7.351619720458984,3.2808799743652344,-1.5702799558639526],"type":"VEC3","name":"accessor_1069"},{"bufferView":88,"byteOffset":1080,"componentType":5126,"count":90,"max":[0.8388339877128601,0.7589830160140991,0.7753270268440247],"min":[-0.8205909729003906,-0.9996089935302734,-0.7532680034637451],"type":"VEC3","name":"accessor_1071"},{"bufferView":89,"byteOffset":0,"componentType":5126,"count":90,"max":[0.7689639925956726,0.8143659830093384],"min":[0.019550900906324387,0.7745310068130493],"type":"VEC2","name":"accessor_1073"},{"bufferView":19,"byteOffset":0,"componentType":5126,"count":7500,"max":[0.9963600039482117,0.4942359924316406],"min":[0.00261026993393898,0.09144800901412964],"type":"VEC2","name":"accessor_108"},{"bufferView":11,"byteOffset":59682,"componentType":5123,"count":90,"type":"SCALAR","name":"accessor_1094"},{"bufferView":90,"byteOffset":0,"componentType":5126,"count":90,"max":[9.844249725341797,7.872399806976318,-0.923937976360321],"min":[8.115229606628418,3.2808799743652344,-1.812749981880188],"type":"VEC3","name":"accessor_1096"},{"bufferView":90,"byteOffset":1080,"componentType":5126,"count":90,"max":[0.8349149823188782,0.7510749697685242,0.7661809921264648],"min":[-0.8260679841041565,-0.999422013759613,-0.7656909823417664],"type":"VEC3","name":"accessor_1098"},{"bufferView":91,"byteOffset":0,"componentType":5126,"count":90,"max":[0.7843210101127625,0.8190410137176514],"min":[0.7150819897651672,0.759223997592926],"type":"VEC2","name":"accessor_1100"},{"bufferView":11,"byteOffset":59934,"componentType":5123,"count":60,"type":"SCALAR","name":"accessor_1138"},{"bufferView":11,"byteOffset":60054,"componentType":5123,"count":408,"type":"SCALAR","name":"accessor_1141"},{"bufferView":94,"byteOffset":0,"componentType":5126,"count":468,"max":[13.509099960327148,21.049598693847656,0.708636999130249],"min":[7.478359699249268,11.075200080871582,-1.278980016708374],"type":"VEC3","name":"accessor_1143"},{"bufferView":94,"byteOffset":5616,"componentType":5126,"count":468,"max":[0.9876629710197449,0.9997439980506897,0.7638739943504333],"min":[-0.8857229948043823,-0.9926689863204956,-0.9520440101623535],"type":"VEC3","name":"accessor_1145"},{"bufferView":95,"byteOffset":0,"componentType":5126,"count":468,"max":[0.6054319739341736,0.7430469989776611],"min":[0.018135501071810722,0.6372259855270386],"type":"VEC2","name":"accessor_1147"},{"bufferView":11,"byteOffset":59862,"componentType":5123,"count":36,"type":"SCALAR","name":"accessor_1168"},{"bufferView":92,"byteOffset":0,"componentType":5126,"count":36,"max":[13.967000961303711,21.026498794555664,0.5708580017089844],"min":[13.38379955291748,20.979799270629883,0.524154007434845],"type":"VEC3","name":"accessor_1170"},{"bufferView":92,"byteOffset":432,"componentType":5126,"count":36,"max":[1,1,1],"min":[-1,-1,-1],"type":"VEC3","name":"accessor_1172"},{"bufferView":93,"byteOffset":0,"componentType":5126,"count":36,"max":[1,1],"min":[0,0],"type":"VEC2","name":"accessor_1174"},{"bufferView":11,"byteOffset":60870,"componentType":5123,"count":84,"type":"SCALAR","name":"accessor_1195"},{"bufferView":96,"byteOffset":0,"componentType":5126,"count":84,"max":[9.844249725341797,11.045700073242188,-0.27278199791908264],"min":[7.654439926147461,7.92147970199585,-1.0232099294662476],"type":"VEC3","name":"accessor_1197"},{"bufferView":96,"byteOffset":1008,"componentType":5126,"count":84,"max":[0.8349649906158447,0.750186026096344,0.7701539993286133],"min":[-0.8045759797096252,-0.7431989908218384,-0.7631269693374634],"type":"VEC3","name":"accessor_1199"},{"bufferView":97,"byteOffset":0,"componentType":5126,"count":84,"max":[0.6677719950675964,0.7384179830551147],"min":[0.6190000176429749,0.6928930282592773],"type":"VEC2","name":"accessor_1201"},{"bufferView":11,"byteOffset":61038,"componentType":5123,"count":186,"type":"SCALAR","name":"accessor_1222"},{"bufferView":98,"byteOffset":0,"componentType":5126,"count":186,"max":[8.690400123596191,3.082669973373413,-1.9506299495697021],"min":[3.995189905166626,0.2973549962043762,-3.434890031814575],"type":"VEC3","name":"accessor_1224"},{"bufferView":98,"byteOffset":2232,"componentType":5126,"count":186,"max":[0.7447819709777832,0.9603959918022156,0.7727739810943604],"min":[-0.7458360195159912,-0.713096022605896,-0.7230409979820251],"type":"VEC3","name":"accessor_1226"},{"bufferView":99,"byteOffset":0,"componentType":5126,"count":186,"max":[0.5335649847984314,0.4954860210418701],"min":[0.008630329743027687,0.07755100727081299],"type":"VEC2","name":"accessor_1228"},{"bufferView":11,"byteOffset":61410,"componentType":5123,"count":54,"type":"SCALAR","name":"accessor_1249"},{"bufferView":100,"byteOffset":0,"componentType":5126,"count":54,"max":[6.182409763336182,4.008150100708008,-1.9884599447250366],"min":[5.60522985458374,3.0592799186706543,-2.2238199710845947],"type":"VEC3","name":"accessor_1251"},{"bufferView":100,"byteOffset":648,"componentType":5126,"count":54,"max":[0.9115819931030273,0.39814499020576477,0.9816809892654419],"min":[-0.978007972240448,-0.9646390080451965,-0.9816809892654419],"type":"VEC3","name":"accessor_1253"},{"bufferView":101,"byteOffset":0,"componentType":5126,"count":54,"max":[0.20013700425624847,0.7679240107536316],"min":[0.1757960021495819,0.7440400123596191],"type":"VEC2","name":"accessor_1255"},{"bufferView":11,"byteOffset":61518,"componentType":5123,"count":372,"type":"SCALAR","name":"accessor_1276"},{"bufferView":102,"byteOffset":0,"componentType":5126,"count":372,"max":[15.17959976196289,30.121198654174805,1.6210099458694458],"min":[1.7691199779510498,11.130599975585938,-0.739162027835846],"type":"VEC3","name":"accessor_1278"},{"bufferView":102,"byteOffset":4464,"componentType":5126,"count":372,"max":[0.9316139817237854,0.9843659996986389,0.9879679679870605],"min":[-0.9055879712104797,-0.9843649864196777,-0.9839820265769958],"type":"VEC3","name":"accessor_1280"},{"bufferView":103,"byteOffset":0,"componentType":5126,"count":372,"max":[0,1],"min":[0,1],"type":"VEC2","name":"accessor_1282"},{"bufferView":11,"byteOffset":2688,"componentType":5123,"count":639,"type":"SCALAR","name":"accessor_129"},{"bufferView":14,"byteOffset":0,"componentType":5126,"count":639,"max":[-20.258499145507812,2.1460700035095215,1.9933899641036987],"min":[-24.075498580932617,-2.1460700035095215,-0.5677499771118164],"type":"VEC3","name":"accessor_131"},{"bufferView":11,"byteOffset":62262,"componentType":5123,"count":1116,"type":"SCALAR","name":"accessor_1320"},{"bufferView":11,"byteOffset":64494,"componentType":5123,"count":108,"type":"SCALAR","name":"accessor_1323"},{"bufferView":104,"byteOffset":0,"componentType":5126,"count":1224,"max":[38.027000427246094,0.1726350039243698,12.35789966583252],"min":[31.173898696899414,-0.17287400364875793,2.336519956588745],"type":"VEC3","name":"accessor_1325"},{"bufferView":104,"byteOffset":14688,"componentType":5126,"count":1224,"max":[1,1,1],"min":[-1,-1,-1],"type":"VEC3","name":"accessor_1327"},{"bufferView":105,"byteOffset":0,"componentType":5126,"count":1224,"max":[1.0009700059890747,0.4034780263900757],"min":[-0.002179620089009404,0.0056040287017822266],"type":"VEC2","name":"accessor_1329"},{"bufferView":14,"byteOffset":7668,"componentType":5126,"count":639,"max":[0.8389019966125488,0.9858859777450562,0.7279160022735596],"min":[-0.6898630261421204,-0.9858859777450562,-0.98573899269104],"type":"VEC3","name":"accessor_133"},{"bufferView":15,"byteOffset":0,"componentType":5126,"count":639,"max":[0,1],"min":[0,1],"type":"VEC2","name":"accessor_135"},{"bufferView":11,"byteOffset":64710,"componentType":5123,"count":36,"type":"SCALAR","name":"accessor_1350"},{"bufferView":106,"byteOffset":0,"componentType":5126,"count":36,"max":[6.928269863128662,6.0346999168396,-1.569219946861267],"min":[5.8515496253967285,5.192269802093506,-1.8340699672698975],"type":"VEC3","name":"accessor_1352"},{"bufferView":106,"byteOffset":432,"componentType":5126,"count":36,"max":[0.9779539704322815,0.9906859993934631,0.9815170168876648],"min":[-0.9156579971313477,-0.9907249808311462,-0.9815170168876648],"type":"VEC3","name":"accessor_1354"},{"bufferView":107,"byteOffset":0,"componentType":5126,"count":36,"max":[0.2623080015182495,0.7900260090827942],"min":[0.22860799729824066,0.7605479955673218],"type":"VEC2","name":"accessor_1356"},{"bufferView":11,"byteOffset":64782,"componentType":5123,"count":72,"type":"SCALAR","name":"accessor_1377"},{"bufferView":108,"byteOffset":0,"componentType":5126,"count":72,"max":[-23.49650001525879,0.9628739953041077,0.5617309808731079],"min":[-24.022001266479492,0.19936199486255646,0.5083709955215454],"type":"VEC3","name":"accessor_1379"},{"bufferView":108,"byteOffset":864,"componentType":5126,"count":72,"max":[0.9229599833488464,0.9371240139007568,0.9412639737129211],"min":[-0.9218109846115112,-0.937034010887146,-0.9412469863891602],"type":"VEC3","name":"accessor_1381"},{"bufferView":109,"byteOffset":0,"componentType":5126,"count":72,"max":[1,1],"min":[0,0],"type":"VEC2","name":"accessor_1383"},{"bufferView":11,"byteOffset":64926,"componentType":5123,"count":156,"type":"SCALAR","name":"accessor_1404"},{"bufferView":110,"byteOffset":0,"componentType":5126,"count":156,"max":[36.5182991027832,0.5055410265922546,12.35789966583252],"min":[23.30259895324707,-0.5053619742393494,2.5569398403167725],"type":"VEC3","name":"accessor_1406"},{"bufferView":110,"byteOffset":1872,"componentType":5126,"count":156,"max":[0.7377110123634338,0.9957919716835022,1],"min":[-0.9489359855651855,-0.9957999587059021,-1],"type":"VEC3","name":"accessor_1408"},{"bufferView":111,"byteOffset":0,"componentType":5126,"count":156,"max":[0.9771639704704285,0.3999750018119812],"min":[0.021613700315356255,0.005635976791381836],"type":"VEC2","name":"accessor_1410"},{"bufferView":11,"byteOffset":65238,"componentType":5123,"count":60,"type":"SCALAR","name":"accessor_1431"},{"bufferView":112,"byteOffset":0,"componentType":5126,"count":60,"max":[0.2586449980735779,8.45298957824707,-0.7102980017662048],"min":[-3.100369930267334,-8.45298957824707,-1.8766099214553833],"type":"VEC3","name":"accessor_1433"},{"bufferView":112,"byteOffset":720,"componentType":5126,"count":60,"max":[-0.42139700055122375,0.5885699987411499,0.8694220185279846],"min":[-0.8067629933357239,-0.5885699987411499,-0.8053550124168396],"type":"VEC3","name":"accessor_1435"},{"bufferView":113,"byteOffset":0,"componentType":5126,"count":60,"max":[0,1],"min":[0,1],"type":"VEC2","name":"accessor_1437"},{"bufferView":11,"byteOffset":65358,"componentType":5123,"count":60,"type":"SCALAR","name":"accessor_1458"},{"bufferView":114,"byteOffset":0,"componentType":5126,"count":60,"max":[-19.02589988708496,0.5551440119743347,-1.348289966583252],"min":[-22.61709976196289,-0.5551440119743347,-2.942610025405884],"type":"VEC3","name":"accessor_1460"},{"bufferView":114,"byteOffset":720,"componentType":5126,"count":60,"max":[0.9999430179595947,0.9993939995765686,0.010688399896025658],"min":[-1,-0.9993939995765686,-0.7069849967956543],"type":"VEC3","name":"accessor_1462"},{"bufferView":115,"byteOffset":0,"componentType":5126,"count":60,"max":[0.021726399660110474,0.13361001014709473],"min":[0.006552820093929768,0.09943097829818726],"type":"VEC2","name":"accessor_1464"},{"bufferView":11,"byteOffset":65862,"componentType":5123,"count":2346,"type":"SCALAR","name":"accessor_1502"},{"bufferView":11,"byteOffset":70554,"componentType":5123,"count":912,"type":"SCALAR","name":"accessor_1505"},{"bufferView":118,"byteOffset":0,"componentType":5126,"count":3258,"max":[17.047199249267578,30.358699798583984,1.6510599851608276],"min":[-3.9056999683380127,-30.358699798583984,-2.728839874267578],"type":"VEC3","name":"accessor_1507"},{"bufferView":118,"byteOffset":39096,"componentType":5126,"count":3258,"max":[1,1,0.9976739883422852],"min":[-1,-1,-0.9930980205535889],"type":"VEC3","name":"accessor_1509"},{"bufferView":119,"byteOffset":0,"componentType":5126,"count":3258,"max":[1,1],"min":[0,-0.1351299285888672],"type":"VEC2","name":"accessor_1511"},{"bufferView":11,"byteOffset":65478,"componentType":5123,"count":192,"type":"SCALAR","name":"accessor_1532"},{"bufferView":116,"byteOffset":0,"componentType":5126,"count":192,"max":[7.5164899826049805,6.0346999168396,-1.1693699359893799],"min":[5.570970058441162,-6.0346999168396,-2.2238199710845947],"type":"VEC3","name":"accessor_1534"},{"bufferView":116,"byteOffset":2304,"componentType":5126,"count":192,"max":[0.9995309710502625,0.8239880204200745,0],"min":[-0.9867129921913147,-0.8239880204200745,-0.9440940022468567],"type":"VEC3","name":"accessor_1536"},{"bufferView":117,"byteOffset":0,"componentType":5126,"count":192,"max":[0.02035669982433319,0.133355975151062],"min":[0.004369849804788828,0.09026402235031128],"type":"VEC2","name":"accessor_1538"},{"bufferView":11,"byteOffset":72378,"componentType":5123,"count":420,"type":"SCALAR","name":"accessor_1559"},{"bufferView":11,"byteOffset":3966,"componentType":5123,"count":126,"type":"SCALAR","name":"accessor_156"},{"bufferView":120,"byteOffset":0,"componentType":5126,"count":420,"max":[9.614389419555664,8.150659561157227,-1.1807799339294434],"min":[6.718259811401367,-8.150659561157227,-2.1685099601745605],"type":"VEC3","name":"accessor_1561"},{"bufferView":120,"byteOffset":5040,"componentType":5126,"count":420,"max":[0.9272630214691162,0.9994589686393738,0.7807859778404236],"min":[-0.046480800956487656,-0.9994589686393738,-0.9139419794082642],"type":"VEC3","name":"accessor_1563"},{"bufferView":121,"byteOffset":0,"componentType":5126,"count":420,"max":[0.052750300616025925,0.6962230205535889],"min":[0.020642999559640884,0.6270120143890381],"type":"VEC2","name":"accessor_1565"},{"bufferView":16,"byteOffset":0,"componentType":5126,"count":126,"max":[8.694479942321777,3.0646698474884033,-1.428879976272583],"min":[3.9911699295043945,-3.0646698474884033,-3.3790299892425537],"type":"VEC3","name":"accessor_158"},{"bufferView":16,"byteOffset":1512,"componentType":5126,"count":126,"max":[1,0.7062320113182068,0.012063100002706051],"min":[-1,-0.7045310139656067,-0.991566002368927],"type":"VEC3","name":"accessor_160"},{"bufferView":17,"byteOffset":0,"componentType":5126,"count":126,"max":[0.0220039002597332,0.1355609893798828],"min":[0.00539373978972435,0.08382302522659302],"type":"VEC2","name":"accessor_162"},{"bufferView":11,"byteOffset":19218,"componentType":5123,"count":72,"type":"SCALAR","name":"accessor_183"},{"bufferView":20,"byteOffset":0,"componentType":5126,"count":72,"max":[-22.19369888305664,1.8214099407196045,1.0339699983596802],"min":[-24.034698486328125,-1.8214099407196045,0.39804598689079285],"type":"VEC3","name":"accessor_185"},{"bufferView":20,"byteOffset":864,"componentType":5126,"count":72,"max":[-0.34320300817489624,0.8305509686470032,0.6393110156059265],"min":[-0.7042670249938965,-0.830752968788147,0.4138660132884979],"type":"VEC3","name":"accessor_187"},{"bufferView":21,"byteOffset":0,"componentType":5126,"count":72,"max":[0,1],"min":[0,1],"type":"VEC2","name":"accessor_189"},{"bufferView":11,"byteOffset":35328,"componentType":5123,"count":4032,"type":"SCALAR","name":"accessor_21"},{"bufferView":11,"byteOffset":19362,"componentType":5123,"count":1344,"type":"SCALAR","name":"accessor_210"},{"bufferView":22,"byteOffset":0,"componentType":5126,"count":1344,"max":[-3.0471999645233154,11.361700057983398,-1.5261799097061157],"min":[-4.049369812011719,-11.361700057983398,-4.461339950561523],"type":"VEC3","name":"accessor_212"},{"bufferView":22,"byteOffset":16128,"componentType":5126,"count":1344,"max":[0,1,1],"min":[-1,-1,-1],"type":"VEC3","name":"accessor_214"},{"bufferView":23,"byteOffset":0,"componentType":5126,"count":1344,"max":[0.07040470093488693,0.13214701414108276],"min":[0.004734280053526163,0.08454900979995728],"type":"VEC2","name":"accessor_216"},{"bufferView":64,"byteOffset":0,"componentType":5126,"count":4032,"max":[4.378580093383789,11.764800071716309,-1.1229199171066284],"min":[-4.017620086669922,-11.764899253845215,-4.864579677581787],"type":"VEC3","name":"accessor_23"},{"bufferView":11,"byteOffset":22050,"componentType":5123,"count":60,"type":"SCALAR","name":"accessor_237"},{"bufferView":24,"byteOffset":0,"componentType":5126,"count":60,"max":[-20.409000396728516,0.0030589699745178223,-2.237220048904419],"min":[-22.606800079345703,-0.5287619829177856,-2.748539924621582],"type":"VEC3","name":"accessor_239"},{"bufferView":24,"byteOffset":720,"componentType":5126,"count":60,"max":[0.6604729890823364,0.7893450260162354,0.761014997959137],"min":[-0.7162299752235413,-0.7674019932746887,-0.7686830163002014],"type":"VEC3","name":"accessor_241"},{"bufferView":25,"byteOffset":0,"componentType":5126,"count":60,"max":[0.9534029960632324,0.49763500690460205],"min":[0.9186090230941772,0.4896309971809387],"type":"VEC2","name":"accessor_243"},{"bufferView":64,"byteOffset":48384,"componentType":5126,"count":4032,"max":[1,0.999770998954773,0.999770998954773],"min":[-0.2794950008392334,-0.9997720122337341,-0.999770998954773],"type":"VEC3","name":"accessor_25"},{"bufferView":11,"byteOffset":22170,"componentType":5123,"count":2112,"type":"SCALAR","name":"accessor_264"},{"bufferView":26,"byteOffset":0,"componentType":5126,"count":2112,"max":[-3.6323599815368652,-8.169400215148926,-1.2696399688720703],"min":[-4.151879787445068,-11.619199752807617,-4.715869903564453],"type":"VEC3","name":"accessor_266"},{"bufferView":26,"byteOffset":25344,"componentType":5126,"count":2112,"max":[-0.48055499792099,0.8602139949798584,0.8393949866294861],"min":[-0.9863539934158325,-0.8585320115089417,-0.8762419819831848],"type":"VEC3","name":"accessor_268"},{"bufferView":65,"byteOffset":0,"componentType":5126,"count":4032,"max":[0.8004599809646606,0.1295819878578186],"min":[0.26651298999786377,0.010802984237670898],"type":"VEC2","name":"accessor_27"},{"bufferView":27,"byteOffset":0,"componentType":5126,"count":2112,"max":[0,1],"min":[0,1],"type":"VEC2","name":"accessor_270"},{"bufferView":11,"byteOffset":26394,"componentType":5123,"count":204,"type":"SCALAR","name":"accessor_291"},{"bufferView":28,"byteOffset":0,"componentType":5126,"count":204,"max":[38.90340042114258,-0.6904000043869019,2.5449700355529785],"min":[33.20100021362305,-10.070799827575684,1.2062100172042847],"type":"VEC3","name":"accessor_293"},{"bufferView":28,"byteOffset":2448,"componentType":5126,"count":204,"max":[1,0.9700649976730347,0.9700520038604736],"min":[-1,-0.9700639843940735,-0.9700520038604736],"type":"VEC3","name":"accessor_295"},{"bufferView":29,"byteOffset":0,"componentType":5126,"count":204,"max":[0.9911860227584839,0.8630709648132324],"min":[0.92746502161026,0.747763991355896],"type":"VEC2","name":"accessor_297"},{"bufferView":11,"byteOffset":26802,"componentType":5123,"count":123,"type":"SCALAR","name":"accessor_318"},{"bufferView":30,"byteOffset":0,"componentType":5126,"count":123,"max":[39.079498291015625,-1.0246599912643433,2.612229824066162],"min":[28.986799240112305,-10.698399543762207,1.0602599382400513],"type":"VEC3","name":"accessor_320"},{"bufferView":30,"byteOffset":1476,"componentType":5126,"count":123,"max":[1,0.9696999788284302,0.9935719966888428],"min":[-1,-0.9989619851112366,-0.9918749928474426],"type":"VEC3","name":"accessor_322"},{"bufferView":31,"byteOffset":0,"componentType":5126,"count":123,"max":[0.9932199716567993,0.8713560104370117],"min":[0.8744890093803406,0.7517650127410889],"type":"VEC2","name":"accessor_324"},{"bufferView":11,"byteOffset":27048,"componentType":5123,"count":36,"type":"SCALAR","name":"accessor_345"},{"bufferView":32,"byteOffset":0,"componentType":5126,"count":36,"max":[-19.021699905395508,0.0029949499294161797,-2.667840003967285],"min":[-20.413700103759766,-0.5551440119743347,-2.942610025405884],"type":"VEC3","name":"accessor_347"},{"bufferView":32,"byteOffset":432,"componentType":5126,"count":36,"max":[0.649927020072937,0.6339139938354492,0.7043839693069458],"min":[-0.6550580263137817,-0.640362024307251,-0.7043690085411072],"type":"VEC3","name":"accessor_349"},{"bufferView":33,"byteOffset":0,"componentType":5126,"count":36,"max":[0.9186840057373047,0.49763399362564087],"min":[0.8966469764709473,0.48879802227020264],"type":"VEC2","name":"accessor_351"},{"bufferView":11,"byteOffset":27120,"componentType":5123,"count":252,"type":"SCALAR","name":"accessor_372"},{"bufferView":34,"byteOffset":0,"componentType":5126,"count":252,"max":[16.954999923706055,-21.0492000579834,1.5183799266815186],"min":[12.581399917602539,-29.53839874267578,0.4640139937400818],"type":"VEC3","name":"accessor_374"},{"bufferView":34,"byteOffset":3024,"componentType":5126,"count":252,"max":[1,0.9811779856681824,0.9795219898223877],"min":[-1,-0.9811720252037048,-0.9795219898223877],"type":"VEC3","name":"accessor_376"},{"bufferView":35,"byteOffset":0,"componentType":5126,"count":252,"max":[0.22285699844360352,0.6029170155525208],"min":[0.08673030138015747,0.571213960647583],"type":"VEC2","name":"accessor_378"},{"bufferView":11,"byteOffset":27624,"componentType":5123,"count":72,"type":"SCALAR","name":"accessor_399"},{"bufferView":36,"byteOffset":0,"componentType":5126,"count":72,"max":[-3.2750000953674316,3.9260499477386475,-1.3213599920272827],"min":[-3.543449878692627,-3.9260499477386475,-1.6833499670028687],"type":"VEC3","name":"accessor_401"},{"bufferView":36,"byteOffset":864,"componentType":5126,"count":72,"max":[-0.5529879927635193,0.5298629999160767,0.7093589901924133],"min":[-0.7137359976768494,-0.5298629999160767,-0.6823729872703552],"type":"VEC3","name":"accessor_403"},{"bufferView":37,"byteOffset":0,"componentType":5126,"count":72,"max":[0.6369159817695618,0.990831732749939],"min":[0.6147859692573547,0.9687014222145081],"type":"VEC2","name":"accessor_405"},{"bufferView":11,"byteOffset":28128,"componentType":5123,"count":36,"type":"SCALAR","name":"accessor_426"},{"bufferView":40,"byteOffset":0,"componentType":5126,"count":36,"max":[7.7589497566223145,-3.269469976425171,-0.47868600487709045],"min":[6.671849727630615,-8.363809585571289,-1.2768199443817139],"type":"VEC3","name":"accessor_428"},{"bufferView":40,"byteOffset":432,"componentType":5126,"count":36,"max":[0.6440489888191223,0.6469759941101074,0.7034649848937988],"min":[-0.6572380065917969,-0.6523540019989014,-0.7206289768218994],"type":"VEC3","name":"accessor_430"},{"bufferView":41,"byteOffset":0,"componentType":5126,"count":36,"max":[0.81489098072052,0.7581070065498352],"min":[0.026071900501847267,0.0818750262260437],"type":"VEC2","name":"accessor_432"},{"bufferView":11,"byteOffset":27768,"componentType":5123,"count":180,"type":"SCALAR","name":"accessor_453"},{"bufferView":38,"byteOffset":0,"componentType":5126,"count":180,"max":[11.953700065612793,-11.690400123596191,0.7133669853210449],"min":[7.261669635772705,-20.367599487304688,-0.15623599290847778],"type":"VEC3","name":"accessor_455"},{"bufferView":38,"byteOffset":2160,"componentType":5126,"count":180,"max":[0.7101100087165833,0.8959460258483887,0.9899789690971375],"min":[-0.6635630130767822,-0.8963850140571594,-0.9923819899559021],"type":"VEC3","name":"accessor_457"},{"bufferView":39,"byteOffset":0,"componentType":5126,"count":180,"max":[0.6362339854240417,0.617900013923645],"min":[0.4945319890975952,0.5865490436553955],"type":"VEC2","name":"accessor_459"},{"bufferView":11,"byteOffset":43392,"componentType":5123,"count":3072,"type":"SCALAR","name":"accessor_48"},{"bufferView":11,"byteOffset":28200,"componentType":5123,"count":1980,"type":"SCALAR","name":"accessor_480"},{"bufferView":42,"byteOffset":0,"componentType":5126,"count":1980,"max":[-3.1327199935913086,-8.436299324035645,-1.5359399318695068],"min":[-3.4578897953033447,-11.351900100708008,-4.4515700340271],"type":"VEC3","name":"accessor_482"},{"bufferView":42,"byteOffset":23760,"componentType":5126,"count":1980,"max":[-0.6291799545288086,0.7751299738883972,0.7751569747924805],"min":[-1,-0.7750049829483032,-0.7751539945602417],"type":"VEC3","name":"accessor_484"},{"bufferView":43,"byteOffset":0,"componentType":5126,"count":1980,"max":[0.221779003739357,0.14034301042556763],"min":[0.00548260984942317,0.004887998104095459],"type":"VEC2","name":"accessor_486"},{"bufferView":66,"byteOffset":0,"componentType":5126,"count":3072,"max":[1.7278399467468262,11.743499755859375,-1.135450005531311],"min":[-0.7856940031051636,-11.739099502563477,-4.813029766082764],"type":"VEC3","name":"accessor_50"},{"bufferView":11,"byteOffset":32160,"componentType":5123,"count":90,"type":"SCALAR","name":"accessor_507"},{"bufferView":44,"byteOffset":0,"componentType":5126,"count":90,"max":[9.080649375915527,-3.2808799743652344,-0.660789966583252],"min":[7.351619720458984,-7.8618998527526855,-1.5702799558639526],"type":"VEC3","name":"accessor_509"},{"bufferView":44,"byteOffset":1080,"componentType":5126,"count":90,"max":[0.8388339877128601,0.9996089935302734,0.7753270268440247],"min":[-0.8205909729003906,-0.7589830160140991,-0.7532680034637451],"type":"VEC3","name":"accessor_511"},{"bufferView":45,"byteOffset":0,"componentType":5126,"count":90,"max":[0.769769012928009,0.8131459951400757],"min":[0.019550900906324387,0.7721430063247681],"type":"VEC2","name":"accessor_513"},{"bufferView":66,"byteOffset":36864,"componentType":5126,"count":3072,"max":[0.9344069957733154,0.9995160102844238,0.9989590048789978],"min":[-0.9532819986343384,-0.9995149970054626,-0.9998570084571838],"type":"VEC3","name":"accessor_52"},{"bufferView":11,"byteOffset":32340,"componentType":5123,"count":90,"type":"SCALAR","name":"accessor_534"},{"bufferView":46,"byteOffset":0,"componentType":5126,"count":90,"max":[9.844249725341797,-3.2808799743652344,-0.9239370226860046],"min":[8.115229606628418,-7.872399806976318,-1.812749981880188],"type":"VEC3","name":"accessor_536"},{"bufferView":46,"byteOffset":1080,"componentType":5126,"count":90,"max":[0.8349149823188782,0.999422013759613,0.7661809921264648],"min":[-0.8260679841041565,-0.7510749697685242,-0.7656909823417664],"type":"VEC3","name":"accessor_538"},{"bufferView":67,"byteOffset":0,"componentType":5126,"count":3072,"max":[0.5219429731369019,0.13643300533294678],"min":[0.00506085017696023,0.010017991065979004],"type":"VEC2","name":"accessor_54"},{"bufferView":47,"byteOffset":0,"componentType":5126,"count":90,"max":[0.7843210101127625,0.8190410137176514],"min":[0.7150819897651672,0.759223997592926],"type":"VEC2","name":"accessor_540"},{"bufferView":11,"byteOffset":32520,"componentType":5123,"count":96,"type":"SCALAR","name":"accessor_578"},{"bufferView":11,"byteOffset":32712,"componentType":5123,"count":408,"type":"SCALAR","name":"accessor_581"},{"bufferView":48,"byteOffset":0,"componentType":5126,"count":504,"max":[13.967000961303711,-11.075200080871582,0.7085570096969604],"min":[7.478359699249268,-21.049598693847656,-1.2790700197219849],"type":"VEC3","name":"accessor_583"},{"bufferView":48,"byteOffset":6048,"componentType":5126,"count":504,"max":[1,1,1],"min":[-1,-1,-1],"type":"VEC3","name":"accessor_585"},{"bufferView":49,"byteOffset":0,"componentType":5126,"count":504,"max":[0.6054319739341736,0.7430469989776611],"min":[0.018135501071810722,0.6372259855270386],"type":"VEC2","name":"accessor_587"},{"bufferView":11,"byteOffset":33528,"componentType":5123,"count":84,"type":"SCALAR","name":"accessor_608"},{"bufferView":50,"byteOffset":0,"componentType":5126,"count":84,"max":[9.844249725341797,-7.92147970199585,-0.27278199791908264],"min":[7.654439926147461,-11.045700073242188,-1.0232099294662476],"type":"VEC3","name":"accessor_610"},{"bufferView":50,"byteOffset":1008,"componentType":5126,"count":84,"max":[0.8349649906158447,0.7431989908218384,0.7701539993286133],"min":[-0.8045759797096252,-0.750186026096344,-0.7631269693374634],"type":"VEC3","name":"accessor_612"},{"bufferView":51,"byteOffset":0,"componentType":5126,"count":84,"max":[0.6677719950675964,0.7384179830551147],"min":[0.6190000176429749,0.6928930282592773],"type":"VEC2","name":"accessor_614"},{"bufferView":11,"byteOffset":33696,"componentType":5123,"count":96,"type":"SCALAR","name":"accessor_635"},{"bufferView":52,"byteOffset":0,"componentType":5126,"count":96,"max":[-22.17759895324707,-1.9283099174499512,-0.45732200145721436],"min":[-22.205699920654297,-2.1781599521636963,-0.4854480028152466],"type":"VEC3","name":"accessor_637"},{"bufferView":52,"byteOffset":1152,"componentType":5126,"count":96,"max":[0.7855389714241028,1,0.7857540249824524],"min":[-0.7855389714241028,-1,-0.7857540249824524],"type":"VEC3","name":"accessor_639"},{"bufferView":53,"byteOffset":0,"componentType":5126,"count":96,"max":[0,1],"min":[0,1],"type":"VEC2","name":"accessor_641"},{"bufferView":11,"byteOffset":33888,"componentType":5123,"count":186,"type":"SCALAR","name":"accessor_662"},{"bufferView":54,"byteOffset":0,"componentType":5126,"count":186,"max":[8.690400123596191,-0.3095659911632538,-1.9497199058532715],"min":[3.995189905166626,-3.082669973373413,-3.4348299503326416],"type":"VEC3","name":"accessor_664"},{"bufferView":54,"byteOffset":2232,"componentType":5126,"count":186,"max":[0.7447680234909058,0.7132669687271118,0.7727530002593994],"min":[-0.7458360195159912,-0.9623450040817261,-0.7230409979820251],"type":"VEC3","name":"accessor_666"},{"bufferView":55,"byteOffset":0,"componentType":5126,"count":186,"max":[0.5408660173416138,0.25567299127578735],"min":[0.007721659727394581,0.07634902000427246],"type":"VEC2","name":"accessor_668"},{"bufferView":11,"byteOffset":34260,"componentType":5123,"count":54,"type":"SCALAR","name":"accessor_689"},{"bufferView":56,"byteOffset":0,"componentType":5126,"count":54,"max":[6.182409763336182,-3.0592799186706543,-1.9884599447250366],"min":[5.60522985458374,-4.008150100708008,-2.2238199710845947],"type":"VEC3","name":"accessor_691"},{"bufferView":56,"byteOffset":648,"componentType":5126,"count":54,"max":[0.9115819931030273,0.9646390080451965,0.9816809892654419],"min":[-0.9780049920082092,-0.39814499020576477,-0.9816809892654419],"type":"VEC3","name":"accessor_693"},{"bufferView":57,"byteOffset":0,"componentType":5126,"count":54,"max":[0.20013700425624847,0.7679240107536316],"min":[0.1757960021495819,0.7440400123596191],"type":"VEC2","name":"accessor_695"},{"bufferView":11,"byteOffset":34368,"componentType":5123,"count":372,"type":"SCALAR","name":"accessor_716"},{"bufferView":58,"byteOffset":0,"componentType":5126,"count":372,"max":[15.17959976196289,-11.130599975585938,1.6210099458694458],"min":[1.7691199779510498,-30.121198654174805,-0.7391629815101624],"type":"VEC3","name":"accessor_718"},{"bufferView":58,"byteOffset":4464,"componentType":5126,"count":372,"max":[0.9316089749336243,0.9843569993972778,0.9879679679870605],"min":[-0.9055879712104797,-0.9843659996986389,-0.9839820265769958],"type":"VEC3","name":"accessor_720"},{"bufferView":59,"byteOffset":0,"componentType":5126,"count":372,"max":[0,1],"min":[0,1],"type":"VEC2","name":"accessor_722"},{"bufferView":11,"byteOffset":35112,"componentType":5123,"count":36,"type":"SCALAR","name":"accessor_743"},{"bufferView":60,"byteOffset":0,"componentType":5126,"count":36,"max":[6.928269863128662,-5.192269802093506,-1.569219946861267],"min":[5.8515496253967285,-6.0346999168396,-1.8340699672698975],"type":"VEC3","name":"accessor_745"},{"bufferView":60,"byteOffset":432,"componentType":5126,"count":36,"max":[0.9779539704322815,0.9907240271568298,0.9815170168876648],"min":[-0.9156559705734253,-0.9906839728355408,-0.9815170168876648],"type":"VEC3","name":"accessor_747"},{"bufferView":61,"byteOffset":0,"componentType":5126,"count":36,"max":[0.2623080015182495,0.7900260090827942],"min":[0.22860799729824066,0.7605479955673218],"type":"VEC2","name":"accessor_749"},{"bufferView":11,"byteOffset":0,"componentType":5123,"count":1344,"type":"SCALAR","name":"accessor_75"},{"bufferView":12,"byteOffset":0,"componentType":5126,"count":1344,"max":[2.6558799743652344,11.549299240112305,-1.3384499549865723],"min":[-1.3183399438858032,-11.549299240112305,-4.653830051422119],"type":"VEC3","name":"accessor_77"},{"bufferView":11,"byteOffset":35184,"componentType":5123,"count":72,"type":"SCALAR","name":"accessor_770"},{"bufferView":62,"byteOffset":0,"componentType":5126,"count":72,"max":[-23.491600036621094,-0.23104600608348846,0.5625470280647278],"min":[-24.00079917907715,-0.9462419748306274,0.5031560063362122],"type":"VEC3","name":"accessor_772"},{"bufferView":62,"byteOffset":864,"componentType":5126,"count":72,"max":[0.9737970232963562,0.9833909869194031,0.9703959822654724],"min":[-0.9738609790802002,-0.983398973941803,-0.9706850051879883],"type":"VEC3","name":"accessor_774"},{"bufferView":63,"byteOffset":0,"componentType":5126,"count":72,"max":[1,1],"min":[0,0],"type":"VEC2","name":"accessor_776"},{"bufferView":12,"byteOffset":16128,"componentType":5126,"count":1344,"max":[0.5939739942550659,1,0.9999979734420776],"min":[-0.0570329986512661,-1,-1],"type":"VEC3","name":"accessor_79"},{"bufferView":11,"byteOffset":49536,"componentType":5123,"count":60,"type":"SCALAR","name":"accessor_797"},{"bufferView":68,"byteOffset":0,"componentType":5126,"count":60,"max":[-20.409000396728516,0.5287629961967468,-2.237220048904419],"min":[-22.606800079345703,-0.0030589699745178223,-2.748539924621582],"type":"VEC3","name":"accessor_799"},{"bufferView":68,"byteOffset":720,"componentType":5126,"count":60,"max":[0.6604729890823364,0.7674160003662109,0.770268976688385],"min":[-0.7161930203437805,-0.7828710079193115,-0.7575119733810425],"type":"VEC3","name":"accessor_801"},{"bufferView":69,"byteOffset":0,"componentType":5126,"count":60,"max":[0.9534029960632324,0.5055420398712158],"min":[0.9186090230941772,0.4975380301475525],"type":"VEC2","name":"accessor_803"},{"bufferView":13,"byteOffset":0,"componentType":5126,"count":1344,"max":[0,1],"min":[0,1],"type":"VEC2","name":"accessor_81"},{"bufferView":11,"byteOffset":49656,"componentType":5123,"count":2112,"type":"SCALAR","name":"accessor_824"},{"bufferView":70,"byteOffset":0,"componentType":5126,"count":2112,"max":[-3.632279872894287,11.61889934539795,-1.2693599462509155],"min":[-4.140379905700684,8.169129371643066,-4.716839790344238],"type":"VEC3","name":"accessor_826"},{"bufferView":70,"byteOffset":25344,"componentType":5126,"count":2112,"max":[-0.48397600650787354,0.8589709997177124,0.8412269949913025],"min":[-0.985696017742157,-0.8594849705696106,-0.8746079802513123],"type":"VEC3","name":"accessor_828"},{"bufferView":71,"byteOffset":0,"componentType":5126,"count":2112,"max":[0,1],"min":[0,1],"type":"VEC2","name":"accessor_830"},{"bufferView":11,"byteOffset":53880,"componentType":5123,"count":204,"type":"SCALAR","name":"accessor_851"},{"bufferView":72,"byteOffset":0,"componentType":5126,"count":204,"max":[38.89830017089844,9.955299377441406,2.53056001663208],"min":[33.20100021362305,0.6904000043869019,1.2062100172042847],"type":"VEC3","name":"accessor_853"},{"bufferView":72,"byteOffset":2448,"componentType":5126,"count":204,"max":[1,1,1],"min":[-1,-1,-1],"type":"VEC3","name":"accessor_855"},{"bufferView":73,"byteOffset":0,"componentType":5126,"count":204,"max":[0.9917320013046265,0.7232630252838135],"min":[0.9276099801063538,0.6076719760894775],"type":"VEC2","name":"accessor_857"},{"bufferView":11,"byteOffset":54288,"componentType":5123,"count":123,"type":"SCALAR","name":"accessor_878"},{"bufferView":74,"byteOffset":0,"componentType":5126,"count":123,"max":[39.06909942626953,10.698399543762207,2.612229824066162],"min":[28.986799240112305,1.0246599912643433,1.0602599382400513],"type":"VEC3","name":"accessor_880"},{"bufferView":74,"byteOffset":1476,"componentType":5126,"count":123,"max":[1,1,1],"min":[-1,-1,-1],"type":"VEC3","name":"accessor_882"},{"bufferView":75,"byteOffset":0,"componentType":5126,"count":123,"max":[0.994363009929657,0.7245489954948425],"min":[0.874862015247345,0.5988960266113281],"type":"VEC2","name":"accessor_884"},{"bufferView":11,"byteOffset":54534,"componentType":5123,"count":36,"type":"SCALAR","name":"accessor_905"},{"bufferView":76,"byteOffset":0,"componentType":5126,"count":36,"max":[-19.021699905395508,0.5551440119743347,-2.667840003967285],"min":[-20.413700103759766,-0.0029959699604660273,-2.942610025405884],"type":"VEC3","name":"accessor_907"},{"bufferView":76,"byteOffset":432,"componentType":5126,"count":36,"max":[0.649927020072937,0.6403799653053284,0.704410970211029],"min":[-0.6550689935684204,-0.6339139938354492,-0.7043839693069458],"type":"VEC3","name":"accessor_909"},{"bufferView":77,"byteOffset":0,"componentType":5126,"count":36,"max":[0.9186840057373047,0.5063750147819519],"min":[0.8966469764709473,0.4975389838218689],"type":"VEC2","name":"accessor_911"},{"bufferView":11,"byteOffset":54606,"componentType":5123,"count":216,"type":"SCALAR","name":"accessor_932"},{"bufferView":78,"byteOffset":0,"componentType":5126,"count":216,"max":[16.907400131225586,29.442001342773438,1.441659927368164],"min":[15.862899780273438,27.75029945373535,1.2607899904251099],"type":"VEC3","name":"accessor_934"},{"bufferView":78,"byteOffset":2592,"componentType":5126,"count":216,"max":[1,1,1],"min":[-1,-1,-1],"type":"VEC3","name":"accessor_936"},{"bufferView":79,"byteOffset":0,"componentType":5126,"count":216,"max":[1,1],"min":[0,0],"type":"VEC2","name":"accessor_938"},{"bufferView":11,"byteOffset":55038,"componentType":5123,"count":36,"type":"SCALAR","name":"accessor_959"},{"bufferView":80,"byteOffset":0,"componentType":5126,"count":36,"max":[16.540199279785156,29.53839874267578,1.5184599161148071],"min":[12.581399917602539,21.0492000579834,0.46409401297569275],"type":"VEC3","name":"accessor_961"},{"bufferView":80,"byteOffset":432,"componentType":5126,"count":36,"max":[0.9098199605941772,0.707863986492157,0.7835220098495483],"min":[-0.8971139788627625,-0.6575030088424683,-0.7727810144424438],"type":"VEC3","name":"accessor_963"},{"bufferView":81,"byteOffset":0,"componentType":5126,"count":36,"max":[0.22285699844360352,0.6029170155525208],"min":[0.09559939801692963,0.5717819929122925],"type":"VEC2","name":"accessor_965"},{"bufferView":11,"byteOffset":55470,"componentType":5123,"count":36,"type":"SCALAR","name":"accessor_986"},{"bufferView":84,"byteOffset":0,"componentType":5126,"count":36,"max":[7.759119987487793,8.286849975585938,-0.4873949885368347],"min":[6.67165994644165,3.269279956817627,-1.2783199548721313],"type":"VEC3","name":"accessor_988"},{"bufferView":84,"byteOffset":432,"componentType":5126,"count":36,"max":[0.6436709761619568,0.6521580219268799,0.7036550045013428],"min":[-0.6580280065536499,-0.6471289992332458,-0.720320999622345],"type":"VEC3","name":"accessor_990"},{"bufferView":85,"byteOffset":0,"componentType":5126,"count":36,"max":[0.8149099946022034,0.7580789923667908],"min":[0.035213202238082886,0.07955700159072876],"type":"VEC2","name":"accessor_992"},{"bufferView":122,"componentType":5126,"count":942,"type":"VEC3","min":[-1.3464894138081536,5.635117983818054,-31.16265128735233],"max":[1.346520510126783,16.829729557037354,-11.450050579051695]},{"bufferView":123,"componentType":5126,"count":942,"type":"VEC3"},{"bufferView":124,"componentType":5126,"count":480,"type":"VEC3","min":[-0.4031320366052794,7.614498798456082,-26.886484286560346],"max":[0.40306215234775855,11.481527918360186,-23.019455166656243]},{"bufferView":125,"componentType":5126,"count":480,"type":"VEC3"},{"bufferView":126,"componentType":5126,"count":480,"type":"VEC2"}],"asset":{"generator":"collada2gltf@","version":"2.0","copyright":"FlightGear model authors / Flightradar24 contributors; GPLv2. See UPSTREAM-CREDITS.md and LICENSE.txt."},"bufferViews":[{"buffer":0,"byteLength":629,"byteOffset":1244708,"name":"binary_bufferView0"},{"buffer":0,"byteLength":355,"byteOffset":1245337,"name":"binary_bufferView1"},{"buffer":0,"byteLength":677,"byteOffset":1245692,"name":"binary_bufferView2"},{"buffer":0,"byteLength":355,"byteOffset":1246369,"name":"binary_bufferView3"},{"buffer":0,"byteLength":685,"byteOffset":1246724,"name":"binary_bufferView4"},{"buffer":0,"byteLength":439,"byteOffset":1247409,"name":"binary_bufferView5"},{"buffer":0,"byteLength":733,"byteOffset":1247848,"name":"binary_bufferView6"},{"buffer":0,"byteLength":439,"byteOffset":1248581,"name":"binary_bufferView7"},{"buffer":0,"byteLength":677,"byteOffset":1249020,"name":"binary_bufferView8"},{"buffer":0,"byteLength":355,"byteOffset":1249697,"name":"binary_bufferView9"},{"buffer":0,"byteLength":623257,"byteOffset":1250052,"name":"binary_bufferView10"},{"buffer":0,"byteLength":73218,"byteOffset":0,"target":34963,"name":"bufferView_1567"},{"buffer":0,"byteLength":32256,"byteOffset":73220,"target":34962,"name":"bufferView_1568","byteStride":12},{"buffer":0,"byteLength":10752,"byteOffset":105476,"target":34962,"name":"bufferView_1568","byteStride":8},{"buffer":0,"byteLength":15336,"byteOffset":116228,"target":34962,"name":"bufferView_1568","byteStride":12},{"buffer":0,"byteLength":5112,"byteOffset":131564,"target":34962,"name":"bufferView_1568","byteStride":8},{"buffer":0,"byteLength":3024,"byteOffset":136676,"target":34962,"name":"bufferView_1568","byteStride":12},{"buffer":0,"byteLength":1008,"byteOffset":139700,"target":34962,"name":"bufferView_1568","byteStride":8},{"buffer":0,"byteLength":180000,"byteOffset":140708,"target":34962,"name":"bufferView_1568","byteStride":12},{"buffer":0,"byteLength":60000,"byteOffset":320708,"target":34962,"name":"bufferView_1568","byteStride":8},{"buffer":0,"byteLength":1728,"byteOffset":380708,"target":34962,"name":"bufferView_1568","byteStride":12},{"buffer":0,"byteLength":576,"byteOffset":382436,"target":34962,"name":"bufferView_1568","byteStride":8},{"buffer":0,"byteLength":32256,"byteOffset":383012,"target":34962,"name":"bufferView_1568","byteStride":12},{"buffer":0,"byteLength":10752,"byteOffset":415268,"target":34962,"name":"bufferView_1568","byteStride":8},{"buffer":0,"byteLength":1440,"byteOffset":426020,"target":34962,"name":"bufferView_1568","byteStride":12},{"buffer":0,"byteLength":480,"byteOffset":427460,"target":34962,"name":"bufferView_1568","byteStride":8},{"buffer":0,"byteLength":50688,"byteOffset":427940,"target":34962,"name":"bufferView_1568","byteStride":12},{"buffer":0,"byteLength":16896,"byteOffset":478628,"target":34962,"name":"bufferView_1568","byteStride":8},{"buffer":0,"byteLength":4896,"byteOffset":495524,"target":34962,"name":"bufferView_1568","byteStride":12},{"buffer":0,"byteLength":1632,"byteOffset":500420,"target":34962,"name":"bufferView_1568","byteStride":8},{"buffer":0,"byteLength":2952,"byteOffset":502052,"target":34962,"name":"bufferView_1568","byteStride":12},{"buffer":0,"byteLength":984,"byteOffset":505004,"target":34962,"name":"bufferView_1568","byteStride":8},{"buffer":0,"byteLength":864,"byteOffset":505988,"target":34962,"name":"bufferView_1568","byteStride":12},{"buffer":0,"byteLength":288,"byteOffset":506852,"target":34962,"name":"bufferView_1568","byteStride":8},{"buffer":0,"byteLength":6048,"byteOffset":507140,"target":34962,"name":"bufferView_1568","byteStride":12},{"buffer":0,"byteLength":2016,"byteOffset":513188,"target":34962,"name":"bufferView_1568","byteStride":8},{"buffer":0,"byteLength":1728,"byteOffset":515204,"target":34962,"name":"bufferView_1568","byteStride":12},{"buffer":0,"byteLength":576,"byteOffset":516932,"target":34962,"name":"bufferView_1568","byteStride":8},{"buffer":0,"byteLength":4320,"byteOffset":517508,"target":34962,"name":"bufferView_1568","byteStride":12},{"buffer":0,"byteLength":1440,"byteOffset":521828,"target":34962,"name":"bufferView_1568","byteStride":8},{"buffer":0,"byteLength":864,"byteOffset":523268,"target":34962,"name":"bufferView_1568","byteStride":12},{"buffer":0,"byteLength":288,"byteOffset":524132,"target":34962,"name":"bufferView_1568","byteStride":8},{"buffer":0,"byteLength":47520,"byteOffset":524420,"target":34962,"name":"bufferView_1568","byteStride":12},{"buffer":0,"byteLength":15840,"byteOffset":571940,"target":34962,"name":"bufferView_1568","byteStride":8},{"buffer":0,"byteLength":2160,"byteOffset":587780,"target":34962,"name":"bufferView_1568","byteStride":12},{"buffer":0,"byteLength":720,"byteOffset":589940,"target":34962,"name":"bufferView_1568","byteStride":8},{"buffer":0,"byteLength":2160,"byteOffset":590660,"target":34962,"name":"bufferView_1568","byteStride":12},{"buffer":0,"byteLength":720,"byteOffset":592820,"target":34962,"name":"bufferView_1568","byteStride":8},{"buffer":0,"byteLength":12096,"byteOffset":593540,"target":34962,"name":"bufferView_1568","byteStride":12},{"buffer":0,"byteLength":4032,"byteOffset":605636,"target":34962,"name":"bufferView_1568","byteStride":8},{"buffer":0,"byteLength":2016,"byteOffset":609668,"target":34962,"name":"bufferView_1568","byteStride":12},{"buffer":0,"byteLength":672,"byteOffset":611684,"target":34962,"name":"bufferView_1568","byteStride":8},{"buffer":0,"byteLength":2304,"byteOffset":612356,"target":34962,"name":"bufferView_1568","byteStride":12},{"buffer":0,"byteLength":768,"byteOffset":614660,"target":34962,"name":"bufferView_1568","byteStride":8},{"buffer":0,"byteLength":4464,"byteOffset":615428,"target":34962,"name":"bufferView_1568","byteStride":12},{"buffer":0,"byteLength":1488,"byteOffset":619892,"target":34962,"name":"bufferView_1568","byteStride":8},{"buffer":0,"byteLength":1296,"byteOffset":621380,"target":34962,"name":"bufferView_1568","byteStride":12},{"buffer":0,"byteLength":432,"byteOffset":622676,"target":34962,"name":"bufferView_1568","byteStride":8},{"buffer":0,"byteLength":8928,"byteOffset":623108,"target":34962,"name":"bufferView_1568","byteStride":12},{"buffer":0,"byteLength":2976,"byteOffset":632036,"target":34962,"name":"bufferView_1568","byteStride":8},{"buffer":0,"byteLength":864,"byteOffset":635012,"target":34962,"name":"bufferView_1568","byteStride":12},{"buffer":0,"byteLength":288,"byteOffset":635876,"target":34962,"name":"bufferView_1568","byteStride":8},{"buffer":0,"byteLength":1728,"byteOffset":636164,"target":34962,"name":"bufferView_1568","byteStride":12},{"buffer":0,"byteLength":576,"byteOffset":637892,"target":34962,"name":"bufferView_1568","byteStride":8},{"buffer":0,"byteLength":96768,"byteOffset":638468,"target":34962,"name":"bufferView_1568","byteStride":12},{"buffer":0,"byteLength":32256,"byteOffset":735236,"target":34962,"name":"bufferView_1568","byteStride":8},{"buffer":0,"byteLength":73728,"byteOffset":767492,"target":34962,"name":"bufferView_1568","byteStride":12},{"buffer":0,"byteLength":24576,"byteOffset":841220,"target":34962,"name":"bufferView_1568","byteStride":8},{"buffer":0,"byteLength":1440,"byteOffset":865796,"target":34962,"name":"bufferView_1568","byteStride":12},{"buffer":0,"byteLength":480,"byteOffset":867236,"target":34962,"name":"bufferView_1568","byteStride":8},{"buffer":0,"byteLength":50688,"byteOffset":867716,"target":34962,"name":"bufferView_1568","byteStride":12},{"buffer":0,"byteLength":16896,"byteOffset":918404,"target":34962,"name":"bufferView_1568","byteStride":8},{"buffer":0,"byteLength":4896,"byteOffset":935300,"target":34962,"name":"bufferView_1568","byteStride":12},{"buffer":0,"byteLength":1632,"byteOffset":940196,"target":34962,"name":"bufferView_1568","byteStride":8},{"buffer":0,"byteLength":2952,"byteOffset":941828,"target":34962,"name":"bufferView_1568","byteStride":12},{"buffer":0,"byteLength":984,"byteOffset":944780,"target":34962,"name":"bufferView_1568","byteStride":8},{"buffer":0,"byteLength":864,"byteOffset":945764,"target":34962,"name":"bufferView_1568","byteStride":12},{"buffer":0,"byteLength":288,"byteOffset":946628,"target":34962,"name":"bufferView_1568","byteStride":8},{"buffer":0,"byteLength":5184,"byteOffset":946916,"target":34962,"name":"bufferView_1568","byteStride":12},{"buffer":0,"byteLength":1728,"byteOffset":952100,"target":34962,"name":"bufferView_1568","byteStride":8},{"buffer":0,"byteLength":864,"byteOffset":953828,"target":34962,"name":"bufferView_1568","byteStride":12},{"buffer":0,"byteLength":288,"byteOffset":954692,"target":34962,"name":"bufferView_1568","byteStride":8},{"buffer":0,"byteLength":4320,"byteOffset":954980,"target":34962,"name":"bufferView_1568","byteStride":12},{"buffer":0,"byteLength":1440,"byteOffset":959300,"target":34962,"name":"bufferView_1568","byteStride":8},{"buffer":0,"byteLength":864,"byteOffset":960740,"target":34962,"name":"bufferView_1568","byteStride":12},{"buffer":0,"byteLength":288,"byteOffset":961604,"target":34962,"name":"bufferView_1568","byteStride":8},{"buffer":0,"byteLength":47520,"byteOffset":961892,"target":34962,"name":"bufferView_1568","byteStride":12},{"buffer":0,"byteLength":15840,"byteOffset":1009412,"target":34962,"name":"bufferView_1568","byteStride":8},{"buffer":0,"byteLength":2160,"byteOffset":1025252,"target":34962,"name":"bufferView_1568","byteStride":12},{"buffer":0,"byteLength":720,"byteOffset":1027412,"target":34962,"name":"bufferView_1568","byteStride":8},{"buffer":0,"byteLength":2160,"byteOffset":1028132,"target":34962,"name":"bufferView_1568","byteStride":12},{"buffer":0,"byteLength":720,"byteOffset":1030292,"target":34962,"name":"bufferView_1568","byteStride":8},{"buffer":0,"byteLength":864,"byteOffset":1031012,"target":34962,"name":"bufferView_1568","byteStride":12},{"buffer":0,"byteLength":288,"byteOffset":1031876,"target":34962,"name":"bufferView_1568","byteStride":8},{"buffer":0,"byteLength":11232,"byteOffset":1032164,"target":34962,"name":"bufferView_1568","byteStride":12},{"buffer":0,"byteLength":3744,"byteOffset":1043396,"target":34962,"name":"bufferView_1568","byteStride":8},{"buffer":0,"byteLength":2016,"byteOffset":1047140,"target":34962,"name":"bufferView_1568","byteStride":12},{"buffer":0,"byteLength":672,"byteOffset":1049156,"target":34962,"name":"bufferView_1568","byteStride":8},{"buffer":0,"byteLength":4464,"byteOffset":1049828,"target":34962,"name":"bufferView_1568","byteStride":12},{"buffer":0,"byteLength":1488,"byteOffset":1054292,"target":34962,"name":"bufferView_1568","byteStride":8},{"buffer":0,"byteLength":1296,"byteOffset":1055780,"target":34962,"name":"bufferView_1568","byteStride":12},{"buffer":0,"byteLength":432,"byteOffset":1057076,"target":34962,"name":"bufferView_1568","byteStride":8},{"buffer":0,"byteLength":8928,"byteOffset":1057508,"target":34962,"name":"bufferView_1568","byteStride":12},{"buffer":0,"byteLength":2976,"byteOffset":1066436,"target":34962,"name":"bufferView_1568","byteStride":8},{"buffer":0,"byteLength":29376,"byteOffset":1069412,"target":34962,"name":"bufferView_1568","byteStride":12},{"buffer":0,"byteLength":9792,"byteOffset":1098788,"target":34962,"name":"bufferView_1568","byteStride":8},{"buffer":0,"byteLength":864,"byteOffset":1108580,"target":34962,"name":"bufferView_1568","byteStride":12},{"buffer":0,"byteLength":288,"byteOffset":1109444,"target":34962,"name":"bufferView_1568","byteStride":8},{"buffer":0,"byteLength":1728,"byteOffset":1109732,"target":34962,"name":"bufferView_1568","byteStride":12},{"buffer":0,"byteLength":576,"byteOffset":1111460,"target":34962,"name":"bufferView_1568","byteStride":8},{"buffer":0,"byteLength":3744,"byteOffset":1112036,"target":34962,"name":"bufferView_1568","byteStride":12},{"buffer":0,"byteLength":1248,"byteOffset":1115780,"target":34962,"name":"bufferView_1568","byteStride":8},{"buffer":0,"byteLength":1440,"byteOffset":1117028,"target":34962,"name":"bufferView_1568","byteStride":12},{"buffer":0,"byteLength":480,"byteOffset":1118468,"target":34962,"name":"bufferView_1568","byteStride":8},{"buffer":0,"byteLength":1440,"byteOffset":1118948,"target":34962,"name":"bufferView_1568","byteStride":12},{"buffer":0,"byteLength":480,"byteOffset":1120388,"target":34962,"name":"bufferView_1568","byteStride":8},{"buffer":0,"byteLength":4608,"byteOffset":1120868,"target":34962,"name":"bufferView_1568","byteStride":12},{"buffer":0,"byteLength":1536,"byteOffset":1125476,"target":34962,"name":"bufferView_1568","byteStride":8},{"buffer":0,"byteLength":78192,"byteOffset":1127012,"target":34962,"name":"bufferView_1568","byteStride":12},{"buffer":0,"byteLength":26064,"byteOffset":1205204,"target":34962,"name":"bufferView_1568","byteStride":8},{"buffer":0,"byteLength":10080,"byteOffset":1231268,"target":34962,"name":"bufferView_1568","byteStride":12},{"buffer":0,"byteLength":3360,"byteOffset":1241348,"target":34962,"name":"bufferView_1568","byteStride":8},{"buffer":1,"byteOffset":0,"byteLength":11304,"target":34962},{"buffer":1,"byteOffset":11304,"byteLength":11304,"target":34962},{"buffer":1,"byteOffset":22608,"byteLength":5760,"target":34962},{"buffer":1,"byteOffset":28368,"byteLength":5760,"target":34962},{"buffer":1,"byteOffset":34128,"byteLength":3840,"target":34962}],"buffers":[{"byteLength":1873309,"extras":{},"name":"binary_glTF","uri":"../b772-v1-0.bin"},{"uri":"b772-tail-v1.bin","byteLength":37968}],"images":[{"name":"paint1_png","extras":{},"bufferView":10,"mimeType":"image/jpeg"},{"uri":"../../../airlines/JAL.png"}],"materials":[{"name":"Chrome_001","pbrMetallicRoughness":{"roughnessFactor":1,"metallicFactor":0,"baseColorFactor":[0.2738384190209769,0.2738384190209769,0.2738384190209769,1]}},{"name":"DefaultWhite","doubleSided":true,"pbrMetallicRoughness":{"roughnessFactor":1,"metallicFactor":0,"baseColorFactor":[0.6038273590607633,0.6038273590607633,0.6038273590607633,1]}},{"name":"Paint","pbrMetallicRoughness":{"roughnessFactor":1,"metallicFactor":0,"baseColorTexture":{"index":0}}},{"name":"Paint","doubleSided":true,"pbrMetallicRoughness":{"roughnessFactor":1,"metallicFactor":0,"baseColorTexture":{"index":0}}},{"name":"Paint_001","pbrMetallicRoughness":{"roughnessFactor":1,"metallicFactor":0,"baseColorFactor":[0.36724645006859014,0.36724645006859014,0.36724645006859014,1]}},{"name":"Transparent","alphaMode":"BLEND","doubleSided":true,"pbrMetallicRoughness":{"roughnessFactor":1,"metallicFactor":0,"baseColorFactor":[0.038310729039175345,0.05103637249434316,0.09325557114411885,1]}},{"name":"dark","pbrMetallicRoughness":{"roughnessFactor":1,"metallicFactor":0,"baseColorTexture":{"index":0}}},{"name":"dark_001","pbrMetallicRoughness":{"roughnessFactor":1,"metallicFactor":0,"baseColorFactor":[0.19881947826374696,0.19881947826374696,0.19881947826374696,1]}},{"name":"flatblack","pbrMetallicRoughness":{"roughnessFactor":1,"metallicFactor":0,"baseColorFactor":[0,0,0,1]}},{"name":"flatblack","doubleSided":true,"pbrMetallicRoughness":{"roughnessFactor":1,"metallicFactor":0,"baseColorFactor":[0,0,0,1]}},{"name":"flatblack","doubleSided":true,"pbrMetallicRoughness":{"roughnessFactor":1,"metallicFactor":0,"baseColorFactor":[0,0,0,1]}},{"name":"flatblack_001","pbrMetallicRoughness":{"roughnessFactor":1,"metallicFactor":0,"baseColorTexture":{"index":0}}},{"name":"nospec","pbrMetallicRoughness":{"roughnessFactor":1,"metallicFactor":0,"baseColorTexture":{"index":0}}},{"name":"rubber","pbrMetallicRoughness":{"roughnessFactor":1,"metallicFactor":0,"baseColorTexture":{"index":0}}},{"name":"Operator tail paint","doubleSided":true,"pbrMetallicRoughness":{"baseColorFactor":[0.7843137254901961,0.09803921568627451,0.19607843137254902,1],"metallicFactor":0,"roughnessFactor":0.65}},{"name":"Operator logo identification","doubleSided":true,"alphaMode":"BLEND","pbrMetallicRoughness":{"baseColorTexture":{"index":1},"metallicFactor":0,"roughnessFactor":0.7},"emissiveFactor":[0.18,0.18,0.18],"emissiveTexture":{"index":1}}],"meshes":[{"name":"Engines.001.mesh","primitives":[{"attributes":{"NORMAL":190,"POSITION":185,"TEXCOORD_0":195},"indices":184,"material":8,"mode":4}]},{"name":"Fuselage.002.mesh","primitives":[{"attributes":{"NORMAL":52,"POSITION":46,"TEXCOORD_0":53},"indices":45,"material":8,"mode":4}]},{"name":"Fuselage.004.mesh","primitives":[{"attributes":{"NORMAL":89,"POSITION":88,"TEXCOORD_0":90},"indices":84,"material":6,"mode":4}]},{"name":"Fuselage.mesh","primitives":[{"attributes":{"NORMAL":10,"POSITION":5,"TEXCOORD_0":15},"indices":4,"material":3,"mode":4}]},{"name":"Glass.mesh","primitives":[{"attributes":{"NORMAL":93,"POSITION":92,"TEXCOORD_0":94},"indices":91,"material":5,"mode":4}]},{"name":"Inlets.mesh","primitives":[{"attributes":{"NORMAL":98,"POSITION":97,"TEXCOORD_0":99},"indices":96,"material":12,"mode":4}]},{"name":"LFdoor.mesh","primitives":[{"attributes":{"NORMAL":103,"POSITION":102,"TEXCOORD_0":104},"indices":101,"material":2,"mode":4}]},{"name":"LHEngChrome.mesh","primitives":[{"attributes":{"NORMAL":108,"POSITION":107,"TEXCOORD_0":110},"indices":106,"material":0,"mode":4}]},{"name":"LHelevator.mesh","primitives":[{"attributes":{"NORMAL":113,"POSITION":112,"TEXCOORD_0":114},"indices":111,"material":2,"mode":4}]},{"name":"LHstab.mesh","primitives":[{"attributes":{"NORMAL":117,"POSITION":116,"TEXCOORD_0":118},"indices":115,"material":2,"mode":4}]},{"name":"LRdoor.mesh","primitives":[{"attributes":{"NORMAL":121,"POSITION":120,"TEXCOORD_0":122},"indices":119,"material":2,"mode":4}]},{"name":"Laileron.mesh","primitives":[{"attributes":{"NORMAL":125,"POSITION":124,"TEXCOORD_0":126},"indices":123,"material":2,"mode":4}]},{"name":"LandingLights.mesh","primitives":[{"attributes":{"NORMAL":129,"POSITION":128,"TEXCOORD_0":130},"indices":127,"material":8,"mode":4}]},{"name":"Lbrake1.mesh","primitives":[{"attributes":{"NORMAL":137,"POSITION":136,"TEXCOORD_0":138},"indices":135,"material":2,"mode":4}]},{"name":"Lbrake.mesh","primitives":[{"attributes":{"NORMAL":133,"POSITION":132,"TEXCOORD_0":134},"indices":131,"material":2,"mode":4}]},{"name":"Lfan.mesh","primitives":[{"attributes":{"NORMAL":142,"POSITION":141,"TEXCOORD_0":143},"indices":140,"material":13,"mode":4}]},{"name":"Lflap1.mesh","primitives":[{"attributes":{"NORMAL":147,"POSITION":146,"TEXCOORD_0":148},"indices":145,"material":2,"mode":4}]},{"name":"Lflap2.mesh","primitives":[{"attributes":{"NORMAL":152,"POSITION":151,"TEXCOORD_0":154},"indices":150,"material":2,"mode":4}]},{"name":"Lflap4.mesh","primitives":[{"attributes":{"NORMAL":158,"POSITION":157,"TEXCOORD_0":159},"indices":155,"material":2,"mode":4},{"attributes":{"NORMAL":158,"POSITION":157,"TEXCOORD_0":159},"indices":156,"material":13,"mode":4}]},{"name":"Lflaperon.mesh","primitives":[{"attributes":{"NORMAL":162,"POSITION":161,"TEXCOORD_0":163},"indices":160,"material":2,"mode":4}]},{"name":"Lils.mesh","primitives":[{"attributes":{"NORMAL":166,"POSITION":165,"TEXCOORD_0":167},"indices":164,"material":1,"mode":4}]},{"name":"Lmain.geardoor.mesh","primitives":[{"attributes":{"NORMAL":170,"POSITION":169,"TEXCOORD_0":171},"indices":168,"material":2,"mode":4}]},{"name":"Lramdoor.mesh","primitives":[{"attributes":{"NORMAL":174,"POSITION":173,"TEXCOORD_0":175},"indices":172,"material":2,"mode":4}]},{"name":"Lslat.mesh","primitives":[{"attributes":{"NORMAL":178,"POSITION":177,"TEXCOORD_0":179},"indices":176,"material":4,"mode":4}]},{"name":"Lwing.geardoor.mesh","primitives":[{"attributes":{"NORMAL":182,"POSITION":181,"TEXCOORD_0":183},"indices":180,"material":2,"mode":4}]},{"name":"Lwiper.mesh","primitives":[{"attributes":{"NORMAL":188,"POSITION":187,"TEXCOORD_0":189},"indices":186,"material":9,"mode":4}]},{"name":"Mesh.015","primitives":[{"attributes":{"NORMAL":105,"POSITION":100,"TEXCOORD_0":109},"indices":95,"material":2,"mode":4}]},{"name":"Mesh.905","primitives":[{"attributes":{"NORMAL":149,"POSITION":144,"TEXCOORD_0":153},"indices":139,"material":2,"mode":4}]},{"name":"RFdoor.mesh","primitives":[{"attributes":{"NORMAL":193,"POSITION":192,"TEXCOORD_0":194},"indices":191,"material":2,"mode":4}]},{"name":"RHEngChrome.mesh","primitives":[{"attributes":{"NORMAL":198,"POSITION":197,"TEXCOORD_0":199},"indices":196,"material":0,"mode":4}]},{"name":"RHelevator.mesh","primitives":[{"attributes":{"NORMAL":202,"POSITION":201,"TEXCOORD_0":203},"indices":200,"material":2,"mode":4}]},{"name":"RHstab.mesh","primitives":[{"attributes":{"NORMAL":206,"POSITION":205,"TEXCOORD_0":207},"indices":204,"material":2,"mode":4}]},{"name":"RRdoor.mesh","primitives":[{"attributes":{"NORMAL":210,"POSITION":209,"TEXCOORD_0":211},"indices":208,"material":2,"mode":4}]},{"name":"Raileron_0.mesh","primitives":[{"attributes":{"NORMAL":214,"POSITION":213,"TEXCOORD_0":215},"indices":212,"material":4,"mode":4}]},{"name":"Raileron_1.mesh","primitives":[{"attributes":{"NORMAL":218,"POSITION":217,"TEXCOORD_0":219},"indices":216,"material":2,"mode":4}]},{"name":"Rbrake1.mesh","primitives":[{"attributes":{"NORMAL":2,"POSITION":1,"TEXCOORD_0":3},"indices":0,"material":2,"mode":4}]},{"name":"Rbrake.mesh","primitives":[{"attributes":{"NORMAL":222,"POSITION":221,"TEXCOORD_0":223},"indices":220,"material":2,"mode":4}]},{"name":"Rfan.mesh","primitives":[{"attributes":{"NORMAL":8,"POSITION":7,"TEXCOORD_0":9},"indices":6,"material":13,"mode":4}]},{"name":"Rflap1.mesh","primitives":[{"attributes":{"NORMAL":13,"POSITION":12,"TEXCOORD_0":14},"indices":11,"material":2,"mode":4}]},{"name":"Rflap2.mesh","primitives":[{"attributes":{"NORMAL":18,"POSITION":17,"TEXCOORD_0":19},"indices":16,"material":2,"mode":4}]},{"name":"Rflap4.001.mesh","primitives":[{"attributes":{"NORMAL":27,"POSITION":26,"TEXCOORD_0":28},"indices":25,"material":4,"mode":4}]},{"name":"Rflap4.mesh","primitives":[{"attributes":{"NORMAL":23,"POSITION":22,"TEXCOORD_0":24},"indices":20,"material":2,"mode":4},{"attributes":{"NORMAL":23,"POSITION":22,"TEXCOORD_0":24},"indices":21,"material":13,"mode":4}]},{"name":"Rflaperon.mesh","primitives":[{"attributes":{"NORMAL":31,"POSITION":30,"TEXCOORD_0":32},"indices":29,"material":2,"mode":4}]},{"name":"Rmain.geardoor.mesh","primitives":[{"attributes":{"NORMAL":35,"POSITION":34,"TEXCOORD_0":36},"indices":33,"material":2,"mode":4}]},{"name":"Rramdoor.mesh","primitives":[{"attributes":{"NORMAL":39,"POSITION":38,"TEXCOORD_0":40},"indices":37,"material":2,"mode":4}]},{"name":"Rslat.mesh","primitives":[{"attributes":{"NORMAL":43,"POSITION":42,"TEXCOORD_0":44},"indices":41,"material":4,"mode":4}]},{"name":"Rudder.mesh","primitives":[{"attributes":{"NORMAL":50,"POSITION":49,"TEXCOORD_0":51},"indices":47,"material":2,"mode":4},{"attributes":{"NORMAL":50,"POSITION":49,"TEXCOORD_0":51},"indices":48,"material":11,"mode":4}]},{"name":"Rwing.geardoor.mesh","primitives":[{"attributes":{"NORMAL":56,"POSITION":55,"TEXCOORD_0":57},"indices":54,"material":2,"mode":4}]},{"name":"Rwiper.mesh","primitives":[{"attributes":{"NORMAL":60,"POSITION":59,"TEXCOORD_0":61},"indices":58,"material":10,"mode":4}]},{"name":"Tail.mesh","primitives":[{"attributes":{"NORMAL":64,"POSITION":63,"TEXCOORD_0":65},"indices":62,"material":2,"mode":4}]},{"name":"Wheaters.mesh","primitives":[{"attributes":{"NORMAL":68,"POSITION":67,"TEXCOORD_0":69},"indices":66,"material":4,"mode":4}]},{"name":"Wheelwell.mesh","primitives":[{"attributes":{"NORMAL":72,"POSITION":71,"TEXCOORD_0":73},"indices":70,"material":7,"mode":4}]},{"name":"Wings.002.mesh","primitives":[{"attributes":{"NORMAL":81,"POSITION":80,"TEXCOORD_0":82},"indices":79,"material":6,"mode":4}]},{"name":"Wings.mesh","primitives":[{"attributes":{"NORMAL":77,"POSITION":76,"TEXCOORD_0":78},"indices":74,"material":2,"mode":4},{"attributes":{"NORMAL":77,"POSITION":76,"TEXCOORD_0":78},"indices":75,"material":13,"mode":4}]},{"name":"hinge1.mesh","primitives":[{"attributes":{"NORMAL":86,"POSITION":85,"TEXCOORD_0":87},"indices":83,"material":13,"mode":4}]},{"name":"Airline tail surface overlay","primitives":[{"attributes":{"POSITION":224,"NORMAL":225},"material":14},{"attributes":{"POSITION":226,"NORMAL":227,"TEXCOORD_0":228},"material":15}]}],"nodes":[{"matrix":[-4.3711398899999997e-8,-1,0,0,1,-4.3711398899999997e-8,0,0,0,0,1,0,0.1600349992513656,-0.2031169980764389,4.471829891204834,1],"name":"Engines","mesh":26},{"matrix":[-4.3711398899999997e-8,-1,0,0,1,-4.3711398899999997e-8,0,0,0,0,1,0,0.1600349992513656,-0.2031169980764389,4.471829891204834,1],"name":"Engines_001","mesh":0},{"matrix":[-4.3711398899999997e-8,-1,0,0,1,-4.3711398899999997e-8,0,0,0,0,1,0,0.1600349992513656,-0.2031169980764389,4.471829891204834,1],"name":"Fuselage","mesh":3},{"matrix":[-4.3711398899999997e-8,-1,0,0,1,-4.3711398899999997e-8,0,0,0,0,1,0,0.1600349992513656,-0.2031169980764389,4.471829891204834,1],"name":"Fuselage_002","mesh":1},{"matrix":[-4.3711398899999997e-8,-1,0,0,1,-4.3711398899999997e-8,0,0,0,0,1,0,0.1600349992513656,-0.2031169980764389,4.471829891204834,1],"name":"Fuselage_004","mesh":2},{"matrix":[-4.3711398899999997e-8,-1,0,0,1,-4.3711398899999997e-8,0,0,0,0,1,0,0.1600349992513656,-0.2031169980764389,4.471829891204834,1],"name":"Glass","mesh":4},{"matrix":[-4.3711398899999997e-8,-1,0,0,1,-4.3711398899999997e-8,0,0,0,0,1,0,-2.603799819946289,1.4746699333190918,16.815099716186527,1],"name":"Hemi"},{"matrix":[-4.3711398899999997e-8,-1,0,0,1,-4.3711398899999997e-8,0,0,0,0,1,0,0.1600349992513656,-0.2031169980764389,4.471829891204834,1],"name":"Inlets","mesh":5},{"matrix":[-4.3711398899999997e-8,-1,0,0,1,-4.3711398899999997e-8,0,0,0,0,1,0,0.1600349992513656,-0.2031169980764389,4.471829891204834,1],"name":"LFdoor","mesh":6},{"matrix":[-4.3711398899999997e-8,-1,0,0,1,-4.3711398899999997e-8,0,0,0,0,1,0,0.1600349992513656,-0.2031169980764389,4.471829891204834,1],"name":"LHEngChrome","mesh":7},{"matrix":[-4.3711398899999997e-8,-1,0,0,1,-4.3711398899999997e-8,0,0,0,0,1,0,0.1600349992513656,-0.2031169980764389,4.471829891204834,1],"name":"LHelevator","mesh":8},{"matrix":[-4.3711398899999997e-8,-1,0,0,1,-4.3711398899999997e-8,0,0,0,0,1,0,0.1600349992513656,-0.2031169980764389,4.471829891204834,1],"name":"LHstab","mesh":9},{"matrix":[-4.3711398899999997e-8,-1,0,0,1,-4.3711398899999997e-8,0,0,0,0,1,0,0.1600349992513656,-0.2031169980764389,4.471829891204834,1],"name":"LRdoor","mesh":10},{"matrix":[-4.3711398899999997e-8,-1,0,0,1,-4.3711398899999997e-8,0,0,0,0,1,0,0.1600349992513656,-0.2031169980764389,4.471829891204834,1],"name":"Laileron","mesh":11},{"matrix":[-4.3711398899999997e-8,-1,0,0,1,-4.3711398899999997e-8,0,0,0,0,1,0,0.1600349992513656,-0.2031169980764389,4.471829891204834,1],"name":"LandingLights","mesh":12},{"matrix":[-4.3711398899999997e-8,-1,0,0,1,-4.3711398899999997e-8,0,0,0,0,1,0,0.1600349992513656,-0.2031169980764389,4.471829891204834,1],"name":"Lbrake","mesh":14},{"matrix":[-4.3711398899999997e-8,-1,0,0,1,-4.3711398899999997e-8,0,0,0,0,1,0,0.1600349992513656,-0.2031169980764389,4.471829891204834,1],"name":"Lbrake1","mesh":13},{"matrix":[-4.3711398899999997e-8,-1,0,0,1,-4.3711398899999997e-8,0,0,0,0,1,0,0.1600349992513656,-0.2031169980764389,4.471829891204834,1],"name":"Lfan","mesh":15},{"matrix":[-4.3711398899999997e-8,-1,0,0,1,-4.3711398899999997e-8,0,0,0,0,1,0,0.1600349992513656,-0.2031169980764389,4.471829891204834,1],"name":"Lflap1","mesh":16},{"matrix":[-4.3711398899999997e-8,-1,0,0,1,-4.3711398899999997e-8,0,0,0,0,1,0,0.1600349992513656,-0.2031169980764389,4.471829891204834,1],"name":"Lflap2","mesh":17},{"matrix":[-4.3711398899999997e-8,-1,0,0,1,-4.3711398899999997e-8,0,0,0,0,1,0,0.1600349992513656,-0.2031169980764389,4.471829891204834,1],"name":"Lflap4","mesh":18},{"matrix":[-4.3711398899999997e-8,-1,0,0,1,-4.3711398899999997e-8,0,0,0,0,1,0,0.1600349992513656,-0.2031169980764389,4.471829891204834,1],"name":"Lflaperon","mesh":19},{"matrix":[-4.3711398899999997e-8,-1,0,0,1,-4.3711398899999997e-8,0,0,0,0,1,0,0.1600349992513656,-0.2031169980764389,4.471829891204834,1],"name":"Lils","mesh":20},{"matrix":[-4.3711398899999997e-8,-1,0,0,1,-4.3711398899999997e-8,0,0,0,0,1,0,0.1600349992513656,-0.2031169980764389,4.471829891204834,1],"name":"Lmain_geardoor","mesh":21},{"matrix":[-4.3711398899999997e-8,-1,0,0,1,-4.3711398899999997e-8,0,0,0,0,1,0,0.1600349992513656,-0.2031169980764389,4.471829891204834,1],"name":"Lramdoor","mesh":22},{"matrix":[-4.3711398899999997e-8,-1,0,0,1,-4.3711398899999997e-8,0,0,0,0,1,0,0.1600349992513656,-0.2031169980764389,4.471829891204834,1],"name":"Lslat","mesh":23},{"matrix":[-4.3711398899999997e-8,-1,0,0,1,-4.3711398899999997e-8,0,0,0,0,1,0,0.1600349992513656,-0.2031169980764389,4.471829891204834,1],"name":"Lwing_geardoor","mesh":24},{"matrix":[-4.3711398899999997e-8,-1,0,0,1,-4.3711398899999997e-8,0,0,0,0,1,0,0.1600349992513656,-0.2031169980764389,4.471829891204834,1],"name":"Lwiper","mesh":25},{"matrix":[-4.3711398899999997e-8,-1,0,0,1,-4.3711398899999997e-8,0,0,0,0,1,0,0.1600349992513656,-0.2031169980764389,4.471829891204834,1],"name":"RFdoor","mesh":28},{"matrix":[-4.3711398899999997e-8,-1,0,0,1,-4.3711398899999997e-8,0,0,0,0,1,0,0.1600349992513656,-0.2031169980764389,4.471829891204834,1],"name":"RHEngChrome","mesh":29},{"matrix":[-4.3711398899999997e-8,-1,0,0,1,-4.3711398899999997e-8,0,0,0,0,1,0,0.1600349992513656,-0.2031169980764389,4.471829891204834,1],"name":"RHelevator","mesh":30},{"matrix":[-4.3711398899999997e-8,-1,0,0,1,-4.3711398899999997e-8,0,0,0,0,1,0,0.1600349992513656,-0.2031169980764389,4.471829891204834,1],"name":"RHstab","mesh":31},{"matrix":[-4.3711398899999997e-8,-1,0,0,1,-4.3711398899999997e-8,0,0,0,0,1,0,0.1600349992513656,-0.2031169980764389,4.471829891204834,1],"name":"RRdoor","mesh":32},{"children":[34,35],"matrix":[-4.3711398899999997e-8,-1,0,0,1,-4.3711398899999997e-8,0,0,0,0,1,0,0.1600349992513656,-0.2031169980764389,4.471829891204834,1],"name":"Raileron"},{"matrix":[1,0,0,0,0,1,0,0,0,0,1,0,0,0,0,1],"name":"Raileron_0","mesh":33},{"matrix":[1,0,0,0,0,1,0,0,0,0,1,0,0,0,0,1],"name":"Raileron_1","mesh":34},{"matrix":[-4.3711398899999997e-8,-1,0,0,1,-4.3711398899999997e-8,0,0,0,0,1,0,0.1600349992513656,-0.2031169980764389,4.471829891204834,1],"name":"Rbrake","mesh":36},{"matrix":[-4.3711398899999997e-8,-1,0,0,1,-4.3711398899999997e-8,0,0,0,0,1,0,0.1600349992513656,-0.2031169980764389,4.471829891204834,1],"name":"Rbrake1","mesh":35},{"matrix":[-4.3711398899999997e-8,-1,0,0,1,-4.3711398899999997e-8,0,0,0,0,1,0,0.1600349992513656,-0.2031169980764389,4.471829891204834,1],"name":"Reversers","mesh":27},{"matrix":[-4.3711398899999997e-8,-1,0,0,1,-4.3711398899999997e-8,0,0,0,0,1,0,0.1600349992513656,-0.2031169980764389,4.471829891204834,1],"name":"Rfan","mesh":37},{"matrix":[-4.3711398899999997e-8,-1,0,0,1,-4.3711398899999997e-8,0,0,0,0,1,0,0.1600349992513656,-0.2031169980764389,4.471829891204834,1],"name":"Rflap1","mesh":38},{"matrix":[-4.3711398899999997e-8,-1,0,0,1,-4.3711398899999997e-8,0,0,0,0,1,0,0.1600349992513656,-0.2031169980764389,4.471829891204834,1],"name":"Rflap2","mesh":39},{"matrix":[-4.3711398899999997e-8,-1,0,0,1,-4.3711398899999997e-8,0,0,0,0,1,0,0.1600349992513656,-0.2031169980764389,4.471829891204834,1],"name":"Rflap4","mesh":41},{"matrix":[-4.3711398899999997e-8,-1,0,0,1,-4.3711398899999997e-8,0,0,0,0,1,0,0.1600349992513656,-0.2031169980764389,4.471829891204834,1],"name":"Rflap4_001","mesh":40},{"matrix":[-4.3711398899999997e-8,-1,0,0,1,-4.3711398899999997e-8,0,0,0,0,1,0,0.1600349992513656,-0.2031169980764389,4.471829891204834,1],"name":"Rflaperon","mesh":42},{"matrix":[-4.3711398899999997e-8,-1,0,0,1,-4.3711398899999997e-8,0,0,0,0,1,0,0.1600349992513656,-0.2031169980764389,4.471829891204834,1],"name":"Rmain_geardoor","mesh":43},{"matrix":[-4.3711398899999997e-8,-1,0,0,1,-4.3711398899999997e-8,0,0,0,0,1,0,0.1600349992513656,-0.2031169980764389,4.471829891204834,1],"name":"Rramdoor","mesh":44},{"matrix":[-4.3711398899999997e-8,-1,0,0,1,-4.3711398899999997e-8,0,0,0,0,1,0,0.1600349992513656,-0.2031169980764389,4.471829891204834,1],"name":"Rslat","mesh":45},{"matrix":[-4.3711398899999997e-8,-1,0,0,1,-4.3711398899999997e-8,0,0,0,0,1,0,0.1600349992513656,-0.2031169980764389,4.471829891204834,1],"name":"Rudder","mesh":46},{"matrix":[-4.3711398899999997e-8,-1,0,0,1,-4.3711398899999997e-8,0,0,0,0,1,0,0.1600349992513656,-0.2031169980764389,4.471829891204834,1],"name":"Rwing_geardoor","mesh":47},{"matrix":[-4.3711398899999997e-8,-1,0,0,1,-4.3711398899999997e-8,0,0,0,0,1,0,0.1600349992513656,-0.2031169980764389,4.471829891204834,1],"name":"Rwiper","mesh":48},{"matrix":[-4.3711398899999997e-8,-1,0,0,1,-4.3711398899999997e-8,0,0,0,0,1,0,0.1600349992513656,-0.2031169980764389,4.471829891204834,1],"name":"Tail","mesh":49},{"matrix":[-4.3711398899999997e-8,-1,0,0,1,-4.3711398899999997e-8,0,0,0,0,1,0,0.1600349992513656,-0.2031169980764389,4.471829891204834,1],"name":"Wheaters","mesh":50},{"matrix":[-4.3711398899999997e-8,-1,0,0,1,-4.3711398899999997e-8,0,0,0,0,1,0,0.1600349992513656,-0.2031169980764389,4.471829891204834,1],"name":"Wheelwell","mesh":51},{"matrix":[-4.3711398899999997e-8,-1,0,0,1,-4.3711398899999997e-8,0,0,0,0,1,0,0.1600349992513656,-0.2031169980764389,4.471829891204834,1],"name":"Wings","mesh":53},{"matrix":[-4.3711398899999997e-8,-1,0,0,1,-4.3711398899999997e-8,0,0,0,0,1,0,0.1600349992513656,-0.2031169980764389,4.471829891204834,1],"name":"Wings_002","mesh":52},{"matrix":[-4.3711398899999997e-8,-1,0,0,1,-4.3711398899999997e-8,0,0,0,0,1,0,0.1600349992513656,-0.2031169980764389,4.471829891204834,1],"name":"hinge1","mesh":54},{"children":[0,38,1,2,3,4,5,7,8,9,10,11,12,13,14,15,16,17,18,19,20,21,22,23,24,25,26,27,28,29,30,31,32,33,36,37,39,40,41,42,43,44,45,46,47,48,49,50,51,52,53,54,55,56,6],"matrix":[1,0,0,0,0,0,-1,0,0,1,0,0,0,0,0,1],"name":"Y_UP_Transform"},{"name":"SkywardCoordinateAlignment","matrix":[-1,0,-1.2246467991473532e-16,0,0,1,0,0,1.2246467991473532e-16,0,-1,0,0.16003433212794874,0,7.067466138262677,1],"children":[57]},{"name":"AirlineTailBranding","mesh":55}],"samplers":[{"magFilter":9729,"minFilter":9729,"wrapS":10497,"wrapT":10497,"name":"sampler_0"},{"magFilter":9729,"minFilter":9987,"wrapS":33071,"wrapT":33071}],"scene":0,"scenes":[{"nodes":[58,59],"name":"defaultScene"}],"textures":[{"sampler":0,"source":0,"name":"texture_paint1_png"},{"source":1,"sampler":1}],"extras":{"skyward":{"source":"https://github.com/Flightradar24/fr24-3d-models","commit":"dd53267690c6a4ecbb290a3acf0284333a5d68a9","changes":"Converted legacy glTF to glTF 2.0 with Cesium; rigid axis alignment and horizontal centering only. Original geometry, materials and paint retained. Added surface-following operator tail paint and unmodified identification-logo texture. Branding is illustrative, not a registration-specific livery.","license":"GPL-2.0","sourceFiles":["source/b772/777.blend","source/b772/777.zip"],"operator":"JAL"}}}