{"accessors":[{"bufferView":56,"byteOffset":0,"componentType":5123,"count":279,"type":"SCALAR","min":[0],"max":[92],"name":"accessor_102"},{"bufferView":12,"byteOffset":0,"componentType":5126,"count":93,"max":[2.3389523029327393,3.3218770027160645,-7.868837833404541],"min":[1.4863303899765015,1.471750020980835,-8.77703857421875],"type":"VEC3","name":"accessor_104"},{"bufferView":12,"byteOffset":1116,"componentType":5126,"count":93,"max":[0.9997469782829285,0.8645150065422058,-0.017206957563757896],"min":[-0.8239740133285522,-0.18567100167274475,-0.5664820671081543],"type":"VEC3","name":"accessor_106"},{"bufferView":13,"byteOffset":0,"componentType":5126,"count":93,"max":[0.7924180030822754,0.28763097524642944],"min":[0.7633579969406128,0.21056503057479858],"type":"VEC2","name":"accessor_108"},{"bufferView":56,"byteOffset":558,"componentType":5123,"count":171,"type":"SCALAR","min":[0],"max":[57],"name":"accessor_129"},{"bufferView":14,"byteOffset":0,"componentType":5126,"count":58,"max":[0.34140971302986145,3.428412914276123,7.031961917877197],"min":[-0.6547482013702393,1.571850061416626,6.12374210357666],"type":"VEC3","name":"accessor_131"},{"bufferView":14,"byteOffset":696,"componentType":5126,"count":58,"max":[-0.521992027759552,0.8517239689826965,0.19743995368480682],"min":[-0.991129994392395,-0.3295019865036011,0.04557417705655098],"type":"VEC3","name":"accessor_133"},{"bufferView":15,"byteOffset":0,"componentType":5126,"count":58,"max":[0.6986599564552307,0.9160619974136353],"min":[0.6700429916381836,0.8399069905281067],"type":"VEC2","name":"accessor_135"},{"bufferView":56,"byteOffset":900,"componentType":5123,"count":249,"type":"SCALAR","min":[0],"max":[83],"name":"accessor_156"},{"bufferView":16,"byteOffset":0,"componentType":5126,"count":84,"max":[2.1044716835021973,3.425196886062622,7.031951904296875],"min":[1.111602783203125,1.5750699043273926,6.123752117156982],"type":"VEC3","name":"accessor_158"},{"bufferView":16,"byteOffset":1008,"componentType":5126,"count":84,"max":[0.9911399483680725,0.849232017993927,0.19743604958057404],"min":[0.52605801820755,-0.33009999990463257,0.04503832384943962],"type":"VEC3","name":"accessor_160"},{"bufferView":17,"byteOffset":0,"componentType":5126,"count":84,"max":[0.3156319856643677,0.28332698345184326],"min":[0.28657200932502747,0.20626097917556763],"type":"VEC2","name":"accessor_162"},{"bufferView":56,"byteOffset":1398,"componentType":5123,"count":318,"type":"SCALAR","min":[0],"max":[317],"name":"accessor_183"},{"bufferView":18,"byteOffset":0,"componentType":5126,"count":318,"max":[0.4067159593105316,7.557730674743652,14.81704044342041],"min":[-4.868908882141113,7.3101301193237305,13.572900772094727],"type":"VEC3","name":"accessor_185"},{"bufferView":18,"byteOffset":3816,"componentType":5126,"count":318,"max":[0.9999549984931946,0.9999449849128723,0.15754200518131256],"min":[-0.9157199859619141,-0.9999269843101501,-0.9672020077705383],"type":"VEC3","name":"accessor_187"},{"bufferView":19,"byteOffset":0,"componentType":5126,"count":318,"max":[0.8422589898109436,0.59306401014328],"min":[0.7142120003700256,0.459522008895874],"type":"VEC2","name":"accessor_189"},{"bufferView":56,"byteOffset":2034,"componentType":5123,"count":345,"type":"SCALAR","min":[0],"max":[99],"name":"accessor_21"},{"bufferView":56,"byteOffset":2724,"componentType":5123,"count":318,"type":"SCALAR","min":[0],"max":[116],"name":"accessor_210"},{"bufferView":20,"byteOffset":0,"componentType":5126,"count":117,"max":[6.318631172180176,7.557730674743652,14.817041397094727],"min":[1.0430059432983398,7.3101301193237305,13.572900772094727],"type":"VEC3","name":"accessor_212"},{"bufferView":20,"byteOffset":1404,"componentType":5126,"count":117,"max":[0.9153860211372375,0.9991689920425415,0.15754200518131256],"min":[-0.9999549984931946,-0.9991229772567749,-0.9672009944915771],"type":"VEC3","name":"accessor_214"},{"bufferView":21,"byteOffset":0,"componentType":5126,"count":117,"max":[0.9789729714393616,0.5923260450363159],"min":[0.8508560061454773,0.45945602655410767],"type":"VEC2","name":"accessor_216"},{"bufferView":22,"byteOffset":0,"componentType":5126,"count":100,"max":[-9.397237777709961,3.5366930961608887,1.490639328956604],"min":[-12.34793758392334,3.2790615558624268,0.7032193541526794],"type":"VEC3","name":"accessor_23"},{"bufferView":56,"byteOffset":3360,"componentType":5123,"count":3240,"type":"SCALAR","min":[0],"max":[1743],"name":"accessor_237"},{"bufferView":22,"byteOffset":1200,"componentType":5126,"count":1744,"max":[7.944445610046387,3.0537190437316895,-1.436980128288269],"min":[-6.5279340744018555,1.656141996383667,-4.966999530792236],"type":"VEC3","name":"accessor_239"},{"bufferView":22,"byteOffset":22128,"componentType":5126,"count":1744,"max":[0.9975050091743469,0.9995859861373901,1],"min":[-0.997622013092041,-0.9988030195236206,-0.33938997983932495],"type":"VEC3","name":"accessor_241"},{"bufferView":23,"byteOffset":0,"componentType":5126,"count":1744,"max":[0.946287989616394,0.15097200870513916],"min":[0.4269390106201172,0.03138101100921631],"type":"VEC2","name":"accessor_243"},{"bufferView":24,"byteOffset":0,"componentType":5126,"count":100,"max":[0.050076693296432495,0.9994249939918518,0.3278540074825287],"min":[-0.947297990322113,-0.9998970031738281,-0.9811429977416992],"type":"VEC3","name":"accessor_25"},{"bufferView":56,"byteOffset":9840,"componentType":5123,"count":2280,"type":"SCALAR","min":[0],"max":[711],"name":"accessor_264"},{"bufferView":24,"byteOffset":1200,"componentType":5126,"count":712,"max":[7.85984468460083,3.0425467491149902,-3.8153324127197266],"min":[-6.469315052032471,1.8322328329086304,-5.094907760620117],"type":"VEC3","name":"accessor_266"},{"bufferView":24,"byteOffset":9744,"componentType":5126,"count":712,"max":[0.9999960064888,0.9998729825019836,0.028516914695501328],"min":[-0.9999960064888,-0.9999930262565613,-0.9992280006408691],"type":"VEC3","name":"accessor_268"},{"bufferView":25,"byteOffset":0,"componentType":5126,"count":100,"max":[0.15446700155735016,0.7402490377426147],"min":[0.07545500248670578,0.521353006362915],"type":"VEC2","name":"accessor_27"},{"bufferView":25,"byteOffset":800,"componentType":5126,"count":712,"max":[0.2878020107746124,0.32986700534820557],"min":[0.019370999187231064,0.009742975234985352],"type":"VEC2","name":"accessor_270"},{"bufferView":56,"byteOffset":14400,"componentType":5123,"count":1194,"type":"SCALAR","min":[0],"max":[341],"name":"accessor_291"},{"bufferView":26,"byteOffset":0,"componentType":5126,"count":342,"max":[-1.0018080472946167,3.694990873336792,1.583129644393921],"min":[-8.109917640686035,2.832174062728882,-0.5521349906921387],"type":"VEC3","name":"accessor_293"},{"bufferView":26,"byteOffset":4104,"componentType":5126,"count":342,"max":[0.9998499751091003,0.9808390140533447,0.718379020690918],"min":[-0.9998480081558228,-0.9964079856872559,-1],"type":"VEC3","name":"accessor_295"},{"bufferView":27,"byteOffset":0,"componentType":5126,"count":342,"max":[0.33880800008773804,0.7345000505447388],"min":[0.16784100234508514,0.48203402757644653],"type":"VEC2","name":"accessor_297"},{"bufferView":56,"byteOffset":16788,"componentType":5123,"count":1194,"type":"SCALAR","min":[0],"max":[339],"name":"accessor_318"},{"bufferView":28,"byteOffset":0,"componentType":5126,"count":340,"max":[9.559501647949219,3.694990873336792,1.583130121231079],"min":[2.4513819217681885,2.8321728706359863,-0.5521348714828491],"type":"VEC3","name":"accessor_320"},{"bufferView":28,"byteOffset":4080,"componentType":5126,"count":340,"max":[0.9998480081558228,0.9808380007743835,0.7183780074119568],"min":[-0.9998499751091003,-0.9964079856872559,-1],"type":"VEC3","name":"accessor_322"},{"bufferView":29,"byteOffset":0,"componentType":5126,"count":340,"max":[0.5726270079612732,0.71840500831604],"min":[0.4007669985294342,0.47822898626327515],"type":"VEC2","name":"accessor_324"},{"bufferView":56,"byteOffset":19176,"componentType":5123,"count":13308,"type":"SCALAR","min":[0],"max":[4187],"name":"accessor_345"},{"bufferView":30,"byteOffset":0,"componentType":5126,"count":4188,"max":[2.417658567428589,7.82643985748291,15.026800155639648],"min":[-0.9679312109947205,0.15440699458122253,-13.282209396362305],"type":"VEC3","name":"accessor_347"},{"bufferView":30,"byteOffset":50256,"componentType":5126,"count":4188,"max":[1,1,0.9996680021286011],"min":[-1,-1,-1],"type":"VEC3","name":"accessor_349"},{"bufferView":31,"byteOffset":0,"componentType":5126,"count":4188,"max":[0.9519270062446594,0.9770311117172241],"min":[0.02739899978041649,0.020245015621185303],"type":"VEC2","name":"accessor_351"},{"bufferView":56,"byteOffset":45792,"componentType":5123,"count":936,"type":"SCALAR","min":[0],"max":[371],"name":"accessor_372"},{"bufferView":32,"byteOffset":0,"componentType":5126,"count":372,"max":[7.740025520324707,2.8136749267578125,-3.8153321743011475],"min":[-6.349493980407715,2.040945053100586,-4.746967792510986],"type":"VEC3","name":"accessor_374"},{"bufferView":32,"byteOffset":4464,"componentType":5126,"count":372,"max":[0.8806080222129822,1,0],"min":[-0.8806139826774597,-0.8806020021438599,-1],"type":"VEC3","name":"accessor_376"},{"bufferView":33,"byteOffset":0,"componentType":5126,"count":372,"max":[0.31303200125694275,0.6649880409240723],"min":[0.007765950169414282,0.36083900928497314],"type":"VEC2","name":"accessor_378"},{"bufferView":56,"byteOffset":47664,"componentType":5123,"count":957,"type":"SCALAR","min":[0],"max":[335],"name":"accessor_399"},{"bufferView":34,"byteOffset":0,"componentType":5126,"count":336,"max":[6.334640979766846,7.578755855560303,14.550641059875488],"min":[-4.884918689727783,7.282043933868408,11.373351097106934],"type":"VEC3","name":"accessor_401"},{"bufferView":34,"byteOffset":4032,"componentType":5126,"count":336,"max":[0.8108680248260498,0.9999949932098389,0.22632700204849243],"min":[-0.8108270168304443,-0.9999380111694336,-0.7232909798622131],"type":"VEC3","name":"accessor_403"},{"bufferView":35,"byteOffset":0,"componentType":5126,"count":336,"max":[0.9793260097503662,0.5865529775619507],"min":[0.7151110172271729,0.4095969796180725],"type":"VEC2","name":"accessor_405"},{"bufferView":56,"byteOffset":49578,"componentType":5123,"count":159,"type":"SCALAR","min":[0],"max":[42],"name":"accessor_426"},{"bufferView":36,"byteOffset":0,"componentType":5126,"count":43,"max":[0.7439633011817932,0.9812040328979492,0.16228917241096497],"min":[-0.7373901605606079,0.13890494406223297,-1.3563777208328247],"type":"VEC3","name":"accessor_428"},{"bufferView":36,"byteOffset":516,"componentType":5126,"count":43,"max":[0.01791396364569664,-0.1349887102842331,0.12787696719169617],"min":[-0.9904205799102783,-0.9997221231460571,-0.152615025639534],"type":"VEC3","name":"accessor_430"},{"bufferView":37,"byteOffset":0,"componentType":5126,"count":43,"max":[0.4830879867076874,0.9776011109352112],"min":[0.43523600697517395,0.9370399713516235],"type":"VEC2","name":"accessor_432"},{"bufferView":56,"byteOffset":49896,"componentType":5123,"count":159,"type":"SCALAR","min":[0],"max":[42],"name":"accessor_453"},{"bufferView":38,"byteOffset":0,"componentType":5126,"count":43,"max":[2.1777803897857666,0.9392470121383667,0.18981286883354187],"min":[0.7033656239509583,0.10894601047039032,-1.328855037689209],"type":"VEC3","name":"accessor_455"},{"bufferView":38,"byteOffset":516,"componentType":5126,"count":43,"max":[0.9904201030731201,-0.13498955965042114,0.127873033285141],"min":[-0.017914820462465286,-0.9997212290763855,-0.15261296927928925],"type":"VEC3","name":"accessor_457"},{"bufferView":39,"byteOffset":0,"componentType":5126,"count":43,"max":[0.5540769696235657,0.3459540009498596],"min":[0.5054839849472046,0.304764986038208],"type":"VEC2","name":"accessor_459"},{"bufferView":56,"byteOffset":50214,"componentType":5123,"count":345,"type":"SCALAR","min":[0],"max":[99],"name":"accessor_48"},{"bufferView":56,"byteOffset":50904,"componentType":5123,"count":18,"type":"SCALAR","min":[0],"max":[9],"name":"accessor_480"},{"bufferView":40,"byteOffset":0,"componentType":5126,"count":10,"max":[1.0179840326309204,0.5692652463912964,-10.575753211975098],"min":[0.45364901423454285,0.45937854051589966,-11.189764022827148],"type":"VEC3","name":"accessor_482"},{"bufferView":40,"byteOffset":120,"componentType":5126,"count":10,"max":[0.2424059957265854,-0.9635085463523865,0.13071082532405853],"min":[-0.23886099457740784,-0.9973328113555908,-0.09757913649082184],"type":"VEC3","name":"accessor_484"},{"bufferView":41,"byteOffset":0,"componentType":5126,"count":10,"max":[0.853971004486084,0.9885330200195312],"min":[0.1415179967880249,0.3299890160560608],"type":"VEC2","name":"accessor_486"},{"bufferView":42,"byteOffset":0,"componentType":5126,"count":100,"max":[13.797561645507812,3.5366930961608887,1.4906405210494995],"min":[10.84686279296875,3.2790615558624268,0.7032204270362854],"type":"VEC3","name":"accessor_50"},{"bufferView":56,"byteOffset":50940,"componentType":5123,"count":90,"type":"SCALAR","min":[0],"max":[31],"name":"accessor_507"},{"bufferView":42,"byteOffset":1200,"componentType":5126,"count":32,"max":[2.260441780090332,3.5376367568969727,-3.7746527194976807],"min":[-0.8107179403305054,3.314302921295166,-3.9979870319366455],"type":"VEC3","name":"accessor_509"},{"bufferView":42,"byteOffset":1584,"componentType":5126,"count":32,"max":[0.9880660176277161,1,0],"min":[-0.9880660176277161,0.0041527701541781425,-0.4750939607620239],"type":"VEC3","name":"accessor_511"},{"bufferView":42,"byteOffset":1968,"componentType":5126,"count":100,"max":[0.9473130106925964,0.9994249939918518,0.3278540074825287],"min":[-0.05007680878043175,-0.9998970031738281,-0.9811429977416992],"type":"VEC3","name":"accessor_52"},{"bufferView":56,"byteOffset":51120,"componentType":5123,"count":87,"type":"SCALAR","min":[0],"max":[86],"name":"accessor_534"},{"bufferView":42,"byteOffset":3168,"componentType":5126,"count":87,"max":[13.787762641906738,3.4652340412139893,0.060097504407167435],"min":[13.641839981079102,3.2991459369659424,-0.08689960092306137],"type":"VEC3","name":"accessor_536"},{"bufferView":42,"byteOffset":4212,"componentType":5126,"count":87,"max":[0.9054269790649414,0.9622219800949097,0.02936522848904133],"min":[0.09109790623188019,-0.968155026435852,-0.9897170066833496],"type":"VEC3","name":"accessor_538"},{"bufferView":43,"byteOffset":0,"componentType":5126,"count":100,"max":[0.6670290231704712,0.7085689902305603],"min":[0.5872769951820374,0.49821698665618896],"type":"VEC2","name":"accessor_54"},{"bufferView":56,"byteOffset":51294,"componentType":5123,"count":78,"type":"SCALAR","min":[0],"max":[77],"name":"accessor_561"},{"bufferView":44,"byteOffset":0,"componentType":5126,"count":78,"max":[-12.192138671875,3.4652340412139893,0.06009650602936745],"min":[-12.33806037902832,3.2991459369659424,-0.08690059930086136],"type":"VEC3","name":"accessor_563"},{"bufferView":44,"byteOffset":936,"componentType":5126,"count":78,"max":[-0.09013019502162933,0.9622229933738708,0.029125971719622612],"min":[-0.9053999781608582,-0.968155026435852,-0.8741220235824585],"type":"VEC3","name":"accessor_565"},{"bufferView":56,"byteOffset":51450,"componentType":5123,"count":192,"type":"SCALAR","min":[0],"max":[191],"name":"accessor_588"},{"bufferView":44,"byteOffset":1872,"componentType":5126,"count":192,"max":[6.741171836853027,3.6981990337371826,-2.0470142364501953],"min":[-5.291447639465332,3.4334208965301514,-2.34954571723938],"type":"VEC3","name":"accessor_590"},{"bufferView":44,"byteOffset":4176,"componentType":5126,"count":192,"max":[0.31969398260116577,0.957614004611969,0.9475150108337402],"min":[-0.31971001625061035,-0.9581499695777893,-0.816474974155426],"type":"VEC3","name":"accessor_592"},{"bufferView":56,"byteOffset":51834,"componentType":5123,"count":279,"type":"SCALAR","min":[0],"max":[103],"name":"accessor_615"},{"bufferView":44,"byteOffset":6480,"componentType":5126,"count":104,"max":[0.9801775217056274,6.806650161743164,14.048991203308105],"min":[0.46953657269477844,3.364835023880005,10.448271751403809],"type":"VEC3","name":"accessor_617"},{"bufferView":44,"byteOffset":7728,"componentType":5126,"count":104,"max":[0.9996730089187622,0.9999939799308777,0.22613704204559326],"min":[-0.9996730089187622,-0.9999930262565613,-0.8660449981689453],"type":"VEC3","name":"accessor_619"},{"bufferView":45,"byteOffset":0,"componentType":5126,"count":104,"max":[0.91975998878479,0.8425149917602539],"min":[0.06204700097441673,0.06540799140930176],"type":"VEC2","name":"accessor_621"},{"bufferView":56,"byteOffset":52392,"componentType":5123,"count":483,"type":"SCALAR","min":[0],"max":[149],"name":"accessor_642"},{"bufferView":46,"byteOffset":0,"componentType":5126,"count":150,"max":[-1.0934978723526,3.749941825866699,0.07430950552225113],"min":[-12.087138175964355,3.2974770069122314,-3.5131499767303467],"type":"VEC3","name":"accessor_644"},{"bufferView":46,"byteOffset":1800,"componentType":5126,"count":150,"max":[-0.02504599280655384,0.9876189827919006,-0.14229099452495575],"min":[-0.28712198138237,-0.9863529801368713,-0.8955280184745789],"type":"VEC3","name":"accessor_646"},{"bufferView":47,"byteOffset":0,"componentType":5126,"count":150,"max":[0.33265501260757446,0.7086570262908936],"min":[0.07932300120592117,0.41894102096557617],"type":"VEC2","name":"accessor_648"},{"bufferView":56,"byteOffset":53358,"componentType":5123,"count":483,"type":"SCALAR","min":[0],"max":[149],"name":"accessor_669"},{"bufferView":48,"byteOffset":0,"componentType":5126,"count":150,"max":[13.53686237335205,3.749941825866699,0.07431062310934067],"min":[2.543221950531006,3.2974770069122314,-3.5131499767303467],"type":"VEC3","name":"accessor_671"},{"bufferView":48,"byteOffset":1800,"componentType":5126,"count":150,"max":[0.2871210277080536,0.9876189827919006,-0.14228999614715576],"min":[0.025046907365322113,-0.9863520264625549,-0.8955249786376953],"type":"VEC3","name":"accessor_673"},{"bufferView":49,"byteOffset":0,"componentType":5126,"count":150,"max":[0.6598680019378662,0.6775740385055542],"min":[0.39893901348114014,0.41506701707839966],"type":"VEC2","name":"accessor_675"},{"bufferView":56,"byteOffset":54324,"componentType":5123,"count":315,"type":"SCALAR","min":[0],"max":[83],"name":"accessor_696"},{"bufferView":50,"byteOffset":0,"componentType":5126,"count":84,"max":[0.7248621582984924,3.496324062347412,12.387990951538086],"min":[0.04004856199026108,1.6069200038909912,9.845480918884277],"type":"VEC3","name":"accessor_698"},{"bufferView":50,"byteOffset":1008,"componentType":5126,"count":84,"max":[-0.07752441614866257,0.5537099838256836,0.696554958820343],"min":[-0.9982309937477112,-0.962565004825592,0.04895405471324921],"type":"VEC3","name":"accessor_700"},{"bufferView":51,"byteOffset":0,"componentType":5126,"count":84,"max":[0.8674240112304688,0.9146230220794678],"min":[0.120448999106884,0.22552800178527832],"type":"VEC2","name":"accessor_702"},{"bufferView":56,"byteOffset":54954,"componentType":5123,"count":321,"type":"SCALAR","min":[0],"max":[85],"name":"accessor_723"},{"bufferView":52,"byteOffset":0,"componentType":5126,"count":86,"max":[1.4110076427459717,3.366896867752075,12.387990951538086],"min":[0.7247979044914246,1.6069200038909912,9.836541175842285],"type":"VEC3","name":"accessor_725"},{"bufferView":52,"byteOffset":1032,"componentType":5126,"count":86,"max":[0.9970020055770874,0.5537319779396057,0.6965540647506714],"min":[0.07752008736133575,-0.962565004825592,0.045674145221710205],"type":"VEC3","name":"accessor_727"},{"bufferView":53,"byteOffset":0,"componentType":5126,"count":86,"max":[0.8547430038452148,0.8478659987449646],"min":[0.11519300192594528,0.20868897438049316],"type":"VEC2","name":"accessor_729"},{"bufferView":56,"byteOffset":55596,"componentType":5123,"count":321,"type":"SCALAR","min":[0],"max":[106],"name":"accessor_75"},{"bufferView":56,"byteOffset":56238,"componentType":5123,"count":267,"type":"SCALAR","min":[0],"max":[98],"name":"accessor_750"},{"bufferView":54,"byteOffset":0,"componentType":5126,"count":99,"max":[2.143256425857544,2.7333199977874756,-9.459297180175781],"min":[-0.697383463382721,2.2188398838043213,-11.45589828491211],"type":"VEC3","name":"accessor_752"},{"bufferView":54,"byteOffset":1188,"componentType":5126,"count":99,"max":[0.9989359974861145,0.7899180054664612,-0.03641945496201515],"min":[-0.9511999487876892,0.028290200978517532,-0.6309549808502197],"type":"VEC3","name":"accessor_754"},{"bufferView":54,"byteOffset":2376,"componentType":5126,"count":107,"max":[-0.0359075665473938,3.3218770027160645,-7.868837833404541],"min":[-0.8892276287078857,1.471750020980835,-8.77703857421875],"type":"VEC3","name":"accessor_77"},{"bufferView":56,"byteOffset":56772,"componentType":5123,"count":7017,"type":"SCALAR","min":[0],"max":[2566],"name":"accessor_777"},{"bufferView":54,"byteOffset":3660,"componentType":5126,"count":2567,"max":[2.415814161300659,2.5500900745391846,5.848696708679199],"min":[-0.9694457054138184,2.131319999694824,-7.436832427978516],"type":"VEC3","name":"accessor_779"},{"bufferView":54,"byteOffset":34464,"componentType":5126,"count":2567,"max":[0.9994940161705017,1,1],"min":[-0.9994319677352905,-0.9743750095367432,-0.9993590116500854],"type":"VEC3","name":"accessor_781"},{"bufferView":54,"byteOffset":65268,"componentType":5126,"count":107,"max":[-0.4958049952983856,0.8648239970207214,-0.010112332180142403],"min":[-0.9997469782829285,-0.18664400279521942,-0.13915003836154938],"type":"VEC3","name":"accessor_79"},{"bufferView":56,"byteOffset":70806,"componentType":5123,"count":4893,"type":"SCALAR","min":[0],"max":[1573],"name":"accessor_804"},{"bufferView":54,"byteOffset":66552,"componentType":5126,"count":1574,"max":[13.809261322021484,3.8176939487457275,2.234499931335449],"min":[-12.359537124633789,2.579725980758667,-4.964759826660156],"type":"VEC3","name":"accessor_806"},{"bufferView":54,"byteOffset":85440,"componentType":5126,"count":1574,"max":[1,0.9999309778213501,1],"min":[-1,-0.9999949932098389,-1],"type":"VEC3","name":"accessor_808"},{"bufferView":55,"byteOffset":0,"componentType":5126,"count":107,"max":[0.791903018951416,0.9201681017875671],"min":[0.200532004237175,0.21056699752807617],"type":"VEC2","name":"accessor_81"},{"bufferView":55,"byteOffset":856,"componentType":5126,"count":1574,"max":[0.6665499806404114,0.7422530055046082],"min":[0.07569199800491333,0.38284701108932495],"type":"VEC2","name":"accessor_810"},{"bufferView":57,"componentType":5126,"count":1728,"type":"VEC3","min":[-0.6305433711584708,2.8100688569247723,-14.154504776000977],"max":[0.6277222544235181,7.795729637145996,-3.3971999999999998]},{"bufferView":58,"componentType":5126,"count":1728,"type":"VEC3"},{"bufferView":59,"componentType":5126,"count":522,"type":"VEC3","min":[-0.4815739716215001,3.1644371610309463,-11.110810277894558],"max":[0.4815744927409949,5.526892521738773,-8.748354917186731]},{"bufferView":60,"componentType":5126,"count":522,"type":"VEC3"},{"bufferView":61,"componentType":5126,"count":522,"type":"VEC2"}],"asset":{"generator":"collada2gltf@","version":"2.0","copyright":"FlightGear model authors / Flightradar24 contributors; GPLv2. See UPSTREAM-CREDITS.md and LICENSE.txt."},"bufferViews":[{"buffer":0,"byteLength":685,"byteOffset":514072,"name":"binary_bufferView0"},{"buffer":0,"byteLength":439,"byteOffset":514757,"name":"binary_bufferView1"},{"buffer":0,"byteLength":733,"byteOffset":515196,"name":"binary_bufferView2"},{"buffer":0,"byteLength":439,"byteOffset":515929,"name":"binary_bufferView3"},{"buffer":0,"byteLength":629,"byteOffset":516368,"name":"binary_bufferView4"},{"buffer":0,"byteLength":355,"byteOffset":516997,"name":"binary_bufferView5"},{"buffer":0,"byteLength":677,"byteOffset":517352,"name":"binary_bufferView6"},{"buffer":0,"byteLength":355,"byteOffset":518029,"name":"binary_bufferView7"},{"buffer":0,"byteLength":677,"byteOffset":518384,"name":"binary_bufferView8"},{"buffer":0,"byteLength":355,"byteOffset":519061,"name":"binary_bufferView9"},{"buffer":0,"byteLength":12813,"byteOffset":519416,"name":"binary_bufferView10"},{"buffer":0,"byteLength":30146,"byteOffset":532229,"name":"binary_bufferView11"},{"buffer":0,"byteLength":2232,"byteOffset":0,"target":34962,"name":"bufferView_0","byteStride":12},{"buffer":0,"byteLength":744,"byteOffset":2232,"target":34962,"name":"bufferView_0","byteStride":8},{"buffer":0,"byteLength":1392,"byteOffset":2976,"target":34962,"name":"bufferView_0","byteStride":12},{"buffer":0,"byteLength":464,"byteOffset":4368,"target":34962,"name":"bufferView_0","byteStride":8},{"buffer":0,"byteLength":2016,"byteOffset":4832,"target":34962,"name":"bufferView_0","byteStride":12},{"buffer":0,"byteLength":672,"byteOffset":6848,"target":34962,"name":"bufferView_0","byteStride":8},{"buffer":0,"byteLength":7632,"byteOffset":7520,"target":34962,"name":"bufferView_0","byteStride":12},{"buffer":0,"byteLength":2544,"byteOffset":15152,"target":34962,"name":"bufferView_0","byteStride":8},{"buffer":0,"byteLength":2808,"byteOffset":17696,"target":34962,"name":"bufferView_0","byteStride":12},{"buffer":0,"byteLength":936,"byteOffset":20504,"target":34962,"name":"bufferView_0","byteStride":8},{"buffer":0,"byteLength":43056,"byteOffset":21440,"target":34962,"name":"bufferView_0","byteStride":12},{"buffer":0,"byteLength":13952,"byteOffset":64496,"target":34962,"name":"bufferView_0","byteStride":8},{"buffer":0,"byteLength":18288,"byteOffset":78448,"target":34962,"name":"bufferView_0","byteStride":12},{"buffer":0,"byteLength":6496,"byteOffset":96736,"target":34962,"name":"bufferView_0","byteStride":8},{"buffer":0,"byteLength":8208,"byteOffset":103232,"target":34962,"name":"bufferView_0","byteStride":12},{"buffer":0,"byteLength":2736,"byteOffset":111440,"target":34962,"name":"bufferView_0","byteStride":8},{"buffer":0,"byteLength":8160,"byteOffset":114176,"target":34962,"name":"bufferView_0","byteStride":12},{"buffer":0,"byteLength":2720,"byteOffset":122336,"target":34962,"name":"bufferView_0","byteStride":8},{"buffer":0,"byteLength":100512,"byteOffset":125056,"target":34962,"name":"bufferView_0","byteStride":12},{"buffer":0,"byteLength":33504,"byteOffset":225568,"target":34962,"name":"bufferView_0","byteStride":8},{"buffer":0,"byteLength":8928,"byteOffset":259072,"target":34962,"name":"bufferView_0","byteStride":12},{"buffer":0,"byteLength":2976,"byteOffset":268000,"target":34962,"name":"bufferView_0","byteStride":8},{"buffer":0,"byteLength":8064,"byteOffset":270976,"target":34962,"name":"bufferView_0","byteStride":12},{"buffer":0,"byteLength":2688,"byteOffset":279040,"target":34962,"name":"bufferView_0","byteStride":8},{"buffer":0,"byteLength":1032,"byteOffset":281728,"target":34962,"name":"bufferView_0","byteStride":12},{"buffer":0,"byteLength":344,"byteOffset":282760,"target":34962,"name":"bufferView_0","byteStride":8},{"buffer":0,"byteLength":1032,"byteOffset":283104,"target":34962,"name":"bufferView_0","byteStride":12},{"buffer":0,"byteLength":344,"byteOffset":284136,"target":34962,"name":"bufferView_0","byteStride":8},{"buffer":0,"byteLength":240,"byteOffset":284480,"target":34962,"name":"bufferView_0","byteStride":12},{"buffer":0,"byteLength":80,"byteOffset":284720,"target":34962,"name":"bufferView_0","byteStride":8},{"buffer":0,"byteLength":5256,"byteOffset":284800,"target":34962,"name":"bufferView_0","byteStride":12},{"buffer":0,"byteLength":800,"byteOffset":290056,"target":34962,"name":"bufferView_0","byteStride":8},{"buffer":0,"byteLength":8976,"byteOffset":290856,"target":34962,"name":"bufferView_0","byteStride":12},{"buffer":0,"byteLength":832,"byteOffset":299832,"target":34962,"name":"bufferView_0","byteStride":8},{"buffer":0,"byteLength":3600,"byteOffset":300664,"target":34962,"name":"bufferView_0","byteStride":12},{"buffer":0,"byteLength":1200,"byteOffset":304264,"target":34962,"name":"bufferView_0","byteStride":8},{"buffer":0,"byteLength":3600,"byteOffset":305464,"target":34962,"name":"bufferView_0","byteStride":12},{"buffer":0,"byteLength":1200,"byteOffset":309064,"target":34962,"name":"bufferView_0","byteStride":8},{"buffer":0,"byteLength":2016,"byteOffset":310264,"target":34962,"name":"bufferView_0","byteStride":12},{"buffer":0,"byteLength":672,"byteOffset":312280,"target":34962,"name":"bufferView_0","byteStride":8},{"buffer":0,"byteLength":2064,"byteOffset":312952,"target":34962,"name":"bufferView_0","byteStride":12},{"buffer":0,"byteLength":688,"byteOffset":315016,"target":34962,"name":"bufferView_0","byteStride":8},{"buffer":0,"byteLength":104328,"byteOffset":315704,"target":34962,"name":"bufferView_0","byteStride":12},{"buffer":0,"byteLength":13448,"byteOffset":420032,"target":34962,"name":"bufferView_0","byteStride":8},{"buffer":0,"byteLength":80592,"byteOffset":433480,"target":34963,"name":"bufferView_1"},{"buffer":1,"byteOffset":0,"byteLength":20736,"target":34962},{"buffer":1,"byteOffset":20736,"byteLength":20736,"target":34962},{"buffer":1,"byteOffset":41472,"byteLength":6264,"target":34962},{"buffer":1,"byteOffset":47736,"byteLength":6264,"target":34962},{"buffer":1,"byteOffset":54000,"byteLength":4176,"target":34962}],"buffers":[{"byteLength":562375,"extras":{},"name":"binary_glTF","uri":"../bae146-v1-0.bin"},{"uri":"bae146-tail-v1.bin","byteLength":58176}],"images":[{"name":"EWG_png_001","extras":{},"bufferView":10,"mimeType":"image/jpeg"},{"name":"details_png_001","extras":{},"bufferView":11,"mimeType":"image/jpeg"},{"uri":"../../../airlines/UAL.png"}],"materials":[{"name":"BODY","pbrMetallicRoughness":{"roughnessFactor":1,"metallicFactor":0,"baseColorTexture":{"index":0}}},{"name":"BODY","doubleSided":true,"pbrMetallicRoughness":{"roughnessFactor":1,"metallicFactor":0,"baseColorTexture":{"index":0}}},{"name":"BODY","doubleSided":true,"pbrMetallicRoughness":{"roughnessFactor":1,"metallicFactor":0,"baseColorTexture":{"index":0}}},{"name":"BODY","doubleSided":true,"pbrMetallicRoughness":{"roughnessFactor":1,"metallicFactor":0,"baseColorTexture":{"index":0}}},{"name":"BODY","doubleSided":true,"pbrMetallicRoughness":{"roughnessFactor":1,"metallicFactor":0,"baseColorTexture":{"index":0}}},{"name":"BODY","doubleSided":true,"pbrMetallicRoughness":{"roughnessFactor":1,"metallicFactor":0,"baseColorTexture":{"index":0}}},{"name":"BODY","doubleSided":true,"pbrMetallicRoughness":{"roughnessFactor":1,"metallicFactor":0,"baseColorTexture":{"index":0}}},{"name":"BODY","doubleSided":true,"pbrMetallicRoughness":{"roughnessFactor":1,"metallicFactor":0,"baseColorTexture":{"index":0}}},{"name":"BODY","doubleSided":true,"pbrMetallicRoughness":{"roughnessFactor":1,"metallicFactor":0,"baseColorTexture":{"index":0}}},{"name":"BODY","doubleSided":true,"pbrMetallicRoughness":{"roughnessFactor":1,"metallicFactor":0,"baseColorTexture":{"index":0}}},{"name":"BODY","doubleSided":true,"pbrMetallicRoughness":{"roughnessFactor":1,"metallicFactor":0,"baseColorTexture":{"index":0}}},{"name":"BODY","doubleSided":true,"pbrMetallicRoughness":{"roughnessFactor":1,"metallicFactor":0,"baseColorTexture":{"index":0}}},{"name":"Details","pbrMetallicRoughness":{"roughnessFactor":1,"metallicFactor":0,"baseColorTexture":{"index":1}}},{"name":"GREEN","pbrMetallicRoughness":{"roughnessFactor":1,"metallicFactor":0,"baseColorFactor":[0,0.1905525131254723,0.004544297774216212,1]}},{"name":"RED","pbrMetallicRoughness":{"roughnessFactor":1,"metallicFactor":0,"baseColorFactor":[0.6038273590607633,0,0,1]}},{"name":"YELOW","doubleSided":true,"pbrMetallicRoughness":{"roughnessFactor":1,"metallicFactor":0,"baseColorFactor":[0.6038273590607633,0.5570635932017326,0,1]}},{"name":"glas","alphaMode":"BLEND","doubleSided":true,"pbrMetallicRoughness":{"roughnessFactor":1,"metallicFactor":0,"baseColorFactor":[0.09234606239463537,0.09234606239463537,0.09234606239463537,1]}},{"name":"Operator tail paint","doubleSided":true,"pbrMetallicRoughness":{"baseColorFactor":[0.13333333333333333,0.4,0.7411764705882353,1],"metallicFactor":0,"roughnessFactor":0.65}},{"name":"Operator logo identification","doubleSided":true,"alphaMode":"BLEND","pbrMetallicRoughness":{"baseColorTexture":{"index":2},"metallicFactor":0,"roughnessFactor":0.7},"emissiveFactor":[0.18,0.18,0.18],"emissiveTexture":{"index":2}}],"meshes":[{"name":"rootNode_mesh","primitives":[{"attributes":{"NORMAL":26,"POSITION":21,"TEXCOORD_0":30},"indices":16,"material":0,"mode":4},{"attributes":{"NORMAL":69,"POSITION":65,"TEXCOORD_0":73},"indices":60,"material":0,"mode":4},{"attributes":{"NORMAL":108,"POSITION":104,"TEXCOORD_0":112},"indices":100,"material":9,"mode":4},{"attributes":{"NORMAL":2,"POSITION":1,"TEXCOORD_0":3},"indices":0,"material":10,"mode":4},{"attributes":{"NORMAL":6,"POSITION":5,"TEXCOORD_0":7},"indices":4,"material":11,"mode":4},{"attributes":{"NORMAL":10,"POSITION":9,"TEXCOORD_0":11},"indices":8,"material":1,"mode":4},{"attributes":{"NORMAL":14,"POSITION":13,"TEXCOORD_0":15},"indices":12,"material":0,"mode":4},{"attributes":{"NORMAL":19,"POSITION":18,"TEXCOORD_0":20},"indices":17,"material":0,"mode":4},{"attributes":{"NORMAL":24,"POSITION":23,"TEXCOORD_0":25},"indices":22,"material":0,"mode":4},{"attributes":{"NORMAL":29,"POSITION":28,"TEXCOORD_0":31},"indices":27,"material":12,"mode":4},{"attributes":{"NORMAL":34,"POSITION":33,"TEXCOORD_0":35},"indices":32,"material":0,"mode":4},{"attributes":{"NORMAL":38,"POSITION":37,"TEXCOORD_0":39},"indices":36,"material":0,"mode":4},{"attributes":{"NORMAL":42,"POSITION":41,"TEXCOORD_0":43},"indices":40,"material":8,"mode":4},{"attributes":{"NORMAL":46,"POSITION":45,"TEXCOORD_0":47},"indices":44,"material":12,"mode":4},{"attributes":{"NORMAL":50,"POSITION":49,"TEXCOORD_0":51},"indices":48,"material":0,"mode":4},{"attributes":{"NORMAL":54,"POSITION":53,"TEXCOORD_0":55},"indices":52,"material":2,"mode":4},{"attributes":{"NORMAL":58,"POSITION":57,"TEXCOORD_0":59},"indices":56,"material":3,"mode":4},{"attributes":{"NORMAL":63,"POSITION":62,"TEXCOORD_0":64},"indices":61,"material":4,"mode":4},{"attributes":{"NORMAL":68,"POSITION":67},"indices":66,"material":15,"mode":4},{"attributes":{"NORMAL":72,"POSITION":71},"indices":70,"material":14,"mode":4},{"attributes":{"NORMAL":76,"POSITION":75},"indices":74,"material":13,"mode":4},{"attributes":{"NORMAL":79,"POSITION":78},"indices":77,"material":15,"mode":4},{"attributes":{"NORMAL":82,"POSITION":81,"TEXCOORD_0":83},"indices":80,"material":0,"mode":4},{"attributes":{"NORMAL":86,"POSITION":85,"TEXCOORD_0":87},"indices":84,"material":0,"mode":4},{"attributes":{"NORMAL":90,"POSITION":89,"TEXCOORD_0":91},"indices":88,"material":0,"mode":4},{"attributes":{"NORMAL":94,"POSITION":93,"TEXCOORD_0":95},"indices":92,"material":5,"mode":4},{"attributes":{"NORMAL":98,"POSITION":97,"TEXCOORD_0":99},"indices":96,"material":6,"mode":4},{"attributes":{"NORMAL":103,"POSITION":102},"indices":101,"material":16,"mode":4},{"attributes":{"NORMAL":107,"POSITION":106},"indices":105,"material":16,"mode":4},{"attributes":{"NORMAL":111,"POSITION":110,"TEXCOORD_0":113},"indices":109,"material":7,"mode":4}]},{"name":"Airline tail surface overlay","primitives":[{"attributes":{"POSITION":114,"NORMAL":115},"material":17},{"attributes":{"POSITION":116,"NORMAL":117,"TEXCOORD_0":118},"material":18}]}],"nodes":[{"matrix":[1,0,0,0,0,1,0,0,0,0,1,0,0,0,0,1],"name":"rootNode","mesh":0},{"name":"SkywardCoordinateAlignment","matrix":[-1,0,-1.2246467991473532e-16,0,0,1,0,0,1.2246467991473532e-16,0,-1,0,0.7248620986938475,0,0.872295379638672,1],"children":[0]},{"name":"AirlineTailBranding","mesh":1}],"samplers":[{"magFilter":9729,"minFilter":9729,"wrapS":10497,"wrapT":10497,"name":"sampler_0"},{"magFilter":9729,"minFilter":9987,"wrapS":33071,"wrapT":33071}],"scene":0,"scenes":[{"nodes":[1,2],"name":"defaultScene"}],"textures":[{"sampler":0,"source":0,"name":"texture_EWG_png_001"},{"sampler":0,"source":1,"name":"texture_details_png_001"},{"source":2,"sampler":1}],"extras":{"skyward":{"source":"https://github.com/Flightradar24/fr24-3d-models","commit":"dd53267690c6a4ecbb290a3acf0284333a5d68a9","changes":"Converted legacy glTF to glTF 2.0 with Cesium; rigid axis alignment and horizontal centering only. Original geometry, materials and paint retained. Added surface-following operator tail paint and unmodified identification-logo texture. Branding is illustrative, not a registration-specific livery.","license":"GPL-2.0","sourceFiles":["source/bae146/ba146.blend","source/bae146/bae146.zip"],"operator":"UAL"}}}