{"accessors":[{"bufferView":114,"byteOffset":0,"componentType":5123,"count":2052,"type":"SCALAR","min":[0],"max":[776],"name":"accessor_102"},{"bufferView":114,"byteOffset":4104,"componentType":5123,"count":144,"type":"SCALAR","min":[0],"max":[57],"name":"accessor_1020"},{"bufferView":8,"byteOffset":0,"componentType":5126,"count":58,"max":[2.184748888015747,0.0931050181388855,-18.2935791015625],"min":[1.58785879611969,-0.2797369956970215,-20.330251693725586],"type":"VEC3","name":"accessor_1022"},{"bufferView":8,"byteOffset":696,"componentType":5126,"count":58,"max":[0.9999989867210388,0.9915019869804382,1],"min":[-1,-0.9915019869804382,-0.9999989867210388],"type":"VEC3","name":"accessor_1024"},{"bufferView":9,"byteOffset":0,"componentType":5126,"count":58,"max":[0.5903300046920776,0.36451101303100586],"min":[0.5239430069923401,0.3190850019454956],"type":"VEC2","name":"accessor_1026"},{"bufferView":10,"byteOffset":0,"componentType":5126,"count":777,"max":[4.635716915130615,8.551060676574707,-15.070341110229492],"min":[4.448371887207031,6.696100234985352,-15.51715087890625],"type":"VEC3","name":"accessor_104"},{"bufferView":114,"byteOffset":4392,"componentType":5123,"count":36,"type":"SCALAR","min":[0],"max":[23],"name":"accessor_1047"},{"bufferView":10,"byteOffset":9324,"componentType":5126,"count":24,"max":[2.1847479343414307,0.19489529728889465,-17.40583610534668],"min":[1.5878568887710571,-0.01393669843673706,-18.293642044067383],"type":"VEC3","name":"accessor_1049"},{"bufferView":10,"byteOffset":9612,"componentType":5126,"count":24,"max":[0.9999949932098389,0.9886029958724976,0.9999989867210388],"min":[-1,-0.9886029958724976,-1],"type":"VEC3","name":"accessor_1051"},{"bufferView":11,"byteOffset":0,"componentType":5126,"count":24,"max":[0.03293279930949211,0.27702200412750244],"min":[0.005053880158811808,0.2236430048942566],"type":"VEC2","name":"accessor_1053"},{"bufferView":12,"byteOffset":0,"componentType":5126,"count":777,"max":[1,0.999688982963562,0.9999970197677612],"min":[-1,-0.9996820092201233,-1],"type":"VEC3","name":"accessor_106"},{"bufferView":114,"byteOffset":4464,"componentType":5123,"count":1500,"type":"SCALAR","min":[0],"max":[442],"name":"accessor_1074"},{"bufferView":12,"byteOffset":9324,"componentType":5126,"count":443,"max":[8.434590339660645,2.2538809776306152,4.744309902191162],"min":[4.665719985961914,0.8193739652633667,0.8525599241256714],"type":"VEC3","name":"accessor_1076"},{"bufferView":12,"byteOffset":14640,"componentType":5126,"count":443,"max":[0.9999529719352722,0.988735020160675,0.997937023639679],"min":[-0.9999570250511169,-0.9878510236740112,-0.9999790191650391],"type":"VEC3","name":"accessor_1078"},{"bufferView":13,"byteOffset":0,"componentType":5126,"count":777,"max":[0.9927619695663452,0.9746308922767639],"min":[0.029889199882745743,0.21367698907852173],"type":"VEC2","name":"accessor_108"},{"bufferView":13,"byteOffset":6216,"componentType":5126,"count":443,"max":[0.27045997977256775,0.9858515858650208],"min":[0.1054529994726181,0.9119502902030945],"type":"VEC2","name":"accessor_1080"},{"bufferView":114,"byteOffset":7464,"componentType":5123,"count":120,"type":"SCALAR","min":[0],"max":[49],"name":"accessor_1101"},{"bufferView":14,"byteOffset":0,"componentType":5126,"count":50,"max":[15.869129180908203,2.9825007915496826,5.889949798583984],"min":[10.77018928527832,2.392537832260132,1.7369598150253296],"type":"VEC3","name":"accessor_1103"},{"bufferView":14,"byteOffset":600,"componentType":5126,"count":50,"max":[0.9998959898948669,0.9978659749031067,0.25539499521255493],"min":[-0.9999709725379944,-0.9974120259284973,-0.9218940138816833],"type":"VEC3","name":"accessor_1105"},{"bufferView":15,"byteOffset":0,"componentType":5126,"count":50,"max":[0.5462530255317688,0.9861630201339722],"min":[0.48961299657821655,0.9150968194007874],"type":"VEC2","name":"accessor_1107"},{"bufferView":114,"byteOffset":7704,"componentType":5123,"count":348,"type":"SCALAR","min":[0],"max":[101],"name":"accessor_1128"},{"bufferView":16,"byteOffset":0,"componentType":5126,"count":102,"max":[20.80426025390625,3.345360040664673,7.623760223388672],"min":[15.840470314025879,2.8283801078796387,3.8740696907043457],"type":"VEC3","name":"accessor_1130"},{"bufferView":16,"byteOffset":1224,"componentType":5126,"count":102,"max":[0.9991819858551025,0.99891197681427,0.1916780024766922],"min":[-0.9998970031738281,-0.9991809725761414,-0.9145709872245789],"type":"VEC3","name":"accessor_1132"},{"bufferView":17,"byteOffset":0,"componentType":5126,"count":102,"max":[0.6304190158843994,0.986183226108551],"min":[0.5567579865455627,0.9335336685180664],"type":"VEC2","name":"accessor_1134"},{"bufferView":114,"byteOffset":8400,"componentType":5123,"count":5328,"type":"SCALAR","min":[0],"max":[1535],"name":"accessor_1155"},{"bufferView":18,"byteOffset":0,"componentType":5126,"count":1536,"max":[19.583518981933594,3.2459208965301514,7.404079914093018],"min":[11.36575984954834,1.6885768175125122,1.5130897760391235],"type":"VEC3","name":"accessor_1157"},{"bufferView":18,"byteOffset":18432,"componentType":5126,"count":1536,"max":[0.9999430179595947,0.979004979133606,0.9979410171508789],"min":[-0.9999430179595947,-0.9778329730033875,-0.9979419708251953],"type":"VEC3","name":"accessor_1159"},{"bufferView":19,"byteOffset":0,"componentType":5126,"count":1536,"max":[0.7344610095024109,0.6904079914093018],"min":[0.5886920094490051,0.6213229894638062],"type":"VEC2","name":"accessor_1161"},{"bufferView":114,"byteOffset":19056,"componentType":5123,"count":96,"type":"SCALAR","min":[0],"max":[43],"name":"accessor_1182"},{"bufferView":20,"byteOffset":0,"componentType":5126,"count":44,"max":[5.865160942077637,1.7181999683380127,1.3598809242248535],"min":[3.7064199447631836,1.2325299978256226,-0.01300599705427885],"type":"VEC3","name":"accessor_1184"},{"bufferView":20,"byteOffset":528,"componentType":5126,"count":44,"max":[0.9999970197677612,0.9875519871711731,0.9999679923057556],"min":[-1,-0.9875519871711731,-0.9795719981193542],"type":"VEC3","name":"accessor_1186"},{"bufferView":21,"byteOffset":0,"componentType":5126,"count":44,"max":[0.689848005771637,0.32889097929000854],"min":[0.6074640154838562,0.2976610064506531],"type":"VEC2","name":"accessor_1188"},{"bufferView":114,"byteOffset":19248,"componentType":5123,"count":252,"type":"SCALAR","min":[0],"max":[101],"name":"accessor_1209"},{"bufferView":22,"byteOffset":0,"componentType":5126,"count":102,"max":[3.705955743789673,1.3031330108642578,2.3405568599700928],"min":[2.122241973876953,0.26139602065086365,-0.43736302852630615],"type":"VEC3","name":"accessor_1211"},{"bufferView":22,"byteOffset":1224,"componentType":5126,"count":102,"max":[1,0.9741380214691162,0.9999110102653503],"min":[-0.9999989867210388,-0.9741380214691162,-0.9998799562454224],"type":"VEC3","name":"accessor_1213"},{"bufferView":23,"byteOffset":0,"componentType":5126,"count":102,"max":[0.6860020160675049,0.40603601932525635],"min":[0.6077579855918884,0.38342100381851196],"type":"VEC2","name":"accessor_1215"},{"bufferView":114,"byteOffset":19752,"componentType":5123,"count":72,"type":"SCALAR","min":[0],"max":[33],"name":"accessor_1236"},{"bufferView":24,"byteOffset":0,"componentType":5126,"count":34,"max":[10.594850540161133,2.8140158653259277,3.925919771194458],"min":[8.4070405960083,2.0836639404296875,2.1543679237365723],"type":"VEC3","name":"accessor_1238"},{"bufferView":24,"byteOffset":408,"componentType":5126,"count":34,"max":[0.9954929947853088,0.9750249981880188,0.20784899592399597],"min":[-0.997285008430481,-0.990676999092102,-0.9999529719352722],"type":"VEC3","name":"accessor_1240"},{"bufferView":25,"byteOffset":0,"componentType":5126,"count":34,"max":[0.4768660068511963,0.9867525100708008],"min":[0.44293299317359924,0.9121543765068054],"type":"VEC2","name":"accessor_1242"},{"bufferView":114,"byteOffset":19896,"componentType":5123,"count":312,"type":"SCALAR","min":[0],"max":[89],"name":"accessor_1263"},{"bufferView":26,"byteOffset":0,"componentType":5126,"count":90,"max":[1.7580832242965698,15.759369850158691,30.245859146118164],"min":[1.4176552295684814,7.155779838562012,24.193557739257812],"type":"VEC3","name":"accessor_1265"},{"bufferView":26,"byteOffset":1080,"componentType":5126,"count":90,"max":[0.9992030262947083,1,0.19614896178245544],"min":[-0.9992030262947083,-1,-0.8847079873085022],"type":"VEC3","name":"accessor_1267"},{"bufferView":27,"byteOffset":0,"componentType":5126,"count":90,"max":[0.9324960112571716,0.473471999168396],"min":[0.03775880113244057,0.01915299892425537],"type":"VEC2","name":"accessor_1269"},{"bufferView":114,"byteOffset":20520,"componentType":5123,"count":2712,"type":"SCALAR","min":[0],"max":[969],"name":"accessor_129"},{"bufferView":114,"byteOffset":25944,"componentType":5123,"count":924,"type":"SCALAR","min":[0],"max":[229],"name":"accessor_1290"},{"bufferView":28,"byteOffset":0,"componentType":5126,"count":230,"max":[24.11603546142578,3.7880630493164062,8.930647850036621],"min":[24.066869735717773,3.202802896499634,7.662472724914551],"type":"VEC3","name":"accessor_1292"},{"bufferView":28,"byteOffset":2760,"componentType":5126,"count":230,"max":[0.9999970197677612,1,0.44249796867370605],"min":[-0.9999909996986389,-1,-0.26065897941589355],"type":"VEC3","name":"accessor_1294"},{"bufferView":29,"byteOffset":0,"componentType":5126,"count":230,"max":[0.17663100361824036,0.31619203090667725],"min":[0.06254210323095322,0.291126012802124],"type":"VEC2","name":"accessor_1296"},{"bufferView":30,"byteOffset":0,"componentType":5126,"count":970,"max":[4.629687786102295,8.089140892028809,-15.396393775939941],"min":[4.410407543182373,6.698513507843018,-16.059276580810547],"type":"VEC3","name":"accessor_131"},{"bufferView":114,"byteOffset":27792,"componentType":5123,"count":5361,"type":"SCALAR","min":[0],"max":[943],"name":"accessor_1317"},{"bufferView":30,"byteOffset":11640,"componentType":5126,"count":944,"max":[24.096189498901367,3.7135329246520996,9.082321166992188],"min":[23.78498649597168,3.368259906768799,5.945159435272217],"type":"VEC3","name":"accessor_1319"},{"bufferView":30,"byteOffset":22968,"componentType":5126,"count":944,"max":[0.9947329759597778,0.9958230257034302,0.9992619752883911],"min":[-0.9881579875946045,-0.9998340010643005,-0.6421809196472168],"type":"VEC3","name":"accessor_1321"},{"bufferView":30,"byteOffset":34296,"componentType":5126,"count":970,"max":[1,0.9996969699859619,0.9999529719352722],"min":[-1,-0.9997029900550842,-0.9999529719352722],"type":"VEC3","name":"accessor_133"},{"bufferView":114,"byteOffset":38514,"componentType":5123,"count":5400,"type":"SCALAR","min":[0],"max":[1934],"name":"accessor_1344"},{"bufferView":30,"byteOffset":45936,"componentType":5126,"count":1935,"max":[-1.8638399839401245,3.714956283569336,6.279774188995361],"min":[-20.54949951171875,2.0241801738739014,-5.376394271850586],"type":"VEC3","name":"accessor_1346"},{"bufferView":30,"byteOffset":69156,"componentType":5126,"count":1935,"max":[0.9993910193443298,1,0.8642309904098511],"min":[-0.9992619752883911,-1,-0.8641909956932068],"type":"VEC3","name":"accessor_1348"},{"bufferView":31,"byteOffset":0,"componentType":5126,"count":970,"max":[0.970009982585907,0.6611739993095398],"min":[0.025417599827051163,0.007541000843048096],"type":"VEC2","name":"accessor_135"},{"bufferView":31,"byteOffset":7760,"componentType":5126,"count":1935,"max":[0.4309239983558655,0.9935045838356018],"min":[0.19172999262809753,0.6239680051803589],"type":"VEC2","name":"accessor_1350"},{"bufferView":114,"byteOffset":49314,"componentType":5123,"count":5400,"type":"SCALAR","min":[0],"max":[1934],"name":"accessor_1371"},{"bufferView":32,"byteOffset":0,"componentType":5126,"count":1935,"max":[23.725399017333984,3.7149572372436523,6.280036926269531],"min":[5.039759635925293,2.024179220199585,-5.376402854919434],"type":"VEC3","name":"accessor_1373"},{"bufferView":32,"byteOffset":23220,"componentType":5126,"count":1935,"max":[0.9992619752883911,1,0.8642280101776123],"min":[-0.9993919730186462,-1,-0.8641989827156067],"type":"VEC3","name":"accessor_1375"},{"bufferView":33,"byteOffset":0,"componentType":5126,"count":1935,"max":[0.4309239983558655,0.9935045838356018],"min":[0.19172999262809753,0.6239680051803589],"type":"VEC2","name":"accessor_1377"},{"bufferView":114,"byteOffset":60114,"componentType":5123,"count":2628,"type":"SCALAR","min":[0],"max":[575],"name":"accessor_1398"},{"bufferView":34,"byteOffset":0,"componentType":5126,"count":576,"max":[10.261690139770508,9.326329231262207,30.446809768676758],"min":[-7.086240291595459,4.8804097175598145,26.210979461669922],"type":"VEC3","name":"accessor_1400"},{"bufferView":34,"byteOffset":6912,"componentType":5126,"count":576,"max":[0.999826967716217,1,0.17303594946861267],"min":[-0.999826967716217,-1,-0.6280509233474731],"type":"VEC3","name":"accessor_1402"},{"bufferView":35,"byteOffset":0,"componentType":5126,"count":576,"max":[0.5058199763298035,0.37344902753829956],"min":[0.17496900260448456,0.29923200607299805],"type":"VEC2","name":"accessor_1404"},{"bufferView":114,"byteOffset":65370,"componentType":5123,"count":744,"type":"SCALAR","min":[0],"max":[188],"name":"accessor_1425"},{"bufferView":36,"byteOffset":0,"componentType":5126,"count":189,"max":[1.895253300666809,15.759239196777344,28.78272819519043],"min":[1.2804841995239258,5.863739967346191,16.546829223632812],"type":"VEC3","name":"accessor_1427"},{"bufferView":36,"byteOffset":2268,"componentType":5126,"count":189,"max":[0.9998829960823059,1,0.8847079873085022],"min":[-0.9998829960823059,-0.5066310167312622,-0.6583259701728821],"type":"VEC3","name":"accessor_1429"},{"bufferView":37,"byteOffset":0,"componentType":5126,"count":189,"max":[0.9088410139083862,0.4943609833717346],"min":[0.06141370162367821,0.019154012203216553],"type":"VEC2","name":"accessor_1431"},{"bufferView":114,"byteOffset":66858,"componentType":5123,"count":4128,"type":"SCALAR","min":[0],"max":[1421],"name":"accessor_1452"},{"bufferView":38,"byteOffset":0,"componentType":5126,"count":1422,"max":[23.66855812072754,3.7123429775238037,8.703950881958008],"min":[-20.493040084838867,1.4047600030899048,-5.6490797996521],"type":"VEC3","name":"accessor_1454"},{"bufferView":38,"byteOffset":17064,"componentType":5126,"count":1422,"max":[0.9999979734420776,0.9985759854316711,0.9999859929084778],"min":[-0.9999979734420776,-0.9986419677734375,-0.9671210050582886],"type":"VEC3","name":"accessor_1456"},{"bufferView":39,"byteOffset":0,"componentType":5126,"count":1422,"max":[0.9261109828948975,0.9881576895713806],"min":[0.013827700167894363,0.2991650104522705],"type":"VEC2","name":"accessor_1458"},{"bufferView":114,"byteOffset":75114,"componentType":5123,"count":210,"type":"SCALAR","min":[0],"max":[73],"name":"accessor_1479"},{"bufferView":40,"byteOffset":0,"componentType":5126,"count":74,"max":[4.688889980316162,2.712445020675659,3.8525779247283936],"min":[-1.5132299661636353,1.404757022857666,-5.615401744842529],"type":"VEC3","name":"accessor_1481"},{"bufferView":40,"byteOffset":888,"componentType":5126,"count":74,"max":[0.9987799525260925,0.15913400053977966,0.01442495733499527],"min":[-0.9987799525260925,0.049374502152204514,-0.03827435523271561],"type":"VEC3","name":"accessor_1483"},{"bufferView":114,"byteOffset":75534,"componentType":5123,"count":864,"type":"SCALAR","min":[0],"max":[359],"name":"accessor_1506"},{"bufferView":40,"byteOffset":1776,"componentType":5126,"count":360,"max":[0.08909100294113159,1.1129000186920166,1.1129000186920166],"min":[-0.08910399675369263,-1.1129000186920166,-1.1129000186920166],"type":"VEC3","name":"accessor_1508"},{"bufferView":40,"byteOffset":6096,"componentType":5126,"count":360,"max":[-0.5350940227508545,0.8425289988517761,0.8425299525260925],"min":[-0.7999650239944458,-0.8425319790840149,-0.8425289988517761],"type":"VEC3","name":"accessor_1510"},{"bufferView":41,"byteOffset":0,"componentType":5126,"count":360,"max":[0.9938870072364807,0.5381529927253723],"min":[0.9046159982681274,0.4897879958152771],"type":"VEC2","name":"accessor_1512"},{"bufferView":114,"byteOffset":77262,"componentType":5123,"count":1632,"type":"SCALAR","min":[0],"max":[288],"name":"accessor_1533"},{"bufferView":42,"byteOffset":0,"componentType":5126,"count":289,"max":[-6.004754066467285,1.0597939491271973,-6.207900524139404],"min":[-7.105222702026367,-0.040675997734069824,-6.913491725921631],"type":"VEC3","name":"accessor_1535"},{"bufferView":42,"byteOffset":3468,"componentType":5126,"count":289,"max":[0.9314699769020081,0.9314699769020081,-0.36381402611732483],"min":[-0.9314709901809692,-0.9314699769020081,-1],"type":"VEC3","name":"accessor_1537"},{"bufferView":43,"byteOffset":0,"componentType":5126,"count":289,"max":[0.8655840158462524,0.6634820103645325],"min":[0.7998669743537903,0.5977640151977539],"type":"VEC2","name":"accessor_1539"},{"bufferView":114,"byteOffset":80526,"componentType":5123,"count":954,"type":"SCALAR","min":[0],"max":[206],"name":"accessor_156"},{"bufferView":44,"byteOffset":0,"componentType":5126,"count":360,"max":[0.08909100294113159,1.1129000186920166,1.1129000186920166],"min":[-0.08910399675369263,-1.1129000186920166,-1.1129000186920166],"type":"VEC3","name":"accessor_1562"},{"bufferView":44,"byteOffset":4320,"componentType":5126,"count":360,"max":[-0.535090982913971,0.8425289988517761,0.8425299525260925],"min":[-0.7999650239944458,-0.8425319790840149,-0.8425289988517761],"type":"VEC3","name":"accessor_1564"},{"bufferView":44,"byteOffset":8640,"componentType":5126,"count":207,"max":[5.195580005645752,10.430109977722168,-15.251790046691895],"min":[-2.0189502239227295,3.3911800384521484,-22.65113067626953],"type":"VEC3","name":"accessor_158"},{"bufferView":114,"byteOffset":82434,"componentType":5123,"count":1632,"type":"SCALAR","min":[0],"max":[288],"name":"accessor_1587"},{"bufferView":44,"byteOffset":11124,"componentType":5126,"count":289,"max":[10.28109359741211,1.0597939491271973,-6.207899570465088],"min":[9.180624961853027,-0.04067504405975342,-6.913492679595947],"type":"VEC3","name":"accessor_1589"},{"bufferView":44,"byteOffset":14592,"componentType":5126,"count":289,"max":[0.9314709901809692,0.9314699769020081,-0.36381497979164124],"min":[-0.9314709901809692,-0.9314699769020081,-1],"type":"VEC3","name":"accessor_1591"},{"bufferView":45,"byteOffset":0,"componentType":5126,"count":289,"max":[0.8655840158462524,0.6634820103645325],"min":[0.7998669743537903,0.5977640151977539],"type":"VEC2","name":"accessor_1593"},{"bufferView":46,"byteOffset":0,"componentType":5126,"count":207,"max":[0.9940469861030579,0.9634680151939392,0.061012957245111465],"min":[-0.9940469861030579,-0.3966899812221527,-0.8524019718170166],"type":"VEC3","name":"accessor_160"},{"bufferView":114,"byteOffset":85698,"componentType":5123,"count":3990,"type":"SCALAR","min":[0],"max":[1053],"name":"accessor_1614"},{"bufferView":46,"byteOffset":2484,"componentType":5126,"count":1054,"max":[2.899169921875,0.6412609815597534,-1.200200080871582],"min":[0.27612999081611633,0.16163800656795502,-3.9408600330352783],"type":"VEC3","name":"accessor_1616"},{"bufferView":46,"byteOffset":15132,"componentType":5126,"count":1054,"max":[0.9986889958381653,0.9992489814758301,1],"min":[-0.9986889958381653,-0.9999150037765503,-0.9999989867210388],"type":"VEC3","name":"accessor_1618"},{"bufferView":47,"byteOffset":0,"componentType":5126,"count":207,"max":[0.893000066280365,0.5343379974365234],"min":[0.0014949400210753083,0.10039103031158447],"type":"VEC2","name":"accessor_162"},{"bufferView":47,"byteOffset":1656,"componentType":5126,"count":1054,"max":[0.32381200790405273,0.42959702014923096],"min":[0.2192550003528595,0.38409900665283203],"type":"VEC2","name":"accessor_1620"},{"bufferView":114,"byteOffset":93678,"componentType":5123,"count":978,"type":"SCALAR","min":[0],"max":[269],"name":"accessor_1641"},{"bufferView":48,"byteOffset":0,"componentType":5126,"count":270,"max":[9.923080444335938,2.717068910598755,1.8394502401351929],"min":[-6.7472004890441895,1.1557189226150513,-7.074300289154053],"type":"VEC3","name":"accessor_1643"},{"bufferView":48,"byteOffset":3240,"componentType":5126,"count":270,"max":[1,0.9903379678726196,0.497342973947525],"min":[-1,-1,-0.792930006980896],"type":"VEC3","name":"accessor_1645"},{"bufferView":49,"byteOffset":0,"componentType":5126,"count":270,"max":[0.9712870121002197,0.8155800104141235],"min":[0.7175650000572205,0.6971200108528137],"type":"VEC2","name":"accessor_1647"},{"bufferView":114,"byteOffset":95634,"componentType":5123,"count":1236,"type":"SCALAR","min":[0],"max":[391],"name":"accessor_1668"},{"bufferView":50,"byteOffset":0,"componentType":5126,"count":392,"max":[-5.026589870452881,2.0085859298706055,-3.270991802215576],"min":[-8.083389282226562,-0.9894739985466003,-4.83730411529541],"type":"VEC3","name":"accessor_1670"},{"bufferView":50,"byteOffset":4704,"componentType":5126,"count":392,"max":[0.999925971031189,0.9568719863891602,1],"min":[-0.999925971031189,-0.9591159820556641,-0.9999420046806335],"type":"VEC3","name":"accessor_1672"},{"bufferView":51,"byteOffset":0,"componentType":5126,"count":392,"max":[0.7900260090827942,0.6898429989814758],"min":[0.7406610250473022,0.6045809984207153],"type":"VEC2","name":"accessor_1674"},{"bufferView":114,"byteOffset":98106,"componentType":5123,"count":1236,"type":"SCALAR","min":[0],"max":[391],"name":"accessor_1695"},{"bufferView":52,"byteOffset":0,"componentType":5126,"count":392,"max":[11.259249687194824,2.008586883544922,-3.270991802215576],"min":[8.202460289001465,-0.9894729852676392,-4.83730411529541],"type":"VEC3","name":"accessor_1697"},{"bufferView":52,"byteOffset":4704,"componentType":5126,"count":392,"max":[0.999925971031189,0.956870973110199,1],"min":[-0.999925971031189,-0.9591169953346252,-0.9999420046806335],"type":"VEC3","name":"accessor_1699"},{"bufferView":53,"byteOffset":0,"componentType":5126,"count":392,"max":[0.7900260090827942,0.6898429989814758],"min":[0.7406610250473022,0.6045809984207153],"type":"VEC2","name":"accessor_1701"},{"bufferView":114,"byteOffset":100578,"componentType":5123,"count":216,"type":"SCALAR","min":[0],"max":[119],"name":"accessor_1722"},{"bufferView":54,"byteOffset":0,"componentType":5126,"count":120,"max":[-7.597300052642822,2.9691689014434814,4.000209808349609],"min":[-9.73813533782959,2.654878854751587,2.1966278553009033],"type":"VEC3","name":"accessor_1724"},{"bufferView":54,"byteOffset":1440,"componentType":5126,"count":120,"max":[0.9390299916267395,0.9984699487686157,0.9361209869384766],"min":[-0.9390919804573059,-0.9984699487686157,-0.9359009861946106],"type":"VEC3","name":"accessor_1726"},{"bufferView":54,"byteOffset":2880,"componentType":5126,"count":24,"max":[-1.4778729677200317,2.0685698986053467,3.2236039638519287],"min":[-3.234200954437256,1.6298619508743286,2.5428237915039062],"type":"VEC3","name":"accessor_1751"},{"bufferView":54,"byteOffset":3168,"componentType":5126,"count":24,"max":[0.9998480081558228,0.9730579853057861,0.9689289927482605],"min":[-0.9999110102653503,-0.973048985004425,-0.9692220091819763],"type":"VEC3","name":"accessor_1753"},{"bufferView":114,"byteOffset":101010,"componentType":5123,"count":216,"type":"SCALAR","min":[0],"max":[119],"name":"accessor_1776"},{"bufferView":54,"byteOffset":3456,"componentType":5126,"count":120,"max":[12.913718223571777,2.9691789150238037,4.000209808349609],"min":[10.772890090942383,2.6548900604248047,2.1969947814941406],"type":"VEC3","name":"accessor_1778"},{"bufferView":54,"byteOffset":4896,"componentType":5126,"count":120,"max":[0.9390980005264282,0.9984699487686157,0.936115026473999],"min":[-0.9390270113945007,-0.9984710216522217,-0.9361099600791931],"type":"VEC3","name":"accessor_1780"},{"bufferView":54,"byteOffset":6336,"componentType":5126,"count":24,"max":[6.410213947296143,2.068567991256714,3.2235989570617676],"min":[4.653885841369629,1.6298599243164062,2.542819023132324],"type":"VEC3","name":"accessor_1805"},{"bufferView":54,"byteOffset":6624,"componentType":5126,"count":24,"max":[0.9999110102653503,0.973048985004425,0.9689299464225769],"min":[-0.9998409748077393,-0.973048985004425,-0.9692350029945374],"type":"VEC3","name":"accessor_1807"},{"bufferView":114,"byteOffset":101442,"componentType":5123,"count":690,"type":"SCALAR","min":[0],"max":[273],"name":"accessor_183"},{"bufferView":114,"byteOffset":102822,"componentType":5123,"count":216,"type":"SCALAR","min":[0],"max":[119],"name":"accessor_1830"},{"bufferView":54,"byteOffset":6912,"componentType":5126,"count":120,"max":[-9.381119728088379,3.077569007873535,4.68887996673584],"min":[-11.515632629394531,2.7747459411621094,2.906546115875244],"type":"VEC3","name":"accessor_1832"},{"bufferView":54,"byteOffset":8352,"componentType":5126,"count":120,"max":[0.9397090077400208,0.9984480142593384,0.9359840154647827],"min":[-0.9394580125808716,-0.9984470009803772,-0.935903012752533],"type":"VEC3","name":"accessor_1834"},{"bufferView":54,"byteOffset":9792,"componentType":5126,"count":274,"max":[20.98563003540039,3.4892349243164062,6.939001083374023],"min":[-17.8095703125,2.667625904083252,1.8100497722625732],"type":"VEC3","name":"accessor_185"},{"bufferView":54,"byteOffset":13080,"componentType":5126,"count":24,"max":[-3.2252798080444336,2.378999948501587,3.20892596244812],"min":[-5.240940093994141,1.931601881980896,2.532099962234497],"type":"VEC3","name":"accessor_1859"},{"bufferView":54,"byteOffset":13368,"componentType":5126,"count":24,"max":[0.9999110102653503,0.9739940166473389,0.9691680073738098],"min":[-0.9999740123748779,-0.9739940166473389,-0.9692699909210205],"type":"VEC3","name":"accessor_1861"},{"bufferView":54,"byteOffset":13656,"componentType":5126,"count":274,"max":[0.9636480212211609,0.9982489943504333,0.9527829885482788],"min":[-0.9636480212211609,-0.9976379871368408,-0.9163849949836731],"type":"VEC3","name":"accessor_187"},{"bufferView":114,"byteOffset":103254,"componentType":5123,"count":216,"type":"SCALAR","min":[0],"max":[119],"name":"accessor_1884"},{"bufferView":54,"byteOffset":16944,"componentType":5126,"count":120,"max":[14.690934181213379,3.077578067779541,4.68887996673584],"min":[12.556419372558594,2.7747581005096436,2.906545877456665],"type":"VEC3","name":"accessor_1886"},{"bufferView":54,"byteOffset":18384,"componentType":5126,"count":120,"max":[0.939454972743988,0.9984470009803772,0.9359869956970215],"min":[-0.9397040009498596,-0.9984470009803772,-0.9359099864959717],"type":"VEC3","name":"accessor_1888"},{"bufferView":54,"byteOffset":19824,"componentType":5126,"count":24,"max":[8.416749954223633,2.378679037094116,3.2089338302612305],"min":[6.401099681854248,1.9316020011901855,2.5321080684661865],"type":"VEC3","name":"accessor_1913"},{"bufferView":54,"byteOffset":20112,"componentType":5126,"count":24,"max":[0.9999699592590332,0.9739940166473389,0.9691709876060486],"min":[-0.9999110102653503,-0.9739940166473389,-0.9692699909210205],"type":"VEC3","name":"accessor_1915"},{"bufferView":114,"byteOffset":103686,"componentType":5123,"count":216,"type":"SCALAR","min":[0],"max":[119],"name":"accessor_1938"},{"bufferView":54,"byteOffset":20400,"componentType":5126,"count":120,"max":[-11.16227912902832,3.1886699199676514,5.380169868469238],"min":[-13.295720100402832,2.8969550132751465,3.6171820163726807],"type":"VEC3","name":"accessor_1940"},{"bufferView":54,"byteOffset":21840,"componentType":5126,"count":120,"max":[0.9382420182228088,0.9983220100402832,0.9374719858169556],"min":[-0.9378399848937988,-0.9983220100402832,-0.9355440139770508],"type":"VEC3","name":"accessor_1942"},{"bufferView":114,"byteOffset":104118,"componentType":5123,"count":216,"type":"SCALAR","min":[0],"max":[119],"name":"accessor_1965"},{"bufferView":54,"byteOffset":23280,"componentType":5126,"count":120,"max":[16.47182273864746,3.18868088722229,5.380169868469238],"min":[14.338390350341797,2.8969638347625732,3.6171839237213135],"type":"VEC3","name":"accessor_1967"},{"bufferView":54,"byteOffset":24720,"componentType":5126,"count":120,"max":[0.9378380179405212,0.998320996761322,0.9374719858169556],"min":[-0.9382420182228088,-0.9983199834823608,-0.9355509877204895],"type":"VEC3","name":"accessor_1969"},{"bufferView":114,"byteOffset":104550,"componentType":5123,"count":216,"type":"SCALAR","min":[0],"max":[119],"name":"accessor_1992"},{"bufferView":54,"byteOffset":26160,"componentType":5126,"count":120,"max":[-12.946860313415527,3.297945022583008,6.072729587554932],"min":[-15.077316284179688,3.020087957382202,4.32206392288208],"type":"VEC3","name":"accessor_1994"},{"bufferView":54,"byteOffset":27600,"componentType":5126,"count":120,"max":[0.9375519752502441,0.9979509711265564,0.9384139776229858],"min":[-0.9360439777374268,-0.9979509711265564,-0.9353910088539124],"type":"VEC3","name":"accessor_1996"},{"bufferView":114,"byteOffset":104982,"componentType":5123,"count":216,"type":"SCALAR","min":[0],"max":[119],"name":"accessor_2019"},{"bufferView":54,"byteOffset":29040,"componentType":5126,"count":120,"max":[18.252613067626953,3.2979440689086914,6.07273006439209],"min":[16.122148513793945,3.0200870037078857,4.32206392288208],"type":"VEC3","name":"accessor_2021"},{"bufferView":54,"byteOffset":30480,"componentType":5126,"count":120,"max":[0.9360439777374268,0.9979509711265564,0.9384139776229858],"min":[-0.9375550150871277,-0.9979509711265564,-0.9353929758071899],"type":"VEC3","name":"accessor_2023"},{"bufferView":114,"byteOffset":105414,"componentType":5123,"count":216,"type":"SCALAR","min":[0],"max":[119],"name":"accessor_2046"},{"bufferView":54,"byteOffset":31920,"componentType":5126,"count":120,"max":[-14.731769561767578,3.398594856262207,6.754359722137451],"min":[-16.86077117919922,3.139504909515381,5.032927989959717],"type":"VEC3","name":"accessor_2048"},{"bufferView":54,"byteOffset":33360,"componentType":5126,"count":120,"max":[0.9356949925422668,0.998242974281311,0.9372119903564453],"min":[-0.9343720078468323,-0.998242974281311,-0.9359959959983826],"type":"VEC3","name":"accessor_2050"},{"bufferView":114,"byteOffset":105846,"componentType":5123,"count":216,"type":"SCALAR","min":[0],"max":[119],"name":"accessor_2073"},{"bufferView":54,"byteOffset":34800,"componentType":5126,"count":120,"max":[20.036575317382812,3.398599863052368,6.754369735717773],"min":[17.90757942199707,3.1395108699798584,5.032935619354248],"type":"VEC3","name":"accessor_2075"},{"bufferView":54,"byteOffset":36240,"componentType":5126,"count":120,"max":[0.9343709945678711,0.998242974281311,0.9372130036354065],"min":[-0.9356970191001892,-0.998242974281311,-0.9341310262680054],"type":"VEC3","name":"accessor_2077"},{"bufferView":114,"byteOffset":106278,"componentType":5123,"count":1164,"type":"SCALAR","min":[0],"max":[415],"name":"accessor_21"},{"bufferView":114,"byteOffset":108606,"componentType":5123,"count":2334,"type":"SCALAR","min":[0],"max":[665],"name":"accessor_210"},{"bufferView":114,"byteOffset":113274,"componentType":5123,"count":636,"type":"SCALAR","min":[0],"max":[207],"name":"accessor_2100"},{"bufferView":54,"byteOffset":37680,"componentType":5126,"count":208,"max":[24.102649688720703,3.4978349208831787,8.993926048278809],"min":[-20.920948028564453,3.3626549243927,8.981659889221191],"type":"VEC3","name":"accessor_2102"},{"bufferView":54,"byteOffset":40176,"componentType":5126,"count":208,"max":[0.8821920156478882,0.418271005153656,0.9999769926071167],"min":[-0.8822759985923767,-0.8988180160522461,0.405799001455307],"type":"VEC3","name":"accessor_2104"},{"bufferView":54,"byteOffset":42672,"componentType":5126,"count":666,"max":[-1.2410540580749512,7.991247177124023,-15.27321720123291],"min":[-1.3871309757232666,7.212970733642578,-15.659794807434082],"type":"VEC3","name":"accessor_212"},{"bufferView":114,"byteOffset":114546,"componentType":5123,"count":5256,"type":"SCALAR","min":[0],"max":[1313],"name":"accessor_2127"},{"bufferView":54,"byteOffset":50664,"componentType":5126,"count":1314,"max":[24.10215950012207,3.7165579795837402,8.99393081665039],"min":[-20.92643928527832,3.3626599311828613,5.788008689880371],"type":"VEC3","name":"accessor_2129"},{"bufferView":54,"byteOffset":66432,"componentType":5126,"count":1314,"max":[0.993215024471283,0.9998829960823059,0.9992749691009521],"min":[-0.9958379864692688,-0.999809980392456,-0.9818799495697021],"type":"VEC3","name":"accessor_2131"},{"bufferView":55,"byteOffset":0,"componentType":5126,"count":1314,"max":[0.2430640012025833,0.6432110071182251],"min":[0.006182909943163395,0.38002002239227295],"type":"VEC2","name":"accessor_2133"},{"bufferView":56,"byteOffset":0,"componentType":5126,"count":666,"max":[1,0.997875988483429,0.9978699684143066],"min":[-1,-0.99788498878479,-0.9978699684143066],"type":"VEC3","name":"accessor_214"},{"bufferView":57,"byteOffset":0,"componentType":5126,"count":666,"max":[0.7014399766921997,0.6346499919891357],"min":[0.3747999966144562,0.006645023822784424],"type":"VEC2","name":"accessor_216"},{"bufferView":58,"byteOffset":0,"componentType":5126,"count":416,"max":[1.5992648601531982,10.88418960571289,14.106319427490234],"min":[1.5764555931091309,-0.15668010711669922,-12.153109550476074],"type":"VEC3","name":"accessor_23"},{"bufferView":114,"byteOffset":125058,"componentType":5123,"count":384,"type":"SCALAR","min":[0],"max":[129],"name":"accessor_237"},{"bufferView":58,"byteOffset":4992,"componentType":5126,"count":130,"max":[-1.2885209321975708,7.911770820617676,-15.30109977722168],"min":[-1.3421978950500488,7.100489616394043,-15.666102409362793],"type":"VEC3","name":"accessor_239"},{"bufferView":58,"byteOffset":6552,"componentType":5126,"count":130,"max":[1,0.9287599921226501,0.9289939999580383],"min":[-1,-0.9287440180778503,-0.9289929866790771],"type":"VEC3","name":"accessor_241"},{"bufferView":59,"byteOffset":0,"componentType":5126,"count":130,"max":[0.4431320130825043,0.4267140030860901],"min":[0.3831210136413574,0.03129202127456665],"type":"VEC2","name":"accessor_243"},{"bufferView":60,"byteOffset":0,"componentType":5126,"count":416,"max":[0.9999009966850281,0.9999920129776001,0.7322739958763123],"min":[-0.9999009966850281,-1,-0.7262099981307983],"type":"VEC3","name":"accessor_25"},{"bufferView":114,"byteOffset":125826,"componentType":5123,"count":2334,"type":"SCALAR","min":[0],"max":[665],"name":"accessor_264"},{"bufferView":60,"byteOffset":4992,"componentType":5126,"count":666,"max":[4.562379837036133,7.991247177124023,-15.273216247558594],"min":[4.416304111480713,7.212970733642578,-15.659793853759766],"type":"VEC3","name":"accessor_266"},{"bufferView":60,"byteOffset":12984,"componentType":5126,"count":666,"max":[1,0.9978709816932678,0.9978730082511902],"min":[-1,-0.9978830218315125,-0.9978619813919067],"type":"VEC3","name":"accessor_268"},{"bufferView":61,"byteOffset":0,"componentType":5126,"count":416,"max":[0.5340979695320129,0.6351040005683899],"min":[0.4721579849720001,0.6061649918556213],"type":"VEC2","name":"accessor_27"},{"bufferView":61,"byteOffset":3328,"componentType":5126,"count":666,"max":[0.7014399766921997,0.6346499919891357],"min":[0.3747999966144562,0.006645023822784424],"type":"VEC2","name":"accessor_270"},{"bufferView":114,"byteOffset":130494,"componentType":5123,"count":384,"type":"SCALAR","min":[0],"max":[129],"name":"accessor_291"},{"bufferView":62,"byteOffset":0,"componentType":5126,"count":130,"max":[4.517697811126709,7.911770820617676,-15.30109977722168],"min":[4.4640212059021,7.100488662719727,-15.666102409362793],"type":"VEC3","name":"accessor_293"},{"bufferView":62,"byteOffset":1560,"componentType":5126,"count":130,"max":[1,0.9287980198860168,0.9289929866790771],"min":[-1,-0.9287610054016113,-0.9289929866790771],"type":"VEC3","name":"accessor_295"},{"bufferView":63,"byteOffset":0,"componentType":5126,"count":130,"max":[0.4431320130825043,0.4267140030860901],"min":[0.3831210136413574,0.03129202127456665],"type":"VEC2","name":"accessor_297"},{"bufferView":114,"byteOffset":131262,"componentType":5123,"count":2598,"type":"SCALAR","min":[0],"max":[849],"name":"accessor_318"},{"bufferView":64,"byteOffset":0,"componentType":5126,"count":850,"max":[2.2572739124298096,0.787943959236145,-13.865253448486328],"min":[0.9184529185295105,0.14970698952674866,-15.917169570922852],"type":"VEC3","name":"accessor_320"},{"bufferView":64,"byteOffset":10200,"componentType":5126,"count":850,"max":[1,0.9999060034751892,1],"min":[-1,-0.9999780058860779,-1],"type":"VEC3","name":"accessor_322"},{"bufferView":65,"byteOffset":0,"componentType":5126,"count":850,"max":[0.8455340266227722,0.9916136264801025],"min":[0.7098599672317505,0.8587130308151245],"type":"VEC2","name":"accessor_324"},{"bufferView":114,"byteOffset":136458,"componentType":5123,"count":384,"type":"SCALAR","min":[0],"max":[151],"name":"accessor_345"},{"bufferView":66,"byteOffset":0,"componentType":5126,"count":152,"max":[2.070836067199707,0.4169989824295044,-14.065608024597168],"min":[1.1048280000686646,0.2562440037727356,-15.056833267211914],"type":"VEC3","name":"accessor_347"},{"bufferView":66,"byteOffset":1824,"componentType":5126,"count":152,"max":[1,0.999983012676239,0.9961540102958679],"min":[-1,-0.9996309876441956,-0.9961540102958679],"type":"VEC3","name":"accessor_349"},{"bufferView":67,"byteOffset":0,"componentType":5126,"count":152,"max":[0.8004840016365051,0.8695800304412842],"min":[0.7147020101547241,0.8226709961891174],"type":"VEC2","name":"accessor_351"},{"bufferView":114,"byteOffset":137226,"componentType":5123,"count":120,"type":"SCALAR","min":[0],"max":[49],"name":"accessor_372"},{"bufferView":68,"byteOffset":0,"componentType":5126,"count":50,"max":[0.8670299053192139,5.936405658721924,29.651180267333984],"min":[-6.359640121459961,5.1389617919921875,25.402549743652344],"type":"VEC3","name":"accessor_374"},{"bufferView":68,"byteOffset":600,"componentType":5126,"count":50,"max":[0.9969189763069153,0.992347002029419,0.14486999809741974],"min":[-0.9999390244483948,-0.9959189891815186,-0.9094970226287842],"type":"VEC3","name":"accessor_376"},{"bufferView":69,"byteOffset":0,"componentType":5126,"count":50,"max":[0.6083589792251587,0.7959809899330139],"min":[0.11748500168323517,0.7381849884986877],"type":"VEC2","name":"accessor_378"},{"bufferView":114,"byteOffset":137466,"componentType":5123,"count":120,"type":"SCALAR","min":[0],"max":[49],"name":"accessor_399"},{"bufferView":70,"byteOffset":0,"componentType":5126,"count":50,"max":[9.535109519958496,5.936405658721924,29.651180267333984],"min":[2.3084402084350586,5.1389617919921875,25.402549743652344],"type":"VEC3","name":"accessor_401"},{"bufferView":70,"byteOffset":600,"componentType":5126,"count":50,"max":[0.9999390244483948,0.992347002029419,0.14486999809741974],"min":[-0.9969189763069153,-0.9959189891815186,-0.9094970226287842],"type":"VEC3","name":"accessor_403"},{"bufferView":71,"byteOffset":0,"componentType":5126,"count":50,"max":[0.6083589792251587,0.7959809899330139],"min":[0.11748500168323517,0.7381849884986877],"type":"VEC2","name":"accessor_405"},{"bufferView":114,"byteOffset":137706,"componentType":5123,"count":7020,"type":"SCALAR","min":[0],"max":[1894],"name":"accessor_426"},{"bufferView":72,"byteOffset":0,"componentType":5126,"count":1895,"max":[-4.9599995613098145,2.1047229766845703,-0.5607900619506836],"min":[-8.149979591369629,-1.0856069326400757,-7.792269706726074],"type":"VEC3","name":"accessor_428"},{"bufferView":72,"byteOffset":22740,"componentType":5126,"count":1895,"max":[1,1,1],"min":[-1,-1,-0.9999629855155945],"type":"VEC3","name":"accessor_430"},{"bufferView":73,"byteOffset":0,"componentType":5126,"count":1895,"max":[0.9938380122184753,0.41645199060440063],"min":[0.7021480202674866,0.05004000663757324],"type":"VEC2","name":"accessor_432"},{"bufferView":114,"byteOffset":151746,"componentType":5123,"count":7020,"type":"SCALAR","min":[0],"max":[1894],"name":"accessor_453"},{"bufferView":74,"byteOffset":0,"componentType":5126,"count":1895,"max":[11.325850486755371,2.1047229766845703,-0.5607900619506836],"min":[8.135869979858398,-1.0856069326400757,-7.792269706726074],"type":"VEC3","name":"accessor_455"},{"bufferView":74,"byteOffset":22740,"componentType":5126,"count":1895,"max":[1,1,1],"min":[-1,-1,-0.9999619722366333],"type":"VEC3","name":"accessor_457"},{"bufferView":75,"byteOffset":0,"componentType":5126,"count":1895,"max":[0.993694007396698,0.4766020178794861],"min":[0.7021480202674866,0.05004000663757324],"type":"VEC2","name":"accessor_459"},{"bufferView":114,"byteOffset":165786,"componentType":5123,"count":2052,"type":"SCALAR","min":[0],"max":[776],"name":"accessor_48"},{"bufferView":114,"byteOffset":169890,"componentType":5123,"count":9120,"type":"SCALAR","min":[0],"max":[2509],"name":"accessor_480"},{"bufferView":76,"byteOffset":0,"componentType":5126,"count":2510,"max":[19.569229125976562,3.1463069915771484,5.289560794830322],"min":[-16.393470764160156,1.1058000326156616,-0.694000244140625],"type":"VEC3","name":"accessor_482"},{"bufferView":76,"byteOffset":30120,"componentType":5126,"count":2510,"max":[0.9995089769363403,0.9998469948768616,0.9237099885940552],"min":[-0.9995089769363403,-0.9531509876251221,-0.37505999207496643],"type":"VEC3","name":"accessor_484"},{"bufferView":77,"byteOffset":0,"componentType":5126,"count":2510,"max":[0.8402320146560669,0.09681898355484009],"min":[0.5240809917449951,0.011581003665924072],"type":"VEC2","name":"accessor_486"},{"bufferView":78,"byteOffset":0,"componentType":5126,"count":777,"max":[-1.2724610567092896,8.551060676574707,-15.070341110229492],"min":[-1.459805965423584,6.696100234985352,-15.51715087890625],"type":"VEC3","name":"accessor_50"},{"bufferView":114,"byteOffset":188130,"componentType":5123,"count":14880,"type":"SCALAR","min":[0],"max":[3027],"name":"accessor_507"},{"bufferView":78,"byteOffset":9324,"componentType":5126,"count":3028,"max":[5.234870433807373,10.589719772338867,28.885488510131836],"min":[-2.0582401752471924,-0.33528995513916016,-25.094009399414062],"type":"VEC3","name":"accessor_509"},{"bufferView":78,"byteOffset":45660,"componentType":5126,"count":3028,"max":[1,0.9999989867210388,0.9976399540901184],"min":[-1,-0.9999989867210388,-0.9998530149459839],"type":"VEC3","name":"accessor_511"},{"bufferView":79,"byteOffset":0,"componentType":5126,"count":3028,"max":[0.9324960112571716,0.594588041305542],"min":[0.018786801025271416,0.012520015239715576],"type":"VEC2","name":"accessor_513"},{"bufferView":80,"byteOffset":0,"componentType":5126,"count":777,"max":[1,0.999688982963562,0.9999970197677612],"min":[-1,-0.9996820092201233,-1],"type":"VEC3","name":"accessor_52"},{"bufferView":114,"byteOffset":217890,"componentType":5123,"count":408,"type":"SCALAR","min":[0],"max":[147],"name":"accessor_534"},{"bufferView":80,"byteOffset":9324,"componentType":5126,"count":148,"max":[3.242959976196289,2.655266046524048,-21.6676082611084],"min":[-0.06742004305124283,2.0724120140075684,-23.51582908630371],"type":"VEC3","name":"accessor_536"},{"bufferView":80,"byteOffset":11100,"componentType":5126,"count":148,"max":[0.8937240242958069,0.668366014957428,-0.15449795126914978],"min":[-0.8937010169029236,0.3301219940185547,-0.7037779688835144],"type":"VEC3","name":"accessor_538"},{"bufferView":81,"byteOffset":0,"componentType":5126,"count":777,"max":[0.9927619695663452,0.9746308922767639],"min":[0.029889199882745743,0.21367698907852173],"type":"VEC2","name":"accessor_54"},{"bufferView":114,"byteOffset":218706,"componentType":5123,"count":2580,"type":"SCALAR","min":[0],"max":[757],"name":"accessor_561"},{"bufferView":82,"byteOffset":0,"componentType":5126,"count":758,"max":[3.2314200401306152,6.157578945159912,25.482620239257812],"min":[-0.05519990995526314,4.390210151672363,21.90999984741211],"type":"VEC3","name":"accessor_563"},{"bufferView":82,"byteOffset":9096,"componentType":5126,"count":758,"max":[0.9933069944381714,1,0.9984059929847717],"min":[-0.9933069944381714,-0.9999840259552002,-0.9999589920043945],"type":"VEC3","name":"accessor_565"},{"bufferView":83,"byteOffset":0,"componentType":5126,"count":758,"max":[0.03899649903178215,0.688273012638092],"min":[0.003274260088801384,0.5727909803390503],"type":"VEC2","name":"accessor_567"},{"bufferView":114,"byteOffset":223866,"componentType":5123,"count":2022,"type":"SCALAR","min":[0],"max":[455],"name":"accessor_588"},{"bufferView":84,"byteOffset":0,"componentType":5126,"count":456,"max":[10.060709953308105,6.2555317878723145,29.88094139099121],"min":[-6.885190010070801,4.983691692352295,20.933561325073242],"type":"VEC3","name":"accessor_590"},{"bufferView":84,"byteOffset":5472,"componentType":5126,"count":456,"max":[0.9999390244483948,0.9983810186386108,0.9094709753990173],"min":[-0.9999390244483948,-0.9992749691009521,-0.9508540034294128],"type":"VEC3","name":"accessor_592"},{"bufferView":85,"byteOffset":0,"componentType":5126,"count":456,"max":[0.171548992395401,0.7303490042686462],"min":[0.010085400193929672,0.5340800285339355],"type":"VEC2","name":"accessor_594"},{"bufferView":114,"byteOffset":227910,"componentType":5123,"count":60,"type":"SCALAR","min":[0],"max":[39],"name":"accessor_615"},{"bufferView":86,"byteOffset":0,"componentType":5126,"count":40,"max":[2.0371999740600586,1.7924590110778809,-23.067216873168945],"min":[1.1385998725891113,1.7608599662780762,-23.072982788085938],"type":"VEC3","name":"accessor_617"},{"bufferView":86,"byteOffset":480,"componentType":5126,"count":40,"max":[1,1,0.9974250197410583],"min":[-1,-1,-4.3711398944878965e-8],"type":"VEC3","name":"accessor_619"},{"bufferView":87,"byteOffset":0,"componentType":5126,"count":40,"max":[0.462009996175766,0.3992609977722168],"min":[0.384317010641098,0.3804749846458435],"type":"VEC2","name":"accessor_621"},{"bufferView":114,"byteOffset":228030,"componentType":5123,"count":1500,"type":"SCALAR","min":[0],"max":[442],"name":"accessor_642"},{"bufferView":88,"byteOffset":0,"componentType":5126,"count":443,"max":[-1.4900400638580322,2.253882884979248,4.74429988861084],"min":[-5.258909702301025,0.8193759322166443,0.8525599241256714],"type":"VEC3","name":"accessor_644"},{"bufferView":88,"byteOffset":5316,"componentType":5126,"count":443,"max":[0.9999570250511169,0.9887359738349915,0.997937023639679],"min":[-0.9999529719352722,-0.9878510236740112,-0.9999790191650391],"type":"VEC3","name":"accessor_646"},{"bufferView":89,"byteOffset":0,"componentType":5126,"count":443,"max":[0.27045997977256775,0.9858515858650208],"min":[0.1054529994726181,0.9119502902030945],"type":"VEC2","name":"accessor_648"},{"bufferView":114,"byteOffset":231030,"componentType":5123,"count":120,"type":"SCALAR","min":[0],"max":[49],"name":"accessor_669"},{"bufferView":90,"byteOffset":0,"componentType":5126,"count":50,"max":[-7.594089508056641,2.9825007915496826,5.889949798583984],"min":[-12.69301986694336,2.392537832260132,1.7369600534439087],"type":"VEC3","name":"accessor_671"},{"bufferView":90,"byteOffset":600,"componentType":5126,"count":50,"max":[0.9999709725379944,0.9978659749031067,0.255389004945755],"min":[-0.9998970031738281,-0.9974120259284973,-0.9218940138816833],"type":"VEC3","name":"accessor_673"},{"bufferView":91,"byteOffset":0,"componentType":5126,"count":50,"max":[0.5462530255317688,0.9861630201339722],"min":[0.48961299657821655,0.9150968194007874],"type":"VEC2","name":"accessor_675"},{"bufferView":114,"byteOffset":231270,"componentType":5123,"count":348,"type":"SCALAR","min":[0],"max":[101],"name":"accessor_696"},{"bufferView":92,"byteOffset":0,"componentType":5126,"count":102,"max":[-12.664978981018066,3.3453590869903564,7.623759746551514],"min":[-17.628768920898438,2.8283791542053223,3.874070167541504],"type":"VEC3","name":"accessor_698"},{"bufferView":92,"byteOffset":1224,"componentType":5126,"count":102,"max":[0.9998970031738281,0.99891197681427,0.1916780024766922],"min":[-0.9991819858551025,-0.9991809725761414,-0.9145709872245789],"type":"VEC3","name":"accessor_700"},{"bufferView":93,"byteOffset":0,"componentType":5126,"count":102,"max":[0.6304190158843994,0.986183226108551],"min":[0.5567579865455627,0.9335336685180664],"type":"VEC2","name":"accessor_702"},{"bufferView":114,"byteOffset":231966,"componentType":5123,"count":5328,"type":"SCALAR","min":[0],"max":[1535],"name":"accessor_723"},{"bufferView":94,"byteOffset":0,"componentType":5126,"count":1536,"max":[-8.190051078796387,3.245910882949829,7.404079437255859],"min":[-16.407821655273438,1.688567876815796,1.5130900144577026],"type":"VEC3","name":"accessor_725"},{"bufferView":94,"byteOffset":18432,"componentType":5126,"count":1536,"max":[0.9999430179595947,0.9790080189704895,0.9979389905929565],"min":[-0.9999430179595947,-0.9778329730033875,-0.99794602394104],"type":"VEC3","name":"accessor_727"},{"bufferView":95,"byteOffset":0,"componentType":5126,"count":1536,"max":[0.7344610095024109,0.6904079914093018],"min":[0.5886920094490051,0.6213229894638062],"type":"VEC2","name":"accessor_729"},{"bufferView":114,"byteOffset":242622,"componentType":5123,"count":2712,"type":"SCALAR","min":[0],"max":[969],"name":"accessor_75"},{"bufferView":114,"byteOffset":248046,"componentType":5123,"count":96,"type":"SCALAR","min":[0],"max":[43],"name":"accessor_750"},{"bufferView":96,"byteOffset":0,"componentType":5126,"count":44,"max":[-0.5306600332260132,1.7181999683380127,1.359879970550537],"min":[-2.6894009113311768,1.2325299978256226,-0.013007079251110554],"type":"VEC3","name":"accessor_752"},{"bufferView":96,"byteOffset":528,"componentType":5126,"count":44,"max":[1,0.9875519871711731,0.9999679923057556],"min":[-0.9999970197677612,-0.9875519871711731,-0.9795719981193542],"type":"VEC3","name":"accessor_754"},{"bufferView":97,"byteOffset":0,"componentType":5126,"count":44,"max":[0.6677699685096741,0.329338014125824],"min":[0.6298940181732178,0.2991909980773926],"type":"VEC2","name":"accessor_756"},{"bufferView":98,"byteOffset":0,"componentType":5126,"count":970,"max":[-1.234705924987793,8.089140892028809,-15.396393775939941],"min":[-1.4539859294891357,6.698513507843018,-16.059276580810547],"type":"VEC3","name":"accessor_77"},{"bufferView":114,"byteOffset":248238,"componentType":5123,"count":252,"type":"SCALAR","min":[0],"max":[101],"name":"accessor_777"},{"bufferView":98,"byteOffset":11640,"componentType":5126,"count":102,"max":[1.0531240701675415,1.3031320571899414,2.340557098388672],"min":[-0.5305880308151245,0.26139500737190247,-0.43736302852630615],"type":"VEC3","name":"accessor_779"},{"bufferView":98,"byteOffset":12864,"componentType":5126,"count":102,"max":[0.9999989867210388,0.9741380214691162,0.9999110102653503],"min":[-1,-0.9741380214691162,-0.9998799562454224],"type":"VEC3","name":"accessor_781"},{"bufferView":99,"byteOffset":0,"componentType":5126,"count":102,"max":[0.6861000061035156,0.37564200162887573],"min":[0.6068829894065857,0.3528990149497986],"type":"VEC2","name":"accessor_783"},{"bufferView":100,"byteOffset":0,"componentType":5126,"count":970,"max":[1,0.9996979832649231,0.9999529719352722],"min":[-1,-0.9997029900550842,-0.9999529719352722],"type":"VEC3","name":"accessor_79"},{"bufferView":114,"byteOffset":248742,"componentType":5123,"count":468,"type":"SCALAR","min":[0],"max":[175],"name":"accessor_804"},{"bufferView":100,"byteOffset":11640,"componentType":5126,"count":176,"max":[4.322862148284912,2.5793650150299072,10.948906898498535],"min":[3.4754178524017334,1.1799039840698242,9.412819862365723],"type":"VEC3","name":"accessor_806"},{"bufferView":100,"byteOffset":13752,"componentType":5126,"count":176,"max":[0.9426339864730835,0.8206470012664795,0.9991390109062195],"min":[-0.9414910078048706,-0.8582990169525146,-0.9991919994354248],"type":"VEC3","name":"accessor_808"},{"bufferView":101,"byteOffset":0,"componentType":5126,"count":970,"max":[0.970009982585907,0.6611739993095398],"min":[0.025417599827051163,0.007541000843048096],"type":"VEC2","name":"accessor_81"},{"bufferView":101,"byteOffset":7760,"componentType":5126,"count":176,"max":[0.8992840051651001,0.941653311252594],"min":[0.8459270000457764,0.8331239819526672],"type":"VEC2","name":"accessor_810"},{"bufferView":114,"byteOffset":249678,"componentType":5123,"count":72,"type":"SCALAR","min":[0],"max":[33],"name":"accessor_831"},{"bufferView":102,"byteOffset":0,"componentType":5126,"count":34,"max":[-5.231449604034424,2.8140149116516113,3.925919771194458],"min":[-7.419259548187256,2.083664894104004,2.1543679237365723],"type":"VEC3","name":"accessor_833"},{"bufferView":102,"byteOffset":408,"componentType":5126,"count":34,"max":[0.9972860217094421,0.9750249981880188,0.20784999430179596],"min":[-0.9954929947853088,-0.990676999092102,-0.9999529719352722],"type":"VEC3","name":"accessor_835"},{"bufferView":103,"byteOffset":0,"componentType":5126,"count":34,"max":[0.4768660068511963,0.9867525100708008],"min":[0.44293299317359924,0.9121543765068054],"type":"VEC2","name":"accessor_837"},{"bufferView":114,"byteOffset":249822,"componentType":5123,"count":924,"type":"SCALAR","min":[0],"max":[229],"name":"accessor_858"},{"bufferView":104,"byteOffset":0,"componentType":5126,"count":230,"max":[-20.891372680664062,3.7880618572235107,8.930638313293457],"min":[-20.94053840637207,3.2028019428253174,7.662463188171387],"type":"VEC3","name":"accessor_860"},{"bufferView":104,"byteOffset":2760,"componentType":5126,"count":230,"max":[0.9999909996986389,1,0.44249802827835083],"min":[-0.9999970197677612,-1,-0.26065802574157715],"type":"VEC3","name":"accessor_862"},{"bufferView":105,"byteOffset":0,"componentType":5126,"count":230,"max":[0.17663100361824036,0.31619203090667725],"min":[0.06254210323095322,0.291126012802124],"type":"VEC2","name":"accessor_864"},{"bufferView":114,"byteOffset":251670,"componentType":5123,"count":5361,"type":"SCALAR","min":[0],"max":[943],"name":"accessor_885"},{"bufferView":106,"byteOffset":0,"componentType":5126,"count":944,"max":[-20.60327911376953,3.7135329246520996,9.082311630249023],"min":[-20.91448211669922,3.368259906768799,5.945149898529053],"type":"VEC3","name":"accessor_887"},{"bufferView":106,"byteOffset":11328,"componentType":5126,"count":944,"max":[0.9881500005722046,0.9958230257034302,0.9992579817771912],"min":[-0.9947310090065002,-0.9998340010643005,-0.6419650316238403],"type":"VEC3","name":"accessor_889"},{"bufferView":114,"byteOffset":262392,"componentType":5123,"count":1212,"type":"SCALAR","min":[0],"max":[450],"name":"accessor_912"},{"bufferView":106,"byteOffset":22656,"componentType":5126,"count":451,"max":[6.432539939880371,3.011699914932251,3.3513600826263428],"min":[-3.256499767303467,0.14124000072479248,-0.9407299757003784],"type":"VEC3","name":"accessor_914"},{"bufferView":106,"byteOffset":28068,"componentType":5126,"count":451,"max":[1,0.9998149871826172,1],"min":[-1,-0.9998279809951782,-1],"type":"VEC3","name":"accessor_916"},{"bufferView":107,"byteOffset":0,"componentType":5126,"count":451,"max":[0.33131900429725647,0.650367021560669],"min":[0.22192999720573425,0.0036789774894714355],"type":"VEC2","name":"accessor_918"},{"bufferView":114,"byteOffset":264816,"componentType":5123,"count":492,"type":"SCALAR","min":[0],"max":[143],"name":"accessor_939"},{"bufferView":108,"byteOffset":0,"componentType":5126,"count":144,"max":[2.1849608421325684,1.8905160427093506,-17.341800689697266],"min":[0.9916678667068481,-0.279729962348938,-20.617685317993164],"type":"VEC3","name":"accessor_941"},{"bufferView":108,"byteOffset":1728,"componentType":5126,"count":144,"max":[1,0.1979990005493164,1],"min":[-1,-1,-1],"type":"VEC3","name":"accessor_943"},{"bufferView":109,"byteOffset":0,"componentType":5126,"count":144,"max":[0.23128700256347656,0.04705202579498291],"min":[0.2003600001335144,0.0017859935760498047],"type":"VEC2","name":"accessor_945"},{"bufferView":114,"byteOffset":265800,"componentType":5123,"count":144,"type":"SCALAR","min":[0],"max":[57],"name":"accessor_966"},{"bufferView":110,"byteOffset":0,"componentType":5126,"count":58,"max":[1.587857961654663,0.09311001002788544,-18.2935791015625],"min":[0.9909658432006836,-0.2797369956970215,-20.330230712890625],"type":"VEC3","name":"accessor_968"},{"bufferView":110,"byteOffset":696,"componentType":5126,"count":58,"max":[1,0.991500973701477,1],"min":[-0.9999989867210388,-0.9915080070495605,-0.9999989867210388],"type":"VEC3","name":"accessor_970"},{"bufferView":111,"byteOffset":0,"componentType":5126,"count":58,"max":[0.5900359749794006,0.39129799604415894],"min":[0.5239329934120178,0.2955000400543213],"type":"VEC2","name":"accessor_972"},{"bufferView":112,"byteOffset":0,"componentType":5126,"count":24,"max":[1.587852954864502,0.19490019977092743,-17.40583610534668],"min":[0.990960955619812,-0.01393679529428482,-18.293642044067383],"type":"VEC3","name":"accessor_995"},{"bufferView":112,"byteOffset":288,"componentType":5126,"count":24,"max":[1,0.9886019825935364,0.9999989867210388],"min":[-0.9999949932098389,-0.9886019825935364,-1],"type":"VEC3","name":"accessor_997"},{"bufferView":113,"byteOffset":0,"componentType":5126,"count":24,"max":[0.03293279930949211,0.2968429923057556],"min":[0.006169260013848543,0.20117402076721191],"type":"VEC2","name":"accessor_999"},{"bufferView":115,"componentType":5126,"count":3045,"type":"VEC3","min":[-1.3939013671874976,4.810134941339493,-27.569458961486816],"max":[1.3931784820556667,15.759369850158691,-10.992328643798828]},{"bufferView":116,"componentType":5126,"count":3045,"type":"VEC3"},{"bufferView":117,"componentType":5126,"count":252,"type":"VEC3","min":[-0.21522447423566285,9.789982373372032,-24.809080333134617],"max":[0.21498228008092451,13.194022697641037,-21.405040008865612]},{"bufferView":118,"componentType":5126,"count":252,"type":"VEC3"},{"bufferView":119,"componentType":5126,"count":252,"type":"VEC2"}],"asset":{"generator":"collada2gltf@","version":"2.0","copyright":"FlightGear model authors / Flightradar24 contributors; GPLv2. See UPSTREAM-CREDITS.md and LICENSE.txt."},"bufferViews":[{"buffer":0,"byteLength":685,"byteOffset":1453384,"name":"binary_bufferView0"},{"buffer":0,"byteLength":439,"byteOffset":1454069,"name":"binary_bufferView1"},{"buffer":0,"byteLength":629,"byteOffset":1454508,"name":"binary_bufferView2"},{"buffer":0,"byteLength":355,"byteOffset":1455137,"name":"binary_bufferView3"},{"buffer":0,"byteLength":677,"byteOffset":1455492,"name":"binary_bufferView4"},{"buffer":0,"byteLength":355,"byteOffset":1456169,"name":"binary_bufferView5"},{"buffer":0,"byteLength":27624,"byteOffset":1456524,"name":"binary_bufferView6"},{"buffer":0,"byteLength":302620,"byteOffset":1484148,"name":"binary_bufferView7"},{"buffer":0,"byteLength":1392,"byteOffset":0,"target":34962,"name":"bufferView_0","byteStride":12},{"buffer":0,"byteLength":464,"byteOffset":1392,"target":34962,"name":"bufferView_0","byteStride":8},{"buffer":0,"byteLength":9900,"byteOffset":1856,"target":34962,"name":"bufferView_0","byteStride":12},{"buffer":0,"byteLength":192,"byteOffset":11756,"target":34962,"name":"bufferView_0","byteStride":8},{"buffer":0,"byteLength":19956,"byteOffset":11948,"target":34962,"name":"bufferView_0","byteStride":12},{"buffer":0,"byteLength":9760,"byteOffset":31904,"target":34962,"name":"bufferView_0","byteStride":8},{"buffer":0,"byteLength":1200,"byteOffset":41664,"target":34962,"name":"bufferView_0","byteStride":12},{"buffer":0,"byteLength":400,"byteOffset":42864,"target":34962,"name":"bufferView_0","byteStride":8},{"buffer":0,"byteLength":2448,"byteOffset":43264,"target":34962,"name":"bufferView_0","byteStride":12},{"buffer":0,"byteLength":816,"byteOffset":45712,"target":34962,"name":"bufferView_0","byteStride":8},{"buffer":0,"byteLength":36864,"byteOffset":46528,"target":34962,"name":"bufferView_0","byteStride":12},{"buffer":0,"byteLength":12288,"byteOffset":83392,"target":34962,"name":"bufferView_0","byteStride":8},{"buffer":0,"byteLength":1056,"byteOffset":95680,"target":34962,"name":"bufferView_0","byteStride":12},{"buffer":0,"byteLength":352,"byteOffset":96736,"target":34962,"name":"bufferView_0","byteStride":8},{"buffer":0,"byteLength":2448,"byteOffset":97088,"target":34962,"name":"bufferView_0","byteStride":12},{"buffer":0,"byteLength":816,"byteOffset":99536,"target":34962,"name":"bufferView_0","byteStride":8},{"buffer":0,"byteLength":816,"byteOffset":100352,"target":34962,"name":"bufferView_0","byteStride":12},{"buffer":0,"byteLength":272,"byteOffset":101168,"target":34962,"name":"bufferView_0","byteStride":8},{"buffer":0,"byteLength":2160,"byteOffset":101440,"target":34962,"name":"bufferView_0","byteStride":12},{"buffer":0,"byteLength":720,"byteOffset":103600,"target":34962,"name":"bufferView_0","byteStride":8},{"buffer":0,"byteLength":5520,"byteOffset":104320,"target":34962,"name":"bufferView_0","byteStride":12},{"buffer":0,"byteLength":1840,"byteOffset":109840,"target":34962,"name":"bufferView_0","byteStride":8},{"buffer":0,"byteLength":92376,"byteOffset":111680,"target":34962,"name":"bufferView_0","byteStride":12},{"buffer":0,"byteLength":23240,"byteOffset":204056,"target":34962,"name":"bufferView_0","byteStride":8},{"buffer":0,"byteLength":46440,"byteOffset":227296,"target":34962,"name":"bufferView_0","byteStride":12},{"buffer":0,"byteLength":15480,"byteOffset":273736,"target":34962,"name":"bufferView_0","byteStride":8},{"buffer":0,"byteLength":13824,"byteOffset":289216,"target":34962,"name":"bufferView_0","byteStride":12},{"buffer":0,"byteLength":4608,"byteOffset":303040,"target":34962,"name":"bufferView_0","byteStride":8},{"buffer":0,"byteLength":4536,"byteOffset":307648,"target":34962,"name":"bufferView_0","byteStride":12},{"buffer":0,"byteLength":1512,"byteOffset":312184,"target":34962,"name":"bufferView_0","byteStride":8},{"buffer":0,"byteLength":34128,"byteOffset":313696,"target":34962,"name":"bufferView_0","byteStride":12},{"buffer":0,"byteLength":11376,"byteOffset":347824,"target":34962,"name":"bufferView_0","byteStride":8},{"buffer":0,"byteLength":10416,"byteOffset":359200,"target":34962,"name":"bufferView_0","byteStride":12},{"buffer":0,"byteLength":2880,"byteOffset":369616,"target":34962,"name":"bufferView_0","byteStride":8},{"buffer":0,"byteLength":6936,"byteOffset":372496,"target":34962,"name":"bufferView_0","byteStride":12},{"buffer":0,"byteLength":2312,"byteOffset":379432,"target":34962,"name":"bufferView_0","byteStride":8},{"buffer":0,"byteLength":18060,"byteOffset":381744,"target":34962,"name":"bufferView_0","byteStride":12},{"buffer":0,"byteLength":2312,"byteOffset":399804,"target":34962,"name":"bufferView_0","byteStride":8},{"buffer":0,"byteLength":27780,"byteOffset":402116,"target":34962,"name":"bufferView_0","byteStride":12},{"buffer":0,"byteLength":10088,"byteOffset":429896,"target":34962,"name":"bufferView_0","byteStride":8},{"buffer":0,"byteLength":6480,"byteOffset":439984,"target":34962,"name":"bufferView_0","byteStride":12},{"buffer":0,"byteLength":2160,"byteOffset":446464,"target":34962,"name":"bufferView_0","byteStride":8},{"buffer":0,"byteLength":9408,"byteOffset":448624,"target":34962,"name":"bufferView_0","byteStride":12},{"buffer":0,"byteLength":3136,"byteOffset":458032,"target":34962,"name":"bufferView_0","byteStride":8},{"buffer":0,"byteLength":9408,"byteOffset":461168,"target":34962,"name":"bufferView_0","byteStride":12},{"buffer":0,"byteLength":3136,"byteOffset":470576,"target":34962,"name":"bufferView_0","byteStride":8},{"buffer":0,"byteLength":82200,"byteOffset":473712,"target":34962,"name":"bufferView_0","byteStride":12},{"buffer":0,"byteLength":10512,"byteOffset":555912,"target":34962,"name":"bufferView_0","byteStride":8},{"buffer":0,"byteLength":7992,"byteOffset":566424,"target":34962,"name":"bufferView_0","byteStride":12},{"buffer":0,"byteLength":5328,"byteOffset":574416,"target":34962,"name":"bufferView_0","byteStride":8},{"buffer":0,"byteLength":8112,"byteOffset":579744,"target":34962,"name":"bufferView_0","byteStride":12},{"buffer":0,"byteLength":1040,"byteOffset":587856,"target":34962,"name":"bufferView_0","byteStride":8},{"buffer":0,"byteLength":20976,"byteOffset":588896,"target":34962,"name":"bufferView_0","byteStride":12},{"buffer":0,"byteLength":8656,"byteOffset":609872,"target":34962,"name":"bufferView_0","byteStride":8},{"buffer":0,"byteLength":3120,"byteOffset":618528,"target":34962,"name":"bufferView_0","byteStride":12},{"buffer":0,"byteLength":1040,"byteOffset":621648,"target":34962,"name":"bufferView_0","byteStride":8},{"buffer":0,"byteLength":20400,"byteOffset":622688,"target":34962,"name":"bufferView_0","byteStride":12},{"buffer":0,"byteLength":6800,"byteOffset":643088,"target":34962,"name":"bufferView_0","byteStride":8},{"buffer":0,"byteLength":3648,"byteOffset":649888,"target":34962,"name":"bufferView_0","byteStride":12},{"buffer":0,"byteLength":1216,"byteOffset":653536,"target":34962,"name":"bufferView_0","byteStride":8},{"buffer":0,"byteLength":1200,"byteOffset":654752,"target":34962,"name":"bufferView_0","byteStride":12},{"buffer":0,"byteLength":400,"byteOffset":655952,"target":34962,"name":"bufferView_0","byteStride":8},{"buffer":0,"byteLength":1200,"byteOffset":656352,"target":34962,"name":"bufferView_0","byteStride":12},{"buffer":0,"byteLength":400,"byteOffset":657552,"target":34962,"name":"bufferView_0","byteStride":8},{"buffer":0,"byteLength":45480,"byteOffset":657952,"target":34962,"name":"bufferView_0","byteStride":12},{"buffer":0,"byteLength":15160,"byteOffset":703432,"target":34962,"name":"bufferView_0","byteStride":8},{"buffer":0,"byteLength":45480,"byteOffset":718592,"target":34962,"name":"bufferView_0","byteStride":12},{"buffer":0,"byteLength":15160,"byteOffset":764072,"target":34962,"name":"bufferView_0","byteStride":8},{"buffer":0,"byteLength":60240,"byteOffset":779232,"target":34962,"name":"bufferView_0","byteStride":12},{"buffer":0,"byteLength":20080,"byteOffset":839472,"target":34962,"name":"bufferView_0","byteStride":8},{"buffer":0,"byteLength":81996,"byteOffset":859552,"target":34962,"name":"bufferView_0","byteStride":12},{"buffer":0,"byteLength":24224,"byteOffset":941548,"target":34962,"name":"bufferView_0","byteStride":8},{"buffer":0,"byteLength":12876,"byteOffset":965772,"target":34962,"name":"bufferView_0","byteStride":12},{"buffer":0,"byteLength":6216,"byteOffset":978648,"target":34962,"name":"bufferView_0","byteStride":8},{"buffer":0,"byteLength":18192,"byteOffset":984864,"target":34962,"name":"bufferView_0","byteStride":12},{"buffer":0,"byteLength":6064,"byteOffset":1003056,"target":34962,"name":"bufferView_0","byteStride":8},{"buffer":0,"byteLength":10944,"byteOffset":1009120,"target":34962,"name":"bufferView_0","byteStride":12},{"buffer":0,"byteLength":3648,"byteOffset":1020064,"target":34962,"name":"bufferView_0","byteStride":8},{"buffer":0,"byteLength":960,"byteOffset":1023712,"target":34962,"name":"bufferView_0","byteStride":12},{"buffer":0,"byteLength":320,"byteOffset":1024672,"target":34962,"name":"bufferView_0","byteStride":8},{"buffer":0,"byteLength":10632,"byteOffset":1024992,"target":34962,"name":"bufferView_0","byteStride":12},{"buffer":0,"byteLength":3544,"byteOffset":1035624,"target":34962,"name":"bufferView_0","byteStride":8},{"buffer":0,"byteLength":1200,"byteOffset":1039168,"target":34962,"name":"bufferView_0","byteStride":12},{"buffer":0,"byteLength":400,"byteOffset":1040368,"target":34962,"name":"bufferView_0","byteStride":8},{"buffer":0,"byteLength":2448,"byteOffset":1040768,"target":34962,"name":"bufferView_0","byteStride":12},{"buffer":0,"byteLength":816,"byteOffset":1043216,"target":34962,"name":"bufferView_0","byteStride":8},{"buffer":0,"byteLength":36864,"byteOffset":1044032,"target":34962,"name":"bufferView_0","byteStride":12},{"buffer":0,"byteLength":12288,"byteOffset":1080896,"target":34962,"name":"bufferView_0","byteStride":8},{"buffer":0,"byteLength":1056,"byteOffset":1093184,"target":34962,"name":"bufferView_0","byteStride":12},{"buffer":0,"byteLength":352,"byteOffset":1094240,"target":34962,"name":"bufferView_0","byteStride":8},{"buffer":0,"byteLength":14088,"byteOffset":1094592,"target":34962,"name":"bufferView_0","byteStride":12},{"buffer":0,"byteLength":816,"byteOffset":1108680,"target":34962,"name":"bufferView_0","byteStride":8},{"buffer":0,"byteLength":15864,"byteOffset":1109496,"target":34962,"name":"bufferView_0","byteStride":12},{"buffer":0,"byteLength":9168,"byteOffset":1125360,"target":34962,"name":"bufferView_0","byteStride":8},{"buffer":0,"byteLength":816,"byteOffset":1134528,"target":34962,"name":"bufferView_0","byteStride":12},{"buffer":0,"byteLength":272,"byteOffset":1135344,"target":34962,"name":"bufferView_0","byteStride":8},{"buffer":0,"byteLength":5520,"byteOffset":1135616,"target":34962,"name":"bufferView_0","byteStride":12},{"buffer":0,"byteLength":1840,"byteOffset":1141136,"target":34962,"name":"bufferView_0","byteStride":8},{"buffer":0,"byteLength":33480,"byteOffset":1142976,"target":34962,"name":"bufferView_0","byteStride":12},{"buffer":0,"byteLength":3608,"byteOffset":1176456,"target":34962,"name":"bufferView_0","byteStride":8},{"buffer":0,"byteLength":3456,"byteOffset":1180064,"target":34962,"name":"bufferView_0","byteStride":12},{"buffer":0,"byteLength":1152,"byteOffset":1183520,"target":34962,"name":"bufferView_0","byteStride":8},{"buffer":0,"byteLength":1392,"byteOffset":1184672,"target":34962,"name":"bufferView_0","byteStride":12},{"buffer":0,"byteLength":464,"byteOffset":1186064,"target":34962,"name":"bufferView_0","byteStride":8},{"buffer":0,"byteLength":576,"byteOffset":1186528,"target":34962,"name":"bufferView_0","byteStride":12},{"buffer":0,"byteLength":192,"byteOffset":1187104,"target":34962,"name":"bufferView_0","byteStride":8},{"buffer":0,"byteLength":266088,"byteOffset":1187296,"target":34963,"name":"bufferView_1"},{"buffer":1,"byteOffset":0,"byteLength":36540,"target":34962},{"buffer":1,"byteOffset":36540,"byteLength":36540,"target":34962},{"buffer":1,"byteOffset":73080,"byteLength":3024,"target":34962},{"buffer":1,"byteOffset":76104,"byteLength":3024,"target":34962},{"buffer":1,"byteOffset":79128,"byteLength":2016,"target":34962}],"buffers":[{"byteLength":1786768,"extras":{},"name":"binary_glTF","uri":"../beluga-v1-0.bin"},{"uri":"beluga-tail-v1.bin?tail=2","byteLength":81144}],"images":[{"name":"MBdoorArms_png_001","extras":{},"bufferView":6,"mimeType":"image/jpeg"},{"name":"TextureMain_png_001","extras":{},"bufferView":7,"mimeType":"image/jpeg"},{"uri":"../../../airlines/ANA.png"}],"materials":[{"name":"DefaultWhite","pbrMetallicRoughness":{"roughnessFactor":1,"metallicFactor":0,"baseColorTexture":{"index":1}}},{"name":"DefaultWhite_001","pbrMetallicRoughness":{"roughnessFactor":1,"metallicFactor":0,"baseColorTexture":{"index":0}}},{"name":"DefaultWhite_002","pbrMetallicRoughness":{"roughnessFactor":1,"metallicFactor":0,"baseColorFactor":[0.6038273590607633,0.6038273590607633,0.6038273590607633,1]}},{"name":"Transparent","alphaMode":"BLEND","doubleSided":true,"pbrMetallicRoughness":{"roughnessFactor":1,"metallicFactor":0,"baseColorFactor":[0.1328683257311731,0.1328683257311731,0.1328683257311731,1]}},{"name":"Operator tail paint","doubleSided":true,"pbrMetallicRoughness":{"baseColorFactor":[0.13725490196078433,0.30196078431372547,0.6078431372549019,1],"metallicFactor":0,"roughnessFactor":0.65}},{"name":"Operator logo identification","doubleSided":true,"alphaMode":"MASK","alphaCutoff":0.08,"pbrMetallicRoughness":{"baseColorTexture":{"index":2},"metallicFactor":0,"roughnessFactor":0.7},"emissiveFactor":[0.18,0.18,0.18],"emissiveTexture":{"index":2}}],"meshes":[{"name":"eng1Fan","primitives":[{"attributes":{"NORMAL":80,"POSITION":79,"TEXCOORD_0":81},"indices":78,"material":0,"mode":4}]},{"name":"eng2Fan","primitives":[{"attributes":{"NORMAL":88,"POSITION":87,"TEXCOORD_0":81},"indices":78,"material":0,"mode":4}]},{"name":"rootNode_mesh","primitives":[{"attributes":{"NORMAL":170,"POSITION":165,"TEXCOORD_0":174},"indices":153,"material":0,"mode":4},{"attributes":{"NORMAL":214,"POSITION":209,"TEXCOORD_0":218},"indices":204,"material":1,"mode":4},{"attributes":{"NORMAL":257,"POSITION":252,"TEXCOORD_0":261},"indices":247,"material":1,"mode":4},{"attributes":{"NORMAL":10,"POSITION":5,"TEXCOORD_0":14},"indices":0,"material":1,"mode":4},{"attributes":{"NORMAL":53,"POSITION":49,"TEXCOORD_0":57},"indices":44,"material":1,"mode":4},{"attributes":{"NORMAL":94,"POSITION":89,"TEXCOORD_0":98},"indices":86,"material":0,"mode":4},{"attributes":{"NORMAL":129,"POSITION":126},"indices":122,"material":2,"mode":4},{"attributes":{"NORMAL":163,"POSITION":158,"TEXCOORD_0":164},"indices":154,"material":1,"mode":4},{"attributes":{"NORMAL":168,"POSITION":167,"TEXCOORD_0":169},"indices":166,"material":1,"mode":4},{"attributes":{"NORMAL":173,"POSITION":172,"TEXCOORD_0":175},"indices":171,"material":1,"mode":4},{"attributes":{"NORMAL":178,"POSITION":177,"TEXCOORD_0":179},"indices":176,"material":1,"mode":4},{"attributes":{"NORMAL":182,"POSITION":181,"TEXCOORD_0":183},"indices":180,"material":0,"mode":4},{"attributes":{"NORMAL":186,"POSITION":185,"TEXCOORD_0":187},"indices":184,"material":0,"mode":4},{"attributes":{"NORMAL":190,"POSITION":189,"TEXCOORD_0":191},"indices":188,"material":0,"mode":4},{"attributes":{"NORMAL":194,"POSITION":193,"TEXCOORD_0":195},"indices":192,"material":0,"mode":4},{"attributes":{"NORMAL":198,"POSITION":197,"TEXCOORD_0":199},"indices":196,"material":0,"mode":4},{"attributes":{"NORMAL":202,"POSITION":201,"TEXCOORD_0":203},"indices":200,"material":0,"mode":4},{"attributes":{"NORMAL":207,"POSITION":206,"TEXCOORD_0":208},"indices":205,"material":0,"mode":4},{"attributes":{"NORMAL":212,"POSITION":211,"TEXCOORD_0":213},"indices":210,"material":0,"mode":4},{"attributes":{"NORMAL":217,"POSITION":216},"indices":215,"material":3,"mode":4},{"attributes":{"NORMAL":221,"POSITION":220,"TEXCOORD_0":222},"indices":219,"material":0,"mode":4},{"attributes":{"NORMAL":225,"POSITION":224,"TEXCOORD_0":226},"indices":223,"material":0,"mode":4},{"attributes":{"NORMAL":229,"POSITION":228,"TEXCOORD_0":230},"indices":227,"material":0,"mode":4},{"attributes":{"NORMAL":233,"POSITION":232,"TEXCOORD_0":234},"indices":231,"material":0,"mode":4},{"attributes":{"NORMAL":237,"POSITION":236,"TEXCOORD_0":238},"indices":235,"material":0,"mode":4},{"attributes":{"NORMAL":241,"POSITION":240,"TEXCOORD_0":242},"indices":239,"material":0,"mode":4},{"attributes":{"NORMAL":245,"POSITION":244,"TEXCOORD_0":246},"indices":243,"material":0,"mode":4},{"attributes":{"NORMAL":250,"POSITION":249,"TEXCOORD_0":251},"indices":248,"material":0,"mode":4},{"attributes":{"NORMAL":255,"POSITION":254,"TEXCOORD_0":256},"indices":253,"material":0,"mode":4},{"attributes":{"NORMAL":260,"POSITION":259,"TEXCOORD_0":262},"indices":258,"material":0,"mode":4},{"attributes":{"NORMAL":265,"POSITION":264,"TEXCOORD_0":266},"indices":263,"material":0,"mode":4},{"attributes":{"NORMAL":269,"POSITION":268,"TEXCOORD_0":270},"indices":267,"material":0,"mode":4},{"attributes":{"NORMAL":273,"POSITION":272},"indices":271,"material":3,"mode":4},{"attributes":{"NORMAL":276,"POSITION":275,"TEXCOORD_0":277},"indices":274,"material":0,"mode":4},{"attributes":{"NORMAL":280,"POSITION":279,"TEXCOORD_0":281},"indices":278,"material":0,"mode":4},{"attributes":{"NORMAL":284,"POSITION":283,"TEXCOORD_0":285},"indices":282,"material":0,"mode":4},{"attributes":{"NORMAL":287,"POSITION":286,"TEXCOORD_0":288},"indices":6,"material":0,"mode":4},{"attributes":{"NORMAL":3,"POSITION":2,"TEXCOORD_0":4},"indices":1,"material":0,"mode":4},{"attributes":{"NORMAL":8,"POSITION":7,"TEXCOORD_0":9},"indices":6,"material":0,"mode":4},{"attributes":{"NORMAL":13,"POSITION":12,"TEXCOORD_0":15},"indices":11,"material":0,"mode":4},{"attributes":{"NORMAL":18,"POSITION":17,"TEXCOORD_0":19},"indices":16,"material":0,"mode":4},{"attributes":{"NORMAL":22,"POSITION":21,"TEXCOORD_0":23},"indices":20,"material":0,"mode":4},{"attributes":{"NORMAL":26,"POSITION":25,"TEXCOORD_0":27},"indices":24,"material":0,"mode":4},{"attributes":{"NORMAL":30,"POSITION":29,"TEXCOORD_0":31},"indices":28,"material":0,"mode":4},{"attributes":{"NORMAL":34,"POSITION":33,"TEXCOORD_0":35},"indices":32,"material":0,"mode":4},{"attributes":{"NORMAL":38,"POSITION":37,"TEXCOORD_0":39},"indices":36,"material":0,"mode":4},{"attributes":{"NORMAL":42,"POSITION":41,"TEXCOORD_0":43},"indices":40,"material":0,"mode":4},{"attributes":{"NORMAL":47,"POSITION":46,"TEXCOORD_0":48},"indices":45,"material":0,"mode":4},{"attributes":{"NORMAL":52,"POSITION":51},"indices":50,"material":3,"mode":4},{"attributes":{"NORMAL":56,"POSITION":55,"TEXCOORD_0":58},"indices":54,"material":0,"mode":4},{"attributes":{"NORMAL":61,"POSITION":60,"TEXCOORD_0":62},"indices":59,"material":0,"mode":4},{"attributes":{"NORMAL":65,"POSITION":64,"TEXCOORD_0":66},"indices":63,"material":0,"mode":4},{"attributes":{"NORMAL":69,"POSITION":68,"TEXCOORD_0":70},"indices":67,"material":0,"mode":4},{"attributes":{"NORMAL":73,"POSITION":72,"TEXCOORD_0":74},"indices":71,"material":0,"mode":4},{"attributes":{"NORMAL":77,"POSITION":76},"indices":75,"material":2,"mode":4},{"attributes":{"NORMAL":84,"POSITION":83,"TEXCOORD_0":85},"indices":82,"material":0,"mode":4},{"attributes":{"NORMAL":92,"POSITION":91,"TEXCOORD_0":93},"indices":90,"material":0,"mode":4},{"attributes":{"NORMAL":97,"POSITION":96,"TEXCOORD_0":99},"indices":95,"material":0,"mode":4},{"attributes":{"NORMAL":102,"POSITION":101,"TEXCOORD_0":103},"indices":100,"material":0,"mode":4},{"attributes":{"NORMAL":106,"POSITION":105,"TEXCOORD_0":107},"indices":104,"material":0,"mode":4},{"attributes":{"NORMAL":110,"POSITION":109,"TEXCOORD_0":111},"indices":108,"material":0,"mode":4},{"attributes":{"NORMAL":114,"POSITION":113},"indices":112,"material":2,"mode":4},{"attributes":{"NORMAL":116,"POSITION":115},"indices":6,"material":2,"mode":4},{"attributes":{"NORMAL":119,"POSITION":118},"indices":117,"material":2,"mode":4},{"attributes":{"NORMAL":121,"POSITION":120},"indices":6,"material":2,"mode":4},{"attributes":{"NORMAL":125,"POSITION":124},"indices":123,"material":2,"mode":4},{"attributes":{"NORMAL":128,"POSITION":127},"indices":6,"material":2,"mode":4},{"attributes":{"NORMAL":132,"POSITION":131},"indices":130,"material":2,"mode":4},{"attributes":{"NORMAL":134,"POSITION":133},"indices":6,"material":2,"mode":4},{"attributes":{"NORMAL":137,"POSITION":136},"indices":135,"material":2,"mode":4},{"attributes":{"NORMAL":140,"POSITION":139},"indices":138,"material":2,"mode":4},{"attributes":{"NORMAL":143,"POSITION":142},"indices":141,"material":2,"mode":4},{"attributes":{"NORMAL":146,"POSITION":145},"indices":144,"material":2,"mode":4},{"attributes":{"NORMAL":149,"POSITION":148},"indices":147,"material":2,"mode":4},{"attributes":{"NORMAL":152,"POSITION":151},"indices":150,"material":2,"mode":4},{"attributes":{"NORMAL":157,"POSITION":156},"indices":155,"material":2,"mode":4},{"attributes":{"NORMAL":161,"POSITION":160,"TEXCOORD_0":162},"indices":159,"material":0,"mode":4}]},{"name":"Airline tail surface overlay","primitives":[{"attributes":{"POSITION":289,"NORMAL":290},"material":4},{"attributes":{"POSITION":291,"NORMAL":292,"TEXCOORD_0":293},"material":5}]}],"nodes":[{"matrix":[-4.3711398899999997e-8,0,1,0,1,0,4.3711398899999997e-8,0,0,1,0,0,-6.554989814758302,0.5095580220222473,-6.482019901275636,1],"name":"eng1Fan","mesh":0},{"matrix":[-4.3711398899999997e-8,0,1,0,1,0,4.3711398899999997e-8,0,0,1,0,0,9.730859756469728,0.5095589756965637,-6.4820098876953125,1],"name":"eng2Fan","mesh":1},{"children":[0,1],"matrix":[1,0,0,0,0,1,0,0,0,0,1,0,0,0,0,1],"name":"rootNode","mesh":2},{"name":"SkywardCoordinateAlignment","matrix":[-1,0,-1.2246467991473532e-16,0,0,1,0,0,1.2246467991473532e-16,0,-1,0,1.5877485275268552,0,2.6764001846313477,1],"children":[2]},{"name":"AirlineTailBranding","mesh":3}],"samplers":[{"magFilter":9729,"minFilter":9729,"wrapS":10497,"wrapT":10497,"name":"sampler_0"},{"magFilter":9729,"minFilter":9987,"wrapS":33071,"wrapT":33071}],"scene":0,"scenes":[{"nodes":[3,4],"name":"defaultScene"}],"textures":[{"sampler":0,"source":0,"name":"texture_MBdoorArms_png_001"},{"sampler":0,"source":1,"name":"texture_TextureMain_png_001"},{"source":2,"sampler":1}],"extras":{"skyward":{"source":"https://github.com/Flightradar24/fr24-3d-models","commit":"dd53267690c6a4ecbb290a3acf0284333a5d68a9","changes":"Converted legacy glTF to glTF 2.0 with Cesium; rigid axis alignment and horizontal centering only. Original geometry, materials and paint retained. Added surface-following operator tail paint and unmodified identification-logo texture. Branding is illustrative, not a registration-specific livery.","license":"GPL-2.0","sourceFiles":["source/beluga/beluga.blend","source/beluga/beluga.zip"],"operator":"ANA"}}}