{"accessors":[{"bufferView":2,"componentType":5121,"count":63,"max":[28],"min":[0],"type":"SCALAR"},{"bufferView":3,"componentType":5126,"count":29,"max":[0.37222224473953247,-0.31822699308395386,3.025585889816284],"min":[0.12263425439596176,-0.5586619973182678,2.741558790206909],"type":"VEC3"},{"bufferView":4,"componentType":5126,"count":29,"type":"VEC3"},{"bufferView":5,"componentType":5126,"count":29,"type":"VEC4"},{"bufferView":6,"componentType":5126,"count":29,"max":[0.02817617356777191,0.8539225608110428],"min":[0.009444892406463623,0.7981580048799515],"type":"VEC2"},{"bufferView":7,"componentType":5121,"count":624,"max":[128],"min":[0],"type":"SCALAR"},{"bufferView":8,"componentType":5126,"count":129,"max":[0.028835318982601166,0.4931109845638275,-3.5620877742767334],"min":[-0.012624679133296013,0.4553779661655426,-3.601353883743286],"type":"VEC3"},{"bufferView":9,"componentType":5126,"count":129,"type":"VEC3"},{"bufferView":10,"componentType":5126,"count":129,"type":"VEC4"},{"bufferView":11,"componentType":5126,"count":129,"max":[0.6574663519859314,0.2996099591255188],"min":[0.6486209630966187,0.2835152745246887],"type":"VEC2"},{"bufferView":12,"componentType":5123,"count":4800,"max":[897],"min":[0],"type":"SCALAR"},{"bufferView":13,"componentType":5126,"count":898,"max":[0.0668812245130539,-0.8310799598693848,2.9865658283233643],"min":[-0.06305176764726639,-1.18942391872406,2.633744955062866],"type":"VEC3"},{"bufferView":14,"componentType":5126,"count":898,"type":"VEC3"},{"bufferView":15,"componentType":5126,"count":898,"type":"VEC4"},{"bufferView":16,"componentType":5126,"count":898,"max":[0.3121173083782196,0.5458623170852661],"min":[0.2612574100494385,0.44417768716812134],"type":"VEC2"},{"bufferView":17,"componentType":5121,"count":63,"max":[28],"min":[0],"type":"SCALAR"},{"bufferView":18,"componentType":5126,"count":29,"max":[-0.11980772763490677,-0.31822696328163147,3.025585889816284],"min":[-0.3693957030773163,-0.558661937713623,2.741558790206909],"type":"VEC3"},{"bufferView":19,"componentType":5126,"count":29,"type":"VEC3"},{"bufferView":20,"componentType":5126,"count":29,"type":"VEC4"},{"bufferView":21,"componentType":5126,"count":29,"max":[0.029957745224237442,0.9010366722941399],"min":[0.011942795477807522,0.8548178225755692],"type":"VEC2"},{"bufferView":22,"componentType":5121,"count":360,"max":[247],"min":[0],"type":"SCALAR"},{"bufferView":23,"componentType":5126,"count":248,"max":[5.456868648529053,0.9167606234550476,1.7003579139709473],"min":[5.437636852264404,0.8776896595954895,1.6814699172973633],"type":"VEC3"},{"bufferView":24,"componentType":5126,"count":248,"type":"VEC3"},{"bufferView":25,"componentType":5126,"count":248,"type":"VEC4"},{"bufferView":26,"componentType":5126,"count":248,"max":[0,1],"min":[0,1],"type":"VEC2"},{"bufferView":27,"componentType":5121,"count":144,"max":[51],"min":[0],"type":"SCALAR"},{"bufferView":28,"componentType":5126,"count":52,"max":[0.024335255846381187,-0.5856989622116089,2.7496178150177],"min":[-0.02255675010383129,-0.7357929348945618,2.6716599464416504],"type":"VEC3"},{"bufferView":29,"componentType":5126,"count":52,"type":"VEC3"},{"bufferView":30,"componentType":5126,"count":52,"type":"VEC4"},{"bufferView":31,"componentType":5126,"count":52,"max":[0.5559177994728088,0.6197242736816406],"min":[0.5335248708724976,0.5441294014453888],"type":"VEC2"},{"bufferView":32,"componentType":5121,"count":60,"max":[21],"min":[0],"type":"SCALAR"},{"bufferView":33,"componentType":5126,"count":22,"max":[0.6443172693252563,0.5894339680671692,1.763474941253662],"min":[0.630439281463623,0.2754609286785126,1.0246049165725708],"type":"VEC3"},{"bufferView":34,"componentType":5126,"count":22,"type":"VEC3"},{"bufferView":35,"componentType":5126,"count":22,"type":"VEC4"},{"bufferView":36,"componentType":5126,"count":22,"max":[0,1],"min":[0,1],"type":"VEC2"},{"bufferView":37,"componentType":5121,"count":6,"max":[3],"min":[0],"type":"SCALAR"},{"bufferView":38,"componentType":5126,"count":4,"max":[1.1975291967391968,0.8898968696594238,1.6451529264450073],"min":[1.046951174736023,0.8851698637008667,1.494499921798706],"type":"VEC3"},{"bufferView":39,"componentType":5126,"count":4,"type":"VEC3"},{"bufferView":40,"componentType":5126,"count":4,"type":"VEC4"},{"bufferView":41,"componentType":5126,"count":4,"max":[0,1],"min":[0,1],"type":"VEC2"},{"bufferView":42,"componentType":5121,"count":192,"max":[107],"min":[0],"type":"SCALAR"},{"bufferView":43,"componentType":5126,"count":108,"max":[2.5431020259857178,0.8552868366241455,0.9161179661750793],"min":[0.6495983004570007,0.7034289240837097,0.39073309302330017],"type":"VEC3"},{"bufferView":44,"componentType":5126,"count":108,"type":"VEC3"},{"bufferView":45,"componentType":5126,"count":108,"type":"VEC4"},{"bufferView":46,"componentType":5126,"count":108,"max":[0.9946863651275635,0.6971371173858643],"min":[0.8165193796157837,0.3051518201828003],"type":"VEC2"},{"bufferView":47,"componentType":5121,"count":1218,"max":[247],"min":[0],"type":"SCALAR"},{"bufferView":48,"componentType":5126,"count":248,"max":[-1.1940746307373047,-0.574134886264801,1.5447138547897339],"min":[-1.430648684501648,-0.9155078530311584,0.7145679593086243],"type":"VEC3"},{"bufferView":49,"componentType":5126,"count":248,"type":"VEC3"},{"bufferView":50,"componentType":5126,"count":248,"type":"VEC4"},{"bufferView":51,"componentType":5126,"count":248,"max":[0.5634448528289795,0.8793481960892677],"min":[0.4418984651565552,0.8323060125112534],"type":"VEC2"},{"bufferView":52,"componentType":5121,"count":147,"max":[47],"min":[0],"type":"SCALAR"},{"bufferView":53,"componentType":5126,"count":48,"max":[-0.5464656352996826,0.7875720262527466,2.2328569889068604],"min":[-0.6366016268730164,0.2700200378894806,0.15527497231960297],"type":"VEC3"},{"bufferView":54,"componentType":5126,"count":48,"type":"VEC3"},{"bufferView":55,"componentType":5126,"count":48,"type":"VEC4"},{"bufferView":56,"componentType":5126,"count":48,"max":[0.9845097661018372,0.45688438415527344],"min":[0.19822894036769867,0.003906548023223877],"type":"VEC2"},{"bufferView":57,"componentType":5123,"count":1632,"max":[1119],"min":[0],"type":"SCALAR"},{"bufferView":58,"componentType":5126,"count":1120,"max":[5.465888023376465,0.9036772847175598,1.6683158874511719],"min":[-5.465888023376465,0.8807276487350464,1.634416937828064],"type":"VEC3"},{"bufferView":59,"componentType":5126,"count":1120,"type":"VEC3"},{"bufferView":60,"componentType":5126,"count":1120,"type":"VEC4"},{"bufferView":61,"componentType":5126,"count":1120,"max":[0,1],"min":[0,1],"type":"VEC2"},{"bufferView":62,"componentType":5121,"count":132,"max":[43],"min":[0],"type":"SCALAR"},{"bufferView":63,"componentType":5126,"count":44,"max":[-0.6276126503944397,0.601173996925354,1.7749929428100586],"min":[-0.641490638256073,0.26374202966690063,1.0131958723068237],"type":"VEC3"},{"bufferView":64,"componentType":5126,"count":44,"type":"VEC3"},{"bufferView":65,"componentType":5126,"count":44,"type":"VEC4"},{"bufferView":66,"componentType":5126,"count":44,"max":[0.2476464956998825,0.7358974516391754],"min":[0.18287955224514008,0.677931934595108],"type":"VEC2"},{"bufferView":67,"componentType":5123,"count":2625,"max":[830],"min":[0],"type":"SCALAR"},{"bufferView":68,"componentType":5126,"count":831,"max":[1.8193652629852295,0.44467905163764954,-2.8600738048553467],"min":[-1.8165395259857178,0.3889448940753937,-3.6136910915374756],"type":"VEC3"},{"bufferView":69,"componentType":5126,"count":831,"type":"VEC3"},{"bufferView":70,"componentType":5126,"count":831,"type":"VEC4"},{"bufferView":71,"componentType":5126,"count":831,"max":[0.7308810353279114,0.5117513537406921],"min":[0.5598258972167969,0.35286861658096313],"type":"VEC2"},{"bufferView":72,"componentType":5121,"count":51,"max":[14],"min":[0],"type":"SCALAR"},{"bufferView":73,"componentType":5126,"count":15,"max":[0.3722222149372101,-0.4934839904308319,3.025585889816284],"min":[0.12263425439596176,-0.5586619973182678,2.741558790206909],"type":"VEC3"},{"bufferView":74,"componentType":5126,"count":15,"type":"VEC3"},{"bufferView":75,"componentType":5126,"count":15,"type":"VEC4"},{"bufferView":76,"componentType":5126,"count":15,"max":[0.09875930100679398,0.8337159603834152],"min":[0.07499545067548752,0.7910955101251602],"type":"VEC2"},{"bufferView":77,"componentType":5123,"count":3420,"max":[707],"min":[0],"type":"SCALAR"},{"bufferView":78,"componentType":5126,"count":708,"max":[5.266112804412842,0.9671856164932251,1.0267308950424194],"min":[2.5418570041656494,0.7783818244934082,0.39073309302330017],"type":"VEC3"},{"bufferView":79,"componentType":5126,"count":708,"type":"VEC3"},{"bufferView":80,"componentType":5126,"count":708,"type":"VEC4"},{"bufferView":81,"componentType":5126,"count":708,"max":[0.9853744506835938,0.9748232904821634],"min":[0.00738369207829237,0.026703178882598877],"type":"VEC2"},{"bufferView":82,"componentType":5121,"count":36,"max":[15],"min":[0],"type":"SCALAR"},{"bufferView":83,"componentType":5126,"count":16,"max":[3.9035232067108154,0.9108927249908447,1.9391999244689941],"min":[3.6591620445251465,0.8246347904205322,1.8734819889068604],"type":"VEC3"},{"bufferView":84,"componentType":5126,"count":16,"type":"VEC3"},{"bufferView":85,"componentType":5126,"count":16,"type":"VEC4"},{"bufferView":86,"componentType":5126,"count":16,"max":[0.8680639863014221,0.8369430005550385],"min":[0.7321280241012573,0.16342097520828247],"type":"VEC2"},{"bufferView":87,"componentType":5121,"count":147,"max":[47],"min":[0],"type":"SCALAR"},{"bufferView":88,"componentType":5126,"count":48,"max":[0.6394282579421997,0.7875719666481018,2.2328569889068604],"min":[0.549292266368866,0.2700199484825134,0.15527497231960297],"type":"VEC3"},{"bufferView":89,"componentType":5126,"count":48,"type":"VEC3"},{"bufferView":90,"componentType":5126,"count":48,"type":"VEC4"},{"bufferView":91,"componentType":5126,"count":48,"max":[0.978991687297821,0.9991936087608337],"min":[0.18344902992248535,0.5426249802112579],"type":"VEC2"},{"bufferView":92,"componentType":5121,"count":339,"max":[90],"min":[0],"type":"SCALAR"},{"bufferView":93,"componentType":5126,"count":91,"max":[0.07706132531166077,1.0226408243179321,3.8839919567108154],"min":[-0.07410767674446106,0.15316098928451538,3.7930588722229004],"type":"VEC3"},{"bufferView":94,"componentType":5126,"count":91,"type":"VEC3"},{"bufferView":95,"componentType":5126,"count":91,"type":"VEC4"},{"bufferView":96,"componentType":5126,"count":91,"max":[0.13691195845603943,0.5414981842041016],"min":[0.013801977969706059,0.44725513458251953],"type":"VEC2"},{"bufferView":97,"componentType":5121,"count":60,"max":[55],"min":[0],"type":"SCALAR"},{"bufferView":98,"componentType":5126,"count":56,"max":[-0.6276126503944397,0.5894349813461304,1.763474941253662],"min":[-0.641490638256073,0.27546101808547974,1.0246049165725708],"type":"VEC3"},{"bufferView":99,"componentType":5126,"count":56,"type":"VEC3"},{"bufferView":100,"componentType":5126,"count":56,"type":"VEC4"},{"bufferView":101,"componentType":5126,"count":56,"max":[0.98435378074646,0.4067343473434448],"min":[0.029199570417404175,0.004132747650146484],"type":"VEC2"},{"bufferView":102,"componentType":5121,"count":6,"max":[3],"min":[0],"type":"SCALAR"},{"bufferView":103,"componentType":5126,"count":4,"max":[-1.0257065296173096,0.890612006187439,1.6451529264450073],"min":[-1.1762335300445557,0.8844559788703918,1.494499921798706],"type":"VEC3"},{"bufferView":104,"componentType":5126,"count":4,"type":"VEC3"},{"bufferView":105,"componentType":5126,"count":4,"type":"VEC4"},{"bufferView":106,"componentType":5126,"count":4,"max":[0,1],"min":[0,1],"type":"VEC2"},{"bufferView":107,"componentType":5121,"count":174,"max":[45],"min":[0],"type":"SCALAR"},{"bufferView":108,"componentType":5126,"count":46,"max":[0.5855442881584167,0.2998059391975403,0.372562974691391],"min":[0.4785292446613312,-0.28120800852775574,-0.07551705092191696],"type":"VEC3"},{"bufferView":109,"componentType":5126,"count":46,"type":"VEC3"},{"bufferView":110,"componentType":5126,"count":46,"type":"VEC4"},{"bufferView":111,"componentType":5126,"count":46,"max":[0.34188011288642883,0.4098047614097595],"min":[0.3032210171222687,0.3105640411376953],"type":"VEC2"},{"bufferView":112,"componentType":5121,"count":360,"max":[247],"min":[0],"type":"SCALAR"},{"bufferView":113,"componentType":5126,"count":248,"max":[-5.434884071350098,0.9167622923851013,1.7003579139709473],"min":[-5.454116344451904,0.8776912689208984,1.6814699172973633],"type":"VEC3"},{"bufferView":114,"componentType":5126,"count":248,"type":"VEC3"},{"bufferView":115,"componentType":5126,"count":248,"type":"VEC4"},{"bufferView":116,"componentType":5126,"count":248,"max":[0,1],"min":[0,1],"type":"VEC2"},{"bufferView":117,"componentType":5123,"count":768,"max":[324],"min":[0],"type":"SCALAR"},{"bufferView":118,"componentType":5126,"count":325,"max":[0.021351248025894165,-0.7130969166755676,2.7003519535064697],"min":[-0.019572749733924866,-0.7483749389648438,2.564344882965088],"type":"VEC3"},{"bufferView":119,"componentType":5126,"count":325,"type":"VEC3"},{"bufferView":120,"componentType":5126,"count":325,"type":"VEC4"},{"bufferView":121,"componentType":5126,"count":325,"max":[0.5304089188575745,0.6021459996700287],"min":[0.44614285230636597,0.5584463477134705],"type":"VEC2"},{"bufferView":122,"componentType":5121,"count":60,"max":[55],"min":[0],"type":"SCALAR"},{"bufferView":123,"componentType":5126,"count":56,"max":[0.6443172693252563,0.5894339680671692,1.763474941253662],"min":[0.630439281463623,0.2754609286785126,1.0246049165725708],"type":"VEC3"},{"bufferView":124,"componentType":5126,"count":56,"type":"VEC3"},{"bufferView":125,"componentType":5126,"count":56,"type":"VEC4"},{"bufferView":126,"componentType":5126,"count":56,"max":[1,1],"min":[0,0.5852693617343903],"type":"VEC2"},{"bufferView":127,"componentType":5123,"count":1764,"max":[411],"min":[0],"type":"SCALAR"},{"bufferView":128,"componentType":5126,"count":412,"max":[0.6410152912139893,0.8202940225601196,2.5383877754211426],"min":[-0.6380816698074341,0.26706793904304504,-0.29873189330101013],"type":"VEC3"},{"bufferView":129,"componentType":5126,"count":412,"type":"VEC3"},{"bufferView":130,"componentType":5126,"count":412,"type":"VEC4"},{"bufferView":131,"componentType":5126,"count":412,"max":[1,1],"min":[0,0],"type":"VEC2"},{"bufferView":132,"componentType":5121,"count":60,"max":[21],"min":[0],"type":"SCALAR"},{"bufferView":133,"componentType":5126,"count":22,"max":[-0.6276126503944397,0.5894349813461304,1.763474941253662],"min":[-0.641490638256073,0.27546101808547974,1.0246049165725708],"type":"VEC3"},{"bufferView":134,"componentType":5126,"count":22,"type":"VEC3"},{"bufferView":135,"componentType":5126,"count":22,"type":"VEC4"},{"bufferView":136,"componentType":5126,"count":22,"max":[0,1],"min":[0,1],"type":"VEC2"},{"bufferView":137,"componentType":5123,"count":4800,"max":[897],"min":[0],"type":"SCALAR"},{"bufferView":138,"componentType":5126,"count":898,"max":[1.391430139541626,-0.610058069229126,1.3964859247207642],"min":[1.227386236190796,-1.0555260181427002,0.9578819870948792],"type":"VEC3"},{"bufferView":139,"componentType":5126,"count":898,"type":"VEC3"},{"bufferView":140,"componentType":5126,"count":898,"type":"VEC4"},{"bufferView":141,"componentType":5126,"count":898,"max":[0.4245235025882721,0.5483416616916656],"min":[0.37366360425949097,0.4466569423675537],"type":"VEC2"},{"bufferView":142,"componentType":5121,"count":144,"max":[79],"min":[0],"type":"SCALAR"},{"bufferView":143,"componentType":5126,"count":80,"max":[0.644329309463501,0.21889396011829376,1.2685989141464233],"min":[0.6363292932510376,0.19024795293807983,1.134766936302185],"type":"VEC3"},{"bufferView":144,"componentType":5126,"count":80,"type":"VEC3"},{"bufferView":145,"componentType":5126,"count":80,"type":"VEC4"},{"bufferView":146,"componentType":5126,"count":80,"max":[0.23099581897258759,0.71929070353508],"min":[0.19767175614833832,0.6916961073875427],"type":"VEC2"},{"bufferView":147,"componentType":5123,"count":2928,"max":[893],"min":[0],"type":"SCALAR"},{"bufferView":148,"componentType":5126,"count":894,"max":[0.10586823523044586,-0.7078249454498291,2.8384668827056885],"min":[-0.10409075766801834,-1.041394829750061,2.682424783706665],"type":"VEC3"},{"bufferView":149,"componentType":5126,"count":894,"type":"VEC3"},{"bufferView":150,"componentType":5126,"count":894,"type":"VEC4"},{"bufferView":151,"componentType":5126,"count":894,"max":[0.5534629821777344,0.4244834780693054],"min":[0.4812904894351959,0.3818185329437256],"type":"VEC2"},{"bufferView":152,"componentType":5123,"count":1344,"max":[703],"min":[0],"type":"SCALAR"},{"bufferView":153,"componentType":5126,"count":704,"max":[1.004798173904419,1.0214738845825195,3.8884239196777344],"min":[-1.0041486024856567,-0.9859519600868225,3.751689910888672],"type":"VEC3"},{"bufferView":154,"componentType":5126,"count":704,"type":"VEC3"},{"bufferView":155,"componentType":5126,"count":704,"type":"VEC4"},{"bufferView":156,"componentType":5126,"count":704,"max":[1.0009353160858154,1.0018707513809204],"min":[0.016996517777442932,-0.0018707513809204102],"type":"VEC2"},{"bufferView":157,"componentType":5123,"count":840,"max":[333],"min":[0],"type":"SCALAR"},{"bufferView":158,"componentType":5126,"count":334,"max":[0.03716425225138664,-0.4758029580116272,2.73687481880188],"min":[-0.03538574278354645,-0.6747639179229736,2.637204885482788],"type":"VEC3"},{"bufferView":159,"componentType":5126,"count":334,"type":"VEC3"},{"bufferView":160,"componentType":5126,"count":334,"type":"VEC4"},{"bufferView":161,"componentType":5126,"count":334,"max":[0.5002303719520569,0.5633022487163544],"min":[0.4445301592350006,0.5208130776882172],"type":"VEC2"},{"bufferView":162,"componentType":5121,"count":132,"max":[43],"min":[0],"type":"SCALAR"},{"bufferView":163,"componentType":5126,"count":44,"max":[0.6443172693252563,0.6011739373207092,1.7749929428100586],"min":[0.630439281463623,0.2637409269809723,1.0131958723068237],"type":"VEC3"},{"bufferView":164,"componentType":5126,"count":44,"type":"VEC3"},{"bufferView":165,"componentType":5126,"count":44,"type":"VEC4"},{"bufferView":166,"componentType":5126,"count":44,"max":[0.24813397228717804,0.3163943886756897],"min":[0.18373477458953857,0.2587745785713196],"type":"VEC2"},{"bufferView":167,"componentType":5121,"count":858,"max":[232],"min":[0],"type":"SCALAR"},{"bufferView":168,"componentType":5126,"count":233,"max":[-0.397003710269928,-0.43953394889831543,1.2556558847427368],"min":[-1.2332667112350464,-0.887752890586853,0.9573670029640198],"type":"VEC3"},{"bufferView":169,"componentType":5126,"count":233,"type":"VEC3"},{"bufferView":170,"componentType":5126,"count":233,"type":"VEC4"},{"bufferView":171,"componentType":5126,"count":233,"max":[0.6028186082839966,0.14134162664413452],"min":[0.4446413815021515,0.01377171277999878],"type":"VEC2"},{"bufferView":172,"componentType":5121,"count":498,"max":[177],"min":[0],"type":"SCALAR"},{"bufferView":173,"componentType":5126,"count":178,"max":[0.017642252147197723,-0.6561879515647888,2.6769089698791504],"min":[-0.015863748267292976,-0.7385649681091309,2.564689874649048],"type":"VEC3"},{"bufferView":174,"componentType":5126,"count":178,"type":"VEC3"},{"bufferView":175,"componentType":5126,"count":178,"type":"VEC4"},{"bufferView":176,"componentType":5126,"count":178,"max":[0.5303929448127747,0.5218524932861328],"min":[0.44426387548446655,0.3954474925994873],"type":"VEC2"},{"bufferView":177,"componentType":5123,"count":3420,"max":[707],"min":[0],"type":"SCALAR"},{"bufferView":178,"componentType":5126,"count":708,"max":[-2.5390233993530273,0.9671792387962341,1.0267318487167358],"min":[-5.263278961181641,0.7783741354942322,0.3907340466976166],"type":"VEC3"},{"bufferView":179,"componentType":5126,"count":708,"type":"VEC3"},{"bufferView":180,"componentType":5126,"count":708,"type":"VEC4"},{"bufferView":181,"componentType":5126,"count":708,"max":[0.984734296798706,0.9766946770250797],"min":[0.005956530570983887,0.02656310796737671],"type":"VEC2"},{"bufferView":182,"componentType":5123,"count":1404,"max":[688],"min":[0],"type":"SCALAR"},{"bufferView":183,"componentType":5126,"count":689,"max":[0.9937752485275269,1.0214738845825195,3.8884239196777344],"min":[-0.993126630783081,-0.7760329842567444,3.7615609169006348],"type":"VEC3"},{"bufferView":184,"componentType":5126,"count":689,"type":"VEC3"},{"bufferView":185,"componentType":5126,"count":689,"type":"VEC4"},{"bufferView":186,"componentType":5126,"count":689,"max":[1.0039217472076416,0.9002472460269928],"min":[0.02652004361152649,-0.008411407470703125],"type":"VEC2"},{"bufferView":187,"componentType":5123,"count":1440,"max":[256],"min":[0],"type":"SCALAR"},{"bufferView":188,"componentType":5126,"count":257,"max":[0.18451228737831116,0.21052098274230957,4.250377655029297],"min":[-0.18393969535827637,-0.16742198169231415,3.7710447311401367],"type":"VEC3"},{"bufferView":189,"componentType":5126,"count":257,"type":"VEC3"},{"bufferView":190,"componentType":5126,"count":257,"type":"VEC4"},{"bufferView":191,"componentType":5126,"count":257,"max":[0.169301837682724,0.16210311651229858],"min":[0.13264057040214539,0.08663123846054077],"type":"VEC2"},{"bufferView":192,"componentType":5123,"count":33813,"max":[8463],"min":[0],"type":"SCALAR"},{"bufferView":193,"componentType":5126,"count":8464,"max":[5.457165718078613,2.0333306789398193,3.7836527824401855],"min":[-5.454339027404785,-0.645397961139679,-3.842740774154663],"type":"VEC3"},{"bufferView":194,"componentType":5126,"count":8464,"type":"VEC3"},{"bufferView":195,"componentType":5126,"count":8464,"type":"VEC4"},{"bufferView":196,"componentType":5126,"count":8464,"max":[0.9322437644004822,0.9964557439088821],"min":[0.010461105965077877,0.003948032855987549],"type":"VEC2"},{"bufferView":197,"componentType":5121,"count":438,"max":[149],"min":[0],"type":"SCALAR"},{"bufferView":198,"componentType":5126,"count":150,"max":[-0.5745707154273987,0.6285840272903442,1.905830979347229],"min":[-0.646557629108429,-0.4362659454345703,0.9689570069313049],"type":"VEC3"},{"bufferView":199,"componentType":5126,"count":150,"type":"VEC3"},{"bufferView":200,"componentType":5126,"count":150,"type":"VEC4"},{"bufferView":201,"componentType":5126,"count":150,"max":[0.25175711512565613,0.7408847510814667],"min":[0.171481192111969,0.5572877824306488],"type":"VEC2"},{"bufferView":202,"componentType":5121,"count":339,"max":[90],"min":[0],"type":"SCALAR"},{"bufferView":203,"componentType":5126,"count":91,"max":[-0.09825970977544785,-0.01721099019050598,3.8741979598999023],"min":[-0.8844216465950012,-0.4985429048538208,3.7769899368286133],"type":"VEC3"},{"bufferView":204,"componentType":5126,"count":91,"type":"VEC3"},{"bufferView":205,"componentType":5126,"count":91,"type":"VEC4"},{"bufferView":206,"componentType":5126,"count":91,"max":[0.1369115561246872,0.5416086912155151],"min":[0.013582523912191391,0.44718480110168457],"type":"VEC2"},{"bufferView":207,"componentType":5121,"count":192,"max":[107],"min":[0],"type":"SCALAR"},{"bufferView":208,"componentType":5126,"count":108,"max":[-0.6467645764350891,0.8552801012992859,0.9138169884681702],"min":[-2.540269374847412,0.7034220099449158,0.3907340466976166],"type":"VEC3"},{"bufferView":209,"componentType":5126,"count":108,"type":"VEC3"},{"bufferView":210,"componentType":5126,"count":108,"type":"VEC4"},{"bufferView":211,"componentType":5126,"count":108,"max":[0.9946765303611755,0.696392297744751],"min":[0.8165207505226135,0.30504655838012695],"type":"VEC2"},{"bufferView":212,"componentType":5121,"count":51,"max":[14],"min":[0],"type":"SCALAR"},{"bufferView":213,"componentType":5126,"count":15,"max":[-0.11980872601270676,-0.49348393082618713,3.025585889816284],"min":[-0.3693957030773163,-0.558661937713623,2.741558790206909],"type":"VEC3"},{"bufferView":214,"componentType":5126,"count":15,"type":"VEC3"},{"bufferView":215,"componentType":5126,"count":15,"type":"VEC4"},{"bufferView":216,"componentType":5126,"count":15,"max":[0.0985112339258194,0.9178178235888481],"min":[0.07498668134212494,0.875740572810173],"type":"VEC2"},{"bufferView":217,"componentType":5121,"count":1218,"max":[247],"min":[0],"type":"SCALAR"},{"bufferView":218,"componentType":5126,"count":248,"max":[1.4390480518341064,-0.5745800733566284,1.5447138547897339],"min":[1.2024742364883423,-0.9159520268440247,0.7145679593086243],"type":"VEC3"},{"bufferView":219,"componentType":5126,"count":248,"type":"VEC3"},{"bufferView":220,"componentType":5126,"count":248,"type":"VEC4"},{"bufferView":221,"componentType":5126,"count":248,"max":[0.5634448528289795,0.9290624037384987],"min":[0.4424014389514923,0.8820243626832962],"type":"VEC2"},{"bufferView":222,"componentType":5121,"count":1218,"max":[249],"min":[0],"type":"SCALAR"},{"bufferView":223,"componentType":5126,"count":250,"max":[0.15519222617149353,-0.7632229328155518,3.126528739929199],"min":[-0.15310576558113098,-1.1045958995819092,2.2963829040527344],"type":"VEC3"},{"bufferView":224,"componentType":5126,"count":250,"type":"VEC3"},{"bufferView":225,"componentType":5126,"count":250,"type":"VEC4"},{"bufferView":226,"componentType":5126,"count":250,"max":[0.5635722279548645,0.9809558596462011],"min":[0.44551774859428406,0.9313739240169525],"type":"VEC2"},{"bufferView":227,"componentType":5121,"count":438,"max":[157],"min":[0],"type":"SCALAR"},{"bufferView":228,"componentType":5126,"count":158,"max":[0.6493842601776123,0.6285839676856995,1.905830979347229],"min":[0.5773972272872925,-0.4362660050392151,0.9689570069313049],"type":"VEC3"},{"bufferView":229,"componentType":5126,"count":158,"type":"VEC3"},{"bufferView":230,"componentType":5126,"count":158,"type":"VEC4"},{"bufferView":231,"componentType":5126,"count":158,"max":[0.252026230096817,0.4365960359573364],"min":[0.17222371697425842,0.2537224292755127],"type":"VEC2"},{"bufferView":232,"componentType":5123,"count":720,"max":[495],"min":[0],"type":"SCALAR"},{"bufferView":233,"componentType":5126,"count":496,"max":[0.02424531988799572,0.48954397439956665,-3.595789670944214],"min":[-0.009384678676724434,0.45894595980644226,-3.610852003097534],"type":"VEC3"},{"bufferView":234,"componentType":5126,"count":496,"type":"VEC3"},{"bufferView":235,"componentType":5126,"count":496,"type":"VEC4"},{"bufferView":236,"componentType":5126,"count":496,"max":[0,1],"min":[0,1],"type":"VEC2"},{"bufferView":237,"componentType":5121,"count":339,"max":[90],"min":[0],"type":"SCALAR"},{"bufferView":238,"componentType":5126,"count":91,"max":[0.8725142478942871,-0.014131007716059685,3.873635768890381],"min":[0.10506227612495422,-0.5093370079994202,3.7802047729492188],"type":"VEC3"},{"bufferView":239,"componentType":5126,"count":91,"type":"VEC3"},{"bufferView":240,"componentType":5126,"count":91,"type":"VEC4"},{"bufferView":241,"componentType":5126,"count":91,"max":[0.13691195845603943,0.5418539643287659],"min":[0.013607845641672611,0.44731324911117554],"type":"VEC2"},{"bufferView":242,"componentType":5123,"count":4800,"max":[897],"min":[0],"type":"SCALAR"},{"bufferView":243,"componentType":5126,"count":898,"max":[-1.2293426990509033,-0.6105068922042847,1.3960418701171875],"min":[-1.3838176727294922,-1.05507493019104,0.9583249688148499],"type":"VEC3"},{"bufferView":244,"componentType":5126,"count":898,"type":"VEC3"},{"bufferView":245,"componentType":5126,"count":898,"type":"VEC4"},{"bufferView":246,"componentType":5126,"count":898,"max":[0.36934584379196167,0.5468923449516296],"min":[0.31848594546318054,0.4452076554298401],"type":"VEC2"},{"bufferView":247,"componentType":5121,"count":60,"max":[29],"min":[0],"type":"SCALAR"},{"bufferView":248,"componentType":5126,"count":30,"max":[-0.513339638710022,0.4353480041027069,-3.223304033279419],"min":[-1.3877936601638794,0.4190210700035095,-3.5550730228424072],"type":"VEC3"},{"bufferView":249,"componentType":5126,"count":30,"type":"VEC3"},{"bufferView":250,"componentType":5126,"count":30,"type":"VEC4"},{"bufferView":251,"componentType":5126,"count":30,"max":[0.7109726071357727,0.4558969736099243],"min":[0.5803170800209045,0.34127628803253174],"type":"VEC2"},{"bufferView":252,"componentType":5123,"count":1470,"max":[292],"min":[0],"type":"SCALAR"},{"bufferView":253,"componentType":5126,"count":293,"max":[0.6148692965507507,0.8198130130767822,2.534003973007202],"min":[-0.6120415925979614,0.3560939431190491,-0.29265889525413513],"type":"VEC3"},{"bufferView":254,"componentType":5126,"count":293,"type":"VEC3"},{"bufferView":255,"componentType":5126,"count":293,"type":"VEC4"},{"bufferView":256,"componentType":5126,"count":293,"max":[1.415970802307129,1.0000072717666626],"min":[0.013243675231933594,0.011352002620697021],"type":"VEC2"},{"bufferView":257,"componentType":5121,"count":858,"max":[235],"min":[0],"type":"SCALAR"},{"bufferView":258,"componentType":5126,"count":236,"max":[1.236093282699585,-0.4395340085029602,1.2556558847427368],"min":[0.3998302221298218,-0.8877530097961426,0.9573670029640198],"type":"VEC3"},{"bufferView":259,"componentType":5126,"count":236,"type":"VEC3"},{"bufferView":260,"componentType":5126,"count":236,"type":"VEC4"},{"bufferView":261,"componentType":5126,"count":236,"max":[0.6027660369873047,0.1413416862487793],"min":[0.32835426926612854,0.01377171277999878],"type":"VEC2"},{"bufferView":262,"componentType":5123,"count":3552,"max":[1074],"min":[0],"type":"SCALAR"},{"bufferView":263,"componentType":5126,"count":1075,"max":[0.046166323125362396,2.0333306789398193,-3.060389757156372],"min":[-0.04645167291164398,0.5209709405899048,-4.250377655029297],"type":"VEC3"},{"bufferView":264,"componentType":5126,"count":1075,"type":"VEC3"},{"bufferView":265,"componentType":5126,"count":1075,"type":"VEC4"},{"bufferView":266,"componentType":5126,"count":1075,"max":[0.7124937772750854,0.9817332029342651],"min":[0.5979102849960327,0.013344824314117432],"type":"VEC2"},{"bufferView":267,"componentType":5123,"count":1440,"max":[256],"min":[0],"type":"SCALAR"},{"bufferView":268,"componentType":5126,"count":257,"max":[0.18451228737831116,0.21052098274230957,4.250377655029297],"min":[-0.18393969535827637,-0.16742198169231415,3.7710447311401367],"type":"VEC3"},{"bufferView":269,"componentType":5126,"count":257,"type":"VEC3"},{"bufferView":270,"componentType":5126,"count":257,"type":"VEC4"},{"bufferView":271,"componentType":5126,"count":257,"max":[0.169301837682724,0.1602274775505066],"min":[0.13264057040214539,0.084755539894104],"type":"VEC2"},{"bufferView":272,"componentType":5121,"count":102,"max":[65],"min":[0],"type":"SCALAR"},{"bufferView":273,"componentType":5126,"count":66,"max":[-0.6335026621818542,0.21889403462409973,1.2685998678207397],"min":[-0.6415026783943176,0.1902480274438858,1.1347678899765015],"type":"VEC3"},{"bufferView":274,"componentType":5126,"count":66,"type":"VEC3"},{"bufferView":275,"componentType":5126,"count":66,"type":"VEC4"},{"bufferView":276,"componentType":5126,"count":66,"max":[0.29532957077026367,0.7175717949867249],"min":[0.26212653517723083,0.690756231546402],"type":"VEC2"},{"bufferView":277,"componentType":5126,"count":5193,"type":"VEC3","min":[-0.5362626504898071,-0.0614598095417023,-4.249945640563965],"max":[0.4596872351853333,2.0333306789398193,-1.02]},{"bufferView":278,"componentType":5126,"count":5193,"type":"VEC3"},{"bufferView":279,"componentType":5126,"count":423,"type":"VEC3","min":[-0.06362719499345788,0.8941964506410599,-3.7159601291697317],"max":[0.06203623823274114,1.4803265517633255,-3.129830028047466]},{"bufferView":280,"componentType":5126,"count":423,"type":"VEC3"},{"bufferView":281,"componentType":5126,"count":423,"type":"VEC2"}],"asset":{"generator":"Khronos Blender glTF 2.0 exporter","version":"2.0","copyright":"FlightGear model authors / FlightAirMap contributors; GPL-2.0. See source/flightairmap/c182/ for license and editable sources."},"bufferViews":[{"buffer":0,"byteLength":3913106,"byteOffset":0},{"buffer":0,"byteLength":254209,"byteOffset":3913106},{"buffer":0,"byteLength":63,"byteOffset":4167315,"target":34963},{"buffer":0,"byteLength":348,"byteOffset":4167380,"target":34962},{"buffer":0,"byteLength":348,"byteOffset":4167728,"target":34962},{"buffer":0,"byteLength":464,"byteOffset":4168076,"target":34962},{"buffer":0,"byteLength":232,"byteOffset":4168540,"target":34962},{"buffer":0,"byteLength":624,"byteOffset":4168772,"target":34963},{"buffer":0,"byteLength":1548,"byteOffset":4169396,"target":34962},{"buffer":0,"byteLength":1548,"byteOffset":4170944,"target":34962},{"buffer":0,"byteLength":2064,"byteOffset":4172492,"target":34962},{"buffer":0,"byteLength":1032,"byteOffset":4174556,"target":34962},{"buffer":0,"byteLength":9600,"byteOffset":4175588,"target":34963},{"buffer":0,"byteLength":10776,"byteOffset":4185188,"target":34962},{"buffer":0,"byteLength":10776,"byteOffset":4195964,"target":34962},{"buffer":0,"byteLength":14368,"byteOffset":4206740,"target":34962},{"buffer":0,"byteLength":7184,"byteOffset":4221108,"target":34962},{"buffer":0,"byteLength":63,"byteOffset":4228292,"target":34963},{"buffer":0,"byteLength":348,"byteOffset":4228356,"target":34962},{"buffer":0,"byteLength":348,"byteOffset":4228704,"target":34962},{"buffer":0,"byteLength":464,"byteOffset":4229052,"target":34962},{"buffer":0,"byteLength":232,"byteOffset":4229516,"target":34962},{"buffer":0,"byteLength":360,"byteOffset":4229748,"target":34963},{"buffer":0,"byteLength":2976,"byteOffset":4230108,"target":34962},{"buffer":0,"byteLength":2976,"byteOffset":4233084,"target":34962},{"buffer":0,"byteLength":3968,"byteOffset":4236060,"target":34962},{"buffer":0,"byteLength":1984,"byteOffset":4240028,"target":34962},{"buffer":0,"byteLength":144,"byteOffset":4242012,"target":34963},{"buffer":0,"byteLength":624,"byteOffset":4242156,"target":34962},{"buffer":0,"byteLength":624,"byteOffset":4242780,"target":34962},{"buffer":0,"byteLength":832,"byteOffset":4243404,"target":34962},{"buffer":0,"byteLength":416,"byteOffset":4244236,"target":34962},{"buffer":0,"byteLength":60,"byteOffset":4244652,"target":34963},{"buffer":0,"byteLength":264,"byteOffset":4244712,"target":34962},{"buffer":0,"byteLength":264,"byteOffset":4244976,"target":34962},{"buffer":0,"byteLength":352,"byteOffset":4245240,"target":34962},{"buffer":0,"byteLength":176,"byteOffset":4245592,"target":34962},{"buffer":0,"byteLength":6,"byteOffset":4245768,"target":34963},{"buffer":0,"byteLength":48,"byteOffset":4245776,"target":34962},{"buffer":0,"byteLength":48,"byteOffset":4245824,"target":34962},{"buffer":0,"byteLength":64,"byteOffset":4245872,"target":34962},{"buffer":0,"byteLength":32,"byteOffset":4245936,"target":34962},{"buffer":0,"byteLength":192,"byteOffset":4245968,"target":34963},{"buffer":0,"byteLength":1296,"byteOffset":4246160,"target":34962},{"buffer":0,"byteLength":1296,"byteOffset":4247456,"target":34962},{"buffer":0,"byteLength":1728,"byteOffset":4248752,"target":34962},{"buffer":0,"byteLength":864,"byteOffset":4250480,"target":34962},{"buffer":0,"byteLength":1218,"byteOffset":4251344,"target":34963},{"buffer":0,"byteLength":2976,"byteOffset":4252564,"target":34962},{"buffer":0,"byteLength":2976,"byteOffset":4255540,"target":34962},{"buffer":0,"byteLength":3968,"byteOffset":4258516,"target":34962},{"buffer":0,"byteLength":1984,"byteOffset":4262484,"target":34962},{"buffer":0,"byteLength":147,"byteOffset":4264468,"target":34963},{"buffer":0,"byteLength":576,"byteOffset":4264616,"target":34962},{"buffer":0,"byteLength":576,"byteOffset":4265192,"target":34962},{"buffer":0,"byteLength":768,"byteOffset":4265768,"target":34962},{"buffer":0,"byteLength":384,"byteOffset":4266536,"target":34962},{"buffer":0,"byteLength":3264,"byteOffset":4266920,"target":34963},{"buffer":0,"byteLength":13440,"byteOffset":4270184,"target":34962},{"buffer":0,"byteLength":13440,"byteOffset":4283624,"target":34962},{"buffer":0,"byteLength":17920,"byteOffset":4297064,"target":34962},{"buffer":0,"byteLength":8960,"byteOffset":4314984,"target":34962},{"buffer":0,"byteLength":132,"byteOffset":4323944,"target":34963},{"buffer":0,"byteLength":528,"byteOffset":4324076,"target":34962},{"buffer":0,"byteLength":528,"byteOffset":4324604,"target":34962},{"buffer":0,"byteLength":704,"byteOffset":4325132,"target":34962},{"buffer":0,"byteLength":352,"byteOffset":4325836,"target":34962},{"buffer":0,"byteLength":5250,"byteOffset":4326188,"target":34963},{"buffer":0,"byteLength":9972,"byteOffset":4331440,"target":34962},{"buffer":0,"byteLength":9972,"byteOffset":4341412,"target":34962},{"buffer":0,"byteLength":13296,"byteOffset":4351384,"target":34962},{"buffer":0,"byteLength":6648,"byteOffset":4364680,"target":34962},{"buffer":0,"byteLength":51,"byteOffset":4371328,"target":34963},{"buffer":0,"byteLength":180,"byteOffset":4371380,"target":34962},{"buffer":0,"byteLength":180,"byteOffset":4371560,"target":34962},{"buffer":0,"byteLength":240,"byteOffset":4371740,"target":34962},{"buffer":0,"byteLength":120,"byteOffset":4371980,"target":34962},{"buffer":0,"byteLength":6840,"byteOffset":4372100,"target":34963},{"buffer":0,"byteLength":8496,"byteOffset":4378940,"target":34962},{"buffer":0,"byteLength":8496,"byteOffset":4387436,"target":34962},{"buffer":0,"byteLength":11328,"byteOffset":4395932,"target":34962},{"buffer":0,"byteLength":5664,"byteOffset":4407260,"target":34962},{"buffer":0,"byteLength":36,"byteOffset":4412924,"target":34963},{"buffer":0,"byteLength":192,"byteOffset":4412960,"target":34962},{"buffer":0,"byteLength":192,"byteOffset":4413152,"target":34962},{"buffer":0,"byteLength":256,"byteOffset":4413344,"target":34962},{"buffer":0,"byteLength":128,"byteOffset":4413600,"target":34962},{"buffer":0,"byteLength":147,"byteOffset":4413728,"target":34963},{"buffer":0,"byteLength":576,"byteOffset":4413876,"target":34962},{"buffer":0,"byteLength":576,"byteOffset":4414452,"target":34962},{"buffer":0,"byteLength":768,"byteOffset":4415028,"target":34962},{"buffer":0,"byteLength":384,"byteOffset":4415796,"target":34962},{"buffer":0,"byteLength":339,"byteOffset":4416180,"target":34963},{"buffer":0,"byteLength":1092,"byteOffset":4416520,"target":34962},{"buffer":0,"byteLength":1092,"byteOffset":4417612,"target":34962},{"buffer":0,"byteLength":1456,"byteOffset":4418704,"target":34962},{"buffer":0,"byteLength":728,"byteOffset":4420160,"target":34962},{"buffer":0,"byteLength":60,"byteOffset":4420888,"target":34963},{"buffer":0,"byteLength":672,"byteOffset":4420948,"target":34962},{"buffer":0,"byteLength":672,"byteOffset":4421620,"target":34962},{"buffer":0,"byteLength":896,"byteOffset":4422292,"target":34962},{"buffer":0,"byteLength":448,"byteOffset":4423188,"target":34962},{"buffer":0,"byteLength":6,"byteOffset":4423636,"target":34963},{"buffer":0,"byteLength":48,"byteOffset":4423644,"target":34962},{"buffer":0,"byteLength":48,"byteOffset":4423692,"target":34962},{"buffer":0,"byteLength":64,"byteOffset":4423740,"target":34962},{"buffer":0,"byteLength":32,"byteOffset":4423804,"target":34962},{"buffer":0,"byteLength":174,"byteOffset":4423836,"target":34963},{"buffer":0,"byteLength":552,"byteOffset":4424012,"target":34962},{"buffer":0,"byteLength":552,"byteOffset":4424564,"target":34962},{"buffer":0,"byteLength":736,"byteOffset":4425116,"target":34962},{"buffer":0,"byteLength":368,"byteOffset":4425852,"target":34962},{"buffer":0,"byteLength":360,"byteOffset":4426220,"target":34963},{"buffer":0,"byteLength":2976,"byteOffset":4426580,"target":34962},{"buffer":0,"byteLength":2976,"byteOffset":4429556,"target":34962},{"buffer":0,"byteLength":3968,"byteOffset":4432532,"target":34962},{"buffer":0,"byteLength":1984,"byteOffset":4436500,"target":34962},{"buffer":0,"byteLength":1536,"byteOffset":4438484,"target":34963},{"buffer":0,"byteLength":3900,"byteOffset":4440020,"target":34962},{"buffer":0,"byteLength":3900,"byteOffset":4443920,"target":34962},{"buffer":0,"byteLength":5200,"byteOffset":4447820,"target":34962},{"buffer":0,"byteLength":2600,"byteOffset":4453020,"target":34962},{"buffer":0,"byteLength":60,"byteOffset":4455620,"target":34963},{"buffer":0,"byteLength":672,"byteOffset":4455680,"target":34962},{"buffer":0,"byteLength":672,"byteOffset":4456352,"target":34962},{"buffer":0,"byteLength":896,"byteOffset":4457024,"target":34962},{"buffer":0,"byteLength":448,"byteOffset":4457920,"target":34962},{"buffer":0,"byteLength":3528,"byteOffset":4458368,"target":34963},{"buffer":0,"byteLength":4944,"byteOffset":4461896,"target":34962},{"buffer":0,"byteLength":4944,"byteOffset":4466840,"target":34962},{"buffer":0,"byteLength":6592,"byteOffset":4471784,"target":34962},{"buffer":0,"byteLength":3296,"byteOffset":4478376,"target":34962},{"buffer":0,"byteLength":60,"byteOffset":4481672,"target":34963},{"buffer":0,"byteLength":264,"byteOffset":4481732,"target":34962},{"buffer":0,"byteLength":264,"byteOffset":4481996,"target":34962},{"buffer":0,"byteLength":352,"byteOffset":4482260,"target":34962},{"buffer":0,"byteLength":176,"byteOffset":4482612,"target":34962},{"buffer":0,"byteLength":9600,"byteOffset":4482788,"target":34963},{"buffer":0,"byteLength":10776,"byteOffset":4492388,"target":34962},{"buffer":0,"byteLength":10776,"byteOffset":4503164,"target":34962},{"buffer":0,"byteLength":14368,"byteOffset":4513940,"target":34962},{"buffer":0,"byteLength":7184,"byteOffset":4528308,"target":34962},{"buffer":0,"byteLength":144,"byteOffset":4535492,"target":34963},{"buffer":0,"byteLength":960,"byteOffset":4535636,"target":34962},{"buffer":0,"byteLength":960,"byteOffset":4536596,"target":34962},{"buffer":0,"byteLength":1280,"byteOffset":4537556,"target":34962},{"buffer":0,"byteLength":640,"byteOffset":4538836,"target":34962},{"buffer":0,"byteLength":5856,"byteOffset":4539476,"target":34963},{"buffer":0,"byteLength":10728,"byteOffset":4545332,"target":34962},{"buffer":0,"byteLength":10728,"byteOffset":4556060,"target":34962},{"buffer":0,"byteLength":14304,"byteOffset":4566788,"target":34962},{"buffer":0,"byteLength":7152,"byteOffset":4581092,"target":34962},{"buffer":0,"byteLength":2688,"byteOffset":4588244,"target":34963},{"buffer":0,"byteLength":8448,"byteOffset":4590932,"target":34962},{"buffer":0,"byteLength":8448,"byteOffset":4599380,"target":34962},{"buffer":0,"byteLength":11264,"byteOffset":4607828,"target":34962},{"buffer":0,"byteLength":5632,"byteOffset":4619092,"target":34962},{"buffer":0,"byteLength":1680,"byteOffset":4624724,"target":34963},{"buffer":0,"byteLength":4008,"byteOffset":4626404,"target":34962},{"buffer":0,"byteLength":4008,"byteOffset":4630412,"target":34962},{"buffer":0,"byteLength":5344,"byteOffset":4634420,"target":34962},{"buffer":0,"byteLength":2672,"byteOffset":4639764,"target":34962},{"buffer":0,"byteLength":132,"byteOffset":4642436,"target":34963},{"buffer":0,"byteLength":528,"byteOffset":4642568,"target":34962},{"buffer":0,"byteLength":528,"byteOffset":4643096,"target":34962},{"buffer":0,"byteLength":704,"byteOffset":4643624,"target":34962},{"buffer":0,"byteLength":352,"byteOffset":4644328,"target":34962},{"buffer":0,"byteLength":858,"byteOffset":4644680,"target":34963},{"buffer":0,"byteLength":2796,"byteOffset":4645540,"target":34962},{"buffer":0,"byteLength":2796,"byteOffset":4648336,"target":34962},{"buffer":0,"byteLength":3728,"byteOffset":4651132,"target":34962},{"buffer":0,"byteLength":1864,"byteOffset":4654860,"target":34962},{"buffer":0,"byteLength":498,"byteOffset":4656724,"target":34963},{"buffer":0,"byteLength":2136,"byteOffset":4657224,"target":34962},{"buffer":0,"byteLength":2136,"byteOffset":4659360,"target":34962},{"buffer":0,"byteLength":2848,"byteOffset":4661496,"target":34962},{"buffer":0,"byteLength":1424,"byteOffset":4664344,"target":34962},{"buffer":0,"byteLength":6840,"byteOffset":4665768,"target":34963},{"buffer":0,"byteLength":8496,"byteOffset":4672608,"target":34962},{"buffer":0,"byteLength":8496,"byteOffset":4681104,"target":34962},{"buffer":0,"byteLength":11328,"byteOffset":4689600,"target":34962},{"buffer":0,"byteLength":5664,"byteOffset":4700928,"target":34962},{"buffer":0,"byteLength":2808,"byteOffset":4706592,"target":34963},{"buffer":0,"byteLength":8268,"byteOffset":4709400,"target":34962},{"buffer":0,"byteLength":8268,"byteOffset":4717668,"target":34962},{"buffer":0,"byteLength":11024,"byteOffset":4725936,"target":34962},{"buffer":0,"byteLength":5512,"byteOffset":4736960,"target":34962},{"buffer":0,"byteLength":2880,"byteOffset":4742472,"target":34963},{"buffer":0,"byteLength":3084,"byteOffset":4745352,"target":34962},{"buffer":0,"byteLength":3084,"byteOffset":4748436,"target":34962},{"buffer":0,"byteLength":4112,"byteOffset":4751520,"target":34962},{"buffer":0,"byteLength":2056,"byteOffset":4755632,"target":34962},{"buffer":0,"byteLength":67626,"byteOffset":4757688,"target":34963},{"buffer":0,"byteLength":101568,"byteOffset":4825316,"target":34962},{"buffer":0,"byteLength":101568,"byteOffset":4926884,"target":34962},{"buffer":0,"byteLength":135424,"byteOffset":5028452,"target":34962},{"buffer":0,"byteLength":67712,"byteOffset":5163876,"target":34962},{"buffer":0,"byteLength":438,"byteOffset":5231588,"target":34963},{"buffer":0,"byteLength":1800,"byteOffset":5232028,"target":34962},{"buffer":0,"byteLength":1800,"byteOffset":5233828,"target":34962},{"buffer":0,"byteLength":2400,"byteOffset":5235628,"target":34962},{"buffer":0,"byteLength":1200,"byteOffset":5238028,"target":34962},{"buffer":0,"byteLength":339,"byteOffset":5239228,"target":34963},{"buffer":0,"byteLength":1092,"byteOffset":5239568,"target":34962},{"buffer":0,"byteLength":1092,"byteOffset":5240660,"target":34962},{"buffer":0,"byteLength":1456,"byteOffset":5241752,"target":34962},{"buffer":0,"byteLength":728,"byteOffset":5243208,"target":34962},{"buffer":0,"byteLength":192,"byteOffset":5243936,"target":34963},{"buffer":0,"byteLength":1296,"byteOffset":5244128,"target":34962},{"buffer":0,"byteLength":1296,"byteOffset":5245424,"target":34962},{"buffer":0,"byteLength":1728,"byteOffset":5246720,"target":34962},{"buffer":0,"byteLength":864,"byteOffset":5248448,"target":34962},{"buffer":0,"byteLength":51,"byteOffset":5249312,"target":34963},{"buffer":0,"byteLength":180,"byteOffset":5249364,"target":34962},{"buffer":0,"byteLength":180,"byteOffset":5249544,"target":34962},{"buffer":0,"byteLength":240,"byteOffset":5249724,"target":34962},{"buffer":0,"byteLength":120,"byteOffset":5249964,"target":34962},{"buffer":0,"byteLength":1218,"byteOffset":5250084,"target":34963},{"buffer":0,"byteLength":2976,"byteOffset":5251304,"target":34962},{"buffer":0,"byteLength":2976,"byteOffset":5254280,"target":34962},{"buffer":0,"byteLength":3968,"byteOffset":5257256,"target":34962},{"buffer":0,"byteLength":1984,"byteOffset":5261224,"target":34962},{"buffer":0,"byteLength":1218,"byteOffset":5263208,"target":34963},{"buffer":0,"byteLength":3000,"byteOffset":5264428,"target":34962},{"buffer":0,"byteLength":3000,"byteOffset":5267428,"target":34962},{"buffer":0,"byteLength":4000,"byteOffset":5270428,"target":34962},{"buffer":0,"byteLength":2000,"byteOffset":5274428,"target":34962},{"buffer":0,"byteLength":438,"byteOffset":5276428,"target":34963},{"buffer":0,"byteLength":1896,"byteOffset":5276868,"target":34962},{"buffer":0,"byteLength":1896,"byteOffset":5278764,"target":34962},{"buffer":0,"byteLength":2528,"byteOffset":5280660,"target":34962},{"buffer":0,"byteLength":1264,"byteOffset":5283188,"target":34962},{"buffer":0,"byteLength":1440,"byteOffset":5284452,"target":34963},{"buffer":0,"byteLength":5952,"byteOffset":5285892,"target":34962},{"buffer":0,"byteLength":5952,"byteOffset":5291844,"target":34962},{"buffer":0,"byteLength":7936,"byteOffset":5297796,"target":34962},{"buffer":0,"byteLength":3968,"byteOffset":5305732,"target":34962},{"buffer":0,"byteLength":339,"byteOffset":5309700,"target":34963},{"buffer":0,"byteLength":1092,"byteOffset":5310040,"target":34962},{"buffer":0,"byteLength":1092,"byteOffset":5311132,"target":34962},{"buffer":0,"byteLength":1456,"byteOffset":5312224,"target":34962},{"buffer":0,"byteLength":728,"byteOffset":5313680,"target":34962},{"buffer":0,"byteLength":9600,"byteOffset":5314408,"target":34963},{"buffer":0,"byteLength":10776,"byteOffset":5324008,"target":34962},{"buffer":0,"byteLength":10776,"byteOffset":5334784,"target":34962},{"buffer":0,"byteLength":14368,"byteOffset":5345560,"target":34962},{"buffer":0,"byteLength":7184,"byteOffset":5359928,"target":34962},{"buffer":0,"byteLength":60,"byteOffset":5367112,"target":34963},{"buffer":0,"byteLength":360,"byteOffset":5367172,"target":34962},{"buffer":0,"byteLength":360,"byteOffset":5367532,"target":34962},{"buffer":0,"byteLength":480,"byteOffset":5367892,"target":34962},{"buffer":0,"byteLength":240,"byteOffset":5368372,"target":34962},{"buffer":0,"byteLength":2940,"byteOffset":5368612,"target":34963},{"buffer":0,"byteLength":3516,"byteOffset":5371552,"target":34962},{"buffer":0,"byteLength":3516,"byteOffset":5375068,"target":34962},{"buffer":0,"byteLength":4688,"byteOffset":5378584,"target":34962},{"buffer":0,"byteLength":2344,"byteOffset":5383272,"target":34962},{"buffer":0,"byteLength":858,"byteOffset":5385616,"target":34963},{"buffer":0,"byteLength":2832,"byteOffset":5386476,"target":34962},{"buffer":0,"byteLength":2832,"byteOffset":5389308,"target":34962},{"buffer":0,"byteLength":3776,"byteOffset":5392140,"target":34962},{"buffer":0,"byteLength":1888,"byteOffset":5395916,"target":34962},{"buffer":0,"byteLength":7104,"byteOffset":5397804,"target":34963},{"buffer":0,"byteLength":12900,"byteOffset":5404908,"target":34962},{"buffer":0,"byteLength":12900,"byteOffset":5417808,"target":34962},{"buffer":0,"byteLength":17200,"byteOffset":5430708,"target":34962},{"buffer":0,"byteLength":8600,"byteOffset":5447908,"target":34962},{"buffer":0,"byteLength":2880,"byteOffset":5456508,"target":34963},{"buffer":0,"byteLength":3084,"byteOffset":5459388,"target":34962},{"buffer":0,"byteLength":3084,"byteOffset":5462472,"target":34962},{"buffer":0,"byteLength":4112,"byteOffset":5465556,"target":34962},{"buffer":0,"byteLength":2056,"byteOffset":5469668,"target":34962},{"buffer":0,"byteLength":102,"byteOffset":5471724,"target":34963},{"buffer":0,"byteLength":792,"byteOffset":5471828,"target":34962},{"buffer":0,"byteLength":792,"byteOffset":5472620,"target":34962},{"buffer":0,"byteLength":1056,"byteOffset":5473412,"target":34962},{"buffer":0,"byteLength":528,"byteOffset":5474468,"target":34962},{"buffer":1,"byteOffset":0,"byteLength":62316,"target":34962},{"buffer":1,"byteOffset":62316,"byteLength":62316,"target":34962},{"buffer":1,"byteOffset":124632,"byteLength":5076,"target":34962},{"buffer":1,"byteOffset":129708,"byteLength":5076,"target":34962},{"buffer":1,"byteOffset":134784,"byteLength":3384,"target":34962}],"buffers":[{"byteLength":5474996,"extras":{},"uri":"../c182-v1-0.bin"},{"uri":"c182-tail-v1.bin?tail=2","byteLength":138168}],"images":[{"bufferView":0,"mimeType":"image/png","name":"Default.png","extras":{}},{"bufferView":1,"mimeType":"image/png","name":"PropBlur.png","extras":{}},{"uri":"../../../airlines/WZZ.png"}],"materials":[{"alphaMode":"BLEND","name":"Blade","pbrMetallicRoughness":{"baseColorTexture":{"index":0},"metallicFactor":0}},{"alphaMode":"BLEND","name":"Cristal","pbrMetallicRoughness":{"baseColorFactor":[0.6399999856948853,0.6399999856948853,0.6399999856948853,0.699999988079071],"metallicFactor":0}},{"alphaMode":"BLEND","name":"cs","pbrMetallicRoughness":{"metallicFactor":0}},{"alphaMode":"BLEND","name":"FastProp","pbrMetallicRoughness":{"baseColorFactor":[1,1,1,0.07500000298023224],"baseColorTexture":{"index":1},"metallicFactor":0}},{"alphaMode":"BLEND","name":"Fuselage","pbrMetallicRoughness":{"baseColorTexture":{"index":0},"metallicFactor":0}},{"alphaMode":"BLEND","name":"NavLightGreen","pbrMetallicRoughness":{"baseColorFactor":[0,0.4000000059604645,0.5,0.8999999761581421],"metallicFactor":0}},{"alphaMode":"BLEND","name":"NavLightRed","pbrMetallicRoughness":{"baseColorFactor":[0.5,0,0,0.8999999761581421],"metallicFactor":0}},{"alphaMode":"BLEND","name":"Windows","pbrMetallicRoughness":{"baseColorFactor":[0.699999988079071,0.699999988079071,0.699999988079071,0.5],"metallicFactor":0}},{"alphaMode":"BLEND","name":"Windows.Int","pbrMetallicRoughness":{"baseColorFactor":[1,1,1,0.05000000074505806],"metallicFactor":0}},{"name":"Operator tail paint","doubleSided":true,"pbrMetallicRoughness":{"baseColorFactor":[0.7725490196078432,0.09803921568627451,0.4823529411764706,1],"metallicFactor":0,"roughnessFactor":0.65}},{"name":"Operator logo identification","doubleSided":true,"alphaMode":"MASK","alphaCutoff":0.08,"pbrMetallicRoughness":{"baseColorTexture":{"index":2},"metallicFactor":0,"roughnessFactor":0.7},"emissiveFactor":[0.18,0.18,0.18],"emissiveTexture":{"index":2}}],"meshes":[{"name":"Mesh.010","primitives":[{"attributes":{"NORMAL":2,"POSITION":1,"TANGENT":3,"TEXCOORD_0":4},"indices":0,"material":4}]},{"name":"Mesh.023","primitives":[{"attributes":{"NORMAL":7,"POSITION":6,"TANGENT":8,"TEXCOORD_0":9},"indices":5,"material":4}]},{"name":"Plane.004","primitives":[{"attributes":{"NORMAL":12,"POSITION":11,"TANGENT":13,"TEXCOORD_0":14},"indices":10,"material":4}]},{"name":"Mesh.807","primitives":[{"attributes":{"NORMAL":17,"POSITION":16,"TANGENT":18,"TEXCOORD_0":19},"indices":15,"material":4}]},{"name":"Mesh.011","primitives":[{"attributes":{"NORMAL":22,"POSITION":21,"TANGENT":23,"TEXCOORD_0":24},"indices":20,"material":6}]},{"name":"Mesh.027","primitives":[{"attributes":{"NORMAL":27,"POSITION":26,"TANGENT":28,"TEXCOORD_0":29},"indices":25,"material":4}]},{"name":"Mesh.101","primitives":[{"attributes":{"NORMAL":32,"POSITION":31,"TANGENT":33,"TEXCOORD_0":34},"indices":30,"material":7}]},{"name":"Plane.007","primitives":[{"attributes":{"NORMAL":37,"POSITION":36,"TANGENT":38,"TEXCOORD_0":39},"indices":35,"material":2}]},{"name":"Mesh.036","primitives":[{"attributes":{"NORMAL":42,"POSITION":41,"TANGENT":43,"TEXCOORD_0":44},"indices":40,"material":4}]},{"name":"Mesh.099","primitives":[{"attributes":{"NORMAL":47,"POSITION":46,"TANGENT":48,"TEXCOORD_0":49},"indices":45,"material":4}]},{"name":"Mesh.560","primitives":[{"attributes":{"NORMAL":52,"POSITION":51,"TANGENT":53,"TEXCOORD_0":54},"indices":50,"material":8}]},{"name":"Mesh.014","primitives":[{"attributes":{"NORMAL":57,"POSITION":56,"TANGENT":58,"TEXCOORD_0":59},"indices":55,"material":1}]},{"name":"Mesh.104","primitives":[{"attributes":{"NORMAL":62,"POSITION":61,"TANGENT":63,"TEXCOORD_0":64},"indices":60,"material":4}]},{"name":"Mesh.032","primitives":[{"attributes":{"NORMAL":67,"POSITION":66,"TANGENT":68,"TEXCOORD_0":69},"indices":65,"material":4}]},{"name":"Mesh.024","primitives":[{"attributes":{"NORMAL":72,"POSITION":71,"TANGENT":73,"TEXCOORD_0":74},"indices":70,"material":4}]},{"name":"Mesh.001","primitives":[{"attributes":{"NORMAL":77,"POSITION":76,"TANGENT":78,"TEXCOORD_0":79},"indices":75,"material":4}]},{"name":"Mesh.028","primitives":[{"attributes":{"NORMAL":82,"POSITION":81,"TANGENT":83,"TEXCOORD_0":84},"indices":80,"material":7}]},{"name":"Mesh.007","primitives":[{"attributes":{"NORMAL":87,"POSITION":86,"TANGENT":88,"TEXCOORD_0":89},"indices":85,"material":8}]},{"name":"Mesh.120","primitives":[{"attributes":{"NORMAL":92,"POSITION":91,"TANGENT":93,"TEXCOORD_0":94},"indices":90,"material":0}]},{"name":"Mesh.561","primitives":[{"attributes":{"NORMAL":97,"POSITION":96,"TANGENT":98,"TEXCOORD_0":99},"indices":95,"material":8}]},{"name":"Plane.020","primitives":[{"attributes":{"NORMAL":102,"POSITION":101,"TANGENT":103,"TEXCOORD_0":104},"indices":100,"material":2}]},{"name":"Mesh.004","primitives":[{"attributes":{"NORMAL":107,"POSITION":106,"TANGENT":108,"TEXCOORD_0":109},"indices":105,"material":4}]},{"name":"Mesh.015","primitives":[{"attributes":{"NORMAL":112,"POSITION":111,"TANGENT":113,"TEXCOORD_0":114},"indices":110,"material":5}]},{"name":"Mesh.095","primitives":[{"attributes":{"NORMAL":117,"POSITION":116,"TANGENT":118,"TEXCOORD_0":119},"indices":115,"material":4}]},{"name":"Mesh.562","primitives":[{"attributes":{"NORMAL":122,"POSITION":121,"TANGENT":123,"TEXCOORD_0":124},"indices":120,"material":8}]},{"name":"Mesh.105","primitives":[{"attributes":{"NORMAL":127,"POSITION":126,"TANGENT":128,"TEXCOORD_0":129},"indices":125,"material":7}]},{"name":"Mesh.102","primitives":[{"attributes":{"NORMAL":132,"POSITION":131,"TANGENT":133,"TEXCOORD_0":134},"indices":130,"material":7}]},{"name":"Plane.003","primitives":[{"attributes":{"NORMAL":137,"POSITION":136,"TANGENT":138,"TEXCOORD_0":139},"indices":135,"material":4}]},{"name":"Mesh.832","primitives":[{"attributes":{"NORMAL":142,"POSITION":141,"TANGENT":143,"TEXCOORD_0":144},"indices":140,"material":4}]},{"name":"Mesh.072","primitives":[{"attributes":{"NORMAL":147,"POSITION":146,"TANGENT":148,"TEXCOORD_0":149},"indices":145,"material":4}]},{"name":"Plane.013","primitives":[{"attributes":{"NORMAL":152,"POSITION":151,"TANGENT":153,"TEXCOORD_0":154},"indices":150,"material":3}]},{"name":"Mesh.093","primitives":[{"attributes":{"NORMAL":157,"POSITION":156,"TANGENT":158,"TEXCOORD_0":159},"indices":155,"material":4}]},{"name":"Mesh.103","primitives":[{"attributes":{"NORMAL":162,"POSITION":161,"TANGENT":163,"TEXCOORD_0":164},"indices":160,"material":4}]},{"name":"Mesh.068","primitives":[{"attributes":{"NORMAL":167,"POSITION":166,"TANGENT":168,"TEXCOORD_0":169},"indices":165,"material":4}]},{"name":"Mesh.094","primitives":[{"attributes":{"NORMAL":172,"POSITION":171,"TANGENT":173,"TEXCOORD_0":174},"indices":170,"material":4}]},{"name":"Mesh.003","primitives":[{"attributes":{"NORMAL":177,"POSITION":176,"TANGENT":178,"TEXCOORD_0":179},"indices":175,"material":4}]},{"name":"Plane.014","primitives":[{"attributes":{"NORMAL":182,"POSITION":181,"TANGENT":183,"TEXCOORD_0":184},"indices":180,"material":3}]},{"name":"cone-propeller","primitives":[{"attributes":{"NORMAL":187,"POSITION":186,"TANGENT":188,"TEXCOORD_0":189},"indices":185,"material":4}]},{"name":"Mesh.042","primitives":[{"attributes":{"NORMAL":192,"POSITION":191,"TANGENT":193,"TEXCOORD_0":194},"indices":190,"material":4}]},{"name":"Mesh.831","primitives":[{"attributes":{"NORMAL":197,"POSITION":196,"TANGENT":198,"TEXCOORD_0":199},"indices":195,"material":4}]},{"name":"Mesh.189","primitives":[{"attributes":{"NORMAL":202,"POSITION":201,"TANGENT":203,"TEXCOORD_0":204},"indices":200,"material":0}]},{"name":"Mesh.037","primitives":[{"attributes":{"NORMAL":207,"POSITION":206,"TANGENT":208,"TEXCOORD_0":209},"indices":205,"material":4}]},{"name":"Mesh.025","primitives":[{"attributes":{"NORMAL":212,"POSITION":211,"TANGENT":213,"TEXCOORD_0":214},"indices":210,"material":4}]},{"name":"Mesh.098","primitives":[{"attributes":{"NORMAL":217,"POSITION":216,"TANGENT":218,"TEXCOORD_0":219},"indices":215,"material":4}]},{"name":"Mesh.100","primitives":[{"attributes":{"NORMAL":222,"POSITION":221,"TANGENT":223,"TEXCOORD_0":224},"indices":220,"material":4}]},{"name":"Mesh.830","primitives":[{"attributes":{"NORMAL":227,"POSITION":226,"TANGENT":228,"TEXCOORD_0":229},"indices":225,"material":4}]},{"name":"Mesh.066","primitives":[{"attributes":{"NORMAL":232,"POSITION":231,"TANGENT":233,"TEXCOORD_0":234},"indices":230,"material":1}]},{"name":"Mesh.188","primitives":[{"attributes":{"NORMAL":237,"POSITION":236,"TANGENT":238,"TEXCOORD_0":239},"indices":235,"material":0}]},{"name":"Plane.005","primitives":[{"attributes":{"NORMAL":242,"POSITION":241,"TANGENT":243,"TEXCOORD_0":244},"indices":240,"material":4}]},{"name":"Mesh.033","primitives":[{"attributes":{"NORMAL":247,"POSITION":246,"TANGENT":248,"TEXCOORD_0":249},"indices":245,"material":4}]},{"name":"Mesh.859","primitives":[{"attributes":{"NORMAL":252,"POSITION":251,"TANGENT":253,"TEXCOORD_0":254},"indices":250,"material":8}]},{"name":"Mesh.067","primitives":[{"attributes":{"NORMAL":257,"POSITION":256,"TANGENT":258,"TEXCOORD_0":259},"indices":255,"material":4}]},{"name":"Mesh.079","primitives":[{"attributes":{"NORMAL":262,"POSITION":261,"TANGENT":263,"TEXCOORD_0":264},"indices":260,"material":4}]},{"name":"cone-propeller.001","primitives":[{"attributes":{"NORMAL":267,"POSITION":266,"TANGENT":268,"TEXCOORD_0":269},"indices":265,"material":4}]},{"name":"Mesh.833","primitives":[{"attributes":{"NORMAL":272,"POSITION":271,"TANGENT":273,"TEXCOORD_0":274},"indices":270,"material":4}]},{"name":"Airline tail surface overlay","primitives":[{"attributes":{"POSITION":275,"NORMAL":276},"material":9},{"attributes":{"POSITION":277,"NORMAL":278,"TEXCOORD_0":279},"material":10}]}],"nodes":[{"mesh":15,"name":"Aileron.L"},{"mesh":35,"name":"Aileron.R"},{"mesh":21,"name":"BaggageDoor"},{"mesh":18,"name":"Blade1"},{"mesh":47,"name":"Blade2"},{"mesh":40,"name":"Blade3"},{"mesh":53,"name":"chrome_spinner"},{"mesh":14,"name":"CowlFlap.L"},{"mesh":0,"name":"CowlFlap.L.Int"},{"mesh":42,"name":"CowlFlap.R"},{"mesh":3,"name":"CowlFlap.R.Int"},{"mesh":5,"name":"Damp"},{"mesh":45,"name":"Door.L"},{"mesh":39,"name":"Door.R"},{"mesh":28,"name":"DoorHandle.L"},{"mesh":54,"name":"DoorHandle.R"},{"mesh":13,"name":"Elevator"},{"mesh":49,"name":"ElevatorTrim"},{"mesh":30,"name":"FastProp"},{"mesh":8,"name":"Flap.L"},{"mesh":41,"name":"Flap.R"},{"mesh":2,"name":"FrontWheel"},{"children":[0,1,2,3,4,5,6,7,8,9,10,11,12,13,14,15,16,17,19,20,21,23,27,28,29,30,36,38,41,46,47,48,53,54],"name":"Fuselage"},{"mesh":38,"name":"Fuselage.001"},{"name":"Fuselage.005"},{"mesh":7,"name":"LeftTank.cs"},{"mesh":16,"name":"llglas"},{"mesh":51,"name":"MainStrut.L"},{"mesh":33,"name":"MainStrut.R"},{"mesh":27,"name":"MainWheel.L"},{"mesh":48,"name":"MainWheel.R"},{"mesh":1,"name":"Navlight"},{"mesh":4,"name":"NavLight.L"},{"mesh":22,"name":"NavLight.R"},{"name":"NavLightRed.001"},{"mesh":46,"name":"NavlightTransp"},{"mesh":29,"name":"NoseWheelFork"},{"mesh":20,"name":"RightTank.cs"},{"mesh":52,"name":"Rudder"},{"mesh":36,"name":"SlowProp"},{"name":"SlowProp.001"},{"mesh":37,"name":"Spinner"},{"mesh":11,"name":"Strobe"},{"mesh":31,"name":"TrenDEL_01_TrenDEL_01"},{"mesh":34,"name":"TrenDEL_04_TrenDEL_04"},{"mesh":23,"name":"TrenDEL_05_TrenDEL_05"},{"mesh":43,"name":"WheelFairing.L"},{"mesh":9,"name":"WheelFairing.R"},{"mesh":44,"name":"WheelFairingNose"},{"mesh":6,"name":"Window.L"},{"mesh":24,"name":"Window.L.001"},{"mesh":26,"name":"Window.R"},{"mesh":19,"name":"Window.R.001"},{"mesh":32,"name":"WindowFrame.L"},{"mesh":12,"name":"WindowFrame.R"},{"mesh":25,"name":"Windscreen"},{"mesh":50,"name":"Windscreen.Int"},{"name":"Windscreen.Int.002"},{"mesh":17,"name":"Windscreen.Side.Left"},{"mesh":10,"name":"Windscreen.Side.Right"},{"name":"SkywardCoordinateAlignment","matrix":[1,0,0,0,0,1,0,0,0,0,1,0,0,0,0,1],"children":[26,59,58,57,56,55,52,51,50,49,45,44,43,42,40,39,37,35,31,34,33,32,25,24,22,18]},{"name":"AirlineTailBranding","mesh":55}],"samplers":[{},{"magFilter":9729,"minFilter":9987,"wrapS":33071,"wrapT":33071}],"scene":0,"scenes":[{"name":"Scene","nodes":[60,61]}],"textures":[{"sampler":0,"source":0},{"sampler":0,"source":1},{"source":2,"sampler":1}],"extras":{"skyward":{"source":"https://github.com/Ysurac/FlightAirMap-3dmodels","commit":"0906d9ba1bdd906ce45807e45ed706c09912db19","changes":"Converted legacy glTF to glTF 2.0 with Cesium; rigid axis alignment, horizontal centering, and source transforms baked into positions/normals for correct Cesium bounds. Original shape, materials and paint retained. Added surface-following operator tail paint and unmodified identification-logo texture. Branding is illustrative, not a registration-specific livery.","license":"GPL-2.0","sourceFiles":["source/flightairmap/c182/LICENSE","source/flightairmap/c182/c182.blend"],"operator":"WZZ"}}}