{"accessors":[{"bufferView":2,"componentType":5123,"count":1320,"max":[321],"min":[0],"type":"SCALAR"},{"bufferView":3,"componentType":5126,"count":322,"max":[0.07626983523368835,3.169616937637329,-5.293887615203857],"min":[-0.0762721449136734,0.8188609480857849,-6.297852516174316],"type":"VEC3"},{"bufferView":4,"componentType":5126,"count":322,"type":"VEC3"},{"bufferView":5,"componentType":5126,"count":322,"type":"VEC4"},{"bufferView":6,"componentType":5126,"count":322,"max":[0.8415167927742004,0.2877727746963501],"min":[0.028653297573328018,0.02153712511062622],"type":"VEC2"},{"bufferView":7,"componentType":5121,"count":69,"max":[24],"min":[0],"type":"SCALAR"},{"bufferView":8,"componentType":5126,"count":25,"max":[0.8762142658233643,1.0562149286270142,3.1405375003814697],"min":[0.8562822341918945,0.6641249060630798,2.541966438293457],"type":"VEC3"},{"bufferView":9,"componentType":5126,"count":25,"type":"VEC3"},{"bufferView":10,"componentType":5126,"count":25,"type":"VEC4"},{"bufferView":11,"componentType":5126,"count":25,"max":[1,1],"min":[3.983130056894879e-7,3.5762786865234375e-7],"type":"VEC2"},{"bufferView":12,"componentType":5123,"count":1440,"max":[273],"min":[0],"type":"SCALAR"},{"bufferView":13,"componentType":5126,"count":274,"max":[-7.889596939086914,1.5531638860702515,1.3635048866271973],"min":[-7.927267074584961,1.515597939491272,1.3259389400482178],"type":"VEC3"},{"bufferView":14,"componentType":5126,"count":274,"type":"VEC3"},{"bufferView":15,"componentType":5126,"count":274,"type":"VEC4"},{"bufferView":16,"componentType":5126,"count":274,"max":[1,1],"min":[0,5.960464477539063e-8],"type":"VEC2"},{"bufferView":17,"componentType":5123,"count":1440,"max":[256],"min":[0],"type":"SCALAR"},{"bufferView":18,"componentType":5126,"count":257,"max":[0.2567023038864136,0.7192098498344421,6.297852516174316],"min":[-0.25670361518859863,0.20580290257930756,5.799754619598389],"type":"VEC3"},{"bufferView":19,"componentType":5126,"count":257,"type":"VEC3"},{"bufferView":20,"componentType":5126,"count":257,"type":"VEC4"},{"bufferView":21,"componentType":5126,"count":257,"max":[0.8757048845291138,0.8703353554010391],"min":[0.8211475610733032,0.8157780021429062],"type":"VEC2"},{"bufferView":22,"componentType":5121,"count":72,"max":[42],"min":[0],"type":"SCALAR"},{"bufferView":23,"componentType":5126,"count":43,"max":[5.827741622924805,1.4416499137878418,1.147254467010498],"min":[4.2798614501953125,1.306604027748108,0.921158492565155],"type":"VEC3"},{"bufferView":24,"componentType":5126,"count":43,"type":"VEC3"},{"bufferView":25,"componentType":5126,"count":43,"type":"VEC4"},{"bufferView":26,"componentType":5126,"count":43,"max":[0.1928677260875702,0.4392595887184143],"min":[0.11651149392127991,0.4283870458602905],"type":"VEC2"},{"bufferView":27,"componentType":5123,"count":1440,"max":[273],"min":[0],"type":"SCALAR"},{"bufferView":28,"componentType":5126,"count":274,"max":[7.927267074584961,1.5531638860702515,1.3635039329528809],"min":[7.889596939086914,1.515597939491272,1.3259379863739014],"type":"VEC3"},{"bufferView":29,"componentType":5126,"count":274,"type":"VEC3"},{"bufferView":30,"componentType":5126,"count":274,"type":"VEC4"},{"bufferView":31,"componentType":5126,"count":274,"max":[1,1],"min":[0,5.960464477539063e-8],"type":"VEC2"},{"bufferView":32,"componentType":5123,"count":2592,"max":[477],"min":[0],"type":"SCALAR"},{"bufferView":33,"componentType":5126,"count":478,"max":[-3.6511337757110596,1.4650309085845947,2.6153578758239746],"min":[-4.012427806854248,1.1037368774414062,1.0696098804473877],"type":"VEC3"},{"bufferView":34,"componentType":5126,"count":478,"type":"VEC3"},{"bufferView":35,"componentType":5126,"count":478,"type":"VEC4"},{"bufferView":36,"componentType":5126,"count":478,"max":[0.9855263829231262,0.22297745943069458],"min":[0.8549513220787048,0.16103625297546387],"type":"VEC2"},{"bufferView":37,"componentType":5121,"count":48,"max":[14],"min":[0],"type":"SCALAR"},{"bufferView":38,"componentType":5126,"count":15,"max":[0.8713511228561401,0.46333086490631104,0.07976853102445602],"min":[0.7806670665740967,-0.12173707038164139,-1.1923424005508423],"type":"VEC3"},{"bufferView":39,"componentType":5126,"count":15,"type":"VEC3"},{"bufferView":40,"componentType":5126,"count":15,"type":"VEC4"},{"bufferView":41,"componentType":5126,"count":15,"max":[0.5439000725746155,0.21275222301483154],"min":[0.47040870785713196,0.178952157497406],"type":"VEC2"},{"bufferView":42,"componentType":5123,"count":5760,"max":[1446],"min":[0],"type":"SCALAR"},{"bufferView":43,"componentType":5126,"count":1447,"max":[3.501580238342285,1.199620008468628,2.008087635040283],"min":[-3.501563310623169,-0.17187710106372833,1.5062798261642456],"type":"VEC3"},{"bufferView":44,"componentType":5126,"count":1447,"type":"VEC3"},{"bufferView":45,"componentType":5126,"count":1447,"type":"VEC4"},{"bufferView":46,"componentType":5126,"count":1447,"max":[0.7516728639602661,0.9904046384617686],"min":[0.6690084338188171,0.752817764878273],"type":"VEC2"},{"bufferView":47,"componentType":5123,"count":990,"max":[325],"min":[0],"type":"SCALAR"},{"bufferView":48,"componentType":5126,"count":326,"max":[1.4745025634765625,1.9327688217163086,5.96652889251709],"min":[-1.4306833744049072,-0.8592779636383057,5.864809989929199],"type":"VEC3"},{"bufferView":49,"componentType":5126,"count":326,"type":"VEC3"},{"bufferView":50,"componentType":5126,"count":326,"type":"VEC4"},{"bufferView":51,"componentType":5126,"count":326,"max":[0.8500028252601624,0.4793546795845032],"min":[0.15796907246112823,0.08442831039428711],"type":"VEC2"},{"bufferView":52,"componentType":5121,"count":72,"max":[39],"min":[0],"type":"SCALAR"},{"bufferView":53,"componentType":5126,"count":40,"max":[-4.279862403869629,1.4416500329971313,1.1472549438476562],"min":[-5.827742576599121,1.3066039085388184,0.9211589694023132],"type":"VEC3"},{"bufferView":54,"componentType":5126,"count":40,"type":"VEC3"},{"bufferView":55,"componentType":5126,"count":40,"type":"VEC4"},{"bufferView":56,"componentType":5126,"count":40,"max":[0.6433565020561218,0.4392595887184143],"min":[0.5670002698898315,0.4283870458602905],"type":"VEC2"},{"bufferView":57,"componentType":5123,"count":1920,"max":[392],"min":[0],"type":"SCALAR"},{"bufferView":58,"componentType":5126,"count":393,"max":[-0.4463444948196411,0.14093296229839325,5.4037933349609375],"min":[-0.8724625110626221,-0.3646409809589386,3.9829254150390625],"type":"VEC3"},{"bufferView":59,"componentType":5126,"count":393,"type":"VEC3"},{"bufferView":60,"componentType":5126,"count":393,"type":"VEC4"},{"bufferView":61,"componentType":5126,"count":393,"max":[0.990334153175354,0.8341143727302551],"min":[0.8930612802505493,0.7995027303695679],"type":"VEC2"},{"bufferView":62,"componentType":5121,"count":132,"max":[47],"min":[0],"type":"SCALAR"},{"bufferView":63,"componentType":5126,"count":48,"max":[0.8696222901344299,0.900658905506134,0.0161395613104105],"min":[0.8227983117103577,0.5275619626045227,-1.1403852701187134],"type":"VEC3"},{"bufferView":64,"componentType":5126,"count":48,"type":"VEC3"},{"bufferView":65,"componentType":5126,"count":48,"type":"VEC4"},{"bufferView":66,"componentType":5126,"count":48,"max":[1,1],"min":[0,4.172325134277344e-7],"type":"VEC2"},{"bufferView":67,"componentType":5121,"count":153,"max":[46],"min":[0],"type":"SCALAR"},{"bufferView":68,"componentType":5126,"count":47,"max":[-0.8259654641151428,1.1199588775634766,3.2274577617645264],"min":[-0.8815414905548096,0.04663291946053505,2.4685237407684326],"type":"VEC3"},{"bufferView":69,"componentType":5126,"count":47,"type":"VEC3"},{"bufferView":70,"componentType":5126,"count":47,"type":"VEC4"},{"bufferView":71,"componentType":5126,"count":47,"max":[0.5806558728218079,0.33422333002090454],"min":[0.5368641018867493,0.27229058742523193],"type":"VEC2"},{"bufferView":72,"componentType":5121,"count":642,"max":[150],"min":[0],"type":"SCALAR"},{"bufferView":73,"componentType":5126,"count":151,"max":[7.771148204803467,1.5117127895355225,0.9683831930160522],"min":[5.827114582061768,1.285362958908081,0.4893862009048462],"type":"VEC3"},{"bufferView":74,"componentType":5126,"count":151,"type":"VEC3"},{"bufferView":75,"componentType":5126,"count":151,"type":"VEC4"},{"bufferView":76,"componentType":5126,"count":151,"max":[0.7380096912384033,0.5809725522994995],"min":[0.020868131890892982,0.43820786476135254],"type":"VEC2"},{"bufferView":77,"componentType":5121,"count":36,"max":[35],"min":[0],"type":"SCALAR"},{"bufferView":78,"componentType":5126,"count":36,"max":[1.4596246480941772,1.9512349367141724,5.9753618240356445],"min":[-1.3163282871246338,-0.653287947177887,5.861945629119873],"type":"VEC3"},{"bufferView":79,"componentType":5126,"count":36,"type":"VEC3"},{"bufferView":80,"componentType":5126,"count":36,"type":"VEC4"},{"bufferView":81,"componentType":5126,"count":36,"max":[0.6608777046203613,0.898856520652771],"min":[0.31684109568595886,0.4876311421394348],"type":"VEC2"},{"bufferView":82,"componentType":5121,"count":672,"max":[137],"min":[0],"type":"SCALAR"},{"bufferView":83,"componentType":5126,"count":138,"max":[-4.287786483764648,1.3061589002609253,2.465331792831421],"min":[-4.304812431335449,1.2891329526901245,2.0926058292388916],"type":"VEC3"},{"bufferView":84,"componentType":5126,"count":138,"type":"VEC3"},{"bufferView":85,"componentType":5126,"count":138,"type":"VEC4"},{"bufferView":86,"componentType":5126,"count":138,"max":[0.18051716685295105,0.3702971339225769],"min":[0.006913202814757824,0.3505321145057678],"type":"VEC2"},{"bufferView":87,"componentType":5123,"count":5664,"max":[1148],"min":[0],"type":"SCALAR"},{"bufferView":88,"componentType":5126,"count":1149,"max":[7.887878894805908,1.602109432220459,2.2966225147247314],"min":[-7.887879848480225,0.9912109375,0.28610578179359436],"type":"VEC3"},{"bufferView":89,"componentType":5126,"count":1149,"type":"VEC3"},{"bufferView":90,"componentType":5126,"count":1149,"type":"VEC4"},{"bufferView":91,"componentType":5126,"count":1149,"max":[0.7447407245635986,0.5899136066436768],"min":[0.015515264123678207,0.37191689014434814],"type":"VEC2"},{"bufferView":92,"componentType":5121,"count":300,"max":[82],"min":[0],"type":"SCALAR"},{"bufferView":93,"componentType":5126,"count":83,"max":[-0.9409435987472534,1.4078340530395508,1.0862938165664673],"min":[-5.8277411460876465,1.0046688318252563,0.28873589634895325],"type":"VEC3"},{"bufferView":94,"componentType":5126,"count":83,"type":"VEC3"},{"bufferView":95,"componentType":5126,"count":83,"type":"VEC4"},{"bufferView":96,"componentType":5126,"count":83,"max":[0.642579197883606,0.5975132882595062],"min":[0.11654467135667801,0.4389980435371399],"type":"VEC2"},{"bufferView":97,"componentType":5123,"count":1170,"max":[526],"min":[0],"type":"SCALAR"},{"bufferView":98,"componentType":5126,"count":527,"max":[7.771337985992432,3.1741788387298584,5.799309253692627],"min":[-7.771338939666748,0.2775849997997284,-5.720370292663574],"type":"VEC3"},{"bufferView":99,"componentType":5126,"count":527,"type":"VEC3"},{"bufferView":100,"componentType":5126,"count":527,"type":"VEC4"},{"bufferView":101,"componentType":5126,"count":527,"max":[0.8653483986854553,0.9766365513205528],"min":[0.7751672267913818,0.7592597007751465],"type":"VEC2"},{"bufferView":102,"componentType":5123,"count":1440,"max":[323],"min":[0],"type":"SCALAR"},{"bufferView":103,"componentType":5126,"count":324,"max":[7.8895978927612305,3.1813039779663086,1.370233178138733],"min":[-7.889598846435547,1.5067734718322754,-5.61262845993042],"type":"VEC3"},{"bufferView":104,"componentType":5126,"count":324,"type":"VEC3"},{"bufferView":105,"componentType":5126,"count":324,"type":"VEC4"},{"bufferView":106,"componentType":5126,"count":324,"max":[0.07667768001556396,0.6295373141765594],"min":[0.004565290175378323,0.5831951200962067],"type":"VEC2"},{"bufferView":107,"componentType":5123,"count":6528,"max":[1309],"min":[0],"type":"SCALAR"},{"bufferView":108,"componentType":5126,"count":1310,"max":[4.865631103515625,1.4155302047729492,1.950157642364502],"min":[-4.869238376617432,1.2590456008911133,1.8772577047348022],"type":"VEC3"},{"bufferView":109,"componentType":5126,"count":1310,"type":"VEC3"},{"bufferView":110,"componentType":5126,"count":1310,"type":"VEC4"},{"bufferView":111,"componentType":5126,"count":1310,"max":[0.9689921140670776,0.32539641857147217],"min":[0.7869291305541992,0.2813783884048462],"type":"VEC2"},{"bufferView":112,"componentType":5121,"count":192,"max":[59],"min":[0],"type":"SCALAR"},{"bufferView":113,"componentType":5126,"count":60,"max":[0.8713514804840088,1.00295889377594,0.07976960390806198],"min":[0.797655463218689,0.4335588812828064,-1.1923422813415527],"type":"VEC3"},{"bufferView":114,"componentType":5126,"count":60,"type":"VEC3"},{"bufferView":115,"componentType":5126,"count":60,"type":"VEC4"},{"bufferView":116,"componentType":5126,"count":60,"max":[0.5435331463813782,0.18072128295898438],"min":[0.47039899230003357,0.14798623323440552],"type":"VEC2"},{"bufferView":117,"componentType":5123,"count":1686,"max":[535],"min":[0],"type":"SCALAR"},{"bufferView":118,"componentType":5126,"count":536,"max":[4.92933988571167,1.4359411001205444,4.118375778198242],"min":[-4.9293413162231445,0.48630186915397644,-2.3657071590423584],"type":"VEC3"},{"bufferView":119,"componentType":5126,"count":536,"type":"VEC3"},{"bufferView":120,"componentType":5126,"count":536,"type":"VEC4"},{"bufferView":121,"componentType":5126,"count":536,"max":[1,1],"min":[0,0],"type":"VEC2"},{"bufferView":122,"componentType":5121,"count":69,"max":[24],"min":[0],"type":"SCALAR"},{"bufferView":123,"componentType":5126,"count":25,"max":[-0.8562834858894348,1.0562149286270142,3.140537977218628],"min":[-0.8762155175209045,0.6641249060630798,2.5419669151306152],"type":"VEC3"},{"bufferView":124,"componentType":5126,"count":25,"type":"VEC3"},{"bufferView":125,"componentType":5126,"count":25,"type":"VEC4"},{"bufferView":126,"componentType":5126,"count":25,"max":[1,0.999999619955986],"min":[0,0],"type":"VEC2"},{"bufferView":127,"componentType":5121,"count":900,"max":[239],"min":[0],"type":"SCALAR"},{"bufferView":128,"componentType":5126,"count":240,"max":[1.2749131917953491,1.9267988204956055,5.96652889251709],"min":[-1.277870535850525,-0.301330029964447,5.864810943603516],"type":"VEC3"},{"bufferView":129,"componentType":5126,"count":240,"type":"VEC3"},{"bufferView":130,"componentType":5126,"count":240,"type":"VEC4"},{"bufferView":131,"componentType":5126,"count":240,"max":[0.9909568428993225,0.48941415548324585],"min":[0.7340111136436462,0.3514414429664612],"type":"VEC2"},{"bufferView":132,"componentType":5123,"count":10995,"max":[2317],"min":[0],"type":"SCALAR"},{"bufferView":133,"componentType":5126,"count":2318,"max":[0.8815402984619141,3.1741788387298584,5.799308776855469],"min":[-0.8815417289733887,-0.33125796914100647,-6.20620059967041],"type":"VEC3"},{"bufferView":134,"componentType":5126,"count":2318,"type":"VEC3"},{"bufferView":135,"componentType":5126,"count":2318,"type":"VEC4"},{"bufferView":136,"componentType":5126,"count":2318,"max":[0.8340210318565369,0.3562493920326233],"min":[0.034791041165590286,0.02244669198989868],"type":"VEC2"},{"bufferView":137,"componentType":5123,"count":5544,"max":[1181],"min":[0],"type":"SCALAR"},{"bufferView":138,"componentType":5126,"count":1182,"max":[0.5366832613945007,1.5940399169921875,2.040207624435425],"min":[-0.5366845726966858,1.1124799251556396,-2.9231362342834473],"type":"VEC3"},{"bufferView":139,"componentType":5126,"count":1182,"type":"VEC3"},{"bufferView":140,"componentType":5126,"count":1182,"type":"VEC4"},{"bufferView":141,"componentType":5126,"count":1182,"max":[0.9946601390838623,0.5420370697975159],"min":[0.8485698699951172,0.333141028881073],"type":"VEC2"},{"bufferView":142,"componentType":5123,"count":3432,"max":[711],"min":[0],"type":"SCALAR"},{"bufferView":143,"componentType":5126,"count":712,"max":[3.1085286140441895,0.854788064956665,-4.8545074462890625],"min":[-3.1085309982299805,0.6894099116325378,-5.866908073425293],"type":"VEC3"},{"bufferView":144,"componentType":5126,"count":712,"type":"VEC3"},{"bufferView":145,"componentType":5126,"count":712,"type":"VEC4"},{"bufferView":146,"componentType":5126,"count":712,"max":[0.7425963878631592,0.6967428922653198],"min":[0.02195281907916069,0.64033442735672],"type":"VEC2"},{"bufferView":147,"componentType":5121,"count":153,"max":[46],"min":[0],"type":"SCALAR"},{"bufferView":148,"componentType":5126,"count":47,"max":[0.8815401792526245,1.1199588775634766,3.2274575233459473],"min":[0.8259641528129578,0.04663291946053505,2.4685235023498535],"type":"VEC3"},{"bufferView":149,"componentType":5126,"count":47,"type":"VEC3"},{"bufferView":150,"componentType":5126,"count":47,"type":"VEC4"},{"bufferView":151,"componentType":5126,"count":47,"max":[0.3314993679523468,0.20341038703918457],"min":[0.2877075970172882,0.14147764444351196],"type":"VEC2"},{"bufferView":152,"componentType":5121,"count":300,"max":[87],"min":[0],"type":"SCALAR"},{"bufferView":153,"componentType":5126,"count":88,"max":[5.8277411460876465,1.4078338146209717,1.0862934589385986],"min":[0.9409455060958862,1.004669189453125,0.28873446583747864],"type":"VEC3"},{"bufferView":154,"componentType":5126,"count":88,"type":"VEC3"},{"bufferView":155,"componentType":5126,"count":88,"type":"VEC4"},{"bufferView":156,"componentType":5126,"count":88,"max":[0.6428737044334412,0.5975132882595062],"min":[0.11683917045593262,0.4389980435371399],"type":"VEC2"},{"bufferView":157,"componentType":5123,"count":1440,"max":[273],"min":[0],"type":"SCALAR"},{"bufferView":158,"componentType":5126,"count":274,"max":[0.018782343715429306,3.231480360031128,-5.569412708282471],"min":[-0.018783655017614365,3.181302309036255,-5.606978416442871],"type":"VEC3"},{"bufferView":159,"componentType":5126,"count":274,"type":"VEC3"},{"bufferView":160,"componentType":5126,"count":274,"type":"VEC4"},{"bufferView":161,"componentType":5126,"count":274,"max":[1,1],"min":[0,5.960464477539063e-8],"type":"VEC2"},{"bufferView":162,"componentType":5121,"count":756,"max":[188],"min":[0],"type":"SCALAR"},{"bufferView":163,"componentType":5126,"count":189,"max":[2.900731325149536,0.8907368183135986,-4.5725202560424805],"min":[-2.9007325172424316,0.6801818013191223,-5.438545227050781],"type":"VEC3"},{"bufferView":164,"componentType":5126,"count":189,"type":"VEC3"},{"bufferView":165,"componentType":5126,"count":189,"type":"VEC4"},{"bufferView":166,"componentType":5126,"count":189,"max":[0.7311211228370667,0.6725205779075623],"min":[0.033618830144405365,0.6243374049663544],"type":"VEC2"},{"bufferView":167,"componentType":5121,"count":642,"max":[141],"min":[0],"type":"SCALAR"},{"bufferView":168,"componentType":5126,"count":142,"max":[-5.827115535736084,1.511712908744812,0.9683841466903687],"min":[-7.77114725112915,1.2853628396987915,0.4893871545791626],"type":"VEC3"},{"bufferView":169,"componentType":5126,"count":142,"type":"VEC3"},{"bufferView":170,"componentType":5126,"count":142,"type":"VEC4"},{"bufferView":171,"componentType":5126,"count":142,"max":[0.7381318211555481,0.5809725522994995],"min":[0.02099025249481201,0.43820786476135254],"type":"VEC2"},{"bufferView":172,"componentType":5126,"count":5493,"type":"VEC3","min":[-0.7075626606941223,0.5724874496459962,-6.297852516174316],"max":[0.7075612897872925,3.2274863719940186,-1.8288699388504028]},{"bufferView":173,"componentType":5126,"count":5493,"type":"VEC3"},{"bufferView":174,"componentType":5126,"count":1452,"type":"VEC3","min":[-0.4033081925630228,0.7423270669588687,-6.128012898861444],"max":[0.40330581313652153,1.8745911823780186,-4.995748783442295]},{"bufferView":175,"componentType":5126,"count":1452,"type":"VEC3"},{"bufferView":176,"componentType":5126,"count":1452,"type":"VEC2"}],"asset":{"generator":"Khronos Blender glTF 2.0 exporter","version":"2.0","copyright":"FlightGear model authors / FlightAirMap contributors; GPL-2.0. See source/flightairmap/c208/ for license and editable sources."},"bufferViews":[{"buffer":0,"byteLength":840697,"byteOffset":0},{"buffer":0,"byteLength":20538,"byteOffset":840697},{"buffer":0,"byteLength":2640,"byteOffset":861236,"target":34963},{"buffer":0,"byteLength":3864,"byteOffset":863876,"target":34962},{"buffer":0,"byteLength":3864,"byteOffset":867740,"target":34962},{"buffer":0,"byteLength":5152,"byteOffset":871604,"target":34962},{"buffer":0,"byteLength":2576,"byteOffset":876756,"target":34962},{"buffer":0,"byteLength":69,"byteOffset":879332,"target":34963},{"buffer":0,"byteLength":300,"byteOffset":879404,"target":34962},{"buffer":0,"byteLength":300,"byteOffset":879704,"target":34962},{"buffer":0,"byteLength":400,"byteOffset":880004,"target":34962},{"buffer":0,"byteLength":200,"byteOffset":880404,"target":34962},{"buffer":0,"byteLength":2880,"byteOffset":880604,"target":34963},{"buffer":0,"byteLength":3288,"byteOffset":883484,"target":34962},{"buffer":0,"byteLength":3288,"byteOffset":886772,"target":34962},{"buffer":0,"byteLength":4384,"byteOffset":890060,"target":34962},{"buffer":0,"byteLength":2192,"byteOffset":894444,"target":34962},{"buffer":0,"byteLength":2880,"byteOffset":896636,"target":34963},{"buffer":0,"byteLength":3084,"byteOffset":899516,"target":34962},{"buffer":0,"byteLength":3084,"byteOffset":902600,"target":34962},{"buffer":0,"byteLength":4112,"byteOffset":905684,"target":34962},{"buffer":0,"byteLength":2056,"byteOffset":909796,"target":34962},{"buffer":0,"byteLength":72,"byteOffset":911852,"target":34963},{"buffer":0,"byteLength":516,"byteOffset":911924,"target":34962},{"buffer":0,"byteLength":516,"byteOffset":912440,"target":34962},{"buffer":0,"byteLength":688,"byteOffset":912956,"target":34962},{"buffer":0,"byteLength":344,"byteOffset":913644,"target":34962},{"buffer":0,"byteLength":2880,"byteOffset":913988,"target":34963},{"buffer":0,"byteLength":3288,"byteOffset":916868,"target":34962},{"buffer":0,"byteLength":3288,"byteOffset":920156,"target":34962},{"buffer":0,"byteLength":4384,"byteOffset":923444,"target":34962},{"buffer":0,"byteLength":2192,"byteOffset":927828,"target":34962},{"buffer":0,"byteLength":5184,"byteOffset":930020,"target":34963},{"buffer":0,"byteLength":5736,"byteOffset":935204,"target":34962},{"buffer":0,"byteLength":5736,"byteOffset":940940,"target":34962},{"buffer":0,"byteLength":7648,"byteOffset":946676,"target":34962},{"buffer":0,"byteLength":3824,"byteOffset":954324,"target":34962},{"buffer":0,"byteLength":48,"byteOffset":958148,"target":34963},{"buffer":0,"byteLength":180,"byteOffset":958196,"target":34962},{"buffer":0,"byteLength":180,"byteOffset":958376,"target":34962},{"buffer":0,"byteLength":240,"byteOffset":958556,"target":34962},{"buffer":0,"byteLength":120,"byteOffset":958796,"target":34962},{"buffer":0,"byteLength":11520,"byteOffset":958916,"target":34963},{"buffer":0,"byteLength":17364,"byteOffset":970436,"target":34962},{"buffer":0,"byteLength":17364,"byteOffset":987800,"target":34962},{"buffer":0,"byteLength":23152,"byteOffset":1005164,"target":34962},{"buffer":0,"byteLength":11576,"byteOffset":1028316,"target":34962},{"buffer":0,"byteLength":1980,"byteOffset":1039892,"target":34963},{"buffer":0,"byteLength":3912,"byteOffset":1041872,"target":34962},{"buffer":0,"byteLength":3912,"byteOffset":1045784,"target":34962},{"buffer":0,"byteLength":5216,"byteOffset":1049696,"target":34962},{"buffer":0,"byteLength":2608,"byteOffset":1054912,"target":34962},{"buffer":0,"byteLength":72,"byteOffset":1057520,"target":34963},{"buffer":0,"byteLength":480,"byteOffset":1057592,"target":34962},{"buffer":0,"byteLength":480,"byteOffset":1058072,"target":34962},{"buffer":0,"byteLength":640,"byteOffset":1058552,"target":34962},{"buffer":0,"byteLength":320,"byteOffset":1059192,"target":34962},{"buffer":0,"byteLength":3840,"byteOffset":1059512,"target":34963},{"buffer":0,"byteLength":4716,"byteOffset":1063352,"target":34962},{"buffer":0,"byteLength":4716,"byteOffset":1068068,"target":34962},{"buffer":0,"byteLength":6288,"byteOffset":1072784,"target":34962},{"buffer":0,"byteLength":3144,"byteOffset":1079072,"target":34962},{"buffer":0,"byteLength":132,"byteOffset":1082216,"target":34963},{"buffer":0,"byteLength":576,"byteOffset":1082348,"target":34962},{"buffer":0,"byteLength":576,"byteOffset":1082924,"target":34962},{"buffer":0,"byteLength":768,"byteOffset":1083500,"target":34962},{"buffer":0,"byteLength":384,"byteOffset":1084268,"target":34962},{"buffer":0,"byteLength":153,"byteOffset":1084652,"target":34963},{"buffer":0,"byteLength":564,"byteOffset":1084808,"target":34962},{"buffer":0,"byteLength":564,"byteOffset":1085372,"target":34962},{"buffer":0,"byteLength":752,"byteOffset":1085936,"target":34962},{"buffer":0,"byteLength":376,"byteOffset":1086688,"target":34962},{"buffer":0,"byteLength":642,"byteOffset":1087064,"target":34963},{"buffer":0,"byteLength":1812,"byteOffset":1087708,"target":34962},{"buffer":0,"byteLength":1812,"byteOffset":1089520,"target":34962},{"buffer":0,"byteLength":2416,"byteOffset":1091332,"target":34962},{"buffer":0,"byteLength":1208,"byteOffset":1093748,"target":34962},{"buffer":0,"byteLength":36,"byteOffset":1094956,"target":34963},{"buffer":0,"byteLength":432,"byteOffset":1094992,"target":34962},{"buffer":0,"byteLength":432,"byteOffset":1095424,"target":34962},{"buffer":0,"byteLength":576,"byteOffset":1095856,"target":34962},{"buffer":0,"byteLength":288,"byteOffset":1096432,"target":34962},{"buffer":0,"byteLength":672,"byteOffset":1096720,"target":34963},{"buffer":0,"byteLength":1656,"byteOffset":1097392,"target":34962},{"buffer":0,"byteLength":1656,"byteOffset":1099048,"target":34962},{"buffer":0,"byteLength":2208,"byteOffset":1100704,"target":34962},{"buffer":0,"byteLength":1104,"byteOffset":1102912,"target":34962},{"buffer":0,"byteLength":11328,"byteOffset":1104016,"target":34963},{"buffer":0,"byteLength":13788,"byteOffset":1115344,"target":34962},{"buffer":0,"byteLength":13788,"byteOffset":1129132,"target":34962},{"buffer":0,"byteLength":18384,"byteOffset":1142920,"target":34962},{"buffer":0,"byteLength":9192,"byteOffset":1161304,"target":34962},{"buffer":0,"byteLength":300,"byteOffset":1170496,"target":34963},{"buffer":0,"byteLength":996,"byteOffset":1170796,"target":34962},{"buffer":0,"byteLength":996,"byteOffset":1171792,"target":34962},{"buffer":0,"byteLength":1328,"byteOffset":1172788,"target":34962},{"buffer":0,"byteLength":664,"byteOffset":1174116,"target":34962},{"buffer":0,"byteLength":2340,"byteOffset":1174780,"target":34963},{"buffer":0,"byteLength":6324,"byteOffset":1177120,"target":34962},{"buffer":0,"byteLength":6324,"byteOffset":1183444,"target":34962},{"buffer":0,"byteLength":8432,"byteOffset":1189768,"target":34962},{"buffer":0,"byteLength":4216,"byteOffset":1198200,"target":34962},{"buffer":0,"byteLength":2880,"byteOffset":1202416,"target":34963},{"buffer":0,"byteLength":3888,"byteOffset":1205296,"target":34962},{"buffer":0,"byteLength":3888,"byteOffset":1209184,"target":34962},{"buffer":0,"byteLength":5184,"byteOffset":1213072,"target":34962},{"buffer":0,"byteLength":2592,"byteOffset":1218256,"target":34962},{"buffer":0,"byteLength":13056,"byteOffset":1220848,"target":34963},{"buffer":0,"byteLength":15720,"byteOffset":1233904,"target":34962},{"buffer":0,"byteLength":15720,"byteOffset":1249624,"target":34962},{"buffer":0,"byteLength":20960,"byteOffset":1265344,"target":34962},{"buffer":0,"byteLength":10480,"byteOffset":1286304,"target":34962},{"buffer":0,"byteLength":192,"byteOffset":1296784,"target":34963},{"buffer":0,"byteLength":720,"byteOffset":1296976,"target":34962},{"buffer":0,"byteLength":720,"byteOffset":1297696,"target":34962},{"buffer":0,"byteLength":960,"byteOffset":1298416,"target":34962},{"buffer":0,"byteLength":480,"byteOffset":1299376,"target":34962},{"buffer":0,"byteLength":3372,"byteOffset":1299856,"target":34963},{"buffer":0,"byteLength":6432,"byteOffset":1303228,"target":34962},{"buffer":0,"byteLength":6432,"byteOffset":1309660,"target":34962},{"buffer":0,"byteLength":8576,"byteOffset":1316092,"target":34962},{"buffer":0,"byteLength":4288,"byteOffset":1324668,"target":34962},{"buffer":0,"byteLength":69,"byteOffset":1328956,"target":34963},{"buffer":0,"byteLength":300,"byteOffset":1329028,"target":34962},{"buffer":0,"byteLength":300,"byteOffset":1329328,"target":34962},{"buffer":0,"byteLength":400,"byteOffset":1329628,"target":34962},{"buffer":0,"byteLength":200,"byteOffset":1330028,"target":34962},{"buffer":0,"byteLength":900,"byteOffset":1330228,"target":34963},{"buffer":0,"byteLength":2880,"byteOffset":1331128,"target":34962},{"buffer":0,"byteLength":2880,"byteOffset":1334008,"target":34962},{"buffer":0,"byteLength":3840,"byteOffset":1336888,"target":34962},{"buffer":0,"byteLength":1920,"byteOffset":1340728,"target":34962},{"buffer":0,"byteLength":21990,"byteOffset":1342648,"target":34963},{"buffer":0,"byteLength":27816,"byteOffset":1364640,"target":34962},{"buffer":0,"byteLength":27816,"byteOffset":1392456,"target":34962},{"buffer":0,"byteLength":37088,"byteOffset":1420272,"target":34962},{"buffer":0,"byteLength":18544,"byteOffset":1457360,"target":34962},{"buffer":0,"byteLength":11088,"byteOffset":1475904,"target":34963},{"buffer":0,"byteLength":14184,"byteOffset":1486992,"target":34962},{"buffer":0,"byteLength":14184,"byteOffset":1501176,"target":34962},{"buffer":0,"byteLength":18912,"byteOffset":1515360,"target":34962},{"buffer":0,"byteLength":9456,"byteOffset":1534272,"target":34962},{"buffer":0,"byteLength":6864,"byteOffset":1543728,"target":34963},{"buffer":0,"byteLength":8544,"byteOffset":1550592,"target":34962},{"buffer":0,"byteLength":8544,"byteOffset":1559136,"target":34962},{"buffer":0,"byteLength":11392,"byteOffset":1567680,"target":34962},{"buffer":0,"byteLength":5696,"byteOffset":1579072,"target":34962},{"buffer":0,"byteLength":153,"byteOffset":1584768,"target":34963},{"buffer":0,"byteLength":564,"byteOffset":1584924,"target":34962},{"buffer":0,"byteLength":564,"byteOffset":1585488,"target":34962},{"buffer":0,"byteLength":752,"byteOffset":1586052,"target":34962},{"buffer":0,"byteLength":376,"byteOffset":1586804,"target":34962},{"buffer":0,"byteLength":300,"byteOffset":1587180,"target":34963},{"buffer":0,"byteLength":1056,"byteOffset":1587480,"target":34962},{"buffer":0,"byteLength":1056,"byteOffset":1588536,"target":34962},{"buffer":0,"byteLength":1408,"byteOffset":1589592,"target":34962},{"buffer":0,"byteLength":704,"byteOffset":1591000,"target":34962},{"buffer":0,"byteLength":2880,"byteOffset":1591704,"target":34963},{"buffer":0,"byteLength":3288,"byteOffset":1594584,"target":34962},{"buffer":0,"byteLength":3288,"byteOffset":1597872,"target":34962},{"buffer":0,"byteLength":4384,"byteOffset":1601160,"target":34962},{"buffer":0,"byteLength":2192,"byteOffset":1605544,"target":34962},{"buffer":0,"byteLength":756,"byteOffset":1607736,"target":34963},{"buffer":0,"byteLength":2268,"byteOffset":1608492,"target":34962},{"buffer":0,"byteLength":2268,"byteOffset":1610760,"target":34962},{"buffer":0,"byteLength":3024,"byteOffset":1613028,"target":34962},{"buffer":0,"byteLength":1512,"byteOffset":1616052,"target":34962},{"buffer":0,"byteLength":642,"byteOffset":1617564,"target":34963},{"buffer":0,"byteLength":1704,"byteOffset":1618208,"target":34962},{"buffer":0,"byteLength":1704,"byteOffset":1619912,"target":34962},{"buffer":0,"byteLength":2272,"byteOffset":1621616,"target":34962},{"buffer":0,"byteLength":1136,"byteOffset":1623888,"target":34962},{"buffer":1,"byteOffset":0,"byteLength":65916,"target":34962},{"buffer":1,"byteOffset":65916,"byteLength":65916,"target":34962},{"buffer":1,"byteOffset":131832,"byteLength":17424,"target":34962},{"buffer":1,"byteOffset":149256,"byteLength":17424,"target":34962},{"buffer":1,"byteOffset":166680,"byteLength":11616,"target":34962}],"buffers":[{"byteLength":1625024,"extras":{},"uri":"../c208-v1-0.bin"},{"uri":"c208-tail-v1.bin","byteLength":178296}],"images":[{"bufferView":0,"mimeType":"image/png","name":"texture.png","extras":{}},{"bufferView":1,"mimeType":"image/png","name":"prop.png","extras":{}},{"uri":"../../../airlines/SAS.png"}],"materials":[{"alphaMode":"BLEND","name":"DefaultWhite","pbrMetallicRoughness":{"baseColorTexture":{"index":0},"metallicFactor":0}},{"alphaMode":"BLEND","name":"rougetrs","pbrMetallicRoughness":{"baseColorFactor":[1,0.20000000298023224,0.20000000298023224,0.5],"metallicFactor":0}},{"alphaMode":"BLEND","name":"transparent","pbrMetallicRoughness":{"baseColorFactor":[1,1,1,0.30000001192092896],"baseColorTexture":{"index":1},"metallicFactor":0}},{"alphaMode":"BLEND","name":"transparent.001","pbrMetallicRoughness":{"baseColorFactor":[1,1,1,0.30000001192092896],"metallicFactor":0}},{"alphaMode":"BLEND","name":"verttrs","pbrMetallicRoughness":{"baseColorFactor":[0,0.5,0,0.5],"metallicFactor":0}},{"name":"Operator tail paint","doubleSided":true,"pbrMetallicRoughness":{"baseColorFactor":[0.13725490196078433,0.30196078431372547,0.6078431372549019,1],"metallicFactor":0,"roughnessFactor":0.65}},{"name":"Operator logo identification","doubleSided":true,"alphaMode":"BLEND","pbrMetallicRoughness":{"baseColorTexture":{"index":2},"metallicFactor":0,"roughnessFactor":0.7},"emissiveFactor":[0.18,0.18,0.18],"emissiveTexture":{"index":2}}],"meshes":[{"name":"direction","primitives":[{"attributes":{"NORMAL":2,"POSITION":1,"TANGENT":3,"TEXCOORD_0":4},"indices":0,"material":0}]},{"name":"vitresAG","primitives":[{"attributes":{"NORMAL":7,"POSITION":6,"TANGENT":8,"TEXCOORD_0":9},"indices":5,"material":3}]},{"name":"lampetrsD","primitives":[{"attributes":{"NORMAL":12,"POSITION":11,"TANGENT":13,"TEXCOORD_0":14},"indices":10,"material":4}]},{"name":"bol","primitives":[{"attributes":{"NORMAL":17,"POSITION":16,"TANGENT":18,"TEXCOORD_0":19},"indices":15,"material":0}]},{"name":"aileronG2","primitives":[{"attributes":{"NORMAL":22,"POSITION":21,"TANGENT":23,"TEXCOORD_0":24},"indices":20,"material":0}]},{"name":"lampetrsG","primitives":[{"attributes":{"NORMAL":27,"POSITION":26,"TANGENT":28,"TEXCOORD_0":29},"indices":25,"material":1}]},{"name":"bulbe","primitives":[{"attributes":{"NORMAL":32,"POSITION":31,"TANGENT":33,"TEXCOORD_0":34},"indices":30,"material":0}]},{"name":"porteB","primitives":[{"attributes":{"NORMAL":37,"POSITION":36,"TANGENT":38,"TEXCOORD_0":39},"indices":35,"material":0}]},{"name":"barres","primitives":[{"attributes":{"NORMAL":42,"POSITION":41,"TANGENT":43,"TEXCOORD_0":44},"indices":40,"material":0}]},{"name":"propdisc","primitives":[{"attributes":{"NORMAL":47,"POSITION":46,"TANGENT":48,"TEXCOORD_0":49},"indices":45,"material":2}]},{"name":"aileronD2","primitives":[{"attributes":{"NORMAL":52,"POSITION":51,"TANGENT":53,"TEXCOORD_0":54},"indices":50,"material":0}]},{"name":"echappe","primitives":[{"attributes":{"NORMAL":57,"POSITION":56,"TANGENT":58,"TEXCOORD_0":59},"indices":55,"material":0}]},{"name":"vitresporte","primitives":[{"attributes":{"NORMAL":62,"POSITION":61,"TANGENT":63,"TEXCOORD_0":64},"indices":60,"material":3}]},{"name":"porteAD","primitives":[{"attributes":{"NORMAL":67,"POSITION":66,"TANGENT":68,"TEXCOORD_0":69},"indices":65,"material":0}]},{"name":"aileronG","primitives":[{"attributes":{"NORMAL":72,"POSITION":71,"TANGENT":73,"TEXCOORD_0":74},"indices":70,"material":0}]},{"name":"propblur","primitives":[{"attributes":{"NORMAL":77,"POSITION":76,"TANGENT":78,"TEXCOORD_0":79},"indices":75,"material":2}]},{"name":"pito","primitives":[{"attributes":{"NORMAL":82,"POSITION":81,"TANGENT":83,"TEXCOORD_0":84},"indices":80,"material":0}]},{"name":"ailes","primitives":[{"attributes":{"NORMAL":87,"POSITION":86,"TANGENT":88,"TEXCOORD_0":89},"indices":85,"material":0}]},{"name":"voletD","primitives":[{"attributes":{"NORMAL":92,"POSITION":91,"TANGENT":93,"TEXCOORD_0":94},"indices":90,"material":0}]},{"name":"trous","primitives":[{"attributes":{"NORMAL":97,"POSITION":96,"TANGENT":98,"TEXCOORD_0":99},"indices":95,"material":0}]},{"name":"souslampes","primitives":[{"attributes":{"NORMAL":102,"POSITION":101,"TANGENT":103,"TEXCOORD_0":104},"indices":100,"material":0}]},{"name":"lampes","primitives":[{"attributes":{"NORMAL":107,"POSITION":106,"TANGENT":108,"TEXCOORD_0":109},"indices":105,"material":0}]},{"name":"porteH","primitives":[{"attributes":{"NORMAL":112,"POSITION":111,"TANGENT":113,"TEXCOORD_0":114},"indices":110,"material":0}]},{"name":"vitres","primitives":[{"attributes":{"NORMAL":117,"POSITION":116,"TANGENT":118,"TEXCOORD_0":119},"indices":115,"material":3}]},{"name":"vitresAD","primitives":[{"attributes":{"NORMAL":122,"POSITION":121,"TANGENT":123,"TEXCOORD_0":124},"indices":120,"material":3}]},{"name":"helice","primitives":[{"attributes":{"NORMAL":127,"POSITION":126,"TANGENT":128,"TEXCOORD_0":129},"indices":125,"material":0}]},{"name":"fuselage","primitives":[{"attributes":{"NORMAL":132,"POSITION":131,"TANGENT":133,"TEXCOORD_0":134},"indices":130,"material":0}]},{"name":"antennes","primitives":[{"attributes":{"NORMAL":137,"POSITION":136,"TANGENT":138,"TEXCOORD_0":139},"indices":135,"material":0}]},{"name":"profondeur","primitives":[{"attributes":{"NORMAL":142,"POSITION":141,"TANGENT":143,"TEXCOORD_0":144},"indices":140,"material":0}]},{"name":"porteAG","primitives":[{"attributes":{"NORMAL":147,"POSITION":146,"TANGENT":148,"TEXCOORD_0":149},"indices":145,"material":0}]},{"name":"voletG","primitives":[{"attributes":{"NORMAL":152,"POSITION":151,"TANGENT":153,"TEXCOORD_0":154},"indices":150,"material":0}]},{"name":"lampetrs","primitives":[{"attributes":{"NORMAL":157,"POSITION":156,"TANGENT":158,"TEXCOORD_0":159},"indices":155,"material":1}]},{"name":"ailes2","primitives":[{"attributes":{"NORMAL":162,"POSITION":161,"TANGENT":163,"TEXCOORD_0":164},"indices":160,"material":0}]},{"name":"aileronD","primitives":[{"attributes":{"NORMAL":167,"POSITION":166,"TANGENT":168,"TEXCOORD_0":169},"indices":165,"material":0}]},{"name":"Airline tail surface overlay","primitives":[{"attributes":{"POSITION":170,"NORMAL":171},"material":5},{"attributes":{"POSITION":172,"NORMAL":173,"TEXCOORD_0":174},"material":6}]}],"nodes":[{"mesh":33,"name":"aileronD"},{"mesh":10,"name":"aileronD2"},{"mesh":14,"name":"aileronG"},{"mesh":4,"name":"aileronG2"},{"mesh":17,"name":"ailes"},{"mesh":32,"name":"ailes2"},{"mesh":27,"name":"antennes"},{"mesh":8,"name":"barres"},{"mesh":3,"name":"bol"},{"mesh":6,"name":"bulbe"},{"mesh":0,"name":"direction"},{"mesh":11,"name":"echappe"},{"mesh":26,"name":"fuselage"},{"mesh":25,"name":"helice"},{"mesh":21,"name":"lampes"},{"mesh":31,"name":"lampetrs"},{"mesh":2,"name":"lampetrsD"},{"mesh":5,"name":"lampetrsG"},{"mesh":16,"name":"pito"},{"mesh":13,"name":"porteAD"},{"mesh":29,"name":"porteAG"},{"mesh":7,"name":"porteB"},{"mesh":22,"name":"porteH"},{"mesh":28,"name":"profondeur"},{"mesh":15,"name":"propblur"},{"mesh":9,"name":"propdisc"},{"mesh":20,"name":"souslampes"},{"mesh":19,"name":"trous"},{"mesh":23,"name":"vitres"},{"mesh":24,"name":"vitresAD"},{"mesh":1,"name":"vitresAG"},{"mesh":12,"name":"vitresporte"},{"mesh":18,"name":"voletD"},{"mesh":30,"name":"voletG"},{"name":"SkywardCoordinateAlignment","matrix":[1,0,0,0,0,1,0,0,0,0,1,0,0,0,0,1],"children":[33,32,31,30,29,28,27,26,25,24,23,22,21,20,19,18,17,16,15,14,13,12,11,10,9,8,7,6,5,4,3,2,1,0]},{"name":"AirlineTailBranding","mesh":34}],"samplers":[{},{"magFilter":9729,"minFilter":9987,"wrapS":33071,"wrapT":33071}],"scene":0,"scenes":[{"name":"Scene","nodes":[34,35]}],"textures":[{"sampler":0,"source":0},{"sampler":0,"source":1},{"source":2,"sampler":1}],"extras":{"skyward":{"source":"https://github.com/Ysurac/FlightAirMap-3dmodels","commit":"0906d9ba1bdd906ce45807e45ed706c09912db19","changes":"Converted legacy glTF to glTF 2.0 with Cesium; rigid axis alignment, horizontal centering, and source transforms baked into positions/normals for correct Cesium bounds. Original shape, materials and paint retained. Added surface-following operator tail paint and unmodified identification-logo texture. Branding is illustrative, not a registration-specific livery.","license":"GPL-2.0","sourceFiles":["source/flightairmap/c208/COPYING","source/flightairmap/c208/c208.blend"],"operator":"SAS"}}}