{"asset":{"version":"2.0","copyright":"Cessna Citation X: original FlightGear / FGMEMBERS model authors; GPL-2.0. Original source and license in source/business/c750."},"scene":0,"scenes":[{"nodes":[0,1,2,3,4,5,6,7,8,9,10,11,12,13,14,15,16,17,18,19,20,21,22,23,24,25,26,27,28,29,30,31,32,33,34,35,36,37,38,39,40,41,42,43,44,45,46,47,48,49]}],"nodes":[{"name":"Bcn1","mesh":0},{"name":"Bcn2","mesh":1},{"name":"Cabin.door","mesh":2},{"name":"Cabin.lwrdoor","mesh":3},{"name":"Engines","mesh":4},{"name":"Engines.001","mesh":5},{"name":"Engines.001","mesh":6},{"name":"Engines.chrome","mesh":7},{"name":"Fuselage","mesh":8},{"name":"Fuselage.005","mesh":9},{"name":"Glass","mesh":10},{"name":"HStab","mesh":11},{"name":"LHAileron","mesh":12},{"name":"LHFlap0","mesh":13},{"name":"LHFlap1","mesh":14},{"name":"LHelevator","mesh":15},{"name":"LHfan","mesh":16},{"name":"LHslat","mesh":17},{"name":"LHspeedbrake","mesh":18},{"name":"LHspoiler","mesh":19},{"name":"LHwing","mesh":20},{"name":"LHwing.001","mesh":21},{"name":"LLamps","mesh":22},{"name":"Land1","mesh":23},{"name":"Land2","mesh":24},{"name":"LwrReverser","mesh":25},{"name":"LwrReverser.001","mesh":26},{"name":"RHAileron","mesh":27},{"name":"RHFlap0","mesh":28},{"name":"RHFlap1","mesh":29},{"name":"RHelevator","mesh":30},{"name":"RHfan","mesh":31},{"name":"RHslat","mesh":32},{"name":"RHspeedbrake","mesh":33},{"name":"RHspoiler","mesh":34},{"name":"RHwing","mesh":35},{"name":"RHwing.001","mesh":36},{"name":"Rudder_0","mesh":37},{"name":"Rudder_1","mesh":38},{"name":"Strb1","mesh":39},{"name":"Strb2","mesh":40},{"name":"Taxi","mesh":41},{"name":"UprReverser","mesh":42},{"name":"UprReverser.001","mesh":43},{"name":"navlights.off","mesh":44},{"name":"navlights.on","mesh":45},{"name":"redlamp.off","mesh":46},{"name":"redlamp.on","mesh":47},{"name":"wing.heater","mesh":48},{"name":"AirlineTailBranding","mesh":49}],"meshes":[{"name":"Bcn1","primitives":[{"attributes":{"POSITION":0,"NORMAL":1,"TEXCOORD_0":2},"material":0}]},{"name":"Bcn2","primitives":[{"attributes":{"POSITION":3,"NORMAL":4,"TEXCOORD_0":5},"material":0}]},{"name":"Cabin.door","primitives":[{"attributes":{"POSITION":6,"NORMAL":7,"TEXCOORD_0":8},"material":1}]},{"name":"Cabin.lwrdoor","primitives":[{"attributes":{"POSITION":9,"NORMAL":10,"TEXCOORD_0":11},"material":1}]},{"name":"Engines","primitives":[{"attributes":{"POSITION":12,"NORMAL":13,"TEXCOORD_0":14},"material":1}]},{"name":"Engines.001","primitives":[{"attributes":{"POSITION":15,"NORMAL":16,"TEXCOORD_0":17},"material":1}]},{"name":"Engines.001","primitives":[{"attributes":{"POSITION":18,"NORMAL":19,"TEXCOORD_0":20},"material":2}]},{"name":"Engines.chrome","primitives":[{"attributes":{"POSITION":21,"NORMAL":22,"TEXCOORD_0":23},"material":3}]},{"name":"Fuselage","primitives":[{"attributes":{"POSITION":24,"NORMAL":25,"TEXCOORD_0":26},"material":1}]},{"name":"Fuselage.005","primitives":[{"attributes":{"POSITION":27,"NORMAL":28,"TEXCOORD_0":29},"material":4}]},{"name":"Glass","primitives":[{"attributes":{"POSITION":30,"NORMAL":31,"TEXCOORD_0":32},"material":5}]},{"name":"HStab","primitives":[{"attributes":{"POSITION":33,"NORMAL":34,"TEXCOORD_0":35},"material":1}]},{"name":"LHAileron","primitives":[{"attributes":{"POSITION":36,"NORMAL":37,"TEXCOORD_0":38},"material":1}]},{"name":"LHFlap0","primitives":[{"attributes":{"POSITION":39,"NORMAL":40,"TEXCOORD_0":41},"material":1}]},{"name":"LHFlap1","primitives":[{"attributes":{"POSITION":42,"NORMAL":43,"TEXCOORD_0":44},"material":1}]},{"name":"LHelevator","primitives":[{"attributes":{"POSITION":45,"NORMAL":46,"TEXCOORD_0":47},"material":1}]},{"name":"LHfan","primitives":[{"attributes":{"POSITION":48,"NORMAL":49,"TEXCOORD_0":50},"material":2}]},{"name":"LHslat","primitives":[{"attributes":{"POSITION":51,"NORMAL":52,"TEXCOORD_0":53},"material":3}]},{"name":"LHspeedbrake","primitives":[{"attributes":{"POSITION":54,"NORMAL":55,"TEXCOORD_0":56},"material":1}]},{"name":"LHspoiler","primitives":[{"attributes":{"POSITION":57,"NORMAL":58,"TEXCOORD_0":59},"material":1}]},{"name":"LHwing","primitives":[{"attributes":{"POSITION":60,"NORMAL":61,"TEXCOORD_0":62},"material":1}]},{"name":"LHwing.001","primitives":[{"attributes":{"POSITION":63,"NORMAL":64,"TEXCOORD_0":65},"material":1}]},{"name":"LLamps","primitives":[{"attributes":{"POSITION":66,"NORMAL":67,"TEXCOORD_0":68},"material":1}]},{"name":"Land1","primitives":[{"attributes":{"POSITION":69,"NORMAL":70,"TEXCOORD_0":71},"material":0}]},{"name":"Land2","primitives":[{"attributes":{"POSITION":72,"NORMAL":73,"TEXCOORD_0":74},"material":0}]},{"name":"LwrReverser","primitives":[{"attributes":{"POSITION":75,"NORMAL":76,"TEXCOORD_0":77},"material":1}]},{"name":"LwrReverser.001","primitives":[{"attributes":{"POSITION":78,"NORMAL":79,"TEXCOORD_0":80},"material":3}]},{"name":"RHAileron","primitives":[{"attributes":{"POSITION":81,"NORMAL":82,"TEXCOORD_0":83},"material":1}]},{"name":"RHFlap0","primitives":[{"attributes":{"POSITION":84,"NORMAL":85,"TEXCOORD_0":86},"material":1}]},{"name":"RHFlap1","primitives":[{"attributes":{"POSITION":87,"NORMAL":88,"TEXCOORD_0":89},"material":1}]},{"name":"RHelevator","primitives":[{"attributes":{"POSITION":90,"NORMAL":91,"TEXCOORD_0":92},"material":1}]},{"name":"RHfan","primitives":[{"attributes":{"POSITION":93,"NORMAL":94,"TEXCOORD_0":95},"material":2}]},{"name":"RHslat","primitives":[{"attributes":{"POSITION":96,"NORMAL":97,"TEXCOORD_0":98},"material":3}]},{"name":"RHspeedbrake","primitives":[{"attributes":{"POSITION":99,"NORMAL":100,"TEXCOORD_0":101},"material":1}]},{"name":"RHspoiler","primitives":[{"attributes":{"POSITION":102,"NORMAL":103,"TEXCOORD_0":104},"material":1}]},{"name":"RHwing","primitives":[{"attributes":{"POSITION":105,"NORMAL":106,"TEXCOORD_0":107},"material":1}]},{"name":"RHwing.001","primitives":[{"attributes":{"POSITION":108,"NORMAL":109,"TEXCOORD_0":110},"material":1}]},{"name":"Rudder_0","primitives":[{"attributes":{"POSITION":111,"NORMAL":112,"TEXCOORD_0":113},"material":3}]},{"name":"Rudder_1","primitives":[{"attributes":{"POSITION":114,"NORMAL":115,"TEXCOORD_0":116},"material":1}]},{"name":"Strb1","primitives":[{"attributes":{"POSITION":117,"NORMAL":118,"TEXCOORD_0":119},"material":0}]},{"name":"Strb2","primitives":[{"attributes":{"POSITION":120,"NORMAL":121,"TEXCOORD_0":122},"material":0}]},{"name":"Taxi","primitives":[{"attributes":{"POSITION":123,"NORMAL":124,"TEXCOORD_0":125},"material":0}]},{"name":"UprReverser","primitives":[{"attributes":{"POSITION":126,"NORMAL":127,"TEXCOORD_0":128},"material":1}]},{"name":"UprReverser.001","primitives":[{"attributes":{"POSITION":129,"NORMAL":130,"TEXCOORD_0":131},"material":3}]},{"name":"navlights.off","primitives":[{"attributes":{"POSITION":132,"NORMAL":133,"TEXCOORD_0":134},"material":1}]},{"name":"navlights.on","primitives":[{"attributes":{"POSITION":135,"NORMAL":136,"TEXCOORD_0":137},"material":6}]},{"name":"redlamp.off","primitives":[{"attributes":{"POSITION":138,"NORMAL":139,"TEXCOORD_0":140},"material":1}]},{"name":"redlamp.on","primitives":[{"attributes":{"POSITION":141,"NORMAL":142,"TEXCOORD_0":143},"material":6}]},{"name":"wing.heater","primitives":[{"attributes":{"POSITION":144,"NORMAL":145,"TEXCOORD_0":146},"material":3}]},{"name":"Airline tail surface overlay","primitives":[{"attributes":{"POSITION":147,"NORMAL":148},"material":7},{"attributes":{"POSITION":149,"NORMAL":150,"TEXCOORD_0":151},"material":8}]}],"materials":[{"name":"lights.png","doubleSided":true,"pbrMetallicRoughness":{"metallicFactor":0.08,"roughnessFactor":0.65,"baseColorFactor":[1,1,1,1],"baseColorTexture":{"index":0}},"alphaMode":"MASK","alphaCutoff":0.3},{"name":"livery1.png","doubleSided":true,"pbrMetallicRoughness":{"metallicFactor":0.08,"roughnessFactor":0.65,"baseColorFactor":[0.9,0.9,0.9,1],"baseColorTexture":{"index":1}}},{"name":"livery1.png","doubleSided":true,"pbrMetallicRoughness":{"metallicFactor":0.08,"roughnessFactor":0.65,"baseColorFactor":[0.5,0.5,0.5,1],"baseColorTexture":{"index":1}}},{"name":"Engines.chrome","doubleSided":true,"pbrMetallicRoughness":{"metallicFactor":0.08,"roughnessFactor":0.65,"baseColorFactor":[0.9,0.9,0.9,1]}},{"name":"livery1.png","doubleSided":true,"pbrMetallicRoughness":{"metallicFactor":0.08,"roughnessFactor":0.65,"baseColorFactor":[0.2,0.2,0.2,1],"baseColorTexture":{"index":1}}},{"name":"Glass","doubleSided":true,"pbrMetallicRoughness":{"metallicFactor":0.08,"roughnessFactor":0.65,"baseColorFactor":[0.5,0.5,0.5,0.7]},"alphaMode":"BLEND"},{"name":"livery1.png","doubleSided":true,"pbrMetallicRoughness":{"metallicFactor":0.08,"roughnessFactor":0.65,"baseColorFactor":[1,1,1,1],"baseColorTexture":{"index":1}}},{"name":"Operator tail paint","doubleSided":true,"pbrMetallicRoughness":{"baseColorFactor":[0.09019607843137255,0.23529411764705882,0.4470588235294118,1],"metallicFactor":0,"roughnessFactor":0.65}},{"name":"Operator logo identification","doubleSided":true,"alphaMode":"MASK","alphaCutoff":0.08,"pbrMetallicRoughness":{"baseColorTexture":{"index":2},"metallicFactor":0,"roughnessFactor":0.7},"emissiveFactor":[0.18,0.18,0.18],"emissiveTexture":{"index":2}}],"images":[{"bufferView":0,"mimeType":"image/png"},{"bufferView":7,"mimeType":"image/png"},{"uri":"../../../airlines/DLH.png"}],"textures":[{"sampler":0,"source":0},{"sampler":0,"source":1},{"source":2,"sampler":1}],"samplers":[{"magFilter":9729,"minFilter":9987,"wrapS":10497,"wrapT":10497},{"magFilter":9729,"minFilter":9987,"wrapS":33071,"wrapT":33071}],"buffers":[{"uri":"../c750-v1.bin","byteLength":739896},{"uri":"c750-tail-v1.bin?tail=2","byteLength":20712}],"bufferViews":[{"buffer":0,"byteOffset":0,"byteLength":43175},{"buffer":0,"byteOffset":43176,"byteLength":72,"target":34962},{"buffer":0,"byteOffset":43248,"byteLength":72,"target":34962},{"buffer":0,"byteOffset":43320,"byteLength":48,"target":34962},{"buffer":0,"byteOffset":43368,"byteLength":72,"target":34962},{"buffer":0,"byteOffset":43440,"byteLength":72,"target":34962},{"buffer":0,"byteOffset":43512,"byteLength":48,"target":34962},{"buffer":0,"byteOffset":43560,"byteLength":285550},{"buffer":0,"byteOffset":329112,"byteLength":504,"target":34962},{"buffer":0,"byteOffset":329616,"byteLength":504,"target":34962},{"buffer":0,"byteOffset":330120,"byteLength":336,"target":34962},{"buffer":0,"byteOffset":330456,"byteLength":1296,"target":34962},{"buffer":0,"byteOffset":331752,"byteLength":1296,"target":34962},{"buffer":0,"byteOffset":333048,"byteLength":864,"target":34962},{"buffer":0,"byteOffset":333912,"byteLength":12240,"target":34962},{"buffer":0,"byteOffset":346152,"byteLength":12240,"target":34962},{"buffer":0,"byteOffset":358392,"byteLength":8160,"target":34962},{"buffer":0,"byteOffset":366552,"byteLength":504,"target":34962},{"buffer":0,"byteOffset":367056,"byteLength":504,"target":34962},{"buffer":0,"byteOffset":367560,"byteLength":336,"target":34962},{"buffer":0,"byteOffset":367896,"byteLength":9216,"target":34962},{"buffer":0,"byteOffset":377112,"byteLength":9216,"target":34962},{"buffer":0,"byteOffset":386328,"byteLength":6144,"target":34962},{"buffer":0,"byteOffset":392472,"byteLength":6912,"target":34962},{"buffer":0,"byteOffset":399384,"byteLength":6912,"target":34962},{"buffer":0,"byteOffset":406296,"byteLength":4608,"target":34962},{"buffer":0,"byteOffset":410904,"byteLength":51084,"target":34962},{"buffer":0,"byteOffset":461988,"byteLength":51084,"target":34962},{"buffer":0,"byteOffset":513072,"byteLength":34056,"target":34962},{"buffer":0,"byteOffset":547128,"byteLength":1944,"target":34962},{"buffer":0,"byteOffset":549072,"byteLength":1944,"target":34962},{"buffer":0,"byteOffset":551016,"byteLength":1296,"target":34962},{"buffer":0,"byteOffset":552312,"byteLength":1080,"target":34962},{"buffer":0,"byteOffset":553392,"byteLength":1080,"target":34962},{"buffer":0,"byteOffset":554472,"byteLength":720,"target":34962},{"buffer":0,"byteOffset":555192,"byteLength":3024,"target":34962},{"buffer":0,"byteOffset":558216,"byteLength":3024,"target":34962},{"buffer":0,"byteOffset":561240,"byteLength":2016,"target":34962},{"buffer":0,"byteOffset":563256,"byteLength":720,"target":34962},{"buffer":0,"byteOffset":563976,"byteLength":720,"target":34962},{"buffer":0,"byteOffset":564696,"byteLength":480,"target":34962},{"buffer":0,"byteOffset":565176,"byteLength":864,"target":34962},{"buffer":0,"byteOffset":566040,"byteLength":864,"target":34962},{"buffer":0,"byteOffset":566904,"byteLength":576,"target":34962},{"buffer":0,"byteOffset":567480,"byteLength":1440,"target":34962},{"buffer":0,"byteOffset":568920,"byteLength":1440,"target":34962},{"buffer":0,"byteOffset":570360,"byteLength":960,"target":34962},{"buffer":0,"byteOffset":571320,"byteLength":576,"target":34962},{"buffer":0,"byteOffset":571896,"byteLength":576,"target":34962},{"buffer":0,"byteOffset":572472,"byteLength":384,"target":34962},{"buffer":0,"byteOffset":572856,"byteLength":1152,"target":34962},{"buffer":0,"byteOffset":574008,"byteLength":1152,"target":34962},{"buffer":0,"byteOffset":575160,"byteLength":768,"target":34962},{"buffer":0,"byteOffset":575928,"byteLength":1080,"target":34962},{"buffer":0,"byteOffset":577008,"byteLength":1080,"target":34962},{"buffer":0,"byteOffset":578088,"byteLength":720,"target":34962},{"buffer":0,"byteOffset":578808,"byteLength":432,"target":34962},{"buffer":0,"byteOffset":579240,"byteLength":432,"target":34962},{"buffer":0,"byteOffset":579672,"byteLength":288,"target":34962},{"buffer":0,"byteOffset":579960,"byteLength":288,"target":34962},{"buffer":0,"byteOffset":580248,"byteLength":288,"target":34962},{"buffer":0,"byteOffset":580536,"byteLength":192,"target":34962},{"buffer":0,"byteOffset":580728,"byteLength":10008,"target":34962},{"buffer":0,"byteOffset":590736,"byteLength":10008,"target":34962},{"buffer":0,"byteOffset":600744,"byteLength":6672,"target":34962},{"buffer":0,"byteOffset":607416,"byteLength":540,"target":34962},{"buffer":0,"byteOffset":607956,"byteLength":540,"target":34962},{"buffer":0,"byteOffset":608496,"byteLength":360,"target":34962},{"buffer":0,"byteOffset":608856,"byteLength":2016,"target":34962},{"buffer":0,"byteOffset":610872,"byteLength":2016,"target":34962},{"buffer":0,"byteOffset":612888,"byteLength":1344,"target":34962},{"buffer":0,"byteOffset":614232,"byteLength":72,"target":34962},{"buffer":0,"byteOffset":614304,"byteLength":72,"target":34962},{"buffer":0,"byteOffset":614376,"byteLength":48,"target":34962},{"buffer":0,"byteOffset":614424,"byteLength":72,"target":34962},{"buffer":0,"byteOffset":614496,"byteLength":72,"target":34962},{"buffer":0,"byteOffset":614568,"byteLength":48,"target":34962},{"buffer":0,"byteOffset":614616,"byteLength":2304,"target":34962},{"buffer":0,"byteOffset":616920,"byteLength":2304,"target":34962},{"buffer":0,"byteOffset":619224,"byteLength":1536,"target":34962},{"buffer":0,"byteOffset":620760,"byteLength":1152,"target":34962},{"buffer":0,"byteOffset":621912,"byteLength":1152,"target":34962},{"buffer":0,"byteOffset":623064,"byteLength":768,"target":34962},{"buffer":0,"byteOffset":623832,"byteLength":720,"target":34962},{"buffer":0,"byteOffset":624552,"byteLength":720,"target":34962},{"buffer":0,"byteOffset":625272,"byteLength":480,"target":34962},{"buffer":0,"byteOffset":625752,"byteLength":864,"target":34962},{"buffer":0,"byteOffset":626616,"byteLength":864,"target":34962},{"buffer":0,"byteOffset":627480,"byteLength":576,"target":34962},{"buffer":0,"byteOffset":628056,"byteLength":1440,"target":34962},{"buffer":0,"byteOffset":629496,"byteLength":1440,"target":34962},{"buffer":0,"byteOffset":630936,"byteLength":960,"target":34962},{"buffer":0,"byteOffset":631896,"byteLength":576,"target":34962},{"buffer":0,"byteOffset":632472,"byteLength":576,"target":34962},{"buffer":0,"byteOffset":633048,"byteLength":384,"target":34962},{"buffer":0,"byteOffset":633432,"byteLength":1152,"target":34962},{"buffer":0,"byteOffset":634584,"byteLength":1152,"target":34962},{"buffer":0,"byteOffset":635736,"byteLength":768,"target":34962},{"buffer":0,"byteOffset":636504,"byteLength":1080,"target":34962},{"buffer":0,"byteOffset":637584,"byteLength":1080,"target":34962},{"buffer":0,"byteOffset":638664,"byteLength":720,"target":34962},{"buffer":0,"byteOffset":639384,"byteLength":432,"target":34962},{"buffer":0,"byteOffset":639816,"byteLength":432,"target":34962},{"buffer":0,"byteOffset":640248,"byteLength":288,"target":34962},{"buffer":0,"byteOffset":640536,"byteLength":288,"target":34962},{"buffer":0,"byteOffset":640824,"byteLength":288,"target":34962},{"buffer":0,"byteOffset":641112,"byteLength":192,"target":34962},{"buffer":0,"byteOffset":641304,"byteLength":10044,"target":34962},{"buffer":0,"byteOffset":651348,"byteLength":10044,"target":34962},{"buffer":0,"byteOffset":661392,"byteLength":6696,"target":34962},{"buffer":0,"byteOffset":668088,"byteLength":504,"target":34962},{"buffer":0,"byteOffset":668592,"byteLength":504,"target":34962},{"buffer":0,"byteOffset":669096,"byteLength":336,"target":34962},{"buffer":0,"byteOffset":669432,"byteLength":72,"target":34962},{"buffer":0,"byteOffset":669504,"byteLength":72,"target":34962},{"buffer":0,"byteOffset":669576,"byteLength":48,"target":34962},{"buffer":0,"byteOffset":669624,"byteLength":936,"target":34962},{"buffer":0,"byteOffset":670560,"byteLength":936,"target":34962},{"buffer":0,"byteOffset":671496,"byteLength":624,"target":34962},{"buffer":0,"byteOffset":672120,"byteLength":72,"target":34962},{"buffer":0,"byteOffset":672192,"byteLength":72,"target":34962},{"buffer":0,"byteOffset":672264,"byteLength":48,"target":34962},{"buffer":0,"byteOffset":672312,"byteLength":72,"target":34962},{"buffer":0,"byteOffset":672384,"byteLength":72,"target":34962},{"buffer":0,"byteOffset":672456,"byteLength":48,"target":34962},{"buffer":0,"byteOffset":672504,"byteLength":72,"target":34962},{"buffer":0,"byteOffset":672576,"byteLength":72,"target":34962},{"buffer":0,"byteOffset":672648,"byteLength":48,"target":34962},{"buffer":0,"byteOffset":672696,"byteLength":2304,"target":34962},{"buffer":0,"byteOffset":675000,"byteLength":2304,"target":34962},{"buffer":0,"byteOffset":677304,"byteLength":1536,"target":34962},{"buffer":0,"byteOffset":678840,"byteLength":1152,"target":34962},{"buffer":0,"byteOffset":679992,"byteLength":1152,"target":34962},{"buffer":0,"byteOffset":681144,"byteLength":768,"target":34962},{"buffer":0,"byteOffset":681912,"byteLength":2088,"target":34962},{"buffer":0,"byteOffset":684000,"byteLength":2088,"target":34962},{"buffer":0,"byteOffset":686088,"byteLength":1392,"target":34962},{"buffer":0,"byteOffset":687480,"byteLength":2088,"target":34962},{"buffer":0,"byteOffset":689568,"byteLength":2088,"target":34962},{"buffer":0,"byteOffset":691656,"byteLength":1392,"target":34962},{"buffer":0,"byteOffset":693048,"byteLength":7920,"target":34962},{"buffer":0,"byteOffset":700968,"byteLength":7920,"target":34962},{"buffer":0,"byteOffset":708888,"byteLength":5280,"target":34962},{"buffer":0,"byteOffset":714168,"byteLength":7920,"target":34962},{"buffer":0,"byteOffset":722088,"byteLength":7920,"target":34962},{"buffer":0,"byteOffset":730008,"byteLength":5280,"target":34962},{"buffer":0,"byteOffset":735288,"byteLength":1728,"target":34962},{"buffer":0,"byteOffset":737016,"byteLength":1728,"target":34962},{"buffer":0,"byteOffset":738744,"byteLength":1152,"target":34962},{"buffer":1,"byteOffset":0,"byteLength":8100,"target":34962},{"buffer":1,"byteOffset":8100,"byteLength":8100,"target":34962},{"buffer":1,"byteOffset":16200,"byteLength":1692,"target":34962},{"buffer":1,"byteOffset":17892,"byteLength":1692,"target":34962},{"buffer":1,"byteOffset":19584,"byteLength":1128,"target":34962}],"accessors":[{"bufferView":1,"componentType":5126,"count":6,"type":"VEC3","min":[0,-0.2,0.6219044999999996],"max":[0,0.2,1.0219044999999995]},{"bufferView":2,"componentType":5126,"count":6,"type":"VEC3","min":[1,0,0],"max":[1,0,0]},{"bufferView":3,"componentType":5126,"count":6,"type":"VEC2"},{"bufferView":4,"componentType":5126,"count":6,"type":"VEC3","min":[0,-0.2,0.6219044999999996],"max":[0,0.2,1.0219044999999995]},{"bufferView":5,"componentType":5126,"count":6,"type":"VEC3","min":[1,0,0],"max":[1,0,0]},{"bufferView":6,"componentType":5126,"count":6,"type":"VEC2"},{"bufferView":8,"componentType":5126,"count":42,"type":"VEC3","min":[0.580785,-0.470943,6.063515499999999],"max":[0.918444,0.716792,6.769092499999999]},{"bufferView":9,"componentType":5126,"count":42,"type":"VEC3","min":[0.6607899114690308,-0.3925817945994823,-0.16834022909571986],"max":[0.9968134202480203,0.7504872077468265,0.027728179593289472]},{"bufferView":10,"componentType":5126,"count":42,"type":"VEC2"},{"bufferView":11,"componentType":5126,"count":108,"type":"VEC3","min":[0.75637,-0.781776,6.0636705],"max":[0.862941,-0.374185,6.769092499999999]},{"bufferView":12,"componentType":5126,"count":108,"type":"VEC3","min":[-0.9987256070287172,-0.990096639033012,-1],"max":[0.9987256070287172,0.9917375261835624,1]},{"bufferView":13,"componentType":5126,"count":108,"type":"VEC2"},{"bufferView":14,"componentType":5126,"count":1020,"type":"VEC3","min":[-2.378336,-0.09852,-4.5608915],"max":[2.378026,1.304125,-0.07244150000000038]},{"bufferView":15,"componentType":5126,"count":1020,"type":"VEC3","min":[-0.9976760540488772,-0.9987966603197395,-0.15887228634768918],"max":[0.997721059755559,0.997734069548483,0.5430085646926025]},{"bufferView":16,"componentType":5126,"count":1020,"type":"VEC2"},{"bufferView":17,"componentType":5126,"count":42,"type":"VEC3","min":[-0.097193,0.27975,-6.8061255],"max":[0.0973,0.468914,-6.1744715]},{"bufferView":18,"componentType":5126,"count":42,"type":"VEC3","min":[-0.9845463119569898,-0.9835894882341734,-0.1804197700143083],"max":[0.9844372556280861,0.9901734053917156,-0.13188805967792985]},{"bufferView":19,"componentType":5126,"count":42,"type":"VEC2"},{"bufferView":20,"componentType":5126,"count":768,"type":"VEC3","min":[-2.135957,0.260303,-4.6012715],"max":[2.135647,1.173252,0.004765499999999645]},{"bufferView":21,"componentType":5126,"count":768,"type":"VEC3","min":[-0.9996902396130336,-0.9979855626349252,-0.714842209916874],"max":[0.999690173608692,0.9980700071218394,0.9876882310904489]},{"bufferView":22,"componentType":5126,"count":768,"type":"VEC2"},{"bufferView":23,"componentType":5126,"count":576,"type":"VEC3","min":[-2.225301,0.149452,-4.6012715],"max":[2.224991,1.239283,0.060964499999999644]},{"bufferView":24,"componentType":5126,"count":576,"type":"VEC3","min":[-0.9918952005523172,-0.9904164588262775,-0.17100068552853845],"max":[0.9925618472538257,0.9884311472801398,0.5160280736249279]},{"bufferView":25,"componentType":5126,"count":576,"type":"VEC2"},{"bufferView":26,"componentType":5126,"count":4257,"type":"VEC3","min":[-1.243099,-1.663427,-10.304764500000001],"max":[1.24279,3.702004,10.9718665]},{"bufferView":27,"componentType":5126,"count":4257,"type":"VEC3","min":[-1,-0.9999500643260273,-0.9999826424521053],"max":[1,0.9999996640075299,0.9995006440006514]},{"bufferView":28,"componentType":5126,"count":4257,"type":"VEC2"},{"bufferView":29,"componentType":5126,"count":162,"type":"VEC3","min":[-0.297755,-1.002927,8.2020665],"max":[0.294124,-0.567923,10.542630500000001]},{"bufferView":30,"componentType":5126,"count":162,"type":"VEC3","min":[-0.9997349112087046,-0.9988697316605029,-0.9996459899978445],"max":[0.9997673651350888,0.00017083087402145386,0.9999908306588847]},{"bufferView":31,"componentType":5126,"count":162,"type":"VEC2"},{"bufferView":32,"componentType":5126,"count":90,"type":"VEC3","min":[-0.862109,0.17077,7.6697975],"max":[0.861941,0.634371,9.070356499999999]},{"bufferView":33,"componentType":5126,"count":90,"type":"VEC3","min":[-0.8898200068863389,0.4444071890353532,0.04015899695925245],"max":[0.8903912373442536,0.8249407312751897,0.5514486123565364]},{"bufferView":34,"componentType":5126,"count":90,"type":"VEC2"},{"bufferView":35,"componentType":5126,"count":252,"type":"VEC3","min":[-3.991849,2.868436,-10.9718665],"max":[3.991851,3.081177,-6.6658125]},{"bufferView":36,"componentType":5126,"count":252,"type":"VEC3","min":[-1,-0.9997173348003545,-0.8314131362876768],"max":[1,0.9999581251512737,0.3061040373831699]},{"bufferView":37,"componentType":5126,"count":252,"type":"VEC2"},{"bufferView":38,"componentType":5126,"count":60,"type":"VEC3","min":[6.923472,-0.76368,-3.5855715000000004],"max":[8.509911,-0.667581,-2.4249305000000003]},{"bufferView":39,"componentType":5126,"count":60,"type":"VEC3","min":[-0.8819007323949527,-0.9994532945475879,-0.13535311367913305],"max":[1,0.9996276241186454,0.8239165192598334]},{"bufferView":40,"componentType":5126,"count":60,"type":"VEC2"},{"bufferView":41,"componentType":5126,"count":72,"type":"VEC3","min":[0.843084,-1.235958,-0.7409015000000003],"max":[3.19946,-0.855932,0.28867949999999964]},{"bufferView":42,"componentType":5126,"count":72,"type":"VEC3","min":[-0.9981397434821385,-0.9912690995859287,-0.2100491677018087],"max":[0.9999618693304774,0.9928354990763847,0.8919014452865298]},{"bufferView":43,"componentType":5126,"count":72,"type":"VEC2"},{"bufferView":44,"componentType":5126,"count":120,"type":"VEC3","min":[3.338875,-0.891373,-2.6505675],"max":[6.890251,-0.722914,-0.4818115000000005]},{"bufferView":45,"componentType":5126,"count":120,"type":"VEC3","min":[-0.8816248900240028,-0.9995047303535576,-0.468415367887444],"max":[0.8895285116848589,0.9996337758073447,0.8681041343282493]},{"bufferView":46,"componentType":5126,"count":120,"type":"VEC2"},{"bufferView":47,"componentType":5126,"count":48,"type":"VEC3","min":[0.363616,2.931969,-10.9031075],"max":[3.868696,3.072603,-8.249754500000002]},{"bufferView":48,"componentType":5126,"count":48,"type":"VEC3","min":[-1,-0.9997833947724999,-0.1832867008002432],"max":[0.9999999999939561,0.9998969562590807,0.8310845144109128]},{"bufferView":49,"componentType":5126,"count":48,"type":"VEC2"},{"bufferView":50,"componentType":5126,"count":96,"type":"VEC3","min":[1.25871,0.296314,-0.4430765000000003],"max":[2.135647,1.173252,-0.4002155000000005]},{"bufferView":51,"componentType":5126,"count":96,"type":"VEC3","min":[-0.14111517009792302,-0.14476781336930064,0.9894214930029817],"max":[0.14111442342053232,0.13745628663259235,0.9904638152676296]},{"bufferView":52,"componentType":5126,"count":96,"type":"VEC2"},{"bufferView":53,"componentType":5126,"count":90,"type":"VEC3","min":[3.201606,-0.829433,-3.3646255000000007],"max":[9.608327,-0.618339,2.2345384999999993]},{"bufferView":54,"componentType":5126,"count":90,"type":"VEC3","min":[0.09301950187346425,-0.9646564794899454,0.13411722482143776],"max":[0.3971857808460848,0.9865900578646678,0.4719825261392655]},{"bufferView":55,"componentType":5126,"count":90,"type":"VEC2"},{"bufferView":56,"componentType":5126,"count":36,"type":"VEC3","min":[3.497065,-0.827977,-1.4504355000000002],"max":[5.253295,-0.740398,-0.2682555000000004]},{"bufferView":57,"componentType":5126,"count":36,"type":"VEC3","min":[-0.09122219842588619,-0.990781131095627,-0.10697617015995661],"max":[0.0905878153176662,0.99080513051624,0.1073223233290801]},{"bufferView":58,"componentType":5126,"count":36,"type":"VEC2"},{"bufferView":59,"componentType":5126,"count":24,"type":"VEC3","min":[5.202751,-0.775532,-2.4401215000000005],"max":[6.980553,-0.692745,-1.2651905000000006]},{"bufferView":60,"componentType":5126,"count":24,"type":"VEC3","min":[-0.08853691942425593,-0.9917100313122857,-0.10221040289663388],"max":[0.08782434959348179,0.9917365260894658,0.10259956264552304]},{"bufferView":61,"componentType":5126,"count":24,"type":"VEC2"},{"bufferView":62,"componentType":5126,"count":834,"type":"VEC3","min":[0.840707,-1.404289,-4.281779500000001],"max":[9.822354,-0.619019,3.9741484999999996]},{"bufferView":63,"componentType":5126,"count":834,"type":"VEC3","min":[-0.14991968641420553,-0.9999936661391506,-0.22693372904502834],"max":[0.9999999964898105,0.9999953779881244,0.46400246735197515]},{"bufferView":64,"componentType":5126,"count":834,"type":"VEC2"},{"bufferView":65,"componentType":5126,"count":45,"type":"VEC3","min":[0.847797,-1.23919,-3.5879755000000007],"max":[8.513517,-0.667581,0.3052944999999996]},{"bufferView":66,"componentType":5126,"count":45,"type":"VEC3","min":[-1,-0.9644019637716319,-0.8518546783314411],"max":[0.8819935644558294,0.000008231259140514687,0.47025148367831926]},{"bufferView":67,"componentType":5126,"count":45,"type":"VEC2"},{"bufferView":68,"componentType":5126,"count":168,"type":"VEC3","min":[-1.214112,-1.007106,3.8510594999999994],"max":[1.214112,-0.843607,4.091243499999999]},{"bufferView":69,"componentType":5126,"count":168,"type":"VEC3","min":[-0.996480504183424,-0.9686859319136499,0.05525821837733781],"max":[0.996480504183424,0.9644320888246289,0.7774616665522907]},{"bufferView":70,"componentType":5126,"count":168,"type":"VEC2"},{"bufferView":71,"componentType":5126,"count":6,"type":"VEC3","min":[0.686399,-1.518311,3.7872614999999996],"max":[1.684187,-0.318311,4.4539095]},{"bufferView":72,"componentType":5126,"count":6,"type":"VEC3","min":[0.5555399134191115,0,0.8314898704123137],"max":[0.5555399134191115,0,0.8314898704123137]},{"bufferView":73,"componentType":5126,"count":6,"type":"VEC2"},{"bufferView":74,"componentType":5126,"count":6,"type":"VEC3","min":[-1.671515,-1.518311,3.7863724999999997],"max":[-0.674918,-0.318311,4.454798499999999]},{"bufferView":75,"componentType":5126,"count":6,"type":"VEC3","min":[-0.5570218798271825,0,0.8304978178139856],"max":[-0.5570218798271825,0,0.8304978178139856]},{"bufferView":76,"componentType":5126,"count":6,"type":"VEC2"},{"bufferView":77,"componentType":5126,"count":192,"type":"VEC3","min":[-2.163918,0.100047,-4.5608915],"max":[2.163608,0.546414,-3.7814035000000006]},{"bufferView":78,"componentType":5126,"count":192,"type":"VEC3","min":[-0.9793176000175503,-0.9861467919695133,-0.213758222769161],"max":[0.9786114440454744,-0.14450746302492395,-0.08990541372480305]},{"bufferView":79,"componentType":5126,"count":192,"type":"VEC2"},{"bufferView":80,"componentType":5126,"count":96,"type":"VEC3","min":[-2.15426,0.107854,-4.5608915],"max":[2.145312,0.556448,-3.7814035000000006]},{"bufferView":81,"componentType":5126,"count":96,"type":"VEC3","min":[-0.9794300482486421,0.13955016264017997,0.12474739345928657],"max":[0.9802573261441879,0.985514660477961,0.20943764719656555]},{"bufferView":82,"componentType":5126,"count":96,"type":"VEC2"},{"bufferView":83,"componentType":5126,"count":60,"type":"VEC3","min":[-8.509911,-0.76368,-3.5855715000000004],"max":[-6.923472,-0.667581,-2.4249305000000003]},{"bufferView":84,"componentType":5126,"count":60,"type":"VEC3","min":[-1,-0.9994532945475878,-0.13535311367913308],"max":[0.8819007323949527,0.9996276241186454,0.8239165192598341]},{"bufferView":85,"componentType":5126,"count":60,"type":"VEC2"},{"bufferView":86,"componentType":5126,"count":72,"type":"VEC3","min":[-3.19946,-1.235958,-0.7409015000000003],"max":[-0.843084,-0.855932,0.28867949999999964]},{"bufferView":87,"componentType":5126,"count":72,"type":"VEC3","min":[-0.9999618693304774,-0.9912690995859287,-0.21004916770180854],"max":[0.9981397434821385,0.9928354990763845,0.8919014452865288]},{"bufferView":88,"componentType":5126,"count":72,"type":"VEC2"},{"bufferView":89,"componentType":5126,"count":120,"type":"VEC3","min":[-6.890251,-0.891373,-2.6505675],"max":[-3.338875,-0.722914,-0.4818115000000005]},{"bufferView":90,"componentType":5126,"count":120,"type":"VEC3","min":[-0.8895285116848589,-0.9995047303535576,-0.468415367887444],"max":[0.8816313459676373,0.9996337618397501,0.8681041343282493]},{"bufferView":91,"componentType":5126,"count":120,"type":"VEC2"},{"bufferView":92,"componentType":5126,"count":48,"type":"VEC3","min":[-3.914419,2.932443,-10.9286395],"max":[-0.383575,3.072542,-8.2632735]},{"bufferView":93,"componentType":5126,"count":48,"type":"VEC3","min":[-1,-0.9997715956068449,-0.20677802006089674],"max":[1,0.9997661046028427,0.8311647719635955]},{"bufferView":94,"componentType":5126,"count":48,"type":"VEC2"},{"bufferView":95,"componentType":5126,"count":96,"type":"VEC3","min":[-2.135957,0.296315,-0.4431185000000004],"max":[-1.25902,1.173252,-0.4002585000000005]},{"bufferView":96,"componentType":5126,"count":96,"type":"VEC3","min":[-0.1411114251889605,-0.14476856112398376,0.9894213754477655],"max":[0.14111125805441976,0.13745485360456997,0.9904639411619642]},{"bufferView":97,"componentType":5126,"count":96,"type":"VEC2"},{"bufferView":98,"componentType":5126,"count":90,"type":"VEC3","min":[-9.608327,-0.829433,-3.3646255000000007],"max":[-3.201606,-0.618338,2.2345384999999993]},{"bufferView":99,"componentType":5126,"count":90,"type":"VEC3","min":[-0.39718662308114505,-0.9646563194909538,0.13411722482143681],"max":[-0.0930195018734635,0.986590057864668,0.47197422863196153]},{"bufferView":100,"componentType":5126,"count":90,"type":"VEC2"},{"bufferView":101,"componentType":5126,"count":36,"type":"VEC3","min":[-5.253295,-0.827977,-1.4504355000000002],"max":[-3.497066,-0.740398,-0.2682555000000004]},{"bufferView":102,"componentType":5126,"count":36,"type":"VEC3","min":[-0.09058797219834952,-0.990781131095627,-0.10697637358755933],"max":[0.09122247978463265,0.99080513051624,0.10732259145993135]},{"bufferView":103,"componentType":5126,"count":36,"type":"VEC2"},{"bufferView":104,"componentType":5126,"count":24,"type":"VEC3","min":[-6.980553,-0.775532,-2.4401215000000005],"max":[-5.202751,-0.692745,-1.2651905000000006]},{"bufferView":105,"componentType":5126,"count":24,"type":"VEC3","min":[-0.08782333142410995,-0.9917100313122857,-0.10221040289663387],"max":[0.08853691942425591,0.9917365260894658,0.1025957702697866]},{"bufferView":106,"componentType":5126,"count":24,"type":"VEC2"},{"bufferView":107,"componentType":5126,"count":837,"type":"VEC3","min":[-9.822354,-1.404289,-4.281779500000001],"max":[-0.840707,-0.619019,3.9741484999999996]},{"bufferView":108,"componentType":5126,"count":837,"type":"VEC3","min":[-0.9999999964898105,-0.9999936661391506,-0.22693372904502826],"max":[0.9998871162584038,0.9999953779881244,0.46400246735197503]},{"bufferView":109,"componentType":5126,"count":837,"type":"VEC2"},{"bufferView":110,"componentType":5126,"count":42,"type":"VEC3","min":[-8.513517,-1.239628,-3.5879755000000007],"max":[-0.847797,-0.667581,0.3061054999999996]},{"bufferView":111,"componentType":5126,"count":42,"type":"VEC3","min":[-0.8819935644558294,-0.9643950350412237,-0.8518546783314411],"max":[1,0.000008231259140514687,0.47025148367831926]},{"bufferView":112,"componentType":5126,"count":42,"type":"VEC2"},{"bufferView":113,"componentType":5126,"count":6,"type":"VEC3","min":[-0.107846,2.169132,-8.3703905],"max":[0.105232,2.174001,-7.4102585]},{"bufferView":114,"componentType":5126,"count":6,"type":"VEC3","min":[0,-1,0],"max":[0,1,0]},{"bufferView":115,"componentType":5126,"count":6,"type":"VEC2"},{"bufferView":116,"componentType":5126,"count":78,"type":"VEC3","min":[-0.107846,0.674241,-8.701200499999999],"max":[0.105232,2.549446,-5.839749500000001]},{"bufferView":117,"componentType":5126,"count":78,"type":"VEC3","min":[-0.9903966933946697,-0.9998048658824499,-0.11517315629745388],"max":[0.9913439039763604,0.99980356377811,0.688500782046582]},{"bufferView":118,"componentType":5126,"count":78,"type":"VEC2"},{"bufferView":119,"componentType":5126,"count":6,"type":"VEC3","min":[0,-0.6,0.22190449999999962],"max":[0,0.6,1.4219044999999997]},{"bufferView":120,"componentType":5126,"count":6,"type":"VEC3","min":[1,0,0],"max":[1,0,0]},{"bufferView":121,"componentType":5126,"count":6,"type":"VEC2"},{"bufferView":122,"componentType":5126,"count":6,"type":"VEC3","min":[0,-0.6,0.22190449999999962],"max":[0,0.6,1.4219044999999997]},{"bufferView":123,"componentType":5126,"count":6,"type":"VEC3","min":[1,0,0],"max":[1,0,0]},{"bufferView":124,"componentType":5126,"count":6,"type":"VEC2"},{"bufferView":125,"componentType":5126,"count":6,"type":"VEC3","min":[-0.358771,-1.594691,9.0813095],"max":[0.358771,-0.877148,9.082351499999998]},{"bufferView":126,"componentType":5126,"count":6,"type":"VEC3","min":[-0.0014521782715179175,0,0.999998945588578],"max":[-0.001452178271517917,0,0.999998945588578]},{"bufferView":127,"componentType":5126,"count":6,"type":"VEC2"},{"bufferView":128,"componentType":5126,"count":192,"type":"VEC3","min":[-2.183144,0.649339,-4.5608915],"max":[2.182835,1.100568,-3.7814035000000006]},{"bufferView":129,"componentType":5126,"count":192,"type":"VEC3","min":[-0.9557026983559394,0.2564821290869344,-0.17167271445980073],"max":[0.9551028262561264,0.9858874254827609,-0.11222351046738231]},{"bufferView":130,"componentType":5126,"count":192,"type":"VEC2"},{"bufferView":131,"componentType":5126,"count":96,"type":"VEC3","min":[-2.176928,0.639024,-4.5608915],"max":[2.175867,1.094665,-3.7814035000000006]},{"bufferView":132,"componentType":5126,"count":96,"type":"VEC3","min":[-0.9582600898474474,-0.9858063036236406,0.14792629534001636],"max":[0.9531655517141118,-0.23852762790435758,0.17175768332419514]},{"bufferView":133,"componentType":5126,"count":96,"type":"VEC2"},{"bufferView":134,"componentType":5126,"count":174,"type":"VEC3","min":[-9.822354,-0.671262,-3.8466905000000002],"max":[9.822354,-0.619019,-3.5073195000000004]},{"bufferView":135,"componentType":5126,"count":174,"type":"VEC3","min":[-0.9999999965996854,-0.9951264429796317,-0.0014746791642744107],"max":[0.9999999965996854,0.9999980086922992,0.39336458903388904]},{"bufferView":136,"componentType":5126,"count":174,"type":"VEC2"},{"bufferView":137,"componentType":5126,"count":174,"type":"VEC3","min":[-9.822354,-0.671262,-3.8466905000000002],"max":[9.822354,-0.619019,-3.5073195000000004]},{"bufferView":138,"componentType":5126,"count":174,"type":"VEC3","min":[-0.9999999965996854,-0.9951264429796317,-0.0014746791642744107],"max":[0.9999999965996854,0.9999980086922992,0.39336458903388904]},{"bufferView":139,"componentType":5126,"count":174,"type":"VEC2"},{"bufferView":140,"componentType":5126,"count":660,"type":"VEC3","min":[-0.05203,-1.505957,-7.942497500000001],"max":[0.051969,3.765326,0.07288749999999955]},{"bufferView":141,"componentType":5126,"count":660,"type":"VEC3","min":[-1,-0.996759317687076,-0.951286314464876],"max":[1,0.998953270367001,0.9510376736411004]},{"bufferView":142,"componentType":5126,"count":660,"type":"VEC2"},{"bufferView":143,"componentType":5126,"count":660,"type":"VEC3","min":[-0.059727,-1.508609,-7.950849500000001],"max":[0.059666,3.770591,0.07758249999999955]},{"bufferView":144,"componentType":5126,"count":660,"type":"VEC3","min":[-1,-0.9967594853081257,-0.9512838211941246],"max":[1,0.9989533122826217,0.951038036846031]},{"bufferView":145,"componentType":5126,"count":660,"type":"VEC2"},{"bufferView":146,"componentType":5126,"count":144,"type":"VEC3","min":[-3.2032,-1.119079,2.0317524999999996],"max":[3.2032,-0.746902,4.3005235]},{"bufferView":147,"componentType":5126,"count":144,"type":"VEC3","min":[-0.5637048555697352,-0.9244196559820292,0.17437361922424596],"max":[0.5637048555697352,0.9749119506869643,0.6662455331342271]},{"bufferView":148,"componentType":5126,"count":144,"type":"VEC2"},{"bufferView":149,"componentType":5126,"count":675,"type":"VEC3","min":[-0.4035749924182892,0.23847931027412406,-10.304764747619629],"max":[0.3836159896850586,3.759136915206909,-2.633279999999999]},{"bufferView":150,"componentType":5126,"count":675,"type":"VEC3"},{"bufferView":151,"componentType":5126,"count":141,"type":"VEC3","min":[-0.20606900095939637,1.9001965176044733,-8.079594986304668],"max":[0.20302900016307832,3.251490038543367,-6.728301465365774]},{"bufferView":152,"componentType":5126,"count":141,"type":"VEC3"},{"bufferView":153,"componentType":5126,"count":141,"type":"VEC2"}],"extras":{"skyward":{"source":"https://github.com/FGMEMBERS/CitationX","commit":"e497ad98591fa8d441eba188517b7238d6b1f85d","license":"GPL-2.0","changes":"Triangulated AC3D exterior, authored crease normals, rigid nose +Z rotation; deployed landing gear and hidden cabin omitted for airborne display. Original meshes and texture coordinates retained. No dimensional stretching. Added surface-following operator tail paint and unmodified identification-logo texture. Branding is illustrative, not a registration-specific livery.","sourceFiles":["source/business/c750/Models/CitationX.ac"],"operator":"DLH"}}}