{"accessors":[{"bufferView":3,"componentType":5121,"count":36,"max":[15],"min":[0],"type":"SCALAR"},{"bufferView":4,"componentType":5126,"count":16,"max":[0.35661303997039795,2.1362597942352295,11.693927764892578],"min":[-0.35710594058036804,1.6333708763122559,-0.9183487296104431],"type":"VEC3"},{"bufferView":5,"componentType":5126,"count":16,"type":"VEC3"},{"bufferView":6,"componentType":5126,"count":16,"type":"VEC4"},{"bufferView":7,"componentType":5126,"count":16,"max":[0.5919103622436523,0.49410176277160645],"min":[0.4808253049850464,0.4461780786514282],"type":"VEC2"},{"bufferView":8,"componentType":5121,"count":6,"max":[3],"min":[0],"type":"SCALAR"},{"bufferView":9,"componentType":5126,"count":4,"max":[-0.06533779948949814,4.648426532745361,-12.749719619750977],"min":[-3.2039794921875,4.582159519195557,-14.427359580993652],"type":"VEC3"},{"bufferView":10,"componentType":5126,"count":4,"type":"VEC3"},{"bufferView":11,"componentType":5126,"count":4,"type":"VEC4"},{"bufferView":12,"componentType":5126,"count":4,"max":[0.980349600315094,0.5471032559871674],"min":[0.8878971934318542,0.520751565694809],"type":"VEC2"},{"bufferView":13,"componentType":5121,"count":48,"max":[27],"min":[0],"type":"SCALAR"},{"bufferView":14,"componentType":5126,"count":28,"max":[1.3913588523864746,1.446868896484375,12.774943351745605],"min":[-1.3913578987121582,1.0160279273986816,11.037769317626953],"type":"VEC3"},{"bufferView":15,"componentType":5126,"count":28,"type":"VEC3"},{"bufferView":16,"componentType":5126,"count":28,"type":"VEC4"},{"bufferView":17,"componentType":5126,"count":28,"max":[0.977168619632721,0.09081286191940308],"min":[0.9262454509735107,0.049564898014068604],"type":"VEC2"},{"bufferView":18,"componentType":5121,"count":96,"max":[33],"min":[0],"type":"SCALAR"},{"bufferView":19,"componentType":5126,"count":34,"max":[2.9771568775177,2.0787057876586914,-4.105233192443848],"min":[1.8226938247680664,0.911693811416626,-4.4777021408081055],"type":"VEC3"},{"bufferView":20,"componentType":5126,"count":34,"type":"VEC3"},{"bufferView":21,"componentType":5126,"count":34,"type":"VEC4"},{"bufferView":22,"componentType":5126,"count":34,"max":[0.6331973671913147,0.7365192770957947],"min":[0.390244722366333,0.49654316902160645],"type":"VEC2"},{"bufferView":23,"componentType":5121,"count":60,"max":[37],"min":[0],"type":"SCALAR"},{"bufferView":24,"componentType":5126,"count":38,"max":[-1.1514379849586476e-7,-0.4718599319458008,13.512094497680664],"min":[-0.2997840940952301,-0.6711539626121521,12.464942932128906],"type":"VEC3"},{"bufferView":25,"componentType":5126,"count":38,"type":"VEC3"},{"bufferView":26,"componentType":5126,"count":38,"type":"VEC4"},{"bufferView":27,"componentType":5126,"count":38,"max":[0.7136961221694946,0.5960472226142883],"min":[0.051703982055187225,0.38518857955932617],"type":"VEC2"},{"bufferView":28,"componentType":5121,"count":132,"max":[59],"min":[0],"type":"SCALAR"},{"bufferView":29,"componentType":5126,"count":60,"max":[11.444708824157715,1.4049673080444336,-2.190141439437866],"min":[11.12374210357666,0.002654336392879486,-3.4871084690093994],"type":"VEC3"},{"bufferView":30,"componentType":5126,"count":60,"type":"VEC3"},{"bufferView":31,"componentType":5126,"count":60,"type":"VEC4"},{"bufferView":32,"componentType":5126,"count":60,"max":[0.6160889267921448,0.9287508204579353],"min":[0.5726247429847717,0.8806554600596428],"type":"VEC2"},{"bufferView":33,"componentType":5121,"count":6,"max":[3],"min":[0],"type":"SCALAR"},{"bufferView":34,"componentType":5126,"count":4,"max":[0.12999093532562256,0.4100399613380432,2.51157808303833],"min":[0.12993788719177246,-0.4100409746170044,1.691498041152954],"type":"VEC3"},{"bufferView":35,"componentType":5126,"count":4,"type":"VEC3"},{"bufferView":36,"componentType":5126,"count":4,"type":"VEC4"},{"bufferView":37,"componentType":5126,"count":4,"max":[0.9624999761581421,0.4624999761581421],"min":[0.5375000238418579,0.03750002384185791],"type":"VEC2"},{"bufferView":38,"componentType":5121,"count":72,"max":[47],"min":[0],"type":"SCALAR"},{"bufferView":39,"componentType":5126,"count":48,"max":[1.4064399003982544,1.4764540195465088,12.098031997680664],"min":[-1.406437873840332,1.0166590213775635,10.97132396697998],"type":"VEC3"},{"bufferView":40,"componentType":5126,"count":48,"type":"VEC3"},{"bufferView":41,"componentType":5126,"count":48,"type":"VEC4"},{"bufferView":42,"componentType":5126,"count":48,"max":[0.9999368190765381,0.01718723773956299],"min":[0.8009486794471741,-0.00011134147644042969],"type":"VEC2"},{"bufferView":43,"componentType":5121,"count":24,"max":[13],"min":[0],"type":"SCALAR"},{"bufferView":44,"componentType":5126,"count":14,"max":[-4.551405906677246,-0.1336696296930313,-0.3992407023906708],"min":[-6.122952461242676,-0.216025710105896,-1.2555946111679077],"type":"VEC3"},{"bufferView":45,"componentType":5126,"count":14,"type":"VEC3"},{"bufferView":46,"componentType":5126,"count":14,"type":"VEC4"},{"bufferView":47,"componentType":5126,"count":14,"max":[0.3850036561489105,0.6496348083019257],"min":[0.08954956382513046,0.6276581585407257],"type":"VEC2"},{"bufferView":48,"componentType":5121,"count":18,"max":[17],"min":[0],"type":"SCALAR"},{"bufferView":49,"componentType":5126,"count":18,"max":[-1.9968039989471436,-0.42439085245132446,3.0015969276428223],"min":[-2.146789073944092,-0.5702328085899353,3.0014970302581787],"type":"VEC3"},{"bufferView":50,"componentType":5126,"count":18,"type":"VEC3"},{"bufferView":51,"componentType":5126,"count":18,"type":"VEC4"},{"bufferView":52,"componentType":5126,"count":18,"max":[0,1],"min":[0,1],"type":"VEC2"},{"bufferView":53,"componentType":5121,"count":96,"max":[33],"min":[0],"type":"SCALAR"},{"bufferView":54,"componentType":5126,"count":34,"max":[-1.8227949142456055,2.0787200927734375,-4.106218338012695],"min":[-2.97725772857666,0.9117080569267273,-4.478687286376953],"type":"VEC3"},{"bufferView":55,"componentType":5126,"count":34,"type":"VEC3"},{"bufferView":56,"componentType":5126,"count":34,"type":"VEC4"},{"bufferView":57,"componentType":5126,"count":34,"max":[0.6331973671913147,0.7365192770957947],"min":[0.390244722366333,0.49654316902160645],"type":"VEC2"},{"bufferView":58,"componentType":5121,"count":132,"max":[59],"min":[0],"type":"SCALAR"},{"bufferView":59,"componentType":5126,"count":60,"max":[-11.12965202331543,1.4049586057662964,-2.190141439437866],"min":[-11.450618743896484,0.0026456634514033794,-3.4871084690093994],"type":"VEC3"},{"bufferView":60,"componentType":5126,"count":60,"type":"VEC3"},{"bufferView":61,"componentType":5126,"count":60,"type":"VEC4"},{"bufferView":62,"componentType":5126,"count":60,"max":[0.6160889267921448,0.9287508204579353],"min":[0.5726247429847717,0.8806554600596428],"type":"VEC2"},{"bufferView":63,"componentType":5121,"count":33,"max":[22],"min":[0],"type":"SCALAR"},{"bufferView":64,"componentType":5126,"count":23,"max":[0.022948993369936943,1.3137208223342896,-11.995036125183105],"min":[-0.01892000436782837,1.2895668745040894,-12.009441375732422],"type":"VEC3"},{"bufferView":65,"componentType":5126,"count":23,"type":"VEC3"},{"bufferView":66,"componentType":5126,"count":23,"type":"VEC4"},{"bufferView":67,"componentType":5126,"count":23,"max":[0.9931640625,0.705078125],"min":[0.966796875,0.7001953125],"type":"VEC2"},{"bufferView":68,"componentType":5121,"count":18,"max":[9],"min":[0],"type":"SCALAR"},{"bufferView":69,"componentType":5126,"count":10,"max":[-1.844683051109314,-0.42343786358833313,3.090017080307007],"min":[-1.9920380115509033,-0.5712628960609436,3.090017080307007],"type":"VEC3"},{"bufferView":70,"componentType":5126,"count":10,"type":"VEC3"},{"bufferView":71,"componentType":5126,"count":10,"type":"VEC4"},{"bufferView":72,"componentType":5126,"count":10,"max":[0,1],"min":[0,1],"type":"VEC2"},{"bufferView":73,"componentType":5121,"count":348,"max":[154],"min":[0],"type":"SCALAR"},{"bufferView":74,"componentType":5126,"count":155,"max":[-0.7551621198654175,-0.5138269066810608,0.21891914308071136],"min":[-1.7649229764938354,-0.9212288856506348,-0.31786486506462097],"type":"VEC3"},{"bufferView":75,"componentType":5126,"count":155,"type":"VEC3"},{"bufferView":76,"componentType":5126,"count":155,"type":"VEC4"},{"bufferView":77,"componentType":5126,"count":155,"max":[0.6998371481895447,0.7608976811170578],"min":[0.028223732486367226,0.3949499726295471],"type":"VEC2"},{"bufferView":78,"componentType":5121,"count":48,"max":[31],"min":[0],"type":"SCALAR"},{"bufferView":79,"componentType":5126,"count":32,"max":[3.3056368827819824,4.753901481628418,-11.604186058044434],"min":[-3.305619478225708,4.550003528594971,-13.520011901855469],"type":"VEC3"},{"bufferView":80,"componentType":5126,"count":32,"type":"VEC3"},{"bufferView":81,"componentType":5126,"count":32,"type":"VEC4"},{"bufferView":82,"componentType":5126,"count":32,"max":[0.00006134441355243325,0.999894118620432],"min":[0.00006134441355243325,0.999894118620432],"type":"VEC2"},{"bufferView":83,"componentType":5121,"count":54,"max":[41],"min":[0],"type":"SCALAR"},{"bufferView":84,"componentType":5126,"count":42,"max":[0.035851866006851196,-0.7877509593963623,6.583841800689697],"min":[-0.0358511321246624,-0.827691912651062,6.4235758781433105],"type":"VEC3"},{"bufferView":85,"componentType":5126,"count":42,"type":"VEC3"},{"bufferView":86,"componentType":5126,"count":42,"type":"VEC4"},{"bufferView":87,"componentType":5126,"count":42,"max":[1,1],"min":[0,0],"type":"VEC2"},{"bufferView":88,"componentType":5121,"count":132,"max":[81],"min":[0],"type":"SCALAR"},{"bufferView":89,"componentType":5126,"count":82,"max":[7.823956489562988,-0.11387745290994644,-0.33467790484428406],"min":[4.0663065910339355,-0.571736216545105,-2.1583244800567627],"type":"VEC3"},{"bufferView":90,"componentType":5126,"count":82,"type":"VEC3"},{"bufferView":91,"componentType":5126,"count":82,"type":"VEC4"},{"bufferView":92,"componentType":5126,"count":82,"max":[0.6697558164596558,0.6489430665969849],"min":[0.06010366231203079,0.5675795078277588],"type":"VEC2"},{"bufferView":93,"componentType":5121,"count":12,"max":[7],"min":[0],"type":"SCALAR"},{"bufferView":94,"componentType":5126,"count":8,"max":[7.67561149597168,-0.08431745320558548,-0.9578027129173279],"min":[6.113419532775879,-0.16497935354709625,-1.7614268064498901],"type":"VEC3"},{"bufferView":95,"componentType":5126,"count":8,"type":"VEC3"},{"bufferView":96,"componentType":5126,"count":8,"type":"VEC4"},{"bufferView":97,"componentType":5126,"count":8,"max":[0.3851456344127655,0.6492420434951782],"min":[0.0634438693523407,0.6256308257579803],"type":"VEC2"},{"bufferView":98,"componentType":5121,"count":288,"max":[89],"min":[0],"type":"SCALAR"},{"bufferView":99,"componentType":5126,"count":90,"max":[3.148646831512451,2.2606797218322754,-5.308299541473389],"min":[1.6511468887329102,0.6990018486976624,-6.17048454284668],"type":"VEC3"},{"bufferView":100,"componentType":5126,"count":90,"type":"VEC3"},{"bufferView":101,"componentType":5126,"count":90,"type":"VEC4"},{"bufferView":102,"componentType":5126,"count":90,"max":[0.9866354465484619,0.6366245150566101],"min":[0.6690948605537415,0.43735772371292114],"type":"VEC2"},{"bufferView":103,"componentType":5121,"count":36,"max":[23],"min":[0],"type":"SCALAR"},{"bufferView":104,"componentType":5126,"count":24,"max":[0.10659800469875336,4.430769443511963,-10.868769645690918],"min":[-0.10660197585821152,1.405681848526001,-13.534852027893066],"type":"VEC3"},{"bufferView":105,"componentType":5126,"count":24,"type":"VEC3"},{"bufferView":106,"componentType":5126,"count":24,"type":"VEC4"},{"bufferView":107,"componentType":5126,"count":24,"max":[0.976004958152771,0.948547013103962],"min":[0.023995669558644295,0.7973343133926392],"type":"VEC2"},{"bufferView":108,"componentType":5123,"count":2451,"max":[1152],"min":[0],"type":"SCALAR"},{"bufferView":109,"componentType":5126,"count":1153,"max":[11.456656455993652,1.4049652814865112,5.164340972900391],"min":[-0.14167208969593048,-0.9365469217300415,-3.4871084690093994],"type":"VEC3"},{"bufferView":110,"componentType":5126,"count":1153,"type":"VEC3"},{"bufferView":111,"componentType":5126,"count":1153,"type":"VEC4"},{"bufferView":112,"componentType":5126,"count":1153,"max":[0.6685704588890076,0.9309460297226906],"min":[0.001433208934031427,0.37198299169540405],"type":"VEC2"},{"bufferView":113,"componentType":5123,"count":1620,"max":[524],"min":[0],"type":"SCALAR"},{"bufferView":114,"componentType":5126,"count":525,"max":[1.5298988819122314,2.1471617221832275,14.489777565002441],"min":[-1.5298969745635986,-0.7886869311332703,-11.993054389953613],"type":"VEC3"},{"bufferView":115,"componentType":5126,"count":525,"type":"VEC3"},{"bufferView":116,"componentType":5126,"count":525,"type":"VEC4"},{"bufferView":117,"componentType":5126,"count":525,"max":[0.9420145153999329,0.8094994425773621],"min":[0.0013681193813681602,0.055508553981781006],"type":"VEC2"},{"bufferView":118,"componentType":5121,"count":132,"max":[49],"min":[0],"type":"SCALAR"},{"bufferView":119,"componentType":5126,"count":50,"max":[-1.4709290266036987,-0.027651527896523476,3.990380048751831],"min":[-8.014622688293457,-0.36558085680007935,-1.0269407033920288],"type":"VEC3"},{"bufferView":120,"componentType":5126,"count":50,"type":"VEC3"},{"bufferView":121,"componentType":5126,"count":50,"type":"VEC4"},{"bufferView":122,"componentType":5126,"count":50,"max":[0.3183535933494568,0.6210755705833435],"min":[0.19336992502212524,0.5875579118728638],"type":"VEC2"},{"bufferView":123,"componentType":5121,"count":36,"max":[22],"min":[0],"type":"SCALAR"},{"bufferView":124,"componentType":5126,"count":23,"max":[1.4504399299621582,0.003576913382858038,3.7283670902252197],"min":[-1.4519399404525757,-0.09970808029174805,3.62138295173645],"type":"VEC3"},{"bufferView":125,"componentType":5126,"count":23,"type":"VEC3"},{"bufferView":126,"componentType":5126,"count":23,"type":"VEC4"},{"bufferView":127,"componentType":5126,"count":23,"max":[0,1],"min":[0,1],"type":"VEC2"},{"bufferView":128,"componentType":5121,"count":24,"max":[11],"min":[0],"type":"SCALAR"},{"bufferView":129,"componentType":5126,"count":12,"max":[0.0728151947259903,4.889907360076904,-8.88205623626709],"min":[-0.07281679660081863,2.3713347911834717,-11.155314445495605],"type":"VEC3"},{"bufferView":130,"componentType":5126,"count":12,"type":"VEC3"},{"bufferView":131,"componentType":5126,"count":12,"type":"VEC4"},{"bufferView":132,"componentType":5126,"count":12,"max":[0.0000854222453199327,0.9999213172122836],"min":[0.0000854222453199327,0.9999213172122836],"type":"VEC2"},{"bufferView":133,"componentType":5121,"count":552,"max":[243],"min":[0],"type":"SCALAR"},{"bufferView":134,"componentType":5126,"count":244,"max":[3.40775990486145,4.894944667816162,-11.808082580566406],"min":[-3.407742500305176,4.467885494232178,-14.489777565002441],"type":"VEC3"},{"bufferView":135,"componentType":5126,"count":244,"type":"VEC3"},{"bufferView":136,"componentType":5126,"count":244,"type":"VEC4"},{"bufferView":137,"componentType":5126,"count":244,"max":[0.9862213134765625,0.7959736436605453],"min":[0.05896938592195511,0.5379151999950409],"type":"VEC2"},{"bufferView":138,"componentType":5121,"count":54,"max":[41],"min":[0],"type":"SCALAR"},{"bufferView":139,"componentType":5126,"count":42,"max":[0.039164043962955475,2.171754837036133,6.587855815887451],"min":[-0.03916395083069801,2.1294987201690674,6.4196624755859375],"type":"VEC3"},{"bufferView":140,"componentType":5126,"count":42,"type":"VEC3"},{"bufferView":141,"componentType":5126,"count":42,"type":"VEC4"},{"bufferView":142,"componentType":5126,"count":42,"max":[1,1],"min":[0,0],"type":"VEC2"},{"bufferView":143,"componentType":5121,"count":120,"max":[87],"min":[0],"type":"SCALAR"},{"bufferView":144,"componentType":5126,"count":88,"max":[0.009044041857123375,2.4196887016296387,7.728376865386963],"min":[-0.009043129161000252,-1.0887168645858765,-12.100393295288086],"type":"VEC3"},{"bufferView":145,"componentType":5126,"count":88,"type":"VEC3"},{"bufferView":146,"componentType":5126,"count":88,"type":"VEC4"},{"bufferView":147,"componentType":5126,"count":88,"max":[0.02794739603996277,0.2854350209236145],"min":[0.027931183576583862,0.2854188084602356],"type":"VEC2"},{"bufferView":148,"componentType":5121,"count":60,"max":[23],"min":[0],"type":"SCALAR"},{"bufferView":149,"componentType":5126,"count":24,"max":[1.0777308940887451,2.0220110416412354,-7.3093719482421875],"min":[-1.0777289867401123,0.9545668959617615,-9.302704811096191],"type":"VEC3"},{"bufferView":150,"componentType":5126,"count":24,"type":"VEC3"},{"bufferView":151,"componentType":5126,"count":24,"type":"VEC4"},{"bufferView":152,"componentType":5126,"count":24,"max":[0.8493685722351074,0.3373357653617859],"min":[0.09401406347751617,0.06880730390548706],"type":"VEC2"},{"bufferView":153,"componentType":5121,"count":288,"max":[89],"min":[0],"type":"SCALAR"},{"bufferView":154,"componentType":5126,"count":90,"max":[-1.6511468887329102,2.2606799602508545,-5.308299541473389],"min":[-3.148646831512451,0.6990021467208862,-6.17048454284668],"type":"VEC3"},{"bufferView":155,"componentType":5126,"count":90,"type":"VEC3"},{"bufferView":156,"componentType":5126,"count":90,"type":"VEC4"},{"bufferView":157,"componentType":5126,"count":90,"max":[0.6700369715690613,0.6366245150566101],"min":[0.027865510433912277,0.43222880363464355],"type":"VEC2"},{"bufferView":158,"componentType":5121,"count":6,"max":[3],"min":[0],"type":"SCALAR"},{"bufferView":159,"componentType":5126,"count":4,"max":[11.096604347229004,0.0014313410501927137,-1.9265016317367554],"min":[11.052885055541992,-0.020872659981250763,-1.9640005826950073],"type":"VEC3"},{"bufferView":160,"componentType":5126,"count":4,"type":"VEC3"},{"bufferView":161,"componentType":5126,"count":4,"type":"VEC4"},{"bufferView":162,"componentType":5126,"count":4,"max":[0.9739990234375,0.70489501953125],"min":[0.9700927734375,0.7047119140625],"type":"VEC2"},{"bufferView":163,"componentType":5121,"count":36,"max":[23],"min":[0],"type":"SCALAR"},{"bufferView":164,"componentType":5126,"count":24,"max":[0.09895700961351395,4.430769443511963,-10.868769645690918],"min":[-0.0989609807729721,1.405681848526001,-13.534852027893066],"type":"VEC3"},{"bufferView":165,"componentType":5126,"count":24,"type":"VEC3"},{"bufferView":166,"componentType":5126,"count":24,"type":"VEC4"},{"bufferView":167,"componentType":5126,"count":24,"max":[0.976004958152771,0.948547013103962],"min":[0.023995669558644295,0.7973343133926392],"type":"VEC2"},{"bufferView":168,"componentType":5121,"count":120,"max":[71],"min":[0],"type":"SCALAR"},{"bufferView":169,"componentType":5126,"count":72,"max":[3.9467597007751465,-0.23742222785949707,-0.09956073015928268],"min":[1.4399497509002686,-0.8661290407180786,-1.0828226804733276],"type":"VEC3"},{"bufferView":170,"componentType":5126,"count":72,"type":"VEC3"},{"bufferView":171,"componentType":5126,"count":72,"type":"VEC4"},{"bufferView":172,"componentType":5126,"count":72,"max":[0.7382481098175049,0.661570280790329],"min":[0.030308013781905174,0.5715920031070709],"type":"VEC2"},{"bufferView":173,"componentType":5121,"count":132,"max":[49],"min":[0],"type":"SCALAR"},{"bufferView":174,"componentType":5126,"count":50,"max":[8.01462173461914,-0.027643468230962753,3.990380048751831],"min":[1.4709289073944092,-0.36558109521865845,-1.0269407033920288],"type":"VEC3"},{"bufferView":175,"componentType":5126,"count":50,"type":"VEC3"},{"bufferView":176,"componentType":5126,"count":50,"type":"VEC4"},{"bufferView":177,"componentType":5126,"count":50,"max":[0.19046011567115784,0.6210755705833435],"min":[0.06547649204730988,0.5875579118728638],"type":"VEC2"},{"bufferView":178,"componentType":5121,"count":300,"max":[105],"min":[0],"type":"SCALAR"},{"bufferView":179,"componentType":5126,"count":106,"max":[-1.7367489337921143,2.20711088180542,-3.592646360397339],"min":[-3.0631048679351807,0.7951711416244507,-7.9246978759765625],"type":"VEC3"},{"bufferView":180,"componentType":5126,"count":106,"type":"VEC3"},{"bufferView":181,"componentType":5126,"count":106,"type":"VEC4"},{"bufferView":182,"componentType":5126,"count":106,"max":[0.00004073185846209526,0.9999463986605406],"min":[0.00004073185846209526,0.9999463986605406],"type":"VEC2"},{"bufferView":183,"componentType":5123,"count":2451,"max":[1144],"min":[0],"type":"SCALAR"},{"bufferView":184,"componentType":5126,"count":1145,"max":[0.14167189598083496,1.4049595594406128,5.164340972900391],"min":[-11.456656455993652,-0.9365469217300415,-3.4871084690093994],"type":"VEC3"},{"bufferView":185,"componentType":5126,"count":1145,"type":"VEC3"},{"bufferView":186,"componentType":5126,"count":1145,"type":"VEC4"},{"bufferView":187,"componentType":5126,"count":1145,"max":[0.6685704588890076,0.9309460297226906],"min":[0.19332347810268402,0.14975905418395996],"type":"VEC2"},{"bufferView":188,"componentType":5121,"count":504,"max":[231],"min":[0],"type":"SCALAR"},{"bufferView":189,"componentType":5126,"count":232,"max":[0.16284696757793427,1.4065288305282593,12.794580459594727],"min":[-0.15731900930404663,0.9545889496803284,12.163387298583984],"type":"VEC3"},{"bufferView":190,"componentType":5126,"count":232,"type":"VEC3"},{"bufferView":191,"componentType":5126,"count":232,"type":"VEC4"},{"bufferView":192,"componentType":5126,"count":232,"max":[0.825670599937439,0.7631856799125671],"min":[0.4932810068130493,0.5780464112758636],"type":"VEC2"},{"bufferView":193,"componentType":5121,"count":18,"max":[11],"min":[0],"type":"SCALAR"},{"bufferView":194,"componentType":5126,"count":12,"max":[0.21683819591999054,4.856218338012695,-13.688673973083496],"min":[-0.21101081371307373,4.456193447113037,-14.161063194274902],"type":"VEC3"},{"bufferView":195,"componentType":5126,"count":12,"type":"VEC3"},{"bufferView":196,"componentType":5126,"count":12,"type":"VEC4"},{"bufferView":197,"componentType":5126,"count":12,"max":[0.46688470244407654,0.9563559852540493],"min":[0.04188475012779236,0.5313560366630554],"type":"VEC2"},{"bufferView":198,"componentType":5121,"count":12,"max":[5],"min":[0],"type":"SCALAR"},{"bufferView":199,"componentType":5126,"count":6,"max":[2.2832558155059814,-0.34885212779045105,3.4800660610198975],"min":[1.7634507417678833,-0.5876290798187256,3.0072450637817383],"type":"VEC3"},{"bufferView":200,"componentType":5126,"count":6,"type":"VEC3"},{"bufferView":201,"componentType":5126,"count":6,"type":"VEC4"},{"bufferView":202,"componentType":5126,"count":6,"max":[0.9670610427856445,0.05979222059249878],"min":[0.9670610427856445,0.05979222059249878],"type":"VEC2"},{"bufferView":203,"componentType":5121,"count":120,"max":[71],"min":[0],"type":"SCALAR"},{"bufferView":204,"componentType":5126,"count":72,"max":[-1.4399499893188477,-0.23742175102233887,-0.09956073015928268],"min":[-3.9467597007751465,-0.8661288022994995,-1.0828226804733276],"type":"VEC3"},{"bufferView":205,"componentType":5126,"count":72,"type":"VEC3"},{"bufferView":206,"componentType":5126,"count":72,"type":"VEC4"},{"bufferView":207,"componentType":5126,"count":72,"max":[0.7382481098175049,0.661570280790329],"min":[0.030308013781905174,0.5715920031070709],"type":"VEC2"},{"bufferView":208,"componentType":5121,"count":6,"max":[3],"min":[0],"type":"SCALAR"},{"bufferView":209,"componentType":5126,"count":4,"max":[0.12999193370342255,0.4115139842033386,2.511168956756592],"min":[0.12993888556957245,-0.40774595737457275,1.6919081211090088],"type":"VEC3"},{"bufferView":210,"componentType":5126,"count":4,"type":"VEC3"},{"bufferView":211,"componentType":5126,"count":4,"type":"VEC4"},{"bufferView":212,"componentType":5126,"count":4,"max":[0.9624999761581421,0.4624999761581421],"min":[0.5375000238418579,0.03750002384185791],"type":"VEC2"},{"bufferView":213,"componentType":5121,"count":36,"max":[19],"min":[0],"type":"SCALAR"},{"bufferView":214,"componentType":5126,"count":20,"max":[11.12977123260498,0.04057234153151512,-1.7821937799453735],"min":[10.954995155334473,-0.0797046571969986,-2.006704568862915],"type":"VEC3"},{"bufferView":215,"componentType":5126,"count":20,"type":"VEC3"},{"bufferView":216,"componentType":5126,"count":20,"type":"VEC4"},{"bufferView":217,"componentType":5126,"count":20,"max":[0.9416168332099915,0.08001983165740967],"min":[0.9368724226951599,0.07635194063186646],"type":"VEC2"},{"bufferView":218,"componentType":5121,"count":54,"max":[41],"min":[0],"type":"SCALAR"},{"bufferView":219,"componentType":5126,"count":42,"max":[0.038240864872932434,-0.7876809239387512,6.587655544281006],"min":[-0.038241129368543625,-0.8296029567718506,6.419320583343506],"type":"VEC3"},{"bufferView":220,"componentType":5126,"count":42,"type":"VEC3"},{"bufferView":221,"componentType":5126,"count":42,"type":"VEC4"},{"bufferView":222,"componentType":5126,"count":42,"max":[1,1],"min":[0,0],"type":"VEC2"},{"bufferView":223,"componentType":5121,"count":6,"max":[3],"min":[0],"type":"SCALAR"},{"bufferView":224,"componentType":5126,"count":4,"max":[3.203979969024658,4.648426532745361,-12.74971866607666],"min":[0.06533818691968918,4.582159519195557,-14.427359580993652],"type":"VEC3"},{"bufferView":225,"componentType":5126,"count":4,"type":"VEC3"},{"bufferView":226,"componentType":5126,"count":4,"type":"VEC4"},{"bufferView":227,"componentType":5126,"count":4,"max":[0.980349600315094,0.5471032559871674],"min":[0.8878971934318542,0.520751565694809],"type":"VEC2"},{"bufferView":228,"componentType":5121,"count":48,"max":[35],"min":[0],"type":"SCALAR"},{"bufferView":229,"componentType":5126,"count":36,"max":[-10.983987808227539,0.001842657569795847,-1.846084713935852],"min":[-11.049172401428223,-0.023972343653440475,-1.9190458059310913],"type":"VEC3"},{"bufferView":230,"componentType":5126,"count":36,"type":"VEC3"},{"bufferView":231,"componentType":5126,"count":36,"type":"VEC4"},{"bufferView":232,"componentType":5126,"count":36,"max":[0.9883725047111511,1],"min":[0,0.22857290506362915],"type":"VEC2"},{"bufferView":233,"componentType":5121,"count":12,"max":[7],"min":[0],"type":"SCALAR"},{"bufferView":234,"componentType":5126,"count":8,"max":[-6.113419532775879,-0.08432453870773315,-0.9578027129173279],"min":[-7.67561149597168,-0.16497862339019775,-1.7614268064498901],"type":"VEC3"},{"bufferView":235,"componentType":5126,"count":8,"type":"VEC3"},{"bufferView":236,"componentType":5126,"count":8,"type":"VEC4"},{"bufferView":237,"componentType":5126,"count":8,"max":[0.3851456344127655,0.6492420434951782],"min":[0.0634438693523407,0.6256308257579803],"type":"VEC2"},{"bufferView":238,"componentType":5121,"count":36,"max":[35],"min":[0],"type":"SCALAR"},{"bufferView":239,"componentType":5126,"count":36,"max":[1.5266308784484863,1.4005169868469238,-6.831815719604492],"min":[-1.6369868516921997,1.3812118768692017,-6.906264305114746],"type":"VEC3"},{"bufferView":240,"componentType":5126,"count":36,"type":"VEC3"},{"bufferView":241,"componentType":5126,"count":36,"type":"VEC4"},{"bufferView":242,"componentType":5126,"count":36,"max":[0,1],"min":[0,1],"type":"VEC2"},{"bufferView":243,"componentType":5121,"count":36,"max":[19],"min":[0],"type":"SCALAR"},{"bufferView":244,"componentType":5126,"count":20,"max":[-10.954994201660156,0.04056665673851967,-1.78219473361969],"min":[-11.129770278930664,-0.07971033453941345,-2.0067055225372314],"type":"VEC3"},{"bufferView":245,"componentType":5126,"count":20,"type":"VEC3"},{"bufferView":246,"componentType":5126,"count":20,"type":"VEC4"},{"bufferView":247,"componentType":5126,"count":20,"max":[0.9416168332099915,0.08001983165740967],"min":[0.9368724226951599,0.07635194063186646],"type":"VEC2"},{"bufferView":248,"componentType":5123,"count":1182,"max":[411],"min":[0],"type":"SCALAR"},{"bufferView":249,"componentType":5126,"count":412,"max":[1.5337717533111572,0.3783070743083954,5.371579647064209],"min":[-1.53377103805542,-0.9668479561805725,-3.7936437129974365],"type":"VEC3"},{"bufferView":250,"componentType":5126,"count":412,"type":"VEC3"},{"bufferView":251,"componentType":5126,"count":412,"type":"VEC4"},{"bufferView":252,"componentType":5126,"count":412,"max":[0.6533515453338623,0.75766921043396],"min":[0.2902001738548279,0.12513232231140137],"type":"VEC2"},{"bufferView":253,"componentType":5121,"count":24,"max":[13],"min":[0],"type":"SCALAR"},{"bufferView":254,"componentType":5126,"count":14,"max":[6.122952461242676,-0.1336713582277298,-0.3992407023906708],"min":[4.551405429840088,-0.21602725982666016,-1.2555946111679077],"type":"VEC3"},{"bufferView":255,"componentType":5126,"count":14,"type":"VEC3"},{"bufferView":256,"componentType":5126,"count":14,"type":"VEC4"},{"bufferView":257,"componentType":5126,"count":14,"max":[0.3850036561489105,0.6496348083019257],"min":[0.08954956382513046,0.6276581585407257],"type":"VEC2"},{"bufferView":258,"componentType":5121,"count":18,"max":[11],"min":[0],"type":"SCALAR"},{"bufferView":259,"componentType":5126,"count":12,"max":[0.9502949118614197,1.4909348487854004,12.764201164245605],"min":[-0.941616952419281,0.9886299967765808,11.686441421508789],"type":"VEC3"},{"bufferView":260,"componentType":5126,"count":12,"type":"VEC3"},{"bufferView":261,"componentType":5126,"count":12,"type":"VEC4"},{"bufferView":262,"componentType":5126,"count":12,"max":[0.7981583476066589,0.017123162746429443],"min":[0.6824874877929688,0.0001646280288696289],"type":"VEC2"},{"bufferView":263,"componentType":5121,"count":96,"max":[83],"min":[0],"type":"SCALAR"},{"bufferView":264,"componentType":5126,"count":84,"max":[0.029190992936491966,1.3224828243255615,-11.976961135864258],"min":[-0.028693003579974174,1.2848658561706543,-11.99990463256836],"type":"VEC3"},{"bufferView":265,"componentType":5126,"count":84,"type":"VEC3"},{"bufferView":266,"componentType":5126,"count":84,"type":"VEC4"},{"bufferView":267,"componentType":5126,"count":84,"max":[1,1],"min":[0,0],"type":"VEC2"},{"bufferView":268,"componentType":5121,"count":12,"max":[5],"min":[0],"type":"SCALAR"},{"bufferView":269,"componentType":5126,"count":6,"max":[-1.7634509801864624,-0.34885185956954956,3.4800660610198975],"min":[-2.2832560539245605,-0.5876289010047913,3.0072450637817383],"type":"VEC3"},{"bufferView":270,"componentType":5126,"count":6,"type":"VEC3"},{"bufferView":271,"componentType":5126,"count":6,"type":"VEC4"},{"bufferView":272,"componentType":5126,"count":6,"max":[0.9670610427856445,0.05979222059249878],"min":[0.9670610427856445,0.05979222059249878],"type":"VEC2"},{"bufferView":273,"componentType":5121,"count":60,"max":[39],"min":[0],"type":"SCALAR"},{"bufferView":274,"componentType":5126,"count":40,"max":[0.03943604230880737,2.129448652267456,6.611047744750977],"min":[-0.03943595662713051,2.1075778007507324,6.399742603302002],"type":"VEC3"},{"bufferView":275,"componentType":5126,"count":40,"type":"VEC3"},{"bufferView":276,"componentType":5126,"count":40,"type":"VEC4"},{"bufferView":277,"componentType":5126,"count":40,"max":[1,1],"min":[0,0],"type":"VEC2"},{"bufferView":278,"componentType":5121,"count":30,"max":[13],"min":[0],"type":"SCALAR"},{"bufferView":279,"componentType":5126,"count":14,"max":[2.5218987464904785,-0.12673886120319366,2.920741081237793],"min":[-2.5096049308776855,-0.180009126663208,1.9766850471496582],"type":"VEC3"},{"bufferView":280,"componentType":5126,"count":14,"type":"VEC3"},{"bufferView":281,"componentType":5126,"count":14,"type":"VEC4"},{"bufferView":282,"componentType":5126,"count":14,"max":[0.6844276189804077,0.5063279271125793],"min":[0.6597817540168762,0.47644031047821045],"type":"VEC2"},{"bufferView":283,"componentType":5121,"count":33,"max":[24],"min":[0],"type":"SCALAR"},{"bufferView":284,"componentType":5126,"count":25,"max":[0.024248193949460983,4.680023670196533,-13.890525817871094],"min":[-0.025321803987026215,4.651617527008057,-13.906468391418457],"type":"VEC3"},{"bufferView":285,"componentType":5126,"count":25,"type":"VEC3"},{"bufferView":286,"componentType":5126,"count":25,"type":"VEC4"},{"bufferView":287,"componentType":5126,"count":25,"max":[0.9931640625,0.705078125],"min":[0.966796875,0.7001953125],"type":"VEC2"},{"bufferView":288,"componentType":5121,"count":60,"max":[37],"min":[0],"type":"SCALAR"},{"bufferView":289,"componentType":5126,"count":38,"max":[0.03943686932325363,-0.7658779621124268,6.6113739013671875],"min":[-0.03943612799048424,-0.7877489328384399,6.393987655639648],"type":"VEC3"},{"bufferView":290,"componentType":5126,"count":38,"type":"VEC3"},{"bufferView":291,"componentType":5126,"count":38,"type":"VEC4"},{"bufferView":292,"componentType":5126,"count":38,"max":[1,1],"min":[0,0],"type":"VEC2"},{"bufferView":293,"componentType":5123,"count":912,"max":[362],"min":[0],"type":"SCALAR"},{"bufferView":294,"componentType":5126,"count":363,"max":[-1.651175856590271,2.2605929374694824,-3.592646360397339],"min":[-3.148674726486206,0.6989151239395142,-7.9246978759765625],"type":"VEC3"},{"bufferView":295,"componentType":5126,"count":363,"type":"VEC3"},{"bufferView":296,"componentType":5126,"count":363,"type":"VEC4"},{"bufferView":297,"componentType":5126,"count":363,"max":[0.6728938221931458,0.7668632119894028],"min":[0.056634120643138885,0.4321502447128296],"type":"VEC2"},{"bufferView":298,"componentType":5121,"count":60,"max":[39],"min":[0],"type":"SCALAR"},{"bufferView":299,"componentType":5126,"count":40,"max":[-7.6587066650390625,-0.028908416628837585,-1.7446388006210327],"min":[-9.738836288452148,-0.16911152005195618,-2.7488386631011963],"type":"VEC3"},{"bufferView":300,"componentType":5126,"count":40,"type":"VEC3"},{"bufferView":301,"componentType":5126,"count":40,"type":"VEC4"},{"bufferView":302,"componentType":5126,"count":40,"max":[0.7221845388412476,0.6354279518127441],"min":[0.026846209540963173,0.5654266774654388],"type":"VEC2"},{"bufferView":303,"componentType":5121,"count":363,"max":[131],"min":[0],"type":"SCALAR"},{"bufferView":304,"componentType":5126,"count":132,"max":[0.15927301347255707,4.966674327850342,-7.46046257019043],"min":[-0.15930697321891785,1.5184078216552734,-13.890294075012207],"type":"VEC3"},{"bufferView":305,"componentType":5126,"count":132,"type":"VEC3"},{"bufferView":306,"componentType":5126,"count":132,"type":"VEC4"},{"bufferView":307,"componentType":5126,"count":132,"max":[0.9932495355606079,0.9430317170917988],"min":[0.0067934212274849415,0.7716953754425049],"type":"VEC2"},{"bufferView":308,"componentType":5121,"count":192,"max":[81],"min":[0],"type":"SCALAR"},{"bufferView":309,"componentType":5126,"count":82,"max":[3.40775990486145,4.65020751953125,-11.808082580566406],"min":[-3.407742500305176,4.467885494232178,-14.48747730255127],"type":"VEC3"},{"bufferView":310,"componentType":5126,"count":82,"type":"VEC3"},{"bufferView":311,"componentType":5126,"count":82,"type":"VEC4"},{"bufferView":312,"componentType":5126,"count":82,"max":[0.9862213134765625,0.7959736436605453],"min":[0.05896938592195511,0.5379151999950409],"type":"VEC2"},{"bufferView":313,"componentType":5121,"count":12,"max":[7],"min":[0],"type":"SCALAR"},{"bufferView":314,"componentType":5126,"count":8,"max":[-0.06533779948949814,4.7182207107543945,-12.74971866607666],"min":[-3.2039794921875,4.585687637329102,-14.427359580993652],"type":"VEC3"},{"bufferView":315,"componentType":5126,"count":8,"type":"VEC3"},{"bufferView":316,"componentType":5126,"count":8,"type":"VEC4"},{"bufferView":317,"componentType":5126,"count":8,"max":[0.980349600315094,0.6171406209468842],"min":[0.8875482082366943,0.520751565694809],"type":"VEC2"},{"bufferView":318,"componentType":5121,"count":18,"max":[10],"min":[0],"type":"SCALAR"},{"bufferView":319,"componentType":5126,"count":11,"max":[1.9897468090057373,-0.42347708344459534,3.0901448726654053],"min":[1.8464068174362183,-0.5714450478553772,3.0901448726654053],"type":"VEC3"},{"bufferView":320,"componentType":5126,"count":11,"type":"VEC3"},{"bufferView":321,"componentType":5126,"count":11,"type":"VEC4"},{"bufferView":322,"componentType":5126,"count":11,"max":[0,1],"min":[0,1],"type":"VEC2"},{"bufferView":323,"componentType":5121,"count":6,"max":[3],"min":[0],"type":"SCALAR"},{"bufferView":324,"componentType":5126,"count":4,"max":[-11.05288314819336,0.0014256613794714212,-1.9265025854110718],"min":[-11.096602439880371,-0.020878341048955917,-1.9640005826950073],"type":"VEC3"},{"bufferView":325,"componentType":5126,"count":4,"type":"VEC3"},{"bufferView":326,"componentType":5126,"count":4,"type":"VEC4"},{"bufferView":327,"componentType":5126,"count":4,"max":[0.9739990234375,0.70489501953125],"min":[0.9700927734375,0.7047119140625],"type":"VEC2"},{"bufferView":328,"componentType":5121,"count":30,"max":[13],"min":[0],"type":"SCALAR"},{"bufferView":329,"componentType":5126,"count":14,"max":[2.5218987464904785,-0.12564611434936523,2.920741081237793],"min":[-2.5096049308776855,-0.1789168417453766,1.9766850471496582],"type":"VEC3"},{"bufferView":330,"componentType":5126,"count":14,"type":"VEC3"},{"bufferView":331,"componentType":5126,"count":14,"type":"VEC4"},{"bufferView":332,"componentType":5126,"count":14,"max":[0.6844276189804077,0.5063279271125793],"min":[0.6597817540168762,0.47644031047821045],"type":"VEC2"},{"bufferView":333,"componentType":5121,"count":18,"max":[7],"min":[0],"type":"SCALAR"},{"bufferView":334,"componentType":5126,"count":8,"max":[2.1453428268432617,-0.4236260950565338,3.001481056213379],"min":[2.001757860183716,-0.5711981058120728,3.001481056213379],"type":"VEC3"},{"bufferView":335,"componentType":5126,"count":8,"type":"VEC3"},{"bufferView":336,"componentType":5126,"count":8,"type":"VEC4"},{"bufferView":337,"componentType":5126,"count":8,"max":[0,1],"min":[0,1],"type":"VEC2"},{"bufferView":338,"componentType":5121,"count":258,"max":[80],"min":[0],"type":"SCALAR"},{"bufferView":339,"componentType":5126,"count":81,"max":[10.846321105957031,0.0340893529355526,3.4800660610198975],"min":[1.6831417083740234,-0.6415690779685974,-1.8004127740859985],"type":"VEC3"},{"bufferView":340,"componentType":5126,"count":81,"type":"VEC3"},{"bufferView":341,"componentType":5126,"count":81,"type":"VEC4"},{"bufferView":342,"componentType":5126,"count":81,"max":[0.00004076800178154372,0.9999336270484491],"min":[0.0000407679945055861,0.9999336270411732],"type":"VEC2"},{"bufferView":343,"componentType":5121,"count":60,"max":[38],"min":[0],"type":"SCALAR"},{"bufferView":344,"componentType":5126,"count":39,"max":[0.29977384209632874,-0.47186800837516785,13.512094497680664],"min":[-1.2347337019491533e-7,-0.6711539626121521,12.464942932128906],"type":"VEC3"},{"bufferView":345,"componentType":5126,"count":39,"type":"VEC3"},{"bufferView":346,"componentType":5126,"count":39,"type":"VEC4"},{"bufferView":347,"componentType":5126,"count":39,"max":[0.7191497683525085,0.643758088350296],"min":[0.05166446417570114,0.38583457469940186],"type":"VEC2"},{"bufferView":348,"componentType":5121,"count":48,"max":[25],"min":[0],"type":"SCALAR"},{"bufferView":349,"componentType":5126,"count":26,"max":[-0.718986988067627,1.4676339626312256,-3.9435627460479736],"min":[-2.106320858001709,0.9545149803161621,-8.948373794555664],"type":"VEC3"},{"bufferView":350,"componentType":5126,"count":26,"type":"VEC3"},{"bufferView":351,"componentType":5126,"count":26,"type":"VEC4"},{"bufferView":352,"componentType":5126,"count":26,"max":[0.3505323529243469,0.4955633282661438],"min":[0.13024115562438965,0.4686041474342346],"type":"VEC2"},{"bufferView":353,"componentType":5121,"count":24,"max":[15],"min":[0],"type":"SCALAR"},{"bufferView":354,"componentType":5126,"count":16,"max":[0.14906486868858337,-0.6458460092544556,12.464942932128906],"min":[-0.1497001200914383,-0.7202669382095337,12.044695854187012],"type":"VEC3"},{"bufferView":355,"componentType":5126,"count":16,"type":"VEC3"},{"bufferView":356,"componentType":5126,"count":16,"type":"VEC4"},{"bufferView":357,"componentType":5126,"count":16,"max":[0.6674116849899292,0.6451786756515503],"min":[0.08519430458545685,0.39108824729919434],"type":"VEC2"},{"bufferView":358,"componentType":5121,"count":36,"max":[35],"min":[0],"type":"SCALAR"},{"bufferView":359,"componentType":5126,"count":36,"max":[0.13510487973690033,-0.3221080005168915,14.118417739868164],"min":[-0.13701008260250092,-0.40585798025131226,13.852709770202637],"type":"VEC3"},{"bufferView":360,"componentType":5126,"count":36,"type":"VEC3"},{"bufferView":361,"componentType":5126,"count":36,"type":"VEC4"},{"bufferView":362,"componentType":5126,"count":36,"max":[0,1],"min":[0,1],"type":"VEC2"},{"bufferView":363,"componentType":5121,"count":258,"max":[80],"min":[0],"type":"SCALAR"},{"bufferView":364,"componentType":5126,"count":81,"max":[-1.6831419467926025,0.034083642065525055,3.4800660610198975],"min":[-10.846321105957031,-0.6415688991546631,-1.8004127740859985],"type":"VEC3"},{"bufferView":365,"componentType":5126,"count":81,"type":"VEC3"},{"bufferView":366,"componentType":5126,"count":81,"type":"VEC4"},{"bufferView":367,"componentType":5126,"count":81,"max":[0.00004076800178154372,0.9999336270484491],"min":[0.0000407679945055861,0.9999336270411732],"type":"VEC2"},{"bufferView":368,"componentType":5121,"count":534,"max":[204],"min":[0],"type":"SCALAR"},{"bufferView":369,"componentType":5126,"count":205,"max":[0.23997415602207184,5.040238380432129,-7.457693099975586],"min":[-0.23997582495212555,1.5184078216552734,-13.890294075012207],"type":"VEC3"},{"bufferView":370,"componentType":5126,"count":205,"type":"VEC3"},{"bufferView":371,"componentType":5126,"count":205,"type":"VEC4"},{"bufferView":372,"componentType":5126,"count":205,"max":[0.9932495355606079,0.9430317170917988],"min":[0.0067934212274849415,0.6440988779067993],"type":"VEC2"},{"bufferView":373,"componentType":5121,"count":60,"max":[39],"min":[0],"type":"SCALAR"},{"bufferView":374,"componentType":5126,"count":40,"max":[9.738836288452148,-0.02890157885849476,-1.7446388006210327],"min":[7.6587066650390625,-0.1691044420003891,-2.7488386631011963],"type":"VEC3"},{"bufferView":375,"componentType":5126,"count":40,"type":"VEC3"},{"bufferView":376,"componentType":5126,"count":40,"type":"VEC4"},{"bufferView":377,"componentType":5126,"count":40,"max":[0.7221845388412476,0.6354279518127441],"min":[0.026846209540963173,0.5654266774654388],"type":"VEC2"},{"bufferView":378,"componentType":5121,"count":132,"max":[81],"min":[0],"type":"SCALAR"},{"bufferView":379,"componentType":5126,"count":82,"max":[-4.066307067871094,-0.11388353258371353,-0.33467790484428406],"min":[-7.823956489562988,-0.571735680103302,-2.1583244800567627],"type":"VEC3"},{"bufferView":380,"componentType":5126,"count":82,"type":"VEC3"},{"bufferView":381,"componentType":5126,"count":82,"type":"VEC4"},{"bufferView":382,"componentType":5126,"count":82,"max":[0.6697558164596558,0.6489430665969849],"min":[0.06010366231203079,0.5675795078277588],"type":"VEC2"},{"bufferView":383,"componentType":5123,"count":912,"max":[362],"min":[0],"type":"SCALAR"},{"bufferView":384,"componentType":5126,"count":363,"max":[3.148674726486206,2.2605926990509033,-3.592646360397339],"min":[1.651175856590271,0.6989148259162903,-7.9246978759765625],"type":"VEC3"},{"bufferView":385,"componentType":5126,"count":363,"type":"VEC3"},{"bufferView":386,"componentType":5126,"count":363,"type":"VEC4"},{"bufferView":387,"componentType":5126,"count":363,"max":[0.9576243758201599,0.7668632119894028],"min":[0.38292068243026733,0.43742722272872925],"type":"VEC2"},{"bufferView":388,"componentType":5121,"count":300,"max":[105],"min":[0],"type":"SCALAR"},{"bufferView":389,"componentType":5126,"count":106,"max":[3.0631048679351807,2.207110643386841,-3.592646360397339],"min":[1.7367489337921143,0.7951708436012268,-7.9246978759765625],"type":"VEC3"},{"bufferView":390,"componentType":5126,"count":106,"type":"VEC3"},{"bufferView":391,"componentType":5126,"count":106,"type":"VEC4"},{"bufferView":392,"componentType":5126,"count":106,"max":[0.00004073185846209526,0.9999463986605406],"min":[0.00004073185846209526,0.9999463986605406],"type":"VEC2"},{"bufferView":393,"componentType":5121,"count":24,"max":[15],"min":[0],"type":"SCALAR"},{"bufferView":394,"componentType":5126,"count":16,"max":[-2.072448968887329,-0.21723274886608124,-0.19916580617427826],"min":[-3.943335771560669,-0.3844788372516632,-0.47609373927116394],"type":"VEC3"},{"bufferView":395,"componentType":5126,"count":16,"type":"VEC3"},{"bufferView":396,"componentType":5126,"count":16,"type":"VEC4"},{"bufferView":397,"componentType":5126,"count":16,"max":[0.38474076986312866,0.6498477160930634],"min":[0.1244833916425705,0.6315245628356934],"type":"VEC2"},{"bufferView":398,"componentType":5121,"count":12,"max":[7],"min":[0],"type":"SCALAR"},{"bufferView":399,"componentType":5126,"count":8,"max":[3.203979969024658,4.7182207107543945,-12.74971866607666],"min":[0.06533818691968918,4.585687637329102,-14.427359580993652],"type":"VEC3"},{"bufferView":400,"componentType":5126,"count":8,"type":"VEC3"},{"bufferView":401,"componentType":5126,"count":8,"type":"VEC4"},{"bufferView":402,"componentType":5126,"count":8,"max":[0.980349600315094,0.6171406209468842],"min":[0.8875482082366943,0.520751565694809],"type":"VEC2"},{"bufferView":403,"componentType":5121,"count":348,"max":[154],"min":[0],"type":"SCALAR"},{"bufferView":404,"componentType":5126,"count":155,"max":[1.7649227380752563,-0.5138270854949951,0.21891914308071136],"min":[0.7551618218421936,-0.9212290048599243,-0.31786486506462097],"type":"VEC3"},{"bufferView":405,"componentType":5126,"count":155,"type":"VEC3"},{"bufferView":406,"componentType":5126,"count":155,"type":"VEC4"},{"bufferView":407,"componentType":5126,"count":155,"max":[0.6998371481895447,0.7608976811170578],"min":[0.028223732486367226,0.3949499726295471],"type":"VEC2"},{"bufferView":408,"componentType":5121,"count":48,"max":[25],"min":[0],"type":"SCALAR"},{"bufferView":409,"componentType":5126,"count":26,"max":[2.106320858001709,1.4676337242126465,-3.9435627460479736],"min":[0.7189869284629822,0.9545148611068726,-8.958582878112793],"type":"VEC3"},{"bufferView":410,"componentType":5126,"count":26,"type":"VEC3"},{"bufferView":411,"componentType":5126,"count":26,"type":"VEC4"},{"bufferView":412,"componentType":5126,"count":26,"max":[0.8757519125938416,0.5103533267974854],"min":[0.7182411551475525,0.45061540603637695],"type":"VEC2"},{"bufferView":413,"componentType":5121,"count":48,"max":[35],"min":[0],"type":"SCALAR"},{"bufferView":414,"componentType":5126,"count":36,"max":[11.049174308776855,0.001848344225436449,-1.8460837602615356],"min":[10.983989715576172,-0.023966655135154724,-1.919044852256775],"type":"VEC3"},{"bufferView":415,"componentType":5126,"count":36,"type":"VEC3"},{"bufferView":416,"componentType":5126,"count":36,"type":"VEC4"},{"bufferView":417,"componentType":5126,"count":36,"max":[0.9883725047111511,1],"min":[0,0.22857290506362915],"type":"VEC2"},{"bufferView":418,"componentType":5121,"count":24,"max":[15],"min":[0],"type":"SCALAR"},{"bufferView":419,"componentType":5126,"count":16,"max":[3.943335771560669,-0.21723422408103943,-0.19916580617427826],"min":[2.07244873046875,-0.3844790756702423,-0.47609373927116394],"type":"VEC3"},{"bufferView":420,"componentType":5126,"count":16,"type":"VEC3"},{"bufferView":421,"componentType":5126,"count":16,"type":"VEC4"},{"bufferView":422,"componentType":5126,"count":16,"max":[0.38474076986312866,0.6498477160930634],"min":[0.1244833916425705,0.6315245628356934],"type":"VEC2"},{"bufferView":423,"componentType":5121,"count":54,"max":[41],"min":[0],"type":"SCALAR"},{"bufferView":424,"componentType":5126,"count":42,"max":[0.03585204482078552,2.1692466735839844,6.584307670593262],"min":[-0.03585095703601837,2.129443645477295,6.42357063293457],"type":"VEC3"},{"bufferView":425,"componentType":5126,"count":42,"type":"VEC3"},{"bufferView":426,"componentType":5126,"count":42,"type":"VEC4"},{"bufferView":427,"componentType":5126,"count":42,"max":[1,1],"min":[0,0],"type":"VEC2"},{"bufferView":428,"componentType":5126,"count":1269,"type":"VEC3","min":[-0.7053141453649419,1.056417471170425,-14.161063194274902],"max":[0.7053160393742124,4.966674327850342,-7.3093719482421875]},{"bufferView":429,"componentType":5126,"count":1269,"type":"VEC3"},{"bufferView":430,"componentType":5126,"count":558,"type":"VEC3","min":[-0.49501606785077434,1.3343487529010918,-11.741978398159011],"max":[0.49501805680367317,3.1872239644388705,-9.889103186621233]},{"bufferView":431,"componentType":5126,"count":558,"type":"VEC3"},{"bufferView":432,"componentType":5126,"count":558,"type":"VEC2"}],"asset":{"generator":"Khronos Blender glTF 2.0 exporter","version":"2.0","copyright":"FlightGear model authors / FlightAirMap contributors; GPL-2.0. See source/flightairmap/crj2/ for license and editable sources."},"bufferViews":[{"buffer":0,"byteLength":226057,"byteOffset":0},{"buffer":0,"byteLength":18015,"byteOffset":226057},{"buffer":0,"byteLength":57180,"byteOffset":244072},{"buffer":0,"byteLength":36,"byteOffset":301252,"target":34963},{"buffer":0,"byteLength":192,"byteOffset":301288,"target":34962},{"buffer":0,"byteLength":192,"byteOffset":301480,"target":34962},{"buffer":0,"byteLength":256,"byteOffset":301672,"target":34962},{"buffer":0,"byteLength":128,"byteOffset":301928,"target":34962},{"buffer":0,"byteLength":6,"byteOffset":302056,"target":34963},{"buffer":0,"byteLength":48,"byteOffset":302064,"target":34962},{"buffer":0,"byteLength":48,"byteOffset":302112,"target":34962},{"buffer":0,"byteLength":64,"byteOffset":302160,"target":34962},{"buffer":0,"byteLength":32,"byteOffset":302224,"target":34962},{"buffer":0,"byteLength":48,"byteOffset":302256,"target":34963},{"buffer":0,"byteLength":336,"byteOffset":302304,"target":34962},{"buffer":0,"byteLength":336,"byteOffset":302640,"target":34962},{"buffer":0,"byteLength":448,"byteOffset":302976,"target":34962},{"buffer":0,"byteLength":224,"byteOffset":303424,"target":34962},{"buffer":0,"byteLength":96,"byteOffset":303648,"target":34963},{"buffer":0,"byteLength":408,"byteOffset":303744,"target":34962},{"buffer":0,"byteLength":408,"byteOffset":304152,"target":34962},{"buffer":0,"byteLength":544,"byteOffset":304560,"target":34962},{"buffer":0,"byteLength":272,"byteOffset":305104,"target":34962},{"buffer":0,"byteLength":60,"byteOffset":305376,"target":34963},{"buffer":0,"byteLength":456,"byteOffset":305436,"target":34962},{"buffer":0,"byteLength":456,"byteOffset":305892,"target":34962},{"buffer":0,"byteLength":608,"byteOffset":306348,"target":34962},{"buffer":0,"byteLength":304,"byteOffset":306956,"target":34962},{"buffer":0,"byteLength":132,"byteOffset":307260,"target":34963},{"buffer":0,"byteLength":720,"byteOffset":307392,"target":34962},{"buffer":0,"byteLength":720,"byteOffset":308112,"target":34962},{"buffer":0,"byteLength":960,"byteOffset":308832,"target":34962},{"buffer":0,"byteLength":480,"byteOffset":309792,"target":34962},{"buffer":0,"byteLength":6,"byteOffset":310272,"target":34963},{"buffer":0,"byteLength":48,"byteOffset":310280,"target":34962},{"buffer":0,"byteLength":48,"byteOffset":310328,"target":34962},{"buffer":0,"byteLength":64,"byteOffset":310376,"target":34962},{"buffer":0,"byteLength":32,"byteOffset":310440,"target":34962},{"buffer":0,"byteLength":72,"byteOffset":310472,"target":34963},{"buffer":0,"byteLength":576,"byteOffset":310544,"target":34962},{"buffer":0,"byteLength":576,"byteOffset":311120,"target":34962},{"buffer":0,"byteLength":768,"byteOffset":311696,"target":34962},{"buffer":0,"byteLength":384,"byteOffset":312464,"target":34962},{"buffer":0,"byteLength":24,"byteOffset":312848,"target":34963},{"buffer":0,"byteLength":168,"byteOffset":312872,"target":34962},{"buffer":0,"byteLength":168,"byteOffset":313040,"target":34962},{"buffer":0,"byteLength":224,"byteOffset":313208,"target":34962},{"buffer":0,"byteLength":112,"byteOffset":313432,"target":34962},{"buffer":0,"byteLength":18,"byteOffset":313544,"target":34963},{"buffer":0,"byteLength":216,"byteOffset":313564,"target":34962},{"buffer":0,"byteLength":216,"byteOffset":313780,"target":34962},{"buffer":0,"byteLength":288,"byteOffset":313996,"target":34962},{"buffer":0,"byteLength":144,"byteOffset":314284,"target":34962},{"buffer":0,"byteLength":96,"byteOffset":314428,"target":34963},{"buffer":0,"byteLength":408,"byteOffset":314524,"target":34962},{"buffer":0,"byteLength":408,"byteOffset":314932,"target":34962},{"buffer":0,"byteLength":544,"byteOffset":315340,"target":34962},{"buffer":0,"byteLength":272,"byteOffset":315884,"target":34962},{"buffer":0,"byteLength":132,"byteOffset":316156,"target":34963},{"buffer":0,"byteLength":720,"byteOffset":316288,"target":34962},{"buffer":0,"byteLength":720,"byteOffset":317008,"target":34962},{"buffer":0,"byteLength":960,"byteOffset":317728,"target":34962},{"buffer":0,"byteLength":480,"byteOffset":318688,"target":34962},{"buffer":0,"byteLength":33,"byteOffset":319168,"target":34963},{"buffer":0,"byteLength":276,"byteOffset":319204,"target":34962},{"buffer":0,"byteLength":276,"byteOffset":319480,"target":34962},{"buffer":0,"byteLength":368,"byteOffset":319756,"target":34962},{"buffer":0,"byteLength":184,"byteOffset":320124,"target":34962},{"buffer":0,"byteLength":18,"byteOffset":320308,"target":34963},{"buffer":0,"byteLength":120,"byteOffset":320328,"target":34962},{"buffer":0,"byteLength":120,"byteOffset":320448,"target":34962},{"buffer":0,"byteLength":160,"byteOffset":320568,"target":34962},{"buffer":0,"byteLength":80,"byteOffset":320728,"target":34962},{"buffer":0,"byteLength":348,"byteOffset":320808,"target":34963},{"buffer":0,"byteLength":1860,"byteOffset":321156,"target":34962},{"buffer":0,"byteLength":1860,"byteOffset":323016,"target":34962},{"buffer":0,"byteLength":2480,"byteOffset":324876,"target":34962},{"buffer":0,"byteLength":1240,"byteOffset":327356,"target":34962},{"buffer":0,"byteLength":48,"byteOffset":328596,"target":34963},{"buffer":0,"byteLength":384,"byteOffset":328644,"target":34962},{"buffer":0,"byteLength":384,"byteOffset":329028,"target":34962},{"buffer":0,"byteLength":512,"byteOffset":329412,"target":34962},{"buffer":0,"byteLength":256,"byteOffset":329924,"target":34962},{"buffer":0,"byteLength":54,"byteOffset":330180,"target":34963},{"buffer":0,"byteLength":504,"byteOffset":330236,"target":34962},{"buffer":0,"byteLength":504,"byteOffset":330740,"target":34962},{"buffer":0,"byteLength":672,"byteOffset":331244,"target":34962},{"buffer":0,"byteLength":336,"byteOffset":331916,"target":34962},{"buffer":0,"byteLength":132,"byteOffset":332252,"target":34963},{"buffer":0,"byteLength":984,"byteOffset":332384,"target":34962},{"buffer":0,"byteLength":984,"byteOffset":333368,"target":34962},{"buffer":0,"byteLength":1312,"byteOffset":334352,"target":34962},{"buffer":0,"byteLength":656,"byteOffset":335664,"target":34962},{"buffer":0,"byteLength":12,"byteOffset":336320,"target":34963},{"buffer":0,"byteLength":96,"byteOffset":336332,"target":34962},{"buffer":0,"byteLength":96,"byteOffset":336428,"target":34962},{"buffer":0,"byteLength":128,"byteOffset":336524,"target":34962},{"buffer":0,"byteLength":64,"byteOffset":336652,"target":34962},{"buffer":0,"byteLength":288,"byteOffset":336716,"target":34963},{"buffer":0,"byteLength":1080,"byteOffset":337004,"target":34962},{"buffer":0,"byteLength":1080,"byteOffset":338084,"target":34962},{"buffer":0,"byteLength":1440,"byteOffset":339164,"target":34962},{"buffer":0,"byteLength":720,"byteOffset":340604,"target":34962},{"buffer":0,"byteLength":36,"byteOffset":341324,"target":34963},{"buffer":0,"byteLength":288,"byteOffset":341360,"target":34962},{"buffer":0,"byteLength":288,"byteOffset":341648,"target":34962},{"buffer":0,"byteLength":384,"byteOffset":341936,"target":34962},{"buffer":0,"byteLength":192,"byteOffset":342320,"target":34962},{"buffer":0,"byteLength":4902,"byteOffset":342512,"target":34963},{"buffer":0,"byteLength":13836,"byteOffset":347416,"target":34962},{"buffer":0,"byteLength":13836,"byteOffset":361252,"target":34962},{"buffer":0,"byteLength":18448,"byteOffset":375088,"target":34962},{"buffer":0,"byteLength":9224,"byteOffset":393536,"target":34962},{"buffer":0,"byteLength":3240,"byteOffset":402760,"target":34963},{"buffer":0,"byteLength":6300,"byteOffset":406000,"target":34962},{"buffer":0,"byteLength":6300,"byteOffset":412300,"target":34962},{"buffer":0,"byteLength":8400,"byteOffset":418600,"target":34962},{"buffer":0,"byteLength":4200,"byteOffset":427000,"target":34962},{"buffer":0,"byteLength":132,"byteOffset":431200,"target":34963},{"buffer":0,"byteLength":600,"byteOffset":431332,"target":34962},{"buffer":0,"byteLength":600,"byteOffset":431932,"target":34962},{"buffer":0,"byteLength":800,"byteOffset":432532,"target":34962},{"buffer":0,"byteLength":400,"byteOffset":433332,"target":34962},{"buffer":0,"byteLength":36,"byteOffset":433732,"target":34963},{"buffer":0,"byteLength":276,"byteOffset":433768,"target":34962},{"buffer":0,"byteLength":276,"byteOffset":434044,"target":34962},{"buffer":0,"byteLength":368,"byteOffset":434320,"target":34962},{"buffer":0,"byteLength":184,"byteOffset":434688,"target":34962},{"buffer":0,"byteLength":24,"byteOffset":434872,"target":34963},{"buffer":0,"byteLength":144,"byteOffset":434896,"target":34962},{"buffer":0,"byteLength":144,"byteOffset":435040,"target":34962},{"buffer":0,"byteLength":192,"byteOffset":435184,"target":34962},{"buffer":0,"byteLength":96,"byteOffset":435376,"target":34962},{"buffer":0,"byteLength":552,"byteOffset":435472,"target":34963},{"buffer":0,"byteLength":2928,"byteOffset":436024,"target":34962},{"buffer":0,"byteLength":2928,"byteOffset":438952,"target":34962},{"buffer":0,"byteLength":3904,"byteOffset":441880,"target":34962},{"buffer":0,"byteLength":1952,"byteOffset":445784,"target":34962},{"buffer":0,"byteLength":54,"byteOffset":447736,"target":34963},{"buffer":0,"byteLength":504,"byteOffset":447792,"target":34962},{"buffer":0,"byteLength":504,"byteOffset":448296,"target":34962},{"buffer":0,"byteLength":672,"byteOffset":448800,"target":34962},{"buffer":0,"byteLength":336,"byteOffset":449472,"target":34962},{"buffer":0,"byteLength":120,"byteOffset":449808,"target":34963},{"buffer":0,"byteLength":1056,"byteOffset":449928,"target":34962},{"buffer":0,"byteLength":1056,"byteOffset":450984,"target":34962},{"buffer":0,"byteLength":1408,"byteOffset":452040,"target":34962},{"buffer":0,"byteLength":704,"byteOffset":453448,"target":34962},{"buffer":0,"byteLength":60,"byteOffset":454152,"target":34963},{"buffer":0,"byteLength":288,"byteOffset":454212,"target":34962},{"buffer":0,"byteLength":288,"byteOffset":454500,"target":34962},{"buffer":0,"byteLength":384,"byteOffset":454788,"target":34962},{"buffer":0,"byteLength":192,"byteOffset":455172,"target":34962},{"buffer":0,"byteLength":288,"byteOffset":455364,"target":34963},{"buffer":0,"byteLength":1080,"byteOffset":455652,"target":34962},{"buffer":0,"byteLength":1080,"byteOffset":456732,"target":34962},{"buffer":0,"byteLength":1440,"byteOffset":457812,"target":34962},{"buffer":0,"byteLength":720,"byteOffset":459252,"target":34962},{"buffer":0,"byteLength":6,"byteOffset":459972,"target":34963},{"buffer":0,"byteLength":48,"byteOffset":459980,"target":34962},{"buffer":0,"byteLength":48,"byteOffset":460028,"target":34962},{"buffer":0,"byteLength":64,"byteOffset":460076,"target":34962},{"buffer":0,"byteLength":32,"byteOffset":460140,"target":34962},{"buffer":0,"byteLength":36,"byteOffset":460172,"target":34963},{"buffer":0,"byteLength":288,"byteOffset":460208,"target":34962},{"buffer":0,"byteLength":288,"byteOffset":460496,"target":34962},{"buffer":0,"byteLength":384,"byteOffset":460784,"target":34962},{"buffer":0,"byteLength":192,"byteOffset":461168,"target":34962},{"buffer":0,"byteLength":120,"byteOffset":461360,"target":34963},{"buffer":0,"byteLength":864,"byteOffset":461480,"target":34962},{"buffer":0,"byteLength":864,"byteOffset":462344,"target":34962},{"buffer":0,"byteLength":1152,"byteOffset":463208,"target":34962},{"buffer":0,"byteLength":576,"byteOffset":464360,"target":34962},{"buffer":0,"byteLength":132,"byteOffset":464936,"target":34963},{"buffer":0,"byteLength":600,"byteOffset":465068,"target":34962},{"buffer":0,"byteLength":600,"byteOffset":465668,"target":34962},{"buffer":0,"byteLength":800,"byteOffset":466268,"target":34962},{"buffer":0,"byteLength":400,"byteOffset":467068,"target":34962},{"buffer":0,"byteLength":300,"byteOffset":467468,"target":34963},{"buffer":0,"byteLength":1272,"byteOffset":467768,"target":34962},{"buffer":0,"byteLength":1272,"byteOffset":469040,"target":34962},{"buffer":0,"byteLength":1696,"byteOffset":470312,"target":34962},{"buffer":0,"byteLength":848,"byteOffset":472008,"target":34962},{"buffer":0,"byteLength":4902,"byteOffset":472856,"target":34963},{"buffer":0,"byteLength":13740,"byteOffset":477760,"target":34962},{"buffer":0,"byteLength":13740,"byteOffset":491500,"target":34962},{"buffer":0,"byteLength":18320,"byteOffset":505240,"target":34962},{"buffer":0,"byteLength":9160,"byteOffset":523560,"target":34962},{"buffer":0,"byteLength":504,"byteOffset":532720,"target":34963},{"buffer":0,"byteLength":2784,"byteOffset":533224,"target":34962},{"buffer":0,"byteLength":2784,"byteOffset":536008,"target":34962},{"buffer":0,"byteLength":3712,"byteOffset":538792,"target":34962},{"buffer":0,"byteLength":1856,"byteOffset":542504,"target":34962},{"buffer":0,"byteLength":18,"byteOffset":544360,"target":34963},{"buffer":0,"byteLength":144,"byteOffset":544380,"target":34962},{"buffer":0,"byteLength":144,"byteOffset":544524,"target":34962},{"buffer":0,"byteLength":192,"byteOffset":544668,"target":34962},{"buffer":0,"byteLength":96,"byteOffset":544860,"target":34962},{"buffer":0,"byteLength":12,"byteOffset":544956,"target":34963},{"buffer":0,"byteLength":72,"byteOffset":544968,"target":34962},{"buffer":0,"byteLength":72,"byteOffset":545040,"target":34962},{"buffer":0,"byteLength":96,"byteOffset":545112,"target":34962},{"buffer":0,"byteLength":48,"byteOffset":545208,"target":34962},{"buffer":0,"byteLength":120,"byteOffset":545256,"target":34963},{"buffer":0,"byteLength":864,"byteOffset":545376,"target":34962},{"buffer":0,"byteLength":864,"byteOffset":546240,"target":34962},{"buffer":0,"byteLength":1152,"byteOffset":547104,"target":34962},{"buffer":0,"byteLength":576,"byteOffset":548256,"target":34962},{"buffer":0,"byteLength":6,"byteOffset":548832,"target":34963},{"buffer":0,"byteLength":48,"byteOffset":548840,"target":34962},{"buffer":0,"byteLength":48,"byteOffset":548888,"target":34962},{"buffer":0,"byteLength":64,"byteOffset":548936,"target":34962},{"buffer":0,"byteLength":32,"byteOffset":549000,"target":34962},{"buffer":0,"byteLength":36,"byteOffset":549032,"target":34963},{"buffer":0,"byteLength":240,"byteOffset":549068,"target":34962},{"buffer":0,"byteLength":240,"byteOffset":549308,"target":34962},{"buffer":0,"byteLength":320,"byteOffset":549548,"target":34962},{"buffer":0,"byteLength":160,"byteOffset":549868,"target":34962},{"buffer":0,"byteLength":54,"byteOffset":550028,"target":34963},{"buffer":0,"byteLength":504,"byteOffset":550084,"target":34962},{"buffer":0,"byteLength":504,"byteOffset":550588,"target":34962},{"buffer":0,"byteLength":672,"byteOffset":551092,"target":34962},{"buffer":0,"byteLength":336,"byteOffset":551764,"target":34962},{"buffer":0,"byteLength":6,"byteOffset":552100,"target":34963},{"buffer":0,"byteLength":48,"byteOffset":552108,"target":34962},{"buffer":0,"byteLength":48,"byteOffset":552156,"target":34962},{"buffer":0,"byteLength":64,"byteOffset":552204,"target":34962},{"buffer":0,"byteLength":32,"byteOffset":552268,"target":34962},{"buffer":0,"byteLength":48,"byteOffset":552300,"target":34963},{"buffer":0,"byteLength":432,"byteOffset":552348,"target":34962},{"buffer":0,"byteLength":432,"byteOffset":552780,"target":34962},{"buffer":0,"byteLength":576,"byteOffset":553212,"target":34962},{"buffer":0,"byteLength":288,"byteOffset":553788,"target":34962},{"buffer":0,"byteLength":12,"byteOffset":554076,"target":34963},{"buffer":0,"byteLength":96,"byteOffset":554088,"target":34962},{"buffer":0,"byteLength":96,"byteOffset":554184,"target":34962},{"buffer":0,"byteLength":128,"byteOffset":554280,"target":34962},{"buffer":0,"byteLength":64,"byteOffset":554408,"target":34962},{"buffer":0,"byteLength":36,"byteOffset":554472,"target":34963},{"buffer":0,"byteLength":432,"byteOffset":554508,"target":34962},{"buffer":0,"byteLength":432,"byteOffset":554940,"target":34962},{"buffer":0,"byteLength":576,"byteOffset":555372,"target":34962},{"buffer":0,"byteLength":288,"byteOffset":555948,"target":34962},{"buffer":0,"byteLength":36,"byteOffset":556236,"target":34963},{"buffer":0,"byteLength":240,"byteOffset":556272,"target":34962},{"buffer":0,"byteLength":240,"byteOffset":556512,"target":34962},{"buffer":0,"byteLength":320,"byteOffset":556752,"target":34962},{"buffer":0,"byteLength":160,"byteOffset":557072,"target":34962},{"buffer":0,"byteLength":2364,"byteOffset":557232,"target":34963},{"buffer":0,"byteLength":4944,"byteOffset":559596,"target":34962},{"buffer":0,"byteLength":4944,"byteOffset":564540,"target":34962},{"buffer":0,"byteLength":6592,"byteOffset":569484,"target":34962},{"buffer":0,"byteLength":3296,"byteOffset":576076,"target":34962},{"buffer":0,"byteLength":24,"byteOffset":579372,"target":34963},{"buffer":0,"byteLength":168,"byteOffset":579396,"target":34962},{"buffer":0,"byteLength":168,"byteOffset":579564,"target":34962},{"buffer":0,"byteLength":224,"byteOffset":579732,"target":34962},{"buffer":0,"byteLength":112,"byteOffset":579956,"target":34962},{"buffer":0,"byteLength":18,"byteOffset":580068,"target":34963},{"buffer":0,"byteLength":144,"byteOffset":580088,"target":34962},{"buffer":0,"byteLength":144,"byteOffset":580232,"target":34962},{"buffer":0,"byteLength":192,"byteOffset":580376,"target":34962},{"buffer":0,"byteLength":96,"byteOffset":580568,"target":34962},{"buffer":0,"byteLength":96,"byteOffset":580664,"target":34963},{"buffer":0,"byteLength":1008,"byteOffset":580760,"target":34962},{"buffer":0,"byteLength":1008,"byteOffset":581768,"target":34962},{"buffer":0,"byteLength":1344,"byteOffset":582776,"target":34962},{"buffer":0,"byteLength":672,"byteOffset":584120,"target":34962},{"buffer":0,"byteLength":12,"byteOffset":584792,"target":34963},{"buffer":0,"byteLength":72,"byteOffset":584804,"target":34962},{"buffer":0,"byteLength":72,"byteOffset":584876,"target":34962},{"buffer":0,"byteLength":96,"byteOffset":584948,"target":34962},{"buffer":0,"byteLength":48,"byteOffset":585044,"target":34962},{"buffer":0,"byteLength":60,"byteOffset":585092,"target":34963},{"buffer":0,"byteLength":480,"byteOffset":585152,"target":34962},{"buffer":0,"byteLength":480,"byteOffset":585632,"target":34962},{"buffer":0,"byteLength":640,"byteOffset":586112,"target":34962},{"buffer":0,"byteLength":320,"byteOffset":586752,"target":34962},{"buffer":0,"byteLength":30,"byteOffset":587072,"target":34963},{"buffer":0,"byteLength":168,"byteOffset":587104,"target":34962},{"buffer":0,"byteLength":168,"byteOffset":587272,"target":34962},{"buffer":0,"byteLength":224,"byteOffset":587440,"target":34962},{"buffer":0,"byteLength":112,"byteOffset":587664,"target":34962},{"buffer":0,"byteLength":33,"byteOffset":587776,"target":34963},{"buffer":0,"byteLength":300,"byteOffset":587812,"target":34962},{"buffer":0,"byteLength":300,"byteOffset":588112,"target":34962},{"buffer":0,"byteLength":400,"byteOffset":588412,"target":34962},{"buffer":0,"byteLength":200,"byteOffset":588812,"target":34962},{"buffer":0,"byteLength":60,"byteOffset":589012,"target":34963},{"buffer":0,"byteLength":456,"byteOffset":589072,"target":34962},{"buffer":0,"byteLength":456,"byteOffset":589528,"target":34962},{"buffer":0,"byteLength":608,"byteOffset":589984,"target":34962},{"buffer":0,"byteLength":304,"byteOffset":590592,"target":34962},{"buffer":0,"byteLength":1824,"byteOffset":590896,"target":34963},{"buffer":0,"byteLength":4356,"byteOffset":592720,"target":34962},{"buffer":0,"byteLength":4356,"byteOffset":597076,"target":34962},{"buffer":0,"byteLength":5808,"byteOffset":601432,"target":34962},{"buffer":0,"byteLength":2904,"byteOffset":607240,"target":34962},{"buffer":0,"byteLength":60,"byteOffset":610144,"target":34963},{"buffer":0,"byteLength":480,"byteOffset":610204,"target":34962},{"buffer":0,"byteLength":480,"byteOffset":610684,"target":34962},{"buffer":0,"byteLength":640,"byteOffset":611164,"target":34962},{"buffer":0,"byteLength":320,"byteOffset":611804,"target":34962},{"buffer":0,"byteLength":363,"byteOffset":612124,"target":34963},{"buffer":0,"byteLength":1584,"byteOffset":612488,"target":34962},{"buffer":0,"byteLength":1584,"byteOffset":614072,"target":34962},{"buffer":0,"byteLength":2112,"byteOffset":615656,"target":34962},{"buffer":0,"byteLength":1056,"byteOffset":617768,"target":34962},{"buffer":0,"byteLength":192,"byteOffset":618824,"target":34963},{"buffer":0,"byteLength":984,"byteOffset":619016,"target":34962},{"buffer":0,"byteLength":984,"byteOffset":620000,"target":34962},{"buffer":0,"byteLength":1312,"byteOffset":620984,"target":34962},{"buffer":0,"byteLength":656,"byteOffset":622296,"target":34962},{"buffer":0,"byteLength":12,"byteOffset":622952,"target":34963},{"buffer":0,"byteLength":96,"byteOffset":622964,"target":34962},{"buffer":0,"byteLength":96,"byteOffset":623060,"target":34962},{"buffer":0,"byteLength":128,"byteOffset":623156,"target":34962},{"buffer":0,"byteLength":64,"byteOffset":623284,"target":34962},{"buffer":0,"byteLength":18,"byteOffset":623348,"target":34963},{"buffer":0,"byteLength":132,"byteOffset":623368,"target":34962},{"buffer":0,"byteLength":132,"byteOffset":623500,"target":34962},{"buffer":0,"byteLength":176,"byteOffset":623632,"target":34962},{"buffer":0,"byteLength":88,"byteOffset":623808,"target":34962},{"buffer":0,"byteLength":6,"byteOffset":623896,"target":34963},{"buffer":0,"byteLength":48,"byteOffset":623904,"target":34962},{"buffer":0,"byteLength":48,"byteOffset":623952,"target":34962},{"buffer":0,"byteLength":64,"byteOffset":624000,"target":34962},{"buffer":0,"byteLength":32,"byteOffset":624064,"target":34962},{"buffer":0,"byteLength":30,"byteOffset":624096,"target":34963},{"buffer":0,"byteLength":168,"byteOffset":624128,"target":34962},{"buffer":0,"byteLength":168,"byteOffset":624296,"target":34962},{"buffer":0,"byteLength":224,"byteOffset":624464,"target":34962},{"buffer":0,"byteLength":112,"byteOffset":624688,"target":34962},{"buffer":0,"byteLength":18,"byteOffset":624800,"target":34963},{"buffer":0,"byteLength":96,"byteOffset":624820,"target":34962},{"buffer":0,"byteLength":96,"byteOffset":624916,"target":34962},{"buffer":0,"byteLength":128,"byteOffset":625012,"target":34962},{"buffer":0,"byteLength":64,"byteOffset":625140,"target":34962},{"buffer":0,"byteLength":258,"byteOffset":625204,"target":34963},{"buffer":0,"byteLength":972,"byteOffset":625464,"target":34962},{"buffer":0,"byteLength":972,"byteOffset":626436,"target":34962},{"buffer":0,"byteLength":1296,"byteOffset":627408,"target":34962},{"buffer":0,"byteLength":648,"byteOffset":628704,"target":34962},{"buffer":0,"byteLength":60,"byteOffset":629352,"target":34963},{"buffer":0,"byteLength":468,"byteOffset":629412,"target":34962},{"buffer":0,"byteLength":468,"byteOffset":629880,"target":34962},{"buffer":0,"byteLength":624,"byteOffset":630348,"target":34962},{"buffer":0,"byteLength":312,"byteOffset":630972,"target":34962},{"buffer":0,"byteLength":48,"byteOffset":631284,"target":34963},{"buffer":0,"byteLength":312,"byteOffset":631332,"target":34962},{"buffer":0,"byteLength":312,"byteOffset":631644,"target":34962},{"buffer":0,"byteLength":416,"byteOffset":631956,"target":34962},{"buffer":0,"byteLength":208,"byteOffset":632372,"target":34962},{"buffer":0,"byteLength":24,"byteOffset":632580,"target":34963},{"buffer":0,"byteLength":192,"byteOffset":632604,"target":34962},{"buffer":0,"byteLength":192,"byteOffset":632796,"target":34962},{"buffer":0,"byteLength":256,"byteOffset":632988,"target":34962},{"buffer":0,"byteLength":128,"byteOffset":633244,"target":34962},{"buffer":0,"byteLength":36,"byteOffset":633372,"target":34963},{"buffer":0,"byteLength":432,"byteOffset":633408,"target":34962},{"buffer":0,"byteLength":432,"byteOffset":633840,"target":34962},{"buffer":0,"byteLength":576,"byteOffset":634272,"target":34962},{"buffer":0,"byteLength":288,"byteOffset":634848,"target":34962},{"buffer":0,"byteLength":258,"byteOffset":635136,"target":34963},{"buffer":0,"byteLength":972,"byteOffset":635396,"target":34962},{"buffer":0,"byteLength":972,"byteOffset":636368,"target":34962},{"buffer":0,"byteLength":1296,"byteOffset":637340,"target":34962},{"buffer":0,"byteLength":648,"byteOffset":638636,"target":34962},{"buffer":0,"byteLength":534,"byteOffset":639284,"target":34963},{"buffer":0,"byteLength":2460,"byteOffset":639820,"target":34962},{"buffer":0,"byteLength":2460,"byteOffset":642280,"target":34962},{"buffer":0,"byteLength":3280,"byteOffset":644740,"target":34962},{"buffer":0,"byteLength":1640,"byteOffset":648020,"target":34962},{"buffer":0,"byteLength":60,"byteOffset":649660,"target":34963},{"buffer":0,"byteLength":480,"byteOffset":649720,"target":34962},{"buffer":0,"byteLength":480,"byteOffset":650200,"target":34962},{"buffer":0,"byteLength":640,"byteOffset":650680,"target":34962},{"buffer":0,"byteLength":320,"byteOffset":651320,"target":34962},{"buffer":0,"byteLength":132,"byteOffset":651640,"target":34963},{"buffer":0,"byteLength":984,"byteOffset":651772,"target":34962},{"buffer":0,"byteLength":984,"byteOffset":652756,"target":34962},{"buffer":0,"byteLength":1312,"byteOffset":653740,"target":34962},{"buffer":0,"byteLength":656,"byteOffset":655052,"target":34962},{"buffer":0,"byteLength":1824,"byteOffset":655708,"target":34963},{"buffer":0,"byteLength":4356,"byteOffset":657532,"target":34962},{"buffer":0,"byteLength":4356,"byteOffset":661888,"target":34962},{"buffer":0,"byteLength":5808,"byteOffset":666244,"target":34962},{"buffer":0,"byteLength":2904,"byteOffset":672052,"target":34962},{"buffer":0,"byteLength":300,"byteOffset":674956,"target":34963},{"buffer":0,"byteLength":1272,"byteOffset":675256,"target":34962},{"buffer":0,"byteLength":1272,"byteOffset":676528,"target":34962},{"buffer":0,"byteLength":1696,"byteOffset":677800,"target":34962},{"buffer":0,"byteLength":848,"byteOffset":679496,"target":34962},{"buffer":0,"byteLength":24,"byteOffset":680344,"target":34963},{"buffer":0,"byteLength":192,"byteOffset":680368,"target":34962},{"buffer":0,"byteLength":192,"byteOffset":680560,"target":34962},{"buffer":0,"byteLength":256,"byteOffset":680752,"target":34962},{"buffer":0,"byteLength":128,"byteOffset":681008,"target":34962},{"buffer":0,"byteLength":12,"byteOffset":681136,"target":34963},{"buffer":0,"byteLength":96,"byteOffset":681148,"target":34962},{"buffer":0,"byteLength":96,"byteOffset":681244,"target":34962},{"buffer":0,"byteLength":128,"byteOffset":681340,"target":34962},{"buffer":0,"byteLength":64,"byteOffset":681468,"target":34962},{"buffer":0,"byteLength":348,"byteOffset":681532,"target":34963},{"buffer":0,"byteLength":1860,"byteOffset":681880,"target":34962},{"buffer":0,"byteLength":1860,"byteOffset":683740,"target":34962},{"buffer":0,"byteLength":2480,"byteOffset":685600,"target":34962},{"buffer":0,"byteLength":1240,"byteOffset":688080,"target":34962},{"buffer":0,"byteLength":48,"byteOffset":689320,"target":34963},{"buffer":0,"byteLength":312,"byteOffset":689368,"target":34962},{"buffer":0,"byteLength":312,"byteOffset":689680,"target":34962},{"buffer":0,"byteLength":416,"byteOffset":689992,"target":34962},{"buffer":0,"byteLength":208,"byteOffset":690408,"target":34962},{"buffer":0,"byteLength":48,"byteOffset":690616,"target":34963},{"buffer":0,"byteLength":432,"byteOffset":690664,"target":34962},{"buffer":0,"byteLength":432,"byteOffset":691096,"target":34962},{"buffer":0,"byteLength":576,"byteOffset":691528,"target":34962},{"buffer":0,"byteLength":288,"byteOffset":692104,"target":34962},{"buffer":0,"byteLength":24,"byteOffset":692392,"target":34963},{"buffer":0,"byteLength":192,"byteOffset":692416,"target":34962},{"buffer":0,"byteLength":192,"byteOffset":692608,"target":34962},{"buffer":0,"byteLength":256,"byteOffset":692800,"target":34962},{"buffer":0,"byteLength":128,"byteOffset":693056,"target":34962},{"buffer":0,"byteLength":54,"byteOffset":693184,"target":34963},{"buffer":0,"byteLength":504,"byteOffset":693240,"target":34962},{"buffer":0,"byteLength":504,"byteOffset":693744,"target":34962},{"buffer":0,"byteLength":672,"byteOffset":694248,"target":34962},{"buffer":0,"byteLength":336,"byteOffset":694920,"target":34962},{"buffer":1,"byteOffset":0,"byteLength":15228,"target":34962},{"buffer":1,"byteOffset":15228,"byteLength":15228,"target":34962},{"buffer":1,"byteOffset":30456,"byteLength":6696,"target":34962},{"buffer":1,"byteOffset":37152,"byteLength":6696,"target":34962},{"buffer":1,"byteOffset":43848,"byteLength":4464,"target":34962}],"buffers":[{"byteLength":695256,"extras":{},"uri":"../crj2-v1-0.bin"},{"uri":"crj2-tail-v1.bin","byteLength":48312}],"images":[{"bufferView":0,"mimeType":"image/png","name":"UAX.png","extras":{}},{"bufferView":1,"mimeType":"image/png","name":"lights.png","extras":{}},{"bufferView":2,"mimeType":"image/png","name":"UAX-lights.png","extras":{}},{"uri":"../../../airlines/WZZ.png"}],"materials":[{"alphaMode":"BLEND","name":"chrome","pbrMetallicRoughness":{"metallicFactor":0}},{"alphaMode":"BLEND","name":"glass","pbrMetallicRoughness":{"baseColorFactor":[0.27482500672340393,0.3132439851760864,0.26063698530197144,0.6221870183944702],"metallicFactor":0}},{"alphaMode":"BLEND","name":"glosswhite","pbrMetallicRoughness":{"baseColorTexture":{"index":0},"metallicFactor":0}},{"alphaMode":"BLEND","name":"glosswhite.002","pbrMetallicRoughness":{"baseColorTexture":{"index":0},"metallicFactor":0}},{"alphaMode":"BLEND","name":"green","pbrMetallicRoughness":{"baseColorFactor":[0,1,0.5174270272254944,1],"metallicFactor":0}},{"alphaMode":"BLEND","name":"light","pbrMetallicRoughness":{"metallicFactor":0}},{"alphaMode":"BLEND","emissiveFactor":[2,2,2],"name":"Lights","pbrMetallicRoughness":{"baseColorTexture":{"index":1},"metallicFactor":0}},{"alphaMode":"BLEND","emissiveFactor":[2,2,2],"name":"Lights.002","pbrMetallicRoughness":{"baseColorTexture":{"index":2},"metallicFactor":0}},{"alphaMode":"BLEND","name":"red","pbrMetallicRoughness":{"baseColorFactor":[1,0,0,1],"metallicFactor":0}},{"alphaMode":"BLEND","name":"skin","pbrMetallicRoughness":{"baseColorTexture":{"index":0},"metallicFactor":0}},{"alphaMode":"BLEND","name":"skin.001","pbrMetallicRoughness":{"metallicFactor":0}},{"name":"Operator tail paint","doubleSided":true,"pbrMetallicRoughness":{"baseColorFactor":[0.7725490196078432,0.09803921568627451,0.4823529411764706,1],"metallicFactor":0,"roughnessFactor":0.65}},{"name":"Operator logo identification","doubleSided":true,"alphaMode":"BLEND","pbrMetallicRoughness":{"baseColorTexture":{"index":3},"metallicFactor":0,"roughnessFactor":0.7},"emissiveFactor":[0.18,0.18,0.18],"emissiveTexture":{"index":3}}],"meshes":[{"name":"Mesh.11465","primitives":[{"attributes":{"NORMAL":2,"POSITION":1,"TANGENT":3,"TEXCOORD_0":4},"indices":0,"material":9}]},{"name":"HStabilizerH.009","primitives":[{"attributes":{"NORMAL":7,"POSITION":6,"TANGENT":8,"TEXCOORD_0":9},"indices":5,"material":7}]},{"name":"FuselageH.010","primitives":[{"attributes":{"NORMAL":12,"POSITION":11,"TANGENT":13,"TEXCOORD_0":14},"indices":10,"material":1}]},{"name":"Engine 1H.015","primitives":[{"attributes":{"NORMAL":17,"POSITION":16,"TANGENT":18,"TEXCOORD_0":19},"indices":15,"material":9}]},{"name":"FuselageH.008","primitives":[{"attributes":{"NORMAL":22,"POSITION":21,"TANGENT":23,"TEXCOORD_0":24},"indices":20,"material":9}]},{"name":"WingsH.010","primitives":[{"attributes":{"NORMAL":27,"POSITION":26,"TANGENT":28,"TEXCOORD_0":29},"indices":25,"material":7}]},{"name":"Mesh.11497","primitives":[{"attributes":{"NORMAL":32,"POSITION":31,"TANGENT":33,"TEXCOORD_0":34},"indices":30,"material":6}]},{"name":"FuselageH","primitives":[{"attributes":{"NORMAL":37,"POSITION":36,"TANGENT":38,"TEXCOORD_0":39},"indices":35,"material":9}]},{"name":"WingsH.008","primitives":[{"attributes":{"NORMAL":42,"POSITION":41,"TANGENT":43,"TEXCOORD_0":44},"indices":40,"material":9}]},{"name":"Mesh.019","primitives":[{"attributes":{"NORMAL":47,"POSITION":46,"TANGENT":48,"TEXCOORD_0":49},"indices":45,"material":5}]},{"name":"Engine 1H.008","primitives":[{"attributes":{"NORMAL":52,"POSITION":51,"TANGENT":53,"TEXCOORD_0":54},"indices":50,"material":9}]},{"name":"WingsH.023","primitives":[{"attributes":{"NORMAL":57,"POSITION":56,"TANGENT":58,"TEXCOORD_0":59},"indices":55,"material":7}]},{"name":"Mesh.11455","primitives":[{"attributes":{"NORMAL":62,"POSITION":61,"TANGENT":63,"TEXCOORD_0":64},"indices":60,"material":5}]},{"name":"Mesh.013","primitives":[{"attributes":{"NORMAL":67,"POSITION":66,"TANGENT":68,"TEXCOORD_0":69},"indices":65,"material":5}]},{"name":"WingsH.041","primitives":[{"attributes":{"NORMAL":72,"POSITION":71,"TANGENT":73,"TEXCOORD_0":74},"indices":70,"material":9}]},{"name":"HStabilizerH.010","primitives":[{"attributes":{"NORMAL":77,"POSITION":76,"TANGENT":78,"TEXCOORD_0":79},"indices":75,"material":0}]},{"name":"Mesh.018","primitives":[{"attributes":{"NORMAL":82,"POSITION":81,"TANGENT":83,"TEXCOORD_0":84},"indices":80,"material":8}]},{"name":"Mesh.11503","primitives":[{"attributes":{"NORMAL":87,"POSITION":86,"TANGENT":88,"TEXCOORD_0":89},"indices":85,"material":9}]},{"name":"WingsH.014","primitives":[{"attributes":{"NORMAL":92,"POSITION":91,"TANGENT":93,"TEXCOORD_0":94},"indices":90,"material":9}]},{"name":"Engine 1H.007","primitives":[{"attributes":{"NORMAL":97,"POSITION":96,"TANGENT":98,"TEXCOORD_0":99},"indices":95,"material":9}]},{"name":"VStabilizerH.009","primitives":[{"attributes":{"NORMAL":102,"POSITION":101,"TANGENT":103,"TEXCOORD_0":104},"indices":100,"material":7}]},{"name":"WingsH.045","primitives":[{"attributes":{"NORMAL":107,"POSITION":106,"TANGENT":108,"TEXCOORD_0":109},"indices":105,"material":9}]},{"name":"FuselageH.013","primitives":[{"attributes":{"NORMAL":112,"POSITION":111,"TANGENT":113,"TEXCOORD_0":114},"indices":110,"material":9}]},{"name":"WingsH.046","primitives":[{"attributes":{"NORMAL":117,"POSITION":116,"TANGENT":118,"TEXCOORD_0":119},"indices":115,"material":7}]},{"name":"Mesh.11487","primitives":[{"attributes":{"NORMAL":122,"POSITION":121,"TANGENT":123,"TEXCOORD_0":124},"indices":120,"material":5}]},{"name":"VStabilizerH.003","primitives":[{"attributes":{"NORMAL":127,"POSITION":126,"TANGENT":128,"TEXCOORD_0":129},"indices":125,"material":0}]},{"name":"HStabilizerH.008","primitives":[{"attributes":{"NORMAL":132,"POSITION":131,"TANGENT":133,"TEXCOORD_0":134},"indices":130,"material":9}]},{"name":"Mesh.11493","primitives":[{"attributes":{"NORMAL":137,"POSITION":136,"TANGENT":138,"TEXCOORD_0":139},"indices":135,"material":8}]},{"name":"Mesh.001","primitives":[{"attributes":{"NORMAL":142,"POSITION":141,"TANGENT":143,"TEXCOORD_0":144},"indices":140,"material":9}]},{"name":"FuselageH.009","primitives":[{"attributes":{"NORMAL":147,"POSITION":146,"TANGENT":148,"TEXCOORD_0":149},"indices":145,"material":7}]},{"name":"Engine 1H","primitives":[{"attributes":{"NORMAL":152,"POSITION":151,"TANGENT":153,"TEXCOORD_0":154},"indices":150,"material":9}]},{"name":"Mesh.11478","primitives":[{"attributes":{"NORMAL":157,"POSITION":156,"TANGENT":158,"TEXCOORD_0":159},"indices":155,"material":5}]},{"name":"VStabilizerH.008","primitives":[{"attributes":{"NORMAL":162,"POSITION":161,"TANGENT":163,"TEXCOORD_0":164},"indices":160,"material":9}]},{"name":"Mesh.004","primitives":[{"attributes":{"NORMAL":167,"POSITION":166,"TANGENT":168,"TEXCOORD_0":169},"indices":165,"material":9}]},{"name":"WingsH.013","primitives":[{"attributes":{"NORMAL":172,"POSITION":171,"TANGENT":173,"TEXCOORD_0":174},"indices":170,"material":7}]},{"name":"Engine 1H.010","primitives":[{"attributes":{"NORMAL":177,"POSITION":176,"TANGENT":178,"TEXCOORD_0":179},"indices":175,"material":0}]},{"name":"WingsH.021","primitives":[{"attributes":{"NORMAL":182,"POSITION":181,"TANGENT":183,"TEXCOORD_0":184},"indices":180,"material":9}]},{"name":"Mesh.11453","primitives":[{"attributes":{"NORMAL":187,"POSITION":186,"TANGENT":188,"TEXCOORD_0":189},"indices":185,"material":3}]},{"name":"Mesh.11491","primitives":[{"attributes":{"NORMAL":192,"POSITION":191,"TANGENT":193,"TEXCOORD_0":194},"indices":190,"material":6}]},{"name":"WingsH.002","primitives":[{"attributes":{"NORMAL":197,"POSITION":196,"TANGENT":198,"TEXCOORD_0":199},"indices":195,"material":1}]},{"name":"Mesh.11469","primitives":[{"attributes":{"NORMAL":202,"POSITION":201,"TANGENT":203,"TEXCOORD_0":204},"indices":200,"material":9}]},{"name":"Mesh.11460","primitives":[{"attributes":{"NORMAL":207,"POSITION":206,"TANGENT":208,"TEXCOORD_0":209},"indices":205,"material":6}]},{"name":"WingsH.039","primitives":[{"attributes":{"NORMAL":212,"POSITION":211,"TANGENT":213,"TEXCOORD_0":214},"indices":210,"material":1}]},{"name":"Mesh.11502","primitives":[{"attributes":{"NORMAL":217,"POSITION":216,"TANGENT":218,"TEXCOORD_0":219},"indices":215,"material":8}]},{"name":"HStabilizerH.011","primitives":[{"attributes":{"NORMAL":222,"POSITION":221,"TANGENT":223,"TEXCOORD_0":224},"indices":220,"material":7}]},{"name":"Mesh.11484","primitives":[{"attributes":{"NORMAL":227,"POSITION":226,"TANGENT":228,"TEXCOORD_0":229},"indices":225,"material":4}]},{"name":"WingsH.020","primitives":[{"attributes":{"NORMAL":232,"POSITION":231,"TANGENT":233,"TEXCOORD_0":234},"indices":230,"material":9}]},{"name":"Mesh.11498","primitives":[{"attributes":{"NORMAL":237,"POSITION":236,"TANGENT":238,"TEXCOORD_0":239},"indices":235,"material":5}]},{"name":"WingsH.012","primitives":[{"attributes":{"NORMAL":242,"POSITION":241,"TANGENT":243,"TEXCOORD_0":244},"indices":240,"material":1}]},{"name":"Misc BodyH.001","primitives":[{"attributes":{"NORMAL":247,"POSITION":246,"TANGENT":248,"TEXCOORD_0":249},"indices":245,"material":9}]},{"name":"WingsH.004","primitives":[{"attributes":{"NORMAL":252,"POSITION":251,"TANGENT":253,"TEXCOORD_0":254},"indices":250,"material":9}]},{"name":"Mesh.11451","primitives":[{"attributes":{"NORMAL":257,"POSITION":256,"TANGENT":258,"TEXCOORD_0":259},"indices":255,"material":2}]},{"name":"Mesh.11479","primitives":[{"attributes":{"NORMAL":262,"POSITION":261,"TANGENT":263,"TEXCOORD_0":264},"indices":260,"material":5}]},{"name":"WingsH.043","primitives":[{"attributes":{"NORMAL":267,"POSITION":266,"TANGENT":268,"TEXCOORD_0":269},"indices":265,"material":1}]},{"name":"Mesh.009","primitives":[{"attributes":{"NORMAL":272,"POSITION":271,"TANGENT":273,"TEXCOORD_0":274},"indices":270,"material":10}]},{"name":"WingsH.022","primitives":[{"attributes":{"NORMAL":277,"POSITION":276,"TANGENT":278,"TEXCOORD_0":279},"indices":275,"material":9}]},{"name":"Mesh.11463","primitives":[{"attributes":{"NORMAL":282,"POSITION":281,"TANGENT":283,"TEXCOORD_0":284},"indices":280,"material":5}]},{"name":"Mesh.11495","primitives":[{"attributes":{"NORMAL":287,"POSITION":286,"TANGENT":288,"TEXCOORD_0":289},"indices":285,"material":10}]},{"name":"Engine 1H.003","primitives":[{"attributes":{"NORMAL":292,"POSITION":291,"TANGENT":293,"TEXCOORD_0":294},"indices":290,"material":9}]},{"name":"WingsH.006","primitives":[{"attributes":{"NORMAL":297,"POSITION":296,"TANGENT":298,"TEXCOORD_0":299},"indices":295,"material":9}]},{"name":"VStabilizerH.006","primitives":[{"attributes":{"NORMAL":302,"POSITION":301,"TANGENT":303,"TEXCOORD_0":304},"indices":300,"material":7}]},{"name":"HStabilizerH.012","primitives":[{"attributes":{"NORMAL":307,"POSITION":306,"TANGENT":308,"TEXCOORD_0":309},"indices":305,"material":7}]},{"name":"HStabilizerH.013","primitives":[{"attributes":{"NORMAL":312,"POSITION":311,"TANGENT":313,"TEXCOORD_0":314},"indices":310,"material":9}]},{"name":"Mesh.11475","primitives":[{"attributes":{"NORMAL":317,"POSITION":316,"TANGENT":318,"TEXCOORD_0":319},"indices":315,"material":5}]},{"name":"Mesh.11512","primitives":[{"attributes":{"NORMAL":322,"POSITION":321,"TANGENT":323,"TEXCOORD_0":324},"indices":320,"material":5}]},{"name":"WingsH.040","primitives":[{"attributes":{"NORMAL":327,"POSITION":326,"TANGENT":328,"TEXCOORD_0":329},"indices":325,"material":7}]},{"name":"Mesh.11472","primitives":[{"attributes":{"NORMAL":332,"POSITION":331,"TANGENT":333,"TEXCOORD_0":334},"indices":330,"material":5}]},{"name":"WingsH.025","primitives":[{"attributes":{"NORMAL":337,"POSITION":336,"TANGENT":338,"TEXCOORD_0":339},"indices":335,"material":0}]},{"name":"FuselageH.014","primitives":[{"attributes":{"NORMAL":342,"POSITION":341,"TANGENT":343,"TEXCOORD_0":344},"indices":340,"material":9}]},{"name":"Engine 1 PylonH.002","primitives":[{"attributes":{"NORMAL":347,"POSITION":346,"TANGENT":348,"TEXCOORD_0":349},"indices":345,"material":9}]},{"name":"FuselageH.011","primitives":[{"attributes":{"NORMAL":352,"POSITION":351,"TANGENT":353,"TEXCOORD_0":354},"indices":350,"material":9}]},{"name":"Mesh.11468","primitives":[{"attributes":{"NORMAL":357,"POSITION":356,"TANGENT":358,"TEXCOORD_0":359},"indices":355,"material":1}]},{"name":"WingsH.044","primitives":[{"attributes":{"NORMAL":362,"POSITION":361,"TANGENT":363,"TEXCOORD_0":364},"indices":360,"material":0}]},{"name":"VStabilizerH.007","primitives":[{"attributes":{"NORMAL":367,"POSITION":366,"TANGENT":368,"TEXCOORD_0":369},"indices":365,"material":9}]},{"name":"WingsH.024","primitives":[{"attributes":{"NORMAL":372,"POSITION":371,"TANGENT":373,"TEXCOORD_0":374},"indices":370,"material":9}]},{"name":"Mesh.11483","primitives":[{"attributes":{"NORMAL":377,"POSITION":376,"TANGENT":378,"TEXCOORD_0":379},"indices":375,"material":9}]},{"name":"Engine 1H.014","primitives":[{"attributes":{"NORMAL":382,"POSITION":381,"TANGENT":383,"TEXCOORD_0":384},"indices":380,"material":9}]},{"name":"Engine 1H.009","primitives":[{"attributes":{"NORMAL":387,"POSITION":386,"TANGENT":388,"TEXCOORD_0":389},"indices":385,"material":0}]},{"name":"WingsH.047","primitives":[{"attributes":{"NORMAL":392,"POSITION":391,"TANGENT":393,"TEXCOORD_0":394},"indices":390,"material":9}]},{"name":"HStabilizerH.004","primitives":[{"attributes":{"NORMAL":397,"POSITION":396,"TANGENT":398,"TEXCOORD_0":399},"indices":395,"material":9}]},{"name":"WingsH.003","primitives":[{"attributes":{"NORMAL":402,"POSITION":401,"TANGENT":403,"TEXCOORD_0":404},"indices":400,"material":9}]},{"name":"Engine 1 PylonH.001","primitives":[{"attributes":{"NORMAL":407,"POSITION":406,"TANGENT":408,"TEXCOORD_0":409},"indices":405,"material":9}]},{"name":"Mesh.11485","primitives":[{"attributes":{"NORMAL":412,"POSITION":411,"TANGENT":413,"TEXCOORD_0":414},"indices":410,"material":8}]},{"name":"WingsH.042","primitives":[{"attributes":{"NORMAL":417,"POSITION":416,"TANGENT":418,"TEXCOORD_0":419},"indices":415,"material":9}]},{"name":"Mesh.11482","primitives":[{"attributes":{"NORMAL":422,"POSITION":421,"TANGENT":423,"TEXCOORD_0":424},"indices":420,"material":8}]},{"name":"Airline tail surface overlay","primitives":[{"attributes":{"POSITION":425,"NORMAL":426},"material":11},{"attributes":{"POSITION":427,"NORMAL":428,"TEXCOORD_0":429},"material":12}]}],"nodes":[{"mesh":29,"name":"aftlightedfuse"},{"mesh":28,"name":"antennae"},{"mesh":51,"name":"cockpit_0"},{"mesh":3,"name":"eng1fan"},{"mesh":81,"name":"Eng1Pylon"},{"mesh":10,"name":"eng2fan"},{"mesh":69,"name":"Eng2Pylon"},{"mesh":73,"name":"fin"},{"mesh":22,"name":"Fuselage"},{"mesh":26,"name":"hstab"},{"mesh":15,"name":"hstabedge"},{"mesh":43,"name":"lbeacon"},{"mesh":57,"name":"lbeaconbase"},{"mesh":16,"name":"lbeaconlens"},{"mesh":6,"name":"LBL"},{"mesh":80,"name":"lgeardoor"},{"mesh":39,"name":"lglass"},{"mesh":74,"name":"lhaileron"},{"mesh":79,"name":"lhelevator"},{"mesh":33,"name":"lhibflap"},{"mesh":83,"name":"lhibspoiler"},{"mesh":63,"name":"lhlandinglight"},{"mesh":44,"name":"lhlightedelevator"},{"mesh":34,"name":"lhlightedwing"},{"mesh":5,"name":"lhlightedwinglet"},{"mesh":42,"name":"lhltcover"},{"mesh":82,"name":"lhnavlight"},{"mesh":68,"name":"lhnosedoor"},{"mesh":17,"name":"lhobflap"},{"mesh":50,"name":"lhobspoiler"},{"mesh":18,"name":"lhobspoilerb"},{"mesh":31,"name":"lhstrobelight"},{"mesh":66,"name":"lhtaxilight"},{"mesh":60,"name":"lightedfin"},{"mesh":65,"name":"lightedpath"},{"mesh":20,"name":"lightedrudder"},{"mesh":61,"name":"lightedstab"},{"mesh":47,"name":"logolts"},{"mesh":12,"name":"ltnavlight"},{"mesh":21,"name":"lwing"},{"mesh":67,"name":"lwingedge"},{"mesh":49,"name":"Misc"},{"mesh":77,"name":"no1engchrome"},{"mesh":76,"name":"no1engine"},{"mesh":19,"name":"no1reverser"},{"mesh":35,"name":"no2engchrome"},{"mesh":58,"name":"no2engine"},{"mesh":30,"name":"no2reverser"},{"mesh":70,"name":"nosedoor"},{"mesh":71,"name":"noselandinglights"},{"mesh":0,"name":"OHexit1"},{"mesh":55,"name":"path"},{"mesh":14,"name":"rgeardoor"},{"mesh":53,"name":"rglass"},{"mesh":59,"name":"rhaileron"},{"mesh":62,"name":"rhelevator"},{"mesh":40,"name":"rhibflap"},{"mesh":78,"name":"rhibspoiler"},{"mesh":13,"name":"rhlandinglight"},{"mesh":1,"name":"rhlightedelevator"},{"mesh":23,"name":"rhlightedwing"},{"mesh":11,"name":"rhlightedwinglet"},{"mesh":48,"name":"rhltcover"},{"mesh":45,"name":"rhnavlight"},{"mesh":4,"name":"rhnosedoor"},{"mesh":75,"name":"rhobflap"},{"mesh":8,"name":"rhobspoiler"},{"mesh":46,"name":"rhobspoilerb"},{"mesh":64,"name":"rhstrobelight"},{"mesh":9,"name":"rhtaxilight"},{"mesh":32,"name":"rudder"},{"mesh":36,"name":"rwing"},{"mesh":72,"name":"rwingedge"},{"mesh":52,"name":"tstrobelight"},{"mesh":27,"name":"ubeacon"},{"mesh":54,"name":"ubeaconbase"},{"mesh":84,"name":"ubeaconlens"},{"mesh":41,"name":"UBL"},{"mesh":56,"name":"utnavlight"},{"mesh":38,"name":"UTNL"},{"mesh":25,"name":"vstabedge"},{"mesh":7,"name":"Wind.border"},{"mesh":2,"name":"windshield"},{"mesh":24,"name":"winglights"},{"mesh":37,"name":"wipers"},{"name":"SkywardCoordinateAlignment","matrix":[1,0,0,0,0,1,0,0,0,0,1,0,0,0,0,1],"children":[84,83,82,80,78,76,75,74,73,72,71,70,69,68,67,66,65,64,63,62,61,60,59,58,57,56,55,54,53,52,51,49,48,47,46,45,44,43,42,40,39,38,37,36,35,34,33,32,31,30,29,28,27,26,25,24,23,22,21,20,19,18,17,16,15,13,12,11,10,9,7,5,3,2,1,0,81,79,77,50,41,14,8,6,4]},{"name":"AirlineTailBranding","mesh":85}],"samplers":[{},{"magFilter":9729,"minFilter":9987,"wrapS":33071,"wrapT":33071}],"scene":0,"scenes":[{"name":"Scene","nodes":[85,86]}],"textures":[{"sampler":0,"source":0},{"sampler":0,"source":1},{"sampler":0,"source":2},{"source":3,"sampler":1}],"extras":{"skyward":{"source":"https://github.com/Ysurac/FlightAirMap-3dmodels","commit":"0906d9ba1bdd906ce45807e45ed706c09912db19","changes":"Converted legacy glTF to glTF 2.0 with Cesium; rigid axis alignment, horizontal centering, and source transforms baked into positions/normals for correct Cesium bounds. Original shape, materials and paint retained. Added surface-following operator tail paint and unmodified identification-logo texture. Branding is illustrative, not a registration-specific livery.","license":"GPL-2.0","sourceFiles":["source/flightairmap/crj2/COPYING.txt","source/flightairmap/crj2/crj2.blend"],"operator":"WZZ"}}}