{"accessors":[{"bufferView":104,"byteOffset":0,"componentType":5123,"count":13965,"type":"SCALAR","min":[0],"max":[3767],"name":"accessor_102"},{"bufferView":104,"byteOffset":27930,"componentType":5123,"count":168,"type":"SCALAR","min":[0],"max":[61],"name":"accessor_1020"},{"bufferView":12,"byteOffset":0,"componentType":5126,"count":62,"max":[0.06877002865076065,1.5761600732803345,-14.510149955749512],"min":[-0.31978926062583923,1.263740062713623,-16.14072036743164],"type":"VEC3","name":"accessor_1022"},{"bufferView":12,"byteOffset":744,"componentType":5126,"count":62,"max":[0.8500139713287354,0.9890699982643127,0.8204129934310913],"min":[-0.8508170247077942,-0.9890699982643127,-0.8327580094337463],"type":"VEC3","name":"accessor_1024"},{"bufferView":13,"byteOffset":0,"componentType":5126,"count":62,"max":[0.08793500065803528,0.11293900012969971],"min":[0.04237300157546997,0.1044279932975769],"type":"VEC2","name":"accessor_1026"},{"bufferView":14,"byteOffset":0,"componentType":5126,"count":3768,"max":[1.838369369506836,4.8961896896362305,17.470300674438477],"min":[-1.7008304595947266,1.1890300512313843,-17.553878784179688],"type":"VEC3","name":"accessor_104"},{"bufferView":104,"byteOffset":28266,"componentType":5123,"count":108,"type":"SCALAR","min":[0],"max":[39],"name":"accessor_1047"},{"bufferView":14,"byteOffset":45216,"componentType":5126,"count":40,"max":[-1.9180102348327637,1.8940458297729492,-0.9321501851081848],"min":[-3.1370601654052734,1.4995248317718506,-1.7712302207946777],"type":"VEC3","name":"accessor_1049"},{"bufferView":14,"byteOffset":45696,"componentType":5126,"count":40,"max":[0.7087240219116211,0.9859349727630615,0.20468001067638397],"min":[-0.8936970233917236,-0.9794560074806213,-0.45316699147224426],"type":"VEC3","name":"accessor_1051"},{"bufferView":15,"byteOffset":0,"componentType":5126,"count":40,"max":[0.5831130146980286,0.6161540150642395],"min":[0.5414080023765564,0.5880709886550903],"type":"VEC2","name":"accessor_1053"},{"bufferView":16,"byteOffset":0,"componentType":5126,"count":3768,"max":[0.9999989867210388,1,0.9996899962425232],"min":[-0.9999989867210388,-1,-1],"type":"VEC3","name":"accessor_106"},{"bufferView":104,"byteOffset":28482,"componentType":5123,"count":264,"type":"SCALAR","min":[0],"max":[125],"name":"accessor_1074"},{"bufferView":16,"byteOffset":45216,"componentType":5126,"count":126,"max":[-1.4948402643203735,1.6231799125671387,-0.8038700222969055],"min":[-1.9245203733444214,0.9229298830032349,-1.7948901653289795],"type":"VEC3","name":"accessor_1076"},{"bufferView":16,"byteOffset":46728,"componentType":5126,"count":126,"max":[0.9994829893112183,0.9928159713745117,0.9997860193252563],"min":[-0.9995110034942627,-0.9980769753456116,-0.9998409748077393],"type":"VEC3","name":"accessor_1078"},{"bufferView":17,"byteOffset":0,"componentType":5126,"count":3768,"max":[0.9858850240707397,0.23983699083328247],"min":[0.002669990062713623,0.010890007019042969],"type":"VEC2","name":"accessor_108"},{"bufferView":17,"byteOffset":30144,"componentType":5126,"count":126,"max":[0.5422660112380981,0.6218169927597046],"min":[0.3025889992713928,0.3692389726638794],"type":"VEC2","name":"accessor_1080"},{"bufferView":104,"byteOffset":29010,"componentType":5123,"count":108,"type":"SCALAR","min":[0],"max":[39],"name":"accessor_1101"},{"bufferView":18,"byteOffset":0,"componentType":5126,"count":40,"max":[3.274599552154541,1.8940458297729492,-0.9321500658988953],"min":[2.0555496215820312,1.4995248317718506,-1.7712299823760986],"type":"VEC3","name":"accessor_1103"},{"bufferView":18,"byteOffset":480,"componentType":5126,"count":40,"max":[0.89369797706604,0.9859349727630615,0.20469097793102264],"min":[-0.7087219953536987,-0.9794570207595825,-0.45317500829696655],"type":"VEC3","name":"accessor_1105"},{"bufferView":19,"byteOffset":0,"componentType":5126,"count":40,"max":[0.5831130146980286,0.6161540150642395],"min":[0.5414080023765564,0.5880709886550903],"type":"VEC2","name":"accessor_1107"},{"bufferView":104,"byteOffset":29226,"componentType":5123,"count":264,"type":"SCALAR","min":[0],"max":[125],"name":"accessor_1128"},{"bufferView":20,"byteOffset":0,"componentType":5126,"count":126,"max":[2.0620596408843994,1.6231799125671387,-0.803869903087616],"min":[1.6323795318603516,0.9229298830032349,-1.7948899269104004],"type":"VEC3","name":"accessor_1130"},{"bufferView":20,"byteOffset":1512,"componentType":5126,"count":126,"max":[0.9995120167732239,0.9928150177001953,0.9997860193252563],"min":[-0.9994819760322571,-0.9980769753456116,-0.9998409748077393],"type":"VEC3","name":"accessor_1132"},{"bufferView":21,"byteOffset":0,"componentType":5126,"count":126,"max":[0.5422660112380981,0.6218169927597046],"min":[0.3025889992713928,0.3692389726638794],"type":"VEC2","name":"accessor_1134"},{"bufferView":104,"byteOffset":29754,"componentType":5123,"count":144,"type":"SCALAR","min":[0],"max":[53],"name":"accessor_1155"},{"bufferView":22,"byteOffset":0,"componentType":5126,"count":54,"max":[-0.6234802603721619,4.573479652404785,16.602262496948242],"min":[-6.026180744171143,3.6321699619293213,14.011651992797852],"type":"VEC3","name":"accessor_1157"},{"bufferView":22,"byteOffset":648,"componentType":5126,"count":54,"max":[0.2122180014848709,0.9877020120620728,0.12693500518798828],"min":[-0.47360795736312866,-0.9903119802474976,-0.9259709715843201],"type":"VEC3","name":"accessor_1159"},{"bufferView":23,"byteOffset":0,"componentType":5126,"count":54,"max":[0.6841179728507996,0.7881289720535278],"min":[0.515271008014679,0.7071659564971924],"type":"VEC2","name":"accessor_1161"},{"bufferView":104,"byteOffset":30042,"componentType":5123,"count":144,"type":"SCALAR","min":[0],"max":[53],"name":"accessor_1182"},{"bufferView":24,"byteOffset":0,"componentType":5126,"count":54,"max":[6.164599418640137,4.573479652404785,16.60236167907715],"min":[0.7619395852088928,3.6321699619293213,14.011752128601074],"type":"VEC3","name":"accessor_1184"},{"bufferView":24,"byteOffset":648,"componentType":5126,"count":54,"max":[0.47360703349113464,0.9877020120620728,0.12693500518798828],"min":[-0.2122189998626709,-0.9903119802474976,-0.9259709715843201],"type":"VEC3","name":"accessor_1186"},{"bufferView":25,"byteOffset":0,"componentType":5126,"count":54,"max":[0.47019100189208984,0.7881289720535278],"min":[0.30134400725364685,0.7071659564971924],"type":"VEC2","name":"accessor_1188"},{"bufferView":104,"byteOffset":30330,"componentType":5123,"count":264,"type":"SCALAR","min":[0],"max":[127],"name":"accessor_1209"},{"bufferView":26,"byteOffset":0,"componentType":5126,"count":128,"max":[1.1629807949066162,2.793030023574829,-15.921927452087402],"min":[-1.0254321098327637,2.7472898960113525,-16.243118286132812],"type":"VEC3","name":"accessor_1211"},{"bufferView":26,"byteOffset":1536,"componentType":5126,"count":128,"max":[0.9826899766921997,0.9360989928245544,1],"min":[-0.9828119874000549,-0.9367259740829468,-1],"type":"VEC3","name":"accessor_1213"},{"bufferView":104,"byteOffset":30858,"componentType":5123,"count":264,"type":"SCALAR","min":[0],"max":[127],"name":"accessor_1236"},{"bufferView":26,"byteOffset":3072,"componentType":5126,"count":128,"max":[1.1488008499145508,2.2567899227142334,-15.911627769470215],"min":[-1.0112590789794922,2.205009937286377,-16.232818603515625],"type":"VEC3","name":"accessor_1238"},{"bufferView":26,"byteOffset":4608,"componentType":5126,"count":128,"max":[0.9832469820976257,0.9447159767150879,1],"min":[-0.9832410216331482,-0.9347360134124756,-1],"type":"VEC3","name":"accessor_1240"},{"bufferView":104,"byteOffset":31386,"componentType":5123,"count":384,"type":"SCALAR","min":[0],"max":[167],"name":"accessor_1263"},{"bufferView":26,"byteOffset":6144,"componentType":5126,"count":168,"max":[0.08015000820159912,5.202770233154297,6.172241687774658],"min":[0.05739052593708038,0.8957730531692505,-9.740927696228027],"type":"VEC3","name":"accessor_1265"},{"bufferView":26,"byteOffset":8160,"componentType":5126,"count":168,"max":[0.9999079704284668,1,0.07922825962305069],"min":[-0.9999079704284668,-1,-0.41307803988456726],"type":"VEC3","name":"accessor_1267"},{"bufferView":27,"byteOffset":0,"componentType":5126,"count":168,"max":[0.18389800190925598,0.2883009910583496],"min":[0.027502000331878662,0.2395300269126892],"type":"VEC2","name":"accessor_1269"},{"bufferView":104,"byteOffset":32154,"componentType":5123,"count":234,"type":"SCALAR","min":[0],"max":[125],"name":"accessor_129"},{"bufferView":104,"byteOffset":32622,"componentType":5123,"count":1506,"type":"SCALAR","min":[0],"max":[411],"name":"accessor_1290"},{"bufferView":28,"byteOffset":0,"componentType":5126,"count":412,"max":[6.1636881828308105,4.617909908294678,16.476333618164062],"min":[-6.026151180267334,3.5314698219299316,11.912428855895996],"type":"VEC3","name":"accessor_1292"},{"bufferView":28,"byteOffset":4944,"componentType":5126,"count":412,"max":[1,1,0.9259709715843201],"min":[-1,-0.9909279942512512,-0.8397790193557739],"type":"VEC3","name":"accessor_1294"},{"bufferView":29,"byteOffset":0,"componentType":5126,"count":412,"max":[0.47019100189208984,0.8537359833717346],"min":[0.30134400725364685,0.7111040353775024],"type":"VEC2","name":"accessor_1296"},{"bufferView":30,"byteOffset":0,"componentType":5126,"count":126,"max":[0.46876582503318787,2.4950201511383057,-13.66289234161377],"min":[-0.3312261998653412,1.2225000858306885,-16.14072036743164],"type":"VEC3","name":"accessor_131"},{"bufferView":104,"byteOffset":35634,"componentType":5123,"count":855,"type":"SCALAR","min":[0],"max":[277],"name":"accessor_1317"},{"bufferView":30,"byteOffset":1512,"componentType":5126,"count":278,"max":[1.423939824104309,3.9516100883483887,-14.394929885864258],"min":[-1.2864001989364624,3.2556869983673096,-16.42784881591797],"type":"VEC3","name":"accessor_1319"},{"bufferView":30,"byteOffset":4848,"componentType":5126,"count":278,"max":[0.9469130039215088,0.8757370114326477,-0.17762304842472076],"min":[-0.9469130039215088,0.2628999948501587,-0.6062359809875488],"type":"VEC3","name":"accessor_1321"},{"bufferView":30,"byteOffset":8184,"componentType":5126,"count":126,"max":[1,0.9580259919166565,1],"min":[-1,-0.9976819753646851,-1],"type":"VEC3","name":"accessor_133"},{"bufferView":104,"byteOffset":37344,"componentType":5123,"count":2304,"type":"SCALAR","min":[0],"max":[593],"name":"accessor_1344"},{"bufferView":30,"byteOffset":9696,"componentType":5126,"count":594,"max":[-4.30417013168335,2.361879825592041,-3.977489709854126],"min":[-6.631209850311279,0.02759993076324463,-7.511111736297607],"type":"VEC3","name":"accessor_1346"},{"bufferView":30,"byteOffset":16824,"componentType":5126,"count":594,"max":[0.999925971031189,0.9999250173568726,0.33775198459625244],"min":[-0.999925971031189,-0.9999250173568726,-0.9824029803276062],"type":"VEC3","name":"accessor_1348"},{"bufferView":31,"byteOffset":0,"componentType":5126,"count":594,"max":[0.9272739887237549,0.36305004358291626],"min":[0.0007730000070296228,0.003965973854064941],"type":"VEC2","name":"accessor_1350"},{"bufferView":104,"byteOffset":41952,"componentType":5123,"count":2304,"type":"SCALAR","min":[0],"max":[593],"name":"accessor_1371"},{"bufferView":32,"byteOffset":0,"componentType":5126,"count":594,"max":[6.769189834594727,2.3623199462890625,-3.9773099422454834],"min":[4.441269874572754,0.027159929275512695,-7.512249946594238],"type":"VEC3","name":"accessor_1373"},{"bufferView":32,"byteOffset":7128,"componentType":5126,"count":594,"max":[0.999925971031189,0.9999250173568726,0.3377529978752136],"min":[-0.999925971031189,-0.9999250173568726,-0.9824020266532898],"type":"VEC3","name":"accessor_1375"},{"bufferView":33,"byteOffset":0,"componentType":5126,"count":594,"max":[0.9272739887237549,0.36305004358291626],"min":[0.0007730000070296228,0.003965973854064941],"type":"VEC2","name":"accessor_1377"},{"bufferView":104,"byteOffset":46560,"componentType":5123,"count":492,"type":"SCALAR","min":[0],"max":[133],"name":"accessor_1398"},{"bufferView":34,"byteOffset":0,"componentType":5126,"count":134,"max":[0.2894086241722107,11.076359748840332,16.76999855041504],"min":[-0.15187136828899384,4.747808933258057,13.047579765319824],"type":"VEC3","name":"accessor_1400"},{"bufferView":34,"byteOffset":1608,"componentType":5126,"count":134,"max":[0.9998130202293396,0.9997499585151672,0.8775010108947754],"min":[-0.9998130202293396,-0.9990509748458862,-0.8971430063247681],"type":"VEC3","name":"accessor_1402"},{"bufferView":35,"byteOffset":0,"componentType":5126,"count":134,"max":[0.9706509709358215,0.9372780323028564],"min":[0.04468990117311478,0.5875200033187866],"type":"VEC2","name":"accessor_1404"},{"bufferView":104,"byteOffset":47544,"componentType":5123,"count":1248,"type":"SCALAR","min":[0],"max":[224],"name":"accessor_1425"},{"bufferView":36,"byteOffset":0,"componentType":5126,"count":225,"max":[0,0.26830899715423584,0.2691439986228943],"min":[-0.5499989986419678,-0.26830899715423584,-0.2691439986228943],"type":"VEC3","name":"accessor_1427"},{"bufferView":36,"byteOffset":2700,"componentType":5126,"count":225,"max":[-0.1309330016374588,0.9913910031318665,0.9913370013237],"min":[-1,-0.9913910031318665,-0.9913370013237],"type":"VEC3","name":"accessor_1429"},{"bufferView":37,"byteOffset":0,"componentType":5126,"count":225,"max":[0.17519700527191162,0.9808269739151001],"min":[0.024924999102950096,0.8300870060920715],"type":"VEC2","name":"accessor_1431"},{"bufferView":38,"byteOffset":0,"componentType":5126,"count":225,"max":[0,0.2697699964046478,0.2706089913845062],"min":[-0.5529940128326416,-0.26976901292800903,-0.2706089913845062],"type":"VEC3","name":"accessor_1454"},{"bufferView":38,"byteOffset":2700,"componentType":5126,"count":225,"max":[-0.1309330016374588,0.9913910031318665,0.9913370013237],"min":[-1,-0.9913910031318665,-0.9913370013237],"type":"VEC3","name":"accessor_1456"},{"bufferView":104,"byteOffset":50040,"componentType":5123,"count":168,"type":"SCALAR","min":[0],"max":[65],"name":"accessor_1479"},{"bufferView":38,"byteOffset":5400,"componentType":5126,"count":66,"max":[6.2526092529296875,2.869544744491577,-0.9025298953056335],"min":[1.9917194843292236,2.1631243228912354,-1.5990999937057495],"type":"VEC3","name":"accessor_1481"},{"bufferView":38,"byteOffset":6192,"componentType":5126,"count":66,"max":[1,0.9939129948616028,1],"min":[-0.9999849796295166,-0.9939129948616028,-1],"type":"VEC3","name":"accessor_1483"},{"bufferView":39,"byteOffset":0,"componentType":5126,"count":66,"max":[0.4620499908924103,0.6135870218276978],"min":[0.3342069983482361,0.5868909955024719],"type":"VEC2","name":"accessor_1485"},{"bufferView":104,"byteOffset":50376,"componentType":5123,"count":468,"type":"SCALAR","min":[0],"max":[255],"name":"accessor_1506"},{"bufferView":40,"byteOffset":0,"componentType":5126,"count":256,"max":[12.261969566345215,3.740839958190918,1.4551303386688232],"min":[6.254239082336426,2.800198793411255,-1.3128198385238647],"type":"VEC3","name":"accessor_1508"},{"bufferView":40,"byteOffset":3072,"componentType":5126,"count":256,"max":[0.9696360230445862,0.9910489916801453,0.9259679913520813],"min":[-0.8903539776802063,-0.9910479784011841,-0.9274929761886597],"type":"VEC3","name":"accessor_1510"},{"bufferView":41,"byteOffset":0,"componentType":5126,"count":256,"max":[0.33416199684143066,0.5982639789581299],"min":[0.1677439957857132,0.5216140151023865],"type":"VEC2","name":"accessor_1512"},{"bufferView":104,"byteOffset":51312,"componentType":5123,"count":825,"type":"SCALAR","min":[0],"max":[301],"name":"accessor_1533"},{"bufferView":42,"byteOffset":0,"componentType":5126,"count":302,"max":[0.34754180908203125,11.05872917175293,15.982338905334473],"min":[-0.21000517904758453,4.575857639312744,8.2039794921875],"type":"VEC3","name":"accessor_1535"},{"bufferView":42,"byteOffset":3624,"componentType":5126,"count":302,"max":[0.9997860193252563,0.9997499585151672,0.8971660137176514],"min":[-0.9997860193252563,-0.9999079704284668,-0.7023329734802246],"type":"VEC3","name":"accessor_1537"},{"bufferView":43,"byteOffset":0,"componentType":5126,"count":302,"max":[0.926816999912262,1],"min":[0,0.5875200033187866],"type":"VEC2","name":"accessor_1539"},{"bufferView":104,"byteOffset":52962,"componentType":5123,"count":108,"type":"SCALAR","min":[0],"max":[47],"name":"accessor_156"},{"bufferView":104,"byteOffset":53178,"componentType":5123,"count":6912,"type":"SCALAR","min":[0],"max":[2425],"name":"accessor_1560"},{"bufferView":44,"byteOffset":0,"componentType":5126,"count":2426,"max":[1.7868094444274902,3.9655280113220215,7.83650016784668],"min":[-1.6492705345153809,3.3259849548339844,-16.31407928466797],"type":"VEC3","name":"accessor_1562"},{"bufferView":44,"byteOffset":29112,"componentType":5126,"count":2426,"max":[0.9942479729652405,0.8832610249519348,0.05789164453744888],"min":[-0.9942479729652405,0.09010419994592667,-0.7931240200996399],"type":"VEC3","name":"accessor_1564"},{"bufferView":44,"byteOffset":58224,"componentType":5126,"count":48,"max":[1.7288295030593872,2.527261972427368,-9.539409637451172],"min":[0.9991496205329895,1.562600016593933,-11.096359252929688],"type":"VEC3","name":"accessor_158"},{"bufferView":104,"byteOffset":67002,"componentType":5123,"count":216,"type":"SCALAR","min":[0],"max":[73],"name":"accessor_1587"},{"bufferView":44,"byteOffset":58800,"componentType":5126,"count":74,"max":[1.4693794250488281,1.4651100635528564,-7.646419525146484],"min":[-1.3286705017089844,1.2260100841522217,-8.12971019744873],"type":"VEC3","name":"accessor_1589"},{"bufferView":44,"byteOffset":59688,"componentType":5126,"count":74,"max":[0.6505879759788513,-0.7275760173797607,-0.1426590234041214],"min":[-0.6493080258369446,-0.9550579786300659,-0.27887800335884094],"type":"VEC3","name":"accessor_1591"},{"bufferView":44,"byteOffset":60576,"componentType":5126,"count":48,"max":[0.9627499580383301,1,1],"min":[-0.9627499580383301,-1,-1],"type":"VEC3","name":"accessor_160"},{"bufferView":104,"byteOffset":67434,"componentType":5123,"count":513,"type":"SCALAR","min":[0],"max":[151],"name":"accessor_1614"},{"bufferView":44,"byteOffset":61152,"componentType":5126,"count":152,"max":[16.114269256591797,4.39423942565918,2.2618703842163086],"min":[-15.976730346679688,4.156990051269531,2.027270793914795],"type":"VEC3","name":"accessor_1616"},{"bufferView":44,"byteOffset":62976,"componentType":5126,"count":152,"max":[0.930741012096405,0.9531949758529663,-0.03081873245537281],"min":[-0.9307479858398438,-0.9870759844779968,-0.7338339686393738],"type":"VEC3","name":"accessor_1618"},{"bufferView":45,"byteOffset":0,"componentType":5126,"count":48,"max":[0.8013319969177246,0.22943097352981567],"min":[0.7580170035362244,0.20260900259017944],"type":"VEC2","name":"accessor_162"},{"bufferView":104,"byteOffset":68460,"componentType":5123,"count":5754,"type":"SCALAR","min":[0],"max":[1851],"name":"accessor_1641"},{"bufferView":46,"byteOffset":0,"componentType":5126,"count":1852,"max":[17.36336898803711,5.602349758148193,4.726190567016602],"min":[-17.225830078125,1.2260178327560425,-7.0426201820373535],"type":"VEC3","name":"accessor_1643"},{"bufferView":46,"byteOffset":22224,"componentType":5126,"count":1852,"max":[1,0.9999489784240723,0.9999989867210388],"min":[-1,-0.9999899864196777,-0.9992110133171082],"type":"VEC3","name":"accessor_1645"},{"bufferView":47,"byteOffset":0,"componentType":5126,"count":1852,"max":[0.940904974937439,0.7185379862785339],"min":[0.058993998914957047,0.42162901163101196],"type":"VEC2","name":"accessor_1647"},{"bufferView":104,"byteOffset":79968,"componentType":5123,"count":108,"type":"SCALAR","min":[0],"max":[47],"name":"accessor_183"},{"bufferView":48,"byteOffset":0,"componentType":5126,"count":48,"max":[1.7446088790893555,2.525502920150757,5.081600189208984],"min":[1.0205408334732056,1.5598400831222534,3.624500274658203],"type":"VEC3","name":"accessor_185"},{"bufferView":48,"byteOffset":576,"componentType":5126,"count":48,"max":[0.9604299664497375,1,1],"min":[-0.9604299664497375,-1,-1],"type":"VEC3","name":"accessor_187"},{"bufferView":49,"byteOffset":0,"componentType":5126,"count":48,"max":[0.39179500937461853,0.2295209765434265],"min":[0.3512589931488037,0.20265698432922363],"type":"VEC2","name":"accessor_189"},{"bufferView":104,"byteOffset":80184,"componentType":5123,"count":156,"type":"SCALAR","min":[0],"max":[87],"name":"accessor_21"},{"bufferView":104,"byteOffset":80496,"componentType":5123,"count":2832,"type":"SCALAR","min":[0],"max":[904],"name":"accessor_210"},{"bufferView":50,"byteOffset":0,"componentType":5126,"count":905,"max":[1.8012796640396118,2.833132028579712,3.5769598484039307],"min":[-1.6637402772903442,0.6964700222015381,-9.008509635925293],"type":"VEC3","name":"accessor_212"},{"bufferView":50,"byteOffset":10860,"componentType":5126,"count":905,"max":[0.9999960064888,0.9999939799308777,1],"min":[-0.9999960064888,-0.9999960064888,-1],"type":"VEC3","name":"accessor_214"},{"bufferView":51,"byteOffset":0,"componentType":5126,"count":905,"max":[0.5049059987068176,1],"min":[0,0.31838297843933105],"type":"VEC2","name":"accessor_216"},{"bufferView":52,"byteOffset":0,"componentType":5126,"count":88,"max":[-12.091529846191406,4.314729690551758,3.5854392051696777],"min":[-15.46483039855957,3.5031399726867676,1.604379415512085],"type":"VEC3","name":"accessor_23"},{"bufferView":104,"byteOffset":86160,"componentType":5123,"count":90,"type":"SCALAR","min":[0],"max":[31],"name":"accessor_237"},{"bufferView":52,"byteOffset":1056,"componentType":5126,"count":32,"max":[-0.8204243183135986,4.437029838562012,-12.112919807434082],"min":[-1.5938103199005127,2.5683181285858154,-13.080973625183105],"type":"VEC3","name":"accessor_239"},{"bufferView":52,"byteOffset":1440,"componentType":5126,"count":32,"max":[-0.6627039909362793,0.7426279783248901,-0.05401614308357239],"min":[-0.9978029727935791,-0.2672179937362671,-0.09734613448381424],"type":"VEC3","name":"accessor_241"},{"bufferView":53,"byteOffset":0,"componentType":5126,"count":32,"max":[0.15553900599479675,0.07629400491714478],"min":[0.12834100425243378,0.023791015148162842],"type":"VEC2","name":"accessor_243"},{"bufferView":54,"byteOffset":0,"componentType":5126,"count":88,"max":[1,0.9745829701423645,0.3003790080547333],"min":[-1,-0.9860690236091614,-0.9285309910774231],"type":"VEC3","name":"accessor_25"},{"bufferView":104,"byteOffset":86340,"componentType":5123,"count":294,"type":"SCALAR","min":[0],"max":[117],"name":"accessor_264"},{"bufferView":54,"byteOffset":1056,"componentType":5126,"count":118,"max":[-0.7776843309402466,4.437029838562012,-12.112919807434082],"min":[-1.5938103199005127,2.5683181285858154,-13.080973625183105],"type":"VEC3","name":"accessor_266"},{"bufferView":54,"byteOffset":2472,"componentType":5126,"count":118,"max":[0.9978029727935791,1,1],"min":[-0.49995100498199463,-1,-1],"type":"VEC3","name":"accessor_268"},{"bufferView":55,"byteOffset":0,"componentType":5126,"count":88,"max":[0.9249429702758789,0.5173250436782837],"min":[0.8314210176467896,0.46243900060653687],"type":"VEC2","name":"accessor_27"},{"bufferView":55,"byteOffset":704,"componentType":5126,"count":118,"max":[0.15553900599479675,0.07629400491714478],"min":[0.12834100425243378,0.023791015148162842],"type":"VEC2","name":"accessor_270"},{"bufferView":104,"byteOffset":86928,"componentType":5123,"count":168,"type":"SCALAR","min":[0],"max":[51],"name":"accessor_291"},{"bufferView":56,"byteOffset":0,"componentType":5126,"count":52,"max":[1.7434996366500854,4.437029838562012,-11.844279289245605],"min":[0.9907116889953613,2.5683181285858154,-12.812335014343262],"type":"VEC3","name":"accessor_293"},{"bufferView":56,"byteOffset":624,"componentType":5126,"count":52,"max":[0.99965900182724,0.7474949955940247,-0.02024186961352825],"min":[0.6632699966430664,-0.26858100295066833,-0.09856127202510834],"type":"VEC3","name":"accessor_295"},{"bufferView":57,"byteOffset":0,"componentType":5126,"count":52,"max":[0.8490699529647827,0.20146501064300537],"min":[0.8221390247344971,0.149478018283844],"type":"VEC2","name":"accessor_297"},{"bufferView":104,"byteOffset":87264,"componentType":5123,"count":444,"type":"SCALAR","min":[0],"max":[143],"name":"accessor_318"},{"bufferView":58,"byteOffset":0,"componentType":5126,"count":144,"max":[1.7434996366500854,4.437029838562012,-11.844279289245605],"min":[0.9236177206039429,2.5683181285858154,-12.812335014343262],"type":"VEC3","name":"accessor_320"},{"bufferView":58,"byteOffset":1728,"componentType":5126,"count":144,"max":[4.3711398944878965e-8,1,1],"min":[-0.99965900182724,-1,-1],"type":"VEC3","name":"accessor_322"},{"bufferView":59,"byteOffset":0,"componentType":5126,"count":144,"max":[0.8490699529647827,0.20146501064300537],"min":[0.8221390247344971,0.149478018283844],"type":"VEC2","name":"accessor_324"},{"bufferView":104,"byteOffset":88152,"componentType":5123,"count":138,"type":"SCALAR","min":[0],"max":[41],"name":"accessor_345"},{"bufferView":60,"byteOffset":0,"componentType":5126,"count":42,"max":[-1.04068124294281,4.437029838562012,9.256999969482422],"min":[-1.5607012510299683,2.568319082260132,8.288900375366211],"type":"VEC3","name":"accessor_347"},{"bufferView":60,"byteOffset":504,"componentType":5126,"count":42,"max":[-0.6341609954833984,0.7732009887695312,0.17291295528411865],"min":[-0.9990209937095642,-0.4668459892272949,0.0002997892443090677],"type":"VEC3","name":"accessor_349"},{"bufferView":61,"byteOffset":0,"componentType":5126,"count":42,"max":[0.7559490203857422,0.07629400491714478],"min":[0.728751003742218,0.023791015148162842],"type":"VEC2","name":"accessor_351"},{"bufferView":104,"byteOffset":88428,"componentType":5123,"count":354,"type":"SCALAR","min":[0],"max":[129],"name":"accessor_372"},{"bufferView":62,"byteOffset":0,"componentType":5126,"count":130,"max":[-1.00658118724823,4.437029838562012,9.256999969482422],"min":[-1.5607012510299683,2.568319082260132,8.288900375366211],"type":"VEC3","name":"accessor_374"},{"bufferView":62,"byteOffset":1560,"componentType":5126,"count":130,"max":[0.9990209937095642,1,1],"min":[-4.3711398944878965e-8,-1,-1],"type":"VEC3","name":"accessor_376"},{"bufferView":63,"byteOffset":0,"componentType":5126,"count":130,"max":[0.7559490203857422,0.07629400491714478],"min":[0.728751003742218,0.023791015148162842],"type":"VEC2","name":"accessor_378"},{"bufferView":104,"byteOffset":89136,"componentType":5123,"count":147,"type":"SCALAR","min":[0],"max":[43],"name":"accessor_399"},{"bufferView":64,"byteOffset":0,"componentType":5126,"count":44,"max":[1.698238730430603,4.437029838562012,9.256999969482422],"min":[1.1739287376403809,2.568319082260132,8.288900375366211],"type":"VEC3","name":"accessor_401"},{"bufferView":64,"byteOffset":528,"componentType":5126,"count":44,"max":[0.9990209937095642,0.7731990218162537,0.1729140430688858],"min":[0.6340090036392212,-0.4668489992618561,0.0003052417014259845],"type":"VEC3","name":"accessor_403"},{"bufferView":65,"byteOffset":0,"componentType":5126,"count":44,"max":[0.2620309889316559,0.20146501064300537],"min":[0.23510000109672546,0.149478018283844],"type":"VEC2","name":"accessor_405"},{"bufferView":104,"byteOffset":89430,"componentType":5123,"count":369,"type":"SCALAR","min":[0],"max":[127],"name":"accessor_426"},{"bufferView":66,"byteOffset":0,"componentType":5126,"count":128,"max":[1.698238730430603,4.437029838562012,9.256999969482422],"min":[1.1193686723709106,2.568319082260132,8.288900375366211],"type":"VEC3","name":"accessor_428"},{"bufferView":66,"byteOffset":1536,"componentType":5126,"count":128,"max":[4.3711398944878965e-8,1,1],"min":[-0.9990209937095642,-1,-1],"type":"VEC3","name":"accessor_430"},{"bufferView":67,"byteOffset":0,"componentType":5126,"count":128,"max":[0.2620309889316559,0.20146501064300537],"min":[0.23510000109672546,0.149478018283844],"type":"VEC2","name":"accessor_432"},{"bufferView":104,"byteOffset":90168,"componentType":5123,"count":1548,"type":"SCALAR","min":[0],"max":[545],"name":"accessor_453"},{"bufferView":68,"byteOffset":0,"componentType":5126,"count":546,"max":[5.7904229164123535,2.615230083465576,-0.36991000175476074],"min":[-5.652876377105713,1.7637009620666504,-7.121952056884766],"type":"VEC3","name":"accessor_455"},{"bufferView":68,"byteOffset":6552,"componentType":5126,"count":546,"max":[1,0.9998989701271057,1],"min":[-1,-0.9999899864196777,-1],"type":"VEC3","name":"accessor_457"},{"bufferView":69,"byteOffset":0,"componentType":5126,"count":546,"max":[0.6940410137176514,0.9195621013641357],"min":[0.20962899923324585,0.8584700226783752],"type":"VEC2","name":"accessor_459"},{"bufferView":104,"byteOffset":93264,"componentType":5123,"count":156,"type":"SCALAR","min":[0],"max":[87],"name":"accessor_48"},{"bufferView":104,"byteOffset":93576,"componentType":5123,"count":4368,"type":"SCALAR","min":[0],"max":[1793],"name":"accessor_480"},{"bufferView":70,"byteOffset":0,"componentType":5126,"count":1794,"max":[-4.523922920227051,2.140842914581299,-3.6153998374938965],"min":[-6.410356521606445,0.24855798482894897,-6.991016387939453],"type":"VEC3","name":"accessor_482"},{"bufferView":70,"byteOffset":21528,"componentType":5126,"count":1794,"max":[0.9999979734420776,0.9999979734420776,1],"min":[-0.9999979734420776,-0.9999979734420776,-1],"type":"VEC3","name":"accessor_484"},{"bufferView":71,"byteOffset":0,"componentType":5126,"count":1794,"max":[0.9561859965324402,0.7992619872093201],"min":[0.01614299975335598,0.3406100273132324],"type":"VEC2","name":"accessor_486"},{"bufferView":72,"byteOffset":0,"componentType":5126,"count":88,"max":[15.60236930847168,4.314729690551758,3.5854406356811523],"min":[12.229068756103516,3.5031399726867676,1.6043803691864014],"type":"VEC3","name":"accessor_50"},{"bufferView":104,"byteOffset":102312,"componentType":5123,"count":576,"type":"SCALAR","min":[0],"max":[191],"name":"accessor_507"},{"bufferView":72,"byteOffset":1056,"componentType":5126,"count":192,"max":[-5.196998596191406,1.4656829833984375,-3.1085097789764404],"min":[-5.737279891967773,0.9237189888954163,-3.8009798526763916],"type":"VEC3","name":"accessor_509"},{"bufferView":72,"byteOffset":3360,"componentType":5126,"count":192,"max":[1,1,1],"min":[-1,-1,-4.3711398944878965e-8],"type":"VEC3","name":"accessor_511"},{"bufferView":72,"byteOffset":5664,"componentType":5126,"count":88,"max":[1,0.9745829701423645,0.3003779947757721],"min":[-1,-0.9860690236091614,-0.9285309910774231],"type":"VEC3","name":"accessor_52"},{"bufferView":104,"byteOffset":103464,"componentType":5123,"count":4368,"type":"SCALAR","min":[0],"max":[1787],"name":"accessor_534"},{"bufferView":72,"byteOffset":6720,"componentType":5126,"count":1788,"max":[6.553031921386719,2.145993947982788,-3.5981497764587402],"min":[4.656327247619629,0.2434059977531433,-6.992140293121338],"type":"VEC3","name":"accessor_536"},{"bufferView":72,"byteOffset":28176,"componentType":5126,"count":1788,"max":[0.9999979734420776,0.9999979734420776,1],"min":[-0.9999979734420776,-0.9999979734420776,-1],"type":"VEC3","name":"accessor_538"},{"bufferView":73,"byteOffset":0,"componentType":5126,"count":88,"max":[0.9249429702758789,0.5173250436782837],"min":[0.8314210176467896,0.46243900060653687],"type":"VEC2","name":"accessor_54"},{"bufferView":73,"byteOffset":704,"componentType":5126,"count":1788,"max":[0.9561859965324402,0.7992619872093201],"min":[0.01614299975335598,0.3406100273132324],"type":"VEC2","name":"accessor_540"},{"bufferView":74,"byteOffset":0,"componentType":5126,"count":192,"max":[5.876291751861572,1.4671579599380493,-3.0884997844696045],"min":[5.33306884765625,0.9222440123558044,-3.7847397327423096],"type":"VEC3","name":"accessor_563"},{"bufferView":74,"byteOffset":2304,"componentType":5126,"count":192,"max":[1,1,1],"min":[-1,-1,-4.3711398944878965e-8],"type":"VEC3","name":"accessor_565"},{"bufferView":104,"byteOffset":112200,"componentType":5123,"count":3456,"type":"SCALAR","min":[0],"max":[1331],"name":"accessor_588"},{"bufferView":74,"byteOffset":4608,"componentType":5126,"count":1332,"max":[-0.12616699934005737,0.9102169871330261,0.9181820154190063],"min":[-0.18159699440002441,-0.9102169871330261,-0.9181820154190063],"type":"VEC3","name":"accessor_590"},{"bufferView":74,"byteOffset":20592,"componentType":5126,"count":1332,"max":[0.9972109794616699,0.9998229742050171,0.9971879720687866],"min":[-0.9972109794616699,-0.9998260140419006,-0.9971929788589478],"type":"VEC3","name":"accessor_592"},{"bufferView":75,"byteOffset":0,"componentType":5126,"count":1332,"max":[0.9854220151901245,0.9895660281181335],"min":[0.7172759771347046,0.719074010848999],"type":"VEC2","name":"accessor_594"},{"bufferView":76,"byteOffset":0,"componentType":5126,"count":1332,"max":[-0.12685400247573853,0.9151729941368103,0.9231809973716736],"min":[-0.18258599936962128,-0.9151729941368103,-0.9231809973716736],"type":"VEC3","name":"accessor_617"},{"bufferView":76,"byteOffset":15984,"componentType":5126,"count":1332,"max":[0.9972109794616699,0.9998229742050171,0.9971870183944702],"min":[-0.9972109794616699,-0.9998260140419006,-0.9971929788589478],"type":"VEC3","name":"accessor_619"},{"bufferView":104,"byteOffset":119112,"componentType":5123,"count":990,"type":"SCALAR","min":[0],"max":[219],"name":"accessor_642"},{"bufferView":76,"byteOffset":31968,"componentType":5126,"count":220,"max":[-4.574429988861084,2.3624279499053955,0.9264909625053406],"min":[-4.964012622833252,1.9873628616333008,-1.168915033340454],"type":"VEC3","name":"accessor_644"},{"bufferView":76,"byteOffset":34608,"componentType":5126,"count":220,"max":[0.9999740123748779,0.9999139904975891,0.9182729721069336],"min":[-0.9993000030517578,-0.9999470114707947,-0.07560493052005768],"type":"VEC3","name":"accessor_646"},{"bufferView":77,"byteOffset":0,"componentType":5126,"count":220,"max":[0.639868974685669,0.6262990236282349],"min":[0.6322259902954102,0.5851880311965942],"type":"VEC2","name":"accessor_648"},{"bufferView":104,"byteOffset":121092,"componentType":5123,"count":1026,"type":"SCALAR","min":[0],"max":[232],"name":"accessor_669"},{"bufferView":78,"byteOffset":0,"componentType":5126,"count":233,"max":[-7.47225284576416,2.744736909866333,1.198828935623169],"min":[-7.807162761688232,2.402880907058716,-0.49320200085639954],"type":"VEC3","name":"accessor_671"},{"bufferView":78,"byteOffset":2796,"componentType":5126,"count":233,"max":[0.9999499917030334,0.9985730051994324,0.9470539689064026],"min":[-0.9992370009422302,-0.9995099902153015,-0.20356997847557068],"type":"VEC3","name":"accessor_673"},{"bufferView":79,"byteOffset":0,"componentType":5126,"count":233,"max":[0.6878370046615601,0.6013230085372925],"min":[0.6812670230865479,0.5681259632110596],"type":"VEC2","name":"accessor_675"},{"bufferView":104,"byteOffset":123144,"componentType":5123,"count":1026,"type":"SCALAR","min":[0],"max":[233],"name":"accessor_696"},{"bufferView":80,"byteOffset":0,"componentType":5126,"count":234,"max":[-10.351962089538574,3.276860475540161,2.2487218379974365],"min":[-10.65444564819336,2.921755790710449,0.723410964012146],"type":"VEC3","name":"accessor_698"},{"bufferView":80,"byteOffset":2808,"componentType":5126,"count":234,"max":[0.9988439679145813,0.9985859990119934,0.9378049969673157],"min":[-0.9989820122718811,-0.9997959733009338,-0.16955502331256866],"type":"VEC3","name":"accessor_700"},{"bufferView":81,"byteOffset":0,"componentType":5126,"count":234,"max":[0.8065750002861023,0.5598709583282471],"min":[0.7450230121612549,0.545540988445282],"type":"VEC2","name":"accessor_702"},{"bufferView":82,"byteOffset":0,"componentType":5126,"count":220,"max":[5.091527938842773,2.353059768676758,0.9264909625053406],"min":[4.7045578956604,1.994886875152588,-1.168915033340454],"type":"VEC3","name":"accessor_725"},{"bufferView":82,"byteOffset":2640,"componentType":5126,"count":220,"max":[0.9989330172538757,0.9995409846305847,0.9182729721069336],"min":[-0.9994549751281738,-0.999875009059906,-0.07560422271490097],"type":"VEC3","name":"accessor_727"},{"bufferView":83,"byteOffset":0,"componentType":5126,"count":220,"max":[0.33990201354026794,0.6100590229034424],"min":[0.3323099911212921,0.5689480304718018],"type":"VEC2","name":"accessor_729"},{"bufferView":104,"byteOffset":125196,"componentType":5123,"count":480,"type":"SCALAR","min":[0],"max":[128],"name":"accessor_75"},{"bufferView":84,"byteOffset":0,"componentType":5126,"count":233,"max":[7.9558844566345215,2.746177911758423,1.198830008506775],"min":[7.610226631164551,2.4063148498535156,-0.49320098757743835],"type":"VEC3","name":"accessor_752"},{"bufferView":84,"byteOffset":2796,"componentType":5126,"count":233,"max":[0.9995949864387512,0.997573971748352,0.9470549821853638],"min":[-0.9987660050392151,-0.9987300038337708,-0.2035679668188095],"type":"VEC3","name":"accessor_754"},{"bufferView":85,"byteOffset":0,"componentType":5126,"count":233,"max":[0.26040101051330566,0.5685070157051086],"min":[0.253618985414505,0.5353109836578369],"type":"VEC2","name":"accessor_756"},{"bufferView":86,"byteOffset":0,"componentType":5126,"count":129,"max":[0.14078006148338318,4.209229946136475,17.470300674438477],"min":[-0.0032479376532137394,3.894171953201294,17.407299041748047],"type":"VEC3","name":"accessor_77"},{"bufferView":86,"byteOffset":1548,"componentType":5126,"count":234,"max":[10.791757583618164,3.2878737449645996,2.253862142562866],"min":[10.482434272766113,2.938730001449585,0.7285510301589966],"type":"VEC3","name":"accessor_779"},{"bufferView":86,"byteOffset":4356,"componentType":5126,"count":234,"max":[0.9997569918632507,0.9983779788017273,0.9378060102462769],"min":[-0.999671995639801,-0.9997400045394897,-0.1695530116558075],"type":"VEC3","name":"accessor_781"},{"bufferView":87,"byteOffset":0,"componentType":5126,"count":234,"max":[0.17452099919319153,0.5469980239868164],"min":[0.16845199465751648,0.5170730352401733],"type":"VEC2","name":"accessor_783"},{"bufferView":88,"byteOffset":0,"componentType":5126,"count":129,"max":[0.8568599820137024,0.6049820184707642,1],"min":[-0.8568599820137024,-0.604981005191803,0.5155489444732666],"type":"VEC3","name":"accessor_79"},{"bufferView":104,"byteOffset":126156,"componentType":5123,"count":3552,"type":"SCALAR","min":[0],"max":[875],"name":"accessor_804"},{"bufferView":88,"byteOffset":1548,"componentType":5126,"count":876,"max":[10.778268814086914,3.222986936569214,0.7722184658050537],"min":[-10.640729904174805,1.9871708154678345,-1.9327322244644165],"type":"VEC3","name":"accessor_806"},{"bufferView":88,"byteOffset":12060,"componentType":5126,"count":876,"max":[0.9997289776802063,0.9985730051994324,0.009998739697039127],"min":[-0.9997280240058899,-0.9999489784240723,-0.7299450039863586],"type":"VEC3","name":"accessor_808"},{"bufferView":89,"byteOffset":0,"componentType":5126,"count":876,"max":[0.8819339871406555,0.6004990339279175],"min":[0.12180200219154358,0.5045039653778076],"type":"VEC2","name":"accessor_810"},{"bufferView":104,"byteOffset":133260,"componentType":5123,"count":186,"type":"SCALAR","min":[0],"max":[91],"name":"accessor_831"},{"bufferView":90,"byteOffset":0,"componentType":5126,"count":92,"max":[-1.851500391960144,2.8269057273864746,0.25665971636772156],"min":[-6.117640495300293,1.609062910079956,-0.9025402069091797],"type":"VEC3","name":"accessor_833"},{"bufferView":90,"byteOffset":1104,"componentType":5126,"count":92,"max":[1,0.9821959733963013,1],"min":[-0.9999979734420776,-0.9795199632644653,-1],"type":"VEC3","name":"accessor_835"},{"bufferView":91,"byteOffset":0,"componentType":5126,"count":92,"max":[0.6656929850578308,0.5868909955024719],"min":[0.5474640130996704,0.5547460317611694],"type":"VEC2","name":"accessor_837"},{"bufferView":104,"byteOffset":133632,"componentType":5123,"count":282,"type":"SCALAR","min":[0],"max":[127],"name":"accessor_858"},{"bufferView":92,"byteOffset":0,"componentType":5126,"count":128,"max":[-6.115070343017578,3.703359842300415,2.300729513168335],"min":[-11.96792984008789,2.4447999000549316,-0.9025304913520813],"type":"VEC3","name":"accessor_860"},{"bufferView":92,"byteOffset":1536,"componentType":5126,"count":128,"max":[1,0.9852479696273804,0.9288520216941833],"min":[-1,-0.9872559905052185,-0.9286980032920837],"type":"VEC3","name":"accessor_862"},{"bufferView":93,"byteOffset":0,"componentType":5126,"count":128,"max":[0.8279910087585449,0.5868909955024719],"min":[0.6656929850578308,0.49806398153305054],"type":"VEC2","name":"accessor_864"},{"bufferView":104,"byteOffset":134196,"componentType":5123,"count":186,"type":"SCALAR","min":[0],"max":[91],"name":"accessor_885"},{"bufferView":94,"byteOffset":0,"componentType":5126,"count":92,"max":[6.255179405212402,2.826904773712158,0.25666025280952454],"min":[1.9890395402908325,1.609062910079956,-0.9025399088859558],"type":"VEC3","name":"accessor_887"},{"bufferView":94,"byteOffset":1104,"componentType":5126,"count":92,"max":[0.9999979734420776,0.9821959733963013,1],"min":[-1,-0.9795199632644653,-1],"type":"VEC3","name":"accessor_889"},{"bufferView":95,"byteOffset":0,"componentType":5126,"count":92,"max":[0.6656929850578308,0.5868909955024719],"min":[0.5474640130996704,0.5547460317611694],"type":"VEC2","name":"accessor_891"},{"bufferView":104,"byteOffset":134568,"componentType":5123,"count":282,"type":"SCALAR","min":[0],"max":[127],"name":"accessor_912"},{"bufferView":96,"byteOffset":0,"componentType":5126,"count":128,"max":[12.10546875,3.703359842300415,2.3007304668426514],"min":[6.2526092529296875,2.4447989463806152,-0.9025298953056335],"type":"VEC3","name":"accessor_914"},{"bufferView":96,"byteOffset":1536,"componentType":5126,"count":128,"max":[1,0.9852460026741028,0.928846001625061],"min":[-1,-0.9872559905052185,-0.9286980032920837],"type":"VEC3","name":"accessor_916"},{"bufferView":97,"byteOffset":0,"componentType":5126,"count":128,"max":[0.8279910087585449,0.5868909955024719],"min":[0.6656929850578308,0.49806398153305054],"type":"VEC2","name":"accessor_918"},{"bufferView":104,"byteOffset":135132,"componentType":5123,"count":168,"type":"SCALAR","min":[0],"max":[61],"name":"accessor_939"},{"bufferView":98,"byteOffset":0,"componentType":5126,"count":62,"max":[0.06876976042985916,1.347100019454956,-13.66289234161377],"min":[-0.3093152642250061,1.2225000858306885,-14.515809059143066],"type":"VEC3","name":"accessor_941"},{"bufferView":98,"byteOffset":744,"componentType":5126,"count":62,"max":[1,0.9942150115966797,1],"min":[-1,-0.9942150115966797,-1],"type":"VEC3","name":"accessor_943"},{"bufferView":99,"byteOffset":0,"componentType":5126,"count":62,"max":[0.11199100315570831,0.11410599946975708],"min":[0.08785499632358551,0.11116898059844971],"type":"VEC2","name":"accessor_945"},{"bufferView":104,"byteOffset":135468,"componentType":5123,"count":168,"type":"SCALAR","min":[0],"max":[61],"name":"accessor_966"},{"bufferView":100,"byteOffset":0,"componentType":5126,"count":62,"max":[0.44685474038124084,1.3416600227355957,-13.66289234161377],"min":[0.06876972317695618,1.2225000858306885,-14.515809059143066],"type":"VEC3","name":"accessor_968"},{"bufferView":100,"byteOffset":744,"componentType":5126,"count":62,"max":[1,0.9942150115966797,1],"min":[-1,-0.9942150115966797,-1],"type":"VEC3","name":"accessor_970"},{"bufferView":101,"byteOffset":0,"componentType":5126,"count":62,"max":[0.896461009979248,0.23890602588653564],"min":[0.872734010219574,0.23605400323867798],"type":"VEC2","name":"accessor_972"},{"bufferView":104,"byteOffset":135804,"componentType":5123,"count":168,"type":"SCALAR","min":[0],"max":[61],"name":"accessor_993"},{"bufferView":102,"byteOffset":0,"componentType":5126,"count":62,"max":[0.45106083154678345,1.5761500597000122,-14.510469436645508],"min":[0.06250161677598953,1.263800024986267,-16.140718460083008],"type":"VEC3","name":"accessor_995"},{"bufferView":102,"byteOffset":744,"componentType":5126,"count":62,"max":[0.8508139848709106,0.990336000919342,0.8826999664306641],"min":[-0.8500149846076965,-0.990336000919342,-0.8814610242843628],"type":"VEC3","name":"accessor_997"},{"bufferView":103,"byteOffset":0,"componentType":5126,"count":62,"max":[0.9416670203208923,0.23774999380111694],"min":[0.8965520262718201,0.22932302951812744],"type":"VEC2","name":"accessor_999"},{"bufferView":105,"componentType":5126,"count":1515,"type":"VEC3","min":[-0.8817270588874799,3.8943798661231996,-17.512089729309082],"max":[0.887919550736729,11.076359748840332,-5.6169610023498535]},{"bufferView":106,"componentType":5126,"count":1515,"type":"VEC3"},{"bufferView":107,"componentType":5126,"count":222,"type":"VEC3","min":[-0.20213489546506955,7.1708431082303,-15.552998643344049],"max":[0.2021367731014495,9.180387555783392,-13.543454195790956]},{"bufferView":108,"componentType":5126,"count":222,"type":"VEC3"},{"bufferView":109,"componentType":5126,"count":222,"type":"VEC2"}],"asset":{"generator":"collada2gltf@","version":"2.0","copyright":"FlightGear model authors / Flightradar24 contributors; GPLv2. See UPSTREAM-CREDITS.md and LICENSE.txt."},"bufferViews":[{"buffer":0,"byteLength":629,"byteOffset":875740,"name":"binary_bufferView0"},{"buffer":0,"byteLength":355,"byteOffset":876369,"name":"binary_bufferView1"},{"buffer":0,"byteLength":733,"byteOffset":876724,"name":"binary_bufferView2"},{"buffer":0,"byteLength":439,"byteOffset":877457,"name":"binary_bufferView3"},{"buffer":0,"byteLength":677,"byteOffset":877896,"name":"binary_bufferView4"},{"buffer":0,"byteLength":355,"byteOffset":878573,"name":"binary_bufferView5"},{"buffer":0,"byteLength":685,"byteOffset":878928,"name":"binary_bufferView6"},{"buffer":0,"byteLength":439,"byteOffset":879613,"name":"binary_bufferView7"},{"buffer":0,"byteLength":379,"byteOffset":880052,"name":"binary_bufferView8"},{"buffer":0,"byteLength":355,"byteOffset":880431,"name":"binary_bufferView9"},{"buffer":0,"byteLength":178272,"byteOffset":880786,"name":"binary_bufferView10"},{"buffer":0,"byteLength":71564,"byteOffset":1059058,"name":"binary_bufferView11"},{"buffer":0,"byteLength":1488,"byteOffset":0,"target":34962,"name":"bufferView_0","byteStride":12},{"buffer":0,"byteLength":496,"byteOffset":1488,"target":34962,"name":"bufferView_0","byteStride":8},{"buffer":0,"byteLength":46176,"byteOffset":1984,"target":34962,"name":"bufferView_0","byteStride":12},{"buffer":0,"byteLength":320,"byteOffset":48160,"target":34962,"name":"bufferView_0","byteStride":8},{"buffer":0,"byteLength":48240,"byteOffset":48480,"target":34962,"name":"bufferView_0","byteStride":12},{"buffer":0,"byteLength":31152,"byteOffset":96720,"target":34962,"name":"bufferView_0","byteStride":8},{"buffer":0,"byteLength":960,"byteOffset":127872,"target":34962,"name":"bufferView_0","byteStride":12},{"buffer":0,"byteLength":320,"byteOffset":128832,"target":34962,"name":"bufferView_0","byteStride":8},{"buffer":0,"byteLength":3024,"byteOffset":129152,"target":34962,"name":"bufferView_0","byteStride":12},{"buffer":0,"byteLength":1008,"byteOffset":132176,"target":34962,"name":"bufferView_0","byteStride":8},{"buffer":0,"byteLength":1296,"byteOffset":133184,"target":34962,"name":"bufferView_0","byteStride":12},{"buffer":0,"byteLength":432,"byteOffset":134480,"target":34962,"name":"bufferView_0","byteStride":8},{"buffer":0,"byteLength":1296,"byteOffset":134912,"target":34962,"name":"bufferView_0","byteStride":12},{"buffer":0,"byteLength":432,"byteOffset":136208,"target":34962,"name":"bufferView_0","byteStride":8},{"buffer":0,"byteLength":10176,"byteOffset":136640,"target":34962,"name":"bufferView_0","byteStride":12},{"buffer":0,"byteLength":1344,"byteOffset":146816,"target":34962,"name":"bufferView_0","byteStride":8},{"buffer":0,"byteLength":9888,"byteOffset":148160,"target":34962,"name":"bufferView_0","byteStride":12},{"buffer":0,"byteLength":3296,"byteOffset":158048,"target":34962,"name":"bufferView_0","byteStride":8},{"buffer":0,"byteLength":23952,"byteOffset":161344,"target":34962,"name":"bufferView_0","byteStride":12},{"buffer":0,"byteLength":4752,"byteOffset":185296,"target":34962,"name":"bufferView_0","byteStride":8},{"buffer":0,"byteLength":14256,"byteOffset":190048,"target":34962,"name":"bufferView_0","byteStride":12},{"buffer":0,"byteLength":4752,"byteOffset":204304,"target":34962,"name":"bufferView_0","byteStride":8},{"buffer":0,"byteLength":3216,"byteOffset":209056,"target":34962,"name":"bufferView_0","byteStride":12},{"buffer":0,"byteLength":1072,"byteOffset":212272,"target":34962,"name":"bufferView_0","byteStride":8},{"buffer":0,"byteLength":5400,"byteOffset":213344,"target":34962,"name":"bufferView_0","byteStride":12},{"buffer":0,"byteLength":1800,"byteOffset":218744,"target":34962,"name":"bufferView_0","byteStride":8},{"buffer":0,"byteLength":6984,"byteOffset":220544,"target":34962,"name":"bufferView_0","byteStride":12},{"buffer":0,"byteLength":528,"byteOffset":227528,"target":34962,"name":"bufferView_0","byteStride":8},{"buffer":0,"byteLength":6144,"byteOffset":228056,"target":34962,"name":"bufferView_0","byteStride":12},{"buffer":0,"byteLength":2048,"byteOffset":234200,"target":34962,"name":"bufferView_0","byteStride":8},{"buffer":0,"byteLength":7248,"byteOffset":236248,"target":34962,"name":"bufferView_0","byteStride":12},{"buffer":0,"byteLength":2416,"byteOffset":243496,"target":34962,"name":"bufferView_0","byteStride":8},{"buffer":0,"byteLength":64800,"byteOffset":245912,"target":34962,"name":"bufferView_0","byteStride":12},{"buffer":0,"byteLength":384,"byteOffset":310712,"target":34962,"name":"bufferView_0","byteStride":8},{"buffer":0,"byteLength":44448,"byteOffset":311096,"target":34962,"name":"bufferView_0","byteStride":12},{"buffer":0,"byteLength":14816,"byteOffset":355544,"target":34962,"name":"bufferView_0","byteStride":8},{"buffer":0,"byteLength":1152,"byteOffset":370360,"target":34962,"name":"bufferView_0","byteStride":12},{"buffer":0,"byteLength":384,"byteOffset":371512,"target":34962,"name":"bufferView_0","byteStride":8},{"buffer":0,"byteLength":21720,"byteOffset":371896,"target":34962,"name":"bufferView_0","byteStride":12},{"buffer":0,"byteLength":7240,"byteOffset":393616,"target":34962,"name":"bufferView_0","byteStride":8},{"buffer":0,"byteLength":1824,"byteOffset":400856,"target":34962,"name":"bufferView_0","byteStride":12},{"buffer":0,"byteLength":256,"byteOffset":402680,"target":34962,"name":"bufferView_0","byteStride":8},{"buffer":0,"byteLength":3888,"byteOffset":402936,"target":34962,"name":"bufferView_0","byteStride":12},{"buffer":0,"byteLength":1648,"byteOffset":406824,"target":34962,"name":"bufferView_0","byteStride":8},{"buffer":0,"byteLength":1248,"byteOffset":408472,"target":34962,"name":"bufferView_0","byteStride":12},{"buffer":0,"byteLength":416,"byteOffset":409720,"target":34962,"name":"bufferView_0","byteStride":8},{"buffer":0,"byteLength":3456,"byteOffset":410136,"target":34962,"name":"bufferView_0","byteStride":12},{"buffer":0,"byteLength":1152,"byteOffset":413592,"target":34962,"name":"bufferView_0","byteStride":8},{"buffer":0,"byteLength":1008,"byteOffset":414744,"target":34962,"name":"bufferView_0","byteStride":12},{"buffer":0,"byteLength":336,"byteOffset":415752,"target":34962,"name":"bufferView_0","byteStride":8},{"buffer":0,"byteLength":3120,"byteOffset":416088,"target":34962,"name":"bufferView_0","byteStride":12},{"buffer":0,"byteLength":1040,"byteOffset":419208,"target":34962,"name":"bufferView_0","byteStride":8},{"buffer":0,"byteLength":1056,"byteOffset":420248,"target":34962,"name":"bufferView_0","byteStride":12},{"buffer":0,"byteLength":352,"byteOffset":421304,"target":34962,"name":"bufferView_0","byteStride":8},{"buffer":0,"byteLength":3072,"byteOffset":421656,"target":34962,"name":"bufferView_0","byteStride":12},{"buffer":0,"byteLength":1024,"byteOffset":424728,"target":34962,"name":"bufferView_0","byteStride":8},{"buffer":0,"byteLength":13104,"byteOffset":425752,"target":34962,"name":"bufferView_0","byteStride":12},{"buffer":0,"byteLength":4368,"byteOffset":438856,"target":34962,"name":"bufferView_0","byteStride":8},{"buffer":0,"byteLength":43056,"byteOffset":443224,"target":34962,"name":"bufferView_0","byteStride":12},{"buffer":0,"byteLength":14352,"byteOffset":486280,"target":34962,"name":"bufferView_0","byteStride":8},{"buffer":0,"byteLength":49632,"byteOffset":500632,"target":34962,"name":"bufferView_0","byteStride":12},{"buffer":0,"byteLength":15008,"byteOffset":550264,"target":34962,"name":"bufferView_0","byteStride":8},{"buffer":0,"byteLength":36576,"byteOffset":565272,"target":34962,"name":"bufferView_0","byteStride":12},{"buffer":0,"byteLength":10656,"byteOffset":601848,"target":34962,"name":"bufferView_0","byteStride":8},{"buffer":0,"byteLength":37248,"byteOffset":612504,"target":34962,"name":"bufferView_0","byteStride":12},{"buffer":0,"byteLength":1760,"byteOffset":649752,"target":34962,"name":"bufferView_0","byteStride":8},{"buffer":0,"byteLength":5592,"byteOffset":651512,"target":34962,"name":"bufferView_0","byteStride":12},{"buffer":0,"byteLength":1864,"byteOffset":657104,"target":34962,"name":"bufferView_0","byteStride":8},{"buffer":0,"byteLength":5616,"byteOffset":658968,"target":34962,"name":"bufferView_0","byteStride":12},{"buffer":0,"byteLength":1872,"byteOffset":664584,"target":34962,"name":"bufferView_0","byteStride":8},{"buffer":0,"byteLength":5280,"byteOffset":666456,"target":34962,"name":"bufferView_0","byteStride":12},{"buffer":0,"byteLength":1760,"byteOffset":671736,"target":34962,"name":"bufferView_0","byteStride":8},{"buffer":0,"byteLength":5592,"byteOffset":673496,"target":34962,"name":"bufferView_0","byteStride":12},{"buffer":0,"byteLength":1864,"byteOffset":679088,"target":34962,"name":"bufferView_0","byteStride":8},{"buffer":0,"byteLength":7164,"byteOffset":680952,"target":34962,"name":"bufferView_0","byteStride":12},{"buffer":0,"byteLength":1872,"byteOffset":688116,"target":34962,"name":"bufferView_0","byteStride":8},{"buffer":0,"byteLength":22572,"byteOffset":689988,"target":34962,"name":"bufferView_0","byteStride":12},{"buffer":0,"byteLength":7008,"byteOffset":712560,"target":34962,"name":"bufferView_0","byteStride":8},{"buffer":0,"byteLength":2208,"byteOffset":719568,"target":34962,"name":"bufferView_0","byteStride":12},{"buffer":0,"byteLength":736,"byteOffset":721776,"target":34962,"name":"bufferView_0","byteStride":8},{"buffer":0,"byteLength":3072,"byteOffset":722512,"target":34962,"name":"bufferView_0","byteStride":12},{"buffer":0,"byteLength":1024,"byteOffset":725584,"target":34962,"name":"bufferView_0","byteStride":8},{"buffer":0,"byteLength":2208,"byteOffset":726608,"target":34962,"name":"bufferView_0","byteStride":12},{"buffer":0,"byteLength":736,"byteOffset":728816,"target":34962,"name":"bufferView_0","byteStride":8},{"buffer":0,"byteLength":3072,"byteOffset":729552,"target":34962,"name":"bufferView_0","byteStride":12},{"buffer":0,"byteLength":1024,"byteOffset":732624,"target":34962,"name":"bufferView_0","byteStride":8},{"buffer":0,"byteLength":1488,"byteOffset":733648,"target":34962,"name":"bufferView_0","byteStride":12},{"buffer":0,"byteLength":496,"byteOffset":735136,"target":34962,"name":"bufferView_0","byteStride":8},{"buffer":0,"byteLength":1488,"byteOffset":735632,"target":34962,"name":"bufferView_0","byteStride":12},{"buffer":0,"byteLength":496,"byteOffset":737120,"target":34962,"name":"bufferView_0","byteStride":8},{"buffer":0,"byteLength":1488,"byteOffset":737616,"target":34962,"name":"bufferView_0","byteStride":12},{"buffer":0,"byteLength":496,"byteOffset":739104,"target":34962,"name":"bufferView_0","byteStride":8},{"buffer":0,"byteLength":136140,"byteOffset":739600,"target":34963,"name":"bufferView_1"},{"buffer":1,"byteOffset":0,"byteLength":18180,"target":34962},{"buffer":1,"byteOffset":18180,"byteLength":18180,"target":34962},{"buffer":1,"byteOffset":36360,"byteLength":2664,"target":34962},{"buffer":1,"byteOffset":39024,"byteLength":2664,"target":34962},{"buffer":1,"byteOffset":41688,"byteLength":1776,"target":34962}],"buffers":[{"byteLength":1130622,"extras":{},"name":"binary_glTF","uri":"../cs100-v1-0.bin"},{"uri":"cs100-tail-v1.bin?tail=2","byteLength":43464}],"images":[{"name":"cs100_png_001","extras":{},"bufferView":10,"mimeType":"image/jpeg"},{"name":"engines_png_001","extras":{},"bufferView":11,"mimeType":"image/jpeg"},{"uri":"../../../airlines/JAL.png"}],"materials":[{"name":"DefaultWhite","pbrMetallicRoughness":{"roughnessFactor":1,"metallicFactor":0,"baseColorFactor":[0.6038273590607633,0.6038273590607633,0.6038273590607633,1]}},{"name":"DefaultWhite_005","doubleSided":true,"pbrMetallicRoughness":{"roughnessFactor":1,"metallicFactor":0,"baseColorTexture":{"index":1}}},{"name":"Material_002","alphaMode":"BLEND","doubleSided":true,"pbrMetallicRoughness":{"roughnessFactor":1,"metallicFactor":0,"baseColorFactor":[0.36724645006859014,0.36724645006859014,0.36724645006859014,1]}},{"name":"ac3dmat1_000","pbrMetallicRoughness":{"roughnessFactor":1,"metallicFactor":0,"baseColorTexture":{"index":0}}},{"name":"ac3dmat1_007","pbrMetallicRoughness":{"roughnessFactor":1,"metallicFactor":0,"baseColorFactor":[0.6038273590607633,0.6038273590607633,0.6038273590607633,1]}},{"name":"cs100_005","pbrMetallicRoughness":{"roughnessFactor":1,"metallicFactor":0,"baseColorTexture":{"index":0}}},{"name":"material-ID2","pbrMetallicRoughness":{"roughnessFactor":1,"metallicFactor":0,"baseColorFactor":[1,1,1,1]}},{"name":"glass2_002","alphaMode":"BLEND","doubleSided":true,"pbrMetallicRoughness":{"roughnessFactor":1,"metallicFactor":0,"baseColorFactor":[0.012320508852546997,0.012320508852546997,0.012320508852546997,1]}},{"name":"Operator tail paint","doubleSided":true,"pbrMetallicRoughness":{"baseColorFactor":[0.7843137254901961,0.09803921568627451,0.19607843137254902,1],"metallicFactor":0,"roughnessFactor":0.65}},{"name":"Operator logo identification","doubleSided":true,"alphaMode":"MASK","alphaCutoff":0.08,"pbrMetallicRoughness":{"baseColorTexture":{"index":2},"metallicFactor":0,"roughnessFactor":0.7},"emissiveFactor":[0.18,0.18,0.18],"emissiveTexture":{"index":2}}],"meshes":[{"name":"fanL.mesh","primitives":[{"attributes":{"NORMAL":166,"POSITION":165,"TEXCOORD_0":167},"indices":164,"material":1,"mode":4}]},{"name":"fanR.mesh","primitives":[{"attributes":{"NORMAL":169,"POSITION":168,"TEXCOORD_0":167},"indices":164,"material":1,"mode":4}]},{"name":"spinnerL.mesh","primitives":[{"attributes":{"NORMAL":66,"POSITION":65,"TEXCOORD_0":67},"indices":64,"material":1,"mode":4}]},{"name":"spinnerR.mesh","primitives":[{"attributes":{"NORMAL":69,"POSITION":68,"TEXCOORD_0":67},"indices":64,"material":1,"mode":4}]},{"name":"rootNode_mesh","primitives":[{"attributes":{"NORMAL":113,"POSITION":108,"TEXCOORD_0":117},"indices":103,"material":5,"mode":4},{"attributes":{"NORMAL":156,"POSITION":152,"TEXCOORD_0":160},"indices":147,"material":5,"mode":4},{"attributes":{"NORMAL":193,"POSITION":189},"indices":185,"material":0,"mode":4},{"attributes":{"NORMAL":10,"POSITION":5,"TEXCOORD_0":14},"indices":0,"material":5,"mode":4},{"attributes":{"NORMAL":51,"POSITION":47},"indices":42,"material":0,"mode":4},{"attributes":{"NORMAL":90,"POSITION":86,"TEXCOORD_0":94},"indices":82,"material":5,"mode":4},{"attributes":{"NORMAL":101,"POSITION":100,"TEXCOORD_0":102},"indices":99,"material":5,"mode":4},{"attributes":{"NORMAL":106,"POSITION":105,"TEXCOORD_0":107},"indices":104,"material":5,"mode":4},{"attributes":{"NORMAL":111,"POSITION":110,"TEXCOORD_0":112},"indices":109,"material":5,"mode":4},{"attributes":{"NORMAL":116,"POSITION":115,"TEXCOORD_0":118},"indices":114,"material":5,"mode":4},{"attributes":{"NORMAL":121,"POSITION":120,"TEXCOORD_0":122},"indices":119,"material":5,"mode":4},{"attributes":{"NORMAL":125,"POSITION":124,"TEXCOORD_0":126},"indices":123,"material":5,"mode":4},{"attributes":{"NORMAL":129,"POSITION":128,"TEXCOORD_0":130},"indices":127,"material":5,"mode":4},{"attributes":{"NORMAL":133,"POSITION":132,"TEXCOORD_0":134},"indices":131,"material":5,"mode":4},{"attributes":{"NORMAL":137,"POSITION":136,"TEXCOORD_0":138},"indices":135,"material":5,"mode":4},{"attributes":{"NORMAL":141,"POSITION":140,"TEXCOORD_0":142},"indices":139,"material":5,"mode":4},{"attributes":{"NORMAL":145,"POSITION":144,"TEXCOORD_0":146},"indices":143,"material":1,"mode":4},{"attributes":{"NORMAL":150,"POSITION":149,"TEXCOORD_0":151},"indices":148,"material":1,"mode":4},{"attributes":{"NORMAL":155,"POSITION":154},"indices":153,"material":0,"mode":4},{"attributes":{"NORMAL":159,"POSITION":158,"TEXCOORD_0":161},"indices":157,"material":1,"mode":4},{"attributes":{"NORMAL":163,"POSITION":162},"indices":153,"material":0,"mode":4},{"attributes":{"NORMAL":172,"POSITION":171,"TEXCOORD_0":173},"indices":170,"material":5,"mode":4},{"attributes":{"NORMAL":176,"POSITION":175,"TEXCOORD_0":177},"indices":174,"material":5,"mode":4},{"attributes":{"NORMAL":180,"POSITION":179,"TEXCOORD_0":181},"indices":178,"material":5,"mode":4},{"attributes":{"NORMAL":183,"POSITION":182,"TEXCOORD_0":184},"indices":170,"material":5,"mode":4},{"attributes":{"NORMAL":187,"POSITION":186,"TEXCOORD_0":188},"indices":174,"material":5,"mode":4},{"attributes":{"NORMAL":191,"POSITION":190,"TEXCOORD_0":192},"indices":178,"material":5,"mode":4},{"attributes":{"NORMAL":196,"POSITION":195,"TEXCOORD_0":197},"indices":194,"material":5,"mode":4},{"attributes":{"NORMAL":200,"POSITION":199,"TEXCOORD_0":201},"indices":198,"material":5,"mode":4},{"attributes":{"NORMAL":204,"POSITION":203,"TEXCOORD_0":205},"indices":202,"material":5,"mode":4},{"attributes":{"NORMAL":208,"POSITION":207,"TEXCOORD_0":209},"indices":206,"material":5,"mode":4},{"attributes":{"NORMAL":212,"POSITION":211,"TEXCOORD_0":213},"indices":210,"material":5,"mode":4},{"attributes":{"NORMAL":216,"POSITION":215,"TEXCOORD_0":217},"indices":214,"material":5,"mode":4},{"attributes":{"NORMAL":220,"POSITION":219,"TEXCOORD_0":221},"indices":218,"material":5,"mode":4},{"attributes":{"NORMAL":224,"POSITION":223,"TEXCOORD_0":225},"indices":222,"material":5,"mode":4},{"attributes":{"NORMAL":3,"POSITION":2,"TEXCOORD_0":4},"indices":1,"material":5,"mode":4},{"attributes":{"NORMAL":8,"POSITION":7,"TEXCOORD_0":9},"indices":6,"material":5,"mode":4},{"attributes":{"NORMAL":13,"POSITION":12,"TEXCOORD_0":15},"indices":11,"material":5,"mode":4},{"attributes":{"NORMAL":18,"POSITION":17,"TEXCOORD_0":19},"indices":16,"material":5,"mode":4},{"attributes":{"NORMAL":22,"POSITION":21,"TEXCOORD_0":23},"indices":20,"material":5,"mode":4},{"attributes":{"NORMAL":40,"POSITION":39,"TEXCOORD_0":41},"indices":38,"material":3,"mode":4},{"attributes":{"NORMAL":37,"POSITION":36},"indices":35,"material":4,"mode":4},{"attributes":{"NORMAL":34,"POSITION":33},"indices":32,"material":4,"mode":4},{"attributes":{"NORMAL":30,"POSITION":29,"TEXCOORD_0":31},"indices":28,"material":5,"mode":4},{"attributes":{"NORMAL":26,"POSITION":25,"TEXCOORD_0":27},"indices":24,"material":5,"mode":4},{"attributes":{"NORMAL":45,"POSITION":44,"TEXCOORD_0":46},"indices":43,"material":5,"mode":4},{"attributes":{"NORMAL":50,"POSITION":49},"indices":48,"material":6,"mode":4},{"attributes":{"NORMAL":54,"POSITION":53,"TEXCOORD_0":55},"indices":52,"material":1,"mode":4},{"attributes":{"NORMAL":58,"POSITION":57,"TEXCOORD_0":59},"indices":56,"material":1,"mode":4},{"attributes":{"NORMAL":62,"POSITION":61,"TEXCOORD_0":63},"indices":60,"material":5,"mode":4},{"attributes":{"NORMAL":72,"POSITION":71,"TEXCOORD_0":73},"indices":70,"material":5,"mode":4},{"attributes":{"NORMAL":76,"POSITION":75,"TEXCOORD_0":77},"indices":74,"material":5,"mode":4},{"attributes":{"NORMAL":80,"POSITION":79,"TEXCOORD_0":81},"indices":78,"material":5,"mode":4},{"attributes":{"NORMAL":85,"POSITION":84},"indices":83,"material":7,"mode":4},{"attributes":{"NORMAL":89,"POSITION":88},"indices":87,"material":2,"mode":4},{"attributes":{"NORMAL":93,"POSITION":92},"indices":91,"material":7,"mode":4},{"attributes":{"NORMAL":97,"POSITION":96,"TEXCOORD_0":98},"indices":95,"material":5,"mode":4}]},{"name":"Airline tail surface overlay","primitives":[{"attributes":{"POSITION":226,"NORMAL":227},"material":8},{"attributes":{"POSITION":228,"NORMAL":229,"TEXCOORD_0":230},"material":9}]}],"nodes":[{"matrix":[-4.3711398899999997e-8,0,1,0,1,0,4.3711398899999997e-8,0,0,1,0,0,-5.467499732971191,1.1951899528503418,-6.9724698066711435,1],"name":"fanL","mesh":0},{"matrix":[-4.3711398899999997e-8,0,1,0,1,0,4.3711398899999997e-8,0,0,1,0,0,5.605040073394775,1.195199966430664,-6.97348976135254,1],"name":"fanR","mesh":1},{"matrix":[-4.3711398899999997e-8,0,1,0,1,0,4.3711398899999997e-8,0,0,1,0,0,-5.467499732971191,1.195199966430664,-6.972479820251466,1],"name":"spinnerL","mesh":2},{"matrix":[-4.3711398899999997e-8,0,1,0,1,0,4.3711398899999997e-8,0,0,1,0,0,5.605030059814453,1.195199966430664,-6.973499774932861,1],"name":"spinnerR","mesh":3},{"children":[0,1,2,3],"matrix":[1,0,0,0,0,1,0,0,0,0,1,0,0,0,0,1],"name":"rootNode","mesh":4},{"name":"SkywardCoordinateAlignment","matrix":[-1,0,-1.2246467991473532e-16,0,0,1,0,0,1.2246467991473532e-16,0,-1,0,0.06876945495605469,0,-0.04178905487060546,1],"children":[4]},{"name":"AirlineTailBranding","mesh":5}],"samplers":[{"magFilter":9729,"minFilter":9729,"wrapS":10497,"wrapT":10497,"name":"sampler_0"},{"magFilter":9729,"minFilter":9987,"wrapS":33071,"wrapT":33071}],"scene":0,"scenes":[{"nodes":[5,6],"name":"defaultScene"}],"textures":[{"sampler":0,"source":0,"name":"texture_cs100_png_001"},{"sampler":0,"source":1,"name":"texture_engines_png_001"},{"source":2,"sampler":1}],"extras":{"skyward":{"source":"https://github.com/Flightradar24/fr24-3d-models","commit":"dd53267690c6a4ecbb290a3acf0284333a5d68a9","changes":"Converted legacy glTF to glTF 2.0 with Cesium; rigid axis alignment and horizontal centering only. Original geometry, materials and paint retained. Added surface-following operator tail paint and unmodified identification-logo texture. Branding is illustrative, not a registration-specific livery.","license":"GPL-2.0","sourceFiles":["source/cs100/cs100.blend","source/cs100/cs100.zip"],"operator":"JAL"}}}