{"accessors":[{"bufferView":45,"byteOffset":0,"componentType":5123,"count":168,"type":"SCALAR","min":[0],"max":[51],"name":"accessor_102"},{"bufferView":10,"byteOffset":0,"componentType":5126,"count":52,"max":[-0.3347139358520508,4.574039936065674,-10.73530387878418],"min":[-1.1312439441680908,2.7053277492523193,-11.703359603881836],"type":"VEC3","name":"accessor_104"},{"bufferView":10,"byteOffset":624,"componentType":5126,"count":52,"max":[-0.635246992111206,0.7677429914474487,-0.04027353972196579],"min":[-0.9982680082321167,-0.2894130051136017,-0.12467502802610397],"type":"VEC3","name":"accessor_106"},{"bufferView":11,"byteOffset":0,"componentType":5126,"count":52,"max":[0.15432800352573395,0.07166099548339844],"min":[0.1295659989118576,0.023862004280090332],"type":"VEC2","name":"accessor_108"},{"bufferView":45,"byteOffset":336,"componentType":5123,"count":210,"type":"SCALAR","min":[0],"max":[59],"name":"accessor_129"},{"bufferView":12,"byteOffset":0,"componentType":5126,"count":60,"max":[2.4784460067749023,4.574039936065674,-10.466666221618652],"min":[1.730455994606018,2.705326795578003,-11.434720039367676],"type":"VEC3","name":"accessor_131"},{"bufferView":12,"byteOffset":720,"componentType":5126,"count":60,"max":[0.9999979734420776,0.7698879837989807,-0.000580670079216361],"min":[0.6365699768066406,-0.2879509925842285,-0.12239497154951096],"type":"VEC3","name":"accessor_133"},{"bufferView":13,"byteOffset":0,"componentType":5126,"count":60,"max":[0.8627910017967224,0.20109403133392334],"min":[0.8380099534988403,0.15325802564620972],"type":"VEC2","name":"accessor_135"},{"bufferView":45,"byteOffset":756,"componentType":5123,"count":174,"type":"SCALAR","min":[0],"max":[53],"name":"accessor_156"},{"bufferView":14,"byteOffset":0,"componentType":5126,"count":54,"max":[-0.4441249668598175,4.574039936065674,13.758698463439941],"min":[-0.9713449478149414,2.7053277492523193,12.855500221252441],"type":"VEC3","name":"accessor_158"},{"bufferView":14,"byteOffset":648,"componentType":5126,"count":54,"max":[-0.6405159831047058,0.7679309844970703,0.16771896183490753],"min":[-0.9961339831352234,-0.4613649845123291,0.0046516419388353825],"type":"VEC3","name":"accessor_160"},{"bufferView":15,"byteOffset":0,"componentType":5126,"count":54,"max":[0.7808529734611511,0.07166099548339844],"min":[0.7577490210533142,0.023862004280090332],"type":"VEC2","name":"accessor_162"},{"bufferView":45,"byteOffset":1104,"componentType":5123,"count":174,"type":"SCALAR","min":[0],"max":[53],"name":"accessor_183"},{"bufferView":16,"byteOffset":0,"componentType":5126,"count":54,"max":[2.314894914627075,4.574039936065674,13.758698463439941],"min":[1.7876650094985962,2.7053277492523193,12.855500221252441],"type":"VEC3","name":"accessor_185"},{"bufferView":16,"byteOffset":648,"componentType":5126,"count":54,"max":[0.9961339831352234,0.7679470181465149,0.16770204901695251],"min":[0.6404979825019836,-0.4608300030231476,0.004451777786016464],"type":"VEC3","name":"accessor_187"},{"bufferView":17,"byteOffset":0,"componentType":5126,"count":54,"max":[0.24100199341773987,0.20109403133392334],"min":[0.2178809940814972,0.15325802564620972],"type":"VEC2","name":"accessor_189"},{"bufferView":45,"byteOffset":1452,"componentType":5123,"count":480,"type":"SCALAR","min":[0],"max":[136],"name":"accessor_21"},{"bufferView":45,"byteOffset":2412,"componentType":5123,"count":1548,"type":"SCALAR","min":[0],"max":[541],"name":"accessor_210"},{"bufferView":18,"byteOffset":0,"componentType":5126,"count":542,"max":[6.442803382873535,2.776702880859375,3.1016252040863037],"min":[-4.9904608726501465,1.9251735210418701,-3.991892099380493],"type":"VEC3","name":"accessor_212"},{"bufferView":18,"byteOffset":6504,"componentType":5126,"count":542,"max":[1,0.9999070167541504,1],"min":[-1,-0.9999909996986389,-1],"type":"VEC3","name":"accessor_214"},{"bufferView":19,"byteOffset":0,"componentType":5126,"count":542,"max":[0.6940410137176514,0.9195621013641357],"min":[0.20962899923324585,0.8584700226783752],"type":"VEC2","name":"accessor_216"},{"bufferView":20,"byteOffset":0,"componentType":5126,"count":137,"max":[1.0815296173095703,4.519709587097168,21.768798828125],"min":[0.2620165944099426,3.8724639415740967,21.055997848510742],"type":"VEC3","name":"accessor_23"},{"bufferView":45,"byteOffset":5508,"componentType":5123,"count":3456,"type":"SCALAR","min":[0],"max":[1331],"name":"accessor_237"},{"bufferView":20,"byteOffset":1644,"componentType":5126,"count":1332,"max":[-0.15177999436855316,0.9706109762191772,0.9791039824485779],"min":[-0.2184630036354065,-0.9706109762191772,-0.9791039824485779],"type":"VEC3","name":"accessor_239"},{"bufferView":20,"byteOffset":17628,"componentType":5126,"count":1332,"max":[0.9964540004730225,0.9998520016670227,0.9974279999732971],"min":[-0.9964540004730225,-0.9998549818992615,-0.9974330067634583],"type":"VEC3","name":"accessor_241"},{"bufferView":21,"byteOffset":0,"componentType":5126,"count":1332,"max":[0.9854220151901245,0.9895660281181335],"min":[0.7172759771347046,0.719074010848999],"type":"VEC2","name":"accessor_243"},{"bufferView":22,"byteOffset":0,"componentType":5126,"count":137,"max":[0.9287649989128113,0.9948139786720276,1],"min":[-0.9287639856338501,-0.9948089718818665,0.04194868355989456],"type":"VEC3","name":"accessor_25"},{"bufferView":45,"byteOffset":12420,"componentType":5123,"count":1248,"type":"SCALAR","min":[0],"max":[224],"name":"accessor_291"},{"bufferView":22,"byteOffset":1644,"componentType":5126,"count":225,"max":[0,0.2861120104789734,0.28700199723243713],"min":[-0.6616529822349548,-0.2861109972000122,-0.28700199723243713],"type":"VEC3","name":"accessor_293"},{"bufferView":22,"byteOffset":4344,"componentType":5126,"count":225,"max":[-0.11627300083637238,0.9932169914245605,0.9931749701499939],"min":[-1,-0.9932169914245605,-0.9931749701499939],"type":"VEC3","name":"accessor_295"},{"bufferView":23,"byteOffset":0,"componentType":5126,"count":225,"max":[0.17519700527191162,0.9808269739151001],"min":[0.024924999102950096,0.8300870060920715],"type":"VEC2","name":"accessor_297"},{"bufferView":45,"byteOffset":14916,"componentType":5123,"count":264,"type":"SCALAR","min":[0],"max":[127],"name":"accessor_345"},{"bufferView":24,"byteOffset":0,"componentType":5126,"count":128,"max":[1.7518107891082764,2.3937997817993164,-12.259869575500488],"min":[-0.4082491993904114,2.34201979637146,-12.581059455871582],"type":"VEC3","name":"accessor_347"},{"bufferView":24,"byteOffset":1536,"componentType":5126,"count":128,"max":[0.9832469820976257,0.9447159767150879,1],"min":[-0.9832410216331482,-0.9347360134124756,-1],"type":"VEC3","name":"accessor_349"},{"bufferView":45,"byteOffset":15444,"componentType":5123,"count":384,"type":"SCALAR","min":[0],"max":[167],"name":"accessor_372"},{"bufferView":24,"byteOffset":3072,"componentType":5126,"count":168,"max":[0.6831600069999695,5.339779853820801,10.664591789245605],"min":[0.6604005098342896,1.0327829122543335,-8.55507755279541],"type":"VEC3","name":"accessor_374"},{"bufferView":24,"byteOffset":5088,"componentType":5126,"count":168,"max":[0.9999079704284668,1,0.07922827452421188],"min":[-0.9999079704284668,-1,-0.41307803988456726],"type":"VEC3","name":"accessor_376"},{"bufferView":25,"byteOffset":0,"componentType":5126,"count":168,"max":[0.1394999921321869,0.2589370012283325],"min":[0.022293999791145325,0.22238802909851074],"type":"VEC2","name":"accessor_378"},{"bufferView":45,"byteOffset":16212,"componentType":5123,"count":1584,"type":"SCALAR","min":[0],"max":[383],"name":"accessor_399"},{"bufferView":26,"byteOffset":0,"componentType":5126,"count":384,"max":[6.767609119415283,4.903719902038574,21.056440353393555],"min":[-5.480251312255859,3.8172800540924072,15.838540077209473],"type":"VEC3","name":"accessor_401"},{"bufferView":26,"byteOffset":4608,"componentType":5126,"count":384,"max":[1,0.9995499849319458,0.11427200585603714],"min":[-1,-0.9934089779853821,-0.8117749691009521],"type":"VEC3","name":"accessor_403"},{"bufferView":27,"byteOffset":0,"componentType":5126,"count":384,"max":[0.6841179728507996,0.8713139891624451],"min":[0.30134400725364685,0.7247439622879028],"type":"VEC2","name":"accessor_405"},{"bufferView":45,"byteOffset":19380,"componentType":5123,"count":4368,"type":"SCALAR","min":[0],"max":[1788],"name":"accessor_426"},{"bufferView":28,"byteOffset":0,"componentType":5126,"count":1789,"max":[-3.8589541912078857,2.3406167030334473,-0.3478831946849823],"min":[-5.870554447174072,0.3227766752243042,-3.669379472732544],"type":"VEC3","name":"accessor_428"},{"bufferView":28,"byteOffset":21468,"componentType":5126,"count":1789,"max":[0.9999979734420776,0.9999979734420776,1],"min":[-0.9999979734420776,-0.9999979734420776,-1],"type":"VEC3","name":"accessor_430"},{"bufferView":29,"byteOffset":0,"componentType":5126,"count":1789,"max":[0.9561859965324402,0.7992619872093201],"min":[0.01614299975335598,0.3406100273132324],"type":"VEC2","name":"accessor_432"},{"bufferView":45,"byteOffset":28116,"componentType":5123,"count":576,"type":"SCALAR","min":[0],"max":[195],"name":"accessor_453"},{"bufferView":30,"byteOffset":0,"componentType":5126,"count":196,"max":[-4.57668924331665,1.6206586360931396,-0.28463315963745117],"min":[-5.152818202972412,1.0427355766296387,-0.7256832122802734],"type":"VEC3","name":"accessor_455"},{"bufferView":30,"byteOffset":2352,"componentType":5126,"count":196,"max":[1,1,1],"min":[-1,-1,-2.7818099823662124e-8],"type":"VEC3","name":"accessor_457"},{"bufferView":31,"byteOffset":0,"componentType":5126,"count":196,"max":[0.9127240180969238,0.6133800148963928],"min":[0.6043040156364441,0.4857329726219177],"type":"VEC2","name":"accessor_459"},{"bufferView":45,"byteOffset":29268,"componentType":5123,"count":14718,"type":"SCALAR","min":[0],"max":[3973],"name":"accessor_48"},{"bufferView":45,"byteOffset":58704,"componentType":5123,"count":4560,"type":"SCALAR","min":[0],"max":[1856],"name":"accessor_480"},{"bufferView":32,"byteOffset":0,"componentType":5126,"count":1857,"max":[7.213550567626953,2.3406167030334473,-0.28463292121887207],"min":[5.2019500732421875,0.3227766752243042,-3.669379234313965],"type":"VEC3","name":"accessor_482"},{"bufferView":32,"byteOffset":22284,"componentType":5126,"count":1857,"max":[1,1,1],"min":[-1,-1,-1],"type":"VEC3","name":"accessor_484"},{"bufferView":33,"byteOffset":0,"componentType":5126,"count":1857,"max":[0.9561859965324402,0.7992619872093201],"min":[0.01614299975335598,0.3406100273132324],"type":"VEC2","name":"accessor_486"},{"bufferView":34,"byteOffset":0,"componentType":5126,"count":3974,"max":[2.514275074005127,5.049570083618164,21.768798828125],"min":[-1.1707247495651245,1.3155698776245117,-16.40406036376953],"type":"VEC3","name":"accessor_50"},{"bufferView":45,"byteOffset":67824,"componentType":5123,"count":384,"type":"SCALAR","min":[0],"max":[127],"name":"accessor_507"},{"bufferView":34,"byteOffset":47688,"componentType":5126,"count":128,"max":[6.495815277099609,1.6206586360931396,-0.28463292121887207],"min":[5.919686317443848,1.0427355766296387,-0.7256829738616943],"type":"VEC3","name":"accessor_509"},{"bufferView":34,"byteOffset":49224,"componentType":5126,"count":128,"max":[0.8810009956359863,0.880387008190155,1],"min":[-0.8810009956359863,-0.880391001701355,0.4731139838695526],"type":"VEC3","name":"accessor_511"},{"bufferView":35,"byteOffset":0,"componentType":5126,"count":128,"max":[0.9127240180969238,0.6133800148963928],"min":[0.7854729890823364,0.4857329726219177],"type":"VEC2","name":"accessor_513"},{"bufferView":36,"byteOffset":0,"componentType":5126,"count":3974,"max":[0.9999979734420776,0.9999989867210388,0.4378659725189209],"min":[-0.9999979734420776,-1,-1],"type":"VEC3","name":"accessor_52"},{"bufferView":45,"byteOffset":68592,"componentType":5123,"count":2304,"type":"SCALAR","min":[0],"max":[511],"name":"accessor_534"},{"bufferView":36,"byteOffset":47688,"componentType":5126,"count":512,"max":[3.2366299629211426,1.2407199144363403,1.2445799112319946],"min":[-0.395704984664917,-1.2407199144363403,-1.2445799112319946],"type":"VEC3","name":"accessor_536"},{"bufferView":36,"byteOffset":53832,"componentType":5126,"count":512,"max":[0.37990298867225647,0.9999970197677612,0.9999970197677612],"min":[-0.9985229969024658,-0.9999970197677612,-0.9999970197677612],"type":"VEC3","name":"accessor_538"},{"bufferView":37,"byteOffset":0,"componentType":5126,"count":3974,"max":[0.9899979829788208,0.23666900396347046],"min":[0.009327949956059456,0.011698007583618164],"type":"VEC2","name":"accessor_54"},{"bufferView":37,"byteOffset":31792,"componentType":5126,"count":512,"max":[0.9184020161628723,0.36305004358291626],"min":[0.0007730000070296228,0.003965973854064941],"type":"VEC2","name":"accessor_540"},{"bufferView":45,"byteOffset":73200,"componentType":5123,"count":756,"type":"SCALAR","min":[0],"max":[173],"name":"accessor_588"},{"bufferView":38,"byteOffset":0,"componentType":5126,"count":174,"max":[0.9505490660667419,11.181219100952148,21.240049362182617],"min":[0.39300209283828735,4.7128777503967285,12.720439910888672],"type":"VEC3","name":"accessor_590"},{"bufferView":38,"byteOffset":2088,"componentType":5126,"count":174,"max":[0.9993299841880798,1,0.30912601947784424],"min":[-0.9993299841880798,-0.1028279960155487,-0.6830009818077087],"type":"VEC3","name":"accessor_592"},{"bufferView":39,"byteOffset":0,"componentType":5126,"count":174,"max":[0.9706509709358215,0.9467641115188599],"min":[0.04468990117311478,0.5875200033187866],"type":"VEC2","name":"accessor_594"},{"bufferView":45,"byteOffset":74712,"componentType":5123,"count":504,"type":"SCALAR","min":[0],"max":[161],"name":"accessor_615"},{"bufferView":40,"byteOffset":0,"componentType":5126,"count":162,"max":[2.084995985031128,4.016983985900879,-13.345540046691895],"min":[-0.7414438724517822,3.4629948139190674,-15.164179801940918],"type":"VEC3","name":"accessor_617"},{"bufferView":40,"byteOffset":1944,"componentType":5126,"count":162,"max":[0.8366869688034058,0.8832340240478516,-0.30997002124786377],"min":[-0.8366900086402893,0.4514389932155609,-0.797668993473053],"type":"VEC3","name":"accessor_619"},{"bufferView":45,"byteOffset":75720,"componentType":5123,"count":1728,"type":"SCALAR","min":[0],"max":[444],"name":"accessor_642"},{"bufferView":40,"byteOffset":3888,"componentType":5126,"count":445,"max":[2.4042859077453613,2.859996795654297,6.415649890899658],"min":[-1.0607339143753052,0.9668998718261719,-6.1698198318481445],"type":"VEC3","name":"accessor_644"},{"bufferView":40,"byteOffset":9228,"componentType":5126,"count":445,"max":[0.9999979734420776,0.9999369978904724,0.8965809941291809],"min":[-0.9999979734420776,-0.9999589920043945,-0.8657339811325073],"type":"VEC3","name":"accessor_646"},{"bufferView":41,"byteOffset":0,"componentType":5126,"count":445,"max":[0.9942330121994019,0.34654301404953003],"min":[0.03084299899637699,0.2734609842300415],"type":"VEC2","name":"accessor_648"},{"bufferView":45,"byteOffset":79176,"componentType":5123,"count":10272,"type":"SCALAR","min":[0],"max":[2293],"name":"accessor_669"},{"bufferView":42,"byteOffset":0,"componentType":5126,"count":2294,"max":[18.258975982666016,6.345118999481201,8.142590522766113],"min":[-16.915424346923828,1.4848309755325317,-2.916250228881836],"type":"VEC3","name":"accessor_671"},{"bufferView":42,"byteOffset":27528,"componentType":5126,"count":2294,"max":[1,0.9932039976119995,0.8707929849624634],"min":[-1,-0.9999939799308777,-0.9988179802894592],"type":"VEC3","name":"accessor_673"},{"bufferView":43,"byteOffset":0,"componentType":5126,"count":2294,"max":[0.9579960107803345,0.7556760311126709],"min":[0.04895399883389473,0.3633260130882263],"type":"VEC2","name":"accessor_675"},{"bufferView":45,"byteOffset":99720,"componentType":5123,"count":7728,"type":"SCALAR","min":[0],"max":[2731],"name":"accessor_75"},{"bufferView":44,"byteOffset":0,"componentType":5126,"count":2732,"max":[2.446315050125122,4.070945739746094,12.31779956817627],"min":[-1.1027647256851196,3.6455817222595215,-10.1148099899292],"type":"VEC3","name":"accessor_77"},{"bufferView":44,"byteOffset":32784,"componentType":5126,"count":2732,"max":[0.958948016166687,0.46897798776626587,0.05273914337158203],"min":[-0.959007978439331,0.2810780107975006,-0.009729701094329357],"type":"VEC3","name":"accessor_79"},{"bufferView":46,"componentType":5126,"count":1215,"type":"VEC3","min":[-0.9324429388046246,3.970052546169609,-19.086429595947266],"max":[0.9657264108657855,11.181219100952148,-7.385152816772461]},{"bufferView":47,"componentType":5126,"count":1215,"type":"VEC3"},{"bufferView":48,"componentType":5126,"count":240,"type":"VEC3","min":[-0.2553097701809425,5.245098548108844,-16.51879001726057],"max":[0.25530952476098495,7.736099765384967,-14.02778879998445]},{"bufferView":49,"componentType":5126,"count":240,"type":"VEC3"},{"bufferView":50,"componentType":5126,"count":240,"type":"VEC2"}],"asset":{"generator":"collada2gltf@","version":"2.0","copyright":"FlightGear model authors / Flightradar24 contributors; GPLv2. See UPSTREAM-CREDITS.md and LICENSE.txt."},"bufferViews":[{"buffer":0,"byteLength":629,"byteOffset":646672,"name":"binary_bufferView0"},{"buffer":0,"byteLength":355,"byteOffset":647301,"name":"binary_bufferView1"},{"buffer":0,"byteLength":733,"byteOffset":647656,"name":"binary_bufferView2"},{"buffer":0,"byteLength":439,"byteOffset":648389,"name":"binary_bufferView3"},{"buffer":0,"byteLength":685,"byteOffset":648828,"name":"binary_bufferView4"},{"buffer":0,"byteLength":439,"byteOffset":649513,"name":"binary_bufferView5"},{"buffer":0,"byteLength":677,"byteOffset":649952,"name":"binary_bufferView6"},{"buffer":0,"byteLength":355,"byteOffset":650629,"name":"binary_bufferView7"},{"buffer":0,"byteLength":578222,"byteOffset":650984,"name":"binary_bufferView8"},{"buffer":0,"byteLength":71564,"byteOffset":1229206,"name":"binary_bufferView9"},{"buffer":0,"byteLength":1248,"byteOffset":0,"target":34962,"name":"bufferView_0","byteStride":12},{"buffer":0,"byteLength":416,"byteOffset":1248,"target":34962,"name":"bufferView_0","byteStride":8},{"buffer":0,"byteLength":1440,"byteOffset":1664,"target":34962,"name":"bufferView_0","byteStride":12},{"buffer":0,"byteLength":480,"byteOffset":3104,"target":34962,"name":"bufferView_0","byteStride":8},{"buffer":0,"byteLength":1296,"byteOffset":3584,"target":34962,"name":"bufferView_0","byteStride":12},{"buffer":0,"byteLength":432,"byteOffset":4880,"target":34962,"name":"bufferView_0","byteStride":8},{"buffer":0,"byteLength":1296,"byteOffset":5312,"target":34962,"name":"bufferView_0","byteStride":12},{"buffer":0,"byteLength":432,"byteOffset":6608,"target":34962,"name":"bufferView_0","byteStride":8},{"buffer":0,"byteLength":13008,"byteOffset":7040,"target":34962,"name":"bufferView_0","byteStride":12},{"buffer":0,"byteLength":4336,"byteOffset":20048,"target":34962,"name":"bufferView_0","byteStride":8},{"buffer":0,"byteLength":33612,"byteOffset":24384,"target":34962,"name":"bufferView_0","byteStride":12},{"buffer":0,"byteLength":10656,"byteOffset":57996,"target":34962,"name":"bufferView_0","byteStride":8},{"buffer":0,"byteLength":7044,"byteOffset":68652,"target":34962,"name":"bufferView_0","byteStride":12},{"buffer":0,"byteLength":1800,"byteOffset":75696,"target":34962,"name":"bufferView_0","byteStride":8},{"buffer":0,"byteLength":7104,"byteOffset":77496,"target":34962,"name":"bufferView_0","byteStride":12},{"buffer":0,"byteLength":1344,"byteOffset":84600,"target":34962,"name":"bufferView_0","byteStride":8},{"buffer":0,"byteLength":9216,"byteOffset":85944,"target":34962,"name":"bufferView_0","byteStride":12},{"buffer":0,"byteLength":3072,"byteOffset":95160,"target":34962,"name":"bufferView_0","byteStride":8},{"buffer":0,"byteLength":42936,"byteOffset":98232,"target":34962,"name":"bufferView_0","byteStride":12},{"buffer":0,"byteLength":14312,"byteOffset":141168,"target":34962,"name":"bufferView_0","byteStride":8},{"buffer":0,"byteLength":4704,"byteOffset":155480,"target":34962,"name":"bufferView_0","byteStride":12},{"buffer":0,"byteLength":1568,"byteOffset":160184,"target":34962,"name":"bufferView_0","byteStride":8},{"buffer":0,"byteLength":44568,"byteOffset":161752,"target":34962,"name":"bufferView_0","byteStride":12},{"buffer":0,"byteLength":14856,"byteOffset":206320,"target":34962,"name":"bufferView_0","byteStride":8},{"buffer":0,"byteLength":50760,"byteOffset":221176,"target":34962,"name":"bufferView_0","byteStride":12},{"buffer":0,"byteLength":1024,"byteOffset":271936,"target":34962,"name":"bufferView_0","byteStride":8},{"buffer":0,"byteLength":59976,"byteOffset":272960,"target":34962,"name":"bufferView_0","byteStride":12},{"buffer":0,"byteLength":35888,"byteOffset":332936,"target":34962,"name":"bufferView_0","byteStride":8},{"buffer":0,"byteLength":4176,"byteOffset":368824,"target":34962,"name":"bufferView_0","byteStride":12},{"buffer":0,"byteLength":1392,"byteOffset":373000,"target":34962,"name":"bufferView_0","byteStride":8},{"buffer":0,"byteLength":14568,"byteOffset":374392,"target":34962,"name":"bufferView_0","byteStride":12},{"buffer":0,"byteLength":3560,"byteOffset":388960,"target":34962,"name":"bufferView_0","byteStride":8},{"buffer":0,"byteLength":55056,"byteOffset":392520,"target":34962,"name":"bufferView_0","byteStride":12},{"buffer":0,"byteLength":18352,"byteOffset":447576,"target":34962,"name":"bufferView_0","byteStride":8},{"buffer":0,"byteLength":65568,"byteOffset":465928,"target":34962,"name":"bufferView_0","byteStride":12},{"buffer":0,"byteLength":115176,"byteOffset":531496,"target":34963,"name":"bufferView_1"},{"buffer":1,"byteOffset":0,"byteLength":14580,"target":34962},{"buffer":1,"byteOffset":14580,"byteLength":14580,"target":34962},{"buffer":1,"byteOffset":29160,"byteLength":2880,"target":34962},{"buffer":1,"byteOffset":32040,"byteLength":2880,"target":34962},{"buffer":1,"byteOffset":34920,"byteLength":1920,"target":34962}],"buffers":[{"byteLength":1300770,"extras":{},"name":"binary_glTF","uri":"../cs300-v1-0.bin"},{"uri":"cs300-tail-v1.bin","byteLength":36840}],"images":[{"name":"cs300_png_001","extras":{},"bufferView":8,"mimeType":"image/jpeg"},{"name":"engines_png_001","extras":{},"bufferView":9,"mimeType":"image/jpeg"},{"uri":"../../../airlines/EZY.png"}],"materials":[{"name":"DefaultWhite","pbrMetallicRoughness":{"roughnessFactor":1,"metallicFactor":0,"baseColorFactor":[0.6038273590607633,0.6038273590607633,0.6038273590607633,1]}},{"name":"DefaultWhite_000","doubleSided":true,"pbrMetallicRoughness":{"roughnessFactor":1,"metallicFactor":0,"baseColorTexture":{"index":1}}},{"name":"ac3dmat1_006","pbrMetallicRoughness":{"roughnessFactor":1,"metallicFactor":0,"baseColorFactor":[0.6038273590607633,0.6038273590607633,0.6038273590607633,1]}},{"name":"cs100_003","pbrMetallicRoughness":{"roughnessFactor":1,"metallicFactor":0,"baseColorTexture":{"index":0}}},{"name":"cs300_001","pbrMetallicRoughness":{"roughnessFactor":1,"metallicFactor":0,"baseColorTexture":{"index":0}}},{"name":"glass_001","alphaMode":"BLEND","doubleSided":true,"pbrMetallicRoughness":{"roughnessFactor":1,"metallicFactor":0,"baseColorFactor":[0.36724645006859014,0.36724645006859014,0.36724645006859014,1]}},{"name":"Operator tail paint","doubleSided":true,"pbrMetallicRoughness":{"baseColorFactor":[0.9450980392156862,0.4196078431372549,0.13333333333333333,1],"metallicFactor":0,"roughnessFactor":0.65}},{"name":"Operator logo identification","doubleSided":true,"alphaMode":"BLEND","pbrMetallicRoughness":{"baseColorTexture":{"index":2},"metallicFactor":0,"roughnessFactor":0.7},"emissiveFactor":[0.18,0.18,0.18],"emissiveTexture":{"index":2}}],"meshes":[{"primitives":[{"attributes":{"NORMAL":24,"POSITION":23,"TEXCOORD_0":25},"indices":22,"material":1,"mode":4}],"name":"mesh-split"},{"primitives":[{"attributes":{"NORMAL":63,"POSITION":62,"TEXCOORD_0":65},"indices":61,"material":1,"mode":4}],"name":"mesh-split_0"},{"primitives":[{"attributes":{"NORMAL":29,"POSITION":28,"TEXCOORD_0":30},"indices":27,"material":1,"mode":4}],"name":"mesh-split_1"},{"name":"rootNode_mesh","primitives":[{"attributes":{"NORMAL":26,"POSITION":21},"indices":16,"material":0,"mode":4},{"attributes":{"NORMAL":60,"POSITION":55,"TEXCOORD_0":64},"indices":50,"material":4,"mode":4},{"attributes":{"NORMAL":83,"POSITION":82},"indices":81,"material":5,"mode":4},{"attributes":{"NORMAL":2,"POSITION":1,"TEXCOORD_0":3},"indices":0,"material":4,"mode":4},{"attributes":{"NORMAL":6,"POSITION":5,"TEXCOORD_0":7},"indices":4,"material":4,"mode":4},{"attributes":{"NORMAL":10,"POSITION":9,"TEXCOORD_0":11},"indices":8,"material":4,"mode":4},{"attributes":{"NORMAL":14,"POSITION":13,"TEXCOORD_0":15},"indices":12,"material":4,"mode":4},{"attributes":{"NORMAL":19,"POSITION":18,"TEXCOORD_0":20},"indices":17,"material":1,"mode":4},{"attributes":{"NORMAL":40,"POSITION":39,"TEXCOORD_0":41},"indices":38,"material":3,"mode":4},{"attributes":{"NORMAL":36,"POSITION":35,"TEXCOORD_0":37},"indices":34,"material":4,"mode":4},{"attributes":{"NORMAL":33,"POSITION":32},"indices":31,"material":2,"mode":4},{"attributes":{"NORMAL":58,"POSITION":57,"TEXCOORD_0":59},"indices":56,"material":1,"mode":4},{"attributes":{"NORMAL":53,"POSITION":52,"TEXCOORD_0":54},"indices":51,"material":1,"mode":4},{"attributes":{"NORMAL":48,"POSITION":47,"TEXCOORD_0":49},"indices":46,"material":1,"mode":4},{"attributes":{"NORMAL":44,"POSITION":43,"TEXCOORD_0":45},"indices":42,"material":1,"mode":4},{"attributes":{"NORMAL":68,"POSITION":67,"TEXCOORD_0":69},"indices":66,"material":4,"mode":4},{"attributes":{"NORMAL":72,"POSITION":71},"indices":70,"material":5,"mode":4},{"attributes":{"NORMAL":75,"POSITION":74,"TEXCOORD_0":76},"indices":73,"material":4,"mode":4},{"attributes":{"NORMAL":79,"POSITION":78,"TEXCOORD_0":80},"indices":77,"material":4,"mode":4}]},{"name":"Airline tail surface overlay","primitives":[{"attributes":{"POSITION":84,"NORMAL":85},"material":6},{"attributes":{"POSITION":86,"NORMAL":87,"TEXCOORD_0":88},"material":7}]}],"nodes":[{"matrix":[-4.3711398899999997e-8,0,1,0,1.0000000000000007,0,2.7818099799999997e-8,0,0,1,0,0,-4.864109991773812,1.3316966202110052,-3.6566038007504065,1],"name":"fanL","mesh":0},{"matrix":[-4.3711398899999997e-8,0,1,0,1.0000000000000007,0,2.7818099799999997e-8,0,0,1,0,0,6.2076688867961165,1.3316966202110052,-3.6566036166733324,1],"name":"fanR","mesh":0},{"matrix":[-4.37113954e-8,0,1,0,1.0000000000000007,0,2.7818099799999997e-8,0,0,1,0,0,-4.86475417910559,1.3316966202110052,-4.098745912318026,1],"name":"nacelleL","mesh":1},{"matrix":[-4.37113954e-8,0,1,0,1.0000000000000007,0,2.7818099799999997e-8,0,0,1,0,0,6.208649655849115,1.3316966202110052,-4.098746441563015,1],"name":"nacelleR","mesh":1},{"matrix":[-4.3711398899999997e-8,0,1,0,1.0000000000000007,0,2.7818099799999997e-8,0,0,1,0,0,-4.864109991773603,1.3316999208182096,-3.656608600786956,1],"name":"spinnerL","mesh":2},{"matrix":[-4.3711398899999997e-8,0,1,0,1.0000000000000007,0,2.7818099799999997e-8,0,0,1,0,0,6.207205885366082,1.3316966202110052,-3.656603616693571,1],"name":"spinnerR","mesh":2},{"children":[0,1,4,5,2,3],"matrix":[1,0,0,0,0,1,0,0,0,0,1,0,0,0,0,1],"name":"rootNode","mesh":3},{"name":"SkywardCoordinateAlignment","matrix":[-1,0,-1.2246467991473532e-16,0,0,1,0,0,1.2246467991473532e-16,0,-1,0,0.6717758178710934,0,2.6823692321777344,1],"children":[6]},{"name":"AirlineTailBranding","mesh":4}],"samplers":[{"magFilter":9729,"minFilter":9729,"wrapS":10497,"wrapT":10497,"name":"sampler_0"},{"magFilter":9729,"minFilter":9987,"wrapS":33071,"wrapT":33071}],"scene":0,"scenes":[{"nodes":[7,8],"name":"defaultScene"}],"textures":[{"sampler":0,"source":0,"name":"texture_cs300_png_001"},{"sampler":0,"source":1,"name":"texture_engines_png_001"},{"source":2,"sampler":1}],"extras":{"skyward":{"source":"https://github.com/Flightradar24/fr24-3d-models","commit":"dd53267690c6a4ecbb290a3acf0284333a5d68a9","changes":"Converted legacy glTF to glTF 2.0 with Cesium; rigid axis alignment and horizontal centering only. Original geometry, materials and paint retained. Added surface-following operator tail paint and unmodified identification-logo texture. Branding is illustrative, not a registration-specific livery.","license":"GPL-2.0","sourceFiles":["source/cs300/cs300.blend","source/cs300/cs300.zip"],"operator":"EZY"}}}