{"accessors":[{"bufferView":2,"componentType":5123,"count":2880,"max":[809],"min":[0],"type":"SCALAR"},{"bufferView":3,"componentType":5126,"count":810,"max":[5.204270362854004,2.582017183303833,6.773245811462402],"min":[-5.204684257507324,-0.49463436007499695,6.622488975524902],"type":"VEC3"},{"bufferView":4,"componentType":5126,"count":810,"type":"VEC3"},{"bufferView":5,"componentType":5126,"count":810,"type":"VEC4"},{"bufferView":6,"componentType":5126,"count":810,"max":[0.9845647215843201,0.8871870711445808],"min":[0.9590252637863159,0.7060855627059937],"type":"VEC2"},{"bufferView":7,"componentType":5123,"count":53709,"max":[13942],"min":[0],"type":"SCALAR"},{"bufferView":8,"componentType":5126,"count":13943,"max":[14.507598876953125,7.454192638397217,11.043083190917969],"min":[-14.507598876953125,-1.1089653968811035,-11.043083190917969],"type":"VEC3"},{"bufferView":9,"componentType":5126,"count":13943,"type":"VEC3"},{"bufferView":10,"componentType":5126,"count":13943,"type":"VEC4"},{"bufferView":11,"componentType":5126,"count":13943,"max":[0.9968542456626892,0.9909604424610734],"min":[0.010341250337660313,0.004993319511413574],"type":"VEC2"},{"bufferView":12,"componentType":5123,"count":468,"max":[395],"min":[0],"type":"SCALAR"},{"bufferView":13,"componentType":5126,"count":396,"max":[5.45303201675415,2.5603041648864746,6.728147983551025],"min":[-5.4483208656311035,-1.2734893560409546,6.653241157531738],"type":"VEC3"},{"bufferView":14,"componentType":5126,"count":396,"type":"VEC3"},{"bufferView":15,"componentType":5126,"count":396,"type":"VEC4"},{"bufferView":16,"componentType":5126,"count":396,"max":[0.3823973536491394,0.8887655660510063],"min":[0.04160267114639282,0.08860564231872559],"type":"VEC2"},{"bufferView":17,"componentType":5123,"count":1956,"max":[665],"min":[0],"type":"SCALAR"},{"bufferView":18,"componentType":5126,"count":666,"max":[1.2066360712051392,1.5765899419784546,9.618494987487793],"min":[-1.2066360712051392,-0.1349743902683258,0.38128507137298584],"type":"VEC3"},{"bufferView":19,"componentType":5126,"count":666,"type":"VEC3"},{"bufferView":20,"componentType":5126,"count":666,"type":"VEC4"},{"bufferView":21,"componentType":5126,"count":666,"max":[1,1],"min":[0,0],"type":"VEC2"},{"bufferView":22,"componentType":5126,"count":2466,"type":"VEC3","min":[-0.6677980613708496,1.781199342012405,-11.043083190917969],"max":[0.6677980613708496,7.454192638397217,-6.473267078399658]},{"bufferView":23,"componentType":5126,"count":2466,"type":"VEC3"},{"bufferView":24,"componentType":5126,"count":348,"type":"VEC3","min":[-0.3344064620076727,3.7607778887227163,-10.338189055562019],"max":[0.3344064620076727,6.434120314545929,-7.664846629738808]},{"bufferView":25,"componentType":5126,"count":348,"type":"VEC3"},{"bufferView":26,"componentType":5126,"count":348,"type":"VEC2"}],"asset":{"generator":"Khronos Blender glTF 2.0 exporter","version":"2.0","copyright":"FlightGear model authors / FlightAirMap contributors; GPL-2.0. See source/flightairmap/dhc4/ for license and editable sources."},"bufferViews":[{"buffer":0,"byteLength":852311,"byteOffset":0},{"buffer":0,"byteLength":27294,"byteOffset":852311},{"buffer":0,"byteLength":5760,"byteOffset":879606,"target":34963},{"buffer":0,"byteLength":9720,"byteOffset":885368,"target":34962},{"buffer":0,"byteLength":9720,"byteOffset":895088,"target":34962},{"buffer":0,"byteLength":12960,"byteOffset":904808,"target":34962},{"buffer":0,"byteLength":6480,"byteOffset":917768,"target":34962},{"buffer":0,"byteLength":107418,"byteOffset":924248,"target":34963},{"buffer":0,"byteLength":167316,"byteOffset":1031668,"target":34962},{"buffer":0,"byteLength":167316,"byteOffset":1198984,"target":34962},{"buffer":0,"byteLength":223088,"byteOffset":1366300,"target":34962},{"buffer":0,"byteLength":111544,"byteOffset":1589388,"target":34962},{"buffer":0,"byteLength":936,"byteOffset":1700932,"target":34963},{"buffer":0,"byteLength":4752,"byteOffset":1701868,"target":34962},{"buffer":0,"byteLength":4752,"byteOffset":1706620,"target":34962},{"buffer":0,"byteLength":6336,"byteOffset":1711372,"target":34962},{"buffer":0,"byteLength":3168,"byteOffset":1717708,"target":34962},{"buffer":0,"byteLength":3912,"byteOffset":1720876,"target":34963},{"buffer":0,"byteLength":7992,"byteOffset":1724788,"target":34962},{"buffer":0,"byteLength":7992,"byteOffset":1732780,"target":34962},{"buffer":0,"byteLength":10656,"byteOffset":1740772,"target":34962},{"buffer":0,"byteLength":5328,"byteOffset":1751428,"target":34962},{"buffer":1,"byteOffset":0,"byteLength":29592,"target":34962},{"buffer":1,"byteOffset":29592,"byteLength":29592,"target":34962},{"buffer":1,"byteOffset":59184,"byteLength":4176,"target":34962},{"buffer":1,"byteOffset":63360,"byteLength":4176,"target":34962},{"buffer":1,"byteOffset":67536,"byteLength":2784,"target":34962}],"buffers":[{"byteLength":1756756,"extras":{},"uri":"../dhc4-v1-0.bin"},{"uri":"dhc4-tail-v1.bin?tail=2","byteLength":70320}],"images":[{"bufferView":0,"mimeType":"image/png","name":"texture.png","extras":{}},{"bufferView":1,"mimeType":"image/png","name":"prop.png","extras":{}},{"uri":"../../../airlines/EZY.png"}],"materials":[{"name":"DefaultWhite","pbrMetallicRoughness":{"baseColorFactor":[0.800000011920929,0.800000011920929,0.800000011920929,1],"baseColorTexture":{"index":0},"metallicFactor":0}},{"name":"DefaultWhite.004","pbrMetallicRoughness":{"baseColorFactor":[0.800000011920929,0.800000011920929,0.800000011920929,1],"baseColorTexture":{"index":0},"metallicFactor":0}},{"alphaMode":"BLEND","name":"transparent","pbrMetallicRoughness":{"baseColorFactor":[0.43767281230796584,0.4524992056563377,0.4767848085878015,0.30000001192092896],"baseColorTexture":{"index":1},"metallicFactor":0}},{"alphaMode":"BLEND","name":"transparent.001","pbrMetallicRoughness":{"baseColorFactor":[0.43767281230796584,0.4524992056563377,0.4767848085878015,0.30000001192092896],"metallicFactor":0}},{"name":"Operator tail paint","doubleSided":true,"pbrMetallicRoughness":{"baseColorFactor":[0.9450980392156862,0.4196078431372549,0.13333333333333333,1],"metallicFactor":0,"roughnessFactor":0.65}},{"name":"Operator logo identification","doubleSided":true,"alphaMode":"MASK","alphaCutoff":0.08,"pbrMetallicRoughness":{"baseColorTexture":{"index":2},"metallicFactor":0,"roughnessFactor":0.7},"emissiveFactor":[0.18,0.18,0.18],"emissiveTexture":{"index":2}}],"meshes":[{"name":"fuselage","primitives":[{"attributes":{"NORMAL":2,"POSITION":1,"TANGENT":3,"TEXCOORD_0":4},"indices":0,"material":1},{"attributes":{"NORMAL":7,"POSITION":6,"TANGENT":8,"TEXCOORD_0":9},"indices":5,"material":0},{"attributes":{"NORMAL":12,"POSITION":11,"TANGENT":13,"TEXCOORD_0":14},"indices":10,"material":2},{"attributes":{"NORMAL":17,"POSITION":16,"TANGENT":18,"TEXCOORD_0":19},"indices":15,"material":3}]},{"name":"Airline tail surface overlay","primitives":[{"attributes":{"POSITION":20,"NORMAL":21},"material":4},{"attributes":{"POSITION":22,"NORMAL":23,"TEXCOORD_0":24},"material":5}]}],"nodes":[{"mesh":0,"name":"fuselage"},{"name":"SkywardCoordinateAlignment","matrix":[1,0,0,0,0,1,0,0,0,0,1,0,0,0,0,1],"children":[0]},{"name":"AirlineTailBranding","mesh":1}],"samplers":[{},{"magFilter":9729,"minFilter":9987,"wrapS":33071,"wrapT":33071}],"scene":0,"scenes":[{"name":"Scene","nodes":[1,2]}],"textures":[{"sampler":0,"source":0},{"sampler":0,"source":1},{"source":2,"sampler":1}],"extras":{"skyward":{"source":"https://github.com/Ysurac/FlightAirMap-3dmodels","commit":"0906d9ba1bdd906ce45807e45ed706c09912db19","changes":"Converted legacy glTF to glTF 2.0 with Cesium; rigid axis alignment, horizontal centering, and source transforms baked into positions/normals for correct Cesium bounds. Original shape, materials and paint retained. Added surface-following operator tail paint and unmodified identification-logo texture. Branding is illustrative, not a registration-specific livery.","license":"GPL-2.0","sourceFiles":["source/flightairmap/dhc4/COPYING","source/flightairmap/dhc4/dhc4.blend"],"operator":"EZY"}}}