{"accessors":[{"bufferView":2,"componentType":5123,"count":3264,"max":[619],"min":[0],"type":"SCALAR"},{"bufferView":3,"componentType":5126,"count":620,"max":[1.2865675687789917,-0.48186585307121277,1.1558780670166016],"min":[1.1854355335235596,-0.7503378987312317,0.887406051158905],"type":"VEC3"},{"bufferView":4,"componentType":5126,"count":620,"type":"VEC3"},{"bufferView":5,"componentType":5126,"count":620,"type":"VEC4"},{"bufferView":6,"componentType":5126,"count":620,"max":[0.9149690866470337,0.9802081435918808],"min":[0.7683128714561462,0.915670707821846],"type":"VEC2"},{"bufferView":7,"componentType":5121,"count":150,"max":[50],"min":[0],"type":"SCALAR"},{"bufferView":8,"componentType":5126,"count":51,"max":[-0.648945152759552,-0.014494926668703556,0.2396022081375122],"min":[-2.751711368560791,-0.057442933320999146,0.014052175916731358],"type":"VEC3"},{"bufferView":9,"componentType":5126,"count":51,"type":"VEC3"},{"bufferView":10,"componentType":5126,"count":51,"type":"VEC4"},{"bufferView":11,"componentType":5126,"count":51,"max":[0.775562047958374,0.8089593350887299],"min":[-0.014457553625106812,0.3937085270881653],"type":"VEC2"},{"bufferView":12,"componentType":5123,"count":2796,"max":[944],"min":[0],"type":"SCALAR"},{"bufferView":13,"componentType":5126,"count":945,"max":[0.5468426942825317,0.29519107937812805,0.6744570732116699],"min":[0.533324658870697,0.1380070447921753,0.5605390667915344],"type":"VEC3"},{"bufferView":14,"componentType":5126,"count":945,"type":"VEC3"},{"bufferView":15,"componentType":5126,"count":945,"type":"VEC4"},{"bufferView":16,"componentType":5126,"count":945,"max":[0.5418624877929688,0.5590505599975586],"min":[0.4389764666557312,0.4021531343460083],"type":"VEC2"},{"bufferView":17,"componentType":5123,"count":1737,"max":[390],"min":[0],"type":"SCALAR"},{"bufferView":18,"componentType":5126,"count":391,"max":[0.11113964766263962,-0.38260889053344727,2.8317060470581055],"min":[-0.11113638430833817,-0.6387429237365723,1.8983378410339355],"type":"VEC3"},{"bufferView":19,"componentType":5126,"count":391,"type":"VEC3"},{"bufferView":20,"componentType":5126,"count":391,"type":"VEC4"},{"bufferView":21,"componentType":5126,"count":391,"max":[0.995969831943512,0.9041588082909584],"min":[0.7763432264328003,0.8412822037935257],"type":"VEC2"},{"bufferView":22,"componentType":5121,"count":66,"max":[39],"min":[0],"type":"SCALAR"},{"bufferView":23,"componentType":5126,"count":40,"max":[-0.06032225117087364,-0.15324290096759796,2.6156699657440186],"min":[-0.10355626046657562,-0.47723495960235596,2.3201279640197754],"type":"VEC3"},{"bufferView":24,"componentType":5126,"count":40,"type":"VEC3"},{"bufferView":25,"componentType":5126,"count":40,"type":"VEC4"},{"bufferView":26,"componentType":5126,"count":40,"max":[0.7700740694999695,0.9689016863703728],"min":[0.6802541017532349,0.8712697327136993],"type":"VEC2"},{"bufferView":27,"componentType":5121,"count":216,"max":[63],"min":[0],"type":"SCALAR"},{"bufferView":28,"componentType":5126,"count":64,"max":[0.02166462130844593,0.9096400141716003,-0.8444940447807312],"min":[-0.02406938374042511,0.8572140336036682,-0.8969220519065857],"type":"VEC3"},{"bufferView":29,"componentType":5126,"count":64,"type":"VEC3"},{"bufferView":30,"componentType":5126,"count":64,"type":"VEC4"},{"bufferView":31,"componentType":5126,"count":64,"max":[1,1],"min":[0,0],"type":"VEC2"},{"bufferView":32,"componentType":5123,"count":1041,"max":[319],"min":[0],"type":"SCALAR"},{"bufferView":33,"componentType":5126,"count":320,"max":[4.347922325134277,1.4770950078964233,3.069267511367798],"min":[-4.34791898727417,-0.07071511447429657,-3.059937000274658],"type":"VEC3"},{"bufferView":34,"componentType":5126,"count":320,"type":"VEC3"},{"bufferView":35,"componentType":5126,"count":320,"type":"VEC4"},{"bufferView":36,"componentType":5126,"count":320,"max":[0.8309521675109863,0.9910294562578201],"min":[0.01495957002043724,0.19508153200149536],"type":"VEC2"},{"bufferView":37,"componentType":5123,"count":1194,"max":[331],"min":[0],"type":"SCALAR"},{"bufferView":38,"componentType":5126,"count":332,"max":[1.6451947689056396,0.5551920533180237,-2.1365675926208496],"min":[-1.6451916694641113,0.48061403632164,-2.9477577209472656],"type":"VEC3"},{"bufferView":39,"componentType":5126,"count":332,"type":"VEC3"},{"bufferView":40,"componentType":5126,"count":332,"type":"VEC4"},{"bufferView":41,"componentType":5126,"count":332,"max":[0.6720396876335144,0.8707904815673828],"min":[0.19525447487831116,0.8138074427843094],"type":"VEC2"},{"bufferView":42,"componentType":5121,"count":324,"max":[131],"min":[0],"type":"SCALAR"},{"bufferView":43,"componentType":5126,"count":132,"max":[2.2278964519500732,-0.08410889655351639,1.6281702518463135],"min":[2.225468397140503,-0.13515490293502808,1.60148024559021],"type":"VEC3"},{"bufferView":44,"componentType":5126,"count":132,"type":"VEC3"},{"bufferView":45,"componentType":5126,"count":132,"type":"VEC4"},{"bufferView":46,"componentType":5126,"count":132,"max":[0.0730803906917572,0.960104376077652],"min":[0.04191061854362488,0.9004906117916107],"type":"VEC2"},{"bufferView":47,"componentType":5123,"count":1578,"max":[303],"min":[0],"type":"SCALAR"},{"bufferView":48,"componentType":5126,"count":304,"max":[0.577856719493866,1.0601310729980469,2.029933214187622],"min":[-0.578317403793335,0.38964295387268066,0.8003770709037781],"type":"VEC3"},{"bufferView":49,"componentType":5126,"count":304,"type":"VEC3"},{"bufferView":50,"componentType":5126,"count":304,"type":"VEC4"},{"bufferView":51,"componentType":5126,"count":304,"max":[1,1],"min":[0,0],"type":"VEC2"},{"bufferView":52,"componentType":5123,"count":1776,"max":[395],"min":[0],"type":"SCALAR"},{"bufferView":53,"componentType":5126,"count":396,"max":[0.5244666934013367,0.3871830701828003,0.3540111482143402],"min":[-0.5243074893951416,0.37380707263946533,0.2555491328239441],"type":"VEC3"},{"bufferView":54,"componentType":5126,"count":396,"type":"VEC3"},{"bufferView":55,"componentType":5126,"count":396,"type":"VEC4"},{"bufferView":56,"componentType":5126,"count":396,"max":[0.9958357810974121,0.3079310655593872],"min":[0.894413948059082,0.21534979343414307],"type":"VEC2"},{"bufferView":57,"componentType":5121,"count":738,"max":[235],"min":[0],"type":"SCALAR"},{"bufferView":58,"componentType":5126,"count":236,"max":[0.5648877620697021,1.098510980606079,2.029933214187622],"min":[-0.5649563670158386,0.3896428942680359,0.7558671236038208],"type":"VEC3"},{"bufferView":59,"componentType":5126,"count":236,"type":"VEC3"},{"bufferView":60,"componentType":5126,"count":236,"type":"VEC4"},{"bufferView":61,"componentType":5126,"count":236,"max":[0.6651821732521057,0.32405006885528564],"min":[0.008620869368314743,0.06106775999069214],"type":"VEC2"},{"bufferView":62,"componentType":5121,"count":120,"max":[39],"min":[0],"type":"SCALAR"},{"bufferView":63,"componentType":5126,"count":40,"max":[1.3232815265655518,-0.3987317979335785,1.1745331287384033],"min":[1.14872145652771,-0.6385418176651001,0.876115083694458],"type":"VEC3"},{"bufferView":64,"componentType":5126,"count":40,"type":"VEC3"},{"bufferView":65,"componentType":5126,"count":40,"type":"VEC4"},{"bufferView":66,"componentType":5126,"count":40,"max":[0.08148032426834106,0.9561163783073425],"min":[0.03136909008026123,0.9158467054367065],"type":"VEC2"},{"bufferView":67,"componentType":5121,"count":612,"max":[177],"min":[0],"type":"SCALAR"},{"bufferView":68,"componentType":5126,"count":178,"max":[0.5640077590942383,0.8030800223350525,2.0297532081604004],"min":[-0.5635324120521545,0.3881399929523468,0.9148310422897339],"type":"VEC3"},{"bufferView":69,"componentType":5126,"count":178,"type":"VEC3"},{"bufferView":70,"componentType":5126,"count":178,"type":"VEC4"},{"bufferView":71,"componentType":5126,"count":178,"max":[0.7295107841491699,0.32045406103134155],"min":[0.2624322772026062,0.09811902046203613],"type":"VEC2"},{"bufferView":72,"componentType":5121,"count":480,"max":[117],"min":[0],"type":"SCALAR"},{"bufferView":73,"componentType":5126,"count":118,"max":[0.11069641262292862,0.21863406896591187,-2.7666659355163574],"min":[0.07528240978717804,0.21387207508087158,-2.9196879863739014],"type":"VEC3"},{"bufferView":74,"componentType":5126,"count":118,"type":"VEC3"},{"bufferView":75,"componentType":5126,"count":118,"type":"VEC4"},{"bufferView":76,"componentType":5126,"count":118,"max":[0.928227961063385,0.20926892757415771],"min":[0.9155382513999939,0.20685869455337524],"type":"VEC2"},{"bufferView":77,"componentType":5121,"count":657,"max":[162],"min":[0],"type":"SCALAR"},{"bufferView":78,"componentType":5126,"count":163,"max":[4.35257625579834,0.3969111144542694,1.776023268699646],"min":[-4.3533148765563965,-0.09895096719264984,0.014052996411919594],"type":"VEC3"},{"bufferView":79,"componentType":5126,"count":163,"type":"VEC3"},{"bufferView":80,"componentType":5126,"count":163,"max":[0.9431239366531372,0.8095960915088654],"min":[0.03982025384902954,0.4172893762588501],"type":"VEC2"},{"bufferView":81,"componentType":5121,"count":36,"max":[13],"min":[0],"type":"SCALAR"},{"bufferView":82,"componentType":5126,"count":14,"max":[2.2927663326263428,0.04171811044216156,1.7760229110717773],"min":[1.9899084568023682,-0.09489791095256805,1.677894949913025],"type":"VEC3"},{"bufferView":83,"componentType":5126,"count":14,"type":"VEC3"},{"bufferView":84,"componentType":5126,"count":14,"type":"VEC4"},{"bufferView":85,"componentType":5126,"count":14,"max":[1,1],"min":[0,0],"type":"VEC2"},{"bufferView":86,"componentType":5121,"count":66,"max":[25],"min":[0],"type":"SCALAR"},{"bufferView":87,"componentType":5126,"count":26,"max":[-1.1323813199996948,-0.05837884545326233,1.0817742347717285],"min":[-1.1756153106689453,-0.477218896150589,0.764484167098999],"type":"VEC3"},{"bufferView":88,"componentType":5126,"count":26,"type":"VEC3"},{"bufferView":89,"componentType":5126,"count":26,"type":"VEC4"},{"bufferView":90,"componentType":5126,"count":26,"max":[0.7767810821533203,0.9689016863703728],"min":[0.6802541017532349,0.8426914811134338],"type":"VEC2"},{"bufferView":91,"componentType":5121,"count":30,"max":[19],"min":[0],"type":"SCALAR"},{"bufferView":92,"componentType":5126,"count":20,"max":[-0.9941824078559875,-0.07018489390611649,0.9566801190376282],"min":[-1.0062243938446045,-0.11528890579938889,0.9360181093215942],"type":"VEC3"},{"bufferView":93,"componentType":5126,"count":20,"type":"VEC3"},{"bufferView":94,"componentType":5126,"count":20,"type":"VEC4"},{"bufferView":95,"componentType":5126,"count":20,"max":[0.9962553381919861,0.39973771572113037],"min":[0.9934841990470886,0.39369475841522217],"type":"VEC2"},{"bufferView":96,"componentType":5121,"count":480,"max":[115],"min":[0],"type":"SCALAR"},{"bufferView":97,"componentType":5126,"count":116,"max":[-0.07527937740087509,0.21799206733703613,-2.766542911529541],"min":[-0.11069338023662567,0.21451407670974731,-2.919564962387085],"type":"VEC3"},{"bufferView":98,"componentType":5126,"count":116,"type":"VEC3"},{"bufferView":99,"componentType":5126,"count":116,"type":"VEC4"},{"bufferView":100,"componentType":5126,"count":116,"max":[0.9278298616409302,0.2091544270515442],"min":[0.9152979254722595,0.2068350911140442],"type":"VEC2"},{"bufferView":101,"componentType":5121,"count":6,"max":[3],"min":[0],"type":"SCALAR"},{"bufferView":102,"componentType":5126,"count":4,"max":[2.2831084728240967,0.028541110455989838,1.6823971271514893],"min":[1.9980744123458862,-0.08707090467214584,1.6823971271514893],"type":"VEC3"},{"bufferView":103,"componentType":5126,"count":4,"type":"VEC3"},{"bufferView":104,"componentType":5126,"count":4,"type":"VEC4"},{"bufferView":105,"componentType":5126,"count":4,"max":[0.09519119560718536,0.8735261112451553],"min":[0.018291044980287552,0.8370737731456757],"type":"VEC2"},{"bufferView":106,"componentType":5123,"count":984,"max":[560],"min":[0],"type":"SCALAR"},{"bufferView":107,"componentType":5126,"count":561,"max":[0.905565619468689,0.5184000134468079,-2.9477531909942627],"min":[-0.9052586555480957,0.5155560374259949,-3.136399269104004],"type":"VEC3"},{"bufferView":108,"componentType":5126,"count":561,"type":"VEC3"},{"bufferView":109,"componentType":5126,"count":561,"type":"VEC4"},{"bufferView":110,"componentType":5126,"count":561,"max":[0.6152108907699585,0.8826580569148064],"min":[0.2525233328342438,0.870617151260376],"type":"VEC2"},{"bufferView":111,"componentType":5121,"count":402,"max":[99],"min":[0],"type":"SCALAR"},{"bufferView":112,"componentType":5126,"count":100,"max":[-2.751636028289795,0.3870480954647064,1.0594964027404785],"min":[-4.347918510437012,-0.08859995007514954,0.014052299782633781],"type":"VEC3"},{"bufferView":113,"componentType":5126,"count":100,"type":"VEC3"},{"bufferView":114,"componentType":5126,"count":100,"type":"VEC4"},{"bufferView":115,"componentType":5126,"count":100,"max":[0.9885922074317932,0.8085483759641647],"min":[0.038872718811035156,0.40010422468185425],"type":"VEC2"},{"bufferView":116,"componentType":5121,"count":402,"max":[103],"min":[0],"type":"SCALAR"},{"bufferView":117,"componentType":5126,"count":104,"max":[4.347921848297119,0.3870480954647064,1.0594959259033203],"min":[2.7516396045684814,-0.08859995007514954,0.014051822945475578],"type":"VEC3"},{"bufferView":118,"componentType":5126,"count":104,"type":"VEC3"},{"bufferView":119,"componentType":5126,"count":104,"type":"VEC4"},{"bufferView":120,"componentType":5126,"count":104,"max":[0.9885922074317932,0.8085483759641647],"min":[0.03723222762346268,0.40010422468185425],"type":"VEC2"},{"bufferView":121,"componentType":5121,"count":144,"max":[47],"min":[0],"type":"SCALAR"},{"bufferView":122,"componentType":5126,"count":48,"max":[-0.9947123527526855,-0.04616491124033928,0.9476052522659302],"min":[-1.0057944059371948,-0.11443492025136948,0.1693931370973587],"type":"VEC3"},{"bufferView":123,"componentType":5126,"count":48,"type":"VEC3"},{"bufferView":124,"componentType":5126,"count":48,"type":"VEC4"},{"bufferView":125,"componentType":5126,"count":48,"max":[0.9963430166244507,0.4913850426673889],"min":[0.9928073287010193,0.3994308114051819],"type":"VEC2"},{"bufferView":126,"componentType":5121,"count":72,"max":[47],"min":[0],"type":"SCALAR"},{"bufferView":127,"componentType":5126,"count":48,"max":[0.37954384088516235,1.2697042226791382,3.160905122756958],"min":[-0.3796222507953644,-0.48495206236839294,3.1340391635894775],"type":"VEC3"},{"bufferView":128,"componentType":5126,"count":48,"type":"VEC3"},{"bufferView":129,"componentType":5126,"count":48,"type":"VEC4"},{"bufferView":130,"componentType":5126,"count":48,"max":[0.6348555088043213,0.9004903435707092],"min":[0.344144344329834,0.5678471326828003],"type":"VEC2"},{"bufferView":131,"componentType":5121,"count":30,"max":[19],"min":[0],"type":"SCALAR"},{"bufferView":132,"componentType":5126,"count":20,"max":[0.9447076916694641,-0.07018489390611649,0.9322900772094727],"min":[0.9326657056808472,-0.11528890579938889,0.9116280674934387],"type":"VEC3"},{"bufferView":133,"componentType":5126,"count":20,"type":"VEC3"},{"bufferView":134,"componentType":5126,"count":20,"type":"VEC4"},{"bufferView":135,"componentType":5126,"count":20,"max":[0.995834469795227,0.39891040325164795],"min":[0.9934946298599243,0.3938283920288086],"type":"VEC2"},{"bufferView":136,"componentType":5121,"count":144,"max":[119],"min":[0],"type":"SCALAR"},{"bufferView":137,"componentType":5126,"count":120,"max":[0.9441776871681213,-0.04616491124033928,0.9232161641120911],"min":[0.9330956935882568,-0.11443492025136948,0.1581680029630661],"type":"VEC3"},{"bufferView":138,"componentType":5126,"count":120,"type":"VEC3"},{"bufferView":139,"componentType":5126,"count":120,"type":"VEC4"},{"bufferView":140,"componentType":5126,"count":120,"max":[0.9964415431022644,0.49134355783462524],"min":[0.9929531812667847,0.39933884143829346],"type":"VEC2"},{"bufferView":141,"componentType":5121,"count":120,"max":[42],"min":[0],"type":"SCALAR"},{"bufferView":142,"componentType":5126,"count":43,"max":[-1.1487183570861816,-0.3987317979335785,1.1745332479476929],"min":[-1.3232784271240234,-0.6385418176651001,0.8761152029037476],"type":"VEC3"},{"bufferView":143,"componentType":5126,"count":43,"type":"VEC3"},{"bufferView":144,"componentType":5126,"count":43,"type":"VEC4"},{"bufferView":145,"componentType":5126,"count":43,"max":[0.0957343578338623,0.9640226550400257],"min":[0.0333097018301487,0.9138579219579697],"type":"VEC2"},{"bufferView":146,"componentType":5121,"count":66,"max":[25],"min":[0],"type":"SCALAR"},{"bufferView":147,"componentType":5126,"count":26,"max":[1.1756187677383423,-0.058378905057907104,1.0815410614013672],"min":[1.1323847770690918,-0.47721096873283386,0.7644850611686707],"type":"VEC3"},{"bufferView":148,"componentType":5126,"count":26,"type":"VEC3"},{"bufferView":149,"componentType":5126,"count":26,"type":"VEC4"},{"bufferView":150,"componentType":5126,"count":26,"max":[0.7767810821533203,0.9689016863703728],"min":[0.6802541017532349,0.8426914811134338],"type":"VEC2"},{"bufferView":151,"componentType":5121,"count":3,"max":[2],"min":[0],"type":"SCALAR"},{"bufferView":152,"componentType":5126,"count":3,"max":[-0.0912996381521225,0.22401106357574463,-2.776287317276001],"min":[-0.09132763743400574,0.21894106268882751,-2.7766172885894775],"type":"VEC3"},{"bufferView":153,"componentType":5126,"count":3,"type":"VEC3"},{"bufferView":154,"componentType":5126,"count":3,"type":"VEC4"},{"bufferView":155,"componentType":5126,"count":3,"max":[0.8966017365455627,0.1946074366569519],"min":[0.8964717984199524,0.19355374574661255],"type":"VEC2"},{"bufferView":156,"componentType":5121,"count":474,"max":[101],"min":[0],"type":"SCALAR"},{"bufferView":157,"componentType":5126,"count":102,"max":[0.5601707696914673,0.9585229754447937,0.8623191714286804],"min":[-0.5606314539909363,0.4299629330635071,-0.056418947875499725],"type":"VEC3"},{"bufferView":158,"componentType":5126,"count":102,"type":"VEC3"},{"bufferView":159,"componentType":5126,"count":102,"type":"VEC4"},{"bufferView":160,"componentType":5126,"count":102,"max":[1,1],"min":[0,0],"type":"VEC2"},{"bufferView":161,"componentType":5121,"count":144,"max":[123],"min":[0],"type":"SCALAR"},{"bufferView":162,"componentType":5126,"count":124,"max":[0.7862279415130615,1.2718591690063477,3.181401252746582],"min":[-0.7873532772064209,-0.4863590896129608,3.1174912452697754],"type":"VEC3"},{"bufferView":163,"componentType":5126,"count":124,"type":"VEC3"},{"bufferView":164,"componentType":5126,"count":124,"type":"VEC4"},{"bufferView":165,"componentType":5126,"count":124,"max":[0.8490003943443298,0.47402191162109375],"min":[0.1633203625679016,0.09406614303588867],"type":"VEC2"},{"bufferView":166,"componentType":5121,"count":378,"max":[102],"min":[0],"type":"SCALAR"},{"bufferView":167,"componentType":5126,"count":103,"max":[0.10989140719175339,1.477094054222107,-2.8220179080963135],"min":[-0.10988862067461014,0.1638859212398529,-3.481328010559082],"type":"VEC3"},{"bufferView":168,"componentType":5126,"count":103,"type":"VEC3"},{"bufferView":169,"componentType":5126,"count":103,"type":"VEC4"},{"bufferView":170,"componentType":5126,"count":103,"max":[0.9886016845703125,0.5543556213378906],"min":[0.009225353598594666,0.010603904724121094],"type":"VEC2"},{"bufferView":171,"componentType":5121,"count":120,"max":[39],"min":[0],"type":"SCALAR"},{"bufferView":172,"componentType":5126,"count":40,"max":[0.08728188276290894,-0.3987317979335785,2.707911968231201],"min":[-0.08727813512086868,-0.6385418176651001,2.409493923187256],"type":"VEC3"},{"bufferView":173,"componentType":5126,"count":40,"type":"VEC3"},{"bufferView":174,"componentType":5126,"count":40,"type":"VEC4"},{"bufferView":175,"componentType":5126,"count":40,"max":[0.09244996309280396,0.9635054469108582],"min":[0.021778464317321777,0.9067134261131287],"type":"VEC2"},{"bufferView":176,"componentType":5123,"count":1737,"max":[383],"min":[0],"type":"SCALAR"},{"bufferView":177,"componentType":5126,"count":384,"max":[-1.1248602867126465,-0.38260889053344727,1.2983262538909912],"min":[-1.3471382856369019,-0.6387429237365723,0.3649580478668213],"type":"VEC3"},{"bufferView":178,"componentType":5126,"count":384,"type":"VEC3"},{"bufferView":179,"componentType":5126,"count":384,"type":"VEC4"},{"bufferView":180,"componentType":5126,"count":384,"max":[0.995969831943512,0.9041588082909584],"min":[0.7763432264328003,0.8412822037935257],"type":"VEC2"},{"bufferView":181,"componentType":5123,"count":1737,"max":[386],"min":[0],"type":"SCALAR"},{"bufferView":182,"componentType":5126,"count":387,"max":[1.3471417427062988,-0.38260889053344727,1.2983261346817017],"min":[1.1248637437820435,-0.6387429237365723,0.36495792865753174],"type":"VEC3"},{"bufferView":183,"componentType":5126,"count":387,"type":"VEC3"},{"bufferView":184,"componentType":5126,"count":387,"type":"VEC4"},{"bufferView":185,"componentType":5126,"count":387,"max":[0.995969831943512,0.9041588082909584],"min":[0.7763432264328003,0.8412822037935257],"type":"VEC2"},{"bufferView":186,"componentType":5123,"count":5232,"max":[1140],"min":[0],"type":"SCALAR"},{"bufferView":187,"componentType":5126,"count":1141,"max":[0.5694917440414429,1.4770941734313965,3.069767713546753],"min":[-0.5695604681968689,-0.1919081211090088,-3.0599372386932373],"type":"VEC3"},{"bufferView":188,"componentType":5126,"count":1141,"type":"VEC3"},{"bufferView":189,"componentType":5126,"count":1141,"type":"VEC4"},{"bufferView":190,"componentType":5126,"count":1141,"max":[0.9273656606674194,0.975242055952549],"min":[0.06454954296350479,0.010632216930389404],"type":"VEC2"},{"bufferView":191,"componentType":5121,"count":648,"max":[228],"min":[0],"type":"SCALAR"},{"bufferView":192,"componentType":5126,"count":229,"max":[0.02527659200131893,0.8653540015220642,-0.8398040533065796],"min":[-0.027901414781808853,0.8423560261726379,-0.8931650519371033],"type":"VEC3"},{"bufferView":193,"componentType":5126,"count":229,"type":"VEC3"},{"bufferView":194,"componentType":5126,"count":229,"type":"VEC4"},{"bufferView":195,"componentType":5126,"count":229,"max":[0.9310886263847351,0.2820233702659607],"min":[0.906025767326355,0.2652965188026428],"type":"VEC2"},{"bufferView":196,"componentType":5121,"count":474,"max":[94],"min":[0],"type":"SCALAR"},{"bufferView":197,"componentType":5126,"count":95,"max":[4.368554592132568,0.39062708616256714,1.3781286478042603],"min":[4.337994575500488,0.34701305627822876,1.2200286388397217],"type":"VEC3"},{"bufferView":198,"componentType":5126,"count":95,"type":"VEC3"},{"bufferView":199,"componentType":5126,"count":95,"type":"VEC4"},{"bufferView":200,"componentType":5126,"count":95,"max":[1,1],"min":[0,0],"type":"VEC2"},{"bufferView":201,"componentType":5121,"count":480,"max":[95],"min":[0],"type":"SCALAR"},{"bufferView":202,"componentType":5126,"count":96,"max":[-4.337992191314697,0.39062708616256714,1.3869162797927856],"min":[-4.368554592132568,0.34701305627822876,1.228816270828247],"type":"VEC3"},{"bufferView":203,"componentType":5126,"count":96,"type":"VEC3"},{"bufferView":204,"componentType":5126,"count":96,"type":"VEC4"},{"bufferView":205,"componentType":5126,"count":96,"max":[1,1],"min":[0,0],"type":"VEC2"},{"bufferView":206,"componentType":5123,"count":3264,"max":[619],"min":[0],"type":"SCALAR"},{"bufferView":207,"componentType":5126,"count":620,"max":[-1.1854323148727417,-0.48186585307121277,1.1558781862258911],"min":[-1.2865643501281738,-0.7503378987312317,0.8874061703681946],"type":"VEC3"},{"bufferView":208,"componentType":5126,"count":620,"type":"VEC3"},{"bufferView":209,"componentType":5126,"count":620,"type":"VEC4"},{"bufferView":210,"componentType":5126,"count":620,"max":[0.9158651232719421,0.9806369543075562],"min":[0.7684566378593445,0.9160001575946808],"type":"VEC2"},{"bufferView":211,"componentType":5121,"count":960,"max":[253],"min":[0],"type":"SCALAR"},{"bufferView":212,"componentType":5126,"count":254,"max":[-0.2522912919521332,0.023605111986398697,2.6958789825439453],"min":[-0.3430953025817871,-0.24439692497253418,2.5050389766693115],"type":"VEC3"},{"bufferView":213,"componentType":5126,"count":254,"type":"VEC3"},{"bufferView":214,"componentType":5126,"count":254,"type":"VEC4"},{"bufferView":215,"componentType":5126,"count":254,"max":[0.7776022553443909,0.042673349380493164],"min":[0.6117962002754211,0.02346944808959961],"type":"VEC2"},{"bufferView":216,"componentType":5121,"count":150,"max":[51],"min":[0],"type":"SCALAR"},{"bufferView":217,"componentType":5126,"count":52,"max":[2.7517149448394775,-0.014494926668703556,0.23960208892822266],"min":[0.6489485502243042,-0.057442933320999146,0.014052056707441807],"type":"VEC3"},{"bufferView":218,"componentType":5126,"count":52,"type":"VEC3"},{"bufferView":219,"componentType":5126,"count":52,"type":"VEC4"},{"bufferView":220,"componentType":5126,"count":52,"max":[0.9942961931228638,0.81029012799263],"min":[0.20427653193473816,0.39503931999206543],"type":"VEC2"},{"bufferView":221,"componentType":5123,"count":2880,"max":[830],"min":[0],"type":"SCALAR"},{"bufferView":222,"componentType":5126,"count":831,"max":[-0.24776634573936462,0.6510599851608276,2.398185968399048],"min":[-0.35776636004447937,0.6283420324325562,2.2934579849243164],"type":"VEC3"},{"bufferView":223,"componentType":5126,"count":831,"type":"VEC3"},{"bufferView":224,"componentType":5126,"count":831,"type":"VEC4"},{"bufferView":225,"componentType":5126,"count":831,"max":[0.9981148838996887,0.9661350883543491],"min":[0.7829990983009338,0.21516716480255127],"type":"VEC2"},{"bufferView":226,"componentType":5121,"count":480,"max":[207],"min":[0],"type":"SCALAR"},{"bufferView":227,"componentType":5126,"count":208,"max":[2.8619956970214844,-0.040484942495822906,0.5871220231056213],"min":[2.846937656402588,-0.07993295043706894,0.43543803691864014],"type":"VEC3"},{"bufferView":228,"componentType":5126,"count":208,"type":"VEC3"},{"bufferView":229,"componentType":5126,"count":208,"type":"VEC4"},{"bufferView":230,"componentType":5126,"count":208,"max":[0.9276450872421265,0.20928019285202026],"min":[0.9151720404624939,0.20680153369903564],"type":"VEC2"},{"bufferView":231,"componentType":5123,"count":1680,"max":[398],"min":[0],"type":"SCALAR"},{"bufferView":232,"componentType":5126,"count":399,"max":[0.3382556140422821,0.9497699737548828,0.1302831918001175],"min":[-0.34202247858047485,0.903965950012207,-0.00909882877022028],"type":"VEC3"},{"bufferView":233,"componentType":5126,"count":399,"type":"VEC3"},{"bufferView":234,"componentType":5126,"count":399,"type":"VEC4"},{"bufferView":235,"componentType":5126,"count":399,"max":[0.9294030666351318,0.26244330406188965],"min":[0.9114423990249634,0.2594544291496277],"type":"VEC2"},{"bufferView":236,"componentType":5121,"count":633,"max":[213],"min":[0],"type":"SCALAR"},{"bufferView":237,"componentType":5126,"count":214,"max":[0.04425056278705597,1.1756330728530884,-1.0522980690002441],"min":[-0.044501449912786484,0.800836980342865,-1.4151760339736938],"type":"VEC3"},{"bufferView":238,"componentType":5126,"count":214,"type":"VEC3"},{"bufferView":239,"componentType":5126,"count":214,"type":"VEC4"},{"bufferView":240,"componentType":5126,"count":214,"max":[0.9296613931655884,0.2929317355155945],"min":[0.8758212924003601,0.23758405447006226],"type":"VEC2"},{"bufferView":241,"componentType":5121,"count":480,"max":[179],"min":[0],"type":"SCALAR"},{"bufferView":242,"componentType":5126,"count":180,"max":[-2.845977544784546,-0.04035089164972305,0.5871222615242004],"min":[-2.8585593700408936,-0.08053489774465561,0.43543827533721924],"type":"VEC3"},{"bufferView":243,"componentType":5126,"count":180,"type":"VEC3"},{"bufferView":244,"componentType":5126,"count":180,"type":"VEC4"},{"bufferView":245,"componentType":5126,"count":180,"max":[0.9279019832611084,0.20924240350723267],"min":[0.9151103496551514,0.20688194036483765],"type":"VEC2"},{"bufferView":246,"componentType":5121,"count":240,"max":[48],"min":[0],"type":"SCALAR"},{"bufferView":247,"componentType":5126,"count":49,"max":[0.04180863872170448,1.0859299898147583,0.7441371083259583],"min":[-0.04180537164211273,1.072044014930725,0.657335102558136],"type":"VEC3"},{"bufferView":248,"componentType":5126,"count":49,"type":"VEC3"},{"bufferView":249,"componentType":5126,"count":49,"type":"VEC4"},{"bufferView":250,"componentType":5126,"count":49,"max":[0.9647742509841919,0.27319324016571045],"min":[0.9364081621170044,0.24205005168914795],"type":"VEC2"},{"bufferView":251,"componentType":5123,"count":2412,"max":[544],"min":[0],"type":"SCALAR"},{"bufferView":252,"componentType":5126,"count":545,"max":[2.8670339584350586,0.9546940922737122,0.674671471118927],"min":[-2.867114782333374,-0.0707140639424324,-2.815669059753418],"type":"VEC3"},{"bufferView":253,"componentType":5126,"count":545,"type":"VEC3"},{"bufferView":254,"componentType":5126,"count":545,"type":"VEC4"},{"bufferView":255,"componentType":5126,"count":545,"max":[0.9903503060340881,0.6086735129356384],"min":[0.0971372127532959,0.18301904201507568],"type":"VEC2"},{"bufferView":256,"componentType":5121,"count":72,"max":[47],"min":[0],"type":"SCALAR"},{"bufferView":257,"componentType":5126,"count":48,"max":[0.08763988316059113,1.2715750932693481,3.1814022064208984],"min":[-0.08778014034032822,-0.4825250506401062,3.1275382041931152],"type":"VEC3"},{"bufferView":258,"componentType":5126,"count":48,"type":"VEC3"},{"bufferView":259,"componentType":5126,"count":48,"type":"VEC4"},{"bufferView":260,"componentType":5126,"count":48,"max":[0.1590995341539383,0.9934677761048079],"min":[0.13657185435295105,0.808235689997673],"type":"VEC2"},{"bufferView":261,"componentType":5123,"count":3264,"max":[619],"min":[0],"type":"SCALAR"},{"bufferView":262,"componentType":5126,"count":620,"max":[0.050608694553375244,-0.48186585307121277,2.6958489418029785],"min":[-0.050525322556495667,-0.7503378987312317,2.4273769855499268],"type":"VEC3"},{"bufferView":263,"componentType":5126,"count":620,"type":"VEC3"},{"bufferView":264,"componentType":5126,"count":620,"type":"VEC4"},{"bufferView":265,"componentType":5126,"count":620,"max":[0.9160903692245483,0.9806818999350071],"min":[0.7682954668998718,0.9162152409553528],"type":"VEC2"},{"bufferView":266,"componentType":5121,"count":672,"max":[137],"min":[0],"type":"SCALAR"},{"bufferView":267,"componentType":5126,"count":138,"max":[0.14533665776252747,0.5388110876083374,3.481328010559082],"min":[-0.145333394408226,0.24814105033874512,3.0696558952331543],"type":"VEC3"},{"bufferView":268,"componentType":5126,"count":138,"type":"VEC3"},{"bufferView":269,"componentType":5126,"count":138,"type":"VEC4"},{"bufferView":270,"componentType":5126,"count":138,"max":[0.9268742203712463,0.3389720916748047],"min":[0.06230086833238602,0.1315135359764099],"type":"VEC2"},{"bufferView":271,"componentType":5126,"count":2811,"type":"VEC3","min":[-0.677410578250885,0.029263618588447615,-3.478245973587036],"max":[0.6774136180877686,1.477094054222107,-0.8351999999999999]},{"bufferView":272,"componentType":5126,"count":2811,"type":"VEC3"},{"bufferView":273,"componentType":5126,"count":1179,"type":"VEC3","min":[-0.693410578250885,0.2340954294697195,-3.1987131915836784],"max":[0.6934136180877686,0.9963781538308414,-2.4364304672225563]},{"bufferView":274,"componentType":5126,"count":1179,"type":"VEC3"},{"bufferView":275,"componentType":5126,"count":1179,"type":"VEC2"}],"asset":{"generator":"Khronos Blender glTF 2.0 exporter","version":"2.0","copyright":"FlightGear model authors / FlightAirMap contributors; GPL-2.0. See source/flightairmap/dr40/ for license and editable sources."},"bufferViews":[{"buffer":0,"byteLength":860636,"byteOffset":0},{"buffer":0,"byteLength":20519,"byteOffset":860636},{"buffer":0,"byteLength":6528,"byteOffset":881156,"target":34963},{"buffer":0,"byteLength":7440,"byteOffset":887684,"target":34962},{"buffer":0,"byteLength":7440,"byteOffset":895124,"target":34962},{"buffer":0,"byteLength":9920,"byteOffset":902564,"target":34962},{"buffer":0,"byteLength":4960,"byteOffset":912484,"target":34962},{"buffer":0,"byteLength":150,"byteOffset":917444,"target":34963},{"buffer":0,"byteLength":612,"byteOffset":917596,"target":34962},{"buffer":0,"byteLength":612,"byteOffset":918208,"target":34962},{"buffer":0,"byteLength":816,"byteOffset":918820,"target":34962},{"buffer":0,"byteLength":408,"byteOffset":919636,"target":34962},{"buffer":0,"byteLength":5592,"byteOffset":920044,"target":34963},{"buffer":0,"byteLength":11340,"byteOffset":925636,"target":34962},{"buffer":0,"byteLength":11340,"byteOffset":936976,"target":34962},{"buffer":0,"byteLength":15120,"byteOffset":948316,"target":34962},{"buffer":0,"byteLength":7560,"byteOffset":963436,"target":34962},{"buffer":0,"byteLength":3474,"byteOffset":970996,"target":34963},{"buffer":0,"byteLength":4692,"byteOffset":974472,"target":34962},{"buffer":0,"byteLength":4692,"byteOffset":979164,"target":34962},{"buffer":0,"byteLength":6256,"byteOffset":983856,"target":34962},{"buffer":0,"byteLength":3128,"byteOffset":990112,"target":34962},{"buffer":0,"byteLength":66,"byteOffset":993240,"target":34963},{"buffer":0,"byteLength":480,"byteOffset":993308,"target":34962},{"buffer":0,"byteLength":480,"byteOffset":993788,"target":34962},{"buffer":0,"byteLength":640,"byteOffset":994268,"target":34962},{"buffer":0,"byteLength":320,"byteOffset":994908,"target":34962},{"buffer":0,"byteLength":216,"byteOffset":995228,"target":34963},{"buffer":0,"byteLength":768,"byteOffset":995444,"target":34962},{"buffer":0,"byteLength":768,"byteOffset":996212,"target":34962},{"buffer":0,"byteLength":1024,"byteOffset":996980,"target":34962},{"buffer":0,"byteLength":512,"byteOffset":998004,"target":34962},{"buffer":0,"byteLength":2082,"byteOffset":998516,"target":34963},{"buffer":0,"byteLength":3840,"byteOffset":1000600,"target":34962},{"buffer":0,"byteLength":3840,"byteOffset":1004440,"target":34962},{"buffer":0,"byteLength":5120,"byteOffset":1008280,"target":34962},{"buffer":0,"byteLength":2560,"byteOffset":1013400,"target":34962},{"buffer":0,"byteLength":2388,"byteOffset":1015960,"target":34963},{"buffer":0,"byteLength":3984,"byteOffset":1018348,"target":34962},{"buffer":0,"byteLength":3984,"byteOffset":1022332,"target":34962},{"buffer":0,"byteLength":5312,"byteOffset":1026316,"target":34962},{"buffer":0,"byteLength":2656,"byteOffset":1031628,"target":34962},{"buffer":0,"byteLength":324,"byteOffset":1034284,"target":34963},{"buffer":0,"byteLength":1584,"byteOffset":1034608,"target":34962},{"buffer":0,"byteLength":1584,"byteOffset":1036192,"target":34962},{"buffer":0,"byteLength":2112,"byteOffset":1037776,"target":34962},{"buffer":0,"byteLength":1056,"byteOffset":1039888,"target":34962},{"buffer":0,"byteLength":3156,"byteOffset":1040944,"target":34963},{"buffer":0,"byteLength":3648,"byteOffset":1044100,"target":34962},{"buffer":0,"byteLength":3648,"byteOffset":1047748,"target":34962},{"buffer":0,"byteLength":4864,"byteOffset":1051396,"target":34962},{"buffer":0,"byteLength":2432,"byteOffset":1056260,"target":34962},{"buffer":0,"byteLength":3552,"byteOffset":1058692,"target":34963},{"buffer":0,"byteLength":4752,"byteOffset":1062244,"target":34962},{"buffer":0,"byteLength":4752,"byteOffset":1066996,"target":34962},{"buffer":0,"byteLength":6336,"byteOffset":1071748,"target":34962},{"buffer":0,"byteLength":3168,"byteOffset":1078084,"target":34962},{"buffer":0,"byteLength":738,"byteOffset":1081252,"target":34963},{"buffer":0,"byteLength":2832,"byteOffset":1081992,"target":34962},{"buffer":0,"byteLength":2832,"byteOffset":1084824,"target":34962},{"buffer":0,"byteLength":3776,"byteOffset":1087656,"target":34962},{"buffer":0,"byteLength":1888,"byteOffset":1091432,"target":34962},{"buffer":0,"byteLength":120,"byteOffset":1093320,"target":34963},{"buffer":0,"byteLength":480,"byteOffset":1093440,"target":34962},{"buffer":0,"byteLength":480,"byteOffset":1093920,"target":34962},{"buffer":0,"byteLength":640,"byteOffset":1094400,"target":34962},{"buffer":0,"byteLength":320,"byteOffset":1095040,"target":34962},{"buffer":0,"byteLength":612,"byteOffset":1095360,"target":34963},{"buffer":0,"byteLength":2136,"byteOffset":1095972,"target":34962},{"buffer":0,"byteLength":2136,"byteOffset":1098108,"target":34962},{"buffer":0,"byteLength":2848,"byteOffset":1100244,"target":34962},{"buffer":0,"byteLength":1424,"byteOffset":1103092,"target":34962},{"buffer":0,"byteLength":480,"byteOffset":1104516,"target":34963},{"buffer":0,"byteLength":1416,"byteOffset":1104996,"target":34962},{"buffer":0,"byteLength":1416,"byteOffset":1106412,"target":34962},{"buffer":0,"byteLength":1888,"byteOffset":1107828,"target":34962},{"buffer":0,"byteLength":944,"byteOffset":1109716,"target":34962},{"buffer":0,"byteLength":657,"byteOffset":1110660,"target":34963},{"buffer":0,"byteLength":1956,"byteOffset":1111320,"target":34962},{"buffer":0,"byteLength":1956,"byteOffset":1113276,"target":34962},{"buffer":0,"byteLength":1304,"byteOffset":1115232,"target":34962},{"buffer":0,"byteLength":36,"byteOffset":1116536,"target":34963},{"buffer":0,"byteLength":168,"byteOffset":1116572,"target":34962},{"buffer":0,"byteLength":168,"byteOffset":1116740,"target":34962},{"buffer":0,"byteLength":224,"byteOffset":1116908,"target":34962},{"buffer":0,"byteLength":112,"byteOffset":1117132,"target":34962},{"buffer":0,"byteLength":66,"byteOffset":1117244,"target":34963},{"buffer":0,"byteLength":312,"byteOffset":1117312,"target":34962},{"buffer":0,"byteLength":312,"byteOffset":1117624,"target":34962},{"buffer":0,"byteLength":416,"byteOffset":1117936,"target":34962},{"buffer":0,"byteLength":208,"byteOffset":1118352,"target":34962},{"buffer":0,"byteLength":30,"byteOffset":1118560,"target":34963},{"buffer":0,"byteLength":240,"byteOffset":1118592,"target":34962},{"buffer":0,"byteLength":240,"byteOffset":1118832,"target":34962},{"buffer":0,"byteLength":320,"byteOffset":1119072,"target":34962},{"buffer":0,"byteLength":160,"byteOffset":1119392,"target":34962},{"buffer":0,"byteLength":480,"byteOffset":1119552,"target":34963},{"buffer":0,"byteLength":1392,"byteOffset":1120032,"target":34962},{"buffer":0,"byteLength":1392,"byteOffset":1121424,"target":34962},{"buffer":0,"byteLength":1856,"byteOffset":1122816,"target":34962},{"buffer":0,"byteLength":928,"byteOffset":1124672,"target":34962},{"buffer":0,"byteLength":6,"byteOffset":1125600,"target":34963},{"buffer":0,"byteLength":48,"byteOffset":1125608,"target":34962},{"buffer":0,"byteLength":48,"byteOffset":1125656,"target":34962},{"buffer":0,"byteLength":64,"byteOffset":1125704,"target":34962},{"buffer":0,"byteLength":32,"byteOffset":1125768,"target":34962},{"buffer":0,"byteLength":1968,"byteOffset":1125800,"target":34963},{"buffer":0,"byteLength":6732,"byteOffset":1127768,"target":34962},{"buffer":0,"byteLength":6732,"byteOffset":1134500,"target":34962},{"buffer":0,"byteLength":8976,"byteOffset":1141232,"target":34962},{"buffer":0,"byteLength":4488,"byteOffset":1150208,"target":34962},{"buffer":0,"byteLength":402,"byteOffset":1154696,"target":34963},{"buffer":0,"byteLength":1200,"byteOffset":1155100,"target":34962},{"buffer":0,"byteLength":1200,"byteOffset":1156300,"target":34962},{"buffer":0,"byteLength":1600,"byteOffset":1157500,"target":34962},{"buffer":0,"byteLength":800,"byteOffset":1159100,"target":34962},{"buffer":0,"byteLength":402,"byteOffset":1159900,"target":34963},{"buffer":0,"byteLength":1248,"byteOffset":1160304,"target":34962},{"buffer":0,"byteLength":1248,"byteOffset":1161552,"target":34962},{"buffer":0,"byteLength":1664,"byteOffset":1162800,"target":34962},{"buffer":0,"byteLength":832,"byteOffset":1164464,"target":34962},{"buffer":0,"byteLength":144,"byteOffset":1165296,"target":34963},{"buffer":0,"byteLength":576,"byteOffset":1165440,"target":34962},{"buffer":0,"byteLength":576,"byteOffset":1166016,"target":34962},{"buffer":0,"byteLength":768,"byteOffset":1166592,"target":34962},{"buffer":0,"byteLength":384,"byteOffset":1167360,"target":34962},{"buffer":0,"byteLength":72,"byteOffset":1167744,"target":34963},{"buffer":0,"byteLength":576,"byteOffset":1167816,"target":34962},{"buffer":0,"byteLength":576,"byteOffset":1168392,"target":34962},{"buffer":0,"byteLength":768,"byteOffset":1168968,"target":34962},{"buffer":0,"byteLength":384,"byteOffset":1169736,"target":34962},{"buffer":0,"byteLength":30,"byteOffset":1170120,"target":34963},{"buffer":0,"byteLength":240,"byteOffset":1170152,"target":34962},{"buffer":0,"byteLength":240,"byteOffset":1170392,"target":34962},{"buffer":0,"byteLength":320,"byteOffset":1170632,"target":34962},{"buffer":0,"byteLength":160,"byteOffset":1170952,"target":34962},{"buffer":0,"byteLength":144,"byteOffset":1171112,"target":34963},{"buffer":0,"byteLength":1440,"byteOffset":1171256,"target":34962},{"buffer":0,"byteLength":1440,"byteOffset":1172696,"target":34962},{"buffer":0,"byteLength":1920,"byteOffset":1174136,"target":34962},{"buffer":0,"byteLength":960,"byteOffset":1176056,"target":34962},{"buffer":0,"byteLength":120,"byteOffset":1177016,"target":34963},{"buffer":0,"byteLength":516,"byteOffset":1177136,"target":34962},{"buffer":0,"byteLength":516,"byteOffset":1177652,"target":34962},{"buffer":0,"byteLength":688,"byteOffset":1178168,"target":34962},{"buffer":0,"byteLength":344,"byteOffset":1178856,"target":34962},{"buffer":0,"byteLength":66,"byteOffset":1179200,"target":34963},{"buffer":0,"byteLength":312,"byteOffset":1179268,"target":34962},{"buffer":0,"byteLength":312,"byteOffset":1179580,"target":34962},{"buffer":0,"byteLength":416,"byteOffset":1179892,"target":34962},{"buffer":0,"byteLength":208,"byteOffset":1180308,"target":34962},{"buffer":0,"byteLength":3,"byteOffset":1180516,"target":34963},{"buffer":0,"byteLength":36,"byteOffset":1180520,"target":34962},{"buffer":0,"byteLength":36,"byteOffset":1180556,"target":34962},{"buffer":0,"byteLength":48,"byteOffset":1180592,"target":34962},{"buffer":0,"byteLength":24,"byteOffset":1180640,"target":34962},{"buffer":0,"byteLength":474,"byteOffset":1180664,"target":34963},{"buffer":0,"byteLength":1224,"byteOffset":1181140,"target":34962},{"buffer":0,"byteLength":1224,"byteOffset":1182364,"target":34962},{"buffer":0,"byteLength":1632,"byteOffset":1183588,"target":34962},{"buffer":0,"byteLength":816,"byteOffset":1185220,"target":34962},{"buffer":0,"byteLength":144,"byteOffset":1186036,"target":34963},{"buffer":0,"byteLength":1488,"byteOffset":1186180,"target":34962},{"buffer":0,"byteLength":1488,"byteOffset":1187668,"target":34962},{"buffer":0,"byteLength":1984,"byteOffset":1189156,"target":34962},{"buffer":0,"byteLength":992,"byteOffset":1191140,"target":34962},{"buffer":0,"byteLength":378,"byteOffset":1192132,"target":34963},{"buffer":0,"byteLength":1236,"byteOffset":1192512,"target":34962},{"buffer":0,"byteLength":1236,"byteOffset":1193748,"target":34962},{"buffer":0,"byteLength":1648,"byteOffset":1194984,"target":34962},{"buffer":0,"byteLength":824,"byteOffset":1196632,"target":34962},{"buffer":0,"byteLength":120,"byteOffset":1197456,"target":34963},{"buffer":0,"byteLength":480,"byteOffset":1197576,"target":34962},{"buffer":0,"byteLength":480,"byteOffset":1198056,"target":34962},{"buffer":0,"byteLength":640,"byteOffset":1198536,"target":34962},{"buffer":0,"byteLength":320,"byteOffset":1199176,"target":34962},{"buffer":0,"byteLength":3474,"byteOffset":1199496,"target":34963},{"buffer":0,"byteLength":4608,"byteOffset":1202972,"target":34962},{"buffer":0,"byteLength":4608,"byteOffset":1207580,"target":34962},{"buffer":0,"byteLength":6144,"byteOffset":1212188,"target":34962},{"buffer":0,"byteLength":3072,"byteOffset":1218332,"target":34962},{"buffer":0,"byteLength":3474,"byteOffset":1221404,"target":34963},{"buffer":0,"byteLength":4644,"byteOffset":1224880,"target":34962},{"buffer":0,"byteLength":4644,"byteOffset":1229524,"target":34962},{"buffer":0,"byteLength":6192,"byteOffset":1234168,"target":34962},{"buffer":0,"byteLength":3096,"byteOffset":1240360,"target":34962},{"buffer":0,"byteLength":10464,"byteOffset":1243456,"target":34963},{"buffer":0,"byteLength":13692,"byteOffset":1253920,"target":34962},{"buffer":0,"byteLength":13692,"byteOffset":1267612,"target":34962},{"buffer":0,"byteLength":18256,"byteOffset":1281304,"target":34962},{"buffer":0,"byteLength":9128,"byteOffset":1299560,"target":34962},{"buffer":0,"byteLength":648,"byteOffset":1308688,"target":34963},{"buffer":0,"byteLength":2748,"byteOffset":1309336,"target":34962},{"buffer":0,"byteLength":2748,"byteOffset":1312084,"target":34962},{"buffer":0,"byteLength":3664,"byteOffset":1314832,"target":34962},{"buffer":0,"byteLength":1832,"byteOffset":1318496,"target":34962},{"buffer":0,"byteLength":474,"byteOffset":1320328,"target":34963},{"buffer":0,"byteLength":1140,"byteOffset":1320804,"target":34962},{"buffer":0,"byteLength":1140,"byteOffset":1321944,"target":34962},{"buffer":0,"byteLength":1520,"byteOffset":1323084,"target":34962},{"buffer":0,"byteLength":760,"byteOffset":1324604,"target":34962},{"buffer":0,"byteLength":480,"byteOffset":1325364,"target":34963},{"buffer":0,"byteLength":1152,"byteOffset":1325844,"target":34962},{"buffer":0,"byteLength":1152,"byteOffset":1326996,"target":34962},{"buffer":0,"byteLength":1536,"byteOffset":1328148,"target":34962},{"buffer":0,"byteLength":768,"byteOffset":1329684,"target":34962},{"buffer":0,"byteLength":6528,"byteOffset":1330452,"target":34963},{"buffer":0,"byteLength":7440,"byteOffset":1336980,"target":34962},{"buffer":0,"byteLength":7440,"byteOffset":1344420,"target":34962},{"buffer":0,"byteLength":9920,"byteOffset":1351860,"target":34962},{"buffer":0,"byteLength":4960,"byteOffset":1361780,"target":34962},{"buffer":0,"byteLength":960,"byteOffset":1366740,"target":34963},{"buffer":0,"byteLength":3048,"byteOffset":1367700,"target":34962},{"buffer":0,"byteLength":3048,"byteOffset":1370748,"target":34962},{"buffer":0,"byteLength":4064,"byteOffset":1373796,"target":34962},{"buffer":0,"byteLength":2032,"byteOffset":1377860,"target":34962},{"buffer":0,"byteLength":150,"byteOffset":1379892,"target":34963},{"buffer":0,"byteLength":624,"byteOffset":1380044,"target":34962},{"buffer":0,"byteLength":624,"byteOffset":1380668,"target":34962},{"buffer":0,"byteLength":832,"byteOffset":1381292,"target":34962},{"buffer":0,"byteLength":416,"byteOffset":1382124,"target":34962},{"buffer":0,"byteLength":5760,"byteOffset":1382540,"target":34963},{"buffer":0,"byteLength":9972,"byteOffset":1388300,"target":34962},{"buffer":0,"byteLength":9972,"byteOffset":1398272,"target":34962},{"buffer":0,"byteLength":13296,"byteOffset":1408244,"target":34962},{"buffer":0,"byteLength":6648,"byteOffset":1421540,"target":34962},{"buffer":0,"byteLength":480,"byteOffset":1428188,"target":34963},{"buffer":0,"byteLength":2496,"byteOffset":1428668,"target":34962},{"buffer":0,"byteLength":2496,"byteOffset":1431164,"target":34962},{"buffer":0,"byteLength":3328,"byteOffset":1433660,"target":34962},{"buffer":0,"byteLength":1664,"byteOffset":1436988,"target":34962},{"buffer":0,"byteLength":3360,"byteOffset":1438652,"target":34963},{"buffer":0,"byteLength":4788,"byteOffset":1442012,"target":34962},{"buffer":0,"byteLength":4788,"byteOffset":1446800,"target":34962},{"buffer":0,"byteLength":6384,"byteOffset":1451588,"target":34962},{"buffer":0,"byteLength":3192,"byteOffset":1457972,"target":34962},{"buffer":0,"byteLength":633,"byteOffset":1461164,"target":34963},{"buffer":0,"byteLength":2568,"byteOffset":1461800,"target":34962},{"buffer":0,"byteLength":2568,"byteOffset":1464368,"target":34962},{"buffer":0,"byteLength":3424,"byteOffset":1466936,"target":34962},{"buffer":0,"byteLength":1712,"byteOffset":1470360,"target":34962},{"buffer":0,"byteLength":480,"byteOffset":1472072,"target":34963},{"buffer":0,"byteLength":2160,"byteOffset":1472552,"target":34962},{"buffer":0,"byteLength":2160,"byteOffset":1474712,"target":34962},{"buffer":0,"byteLength":2880,"byteOffset":1476872,"target":34962},{"buffer":0,"byteLength":1440,"byteOffset":1479752,"target":34962},{"buffer":0,"byteLength":240,"byteOffset":1481192,"target":34963},{"buffer":0,"byteLength":588,"byteOffset":1481432,"target":34962},{"buffer":0,"byteLength":588,"byteOffset":1482020,"target":34962},{"buffer":0,"byteLength":784,"byteOffset":1482608,"target":34962},{"buffer":0,"byteLength":392,"byteOffset":1483392,"target":34962},{"buffer":0,"byteLength":4824,"byteOffset":1483784,"target":34963},{"buffer":0,"byteLength":6540,"byteOffset":1488608,"target":34962},{"buffer":0,"byteLength":6540,"byteOffset":1495148,"target":34962},{"buffer":0,"byteLength":8720,"byteOffset":1501688,"target":34962},{"buffer":0,"byteLength":4360,"byteOffset":1510408,"target":34962},{"buffer":0,"byteLength":72,"byteOffset":1514768,"target":34963},{"buffer":0,"byteLength":576,"byteOffset":1514840,"target":34962},{"buffer":0,"byteLength":576,"byteOffset":1515416,"target":34962},{"buffer":0,"byteLength":768,"byteOffset":1515992,"target":34962},{"buffer":0,"byteLength":384,"byteOffset":1516760,"target":34962},{"buffer":0,"byteLength":6528,"byteOffset":1517144,"target":34963},{"buffer":0,"byteLength":7440,"byteOffset":1523672,"target":34962},{"buffer":0,"byteLength":7440,"byteOffset":1531112,"target":34962},{"buffer":0,"byteLength":9920,"byteOffset":1538552,"target":34962},{"buffer":0,"byteLength":4960,"byteOffset":1548472,"target":34962},{"buffer":0,"byteLength":672,"byteOffset":1553432,"target":34963},{"buffer":0,"byteLength":1656,"byteOffset":1554104,"target":34962},{"buffer":0,"byteLength":1656,"byteOffset":1555760,"target":34962},{"buffer":0,"byteLength":2208,"byteOffset":1557416,"target":34962},{"buffer":0,"byteLength":1104,"byteOffset":1559624,"target":34962},{"buffer":1,"byteOffset":0,"byteLength":33732,"target":34962},{"buffer":1,"byteOffset":33732,"byteLength":33732,"target":34962},{"buffer":1,"byteOffset":67464,"byteLength":14148,"target":34962},{"buffer":1,"byteOffset":81612,"byteLength":14148,"target":34962},{"buffer":1,"byteOffset":95760,"byteLength":9432,"target":34962}],"buffers":[{"byteLength":1560728,"extras":{},"uri":"../dr40-v1-0.bin"},{"uri":"dr40-tail-v1.bin","byteLength":105192}],"images":[{"bufferView":0,"mimeType":"image/png","name":"texture.png","extras":{}},{"bufferView":1,"mimeType":"image/png","name":"prop.png","extras":{}},{"uri":"../../../airlines/WZZ.png"}],"materials":[{"name":"DefaultWhite","pbrMetallicRoughness":{"baseColorFactor":[0.800000011920929,0.800000011920929,0.800000011920929,1],"baseColorTexture":{"index":0},"metallicFactor":0}},{"alphaMode":"BLEND","name":"rougetrans","pbrMetallicRoughness":{"baseColorFactor":[0.800000011920929,0,0,0.30000001192092896],"metallicFactor":0}},{"alphaMode":"BLEND","name":"transparent","pbrMetallicRoughness":{"baseColorFactor":[0.800000011920929,0.800000011920929,0.800000011920929,0.30000001192092896],"metallicFactor":0}},{"alphaMode":"BLEND","name":"transparent.001","pbrMetallicRoughness":{"baseColorFactor":[0.800000011920929,0.800000011920929,0.800000011920929,0.30000001192092896],"baseColorTexture":{"index":1},"metallicFactor":0}},{"alphaMode":"BLEND","name":"verttrans","pbrMetallicRoughness":{"baseColorFactor":[0,0.800000011920929,0,0.30000001192092896],"metallicFactor":0}},{"name":"Operator tail paint","doubleSided":true,"pbrMetallicRoughness":{"baseColorFactor":[0.7725490196078432,0.09803921568627451,0.4823529411764706,1],"metallicFactor":0,"roughnessFactor":0.65}},{"name":"Operator logo identification","doubleSided":true,"alphaMode":"BLEND","pbrMetallicRoughness":{"baseColorTexture":{"index":2},"metallicFactor":0,"roughnessFactor":0.7},"emissiveFactor":[0.18,0.18,0.18],"emissiveTexture":{"index":2}}],"meshes":[{"name":"roueG","primitives":[{"attributes":{"NORMAL":2,"POSITION":1,"TANGENT":3,"TEXCOORD_0":4},"indices":0,"material":0}]},{"name":"voletD","primitives":[{"attributes":{"NORMAL":7,"POSITION":6,"TANGENT":8,"TEXCOORD_0":9},"indices":5,"material":0}]},{"name":"bouchon_reservoir","primitives":[{"attributes":{"NORMAL":12,"POSITION":11,"TANGENT":13,"TEXCOORD_0":14},"indices":10,"material":0}]},{"name":"cacheA","primitives":[{"attributes":{"NORMAL":17,"POSITION":16,"TANGENT":18,"TEXCOORD_0":19},"indices":15,"material":0}]},{"name":"axeA","primitives":[{"attributes":{"NORMAL":22,"POSITION":21,"TANGENT":23,"TEXCOORD_0":24},"indices":20,"material":0}]},{"name":"strobetrs","primitives":[{"attributes":{"NORMAL":27,"POSITION":26,"TANGENT":28,"TEXCOORD_0":29},"indices":25,"material":1}]},{"name":"trous","primitives":[{"attributes":{"NORMAL":32,"POSITION":31,"TANGENT":33,"TEXCOORD_0":34},"indices":30,"material":0}]},{"name":"profondeur","primitives":[{"attributes":{"NORMAL":37,"POSITION":36,"TANGENT":38,"TEXCOORD_0":39},"indices":35,"material":0}]},{"name":"sonde_pitot","primitives":[{"attributes":{"NORMAL":42,"POSITION":41,"TANGENT":43,"TEXCOORD_0":44},"indices":40,"material":0}]},{"name":"verriere","primitives":[{"attributes":{"NORMAL":47,"POSITION":46,"TANGENT":48,"TEXCOORD_0":49},"indices":45,"material":2}]},{"name":"poignees_bas","primitives":[{"attributes":{"NORMAL":52,"POSITION":51,"TANGENT":53,"TEXCOORD_0":54},"indices":50,"material":0}]},{"name":"toitverriere","primitives":[{"attributes":{"NORMAL":57,"POSITION":56,"TANGENT":58,"TEXCOORD_0":59},"indices":55,"material":0}]},{"name":"troucacheG","primitives":[{"attributes":{"NORMAL":62,"POSITION":61,"TANGENT":63,"TEXCOORD_0":64},"indices":60,"material":0}]},{"name":"tourverriere","primitives":[{"attributes":{"NORMAL":67,"POSITION":66,"TANGENT":68,"TEXCOORD_0":69},"indices":65,"material":0}]},{"name":"tringleG","primitives":[{"attributes":{"NORMAL":72,"POSITION":71,"TANGENT":73,"TEXCOORD_0":74},"indices":70,"material":0}]},{"name":"ailes","primitives":[{"attributes":{"NORMAL":77,"POSITION":76,"TEXCOORD_0":78},"indices":75,"material":0}]},{"name":"lampe","primitives":[{"attributes":{"NORMAL":81,"POSITION":80,"TANGENT":82,"TEXCOORD_0":83},"indices":79,"material":2}]},{"name":"axeD","primitives":[{"attributes":{"NORMAL":86,"POSITION":85,"TANGENT":87,"TEXCOORD_0":88},"indices":84,"material":0}]},{"name":"commandeflapsD","primitives":[{"attributes":{"NORMAL":91,"POSITION":90,"TANGENT":92,"TEXCOORD_0":93},"indices":89,"material":0}]},{"name":"tringleD","primitives":[{"attributes":{"NORMAL":96,"POSITION":95,"TANGENT":97,"TEXCOORD_0":98},"indices":94,"material":0}]},{"name":"lampe_aile","primitives":[{"attributes":{"NORMAL":101,"POSITION":100,"TANGENT":102,"TEXCOORD_0":103},"indices":99,"material":0}]},{"name":"trimprof","primitives":[{"attributes":{"NORMAL":106,"POSITION":105,"TANGENT":107,"TEXCOORD_0":108},"indices":104,"material":0}]},{"name":"aileronD","primitives":[{"attributes":{"NORMAL":111,"POSITION":110,"TANGENT":112,"TEXCOORD_0":113},"indices":109,"material":0}]},{"name":"aileronG","primitives":[{"attributes":{"NORMAL":116,"POSITION":115,"TANGENT":117,"TEXCOORD_0":118},"indices":114,"material":0}]},{"name":"axeflapsD","primitives":[{"attributes":{"NORMAL":121,"POSITION":120,"TANGENT":122,"TEXCOORD_0":123},"indices":119,"material":0}]},{"name":"propblur","primitives":[{"attributes":{"NORMAL":126,"POSITION":125,"TANGENT":127,"TEXCOORD_0":128},"indices":124,"material":3}]},{"name":"commandeflapsG","primitives":[{"attributes":{"NORMAL":131,"POSITION":130,"TANGENT":132,"TEXCOORD_0":133},"indices":129,"material":0}]},{"name":"axeflapsG","primitives":[{"attributes":{"NORMAL":136,"POSITION":135,"TANGENT":137,"TEXCOORD_0":138},"indices":134,"material":0}]},{"name":"troucacheD","primitives":[{"attributes":{"NORMAL":141,"POSITION":140,"TANGENT":142,"TEXCOORD_0":143},"indices":139,"material":0}]},{"name":"axeG","primitives":[{"attributes":{"NORMAL":146,"POSITION":145,"TANGENT":147,"TEXCOORD_0":148},"indices":144,"material":0}]},{"name":"protege.003","primitives":[{"attributes":{"NORMAL":151,"POSITION":150,"TANGENT":152,"TEXCOORD_0":153},"indices":149,"material":0}]},{"name":"verriereAR","primitives":[{"attributes":{"NORMAL":156,"POSITION":155,"TANGENT":157,"TEXCOORD_0":158},"indices":154,"material":2}]},{"name":"propdisc","primitives":[{"attributes":{"NORMAL":161,"POSITION":160,"TANGENT":162,"TEXCOORD_0":163},"indices":159,"material":3}]},{"name":"direction","primitives":[{"attributes":{"NORMAL":166,"POSITION":165,"TANGENT":167,"TEXCOORD_0":168},"indices":164,"material":0}]},{"name":"troucacheA","primitives":[{"attributes":{"NORMAL":171,"POSITION":170,"TANGENT":172,"TEXCOORD_0":173},"indices":169,"material":0}]},{"name":"cacheD","primitives":[{"attributes":{"NORMAL":176,"POSITION":175,"TANGENT":177,"TEXCOORD_0":178},"indices":174,"material":0}]},{"name":"cacheG","primitives":[{"attributes":{"NORMAL":181,"POSITION":180,"TANGENT":182,"TEXCOORD_0":183},"indices":179,"material":0}]},{"name":"fuselage","primitives":[{"attributes":{"NORMAL":186,"POSITION":185,"TANGENT":187,"TEXCOORD_0":188},"indices":184,"material":0}]},{"name":"strobe","primitives":[{"attributes":{"NORMAL":191,"POSITION":190,"TANGENT":192,"TEXCOORD_0":193},"indices":189,"material":0}]},{"name":"lampeG","primitives":[{"attributes":{"NORMAL":196,"POSITION":195,"TANGENT":197,"TEXCOORD_0":198},"indices":194,"material":1}]},{"name":"lampeD","primitives":[{"attributes":{"NORMAL":201,"POSITION":200,"TANGENT":202,"TEXCOORD_0":203},"indices":199,"material":4}]},{"name":"roueD","primitives":[{"attributes":{"NORMAL":206,"POSITION":205,"TANGENT":207,"TEXCOORD_0":208},"indices":204,"material":0}]},{"name":"echappe","primitives":[{"attributes":{"NORMAL":211,"POSITION":210,"TANGENT":212,"TEXCOORD_0":213},"indices":209,"material":0}]},{"name":"voletG","primitives":[{"attributes":{"NORMAL":216,"POSITION":215,"TANGENT":217,"TEXCOORD_0":218},"indices":214,"material":0}]},{"name":"acces_gauge","primitives":[{"attributes":{"NORMAL":221,"POSITION":220,"TANGENT":222,"TEXCOORD_0":223},"indices":219,"material":0}]},{"name":"tringleaileronG","primitives":[{"attributes":{"NORMAL":226,"POSITION":225,"TANGENT":227,"TEXCOORD_0":228},"indices":224,"material":0}]},{"name":"poignees_haut","primitives":[{"attributes":{"NORMAL":231,"POSITION":230,"TANGENT":232,"TEXCOORD_0":233},"indices":229,"material":0}]},{"name":"antenne_droite","primitives":[{"attributes":{"NORMAL":236,"POSITION":235,"TANGENT":237,"TEXCOORD_0":238},"indices":234,"material":0}]},{"name":"tringleaileronD","primitives":[{"attributes":{"NORMAL":241,"POSITION":240,"TANGENT":242,"TEXCOORD_0":243},"indices":239,"material":0}]},{"name":"garmin","primitives":[{"attributes":{"NORMAL":246,"POSITION":245,"TANGENT":247,"TEXCOORD_0":248},"indices":244,"material":0}]},{"name":"protege","primitives":[{"attributes":{"NORMAL":251,"POSITION":250,"TANGENT":252,"TEXCOORD_0":253},"indices":249,"material":0}]},{"name":"helice","primitives":[{"attributes":{"NORMAL":256,"POSITION":255,"TANGENT":257,"TEXCOORD_0":258},"indices":254,"material":0}]},{"name":"roueA","primitives":[{"attributes":{"NORMAL":261,"POSITION":260,"TANGENT":262,"TEXCOORD_0":263},"indices":259,"material":0}]},{"name":"bol","primitives":[{"attributes":{"NORMAL":266,"POSITION":265,"TANGENT":267,"TEXCOORD_0":268},"indices":264,"material":0}]},{"name":"Airline tail surface overlay","primitives":[{"attributes":{"POSITION":269,"NORMAL":270},"material":5},{"attributes":{"POSITION":271,"NORMAL":272,"TEXCOORD_0":273},"material":6}]}],"nodes":[{"mesh":44,"name":"acces_gauge"},{"mesh":22,"name":"aileronD"},{"mesh":23,"name":"aileronG"},{"mesh":15,"name":"ailes"},{"mesh":47,"name":"antenne_droite"},{"mesh":4,"name":"axeA"},{"mesh":17,"name":"axeD"},{"mesh":24,"name":"axeflapsD"},{"mesh":27,"name":"axeflapsG"},{"mesh":29,"name":"axeG"},{"mesh":53,"name":"bol"},{"mesh":2,"name":"bouchon_reservoir"},{"mesh":3,"name":"cacheA"},{"mesh":35,"name":"cacheD"},{"mesh":36,"name":"cacheG"},{"mesh":18,"name":"commandeflapsD"},{"mesh":26,"name":"commandeflapsG"},{"mesh":33,"name":"direction"},{"mesh":42,"name":"echappe"},{"mesh":37,"name":"fuselage"},{"mesh":49,"name":"garmin"},{"mesh":51,"name":"helice"},{"mesh":16,"name":"lampe"},{"mesh":20,"name":"lampe_aile"},{"mesh":40,"name":"lampeD"},{"mesh":39,"name":"lampeG"},{"mesh":10,"name":"poignees_bas"},{"mesh":46,"name":"poignees_haut"},{"mesh":7,"name":"profondeur"},{"mesh":25,"name":"propblur"},{"mesh":32,"name":"propdisc"},{"mesh":50,"name":"protege"},{"mesh":30,"name":"protege.003"},{"mesh":52,"name":"roueA"},{"mesh":41,"name":"roueD"},{"mesh":0,"name":"roueG"},{"mesh":8,"name":"sonde_pitot"},{"mesh":38,"name":"strobe"},{"mesh":5,"name":"strobetrs"},{"mesh":11,"name":"toitverriere"},{"mesh":13,"name":"tourverriere"},{"mesh":21,"name":"trimprof"},{"mesh":48,"name":"tringleaileronD"},{"mesh":45,"name":"tringleaileronG"},{"mesh":19,"name":"tringleD"},{"mesh":14,"name":"tringleG"},{"mesh":34,"name":"troucacheA"},{"mesh":28,"name":"troucacheD"},{"mesh":12,"name":"troucacheG"},{"mesh":6,"name":"trous"},{"mesh":9,"name":"verriere"},{"mesh":31,"name":"verriereAR"},{"mesh":1,"name":"voletD"},{"mesh":43,"name":"voletG"},{"name":"SkywardCoordinateAlignment","matrix":[1,0,0,0,0,1,0,0,0,0,1,0,0,0,0,1],"children":[53,52,51,50,49,48,47,46,43,42,45,44,41,40,39,38,37,36,35,34,33,32,31,30,29,28,27,26,23,25,24,22,21,20,19,18,17,16,15,14,13,12,11,10,8,7,9,6,5,4,3,2,1,0]},{"name":"AirlineTailBranding","mesh":54}],"samplers":[{},{"magFilter":9729,"minFilter":9987,"wrapS":33071,"wrapT":33071}],"scene":0,"scenes":[{"name":"Scene","nodes":[54,55]}],"textures":[{"sampler":0,"source":0},{"sampler":0,"source":1},{"source":2,"sampler":1}],"extras":{"skyward":{"source":"https://github.com/Ysurac/FlightAirMap-3dmodels","commit":"0906d9ba1bdd906ce45807e45ed706c09912db19","changes":"Converted legacy glTF to glTF 2.0 with Cesium; rigid axis alignment, horizontal centering, and source transforms baked into positions/normals for correct Cesium bounds. Original shape, materials and paint retained. Added surface-following operator tail paint and unmodified identification-logo texture. Branding is illustrative, not a registration-specific livery.","license":"GPL-2.0","sourceFiles":["source/flightairmap/dr40/COPYING","source/flightairmap/dr40/dr40.blend"],"operator":"WZZ"}}}