{"accessors":[{"bufferView":4,"componentType":5123,"count":10386,"max":[2925],"min":[0],"type":"SCALAR"},{"bufferView":5,"componentType":5126,"count":2926,"max":[1.6065305471420288,7.583041191101074,15.40835189819336],"min":[-1.61681067943573,-1.451653242111206,-15.031137466430664],"type":"VEC3"},{"bufferView":6,"componentType":5126,"count":2926,"type":"VEC3"},{"bufferView":7,"componentType":5126,"count":2926,"max":[0.9768270254135132,0.9780461993068457],"min":[0.02403309941291809,0.06649202108383179],"type":"VEC2"},{"bufferView":8,"componentType":5123,"count":1020,"max":[343],"min":[0],"type":"SCALAR"},{"bufferView":9,"componentType":5126,"count":344,"max":[1.5102452039718628,2.1610260009765625,10.778657913208008],"min":[-1.5101782083511353,0.04721944406628609,-7.437019348144531],"type":"VEC3"},{"bufferView":10,"componentType":5126,"count":344,"type":"VEC3"},{"bufferView":11,"componentType":5126,"count":344,"max":[0.7232379913330078,0.8618099987506866],"min":[0.21644200384616852,0.19251799583435059],"type":"VEC2"},{"bufferView":12,"componentType":5123,"count":8364,"max":[1933],"min":[0],"type":"SCALAR"},{"bufferView":13,"componentType":5126,"count":1934,"max":[12.780003547668457,2.3743796348571777,11.53629207611084],"min":[-12.780003547668457,-1.8765085935592651,-3.4663619995117188],"type":"VEC3"},{"bufferView":14,"componentType":5126,"count":1934,"type":"VEC3"},{"bufferView":15,"componentType":5126,"count":1934,"max":[0.9693160057067871,0.9512442983686924],"min":[0.23119400441646576,0.03844797611236572],"type":"VEC2"},{"bufferView":16,"componentType":5121,"count":162,"max":[95],"min":[0],"type":"SCALAR"},{"bufferView":17,"componentType":5126,"count":96,"max":[-0.009141132235527039,7.558341026306152,-13.909157752990723],"min":[-0.0158170647919178,2.92940092086792,-15.342498779296875],"type":"VEC3"},{"bufferView":18,"componentType":5126,"count":96,"type":"VEC3"},{"bufferView":19,"componentType":5126,"count":96,"max":[0.20844100415706635,1],"min":[0,0.6033369898796082],"type":"VEC2"},{"bufferView":20,"componentType":5123,"count":37158,"max":[9052],"min":[0],"type":"SCALAR"},{"bufferView":21,"componentType":5126,"count":9053,"max":[12.17331600189209,2.042480707168579,13.793729782104492],"min":[-12.173312187194824,-1.7825373411178589,-15.40835189819336],"type":"VEC3"},{"bufferView":22,"componentType":5126,"count":9053,"type":"VEC3"},{"bufferView":23,"componentType":5126,"count":9053,"max":[0.9813240170478821,0.9525008983910084],"min":[0.02887820079922676,0.010586977005004883],"type":"VEC2"},{"bufferView":24,"componentType":5121,"count":66,"max":[23],"min":[0],"type":"SCALAR"},{"bufferView":25,"componentType":5126,"count":24,"max":[0.19578611850738525,1.8224607706069946,-15.40835189819336],"min":[-0.17250770330429077,1.4313147068023682,-15.40835189819336],"type":"VEC3"},{"bufferView":26,"componentType":5126,"count":24,"type":"VEC3"},{"bufferView":27,"componentType":5126,"count":24,"max":[0.22334399819374084,0.36111801862716675],"min":[0.22334399819374084,0.33440202474594116],"type":"VEC2"},{"bufferView":28,"componentType":5121,"count":315,"max":[187],"min":[0],"type":"SCALAR"},{"bufferView":29,"componentType":5126,"count":188,"max":[12.779497146606445,2.371915817260742,-2.392117738723755],"min":[-12.7796630859375,0.687885582447052,-3.6899666786193848],"type":"VEC3"},{"bufferView":30,"componentType":5126,"count":188,"type":"VEC3"},{"bufferView":31,"componentType":5126,"count":188,"max":[1,1],"min":[-2.98022992950564e-8,0],"type":"VEC2"},{"bufferView":32,"componentType":5121,"count":192,"max":[83],"min":[0],"type":"SCALAR"},{"bufferView":33,"componentType":5126,"count":84,"max":[4.684947490692139,-0.41381019353866577,5.109041690826416],"min":[-4.6849799156188965,-1.7448104619979858,4.825960636138916],"type":"VEC3"},{"bufferView":34,"componentType":5126,"count":84,"type":"VEC3"},{"bufferView":35,"componentType":5126,"count":84,"max":[1,1],"min":[0,0],"type":"VEC2"},{"bufferView":36,"componentType":5123,"count":1536,"max":[591],"min":[0],"type":"SCALAR"},{"bufferView":37,"componentType":5126,"count":592,"max":[1.480968952178955,1.5892584323883057,13.70022201538086],"min":[-1.4795918464660645,1.0750738382339478,-6.04981803894043],"type":"VEC3"},{"bufferView":38,"componentType":5126,"count":592,"type":"VEC3"},{"bufferView":39,"componentType":5126,"count":592,"max":[0,1],"min":[0,1],"type":"VEC2"},{"bufferView":40,"componentType":5121,"count":672,"max":[165],"min":[0],"type":"SCALAR"},{"bufferView":41,"componentType":5126,"count":166,"max":[0.05141705647110939,2.4681801795959473,9.266011238098145],"min":[-0.051456518471241,-1.1287803649902344,-0.6809893250465393],"type":"VEC3"},{"bufferView":42,"componentType":5126,"count":166,"type":"VEC3"},{"bufferView":43,"componentType":5126,"count":166,"max":[1,1],"min":[0,0],"type":"VEC2"},{"bufferView":44,"componentType":5126,"count":711,"type":"VEC3","min":[-0.7671497220993042,1.4343338310718536,-15.40835189819336],"max":[0.7671024556159973,7.583041191101074,-4.179550647735596]},{"bufferView":45,"componentType":5126,"count":711,"type":"VEC3"},{"bufferView":46,"componentType":5126,"count":246,"type":"VEC3","min":[-0.24632651601389635,2.172626186453486,-13.650753596506332],"max":[0.2124480361915771,4.5326138223188615,-11.290765960640956]},{"bufferView":47,"componentType":5126,"count":246,"type":"VEC3"},{"bufferView":48,"componentType":5126,"count":246,"type":"VEC2"}],"asset":{"generator":"Khronos Blender glTF 2.0 exporter","version":"2.0","copyright":"FlightGear model authors / FlightAirMap contributors; GPL-2.0. See source/flightairmap/e190/ for license and editable sources."},"bufferViews":[{"buffer":0,"byteLength":987323,"byteOffset":0},{"buffer":0,"byteLength":707930,"byteOffset":987323},{"buffer":0,"byteLength":435962,"byteOffset":1695253},{"buffer":0,"byteLength":435545,"byteOffset":2131215},{"buffer":0,"byteLength":20772,"byteOffset":2566760,"target":34963},{"buffer":0,"byteLength":35112,"byteOffset":2587532,"target":34962},{"buffer":0,"byteLength":35112,"byteOffset":2622644,"target":34962},{"buffer":0,"byteLength":23408,"byteOffset":2657756,"target":34962},{"buffer":0,"byteLength":2040,"byteOffset":2681164,"target":34963},{"buffer":0,"byteLength":4128,"byteOffset":2683204,"target":34962},{"buffer":0,"byteLength":4128,"byteOffset":2687332,"target":34962},{"buffer":0,"byteLength":2752,"byteOffset":2691460,"target":34962},{"buffer":0,"byteLength":16728,"byteOffset":2694212,"target":34963},{"buffer":0,"byteLength":23208,"byteOffset":2710940,"target":34962},{"buffer":0,"byteLength":23208,"byteOffset":2734148,"target":34962},{"buffer":0,"byteLength":15472,"byteOffset":2757356,"target":34962},{"buffer":0,"byteLength":162,"byteOffset":2772828,"target":34963},{"buffer":0,"byteLength":1152,"byteOffset":2772992,"target":34962},{"buffer":0,"byteLength":1152,"byteOffset":2774144,"target":34962},{"buffer":0,"byteLength":768,"byteOffset":2775296,"target":34962},{"buffer":0,"byteLength":74316,"byteOffset":2776064,"target":34963},{"buffer":0,"byteLength":108636,"byteOffset":2850380,"target":34962},{"buffer":0,"byteLength":108636,"byteOffset":2959016,"target":34962},{"buffer":0,"byteLength":72424,"byteOffset":3067652,"target":34962},{"buffer":0,"byteLength":66,"byteOffset":3140076,"target":34963},{"buffer":0,"byteLength":288,"byteOffset":3140144,"target":34962},{"buffer":0,"byteLength":288,"byteOffset":3140432,"target":34962},{"buffer":0,"byteLength":192,"byteOffset":3140720,"target":34962},{"buffer":0,"byteLength":315,"byteOffset":3140912,"target":34963},{"buffer":0,"byteLength":2256,"byteOffset":3141228,"target":34962},{"buffer":0,"byteLength":2256,"byteOffset":3143484,"target":34962},{"buffer":0,"byteLength":1504,"byteOffset":3145740,"target":34962},{"buffer":0,"byteLength":192,"byteOffset":3147244,"target":34963},{"buffer":0,"byteLength":1008,"byteOffset":3147436,"target":34962},{"buffer":0,"byteLength":1008,"byteOffset":3148444,"target":34962},{"buffer":0,"byteLength":672,"byteOffset":3149452,"target":34962},{"buffer":0,"byteLength":3072,"byteOffset":3150124,"target":34963},{"buffer":0,"byteLength":7104,"byteOffset":3153196,"target":34962},{"buffer":0,"byteLength":7104,"byteOffset":3160300,"target":34962},{"buffer":0,"byteLength":4736,"byteOffset":3167404,"target":34962},{"buffer":0,"byteLength":672,"byteOffset":3172140,"target":34963},{"buffer":0,"byteLength":1992,"byteOffset":3172812,"target":34962},{"buffer":0,"byteLength":1992,"byteOffset":3174804,"target":34962},{"buffer":0,"byteLength":1328,"byteOffset":3176796,"target":34962},{"buffer":1,"byteOffset":0,"byteLength":8532,"target":34962},{"buffer":1,"byteOffset":8532,"byteLength":8532,"target":34962},{"buffer":1,"byteOffset":17064,"byteLength":2952,"target":34962},{"buffer":1,"byteOffset":20016,"byteLength":2952,"target":34962},{"buffer":1,"byteOffset":22968,"byteLength":1968,"target":34962}],"buffers":[{"byteLength":3178124,"extras":{},"uri":"../e175-v1-0.bin"},{"uri":"e175-tail-v1.bin","byteLength":24936}],"images":[{"bufferView":0,"mimeType":"image/png","name":"door.png","extras":{}},{"bufferView":1,"mimeType":"image/png","name":"ERJ-wing.png","extras":{}},{"bufferView":2,"mimeType":"image/png","name":"blank.png","extras":{}},{"bufferView":3,"mimeType":"image/png","name":"blank175.png","extras":{}},{"uri":"../../../airlines/DAL.png"}],"materials":[{"alphaMode":"BLEND","name":"ac3dmat0","pbrMetallicRoughness":{"baseColorFactor":[0,0,0,0.40799999237060547],"metallicFactor":0}},{"name":"ac3dmat1","pbrMetallicRoughness":{"baseColorTexture":{"index":0},"metallicFactor":0}},{"name":"ac3dmat1.001","pbrMetallicRoughness":{"baseColorTexture":{"index":1},"metallicFactor":0}},{"name":"ac3dmat1.002","pbrMetallicRoughness":{"baseColorTexture":{"index":2},"metallicFactor":0}},{"name":"ac3dmat1.003","pbrMetallicRoughness":{"metallicFactor":0}},{"name":"ac3dmat1.004","pbrMetallicRoughness":{"baseColorFactor":[0,0,0,1],"metallicFactor":0}},{"name":"ac3dmat1.005","pbrMetallicRoughness":{"baseColorFactor":[0,0,0,1],"baseColorTexture":{"index":1},"metallicFactor":0}},{"name":"ac3dmat1.006","pbrMetallicRoughness":{"baseColorTexture":{"index":3},"metallicFactor":0}},{"name":"ac3dmat1.007","pbrMetallicRoughness":{"metallicFactor":0}},{"name":"ac3dmat3","pbrMetallicRoughness":{"baseColorFactor":[1,0,0,1],"metallicFactor":0}},{"name":"Operator tail paint","doubleSided":true,"pbrMetallicRoughness":{"baseColorFactor":[0.7176470588235294,0.10588235294117647,0.2235294117647059,1],"metallicFactor":0,"roughnessFactor":0.65}},{"name":"Operator logo identification","doubleSided":true,"alphaMode":"BLEND","pbrMetallicRoughness":{"baseColorTexture":{"index":4},"metallicFactor":0,"roughnessFactor":0.7},"emissiveFactor":[0.18,0.18,0.18],"emissiveTexture":{"index":4}}],"meshes":[{"name":"fuselage.mesh.001","primitives":[{"attributes":{"NORMAL":2,"POSITION":1,"TEXCOORD_0":3},"indices":0,"material":4},{"attributes":{"NORMAL":6,"POSITION":5,"TEXCOORD_0":7},"indices":4,"material":1},{"attributes":{"NORMAL":10,"POSITION":9,"TEXCOORD_0":11},"indices":8,"material":3},{"attributes":{"NORMAL":14,"POSITION":13,"TEXCOORD_0":15},"indices":12,"material":7},{"attributes":{"NORMAL":18,"POSITION":17,"TEXCOORD_0":19},"indices":16,"material":2},{"attributes":{"NORMAL":22,"POSITION":21,"TEXCOORD_0":23},"indices":20,"material":6},{"attributes":{"NORMAL":26,"POSITION":25,"TEXCOORD_0":27},"indices":24,"material":8},{"attributes":{"NORMAL":30,"POSITION":29,"TEXCOORD_0":31},"indices":28,"material":5},{"attributes":{"NORMAL":34,"POSITION":33,"TEXCOORD_0":35},"indices":32,"material":0},{"attributes":{"NORMAL":38,"POSITION":37,"TEXCOORD_0":39},"indices":36,"material":9}]},{"name":"Airline tail surface overlay","primitives":[{"attributes":{"POSITION":40,"NORMAL":41},"material":10},{"attributes":{"POSITION":42,"NORMAL":43,"TEXCOORD_0":44},"material":11}]}],"nodes":[{"mesh":0,"name":"fuselage.001"},{"name":"Sun"},{"name":"wing.l.1"},{"name":"wing.l.2"},{"name":"wing.l.3"},{"name":"wing.r.1"},{"name":"wing.r.2"},{"name":"wing.r.3"},{"name":"SkywardCoordinateAlignment","matrix":[1,0,0,0,0,1,0,0,0,0,1,0,0,0,0,1],"children":[1,4,7,0,2,5,6,3]},{"name":"AirlineTailBranding","mesh":1}],"samplers":[{},{"magFilter":9729,"minFilter":9987,"wrapS":33071,"wrapT":33071}],"scene":0,"scenes":[{"name":"Scene","nodes":[8,9]}],"textures":[{"sampler":0,"source":0},{"sampler":0,"source":1},{"sampler":0,"source":2},{"sampler":0,"source":3},{"source":4,"sampler":1}],"extras":{"skyward":{"source":"https://github.com/Ysurac/FlightAirMap-3dmodels","commit":"0906d9ba1bdd906ce45807e45ed706c09912db19","changes":"Converted legacy glTF to glTF 2.0 with Cesium; rigid axis alignment, horizontal centering, and source transforms baked into positions/normals for correct Cesium bounds. Original shape, materials and paint retained. Added surface-following operator tail paint and unmodified identification-logo texture. Branding is illustrative, not a registration-specific livery.","license":"GPL-2.0","sourceFiles":["source/flightairmap/e190/License.txt","source/flightairmap/e190/e170.blend","source/flightairmap/e190/e175.blend","source/flightairmap/e190/e175e2.blend","source/flightairmap/e190/e190.blend"],"operator":"DAL"}}}