{"accessors":[{"bufferView":3,"componentType":5123,"count":1032,"max":[265],"min":[0],"type":"SCALAR"},{"bufferView":4,"componentType":5126,"count":266,"max":[0.7997274994850159,2.060807943344116,3.3442840576171875],"min":[0.6677871346473694,0.8241667747497559,2.208462953567505],"type":"VEC3"},{"bufferView":5,"componentType":5126,"count":266,"type":"VEC3"},{"bufferView":6,"componentType":5126,"count":266,"type":"VEC4"},{"bufferView":7,"componentType":5126,"count":266,"max":[0.42716795206069946,0.8860922753810883],"min":[0.3355085849761963,0.7177543938159943],"type":"VEC2"},{"bufferView":8,"componentType":5121,"count":192,"max":[56],"min":[0],"type":"SCALAR"},{"bufferView":9,"componentType":5126,"count":57,"max":[1.463743805885315,3.1766304969787598,1.1068042516708374],"min":[0.6737785339355469,3.0282256603240967,0.7589399814605713],"type":"VEC3"},{"bufferView":10,"componentType":5126,"count":57,"type":"VEC3"},{"bufferView":11,"componentType":5126,"count":57,"type":"VEC4"},{"bufferView":12,"componentType":5126,"count":57,"max":[0.2707824110984802,0.39692866802215576],"min":[0.1084708571434021,0.05726802349090576],"type":"VEC2"},{"bufferView":13,"componentType":5123,"count":1164,"max":[421],"min":[0],"type":"SCALAR"},{"bufferView":14,"componentType":5126,"count":422,"max":[0.6737786531448364,3.273343563079834,1.004779577255249],"min":[0.121271513402462,2.916475534439087,0.6889775991439819],"type":"VEC3"},{"bufferView":15,"componentType":5126,"count":422,"type":"VEC3"},{"bufferView":16,"componentType":5126,"count":422,"type":"VEC4"},{"bufferView":17,"componentType":5126,"count":422,"max":[0.47793352603912354,0.8943696022033691],"min":[0.007058441638946533,0.03113698959350586],"type":"VEC2"},{"bufferView":18,"componentType":5121,"count":324,"max":[130],"min":[0],"type":"SCALAR"},{"bufferView":19,"componentType":5126,"count":131,"max":[-0.7777045965194702,1.2279807329177856,2.4738800525665283],"min":[-0.8191805481910706,1.173324704170227,2.3169400691986084],"type":"VEC3"},{"bufferView":20,"componentType":5126,"count":131,"type":"VEC3"},{"bufferView":21,"componentType":5126,"count":131,"type":"VEC4"},{"bufferView":22,"componentType":5126,"count":131,"max":[0.4982886016368866,0.9987645053770393],"min":[0.003555163275450468,0.5037747919559479],"type":"VEC2"},{"bufferView":23,"componentType":5121,"count":738,"max":[216],"min":[0],"type":"SCALAR"},{"bufferView":24,"componentType":5126,"count":217,"max":[0.1566556841135025,1.4543548822402954,4.094388961791992],"min":[-0.16285637021064758,0.7305877804756165,3.582672595977783],"type":"VEC3"},{"bufferView":25,"componentType":5126,"count":217,"type":"VEC3"},{"bufferView":26,"componentType":5126,"count":217,"type":"VEC4"},{"bufferView":27,"componentType":5126,"count":217,"max":[0.3083246946334839,0.9803885817527771],"min":[0.2753216028213501,0.8309935033321381],"type":"VEC2"},{"bufferView":28,"componentType":5121,"count":726,"max":[159],"min":[0],"type":"SCALAR"},{"bufferView":29,"componentType":5126,"count":160,"max":[0.737643837928772,1.5239368677139282,0.20592953264713287],"min":[-0.003098169108852744,0.6857427954673767,-1.349753975868225],"type":"VEC3"},{"bufferView":30,"componentType":5126,"count":160,"type":"VEC3"},{"bufferView":31,"componentType":5126,"count":160,"type":"VEC4"},{"bufferView":32,"componentType":5126,"count":160,"max":[0.43750327825546265,0.4198606610298157],"min":[0.3754929006099701,0.1893324851989746],"type":"VEC2"},{"bufferView":33,"componentType":5121,"count":237,"max":[64],"min":[0],"type":"SCALAR"},{"bufferView":34,"componentType":5126,"count":65,"max":[0.5879971385002136,2.514047861099243,1.2855805158615112],"min":[-0.5941950082778931,2.1158509254455566,1.2587789297103882],"type":"VEC3"},{"bufferView":35,"componentType":5126,"count":65,"type":"VEC3"},{"bufferView":36,"componentType":5126,"count":65,"type":"VEC4"},{"bufferView":37,"componentType":5126,"count":65,"max":[0,1],"min":[0,1],"type":"VEC2"},{"bufferView":38,"componentType":5121,"count":192,"max":[159],"min":[0],"type":"SCALAR"},{"bufferView":39,"componentType":5126,"count":160,"max":[0.8213268518447876,1.5583667755126953,-0.03681548312306404],"min":[-0.8275233507156372,1.491236686706543,-0.10394617915153503],"type":"VEC3"},{"bufferView":40,"componentType":5126,"count":160,"type":"VEC3"},{"bufferView":41,"componentType":5126,"count":160,"type":"VEC4"},{"bufferView":42,"componentType":5126,"count":160,"max":[1,1],"min":[0,0],"type":"VEC2"},{"bufferView":43,"componentType":5121,"count":606,"max":[172],"min":[0],"type":"SCALAR"},{"bufferView":44,"componentType":5126,"count":173,"max":[-0.2689879238605499,0.5864695906639099,3.224078416824341],"min":[-0.36200693249702454,0.523823618888855,3.0945043563842773],"type":"VEC3"},{"bufferView":45,"componentType":5126,"count":173,"type":"VEC3"},{"bufferView":46,"componentType":5126,"count":173,"type":"VEC4"},{"bufferView":47,"componentType":5126,"count":173,"max":[0.9549769163131714,0.9421288967132568],"min":[0.5475223660469055,0.5117945075035095],"type":"VEC2"},{"bufferView":48,"componentType":5121,"count":1062,"max":[247],"min":[0],"type":"SCALAR"},{"bufferView":49,"componentType":5126,"count":248,"max":[0.09819014370441437,3.10736346244812,5.9175801277160645],"min":[-0.3232448399066925,3.064171552658081,4.313572883605957],"type":"VEC3"},{"bufferView":50,"componentType":5126,"count":248,"type":"VEC3"},{"bufferView":51,"componentType":5126,"count":248,"type":"VEC4"},{"bufferView":52,"componentType":5126,"count":248,"max":[0.9965113997459412,0.392803430557251],"min":[0.6704031229019165,0.06505441665649414],"type":"VEC2"},{"bufferView":53,"componentType":5121,"count":384,"max":[105],"min":[0],"type":"SCALAR"},{"bufferView":54,"componentType":5126,"count":106,"max":[0.17192545533180237,3.100757598876953,1.0832346677780151],"min":[0.10952948033809662,2.7227344512939453,0.9727705717086792],"type":"VEC3"},{"bufferView":55,"componentType":5126,"count":106,"type":"VEC3"},{"bufferView":56,"componentType":5126,"count":106,"type":"VEC4"},{"bufferView":57,"componentType":5126,"count":106,"max":[0.9927685260772705,0.8381960988044739],"min":[0.4948171377182007,0.7137885391712189],"type":"VEC2"},{"bufferView":58,"componentType":5121,"count":72,"max":[47],"min":[0],"type":"SCALAR"},{"bufferView":59,"componentType":5126,"count":48,"max":[0.016844503581523895,2.8652844429016113,0.9816145300865173],"min":[-0.0168454572558403,2.808126449584961,0.7565624713897705],"type":"VEC3"},{"bufferView":60,"componentType":5126,"count":48,"type":"VEC3"},{"bufferView":61,"componentType":5126,"count":48,"type":"VEC4"},{"bufferView":62,"componentType":5126,"count":48,"max":[0,1],"min":[0,1],"type":"VEC2"},{"bufferView":63,"componentType":5121,"count":510,"max":[147],"min":[0],"type":"SCALAR"},{"bufferView":64,"componentType":5126,"count":148,"max":[0.18204869329929352,1.4159258604049683,4.298360824584961],"min":[-0.1882493495941162,0.834263801574707,3.7390687465667725],"type":"VEC3"},{"bufferView":65,"componentType":5126,"count":148,"type":"VEC3"},{"bufferView":66,"componentType":5126,"count":148,"type":"VEC4"},{"bufferView":67,"componentType":5126,"count":148,"max":[0.21978414058685303,0.9819545447826385],"min":[0.17487379908561707,0.895605206489563],"type":"VEC2"},{"bufferView":68,"componentType":5121,"count":1242,"max":[241],"min":[0],"type":"SCALAR"},{"bufferView":69,"componentType":5126,"count":242,"max":[0.40615978837013245,1.4908268451690674,4.428640842437744],"min":[-0.4123663306236267,0.8541218042373657,3.793626546859741],"type":"VEC3"},{"bufferView":70,"componentType":5126,"count":242,"type":"VEC3"},{"bufferView":71,"componentType":5126,"count":242,"type":"VEC4"},{"bufferView":72,"componentType":5126,"count":242,"max":[0.17534539103507996,0.9844720363616943],"min":[0.12135696411132812,0.8767828941345215],"type":"VEC2"},{"bufferView":73,"componentType":5121,"count":1062,"max":[247],"min":[0],"type":"SCALAR"},{"bufferView":74,"componentType":5126,"count":248,"max":[-3.444727659225464,3.10736346244812,0.9670361280441284],"min":[-5.04873514175415,3.064171552658081,0.5456011295318604],"type":"VEC3"},{"bufferView":75,"componentType":5126,"count":248,"type":"VEC3"},{"bufferView":76,"componentType":5126,"count":248,"type":"VEC4"},{"bufferView":77,"componentType":5126,"count":248,"max":[0.9965113997459412,0.392803430557251],"min":[0.6704031229019165,0.06505441665649414],"type":"VEC2"},{"bufferView":78,"componentType":5121,"count":6,"max":[3],"min":[0],"type":"SCALAR"},{"bufferView":79,"componentType":5126,"count":4,"max":[-0.6664445400238037,3.106841564178467,0.8037741184234619],"min":[-1.4600015878677368,3.0519416332244873,0.5889747142791748],"type":"VEC3"},{"bufferView":80,"componentType":5126,"count":4,"type":"VEC3"},{"bufferView":81,"componentType":5126,"count":4,"type":"VEC4"},{"bufferView":82,"componentType":5126,"count":4,"max":[1,1],"min":[0,0],"type":"VEC2"},{"bufferView":83,"componentType":5121,"count":120,"max":[119],"min":[0],"type":"SCALAR"},{"bufferView":84,"componentType":5126,"count":120,"max":[1.0328474044799805,0.434680700302124,3.464877128601074],"min":[-1.0484089851379395,-0.0637243390083313,2.800894021987915],"type":"VEC3"},{"bufferView":85,"componentType":5126,"count":120,"type":"VEC3"},{"bufferView":86,"componentType":5126,"count":120,"type":"VEC4"},{"bufferView":87,"componentType":5126,"count":120,"max":[0.7574447393417358,0.3242458701133728],"min":[0.6976150870323181,0.23446452617645264],"type":"VEC2"},{"bufferView":88,"componentType":5121,"count":726,"max":[159],"min":[0],"type":"SCALAR"},{"bufferView":89,"componentType":5126,"count":160,"max":[-0.003097601467743516,1.5239368677139282,0.20592881739139557],"min":[-0.7438403964042664,0.6857427954673767,-1.349753975868225],"type":"VEC3"},{"bufferView":90,"componentType":5126,"count":160,"type":"VEC3"},{"bufferView":91,"componentType":5126,"count":160,"type":"VEC4"},{"bufferView":92,"componentType":5126,"count":160,"max":[0.08055487275123596,0.4198240637779236],"min":[0.01852250099182129,0.18923240900039673],"type":"VEC2"},{"bufferView":93,"componentType":5121,"count":384,"max":[105],"min":[0],"type":"SCALAR"},{"bufferView":94,"componentType":5126,"count":106,"max":[-0.10953043401241302,3.100757598876953,0.7649204134941101],"min":[-0.17192640900611877,2.7227344512939453,0.654456377029419],"type":"VEC3"},{"bufferView":95,"componentType":5126,"count":106,"type":"VEC3"},{"bufferView":96,"componentType":5126,"count":106,"type":"VEC4"},{"bufferView":97,"componentType":5126,"count":106,"max":[0.9927738308906555,0.5507779717445374],"min":[0.49482256174087524,0.42637044191360474],"type":"VEC2"},{"bufferView":98,"componentType":5123,"count":2085,"max":[928],"min":[0],"type":"SCALAR"},{"bufferView":99,"componentType":5126,"count":929,"max":[-0.7115032076835632,2.0614700317382812,2.223222017288208],"min":[-0.8114059567451477,0.7572528123855591,1.161810040473938],"type":"VEC3"},{"bufferView":100,"componentType":5126,"count":929,"type":"VEC3"},{"bufferView":101,"componentType":5126,"count":929,"type":"VEC4"},{"bufferView":102,"componentType":5126,"count":929,"max":[0.12063094973564148,0.7205839455127716],"min":[0.023899585008621216,0.5632070899009705],"type":"VEC2"},{"bufferView":103,"componentType":5121,"count":6,"max":[3],"min":[0],"type":"SCALAR"},{"bufferView":104,"componentType":5126,"count":4,"max":[-0.06507183611392975,3.106841564178467,2.3288466930389404],"min":[-0.27987125515937805,3.051941394805908,1.5352896451950073],"type":"VEC3"},{"bufferView":105,"componentType":5126,"count":4,"type":"VEC3"},{"bufferView":106,"componentType":5126,"count":4,"type":"VEC4"},{"bufferView":107,"componentType":5126,"count":4,"max":[1,1],"min":[0,0],"type":"VEC2"},{"bufferView":108,"componentType":5121,"count":570,"max":[155],"min":[0],"type":"SCALAR"},{"bufferView":109,"componentType":5126,"count":156,"max":[0.04080366715788841,1.131369709968567,4.077846527099609],"min":[-0.05221634358167648,1.0454246997833252,4.007978439331055],"type":"VEC3"},{"bufferView":110,"componentType":5126,"count":156,"type":"VEC3"},{"bufferView":111,"componentType":5126,"count":156,"type":"VEC4"},{"bufferView":112,"componentType":5126,"count":156,"max":[0.9567121267318726,0.9407228827476501],"min":[0.546217143535614,0.516653835773468],"type":"VEC2"},{"bufferView":113,"componentType":5123,"count":1164,"max":[358],"min":[0],"type":"SCALAR"},{"bufferView":114,"componentType":5126,"count":359,"max":[0.9470083713531494,0.5638717412948608,2.965566873550415],"min":[-0.9462959170341492,0.28540170192718506,-0.059941451996564865],"type":"VEC3"},{"bufferView":115,"componentType":5126,"count":359,"type":"VEC3"},{"bufferView":116,"componentType":5126,"count":359,"type":"VEC4"},{"bufferView":117,"componentType":5126,"count":359,"max":[0.9868907332420349,0.5633883774280548],"min":[0.707733690738678,0.5120006799697876],"type":"VEC2"},{"bufferView":118,"componentType":5123,"count":864,"max":[375],"min":[0],"type":"SCALAR"},{"bufferView":119,"componentType":5126,"count":376,"max":[0.1513815075159073,3.332256555557251,1.04505455493927],"min":[-0.15036146342754364,2.593843460083008,0.6926364898681641],"type":"VEC3"},{"bufferView":120,"componentType":5126,"count":376,"type":"VEC3"},{"bufferView":121,"componentType":5126,"count":376,"type":"VEC4"},{"bufferView":122,"componentType":5126,"count":376,"max":[0,1],"min":[0,1],"type":"VEC2"},{"bufferView":123,"componentType":5123,"count":1287,"max":[896],"min":[0],"type":"SCALAR"},{"bufferView":124,"componentType":5126,"count":897,"max":[0.7930788397789001,1.946725845336914,2.168320655822754],"min":[0.7397667169570923,1.349157691001892,1.4255295991897583],"type":"VEC3"},{"bufferView":125,"componentType":5126,"count":897,"type":"VEC3"},{"bufferView":126,"componentType":5126,"count":897,"type":"VEC4"},{"bufferView":127,"componentType":5126,"count":897,"max":[1,1],"min":[0,0],"type":"VEC2"},{"bufferView":128,"componentType":5123,"count":1164,"max":[417],"min":[0],"type":"SCALAR"},{"bufferView":129,"componentType":5126,"count":418,"max":[0.1798674315214157,3.275294542312622,1.5426247119903564],"min":[-0.13539157807826996,2.918426513671875,0.9901164770126343],"type":"VEC3"},{"bufferView":130,"componentType":5126,"count":418,"type":"VEC3"},{"bufferView":131,"componentType":5126,"count":418,"type":"VEC4"},{"bufferView":132,"componentType":5126,"count":418,"max":[0.47793352603912354,0.8943696022033691],"min":[0.007058441638946533,0.03113698959350586],"type":"VEC2"},{"bufferView":133,"componentType":5121,"count":96,"max":[37],"min":[0],"type":"SCALAR"},{"bufferView":134,"componentType":5126,"count":38,"max":[0.23794829845428467,3.108499526977539,-0.5948975682258606],"min":[-0.09746924042701721,3.0578906536102295,-1.607521891593933],"type":"VEC3"},{"bufferView":135,"componentType":5126,"count":38,"type":"VEC3"},{"bufferView":136,"componentType":5126,"count":38,"type":"VEC4"},{"bufferView":137,"componentType":5126,"count":38,"max":[0.4750573933124542,0.3926081657409668],"min":[0.2688201069831848,0.06600189208984375],"type":"VEC2"},{"bufferView":138,"componentType":5121,"count":192,"max":[56],"min":[0],"type":"SCALAR"},{"bufferView":139,"componentType":5126,"count":57,"max":[0.23794829845428467,3.17769455909729,0.19506745040416718],"min":[-0.10990598797798157,3.0292885303497314,-0.5948976874351501],"type":"VEC3"},{"bufferView":140,"componentType":5126,"count":57,"type":"VEC3"},{"bufferView":141,"componentType":5126,"count":57,"type":"VEC4"},{"bufferView":142,"componentType":5126,"count":57,"max":[0.2707824110984802,0.39692866802215576],"min":[0.1084708571434021,0.05726802349090576],"type":"VEC2"},{"bufferView":143,"componentType":5121,"count":288,"max":[199],"min":[0],"type":"SCALAR"},{"bufferView":144,"componentType":5126,"count":200,"max":[0.9025716781616211,0.5795426964759827,2.8840129375457764],"min":[-0.9131718873977661,0.3501717448234558,0.219935804605484],"type":"VEC3"},{"bufferView":145,"componentType":5126,"count":200,"type":"VEC3"},{"bufferView":146,"componentType":5126,"count":200,"type":"VEC4"},{"bufferView":147,"componentType":5126,"count":200,"max":[0.9967041015625,0.6716560423374176],"min":[0.7100577354431152,0.6222226619720459],"type":"VEC2"},{"bufferView":148,"componentType":5123,"count":2550,"max":[1057],"min":[0],"type":"SCALAR"},{"bufferView":149,"componentType":5126,"count":1058,"max":[0.673794150352478,2.4080088138580322,-0.5598795413970947],"min":[-0.6799899935722351,2.0671818256378174,-1.2626951932907104],"type":"VEC3"},{"bufferView":150,"componentType":5126,"count":1058,"type":"VEC3"},{"bufferView":151,"componentType":5126,"count":1058,"type":"VEC4"},{"bufferView":152,"componentType":5126,"count":1058,"max":[0.49446552991867065,0.49162036180496216],"min":[0.002745389938354492,0.004277527332305908],"type":"VEC2"},{"bufferView":153,"componentType":5123,"count":1749,"max":[1236],"min":[0],"type":"SCALAR"},{"bufferView":154,"componentType":5126,"count":1237,"max":[0.7998015284538269,1.9557218551635742,3.111146926879883],"min":[0.7267905473709106,1.2219007015228271,2.293027639389038],"type":"VEC3"},{"bufferView":155,"componentType":5126,"count":1237,"type":"VEC3"},{"bufferView":156,"componentType":5126,"count":1237,"type":"VEC4"},{"bufferView":157,"componentType":5126,"count":1237,"max":[1.000025749206543,1.0000045472024794],"min":[-0.000009282981409342028,-0.0000027418136596679688],"type":"VEC2"},{"bufferView":158,"componentType":5123,"count":780,"max":[287],"min":[0],"type":"SCALAR"},{"bufferView":159,"componentType":5126,"count":288,"max":[0.940096378326416,0.5459397435188293,2.957982063293457],"min":[-0.9462959170341492,0.31571072340011597,0.24514071643352509],"type":"VEC3"},{"bufferView":160,"componentType":5126,"count":288,"type":"VEC3"},{"bufferView":161,"componentType":5126,"count":288,"type":"VEC4"},{"bufferView":162,"componentType":5126,"count":288,"max":[0.9868868589401245,0.6150191426277161],"min":[0.7068892121315002,0.5671814978122711],"type":"VEC2"},{"bufferView":163,"componentType":5121,"count":366,"max":[86],"min":[0],"type":"SCALAR"},{"bufferView":164,"componentType":5126,"count":87,"max":[0.3855092525482178,3.350783109664917,1.3069002628326416],"min":[-0.3910227417945862,3.137960195541382,0.5333223342895508],"type":"VEC3"},{"bufferView":165,"componentType":5126,"count":87,"type":"VEC3"},{"bufferView":166,"componentType":5126,"count":87,"type":"VEC4"},{"bufferView":167,"componentType":5126,"count":87,"max":[0.8580735325813293,0.9721893668174744],"min":[0.8010898232460022,0.8582218587398529],"type":"VEC2"},{"bufferView":168,"componentType":5121,"count":96,"max":[37],"min":[0],"type":"SCALAR"},{"bufferView":169,"componentType":5126,"count":38,"max":[2.4763669967651367,3.108426570892334,1.1068042516708374],"min":[1.4637436866760254,3.0578174591064453,0.7713857293128967],"type":"VEC3"},{"bufferView":170,"componentType":5126,"count":38,"type":"VEC3"},{"bufferView":171,"componentType":5126,"count":38,"type":"VEC4"},{"bufferView":172,"componentType":5126,"count":38,"max":[0.4750573933124542,0.3926081657409668],"min":[0.2688201069831848,0.06600189208984375],"type":"VEC2"},{"bufferView":173,"componentType":5121,"count":96,"max":[35],"min":[0],"type":"SCALAR"},{"bufferView":174,"componentType":5126,"count":36,"max":[0.09773579239845276,3.107710599899292,4.313572883605957],"min":[-0.23773975670337677,3.061145544052124,3.345212697982788],"type":"VEC3"},{"bufferView":175,"componentType":5126,"count":36,"type":"VEC3"},{"bufferView":176,"componentType":5126,"count":36,"type":"VEC4"},{"bufferView":177,"componentType":5126,"count":36,"max":[0.6709256172180176,0.3926922082901001],"min":[0.4743652641773224,0.06559395790100098],"type":"VEC2"},{"bufferView":178,"componentType":5121,"count":354,"max":[75],"min":[0],"type":"SCALAR"},{"bufferView":179,"componentType":5126,"count":76,"max":[0.1566556841135025,1.4543548822402954,4.094388961791992],"min":[-0.16285637021064758,0.7305877804756165,3.582672595977783],"type":"VEC3"},{"bufferView":180,"componentType":5126,"count":76,"type":"VEC3"},{"bufferView":181,"componentType":5126,"count":76,"type":"VEC4"},{"bufferView":182,"componentType":5126,"count":76,"max":[0.3082803785800934,0.9800468683242798],"min":[0.2755182683467865,0.8310676217079163],"type":"VEC2"},{"bufferView":183,"componentType":5121,"count":1062,"max":[247],"min":[0],"type":"SCALAR"},{"bufferView":184,"componentType":5126,"count":248,"max":[0.3232358694076538,3.1074366569519043,-2.5758817195892334],"min":[-0.09819909930229187,3.064244508743286,-4.1798882484436035],"type":"VEC3"},{"bufferView":185,"componentType":5126,"count":248,"type":"VEC3"},{"bufferView":186,"componentType":5126,"count":248,"type":"VEC4"},{"bufferView":187,"componentType":5126,"count":248,"max":[0.9965113997459412,0.392803430557251],"min":[0.6704031229019165,0.06505441665649414],"type":"VEC2"},{"bufferView":188,"componentType":5123,"count":1962,"max":[701],"min":[0],"type":"SCALAR"},{"bufferView":189,"componentType":5126,"count":702,"max":[0.7522737979888916,2.6013870239257812,0.5090675950050354],"min":[-0.7590653896331787,1.640109896659851,-0.4977620542049408],"type":"VEC3"},{"bufferView":190,"componentType":5126,"count":702,"type":"VEC3"},{"bufferView":191,"componentType":5126,"count":702,"type":"VEC4"},{"bufferView":192,"componentType":5126,"count":702,"max":[0.3666464686393738,0.46505051851272583],"min":[0.08978903293609619,0.31544965505599976],"type":"VEC2"},{"bufferView":193,"componentType":5121,"count":96,"max":[37],"min":[0],"type":"SCALAR"},{"bufferView":194,"componentType":5126,"count":38,"max":[-1.4637435674667358,3.108426570892334,0.9663072824478149],"min":[-2.476367950439453,3.0578174591064453,0.6308897137641907],"type":"VEC3"},{"bufferView":195,"componentType":5126,"count":38,"type":"VEC3"},{"bufferView":196,"componentType":5126,"count":38,"type":"VEC4"},{"bufferView":197,"componentType":5126,"count":38,"max":[0.4750573933124542,0.3926081657409668],"min":[0.2688201069831848,0.06600189208984375],"type":"VEC2"},{"bufferView":198,"componentType":5121,"count":165,"max":[106],"min":[0],"type":"SCALAR"},{"bufferView":199,"componentType":5126,"count":107,"max":[-0.11091896891593933,1.265928864479065,-0.5644533038139343],"min":[-0.41454094648361206,0.9417387843132019,-1.046573281288147],"type":"VEC3"},{"bufferView":200,"componentType":5126,"count":107,"type":"VEC3"},{"bufferView":201,"componentType":5126,"count":107,"type":"VEC4"},{"bufferView":202,"componentType":5126,"count":107,"max":[1.000004768371582,1.000002083487061],"min":[-0.0000014118879789748462,-4.76837158203125e-7],"type":"VEC2"},{"bufferView":203,"componentType":5121,"count":324,"max":[121],"min":[0],"type":"SCALAR"},{"bufferView":204,"componentType":5126,"count":122,"max":[0.8095696568489075,1.2279807329177856,2.4738807678222656],"min":[0.7680935859680176,1.173324704170227,2.3169407844543457],"type":"VEC3"},{"bufferView":205,"componentType":5126,"count":122,"type":"VEC3"},{"bufferView":206,"componentType":5126,"count":122,"type":"VEC4"},{"bufferView":207,"componentType":5126,"count":122,"max":[0.49311941862106323,0.9930961905047297],"min":[0.008697818964719772,0.5047698318958282],"type":"VEC2"},{"bufferView":208,"componentType":5121,"count":192,"max":[65],"min":[0],"type":"SCALAR"},{"bufferView":209,"componentType":5126,"count":66,"max":[0.031039463356137276,2.7084479331970215,-4.338107585906982],"min":[-0.1413360983133316,1.565233826637268,-5.4813232421875],"type":"VEC3"},{"bufferView":210,"componentType":5126,"count":66,"type":"VEC3"},{"bufferView":211,"componentType":5126,"count":66,"type":"VEC4"},{"bufferView":212,"componentType":5126,"count":66,"max":[0,1],"min":[0,1],"type":"VEC2"},{"bufferView":213,"componentType":5123,"count":480,"max":[279],"min":[0],"type":"SCALAR"},{"bufferView":214,"componentType":5126,"count":280,"max":[-0.06744155287742615,2.653265953063965,-4.429172039031982],"min":[-0.1338910609483719,1.6537907123565674,-5.428647041320801],"type":"VEC3"},{"bufferView":215,"componentType":5126,"count":280,"type":"VEC3"},{"bufferView":216,"componentType":5126,"count":280,"type":"VEC4"},{"bufferView":217,"componentType":5126,"count":280,"max":[0,1],"min":[0,1],"type":"VEC2"},{"bufferView":218,"componentType":5123,"count":582,"max":[441],"min":[0],"type":"SCALAR"},{"bufferView":219,"componentType":5126,"count":442,"max":[0.7740712761878967,1.9364128112792969,4.017580509185791],"min":[-0.7802689671516418,0.7330706715583801,0.6511487364768982],"type":"VEC3"},{"bufferView":220,"componentType":5126,"count":442,"type":"VEC3"},{"bufferView":221,"componentType":5126,"count":442,"type":"VEC4"},{"bufferView":222,"componentType":5126,"count":442,"max":[1,1],"min":[0,0],"type":"VEC2"},{"bufferView":223,"componentType":5121,"count":216,"max":[74],"min":[0],"type":"SCALAR"},{"bufferView":224,"componentType":5126,"count":75,"max":[-0.2597649097442627,0.6433038115501404,3.3339333534240723],"min":[-0.37125200033187866,0.522634744644165,3.0759453773498535],"type":"VEC3"},{"bufferView":225,"componentType":5126,"count":75,"type":"VEC3"},{"bufferView":226,"componentType":5126,"count":75,"type":"VEC4"},{"bufferView":227,"componentType":5126,"count":75,"max":[0.5248505473136902,0.8859158754348755],"min":[0.5169480443000793,0.8490803241729736],"type":"VEC2"},{"bufferView":228,"componentType":5121,"count":753,"max":[150],"min":[0],"type":"SCALAR"},{"bufferView":229,"componentType":5126,"count":151,"max":[-0.003097601467743516,1.5239368677139282,0.20592881739139557],"min":[-0.7438403964042664,0.6857427954673767,-1.349753975868225],"type":"VEC3"},{"bufferView":230,"componentType":5126,"count":151,"type":"VEC3"},{"bufferView":231,"componentType":5126,"count":151,"type":"VEC4"},{"bufferView":232,"componentType":5126,"count":151,"max":[0.08066031336784363,0.4202077388763428],"min":[0.018358170986175537,0.1885964274406433],"type":"VEC2"},{"bufferView":233,"componentType":5123,"count":30174,"max":[8590],"min":[0],"type":"SCALAR"},{"bufferView":234,"componentType":5126,"count":8591,"max":[1.3664826154708862,3.904048204421997,4.079221725463867],"min":[-1.3714277744293213,0.42668771743774414,-5.9175801277160645],"type":"VEC3"},{"bufferView":235,"componentType":5126,"count":8591,"type":"VEC3"},{"bufferView":236,"componentType":5126,"count":8591,"type":"VEC4"},{"bufferView":237,"componentType":5126,"count":8591,"max":[0.7484579682350159,0.9992494285106659],"min":[0.004825174808502197,0.0087890625],"type":"VEC2"},{"bufferView":238,"componentType":5121,"count":192,"max":[56],"min":[0],"type":"SCALAR"},{"bufferView":239,"componentType":5126,"count":57,"max":[0.10990503430366516,3.1781904697418213,2.3325886726379395],"min":[-0.23795725405216217,3.029785633087158,1.542623519897461],"type":"VEC3"},{"bufferView":240,"componentType":5126,"count":57,"type":"VEC3"},{"bufferView":241,"componentType":5126,"count":57,"type":"VEC4"},{"bufferView":242,"componentType":5126,"count":57,"max":[0.2707824110984802,0.39692866802215576],"min":[0.1084708571434021,0.05726802349090576],"type":"VEC2"},{"bufferView":243,"componentType":5121,"count":6,"max":[3],"min":[0],"type":"SCALAR"},{"bufferView":244,"componentType":5126,"count":4,"max":[0.27987027168273926,3.106841564178467,0.20240139961242676],"min":[0.06507086753845215,3.0519416332244873,-0.5911557674407959],"type":"VEC3"},{"bufferView":245,"componentType":5126,"count":4,"type":"VEC3"},{"bufferView":246,"componentType":5126,"count":4,"type":"VEC4"},{"bufferView":247,"componentType":5126,"count":4,"max":[1,1],"min":[0,0],"type":"VEC2"},{"bufferView":248,"componentType":5123,"count":1683,"max":[1158],"min":[0],"type":"SCALAR"},{"bufferView":249,"componentType":5126,"count":1159,"max":[0.738466203212738,2.2048180103302,4.0568928718566895],"min":[-0.7446660399436951,1.1248328685760498,2.378178358078003],"type":"VEC3"},{"bufferView":250,"componentType":5126,"count":1159,"type":"VEC3"},{"bufferView":251,"componentType":5126,"count":1159,"type":"VEC4"},{"bufferView":252,"componentType":5126,"count":1159,"max":[1,1],"min":[0,0],"type":"VEC2"},{"bufferView":253,"componentType":5121,"count":384,"max":[105],"min":[0],"type":"SCALAR"},{"bufferView":254,"componentType":5126,"count":106,"max":[-0.10392554849386215,3.100757598876953,1.040771484375],"min":[-0.21438957750797272,2.7227344512939453,0.9783754348754883],"type":"VEC3"},{"bufferView":255,"componentType":5126,"count":106,"type":"VEC3"},{"bufferView":256,"componentType":5126,"count":106,"type":"VEC4"},{"bufferView":257,"componentType":5126,"count":106,"max":[0.9941411018371582,0.688612699508667],"min":[0.4971395432949066,0.5731299221515656],"type":"VEC2"},{"bufferView":258,"componentType":5121,"count":366,"max":[213],"min":[0],"type":"SCALAR"},{"bufferView":259,"componentType":5126,"count":214,"max":[0.1370936781167984,1.220937728881836,4.241043567657471],"min":[-0.13930842280387878,1.0863226652145386,4.060345649719238],"type":"VEC3"},{"bufferView":260,"componentType":5126,"count":214,"type":"VEC3"},{"bufferView":261,"componentType":5126,"count":214,"type":"VEC4"},{"bufferView":262,"componentType":5126,"count":214,"max":[1,1],"min":[0,0],"type":"VEC2"},{"bufferView":263,"componentType":5121,"count":216,"max":[74],"min":[0],"type":"SCALAR"},{"bufferView":264,"componentType":5126,"count":75,"max":[0.36501020193099976,0.6367307901382446,3.32468581199646],"min":[0.2536780834197998,0.49308472871780396,3.0603137016296387],"type":"VEC3"},{"bufferView":265,"componentType":5126,"count":75,"type":"VEC3"},{"bufferView":266,"componentType":5126,"count":75,"type":"VEC4"},{"bufferView":267,"componentType":5126,"count":75,"max":[0.4774100184440613,0.8862327039241791],"min":[0.46934956312179565,0.8476869463920593],"type":"VEC2"},{"bufferView":268,"componentType":5121,"count":96,"max":[35],"min":[0],"type":"SCALAR"},{"bufferView":269,"componentType":5126,"count":36,"max":[0.23773080110549927,3.1077826023101807,-1.607521653175354],"min":[-0.09774474799633026,3.061218500137329,-2.5758819580078125],"type":"VEC3"},{"bufferView":270,"componentType":5126,"count":36,"type":"VEC3"},{"bufferView":271,"componentType":5126,"count":36,"type":"VEC4"},{"bufferView":272,"componentType":5126,"count":36,"max":[0.6709256172180176,0.3926922082901001],"min":[0.4743652641773224,0.06559395790100098],"type":"VEC2"},{"bufferView":273,"componentType":5121,"count":606,"max":[174],"min":[0],"type":"SCALAR"},{"bufferView":274,"componentType":5126,"count":175,"max":[0.3530551791191101,0.5584605932235718,3.2162106037139893],"min":[0.2600361704826355,0.49581462144851685,3.086636543273926],"type":"VEC3"},{"bufferView":275,"componentType":5126,"count":175,"type":"VEC3"},{"bufferView":276,"componentType":5126,"count":175,"type":"VEC4"},{"bufferView":277,"componentType":5126,"count":175,"max":[0.9524847269058228,0.9511267840862274],"min":[0.5469310283660889,0.5259282290935516],"type":"VEC2"},{"bufferView":278,"componentType":5123,"count":9888,"max":[2814],"min":[0],"type":"SCALAR"},{"bufferView":279,"componentType":5126,"count":2815,"max":[1.0570725202560425,0.518460750579834,3.155635118484497],"min":[-1.067687749862671,-0.07677632570266724,-1.294838547706604],"type":"VEC3"},{"bufferView":280,"componentType":5126,"count":2815,"type":"VEC3"},{"bufferView":281,"componentType":5126,"count":2815,"type":"VEC4"},{"bufferView":282,"componentType":5126,"count":2815,"max":[0.9873485565185547,0.23378479480743408],"min":[0.7173490524291992,0.16156160831451416],"type":"VEC2"},{"bufferView":283,"componentType":5123,"count":774,"max":[279],"min":[0],"type":"SCALAR"},{"bufferView":284,"componentType":5126,"count":280,"max":[0.6761531233787537,2.4117679595947266,0.16924260556697845],"min":[-0.6712314486503601,2.0389599800109863,-1.2133762836456299],"type":"VEC3"},{"bufferView":285,"componentType":5126,"count":280,"type":"VEC3"},{"bufferView":286,"componentType":5126,"count":280,"type":"VEC4"},{"bufferView":287,"componentType":5126,"count":280,"max":[0.35554224252700806,0.12728101015090942],"min":[0.09750676155090332,0.0073691606521606445],"type":"VEC2"},{"bufferView":288,"componentType":5123,"count":1287,"max":[896],"min":[0],"type":"SCALAR"},{"bufferView":289,"componentType":5126,"count":897,"max":[-0.7459654211997986,1.946725845336914,2.1683199405670166],"min":[-0.7992773652076721,1.349157691001892,1.4255287647247314],"type":"VEC3"},{"bufferView":290,"componentType":5126,"count":897,"type":"VEC3"},{"bufferView":291,"componentType":5126,"count":897,"type":"VEC4"},{"bufferView":292,"componentType":5126,"count":897,"max":[1,1],"min":[0,0],"type":"VEC2"},{"bufferView":293,"componentType":5121,"count":165,"max":[106],"min":[0],"type":"SCALAR"},{"bufferView":294,"componentType":5126,"count":107,"max":[0.40834516286849976,1.265928864479065,-0.5644528865814209],"min":[0.10472406446933746,0.9417387843132019,-1.0465731620788574],"type":"VEC3"},{"bufferView":295,"componentType":5126,"count":107,"type":"VEC3"},{"bufferView":296,"componentType":5126,"count":107,"type":"VEC4"},{"bufferView":297,"componentType":5126,"count":107,"max":[1.000004768371582,1.000002083487061],"min":[-0.0000014118879789748462,-4.76837158203125e-7],"type":"VEC2"},{"bufferView":298,"componentType":5121,"count":255,"max":[186],"min":[0],"type":"SCALAR"},{"bufferView":299,"componentType":5126,"count":187,"max":[-0.010906977578997612,2.0845248699188232,3.756594657897949],"min":[-0.01954483613371849,1.665948748588562,3.046666383743286],"type":"VEC3"},{"bufferView":300,"componentType":5126,"count":187,"type":"VEC3"},{"bufferView":301,"componentType":5126,"count":187,"type":"VEC4"},{"bufferView":302,"componentType":5126,"count":187,"max":[0,1],"min":[0,1],"type":"VEC2"},{"bufferView":303,"componentType":5121,"count":192,"max":[56],"min":[0],"type":"SCALAR"},{"bufferView":304,"componentType":5126,"count":57,"max":[-0.6737784743309021,3.1776766777038574,0.978751003742218],"min":[-1.4637436866760254,3.0292716026306152,0.6308897137641907],"type":"VEC3"},{"bufferView":305,"componentType":5126,"count":57,"type":"VEC3"},{"bufferView":306,"componentType":5126,"count":57,"type":"VEC4"},{"bufferView":307,"componentType":5126,"count":57,"max":[0.2707824110984802,0.39692866802215576],"min":[0.1084708571434021,0.05726802349090576],"type":"VEC2"},{"bufferView":308,"componentType":5123,"count":1224,"max":[389],"min":[0],"type":"SCALAR"},{"bufferView":309,"componentType":5126,"count":390,"max":[0.11481727659702301,0.4254237413406372,2.4958994388580322],"min":[-0.12101491540670395,0.3254237174987793,0.5368391275405884],"type":"VEC3"},{"bufferView":310,"componentType":5126,"count":390,"type":"VEC3"},{"bufferView":311,"componentType":5126,"count":390,"type":"VEC4"},{"bufferView":312,"componentType":5126,"count":390,"max":[0.9792966842651367,0.994908481836319],"min":[0.8822281360626221,0.6599722802639008],"type":"VEC2"},{"bufferView":313,"componentType":5121,"count":96,"max":[35],"min":[0],"type":"SCALAR"},{"bufferView":314,"componentType":5126,"count":36,"max":[3.444727897644043,3.1077096462249756,1.1065857410430908],"min":[2.4763667583465576,3.061145544052124,0.7711102366447449],"type":"VEC3"},{"bufferView":315,"componentType":5126,"count":36,"type":"VEC3"},{"bufferView":316,"componentType":5126,"count":36,"type":"VEC4"},{"bufferView":317,"componentType":5126,"count":36,"max":[0.6709256172180176,0.3926922082901001],"min":[0.4743652641773224,0.06559395790100098],"type":"VEC2"},{"bufferView":318,"componentType":5123,"count":1032,"max":[265],"min":[0],"type":"SCALAR"},{"bufferView":319,"componentType":5126,"count":266,"max":[-0.6739870309829712,2.060807943344116,3.34428334236145],"min":[-0.8059267401695251,0.8241667747497559,2.2084622383117676],"type":"VEC3"},{"bufferView":320,"componentType":5126,"count":266,"type":"VEC3"},{"bufferView":321,"componentType":5126,"count":266,"type":"VEC4"},{"bufferView":322,"componentType":5126,"count":266,"max":[0.1207045316696167,0.8873765468597412],"min":[0.028880596160888672,0.7187308073043823],"type":"VEC2"},{"bufferView":323,"componentType":5121,"count":324,"max":[125],"min":[0],"type":"SCALAR"},{"bufferView":324,"componentType":5126,"count":126,"max":[0.8102170825004578,1.3490577936172485,1.5203975439071655],"min":[0.7688761353492737,1.29440176486969,1.3634587526321411],"type":"VEC3"},{"bufferView":325,"componentType":5126,"count":126,"type":"VEC3"},{"bufferView":326,"componentType":5126,"count":126,"type":"VEC4"},{"bufferView":327,"componentType":5126,"count":126,"max":[0.49340885877609253,0.9936071038246155],"min":[0.005918547511100769,0.5067666471004486],"type":"VEC2"},{"bufferView":328,"componentType":5121,"count":6,"max":[3],"min":[0],"type":"SCALAR"},{"bufferView":329,"componentType":5126,"count":4,"max":[1.4600006341934204,3.106841564178467,1.1487163305282593],"min":[0.6664435267448425,3.0519416332244873,0.9339168667793274],"type":"VEC3"},{"bufferView":330,"componentType":5126,"count":4,"type":"VEC3"},{"bufferView":331,"componentType":5126,"count":4,"type":"VEC4"},{"bufferView":332,"componentType":5126,"count":4,"max":[1,1],"min":[0,0],"type":"VEC2"},{"bufferView":333,"componentType":5121,"count":144,"max":[95],"min":[0],"type":"SCALAR"},{"bufferView":334,"componentType":5126,"count":96,"max":[0.030162613838911057,2.84626841545105,1.0465285778045654],"min":[-0.030163567513227463,2.7111425399780273,0.6908934712409973],"type":"VEC3"},{"bufferView":335,"componentType":5126,"count":96,"type":"VEC3"},{"bufferView":336,"componentType":5126,"count":96,"type":"VEC4"},{"bufferView":337,"componentType":5126,"count":96,"max":[0,1],"min":[0,1],"type":"VEC2"},{"bufferView":338,"componentType":5123,"count":2049,"max":[920],"min":[0],"type":"SCALAR"},{"bufferView":339,"componentType":5126,"count":921,"max":[0.8052082061767578,2.0614700317382812,2.2232227325439453],"min":[0.7053050398826599,0.7572528123855591,1.1618108749389648],"type":"VEC3"},{"bufferView":340,"componentType":5126,"count":921,"type":"VEC3"},{"bufferView":341,"componentType":5126,"count":921,"type":"VEC4"},{"bufferView":342,"componentType":5126,"count":921,"max":[0.4321032762527466,0.719634085893631],"min":[0.33555763959884644,0.5625728368759155],"type":"VEC2"},{"bufferView":343,"componentType":5121,"count":324,"max":[129],"min":[0],"type":"SCALAR"},{"bufferView":344,"componentType":5126,"count":130,"max":[-0.7784860730171204,1.3490577936172485,1.5203967094421387],"min":[-0.8198270797729492,1.29440176486969,1.3634579181671143],"type":"VEC3"},{"bufferView":345,"componentType":5126,"count":130,"type":"VEC3"},{"bufferView":346,"componentType":5126,"count":130,"type":"VEC4"},{"bufferView":347,"componentType":5126,"count":130,"max":[0.4981870651245117,0.991888009943068],"min":[0.012363165616989136,0.5031866133213043],"type":"VEC2"},{"bufferView":348,"componentType":5121,"count":753,"max":[150],"min":[0],"type":"SCALAR"},{"bufferView":349,"componentType":5126,"count":151,"max":[0.737643837928772,1.5239368677139282,0.20592953264713287],"min":[-0.003098169108852744,0.6857427954673767,-1.349753975868225],"type":"VEC3"},{"bufferView":350,"componentType":5126,"count":151,"type":"VEC3"},{"bufferView":351,"componentType":5126,"count":151,"type":"VEC4"},{"bufferView":352,"componentType":5126,"count":151,"max":[0.43755534291267395,0.41989022493362427],"min":[0.3754299283027649,0.1889333724975586],"type":"VEC2"},{"bufferView":353,"componentType":5121,"count":60,"max":[23],"min":[0],"type":"SCALAR"},{"bufferView":354,"componentType":5126,"count":24,"max":[0.38050276041030884,1.3375128507614136,4.073688983917236],"min":[-0.38670432567596436,1.1155648231506348,3.9633395671844482],"type":"VEC3"},{"bufferView":355,"componentType":5126,"count":24,"type":"VEC3"},{"bufferView":356,"componentType":5126,"count":24,"type":"VEC4"},{"bufferView":357,"componentType":5126,"count":24,"max":[0.3324511647224426,0.9009297341108322],"min":[0.2512751519680023,0.8539620935916901],"type":"VEC2"},{"bufferView":358,"componentType":5123,"count":1164,"max":[423],"min":[0],"type":"SCALAR"},{"bufferView":359,"componentType":5126,"count":424,"max":[-0.12127246707677841,3.274651527404785,1.0487134456634521],"min":[-0.6737796068191528,2.917783498764038,0.7330923676490784],"type":"VEC3"},{"bufferView":360,"componentType":5126,"count":424,"type":"VEC3"},{"bufferView":361,"componentType":5126,"count":424,"type":"VEC4"},{"bufferView":362,"componentType":5126,"count":424,"max":[0.47793352603912354,0.8943696022033691],"min":[0.007058441638946533,0.03113698959350586],"type":"VEC2"},{"bufferView":363,"componentType":5123,"count":1554,"max":[588],"min":[0],"type":"SCALAR"},{"bufferView":364,"componentType":5126,"count":589,"max":[0.7528688311576843,2.6013870239257812,0.5090675950050354],"min":[-0.7590653896331787,1.640109896659851,-0.4977620542049408],"type":"VEC3"},{"bufferView":365,"componentType":5126,"count":589,"type":"VEC3"},{"bufferView":366,"componentType":5126,"count":589,"type":"VEC4"},{"bufferView":367,"componentType":5126,"count":589,"max":[0.34021127223968506,0.16720902919769287],"min":[0.11881542205810547,0.016031742095947266],"type":"VEC2"},{"bufferView":368,"componentType":5121,"count":462,"max":[133],"min":[0],"type":"SCALAR"},{"bufferView":369,"componentType":5126,"count":134,"max":[-0.0030976617708802223,1.4220749139785767,-0.43376487493515015],"min":[-0.10694590210914612,0.8014967441558838,-1.230842113494873],"type":"VEC3"},{"bufferView":370,"componentType":5126,"count":134,"type":"VEC3"},{"bufferView":371,"componentType":5126,"count":134,"type":"VEC4"},{"bufferView":372,"componentType":5126,"count":134,"max":[0.5384939908981323,0.319743275642395],"min":[0.45652246475219727,0.2926071286201477],"type":"VEC2"},{"bufferView":373,"componentType":5121,"count":126,"max":[85],"min":[0],"type":"SCALAR"},{"bufferView":374,"componentType":5126,"count":86,"max":[-0.004648283589631319,1.9711538553237915,4.0083394050598145],"min":[-0.023876316845417023,1.4432936906814575,3.3475754261016846],"type":"VEC3"},{"bufferView":375,"componentType":5126,"count":86,"type":"VEC3"},{"bufferView":376,"componentType":5126,"count":86,"type":"VEC4"},{"bufferView":377,"componentType":5126,"count":86,"max":[0,1],"min":[0,1],"type":"VEC2"},{"bufferView":378,"componentType":5121,"count":1062,"max":[247],"min":[0],"type":"SCALAR"},{"bufferView":379,"componentType":5126,"count":248,"max":[5.04873514175415,3.10736346244812,1.1920897960662842],"min":[3.4447269439697266,3.064171552658081,0.7706548571586609],"type":"VEC3"},{"bufferView":380,"componentType":5126,"count":248,"type":"VEC3"},{"bufferView":381,"componentType":5126,"count":248,"type":"VEC4"},{"bufferView":382,"componentType":5126,"count":248,"max":[0.9965113997459412,0.392803430557251],"min":[0.6704031229019165,0.06505441665649414],"type":"VEC2"},{"bufferView":383,"componentType":5121,"count":384,"max":[105],"min":[0],"type":"SCALAR"},{"bufferView":384,"componentType":5126,"count":106,"max":[0.2143886238336563,3.100757598876953,0.759315550327301],"min":[0.10392459481954575,2.7227344512939453,0.6969195604324341],"type":"VEC3"},{"bufferView":385,"componentType":5126,"count":106,"type":"VEC3"},{"bufferView":386,"componentType":5126,"count":106,"type":"VEC4"},{"bufferView":387,"componentType":5126,"count":106,"max":[0.992473840713501,0.831554502248764],"min":[0.4957641065120697,0.711207926273346],"type":"VEC2"},{"bufferView":388,"componentType":5123,"count":1731,"max":[1170],"min":[0],"type":"SCALAR"},{"bufferView":389,"componentType":5126,"count":1171,"max":[0.738466203212738,2.2048180103302,4.073688983917236],"min":[-0.7446660399436951,1.1155648231506348,2.378178358078003],"type":"VEC3"},{"bufferView":390,"componentType":5126,"count":1171,"type":"VEC3"},{"bufferView":391,"componentType":5126,"count":1171,"type":"VEC4"},{"bufferView":392,"componentType":5126,"count":1171,"max":[1,1],"min":[0,0],"type":"VEC2"},{"bufferView":393,"componentType":5123,"count":1164,"max":[432],"min":[0],"type":"SCALAR"},{"bufferView":394,"componentType":5126,"count":433,"max":[0.1357916295528412,3.274672508239746,0.7475734949111938],"min":[-0.17986838519573212,2.917804479598999,0.19506634771823883],"type":"VEC3"},{"bufferView":395,"componentType":5126,"count":433,"type":"VEC3"},{"bufferView":396,"componentType":5126,"count":433,"type":"VEC4"},{"bufferView":397,"componentType":5126,"count":433,"max":[0.47793352603912354,0.8943696022033691],"min":[0.007058441638946533,0.03113698959350586],"type":"VEC2"},{"bufferView":398,"componentType":5123,"count":1749,"max":[1236],"min":[0],"type":"SCALAR"},{"bufferView":399,"componentType":5126,"count":1237,"max":[-0.7329896688461304,1.9557218551635742,3.1111462116241455],"min":[-0.8060007095336914,1.2219007015228271,2.293026924133301],"type":"VEC3"},{"bufferView":400,"componentType":5126,"count":1237,"type":"VEC3"},{"bufferView":401,"componentType":5126,"count":1237,"type":"VEC4"},{"bufferView":402,"componentType":5126,"count":1237,"max":[1.000025749206543,1.0000045472024794],"min":[-0.000009282981409342028,-0.0000027418136596679688],"type":"VEC2"},{"bufferView":403,"componentType":5121,"count":96,"max":[37],"min":[0],"type":"SCALAR"},{"bufferView":404,"componentType":5126,"count":38,"max":[0.09746028482913971,3.1084275245666504,3.345212936401367],"min":[-0.23795725405216217,3.057818651199341,2.3325884342193604],"type":"VEC3"},{"bufferView":405,"componentType":5126,"count":38,"type":"VEC3"},{"bufferView":406,"componentType":5126,"count":38,"type":"VEC4"},{"bufferView":407,"componentType":5126,"count":38,"max":[0.4750573933124542,0.3926081657409668],"min":[0.2688201069831848,0.06600189208984375],"type":"VEC2"},{"bufferView":408,"componentType":5123,"count":864,"max":[359],"min":[0],"type":"SCALAR"},{"bufferView":409,"componentType":5126,"count":360,"max":[0.3706936240196228,3.1190905570983887,1.239539623260498],"min":[-0.3706945776939392,3.0450375080108643,0.49815240502357483],"type":"VEC3"},{"bufferView":410,"componentType":5126,"count":360,"type":"VEC3"},{"bufferView":411,"componentType":5126,"count":360,"type":"VEC4"},{"bufferView":412,"componentType":5126,"count":360,"max":[0,1],"min":[0,1],"type":"VEC2"},{"bufferView":413,"componentType":5121,"count":96,"max":[35],"min":[0],"type":"SCALAR"},{"bufferView":414,"componentType":5126,"count":36,"max":[-2.476367712020874,3.1077096462249756,0.9665817618370056],"min":[-3.444727897644043,3.061145544052124,0.6311061978340149],"type":"VEC3"},{"bufferView":415,"componentType":5126,"count":36,"type":"VEC3"},{"bufferView":416,"componentType":5126,"count":36,"type":"VEC4"},{"bufferView":417,"componentType":5126,"count":36,"max":[0.6709256172180176,0.3926922082901001],"min":[0.4743652641773224,0.06559395790100098],"type":"VEC2"},{"bufferView":418,"componentType":5126,"count":5316,"type":"VEC3","min":[-0.3453581639861229,1.316512259840965,-5.907125949859619],"max":[0.3432358694076538,3.9040462970733643,-1.4207999999999998]},{"bufferView":419,"componentType":5126,"count":5316,"type":"VEC3"},{"bufferView":420,"componentType":5126,"count":459,"type":"VEC3","min":[-0.2175465775134522,2.739542463065855,-5.450332813932186],"max":[0.21093469237904208,3.4635440256277086,-4.726331251370332]},{"bufferView":421,"componentType":5126,"count":459,"type":"VEC3"},{"bufferView":422,"componentType":5126,"count":459,"type":"VEC2"}],"asset":{"generator":"Khronos Blender glTF 2.0 exporter","version":"2.0","copyright":"FlightGear model authors / FlightAirMap contributors; GPL-2.0. See source/flightairmap/ec35/ for license and editable sources."},"bufferViews":[{"buffer":0,"byteLength":286243,"byteOffset":0},{"buffer":0,"byteLength":459338,"byteOffset":286243},{"buffer":0,"byteLength":14630,"byteOffset":745581},{"buffer":0,"byteLength":2064,"byteOffset":760212,"target":34963},{"buffer":0,"byteLength":3192,"byteOffset":762276,"target":34962},{"buffer":0,"byteLength":3192,"byteOffset":765468,"target":34962},{"buffer":0,"byteLength":4256,"byteOffset":768660,"target":34962},{"buffer":0,"byteLength":2128,"byteOffset":772916,"target":34962},{"buffer":0,"byteLength":192,"byteOffset":775044,"target":34963},{"buffer":0,"byteLength":684,"byteOffset":775236,"target":34962},{"buffer":0,"byteLength":684,"byteOffset":775920,"target":34962},{"buffer":0,"byteLength":912,"byteOffset":776604,"target":34962},{"buffer":0,"byteLength":456,"byteOffset":777516,"target":34962},{"buffer":0,"byteLength":2328,"byteOffset":777972,"target":34963},{"buffer":0,"byteLength":5064,"byteOffset":780300,"target":34962},{"buffer":0,"byteLength":5064,"byteOffset":785364,"target":34962},{"buffer":0,"byteLength":6752,"byteOffset":790428,"target":34962},{"buffer":0,"byteLength":3376,"byteOffset":797180,"target":34962},{"buffer":0,"byteLength":324,"byteOffset":800556,"target":34963},{"buffer":0,"byteLength":1572,"byteOffset":800880,"target":34962},{"buffer":0,"byteLength":1572,"byteOffset":802452,"target":34962},{"buffer":0,"byteLength":2096,"byteOffset":804024,"target":34962},{"buffer":0,"byteLength":1048,"byteOffset":806120,"target":34962},{"buffer":0,"byteLength":738,"byteOffset":807168,"target":34963},{"buffer":0,"byteLength":2604,"byteOffset":807908,"target":34962},{"buffer":0,"byteLength":2604,"byteOffset":810512,"target":34962},{"buffer":0,"byteLength":3472,"byteOffset":813116,"target":34962},{"buffer":0,"byteLength":1736,"byteOffset":816588,"target":34962},{"buffer":0,"byteLength":726,"byteOffset":818324,"target":34963},{"buffer":0,"byteLength":1920,"byteOffset":819052,"target":34962},{"buffer":0,"byteLength":1920,"byteOffset":820972,"target":34962},{"buffer":0,"byteLength":2560,"byteOffset":822892,"target":34962},{"buffer":0,"byteLength":1280,"byteOffset":825452,"target":34962},{"buffer":0,"byteLength":237,"byteOffset":826732,"target":34963},{"buffer":0,"byteLength":780,"byteOffset":826972,"target":34962},{"buffer":0,"byteLength":780,"byteOffset":827752,"target":34962},{"buffer":0,"byteLength":1040,"byteOffset":828532,"target":34962},{"buffer":0,"byteLength":520,"byteOffset":829572,"target":34962},{"buffer":0,"byteLength":192,"byteOffset":830092,"target":34963},{"buffer":0,"byteLength":1920,"byteOffset":830284,"target":34962},{"buffer":0,"byteLength":1920,"byteOffset":832204,"target":34962},{"buffer":0,"byteLength":2560,"byteOffset":834124,"target":34962},{"buffer":0,"byteLength":1280,"byteOffset":836684,"target":34962},{"buffer":0,"byteLength":606,"byteOffset":837964,"target":34963},{"buffer":0,"byteLength":2076,"byteOffset":838572,"target":34962},{"buffer":0,"byteLength":2076,"byteOffset":840648,"target":34962},{"buffer":0,"byteLength":2768,"byteOffset":842724,"target":34962},{"buffer":0,"byteLength":1384,"byteOffset":845492,"target":34962},{"buffer":0,"byteLength":1062,"byteOffset":846876,"target":34963},{"buffer":0,"byteLength":2976,"byteOffset":847940,"target":34962},{"buffer":0,"byteLength":2976,"byteOffset":850916,"target":34962},{"buffer":0,"byteLength":3968,"byteOffset":853892,"target":34962},{"buffer":0,"byteLength":1984,"byteOffset":857860,"target":34962},{"buffer":0,"byteLength":384,"byteOffset":859844,"target":34963},{"buffer":0,"byteLength":1272,"byteOffset":860228,"target":34962},{"buffer":0,"byteLength":1272,"byteOffset":861500,"target":34962},{"buffer":0,"byteLength":1696,"byteOffset":862772,"target":34962},{"buffer":0,"byteLength":848,"byteOffset":864468,"target":34962},{"buffer":0,"byteLength":72,"byteOffset":865316,"target":34963},{"buffer":0,"byteLength":576,"byteOffset":865388,"target":34962},{"buffer":0,"byteLength":576,"byteOffset":865964,"target":34962},{"buffer":0,"byteLength":768,"byteOffset":866540,"target":34962},{"buffer":0,"byteLength":384,"byteOffset":867308,"target":34962},{"buffer":0,"byteLength":510,"byteOffset":867692,"target":34963},{"buffer":0,"byteLength":1776,"byteOffset":868204,"target":34962},{"buffer":0,"byteLength":1776,"byteOffset":869980,"target":34962},{"buffer":0,"byteLength":2368,"byteOffset":871756,"target":34962},{"buffer":0,"byteLength":1184,"byteOffset":874124,"target":34962},{"buffer":0,"byteLength":1242,"byteOffset":875308,"target":34963},{"buffer":0,"byteLength":2904,"byteOffset":876552,"target":34962},{"buffer":0,"byteLength":2904,"byteOffset":879456,"target":34962},{"buffer":0,"byteLength":3872,"byteOffset":882360,"target":34962},{"buffer":0,"byteLength":1936,"byteOffset":886232,"target":34962},{"buffer":0,"byteLength":1062,"byteOffset":888168,"target":34963},{"buffer":0,"byteLength":2976,"byteOffset":889232,"target":34962},{"buffer":0,"byteLength":2976,"byteOffset":892208,"target":34962},{"buffer":0,"byteLength":3968,"byteOffset":895184,"target":34962},{"buffer":0,"byteLength":1984,"byteOffset":899152,"target":34962},{"buffer":0,"byteLength":6,"byteOffset":901136,"target":34963},{"buffer":0,"byteLength":48,"byteOffset":901144,"target":34962},{"buffer":0,"byteLength":48,"byteOffset":901192,"target":34962},{"buffer":0,"byteLength":64,"byteOffset":901240,"target":34962},{"buffer":0,"byteLength":32,"byteOffset":901304,"target":34962},{"buffer":0,"byteLength":120,"byteOffset":901336,"target":34963},{"buffer":0,"byteLength":1440,"byteOffset":901456,"target":34962},{"buffer":0,"byteLength":1440,"byteOffset":902896,"target":34962},{"buffer":0,"byteLength":1920,"byteOffset":904336,"target":34962},{"buffer":0,"byteLength":960,"byteOffset":906256,"target":34962},{"buffer":0,"byteLength":726,"byteOffset":907216,"target":34963},{"buffer":0,"byteLength":1920,"byteOffset":907944,"target":34962},{"buffer":0,"byteLength":1920,"byteOffset":909864,"target":34962},{"buffer":0,"byteLength":2560,"byteOffset":911784,"target":34962},{"buffer":0,"byteLength":1280,"byteOffset":914344,"target":34962},{"buffer":0,"byteLength":384,"byteOffset":915624,"target":34963},{"buffer":0,"byteLength":1272,"byteOffset":916008,"target":34962},{"buffer":0,"byteLength":1272,"byteOffset":917280,"target":34962},{"buffer":0,"byteLength":1696,"byteOffset":918552,"target":34962},{"buffer":0,"byteLength":848,"byteOffset":920248,"target":34962},{"buffer":0,"byteLength":4170,"byteOffset":921096,"target":34963},{"buffer":0,"byteLength":11148,"byteOffset":925268,"target":34962},{"buffer":0,"byteLength":11148,"byteOffset":936416,"target":34962},{"buffer":0,"byteLength":14864,"byteOffset":947564,"target":34962},{"buffer":0,"byteLength":7432,"byteOffset":962428,"target":34962},{"buffer":0,"byteLength":6,"byteOffset":969860,"target":34963},{"buffer":0,"byteLength":48,"byteOffset":969868,"target":34962},{"buffer":0,"byteLength":48,"byteOffset":969916,"target":34962},{"buffer":0,"byteLength":64,"byteOffset":969964,"target":34962},{"buffer":0,"byteLength":32,"byteOffset":970028,"target":34962},{"buffer":0,"byteLength":570,"byteOffset":970060,"target":34963},{"buffer":0,"byteLength":1872,"byteOffset":970632,"target":34962},{"buffer":0,"byteLength":1872,"byteOffset":972504,"target":34962},{"buffer":0,"byteLength":2496,"byteOffset":974376,"target":34962},{"buffer":0,"byteLength":1248,"byteOffset":976872,"target":34962},{"buffer":0,"byteLength":2328,"byteOffset":978120,"target":34963},{"buffer":0,"byteLength":4308,"byteOffset":980448,"target":34962},{"buffer":0,"byteLength":4308,"byteOffset":984756,"target":34962},{"buffer":0,"byteLength":5744,"byteOffset":989064,"target":34962},{"buffer":0,"byteLength":2872,"byteOffset":994808,"target":34962},{"buffer":0,"byteLength":1728,"byteOffset":997680,"target":34963},{"buffer":0,"byteLength":4512,"byteOffset":999408,"target":34962},{"buffer":0,"byteLength":4512,"byteOffset":1003920,"target":34962},{"buffer":0,"byteLength":6016,"byteOffset":1008432,"target":34962},{"buffer":0,"byteLength":3008,"byteOffset":1014448,"target":34962},{"buffer":0,"byteLength":2574,"byteOffset":1017456,"target":34963},{"buffer":0,"byteLength":10764,"byteOffset":1020032,"target":34962},{"buffer":0,"byteLength":10764,"byteOffset":1030796,"target":34962},{"buffer":0,"byteLength":14352,"byteOffset":1041560,"target":34962},{"buffer":0,"byteLength":7176,"byteOffset":1055912,"target":34962},{"buffer":0,"byteLength":2328,"byteOffset":1063088,"target":34963},{"buffer":0,"byteLength":5016,"byteOffset":1065416,"target":34962},{"buffer":0,"byteLength":5016,"byteOffset":1070432,"target":34962},{"buffer":0,"byteLength":6688,"byteOffset":1075448,"target":34962},{"buffer":0,"byteLength":3344,"byteOffset":1082136,"target":34962},{"buffer":0,"byteLength":96,"byteOffset":1085480,"target":34963},{"buffer":0,"byteLength":456,"byteOffset":1085576,"target":34962},{"buffer":0,"byteLength":456,"byteOffset":1086032,"target":34962},{"buffer":0,"byteLength":608,"byteOffset":1086488,"target":34962},{"buffer":0,"byteLength":304,"byteOffset":1087096,"target":34962},{"buffer":0,"byteLength":192,"byteOffset":1087400,"target":34963},{"buffer":0,"byteLength":684,"byteOffset":1087592,"target":34962},{"buffer":0,"byteLength":684,"byteOffset":1088276,"target":34962},{"buffer":0,"byteLength":912,"byteOffset":1088960,"target":34962},{"buffer":0,"byteLength":456,"byteOffset":1089872,"target":34962},{"buffer":0,"byteLength":288,"byteOffset":1090328,"target":34963},{"buffer":0,"byteLength":2400,"byteOffset":1090616,"target":34962},{"buffer":0,"byteLength":2400,"byteOffset":1093016,"target":34962},{"buffer":0,"byteLength":3200,"byteOffset":1095416,"target":34962},{"buffer":0,"byteLength":1600,"byteOffset":1098616,"target":34962},{"buffer":0,"byteLength":5100,"byteOffset":1100216,"target":34963},{"buffer":0,"byteLength":12696,"byteOffset":1105316,"target":34962},{"buffer":0,"byteLength":12696,"byteOffset":1118012,"target":34962},{"buffer":0,"byteLength":16928,"byteOffset":1130708,"target":34962},{"buffer":0,"byteLength":8464,"byteOffset":1147636,"target":34962},{"buffer":0,"byteLength":3498,"byteOffset":1156100,"target":34963},{"buffer":0,"byteLength":14844,"byteOffset":1159600,"target":34962},{"buffer":0,"byteLength":14844,"byteOffset":1174444,"target":34962},{"buffer":0,"byteLength":19792,"byteOffset":1189288,"target":34962},{"buffer":0,"byteLength":9896,"byteOffset":1209080,"target":34962},{"buffer":0,"byteLength":1560,"byteOffset":1218976,"target":34963},{"buffer":0,"byteLength":3456,"byteOffset":1220536,"target":34962},{"buffer":0,"byteLength":3456,"byteOffset":1223992,"target":34962},{"buffer":0,"byteLength":4608,"byteOffset":1227448,"target":34962},{"buffer":0,"byteLength":2304,"byteOffset":1232056,"target":34962},{"buffer":0,"byteLength":366,"byteOffset":1234360,"target":34963},{"buffer":0,"byteLength":1044,"byteOffset":1234728,"target":34962},{"buffer":0,"byteLength":1044,"byteOffset":1235772,"target":34962},{"buffer":0,"byteLength":1392,"byteOffset":1236816,"target":34962},{"buffer":0,"byteLength":696,"byteOffset":1238208,"target":34962},{"buffer":0,"byteLength":96,"byteOffset":1238904,"target":34963},{"buffer":0,"byteLength":456,"byteOffset":1239000,"target":34962},{"buffer":0,"byteLength":456,"byteOffset":1239456,"target":34962},{"buffer":0,"byteLength":608,"byteOffset":1239912,"target":34962},{"buffer":0,"byteLength":304,"byteOffset":1240520,"target":34962},{"buffer":0,"byteLength":96,"byteOffset":1240824,"target":34963},{"buffer":0,"byteLength":432,"byteOffset":1240920,"target":34962},{"buffer":0,"byteLength":432,"byteOffset":1241352,"target":34962},{"buffer":0,"byteLength":576,"byteOffset":1241784,"target":34962},{"buffer":0,"byteLength":288,"byteOffset":1242360,"target":34962},{"buffer":0,"byteLength":354,"byteOffset":1242648,"target":34963},{"buffer":0,"byteLength":912,"byteOffset":1243004,"target":34962},{"buffer":0,"byteLength":912,"byteOffset":1243916,"target":34962},{"buffer":0,"byteLength":1216,"byteOffset":1244828,"target":34962},{"buffer":0,"byteLength":608,"byteOffset":1246044,"target":34962},{"buffer":0,"byteLength":1062,"byteOffset":1246652,"target":34963},{"buffer":0,"byteLength":2976,"byteOffset":1247716,"target":34962},{"buffer":0,"byteLength":2976,"byteOffset":1250692,"target":34962},{"buffer":0,"byteLength":3968,"byteOffset":1253668,"target":34962},{"buffer":0,"byteLength":1984,"byteOffset":1257636,"target":34962},{"buffer":0,"byteLength":3924,"byteOffset":1259620,"target":34963},{"buffer":0,"byteLength":8424,"byteOffset":1263544,"target":34962},{"buffer":0,"byteLength":8424,"byteOffset":1271968,"target":34962},{"buffer":0,"byteLength":11232,"byteOffset":1280392,"target":34962},{"buffer":0,"byteLength":5616,"byteOffset":1291624,"target":34962},{"buffer":0,"byteLength":96,"byteOffset":1297240,"target":34963},{"buffer":0,"byteLength":456,"byteOffset":1297336,"target":34962},{"buffer":0,"byteLength":456,"byteOffset":1297792,"target":34962},{"buffer":0,"byteLength":608,"byteOffset":1298248,"target":34962},{"buffer":0,"byteLength":304,"byteOffset":1298856,"target":34962},{"buffer":0,"byteLength":165,"byteOffset":1299160,"target":34963},{"buffer":0,"byteLength":1284,"byteOffset":1299328,"target":34962},{"buffer":0,"byteLength":1284,"byteOffset":1300612,"target":34962},{"buffer":0,"byteLength":1712,"byteOffset":1301896,"target":34962},{"buffer":0,"byteLength":856,"byteOffset":1303608,"target":34962},{"buffer":0,"byteLength":324,"byteOffset":1304464,"target":34963},{"buffer":0,"byteLength":1464,"byteOffset":1304788,"target":34962},{"buffer":0,"byteLength":1464,"byteOffset":1306252,"target":34962},{"buffer":0,"byteLength":1952,"byteOffset":1307716,"target":34962},{"buffer":0,"byteLength":976,"byteOffset":1309668,"target":34962},{"buffer":0,"byteLength":192,"byteOffset":1310644,"target":34963},{"buffer":0,"byteLength":792,"byteOffset":1310836,"target":34962},{"buffer":0,"byteLength":792,"byteOffset":1311628,"target":34962},{"buffer":0,"byteLength":1056,"byteOffset":1312420,"target":34962},{"buffer":0,"byteLength":528,"byteOffset":1313476,"target":34962},{"buffer":0,"byteLength":960,"byteOffset":1314004,"target":34963},{"buffer":0,"byteLength":3360,"byteOffset":1314964,"target":34962},{"buffer":0,"byteLength":3360,"byteOffset":1318324,"target":34962},{"buffer":0,"byteLength":4480,"byteOffset":1321684,"target":34962},{"buffer":0,"byteLength":2240,"byteOffset":1326164,"target":34962},{"buffer":0,"byteLength":1164,"byteOffset":1328404,"target":34963},{"buffer":0,"byteLength":5304,"byteOffset":1329568,"target":34962},{"buffer":0,"byteLength":5304,"byteOffset":1334872,"target":34962},{"buffer":0,"byteLength":7072,"byteOffset":1340176,"target":34962},{"buffer":0,"byteLength":3536,"byteOffset":1347248,"target":34962},{"buffer":0,"byteLength":216,"byteOffset":1350784,"target":34963},{"buffer":0,"byteLength":900,"byteOffset":1351000,"target":34962},{"buffer":0,"byteLength":900,"byteOffset":1351900,"target":34962},{"buffer":0,"byteLength":1200,"byteOffset":1352800,"target":34962},{"buffer":0,"byteLength":600,"byteOffset":1354000,"target":34962},{"buffer":0,"byteLength":753,"byteOffset":1354600,"target":34963},{"buffer":0,"byteLength":1812,"byteOffset":1355356,"target":34962},{"buffer":0,"byteLength":1812,"byteOffset":1357168,"target":34962},{"buffer":0,"byteLength":2416,"byteOffset":1358980,"target":34962},{"buffer":0,"byteLength":1208,"byteOffset":1361396,"target":34962},{"buffer":0,"byteLength":60348,"byteOffset":1362604,"target":34963},{"buffer":0,"byteLength":103092,"byteOffset":1422952,"target":34962},{"buffer":0,"byteLength":103092,"byteOffset":1526044,"target":34962},{"buffer":0,"byteLength":137456,"byteOffset":1629136,"target":34962},{"buffer":0,"byteLength":68728,"byteOffset":1766592,"target":34962},{"buffer":0,"byteLength":192,"byteOffset":1835320,"target":34963},{"buffer":0,"byteLength":684,"byteOffset":1835512,"target":34962},{"buffer":0,"byteLength":684,"byteOffset":1836196,"target":34962},{"buffer":0,"byteLength":912,"byteOffset":1836880,"target":34962},{"buffer":0,"byteLength":456,"byteOffset":1837792,"target":34962},{"buffer":0,"byteLength":6,"byteOffset":1838248,"target":34963},{"buffer":0,"byteLength":48,"byteOffset":1838256,"target":34962},{"buffer":0,"byteLength":48,"byteOffset":1838304,"target":34962},{"buffer":0,"byteLength":64,"byteOffset":1838352,"target":34962},{"buffer":0,"byteLength":32,"byteOffset":1838416,"target":34962},{"buffer":0,"byteLength":3366,"byteOffset":1838448,"target":34963},{"buffer":0,"byteLength":13908,"byteOffset":1841816,"target":34962},{"buffer":0,"byteLength":13908,"byteOffset":1855724,"target":34962},{"buffer":0,"byteLength":18544,"byteOffset":1869632,"target":34962},{"buffer":0,"byteLength":9272,"byteOffset":1888176,"target":34962},{"buffer":0,"byteLength":384,"byteOffset":1897448,"target":34963},{"buffer":0,"byteLength":1272,"byteOffset":1897832,"target":34962},{"buffer":0,"byteLength":1272,"byteOffset":1899104,"target":34962},{"buffer":0,"byteLength":1696,"byteOffset":1900376,"target":34962},{"buffer":0,"byteLength":848,"byteOffset":1902072,"target":34962},{"buffer":0,"byteLength":366,"byteOffset":1902920,"target":34963},{"buffer":0,"byteLength":2568,"byteOffset":1903288,"target":34962},{"buffer":0,"byteLength":2568,"byteOffset":1905856,"target":34962},{"buffer":0,"byteLength":3424,"byteOffset":1908424,"target":34962},{"buffer":0,"byteLength":1712,"byteOffset":1911848,"target":34962},{"buffer":0,"byteLength":216,"byteOffset":1913560,"target":34963},{"buffer":0,"byteLength":900,"byteOffset":1913776,"target":34962},{"buffer":0,"byteLength":900,"byteOffset":1914676,"target":34962},{"buffer":0,"byteLength":1200,"byteOffset":1915576,"target":34962},{"buffer":0,"byteLength":600,"byteOffset":1916776,"target":34962},{"buffer":0,"byteLength":96,"byteOffset":1917376,"target":34963},{"buffer":0,"byteLength":432,"byteOffset":1917472,"target":34962},{"buffer":0,"byteLength":432,"byteOffset":1917904,"target":34962},{"buffer":0,"byteLength":576,"byteOffset":1918336,"target":34962},{"buffer":0,"byteLength":288,"byteOffset":1918912,"target":34962},{"buffer":0,"byteLength":606,"byteOffset":1919200,"target":34963},{"buffer":0,"byteLength":2100,"byteOffset":1919808,"target":34962},{"buffer":0,"byteLength":2100,"byteOffset":1921908,"target":34962},{"buffer":0,"byteLength":2800,"byteOffset":1924008,"target":34962},{"buffer":0,"byteLength":1400,"byteOffset":1926808,"target":34962},{"buffer":0,"byteLength":19776,"byteOffset":1928208,"target":34963},{"buffer":0,"byteLength":33780,"byteOffset":1947984,"target":34962},{"buffer":0,"byteLength":33780,"byteOffset":1981764,"target":34962},{"buffer":0,"byteLength":45040,"byteOffset":2015544,"target":34962},{"buffer":0,"byteLength":22520,"byteOffset":2060584,"target":34962},{"buffer":0,"byteLength":1548,"byteOffset":2083104,"target":34963},{"buffer":0,"byteLength":3360,"byteOffset":2084652,"target":34962},{"buffer":0,"byteLength":3360,"byteOffset":2088012,"target":34962},{"buffer":0,"byteLength":4480,"byteOffset":2091372,"target":34962},{"buffer":0,"byteLength":2240,"byteOffset":2095852,"target":34962},{"buffer":0,"byteLength":2574,"byteOffset":2098092,"target":34963},{"buffer":0,"byteLength":10764,"byteOffset":2100668,"target":34962},{"buffer":0,"byteLength":10764,"byteOffset":2111432,"target":34962},{"buffer":0,"byteLength":14352,"byteOffset":2122196,"target":34962},{"buffer":0,"byteLength":7176,"byteOffset":2136548,"target":34962},{"buffer":0,"byteLength":165,"byteOffset":2143724,"target":34963},{"buffer":0,"byteLength":1284,"byteOffset":2143892,"target":34962},{"buffer":0,"byteLength":1284,"byteOffset":2145176,"target":34962},{"buffer":0,"byteLength":1712,"byteOffset":2146460,"target":34962},{"buffer":0,"byteLength":856,"byteOffset":2148172,"target":34962},{"buffer":0,"byteLength":255,"byteOffset":2149028,"target":34963},{"buffer":0,"byteLength":2244,"byteOffset":2149284,"target":34962},{"buffer":0,"byteLength":2244,"byteOffset":2151528,"target":34962},{"buffer":0,"byteLength":2992,"byteOffset":2153772,"target":34962},{"buffer":0,"byteLength":1496,"byteOffset":2156764,"target":34962},{"buffer":0,"byteLength":192,"byteOffset":2158260,"target":34963},{"buffer":0,"byteLength":684,"byteOffset":2158452,"target":34962},{"buffer":0,"byteLength":684,"byteOffset":2159136,"target":34962},{"buffer":0,"byteLength":912,"byteOffset":2159820,"target":34962},{"buffer":0,"byteLength":456,"byteOffset":2160732,"target":34962},{"buffer":0,"byteLength":2448,"byteOffset":2161188,"target":34963},{"buffer":0,"byteLength":4680,"byteOffset":2163636,"target":34962},{"buffer":0,"byteLength":4680,"byteOffset":2168316,"target":34962},{"buffer":0,"byteLength":6240,"byteOffset":2172996,"target":34962},{"buffer":0,"byteLength":3120,"byteOffset":2179236,"target":34962},{"buffer":0,"byteLength":96,"byteOffset":2182356,"target":34963},{"buffer":0,"byteLength":432,"byteOffset":2182452,"target":34962},{"buffer":0,"byteLength":432,"byteOffset":2182884,"target":34962},{"buffer":0,"byteLength":576,"byteOffset":2183316,"target":34962},{"buffer":0,"byteLength":288,"byteOffset":2183892,"target":34962},{"buffer":0,"byteLength":2064,"byteOffset":2184180,"target":34963},{"buffer":0,"byteLength":3192,"byteOffset":2186244,"target":34962},{"buffer":0,"byteLength":3192,"byteOffset":2189436,"target":34962},{"buffer":0,"byteLength":4256,"byteOffset":2192628,"target":34962},{"buffer":0,"byteLength":2128,"byteOffset":2196884,"target":34962},{"buffer":0,"byteLength":324,"byteOffset":2199012,"target":34963},{"buffer":0,"byteLength":1512,"byteOffset":2199336,"target":34962},{"buffer":0,"byteLength":1512,"byteOffset":2200848,"target":34962},{"buffer":0,"byteLength":2016,"byteOffset":2202360,"target":34962},{"buffer":0,"byteLength":1008,"byteOffset":2204376,"target":34962},{"buffer":0,"byteLength":6,"byteOffset":2205384,"target":34963},{"buffer":0,"byteLength":48,"byteOffset":2205392,"target":34962},{"buffer":0,"byteLength":48,"byteOffset":2205440,"target":34962},{"buffer":0,"byteLength":64,"byteOffset":2205488,"target":34962},{"buffer":0,"byteLength":32,"byteOffset":2205552,"target":34962},{"buffer":0,"byteLength":144,"byteOffset":2205584,"target":34963},{"buffer":0,"byteLength":1152,"byteOffset":2205728,"target":34962},{"buffer":0,"byteLength":1152,"byteOffset":2206880,"target":34962},{"buffer":0,"byteLength":1536,"byteOffset":2208032,"target":34962},{"buffer":0,"byteLength":768,"byteOffset":2209568,"target":34962},{"buffer":0,"byteLength":4098,"byteOffset":2210336,"target":34963},{"buffer":0,"byteLength":11052,"byteOffset":2214436,"target":34962},{"buffer":0,"byteLength":11052,"byteOffset":2225488,"target":34962},{"buffer":0,"byteLength":14736,"byteOffset":2236540,"target":34962},{"buffer":0,"byteLength":7368,"byteOffset":2251276,"target":34962},{"buffer":0,"byteLength":324,"byteOffset":2258644,"target":34963},{"buffer":0,"byteLength":1560,"byteOffset":2258968,"target":34962},{"buffer":0,"byteLength":1560,"byteOffset":2260528,"target":34962},{"buffer":0,"byteLength":2080,"byteOffset":2262088,"target":34962},{"buffer":0,"byteLength":1040,"byteOffset":2264168,"target":34962},{"buffer":0,"byteLength":753,"byteOffset":2265208,"target":34963},{"buffer":0,"byteLength":1812,"byteOffset":2265964,"target":34962},{"buffer":0,"byteLength":1812,"byteOffset":2267776,"target":34962},{"buffer":0,"byteLength":2416,"byteOffset":2269588,"target":34962},{"buffer":0,"byteLength":1208,"byteOffset":2272004,"target":34962},{"buffer":0,"byteLength":60,"byteOffset":2273212,"target":34963},{"buffer":0,"byteLength":288,"byteOffset":2273272,"target":34962},{"buffer":0,"byteLength":288,"byteOffset":2273560,"target":34962},{"buffer":0,"byteLength":384,"byteOffset":2273848,"target":34962},{"buffer":0,"byteLength":192,"byteOffset":2274232,"target":34962},{"buffer":0,"byteLength":2328,"byteOffset":2274424,"target":34963},{"buffer":0,"byteLength":5088,"byteOffset":2276752,"target":34962},{"buffer":0,"byteLength":5088,"byteOffset":2281840,"target":34962},{"buffer":0,"byteLength":6784,"byteOffset":2286928,"target":34962},{"buffer":0,"byteLength":3392,"byteOffset":2293712,"target":34962},{"buffer":0,"byteLength":3108,"byteOffset":2297104,"target":34963},{"buffer":0,"byteLength":7068,"byteOffset":2300212,"target":34962},{"buffer":0,"byteLength":7068,"byteOffset":2307280,"target":34962},{"buffer":0,"byteLength":9424,"byteOffset":2314348,"target":34962},{"buffer":0,"byteLength":4712,"byteOffset":2323772,"target":34962},{"buffer":0,"byteLength":462,"byteOffset":2328484,"target":34963},{"buffer":0,"byteLength":1608,"byteOffset":2328948,"target":34962},{"buffer":0,"byteLength":1608,"byteOffset":2330556,"target":34962},{"buffer":0,"byteLength":2144,"byteOffset":2332164,"target":34962},{"buffer":0,"byteLength":1072,"byteOffset":2334308,"target":34962},{"buffer":0,"byteLength":126,"byteOffset":2335380,"target":34963},{"buffer":0,"byteLength":1032,"byteOffset":2335508,"target":34962},{"buffer":0,"byteLength":1032,"byteOffset":2336540,"target":34962},{"buffer":0,"byteLength":1376,"byteOffset":2337572,"target":34962},{"buffer":0,"byteLength":688,"byteOffset":2338948,"target":34962},{"buffer":0,"byteLength":1062,"byteOffset":2339636,"target":34963},{"buffer":0,"byteLength":2976,"byteOffset":2340700,"target":34962},{"buffer":0,"byteLength":2976,"byteOffset":2343676,"target":34962},{"buffer":0,"byteLength":3968,"byteOffset":2346652,"target":34962},{"buffer":0,"byteLength":1984,"byteOffset":2350620,"target":34962},{"buffer":0,"byteLength":384,"byteOffset":2352604,"target":34963},{"buffer":0,"byteLength":1272,"byteOffset":2352988,"target":34962},{"buffer":0,"byteLength":1272,"byteOffset":2354260,"target":34962},{"buffer":0,"byteLength":1696,"byteOffset":2355532,"target":34962},{"buffer":0,"byteLength":848,"byteOffset":2357228,"target":34962},{"buffer":0,"byteLength":3462,"byteOffset":2358076,"target":34963},{"buffer":0,"byteLength":14052,"byteOffset":2361540,"target":34962},{"buffer":0,"byteLength":14052,"byteOffset":2375592,"target":34962},{"buffer":0,"byteLength":18736,"byteOffset":2389644,"target":34962},{"buffer":0,"byteLength":9368,"byteOffset":2408380,"target":34962},{"buffer":0,"byteLength":2328,"byteOffset":2417748,"target":34963},{"buffer":0,"byteLength":5196,"byteOffset":2420076,"target":34962},{"buffer":0,"byteLength":5196,"byteOffset":2425272,"target":34962},{"buffer":0,"byteLength":6928,"byteOffset":2430468,"target":34962},{"buffer":0,"byteLength":3464,"byteOffset":2437396,"target":34962},{"buffer":0,"byteLength":3498,"byteOffset":2440860,"target":34963},{"buffer":0,"byteLength":14844,"byteOffset":2444360,"target":34962},{"buffer":0,"byteLength":14844,"byteOffset":2459204,"target":34962},{"buffer":0,"byteLength":19792,"byteOffset":2474048,"target":34962},{"buffer":0,"byteLength":9896,"byteOffset":2493840,"target":34962},{"buffer":0,"byteLength":96,"byteOffset":2503736,"target":34963},{"buffer":0,"byteLength":456,"byteOffset":2503832,"target":34962},{"buffer":0,"byteLength":456,"byteOffset":2504288,"target":34962},{"buffer":0,"byteLength":608,"byteOffset":2504744,"target":34962},{"buffer":0,"byteLength":304,"byteOffset":2505352,"target":34962},{"buffer":0,"byteLength":1728,"byteOffset":2505656,"target":34963},{"buffer":0,"byteLength":4320,"byteOffset":2507384,"target":34962},{"buffer":0,"byteLength":4320,"byteOffset":2511704,"target":34962},{"buffer":0,"byteLength":5760,"byteOffset":2516024,"target":34962},{"buffer":0,"byteLength":2880,"byteOffset":2521784,"target":34962},{"buffer":0,"byteLength":96,"byteOffset":2524664,"target":34963},{"buffer":0,"byteLength":432,"byteOffset":2524760,"target":34962},{"buffer":0,"byteLength":432,"byteOffset":2525192,"target":34962},{"buffer":0,"byteLength":576,"byteOffset":2525624,"target":34962},{"buffer":0,"byteLength":288,"byteOffset":2526200,"target":34962},{"buffer":1,"byteOffset":0,"byteLength":63792,"target":34962},{"buffer":1,"byteOffset":63792,"byteLength":63792,"target":34962},{"buffer":1,"byteOffset":127584,"byteLength":5508,"target":34962},{"buffer":1,"byteOffset":133092,"byteLength":5508,"target":34962},{"buffer":1,"byteOffset":138600,"byteLength":3672,"target":34962}],"buffers":[{"byteLength":2526488,"extras":{},"uri":"../ec35-v1-0.bin"},{"uri":"ec35-tail-v1.bin?tail=2","byteLength":142272}],"images":[{"bufferView":0,"mimeType":"image/png","name":"WhiteDefault.png","extras":{}},{"bufferView":1,"mimeType":"image/png","name":"addparts.png","extras":{}},{"bufferView":2,"mimeType":"image/png","name":"Rotorblade.png","extras":{}},{"uri":"../../../airlines/QFA.png"}],"materials":[{"name":"Black","pbrMetallicRoughness":{"baseColorFactor":[0.007999999940395353,0.007999999940395353,0.007999999940395353,1],"metallicFactor":0}},{"name":"Flexbeam","pbrMetallicRoughness":{"baseColorFactor":[0.44665361116310365,0.1892208008352041,0.1892208008352041,1],"metallicFactor":0}},{"name":"fuselage","pbrMetallicRoughness":{"baseColorFactor":[0.800000011920929,0.800000011920929,0.800000011920929,1],"baseColorTexture":{"index":0},"metallicFactor":0}},{"name":"fuselage.001","pbrMetallicRoughness":{"baseColorFactor":[0.800000011920929,0.800000011920929,0.800000011920929,1],"baseColorTexture":{"index":1},"metallicFactor":0}},{"name":"fuselage.002","pbrMetallicRoughness":{"baseColorFactor":[0.800000011920929,0.800000011920929,0.800000011920929,1],"metallicFactor":0}},{"alphaMode":"BLEND","name":"glas","pbrMetallicRoughness":{"baseColorFactor":[0.7199999916553494,0.7199999916553494,0.7199999916553494,0.5],"metallicFactor":0}},{"name":"Mast","pbrMetallicRoughness":{"baseColorFactor":[0.3359999945163725,0.3359999945163725,0.3359999945163725,1],"metallicFactor":0}},{"name":"Rotor","pbrMetallicRoughness":{"baseColorFactor":[0.800000011920929,0.800000011920929,0.800000011920929,1],"baseColorTexture":{"index":2},"metallicFactor":0}},{"name":"Rotor.001","pbrMetallicRoughness":{"baseColorFactor":[0.800000011920929,0.800000011920929,0.800000011920929,1],"metallicFactor":0}},{"name":"Operator tail paint","doubleSided":true,"pbrMetallicRoughness":{"baseColorFactor":[0.796078431372549,0.12549019607843137,0.2,1],"metallicFactor":0,"roughnessFactor":0.65}},{"name":"Operator logo identification","doubleSided":true,"alphaMode":"MASK","alphaCutoff":0.08,"pbrMetallicRoughness":{"baseColorTexture":{"index":3},"metallicFactor":0,"roughnessFactor":0.7},"emissiveFactor":[0.18,0.18,0.18],"emissiveTexture":{"index":3}}],"meshes":[{"name":"Mesh.261","primitives":[{"attributes":{"NORMAL":2,"POSITION":1,"TANGENT":3,"TEXCOORD_0":4},"indices":0,"material":2}]},{"name":"Circle.040","primitives":[{"attributes":{"NORMAL":7,"POSITION":6,"TANGENT":8,"TEXCOORD_0":9},"indices":5,"material":7}]},{"name":"Circle.039","primitives":[{"attributes":{"NORMAL":12,"POSITION":11,"TANGENT":13,"TEXCOORD_0":14},"indices":10,"material":7}]},{"name":"Plane.053","primitives":[{"attributes":{"NORMAL":17,"POSITION":16,"TANGENT":18,"TEXCOORD_0":19},"indices":15,"material":3}]},{"name":"Mesh.265","primitives":[{"attributes":{"NORMAL":22,"POSITION":21,"TANGENT":23,"TEXCOORD_0":24},"indices":20,"material":2}]},{"name":"Mesh.268","primitives":[{"attributes":{"NORMAL":27,"POSITION":26,"TANGENT":28,"TEXCOORD_0":29},"indices":25,"material":2}]},{"name":"Plane.050","primitives":[{"attributes":{"NORMAL":32,"POSITION":31,"TANGENT":33,"TEXCOORD_0":34},"indices":30,"material":4}]},{"name":"Cylinder.036","primitives":[{"attributes":{"NORMAL":37,"POSITION":36,"TANGENT":38,"TEXCOORD_0":39},"indices":35,"material":5}]},{"name":"Sphere.006","primitives":[{"attributes":{"NORMAL":42,"POSITION":41,"TANGENT":43,"TEXCOORD_0":44},"indices":40,"material":3}]},{"name":"Circle.038","primitives":[{"attributes":{"NORMAL":47,"POSITION":46,"TANGENT":48,"TEXCOORD_0":49},"indices":45,"material":7}]},{"name":"Cylinder.010","primitives":[{"attributes":{"NORMAL":52,"POSITION":51,"TANGENT":53,"TEXCOORD_0":54},"indices":50,"material":7}]},{"name":"Cylinder.002","primitives":[{"attributes":{"NORMAL":57,"POSITION":56,"TANGENT":58,"TEXCOORD_0":59},"indices":55,"material":6}]},{"name":"Mesh.273","primitives":[{"attributes":{"NORMAL":62,"POSITION":61,"TANGENT":63,"TEXCOORD_0":64},"indices":60,"material":2}]},{"name":"Circle","primitives":[{"attributes":{"NORMAL":67,"POSITION":66,"TANGENT":68,"TEXCOORD_0":69},"indices":65,"material":2}]},{"name":"Circle.033","primitives":[{"attributes":{"NORMAL":72,"POSITION":71,"TANGENT":73,"TEXCOORD_0":74},"indices":70,"material":7}]},{"name":"Plane.011","primitives":[{"attributes":{"NORMAL":77,"POSITION":76,"TANGENT":78,"TEXCOORD_0":79},"indices":75,"material":8}]},{"name":"Plane.054","primitives":[{"attributes":{"NORMAL":82,"POSITION":81,"TANGENT":83,"TEXCOORD_0":84},"indices":80,"material":2}]},{"name":"Mesh.269","primitives":[{"attributes":{"NORMAL":87,"POSITION":86,"TANGENT":88,"TEXCOORD_0":89},"indices":85,"material":2}]},{"name":"Cylinder.004","primitives":[{"attributes":{"NORMAL":92,"POSITION":91,"TANGENT":93,"TEXCOORD_0":94},"indices":90,"material":7}]},{"name":"Mesh.260","primitives":[{"attributes":{"NORMAL":97,"POSITION":96,"TANGENT":98,"TEXCOORD_0":99},"indices":95,"material":2}]},{"name":"Plane.019","primitives":[{"attributes":{"NORMAL":102,"POSITION":101,"TANGENT":103,"TEXCOORD_0":104},"indices":100,"material":8}]},{"name":"Sphere.007","primitives":[{"attributes":{"NORMAL":107,"POSITION":106,"TANGENT":108,"TEXCOORD_0":109},"indices":105,"material":3}]},{"name":"Cylinder.027","primitives":[{"attributes":{"NORMAL":112,"POSITION":111,"TANGENT":113,"TEXCOORD_0":114},"indices":110,"material":2}]},{"name":"Cylinder.003","primitives":[{"attributes":{"NORMAL":117,"POSITION":116,"TANGENT":118,"TEXCOORD_0":119},"indices":115,"material":6}]},{"name":"Mesh.277","primitives":[{"attributes":{"NORMAL":122,"POSITION":121,"TANGENT":123,"TEXCOORD_0":124},"indices":120,"material":5}]},{"name":"Circle.034","primitives":[{"attributes":{"NORMAL":127,"POSITION":126,"TANGENT":128,"TEXCOORD_0":129},"indices":125,"material":7}]},{"name":"Circle.026","primitives":[{"attributes":{"NORMAL":132,"POSITION":131,"TANGENT":133,"TEXCOORD_0":134},"indices":130,"material":7}]},{"name":"Circle.025","primitives":[{"attributes":{"NORMAL":137,"POSITION":136,"TANGENT":138,"TEXCOORD_0":139},"indices":135,"material":7}]},{"name":"Plane.006","primitives":[{"attributes":{"NORMAL":142,"POSITION":141,"TANGENT":143,"TEXCOORD_0":144},"indices":140,"material":2}]},{"name":"Mesh.279","primitives":[{"attributes":{"NORMAL":147,"POSITION":146,"TANGENT":148,"TEXCOORD_0":149},"indices":145,"material":3}]},{"name":"Mesh.280","primitives":[{"attributes":{"NORMAL":152,"POSITION":151,"TANGENT":153,"TEXCOORD_0":154},"indices":150,"material":5}]},{"name":"Cylinder.028","primitives":[{"attributes":{"NORMAL":157,"POSITION":156,"TANGENT":158,"TEXCOORD_0":159},"indices":155,"material":2}]},{"name":"Sphere.004","primitives":[{"attributes":{"NORMAL":162,"POSITION":161,"TANGENT":163,"TEXCOORD_0":164},"indices":160,"material":2}]},{"name":"Circle.041","primitives":[{"attributes":{"NORMAL":167,"POSITION":166,"TANGENT":168,"TEXCOORD_0":169},"indices":165,"material":7}]},{"name":"Circle.037","primitives":[{"attributes":{"NORMAL":172,"POSITION":171,"TANGENT":173,"TEXCOORD_0":174},"indices":170,"material":7}]},{"name":"Mesh.264","primitives":[{"attributes":{"NORMAL":177,"POSITION":176,"TANGENT":178,"TEXCOORD_0":179},"indices":175,"material":2}]},{"name":"Circle.028","primitives":[{"attributes":{"NORMAL":182,"POSITION":181,"TANGENT":183,"TEXCOORD_0":184},"indices":180,"material":7}]},{"name":"Mesh.263","primitives":[{"attributes":{"NORMAL":187,"POSITION":186,"TANGENT":188,"TEXCOORD_0":189},"indices":185,"material":2}]},{"name":"Circle.031","primitives":[{"attributes":{"NORMAL":192,"POSITION":191,"TANGENT":193,"TEXCOORD_0":194},"indices":190,"material":7}]},{"name":"Mesh.271","primitives":[{"attributes":{"NORMAL":197,"POSITION":196,"TANGENT":198,"TEXCOORD_0":199},"indices":195,"material":5}]},{"name":"Plane.021","primitives":[{"attributes":{"NORMAL":202,"POSITION":201,"TANGENT":203,"TEXCOORD_0":204},"indices":200,"material":3}]},{"name":"Cylinder.033","primitives":[{"attributes":{"NORMAL":207,"POSITION":206,"TANGENT":208,"TEXCOORD_0":209},"indices":205,"material":5}]},{"name":"Plane.047","primitives":[{"attributes":{"NORMAL":212,"POSITION":211,"TANGENT":213,"TEXCOORD_0":214},"indices":210,"material":4}]},{"name":"Mesh.282","primitives":[{"attributes":{"NORMAL":217,"POSITION":216,"TANGENT":218,"TEXCOORD_0":219},"indices":215,"material":5}]},{"name":"Mesh.258","primitives":[{"attributes":{"NORMAL":222,"POSITION":221,"TANGENT":223,"TEXCOORD_0":224},"indices":220,"material":2}]},{"name":"Mesh.267","primitives":[{"attributes":{"NORMAL":227,"POSITION":226,"TANGENT":228,"TEXCOORD_0":229},"indices":225,"material":2}]},{"name":"Mesh.000","primitives":[{"attributes":{"NORMAL":232,"POSITION":231,"TANGENT":233,"TEXCOORD_0":234},"indices":230,"material":2}]},{"name":"Circle.035","primitives":[{"attributes":{"NORMAL":237,"POSITION":236,"TANGENT":238,"TEXCOORD_0":239},"indices":235,"material":7}]},{"name":"Plane.001","primitives":[{"attributes":{"NORMAL":242,"POSITION":241,"TANGENT":243,"TEXCOORD_0":244},"indices":240,"material":8}]},{"name":"Mesh.002","primitives":[{"attributes":{"NORMAL":247,"POSITION":246,"TANGENT":248,"TEXCOORD_0":249},"indices":245,"material":5}]},{"name":"Cylinder.009","primitives":[{"attributes":{"NORMAL":252,"POSITION":251,"TANGENT":253,"TEXCOORD_0":254},"indices":250,"material":7}]},{"name":"Cylinder","primitives":[{"attributes":{"NORMAL":257,"POSITION":256,"TANGENT":258,"TEXCOORD_0":259},"indices":255,"material":0}]},{"name":"Mesh.257","primitives":[{"attributes":{"NORMAL":262,"POSITION":261,"TANGENT":263,"TEXCOORD_0":264},"indices":260,"material":2}]},{"name":"Circle.027","primitives":[{"attributes":{"NORMAL":267,"POSITION":266,"TANGENT":268,"TEXCOORD_0":269},"indices":265,"material":7}]},{"name":"Sphere.005","primitives":[{"attributes":{"NORMAL":272,"POSITION":271,"TANGENT":273,"TEXCOORD_0":274},"indices":270,"material":3}]},{"name":"Cylinder.024","primitives":[{"attributes":{"NORMAL":277,"POSITION":276,"TANGENT":278,"TEXCOORD_0":279},"indices":275,"material":2}]},{"name":"Mesh.256","primitives":[{"attributes":{"NORMAL":282,"POSITION":281,"TANGENT":283,"TEXCOORD_0":284},"indices":280,"material":2}]},{"name":"Mesh.278","primitives":[{"attributes":{"NORMAL":287,"POSITION":286,"TANGENT":288,"TEXCOORD_0":289},"indices":285,"material":5}]},{"name":"Mesh.270","primitives":[{"attributes":{"NORMAL":292,"POSITION":291,"TANGENT":293,"TEXCOORD_0":294},"indices":290,"material":5}]},{"name":"Plane.061","primitives":[{"attributes":{"NORMAL":297,"POSITION":296,"TANGENT":298,"TEXCOORD_0":299},"indices":295,"material":0}]},{"name":"Circle.030","primitives":[{"attributes":{"NORMAL":302,"POSITION":301,"TANGENT":303,"TEXCOORD_0":304},"indices":300,"material":7}]},{"name":"Plane.001_Plane","primitives":[{"attributes":{"NORMAL":307,"POSITION":306,"TANGENT":308,"TEXCOORD_0":309},"indices":305,"material":2}]},{"name":"Circle.042","primitives":[{"attributes":{"NORMAL":312,"POSITION":311,"TANGENT":313,"TEXCOORD_0":314},"indices":310,"material":7}]},{"name":"Mesh.262","primitives":[{"attributes":{"NORMAL":317,"POSITION":316,"TANGENT":318,"TEXCOORD_0":319},"indices":315,"material":2}]},{"name":"Plane.016","primitives":[{"attributes":{"NORMAL":322,"POSITION":321,"TANGENT":323,"TEXCOORD_0":324},"indices":320,"material":3}]},{"name":"Plane.025","primitives":[{"attributes":{"NORMAL":327,"POSITION":326,"TANGENT":328,"TEXCOORD_0":329},"indices":325,"material":8}]},{"name":"Cube.002","primitives":[{"attributes":{"NORMAL":332,"POSITION":331,"TANGENT":333,"TEXCOORD_0":334},"indices":330,"material":6}]},{"name":"Mesh.259","primitives":[{"attributes":{"NORMAL":337,"POSITION":336,"TANGENT":338,"TEXCOORD_0":339},"indices":335,"material":2}]},{"name":"Plane.049","primitives":[{"attributes":{"NORMAL":342,"POSITION":341,"TANGENT":343,"TEXCOORD_0":344},"indices":340,"material":3}]},{"name":"Mesh.266","primitives":[{"attributes":{"NORMAL":347,"POSITION":346,"TANGENT":348,"TEXCOORD_0":349},"indices":345,"material":2}]},{"name":"Mesh.274","primitives":[{"attributes":{"NORMAL":352,"POSITION":351,"TANGENT":353,"TEXCOORD_0":354},"indices":350,"material":2}]},{"name":"Circle.029","primitives":[{"attributes":{"NORMAL":357,"POSITION":356,"TANGENT":358,"TEXCOORD_0":359},"indices":355,"material":7}]},{"name":"Mesh.255","primitives":[{"attributes":{"NORMAL":362,"POSITION":361,"TANGENT":363,"TEXCOORD_0":364},"indices":360,"material":2}]},{"name":"Plane.005","primitives":[{"attributes":{"NORMAL":367,"POSITION":366,"TANGENT":368,"TEXCOORD_0":369},"indices":365,"material":2}]},{"name":"Plane.059","primitives":[{"attributes":{"NORMAL":372,"POSITION":371,"TANGENT":373,"TEXCOORD_0":374},"indices":370,"material":0}]},{"name":"Circle.043","primitives":[{"attributes":{"NORMAL":377,"POSITION":376,"TANGENT":378,"TEXCOORD_0":379},"indices":375,"material":7}]},{"name":"Cylinder.011","primitives":[{"attributes":{"NORMAL":382,"POSITION":381,"TANGENT":383,"TEXCOORD_0":384},"indices":380,"material":7}]},{"name":"Mesh.007","primitives":[{"attributes":{"NORMAL":387,"POSITION":386,"TANGENT":388,"TEXCOORD_0":389},"indices":385,"material":5}]},{"name":"Circle.023","primitives":[{"attributes":{"NORMAL":392,"POSITION":391,"TANGENT":393,"TEXCOORD_0":394},"indices":390,"material":7}]},{"name":"Mesh.281","primitives":[{"attributes":{"NORMAL":397,"POSITION":396,"TANGENT":398,"TEXCOORD_0":399},"indices":395,"material":5}]},{"name":"Circle.036","primitives":[{"attributes":{"NORMAL":402,"POSITION":401,"TANGENT":403,"TEXCOORD_0":404},"indices":400,"material":7}]},{"name":"Circle.022","primitives":[{"attributes":{"NORMAL":407,"POSITION":406,"TANGENT":408,"TEXCOORD_0":409},"indices":405,"material":1}]},{"name":"Circle.032","primitives":[{"attributes":{"NORMAL":412,"POSITION":411,"TANGENT":413,"TEXCOORD_0":414},"indices":410,"material":7}]},{"name":"Airline tail surface overlay","primitives":[{"attributes":{"POSITION":415,"NORMAL":416},"material":9},{"attributes":{"POSITION":417,"NORMAL":418,"TEXCOORD_0":419},"material":10}]}],"nodes":[{"mesh":67,"name":"backdoor.L"},{"mesh":19,"name":"backdoor.R"},{"mesh":24,"name":"backdoorglas.L"},{"mesh":57,"name":"backdoorglas.R"},{"mesh":64,"name":"backdoorhandle.L"},{"mesh":68,"name":"backdoorhandle.R"},{"mesh":13,"name":"BigRadom"},{"mesh":78,"name":"blade1"},{"name":"blade1.002"},{"mesh":27,"name":"blade1a"},{"mesh":26,"name":"blade1b"},{"mesh":53,"name":"blade1c"},{"mesh":36,"name":"blade1d"},{"mesh":71,"name":"blade2"},{"mesh":60,"name":"blade2a"},{"mesh":38,"name":"blade2b"},{"mesh":82,"name":"blade2c"},{"mesh":14,"name":"blade2d"},{"mesh":25,"name":"blade3"},{"mesh":47,"name":"blade3a"},{"mesh":80,"name":"blade3b"},{"mesh":34,"name":"blade3c"},{"mesh":9,"name":"blade3d"},{"mesh":2,"name":"blade4"},{"mesh":1,"name":"blade4a"},{"mesh":33,"name":"blade4b"},{"mesh":62,"name":"blade4c"},{"mesh":75,"name":"blade4d"},{"children":[29],"name":"blurred1a"},{"mesh":48,"name":"blurred1a_0"},{"children":[31],"name":"blurred2a"},{"mesh":15,"name":"blurred2a_0"},{"children":[33],"name":"blurred3a"},{"mesh":20,"name":"blurred3a_0"},{"children":[35],"name":"blurred4a"},{"mesh":65,"name":"blurred4a_0"},{"mesh":73,"name":"buckle"},{"name":"Cube.001"},{"mesh":11,"name":"Cylinder.001"},{"mesh":61,"name":"DoubleCargoHook"},{"children":[0,1,6,36,39,44,45,51,54,55,57,58,59,60,65,68,69,70,71,72,73,75,76,81,82,83,84,87,88,89,92],"name":"EC135"},{"mesh":6,"name":"engine"},{"mesh":29,"name":"exhaust"},{"mesh":81,"name":"Flexbeam"},{"mesh":0,"name":"frontdoor.L"},{"mesh":63,"name":"frontdoor.R"},{"mesh":30,"name":"frontdoorglas.L"},{"mesh":79,"name":"frontdoorglas.R"},{"mesh":40,"name":"frontdoorhandle.L"},{"mesh":3,"name":"frontdoorhandle.R"},{"mesh":21,"name":"frontlight"},{"mesh":46,"name":"fuselage"},{"mesh":43,"name":"glas"},{"name":"Hemi"},{"mesh":72,"name":"IBF"},{"mesh":55,"name":"longskid_floats"},{"mesh":23,"name":"mastandswashplate"},{"mesh":22,"name":"multifunctioncarrier"},{"mesh":37,"name":"nonIBF"},{"mesh":35,"name":"nose"},{"mesh":4,"name":"nosefl"},{"mesh":18,"name":"pitchlink1"},{"mesh":50,"name":"pitchlink2"},{"mesh":10,"name":"pitchlink3"},{"mesh":76,"name":"pitchlink4"},{"mesh":56,"name":"Plane"},{"name":"Plane.002"},{"name":"Plane.003"},{"mesh":69,"name":"reardoor.L"},{"mesh":45,"name":"reardoor.R"},{"mesh":5,"name":"reardoor_win.L"},{"mesh":17,"name":"reardoor_win.R"},{"mesh":58,"name":"rearwin.L"},{"mesh":39,"name":"rearwin.R"},{"mesh":41,"name":"rotor_disc_T"},{"mesh":32,"name":"rotorcap"},{"mesh":31,"name":"roundstep"},{"mesh":66,"name":"scissor"},{"mesh":51,"name":"searchlight_fronthold"},{"mesh":54,"name":"SLLight.L"},{"mesh":8,"name":"SLLight.R"},{"mesh":52,"name":"SLLight_Cover.L"},{"mesh":44,"name":"SLLight_Cover.R"},{"mesh":12,"name":"smallradom"},{"mesh":28,"name":"standardstep"},{"mesh":7,"name":"strobes"},{"mesh":42,"name":"Tblade"},{"mesh":70,"name":"triangle"},{"mesh":77,"name":"windscreen"},{"mesh":49,"name":"windscreen_tri"},{"mesh":74,"name":"wiper1"},{"mesh":59,"name":"wiperblade"},{"mesh":16,"name":"wirecutter_skid"},{"name":"SkywardCoordinateAlignment","matrix":[1,0,0,0,0,1,0,0,0,0,1,0,0,0,0,1],"children":[77,64,63,62,61,56,34,32,30,28,27,26,25,24,23,22,21,20,19,18,17,16,15,14,13,12,11,10,9,8,7,43,38,53,91,90,85,78,74,52,50,49,48,47,46,42,41,5,4,3,2,86,80,79,67,66,37,40]},{"name":"AirlineTailBranding","mesh":83}],"samplers":[{},{"magFilter":9729,"minFilter":9987,"wrapS":33071,"wrapT":33071}],"scene":0,"scenes":[{"name":"Scene","nodes":[93,94]}],"textures":[{"sampler":0,"source":0},{"sampler":0,"source":1},{"sampler":0,"source":2},{"source":3,"sampler":1}],"extras":{"skyward":{"source":"https://github.com/Ysurac/FlightAirMap-3dmodels","commit":"0906d9ba1bdd906ce45807e45ed706c09912db19","changes":"Converted legacy glTF to glTF 2.0 with Cesium; rigid axis alignment, horizontal centering, and source transforms baked into positions/normals for correct Cesium bounds. Original shape, materials and paint retained. Added surface-following operator tail paint and unmodified identification-logo texture. Branding is illustrative, not a registration-specific livery.","license":"GPL-2.0","sourceFiles":["source/flightairmap/ec35/LICENSE","source/flightairmap/ec35/ec135.blend"],"operator":"QFA"}}}