{"asset":{"version":"2.0","copyright":"Dassault Falcon 50: original FlightGear / FGMEMBERS model authors; GPL-2.0. Original source and license in source/business/fa50."},"scene":0,"scenes":[{"nodes":[0,1,2,3,4,5,6,7,8,9,10,11,12,13,14,15,16,17,18,19,20,21,22,23,24,25,26,27,28,29,30,31,32,33,34,35,36,37,38,39]}],"nodes":[{"name":"aileronD","mesh":0},{"name":"aileronG","mesh":1},{"name":"ailes","mesh":2},{"name":"ailes2","mesh":3},{"name":"antennes","mesh":4},{"name":"deflecteurD","mesh":5},{"name":"deflecteurG","mesh":6},{"name":"direction","mesh":7},{"name":"entremoteurs","mesh":8},{"name":"freinD1","mesh":9},{"name":"freinD2","mesh":10},{"name":"freinG1","mesh":11},{"name":"freinG2","mesh":12},{"name":"fuselage","mesh":13},{"name":"heliceCB","mesh":14},{"name":"heliceD","mesh":15},{"name":"heliceG","mesh":16},{"name":"moteurs","mesh":17},{"name":"porte","mesh":18},{"name":"porteAA","mesh":19},{"name":"porteAB","mesh":20},{"name":"porteAD","mesh":21},{"name":"porteAG","mesh":22},{"name":"porteD1","mesh":23},{"name":"porteD2","mesh":24},{"name":"porteG1","mesh":25},{"name":"porteG2","mesh":26},{"name":"profondeurD","mesh":27},{"name":"profondeurG","mesh":28},{"name":"slatD1","mesh":29},{"name":"slatD2","mesh":30},{"name":"slatG1","mesh":31},{"name":"slatG2","mesh":32},{"name":"trous","mesh":33},{"name":"vitres","mesh":34},{"name":"voletD1","mesh":35},{"name":"voletD2","mesh":36},{"name":"voletG1","mesh":37},{"name":"voletG2","mesh":38},{"name":"AirlineTailBranding","mesh":39}],"meshes":[{"name":"aileronD","primitives":[{"attributes":{"POSITION":0,"NORMAL":1,"TEXCOORD_0":2},"material":0}]},{"name":"aileronG","primitives":[{"attributes":{"POSITION":3,"NORMAL":4,"TEXCOORD_0":5},"material":0}]},{"name":"ailes","primitives":[{"attributes":{"POSITION":6,"NORMAL":7,"TEXCOORD_0":8},"material":0}]},{"name":"ailes2","primitives":[{"attributes":{"POSITION":9,"NORMAL":10,"TEXCOORD_0":11},"material":0}]},{"name":"antennes","primitives":[{"attributes":{"POSITION":12,"NORMAL":13,"TEXCOORD_0":14},"material":0}]},{"name":"deflecteurD","primitives":[{"attributes":{"POSITION":15,"NORMAL":16,"TEXCOORD_0":17},"material":0}]},{"name":"deflecteurG","primitives":[{"attributes":{"POSITION":18,"NORMAL":19,"TEXCOORD_0":20},"material":0}]},{"name":"direction","primitives":[{"attributes":{"POSITION":21,"NORMAL":22,"TEXCOORD_0":23},"material":0}]},{"name":"entremoteurs","primitives":[{"attributes":{"POSITION":24,"NORMAL":25,"TEXCOORD_0":26},"material":0}]},{"name":"freinD1","primitives":[{"attributes":{"POSITION":27,"NORMAL":28,"TEXCOORD_0":29},"material":0}]},{"name":"freinD2","primitives":[{"attributes":{"POSITION":30,"NORMAL":31,"TEXCOORD_0":32},"material":0}]},{"name":"freinG1","primitives":[{"attributes":{"POSITION":33,"NORMAL":34,"TEXCOORD_0":35},"material":0}]},{"name":"freinG2","primitives":[{"attributes":{"POSITION":36,"NORMAL":37,"TEXCOORD_0":38},"material":0}]},{"name":"fuselage","primitives":[{"attributes":{"POSITION":39,"NORMAL":40,"TEXCOORD_0":41},"material":0}]},{"name":"heliceCB","primitives":[{"attributes":{"POSITION":42,"NORMAL":43,"TEXCOORD_0":44},"material":0}]},{"name":"heliceD","primitives":[{"attributes":{"POSITION":45,"NORMAL":46,"TEXCOORD_0":47},"material":0}]},{"name":"heliceG","primitives":[{"attributes":{"POSITION":48,"NORMAL":49,"TEXCOORD_0":50},"material":0}]},{"name":"moteurs","primitives":[{"attributes":{"POSITION":51,"NORMAL":52,"TEXCOORD_0":53},"material":0}]},{"name":"porte","primitives":[{"attributes":{"POSITION":54,"NORMAL":55,"TEXCOORD_0":56},"material":0}]},{"name":"porteAA","primitives":[{"attributes":{"POSITION":57,"NORMAL":58,"TEXCOORD_0":59},"material":0}]},{"name":"porteAB","primitives":[{"attributes":{"POSITION":60,"NORMAL":61,"TEXCOORD_0":62},"material":0}]},{"name":"porteAD","primitives":[{"attributes":{"POSITION":63,"NORMAL":64,"TEXCOORD_0":65},"material":0}]},{"name":"porteAG","primitives":[{"attributes":{"POSITION":66,"NORMAL":67,"TEXCOORD_0":68},"material":0}]},{"name":"porteD1","primitives":[{"attributes":{"POSITION":69,"NORMAL":70,"TEXCOORD_0":71},"material":0}]},{"name":"porteD2","primitives":[{"attributes":{"POSITION":72,"NORMAL":73,"TEXCOORD_0":74},"material":0}]},{"name":"porteG1","primitives":[{"attributes":{"POSITION":75,"NORMAL":76,"TEXCOORD_0":77},"material":0}]},{"name":"porteG2","primitives":[{"attributes":{"POSITION":78,"NORMAL":79,"TEXCOORD_0":80},"material":0}]},{"name":"profondeurD","primitives":[{"attributes":{"POSITION":81,"NORMAL":82,"TEXCOORD_0":83},"material":0}]},{"name":"profondeurG","primitives":[{"attributes":{"POSITION":84,"NORMAL":85,"TEXCOORD_0":86},"material":0}]},{"name":"slatD1","primitives":[{"attributes":{"POSITION":87,"NORMAL":88,"TEXCOORD_0":89},"material":0}]},{"name":"slatD2","primitives":[{"attributes":{"POSITION":90,"NORMAL":91,"TEXCOORD_0":92},"material":0}]},{"name":"slatG1","primitives":[{"attributes":{"POSITION":93,"NORMAL":94,"TEXCOORD_0":95},"material":0}]},{"name":"slatG2","primitives":[{"attributes":{"POSITION":96,"NORMAL":97,"TEXCOORD_0":98},"material":0}]},{"name":"trous","primitives":[{"attributes":{"POSITION":99,"NORMAL":100,"TEXCOORD_0":101},"material":0}]},{"name":"vitres","primitives":[{"attributes":{"POSITION":102,"NORMAL":103,"TEXCOORD_0":104},"material":1}]},{"name":"voletD1","primitives":[{"attributes":{"POSITION":105,"NORMAL":106,"TEXCOORD_0":107},"material":0}]},{"name":"voletD2","primitives":[{"attributes":{"POSITION":108,"NORMAL":109,"TEXCOORD_0":110},"material":0}]},{"name":"voletG1","primitives":[{"attributes":{"POSITION":111,"NORMAL":112,"TEXCOORD_0":113},"material":0}]},{"name":"voletG2","primitives":[{"attributes":{"POSITION":114,"NORMAL":115,"TEXCOORD_0":116},"material":0}]},{"name":"Airline tail surface overlay","primitives":[{"attributes":{"POSITION":117,"NORMAL":118},"material":2},{"attributes":{"POSITION":119,"NORMAL":120,"TEXCOORD_0":121},"material":3}]}],"materials":[{"name":"texture.png","doubleSided":true,"pbrMetallicRoughness":{"metallicFactor":0.08,"roughnessFactor":0.65,"baseColorFactor":[1,1,1,1],"baseColorTexture":{"index":0}}},{"name":"vitres","doubleSided":true,"pbrMetallicRoughness":{"metallicFactor":0.08,"roughnessFactor":0.65,"baseColorFactor":[0.547091,0.565624,0.595981,0.5]},"alphaMode":"BLEND"},{"name":"Operator tail paint","doubleSided":true,"pbrMetallicRoughness":{"baseColorFactor":[0.09803921568627451,0.2235294117647059,0.4745098039215686,1],"metallicFactor":0,"roughnessFactor":0.65}},{"name":"Operator logo identification","doubleSided":true,"alphaMode":"MASK","alphaCutoff":0.08,"pbrMetallicRoughness":{"baseColorTexture":{"index":1},"metallicFactor":0,"roughnessFactor":0.7},"emissiveFactor":[0.18,0.18,0.18],"emissiveTexture":{"index":1}}],"images":[{"bufferView":0,"mimeType":"image/png"},{"uri":"../../../airlines/JBU.png"}],"textures":[{"sampler":0,"source":0},{"source":1,"sampler":1}],"samplers":[{"magFilter":9729,"minFilter":9987,"wrapS":10497,"wrapT":10497},{"magFilter":9729,"minFilter":9987,"wrapS":33071,"wrapT":33071}],"buffers":[{"uri":"../fa50-v1.bin","byteLength":2648676},{"uri":"fa50-tail-v1.bin?tail=2","byteLength":44928}],"bufferViews":[{"buffer":0,"byteOffset":0,"byteLength":1325026},{"buffer":0,"byteOffset":1325028,"byteLength":2448,"target":34962},{"buffer":0,"byteOffset":1327476,"byteLength":2448,"target":34962},{"buffer":0,"byteOffset":1329924,"byteLength":1632,"target":34962},{"buffer":0,"byteOffset":1331556,"byteLength":2448,"target":34962},{"buffer":0,"byteOffset":1334004,"byteLength":2448,"target":34962},{"buffer":0,"byteOffset":1336452,"byteLength":1632,"target":34962},{"buffer":0,"byteOffset":1338084,"byteLength":56808,"target":34962},{"buffer":0,"byteOffset":1394892,"byteLength":56808,"target":34962},{"buffer":0,"byteOffset":1451700,"byteLength":37872,"target":34962},{"buffer":0,"byteOffset":1489572,"byteLength":48672,"target":34962},{"buffer":0,"byteOffset":1538244,"byteLength":48672,"target":34962},{"buffer":0,"byteOffset":1586916,"byteLength":32448,"target":34962},{"buffer":0,"byteOffset":1619364,"byteLength":27792,"target":34962},{"buffer":0,"byteOffset":1647156,"byteLength":27792,"target":34962},{"buffer":0,"byteOffset":1674948,"byteLength":18528,"target":34962},{"buffer":0,"byteOffset":1693476,"byteLength":12096,"target":34962},{"buffer":0,"byteOffset":1705572,"byteLength":12096,"target":34962},{"buffer":0,"byteOffset":1717668,"byteLength":8064,"target":34962},{"buffer":0,"byteOffset":1725732,"byteLength":12096,"target":34962},{"buffer":0,"byteOffset":1737828,"byteLength":12096,"target":34962},{"buffer":0,"byteOffset":1749924,"byteLength":8064,"target":34962},{"buffer":0,"byteOffset":1757988,"byteLength":2016,"target":34962},{"buffer":0,"byteOffset":1760004,"byteLength":2016,"target":34962},{"buffer":0,"byteOffset":1762020,"byteLength":1344,"target":34962},{"buffer":0,"byteOffset":1763364,"byteLength":5760,"target":34962},{"buffer":0,"byteOffset":1769124,"byteLength":5760,"target":34962},{"buffer":0,"byteOffset":1774884,"byteLength":3840,"target":34962},{"buffer":0,"byteOffset":1778724,"byteLength":432,"target":34962},{"buffer":0,"byteOffset":1779156,"byteLength":432,"target":34962},{"buffer":0,"byteOffset":1779588,"byteLength":288,"target":34962},{"buffer":0,"byteOffset":1779876,"byteLength":432,"target":34962},{"buffer":0,"byteOffset":1780308,"byteLength":432,"target":34962},{"buffer":0,"byteOffset":1780740,"byteLength":288,"target":34962},{"buffer":0,"byteOffset":1781028,"byteLength":432,"target":34962},{"buffer":0,"byteOffset":1781460,"byteLength":432,"target":34962},{"buffer":0,"byteOffset":1781892,"byteLength":288,"target":34962},{"buffer":0,"byteOffset":1782180,"byteLength":432,"target":34962},{"buffer":0,"byteOffset":1782612,"byteLength":432,"target":34962},{"buffer":0,"byteOffset":1783044,"byteLength":288,"target":34962},{"buffer":0,"byteOffset":1783332,"byteLength":137880,"target":34962},{"buffer":0,"byteOffset":1921212,"byteLength":137880,"target":34962},{"buffer":0,"byteOffset":2059092,"byteLength":91920,"target":34962},{"buffer":0,"byteOffset":2151012,"byteLength":8064,"target":34962},{"buffer":0,"byteOffset":2159076,"byteLength":8064,"target":34962},{"buffer":0,"byteOffset":2167140,"byteLength":5376,"target":34962},{"buffer":0,"byteOffset":2172516,"byteLength":16128,"target":34962},{"buffer":0,"byteOffset":2188644,"byteLength":16128,"target":34962},{"buffer":0,"byteOffset":2204772,"byteLength":10752,"target":34962},{"buffer":0,"byteOffset":2215524,"byteLength":16128,"target":34962},{"buffer":0,"byteOffset":2231652,"byteLength":16128,"target":34962},{"buffer":0,"byteOffset":2247780,"byteLength":10752,"target":34962},{"buffer":0,"byteOffset":2258532,"byteLength":55296,"target":34962},{"buffer":0,"byteOffset":2313828,"byteLength":55296,"target":34962},{"buffer":0,"byteOffset":2369124,"byteLength":36864,"target":34962},{"buffer":0,"byteOffset":2405988,"byteLength":864,"target":34962},{"buffer":0,"byteOffset":2406852,"byteLength":864,"target":34962},{"buffer":0,"byteOffset":2407716,"byteLength":576,"target":34962},{"buffer":0,"byteOffset":2408292,"byteLength":2016,"target":34962},{"buffer":0,"byteOffset":2410308,"byteLength":2016,"target":34962},{"buffer":0,"byteOffset":2412324,"byteLength":1344,"target":34962},{"buffer":0,"byteOffset":2413668,"byteLength":720,"target":34962},{"buffer":0,"byteOffset":2414388,"byteLength":720,"target":34962},{"buffer":0,"byteOffset":2415108,"byteLength":480,"target":34962},{"buffer":0,"byteOffset":2415588,"byteLength":1440,"target":34962},{"buffer":0,"byteOffset":2417028,"byteLength":1440,"target":34962},{"buffer":0,"byteOffset":2418468,"byteLength":960,"target":34962},{"buffer":0,"byteOffset":2419428,"byteLength":1440,"target":34962},{"buffer":0,"byteOffset":2420868,"byteLength":1440,"target":34962},{"buffer":0,"byteOffset":2422308,"byteLength":960,"target":34962},{"buffer":0,"byteOffset":2423268,"byteLength":1008,"target":34962},{"buffer":0,"byteOffset":2424276,"byteLength":1008,"target":34962},{"buffer":0,"byteOffset":2425284,"byteLength":672,"target":34962},{"buffer":0,"byteOffset":2425956,"byteLength":1152,"target":34962},{"buffer":0,"byteOffset":2427108,"byteLength":1152,"target":34962},{"buffer":0,"byteOffset":2428260,"byteLength":768,"target":34962},{"buffer":0,"byteOffset":2429028,"byteLength":1008,"target":34962},{"buffer":0,"byteOffset":2430036,"byteLength":1008,"target":34962},{"buffer":0,"byteOffset":2431044,"byteLength":672,"target":34962},{"buffer":0,"byteOffset":2431716,"byteLength":1152,"target":34962},{"buffer":0,"byteOffset":2432868,"byteLength":1152,"target":34962},{"buffer":0,"byteOffset":2434020,"byteLength":768,"target":34962},{"buffer":0,"byteOffset":2434788,"byteLength":4752,"target":34962},{"buffer":0,"byteOffset":2439540,"byteLength":4752,"target":34962},{"buffer":0,"byteOffset":2444292,"byteLength":3168,"target":34962},{"buffer":0,"byteOffset":2447460,"byteLength":4752,"target":34962},{"buffer":0,"byteOffset":2452212,"byteLength":4752,"target":34962},{"buffer":0,"byteOffset":2456964,"byteLength":3168,"target":34962},{"buffer":0,"byteOffset":2460132,"byteLength":3312,"target":34962},{"buffer":0,"byteOffset":2463444,"byteLength":3312,"target":34962},{"buffer":0,"byteOffset":2466756,"byteLength":2208,"target":34962},{"buffer":0,"byteOffset":2468964,"byteLength":2160,"target":34962},{"buffer":0,"byteOffset":2471124,"byteLength":2160,"target":34962},{"buffer":0,"byteOffset":2473284,"byteLength":1440,"target":34962},{"buffer":0,"byteOffset":2474724,"byteLength":3312,"target":34962},{"buffer":0,"byteOffset":2478036,"byteLength":3312,"target":34962},{"buffer":0,"byteOffset":2481348,"byteLength":2208,"target":34962},{"buffer":0,"byteOffset":2483556,"byteLength":2160,"target":34962},{"buffer":0,"byteOffset":2485716,"byteLength":2160,"target":34962},{"buffer":0,"byteOffset":2487876,"byteLength":1440,"target":34962},{"buffer":0,"byteOffset":2489316,"byteLength":36792,"target":34962},{"buffer":0,"byteOffset":2526108,"byteLength":36792,"target":34962},{"buffer":0,"byteOffset":2562900,"byteLength":24528,"target":34962},{"buffer":0,"byteOffset":2587428,"byteLength":18360,"target":34962},{"buffer":0,"byteOffset":2605788,"byteLength":18360,"target":34962},{"buffer":0,"byteOffset":2624148,"byteLength":12240,"target":34962},{"buffer":0,"byteOffset":2636388,"byteLength":1152,"target":34962},{"buffer":0,"byteOffset":2637540,"byteLength":1152,"target":34962},{"buffer":0,"byteOffset":2638692,"byteLength":768,"target":34962},{"buffer":0,"byteOffset":2639460,"byteLength":1152,"target":34962},{"buffer":0,"byteOffset":2640612,"byteLength":1152,"target":34962},{"buffer":0,"byteOffset":2641764,"byteLength":768,"target":34962},{"buffer":0,"byteOffset":2642532,"byteLength":1152,"target":34962},{"buffer":0,"byteOffset":2643684,"byteLength":1152,"target":34962},{"buffer":0,"byteOffset":2644836,"byteLength":768,"target":34962},{"buffer":0,"byteOffset":2645604,"byteLength":1152,"target":34962},{"buffer":0,"byteOffset":2646756,"byteLength":1152,"target":34962},{"buffer":0,"byteOffset":2647908,"byteLength":768,"target":34962},{"buffer":1,"byteOffset":0,"byteLength":18720,"target":34962},{"buffer":1,"byteOffset":18720,"byteLength":18720,"target":34962},{"buffer":1,"byteOffset":37440,"byteLength":2808,"target":34962},{"buffer":1,"byteOffset":40248,"byteLength":2808,"target":34962},{"buffer":1,"byteOffset":43056,"byteLength":1872,"target":34962}],"accessors":[{"bufferView":1,"componentType":5126,"count":204,"type":"VEC3","min":[-9.022921,-2.182001,-3.6881100000000004],"max":[-6.287257,-2.057309,-2.4694070000000004]},{"bufferView":2,"componentType":5126,"count":204,"type":"VEC3","min":[-1,-0.9998582008447815,-0.22251779502031044],"max":[0.9355046466440702,0.9999818897363474,0.9501114262310553]},{"bufferView":3,"componentType":5126,"count":204,"type":"VEC2"},{"bufferView":4,"componentType":5126,"count":204,"type":"VEC3","min":[6.287257,-2.182001,-3.6881100000000004],"max":[9.02292,-2.057309,-2.4694070000000004]},{"bufferView":5,"componentType":5126,"count":204,"type":"VEC3","min":[-0.935512756803348,-0.999857820598468,-0.22251546521474053],"max":[1,0.9999819118491617,0.9501112897426791]},{"bufferView":6,"componentType":5126,"count":204,"type":"VEC2"},{"bufferView":7,"componentType":5126,"count":4734,"type":"VEC3","min":[-9.415619,-2.512464,-4.3447130000000005],"max":[9.415619,-1.851085,2.8500999999999994]},{"bufferView":8,"componentType":5126,"count":4734,"type":"VEC3","min":[-1,-0.9998639687290996,-0.3463356368673746],"max":[1,0.9999965847962778,0.892319962503787]},{"bufferView":9,"componentType":5126,"count":4734,"type":"VEC2"},{"bufferView":10,"componentType":5126,"count":4056,"type":"VEC3","min":[-3.649135,0.376081,-9.50306],"max":[3.649135,0.657664,-5.0896360000000005]},{"bufferView":11,"componentType":5126,"count":4056,"type":"VEC3","min":[-0.9996863722074673,-0.9999381478106883,-0.8833145380408064],"max":[0.9996861756341302,0.9999688103391644,0.8017416158450578]},{"bufferView":12,"componentType":5126,"count":4056,"type":"VEC2"},{"bufferView":13,"componentType":5126,"count":2316,"type":"VEC3","min":[-0.156344,-0.31285,3.1945899999999994],"max":[0.156344,-0.264525,6.155181]},{"bufferView":14,"componentType":5126,"count":2316,"type":"VEC3","min":[-1,-0.000050620449116425093,-0.9994615463644093],"max":[1,0.9999999999999998,0.9994619186494325]},{"bufferView":15,"componentType":5126,"count":2316,"type":"VEC2"},{"bufferView":16,"componentType":5126,"count":1008,"type":"VEC3","min":[-0.359175,-1.345416,-8.073201000000001],"max":[-0.000003,-0.594129,-7.615765000000001]},{"bufferView":17,"componentType":5126,"count":1008,"type":"VEC3","min":[-0.9854609310360797,-0.980932621440286,-0.9617501200687456],"max":[0.9882973824434063,0.9808785258803331,0.9995590844739888]},{"bufferView":18,"componentType":5126,"count":1008,"type":"VEC2"},{"bufferView":19,"componentType":5126,"count":1008,"type":"VEC3","min":[0.000003,-1.345416,-8.073201000000001],"max":[0.359175,-0.594129,-7.615765000000001]},{"bufferView":20,"componentType":5126,"count":1008,"type":"VEC3","min":[-0.9883019405541095,-0.980932621440286,-0.9617514269024231],"max":[0.9854609310360795,0.980878382942212,0.9995590844739887]},{"bufferView":21,"componentType":5126,"count":1008,"type":"VEC2"},{"bufferView":22,"componentType":5126,"count":168,"type":"VEC3","min":[-0.044974,0.789135,-8.215216],"max":[0.044974,3.130316,-6.903927]},{"bufferView":23,"componentType":5126,"count":168,"type":"VEC3","min":[-0.9998880961449748,-1,-0.09252025695027391],"max":[0.9998889680581395,1,0.9313429273831112]},{"bufferView":24,"componentType":5126,"count":168,"type":"VEC2"},{"bufferView":25,"componentType":5126,"count":480,"type":"VEC3","min":[-1.215082,-1.084798,-4.605619000000001],"max":[1.215082,-1.034316,-1.7734330000000007]},{"bufferView":26,"componentType":5126,"count":480,"type":"VEC3","min":[-0.8269195574310295,-1,-0.8525153215233965],"max":[0.8296895411213231,1,0.9181761107764084]},{"bufferView":27,"componentType":5126,"count":480,"type":"VEC2"},{"bufferView":28,"componentType":5126,"count":36,"type":"VEC3","min":[-5.787729,-2.070938,-2.2932690000000004],"max":[-3.659626,-1.997932,-1.3701250000000005]},{"bufferView":29,"componentType":5126,"count":36,"type":"VEC3","min":[-0.9565966764162374,-0.9897003707004843,-0.9460151908829538],"max":[0.9565975324026977,0.9897026600489055,0.9460153797453166]},{"bufferView":30,"componentType":5126,"count":36,"type":"VEC2"},{"bufferView":31,"componentType":5126,"count":36,"type":"VEC3","min":[-3.520665,-2.052789,-1.5533670000000006],"max":[-2.250473,-1.993452,-1.1372070000000005]},{"bufferView":32,"componentType":5126,"count":36,"type":"VEC3","min":[-0.9999999999911425,-0.9895571384058196,-0.990262034083615],"max":[1,0.9894874281159256,0.9902620189737784]},{"bufferView":33,"componentType":5126,"count":36,"type":"VEC2"},{"bufferView":34,"componentType":5126,"count":36,"type":"VEC3","min":[3.659625,-2.070937,-2.2932690000000004],"max":[5.78773,-1.997932,-1.3701250000000005]},{"bufferView":35,"componentType":5126,"count":36,"type":"VEC3","min":[-0.956596301407551,-0.9897010123839779,-0.9460152390781548],"max":[0.9565954454171063,0.9897033055146319,0.9460154279403399]},{"bufferView":36,"componentType":5126,"count":36,"type":"VEC2"},{"bufferView":37,"componentType":5126,"count":36,"type":"VEC3","min":[2.250473,-2.052789,-1.5533670000000006],"max":[3.520665,-1.993452,-1.1372070000000005]},{"bufferView":38,"componentType":5126,"count":36,"type":"VEC3","min":[-1,-0.9895571384058196,-0.990262034083615],"max":[0.9999999999911425,0.9894880143666716,0.9902620189737784]},{"bufferView":39,"componentType":5126,"count":36,"type":"VEC2"},{"bufferView":40,"componentType":5126,"count":11490,"type":"VEC3","min":[-1.032414,-2.402132,-8.839984000000001],"max":[1.032414,3.507983,9.50306]},{"bufferView":41,"componentType":5126,"count":11490,"type":"VEC3","min":[-0.9999993014633519,-0.9999999999997261,-0.31578833871706224],"max":[0.9999993031016783,0.9999999999993162,0.9999999999951295]},{"bufferView":42,"componentType":5126,"count":11490,"type":"VEC2"},{"bufferView":43,"componentType":5126,"count":672,"type":"VEC3","min":[-0.268547,-1.215481,-7.633033],"max":[0.269095,-0.678012,-7.598573000000001]},{"bufferView":44,"componentType":5126,"count":672,"type":"VEC3","min":[-0.9991307075880815,-0.9986251898655354,-0.8833717047468872],"max":[0.9998130448477099,0.9995828816486467,0.8836300322001919]},{"bufferView":45,"componentType":5126,"count":672,"type":"VEC2"},{"bufferView":46,"componentType":5126,"count":1344,"type":"VEC3","min":[-1.864326,-1.387749,-3.9426830000000006],"max":[-1.207083,-0.730719,-1.7506190000000004]},{"bufferView":47,"componentType":5126,"count":1344,"type":"VEC3","min":[-0.9991308362569887,-0.9986230711788244,-0.8836318856853758],"max":[0.9998132120210709,0.9995830609211337,0.88362672702533]},{"bufferView":48,"componentType":5126,"count":1344,"type":"VEC2"},{"bufferView":49,"componentType":5126,"count":1344,"type":"VEC3","min":[1.210112,-1.387749,-3.9426830000000006],"max":[1.867355,-0.730719,-1.7506190000000004]},{"bufferView":50,"componentType":5126,"count":1344,"type":"VEC3","min":[-0.9991306797938165,-0.9986231761378439,-0.8836318856853758],"max":[0.9998132798044203,0.9995830509028466,0.88362672702533]},{"bufferView":51,"componentType":5126,"count":1344,"type":"VEC2"},{"bufferView":52,"componentType":5126,"count":4608,"type":"VEC3","min":[-2.06329,-1.586283,-4.091508],"max":[2.06329,-0.534578,-1.5558940000000006]},{"bufferView":53,"componentType":5126,"count":4608,"type":"VEC3","min":[-0.9998112156006241,-0.9998112135933444,-0.9974840779418361],"max":[0.9998112212046513,0.9998112015102615,0.9564206393314101]},{"bufferView":54,"componentType":5126,"count":4608,"type":"VEC2"},{"bufferView":55,"componentType":5126,"count":72,"type":"VEC3","min":[0.741115,-2.074668,5.105829999999999],"max":[1.032417,-0.680434,5.8135889999999995]},{"bufferView":56,"componentType":5126,"count":72,"type":"VEC3","min":[0.7707790632513692,-0.6271706233781371,-0.006753103479065777],"max":[0.999812346444097,0.6369251943811687,0.01503104839498097]},{"bufferView":57,"componentType":5126,"count":72,"type":"VEC2"},{"bufferView":58,"componentType":5126,"count":168,"type":"VEC3","min":[-0.23734,-2.389153,6.431171999999999],"max":[0.23734,-2.335658,7.0679099999999995]},{"bufferView":59,"componentType":5126,"count":168,"type":"VEC3","min":[-1,-0.9990770849544348,-1],"max":[1,0.9990771696242741,1]},{"bufferView":60,"componentType":5126,"count":168,"type":"VEC2"},{"bufferView":61,"componentType":5126,"count":60,"type":"VEC3","min":[-0.137349,-2.360907,7.067908999999999],"max":[0.151697,-2.304574,7.410683]},{"bufferView":62,"componentType":5126,"count":60,"type":"VEC3","min":[-1,-0.9952481910064881,-1],"max":[1,0.9952481910064881,0.9999999999515916]},{"bufferView":63,"componentType":5126,"count":60,"type":"VEC2"},{"bufferView":64,"componentType":5126,"count":120,"type":"VEC3","min":[-0.23734,-2.328779,7.410678],"max":[0.000002,-2.201097,8.149602999999999]},{"bufferView":65,"componentType":5126,"count":120,"type":"VEC3","min":[-1,-0.9915194579540991,-1],"max":[1,0.9915194579540989,1]},{"bufferView":66,"componentType":5126,"count":120,"type":"VEC2"},{"bufferView":67,"componentType":5126,"count":120,"type":"VEC3","min":[0.000002,-2.328779,7.410678],"max":[0.23734,-2.201097,8.149604]},{"bufferView":68,"componentType":5126,"count":120,"type":"VEC3","min":[-1,-0.9914542676762234,-0.99999999998328],"max":[1,0.9914542676762231,1]},{"bufferView":69,"componentType":5126,"count":120,"type":"VEC2"},{"bufferView":70,"componentType":5126,"count":84,"type":"VEC3","min":[-2.09721,-2.456811,-0.9175670000000005],"max":[-1.250035,-2.360052,-0.40377100000000055]},{"bufferView":71,"componentType":5126,"count":84,"type":"VEC3","min":[-1,-0.9969826038865889,-0.9999999999993033],"max":[1,0.9969826039120667,1]},{"bufferView":72,"componentType":5126,"count":84,"type":"VEC2"},{"bufferView":73,"componentType":5126,"count":96,"type":"VEC3","min":[-1.250035,-2.496231,-1.0772490000000006],"max":[-0.569066,-2.43651,-0.3745470000000005]},{"bufferView":74,"componentType":5126,"count":96,"type":"VEC3","min":[-1,-0.9998548376366706,-1],"max":[0.9999999999989875,0.9998548727133765,1]},{"bufferView":75,"componentType":5126,"count":96,"type":"VEC2"},{"bufferView":76,"componentType":5126,"count":84,"type":"VEC3","min":[1.250035,-2.456811,-0.9175670000000005],"max":[2.09721,-2.360052,-0.40377100000000055]},{"bufferView":77,"componentType":5126,"count":84,"type":"VEC3","min":[-1,-0.9969826038865889,-0.9999999999993033],"max":[1,0.9969826039120667,1]},{"bufferView":78,"componentType":5126,"count":84,"type":"VEC2"},{"bufferView":79,"componentType":5126,"count":96,"type":"VEC3","min":[0.569066,-2.496231,-1.0772490000000006],"max":[1.250035,-2.43651,-0.3745470000000005]},{"bufferView":80,"componentType":5126,"count":96,"type":"VEC3","min":[-0.9999999999989875,-0.9998548376366706,-1],"max":[1,0.9998548727133765,1]},{"bufferView":81,"componentType":5126,"count":96,"type":"VEC2"},{"bufferView":82,"componentType":5126,"count":396,"type":"VEC3","min":[-2.465855,0.424825,-8.543494],"max":[-0.151743,0.61953,-6.771232]},{"bufferView":83,"componentType":5126,"count":396,"type":"VEC3","min":[-1,-0.9997730967640425,-0.26363497743067477],"max":[1,0.9990465330823904,0.8882530800168591]},{"bufferView":84,"componentType":5126,"count":396,"type":"VEC2"},{"bufferView":85,"componentType":5126,"count":396,"type":"VEC3","min":[0.151743,0.424825,-8.543494],"max":[2.465855,0.61953,-6.771232]},{"bufferView":86,"componentType":5126,"count":396,"type":"VEC3","min":[-1,-0.9997730994715615,-0.2636366816320858],"max":[1,0.9990465317412273,0.8882530800168591]},{"bufferView":87,"componentType":5126,"count":396,"type":"VEC2"},{"bufferView":88,"componentType":5126,"count":276,"type":"VEC3","min":[-3.52106,-2.303931,0.2822479999999995],"max":[-0.880265,-1.933287,2.2512929999999995]},{"bufferView":89,"componentType":5126,"count":276,"type":"VEC3","min":[-1,-0.9561773994891126,-0.8384258423230384],"max":[1,0.9454234556796417,0.8242912995866888]},{"bufferView":90,"componentType":5126,"count":276,"type":"VEC2"},{"bufferView":91,"componentType":5126,"count":180,"type":"VEC3","min":[-8.948283,-2.199529,-2.4634060000000004],"max":[-3.52106,-1.997627,0.4377299999999995]},{"bufferView":92,"componentType":5126,"count":180,"type":"VEC3","min":[-1,-0.9672620712642617,-0.8923145338162844],"max":[1,0.9678654588755966,0.8864652380122225]},{"bufferView":93,"componentType":5126,"count":180,"type":"VEC2"},{"bufferView":94,"componentType":5126,"count":276,"type":"VEC3","min":[0.880265,-2.303931,0.2822479999999995],"max":[3.52106,-1.933287,2.2512929999999995]},{"bufferView":95,"componentType":5126,"count":276,"type":"VEC3","min":[-1,-0.9561773994891125,-0.8384258423230385],"max":[1,0.9454234556796416,0.8242913026322053]},{"bufferView":96,"componentType":5126,"count":276,"type":"VEC2"},{"bufferView":97,"componentType":5126,"count":180,"type":"VEC3","min":[3.52106,-2.199529,-2.4634060000000004],"max":[8.948283,-1.997627,0.4377299999999995]},{"bufferView":98,"componentType":5126,"count":180,"type":"VEC3","min":[-1,-0.9672620712642616,-0.8923145331784975],"max":[1,0.9678605314843383,0.8864652748768038]},{"bufferView":99,"componentType":5126,"count":180,"type":"VEC2"},{"bufferView":100,"componentType":5126,"count":3066,"type":"VEC3","min":[-9.022812,-2.496232,-8.543494],"max":[9.022812,3.130316,8.149605]},{"bufferView":101,"componentType":5126,"count":3066,"type":"VEC3","min":[-1,-1,-1],"max":[1,1,1]},{"bufferView":102,"componentType":5126,"count":3066,"type":"VEC2"},{"bufferView":103,"componentType":5126,"count":1530,"type":"VEC3","min":[-1.008123,-2.362986,0.16739299999999951],"max":[1.008123,-0.689501,8.091778]},{"bufferView":104,"componentType":5126,"count":1530,"type":"VEC3","min":[-0.9585025550362195,-0.7924303379124664,-0.0000040185015694193734],"max":[0.9584629120355137,0.795666122029057,0.737511444898394]},{"bufferView":105,"componentType":5126,"count":1530,"type":"VEC2"},{"bufferView":106,"componentType":5126,"count":96,"type":"VEC3","min":[-6.242456,-2.202001,-2.8998370000000007],"max":[-3.52106,-2.069091,-1.5945340000000006]},{"bufferView":107,"componentType":5126,"count":96,"type":"VEC3","min":[-1,-0.9999382027307779,-0.230623819076815],"max":[1,0.9999147571777374,0.9360823976838352]},{"bufferView":108,"componentType":5126,"count":96,"type":"VEC2"},{"bufferView":109,"componentType":5126,"count":96,"type":"VEC3","min":[-3.52106,-2.347588,-2.1282800000000006],"max":[-0.874645,-2.069092,-1.1374350000000004]},{"bufferView":110,"componentType":5126,"count":96,"type":"VEC3","min":[-1,-0.9984902157320812,-0.2524510299424223],"max":[1,0.9999282342812853,0.9783639940504348]},{"bufferView":111,"componentType":5126,"count":96,"type":"VEC2"},{"bufferView":112,"componentType":5126,"count":96,"type":"VEC3","min":[3.52106,-2.202001,-2.8998370000000007],"max":[6.242457,-2.069092,-1.5945350000000005]},{"bufferView":113,"componentType":5126,"count":96,"type":"VEC3","min":[-1,-0.9999382027761895,-0.23062421637626138],"max":[1,0.9999147466990024,0.9360851858756888]},{"bufferView":114,"componentType":5126,"count":96,"type":"VEC2"},{"bufferView":115,"componentType":5126,"count":96,"type":"VEC3","min":[0.874645,-2.347589,-2.1282800000000006],"max":[3.52106,-2.069092,-1.1374350000000004]},{"bufferView":116,"componentType":5126,"count":96,"type":"VEC3","min":[-1,-0.9984902157320812,-0.2524518832043253],"max":[1,0.9999282858592822,0.9783637674652247]},{"bufferView":117,"componentType":5126,"count":96,"type":"VEC2"},{"bufferView":118,"componentType":5126,"count":1560,"type":"VEC3","min":[-0.4892550003528595,-0.4053075909614563,-8.839983940124512],"max":[0.4892550003528595,3.49440598487854,-2.28072]},{"bufferView":119,"componentType":5126,"count":1560,"type":"VEC3"},{"bufferView":120,"componentType":5126,"count":234,"type":"VEC3","min":[-0.15312612639024942,1.105018397640967,-7.542766751671281],"max":[0.1531270936807946,2.4521223912386567,-6.195662758073591]},{"bufferView":121,"componentType":5126,"count":234,"type":"VEC3"},{"bufferView":122,"componentType":5126,"count":234,"type":"VEC2"}],"extras":{"skyward":{"source":"https://github.com/FGMEMBERS/Falcon-50","commit":"6f8fa21836bd6013601958327b6a1339e20da8c6","license":"GPL-2.0","changes":"Triangulated AC3D exterior, authored crease normals, rigid nose +Z rotation; deployed landing gear and hidden cabin omitted for airborne display. Original meshes and texture coordinates retained. No dimensional stretching. Added surface-following operator tail paint and unmodified identification-logo texture. Branding is illustrative, not a registration-specific livery.","sourceFiles":["source/business/fa50/Models/falcon50.ac"],"operator":"JBU"}}}