{"accessors":[{"bufferView":1,"componentType":5123,"count":4068,"max":[1057],"min":[0],"type":"SCALAR"},{"bufferView":2,"componentType":5126,"count":1058,"max":[0.7963879704475403,2.5389442443847656,5.300120830535889],"min":[-0.7905802726745605,-0.5555870532989502,-5.308870792388916],"type":"VEC3"},{"bufferView":3,"componentType":5126,"count":1058,"type":"VEC3"},{"bufferView":4,"componentType":5126,"count":1058,"type":"VEC4"},{"bufferView":5,"componentType":5126,"count":1058,"max":[0.983299970626831,0.974999999627471],"min":[0.8068000078201294,0.388700008392334],"type":"VEC2"},{"bufferView":6,"componentType":5123,"count":24846,"max":[8817],"min":[0],"type":"SCALAR"},{"bufferView":7,"componentType":5126,"count":8818,"max":[0.28280189633369446,1.879394292831421,3.9828696250915527],"min":[-0.49960023164749146,0.7379571199417114,1.7868602275848389],"type":"VEC3"},{"bufferView":8,"componentType":5126,"count":8818,"type":"VEC3"},{"bufferView":9,"componentType":5126,"count":8818,"type":"VEC4"},{"bufferView":10,"componentType":5126,"count":8818,"max":[0.9700999855995178,0.2215999960899353],"min":[0.6777999997138977,0.027100026607513428],"type":"VEC2"},{"bufferView":11,"componentType":5123,"count":19686,"max":[6272],"min":[0],"type":"SCALAR"},{"bufferView":12,"componentType":5126,"count":6273,"max":[0.35802990198135376,0.8606011271476746,4.617840766906738],"min":[-0.7007802724838257,-0.5092970728874207,2.6232903003692627],"type":"VEC3"},{"bufferView":13,"componentType":5126,"count":6273,"type":"VEC3"},{"bufferView":14,"componentType":5126,"count":6273,"type":"VEC4"},{"bufferView":15,"componentType":5126,"count":6273,"max":[0.9476000070571899,0.9874999998137355],"min":[0.013199999928474426,0.001600027084350586],"type":"VEC2"},{"bufferView":16,"componentType":5121,"count":96,"max":[26],"min":[0],"type":"SCALAR"},{"bufferView":17,"componentType":5126,"count":27,"max":[-0.21187317371368408,0.09411801397800446,1.1260091066360474],"min":[-0.5017582178115845,-0.34651607275009155,0.6947181224822998],"type":"VEC3"},{"bufferView":18,"componentType":5126,"count":27,"type":"VEC3"},{"bufferView":19,"componentType":5126,"count":27,"type":"VEC4"},{"bufferView":20,"componentType":5126,"count":27,"max":[0.9707000255584717,0.4567999839782715],"min":[0.9038000106811523,0.388700008392334],"type":"VEC2"},{"bufferView":21,"componentType":5123,"count":190986,"max":[64725],"min":[0],"type":"SCALAR"},{"bufferView":22,"componentType":5126,"count":64726,"max":[4.879500389099121,2.501204252243042,5.308870792388916],"min":[-4.879500389099121,-1.0220961570739746,-5.293330669403076],"type":"VEC3"},{"bufferView":23,"componentType":5126,"count":64726,"type":"VEC3"},{"bufferView":24,"componentType":5126,"count":64726,"type":"VEC4"},{"bufferView":25,"componentType":5126,"count":64726,"max":[0.9990000128746033,0.9982000000309199],"min":[0,-0.00010001659393310547],"type":"VEC2"},{"bufferView":26,"componentType":5126,"count":16929,"type":"VEC3","min":[-0.34883918285369875,0.22426798343658438,-5.308770656585693],"max":[0.4266499173641205,2.5389442443847656,-1.2743999999999995]},{"bufferView":27,"componentType":5126,"count":16929,"type":"VEC3"},{"bufferView":28,"componentType":5126,"count":342,"type":"VEC3","min":[-0.044121634096763826,1.2759076174234558,-5.027478017760058],"max":[0.2500408708066005,1.8587970732040595,-4.444588561979454]},{"bufferView":29,"componentType":5126,"count":342,"type":"VEC3"},{"bufferView":30,"componentType":5126,"count":342,"type":"VEC2"}],"asset":{"generator":"Khronos Blender glTF 2.0 exporter","version":"2.0","copyright":"FlightGear model authors / FlightAirMap contributors; GPL-2.0. See source/flightairmap/gazl/ for license and editable sources."},"bufferViews":[{"buffer":0,"byteLength":255436,"byteOffset":0},{"buffer":0,"byteLength":8136,"byteOffset":255436,"target":34963},{"buffer":0,"byteLength":12696,"byteOffset":263572,"target":34962},{"buffer":0,"byteLength":12696,"byteOffset":276268,"target":34962},{"buffer":0,"byteLength":16928,"byteOffset":288964,"target":34962},{"buffer":0,"byteLength":8464,"byteOffset":305892,"target":34962},{"buffer":0,"byteLength":49692,"byteOffset":314356,"target":34963},{"buffer":0,"byteLength":105816,"byteOffset":364048,"target":34962},{"buffer":0,"byteLength":105816,"byteOffset":469864,"target":34962},{"buffer":0,"byteLength":141088,"byteOffset":575680,"target":34962},{"buffer":0,"byteLength":70544,"byteOffset":716768,"target":34962},{"buffer":0,"byteLength":39372,"byteOffset":787312,"target":34963},{"buffer":0,"byteLength":75276,"byteOffset":826684,"target":34962},{"buffer":0,"byteLength":75276,"byteOffset":901960,"target":34962},{"buffer":0,"byteLength":100368,"byteOffset":977236,"target":34962},{"buffer":0,"byteLength":50184,"byteOffset":1077604,"target":34962},{"buffer":0,"byteLength":96,"byteOffset":1127788,"target":34963},{"buffer":0,"byteLength":324,"byteOffset":1127884,"target":34962},{"buffer":0,"byteLength":324,"byteOffset":1128208,"target":34962},{"buffer":0,"byteLength":432,"byteOffset":1128532,"target":34962},{"buffer":0,"byteLength":216,"byteOffset":1128964,"target":34962},{"buffer":0,"byteLength":381972,"byteOffset":1129180,"target":34963},{"buffer":0,"byteLength":776712,"byteOffset":1511152,"target":34962},{"buffer":0,"byteLength":776712,"byteOffset":2287864,"target":34962},{"buffer":0,"byteLength":1035616,"byteOffset":3064576,"target":34962},{"buffer":0,"byteLength":517808,"byteOffset":4100192,"target":34962},{"buffer":1,"byteOffset":0,"byteLength":203148,"target":34962},{"buffer":1,"byteOffset":203148,"byteLength":203148,"target":34962},{"buffer":1,"byteOffset":406296,"byteLength":4104,"target":34962},{"buffer":1,"byteOffset":410400,"byteLength":4104,"target":34962},{"buffer":1,"byteOffset":414504,"byteLength":2736,"target":34962}],"buffers":[{"byteLength":4618000,"extras":{},"uri":"../gazl-v1-0.bin"},{"uri":"gazl-tail-v1.bin?tail=2","byteLength":417240}],"images":[{"bufferView":0,"mimeType":"image/jpeg","name":"fuse.jpg","extras":{}},{"uri":"../../../airlines/JAL.png"}],"materials":[{"alphaMode":"BLEND","name":"_2_-_Default","pbrMetallicRoughness":{"baseColorFactor":[0.42122960718318225,0.6010376066124081,0.7037831888166544,0.3400000035762787],"metallicFactor":0}},{"name":"_4_-_Default","pbrMetallicRoughness":{"baseColorFactor":[0.47058802352231766,0.47058802352231766,0.47058802352231766,1],"metallicFactor":0}},{"name":"ac3dmat0","pbrMetallicRoughness":{"baseColorFactor":[0,0,0,1],"metallicFactor":0}},{"name":"Mat_001_gazelle_","pbrMetallicRoughness":{"baseColorFactor":[0.6400000190734865,0.6400000190734865,0.6400000190734865,1],"baseColorTexture":{"index":0},"metallicFactor":0}},{"name":"Mat_001_gazelle_.001","pbrMetallicRoughness":{"baseColorFactor":[0.6400000190734865,0.6400000190734865,0.6400000190734865,1],"metallicFactor":0}},{"name":"Operator tail paint","doubleSided":true,"pbrMetallicRoughness":{"baseColorFactor":[0.7843137254901961,0.09803921568627451,0.19607843137254902,1],"metallicFactor":0,"roughnessFactor":0.65}},{"name":"Operator logo identification","doubleSided":true,"alphaMode":"MASK","alphaCutoff":0.08,"pbrMetallicRoughness":{"baseColorTexture":{"index":1},"metallicFactor":0,"roughnessFactor":0.7},"emissiveFactor":[0.18,0.18,0.18],"emissiveTexture":{"index":1}}],"meshes":[{"name":"fuselage15_Mat_fuse_p","primitives":[{"attributes":{"NORMAL":2,"POSITION":1,"TANGENT":3,"TEXCOORD_0":4},"indices":0,"material":0},{"attributes":{"NORMAL":7,"POSITION":6,"TANGENT":8,"TEXCOORD_0":9},"indices":5,"material":1},{"attributes":{"NORMAL":12,"POSITION":11,"TANGENT":13,"TEXCOORD_0":14},"indices":10,"material":4},{"attributes":{"NORMAL":17,"POSITION":16,"TANGENT":18,"TEXCOORD_0":19},"indices":15,"material":2},{"attributes":{"NORMAL":22,"POSITION":21,"TANGENT":23,"TEXCOORD_0":24},"indices":20,"material":3}]},{"name":"Airline tail surface overlay","primitives":[{"attributes":{"POSITION":25,"NORMAL":26},"material":5},{"attributes":{"POSITION":27,"NORMAL":28,"TEXCOORD_0":29},"material":6}]}],"nodes":[{"mesh":0,"name":"fuselage"},{"name":"SkywardCoordinateAlignment","matrix":[1,0,0,0,0,1,0,0,0,0,1,0,0,0,0,1],"children":[0]},{"name":"AirlineTailBranding","mesh":1}],"samplers":[{},{"magFilter":9729,"minFilter":9987,"wrapS":33071,"wrapT":33071}],"scene":0,"scenes":[{"name":"Scene","nodes":[1,2]}],"textures":[{"sampler":0,"source":0},{"source":1,"sampler":1}],"extras":{"skyward":{"source":"https://github.com/Ysurac/FlightAirMap-3dmodels","commit":"0906d9ba1bdd906ce45807e45ed706c09912db19","changes":"Converted legacy glTF to glTF 2.0 with Cesium; rigid axis alignment, horizontal centering, and source transforms baked into positions/normals for correct Cesium bounds. Original shape, materials and paint retained. Added surface-following operator tail paint and unmodified identification-logo texture. Branding is illustrative, not a registration-specific livery.","license":"GPL-2.0","sourceFiles":["source/flightairmap/gazl/COPYING","source/flightairmap/gazl/gazl.blend"],"operator":"JAL"}}}