{"accessors":[{"bufferView":3,"componentType":5123,"count":6708,"max":[2511],"min":[0],"type":"SCALAR"},{"bufferView":4,"componentType":5126,"count":2512,"max":[2.9579689502716064,1.0776176452636719,24.699209213256836],"min":[-2.957972288131714,0.6455274820327759,-15.422576904296875],"type":"VEC3"},{"bufferView":5,"componentType":5126,"count":2512,"type":"VEC3"},{"bufferView":6,"componentType":5126,"count":2512,"type":"VEC4"},{"bufferView":7,"componentType":5126,"count":2512,"max":[0,1],"min":[0,1],"type":"VEC2"},{"bufferView":8,"componentType":5121,"count":396,"max":[85],"min":[0],"type":"SCALAR"},{"bufferView":9,"componentType":5126,"count":86,"max":[25.021604537963867,3.380099058151245,5.909914970397949],"min":[-0.08675497770309448,-2.6941440105438232,-12.761856079101562],"type":"VEC3"},{"bufferView":10,"componentType":5126,"count":86,"type":"VEC3"},{"bufferView":11,"componentType":5126,"count":86,"type":"VEC4"},{"bufferView":12,"componentType":5126,"count":86,"max":[0,1],"min":[0,1],"type":"VEC2"},{"bufferView":13,"componentType":5123,"count":1545,"max":[380],"min":[0],"type":"SCALAR"},{"bufferView":14,"componentType":5126,"count":381,"max":[24.360904693603516,0.20031771063804626,5.08469295501709],"min":[-24.360904693603516,-1.1780604124069214,-11.701190948486328],"type":"VEC3"},{"bufferView":15,"componentType":5126,"count":381,"type":"VEC3"},{"bufferView":16,"componentType":5126,"count":381,"type":"VEC4"},{"bufferView":17,"componentType":5126,"count":381,"max":[0.2618879973888397,0.9179399982094765],"min":[0.09377799928188324,0.08224600553512573],"type":"VEC2"},{"bufferView":18,"componentType":5123,"count":2274,"max":[1023],"min":[0],"type":"SCALAR"},{"bufferView":19,"componentType":5126,"count":1024,"max":[9.317632675170898,5.777378082275391,6.545466423034668],"min":[-9.296319007873535,-3.5507428646087646,-30.803171157836914],"type":"VEC3"},{"bufferView":20,"componentType":5126,"count":1024,"type":"VEC3"},{"bufferView":21,"componentType":5126,"count":1024,"type":"VEC4"},{"bufferView":22,"componentType":5126,"count":1024,"max":[0.9383609890937805,0.9899490000680089],"min":[0.7777289748191833,0.015018999576568604],"type":"VEC2"},{"bufferView":23,"componentType":5123,"count":9438,"max":[2765],"min":[0],"type":"SCALAR"},{"bufferView":24,"componentType":5126,"count":2766,"max":[25.206201553344727,1.6247578859329224,29.733705520629883],"min":[-25.206205368041992,-1.0819627046585083,-13.955886840820312],"type":"VEC3"},{"bufferView":25,"componentType":5126,"count":2766,"type":"VEC3"},{"bufferView":26,"componentType":5126,"count":2766,"type":"VEC4"},{"bufferView":27,"componentType":5126,"count":2766,"max":[1,1],"min":[0,0],"type":"VEC2"},{"bufferView":28,"componentType":5123,"count":2340,"max":[911],"min":[0],"type":"SCALAR"},{"bufferView":29,"componentType":5126,"count":912,"max":[25.944406509399414,5.092587947845459,29.998205184936523],"min":[-25.94440269470215,-3.0312728881835938,-28.305307388305664],"type":"VEC3"},{"bufferView":30,"componentType":5126,"count":912,"type":"VEC3"},{"bufferView":31,"componentType":5126,"count":912,"type":"VEC4"},{"bufferView":32,"componentType":5126,"count":912,"max":[0,1],"min":[0,1],"type":"VEC2"},{"bufferView":33,"componentType":5123,"count":62079,"max":[15548],"min":[0],"type":"SCALAR"},{"bufferView":34,"componentType":5126,"count":15549,"max":[25.944704055786133,12.807029724121094,30.79789161682129],"min":[-25.944704055786133,-3.8847529888153076,-30.561002731323242],"type":"VEC3"},{"bufferView":35,"componentType":5126,"count":15549,"type":"VEC3"},{"bufferView":36,"componentType":5126,"count":15549,"type":"VEC4"},{"bufferView":37,"componentType":5126,"count":15549,"max":[0.9991080164909363,1.0023590000346303],"min":[0,0.02016901969909668],"type":"VEC2"},{"bufferView":38,"componentType":5121,"count":240,"max":[65],"min":[0],"type":"SCALAR"},{"bufferView":39,"componentType":5126,"count":66,"max":[0.16603510081768036,3.4353280067443848,14.444202423095703],"min":[-0.16603891551494598,3.226127862930298,13.138202667236328],"type":"VEC3"},{"bufferView":40,"componentType":5126,"count":66,"type":"VEC3"},{"bufferView":41,"componentType":5126,"count":66,"type":"VEC4"},{"bufferView":42,"componentType":5126,"count":66,"max":[0.5016260147094727,0.667957991361618],"min":[0.4840109944343567,0.6500419974327087],"type":"VEC2"},{"bufferView":43,"componentType":5121,"count":36,"max":[23],"min":[0],"type":"SCALAR"},{"bufferView":44,"componentType":5126,"count":24,"max":[-0.1030322015285492,-3.558603048324585,22.00721549987793],"min":[-0.11481720209121704,-3.6056530475616455,21.960163116455078],"type":"VEC3"},{"bufferView":45,"componentType":5126,"count":24,"type":"VEC3"},{"bufferView":46,"componentType":5126,"count":24,"type":"VEC4"},{"bufferView":47,"componentType":5126,"count":24,"max":[0,1],"min":[0,1],"type":"VEC2"},{"bufferView":48,"componentType":5123,"count":6708,"max":[2511],"min":[0],"type":"SCALAR"},{"bufferView":49,"componentType":5126,"count":2512,"max":[2.9579684734344482,1.0776176452636719,24.699203491210938],"min":[-2.957972288131714,0.6455276012420654,-15.422599792480469],"type":"VEC3"},{"bufferView":50,"componentType":5126,"count":2512,"type":"VEC3"},{"bufferView":51,"componentType":5126,"count":2512,"type":"VEC4"},{"bufferView":52,"componentType":5126,"count":2512,"max":[0.6192150115966797,0.8375760018825531],"min":[0.08158999681472778,0.11257702112197876],"type":"VEC2"},{"bufferView":53,"componentType":5121,"count":384,"max":[95],"min":[0],"type":"SCALAR"},{"bufferView":54,"componentType":5126,"count":96,"max":[25.145503997802734,0.18040773272514343,-13.207691192626953],"min":[-25.145503997802734,0.0448266938328743,-13.678691864013672],"type":"VEC3"},{"bufferView":55,"componentType":5126,"count":96,"type":"VEC3"},{"bufferView":56,"componentType":5126,"count":96,"type":"VEC4"},{"bufferView":57,"componentType":5126,"count":96,"max":[0,1],"min":[0,1],"type":"VEC2"},{"bufferView":58,"componentType":5123,"count":24795,"max":[7300],"min":[0],"type":"SCALAR"},{"bufferView":59,"componentType":5126,"count":7301,"max":[24.8280029296875,2.4066882133483887,7.6553239822387695],"min":[-24.8280029296875,-2.489713191986084,-27.89980125427246],"type":"VEC3"},{"bufferView":60,"componentType":5126,"count":7301,"type":"VEC3"},{"bufferView":61,"componentType":5126,"count":7301,"type":"VEC4"},{"bufferView":62,"componentType":5126,"count":7301,"max":[0.9653769731521606,1],"min":[0,0.013159990310668945],"type":"VEC2"},{"bufferView":63,"componentType":5123,"count":34971,"max":[13270],"min":[0],"type":"SCALAR"},{"bufferView":64,"componentType":5126,"count":13271,"max":[9.68218994140625,6.514978408813477,30.317075729370117],"min":[-9.682191848754883,-3.8506829738616943,-28.663000106811523],"type":"VEC3"},{"bufferView":65,"componentType":5126,"count":13271,"type":"VEC3"},{"bufferView":66,"componentType":5126,"count":13271,"type":"VEC4"},{"bufferView":67,"componentType":5126,"count":13271,"max":[0.9992930293083191,1],"min":[0,0.012109994888305664],"type":"VEC2"},{"bufferView":68,"componentType":5121,"count":60,"max":[11],"min":[0],"type":"SCALAR"},{"bufferView":69,"componentType":5126,"count":12,"max":[-24.94390296936035,0.1566072404384613,-11.103472709655762],"min":[-25.021604537963867,0.06526739150285721,-11.185164451599121],"type":"VEC3"},{"bufferView":70,"componentType":5126,"count":12,"type":"VEC3"},{"bufferView":71,"componentType":5126,"count":12,"type":"VEC4"},{"bufferView":72,"componentType":5126,"count":12,"max":[0,1],"min":[0,1],"type":"VEC2"},{"bufferView":73,"componentType":5123,"count":1764,"max":[693],"min":[0],"type":"SCALAR"},{"bufferView":74,"componentType":5126,"count":694,"max":[0.4605461657047272,0.8754262924194336,30.803171157836914],"min":[-0.4605499804019928,-1.0803474187850952,29.75440788269043],"type":"VEC3"},{"bufferView":75,"componentType":5126,"count":694,"type":"VEC3"},{"bufferView":76,"componentType":5126,"count":694,"type":"VEC4"},{"bufferView":77,"componentType":5126,"count":694,"max":[0,1],"min":[0,1],"type":"VEC2"},{"bufferView":78,"componentType":5126,"count":9918,"type":"VEC3","min":[-1.5412621850967407,1.9573709607124332,-30.803171157836914],"max":[1.541258370399475,12.79552936553955,-16.490001678466797]},{"bufferView":79,"componentType":5126,"count":9918,"type":"VEC3"},{"bufferView":80,"componentType":5126,"count":3567,"type":"VEC3","min":[-1.4282750655822187,4.613508516872987,-26.600895932738915],"max":[1.428271250884953,8.773394218576126,-22.441010231035776]},{"bufferView":81,"componentType":5126,"count":3567,"type":"VEC3"},{"bufferView":82,"componentType":5126,"count":3567,"type":"VEC2"}],"asset":{"generator":"Khronos Blender glTF 2.0 exporter","version":"2.0","copyright":"FlightGear model authors / FlightAirMap contributors; GPL-2.0. See source/flightairmap/md11/ for license and editable sources."},"bufferViews":[{"buffer":0,"byteLength":177339,"byteOffset":0},{"buffer":0,"byteLength":500178,"byteOffset":177339},{"buffer":0,"byteLength":212358,"byteOffset":677517},{"buffer":0,"byteLength":13416,"byteOffset":889876,"target":34963},{"buffer":0,"byteLength":30144,"byteOffset":903292,"target":34962},{"buffer":0,"byteLength":30144,"byteOffset":933436,"target":34962},{"buffer":0,"byteLength":40192,"byteOffset":963580,"target":34962},{"buffer":0,"byteLength":20096,"byteOffset":1003772,"target":34962},{"buffer":0,"byteLength":396,"byteOffset":1023868,"target":34963},{"buffer":0,"byteLength":1032,"byteOffset":1024264,"target":34962},{"buffer":0,"byteLength":1032,"byteOffset":1025296,"target":34962},{"buffer":0,"byteLength":1376,"byteOffset":1026328,"target":34962},{"buffer":0,"byteLength":688,"byteOffset":1027704,"target":34962},{"buffer":0,"byteLength":3090,"byteOffset":1028392,"target":34963},{"buffer":0,"byteLength":4572,"byteOffset":1031484,"target":34962},{"buffer":0,"byteLength":4572,"byteOffset":1036056,"target":34962},{"buffer":0,"byteLength":6096,"byteOffset":1040628,"target":34962},{"buffer":0,"byteLength":3048,"byteOffset":1046724,"target":34962},{"buffer":0,"byteLength":4548,"byteOffset":1049772,"target":34963},{"buffer":0,"byteLength":12288,"byteOffset":1054320,"target":34962},{"buffer":0,"byteLength":12288,"byteOffset":1066608,"target":34962},{"buffer":0,"byteLength":16384,"byteOffset":1078896,"target":34962},{"buffer":0,"byteLength":8192,"byteOffset":1095280,"target":34962},{"buffer":0,"byteLength":18876,"byteOffset":1103472,"target":34963},{"buffer":0,"byteLength":33192,"byteOffset":1122348,"target":34962},{"buffer":0,"byteLength":33192,"byteOffset":1155540,"target":34962},{"buffer":0,"byteLength":44256,"byteOffset":1188732,"target":34962},{"buffer":0,"byteLength":22128,"byteOffset":1232988,"target":34962},{"buffer":0,"byteLength":4680,"byteOffset":1255116,"target":34963},{"buffer":0,"byteLength":10944,"byteOffset":1259796,"target":34962},{"buffer":0,"byteLength":10944,"byteOffset":1270740,"target":34962},{"buffer":0,"byteLength":14592,"byteOffset":1281684,"target":34962},{"buffer":0,"byteLength":7296,"byteOffset":1296276,"target":34962},{"buffer":0,"byteLength":124158,"byteOffset":1303572,"target":34963},{"buffer":0,"byteLength":186588,"byteOffset":1427732,"target":34962},{"buffer":0,"byteLength":186588,"byteOffset":1614320,"target":34962},{"buffer":0,"byteLength":248784,"byteOffset":1800908,"target":34962},{"buffer":0,"byteLength":124392,"byteOffset":2049692,"target":34962},{"buffer":0,"byteLength":240,"byteOffset":2174084,"target":34963},{"buffer":0,"byteLength":792,"byteOffset":2174324,"target":34962},{"buffer":0,"byteLength":792,"byteOffset":2175116,"target":34962},{"buffer":0,"byteLength":1056,"byteOffset":2175908,"target":34962},{"buffer":0,"byteLength":528,"byteOffset":2176964,"target":34962},{"buffer":0,"byteLength":36,"byteOffset":2177492,"target":34963},{"buffer":0,"byteLength":288,"byteOffset":2177528,"target":34962},{"buffer":0,"byteLength":288,"byteOffset":2177816,"target":34962},{"buffer":0,"byteLength":384,"byteOffset":2178104,"target":34962},{"buffer":0,"byteLength":192,"byteOffset":2178488,"target":34962},{"buffer":0,"byteLength":13416,"byteOffset":2178680,"target":34963},{"buffer":0,"byteLength":30144,"byteOffset":2192096,"target":34962},{"buffer":0,"byteLength":30144,"byteOffset":2222240,"target":34962},{"buffer":0,"byteLength":40192,"byteOffset":2252384,"target":34962},{"buffer":0,"byteLength":20096,"byteOffset":2292576,"target":34962},{"buffer":0,"byteLength":384,"byteOffset":2312672,"target":34963},{"buffer":0,"byteLength":1152,"byteOffset":2313056,"target":34962},{"buffer":0,"byteLength":1152,"byteOffset":2314208,"target":34962},{"buffer":0,"byteLength":1536,"byteOffset":2315360,"target":34962},{"buffer":0,"byteLength":768,"byteOffset":2316896,"target":34962},{"buffer":0,"byteLength":49590,"byteOffset":2317664,"target":34963},{"buffer":0,"byteLength":87612,"byteOffset":2367256,"target":34962},{"buffer":0,"byteLength":87612,"byteOffset":2454868,"target":34962},{"buffer":0,"byteLength":116816,"byteOffset":2542480,"target":34962},{"buffer":0,"byteLength":58408,"byteOffset":2659296,"target":34962},{"buffer":0,"byteLength":69942,"byteOffset":2717704,"target":34963},{"buffer":0,"byteLength":159252,"byteOffset":2787648,"target":34962},{"buffer":0,"byteLength":159252,"byteOffset":2946900,"target":34962},{"buffer":0,"byteLength":212336,"byteOffset":3106152,"target":34962},{"buffer":0,"byteLength":106168,"byteOffset":3318488,"target":34962},{"buffer":0,"byteLength":60,"byteOffset":3424656,"target":34963},{"buffer":0,"byteLength":144,"byteOffset":3424716,"target":34962},{"buffer":0,"byteLength":144,"byteOffset":3424860,"target":34962},{"buffer":0,"byteLength":192,"byteOffset":3425004,"target":34962},{"buffer":0,"byteLength":96,"byteOffset":3425196,"target":34962},{"buffer":0,"byteLength":3528,"byteOffset":3425292,"target":34963},{"buffer":0,"byteLength":8328,"byteOffset":3428820,"target":34962},{"buffer":0,"byteLength":8328,"byteOffset":3437148,"target":34962},{"buffer":0,"byteLength":11104,"byteOffset":3445476,"target":34962},{"buffer":0,"byteLength":5552,"byteOffset":3456580,"target":34962},{"buffer":1,"byteOffset":0,"byteLength":119016,"target":34962},{"buffer":1,"byteOffset":119016,"byteLength":119016,"target":34962},{"buffer":1,"byteOffset":238032,"byteLength":42804,"target":34962},{"buffer":1,"byteOffset":280836,"byteLength":42804,"target":34962},{"buffer":1,"byteOffset":323640,"byteLength":28536,"target":34962}],"buffers":[{"byteLength":3462132,"extras":{},"uri":"../md11-v1-0.bin"},{"uri":"md11-tail-v1.bin","byteLength":352176}],"images":[{"bufferView":0,"mimeType":"image/png","name":"fan.png","extras":{}},{"bufferView":1,"mimeType":"image/png","name":"wings.png","extras":{}},{"bufferView":2,"mimeType":"image/png","name":"md11.png","extras":{}},{"uri":"../../../airlines/JBU.png"}],"materials":[{"name":"DefaultWhite","pbrMetallicRoughness":{"baseColorFactor":[0.800000011920929,0.800000011920929,0.800000011920929,1],"metallicFactor":0}},{"name":"DefaultWhite.001","pbrMetallicRoughness":{"baseColorFactor":[0.800000011920929,0.800000011920929,0.800000011920929,1],"baseColorTexture":{"index":0},"metallicFactor":0}},{"name":"Material.001","pbrMetallicRoughness":{"baseColorFactor":[0.6400000190734865,0.6400000190734865,0.6400000190734865,1],"baseColorTexture":{"index":0},"metallicFactor":0}},{"name":"Material.002","pbrMetallicRoughness":{"baseColorFactor":[0.6400000190734865,0.6400000190734865,0.6400000190734865,1],"baseColorTexture":{"index":1},"metallicFactor":0}},{"name":"Material.003","pbrMetallicRoughness":{"baseColorFactor":[0.6400000190734865,0.6400000190734865,0.6400000190734865,1],"baseColorTexture":{"index":2},"metallicFactor":0}},{"name":"Material.005","pbrMetallicRoughness":{"baseColorFactor":[0,0,0,1],"metallicFactor":0}},{"name":"Material.006","pbrMetallicRoughness":{"baseColorFactor":[0,0.6400000190734865,0.010960000171661377,1],"metallicFactor":0}},{"name":"Material.007","pbrMetallicRoughness":{"baseColorFactor":[0.6400000190734865,0.6400000190734865,0.6400000190734865,1],"baseColorTexture":{"index":2},"metallicFactor":0}},{"alphaMode":"BLEND","name":"Material.008","pbrMetallicRoughness":{"baseColorFactor":[0.07279999960660932,0.08528000243425371,0.10047999770164484,0.0908999964594841],"metallicFactor":0}},{"alphaMode":"BLEND","name":"Material.009","pbrMetallicRoughness":{"baseColorFactor":[0.07279999960660932,0.08528000243425371,0.10047999770164484,0.0908999964594841],"metallicFactor":0}},{"name":"Material.010","pbrMetallicRoughness":{"baseColorFactor":[0.6400000190734865,0.6400000190734865,0.6400000190734865,1],"baseColorTexture":{"index":0},"metallicFactor":0}},{"name":"Material.011","pbrMetallicRoughness":{"baseColorFactor":[0.6400000190734865,0,0.011280000377893451,1],"metallicFactor":0}},{"name":"Material.012","pbrMetallicRoughness":{"baseColorFactor":[0.6400000190734865,0.6400000190734865,0.6400000190734865,1],"baseColorTexture":{"index":1},"metallicFactor":0}},{"name":"tire","pbrMetallicRoughness":{"baseColorFactor":[0.800000011920929,0.800000011920929,0.800000011920929,1],"metallicFactor":0}},{"name":"tire.001","pbrMetallicRoughness":{"baseColorFactor":[0.800000011920929,0.800000011920929,0.800000011920929,1],"baseColorTexture":{"index":2},"metallicFactor":0}},{"name":"Operator tail paint","doubleSided":true,"pbrMetallicRoughness":{"baseColorFactor":[0.09803921568627451,0.2235294117647059,0.4745098039215686,1],"metallicFactor":0,"roughnessFactor":0.65}},{"name":"Operator logo identification","doubleSided":true,"alphaMode":"BLEND","pbrMetallicRoughness":{"baseColorTexture":{"index":3},"metallicFactor":0,"roughnessFactor":0.7},"emissiveFactor":[0.18,0.18,0.18],"emissiveTexture":{"index":3}}],"meshes":[{"name":"fuselage.mesh","primitives":[{"attributes":{"NORMAL":2,"POSITION":1,"TANGENT":3,"TEXCOORD_0":4},"indices":0,"material":9},{"attributes":{"NORMAL":7,"POSITION":6,"TANGENT":8,"TEXCOORD_0":9},"indices":5,"material":11},{"attributes":{"NORMAL":12,"POSITION":11,"TANGENT":13,"TEXCOORD_0":14},"indices":10,"material":12},{"attributes":{"NORMAL":17,"POSITION":16,"TANGENT":18,"TEXCOORD_0":19},"indices":15,"material":1},{"attributes":{"NORMAL":22,"POSITION":21,"TANGENT":23,"TEXCOORD_0":24},"indices":20,"material":8},{"attributes":{"NORMAL":27,"POSITION":26,"TANGENT":28,"TEXCOORD_0":29},"indices":25,"material":5},{"attributes":{"NORMAL":32,"POSITION":31,"TANGENT":33,"TEXCOORD_0":34},"indices":30,"material":4},{"attributes":{"NORMAL":37,"POSITION":36,"TANGENT":38,"TEXCOORD_0":39},"indices":35,"material":7},{"attributes":{"NORMAL":42,"POSITION":41,"TANGENT":43,"TEXCOORD_0":44},"indices":40,"material":13},{"attributes":{"NORMAL":47,"POSITION":46,"TANGENT":48,"TEXCOORD_0":49},"indices":45,"material":10},{"attributes":{"NORMAL":52,"POSITION":51,"TANGENT":53,"TEXCOORD_0":54},"indices":50,"material":14},{"attributes":{"NORMAL":57,"POSITION":56,"TANGENT":58,"TEXCOORD_0":59},"indices":55,"material":3},{"attributes":{"NORMAL":62,"POSITION":61,"TANGENT":63,"TEXCOORD_0":64},"indices":60,"material":2},{"attributes":{"NORMAL":67,"POSITION":66,"TANGENT":68,"TEXCOORD_0":69},"indices":65,"material":6},{"attributes":{"NORMAL":72,"POSITION":71,"TANGENT":73,"TEXCOORD_0":74},"indices":70,"material":0}]},{"name":"Airline tail surface overlay","primitives":[{"attributes":{"POSITION":75,"NORMAL":76},"material":15},{"attributes":{"POSITION":77,"NORMAL":78,"TEXCOORD_0":79},"material":16}]}],"nodes":[{"mesh":0,"name":"fuselage"},{"name":"SkywardCoordinateAlignment","matrix":[1,0,0,0,0,1,0,0,0,0,1,0,0,0,0,1],"children":[0]},{"name":"AirlineTailBranding","mesh":1}],"samplers":[{},{"magFilter":9729,"minFilter":9987,"wrapS":33071,"wrapT":33071}],"scene":0,"scenes":[{"name":"Scene","nodes":[1,2]}],"textures":[{"sampler":0,"source":0},{"sampler":0,"source":1},{"sampler":0,"source":2},{"source":3,"sampler":1}],"extras":{"skyward":{"source":"https://github.com/Ysurac/FlightAirMap-3dmodels","commit":"0906d9ba1bdd906ce45807e45ed706c09912db19","changes":"Converted legacy glTF to glTF 2.0 with Cesium; rigid axis alignment, horizontal centering, and source transforms baked into positions/normals for correct Cesium bounds. Original shape, materials and paint retained. Added surface-following operator tail paint and unmodified identification-logo texture. Branding is illustrative, not a registration-specific livery.","license":"GPL-2.0","sourceFiles":["source/flightairmap/md11/LICENSE","source/flightairmap/md11/md11.blend"],"operator":"JBU"}}}