{"accessors":[{"bufferView":2,"componentType":5123,"count":1128,"max":[373],"min":[0],"type":"SCALAR"},{"bufferView":3,"componentType":5126,"count":374,"max":[0.386398047208786,1.2408149242401123,1.4783029556274414],"min":[-0.386398047208786,0.6893928647041321,-0.908371090888977],"type":"VEC3"},{"bufferView":4,"componentType":5126,"count":374,"type":"VEC3"},{"bufferView":5,"componentType":5126,"count":374,"max":[1,1],"min":[0,0],"type":"VEC2"},{"bufferView":6,"componentType":5123,"count":69144,"max":[14288],"min":[0],"type":"SCALAR"},{"bufferView":7,"componentType":5126,"count":14289,"max":[5.663445949554443,2.0384650230407715,4.821430206298828],"min":[-5.663445949554443,-1.2638795375823975,-4.821430206298828],"type":"VEC3"},{"bufferView":8,"componentType":5126,"count":14289,"type":"VEC3"},{"bufferView":9,"componentType":5126,"count":14289,"max":[0.9887638092041016,0.9920020280405879],"min":[0.011938154697418213,0.03356945514678955],"type":"VEC2"},{"bufferView":10,"componentType":5123,"count":918,"max":[320],"min":[0],"type":"SCALAR"},{"bufferView":11,"componentType":5126,"count":321,"max":[1.6336790323257446,1.9308980703353882,4.2723469734191895],"min":[-1.6867774724960327,-1.2924425601959229,4.1195831298828125],"type":"VEC3"},{"bufferView":12,"componentType":5126,"count":321,"type":"VEC3"},{"bufferView":13,"componentType":5126,"count":321,"max":[0.8569750785827637,0.9092090874910355],"min":[0.13822504878044128,0.08145749568939209],"type":"VEC2"},{"bufferView":14,"componentType":5126,"count":3624,"type":"VEC3","min":[-0.39575356293949754,-0.12662490606307975,-4.821430206298828],"max":[0.39575356293949754,2.038114070892334,-1.1568]},{"bufferView":15,"componentType":5126,"count":3624,"type":"VEC3"},{"bufferView":16,"componentType":5126,"count":804,"type":"VEC3","min":[-0.32665074157714846,0.4502239128211143,-4.650469945593774],"max":[0.3266513376235962,1.5899589841881399,-3.510734874226748]},{"bufferView":17,"componentType":5126,"count":804,"type":"VEC3"},{"bufferView":18,"componentType":5126,"count":804,"type":"VEC2"}],"asset":{"generator":"Khronos Blender glTF 2.0 exporter","version":"2.0","copyright":"FlightGear model authors / FlightAirMap contributors; GPL-2.0. See source/flightairmap/p40/ for license and editable sources."},"bufferViews":[{"buffer":0,"byteLength":1019103,"byteOffset":0},{"buffer":0,"byteLength":20519,"byteOffset":1019103},{"buffer":0,"byteLength":2256,"byteOffset":1039622,"target":34963},{"buffer":0,"byteLength":4488,"byteOffset":1041880,"target":34962},{"buffer":0,"byteLength":4488,"byteOffset":1046368,"target":34962},{"buffer":0,"byteLength":2992,"byteOffset":1050856,"target":34962},{"buffer":0,"byteLength":138288,"byteOffset":1053848,"target":34963},{"buffer":0,"byteLength":171468,"byteOffset":1192136,"target":34962},{"buffer":0,"byteLength":171468,"byteOffset":1363604,"target":34962},{"buffer":0,"byteLength":114312,"byteOffset":1535072,"target":34962},{"buffer":0,"byteLength":1836,"byteOffset":1649384,"target":34963},{"buffer":0,"byteLength":3852,"byteOffset":1651220,"target":34962},{"buffer":0,"byteLength":3852,"byteOffset":1655072,"target":34962},{"buffer":0,"byteLength":2568,"byteOffset":1658924,"target":34962},{"buffer":1,"byteOffset":0,"byteLength":43488,"target":34962},{"buffer":1,"byteOffset":43488,"byteLength":43488,"target":34962},{"buffer":1,"byteOffset":86976,"byteLength":9648,"target":34962},{"buffer":1,"byteOffset":96624,"byteLength":9648,"target":34962},{"buffer":1,"byteOffset":106272,"byteLength":6432,"target":34962}],"buffers":[{"byteLength":1661492,"extras":{},"uri":"../p40-v1-0.bin"},{"uri":"p40-tail-v1.bin","byteLength":112704}],"images":[{"bufferView":0,"mimeType":"image/png","name":"texture.png","extras":{}},{"bufferView":1,"mimeType":"image/png","name":"prop.png","extras":{}},{"uri":"../../../airlines/EZY.png"}],"materials":[{"name":"DefaultWhite","pbrMetallicRoughness":{"baseColorFactor":[0.800000011920929,0.800000011920929,0.800000011920929,1],"baseColorTexture":{"index":0},"metallicFactor":0}},{"alphaMode":"BLEND","name":"transparent","pbrMetallicRoughness":{"baseColorFactor":[0.800000011920929,0.800000011920929,0.800000011920929,0.30000001192092896],"baseColorTexture":{"index":1},"metallicFactor":0}},{"alphaMode":"BLEND","name":"transparent.001","pbrMetallicRoughness":{"baseColorFactor":[0.800000011920929,0.800000011920929,0.800000011920929,0.30000001192092896],"metallicFactor":0}},{"name":"Operator tail paint","doubleSided":true,"pbrMetallicRoughness":{"baseColorFactor":[0.9450980392156862,0.4196078431372549,0.13333333333333333,1],"metallicFactor":0,"roughnessFactor":0.65}},{"name":"Operator logo identification","doubleSided":true,"alphaMode":"BLEND","pbrMetallicRoughness":{"baseColorTexture":{"index":2},"metallicFactor":0,"roughnessFactor":0.7},"emissiveFactor":[0.18,0.18,0.18],"emissiveTexture":{"index":2}}],"meshes":[{"name":"ailes","primitives":[{"attributes":{"NORMAL":2,"POSITION":1,"TEXCOORD_0":3},"indices":0,"material":2},{"attributes":{"NORMAL":6,"POSITION":5,"TEXCOORD_0":7},"indices":4,"material":0},{"attributes":{"NORMAL":10,"POSITION":9,"TEXCOORD_0":11},"indices":8,"material":1}]},{"name":"Airline tail surface overlay","primitives":[{"attributes":{"POSITION":12,"NORMAL":13},"material":3},{"attributes":{"POSITION":14,"NORMAL":15,"TEXCOORD_0":16},"material":4}]}],"nodes":[{"mesh":0,"name":"ailes"},{"name":"SkywardCoordinateAlignment","matrix":[1,0,0,0,0,1,0,0,0,0,1,0,0,0,0,1],"children":[0]},{"name":"AirlineTailBranding","mesh":1}],"samplers":[{},{"magFilter":9729,"minFilter":9987,"wrapS":33071,"wrapT":33071}],"scene":0,"scenes":[{"name":"Scene","nodes":[1,2]}],"textures":[{"sampler":0,"source":0},{"sampler":0,"source":1},{"source":2,"sampler":1}],"extras":{"skyward":{"source":"https://github.com/Ysurac/FlightAirMap-3dmodels","commit":"0906d9ba1bdd906ce45807e45ed706c09912db19","changes":"Converted legacy glTF to glTF 2.0 with Cesium; rigid axis alignment, horizontal centering, and source transforms baked into positions/normals for correct Cesium bounds. Original shape, materials and paint retained. Added surface-following operator tail paint and unmodified identification-logo texture. Branding is illustrative, not a registration-specific livery.","license":"GPL-2.0","sourceFiles":["source/flightairmap/p40/COPYING","source/flightairmap/p40/p40.blend"],"operator":"EZY"}}}