{"accessors":[{"bufferView":2,"componentType":5121,"count":660,"max":[215],"min":[0],"type":"SCALAR"},{"bufferView":3,"componentType":5126,"count":216,"max":[0.5228028297424316,0.8729730844497681,3.3762619495391846],"min":[-0.5229111909866333,-1.0144089460372925,3.299428939819336],"type":"VEC3"},{"bufferView":4,"componentType":5126,"count":216,"type":"VEC3"},{"bufferView":5,"componentType":5126,"count":216,"type":"VEC4"},{"bufferView":6,"componentType":5126,"count":216,"max":[0.6717877388000488,0.5],"min":[0.3343784809112549,0.11303484439849854],"type":"VEC2"},{"bufferView":7,"componentType":5123,"count":1080,"max":[407],"min":[0],"type":"SCALAR"},{"bufferView":8,"componentType":5126,"count":408,"max":[0.847694993019104,0.7568580508232117,1.6028050184249878],"min":[-0.8478030562400818,0.7109119892120361,1.5052098035812378],"type":"VEC3"},{"bufferView":9,"componentType":5126,"count":408,"type":"VEC3"},{"bufferView":10,"componentType":5126,"count":408,"type":"VEC4"},{"bufferView":11,"componentType":5126,"count":408,"max":[0.42664435505867004,0.4521733522415161],"min":[0.3164933919906616,0.445742130279541],"type":"VEC2"},{"bufferView":12,"componentType":5123,"count":3693,"max":[706],"min":[0],"type":"SCALAR"},{"bufferView":13,"componentType":5126,"count":707,"max":[0.024732226505875587,1.3477510213851929,-2.514172077178955],"min":[-0.024731773883104324,-0.018913062289357185,-3.462496042251587],"type":"VEC3"},{"bufferView":14,"componentType":5126,"count":707,"type":"VEC3"},{"bufferView":15,"componentType":5126,"count":707,"max":[0.9672621488571167,1],"min":[0,0.022931456565856934],"type":"VEC2"},{"bufferView":16,"componentType":5121,"count":672,"max":[197],"min":[0],"type":"SCALAR"},{"bufferView":17,"componentType":5126,"count":198,"max":[-0.17531800270080566,-0.4645279347896576,2.6109769344329834],"min":[-0.2696950137615204,-0.6090729236602783,2.569551944732666],"type":"VEC3"},{"bufferView":18,"componentType":5126,"count":198,"type":"VEC3"},{"bufferView":19,"componentType":5126,"count":198,"type":"VEC4"},{"bufferView":20,"componentType":5126,"count":198,"max":[0.9890209436416626,0.8556948900222778],"min":[0.9613954424858093,0.7593010067939758],"type":"VEC2"},{"bufferView":21,"componentType":5123,"count":4446,"max":[840],"min":[0],"type":"SCALAR"},{"bufferView":22,"componentType":5126,"count":841,"max":[1.4441783428192139,0.3159779906272888,-2.1347362995147705],"min":[-1.4441777467727661,0.2734859883785248,-2.861943483352661],"type":"VEC3"},{"bufferView":23,"componentType":5126,"count":841,"type":"VEC3"},{"bufferView":24,"componentType":5126,"count":841,"type":"VEC4"},{"bufferView":25,"componentType":5126,"count":841,"max":[0.5296895503997803,0.8005625009536743],"min":[0.034978237003088,0.7431626617908478],"type":"VEC2"},{"bufferView":26,"componentType":5123,"count":4800,"max":[1085],"min":[0],"type":"SCALAR"},{"bufferView":27,"componentType":5126,"count":1086,"max":[0.9628120064735413,-0.8975850343704224,2.087010145187378],"min":[0.8106650114059448,-1.3516411781311035,1.6323180198669434],"type":"VEC3"},{"bufferView":28,"componentType":5126,"count":1086,"type":"VEC3"},{"bufferView":29,"componentType":5126,"count":1086,"type":"VEC4"},{"bufferView":30,"componentType":5126,"count":1086,"max":[0.9961164593696594,0.991146381944418],"min":[0.8850877285003662,0.8802731335163116],"type":"VEC2"},{"bufferView":31,"componentType":5123,"count":8448,"max":[2245],"min":[0],"type":"SCALAR"},{"bufferView":32,"componentType":5126,"count":2246,"max":[3.3733091354370117,0.8741110563278198,1.7072480916976929],"min":[-3.3734171390533447,-0.5791740417480469,-2.833754539489746],"type":"VEC3"},{"bufferView":33,"componentType":5126,"count":2246,"type":"VEC3"},{"bufferView":34,"componentType":5126,"count":2246,"type":"VEC4"},{"bufferView":35,"componentType":5126,"count":2246,"max":[0.9895190000534058,0.6251506507396698],"min":[0.7888333797454834,0.19802141189575195],"type":"VEC2"},{"bufferView":36,"componentType":5123,"count":4800,"max":[1086],"min":[0],"type":"SCALAR"},{"bufferView":37,"componentType":5126,"count":1087,"max":[0.026311244815587997,-0.1065870076417923,-3.157413959503174],"min":[-0.026310767978429794,-0.26362502574920654,-3.3146719932556152],"type":"VEC3"},{"bufferView":38,"componentType":5126,"count":1087,"type":"VEC3"},{"bufferView":39,"componentType":5126,"count":1087,"type":"VEC4"},{"bufferView":40,"componentType":5126,"count":1087,"max":[0.9955517649650574,0.990813460201025],"min":[0.8847490549087524,0.8801663666963577],"type":"VEC2"},{"bufferView":41,"componentType":5123,"count":2148,"max":[604],"min":[0],"type":"SCALAR"},{"bufferView":42,"componentType":5126,"count":605,"max":[-0.2583509385585785,-0.5585349202156067,1.8714377880096436],"min":[-0.77052903175354,-1.114320993423462,1.2232698202133179],"type":"VEC3"},{"bufferView":43,"componentType":5126,"count":605,"type":"VEC3"},{"bufferView":44,"componentType":5126,"count":605,"type":"VEC4"},{"bufferView":45,"componentType":5126,"count":605,"max":[0.5596005320549011,0.9612397439777851],"min":[0.09209750592708588,0.015060245990753174],"type":"VEC2"},{"bufferView":46,"componentType":5123,"count":4080,"max":[879],"min":[0],"type":"SCALAR"},{"bufferView":47,"componentType":5126,"count":880,"max":[1.4441783428192139,0.3076769709587097,-2.8618030548095703],"min":[-1.4441778659820557,0.2804499864578247,-3.356020212173462],"type":"VEC3"},{"bufferView":48,"componentType":5126,"count":880,"type":"VEC3"},{"bufferView":49,"componentType":5126,"count":880,"type":"VEC4"},{"bufferView":50,"componentType":5126,"count":880,"max":[0.530924916267395,0.8401151895523071],"min":[0.03453610837459564,0.8008859902620316],"type":"VEC2"},{"bufferView":51,"componentType":5121,"count":336,"max":[113],"min":[0],"type":"SCALAR"},{"bufferView":52,"componentType":5126,"count":114,"max":[0.3732329308986664,0.7263780236244202,2.50239896774292],"min":[-0.37323808670043945,0.009677993133664131,0.014859859831631184],"type":"VEC3"},{"bufferView":53,"componentType":5126,"count":114,"type":"VEC3"},{"bufferView":54,"componentType":5126,"count":114,"type":"VEC4"},{"bufferView":55,"componentType":5126,"count":114,"max":[1,1],"min":[0,0],"type":"VEC2"},{"bufferView":56,"componentType":5121,"count":24,"max":[23],"min":[0],"type":"SCALAR"},{"bufferView":57,"componentType":5126,"count":24,"max":[0.2989158630371094,0.8708160519599915,3.379343032836914],"min":[-0.29902416467666626,-1.0122510194778442,3.294930934906006],"type":"VEC3"},{"bufferView":58,"componentType":5126,"count":24,"type":"VEC3"},{"bufferView":59,"componentType":5126,"count":24,"type":"VEC4"},{"bufferView":60,"componentType":5126,"count":24,"max":[0.5683612823486328,0.8834267109632492],"min":[0.42873474955558777,0.49993759393692017],"type":"VEC2"},{"bufferView":61,"componentType":5123,"count":4800,"max":[1085],"min":[0],"type":"SCALAR"},{"bufferView":62,"componentType":5126,"count":1086,"max":[-0.810926079750061,-0.8975850343704224,2.087009906768799],"min":[-0.9630741477012634,-1.3516411781311035,1.6323177814483643],"type":"VEC3"},{"bufferView":63,"componentType":5126,"count":1086,"type":"VEC3"},{"bufferView":64,"componentType":5126,"count":1086,"type":"VEC4"},{"bufferView":65,"componentType":5126,"count":1086,"max":[0.9956935048103333,0.9901175759732723],"min":[0.8873465061187744,0.8819224983453751],"type":"VEC2"},{"bufferView":66,"componentType":5123,"count":16836,"max":[3167],"min":[0],"type":"SCALAR"},{"bufferView":67,"componentType":5126,"count":3168,"max":[5.356640338897705,0.7607860565185547,1.9261093139648438],"min":[-5.356640338897705,0.4905930161476135,0.3123428225517273],"type":"VEC3"},{"bufferView":68,"componentType":5126,"count":3168,"type":"VEC3"},{"bufferView":69,"componentType":5126,"count":3168,"type":"VEC4"},{"bufferView":70,"componentType":5126,"count":3168,"max":[0.7281330227851868,0.6806655526161194],"min":[0.016070902347564697,0.42481547594070435],"type":"VEC2"},{"bufferView":71,"componentType":5123,"count":3696,"max":[873],"min":[0],"type":"SCALAR"},{"bufferView":72,"componentType":5126,"count":874,"max":[0.8791230320930481,-0.8425878882408142,1.8942888975143433],"min":[0.002102005761116743,-1.1592379808425903,1.789705753326416],"type":"VEC3"},{"bufferView":73,"componentType":5126,"count":874,"type":"VEC3"},{"bufferView":74,"componentType":5126,"count":874,"type":"VEC4"},{"bufferView":75,"componentType":5126,"count":874,"max":[0.8044968843460083,0.9694802835583687],"min":[0.011755222454667091,0.822923868894577],"type":"VEC2"},{"bufferView":76,"componentType":5121,"count":564,"max":[189],"min":[0],"type":"SCALAR"},{"bufferView":77,"componentType":5126,"count":190,"max":[0.2939189672470093,-0.5745110511779785,1.887347936630249],"min":[-0.29402706027030945,-0.8791970610618591,1.8298978805541992],"type":"VEC3"},{"bufferView":78,"componentType":5126,"count":190,"type":"VEC3"},{"bufferView":79,"componentType":5126,"count":190,"type":"VEC4"},{"bufferView":80,"componentType":5126,"count":190,"max":[0.8084521889686584,0.9123594835400581],"min":[0.01649116910994053,0.8306501358747482],"type":"VEC2"},{"bufferView":81,"componentType":5123,"count":3420,"max":[678],"min":[0],"type":"SCALAR"},{"bufferView":82,"componentType":5126,"count":679,"max":[0.38468092679977417,1.0303659439086914,2.507982015609741],"min":[-0.3847890794277191,-0.6495900750160217,-2.942868232727051],"type":"VEC3"},{"bufferView":83,"componentType":5126,"count":679,"type":"VEC3"},{"bufferView":84,"componentType":5126,"count":679,"type":"VEC4"},{"bufferView":85,"componentType":5126,"count":679,"max":[0.9135822653770447,0.3844515085220337],"min":[0.1800329089164734,0.056588828563690186],"type":"VEC2"},{"bufferView":86,"componentType":5121,"count":48,"max":[19],"min":[0],"type":"SCALAR"},{"bufferView":87,"componentType":5126,"count":20,"max":[-3.5293641090393066,0.576337993144989,0.8934685587882996],"min":[-3.5343451499938965,0.548520028591156,0.5334185361862183],"type":"VEC3"},{"bufferView":88,"componentType":5126,"count":20,"type":"VEC3"},{"bufferView":89,"componentType":5126,"count":20,"type":"VEC4"},{"bufferView":90,"componentType":5126,"count":20,"max":[0.858974277973175,0.9541806951165199],"min":[0.7810075879096985,0.9481567703187466],"type":"VEC2"},{"bufferView":91,"componentType":5121,"count":48,"max":[19],"min":[0],"type":"SCALAR"},{"bufferView":92,"componentType":5126,"count":20,"max":[3.5342371463775635,0.576337993144989,0.8934691548347473],"min":[3.5292563438415527,0.548520028591156,0.533419132232666],"type":"VEC3"},{"bufferView":93,"componentType":5126,"count":20,"type":"VEC3"},{"bufferView":94,"componentType":5126,"count":20,"type":"VEC4"},{"bufferView":95,"componentType":5126,"count":20,"max":[0.858974277973175,0.9541806951165199],"min":[0.7810075879096985,0.9481567703187466],"type":"VEC2"},{"bufferView":96,"componentType":5121,"count":600,"max":[187],"min":[0],"type":"SCALAR"},{"bufferView":97,"componentType":5126,"count":188,"max":[0.07195082306861877,0.8690750598907471,3.3762619495391846],"min":[-0.07205918431282043,-1.010511040687561,3.299428939819336],"type":"VEC3"},{"bufferView":98,"componentType":5126,"count":188,"type":"VEC3"},{"bufferView":99,"componentType":5126,"count":188,"type":"VEC4"},{"bufferView":100,"componentType":5126,"count":188,"max":[0.8589056134223938,0.9400413781404495],"min":[0.7812997698783875,0.925108328461647],"type":"VEC2"},{"bufferView":101,"componentType":5123,"count":960,"max":[305],"min":[0],"type":"SCALAR"},{"bufferView":102,"componentType":5126,"count":306,"max":[0.3079669773578644,0.7014880180358887,2.3349530696868896],"min":[-0.30796605348587036,0.12865200638771057,1.6378068923950195],"type":"VEC3"},{"bufferView":103,"componentType":5126,"count":306,"type":"VEC3"},{"bufferView":104,"componentType":5126,"count":306,"type":"VEC4"},{"bufferView":105,"componentType":5126,"count":306,"max":[0.8601832985877991,0.9794257339090109],"min":[0.7760574817657471,0.9011862203478813],"type":"VEC2"},{"bufferView":106,"componentType":5121,"count":168,"max":[55],"min":[0],"type":"SCALAR"},{"bufferView":107,"componentType":5126,"count":56,"max":[-0.42702794075012207,0.648032009601593,0.7932718396186829],"min":[-2.0555789470672607,0.5289000272750854,0.31234267354011536],"type":"VEC3"},{"bufferView":108,"componentType":5126,"count":56,"type":"VEC3"},{"bufferView":109,"componentType":5126,"count":56,"type":"VEC4"},{"bufferView":110,"componentType":5126,"count":56,"max":[0.5100109577178955,0.6897823810577393],"min":[0.2340349555015564,0.5086080431938171],"type":"VEC2"},{"bufferView":111,"componentType":5123,"count":2097,"max":[485],"min":[0],"type":"SCALAR"},{"bufferView":112,"componentType":5126,"count":486,"max":[0.4093908965587616,0.15420499444007874,3.270730972290039],"min":[-0.4094991683959961,-0.5381720662117004,2.507981061935425],"type":"VEC3"},{"bufferView":113,"componentType":5126,"count":486,"type":"VEC3"},{"bufferView":114,"componentType":5126,"count":486,"type":"VEC4"},{"bufferView":115,"componentType":5126,"count":486,"max":[0.8109428882598877,0.37471187114715576],"min":[0.2811058461666107,0.14434748888015747],"type":"VEC2"},{"bufferView":116,"componentType":5121,"count":168,"max":[55],"min":[0],"type":"SCALAR"},{"bufferView":117,"componentType":5126,"count":56,"max":[2.05557918548584,0.648032009601593,0.7932718992233276],"min":[0.4270280599594116,0.5289000272750854,0.31234288215637207],"type":"VEC3"},{"bufferView":118,"componentType":5126,"count":56,"type":"VEC3"},{"bufferView":119,"componentType":5126,"count":56,"type":"VEC4"},{"bufferView":120,"componentType":5126,"count":56,"max":[0.5096883773803711,0.6897823810577393],"min":[0.23371240496635437,0.5086080431938171],"type":"VEC2"},{"bufferView":121,"componentType":5121,"count":48,"max":[19],"min":[0],"type":"SCALAR"},{"bufferView":122,"componentType":5126,"count":20,"max":[3.5342371463775635,0.734250009059906,0.8934691548347473],"min":[3.5292563438415527,0.640625,0.533419132232666],"type":"VEC3"},{"bufferView":123,"componentType":5126,"count":20,"type":"VEC3"},{"bufferView":124,"componentType":5126,"count":20,"type":"VEC4"},{"bufferView":125,"componentType":5126,"count":20,"max":[0.858974277973175,0.9342358857393265],"min":[0.7810075879096985,0.913961872458458],"type":"VEC2"},{"bufferView":126,"componentType":5123,"count":1638,"max":[346],"min":[0],"type":"SCALAR"},{"bufferView":127,"componentType":5126,"count":347,"max":[-2.055448055267334,0.6629599928855896,0.7026396989822388],"min":[-4.641480922698975,0.5513749718666077,0.31234249472618103],"type":"VEC3"},{"bufferView":128,"componentType":5126,"count":347,"type":"VEC3"},{"bufferView":129,"componentType":5126,"count":347,"type":"VEC4"},{"bufferView":130,"componentType":5126,"count":347,"max":[0.6785699725151062,0.6833701133728027],"min":[0.06489437818527222,0.5090626180171967],"type":"VEC2"},{"bufferView":131,"componentType":5121,"count":48,"max":[19],"min":[0],"type":"SCALAR"},{"bufferView":132,"componentType":5126,"count":20,"max":[-3.5293641090393066,0.734250009059906,0.8934685587882996],"min":[-3.5343451499938965,0.640625,0.5334185361862183],"type":"VEC3"},{"bufferView":133,"componentType":5126,"count":20,"type":"VEC3"},{"bufferView":134,"componentType":5126,"count":20,"type":"VEC4"},{"bufferView":135,"componentType":5126,"count":20,"max":[0.858974277973175,0.9342358857393265],"min":[0.7810075879096985,0.913961872458458],"type":"VEC2"},{"bufferView":136,"componentType":5123,"count":3696,"max":[883],"min":[0],"type":"SCALAR"},{"bufferView":137,"componentType":5126,"count":884,"max":[-0.0022099942434579134,-0.8425878882408142,1.8942887783050537],"min":[-0.8792310357093811,-1.1592379808425903,1.789706826210022],"type":"VEC3"},{"bufferView":138,"componentType":5126,"count":884,"type":"VEC3"},{"bufferView":139,"componentType":5126,"count":884,"type":"VEC4"},{"bufferView":140,"componentType":5126,"count":884,"max":[0.8044968843460083,0.9694802835583687],"min":[0.3007041811943054,0.8229238390922546],"type":"VEC2"},{"bufferView":141,"componentType":5121,"count":240,"max":[55],"min":[0],"type":"SCALAR"},{"bufferView":142,"componentType":5126,"count":56,"max":[1.1807161569595337,0.744047999382019,1.6949970722198486],"min":[-1.1808241605758667,0.6702859997749329,0.9237667918205261],"type":"VEC3"},{"bufferView":143,"componentType":5126,"count":56,"type":"VEC3"},{"bufferView":144,"componentType":5126,"count":56,"type":"VEC4"},{"bufferView":145,"componentType":5126,"count":56,"max":[0.45047327876091003,0.4914555549621582],"min":[0.29294607043266296,0.43958568572998047],"type":"VEC2"},{"bufferView":146,"componentType":5123,"count":2148,"max":[606],"min":[0],"type":"SCALAR"},{"bufferView":147,"componentType":5126,"count":607,"max":[0.7704200744628906,-0.5585349202156067,1.8714377880096436],"min":[0.25824201107025146,-1.114320993423462,1.2232697010040283],"type":"VEC3"},{"bufferView":148,"componentType":5126,"count":607,"type":"VEC3"},{"bufferView":149,"componentType":5126,"count":607,"type":"VEC4"},{"bufferView":150,"componentType":5126,"count":607,"max":[0.2706516981124878,0.9612397439777851],"min":[0.016006553545594215,0.015060245990753174],"type":"VEC2"},{"bufferView":151,"componentType":5121,"count":540,"max":[177],"min":[0],"type":"SCALAR"},{"bufferView":152,"componentType":5126,"count":178,"max":[0.05322423204779625,-0.01693100482225418,-2.7670440673828125],"min":[-0.053565774112939835,-0.19674800336360931,-3.248800039291382],"type":"VEC3"},{"bufferView":153,"componentType":5126,"count":178,"type":"VEC3"},{"bufferView":154,"componentType":5126,"count":178,"type":"VEC4"},{"bufferView":155,"componentType":5126,"count":178,"max":[0.9729417562484741,0.9836052358150482],"min":[0.785718560218811,0.7964611351490021],"type":"VEC2"},{"bufferView":156,"componentType":5123,"count":1668,"max":[347],"min":[0],"type":"SCALAR"},{"bufferView":157,"componentType":5126,"count":348,"max":[4.641481399536133,0.6629599928855896,0.7026400566101074],"min":[2.055448293685913,0.5513749718666077,0.312343031167984],"type":"VEC3"},{"bufferView":158,"componentType":5126,"count":348,"type":"VEC3"},{"bufferView":159,"componentType":5126,"count":348,"type":"VEC4"},{"bufferView":160,"componentType":5126,"count":348,"max":[0.6785659193992615,0.6833701133728027],"min":[0.06489033252000809,0.5090626180171967],"type":"VEC2"},{"bufferView":161,"componentType":5123,"count":1344,"max":[257],"min":[0],"type":"SCALAR"},{"bufferView":162,"componentType":5126,"count":258,"max":[0.09677083790302277,0.026106994599103928,3.462496042251587],"min":[-0.09687917679548264,-0.16754300892353058,3.2731800079345703],"type":"VEC3"},{"bufferView":163,"componentType":5126,"count":258,"type":"VEC3"},{"bufferView":164,"componentType":5126,"count":258,"type":"VEC4"},{"bufferView":165,"componentType":5126,"count":258,"max":[0.8763990998268127,0.8738309741020203],"min":[0.8198410868644714,0.8172729313373566],"type":"VEC2"},{"bufferView":166,"componentType":5123,"count":2094,"max":[549],"min":[0],"type":"SCALAR"},{"bufferView":167,"componentType":5126,"count":550,"max":[4.641481399536133,1.0303659439086914,3.270730972290039],"min":[-4.641480922698975,-0.5244040489196777,-2.942868232727051],"type":"VEC3"},{"bufferView":168,"componentType":5126,"count":550,"type":"VEC3"},{"bufferView":169,"componentType":5126,"count":550,"max":[0.8562077283859253,0.9642690122127533],"min":[0.015602780506014824,0.37404775619506836],"type":"VEC2"},{"bufferView":170,"componentType":5126,"count":6810,"type":"VEC3","min":[-0.28466961402582935,-0.28556994006891767,-3.462496042251587],"max":[0.2845609961943668,1.3477510213851929,-0.8303999999999999]},{"bufferView":171,"componentType":5126,"count":6810,"type":"VEC3"},{"bufferView":172,"componentType":5126,"count":1704,"type":"VEC3","min":[-0.20147327408224483,0.034687550750600704,-3.181897668973108],"max":[0.20147381492499802,0.808636688335631,-2.4079485313880777]},{"bufferView":173,"componentType":5126,"count":1704,"type":"VEC3"},{"bufferView":174,"componentType":5126,"count":1704,"type":"VEC2"}],"asset":{"generator":"Khronos Blender glTF 2.0 exporter","version":"2.0","copyright":"FlightGear model authors / FlightAirMap contributors; GPL-2.0. See source/flightairmap/pa18/ for license and editable sources."},"bufferViews":[{"buffer":0,"byteLength":1140533,"byteOffset":0},{"buffer":0,"byteLength":38733,"byteOffset":1140533},{"buffer":0,"byteLength":660,"byteOffset":1179266,"target":34963},{"buffer":0,"byteLength":2592,"byteOffset":1179928,"target":34962},{"buffer":0,"byteLength":2592,"byteOffset":1182520,"target":34962},{"buffer":0,"byteLength":3456,"byteOffset":1185112,"target":34962},{"buffer":0,"byteLength":1728,"byteOffset":1188568,"target":34962},{"buffer":0,"byteLength":2160,"byteOffset":1190296,"target":34963},{"buffer":0,"byteLength":4896,"byteOffset":1192456,"target":34962},{"buffer":0,"byteLength":4896,"byteOffset":1197352,"target":34962},{"buffer":0,"byteLength":6528,"byteOffset":1202248,"target":34962},{"buffer":0,"byteLength":3264,"byteOffset":1208776,"target":34962},{"buffer":0,"byteLength":7386,"byteOffset":1212040,"target":34963},{"buffer":0,"byteLength":8484,"byteOffset":1219428,"target":34962},{"buffer":0,"byteLength":8484,"byteOffset":1227912,"target":34962},{"buffer":0,"byteLength":5656,"byteOffset":1236396,"target":34962},{"buffer":0,"byteLength":672,"byteOffset":1242052,"target":34963},{"buffer":0,"byteLength":2376,"byteOffset":1242724,"target":34962},{"buffer":0,"byteLength":2376,"byteOffset":1245100,"target":34962},{"buffer":0,"byteLength":3168,"byteOffset":1247476,"target":34962},{"buffer":0,"byteLength":1584,"byteOffset":1250644,"target":34962},{"buffer":0,"byteLength":8892,"byteOffset":1252228,"target":34963},{"buffer":0,"byteLength":10092,"byteOffset":1261120,"target":34962},{"buffer":0,"byteLength":10092,"byteOffset":1271212,"target":34962},{"buffer":0,"byteLength":13456,"byteOffset":1281304,"target":34962},{"buffer":0,"byteLength":6728,"byteOffset":1294760,"target":34962},{"buffer":0,"byteLength":9600,"byteOffset":1301488,"target":34963},{"buffer":0,"byteLength":13032,"byteOffset":1311088,"target":34962},{"buffer":0,"byteLength":13032,"byteOffset":1324120,"target":34962},{"buffer":0,"byteLength":17376,"byteOffset":1337152,"target":34962},{"buffer":0,"byteLength":8688,"byteOffset":1354528,"target":34962},{"buffer":0,"byteLength":16896,"byteOffset":1363216,"target":34963},{"buffer":0,"byteLength":26952,"byteOffset":1380112,"target":34962},{"buffer":0,"byteLength":26952,"byteOffset":1407064,"target":34962},{"buffer":0,"byteLength":35936,"byteOffset":1434016,"target":34962},{"buffer":0,"byteLength":17968,"byteOffset":1469952,"target":34962},{"buffer":0,"byteLength":9600,"byteOffset":1487920,"target":34963},{"buffer":0,"byteLength":13044,"byteOffset":1497520,"target":34962},{"buffer":0,"byteLength":13044,"byteOffset":1510564,"target":34962},{"buffer":0,"byteLength":17392,"byteOffset":1523608,"target":34962},{"buffer":0,"byteLength":8696,"byteOffset":1541000,"target":34962},{"buffer":0,"byteLength":4296,"byteOffset":1549696,"target":34963},{"buffer":0,"byteLength":7260,"byteOffset":1553992,"target":34962},{"buffer":0,"byteLength":7260,"byteOffset":1561252,"target":34962},{"buffer":0,"byteLength":9680,"byteOffset":1568512,"target":34962},{"buffer":0,"byteLength":4840,"byteOffset":1578192,"target":34962},{"buffer":0,"byteLength":8160,"byteOffset":1583032,"target":34963},{"buffer":0,"byteLength":10560,"byteOffset":1591192,"target":34962},{"buffer":0,"byteLength":10560,"byteOffset":1601752,"target":34962},{"buffer":0,"byteLength":14080,"byteOffset":1612312,"target":34962},{"buffer":0,"byteLength":7040,"byteOffset":1626392,"target":34962},{"buffer":0,"byteLength":336,"byteOffset":1633432,"target":34963},{"buffer":0,"byteLength":1368,"byteOffset":1633768,"target":34962},{"buffer":0,"byteLength":1368,"byteOffset":1635136,"target":34962},{"buffer":0,"byteLength":1824,"byteOffset":1636504,"target":34962},{"buffer":0,"byteLength":912,"byteOffset":1638328,"target":34962},{"buffer":0,"byteLength":24,"byteOffset":1639240,"target":34963},{"buffer":0,"byteLength":288,"byteOffset":1639264,"target":34962},{"buffer":0,"byteLength":288,"byteOffset":1639552,"target":34962},{"buffer":0,"byteLength":384,"byteOffset":1639840,"target":34962},{"buffer":0,"byteLength":192,"byteOffset":1640224,"target":34962},{"buffer":0,"byteLength":9600,"byteOffset":1640416,"target":34963},{"buffer":0,"byteLength":13032,"byteOffset":1650016,"target":34962},{"buffer":0,"byteLength":13032,"byteOffset":1663048,"target":34962},{"buffer":0,"byteLength":17376,"byteOffset":1676080,"target":34962},{"buffer":0,"byteLength":8688,"byteOffset":1693456,"target":34962},{"buffer":0,"byteLength":33672,"byteOffset":1702144,"target":34963},{"buffer":0,"byteLength":38016,"byteOffset":1735816,"target":34962},{"buffer":0,"byteLength":38016,"byteOffset":1773832,"target":34962},{"buffer":0,"byteLength":50688,"byteOffset":1811848,"target":34962},{"buffer":0,"byteLength":25344,"byteOffset":1862536,"target":34962},{"buffer":0,"byteLength":7392,"byteOffset":1887880,"target":34963},{"buffer":0,"byteLength":10488,"byteOffset":1895272,"target":34962},{"buffer":0,"byteLength":10488,"byteOffset":1905760,"target":34962},{"buffer":0,"byteLength":13984,"byteOffset":1916248,"target":34962},{"buffer":0,"byteLength":6992,"byteOffset":1930232,"target":34962},{"buffer":0,"byteLength":564,"byteOffset":1937224,"target":34963},{"buffer":0,"byteLength":2280,"byteOffset":1937788,"target":34962},{"buffer":0,"byteLength":2280,"byteOffset":1940068,"target":34962},{"buffer":0,"byteLength":3040,"byteOffset":1942348,"target":34962},{"buffer":0,"byteLength":1520,"byteOffset":1945388,"target":34962},{"buffer":0,"byteLength":6840,"byteOffset":1946908,"target":34963},{"buffer":0,"byteLength":8148,"byteOffset":1953748,"target":34962},{"buffer":0,"byteLength":8148,"byteOffset":1961896,"target":34962},{"buffer":0,"byteLength":10864,"byteOffset":1970044,"target":34962},{"buffer":0,"byteLength":5432,"byteOffset":1980908,"target":34962},{"buffer":0,"byteLength":48,"byteOffset":1986340,"target":34963},{"buffer":0,"byteLength":240,"byteOffset":1986388,"target":34962},{"buffer":0,"byteLength":240,"byteOffset":1986628,"target":34962},{"buffer":0,"byteLength":320,"byteOffset":1986868,"target":34962},{"buffer":0,"byteLength":160,"byteOffset":1987188,"target":34962},{"buffer":0,"byteLength":48,"byteOffset":1987348,"target":34963},{"buffer":0,"byteLength":240,"byteOffset":1987396,"target":34962},{"buffer":0,"byteLength":240,"byteOffset":1987636,"target":34962},{"buffer":0,"byteLength":320,"byteOffset":1987876,"target":34962},{"buffer":0,"byteLength":160,"byteOffset":1988196,"target":34962},{"buffer":0,"byteLength":600,"byteOffset":1988356,"target":34963},{"buffer":0,"byteLength":2256,"byteOffset":1988956,"target":34962},{"buffer":0,"byteLength":2256,"byteOffset":1991212,"target":34962},{"buffer":0,"byteLength":3008,"byteOffset":1993468,"target":34962},{"buffer":0,"byteLength":1504,"byteOffset":1996476,"target":34962},{"buffer":0,"byteLength":1920,"byteOffset":1997980,"target":34963},{"buffer":0,"byteLength":3672,"byteOffset":1999900,"target":34962},{"buffer":0,"byteLength":3672,"byteOffset":2003572,"target":34962},{"buffer":0,"byteLength":4896,"byteOffset":2007244,"target":34962},{"buffer":0,"byteLength":2448,"byteOffset":2012140,"target":34962},{"buffer":0,"byteLength":168,"byteOffset":2014588,"target":34963},{"buffer":0,"byteLength":672,"byteOffset":2014756,"target":34962},{"buffer":0,"byteLength":672,"byteOffset":2015428,"target":34962},{"buffer":0,"byteLength":896,"byteOffset":2016100,"target":34962},{"buffer":0,"byteLength":448,"byteOffset":2016996,"target":34962},{"buffer":0,"byteLength":4194,"byteOffset":2017444,"target":34963},{"buffer":0,"byteLength":5832,"byteOffset":2021640,"target":34962},{"buffer":0,"byteLength":5832,"byteOffset":2027472,"target":34962},{"buffer":0,"byteLength":7776,"byteOffset":2033304,"target":34962},{"buffer":0,"byteLength":3888,"byteOffset":2041080,"target":34962},{"buffer":0,"byteLength":168,"byteOffset":2044968,"target":34963},{"buffer":0,"byteLength":672,"byteOffset":2045136,"target":34962},{"buffer":0,"byteLength":672,"byteOffset":2045808,"target":34962},{"buffer":0,"byteLength":896,"byteOffset":2046480,"target":34962},{"buffer":0,"byteLength":448,"byteOffset":2047376,"target":34962},{"buffer":0,"byteLength":48,"byteOffset":2047824,"target":34963},{"buffer":0,"byteLength":240,"byteOffset":2047872,"target":34962},{"buffer":0,"byteLength":240,"byteOffset":2048112,"target":34962},{"buffer":0,"byteLength":320,"byteOffset":2048352,"target":34962},{"buffer":0,"byteLength":160,"byteOffset":2048672,"target":34962},{"buffer":0,"byteLength":3276,"byteOffset":2048832,"target":34963},{"buffer":0,"byteLength":4164,"byteOffset":2052108,"target":34962},{"buffer":0,"byteLength":4164,"byteOffset":2056272,"target":34962},{"buffer":0,"byteLength":5552,"byteOffset":2060436,"target":34962},{"buffer":0,"byteLength":2776,"byteOffset":2065988,"target":34962},{"buffer":0,"byteLength":48,"byteOffset":2068764,"target":34963},{"buffer":0,"byteLength":240,"byteOffset":2068812,"target":34962},{"buffer":0,"byteLength":240,"byteOffset":2069052,"target":34962},{"buffer":0,"byteLength":320,"byteOffset":2069292,"target":34962},{"buffer":0,"byteLength":160,"byteOffset":2069612,"target":34962},{"buffer":0,"byteLength":7392,"byteOffset":2069772,"target":34963},{"buffer":0,"byteLength":10608,"byteOffset":2077164,"target":34962},{"buffer":0,"byteLength":10608,"byteOffset":2087772,"target":34962},{"buffer":0,"byteLength":14144,"byteOffset":2098380,"target":34962},{"buffer":0,"byteLength":7072,"byteOffset":2112524,"target":34962},{"buffer":0,"byteLength":240,"byteOffset":2119596,"target":34963},{"buffer":0,"byteLength":672,"byteOffset":2119836,"target":34962},{"buffer":0,"byteLength":672,"byteOffset":2120508,"target":34962},{"buffer":0,"byteLength":896,"byteOffset":2121180,"target":34962},{"buffer":0,"byteLength":448,"byteOffset":2122076,"target":34962},{"buffer":0,"byteLength":4296,"byteOffset":2122524,"target":34963},{"buffer":0,"byteLength":7284,"byteOffset":2126820,"target":34962},{"buffer":0,"byteLength":7284,"byteOffset":2134104,"target":34962},{"buffer":0,"byteLength":9712,"byteOffset":2141388,"target":34962},{"buffer":0,"byteLength":4856,"byteOffset":2151100,"target":34962},{"buffer":0,"byteLength":540,"byteOffset":2155956,"target":34963},{"buffer":0,"byteLength":2136,"byteOffset":2156496,"target":34962},{"buffer":0,"byteLength":2136,"byteOffset":2158632,"target":34962},{"buffer":0,"byteLength":2848,"byteOffset":2160768,"target":34962},{"buffer":0,"byteLength":1424,"byteOffset":2163616,"target":34962},{"buffer":0,"byteLength":3336,"byteOffset":2165040,"target":34963},{"buffer":0,"byteLength":4176,"byteOffset":2168376,"target":34962},{"buffer":0,"byteLength":4176,"byteOffset":2172552,"target":34962},{"buffer":0,"byteLength":5568,"byteOffset":2176728,"target":34962},{"buffer":0,"byteLength":2784,"byteOffset":2182296,"target":34962},{"buffer":0,"byteLength":2688,"byteOffset":2185080,"target":34963},{"buffer":0,"byteLength":3096,"byteOffset":2187768,"target":34962},{"buffer":0,"byteLength":3096,"byteOffset":2190864,"target":34962},{"buffer":0,"byteLength":4128,"byteOffset":2193960,"target":34962},{"buffer":0,"byteLength":2064,"byteOffset":2198088,"target":34962},{"buffer":0,"byteLength":4188,"byteOffset":2200152,"target":34963},{"buffer":0,"byteLength":6600,"byteOffset":2204340,"target":34962},{"buffer":0,"byteLength":6600,"byteOffset":2210940,"target":34962},{"buffer":0,"byteLength":4400,"byteOffset":2217540,"target":34962},{"buffer":1,"byteOffset":0,"byteLength":81720,"target":34962},{"buffer":1,"byteOffset":81720,"byteLength":81720,"target":34962},{"buffer":1,"byteOffset":163440,"byteLength":20448,"target":34962},{"buffer":1,"byteOffset":183888,"byteLength":20448,"target":34962},{"buffer":1,"byteOffset":204336,"byteLength":13632,"target":34962}],"buffers":[{"byteLength":2221940,"extras":{},"uri":"../pa18-v1-0.bin"},{"uri":"pa18-tail-v1.bin","byteLength":217968}],"images":[{"bufferView":0,"mimeType":"image/png","name":"texture.png","extras":{}},{"bufferView":1,"mimeType":"image/png","name":"prop.png","extras":{}},{"uri":"../../../airlines/KLM.png"}],"materials":[{"name":"DefaultWhite","pbrMetallicRoughness":{"baseColorFactor":[0.800000011920929,0.800000011920929,0.800000011920929,1],"baseColorTexture":{"index":0},"metallicFactor":0}},{"alphaMode":"BLEND","name":"transparent","pbrMetallicRoughness":{"baseColorFactor":[0.800000011920929,0.800000011920929,0.800000011920929,0.30000001192092896],"baseColorTexture":{"index":1},"metallicFactor":0}},{"alphaMode":"BLEND","name":"transparent.001","pbrMetallicRoughness":{"baseColorFactor":[0.800000011920929,0.800000011920929,0.800000011920929,0.30000001192092896],"metallicFactor":0}},{"name":"Operator tail paint","doubleSided":true,"pbrMetallicRoughness":{"baseColorFactor":[0.13725490196078433,0.6470588235294118,0.8352941176470589,1],"metallicFactor":0,"roughnessFactor":0.65}},{"name":"Operator logo identification","doubleSided":true,"alphaMode":"BLEND","pbrMetallicRoughness":{"baseColorTexture":{"index":2},"metallicFactor":0,"roughnessFactor":0.7},"emissiveFactor":[0.18,0.18,0.18],"emissiveTexture":{"index":2}}],"meshes":[{"name":"propdisc","primitives":[{"attributes":{"NORMAL":2,"POSITION":1,"TANGENT":3,"TEXCOORD_0":4},"indices":0,"material":1}]},{"name":"bouchons","primitives":[{"attributes":{"NORMAL":7,"POSITION":6,"TANGENT":8,"TEXCOORD_0":9},"indices":5,"material":0}]},{"name":"direction","primitives":[{"attributes":{"NORMAL":12,"POSITION":11,"TEXCOORD_0":13},"indices":10,"material":0}]},{"name":"echappe","primitives":[{"attributes":{"NORMAL":16,"POSITION":15,"TANGENT":17,"TEXCOORD_0":18},"indices":14,"material":0}]},{"name":"ailes2","primitives":[{"attributes":{"NORMAL":21,"POSITION":20,"TANGENT":22,"TEXCOORD_0":23},"indices":19,"material":0}]},{"name":"roueG","primitives":[{"attributes":{"NORMAL":26,"POSITION":25,"TANGENT":27,"TEXCOORD_0":28},"indices":24,"material":0}]},{"name":"structure","primitives":[{"attributes":{"NORMAL":31,"POSITION":30,"TANGENT":32,"TEXCOORD_0":33},"indices":29,"material":0}]},{"name":"roueA","primitives":[{"attributes":{"NORMAL":36,"POSITION":35,"TANGENT":37,"TEXCOORD_0":38},"indices":34,"material":0}]},{"name":"axesDH","primitives":[{"attributes":{"NORMAL":41,"POSITION":40,"TANGENT":42,"TEXCOORD_0":43},"indices":39,"material":0}]},{"name":"profondeur","primitives":[{"attributes":{"NORMAL":46,"POSITION":45,"TANGENT":47,"TEXCOORD_0":48},"indices":44,"material":0}]},{"name":"vitres","primitives":[{"attributes":{"NORMAL":51,"POSITION":50,"TANGENT":52,"TEXCOORD_0":53},"indices":49,"material":2}]},{"name":"propblur","primitives":[{"attributes":{"NORMAL":56,"POSITION":55,"TANGENT":57,"TEXCOORD_0":58},"indices":54,"material":1}]},{"name":"roueD","primitives":[{"attributes":{"NORMAL":61,"POSITION":60,"TANGENT":62,"TEXCOORD_0":63},"indices":59,"material":0}]},{"name":"ailes","primitives":[{"attributes":{"NORMAL":66,"POSITION":65,"TANGENT":67,"TEXCOORD_0":68},"indices":64,"material":0}]},{"name":"axesGB","primitives":[{"attributes":{"NORMAL":71,"POSITION":70,"TANGENT":72,"TEXCOORD_0":73},"indices":69,"material":0}]},{"name":"axes","primitives":[{"attributes":{"NORMAL":76,"POSITION":75,"TANGENT":77,"TEXCOORD_0":78},"indices":74,"material":0}]},{"name":"fuselage","primitives":[{"attributes":{"NORMAL":81,"POSITION":80,"TANGENT":82,"TEXCOORD_0":83},"indices":79,"material":0}]},{"name":"cableDB","primitives":[{"attributes":{"NORMAL":86,"POSITION":85,"TANGENT":87,"TEXCOORD_0":88},"indices":84,"material":0}]},{"name":"cableGB","primitives":[{"attributes":{"NORMAL":91,"POSITION":90,"TANGENT":92,"TEXCOORD_0":93},"indices":89,"material":0}]},{"name":"helice","primitives":[{"attributes":{"NORMAL":96,"POSITION":95,"TANGENT":97,"TEXCOORD_0":98},"indices":94,"material":0}]},{"name":"montants","primitives":[{"attributes":{"NORMAL":101,"POSITION":100,"TANGENT":102,"TEXCOORD_0":103},"indices":99,"material":0}]},{"name":"voletD","primitives":[{"attributes":{"NORMAL":106,"POSITION":105,"TANGENT":107,"TEXCOORD_0":108},"indices":104,"material":0}]},{"name":"capot","primitives":[{"attributes":{"NORMAL":111,"POSITION":110,"TANGENT":112,"TEXCOORD_0":113},"indices":109,"material":0}]},{"name":"voletG","primitives":[{"attributes":{"NORMAL":116,"POSITION":115,"TANGENT":117,"TEXCOORD_0":118},"indices":114,"material":0}]},{"name":"cableGH","primitives":[{"attributes":{"NORMAL":121,"POSITION":120,"TANGENT":122,"TEXCOORD_0":123},"indices":119,"material":0}]},{"name":"aileronD","primitives":[{"attributes":{"NORMAL":126,"POSITION":125,"TANGENT":127,"TEXCOORD_0":128},"indices":124,"material":0}]},{"name":"cableDH","primitives":[{"attributes":{"NORMAL":131,"POSITION":130,"TANGENT":132,"TEXCOORD_0":133},"indices":129,"material":0}]},{"name":"axesDB","primitives":[{"attributes":{"NORMAL":136,"POSITION":135,"TANGENT":137,"TEXCOORD_0":138},"indices":134,"material":0}]},{"name":"reservoirs","primitives":[{"attributes":{"NORMAL":141,"POSITION":140,"TANGENT":142,"TEXCOORD_0":143},"indices":139,"material":0}]},{"name":"axesGH","primitives":[{"attributes":{"NORMAL":146,"POSITION":145,"TANGENT":147,"TEXCOORD_0":148},"indices":144,"material":0}]},{"name":"axeA","primitives":[{"attributes":{"NORMAL":151,"POSITION":150,"TANGENT":152,"TEXCOORD_0":153},"indices":149,"material":0}]},{"name":"aileronG","primitives":[{"attributes":{"NORMAL":156,"POSITION":155,"TANGENT":157,"TEXCOORD_0":158},"indices":154,"material":0}]},{"name":"bol","primitives":[{"attributes":{"NORMAL":161,"POSITION":160,"TANGENT":162,"TEXCOORD_0":163},"indices":159,"material":0}]},{"name":"trous","primitives":[{"attributes":{"NORMAL":166,"POSITION":165,"TEXCOORD_0":167},"indices":164,"material":0}]},{"name":"Airline tail surface overlay","primitives":[{"attributes":{"POSITION":168,"NORMAL":169},"material":3},{"attributes":{"POSITION":170,"NORMAL":171,"TEXCOORD_0":172},"material":4}]}],"nodes":[{"mesh":25,"name":"aileronD"},{"mesh":31,"name":"aileronG"},{"mesh":13,"name":"ailes"},{"mesh":4,"name":"ailes2"},{"mesh":30,"name":"axeA"},{"mesh":15,"name":"axes"},{"mesh":27,"name":"axesDB"},{"mesh":8,"name":"axesDH"},{"mesh":14,"name":"axesGB"},{"mesh":29,"name":"axesGH"},{"mesh":32,"name":"bol"},{"mesh":1,"name":"bouchons"},{"mesh":17,"name":"cableDB"},{"mesh":26,"name":"cableDH"},{"mesh":18,"name":"cableGB"},{"mesh":24,"name":"cableGH"},{"mesh":22,"name":"capot"},{"mesh":2,"name":"direction"},{"mesh":3,"name":"echappe"},{"mesh":16,"name":"fuselage"},{"mesh":19,"name":"helice"},{"mesh":20,"name":"montants"},{"mesh":9,"name":"profondeur"},{"mesh":11,"name":"propblur"},{"mesh":0,"name":"propdisc"},{"mesh":28,"name":"reservoirs"},{"mesh":7,"name":"roueA"},{"mesh":12,"name":"roueD"},{"mesh":5,"name":"roueG"},{"mesh":6,"name":"structure"},{"mesh":33,"name":"trous"},{"mesh":10,"name":"vitres"},{"mesh":21,"name":"voletD"},{"mesh":23,"name":"voletG"},{"name":"SkywardCoordinateAlignment","matrix":[1,0,0,0,0,1,0,0,0,0,1,0,0,0,0,1],"children":[33,32,31,30,29,28,27,26,25,24,23,22,21,20,19,18,17,16,15,14,13,12,11,10,9,8,7,6,5,4,3,2,1,0]},{"name":"AirlineTailBranding","mesh":34}],"samplers":[{},{"magFilter":9729,"minFilter":9987,"wrapS":33071,"wrapT":33071}],"scene":0,"scenes":[{"name":"Scene","nodes":[34,35]}],"textures":[{"sampler":0,"source":0},{"sampler":0,"source":1},{"source":2,"sampler":1}],"extras":{"skyward":{"source":"https://github.com/Ysurac/FlightAirMap-3dmodels","commit":"0906d9ba1bdd906ce45807e45ed706c09912db19","changes":"Converted legacy glTF to glTF 2.0 with Cesium; rigid axis alignment, horizontal centering, and source transforms baked into positions/normals for correct Cesium bounds. Original shape, materials and paint retained. Added surface-following operator tail paint and unmodified identification-logo texture. Branding is illustrative, not a registration-specific livery.","license":"GPL-2.0","sourceFiles":["source/flightairmap/pa18/COPYING","source/flightairmap/pa18/pa18.blend"],"operator":"KLM"}}}