{"accessors":[{"bufferView":10,"componentType":5123,"count":9633,"max":[3542],"min":[0],"type":"SCALAR"},{"bufferView":11,"componentType":5126,"count":3543,"max":[0.48050805926322937,0.8160341382026672,2.0459632873535156],"min":[-0.4451700448989868,-0.3812360465526581,0.2346460521221161],"type":"VEC3"},{"bufferView":12,"componentType":5126,"count":3543,"type":"VEC3"},{"bufferView":13,"componentType":5126,"count":3543,"type":"VEC4"},{"bufferView":14,"componentType":5126,"count":3543,"max":[0.9888269901275635,0.984641837887466],"min":[0.02432095818221569,0.007576704025268555],"type":"VEC2"},{"bufferView":15,"componentType":5123,"count":3048,"max":[551],"min":[0],"type":"SCALAR"},{"bufferView":16,"componentType":5126,"count":552,"max":[0.3746870458126068,0.4085600674152374,1.6966792345046997],"min":[-0.37452206015586853,0.22963503003120422,1.3762282133102417],"type":"VEC3"},{"bufferView":17,"componentType":5126,"count":552,"type":"VEC3"},{"bufferView":18,"componentType":5126,"count":552,"type":"VEC4"},{"bufferView":19,"componentType":5126,"count":552,"max":[0.9943638443946838,1],"min":[0,0],"type":"VEC2"},{"bufferView":20,"componentType":5121,"count":33,"max":[22],"min":[0],"type":"SCALAR"},{"bufferView":21,"componentType":5126,"count":23,"max":[0.4044080674648285,0.2516920268535614,0.18347308039665222],"min":[-0.4044080674648285,-0.2790290415287018,-0.6139860153198242],"type":"VEC3"},{"bufferView":22,"componentType":5126,"count":23,"type":"VEC3"},{"bufferView":23,"componentType":5126,"count":23,"type":"VEC4"},{"bufferView":24,"componentType":5126,"count":23,"max":[0.3644317388534546,0.6805449724197388],"min":[0.3644317388534546,0.6805449724197388],"type":"VEC2"},{"bufferView":25,"componentType":5123,"count":5688,"max":[1938],"min":[0],"type":"SCALAR"},{"bufferView":26,"componentType":5126,"count":1939,"max":[1.0137580633163452,1.345489263534546,3.1250555515289307],"min":[-1.0137580633163452,-1.0485751628875732,-3.114856481552124],"type":"VEC3"},{"bufferView":27,"componentType":5126,"count":1939,"type":"VEC3"},{"bufferView":28,"componentType":5126,"count":1939,"type":"VEC4"},{"bufferView":29,"componentType":5126,"count":1939,"max":[0.9800258278846741,0.9850244522094727],"min":[0.00697174621745944,0.00698399543762207],"type":"VEC2"},{"bufferView":30,"componentType":5121,"count":120,"max":[51],"min":[0],"type":"SCALAR"},{"bufferView":31,"componentType":5126,"count":52,"max":[0.3402060568332672,0.18273302912712097,2.8796722888946533],"min":[-0.771523118019104,-0.5956990718841553,0.8385331034660339],"type":"VEC3"},{"bufferView":32,"componentType":5126,"count":52,"type":"VEC3"},{"bufferView":33,"componentType":5126,"count":52,"type":"VEC4"},{"bufferView":34,"componentType":5126,"count":52,"max":[0.8050283193588257,0.6647094190120697],"min":[0.00697174621745944,0.00698399543762207],"type":"VEC2"},{"bufferView":35,"componentType":5121,"count":42,"max":[15],"min":[0],"type":"SCALAR"},{"bufferView":36,"componentType":5126,"count":16,"max":[3.6500065326690674,0.9490931034088135,1.6536822319030762],"min":[3.497664451599121,0.8308570981025696,1.4656201601028442],"type":"VEC3"},{"bufferView":37,"componentType":5126,"count":16,"type":"VEC3"},{"bufferView":38,"componentType":5126,"count":16,"type":"VEC4"},{"bufferView":39,"componentType":5126,"count":16,"max":[1.001833438873291,1],"min":[0.7456195950508118,0],"type":"VEC2"},{"bufferView":40,"componentType":5121,"count":924,"max":[233],"min":[0],"type":"SCALAR"},{"bufferView":41,"componentType":5126,"count":234,"max":[0.4923230707645416,0.8374861478805542,2.0056583881378174],"min":[-0.4918230473995209,0.27360302209854126,0.1912820041179657],"type":"VEC3"},{"bufferView":42,"componentType":5126,"count":234,"type":"VEC3"},{"bufferView":43,"componentType":5126,"count":234,"type":"VEC4"},{"bufferView":44,"componentType":5126,"count":234,"max":[0,1],"min":[0,1],"type":"VEC2"},{"bufferView":45,"componentType":5123,"count":2658,"max":[807],"min":[0],"type":"SCALAR"},{"bufferView":46,"componentType":5126,"count":808,"max":[0.413360059261322,0.7213531136512756,1.579660177230835],"min":[-0.4028940498828888,0.11192101240158081,1.2837132215499878],"type":"VEC3"},{"bufferView":47,"componentType":5126,"count":808,"type":"VEC3"},{"bufferView":48,"componentType":5126,"count":808,"type":"VEC4"},{"bufferView":49,"componentType":5126,"count":808,"max":[0.4036346673965454,0.30939531326293945],"min":[0.36358577013015747,0.07043862342834473],"type":"VEC2"},{"bufferView":50,"componentType":5121,"count":480,"max":[132],"min":[0],"type":"SCALAR"},{"bufferView":51,"componentType":5126,"count":133,"max":[0.4302990734577179,0.0754610076546669,1.5732742547988892],"min":[0.39146605134010315,-0.08346101641654968,1.4143362045288086],"type":"VEC3"},{"bufferView":52,"componentType":5126,"count":133,"type":"VEC3"},{"bufferView":53,"componentType":5126,"count":133,"type":"VEC4"},{"bufferView":54,"componentType":5126,"count":133,"max":[0.9768298864364624,0.9768299460411072],"min":[0.023170053958892822,0.023170053958892822],"type":"VEC2"},{"bufferView":55,"componentType":5121,"count":30,"max":[19],"min":[0],"type":"SCALAR"},{"bufferView":56,"componentType":5126,"count":20,"max":[0.24816502630710602,0.4287230670452118,1.5447882413864136],"min":[0.2081020325422287,0.4124900698661804,1.5377792119979858],"type":"VEC3"},{"bufferView":57,"componentType":5126,"count":20,"type":"VEC3"},{"bufferView":58,"componentType":5126,"count":20,"type":"VEC4"},{"bufferView":59,"componentType":5126,"count":20,"max":[0.5242251753807068,0.7997806966304779],"min":[0.4999999701976776,0.6077534258365631],"type":"VEC2"},{"bufferView":60,"componentType":5123,"count":3534,"max":[1972],"min":[0],"type":"SCALAR"},{"bufferView":61,"componentType":5126,"count":1973,"max":[0.44668206572532654,0.5048990845680237,1.556266188621521],"min":[-0.43538206815719604,0.27816301584243774,1.5238622426986694],"type":"VEC3"},{"bufferView":62,"componentType":5126,"count":1973,"type":"VEC3"},{"bufferView":63,"componentType":5126,"count":1973,"type":"VEC4"},{"bufferView":64,"componentType":5126,"count":1973,"max":[0.9730881452560425,1.1467802822589874],"min":[-0.041420310735702515,-0.3760364055633545],"type":"VEC2"},{"bufferView":65,"componentType":5121,"count":126,"max":[60],"min":[0],"type":"SCALAR"},{"bufferView":66,"componentType":5126,"count":61,"max":[0.4021850526332855,0.498337060213089,1.8555352687835693],"min":[-0.06985601037740707,0.2277580350637436,1.5298691987991333],"type":"VEC3"},{"bufferView":67,"componentType":5126,"count":61,"type":"VEC3"},{"bufferView":68,"componentType":5126,"count":61,"type":"VEC4"},{"bufferView":69,"componentType":5126,"count":61,"max":[0.38570818305015564,0.07342684268951416],"min":[0.38569915294647217,0.07295840978622437],"type":"VEC2"},{"bufferView":70,"componentType":5121,"count":60,"max":[39],"min":[0],"type":"SCALAR"},{"bufferView":71,"componentType":5126,"count":40,"max":[0.40379807353019714,0.27939003705978394,1.5385441780090332],"min":[-0.4025120735168457,0.22251203656196594,1.5272202491760254],"type":"VEC3"},{"bufferView":72,"componentType":5126,"count":40,"type":"VEC3"},{"bufferView":73,"componentType":5126,"count":40,"type":"VEC4"},{"bufferView":74,"componentType":5126,"count":40,"max":[0.9851723313331604,0.6087613105773926],"min":[0.0031015838030725718,-0.002656221389770508],"type":"VEC2"},{"bufferView":75,"componentType":5121,"count":42,"max":[15],"min":[0],"type":"SCALAR"},{"bufferView":76,"componentType":5126,"count":16,"max":[3.5026814937591553,0.945776104927063,1.6536822319030762],"min":[3.3529675006866455,0.8209910988807678,1.4656752347946167],"type":"VEC3"},{"bufferView":77,"componentType":5126,"count":16,"type":"VEC3"},{"bufferView":78,"componentType":5126,"count":16,"type":"VEC4"},{"bufferView":79,"componentType":5126,"count":16,"max":[0,1],"min":[0,1],"type":"VEC2"},{"bufferView":80,"componentType":5123,"count":5037,"max":[1926],"min":[0],"type":"SCALAR"},{"bufferView":81,"componentType":5126,"count":1927,"max":[0.49318206310272217,0.8235871195793152,1.986159324645996],"min":[-0.49207204580307007,-0.40983906388282776,-0.6151950359344482],"type":"VEC3"},{"bufferView":82,"componentType":5126,"count":1927,"type":"VEC3"},{"bufferView":83,"componentType":5126,"count":1927,"type":"VEC4"},{"bufferView":84,"componentType":5126,"count":1927,"max":[0.9950850009918213,0.9831685312092304],"min":[0.006591685116291046,0.023904860019683838],"type":"VEC2"},{"bufferView":85,"componentType":5121,"count":144,"max":[32],"min":[0],"type":"SCALAR"},{"bufferView":86,"componentType":5126,"count":33,"max":[3.476492404937744,0.9336591362953186,1.499178171157837],"min":[3.379148483276367,0.8366861343383789,1.4862792491912842],"type":"VEC3"},{"bufferView":87,"componentType":5126,"count":33,"type":"VEC3"},{"bufferView":88,"componentType":5126,"count":33,"type":"VEC4"},{"bufferView":89,"componentType":5126,"count":33,"max":[0.7032162547111511,0.6705783605575562],"min":[0.5799587965011597,0.5477900207042694],"type":"VEC2"},{"bufferView":90,"componentType":5123,"count":4356,"max":[1592],"min":[0],"type":"SCALAR"},{"bufferView":91,"componentType":5126,"count":1593,"max":[4.408820629119873,0.9801961183547974,1.655502200126648],"min":[-4.408820629119873,-0.3940850496292114,-2.9450554847717285],"type":"VEC3"},{"bufferView":92,"componentType":5126,"count":1593,"type":"VEC3"},{"bufferView":93,"componentType":5126,"count":1593,"type":"VEC4"},{"bufferView":94,"componentType":5126,"count":1593,"max":[0.9918689727783203,0.9579222202301025],"min":[0.008328274823725224,0.022160649299621582],"type":"VEC2"},{"bufferView":95,"componentType":5123,"count":1404,"max":[336],"min":[0],"type":"SCALAR"},{"bufferView":96,"componentType":5126,"count":337,"max":[2.78119158744812,0.8932141065597534,3.012965440750122],"min":[-2.774226427078247,-0.8186191320419312,-2.5796163082122803],"type":"VEC3"},{"bufferView":97,"componentType":5126,"count":337,"type":"VEC3"},{"bufferView":98,"componentType":5126,"count":337,"type":"VEC4"},{"bufferView":99,"componentType":5126,"count":337,"max":[0.7859150171279907,0.6306182146072388],"min":[0.006979585159569979,0.02181696891784668],"type":"VEC2"},{"bufferView":100,"componentType":5123,"count":1626,"max":[538],"min":[0],"type":"SCALAR"},{"bufferView":101,"componentType":5126,"count":539,"max":[1.991970181465149,0.9401681423187256,1.5552011728286743],"min":[-0.9554761052131653,-0.023211004212498665,-2.5739693641662598],"type":"VEC3"},{"bufferView":102,"componentType":5126,"count":539,"type":"VEC3"},{"bufferView":103,"componentType":5126,"count":539,"type":"VEC4"},{"bufferView":104,"componentType":5126,"count":539,"max":[0.9729033708572388,0.9849375803023577],"min":[0.14437219500541687,0.7340065836906433],"type":"VEC2"},{"bufferView":105,"componentType":5123,"count":774,"max":[764],"min":[0],"type":"SCALAR"},{"bufferView":106,"componentType":5126,"count":765,"max":[0.4208180606365204,0.5464080572128296,1.5830391645431519],"min":[-0.41384005546569824,0.2942160367965698,1.5300651788711548],"type":"VEC3"},{"bufferView":107,"componentType":5126,"count":765,"type":"VEC3"},{"bufferView":108,"componentType":5126,"count":765,"type":"VEC4"},{"bufferView":109,"componentType":5126,"count":765,"max":[0,1],"min":[0,1],"type":"VEC2"},{"bufferView":110,"componentType":5121,"count":120,"max":[39],"min":[0],"type":"SCALAR"},{"bufferView":111,"componentType":5126,"count":40,"max":[4.302907466888428,0.9444841146469116,1.5020132064819336],"min":[-4.286816596984863,0.9046590924263,1.4651912450790405],"type":"VEC3"},{"bufferView":112,"componentType":5126,"count":40,"type":"VEC3"},{"bufferView":113,"componentType":5126,"count":40,"type":"VEC4"},{"bufferView":114,"componentType":5126,"count":40,"max":[0.9918689727783203,0.2406301498413086],"min":[0.008328274823725224,0.19741880893707275],"type":"VEC2"},{"bufferView":115,"componentType":5121,"count":696,"max":[230],"min":[0],"type":"SCALAR"},{"bufferView":116,"componentType":5126,"count":231,"max":[0.6651750802993774,0.6855171322822571,2.6190853118896484],"min":[-0.6648850440979004,-0.7206171154975891,-0.40370309352874756],"type":"VEC3"},{"bufferView":117,"componentType":5126,"count":231,"type":"VEC3"},{"bufferView":118,"componentType":5126,"count":231,"type":"VEC4"},{"bufferView":119,"componentType":5126,"count":231,"max":[0,1],"min":[0,1],"type":"VEC2"},{"bufferView":120,"componentType":5121,"count":144,"max":[32],"min":[0],"type":"SCALAR"},{"bufferView":121,"componentType":5126,"count":33,"max":[3.620572566986084,0.9404790997505188,1.499178171157837],"min":[3.5232293605804443,0.8435071110725403,1.4862792491912842],"type":"VEC3"},{"bufferView":122,"componentType":5126,"count":33,"type":"VEC3"},{"bufferView":123,"componentType":5126,"count":33,"type":"VEC4"},{"bufferView":124,"componentType":5126,"count":33,"max":[0.7032162547111511,0.6705783605575562],"min":[0.5799587965011597,0.5477900207042694],"type":"VEC2"},{"bufferView":125,"componentType":5121,"count":42,"max":[15],"min":[0],"type":"SCALAR"},{"bufferView":126,"componentType":5126,"count":16,"max":[3.5026814937591553,0.945776104927063,1.6536822319030762],"min":[3.3529675006866455,0.8209910988807678,1.4656752347946167],"type":"VEC3"},{"bufferView":127,"componentType":5126,"count":16,"type":"VEC3"},{"bufferView":128,"componentType":5126,"count":16,"type":"VEC4"},{"bufferView":129,"componentType":5126,"count":16,"max":[1.00099778175354,1],"min":[0.743069589138031,0],"type":"VEC2"},{"bufferView":130,"componentType":5121,"count":54,"max":[12],"min":[0],"type":"SCALAR"},{"bufferView":131,"componentType":5126,"count":13,"max":[0.017771001905202866,0.3916930556297302,-3.114856481552124],"min":[-0.017771001905202866,0.35065406560897827,-3.1250555515289307],"type":"VEC3"},{"bufferView":132,"componentType":5126,"count":13,"type":"VEC3"},{"bufferView":133,"componentType":5126,"count":13,"type":"VEC4"},{"bufferView":134,"componentType":5126,"count":13,"max":[0.6251667737960815,0.1955694556236267],"min":[0.477802038192749,0.02551579475402832],"type":"VEC2"},{"bufferView":135,"componentType":5123,"count":3393,"max":[872],"min":[0],"type":"SCALAR"},{"bufferView":136,"componentType":5126,"count":873,"max":[1.1901601552963257,-0.6561080813407898,2.85166335105896],"min":[-1.190161108970642,-1.1929471492767334,0.13571007549762726],"type":"VEC3"},{"bufferView":137,"componentType":5126,"count":873,"type":"VEC3"},{"bufferView":138,"componentType":5126,"count":873,"type":"VEC4"},{"bufferView":139,"componentType":5126,"count":873,"max":[0.9742360711097717,0.9160557314753532],"min":[0.01794777810573578,0.043687283992767334],"type":"VEC2"},{"bufferView":140,"componentType":5121,"count":462,"max":[124],"min":[0],"type":"SCALAR"},{"bufferView":141,"componentType":5126,"count":125,"max":[0.4923230707645416,0.8374861478805542,2.0056583881378174],"min":[-0.4918230473995209,0.27360302209854126,0.1912820041179657],"type":"VEC3"},{"bufferView":142,"componentType":5126,"count":125,"type":"VEC3"},{"bufferView":143,"componentType":5126,"count":125,"type":"VEC4"},{"bufferView":144,"componentType":5126,"count":125,"max":[6.2507429122924805,3.7870917320251465],"min":[-5.2507429122924805,-2.735401153564453],"type":"VEC2"},{"bufferView":145,"componentType":5121,"count":42,"max":[15],"min":[0],"type":"SCALAR"},{"bufferView":146,"componentType":5126,"count":16,"max":[3.6500065326690674,0.9490931034088135,1.6536822319030762],"min":[3.497664451599121,0.8308570981025696,1.4656201601028442],"type":"VEC3"},{"bufferView":147,"componentType":5126,"count":16,"type":"VEC3"},{"bufferView":148,"componentType":5126,"count":16,"type":"VEC4"},{"bufferView":149,"componentType":5126,"count":16,"max":[0,1],"min":[0,1],"type":"VEC2"},{"bufferView":150,"componentType":5121,"count":24,"max":[15],"min":[0],"type":"SCALAR"},{"bufferView":151,"componentType":5126,"count":16,"max":[0.304375022649765,0.2649350166320801,1.5387932062149048],"min":[-0.06307600438594818,0.22974303364753723,1.5387651920318604],"type":"VEC3"},{"bufferView":152,"componentType":5126,"count":16,"type":"VEC3"},{"bufferView":153,"componentType":5126,"count":16,"type":"VEC4"},{"bufferView":154,"componentType":5126,"count":16,"max":[0,1],"min":[0,1],"type":"VEC2"},{"bufferView":155,"componentType":5126,"count":600,"type":"VEC3","min":[-0.3232334978206698,-0.2639377082848725,-3.1250555515289307],"max":[0.32323436873282385,1.345489263534546,-0.75]},{"bufferView":156,"componentType":5126,"count":600,"type":"VEC3"},{"bufferView":157,"componentType":5126,"count":216,"type":"VEC3","min":[-0.10681905278126869,0.051634708782049565,-2.8622205339688778],"max":[0.10681958060180141,0.8142616793786811,-2.0995935633722462]},{"bufferView":158,"componentType":5126,"count":216,"type":"VEC3"},{"bufferView":159,"componentType":5126,"count":216,"type":"VEC2"}],"asset":{"generator":"Khronos Blender glTF 2.0 exporter","version":"2.0","copyright":"FlightGear model authors / FlightAirMap contributors; GPL-2.0. See source/flightairmap/pa22/ for license and editable sources."},"bufferViews":[{"buffer":0,"byteLength":324186,"byteOffset":0},{"buffer":0,"byteLength":14003,"byteOffset":324186},{"buffer":0,"byteLength":328971,"byteOffset":338189},{"buffer":0,"byteLength":11599,"byteOffset":667160},{"buffer":0,"byteLength":92246,"byteOffset":678759},{"buffer":0,"byteLength":22589,"byteOffset":771005},{"buffer":0,"byteLength":274254,"byteOffset":793594},{"buffer":0,"byteLength":26060,"byteOffset":1067848},{"buffer":0,"byteLength":116250,"byteOffset":1093908},{"buffer":0,"byteLength":2542,"byteOffset":1210158},{"buffer":0,"byteLength":19266,"byteOffset":1212700,"target":34963},{"buffer":0,"byteLength":42516,"byteOffset":1231968,"target":34962},{"buffer":0,"byteLength":42516,"byteOffset":1274484,"target":34962},{"buffer":0,"byteLength":56688,"byteOffset":1317000,"target":34962},{"buffer":0,"byteLength":28344,"byteOffset":1373688,"target":34962},{"buffer":0,"byteLength":6096,"byteOffset":1402032,"target":34963},{"buffer":0,"byteLength":6624,"byteOffset":1408128,"target":34962},{"buffer":0,"byteLength":6624,"byteOffset":1414752,"target":34962},{"buffer":0,"byteLength":8832,"byteOffset":1421376,"target":34962},{"buffer":0,"byteLength":4416,"byteOffset":1430208,"target":34962},{"buffer":0,"byteLength":33,"byteOffset":1434624,"target":34963},{"buffer":0,"byteLength":276,"byteOffset":1434660,"target":34962},{"buffer":0,"byteLength":276,"byteOffset":1434936,"target":34962},{"buffer":0,"byteLength":368,"byteOffset":1435212,"target":34962},{"buffer":0,"byteLength":184,"byteOffset":1435580,"target":34962},{"buffer":0,"byteLength":11376,"byteOffset":1435764,"target":34963},{"buffer":0,"byteLength":23268,"byteOffset":1447140,"target":34962},{"buffer":0,"byteLength":23268,"byteOffset":1470408,"target":34962},{"buffer":0,"byteLength":31024,"byteOffset":1493676,"target":34962},{"buffer":0,"byteLength":15512,"byteOffset":1524700,"target":34962},{"buffer":0,"byteLength":120,"byteOffset":1540212,"target":34963},{"buffer":0,"byteLength":624,"byteOffset":1540332,"target":34962},{"buffer":0,"byteLength":624,"byteOffset":1540956,"target":34962},{"buffer":0,"byteLength":832,"byteOffset":1541580,"target":34962},{"buffer":0,"byteLength":416,"byteOffset":1542412,"target":34962},{"buffer":0,"byteLength":42,"byteOffset":1542828,"target":34963},{"buffer":0,"byteLength":192,"byteOffset":1542872,"target":34962},{"buffer":0,"byteLength":192,"byteOffset":1543064,"target":34962},{"buffer":0,"byteLength":256,"byteOffset":1543256,"target":34962},{"buffer":0,"byteLength":128,"byteOffset":1543512,"target":34962},{"buffer":0,"byteLength":924,"byteOffset":1543640,"target":34963},{"buffer":0,"byteLength":2808,"byteOffset":1544564,"target":34962},{"buffer":0,"byteLength":2808,"byteOffset":1547372,"target":34962},{"buffer":0,"byteLength":3744,"byteOffset":1550180,"target":34962},{"buffer":0,"byteLength":1872,"byteOffset":1553924,"target":34962},{"buffer":0,"byteLength":5316,"byteOffset":1555796,"target":34963},{"buffer":0,"byteLength":9696,"byteOffset":1561112,"target":34962},{"buffer":0,"byteLength":9696,"byteOffset":1570808,"target":34962},{"buffer":0,"byteLength":12928,"byteOffset":1580504,"target":34962},{"buffer":0,"byteLength":6464,"byteOffset":1593432,"target":34962},{"buffer":0,"byteLength":480,"byteOffset":1599896,"target":34963},{"buffer":0,"byteLength":1596,"byteOffset":1600376,"target":34962},{"buffer":0,"byteLength":1596,"byteOffset":1601972,"target":34962},{"buffer":0,"byteLength":2128,"byteOffset":1603568,"target":34962},{"buffer":0,"byteLength":1064,"byteOffset":1605696,"target":34962},{"buffer":0,"byteLength":30,"byteOffset":1606760,"target":34963},{"buffer":0,"byteLength":240,"byteOffset":1606792,"target":34962},{"buffer":0,"byteLength":240,"byteOffset":1607032,"target":34962},{"buffer":0,"byteLength":320,"byteOffset":1607272,"target":34962},{"buffer":0,"byteLength":160,"byteOffset":1607592,"target":34962},{"buffer":0,"byteLength":7068,"byteOffset":1607752,"target":34963},{"buffer":0,"byteLength":23676,"byteOffset":1614820,"target":34962},{"buffer":0,"byteLength":23676,"byteOffset":1638496,"target":34962},{"buffer":0,"byteLength":31568,"byteOffset":1662172,"target":34962},{"buffer":0,"byteLength":15784,"byteOffset":1693740,"target":34962},{"buffer":0,"byteLength":126,"byteOffset":1709524,"target":34963},{"buffer":0,"byteLength":732,"byteOffset":1709652,"target":34962},{"buffer":0,"byteLength":732,"byteOffset":1710384,"target":34962},{"buffer":0,"byteLength":976,"byteOffset":1711116,"target":34962},{"buffer":0,"byteLength":488,"byteOffset":1712092,"target":34962},{"buffer":0,"byteLength":60,"byteOffset":1712580,"target":34963},{"buffer":0,"byteLength":480,"byteOffset":1712640,"target":34962},{"buffer":0,"byteLength":480,"byteOffset":1713120,"target":34962},{"buffer":0,"byteLength":640,"byteOffset":1713600,"target":34962},{"buffer":0,"byteLength":320,"byteOffset":1714240,"target":34962},{"buffer":0,"byteLength":42,"byteOffset":1714560,"target":34963},{"buffer":0,"byteLength":192,"byteOffset":1714604,"target":34962},{"buffer":0,"byteLength":192,"byteOffset":1714796,"target":34962},{"buffer":0,"byteLength":256,"byteOffset":1714988,"target":34962},{"buffer":0,"byteLength":128,"byteOffset":1715244,"target":34962},{"buffer":0,"byteLength":10074,"byteOffset":1715372,"target":34963},{"buffer":0,"byteLength":23124,"byteOffset":1725448,"target":34962},{"buffer":0,"byteLength":23124,"byteOffset":1748572,"target":34962},{"buffer":0,"byteLength":30832,"byteOffset":1771696,"target":34962},{"buffer":0,"byteLength":15416,"byteOffset":1802528,"target":34962},{"buffer":0,"byteLength":144,"byteOffset":1817944,"target":34963},{"buffer":0,"byteLength":396,"byteOffset":1818088,"target":34962},{"buffer":0,"byteLength":396,"byteOffset":1818484,"target":34962},{"buffer":0,"byteLength":528,"byteOffset":1818880,"target":34962},{"buffer":0,"byteLength":264,"byteOffset":1819408,"target":34962},{"buffer":0,"byteLength":8712,"byteOffset":1819672,"target":34963},{"buffer":0,"byteLength":19116,"byteOffset":1828384,"target":34962},{"buffer":0,"byteLength":19116,"byteOffset":1847500,"target":34962},{"buffer":0,"byteLength":25488,"byteOffset":1866616,"target":34962},{"buffer":0,"byteLength":12744,"byteOffset":1892104,"target":34962},{"buffer":0,"byteLength":2808,"byteOffset":1904848,"target":34963},{"buffer":0,"byteLength":4044,"byteOffset":1907656,"target":34962},{"buffer":0,"byteLength":4044,"byteOffset":1911700,"target":34962},{"buffer":0,"byteLength":5392,"byteOffset":1915744,"target":34962},{"buffer":0,"byteLength":2696,"byteOffset":1921136,"target":34962},{"buffer":0,"byteLength":3252,"byteOffset":1923832,"target":34963},{"buffer":0,"byteLength":6468,"byteOffset":1927084,"target":34962},{"buffer":0,"byteLength":6468,"byteOffset":1933552,"target":34962},{"buffer":0,"byteLength":8624,"byteOffset":1940020,"target":34962},{"buffer":0,"byteLength":4312,"byteOffset":1948644,"target":34962},{"buffer":0,"byteLength":1548,"byteOffset":1952956,"target":34963},{"buffer":0,"byteLength":9180,"byteOffset":1954504,"target":34962},{"buffer":0,"byteLength":9180,"byteOffset":1963684,"target":34962},{"buffer":0,"byteLength":12240,"byteOffset":1972864,"target":34962},{"buffer":0,"byteLength":6120,"byteOffset":1985104,"target":34962},{"buffer":0,"byteLength":120,"byteOffset":1991224,"target":34963},{"buffer":0,"byteLength":480,"byteOffset":1991344,"target":34962},{"buffer":0,"byteLength":480,"byteOffset":1991824,"target":34962},{"buffer":0,"byteLength":640,"byteOffset":1992304,"target":34962},{"buffer":0,"byteLength":320,"byteOffset":1992944,"target":34962},{"buffer":0,"byteLength":696,"byteOffset":1993264,"target":34963},{"buffer":0,"byteLength":2772,"byteOffset":1993960,"target":34962},{"buffer":0,"byteLength":2772,"byteOffset":1996732,"target":34962},{"buffer":0,"byteLength":3696,"byteOffset":1999504,"target":34962},{"buffer":0,"byteLength":1848,"byteOffset":2003200,"target":34962},{"buffer":0,"byteLength":144,"byteOffset":2005048,"target":34963},{"buffer":0,"byteLength":396,"byteOffset":2005192,"target":34962},{"buffer":0,"byteLength":396,"byteOffset":2005588,"target":34962},{"buffer":0,"byteLength":528,"byteOffset":2005984,"target":34962},{"buffer":0,"byteLength":264,"byteOffset":2006512,"target":34962},{"buffer":0,"byteLength":42,"byteOffset":2006776,"target":34963},{"buffer":0,"byteLength":192,"byteOffset":2006820,"target":34962},{"buffer":0,"byteLength":192,"byteOffset":2007012,"target":34962},{"buffer":0,"byteLength":256,"byteOffset":2007204,"target":34962},{"buffer":0,"byteLength":128,"byteOffset":2007460,"target":34962},{"buffer":0,"byteLength":54,"byteOffset":2007588,"target":34963},{"buffer":0,"byteLength":156,"byteOffset":2007644,"target":34962},{"buffer":0,"byteLength":156,"byteOffset":2007800,"target":34962},{"buffer":0,"byteLength":208,"byteOffset":2007956,"target":34962},{"buffer":0,"byteLength":104,"byteOffset":2008164,"target":34962},{"buffer":0,"byteLength":6786,"byteOffset":2008268,"target":34963},{"buffer":0,"byteLength":10476,"byteOffset":2015056,"target":34962},{"buffer":0,"byteLength":10476,"byteOffset":2025532,"target":34962},{"buffer":0,"byteLength":13968,"byteOffset":2036008,"target":34962},{"buffer":0,"byteLength":6984,"byteOffset":2049976,"target":34962},{"buffer":0,"byteLength":462,"byteOffset":2056960,"target":34963},{"buffer":0,"byteLength":1500,"byteOffset":2057424,"target":34962},{"buffer":0,"byteLength":1500,"byteOffset":2058924,"target":34962},{"buffer":0,"byteLength":2000,"byteOffset":2060424,"target":34962},{"buffer":0,"byteLength":1000,"byteOffset":2062424,"target":34962},{"buffer":0,"byteLength":42,"byteOffset":2063424,"target":34963},{"buffer":0,"byteLength":192,"byteOffset":2063468,"target":34962},{"buffer":0,"byteLength":192,"byteOffset":2063660,"target":34962},{"buffer":0,"byteLength":256,"byteOffset":2063852,"target":34962},{"buffer":0,"byteLength":128,"byteOffset":2064108,"target":34962},{"buffer":0,"byteLength":24,"byteOffset":2064236,"target":34963},{"buffer":0,"byteLength":192,"byteOffset":2064260,"target":34962},{"buffer":0,"byteLength":192,"byteOffset":2064452,"target":34962},{"buffer":0,"byteLength":256,"byteOffset":2064644,"target":34962},{"buffer":0,"byteLength":128,"byteOffset":2064900,"target":34962},{"buffer":1,"byteOffset":0,"byteLength":7200,"target":34962},{"buffer":1,"byteOffset":7200,"byteLength":7200,"target":34962},{"buffer":1,"byteOffset":14400,"byteLength":2592,"target":34962},{"buffer":1,"byteOffset":16992,"byteLength":2592,"target":34962},{"buffer":1,"byteOffset":19584,"byteLength":1728,"target":34962}],"buffers":[{"byteLength":2065028,"extras":{},"uri":"../pa22-v1-0.bin"},{"uri":"pa22-tail-v1.bin","byteLength":21312}],"images":[{"bufferView":0,"mimeType":"image/png","name":"cabin_red","extras":{}},{"bufferView":1,"mimeType":"image/png","name":"panel.png","extras":{}},{"bufferView":2,"mimeType":"image/png","name":"fuselage_red","extras":{}},{"bufferView":3,"mimeType":"image/png","name":"labels.png","extras":{}},{"bufferView":4,"mimeType":"image/png","name":"waterdrops.png","extras":{}},{"bufferView":5,"mimeType":"image/png","name":"nav_lights.png","extras":{}},{"bufferView":6,"mimeType":"image/png","name":"wings.png","extras":{}},{"bufferView":7,"mimeType":"image/png","name":"wheel_pants_red","extras":{}},{"bufferView":8,"mimeType":"image/png","name":"fuel_valve_red","extras":{}},{"bufferView":9,"mimeType":"image/png","name":"yoke.png","extras":{}},{"uri":"../../../airlines/BAW.png"}],"materials":[{"alphaMode":"BLEND","name":"alpha","pbrMetallicRoughness":{"baseColorFactor":[0.6400000190734865,0.6400000190734865,0.6400000190734865,0],"metallicFactor":0}},{"name":"cabin","pbrMetallicRoughness":{"baseColorFactor":[0.6800000292062762,0.6800000292062762,0.6800000292062762,1],"baseColorTexture":{"index":0},"metallicFactor":0}},{"name":"cabin.001","pbrMetallicRoughness":{"baseColorFactor":[0.6800000292062762,0.6800000292062762,0.6800000292062762,1],"baseColorTexture":{"index":1},"metallicFactor":0}},{"name":"cabin.002","pbrMetallicRoughness":{"baseColorFactor":[0.6800000292062762,0.6800000292062762,0.6800000292062762,1],"baseColorTexture":{"index":2},"metallicFactor":0}},{"name":"cabin.003","pbrMetallicRoughness":{"baseColorFactor":[0.6800000292062762,0.6800000292062762,0.6800000292062762,1],"baseColorTexture":{"index":3},"metallicFactor":0}},{"alphaMode":"BLEND","name":"glass","pbrMetallicRoughness":{"baseColorFactor":[0.3818888005895733,0.3818888005895733,0.41170082705767186,0.6000000238418579],"metallicFactor":0}},{"alphaMode":"BLEND","name":"glass.001","pbrMetallicRoughness":{"baseColorFactor":[0.3818888005895733,0.3818888005895733,0.41170082705767186,0.6000000238418579],"baseColorTexture":{"index":4},"metallicFactor":0}},{"alphaMode":"BLEND","name":"instr_glass","pbrMetallicRoughness":{"baseColorFactor":[0.3818888005895733,0.3818888005895733,0.41170082705767186,0.20000000298023224],"metallicFactor":0}},{"alphaMode":"BLEND","name":"landing_glass","pbrMetallicRoughness":{"baseColorFactor":[0.3818888005895733,0.3818888005895733,0.41170082705767186,0.6000000238418579],"metallicFactor":0}},{"name":"landing_reflector","pbrMetallicRoughness":{"baseColorFactor":[0.6800000292062762,0.6800000292062762,0.6800000292062762,1],"baseColorTexture":{"index":5},"metallicFactor":0}},{"name":"landing_reflector.001","pbrMetallicRoughness":{"baseColorFactor":[0.6800000292062762,0.6800000292062762,0.6800000292062762,1],"baseColorTexture":{"index":6},"metallicFactor":0}},{"name":"Material.001","pbrMetallicRoughness":{"baseColorFactor":[0.6800000292062762,0.6800000292062762,0.6800000292062762,1],"baseColorTexture":{"index":6},"metallicFactor":0}},{"name":"Material.002","pbrMetallicRoughness":{"baseColorFactor":[0.6800000292062762,0.6800000292062762,0.6800000292062762,1],"baseColorTexture":{"index":2},"metallicFactor":0}},{"name":"Material.003","pbrMetallicRoughness":{"baseColorFactor":[0.6800000292062762,0.6800000292062762,0.6800000292062762,1],"baseColorTexture":{"index":0},"metallicFactor":0}},{"name":"Material.004","pbrMetallicRoughness":{"baseColorFactor":[0.6800000292062762,0.6800000292062762,0.6800000292062762,1],"baseColorTexture":{"index":7},"metallicFactor":0}},{"name":"metal","pbrMetallicRoughness":{"baseColorFactor":[0.6400000190734865,0.6400000190734865,0.6400000190734865,1],"baseColorTexture":{"index":0},"metallicFactor":0}},{"name":"metal.001","pbrMetallicRoughness":{"baseColorFactor":[0.6400000190734865,0.6400000190734865,0.6400000190734865,1],"metallicFactor":0}},{"name":"metal.002","pbrMetallicRoughness":{"baseColorFactor":[0.6400000190734865,0.6400000190734865,0.6400000190734865,1],"baseColorTexture":{"index":8},"metallicFactor":0}},{"name":"metal.003","pbrMetallicRoughness":{"baseColorFactor":[0.6400000190734865,0.6400000190734865,0.6400000190734865,1],"baseColorTexture":{"index":2},"metallicFactor":0}},{"name":"metal.004","pbrMetallicRoughness":{"baseColorFactor":[0.6400000190734865,0.6400000190734865,0.6400000190734865,1],"baseColorTexture":{"index":1},"metallicFactor":0}},{"name":"metal.005","pbrMetallicRoughness":{"baseColorFactor":[0.6400000190734865,0.6400000190734865,0.6400000190734865,1],"baseColorTexture":{"index":6},"metallicFactor":0}},{"name":"metal.008","pbrMetallicRoughness":{"baseColorFactor":[0.6400000190734865,0.6400000190734865,0.6400000190734865,1],"baseColorTexture":{"index":9},"metallicFactor":0}},{"emissiveFactor":[1,1,1],"name":"nav_lights.001","pbrMetallicRoughness":{"baseColorFactor":[0.800000011920929,0.800000011920929,0.800000011920929,1],"baseColorTexture":{"index":6},"metallicFactor":0}},{"emissiveFactor":[1,1,1],"name":"nav_lights.002","pbrMetallicRoughness":{"baseColorFactor":[0.800000011920929,0.800000011920929,0.800000011920929,1],"baseColorTexture":{"index":2},"metallicFactor":0}},{"name":"no_spec","pbrMetallicRoughness":{"baseColorFactor":[0.800000011920929,0.800000011920929,0.800000011920929,1],"baseColorTexture":{"index":2},"metallicFactor":0}},{"name":"no_spec.001","pbrMetallicRoughness":{"baseColorFactor":[0.800000011920929,0.800000011920929,0.800000011920929,1],"baseColorTexture":{"index":0},"metallicFactor":0}},{"alphaMode":"BLEND","name":"taxi_glass","pbrMetallicRoughness":{"baseColorFactor":[0.3818888005895733,0.3818888005895733,0.41170082705767186,0.6000000238418579],"metallicFactor":0}},{"name":"taxi_reflector","pbrMetallicRoughness":{"baseColorFactor":[0.6800000292062762,0.6800000292062762,0.6800000292062762,1],"baseColorTexture":{"index":5},"metallicFactor":0}},{"name":"taxi_reflector.001","pbrMetallicRoughness":{"baseColorFactor":[0.6800000292062762,0.6800000292062762,0.6800000292062762,1],"baseColorTexture":{"index":6},"metallicFactor":0}},{"name":"Operator tail paint","doubleSided":true,"pbrMetallicRoughness":{"baseColorFactor":[0.14901960784313725,0.24705882352941178,0.5058823529411764,1],"metallicFactor":0,"roughnessFactor":0.65}},{"name":"Operator logo identification","doubleSided":true,"alphaMode":"BLEND","pbrMetallicRoughness":{"baseColorTexture":{"index":10},"metallicFactor":0,"roughnessFactor":0.7},"emissiveFactor":[0.18,0.18,0.18],"emissiveTexture":{"index":10}}],"meshes":[{"name":"Plane.021","primitives":[{"attributes":{"NORMAL":2,"POSITION":1,"TANGENT":3,"TEXCOORD_0":4},"indices":0,"material":15},{"attributes":{"NORMAL":7,"POSITION":6,"TANGENT":8,"TEXCOORD_0":9},"indices":5,"material":21},{"attributes":{"NORMAL":12,"POSITION":11,"TANGENT":13,"TEXCOORD_0":14},"indices":10,"material":3},{"attributes":{"NORMAL":17,"POSITION":16,"TANGENT":18,"TEXCOORD_0":19},"indices":15,"material":12},{"attributes":{"NORMAL":22,"POSITION":21,"TANGENT":23,"TEXCOORD_0":24},"indices":20,"material":24},{"attributes":{"NORMAL":27,"POSITION":26,"TANGENT":28,"TEXCOORD_0":29},"indices":25,"material":27},{"attributes":{"NORMAL":32,"POSITION":31,"TANGENT":33,"TEXCOORD_0":34},"indices":30,"material":5},{"attributes":{"NORMAL":37,"POSITION":36,"TANGENT":38,"TEXCOORD_0":39},"indices":35,"material":13},{"attributes":{"NORMAL":42,"POSITION":41,"TANGENT":43,"TEXCOORD_0":44},"indices":40,"material":17},{"attributes":{"NORMAL":47,"POSITION":46,"TANGENT":48,"TEXCOORD_0":49},"indices":45,"material":19},{"attributes":{"NORMAL":52,"POSITION":51,"TANGENT":53,"TEXCOORD_0":54},"indices":50,"material":2},{"attributes":{"NORMAL":57,"POSITION":56,"TANGENT":58,"TEXCOORD_0":59},"indices":55,"material":25},{"attributes":{"NORMAL":62,"POSITION":61,"TANGENT":63,"TEXCOORD_0":64},"indices":60,"material":4},{"attributes":{"NORMAL":67,"POSITION":66,"TANGENT":68,"TEXCOORD_0":69},"indices":65,"material":8},{"attributes":{"NORMAL":72,"POSITION":71,"TANGENT":73,"TEXCOORD_0":74},"indices":70,"material":1},{"attributes":{"NORMAL":77,"POSITION":76,"TANGENT":78,"TEXCOORD_0":79},"indices":75,"material":10},{"attributes":{"NORMAL":82,"POSITION":81,"TANGENT":83,"TEXCOORD_0":84},"indices":80,"material":11},{"attributes":{"NORMAL":87,"POSITION":86,"TANGENT":88,"TEXCOORD_0":89},"indices":85,"material":18},{"attributes":{"NORMAL":92,"POSITION":91,"TANGENT":93,"TEXCOORD_0":94},"indices":90,"material":20},{"attributes":{"NORMAL":97,"POSITION":96,"TANGENT":98,"TEXCOORD_0":99},"indices":95,"material":7},{"attributes":{"NORMAL":102,"POSITION":101,"TANGENT":103,"TEXCOORD_0":104},"indices":100,"material":22},{"attributes":{"NORMAL":107,"POSITION":106,"TANGENT":108,"TEXCOORD_0":109},"indices":105,"material":16},{"attributes":{"NORMAL":112,"POSITION":111,"TANGENT":113,"TEXCOORD_0":114},"indices":110,"material":28},{"attributes":{"NORMAL":117,"POSITION":116,"TANGENT":118,"TEXCOORD_0":119},"indices":115,"material":9},{"attributes":{"NORMAL":122,"POSITION":121,"TANGENT":123,"TEXCOORD_0":124},"indices":120,"material":23},{"attributes":{"NORMAL":127,"POSITION":126,"TANGENT":128,"TEXCOORD_0":129},"indices":125,"material":14},{"attributes":{"NORMAL":132,"POSITION":131,"TANGENT":133,"TEXCOORD_0":134},"indices":130,"material":6},{"attributes":{"NORMAL":137,"POSITION":136,"TANGENT":138,"TEXCOORD_0":139},"indices":135,"material":26},{"attributes":{"NORMAL":142,"POSITION":141,"TANGENT":143,"TEXCOORD_0":144},"indices":140,"material":0}]},{"name":"Airline tail surface overlay","primitives":[{"attributes":{"POSITION":145,"NORMAL":146},"material":29},{"attributes":{"POSITION":147,"NORMAL":148,"TEXCOORD_0":149},"material":30}]}],"nodes":[{"mesh":0,"name":"wing_r"},{"name":"SkywardCoordinateAlignment","matrix":[1,0,0,0,0,1,0,0,0,0,1,0,0,0,0,1],"children":[0]},{"name":"AirlineTailBranding","mesh":1}],"samplers":[{},{"magFilter":9729,"minFilter":9987,"wrapS":33071,"wrapT":33071}],"scene":0,"scenes":[{"name":"Scene","nodes":[1,2]}],"textures":[{"sampler":0,"source":0},{"sampler":0,"source":1},{"sampler":0,"source":2},{"sampler":0,"source":3},{"sampler":0,"source":4},{"sampler":0,"source":5},{"sampler":0,"source":6},{"sampler":0,"source":7},{"sampler":0,"source":8},{"sampler":0,"source":9},{"source":10,"sampler":1}],"extras":{"skyward":{"source":"https://github.com/Ysurac/FlightAirMap-3dmodels","commit":"0906d9ba1bdd906ce45807e45ed706c09912db19","changes":"Converted legacy glTF to glTF 2.0 with Cesium; rigid axis alignment, horizontal centering, and source transforms baked into positions/normals for correct Cesium bounds. Original shape, materials and paint retained. Added surface-following operator tail paint and unmodified identification-logo texture. Branding is illustrative, not a registration-specific livery.","license":"GPL-2.0","sourceFiles":["source/flightairmap/pa22/COPYING","source/flightairmap/pa22/pa22.blend"],"operator":"BAW"}}}