{"accessors":[{"bufferView":8,"byteOffset":16980,"componentType":5123,"count":1716,"type":"SCALAR","name":"accessor_102"},{"bufferView":8,"byteOffset":103260,"componentType":5123,"count":831,"type":"SCALAR","name":"accessor_1020"},{"bufferView":83,"byteOffset":0,"componentType":5126,"count":831,"max":[0.9842060208320618,0.5791059732437134,0.2516999840736389],"min":[-0.9600329995155334,-0.5791059732437134,-0.2516999840736389],"type":"VEC3","name":"accessor_1022"},{"bufferView":83,"byteOffset":9972,"componentType":5126,"count":831,"max":[0.1140270009636879,0.985148012638092,0.96492999792099],"min":[-0.6716529726982117,-0.9861170053482056,0.16604900360107422],"type":"VEC3","name":"accessor_1024"},{"bufferView":84,"byteOffset":0,"componentType":5126,"count":831,"max":[1,1],"min":[0,0],"type":"VEC2","name":"accessor_1026"},{"bufferView":15,"byteOffset":0,"componentType":5126,"count":1716,"max":[0.3859730064868927,1.9631099700927734,0.04622989892959595],"min":[-0.3859730064868927,-1.9631099700927734,-0.04622989892959595],"type":"VEC3","name":"accessor_104"},{"bufferView":8,"byteOffset":104922,"componentType":5123,"count":3108,"type":"SCALAR","name":"accessor_1047"},{"bufferView":85,"byteOffset":0,"componentType":5126,"count":3108,"max":[0.21721699833869934,4.318299770355225,0.170989990234375],"min":[-0.21721699833869934,2.1476099491119385,-0.2454639971256256],"type":"VEC3","name":"accessor_1049"},{"bufferView":85,"byteOffset":37296,"componentType":5126,"count":3108,"max":[1,0.9999970197677612,0.992667019367218],"min":[-0.999987006187439,-0.9999979734420776,-0.9944289922714233],"type":"VEC3","name":"accessor_1051"},{"bufferView":86,"byteOffset":0,"componentType":5126,"count":3108,"max":[0.9900010228157043,0.7419869899749756],"min":[0.22720099985599518,0.26270097494125366],"type":"VEC2","name":"accessor_1053"},{"bufferView":15,"byteOffset":20592,"componentType":5126,"count":1716,"max":[1,0.9994750022888184,0.9998760223388672],"min":[-0.9999619722366333,-0.9994750022888184,-1],"type":"VEC3","name":"accessor_106"},{"bufferView":8,"byteOffset":111138,"componentType":5123,"count":3108,"type":"SCALAR","name":"accessor_1074"},{"bufferView":87,"byteOffset":0,"componentType":5126,"count":3108,"max":[0.21721699833869934,1.0853400230407715,0.170989990234375],"min":[-0.21721699833869934,-1.0853400230407715,-0.2454639971256256],"type":"VEC3","name":"accessor_1076"},{"bufferView":87,"byteOffset":37296,"componentType":5126,"count":3108,"max":[1,0.9999979734420776,0.992667019367218],"min":[-0.999987006187439,-0.9999970197677612,-0.9944289922714233],"type":"VEC3","name":"accessor_1078"},{"bufferView":16,"byteOffset":0,"componentType":5126,"count":1716,"max":[0.6280069947242737,0.9603440165519714],"min":[0.004651839844882488,0.9011206030845642],"type":"VEC2","name":"accessor_108"},{"bufferView":88,"byteOffset":0,"componentType":5126,"count":3108,"max":[0.9895210266113281,0.7419869899749756],"min":[0.2253970056772232,0.22458398342132568],"type":"VEC2","name":"accessor_1080"},{"bufferView":8,"byteOffset":20412,"componentType":5123,"count":3840,"type":"SCALAR","name":"accessor_129"},{"bufferView":17,"byteOffset":0,"componentType":5126,"count":3840,"max":[1.813789963722229,0.13252800703048706,0.14087699353694916],"min":[-0.15270400047302246,-0.02928199991583824,-0.3826789855957031],"type":"VEC3","name":"accessor_131"},{"bufferView":17,"byteOffset":46080,"componentType":5126,"count":3840,"max":[0.999625027179718,0.9999989867210388,0.9978099465370178],"min":[-0.991690993309021,-0.9999989867210388,-0.9225080013275146],"type":"VEC3","name":"accessor_133"},{"bufferView":18,"byteOffset":0,"componentType":5126,"count":3840,"max":[0.834089994430542,0.9763761758804321],"min":[0.43261298537254333,0.7748450040817261],"type":"VEC2","name":"accessor_135"},{"bufferView":8,"byteOffset":28092,"componentType":5123,"count":84,"type":"SCALAR","name":"accessor_156"},{"bufferView":19,"byteOffset":0,"componentType":5126,"count":84,"max":[0.054871998727321625,0.01929599978029728,0.04085399955511093],"min":[-0.054871998727321625,-0.01929599978029728,-0.04085399955511093],"type":"VEC3","name":"accessor_158"},{"bufferView":19,"byteOffset":1008,"componentType":5126,"count":84,"max":[0.777616024017334,0.7398669719696045,0.7880479693412781],"min":[-0.777616024017334,-0.7071290016174316,-0.7880650162696838],"type":"VEC3","name":"accessor_160"},{"bufferView":20,"byteOffset":0,"componentType":5126,"count":84,"max":[0.8031430244445801,0.865218997001648],"min":[0.7906519770622253,0.8248000144958496],"type":"VEC2","name":"accessor_162"},{"bufferView":8,"byteOffset":28260,"componentType":5123,"count":84,"type":"SCALAR","name":"accessor_183"},{"bufferView":21,"byteOffset":0,"componentType":5126,"count":84,"max":[0.05164099857211113,0.019847000017762184,0.04663999751210213],"min":[-0.05164000019431114,-0.019847000017762184,-0.04664099961519241],"type":"VEC3","name":"accessor_185"},{"bufferView":21,"byteOffset":1008,"componentType":5126,"count":84,"max":[0.8048220276832581,0.7071080207824707,0.8125240206718445],"min":[-0.8047909736633301,-0.7375239729881287,-0.8125180006027222],"type":"VEC3","name":"accessor_187"},{"bufferView":22,"byteOffset":0,"componentType":5126,"count":84,"max":[0.802232027053833,0.8660849928855896],"min":[0.7880989909172058,0.8237749934196472],"type":"VEC2","name":"accessor_189"},{"bufferView":8,"byteOffset":0,"componentType":5123,"count":1860,"type":"SCALAR","name":"accessor_21"},{"bufferView":8,"byteOffset":28428,"componentType":5123,"count":84,"type":"SCALAR","name":"accessor_210"},{"bufferView":23,"byteOffset":0,"componentType":5126,"count":84,"max":[0.059755001217126846,0.021191999316215515,0.0647319033741951],"min":[-0.05929899960756302,-0.021021999418735504,-0.0636110007762909],"type":"VEC3","name":"accessor_212"},{"bufferView":23,"byteOffset":1008,"componentType":5126,"count":84,"max":[0.8274310231208801,0.7378339767456055,0.8554220199584961],"min":[-0.8212630152702332,-0.7229359745979309,-0.8490579724311829],"type":"VEC3","name":"accessor_214"},{"bufferView":24,"byteOffset":0,"componentType":5126,"count":84,"max":[0.7969970107078552,0.8664669990539551],"min":[0.7857080101966858,0.8260890245437622],"type":"VEC2","name":"accessor_216"},{"bufferView":9,"byteOffset":0,"componentType":5126,"count":1860,"max":[0.19105100631713867,8.412169456481934,0.21676799654960632],"min":[-0.2704399824142456,6.152000427246094,-0.13853800296783447],"type":"VEC3","name":"accessor_23"},{"bufferView":8,"byteOffset":28596,"componentType":5123,"count":84,"type":"SCALAR","name":"accessor_237"},{"bufferView":25,"byteOffset":0,"componentType":5126,"count":84,"max":[0.05126899853348732,0.023878999054431915,0.07184900343418121],"min":[-0.05068599805235863,-0.024079998955130577,-0.07316000014543533],"type":"VEC3","name":"accessor_239"},{"bufferView":25,"byteOffset":1008,"componentType":5126,"count":84,"max":[0.8175129890441895,0.7191529870033264,0.8453789949417114],"min":[-0.8097879886627197,-0.7336490154266357,-0.8520979881286621],"type":"VEC3","name":"accessor_241"},{"bufferView":26,"byteOffset":0,"componentType":5126,"count":84,"max":[0.796288013458252,0.8632490038871765],"min":[0.7848770022392273,0.8269990086555481],"type":"VEC2","name":"accessor_243"},{"bufferView":9,"byteOffset":22320,"componentType":5126,"count":1860,"max":[0.7756800055503845,0.9863499999046326,0.9480999708175659],"min":[-0.7419660091400146,-0.9935939908027649,-0.793317973613739],"type":"VEC3","name":"accessor_25"},{"bufferView":8,"byteOffset":28764,"componentType":5123,"count":84,"type":"SCALAR","name":"accessor_264"},{"bufferView":27,"byteOffset":0,"componentType":5126,"count":84,"max":[0.059296999126672745,0.0211069006472826,0.06360600143671036],"min":[-0.05975700169801712,-0.0211069006472826,-0.0647369995713234],"type":"VEC3","name":"accessor_266"},{"bufferView":27,"byteOffset":1008,"componentType":5126,"count":84,"max":[0.8274310231208801,0.7229359745979309,0.8554220199584961],"min":[-0.8212630152702332,-0.7378339767456055,-0.8490440249443054],"type":"VEC3","name":"accessor_268"},{"bufferView":10,"byteOffset":0,"componentType":5126,"count":1860,"max":[0.7781339883804321,0.7424249649047852],"min":[0.04389829933643341,0.5271129608154297],"type":"VEC2","name":"accessor_27"},{"bufferView":28,"byteOffset":0,"componentType":5126,"count":84,"max":[0.7969970107078552,0.8664669990539551],"min":[0.7857080101966858,0.8260890245437622],"type":"VEC2","name":"accessor_270"},{"bufferView":8,"byteOffset":28932,"componentType":5123,"count":84,"type":"SCALAR","name":"accessor_291"},{"bufferView":29,"byteOffset":0,"componentType":5126,"count":84,"max":[0.05075500160455704,0.02397890016436577,0.0731939971446991],"min":[-0.05119999870657921,-0.02397890016436577,-0.07181499898433685],"type":"VEC3","name":"accessor_293"},{"bufferView":29,"byteOffset":1008,"componentType":5126,"count":84,"max":[0.8175129890441895,0.7336490154266357,0.8453810214996338],"min":[-0.8097879886627197,-0.7191609740257263,-0.8520960211753845],"type":"VEC3","name":"accessor_295"},{"bufferView":30,"byteOffset":0,"componentType":5126,"count":84,"max":[0.796288013458252,0.8632490038871765],"min":[0.7848770022392273,0.8269990086555481],"type":"VEC2","name":"accessor_297"},{"bufferView":8,"byteOffset":29100,"componentType":5123,"count":846,"type":"SCALAR","name":"accessor_318"},{"bufferView":31,"byteOffset":0,"componentType":5126,"count":846,"max":[0.0446459986269474,0.10132300108671188,0.1194859966635704],"min":[-0.08817800134420395,-0.10132300108671188,-0.3104979991912842],"type":"VEC3","name":"accessor_320"},{"bufferView":31,"byteOffset":10152,"componentType":5126,"count":846,"max":[0.9758989810943604,1,0.9351779818534851],"min":[-0.975579023361206,-1,-0.9107409715652466],"type":"VEC3","name":"accessor_322"},{"bufferView":32,"byteOffset":0,"componentType":5126,"count":846,"max":[0.7951229810714722,0.8674589991569519],"min":[0.7881619930267334,0.8389450311660767],"type":"VEC2","name":"accessor_324"},{"bufferView":8,"byteOffset":30792,"componentType":5123,"count":288,"type":"SCALAR","name":"accessor_345"},{"bufferView":33,"byteOffset":0,"componentType":5126,"count":288,"max":[0.0637350007891655,0.034685999155044556,0.13325899839401245],"min":[-0.0637350007891655,-0.037946999073028564,-0.13325899839401245],"type":"VEC3","name":"accessor_347"},{"bufferView":33,"byteOffset":3456,"componentType":5126,"count":288,"max":[0.975275993347168,1,0.2210090011358261],"min":[-0.9752780199050903,-1,-0.8895660042762756],"type":"VEC3","name":"accessor_349"},{"bufferView":34,"byteOffset":0,"componentType":5126,"count":288,"max":[0.734154999256134,0.8618130087852478],"min":[0.7172759771347046,0.8245729804039001],"type":"VEC2","name":"accessor_351"},{"bufferView":8,"byteOffset":31368,"componentType":5123,"count":726,"type":"SCALAR","name":"accessor_372"},{"bufferView":35,"byteOffset":0,"componentType":5126,"count":726,"max":[0.02836799994111061,3.0598299503326416,0.15098799765110016],"min":[-0.027060000225901604,2.9005699157714844,-0.18942900002002716],"type":"VEC3","name":"accessor_374"},{"bufferView":35,"byteOffset":8712,"componentType":5126,"count":726,"max":[1,0.9977390170097351,1],"min":[-1,-1,-1],"type":"VEC3","name":"accessor_376"},{"bufferView":36,"byteOffset":0,"componentType":5126,"count":726,"max":[0.8660860061645508,0.9501854181289673],"min":[0.7653939723968506,0.8203020095825195],"type":"VEC2","name":"accessor_378"},{"bufferView":8,"byteOffset":32820,"componentType":5123,"count":336,"type":"SCALAR","name":"accessor_399"},{"bufferView":37,"byteOffset":0,"componentType":5126,"count":336,"max":[0.03846199810504913,0.04731699824333191,0.1326729953289032],"min":[-0.03846199810504913,-0.04731699824333191,-0.1326729953289032],"type":"VEC3","name":"accessor_401"},{"bufferView":37,"byteOffset":4032,"componentType":5126,"count":336,"max":[0.9999960064888,0.9975640177726746,0.06975889950990677],"min":[-0.9999960064888,-0.9975640177726746,-0.9975529909133911],"type":"VEC3","name":"accessor_403"},{"bufferView":38,"byteOffset":0,"componentType":5126,"count":336,"max":[0.7297430038452148,0.8570150136947632],"min":[0.7210180163383484,0.8288710117340088],"type":"VEC2","name":"accessor_405"},{"bufferView":8,"byteOffset":33492,"componentType":5123,"count":726,"type":"SCALAR","name":"accessor_426"},{"bufferView":39,"byteOffset":0,"componentType":5126,"count":726,"max":[0.02836799994111061,0.03348099812865257,0.15098799765110016],"min":[-0.027060000225901604,-0.125777006149292,-0.18942900002002716],"type":"VEC3","name":"accessor_428"},{"bufferView":39,"byteOffset":8712,"componentType":5126,"count":726,"max":[1,1,1],"min":[-1,-0.9977390170097351,-1],"type":"VEC3","name":"accessor_430"},{"bufferView":40,"byteOffset":0,"componentType":5126,"count":726,"max":[0.8660860061645508,0.9501854181289673],"min":[0.7653939723968506,0.8203020095825195],"type":"VEC2","name":"accessor_432"},{"bufferView":8,"byteOffset":34944,"componentType":5123,"count":336,"type":"SCALAR","name":"accessor_453"},{"bufferView":41,"byteOffset":0,"componentType":5126,"count":336,"max":[0.03846199810504913,0.04731699824333191,0.1326729953289032],"min":[-0.03846199810504913,-0.04731699824333191,-0.13267399370670319],"type":"VEC3","name":"accessor_455"},{"bufferView":41,"byteOffset":4032,"componentType":5126,"count":336,"max":[0.9999960064888,0.9975640177726746,0.06975880265235901],"min":[-0.9999960064888,-0.9975640177726746,-0.9975529909133911],"type":"VEC3","name":"accessor_457"},{"bufferView":42,"byteOffset":0,"componentType":5126,"count":336,"max":[0.7297430038452148,0.8570150136947632],"min":[0.7210180163383484,0.8288710117340088],"type":"VEC2","name":"accessor_459"},{"bufferView":8,"byteOffset":3720,"componentType":5123,"count":1860,"type":"SCALAR","name":"accessor_48"},{"bufferView":8,"byteOffset":35616,"componentType":5123,"count":1728,"type":"SCALAR","name":"accessor_480"},{"bufferView":43,"byteOffset":0,"componentType":5126,"count":1728,"max":[0.13294099271297455,0.17242400348186493,0.17242400348186493],"min":[-0.13294200599193573,-0.17242400348186493,-0.17242300510406494],"type":"VEC3","name":"accessor_482"},{"bufferView":43,"byteOffset":20736,"componentType":5126,"count":1728,"max":[1,0.964257001876831,0.964257001876831],"min":[-1,-0.964257001876831,-0.964257001876831],"type":"VEC3","name":"accessor_484"},{"bufferView":44,"byteOffset":0,"componentType":5126,"count":1728,"max":[0.11962999403476715,0.8628079891204834],"min":[0.023753000423312187,0.8061829805374146],"type":"VEC2","name":"accessor_486"},{"bufferView":11,"byteOffset":0,"componentType":5126,"count":1860,"max":[0.41978201270103455,2.251620054244995,0.05243000015616417],"min":[-0.04171000048518181,-0.008545990101993084,-0.3028770089149475],"type":"VEC3","name":"accessor_50"},{"bufferView":8,"byteOffset":39072,"componentType":5123,"count":1440,"type":"SCALAR","name":"accessor_507"},{"bufferView":45,"byteOffset":0,"componentType":5126,"count":1440,"max":[0.14840400218963623,0.06096090003848076,0.01822200044989586],"min":[-0.14840400218963623,-0.06096090003848076,-0.06278499960899353],"type":"VEC3","name":"accessor_509"},{"bufferView":45,"byteOffset":17280,"componentType":5126,"count":1440,"max":[0.9933609962463379,0.9951620101928711,-0.08103600144386292],"min":[-0.9359959959983826,-0.9951620101928711,-0.999405026435852],"type":"VEC3","name":"accessor_511"},{"bufferView":46,"byteOffset":0,"componentType":5126,"count":1440,"max":[0.08313940465450287,0.13863199949264526],"min":[0.010984200052917004,0.10899299383163452],"type":"VEC2","name":"accessor_513"},{"bufferView":11,"byteOffset":22320,"componentType":5126,"count":1860,"max":[0.7757819890975952,0.9935899972915649,0.9480710029602051],"min":[-0.7420089840888977,-0.9863499999046326,-0.7933310270309448],"type":"VEC3","name":"accessor_52"},{"bufferView":8,"byteOffset":41952,"componentType":5123,"count":1152,"type":"SCALAR","name":"accessor_534"},{"bufferView":47,"byteOffset":0,"componentType":5126,"count":1152,"max":[0.22491399943828583,2.9492900371551514,0.14967599511146545],"min":[-1.92031991481781,-0.05201999843120575,-0.12483900040388107],"type":"VEC3","name":"accessor_536"},{"bufferView":47,"byteOffset":13824,"componentType":5126,"count":1152,"max":[0.9999989867210388,0.9986940026283264,0.06933879852294922],"min":[-1,-0.9992719888687134,-0.9888110160827637],"type":"VEC3","name":"accessor_538"},{"bufferView":12,"byteOffset":0,"componentType":5126,"count":1860,"max":[0.7783550024032593,0.7424249649047852],"min":[0.04411910101771355,0.5271129608154297],"type":"VEC2","name":"accessor_54"},{"bufferView":48,"byteOffset":0,"componentType":5126,"count":1152,"max":[0.9893329739570618,0.6139540076255798],"min":[0.8282999992370605,0.41878199577331543],"type":"VEC2","name":"accessor_540"},{"bufferView":8,"byteOffset":44256,"componentType":5123,"count":288,"type":"SCALAR","name":"accessor_561"},{"bufferView":49,"byteOffset":0,"componentType":5126,"count":288,"max":[-1.618459939956665,1.4894800186157227,0.08241599798202515],"min":[-1.9097999334335327,1.4077999591827393,-0.03514700010418892],"type":"VEC3","name":"accessor_563"},{"bufferView":49,"byteOffset":3456,"componentType":5126,"count":288,"max":[0.9999899864196777,0.9999470114707947,0],"min":[-0.9998719692230225,-0.9999189972877502,-0.9963970184326172],"type":"VEC3","name":"accessor_565"},{"bufferView":50,"byteOffset":0,"componentType":5126,"count":288,"max":[0.8517190217971802,0.9578418135643005],"min":[0.7801079750061035,0.9289448857307434],"type":"VEC2","name":"accessor_567"},{"bufferView":8,"byteOffset":44832,"componentType":5123,"count":828,"type":"SCALAR","name":"accessor_588"},{"bufferView":51,"byteOffset":0,"componentType":5126,"count":828,"max":[0.341744989156723,0.043327998369932175,0.6080430150032043],"min":[-0.341744989156723,-0.043327998369932175,-0.6080430150032043],"type":"VEC3","name":"accessor_590"},{"bufferView":51,"byteOffset":9936,"componentType":5126,"count":828,"max":[0.9565280079841614,0.999879002571106,0.9896640181541443],"min":[-0.9593539834022522,-0.999879002571106,-1],"type":"VEC3","name":"accessor_592"},{"bufferView":52,"byteOffset":0,"componentType":5126,"count":828,"max":[0.9835579991340637,0.3068060278892517],"min":[0.08970490097999573,0.018818020820617676],"type":"VEC2","name":"accessor_594"},{"bufferView":8,"byteOffset":46488,"componentType":5123,"count":5628,"type":"SCALAR","name":"accessor_615"},{"bufferView":53,"byteOffset":0,"componentType":5126,"count":5628,"max":[3.3196098804473877,0.5918359756469727,1.0301899909973145],"min":[-3.3196098804473877,-0.5918359756469727,-1.0301899909973145],"type":"VEC3","name":"accessor_617"},{"bufferView":53,"byteOffset":67536,"componentType":5126,"count":5628,"max":[0.9999899864196777,0.999983012676239,0.9999110102653503],"min":[-0.9961130023002625,-0.999983012676239,-0.9998850226402283],"type":"VEC3","name":"accessor_619"},{"bufferView":54,"byteOffset":0,"componentType":5126,"count":5628,"max":[0.9555259943008423,0.3973010182380676],"min":[0.11836300045251846,0.01628899574279785],"type":"VEC2","name":"accessor_621"},{"bufferView":8,"byteOffset":57744,"componentType":5123,"count":600,"type":"SCALAR","name":"accessor_642"},{"bufferView":55,"byteOffset":0,"componentType":5126,"count":600,"max":[0.02933499962091446,0.055316999554634094,0.794634997844696],"min":[-0.02933499962091446,-0.055316999554634094,-0.794634997844696],"type":"VEC3","name":"accessor_644"},{"bufferView":55,"byteOffset":7200,"componentType":5126,"count":600,"max":[0.9935969710350037,0.9610289931297302,0.9185519814491272],"min":[-0.9920179843902588,-0.9610289931297302,-0.9185619950294495],"type":"VEC3","name":"accessor_646"},{"bufferView":56,"byteOffset":0,"componentType":5126,"count":600,"max":[0.049386199563741684,0.4174090027809143],"min":[0.006478909868746996,0.15977102518081665],"type":"VEC2","name":"accessor_648"},{"bufferView":8,"byteOffset":58944,"componentType":5123,"count":864,"type":"SCALAR","name":"accessor_669"},{"bufferView":57,"byteOffset":0,"componentType":5126,"count":864,"max":[-4.1386399269104,5.274359703063965,-1.4398599863052368],"min":[-4.265199661254883,5.245959758758545,-1.4810599088668823],"type":"VEC3","name":"accessor_671"},{"bufferView":57,"byteOffset":10368,"componentType":5126,"count":864,"max":[0.6440650224685669,0.9993999600410461,0.9590309858322144],"min":[-0.7586690187454224,0.27878299355506897,-0.9369059801101685],"type":"VEC3","name":"accessor_673"},{"bufferView":58,"byteOffset":0,"componentType":5126,"count":864,"max":[1,1],"min":[0,0],"type":"VEC2","name":"accessor_675"},{"bufferView":8,"byteOffset":60672,"componentType":5123,"count":1536,"type":"SCALAR","name":"accessor_696"},{"bufferView":59,"byteOffset":0,"componentType":5126,"count":1536,"max":[0.07040800154209137,0.09590599685907364,-0.08119399845600128],"min":[-4.265199661254883,-5.2716498374938965,-1.4807900190353394],"type":"VEC3","name":"accessor_698"},{"bufferView":59,"byteOffset":18432,"componentType":5126,"count":1536,"max":[0.644074022769928,0.89164799451828,0.9993060231208801],"min":[-0.8126239776611328,-0.9993820190429688,-0.9369249939918518],"type":"VEC3","name":"accessor_700"},{"bufferView":60,"byteOffset":0,"componentType":5126,"count":1536,"max":[1,1],"min":[0,0],"type":"VEC2","name":"accessor_702"},{"bufferView":8,"byteOffset":63744,"componentType":5123,"count":1152,"type":"SCALAR","name":"accessor_723"},{"bufferView":61,"byteOffset":0,"componentType":5126,"count":1152,"max":[0.12955500185489655,0.02005700021982193,0.06105300039052963],"min":[-0.12955500185489655,-0.02005700021982193,-0.06105300039052963],"type":"VEC3","name":"accessor_725"},{"bufferView":61,"byteOffset":13824,"componentType":5126,"count":1152,"max":[0.9999949932098389,1,0.9994890093803406],"min":[-0.9999939799308777,-1,-0.9958419799804688],"type":"VEC3","name":"accessor_727"},{"bufferView":62,"byteOffset":0,"componentType":5126,"count":1152,"max":[0.7505450248718262,0.859184980392456],"min":[0.6950910091400146,0.8330519795417786],"type":"VEC2","name":"accessor_729"},{"bufferView":8,"byteOffset":7440,"componentType":5123,"count":4770,"type":"SCALAR","name":"accessor_75"},{"bufferView":8,"byteOffset":66048,"componentType":5123,"count":210,"type":"SCALAR","name":"accessor_750"},{"bufferView":63,"byteOffset":0,"componentType":5126,"count":210,"max":[0.088099904358387,0.2673319876194,0.018570000305771828],"min":[-0.044835999608039856,-0.028921999037265778,-0.18993200361728668],"type":"VEC3","name":"accessor_752"},{"bufferView":63,"byteOffset":2520,"componentType":5126,"count":210,"max":[0.9999859929084778,0.7033119797706604,0.8763229846954346],"min":[-0.9999809861183167,-0.6815379858016968,-0.8807129859924316],"type":"VEC3","name":"accessor_754"},{"bufferView":64,"byteOffset":0,"componentType":5126,"count":210,"max":[0.42250099778175354,0.8749960064888],"min":[0.23562799394130707,0.8064330220222473],"type":"VEC2","name":"accessor_756"},{"bufferView":13,"byteOffset":0,"componentType":5126,"count":4770,"max":[0.3363089859485626,5.897830009460449,0.7896249890327454],"min":[-1.5397599935531616,-4.626919746398926,-0.011253000237047672],"type":"VEC3","name":"accessor_77"},{"bufferView":8,"byteOffset":66468,"componentType":5123,"count":189,"type":"SCALAR","name":"accessor_777"},{"bufferView":65,"byteOffset":0,"componentType":5126,"count":189,"max":[0.45461198687553406,0.19238300621509552,0.4689190089702606],"min":[-0.45461198687553406,-0.19238300621509552,-0.4689190089702606],"type":"VEC3","name":"accessor_779"},{"bufferView":65,"byteOffset":2268,"componentType":5126,"count":189,"max":[0.00268798996694386,0.9999740123748779,0.9603660106658936],"min":[-0.10385899990797043,0.271463006734848,-0.1901949942111969],"type":"VEC3","name":"accessor_781"},{"bufferView":66,"byteOffset":0,"componentType":5126,"count":189,"max":[0.6827210187911987,0.3620759844779968],"min":[0.5839799642562866,0.2602279782295227],"type":"VEC2","name":"accessor_783"},{"bufferView":13,"byteOffset":57240,"componentType":5126,"count":4770,"max":[1,0.9936339855194092,0.9989199638366699],"min":[-0.9994029998779297,-0.9936339855194092,-0.9941399693489075],"type":"VEC3","name":"accessor_79"},{"bufferView":8,"byteOffset":66846,"componentType":5123,"count":1440,"type":"SCALAR","name":"accessor_804"},{"bufferView":67,"byteOffset":0,"componentType":5126,"count":1440,"max":[0.03952199965715408,0.0638590008020401,0.061859000474214554],"min":[0.027542000636458397,-0.0638590008020401,-0.06585899740457535],"type":"VEC3","name":"accessor_806"},{"bufferView":67,"byteOffset":17280,"componentType":5126,"count":1440,"max":[0,1,1],"min":[-1,-1,-1],"type":"VEC3","name":"accessor_808"},{"bufferView":14,"byteOffset":0,"componentType":5126,"count":4770,"max":[0.803164005279541,0.7413589954376221],"min":[0.019089000299572945,0.41163498163223267],"type":"VEC2","name":"accessor_81"},{"bufferView":68,"byteOffset":0,"componentType":5126,"count":1440,"max":[0.9791119694709778,0.3013269901275635],"min":[0.9246019721031189,0.2468159794807434],"type":"VEC2","name":"accessor_810"},{"bufferView":8,"byteOffset":69726,"componentType":5123,"count":24,"type":"SCALAR","name":"accessor_831"},{"bufferView":69,"byteOffset":0,"componentType":5126,"count":24,"max":[0.032708000391721725,0.23339998722076416,0.8079509735107422],"min":[-0.032708000391721725,-0.23339998722076416,-0.8079509735107422],"type":"VEC3","name":"accessor_833"},{"bufferView":69,"byteOffset":288,"componentType":5126,"count":24,"max":[0.9991739988327026,0.010338099673390388,0.040553998202085495],"min":[-0.9991769790649414,-0.010338099673390388,-0.040553998202085495],"type":"VEC3","name":"accessor_835"},{"bufferView":70,"byteOffset":0,"componentType":5126,"count":24,"max":[0.5765039920806885,0.9024487733840942],"min":[0.4357739984989166,0.49990302324295044],"type":"VEC2","name":"accessor_837"},{"bufferView":8,"byteOffset":69774,"componentType":5123,"count":660,"type":"SCALAR","name":"accessor_858"},{"bufferView":71,"byteOffset":0,"componentType":5126,"count":660,"max":[0.029999999329447746,0.4021570086479187,0.7979300022125244],"min":[-0.029999999329447746,-0.4021570086479187,-0.7979300022125244],"type":"VEC3","name":"accessor_860"},{"bufferView":71,"byteOffset":7920,"componentType":5126,"count":660,"max":[0.9992899894714355,0.9610310196876526,0.9185519814491272],"min":[-0.9992899894714355,-0.9610310196876526,-0.9185519814491272],"type":"VEC3","name":"accessor_862"},{"bufferView":72,"byteOffset":0,"componentType":5126,"count":660,"max":[0.6047959923744202,0.5000190138816833],"min":[0.29683300852775574,0.09689199924468994],"type":"VEC2","name":"accessor_864"},{"bufferView":8,"byteOffset":71094,"componentType":5123,"count":4800,"type":"SCALAR","name":"accessor_885"},{"bufferView":73,"byteOffset":0,"componentType":5126,"count":4800,"max":[0.2304999977350235,0.07782600075006485,0.23057998716831207],"min":[-0.2304999977350235,-0.07782600075006485,-0.23057998716831207],"type":"VEC3","name":"accessor_887"},{"bufferView":73,"byteOffset":57600,"componentType":5126,"count":4800,"max":[1,1,1],"min":[-1,-1,-1],"type":"VEC3","name":"accessor_889"},{"bufferView":74,"byteOffset":0,"componentType":5126,"count":4800,"max":[0.9967139959335327,0.9925718307495117],"min":[0.8828579783439636,0.8786770105361938],"type":"VEC2","name":"accessor_891"},{"bufferView":8,"byteOffset":80694,"componentType":5123,"count":4800,"type":"SCALAR","name":"accessor_912"},{"bufferView":75,"byteOffset":0,"componentType":5126,"count":4800,"max":[0.2304999977350235,0.07782600075006485,0.23057998716831207],"min":[-0.2304999977350235,-0.07782600075006485,-0.23057998716831207],"type":"VEC3","name":"accessor_914"},{"bufferView":75,"byteOffset":57600,"componentType":5126,"count":4800,"max":[1,1,1],"min":[-1,-1,-1],"type":"VEC3","name":"accessor_916"},{"bufferView":76,"byteOffset":0,"componentType":5126,"count":4800,"max":[0.9979230165481567,0.9937736988067627],"min":[0.8813199996948242,0.8771300315856934],"type":"VEC2","name":"accessor_918"},{"bufferView":8,"byteOffset":90294,"componentType":5123,"count":4800,"type":"SCALAR","name":"accessor_939"},{"bufferView":77,"byteOffset":0,"componentType":5126,"count":4800,"max":[0.2304999977350235,0.07782600075006485,0.23057998716831207],"min":[-0.2304999977350235,-0.07782600075006485,-0.23057998716831207],"type":"VEC3","name":"accessor_941"},{"bufferView":77,"byteOffset":57600,"componentType":5126,"count":4800,"max":[1,1,1],"min":[-1,-1,-1],"type":"VEC3","name":"accessor_943"},{"bufferView":78,"byteOffset":0,"componentType":5126,"count":4800,"max":[0.9958369731903076,0.992219090461731],"min":[0.8829529881477356,0.8792960047721863],"type":"VEC2","name":"accessor_945"},{"bufferView":8,"byteOffset":99894,"componentType":5123,"count":1602,"type":"SCALAR","name":"accessor_966"},{"bufferView":79,"byteOffset":0,"componentType":5126,"count":1602,"max":[3.3196098804473877,4.950259685516357,1.013800024986267],"min":[-3.3196098804473877,-4.950259685516357,-1.1490399837493896],"type":"VEC3","name":"accessor_968"},{"bufferView":79,"byteOffset":19224,"componentType":5126,"count":1602,"max":[1,1,1],"min":[-1,-1,-1],"type":"VEC3","name":"accessor_970"},{"bufferView":80,"byteOffset":0,"componentType":5126,"count":1602,"max":[0.9858940243721008,0.9853841066360474],"min":[0.7713689804077148,0.7507330179214478],"type":"VEC2","name":"accessor_972"},{"bufferView":8,"byteOffset":103098,"componentType":5123,"count":81,"type":"SCALAR","name":"accessor_993"},{"bufferView":81,"byteOffset":0,"componentType":5126,"count":81,"max":[0.3434860110282898,0.5795450210571289,0.1582230031490326],"min":[-0.4563460052013397,0.3658980131149292,-0.24363300204277039],"type":"VEC3","name":"accessor_995"},{"bufferView":81,"byteOffset":972,"componentType":5126,"count":81,"max":[-0.0008786509861238301,0.9861130118370056,0.7586280107498169],"min":[-0.07675640285015106,0.6501969695091248,0.16607199609279633],"type":"VEC3","name":"accessor_997"},{"bufferView":82,"byteOffset":0,"componentType":5126,"count":81,"max":[1,1],"min":[0,0],"type":"VEC2","name":"accessor_999"},{"bufferView":89,"componentType":5126,"count":3921,"type":"VEC3","min":[-0.46252497662978426,0.9211220502853392,-3.5769882872919254],"max":[0.46523328167404593,2.6902599334716797,-0.8579999999999999]},{"bufferView":90,"componentType":5126,"count":3921,"type":"VEC3"},{"bufferView":91,"componentType":5126,"count":180,"type":"VEC3","min":[-0.10754252671334988,1.6729280371010584,-3.1273958023204456],"max":[0.11025099183458273,2.167939338743403,-2.632384500678101]},{"bufferView":92,"componentType":5126,"count":180,"type":"VEC3"},{"bufferView":93,"componentType":5126,"count":180,"type":"VEC2"}],"asset":{"generator":"collada2gltf@","version":"2.0","copyright":"FlightGear model authors / Flightradar24 contributors; GPLv2. See UPSTREAM-CREDITS.md and LICENSE.txt."},"bufferViews":[{"buffer":0,"byteLength":685,"byteOffset":1995020,"name":"binary_bufferView0"},{"buffer":0,"byteLength":439,"byteOffset":1995705,"name":"binary_bufferView1"},{"buffer":0,"byteLength":677,"byteOffset":1996144,"name":"binary_bufferView2"},{"buffer":0,"byteLength":355,"byteOffset":1996821,"name":"binary_bufferView3"},{"buffer":0,"byteLength":685,"byteOffset":1997176,"name":"binary_bufferView4"},{"buffer":0,"byteLength":439,"byteOffset":1997861,"name":"binary_bufferView5"},{"buffer":0,"byteLength":23414,"byteOffset":1998300,"name":"binary_bufferView6"},{"buffer":0,"byteLength":252066,"byteOffset":2021714,"name":"binary_bufferView7"},{"buffer":0,"byteLength":117354,"byteOffset":0,"target":34963,"name":"bufferView_1082"},{"buffer":0,"byteLength":44640,"byteOffset":117356,"target":34962,"name":"bufferView_1083","byteStride":12},{"buffer":0,"byteLength":14880,"byteOffset":161996,"target":34962,"name":"bufferView_1083","byteStride":8},{"buffer":0,"byteLength":44640,"byteOffset":176876,"target":34962,"name":"bufferView_1083","byteStride":12},{"buffer":0,"byteLength":14880,"byteOffset":221516,"target":34962,"name":"bufferView_1083","byteStride":8},{"buffer":0,"byteLength":114480,"byteOffset":236396,"target":34962,"name":"bufferView_1083","byteStride":12},{"buffer":0,"byteLength":38160,"byteOffset":350876,"target":34962,"name":"bufferView_1083","byteStride":8},{"buffer":0,"byteLength":41184,"byteOffset":389036,"target":34962,"name":"bufferView_1083","byteStride":12},{"buffer":0,"byteLength":13728,"byteOffset":430220,"target":34962,"name":"bufferView_1083","byteStride":8},{"buffer":0,"byteLength":92160,"byteOffset":443948,"target":34962,"name":"bufferView_1083","byteStride":12},{"buffer":0,"byteLength":30720,"byteOffset":536108,"target":34962,"name":"bufferView_1083","byteStride":8},{"buffer":0,"byteLength":2016,"byteOffset":566828,"target":34962,"name":"bufferView_1083","byteStride":12},{"buffer":0,"byteLength":672,"byteOffset":568844,"target":34962,"name":"bufferView_1083","byteStride":8},{"buffer":0,"byteLength":2016,"byteOffset":569516,"target":34962,"name":"bufferView_1083","byteStride":12},{"buffer":0,"byteLength":672,"byteOffset":571532,"target":34962,"name":"bufferView_1083","byteStride":8},{"buffer":0,"byteLength":2016,"byteOffset":572204,"target":34962,"name":"bufferView_1083","byteStride":12},{"buffer":0,"byteLength":672,"byteOffset":574220,"target":34962,"name":"bufferView_1083","byteStride":8},{"buffer":0,"byteLength":2016,"byteOffset":574892,"target":34962,"name":"bufferView_1083","byteStride":12},{"buffer":0,"byteLength":672,"byteOffset":576908,"target":34962,"name":"bufferView_1083","byteStride":8},{"buffer":0,"byteLength":2016,"byteOffset":577580,"target":34962,"name":"bufferView_1083","byteStride":12},{"buffer":0,"byteLength":672,"byteOffset":579596,"target":34962,"name":"bufferView_1083","byteStride":8},{"buffer":0,"byteLength":2016,"byteOffset":580268,"target":34962,"name":"bufferView_1083","byteStride":12},{"buffer":0,"byteLength":672,"byteOffset":582284,"target":34962,"name":"bufferView_1083","byteStride":8},{"buffer":0,"byteLength":20304,"byteOffset":582956,"target":34962,"name":"bufferView_1083","byteStride":12},{"buffer":0,"byteLength":6768,"byteOffset":603260,"target":34962,"name":"bufferView_1083","byteStride":8},{"buffer":0,"byteLength":6912,"byteOffset":610028,"target":34962,"name":"bufferView_1083","byteStride":12},{"buffer":0,"byteLength":2304,"byteOffset":616940,"target":34962,"name":"bufferView_1083","byteStride":8},{"buffer":0,"byteLength":17424,"byteOffset":619244,"target":34962,"name":"bufferView_1083","byteStride":12},{"buffer":0,"byteLength":5808,"byteOffset":636668,"target":34962,"name":"bufferView_1083","byteStride":8},{"buffer":0,"byteLength":8064,"byteOffset":642476,"target":34962,"name":"bufferView_1083","byteStride":12},{"buffer":0,"byteLength":2688,"byteOffset":650540,"target":34962,"name":"bufferView_1083","byteStride":8},{"buffer":0,"byteLength":17424,"byteOffset":653228,"target":34962,"name":"bufferView_1083","byteStride":12},{"buffer":0,"byteLength":5808,"byteOffset":670652,"target":34962,"name":"bufferView_1083","byteStride":8},{"buffer":0,"byteLength":8064,"byteOffset":676460,"target":34962,"name":"bufferView_1083","byteStride":12},{"buffer":0,"byteLength":2688,"byteOffset":684524,"target":34962,"name":"bufferView_1083","byteStride":8},{"buffer":0,"byteLength":41472,"byteOffset":687212,"target":34962,"name":"bufferView_1083","byteStride":12},{"buffer":0,"byteLength":13824,"byteOffset":728684,"target":34962,"name":"bufferView_1083","byteStride":8},{"buffer":0,"byteLength":34560,"byteOffset":742508,"target":34962,"name":"bufferView_1083","byteStride":12},{"buffer":0,"byteLength":11520,"byteOffset":777068,"target":34962,"name":"bufferView_1083","byteStride":8},{"buffer":0,"byteLength":27648,"byteOffset":788588,"target":34962,"name":"bufferView_1083","byteStride":12},{"buffer":0,"byteLength":9216,"byteOffset":816236,"target":34962,"name":"bufferView_1083","byteStride":8},{"buffer":0,"byteLength":6912,"byteOffset":825452,"target":34962,"name":"bufferView_1083","byteStride":12},{"buffer":0,"byteLength":2304,"byteOffset":832364,"target":34962,"name":"bufferView_1083","byteStride":8},{"buffer":0,"byteLength":19872,"byteOffset":834668,"target":34962,"name":"bufferView_1083","byteStride":12},{"buffer":0,"byteLength":6624,"byteOffset":854540,"target":34962,"name":"bufferView_1083","byteStride":8},{"buffer":0,"byteLength":135072,"byteOffset":861164,"target":34962,"name":"bufferView_1083","byteStride":12},{"buffer":0,"byteLength":45024,"byteOffset":996236,"target":34962,"name":"bufferView_1083","byteStride":8},{"buffer":0,"byteLength":14400,"byteOffset":1041260,"target":34962,"name":"bufferView_1083","byteStride":12},{"buffer":0,"byteLength":4800,"byteOffset":1055660,"target":34962,"name":"bufferView_1083","byteStride":8},{"buffer":0,"byteLength":20736,"byteOffset":1060460,"target":34962,"name":"bufferView_1083","byteStride":12},{"buffer":0,"byteLength":6912,"byteOffset":1081196,"target":34962,"name":"bufferView_1083","byteStride":8},{"buffer":0,"byteLength":36864,"byteOffset":1088108,"target":34962,"name":"bufferView_1083","byteStride":12},{"buffer":0,"byteLength":12288,"byteOffset":1124972,"target":34962,"name":"bufferView_1083","byteStride":8},{"buffer":0,"byteLength":27648,"byteOffset":1137260,"target":34962,"name":"bufferView_1083","byteStride":12},{"buffer":0,"byteLength":9216,"byteOffset":1164908,"target":34962,"name":"bufferView_1083","byteStride":8},{"buffer":0,"byteLength":5040,"byteOffset":1174124,"target":34962,"name":"bufferView_1083","byteStride":12},{"buffer":0,"byteLength":1680,"byteOffset":1179164,"target":34962,"name":"bufferView_1083","byteStride":8},{"buffer":0,"byteLength":4536,"byteOffset":1180844,"target":34962,"name":"bufferView_1083","byteStride":12},{"buffer":0,"byteLength":1512,"byteOffset":1185380,"target":34962,"name":"bufferView_1083","byteStride":8},{"buffer":0,"byteLength":34560,"byteOffset":1186892,"target":34962,"name":"bufferView_1083","byteStride":12},{"buffer":0,"byteLength":11520,"byteOffset":1221452,"target":34962,"name":"bufferView_1083","byteStride":8},{"buffer":0,"byteLength":576,"byteOffset":1232972,"target":34962,"name":"bufferView_1083","byteStride":12},{"buffer":0,"byteLength":192,"byteOffset":1233548,"target":34962,"name":"bufferView_1083","byteStride":8},{"buffer":0,"byteLength":15840,"byteOffset":1233740,"target":34962,"name":"bufferView_1083","byteStride":12},{"buffer":0,"byteLength":5280,"byteOffset":1249580,"target":34962,"name":"bufferView_1083","byteStride":8},{"buffer":0,"byteLength":115200,"byteOffset":1254860,"target":34962,"name":"bufferView_1083","byteStride":12},{"buffer":0,"byteLength":38400,"byteOffset":1370060,"target":34962,"name":"bufferView_1083","byteStride":8},{"buffer":0,"byteLength":115200,"byteOffset":1408460,"target":34962,"name":"bufferView_1083","byteStride":12},{"buffer":0,"byteLength":38400,"byteOffset":1523660,"target":34962,"name":"bufferView_1083","byteStride":8},{"buffer":0,"byteLength":115200,"byteOffset":1562060,"target":34962,"name":"bufferView_1083","byteStride":12},{"buffer":0,"byteLength":38400,"byteOffset":1677260,"target":34962,"name":"bufferView_1083","byteStride":8},{"buffer":0,"byteLength":38448,"byteOffset":1715660,"target":34962,"name":"bufferView_1083","byteStride":12},{"buffer":0,"byteLength":12816,"byteOffset":1754108,"target":34962,"name":"bufferView_1083","byteStride":8},{"buffer":0,"byteLength":1944,"byteOffset":1766924,"target":34962,"name":"bufferView_1083","byteStride":12},{"buffer":0,"byteLength":648,"byteOffset":1768868,"target":34962,"name":"bufferView_1083","byteStride":8},{"buffer":0,"byteLength":19944,"byteOffset":1769516,"target":34962,"name":"bufferView_1083","byteStride":12},{"buffer":0,"byteLength":6648,"byteOffset":1789460,"target":34962,"name":"bufferView_1083","byteStride":8},{"buffer":0,"byteLength":74592,"byteOffset":1796108,"target":34962,"name":"bufferView_1083","byteStride":12},{"buffer":0,"byteLength":24864,"byteOffset":1870700,"target":34962,"name":"bufferView_1083","byteStride":8},{"buffer":0,"byteLength":74592,"byteOffset":1895564,"target":34962,"name":"bufferView_1083","byteStride":12},{"buffer":0,"byteLength":24864,"byteOffset":1970156,"target":34962,"name":"bufferView_1083","byteStride":8},{"buffer":1,"byteOffset":0,"byteLength":47052,"target":34962},{"buffer":1,"byteOffset":47052,"byteLength":47052,"target":34962},{"buffer":1,"byteOffset":94104,"byteLength":2160,"target":34962},{"buffer":1,"byteOffset":96264,"byteLength":2160,"target":34962},{"buffer":1,"byteOffset":98424,"byteLength":1440,"target":34962}],"buffers":[{"byteLength":2273780,"extras":{},"name":"binary_glTF","uri":"../pa28-v1-0.bin"},{"uri":"pa28-tail-v1.bin?tail=2","byteLength":99864}],"images":[{"name":"prop_png_001","extras":{},"bufferView":6,"mimeType":"image/png"},{"name":"texture_png_001","extras":{},"bufferView":7,"mimeType":"image/jpeg"},{"uri":"../../../airlines/ETH.png"}],"materials":[{"name":"DefaultWhite","pbrMetallicRoughness":{"roughnessFactor":1,"metallicFactor":0,"baseColorTexture":{"index":1}}},{"name":"GreenTrs","alphaMode":"BLEND","doubleSided":true,"pbrMetallicRoughness":{"roughnessFactor":1,"metallicFactor":0,"baseColorFactor":[0,0.6038273590607633,0,1]}},{"name":"RedTrs","alphaMode":"BLEND","doubleSided":true,"pbrMetallicRoughness":{"roughnessFactor":1,"metallicFactor":0,"baseColorFactor":[0.6038273590607633,0,0,1]}},{"name":"transparent","alphaMode":"BLEND","doubleSided":true,"pbrMetallicRoughness":{"roughnessFactor":1,"metallicFactor":0,"baseColorTexture":{"index":0}}},{"name":"transparent_001","alphaMode":"BLEND","doubleSided":true,"pbrMetallicRoughness":{"roughnessFactor":1,"metallicFactor":0,"baseColorFactor":[0.6038273590607633,0.6038273590607633,0.6038273590607633,1]}},{"name":"Operator tail paint","doubleSided":true,"pbrMetallicRoughness":{"baseColorFactor":[0.1450980392156863,0.5450980392156862,0.3137254901960784,1],"metallicFactor":0,"roughnessFactor":0.65}},{"name":"Operator logo identification","doubleSided":true,"alphaMode":"MASK","alphaCutoff":0.08,"pbrMetallicRoughness":{"baseColorTexture":{"index":2},"metallicFactor":0,"roughnessFactor":0.7},"emissiveFactor":[0.18,0.18,0.18],"emissiveTexture":{"index":2}}],"meshes":[{"name":"aileronD","primitives":[{"attributes":{"NORMAL":38,"POSITION":33,"TEXCOORD_0":42},"indices":28,"material":0,"mode":4}]},{"name":"aileronG","primitives":[{"attributes":{"NORMAL":82,"POSITION":77,"TEXCOORD_0":86},"indices":72,"material":0,"mode":4}]},{"name":"ailes","primitives":[{"attributes":{"NORMAL":126,"POSITION":121,"TEXCOORD_0":130},"indices":116,"material":0,"mode":4}]},{"name":"ailes2","primitives":[{"attributes":{"NORMAL":10,"POSITION":5,"TEXCOORD_0":14},"indices":0,"material":0,"mode":4}]},{"name":"antennes","primitives":[{"attributes":{"NORMAL":18,"POSITION":17,"TEXCOORD_0":19},"indices":16,"material":0,"mode":4}]},{"name":"articuleAB","primitives":[{"attributes":{"NORMAL":22,"POSITION":21,"TEXCOORD_0":23},"indices":20,"material":0,"mode":4}]},{"name":"articuleAH","primitives":[{"attributes":{"NORMAL":26,"POSITION":25,"TEXCOORD_0":27},"indices":24,"material":0,"mode":4}]},{"name":"articuleDB","primitives":[{"attributes":{"NORMAL":31,"POSITION":30,"TEXCOORD_0":32},"indices":29,"material":0,"mode":4}]},{"name":"articuleDH","primitives":[{"attributes":{"NORMAL":36,"POSITION":35,"TEXCOORD_0":37},"indices":34,"material":0,"mode":4}]},{"name":"articuleGB","primitives":[{"attributes":{"NORMAL":41,"POSITION":40,"TEXCOORD_0":43},"indices":39,"material":0,"mode":4}]},{"name":"articuleGH","primitives":[{"attributes":{"NORMAL":46,"POSITION":45,"TEXCOORD_0":47},"indices":44,"material":0,"mode":4}]},{"name":"axeAB","primitives":[{"attributes":{"NORMAL":50,"POSITION":49,"TEXCOORD_0":51},"indices":48,"material":0,"mode":4}]},{"name":"axeAH","primitives":[{"attributes":{"NORMAL":54,"POSITION":53,"TEXCOORD_0":55},"indices":52,"material":0,"mode":4}]},{"name":"axeDB","primitives":[{"attributes":{"NORMAL":58,"POSITION":57,"TEXCOORD_0":59},"indices":56,"material":0,"mode":4}]},{"name":"axeDH","primitives":[{"attributes":{"NORMAL":62,"POSITION":61,"TEXCOORD_0":63},"indices":60,"material":0,"mode":4}]},{"name":"axeGB","primitives":[{"attributes":{"NORMAL":66,"POSITION":65,"TEXCOORD_0":67},"indices":64,"material":0,"mode":4}]},{"name":"axeGH","primitives":[{"attributes":{"NORMAL":70,"POSITION":69,"TEXCOORD_0":71},"indices":68,"material":0,"mode":4}]},{"name":"bol","primitives":[{"attributes":{"NORMAL":75,"POSITION":74,"TEXCOORD_0":76},"indices":73,"material":0,"mode":4}]},{"name":"bosse","primitives":[{"attributes":{"NORMAL":80,"POSITION":79,"TEXCOORD_0":81},"indices":78,"material":0,"mode":4}]},{"name":"caches","primitives":[{"attributes":{"NORMAL":85,"POSITION":84,"TEXCOORD_0":87},"indices":83,"material":0,"mode":4}]},{"name":"caches.001","primitives":[{"attributes":{"NORMAL":90,"POSITION":89,"TEXCOORD_0":91},"indices":88,"material":0,"mode":4}]},{"name":"direction","primitives":[{"attributes":{"NORMAL":94,"POSITION":93,"TEXCOORD_0":95},"indices":92,"material":0,"mode":4}]},{"name":"fuselage","primitives":[{"attributes":{"NORMAL":98,"POSITION":97,"TEXCOORD_0":99},"indices":96,"material":0,"mode":4}]},{"name":"helice","primitives":[{"attributes":{"NORMAL":102,"POSITION":101,"TEXCOORD_0":103},"indices":100,"material":0,"mode":4}]},{"name":"lampeGreen","primitives":[{"attributes":{"NORMAL":106,"POSITION":105,"TEXCOORD_0":107},"indices":104,"material":1,"mode":4}]},{"name":"lampeRed","primitives":[{"attributes":{"NORMAL":110,"POSITION":109,"TEXCOORD_0":111},"indices":108,"material":2,"mode":4}]},{"name":"pate","primitives":[{"attributes":{"NORMAL":114,"POSITION":113,"TEXCOORD_0":115},"indices":112,"material":0,"mode":4}]},{"name":"patte","primitives":[{"attributes":{"NORMAL":119,"POSITION":118,"TEXCOORD_0":120},"indices":117,"material":0,"mode":4}]},{"name":"porteG","primitives":[{"attributes":{"NORMAL":124,"POSITION":123,"TEXCOORD_0":125},"indices":122,"material":0,"mode":4}]},{"name":"projo","primitives":[{"attributes":{"NORMAL":129,"POSITION":128,"TEXCOORD_0":131},"indices":127,"material":0,"mode":4}]},{"name":"propblur","primitives":[{"attributes":{"NORMAL":134,"POSITION":133,"TEXCOORD_0":135},"indices":132,"material":3,"mode":4}]},{"name":"propdisc","primitives":[{"attributes":{"NORMAL":138,"POSITION":137,"TEXCOORD_0":139},"indices":136,"material":3,"mode":4}]},{"name":"roueA","primitives":[{"attributes":{"NORMAL":142,"POSITION":141,"TEXCOORD_0":143},"indices":140,"material":0,"mode":4}]},{"name":"roueD","primitives":[{"attributes":{"NORMAL":146,"POSITION":145,"TEXCOORD_0":147},"indices":144,"material":0,"mode":4}]},{"name":"roueG","primitives":[{"attributes":{"NORMAL":150,"POSITION":149,"TEXCOORD_0":151},"indices":148,"material":0,"mode":4}]},{"name":"trous","primitives":[{"attributes":{"NORMAL":154,"POSITION":153,"TEXCOORD_0":155},"indices":152,"material":0,"mode":4}]},{"name":"vitreporteG","primitives":[{"attributes":{"NORMAL":158,"POSITION":157,"TEXCOORD_0":159},"indices":156,"material":4,"mode":4}]},{"name":"vitres","primitives":[{"attributes":{"NORMAL":3,"POSITION":2,"TEXCOORD_0":4},"indices":1,"material":4,"mode":4}]},{"name":"voletD","primitives":[{"attributes":{"NORMAL":8,"POSITION":7,"TEXCOORD_0":9},"indices":6,"material":0,"mode":4}]},{"name":"voletG","primitives":[{"attributes":{"NORMAL":13,"POSITION":12,"TEXCOORD_0":15},"indices":11,"material":0,"mode":4}]},{"name":"Airline tail surface overlay","primitives":[{"attributes":{"POSITION":160,"NORMAL":161},"material":5},{"attributes":{"POSITION":162,"NORMAL":163,"TEXCOORD_0":164},"material":6}]}],"nodes":[{"matrix":[-4.3711398899999997e-8,-1,0,0,1,-4.3711398899999997e-8,0,0,0,0,1,0,0.6860809922218323,-5.87470006942749,5.9201698303222665,1],"name":"Hemi"},{"matrix":[-4.3711398899999997e-8,-1,0,0,1,-4.3711398899999997e-8,0,0,0,0,1,0,-3.5886299610137944,-0.7690339684486389,1.0225399732589722,1],"name":"aileronD","mesh":0},{"matrix":[-4.3711398899999997e-8,-1,0,0,1,-4.3711398899999997e-8,0,0,0,0,1,0,-5.0375800132751465,-0.536687970161438,1.1484899520874023,1],"name":"aileronG","mesh":1},{"matrix":[-4.3711398899999997e-8,-1,0,0,1,-4.3711398899999997e-8,0,0,0,0,1,0,-0.7617359757423401,-0.6237760186195374,0.5812579989433289,1],"name":"ailes","mesh":2},{"matrix":[-4.3711398899999997e-8,-1,0,0,1,-4.3711398899999997e-8,0,0,0,0,1,0,-0.1262789964675903,-4.118509769439697,1.2965699434280396,1],"name":"ailes2","mesh":3},{"matrix":[-4.3711398899999997e-8,-1,0,0,1,-4.3711398899999997e-8,0,0,0,0,1,0,-0.1262789964675903,-1.0898799896240234,1.9414899349212646,1],"name":"antennes","mesh":4},{"matrix":[-4.3711398899999997e-8,-1,0,0,1,-4.3711398899999997e-8,0,0,0,0,1,0,-0.1257430016994476,1.6228299140930176,0.4927630126476288,1],"name":"articuleAB","mesh":5},{"matrix":[-4.3711398899999997e-8,-1,0,0,1,-4.3711398899999997e-8,0,0,0,0,1,0,-0.1264110058546066,1.6129800081253052,0.5600050091743469,1],"name":"articuleAH","mesh":6},{"matrix":[-4.3711398899999997e-8,-1,0,0,1,-4.3711398899999997e-8,0,0,0,0,1,0,1.3322299718856812,-0.2489399909973144,0.3644559979438782,1],"name":"articuleDB","mesh":7},{"matrix":[-4.3711398899999997e-8,-1,0,0,1,-4.3711398899999997e-8,0,0,0,0,1,0,1.3234699964523315,-0.25120198726654047,0.4860759973526001,1],"name":"articuleDH","mesh":8},{"matrix":[-4.3711398899999997e-8,-1,0,0,1,-4.3711398899999997e-8,0,0,0,0,1,0,-1.5848699808120728,-0.24939699470996848,0.3655819892883301,1],"name":"articuleGB","mesh":9},{"matrix":[-4.3711398899999997e-8,-1,0,0,1,-4.3711398899999997e-8,0,0,0,0,1,0,-1.5759299993515015,-0.2517159879207611,0.484730988740921,1],"name":"articuleGH","mesh":10},{"matrix":[-4.3711398899999997e-8,-1,0,0,1,-4.3711398899999997e-8,0,0,0,0,1,0,-0.1262789964675903,1.6937799453735352,0.4872510135173797,1],"name":"axeAB","mesh":11},{"matrix":[-4.3711398899999997e-8,-1,0,0,1,-4.3711398899999997e-8,0,0,0,0,1,0,-0.12464799731969829,1.6484500169754028,0.7055249810218811,1],"name":"axeAH","mesh":12},{"matrix":[-4.3711398899999997e-8,-1,0,0,1,-4.3711398899999997e-8,0,0,0,0,1,0,-1.5932999849319458,-0.17731599509716028,0.3702070116996765,1],"name":"axeDB","mesh":13},{"matrix":[-4.3711398899999997e-8,-1,0,0,1,-4.3711398899999997e-8,0,0,0,0,1,0,1.3223500251770022,-0.1774279922246933,0.6346369981765747,1],"name":"axeDH","mesh":14},{"matrix":[-4.3711398899999997e-8,-1,0,0,1,-4.3711398899999997e-8,0,0,0,0,1,0,-1.5932999849319458,-0.17731599509716028,0.3702070116996765,1],"name":"axeGB","mesh":15},{"matrix":[-4.3711398899999997e-8,-1,0,0,1,-4.3711398899999997e-8,0,0,0,0,1,0,-1.5749099254608154,-0.1774279922246933,0.6346380114555359,1],"name":"axeGH","mesh":16},{"matrix":[-4.3711398899999997e-8,-1,0,0,1,-4.3711398899999997e-8,0,0,0,0,1,0,-0.1262789964675903,2.409819841384888,1.1314899921417236,1],"name":"bol","mesh":17},{"matrix":[-4.3711398899999997e-8,-1,0,0,1,-4.3711398899999997e-8,0,0,0,0,1,0,-0.1262789964675903,-1.5701899528503418,0.7468699812889099,1],"name":"bosse","mesh":18},{"matrix":[-4.3711398899999997e-8,-1,0,0,1,-4.3711398899999997e-8,0,0,0,0,1,0,-1.5749099254608154,-0.1774279922246933,0.6346369981765747,1],"name":"caches","mesh":19},{"matrix":[-4.3711398899999997e-8,-1,0,0,1,-4.3711398899999997e-8,0,0,0,0,1,0,-1.5749099254608154,-0.1774279922246933,0.6346369981765747,1],"name":"caches_001","mesh":20},{"matrix":[-4.3711398899999997e-8,-1,0,0,1,-4.3711398899999997e-8,0,0,0,0,1,0,-0.1262789964675903,-4.269469738006593,2.0661799907684326,1],"name":"direction","mesh":21},{"matrix":[-4.3711398899999997e-8,-1,0,0,1,-4.3711398899999997e-8,0,0,0,0,1,0,-0.1262789964675903,-1.046639919281006,1.6627299785614014,1],"name":"fuselage","mesh":22},{"matrix":[-4.3711398899999997e-8,-1,0,0,1,-4.3711398899999997e-8,0,0,0,0,1,0,-0.1262789964675903,2.3457798957824707,1.1314899921417236,1],"name":"helice","mesh":23},{"matrix":[-4.3711398899999997e-8,-1,0,0,1,-4.3711398899999997e-8,0,0,0,0,1,0,-0.1262799948453903,-4.18228006362915,2.7461898326873784,1],"name":"lampeGreen","mesh":24},{"matrix":[-4.3711398899999997e-8,-1,0,0,1,-4.3711398899999997e-8,0,0,0,0,1,0,-0.1262799948453903,-4.18228006362915,2.7461898326873784,1],"name":"lampeRed","mesh":25},{"children":[1,2,3,4,5,6,7,8,9,10,11,12,13,14,15,16,17,18,19,20,21,22,23,24,25,26,28,29,30,31,32,33,34,35,36,37,38,39,40,41,42,0],"matrix":[1,0,0,0,0,0,-1,0,0,1,0,0,0,0,0,1],"name":"Y_UP_Transform"},{"matrix":[-4.3711398899999997e-8,-1,0,0,1,-4.3711398899999997e-8,0,0,0,0,1,0,-0.1262789964675903,-3.8307399749755864,0.9856330156326294,1],"name":"pate","mesh":26},{"matrix":[-4.3711398899999997e-8,-1,0,0,1,-4.3711398899999997e-8,0,0,0,0,1,0,0.3574230074882507,-1.1932499408721924,0.7688450217247009,1],"name":"patte","mesh":27},{"matrix":[-4.3711398899999997e-8,-1,0,0,1,-4.3711398899999997e-8,0,0,0,0,1,0,0.2731730043888092,0.3418729901313782,1.4293699264526367,1],"name":"porteG","mesh":28},{"matrix":[-4.3711398899999997e-8,-1,0,0,1,-4.3711398899999997e-8,0,0,0,0,1,0,-0.1262789964675903,2.1783900260925293,0.8674370050430298,1],"name":"projo","mesh":29},{"matrix":[-4.3711398899999997e-8,-1,0,0,1,-4.3711398899999997e-8,0,0,0,0,1,0,-0.1262789964675903,2.3452298641204834,1.1314899921417236,1],"name":"propblur","mesh":30},{"matrix":[-4.3711398899999997e-8,-1,0,0,1,-4.3711398899999997e-8,0,0,0,0,1,0,-0.1262789964675903,2.3456499576568604,1.1314899921417236,1],"name":"propdisc","mesh":31},{"matrix":[-4.3711398899999997e-8,-1,0,0,1,-4.3711398899999997e-8,0,0,0,0,1,0,-0.1262789964675903,1.7610599994659424,0.1976570039987564,1],"name":"roueA","mesh":32},{"matrix":[-4.3711398899999997e-8,-1,0,0,1,-4.3711398899999997e-8,0,0,0,0,1,0,1.487659931182861,-0.1760530024766922,0.1976570039987564,1],"name":"roueD","mesh":33},{"matrix":[-4.3711398899999997e-8,-1,0,0,1,-4.3711398899999997e-8,0,0,0,0,1,0,-1.7402199506759644,-0.1760530024766922,0.1976570039987564,1],"name":"roueG","mesh":34},{"matrix":[-4.3711398899999997e-8,-1,0,0,1,-4.3711398899999997e-8,0,0,0,0,1,0,-0.1262789964675903,-1.046639919281006,1.6604199409484863,1],"name":"trous","mesh":35},{"matrix":[-4.3711398899999997e-8,-1,0,0,1,-4.3711398899999997e-8,0,0,0,0,1,0,-0.1264989972114563,0.2617790102958679,1.6340399980545044,1],"name":"vitreporteG","mesh":36},{"matrix":[-4.3711398899999997e-8,-1,0,0,1,-4.3711398899999997e-8,0,0,0,0,1,0,0.3462229967117309,0.3182089924812317,1.5913299322128296,1],"name":"vitreporteG_001"},{"matrix":[-4.3711398899999997e-8,-1,0,0,1,-4.3711398899999997e-8,0,0,0,0,1,0,-0.1264989972114563,0.2617790102958679,1.6340399980545044,1],"name":"vitres","mesh":37},{"matrix":[-4.3711398899999997e-8,-1,0,0,1,-4.3711398899999997e-8,0,0,0,0,1,0,-1.7427599430084229,-0.7428680062294006,0.817609965801239,1],"name":"voletD","mesh":38},{"matrix":[-4.3711398899999997e-8,-1,0,0,1,-4.3711398899999997e-8,0,0,0,0,1,0,-1.7427599430084229,-0.7428680062294006,0.817609965801239,1],"name":"voletG","mesh":39},{"name":"SkywardCoordinateAlignment","matrix":[-1,0,-1.2246467991473532e-16,0,0,1,0,0,1.2246467991473532e-16,0,-1,0,-0.12492487830682743,0,1.0342264399151013,1],"children":[27]},{"name":"AirlineTailBranding","mesh":40}],"samplers":[{"magFilter":9729,"minFilter":9729,"wrapS":10497,"wrapT":10497,"name":"sampler_0"},{"magFilter":9729,"minFilter":9987,"wrapS":33071,"wrapT":33071}],"scene":0,"scenes":[{"nodes":[43,44],"name":"defaultScene"}],"textures":[{"sampler":0,"source":0,"name":"texture_prop_png_001"},{"sampler":0,"source":1,"name":"texture_texture_png_001"},{"source":2,"sampler":1}],"extras":{"skyward":{"source":"https://github.com/Flightradar24/fr24-3d-models","commit":"dd53267690c6a4ecbb290a3acf0284333a5d68a9","changes":"Converted legacy glTF to glTF 2.0 with Cesium; rigid axis alignment and horizontal centering only. Original geometry, materials and paint retained. Added surface-following operator tail paint and unmodified identification-logo texture. Branding is illustrative, not a registration-specific livery.","license":"GPL-2.0","sourceFiles":["source/pa28/pa28.blend","source/pa28/pa28.zip"],"operator":"ETH"}}}