{"accessors":[{"bufferView":2,"componentType":5123,"count":2658,"max":[619],"min":[0],"type":"SCALAR"},{"bufferView":3,"componentType":5126,"count":620,"max":[4.941064357757568,0.6355646848678589,1.917499303817749],"min":[-4.941064357757568,-0.10955839604139328,0.1319560408592224],"type":"VEC3"},{"bufferView":4,"componentType":5126,"count":620,"type":"VEC3"},{"bufferView":5,"componentType":5126,"count":620,"type":"VEC4"},{"bufferView":6,"componentType":5126,"count":620,"max":[0.8008929491043091,0.7348919808864594],"min":[0.019835948944091797,0.40089064836502075],"type":"VEC2"},{"bufferView":7,"componentType":5121,"count":84,"max":[43],"min":[0],"type":"SCALAR"},{"bufferView":8,"componentType":5126,"count":44,"max":[-1.0886621475219727,0.05971464514732361,0.8299911618232727],"min":[-1.6216212511062622,-0.048251375555992126,0.6509050726890564],"type":"VEC3"},{"bufferView":9,"componentType":5126,"count":44,"type":"VEC3"},{"bufferView":10,"componentType":5126,"count":44,"type":"VEC4"},{"bufferView":11,"componentType":5126,"count":44,"max":[0.8618773221969604,0.9572838954627514],"min":[0.30707526206970215,0.6747569739818573],"type":"VEC2"},{"bufferView":12,"componentType":5123,"count":7368,"max":[1633],"min":[0],"type":"SCALAR"},{"bufferView":13,"componentType":5126,"count":1634,"max":[0.657024085521698,2.1672470569610596,3.736253499984741],"min":[-0.657024085521698,-0.2574194073677063,-4.186042785644531],"type":"VEC3"},{"bufferView":14,"componentType":5126,"count":1634,"type":"VEC3"},{"bufferView":15,"componentType":5126,"count":1634,"type":"VEC4"},{"bufferView":16,"componentType":5126,"count":1634,"max":[0.9847314357757568,0.3927733302116394],"min":[0.1098475456237793,0.010819792747497559],"type":"VEC2"},{"bufferView":17,"componentType":5121,"count":204,"max":[79],"min":[0],"type":"SCALAR"},{"bufferView":18,"componentType":5126,"count":80,"max":[0.027135003358125687,2.0310869216918945,-3.606053352355957],"min":[-0.02713400311768055,0.8656567335128784,-4.167117595672607],"type":"VEC3"},{"bufferView":19,"componentType":5126,"count":80,"type":"VEC3"},{"bufferView":20,"componentType":5126,"count":80,"type":"VEC4"},{"bufferView":21,"componentType":5126,"count":80,"max":[0.9831686615943909,0.2873535752296448],"min":[0.111657053232193,0.024587810039520264],"type":"VEC2"},{"bufferView":22,"componentType":5121,"count":570,"max":[177],"min":[0],"type":"SCALAR"},{"bufferView":23,"componentType":5126,"count":178,"max":[0.6554380655288696,1.0447697639465332,2.1761622428894043],"min":[-0.6558120846748352,0.5057616829872131,-1.0513701438903809],"type":"VEC3"},{"bufferView":24,"componentType":5126,"count":178,"type":"VEC3"},{"bufferView":25,"componentType":5126,"count":178,"type":"VEC4"},{"bufferView":26,"componentType":5126,"count":178,"max":[1,1],"min":[0,0],"type":"VEC2"},{"bufferView":27,"componentType":5121,"count":120,"max":[71],"min":[0],"type":"SCALAR"},{"bufferView":28,"componentType":5126,"count":72,"max":[-0.00022600003285333514,-0.17052841186523438,3.138082504272461],"min":[-0.11668001860380173,-0.2434554249048233,2.2131192684173584],"type":"VEC3"},{"bufferView":29,"componentType":5126,"count":72,"type":"VEC3"},{"bufferView":30,"componentType":5126,"count":72,"type":"VEC4"},{"bufferView":31,"componentType":5126,"count":72,"max":[0.866454541683197,0.9428535960614681],"min":[0.7007045745849609,0.3861260414123535],"type":"VEC2"},{"bufferView":32,"componentType":5121,"count":1248,"max":[224],"min":[0],"type":"SCALAR"},{"bufferView":33,"componentType":5126,"count":225,"max":[0.15686000883579254,0.45581668615341187,4.186042785644531],"min":[-0.15696801245212555,0.1419886201620102,3.7526485919952393],"type":"VEC3"},{"bufferView":34,"componentType":5126,"count":225,"type":"VEC3"},{"bufferView":35,"componentType":5126,"count":225,"type":"VEC4"},{"bufferView":36,"componentType":5126,"count":225,"max":[0.8746417760848999,0.873688817024231],"min":[0.8209277987480164,0.8199748396873474],"type":"VEC2"},{"bufferView":37,"componentType":5121,"count":207,"max":[58],"min":[0],"type":"SCALAR"},{"bufferView":38,"componentType":5126,"count":59,"max":[-0.4779050648212433,1.0342967510223389,1.683679223060608],"min":[-0.657024085521698,0.14862863719463348,0.8460051417350769],"type":"VEC3"},{"bufferView":39,"componentType":5126,"count":59,"type":"VEC3"},{"bufferView":40,"componentType":5126,"count":59,"type":"VEC4"},{"bufferView":41,"componentType":5126,"count":59,"max":[0.6518710851669312,0.354839026927948],"min":[0.5756134390830994,0.27421241998672485],"type":"VEC2"},{"bufferView":42,"componentType":5123,"count":2052,"max":[746],"min":[0],"type":"SCALAR"},{"bufferView":43,"componentType":5126,"count":747,"max":[4.30873966217041,2.0310869216918945,3.7362465858459473],"min":[-4.30873966217041,-0.2434554249048233,-4.167117595672607],"type":"VEC3"},{"bufferView":44,"componentType":5126,"count":747,"type":"VEC3"},{"bufferView":45,"componentType":5126,"count":747,"type":"VEC4"},{"bufferView":46,"componentType":5126,"count":747,"max":[0.8659557700157166,0.9799046963453293],"min":[0.7664140462875366,0.8933594450354576],"type":"VEC2"},{"bufferView":47,"componentType":5121,"count":672,"max":[172],"min":[0],"type":"SCALAR"},{"bufferView":48,"componentType":5126,"count":173,"max":[0.5807270407676697,0.19665567576885223,3.2119204998016357],"min":[0.45773404836654663,-0.02392236515879631,2.761012554168701],"type":"VEC3"},{"bufferView":49,"componentType":5126,"count":173,"type":"VEC3"},{"bufferView":50,"componentType":5126,"count":173,"type":"VEC4"},{"bufferView":51,"componentType":5126,"count":173,"max":[0.13014422357082367,0.39844590425491333],"min":[0.029127217829227448,0.3490298390388489],"type":"VEC2"},{"bufferView":52,"componentType":5121,"count":84,"max":[40],"min":[0],"type":"SCALAR"},{"bufferView":53,"componentType":5126,"count":41,"max":[1.6216202974319458,0.05971464514732361,0.8299911618232727],"min":[1.0886610746383667,-0.048251375555992126,0.6509050726890564],"type":"VEC3"},{"bufferView":54,"componentType":5126,"count":41,"type":"VEC3"},{"bufferView":55,"componentType":5126,"count":41,"type":"VEC4"},{"bufferView":56,"componentType":5126,"count":41,"max":[0.8618773221969604,0.9572838954627514],"min":[0.4660787880420685,0.6747569739818573],"type":"VEC2"},{"bufferView":57,"componentType":5123,"count":1620,"max":[333],"min":[0],"type":"SCALAR"},{"bufferView":58,"componentType":5126,"count":334,"max":[1.7075402736663818,0.7288207411766052,-3.3798694610595703],"min":[-1.7075412273406982,0.6544877290725708,-4.167337894439697],"type":"VEC3"},{"bufferView":59,"componentType":5126,"count":334,"type":"VEC3"},{"bufferView":60,"componentType":5126,"count":334,"type":"VEC4"},{"bufferView":61,"componentType":5126,"count":334,"max":[0.350334107875824,0.9625710137188435],"min":[0.02609146013855934,0.7844001203775406],"type":"VEC2"},{"bufferView":62,"componentType":5121,"count":252,"max":[95],"min":[0],"type":"SCALAR"},{"bufferView":63,"componentType":5126,"count":96,"max":[1.5248922109603882,0.70503169298172,-3.9714205265045166],"min":[-1.5248922109603882,0.6782777309417725,-4.167337894439697],"type":"VEC3"},{"bufferView":64,"componentType":5126,"count":96,"type":"VEC3"},{"bufferView":65,"componentType":5126,"count":96,"type":"VEC4"},{"bufferView":66,"componentType":5126,"count":96,"max":[0.3316534161567688,0.9644738957285881],"min":[0.044338300824165344,0.8422635495662689],"type":"VEC2"},{"bufferView":67,"componentType":5121,"count":288,"max":[96],"min":[0],"type":"SCALAR"},{"bufferView":68,"componentType":5126,"count":97,"max":[0.020573001354932785,2.202396869659424,-3.744790554046631],"min":[-0.020573001354932785,2.175549030303955,-3.785937547683716],"type":"VEC3"},{"bufferView":69,"componentType":5126,"count":97,"type":"VEC3"},{"bufferView":70,"componentType":5126,"count":97,"type":"VEC4"},{"bufferView":71,"componentType":5126,"count":97,"max":[0,1],"min":[0,1],"type":"VEC2"},{"bufferView":72,"componentType":5121,"count":900,"max":[242],"min":[0],"type":"SCALAR"},{"bufferView":73,"componentType":5126,"count":243,"max":[0.9124191403388977,0.844500720500946,3.949561595916748],"min":[-0.9109981060028076,-0.7470204830169678,3.8565104007720947],"type":"VEC3"},{"bufferView":74,"componentType":5126,"count":243,"type":"VEC3"},{"bufferView":75,"componentType":5126,"count":243,"type":"VEC4"},{"bufferView":76,"componentType":5126,"count":243,"max":[0.6766294836997986,0.9804162234067917],"min":[0.3882240355014801,0.8255504816770554],"type":"VEC2"},{"bufferView":77,"componentType":5121,"count":216,"max":[67],"min":[0],"type":"SCALAR"},{"bufferView":78,"componentType":5126,"count":68,"max":[-0.6007490754127502,0.21083466708660126,0.44745907187461853],"min":[-2.4918811321258545,-0.10091238468885422,0.1205490380525589],"type":"VEC3"},{"bufferView":79,"componentType":5126,"count":68,"type":"VEC3"},{"bufferView":80,"componentType":5126,"count":68,"type":"VEC4"},{"bufferView":81,"componentType":5126,"count":68,"max":[0.5841108560562134,0.7413204610347748],"min":[0.2294396162033081,0.5362718999385834],"type":"VEC2"},{"bufferView":82,"componentType":5121,"count":168,"max":[67],"min":[0],"type":"SCALAR"},{"bufferView":83,"componentType":5126,"count":68,"max":[4.30873966217041,0.48090168833732605,0.5192180871963501],"min":[2.491880178451538,0.17571566998958588,0.15932804346084595],"type":"VEC3"},{"bufferView":84,"componentType":5126,"count":68,"type":"VEC3"},{"bufferView":85,"componentType":5126,"count":68,"type":"VEC4"},{"bufferView":86,"componentType":5126,"count":68,"max":[0.7438374161720276,0.7348026931285858],"min":[0.07600781321525574,0.5295926034450531],"type":"VEC2"},{"bufferView":87,"componentType":5123,"count":2466,"max":[852],"min":[0],"type":"SCALAR"},{"bufferView":88,"componentType":5126,"count":853,"max":[-0.3274190425872803,-0.07007937133312225,3.4372506141662598],"min":[-0.36833104491233826,-0.24293740093708038,3.210493564605713],"type":"VEC3"},{"bufferView":89,"componentType":5126,"count":853,"type":"VEC3"},{"bufferView":90,"componentType":5126,"count":853,"type":"VEC4"},{"bufferView":91,"componentType":5126,"count":853,"max":[0.9792641401290894,0.8578278422355652],"min":[0.8952949047088623,0.7938176691532135],"type":"VEC2"},{"bufferView":92,"componentType":5121,"count":666,"max":[185],"min":[0],"type":"SCALAR"},{"bufferView":93,"componentType":5126,"count":186,"max":[-0.30653104186058044,-0.05785636603832245,3.478175401687622],"min":[-0.3882630467414856,-0.17156541347503662,3.035933494567871],"type":"VEC3"},{"bufferView":94,"componentType":5126,"count":186,"type":"VEC3"},{"bufferView":95,"componentType":5126,"count":186,"type":"VEC4"},{"bufferView":96,"componentType":5126,"count":186,"max":[0.11887878179550171,0.1129612922668457],"min":[0.016842588782310486,0.04583173990249634],"type":"VEC2"},{"bufferView":97,"componentType":5121,"count":42,"max":[15],"min":[0],"type":"SCALAR"},{"bufferView":98,"componentType":5126,"count":16,"max":[-0.5910510420799255,0.9225027561187744,1.6067612171173096],"min":[-0.6558800339698792,0.5141767263412476,0.883255124092102],"type":"VEC3"},{"bufferView":99,"componentType":5126,"count":16,"type":"VEC3"},{"bufferView":100,"componentType":5126,"count":16,"type":"VEC4"},{"bufferView":101,"componentType":5126,"count":16,"max":[1,0.9999998540269104],"min":[0,0],"type":"VEC2"},{"bufferView":102,"componentType":5121,"count":18,"max":[11],"min":[0],"type":"SCALAR"},{"bufferView":103,"componentType":5126,"count":12,"max":[1.5253442525863647,0.7059757113456726,-3.974722385406494],"min":[-1.5244332551956177,0.6773316860198975,-4.167337894439697],"type":"VEC3"},{"bufferView":104,"componentType":5126,"count":12,"type":"VEC3"},{"bufferView":105,"componentType":5126,"count":12,"type":"VEC4"},{"bufferView":106,"componentType":5126,"count":12,"max":[0.8568342328071594,0.9480301477015018],"min":[0.7713789939880371,0.9353217706084251],"type":"VEC2"},{"bufferView":107,"componentType":5121,"count":90,"max":[89],"min":[0],"type":"SCALAR"},{"bufferView":108,"componentType":5126,"count":90,"max":[1.0218241214752197,1.2429617643356323,3.9028306007385254],"min":[-1.0533090829849243,-0.7513585090637207,3.902784585952759],"type":"VEC3"},{"bufferView":109,"componentType":5126,"count":90,"type":"VEC3"},{"bufferView":110,"componentType":5126,"count":90,"type":"VEC4"},{"bufferView":111,"componentType":5126,"count":90,"max":[0.3900875449180603,0.5072387456893921],"min":[0.030712515115737915,0.08145749568939209],"type":"VEC2"},{"bufferView":112,"componentType":5121,"count":168,"max":[67],"min":[0],"type":"SCALAR"},{"bufferView":113,"componentType":5126,"count":68,"max":[-2.4918811321258545,0.48090168833732605,0.5192180871963501],"min":[-4.308741569519043,0.17571566998958588,0.15932804346084595],"type":"VEC3"},{"bufferView":114,"componentType":5126,"count":68,"type":"VEC3"},{"bufferView":115,"componentType":5126,"count":68,"type":"VEC4"},{"bufferView":116,"componentType":5126,"count":68,"max":[0.7438373565673828,0.7348026931285858],"min":[0.07600778341293335,0.5295926034450531],"type":"VEC2"},{"bufferView":117,"componentType":5121,"count":36,"max":[35],"min":[0],"type":"SCALAR"},{"bufferView":118,"componentType":5126,"count":36,"max":[0.9401420950889587,1.0958257913589478,3.9540445804595947],"min":[-1.04268217086792,-0.7645474672317505,3.8502914905548096],"type":"VEC3"},{"bufferView":119,"componentType":5126,"count":36,"type":"VEC3"},{"bufferView":120,"componentType":5126,"count":36,"type":"VEC4"},{"bufferView":121,"componentType":5126,"count":36,"max":[0.2937201261520386,0.898856520652771],"min":[0.12170180678367615,0.4876311421394348],"type":"VEC2"},{"bufferView":122,"componentType":5123,"count":672,"max":[265],"min":[0],"type":"SCALAR"},{"bufferView":123,"componentType":5126,"count":266,"max":[0.023911003023386,2.1755499839782715,-3.74145245552063],"min":[-0.023911003023386,2.1433348655700684,-3.7892754077911377],"type":"VEC3"},{"bufferView":124,"componentType":5126,"count":266,"type":"VEC3"},{"bufferView":125,"componentType":5126,"count":266,"type":"VEC4"},{"bufferView":126,"componentType":5126,"count":266,"max":[0.953238308429718,0.010508239269256592],"min":[0.9490715265274048,0.007701456546783447],"type":"VEC2"},{"bufferView":127,"componentType":5121,"count":120,"max":[73],"min":[0],"type":"SCALAR"},{"bufferView":128,"componentType":5126,"count":74,"max":[0.11668101698160172,-0.17052137851715088,3.138082504272461],"min":[-0.00022600003285333514,-0.2434554249048233,2.2131192684173584],"type":"VEC3"},{"bufferView":129,"componentType":5126,"count":74,"type":"VEC3"},{"bufferView":130,"componentType":5126,"count":74,"type":"VEC4"},{"bufferView":131,"componentType":5126,"count":74,"max":[0.8664544820785522,1],"min":[2.6538492536069828e-36,0.22804969549179077],"type":"VEC2"},{"bufferView":132,"componentType":5121,"count":216,"max":[67],"min":[0],"type":"SCALAR"},{"bufferView":133,"componentType":5126,"count":68,"max":[2.491880178451538,0.21083466708660126,0.44745907187461853],"min":[0.6007480621337891,-0.10091238468885422,0.1205490380525589],"type":"VEC3"},{"bufferView":134,"componentType":5126,"count":68,"type":"VEC3"},{"bufferView":135,"componentType":5126,"count":68,"type":"VEC4"},{"bufferView":136,"componentType":5126,"count":68,"max":[0.5898411870002747,0.7413204610347748],"min":[0.23516996204853058,0.5362718999385834],"type":"VEC2"},{"bufferView":137,"componentType":5126,"count":2094,"type":"VEC3","min":[-0.5269502808858475,0.2738830506801604,-4.186042785644531],"max":[0.5269492886084403,2.2005228996276855,-1.0044]},{"bufferView":138,"componentType":5126,"count":2094,"type":"VEC3"},{"bufferView":139,"componentType":5126,"count":642,"type":"VEC3","min":[-0.2422309222390709,0.625635034328091,-3.876268109012258],"max":[0.24222993691482383,1.3651150511913568,-3.136788092148992]},{"bufferView":140,"componentType":5126,"count":642,"type":"VEC3"},{"bufferView":141,"componentType":5126,"count":642,"type":"VEC2"}],"asset":{"generator":"Khronos Blender glTF 2.0 exporter","version":"2.0","copyright":"FlightGear model authors / FlightAirMap contributors; GPL-2.0. See source/flightairmap/pa32/ for license and editable sources."},"bufferViews":[{"buffer":0,"byteLength":801177,"byteOffset":0},{"buffer":0,"byteLength":34719,"byteOffset":801177},{"buffer":0,"byteLength":5316,"byteOffset":835896,"target":34963},{"buffer":0,"byteLength":7440,"byteOffset":841212,"target":34962},{"buffer":0,"byteLength":7440,"byteOffset":848652,"target":34962},{"buffer":0,"byteLength":9920,"byteOffset":856092,"target":34962},{"buffer":0,"byteLength":4960,"byteOffset":866012,"target":34962},{"buffer":0,"byteLength":84,"byteOffset":870972,"target":34963},{"buffer":0,"byteLength":528,"byteOffset":871056,"target":34962},{"buffer":0,"byteLength":528,"byteOffset":871584,"target":34962},{"buffer":0,"byteLength":704,"byteOffset":872112,"target":34962},{"buffer":0,"byteLength":352,"byteOffset":872816,"target":34962},{"buffer":0,"byteLength":14736,"byteOffset":873168,"target":34963},{"buffer":0,"byteLength":19608,"byteOffset":887904,"target":34962},{"buffer":0,"byteLength":19608,"byteOffset":907512,"target":34962},{"buffer":0,"byteLength":26144,"byteOffset":927120,"target":34962},{"buffer":0,"byteLength":13072,"byteOffset":953264,"target":34962},{"buffer":0,"byteLength":204,"byteOffset":966336,"target":34963},{"buffer":0,"byteLength":960,"byteOffset":966540,"target":34962},{"buffer":0,"byteLength":960,"byteOffset":967500,"target":34962},{"buffer":0,"byteLength":1280,"byteOffset":968460,"target":34962},{"buffer":0,"byteLength":640,"byteOffset":969740,"target":34962},{"buffer":0,"byteLength":570,"byteOffset":970380,"target":34963},{"buffer":0,"byteLength":2136,"byteOffset":970952,"target":34962},{"buffer":0,"byteLength":2136,"byteOffset":973088,"target":34962},{"buffer":0,"byteLength":2848,"byteOffset":975224,"target":34962},{"buffer":0,"byteLength":1424,"byteOffset":978072,"target":34962},{"buffer":0,"byteLength":120,"byteOffset":979496,"target":34963},{"buffer":0,"byteLength":864,"byteOffset":979616,"target":34962},{"buffer":0,"byteLength":864,"byteOffset":980480,"target":34962},{"buffer":0,"byteLength":1152,"byteOffset":981344,"target":34962},{"buffer":0,"byteLength":576,"byteOffset":982496,"target":34962},{"buffer":0,"byteLength":1248,"byteOffset":983072,"target":34963},{"buffer":0,"byteLength":2700,"byteOffset":984320,"target":34962},{"buffer":0,"byteLength":2700,"byteOffset":987020,"target":34962},{"buffer":0,"byteLength":3600,"byteOffset":989720,"target":34962},{"buffer":0,"byteLength":1800,"byteOffset":993320,"target":34962},{"buffer":0,"byteLength":207,"byteOffset":995120,"target":34963},{"buffer":0,"byteLength":708,"byteOffset":995328,"target":34962},{"buffer":0,"byteLength":708,"byteOffset":996036,"target":34962},{"buffer":0,"byteLength":944,"byteOffset":996744,"target":34962},{"buffer":0,"byteLength":472,"byteOffset":997688,"target":34962},{"buffer":0,"byteLength":4104,"byteOffset":998160,"target":34963},{"buffer":0,"byteLength":8964,"byteOffset":1002264,"target":34962},{"buffer":0,"byteLength":8964,"byteOffset":1011228,"target":34962},{"buffer":0,"byteLength":11952,"byteOffset":1020192,"target":34962},{"buffer":0,"byteLength":5976,"byteOffset":1032144,"target":34962},{"buffer":0,"byteLength":672,"byteOffset":1038120,"target":34963},{"buffer":0,"byteLength":2076,"byteOffset":1038792,"target":34962},{"buffer":0,"byteLength":2076,"byteOffset":1040868,"target":34962},{"buffer":0,"byteLength":2768,"byteOffset":1042944,"target":34962},{"buffer":0,"byteLength":1384,"byteOffset":1045712,"target":34962},{"buffer":0,"byteLength":84,"byteOffset":1047096,"target":34963},{"buffer":0,"byteLength":492,"byteOffset":1047180,"target":34962},{"buffer":0,"byteLength":492,"byteOffset":1047672,"target":34962},{"buffer":0,"byteLength":656,"byteOffset":1048164,"target":34962},{"buffer":0,"byteLength":328,"byteOffset":1048820,"target":34962},{"buffer":0,"byteLength":3240,"byteOffset":1049148,"target":34963},{"buffer":0,"byteLength":4008,"byteOffset":1052388,"target":34962},{"buffer":0,"byteLength":4008,"byteOffset":1056396,"target":34962},{"buffer":0,"byteLength":5344,"byteOffset":1060404,"target":34962},{"buffer":0,"byteLength":2672,"byteOffset":1065748,"target":34962},{"buffer":0,"byteLength":252,"byteOffset":1068420,"target":34963},{"buffer":0,"byteLength":1152,"byteOffset":1068672,"target":34962},{"buffer":0,"byteLength":1152,"byteOffset":1069824,"target":34962},{"buffer":0,"byteLength":1536,"byteOffset":1070976,"target":34962},{"buffer":0,"byteLength":768,"byteOffset":1072512,"target":34962},{"buffer":0,"byteLength":288,"byteOffset":1073280,"target":34963},{"buffer":0,"byteLength":1164,"byteOffset":1073568,"target":34962},{"buffer":0,"byteLength":1164,"byteOffset":1074732,"target":34962},{"buffer":0,"byteLength":1552,"byteOffset":1075896,"target":34962},{"buffer":0,"byteLength":776,"byteOffset":1077448,"target":34962},{"buffer":0,"byteLength":900,"byteOffset":1078224,"target":34963},{"buffer":0,"byteLength":2916,"byteOffset":1079124,"target":34962},{"buffer":0,"byteLength":2916,"byteOffset":1082040,"target":34962},{"buffer":0,"byteLength":3888,"byteOffset":1084956,"target":34962},{"buffer":0,"byteLength":1944,"byteOffset":1088844,"target":34962},{"buffer":0,"byteLength":216,"byteOffset":1090788,"target":34963},{"buffer":0,"byteLength":816,"byteOffset":1091004,"target":34962},{"buffer":0,"byteLength":816,"byteOffset":1091820,"target":34962},{"buffer":0,"byteLength":1088,"byteOffset":1092636,"target":34962},{"buffer":0,"byteLength":544,"byteOffset":1093724,"target":34962},{"buffer":0,"byteLength":168,"byteOffset":1094268,"target":34963},{"buffer":0,"byteLength":816,"byteOffset":1094436,"target":34962},{"buffer":0,"byteLength":816,"byteOffset":1095252,"target":34962},{"buffer":0,"byteLength":1088,"byteOffset":1096068,"target":34962},{"buffer":0,"byteLength":544,"byteOffset":1097156,"target":34962},{"buffer":0,"byteLength":4932,"byteOffset":1097700,"target":34963},{"buffer":0,"byteLength":10236,"byteOffset":1102632,"target":34962},{"buffer":0,"byteLength":10236,"byteOffset":1112868,"target":34962},{"buffer":0,"byteLength":13648,"byteOffset":1123104,"target":34962},{"buffer":0,"byteLength":6824,"byteOffset":1136752,"target":34962},{"buffer":0,"byteLength":666,"byteOffset":1143576,"target":34963},{"buffer":0,"byteLength":2232,"byteOffset":1144244,"target":34962},{"buffer":0,"byteLength":2232,"byteOffset":1146476,"target":34962},{"buffer":0,"byteLength":2976,"byteOffset":1148708,"target":34962},{"buffer":0,"byteLength":1488,"byteOffset":1151684,"target":34962},{"buffer":0,"byteLength":42,"byteOffset":1153172,"target":34963},{"buffer":0,"byteLength":192,"byteOffset":1153216,"target":34962},{"buffer":0,"byteLength":192,"byteOffset":1153408,"target":34962},{"buffer":0,"byteLength":256,"byteOffset":1153600,"target":34962},{"buffer":0,"byteLength":128,"byteOffset":1153856,"target":34962},{"buffer":0,"byteLength":18,"byteOffset":1153984,"target":34963},{"buffer":0,"byteLength":144,"byteOffset":1154004,"target":34962},{"buffer":0,"byteLength":144,"byteOffset":1154148,"target":34962},{"buffer":0,"byteLength":192,"byteOffset":1154292,"target":34962},{"buffer":0,"byteLength":96,"byteOffset":1154484,"target":34962},{"buffer":0,"byteLength":90,"byteOffset":1154580,"target":34963},{"buffer":0,"byteLength":1080,"byteOffset":1154672,"target":34962},{"buffer":0,"byteLength":1080,"byteOffset":1155752,"target":34962},{"buffer":0,"byteLength":1440,"byteOffset":1156832,"target":34962},{"buffer":0,"byteLength":720,"byteOffset":1158272,"target":34962},{"buffer":0,"byteLength":168,"byteOffset":1158992,"target":34963},{"buffer":0,"byteLength":816,"byteOffset":1159160,"target":34962},{"buffer":0,"byteLength":816,"byteOffset":1159976,"target":34962},{"buffer":0,"byteLength":1088,"byteOffset":1160792,"target":34962},{"buffer":0,"byteLength":544,"byteOffset":1161880,"target":34962},{"buffer":0,"byteLength":36,"byteOffset":1162424,"target":34963},{"buffer":0,"byteLength":432,"byteOffset":1162460,"target":34962},{"buffer":0,"byteLength":432,"byteOffset":1162892,"target":34962},{"buffer":0,"byteLength":576,"byteOffset":1163324,"target":34962},{"buffer":0,"byteLength":288,"byteOffset":1163900,"target":34962},{"buffer":0,"byteLength":1344,"byteOffset":1164188,"target":34963},{"buffer":0,"byteLength":3192,"byteOffset":1165532,"target":34962},{"buffer":0,"byteLength":3192,"byteOffset":1168724,"target":34962},{"buffer":0,"byteLength":4256,"byteOffset":1171916,"target":34962},{"buffer":0,"byteLength":2128,"byteOffset":1176172,"target":34962},{"buffer":0,"byteLength":120,"byteOffset":1178300,"target":34963},{"buffer":0,"byteLength":888,"byteOffset":1178420,"target":34962},{"buffer":0,"byteLength":888,"byteOffset":1179308,"target":34962},{"buffer":0,"byteLength":1184,"byteOffset":1180196,"target":34962},{"buffer":0,"byteLength":592,"byteOffset":1181380,"target":34962},{"buffer":0,"byteLength":216,"byteOffset":1181972,"target":34963},{"buffer":0,"byteLength":816,"byteOffset":1182188,"target":34962},{"buffer":0,"byteLength":816,"byteOffset":1183004,"target":34962},{"buffer":0,"byteLength":1088,"byteOffset":1183820,"target":34962},{"buffer":0,"byteLength":544,"byteOffset":1184908,"target":34962},{"buffer":1,"byteOffset":0,"byteLength":25128,"target":34962},{"buffer":1,"byteOffset":25128,"byteLength":25128,"target":34962},{"buffer":1,"byteOffset":50256,"byteLength":7704,"target":34962},{"buffer":1,"byteOffset":57960,"byteLength":7704,"target":34962},{"buffer":1,"byteOffset":65664,"byteLength":5136,"target":34962}],"buffers":[{"byteLength":1185452,"extras":{},"uri":"../pa32-v1-0.bin"},{"uri":"pa32-tail-v1.bin","byteLength":70800}],"images":[{"bufferView":0,"mimeType":"image/png","name":"texture.png","extras":{}},{"bufferView":1,"mimeType":"image/png","name":"prop.png","extras":{}},{"uri":"../../../airlines/THY.png"}],"materials":[{"name":"DefaultWhite","pbrMetallicRoughness":{"baseColorFactor":[0.800000011920929,0.800000011920929,0.800000011920929,1],"baseColorTexture":{"index":0},"metallicFactor":0}},{"alphaMode":"BLEND","name":"rougetrs","pbrMetallicRoughness":{"baseColorFactor":[0.800000011920929,0.32000000953674324,0.32000000953674324,0.6000000238418579],"metallicFactor":0}},{"alphaMode":"BLEND","name":"transparent","pbrMetallicRoughness":{"baseColorFactor":[0.4000000059604645,0.480000026226044,0.559999998807907,0.30000001192092896],"baseColorTexture":{"index":1},"metallicFactor":0}},{"alphaMode":"BLEND","name":"transparent.001","pbrMetallicRoughness":{"baseColorFactor":[0.4000000059604645,0.480000026226044,0.559999998807907,0.30000001192092896],"metallicFactor":0}},{"name":"Operator tail paint","doubleSided":true,"pbrMetallicRoughness":{"baseColorFactor":[0.7843137254901961,0.09803921568627451,0.19607843137254902,1],"metallicFactor":0,"roughnessFactor":0.65}},{"name":"Operator logo identification","doubleSided":true,"alphaMode":"BLEND","pbrMetallicRoughness":{"baseColorTexture":{"index":2},"metallicFactor":0,"roughnessFactor":0.7},"emissiveFactor":[0.18,0.18,0.18],"emissiveTexture":{"index":2}}],"meshes":[{"name":"ailes","primitives":[{"attributes":{"NORMAL":2,"POSITION":1,"TANGENT":3,"TEXCOORD_0":4},"indices":0,"material":0}]},{"name":"porteD","primitives":[{"attributes":{"NORMAL":7,"POSITION":6,"TANGENT":8,"TEXCOORD_0":9},"indices":5,"material":0}]},{"name":"fuselage","primitives":[{"attributes":{"NORMAL":12,"POSITION":11,"TANGENT":13,"TEXCOORD_0":14},"indices":10,"material":0}]},{"name":"direction","primitives":[{"attributes":{"NORMAL":17,"POSITION":16,"TANGENT":18,"TEXCOORD_0":19},"indices":15,"material":0}]},{"name":"vitres","primitives":[{"attributes":{"NORMAL":22,"POSITION":21,"TANGENT":23,"TEXCOORD_0":24},"indices":20,"material":3}]},{"name":"porteAD","primitives":[{"attributes":{"NORMAL":27,"POSITION":26,"TANGENT":28,"TEXCOORD_0":29},"indices":25,"material":0}]},{"name":"bol","primitives":[{"attributes":{"NORMAL":32,"POSITION":31,"TANGENT":33,"TEXCOORD_0":34},"indices":30,"material":0}]},{"name":"porte","primitives":[{"attributes":{"NORMAL":37,"POSITION":36,"TANGENT":38,"TEXCOORD_0":39},"indices":35,"material":0}]},{"name":"trous","primitives":[{"attributes":{"NORMAL":42,"POSITION":41,"TANGENT":43,"TEXCOORD_0":44},"indices":40,"material":0}]},{"name":"air","primitives":[{"attributes":{"NORMAL":47,"POSITION":46,"TANGENT":48,"TEXCOORD_0":49},"indices":45,"material":0}]},{"name":"porteG.002","primitives":[{"attributes":{"NORMAL":52,"POSITION":51,"TANGENT":53,"TEXCOORD_0":54},"indices":50,"material":0}]},{"name":"ailes2","primitives":[{"attributes":{"NORMAL":57,"POSITION":56,"TANGENT":58,"TEXCOORD_0":59},"indices":55,"material":0}]},{"name":"profondeur","primitives":[{"attributes":{"NORMAL":62,"POSITION":61,"TANGENT":63,"TEXCOORD_0":64},"indices":60,"material":0}]},{"name":"lampe","primitives":[{"attributes":{"NORMAL":67,"POSITION":66,"TANGENT":68,"TEXCOORD_0":69},"indices":65,"material":1}]},{"name":"helice","primitives":[{"attributes":{"NORMAL":72,"POSITION":71,"TANGENT":73,"TEXCOORD_0":74},"indices":70,"material":0}]},{"name":"voletD","primitives":[{"attributes":{"NORMAL":77,"POSITION":76,"TANGENT":78,"TEXCOORD_0":79},"indices":75,"material":0}]},{"name":"aileronG","primitives":[{"attributes":{"NORMAL":82,"POSITION":81,"TANGENT":83,"TEXCOORD_0":84},"indices":80,"material":0}]},{"name":"echappe","primitives":[{"attributes":{"NORMAL":87,"POSITION":86,"TANGENT":88,"TEXCOORD_0":89},"indices":85,"material":0}]},{"name":"cache","primitives":[{"attributes":{"NORMAL":92,"POSITION":91,"TANGENT":93,"TEXCOORD_0":94},"indices":90,"material":0}]},{"name":"vitreD","primitives":[{"attributes":{"NORMAL":97,"POSITION":96,"TANGENT":98,"TEXCOORD_0":99},"indices":95,"material":3}]},{"name":"trousprof","primitives":[{"attributes":{"NORMAL":102,"POSITION":101,"TANGENT":103,"TEXCOORD_0":104},"indices":100,"material":0}]},{"name":"propdisc","primitives":[{"attributes":{"NORMAL":107,"POSITION":106,"TANGENT":108,"TEXCOORD_0":109},"indices":105,"material":2}]},{"name":"aileronD","primitives":[{"attributes":{"NORMAL":112,"POSITION":111,"TANGENT":113,"TEXCOORD_0":114},"indices":110,"material":0}]},{"name":"propblur","primitives":[{"attributes":{"NORMAL":117,"POSITION":116,"TANGENT":118,"TEXCOORD_0":119},"indices":115,"material":2}]},{"name":"piedlampe","primitives":[{"attributes":{"NORMAL":122,"POSITION":121,"TANGENT":123,"TEXCOORD_0":124},"indices":120,"material":0}]},{"name":"porteAG","primitives":[{"attributes":{"NORMAL":127,"POSITION":126,"TANGENT":128,"TEXCOORD_0":129},"indices":125,"material":0}]},{"name":"voletG","primitives":[{"attributes":{"NORMAL":132,"POSITION":131,"TANGENT":133,"TEXCOORD_0":134},"indices":130,"material":0}]},{"name":"Airline tail surface overlay","primitives":[{"attributes":{"POSITION":135,"NORMAL":136},"material":4},{"attributes":{"POSITION":137,"NORMAL":138,"TEXCOORD_0":139},"material":5}]}],"nodes":[{"mesh":22,"name":"aileronD"},{"mesh":16,"name":"aileronG"},{"mesh":0,"name":"ailes"},{"mesh":11,"name":"ailes2"},{"mesh":9,"name":"air"},{"mesh":6,"name":"bol"},{"mesh":18,"name":"cache"},{"mesh":3,"name":"direction"},{"mesh":17,"name":"echappe"},{"mesh":2,"name":"fuselage"},{"mesh":14,"name":"helice"},{"mesh":13,"name":"lampe"},{"mesh":24,"name":"piedlampe"},{"mesh":7,"name":"porte"},{"mesh":5,"name":"porteAD"},{"mesh":25,"name":"porteAG"},{"mesh":1,"name":"porteD"},{"mesh":10,"name":"porteG"},{"mesh":12,"name":"profondeur"},{"mesh":23,"name":"propblur"},{"mesh":21,"name":"propdisc"},{"mesh":8,"name":"trous"},{"mesh":20,"name":"trousprof"},{"mesh":19,"name":"vitreD"},{"mesh":4,"name":"vitres"},{"mesh":15,"name":"voletD"},{"mesh":26,"name":"voletG"},{"name":"SkywardCoordinateAlignment","matrix":[1,0,0,0,0,1,0,0,0,0,1,0,0,0,0,1],"children":[26,25,24,23,22,21,20,19,18,17,16,15,14,13,12,11,10,9,8,7,6,5,4,3,2,1,0]},{"name":"AirlineTailBranding","mesh":27}],"samplers":[{},{"magFilter":9729,"minFilter":9987,"wrapS":33071,"wrapT":33071}],"scene":0,"scenes":[{"name":"Scene","nodes":[27,28]}],"textures":[{"sampler":0,"source":0},{"sampler":0,"source":1},{"source":2,"sampler":1}],"extras":{"skyward":{"source":"https://github.com/Ysurac/FlightAirMap-3dmodels","commit":"0906d9ba1bdd906ce45807e45ed706c09912db19","changes":"Converted legacy glTF to glTF 2.0 with Cesium; rigid axis alignment, horizontal centering, and source transforms baked into positions/normals for correct Cesium bounds. Original shape, materials and paint retained. Added surface-following operator tail paint and unmodified identification-logo texture. Branding is illustrative, not a registration-specific livery.","license":"GPL-2.0","sourceFiles":["source/flightairmap/pa32/COPYING","source/flightairmap/pa32/pa32.blend"],"operator":"THY"}}}