{"accessors":[{"bufferView":2,"componentType":5123,"count":4044,"max":[675],"min":[0],"type":"SCALAR"},{"bufferView":3,"componentType":5126,"count":676,"max":[0.6965464353561401,0.6323800086975098,6.248692035675049],"min":[-0.6965455412864685,0.4419109523296356,5.697211265563965],"type":"VEC3"},{"bufferView":4,"componentType":5126,"count":676,"type":"VEC3"},{"bufferView":5,"componentType":5126,"count":676,"max":[0.8760488629341125,0.8560506701469421],"min":[0.8207986950874329,0.8369685113430023],"type":"VEC2"},{"bufferView":6,"componentType":5121,"count":36,"max":[14],"min":[0],"type":"SCALAR"},{"bufferView":7,"componentType":5126,"count":15,"max":[2.3607940673828125,-0.08894993364810944,1.3500021696090698],"min":[1.688724160194397,-0.19083088636398315,1.096175193786621],"type":"VEC3"},{"bufferView":8,"componentType":5126,"count":15,"type":"VEC3"},{"bufferView":9,"componentType":5126,"count":15,"type":"VEC4"},{"bufferView":10,"componentType":5126,"count":15,"max":[0.9847040772438049,0.8005857467651367],"min":[0.520300567150116,0.5595395565032959],"type":"VEC2"},{"bufferView":11,"componentType":5123,"count":1176,"max":[319],"min":[0],"type":"SCALAR"},{"bufferView":12,"componentType":5126,"count":320,"max":[1.312872290611267,1.8126379251480103,6.775393962860107],"min":[-1.3130335807800293,-0.8132679462432861,6.677611827850342],"type":"VEC3"},{"bufferView":13,"componentType":5126,"count":320,"type":"VEC3"},{"bufferView":14,"componentType":5126,"count":320,"type":"VEC4"},{"bufferView":15,"componentType":5126,"count":320,"max":[0.8333584070205688,0.9911235691979527],"min":[0.8152284622192383,0.8892737329006195],"type":"VEC2"},{"bufferView":16,"componentType":5123,"count":1158,"max":[373],"min":[0],"type":"SCALAR"},{"bufferView":17,"componentType":5126,"count":374,"max":[0.8472231030464172,1.3925819396972656,4.375942230224609],"min":[-0.8473827838897705,0.8021518588066101,-1.042183518409729],"type":"VEC3"},{"bufferView":18,"componentType":5126,"count":374,"type":"VEC3"},{"bufferView":19,"componentType":5126,"count":374,"type":"VEC4"},{"bufferView":20,"componentType":5126,"count":374,"max":[1,1],"min":[0,0],"type":"VEC2"},{"bufferView":21,"componentType":5123,"count":1824,"max":[320],"min":[0],"type":"SCALAR"},{"bufferView":22,"componentType":5126,"count":321,"max":[0.24321287870407104,0.7429789900779724,7.196460247039795],"min":[-0.24337409436702728,0.2563920021057129,6.5853071212768555],"type":"VEC3"},{"bufferView":23,"componentType":5126,"count":321,"type":"VEC3"},{"bufferView":24,"componentType":5126,"count":321,"type":"VEC4"},{"bufferView":25,"componentType":5126,"count":321,"max":[0.8752163648605347,0.8732689619064331],"min":[0.8206488490104675,0.8187014907598495],"type":"VEC2"},{"bufferView":26,"componentType":5121,"count":48,"max":[47],"min":[0],"type":"SCALAR"},{"bufferView":27,"componentType":5126,"count":48,"max":[1.3232712745666504,1.8230369091033936,6.791060924530029],"min":[-1.3234325647354126,-0.8236669301986694,6.661945343017578],"type":"VEC3"},{"bufferView":28,"componentType":5126,"count":48,"type":"VEC3"},{"bufferView":29,"componentType":5126,"count":48,"type":"VEC4"},{"bufferView":30,"componentType":5126,"count":48,"max":[0.6631902456283569,0.8976065218448639],"min":[0.3191535770893097,0.4876311421394348],"type":"VEC2"},{"bufferView":31,"componentType":5121,"count":240,"max":[67],"min":[0],"type":"SCALAR"},{"bufferView":32,"componentType":5126,"count":68,"max":[0.000013087299521430396,-0.20586302876472473,4.731431007385254],"min":[-0.2168899029493332,-0.24620702862739563,3.3613851070404053],"type":"VEC3"},{"bufferView":33,"componentType":5126,"count":68,"type":"VEC3"},{"bufferView":34,"componentType":5126,"count":68,"type":"VEC4"},{"bufferView":35,"componentType":5126,"count":68,"max":[0.8661134243011475,0.9460827931761742],"min":[0.6422757506370544,0.34107524156570435],"type":"VEC2"},{"bufferView":36,"componentType":5123,"count":3222,"max":[733],"min":[0],"type":"SCALAR"},{"bufferView":37,"componentType":5126,"count":734,"max":[-0.9182417988777161,0.36431851983070374,1.092961072921753],"min":[-5.743293285369873,-0.39585673809051514,0.13449713587760925],"type":"VEC3"},{"bufferView":38,"componentType":5126,"count":734,"type":"VEC3"},{"bufferView":39,"componentType":5126,"count":734,"type":"VEC4"},{"bufferView":40,"componentType":5126,"count":734,"max":[0.7278962135314941,0.7303114831447601],"min":[0.14254522323608398,0.4488201141357422],"type":"VEC2"},{"bufferView":41,"componentType":5121,"count":36,"max":[11],"min":[0],"type":"SCALAR"},{"bufferView":42,"componentType":5126,"count":12,"max":[-1.6887240409851074,-0.08894988894462585,1.350002408027649],"min":[-2.3607940673828125,-0.19083093106746674,1.0961754322052002],"type":"VEC3"},{"bufferView":43,"componentType":5126,"count":12,"type":"VEC3"},{"bufferView":44,"componentType":5126,"count":12,"type":"VEC4"},{"bufferView":45,"componentType":5126,"count":12,"max":[0.9847040772438049,0.8005857467651367],"min":[0.520300567150116,0.5595395565032959],"type":"VEC2"},{"bufferView":46,"componentType":5123,"count":2880,"max":[513],"min":[0],"type":"SCALAR"},{"bufferView":47,"componentType":5126,"count":514,"max":[-7.469372272491455,0.7287869453430176,2.4696006774902344],"min":[-7.802337646484375,0.3958219289779663,1.2365766763687134],"type":"VEC3"},{"bufferView":48,"componentType":5126,"count":514,"type":"VEC3"},{"bufferView":49,"componentType":5126,"count":514,"type":"VEC4"},{"bufferView":50,"componentType":5126,"count":514,"max":[0.9887644052505493,0.5249128639698029],"min":[0.8733965158462524,0.4532117247581482],"type":"VEC2"},{"bufferView":51,"componentType":5123,"count":1320,"max":[767],"min":[0],"type":"SCALAR"},{"bufferView":52,"componentType":5126,"count":768,"max":[0.016191039234399796,1.8652219772338867,3.1757190227508545],"min":[-0.01619095914065838,-0.6026169061660767,-1.1849215030670166],"type":"VEC3"},{"bufferView":53,"componentType":5126,"count":768,"type":"VEC3"},{"bufferView":54,"componentType":5126,"count":768,"max":[0.9926633834838867,0.42757880687713623],"min":[0.8718024492263794,0.26609212160110474],"type":"VEC2"},{"bufferView":55,"componentType":5121,"count":84,"max":[29],"min":[0],"type":"SCALAR"},{"bufferView":56,"componentType":5126,"count":30,"max":[0.8523419499397278,1.4500739574432373,2.9960484504699707],"min":[0.5234710574150085,0.048755984753370285,2.3596293926239014],"type":"VEC3"},{"bufferView":57,"componentType":5126,"count":30,"type":"VEC3"},{"bufferView":58,"componentType":5126,"count":30,"type":"VEC4"},{"bufferView":59,"componentType":5126,"count":30,"max":[0.4111451506614685,0.18194276094436646],"min":[0.37281644344329834,0.09754770994186401],"type":"VEC2"},{"bufferView":60,"componentType":5121,"count":90,"max":[31],"min":[0],"type":"SCALAR"},{"bufferView":61,"componentType":5126,"count":32,"max":[0.8472228050231934,1.173501968383789,-0.15381351113319397],"min":[0.7784438133239746,0.8021509647369385,-0.4857434928417206],"type":"VEC3"},{"bufferView":62,"componentType":5126,"count":32,"type":"VEC3"},{"bufferView":63,"componentType":5126,"count":32,"type":"VEC4"},{"bufferView":64,"componentType":5126,"count":32,"max":[1,1],"min":[0,0],"type":"VEC2"},{"bufferView":65,"componentType":5123,"count":2205,"max":[667],"min":[0],"type":"SCALAR"},{"bufferView":66,"componentType":5126,"count":668,"max":[7.435305595397949,2.91605806350708,6.517146110534668],"min":[-7.435304641723633,-0.26301607489585876,-6.381316184997559],"type":"VEC3"},{"bufferView":67,"componentType":5126,"count":668,"type":"VEC3"},{"bufferView":68,"componentType":5126,"count":668,"type":"VEC4"},{"bufferView":69,"componentType":5126,"count":668,"max":[0.8716802597045898,0.9873889284208417],"min":[0.7631955146789551,0.8828118965029716],"type":"VEC2"},{"bufferView":70,"componentType":5123,"count":8766,"max":[1949],"min":[0],"type":"SCALAR"},{"bufferView":71,"componentType":5126,"count":1950,"max":[8.105748176574707,0.9169754385948181,2.28134822845459],"min":[-8.105748176574707,-0.39581501483917236,-0.5809125304222107],"type":"VEC3"},{"bufferView":72,"componentType":5126,"count":1950,"type":"VEC3"},{"bufferView":73,"componentType":5126,"count":1950,"type":"VEC4"},{"bufferView":74,"componentType":5126,"count":1950,"max":[0.9918473362922668,0.7813793569803238],"min":[0.02199012041091919,0.3599129915237427],"type":"VEC2"},{"bufferView":75,"componentType":5121,"count":177,"max":[58],"min":[0],"type":"SCALAR"},{"bufferView":76,"componentType":5126,"count":59,"max":[0.8523418307304382,1.4500749111175537,0.11944629997015],"min":[0.523470938205719,0.006164005491882563,-1.2813496589660645],"type":"VEC3"},{"bufferView":77,"componentType":5126,"count":59,"type":"VEC3"},{"bufferView":78,"componentType":5126,"count":59,"type":"VEC4"},{"bufferView":79,"componentType":5126,"count":59,"max":[0.6342610716819763,0.18599528074264526],"min":[0.5478459596633911,0.09692037105560303],"type":"VEC2"},{"bufferView":80,"componentType":5123,"count":2922,"max":[621],"min":[0],"type":"SCALAR"},{"bufferView":81,"componentType":5126,"count":622,"max":[2.639160394668579,2.914409875869751,-6.065847396850586],"min":[-2.6391615867614746,2.7928266525268555,-6.8055291175842285],"type":"VEC3"},{"bufferView":82,"componentType":5126,"count":622,"type":"VEC3"},{"bufferView":83,"componentType":5126,"count":622,"type":"VEC4"},{"bufferView":84,"componentType":5126,"count":622,"max":[0.3134136199951172,0.8233093619346619],"min":[0.011689156293869019,0.6888475716114044],"type":"VEC2"},{"bufferView":85,"componentType":5123,"count":7863,"max":[1728],"min":[0],"type":"SCALAR"},{"bufferView":86,"componentType":5126,"count":1729,"max":[0.8523428440093994,2.8390097618103027,6.585305690765381],"min":[-0.8523420095443726,-0.24620699882507324,-6.3625969886779785],"type":"VEC3"},{"bufferView":87,"componentType":5126,"count":1729,"type":"VEC3"},{"bufferView":88,"componentType":5126,"count":1729,"max":[0.9472301006317139,0.8715558648109436],"min":[0.04499215632677078,0.011251568794250488],"type":"VEC2"},{"bufferView":89,"componentType":5123,"count":1296,"max":[439],"min":[0],"type":"SCALAR"},{"bufferView":90,"componentType":5126,"count":440,"max":[1.3191622495651245,1.8189278841018677,6.775393009185791],"min":[-1.3193235397338867,-0.8195579051971436,6.677611827850342],"type":"VEC3"},{"bufferView":91,"componentType":5126,"count":440,"type":"VEC3"},{"bufferView":92,"componentType":5126,"count":440,"type":"VEC4"},{"bufferView":93,"componentType":5126,"count":440,"max":[0.8551750779151917,0.5072387456893921],"min":[0.1364249885082245,0.09313422441482544],"type":"VEC2"},{"bufferView":94,"componentType":5121,"count":240,"max":[66],"min":[0],"type":"SCALAR"},{"bufferView":95,"componentType":5126,"count":67,"max":[0.21688997745513916,-0.20505696535110474,4.73143196105957],"min":[-1.0899118940699282e-8,-0.24620795249938965,3.3613860607147217],"type":"VEC3"},{"bufferView":96,"componentType":5126,"count":67,"type":"VEC3"},{"bufferView":97,"componentType":5126,"count":67,"type":"VEC4"},{"bufferView":98,"componentType":5126,"count":67,"max":[0.863400936126709,0.9447685107588768],"min":[0.2634159028530121,0.19865548610687256],"type":"VEC2"},{"bufferView":99,"componentType":5121,"count":222,"max":[70],"min":[0],"type":"SCALAR"},{"bufferView":100,"componentType":5126,"count":71,"max":[-5.724896430969238,0.5960788130760193,1.2449257373809814],"min":[-7.435305595397949,0.2976627051830292,0.6116217374801636],"type":"VEC3"},{"bufferView":101,"componentType":5126,"count":71,"type":"VEC3"},{"bufferView":102,"componentType":5126,"count":71,"type":"VEC4"},{"bufferView":103,"componentType":5126,"count":71,"max":[0.8130878210067749,0.597193717956543],"min":[0.05622297525405884,0.4129633903503418],"type":"VEC2"},{"bufferView":104,"componentType":5121,"count":540,"max":[133],"min":[0],"type":"SCALAR"},{"bufferView":105,"componentType":5126,"count":134,"max":[0.5486746430397034,0.816415011882782,-2.0679962635040283],"min":[-0.5486752390861511,0.16053201258182526,-4.547304153442383],"type":"VEC3"},{"bufferView":106,"componentType":5126,"count":134,"type":"VEC3"},{"bufferView":107,"componentType":5126,"count":134,"type":"VEC4"},{"bufferView":108,"componentType":5126,"count":134,"max":[0.9870414733886719,0.7382019460201263],"min":[0.6221518516540527,0.6339495182037354],"type":"VEC2"},{"bufferView":109,"componentType":5121,"count":516,"max":[119],"min":[0],"type":"SCALAR"},{"bufferView":110,"componentType":5126,"count":120,"max":[2.4788572788238525,2.93363356590271,-5.509094715118408],"min":[-2.478858470916748,2.756537675857544,-6.3813157081604],"type":"VEC3"},{"bufferView":111,"componentType":5126,"count":120,"type":"VEC3"},{"bufferView":112,"componentType":5126,"count":120,"type":"VEC4"},{"bufferView":113,"componentType":5126,"count":120,"max":[0.30455443263053894,0.7980527877807617],"min":[0.020659565925598145,0.6563780307769775],"type":"VEC2"},{"bufferView":114,"componentType":5121,"count":222,"max":[68],"min":[0],"type":"SCALAR"},{"bufferView":115,"componentType":5126,"count":69,"max":[7.435303688049316,0.5960779190063477,1.2449257373809814],"min":[5.7248945236206055,0.29766201972961426,0.6116217374801636],"type":"VEC3"},{"bufferView":116,"componentType":5126,"count":69,"type":"VEC3"},{"bufferView":117,"componentType":5126,"count":69,"type":"VEC4"},{"bufferView":118,"componentType":5126,"count":69,"max":[0.8128589391708374,0.597193717956543],"min":[0.055994097143411636,0.4129633903503418],"type":"VEC2"},{"bufferView":119,"componentType":5123,"count":3222,"max":[724],"min":[0],"type":"SCALAR"},{"bufferView":120,"componentType":5126,"count":725,"max":[5.743294715881348,0.3643178343772888,1.092961072921753],"min":[0.9182429909706116,-0.3958568572998047,0.13449713587760925],"type":"VEC3"},{"bufferView":121,"componentType":5126,"count":725,"type":"VEC3"},{"bufferView":122,"componentType":5126,"count":725,"type":"VEC4"},{"bufferView":123,"componentType":5126,"count":725,"max":[0.7265366911888123,0.7303114831447601],"min":[0.14118574559688568,0.4488201141357422],"type":"VEC2"},{"bufferView":124,"componentType":5123,"count":1536,"max":[293],"min":[0],"type":"SCALAR"},{"bufferView":125,"componentType":5126,"count":294,"max":[0.151624858379364,2.9756577014923096,-4.9246416091918945],"min":[-0.15217813849449158,2.7431366443634033,-7.196460247039795],"type":"VEC3"},{"bufferView":126,"componentType":5126,"count":294,"type":"VEC3"},{"bufferView":127,"componentType":5126,"count":294,"type":"VEC4"},{"bufferView":128,"componentType":5126,"count":294,"max":[0.9902036190032959,0.24392342567443848],"min":[0.7897432446479797,0.18796157836914062],"type":"VEC2"},{"bufferView":129,"componentType":5121,"count":546,"max":[127],"min":[0],"type":"SCALAR"},{"bufferView":130,"componentType":5126,"count":128,"max":[0.06556456536054611,2.7964138984680176,-5.242376327514648],"min":[-0.06556542217731476,0.6145939826965332,-6.766748905181885],"type":"VEC3"},{"bufferView":131,"componentType":5126,"count":128,"type":"VEC3"},{"bufferView":132,"componentType":5126,"count":128,"type":"VEC4"},{"bufferView":133,"componentType":5126,"count":128,"max":[0.9731876254081726,0.28840547800064087],"min":[0.017212538048624992,0.01389622688293457],"type":"VEC2"},{"bufferView":134,"componentType":5126,"count":2409,"type":"VEC3","min":[-0.7235340232849121,0.5060966908931732,-7.185707092285156],"max":[0.6673708910942078,2.9756577014923096,-1.7268]},{"bufferView":135,"componentType":5126,"count":2409,"type":"VEC3"},{"bufferView":136,"componentType":5126,"count":540,"type":"VEC3","min":[-0.6226019429976893,0.6640738913509474,-4.298276345684803],"max":[0.6226014924054276,1.7172552277361084,-3.2450950092996416]},{"bufferView":137,"componentType":5126,"count":540,"type":"VEC3"},{"bufferView":138,"componentType":5126,"count":540,"type":"VEC2"}],"asset":{"generator":"Khronos Blender glTF 2.0 exporter","version":"2.0","copyright":"FlightGear model authors / FlightAirMap contributors; GPL-2.0. See source/flightairmap/pc12/ for license and editable sources."},"bufferViews":[{"buffer":0,"byteLength":1085015,"byteOffset":0},{"buffer":0,"byteLength":20538,"byteOffset":1085015},{"buffer":0,"byteLength":8088,"byteOffset":1105554,"target":34963},{"buffer":0,"byteLength":8112,"byteOffset":1113644,"target":34962},{"buffer":0,"byteLength":8112,"byteOffset":1121756,"target":34962},{"buffer":0,"byteLength":5408,"byteOffset":1129868,"target":34962},{"buffer":0,"byteLength":36,"byteOffset":1135276,"target":34963},{"buffer":0,"byteLength":180,"byteOffset":1135312,"target":34962},{"buffer":0,"byteLength":180,"byteOffset":1135492,"target":34962},{"buffer":0,"byteLength":240,"byteOffset":1135672,"target":34962},{"buffer":0,"byteLength":120,"byteOffset":1135912,"target":34962},{"buffer":0,"byteLength":2352,"byteOffset":1136032,"target":34963},{"buffer":0,"byteLength":3840,"byteOffset":1138384,"target":34962},{"buffer":0,"byteLength":3840,"byteOffset":1142224,"target":34962},{"buffer":0,"byteLength":5120,"byteOffset":1146064,"target":34962},{"buffer":0,"byteLength":2560,"byteOffset":1151184,"target":34962},{"buffer":0,"byteLength":2316,"byteOffset":1153744,"target":34963},{"buffer":0,"byteLength":4488,"byteOffset":1156060,"target":34962},{"buffer":0,"byteLength":4488,"byteOffset":1160548,"target":34962},{"buffer":0,"byteLength":5984,"byteOffset":1165036,"target":34962},{"buffer":0,"byteLength":2992,"byteOffset":1171020,"target":34962},{"buffer":0,"byteLength":3648,"byteOffset":1174012,"target":34963},{"buffer":0,"byteLength":3852,"byteOffset":1177660,"target":34962},{"buffer":0,"byteLength":3852,"byteOffset":1181512,"target":34962},{"buffer":0,"byteLength":5136,"byteOffset":1185364,"target":34962},{"buffer":0,"byteLength":2568,"byteOffset":1190500,"target":34962},{"buffer":0,"byteLength":48,"byteOffset":1193068,"target":34963},{"buffer":0,"byteLength":576,"byteOffset":1193116,"target":34962},{"buffer":0,"byteLength":576,"byteOffset":1193692,"target":34962},{"buffer":0,"byteLength":768,"byteOffset":1194268,"target":34962},{"buffer":0,"byteLength":384,"byteOffset":1195036,"target":34962},{"buffer":0,"byteLength":240,"byteOffset":1195420,"target":34963},{"buffer":0,"byteLength":816,"byteOffset":1195660,"target":34962},{"buffer":0,"byteLength":816,"byteOffset":1196476,"target":34962},{"buffer":0,"byteLength":1088,"byteOffset":1197292,"target":34962},{"buffer":0,"byteLength":544,"byteOffset":1198380,"target":34962},{"buffer":0,"byteLength":6444,"byteOffset":1198924,"target":34963},{"buffer":0,"byteLength":8808,"byteOffset":1205368,"target":34962},{"buffer":0,"byteLength":8808,"byteOffset":1214176,"target":34962},{"buffer":0,"byteLength":11744,"byteOffset":1222984,"target":34962},{"buffer":0,"byteLength":5872,"byteOffset":1234728,"target":34962},{"buffer":0,"byteLength":36,"byteOffset":1240600,"target":34963},{"buffer":0,"byteLength":144,"byteOffset":1240636,"target":34962},{"buffer":0,"byteLength":144,"byteOffset":1240780,"target":34962},{"buffer":0,"byteLength":192,"byteOffset":1240924,"target":34962},{"buffer":0,"byteLength":96,"byteOffset":1241116,"target":34962},{"buffer":0,"byteLength":5760,"byteOffset":1241212,"target":34963},{"buffer":0,"byteLength":6168,"byteOffset":1246972,"target":34962},{"buffer":0,"byteLength":6168,"byteOffset":1253140,"target":34962},{"buffer":0,"byteLength":8224,"byteOffset":1259308,"target":34962},{"buffer":0,"byteLength":4112,"byteOffset":1267532,"target":34962},{"buffer":0,"byteLength":2640,"byteOffset":1271644,"target":34963},{"buffer":0,"byteLength":9216,"byteOffset":1274284,"target":34962},{"buffer":0,"byteLength":9216,"byteOffset":1283500,"target":34962},{"buffer":0,"byteLength":6144,"byteOffset":1292716,"target":34962},{"buffer":0,"byteLength":84,"byteOffset":1298860,"target":34963},{"buffer":0,"byteLength":360,"byteOffset":1298944,"target":34962},{"buffer":0,"byteLength":360,"byteOffset":1299304,"target":34962},{"buffer":0,"byteLength":480,"byteOffset":1299664,"target":34962},{"buffer":0,"byteLength":240,"byteOffset":1300144,"target":34962},{"buffer":0,"byteLength":90,"byteOffset":1300384,"target":34963},{"buffer":0,"byteLength":384,"byteOffset":1300476,"target":34962},{"buffer":0,"byteLength":384,"byteOffset":1300860,"target":34962},{"buffer":0,"byteLength":512,"byteOffset":1301244,"target":34962},{"buffer":0,"byteLength":256,"byteOffset":1301756,"target":34962},{"buffer":0,"byteLength":4410,"byteOffset":1302012,"target":34963},{"buffer":0,"byteLength":8016,"byteOffset":1306424,"target":34962},{"buffer":0,"byteLength":8016,"byteOffset":1314440,"target":34962},{"buffer":0,"byteLength":10688,"byteOffset":1322456,"target":34962},{"buffer":0,"byteLength":5344,"byteOffset":1333144,"target":34962},{"buffer":0,"byteLength":17532,"byteOffset":1338488,"target":34963},{"buffer":0,"byteLength":23400,"byteOffset":1356020,"target":34962},{"buffer":0,"byteLength":23400,"byteOffset":1379420,"target":34962},{"buffer":0,"byteLength":31200,"byteOffset":1402820,"target":34962},{"buffer":0,"byteLength":15600,"byteOffset":1434020,"target":34962},{"buffer":0,"byteLength":177,"byteOffset":1449620,"target":34963},{"buffer":0,"byteLength":708,"byteOffset":1449800,"target":34962},{"buffer":0,"byteLength":708,"byteOffset":1450508,"target":34962},{"buffer":0,"byteLength":944,"byteOffset":1451216,"target":34962},{"buffer":0,"byteLength":472,"byteOffset":1452160,"target":34962},{"buffer":0,"byteLength":5844,"byteOffset":1452632,"target":34963},{"buffer":0,"byteLength":7464,"byteOffset":1458476,"target":34962},{"buffer":0,"byteLength":7464,"byteOffset":1465940,"target":34962},{"buffer":0,"byteLength":9952,"byteOffset":1473404,"target":34962},{"buffer":0,"byteLength":4976,"byteOffset":1483356,"target":34962},{"buffer":0,"byteLength":15726,"byteOffset":1488332,"target":34963},{"buffer":0,"byteLength":20748,"byteOffset":1504060,"target":34962},{"buffer":0,"byteLength":20748,"byteOffset":1524808,"target":34962},{"buffer":0,"byteLength":13832,"byteOffset":1545556,"target":34962},{"buffer":0,"byteLength":2592,"byteOffset":1559388,"target":34963},{"buffer":0,"byteLength":5280,"byteOffset":1561980,"target":34962},{"buffer":0,"byteLength":5280,"byteOffset":1567260,"target":34962},{"buffer":0,"byteLength":7040,"byteOffset":1572540,"target":34962},{"buffer":0,"byteLength":3520,"byteOffset":1579580,"target":34962},{"buffer":0,"byteLength":240,"byteOffset":1583100,"target":34963},{"buffer":0,"byteLength":804,"byteOffset":1583340,"target":34962},{"buffer":0,"byteLength":804,"byteOffset":1584144,"target":34962},{"buffer":0,"byteLength":1072,"byteOffset":1584948,"target":34962},{"buffer":0,"byteLength":536,"byteOffset":1586020,"target":34962},{"buffer":0,"byteLength":222,"byteOffset":1586556,"target":34963},{"buffer":0,"byteLength":852,"byteOffset":1586780,"target":34962},{"buffer":0,"byteLength":852,"byteOffset":1587632,"target":34962},{"buffer":0,"byteLength":1136,"byteOffset":1588484,"target":34962},{"buffer":0,"byteLength":568,"byteOffset":1589620,"target":34962},{"buffer":0,"byteLength":540,"byteOffset":1590188,"target":34963},{"buffer":0,"byteLength":1608,"byteOffset":1590728,"target":34962},{"buffer":0,"byteLength":1608,"byteOffset":1592336,"target":34962},{"buffer":0,"byteLength":2144,"byteOffset":1593944,"target":34962},{"buffer":0,"byteLength":1072,"byteOffset":1596088,"target":34962},{"buffer":0,"byteLength":516,"byteOffset":1597160,"target":34963},{"buffer":0,"byteLength":1440,"byteOffset":1597676,"target":34962},{"buffer":0,"byteLength":1440,"byteOffset":1599116,"target":34962},{"buffer":0,"byteLength":1920,"byteOffset":1600556,"target":34962},{"buffer":0,"byteLength":960,"byteOffset":1602476,"target":34962},{"buffer":0,"byteLength":222,"byteOffset":1603436,"target":34963},{"buffer":0,"byteLength":828,"byteOffset":1603660,"target":34962},{"buffer":0,"byteLength":828,"byteOffset":1604488,"target":34962},{"buffer":0,"byteLength":1104,"byteOffset":1605316,"target":34962},{"buffer":0,"byteLength":552,"byteOffset":1606420,"target":34962},{"buffer":0,"byteLength":6444,"byteOffset":1606972,"target":34963},{"buffer":0,"byteLength":8700,"byteOffset":1613416,"target":34962},{"buffer":0,"byteLength":8700,"byteOffset":1622116,"target":34962},{"buffer":0,"byteLength":11600,"byteOffset":1630816,"target":34962},{"buffer":0,"byteLength":5800,"byteOffset":1642416,"target":34962},{"buffer":0,"byteLength":3072,"byteOffset":1648216,"target":34963},{"buffer":0,"byteLength":3528,"byteOffset":1651288,"target":34962},{"buffer":0,"byteLength":3528,"byteOffset":1654816,"target":34962},{"buffer":0,"byteLength":4704,"byteOffset":1658344,"target":34962},{"buffer":0,"byteLength":2352,"byteOffset":1663048,"target":34962},{"buffer":0,"byteLength":546,"byteOffset":1665400,"target":34963},{"buffer":0,"byteLength":1536,"byteOffset":1665948,"target":34962},{"buffer":0,"byteLength":1536,"byteOffset":1667484,"target":34962},{"buffer":0,"byteLength":2048,"byteOffset":1669020,"target":34962},{"buffer":0,"byteLength":1024,"byteOffset":1671068,"target":34962},{"buffer":1,"byteOffset":0,"byteLength":28908,"target":34962},{"buffer":1,"byteOffset":28908,"byteLength":28908,"target":34962},{"buffer":1,"byteOffset":57816,"byteLength":6480,"target":34962},{"buffer":1,"byteOffset":64296,"byteLength":6480,"target":34962},{"buffer":1,"byteOffset":70776,"byteLength":4320,"target":34962}],"buffers":[{"byteLength":1672092,"extras":{},"uri":"../pc12-v1-0.bin"},{"uri":"pc12-tail-v1.bin","byteLength":75096}],"images":[{"bufferView":0,"mimeType":"image/png","name":"texture.png","extras":{}},{"bufferView":1,"mimeType":"image/png","name":"prop.png","extras":{}},{"uri":"../../../airlines/ETH.png"}],"materials":[{"name":"DefaultWhite","pbrMetallicRoughness":{"baseColorTexture":{"index":0},"metallicFactor":0}},{"alphaMode":"BLEND","name":"transparent","pbrMetallicRoughness":{"baseColorFactor":[1,1,1,0.30000001192092896],"baseColorTexture":{"index":1},"metallicFactor":0}},{"alphaMode":"BLEND","name":"transparent.001","pbrMetallicRoughness":{"baseColorFactor":[1,1,1,0.30000001192092896],"metallicFactor":0}},{"name":"Operator tail paint","doubleSided":true,"pbrMetallicRoughness":{"baseColorFactor":[0.1450980392156863,0.5450980392156862,0.3137254901960784,1],"metallicFactor":0,"roughnessFactor":0.65}},{"name":"Operator logo identification","doubleSided":true,"alphaMode":"BLEND","pbrMetallicRoughness":{"baseColorTexture":{"index":2},"metallicFactor":0,"roughnessFactor":0.7},"emissiveFactor":[0.18,0.18,0.18],"emissiveTexture":{"index":2}}],"meshes":[{"name":"echappe","primitives":[{"attributes":{"NORMAL":2,"POSITION":1,"TEXCOORD_0":3},"indices":0,"material":0}]},{"name":"porteG","primitives":[{"attributes":{"NORMAL":6,"POSITION":5,"TANGENT":7,"TEXCOORD_0":8},"indices":4,"material":0}]},{"name":"helice","primitives":[{"attributes":{"NORMAL":11,"POSITION":10,"TANGENT":12,"TEXCOORD_0":13},"indices":9,"material":0}]},{"name":"vitres","primitives":[{"attributes":{"NORMAL":16,"POSITION":15,"TANGENT":17,"TEXCOORD_0":18},"indices":14,"material":2}]},{"name":"bol","primitives":[{"attributes":{"NORMAL":21,"POSITION":20,"TANGENT":22,"TEXCOORD_0":23},"indices":19,"material":0}]},{"name":"propblur","primitives":[{"attributes":{"NORMAL":26,"POSITION":25,"TANGENT":27,"TEXCOORD_0":28},"indices":24,"material":1}]},{"name":"porteAD","primitives":[{"attributes":{"NORMAL":31,"POSITION":30,"TANGENT":32,"TEXCOORD_0":33},"indices":29,"material":0}]},{"name":"voletD","primitives":[{"attributes":{"NORMAL":36,"POSITION":35,"TANGENT":37,"TEXCOORD_0":38},"indices":34,"material":0}]},{"name":"porteD","primitives":[{"attributes":{"NORMAL":41,"POSITION":40,"TANGENT":42,"TEXCOORD_0":43},"indices":39,"material":0}]},{"name":"bosse","primitives":[{"attributes":{"NORMAL":46,"POSITION":45,"TANGENT":47,"TEXCOORD_0":48},"indices":44,"material":0}]},{"name":"antennes","primitives":[{"attributes":{"NORMAL":51,"POSITION":50,"TEXCOORD_0":52},"indices":49,"material":0}]},{"name":"porte","primitives":[{"attributes":{"NORMAL":55,"POSITION":54,"TANGENT":56,"TEXCOORD_0":57},"indices":53,"material":0}]},{"name":"vitrebaie","primitives":[{"attributes":{"NORMAL":60,"POSITION":59,"TANGENT":61,"TEXCOORD_0":62},"indices":58,"material":2}]},{"name":"trous","primitives":[{"attributes":{"NORMAL":65,"POSITION":64,"TANGENT":66,"TEXCOORD_0":67},"indices":63,"material":0}]},{"name":"ailes","primitives":[{"attributes":{"NORMAL":70,"POSITION":69,"TANGENT":71,"TEXCOORD_0":72},"indices":68,"material":0}]},{"name":"baie","primitives":[{"attributes":{"NORMAL":75,"POSITION":74,"TANGENT":76,"TEXCOORD_0":77},"indices":73,"material":0}]},{"name":"profondeur","primitives":[{"attributes":{"NORMAL":80,"POSITION":79,"TANGENT":81,"TEXCOORD_0":82},"indices":78,"material":0}]},{"name":"fuselage","primitives":[{"attributes":{"NORMAL":85,"POSITION":84,"TEXCOORD_0":86},"indices":83,"material":0}]},{"name":"propdisc","primitives":[{"attributes":{"NORMAL":89,"POSITION":88,"TANGENT":90,"TEXCOORD_0":91},"indices":87,"material":1}]},{"name":"porteAG","primitives":[{"attributes":{"NORMAL":94,"POSITION":93,"TANGENT":95,"TEXCOORD_0":96},"indices":92,"material":0}]},{"name":"aileronD","primitives":[{"attributes":{"NORMAL":99,"POSITION":98,"TANGENT":100,"TEXCOORD_0":101},"indices":97,"material":0}]},{"name":"ailes3","primitives":[{"attributes":{"NORMAL":104,"POSITION":103,"TANGENT":105,"TEXCOORD_0":106},"indices":102,"material":0}]},{"name":"ailes2","primitives":[{"attributes":{"NORMAL":109,"POSITION":108,"TANGENT":110,"TEXCOORD_0":111},"indices":107,"material":0}]},{"name":"aileronG","primitives":[{"attributes":{"NORMAL":114,"POSITION":113,"TANGENT":115,"TEXCOORD_0":116},"indices":112,"material":0}]},{"name":"voletG","primitives":[{"attributes":{"NORMAL":119,"POSITION":118,"TANGENT":120,"TEXCOORD_0":121},"indices":117,"material":0}]},{"name":"ajout","primitives":[{"attributes":{"NORMAL":124,"POSITION":123,"TANGENT":125,"TEXCOORD_0":126},"indices":122,"material":0}]},{"name":"direction","primitives":[{"attributes":{"NORMAL":129,"POSITION":128,"TANGENT":130,"TEXCOORD_0":131},"indices":127,"material":0}]},{"name":"Airline tail surface overlay","primitives":[{"attributes":{"POSITION":132,"NORMAL":133},"material":3},{"attributes":{"POSITION":134,"NORMAL":135,"TEXCOORD_0":136},"material":4}]}],"nodes":[{"mesh":20,"name":"aileronD"},{"mesh":23,"name":"aileronG"},{"mesh":14,"name":"ailes"},{"mesh":22,"name":"ailes2"},{"mesh":21,"name":"ailes3"},{"mesh":25,"name":"ajout"},{"mesh":10,"name":"antennes"},{"mesh":15,"name":"baie"},{"mesh":4,"name":"bol"},{"mesh":9,"name":"bosse"},{"mesh":26,"name":"direction"},{"mesh":0,"name":"echappe"},{"mesh":17,"name":"fuselage"},{"name":"fuselage.001"},{"mesh":2,"name":"helice"},{"mesh":11,"name":"porte"},{"mesh":6,"name":"porteAD"},{"mesh":19,"name":"porteAG"},{"mesh":8,"name":"porteD"},{"mesh":1,"name":"porteG"},{"mesh":16,"name":"profondeur"},{"mesh":5,"name":"propblur"},{"mesh":18,"name":"propdisc"},{"mesh":13,"name":"trous"},{"mesh":12,"name":"vitrebaie"},{"mesh":3,"name":"vitres"},{"mesh":7,"name":"voletD"},{"mesh":24,"name":"voletG"},{"name":"SkywardCoordinateAlignment","matrix":[1,0,0,0,0,1,0,0,0,0,1,0,0,0,0,1],"children":[27,26,25,24,23,22,21,20,19,18,17,16,15,14,13,12,11,10,9,8,7,6,5,4,3,2,1,0]},{"name":"AirlineTailBranding","mesh":27}],"samplers":[{},{"magFilter":9729,"minFilter":9987,"wrapS":33071,"wrapT":33071}],"scene":0,"scenes":[{"name":"Scene","nodes":[28,29]}],"textures":[{"sampler":0,"source":0},{"sampler":0,"source":1},{"source":2,"sampler":1}],"extras":{"skyward":{"source":"https://github.com/Ysurac/FlightAirMap-3dmodels","commit":"0906d9ba1bdd906ce45807e45ed706c09912db19","changes":"Converted legacy glTF to glTF 2.0 with Cesium; rigid axis alignment, horizontal centering, and source transforms baked into positions/normals for correct Cesium bounds. Original shape, materials and paint retained. Added surface-following operator tail paint and unmodified identification-logo texture. Branding is illustrative, not a registration-specific livery.","license":"GPL-2.0","sourceFiles":["source/flightairmap/pc12/COPYING","source/flightairmap/pc12/pc12.blend"],"operator":"ETH"}}}