{"accessors":[{"bufferView":4,"componentType":5121,"count":144,"max":[74],"min":[0],"type":"SCALAR"},{"bufferView":5,"componentType":5126,"count":75,"max":[0.14469002187252045,2.287863254547119,-3.677950382232666],"min":[-0.14469102025032043,0.7779120802879333,-4.347680568695068],"type":"VEC3"},{"bufferView":6,"componentType":5126,"count":75,"type":"VEC3"},{"bufferView":7,"componentType":5126,"count":75,"max":[0.9247140288352966,0.36691200733184814],"min":[0.11697199940681458,0.002373993396759033],"type":"VEC2"},{"bufferView":8,"componentType":5123,"count":8388,"max":[1887],"min":[0],"type":"SCALAR"},{"bufferView":9,"componentType":5126,"count":1888,"max":[3.9994804859161377,0.8838410973548889,3.9803404808044434],"min":[-3.9994804859161377,0.24706800282001495,0.18217189610004425],"type":"VEC3"},{"bufferView":10,"componentType":5126,"count":1888,"type":"VEC3"},{"bufferView":11,"componentType":5126,"count":1888,"max":[1,1],"min":[-0.027799999341368675,0],"type":"VEC2"},{"bufferView":12,"componentType":5123,"count":582,"max":[271],"min":[0],"type":"SCALAR"},{"bufferView":13,"componentType":5126,"count":272,"max":[1.233695149421692,0.44474703073501587,2.964674711227417],"min":[-1.2217451333999634,0.19373901188373566,0.5106302499771118],"type":"VEC3"},{"bufferView":14,"componentType":5126,"count":272,"type":"VEC3"},{"bufferView":15,"componentType":5126,"count":272,"max":[1,1],"min":[0,0],"type":"VEC2"},{"bufferView":16,"componentType":5123,"count":2193,"max":[783],"min":[0],"type":"SCALAR"},{"bufferView":17,"componentType":5126,"count":784,"max":[0.3832431733608246,1.90798020362854,2.3729143142700195],"min":[-0.37554407119750977,1.0781000852584839,-0.7107349634170532],"type":"VEC3"},{"bufferView":18,"componentType":5126,"count":784,"type":"VEC3"},{"bufferView":19,"componentType":5126,"count":784,"max":[0.7959679961204529,0.33682000637054443],"min":[0.24829599261283875,0.11046701669692993],"type":"VEC2"},{"bufferView":20,"componentType":5123,"count":1914,"max":[485],"min":[0],"type":"SCALAR"},{"bufferView":21,"componentType":5126,"count":486,"max":[4.034000396728516,1.9380232095718384,2.3298304080963135],"min":[-4.034000396728516,0.49445101618766785,-0.6507378816604614],"type":"VEC3"},{"bufferView":22,"componentType":5126,"count":486,"type":"VEC3"},{"bufferView":23,"componentType":5126,"count":486,"max":[1.0277999639511108,1],"min":[0,0.0059490203857421875],"type":"VEC2"},{"bufferView":24,"componentType":5121,"count":270,"max":[60],"min":[0],"type":"SCALAR"},{"bufferView":25,"componentType":5126,"count":61,"max":[1.0717593431472778,1.7856272459030151,4.342953681945801],"min":[-1.0728809833526611,-0.3442629873752594,4.201074600219727],"type":"VEC3"},{"bufferView":26,"componentType":5126,"count":61,"type":"VEC3"},{"bufferView":27,"componentType":5126,"count":61,"max":[1,1],"min":[0,0],"type":"VEC2"},{"bufferView":28,"componentType":5121,"count":270,"max":[60],"min":[0],"type":"SCALAR"},{"bufferView":29,"componentType":5126,"count":61,"max":[1.0717593431472778,1.7856272459030151,4.342953681945801],"min":[-1.0728809833526611,-0.3442629873752594,4.201074600219727],"type":"VEC3"},{"bufferView":30,"componentType":5126,"count":61,"type":"VEC3"},{"bufferView":31,"componentType":5126,"count":61,"max":[1,1],"min":[0,0],"type":"VEC2"},{"bufferView":32,"componentType":5121,"count":210,"max":[101],"min":[0],"type":"SCALAR"},{"bufferView":33,"componentType":5126,"count":102,"max":[0.2655090391635895,0.3066777288913727,0.4282042384147644],"min":[-0.2611140310764313,0.23492172360420227,-0.09822584688663483],"type":"VEC3"},{"bufferView":34,"componentType":5126,"count":102,"type":"VEC3"},{"bufferView":35,"componentType":5126,"count":102,"max":[0.5994899868965149,0.42168498039245605],"min":[0.44402799010276794,0.025278985500335693],"type":"VEC2"},{"bufferView":36,"componentType":5121,"count":432,"max":[197],"min":[0],"type":"SCALAR"},{"bufferView":37,"componentType":5126,"count":198,"max":[0.034598104655742645,1.6952831745147705,2.902970552444458],"min":[-0.03459780290722847,0.26295211911201477,-2.6808903217315674],"type":"VEC3"},{"bufferView":38,"componentType":5126,"count":198,"type":"VEC3"},{"bufferView":39,"componentType":5126,"count":198,"max":[0.8495209813117981,0.75],"min":[0.1949470043182373,0],"type":"VEC2"},{"bufferView":40,"componentType":5123,"count":26925,"max":[6885],"min":[0],"type":"SCALAR"},{"bufferView":41,"componentType":5126,"count":6886,"max":[4.008930683135986,2.9724135398864746,4.9394307136535645],"min":[-4.00454044342041,0.017003975808620453,-4.9394307136535645],"type":"VEC3"},{"bufferView":42,"componentType":5126,"count":6886,"type":"VEC3"},{"bufferView":43,"componentType":5126,"count":6886,"max":[1,1],"min":[0,0.002373993396759033],"type":"VEC2"},{"bufferView":44,"componentType":5123,"count":4800,"max":[978],"min":[0],"type":"SCALAR"},{"bufferView":45,"componentType":5126,"count":979,"max":[1.0117502212524414,1.7111302614212036,4.406764984130859],"min":[-0.9860270023345947,-0.20529106259346008,4.185104846954346],"type":"VEC3"},{"bufferView":46,"componentType":5126,"count":979,"type":"VEC3"},{"bufferView":47,"componentType":5126,"count":979,"max":[0.9826279878616333,0.9205378964543343],"min":[0.02706330083310604,0.003886997699737549],"type":"VEC2"},{"bufferView":48,"componentType":5126,"count":4275,"type":"VEC3","min":[-0.39334927847660955,0.8165737971663476,-4.930850505828857],"max":[0.4004832799902228,2.9724135398864746,-1.1856]},{"bufferView":49,"componentType":5126,"count":4275,"type":"VEC3"},{"bufferView":50,"componentType":5126,"count":1362,"type":"VEC3","min":[-0.23396196097939076,0.9544823265482184,-4.090707506604075],"max":[0.24109291683261194,1.8738725224273578,-3.171317310724936]},{"bufferView":51,"componentType":5126,"count":1362,"type":"VEC3"},{"bufferView":52,"componentType":5126,"count":1362,"type":"VEC2"}],"asset":{"generator":"Khronos Blender glTF 2.0 exporter","version":"2.0","copyright":"FlightGear model authors / FlightAirMap contributors; GPL-3.0. See source/flightairmap/pc21/ for license and editable sources."},"bufferViews":[{"buffer":0,"byteLength":240001,"byteOffset":0},{"buffer":0,"byteLength":19524,"byteOffset":240001},{"buffer":0,"byteLength":16693,"byteOffset":259525},{"buffer":0,"byteLength":57783,"byteOffset":276218},{"buffer":0,"byteLength":144,"byteOffset":334001,"target":34963},{"buffer":0,"byteLength":900,"byteOffset":334148,"target":34962},{"buffer":0,"byteLength":900,"byteOffset":335048,"target":34962},{"buffer":0,"byteLength":600,"byteOffset":335948,"target":34962},{"buffer":0,"byteLength":16776,"byteOffset":336548,"target":34963},{"buffer":0,"byteLength":22656,"byteOffset":353324,"target":34962},{"buffer":0,"byteLength":22656,"byteOffset":375980,"target":34962},{"buffer":0,"byteLength":15104,"byteOffset":398636,"target":34962},{"buffer":0,"byteLength":1164,"byteOffset":413740,"target":34963},{"buffer":0,"byteLength":3264,"byteOffset":414904,"target":34962},{"buffer":0,"byteLength":3264,"byteOffset":418168,"target":34962},{"buffer":0,"byteLength":2176,"byteOffset":421432,"target":34962},{"buffer":0,"byteLength":4386,"byteOffset":423608,"target":34963},{"buffer":0,"byteLength":9408,"byteOffset":427996,"target":34962},{"buffer":0,"byteLength":9408,"byteOffset":437404,"target":34962},{"buffer":0,"byteLength":6272,"byteOffset":446812,"target":34962},{"buffer":0,"byteLength":3828,"byteOffset":453084,"target":34963},{"buffer":0,"byteLength":5832,"byteOffset":456912,"target":34962},{"buffer":0,"byteLength":5832,"byteOffset":462744,"target":34962},{"buffer":0,"byteLength":3888,"byteOffset":468576,"target":34962},{"buffer":0,"byteLength":270,"byteOffset":472464,"target":34963},{"buffer":0,"byteLength":732,"byteOffset":472736,"target":34962},{"buffer":0,"byteLength":732,"byteOffset":473468,"target":34962},{"buffer":0,"byteLength":488,"byteOffset":474200,"target":34962},{"buffer":0,"byteLength":270,"byteOffset":474688,"target":34963},{"buffer":0,"byteLength":732,"byteOffset":474960,"target":34962},{"buffer":0,"byteLength":732,"byteOffset":475692,"target":34962},{"buffer":0,"byteLength":488,"byteOffset":476424,"target":34962},{"buffer":0,"byteLength":210,"byteOffset":476912,"target":34963},{"buffer":0,"byteLength":1224,"byteOffset":477124,"target":34962},{"buffer":0,"byteLength":1224,"byteOffset":478348,"target":34962},{"buffer":0,"byteLength":816,"byteOffset":479572,"target":34962},{"buffer":0,"byteLength":432,"byteOffset":480388,"target":34963},{"buffer":0,"byteLength":2376,"byteOffset":480820,"target":34962},{"buffer":0,"byteLength":2376,"byteOffset":483196,"target":34962},{"buffer":0,"byteLength":1584,"byteOffset":485572,"target":34962},{"buffer":0,"byteLength":53850,"byteOffset":487156,"target":34963},{"buffer":0,"byteLength":82632,"byteOffset":541008,"target":34962},{"buffer":0,"byteLength":82632,"byteOffset":623640,"target":34962},{"buffer":0,"byteLength":55088,"byteOffset":706272,"target":34962},{"buffer":0,"byteLength":9600,"byteOffset":761360,"target":34963},{"buffer":0,"byteLength":11748,"byteOffset":770960,"target":34962},{"buffer":0,"byteLength":11748,"byteOffset":782708,"target":34962},{"buffer":0,"byteLength":7832,"byteOffset":794456,"target":34962},{"buffer":1,"byteOffset":0,"byteLength":51300,"target":34962},{"buffer":1,"byteOffset":51300,"byteLength":51300,"target":34962},{"buffer":1,"byteOffset":102600,"byteLength":16344,"target":34962},{"buffer":1,"byteOffset":118944,"byteLength":16344,"target":34962},{"buffer":1,"byteOffset":135288,"byteLength":10896,"target":34962}],"buffers":[{"byteLength":802288,"extras":{},"uri":"../pc21-v1-0.bin"},{"uri":"pc21-tail-v1.bin","byteLength":146184}],"images":[{"bufferView":0,"mimeType":"image/png","name":"Blur","extras":{}},{"bufferView":1,"mimeType":"image/png","name":"Disk","extras":{}},{"bufferView":2,"mimeType":"image/png","name":"Propeller","extras":{}},{"bufferView":3,"mimeType":"image/png","name":"Default","extras":{}},{"uri":"../../../airlines/KLM.png"}],"materials":[{"name":"ac3dmat1","pbrMetallicRoughness":{"baseColorFactor":[0.800000011920929,0.800000011920929,0.800000011920929,1],"metallicFactor":0}},{"name":"ac3dmat12","pbrMetallicRoughness":{"baseColorFactor":[0.21333360989888916,0.21333360989888916,0.21333360989888916,1],"metallicFactor":0}},{"alphaMode":"BLEND","name":"ac3dmat14","pbrMetallicRoughness":{"baseColorFactor":[0.6400000190734865,0.6400000190734865,0.6400000190734865,0.14499999582767487],"baseColorTexture":{"index":0},"metallicFactor":0}},{"alphaMode":"BLEND","name":"ac3dmat14.001","pbrMetallicRoughness":{"baseColorFactor":[0.6400000190734865,0.6400000190734865,0.6400000190734865,0.14499999582767487],"baseColorTexture":{"index":1},"metallicFactor":0}},{"name":"Untitled","pbrMetallicRoughness":{"baseColorFactor":[0.7119999991655348,0.7119999991655348,0.7119999991655348,1],"metallicFactor":0}},{"name":"Untitled.001","pbrMetallicRoughness":{"baseColorFactor":[0.7119999991655348,0.7119999991655348,0.7119999991655348,1],"baseColorTexture":{"index":2},"metallicFactor":0}},{"name":"Untitled.002","pbrMetallicRoughness":{"baseColorFactor":[0.7119999991655348,0.7119999991655348,0.7119999991655348,1],"baseColorTexture":{"index":3},"metallicFactor":0}},{"name":"Untitled.003","pbrMetallicRoughness":{"baseColorFactor":[0.4000000059604645,0.4000000059604645,0.4000000059604645,1],"metallicFactor":0}},{"name":"Untitled.005","pbrMetallicRoughness":{"baseColorFactor":[0.800000011920929,0.800000011920929,0.800000011920929,1],"metallicFactor":0}},{"alphaMode":"BLEND","name":"Untitled.006","pbrMetallicRoughness":{"baseColorFactor":[0.4000000059604645,0.4000000059604645,0.4000000059604645,0.20000000298023224],"metallicFactor":0}},{"name":"Untitled.007","pbrMetallicRoughness":{"baseColorFactor":[0.800000011920929,0.800000011920929,0.800000011920929,1],"baseColorTexture":{"index":3},"metallicFactor":0}},{"name":"Operator tail paint","doubleSided":true,"pbrMetallicRoughness":{"baseColorFactor":[0.13725490196078433,0.6470588235294118,0.8352941176470589,1],"metallicFactor":0,"roughnessFactor":0.65}},{"name":"Operator logo identification","doubleSided":true,"alphaMode":"BLEND","pbrMetallicRoughness":{"baseColorTexture":{"index":4},"metallicFactor":0,"roughnessFactor":0.7},"emissiveFactor":[0.18,0.18,0.18],"emissiveTexture":{"index":4}}],"meshes":[{"name":"airframe.mesh","primitives":[{"attributes":{"NORMAL":2,"POSITION":1,"TEXCOORD_0":3},"indices":0,"material":10},{"attributes":{"NORMAL":6,"POSITION":5,"TEXCOORD_0":7},"indices":4,"material":7},{"attributes":{"NORMAL":10,"POSITION":9,"TEXCOORD_0":11},"indices":8,"material":0},{"attributes":{"NORMAL":14,"POSITION":13,"TEXCOORD_0":15},"indices":12,"material":1},{"attributes":{"NORMAL":18,"POSITION":17,"TEXCOORD_0":19},"indices":16,"material":9},{"attributes":{"NORMAL":22,"POSITION":21,"TEXCOORD_0":23},"indices":20,"material":3},{"attributes":{"NORMAL":26,"POSITION":25,"TEXCOORD_0":27},"indices":24,"material":2},{"attributes":{"NORMAL":30,"POSITION":29,"TEXCOORD_0":31},"indices":28,"material":4},{"attributes":{"NORMAL":34,"POSITION":33,"TEXCOORD_0":35},"indices":32,"material":8},{"attributes":{"NORMAL":38,"POSITION":37,"TEXCOORD_0":39},"indices":36,"material":6},{"attributes":{"NORMAL":42,"POSITION":41,"TEXCOORD_0":43},"indices":40,"material":5}]},{"name":"Airline tail surface overlay","primitives":[{"attributes":{"POSITION":44,"NORMAL":45},"material":11},{"attributes":{"POSITION":46,"NORMAL":47,"TEXCOORD_0":48},"material":12}]}],"nodes":[{"mesh":0,"name":"airframe"},{"name":"SkywardCoordinateAlignment","matrix":[1,0,0,0,0,1,0,0,0,0,1,0,0,0,0,1],"children":[0]},{"name":"AirlineTailBranding","mesh":1}],"samplers":[{},{"magFilter":9729,"minFilter":9987,"wrapS":33071,"wrapT":33071}],"scene":0,"scenes":[{"name":"Scene","nodes":[1,2]}],"textures":[{"sampler":0,"source":0},{"sampler":0,"source":1},{"sampler":0,"source":2},{"sampler":0,"source":3},{"source":4,"sampler":1}],"extras":{"skyward":{"source":"https://github.com/Ysurac/FlightAirMap-3dmodels","commit":"0906d9ba1bdd906ce45807e45ed706c09912db19","changes":"Converted legacy glTF to glTF 2.0 with Cesium; rigid axis alignment, horizontal centering, and source transforms baked into positions/normals for correct Cesium bounds. Original shape, materials and paint retained. Added surface-following operator tail paint and unmodified identification-logo texture. Branding is illustrative, not a registration-specific livery.","license":"GPL-3.0","sourceFiles":["source/flightairmap/pc21/License.txt","source/flightairmap/pc21/pc21.blend","source/flightairmap/pc21/pc21.blend1"],"operator":"KLM"}}}