{"accessors":[{"bufferView":65,"byteOffset":0,"componentType":5123,"count":300,"type":"SCALAR","min":[0],"max":[115],"name":"accessor_102"},{"bufferView":7,"byteOffset":0,"componentType":5126,"count":116,"max":[-0.7214937806129456,3.03253173828125,-8.669500350952148],"min":[-1.2528387308120728,1.2746368646621704,-9.461480140686035],"type":"VEC3","name":"accessor_104"},{"bufferView":7,"byteOffset":1392,"componentType":5126,"count":116,"max":[0.999675989151001,0.7750840187072754,0.9997349977493286],"min":[-0.9996749758720398,-0.7723559737205505,-0.9996839761734009],"type":"VEC3","name":"accessor_106"},{"bufferView":8,"byteOffset":0,"componentType":5126,"count":116,"max":[0.1874530017375946,0.24342602491378784],"min":[-0.17992399632930756,0.02345198392868042],"type":"VEC2","name":"accessor_108"},{"bufferView":65,"byteOffset":600,"componentType":5123,"count":288,"type":"SCALAR","min":[0],"max":[107],"name":"accessor_129"},{"bufferView":9,"byteOffset":0,"componentType":5126,"count":108,"max":[-0.8328025341033936,3.2565228939056396,8.198029518127441],"min":[-1.2505295276641846,1.498626947402954,7.406049728393555],"type":"VEC3","name":"accessor_131"},{"bufferView":9,"byteOffset":1296,"componentType":5126,"count":108,"max":[0.9999989867210388,0.9993910193443298,0.9996470212936401],"min":[-0.9999989867210388,-0.9993910193443298,-0.9996470212936401],"type":"VEC3","name":"accessor_133"},{"bufferView":10,"byteOffset":0,"componentType":5126,"count":108,"max":[0.7089260220527649,0.5187569856643677],"min":[-0.3985530138015747,0.025852978229522705],"type":"VEC2","name":"accessor_135"},{"bufferView":65,"byteOffset":1176,"componentType":5123,"count":300,"type":"SCALAR","min":[0],"max":[115],"name":"accessor_156"},{"bufferView":11,"byteOffset":0,"componentType":5126,"count":116,"max":[1.344641089439392,3.03253173828125,-8.669488906860352],"min":[0.8132962584495544,1.2746368646621704,-9.461479187011719],"type":"VEC3","name":"accessor_158"},{"bufferView":11,"byteOffset":1392,"componentType":5126,"count":116,"max":[0.9996749758720398,0.7750830054283142,0.9997349977493286],"min":[-0.999675989151001,-0.7723590135574341,-0.9996839761734009],"type":"VEC3","name":"accessor_160"},{"bufferView":12,"byteOffset":0,"componentType":5126,"count":116,"max":[0.8343199491500854,1],"min":[0,0.12123697996139526],"type":"VEC2","name":"accessor_162"},{"bufferView":65,"byteOffset":1776,"componentType":5123,"count":288,"type":"SCALAR","min":[0],"max":[107],"name":"accessor_183"},{"bufferView":13,"byteOffset":0,"componentType":5126,"count":108,"max":[1.3423304557800293,3.2565219402313232,8.198030471801758],"min":[0.9246034622192383,1.498626947402954,7.406049728393555],"type":"VEC3","name":"accessor_185"},{"bufferView":13,"byteOffset":1296,"componentType":5126,"count":108,"max":[0.9999989867210388,0.9993910193443298,0.9996470212936401],"min":[-0.9999989867210388,-0.9993910193443298,-0.9996470212936401],"type":"VEC3","name":"accessor_187"},{"bufferView":14,"byteOffset":0,"componentType":5126,"count":108,"max":[0.3133949935436249,1],"min":[0,0.12359201908111572],"type":"VEC2","name":"accessor_189"},{"bufferView":65,"byteOffset":2352,"componentType":5123,"count":594,"type":"SCALAR","min":[0],"max":[182],"name":"accessor_21"},{"bufferView":65,"byteOffset":3540,"componentType":5123,"count":360,"type":"SCALAR","min":[0],"max":[116],"name":"accessor_210"},{"bufferView":15,"byteOffset":0,"componentType":5126,"count":117,"max":[4.155812740325928,8.093437194824219,17.987110137939453],"min":[-4.052587032318115,7.896049976348877,17.312973022460938],"type":"VEC3","name":"accessor_212"},{"bufferView":15,"byteOffset":1404,"componentType":5126,"count":117,"max":[0.8592289686203003,0.997996985912323,0.3598119914531708],"min":[-0.8592289686203003,-0.9870539903640747,-0.7856379747390747],"type":"VEC3","name":"accessor_214"},{"bufferView":16,"byteOffset":0,"componentType":5126,"count":117,"max":[0.6071130037307739,0.5311579704284668],"min":[0.001851979992352426,0.5038610100746155],"type":"VEC2","name":"accessor_216"},{"bufferView":17,"byteOffset":0,"componentType":5126,"count":183,"max":[-10.57289981842041,4.273687839508057,2.0574464797973633],"min":[-14.179399490356445,3.7856760025024414,0.923090398311615],"type":"VEC3","name":"accessor_23"},{"bufferView":65,"byteOffset":4260,"componentType":5123,"count":6816,"type":"SCALAR","min":[0],"max":[1661],"name":"accessor_237"},{"bufferView":17,"byteOffset":2196,"componentType":5126,"count":1662,"max":[4.886439800262451,3.7876319885253906,4.406510353088379],"min":[-4.794634819030762,2.0849268436431885,-3.674619674682617],"type":"VEC3","name":"accessor_239"},{"bufferView":17,"byteOffset":22140,"componentType":5126,"count":1662,"max":[1,1,1],"min":[-1,-1,-1],"type":"VEC3","name":"accessor_241"},{"bufferView":18,"byteOffset":0,"componentType":5126,"count":1662,"max":[0.9994509816169739,0.9987220168113708],"min":[0.3167159855365753,0.6415059566497803],"type":"VEC2","name":"accessor_243"},{"bufferView":19,"byteOffset":0,"componentType":5126,"count":183,"max":[1,0.9996599555015564,0.6677219867706299],"min":[-1,-0.9979540109634399,-0.9987549781799316],"type":"VEC3","name":"accessor_25"},{"bufferView":65,"byteOffset":17892,"componentType":5123,"count":240,"type":"SCALAR","min":[0],"max":[109],"name":"accessor_264"},{"bufferView":19,"byteOffset":2196,"componentType":5126,"count":110,"max":[3.8197507858276367,3.6920430660247803,2.653717041015625],"min":[-3.7279491424560547,3.414217948913574,1.7019367218017578],"type":"VEC3","name":"accessor_266"},{"bufferView":19,"byteOffset":3516,"componentType":5126,"count":110,"max":[1,0.975479006767273,0.526485025882721],"min":[-1,-0.9999979734420776,-0.9996849894523621],"type":"VEC3","name":"accessor_268"},{"bufferView":20,"byteOffset":0,"componentType":5126,"count":183,"max":[0.1434040069580078,1],"min":[0,0.15502500534057617],"type":"VEC2","name":"accessor_27"},{"bufferView":20,"byteOffset":1464,"componentType":5126,"count":110,"max":[0.9818339943885803,0.41298800706863403],"min":[0.01826000027358532,0.19954699277877808],"type":"VEC2","name":"accessor_270"},{"bufferView":65,"byteOffset":18372,"componentType":5123,"count":186,"type":"SCALAR","min":[0],"max":[73],"name":"accessor_291"},{"bufferView":21,"byteOffset":0,"componentType":5126,"count":74,"max":[-5.48293924331665,4.0000810623168945,2.405146598815918],"min":[-10.57289981842041,3.43700909614563,1.5098365545272827],"type":"VEC3","name":"accessor_293"},{"bufferView":21,"byteOffset":888,"componentType":5126,"count":74,"max":[1,0.972582995891571,0.6030460000038147],"min":[-1,-0.9977380037307739,-0.9994490146636963],"type":"VEC3","name":"accessor_295"},{"bufferView":22,"byteOffset":0,"componentType":5126,"count":74,"max":[0.37754499912261963,0.41526901721954346],"min":[0.1675339937210083,0.20531600713729858],"type":"VEC2","name":"accessor_297"},{"bufferView":65,"byteOffset":18744,"componentType":5123,"count":186,"type":"SCALAR","min":[0],"max":[69],"name":"accessor_318"},{"bufferView":23,"byteOffset":0,"componentType":5126,"count":70,"max":[10.664700508117676,4.0000810623168945,2.405147075653076],"min":[5.574740886688232,3.43700909614563,1.5098375082015991],"type":"VEC3","name":"accessor_320"},{"bufferView":23,"byteOffset":840,"componentType":5126,"count":70,"max":[1,0.972582995891571,0.6030449867248535],"min":[-1,-0.9977380037307739,-0.9994490146636963],"type":"VEC3","name":"accessor_322"},{"bufferView":24,"byteOffset":0,"componentType":5126,"count":70,"max":[0.8325080275535583,0.41526901721954346],"min":[0.622497022151947,0.20531600713729858],"type":"VEC2","name":"accessor_324"},{"bufferView":65,"byteOffset":19116,"componentType":5123,"count":10821,"type":"SCALAR","min":[0],"max":[2594],"name":"accessor_345"},{"bufferView":25,"byteOffset":0,"componentType":5126,"count":2595,"max":[1.4568006992340088,3.8049397468566895,17.04680061340332],"min":[-1.3649992942810059,0.3881199359893799,-13.922799110412598],"type":"VEC3","name":"accessor_347"},{"bufferView":25,"byteOffset":31140,"componentType":5126,"count":2595,"max":[1,1,1],"min":[-1,-1,-1],"type":"VEC3","name":"accessor_349"},{"bufferView":26,"byteOffset":0,"componentType":5126,"count":2595,"max":[0.9982050061225891,0.19758599996566772],"min":[0.002349969930946827,0.005492031574249268],"type":"VEC2","name":"accessor_351"},{"bufferView":65,"byteOffset":40758,"componentType":5123,"count":348,"type":"SCALAR","min":[0],"max":[119],"name":"accessor_372"},{"bufferView":27,"byteOffset":0,"componentType":5126,"count":120,"max":[-4.302781105041504,2.392310857772827,3.3758599758148193],"min":[-4.789620399475098,2.086796998977661,1.265160083770752],"type":"VEC3","name":"accessor_374"},{"bufferView":27,"byteOffset":1440,"componentType":5126,"count":120,"max":[1,0.9998809695243835,0.9999380111694336],"min":[-1,-0.9998809695243835,-0.9999380111694336],"type":"VEC3","name":"accessor_376"},{"bufferView":28,"byteOffset":0,"componentType":5126,"count":120,"max":[0.9573569893836975,0.9980640411376953],"min":[0.8750540018081665,0.974714994430542],"type":"VEC2","name":"accessor_378"},{"bufferView":65,"byteOffset":41454,"componentType":5123,"count":348,"type":"SCALAR","min":[0],"max":[117],"name":"accessor_399"},{"bufferView":29,"byteOffset":0,"componentType":5126,"count":118,"max":[-3.84421968460083,2.392310380935669,3.3758599758148193],"min":[-4.33105993270874,2.0867958068847656,1.265160083770752],"type":"VEC3","name":"accessor_401"},{"bufferView":29,"byteOffset":1416,"componentType":5126,"count":118,"max":[1,0.9998809695243835,0.9999380111694336],"min":[-1,-0.9998809695243835,-0.9999380111694336],"type":"VEC3","name":"accessor_403"},{"bufferView":30,"byteOffset":0,"componentType":5126,"count":118,"max":[0.8411419987678528,0.9080830216407776],"min":[0.7588399648666382,0.8847349882125854],"type":"VEC2","name":"accessor_405"},{"bufferView":65,"byteOffset":42150,"componentType":5123,"count":84,"type":"SCALAR","min":[0],"max":[43],"name":"accessor_426"},{"bufferView":31,"byteOffset":0,"componentType":5126,"count":44,"max":[-4.310122966766357,2.157139778137207,1.265373945236206],"min":[-4.775810241699219,2.0867979526519775,0.08906298875808716],"type":"VEC3","name":"accessor_428"},{"bufferView":31,"byteOffset":528,"componentType":5126,"count":44,"max":[0.9404789805412292,1,1],"min":[-0.9404780268669128,-1,-1],"type":"VEC3","name":"accessor_430"},{"bufferView":32,"byteOffset":0,"componentType":5126,"count":44,"max":[0.8750540018081665,0.9980640411376953],"min":[0.829181969165802,0.984067976474762],"type":"VEC2","name":"accessor_432"},{"bufferView":65,"byteOffset":42318,"componentType":5123,"count":84,"type":"SCALAR","min":[0],"max":[41],"name":"accessor_453"},{"bufferView":33,"byteOffset":0,"componentType":5126,"count":42,"max":[-3.858030319213867,2.157139778137207,1.2653748989105225],"min":[-4.323718070983887,2.0867979526519775,0.08906397968530655],"type":"VEC3","name":"accessor_455"},{"bufferView":33,"byteOffset":504,"componentType":5126,"count":42,"max":[0.9404799938201904,1,1],"min":[-0.9404780268669128,-1,-1],"type":"VEC3","name":"accessor_457"},{"bufferView":34,"byteOffset":0,"componentType":5126,"count":42,"max":[0.8870139718055725,0.9080830216407776],"min":[0.8411419987678528,0.8940880298614502],"type":"VEC2","name":"accessor_459"},{"bufferView":65,"byteOffset":42486,"componentType":5123,"count":498,"type":"SCALAR","min":[0],"max":[144],"name":"accessor_48"},{"bufferView":65,"byteOffset":43482,"componentType":5123,"count":96,"type":"SCALAR","min":[0],"max":[44],"name":"accessor_480"},{"bufferView":35,"byteOffset":0,"componentType":5126,"count":45,"max":[0.047811008989810944,0.8069982528686523,-12.099308967590332],"min":[-0.12096600979566574,0.7655266523361206,-12.433467864990234],"type":"VEC3","name":"accessor_482"},{"bufferView":35,"byteOffset":540,"componentType":5126,"count":45,"max":[0.9954320192337036,0.9953209757804871,0.9997770190238953],"min":[-0.9954320192337036,-0.9953209757804871,-0.9997770190238953],"type":"VEC3","name":"accessor_484"},{"bufferView":36,"byteOffset":0,"componentType":5126,"count":45,"max":[0.08204299956560135,0.09709197282791138],"min":[0.0717409998178482,0.09378600120544434],"type":"VEC2","name":"accessor_486"},{"bufferView":37,"byteOffset":0,"componentType":5126,"count":145,"max":[14.271200180053711,4.283960819244385,2.0574474334716797],"min":[10.664700508117676,3.7824230194091797,1.0233055353164673],"type":"VEC3","name":"accessor_50"},{"bufferView":65,"byteOffset":43674,"componentType":5123,"count":96,"type":"SCALAR","min":[0],"max":[41],"name":"accessor_507"},{"bufferView":37,"byteOffset":1740,"componentType":5126,"count":42,"max":[0.21276900172233582,0.8069982528686523,-12.099308967590332],"min":[0.04399199038743973,0.7655267715454102,-12.433467864990234],"type":"VEC3","name":"accessor_509"},{"bufferView":37,"byteOffset":2244,"componentType":5126,"count":42,"max":[0.9954320192337036,0.9953209757804871,0.9997770190238953],"min":[-0.9954320192337036,-0.9953209757804871,-0.9997770190238953],"type":"VEC3","name":"accessor_511"},{"bufferView":38,"byteOffset":0,"componentType":5126,"count":42,"max":[0.9277809858322144,0.19509398937225342],"min":[0.9174789786338806,0.19178903102874756],"type":"VEC2","name":"accessor_513"},{"bufferView":39,"byteOffset":0,"componentType":5126,"count":145,"max":[0.9988390207290649,0.9788619875907898,0.6677240133285522],"min":[-1,-0.9979540109634399,-0.9987540245056152],"type":"VEC3","name":"accessor_52"},{"bufferView":65,"byteOffset":43866,"componentType":5123,"count":276,"type":"SCALAR","min":[0],"max":[91],"name":"accessor_534"},{"bufferView":39,"byteOffset":1740,"componentType":5126,"count":92,"max":[0.0499650277197361,0.9107514023780823,-12.431973457336426],"min":[-0.20440000295639038,0.7710859179496765,-13.284294128417969],"type":"VEC3","name":"accessor_536"},{"bufferView":39,"byteOffset":2844,"componentType":5126,"count":92,"max":[0.9791380167007446,0.9945150017738342,0.9970510005950928],"min":[-0.9791380167007446,-0.9945150017738342,-0.997052013874054],"type":"VEC3","name":"accessor_538"},{"bufferView":40,"byteOffset":0,"componentType":5126,"count":145,"max":[0.998075008392334,0.4346179962158203],"min":[0.8557969927787781,0.36200398206710815],"type":"VEC2","name":"accessor_54"},{"bufferView":40,"byteOffset":1160,"componentType":5126,"count":92,"max":[0.07175400108098984,0.09665000438690186],"min":[0.04548899829387665,0.08690398931503296],"type":"VEC2","name":"accessor_540"},{"bufferView":65,"byteOffset":44418,"componentType":5123,"count":276,"type":"SCALAR","min":[0],"max":[90],"name":"accessor_561"},{"bufferView":41,"byteOffset":0,"componentType":5126,"count":91,"max":[0.29620301723480225,0.910751223564148,-12.43197250366211],"min":[0.04183797165751457,0.771085798740387,-13.284292221069336],"type":"VEC3","name":"accessor_563"},{"bufferView":41,"byteOffset":1092,"componentType":5126,"count":91,"max":[0.9791380167007446,0.9945150017738342,0.9970510005950928],"min":[-0.9791380167007446,-0.9945150017738342,-0.997052013874054],"type":"VEC3","name":"accessor_565"},{"bufferView":42,"byteOffset":0,"componentType":5126,"count":91,"max":[0.9540330171585083,0.1946520209312439],"min":[0.9277679920196533,0.184906005859375],"type":"VEC2","name":"accessor_567"},{"bufferView":65,"byteOffset":44970,"componentType":5123,"count":348,"type":"SCALAR","min":[0],"max":[119],"name":"accessor_588"},{"bufferView":43,"byteOffset":0,"componentType":5126,"count":120,"max":[4.422860145568848,2.392310857772827,3.3758599758148193],"min":[3.9360198974609375,2.086796998977661,1.265160083770752],"type":"VEC3","name":"accessor_590"},{"bufferView":43,"byteOffset":1440,"componentType":5126,"count":120,"max":[1,0.9998809695243835,0.9999380111694336],"min":[-1,-0.9998809695243835,-0.9999380111694336],"type":"VEC3","name":"accessor_592"},{"bufferView":44,"byteOffset":0,"componentType":5126,"count":120,"max":[0.9573569893836975,0.8179100155830383],"min":[0.8750540018081665,0.7945619821548462],"type":"VEC2","name":"accessor_594"},{"bufferView":65,"byteOffset":45666,"componentType":5123,"count":348,"type":"SCALAR","min":[0],"max":[117],"name":"accessor_615"},{"bufferView":45,"byteOffset":0,"componentType":5126,"count":118,"max":[4.881419658660889,2.392310857772827,3.3758599758148193],"min":[4.3945794105529785,2.086796998977661,1.265160083770752],"type":"VEC3","name":"accessor_617"},{"bufferView":45,"byteOffset":1416,"componentType":5126,"count":118,"max":[1,0.9998809695243835,0.9999380111694336],"min":[-1,-0.9998809695243835,-0.9999380111694336],"type":"VEC3","name":"accessor_619"},{"bufferView":46,"byteOffset":0,"componentType":5126,"count":118,"max":[0.8411419987678528,0.7279300093650818],"min":[0.7588399648666382,0.7045819759368896],"type":"VEC2","name":"accessor_621"},{"bufferView":47,"byteOffset":0,"componentType":5126,"count":44,"max":[4.415517807006836,2.157139778137207,1.265375018119812],"min":[3.9498298168182373,2.0867979526519775,0.08906400203704834],"type":"VEC3","name":"accessor_644"},{"bufferView":47,"byteOffset":528,"componentType":5126,"count":44,"max":[0.9404799938201904,1,1],"min":[-0.9404799938201904,-1,-1],"type":"VEC3","name":"accessor_646"},{"bufferView":48,"byteOffset":0,"componentType":5126,"count":44,"max":[0.8750540018081665,0.8179100155830383],"min":[0.829181969165802,0.8039150238037109],"type":"VEC2","name":"accessor_648"},{"bufferView":49,"byteOffset":0,"componentType":5126,"count":42,"max":[4.867609977722168,2.157139778137207,1.2653748989105225],"min":[4.40192174911499,2.0867979526519775,0.08906397968530655],"type":"VEC3","name":"accessor_671"},{"bufferView":49,"byteOffset":504,"componentType":5126,"count":42,"max":[0.9404799938201904,1,1],"min":[-0.9404799938201904,-1,-1],"type":"VEC3","name":"accessor_673"},{"bufferView":50,"byteOffset":0,"componentType":5126,"count":42,"max":[0.8870139718055725,0.7279300093650818],"min":[0.8411419987678528,0.7139350175857544],"type":"VEC2","name":"accessor_675"},{"bufferView":65,"byteOffset":46362,"componentType":5123,"count":510,"type":"SCALAR","min":[0],"max":[133],"name":"accessor_696"},{"bufferView":51,"byteOffset":0,"componentType":5126,"count":134,"max":[4.144382953643799,8.106632232666016,17.4202823638916],"min":[-4.052587032318115,7.85719108581543,16.054584503173828],"type":"VEC3","name":"accessor_698"},{"bufferView":51,"byteOffset":1608,"componentType":5126,"count":134,"max":[0.8947250247001648,0.9999439716339111,1],"min":[-0.8947160243988037,-0.9989510178565979,-0.7058969736099243],"type":"VEC3","name":"accessor_700"},{"bufferView":52,"byteOffset":0,"componentType":5126,"count":134,"max":[0.6080729961395264,0.5095840096473694],"min":[0.0023969400208443403,0.450996994972229],"type":"VEC2","name":"accessor_702"},{"bufferView":65,"byteOffset":47382,"componentType":5123,"count":2700,"type":"SCALAR","min":[0],"max":[703],"name":"accessor_723"},{"bufferView":53,"byteOffset":0,"componentType":5126,"count":704,"max":[0.2582460045814514,1.793739914894104,2.049999952316284],"min":[-0.02705499902367592,-1.793739914894104,-2.049999952316284],"type":"VEC3","name":"accessor_725"},{"bufferView":53,"byteOffset":8448,"componentType":5126,"count":704,"max":[0.8421509861946106,0.9999799728393555,1],"min":[-0.6485390067100525,-0.9999799728393555,-1],"type":"VEC3","name":"accessor_727"},{"bufferView":54,"byteOffset":0,"componentType":5126,"count":704,"max":[0.24456800520420074,0.6122350096702576],"min":[0.002397950040176511,0.5336010456085205],"type":"VEC2","name":"accessor_729"},{"bufferView":65,"byteOffset":52782,"componentType":5123,"count":264,"type":"SCALAR","min":[0],"max":[99],"name":"accessor_75"},{"bufferView":55,"byteOffset":0,"componentType":5126,"count":100,"max":[-0.6091095805168152,3.128227949142456,10.223339080810547],"min":[-1.2362295389175415,1.5782709121704102,8.854669570922852],"type":"VEC3","name":"accessor_77"},{"bufferView":65,"byteOffset":53310,"componentType":5123,"count":300,"type":"SCALAR","min":[0],"max":[139],"name":"accessor_777"},{"bufferView":55,"byteOffset":1200,"componentType":5126,"count":140,"max":[0.23573631048202515,7.606989860534668,18.219268798828125],"min":[-0.14393667876720428,3.5564348697662354,15.50663948059082],"type":"VEC3","name":"accessor_779"},{"bufferView":55,"byteOffset":2880,"componentType":5126,"count":140,"max":[0.9891299605369568,1,0.9152429699897766],"min":[-0.9891299605369568,-1,-0.9307159781455994],"type":"VEC3","name":"accessor_781"},{"bufferView":56,"byteOffset":0,"componentType":5126,"count":140,"max":[0.7181439995765686,0.9868149757385254],"min":[0.0032699699513614178,0.7130919694900513],"type":"VEC2","name":"accessor_783"},{"bufferView":57,"byteOffset":0,"componentType":5126,"count":100,"max":[0.997685968875885,0.9875119924545288,0.9996020197868347],"min":[-0.997685968875885,-0.9996839761734009,-0.9996020197868347],"type":"VEC3","name":"accessor_79"},{"bufferView":65,"byteOffset":53910,"componentType":5123,"count":1536,"type":"SCALAR","min":[0],"max":[295],"name":"accessor_804"},{"bufferView":57,"byteOffset":1200,"componentType":5126,"count":296,"max":[-0.6452100276947021,2.9336719512939453,-8.754095077514648],"min":[-1.0079399347305298,1.342471957206726,-9.341082572937012],"type":"VEC3","name":"accessor_806"},{"bufferView":57,"byteOffset":4752,"componentType":5126,"count":296,"max":[0.9999669790267944,0.9979950189590454,0.9999960064888],"min":[-0.9999849796295166,-0.9966939687728882,-0.9999960064888],"type":"VEC3","name":"accessor_808"},{"bufferView":58,"byteOffset":0,"componentType":5126,"count":100,"max":[0.7713119983673096,1.0001620054244995],"min":[0,0.030764997005462646],"type":"VEC2","name":"accessor_81"},{"bufferView":65,"byteOffset":56982,"componentType":5123,"count":156,"type":"SCALAR","min":[0],"max":[75],"name":"accessor_831"},{"bufferView":59,"byteOffset":0,"componentType":5126,"count":76,"max":[-0.5484700202941895,2.9518208503723145,-8.809270858764648],"min":[-1.1734219789505005,1.2313508987426758,-9.298389434814453],"type":"VEC3","name":"accessor_833"},{"bufferView":59,"byteOffset":912,"componentType":5126,"count":76,"max":[0.7660449743270874,0.6427890062332153,1],"min":[-4.714943884209788e-7,-0.7660449743270874,-1],"type":"VEC3","name":"accessor_835"},{"bufferView":65,"byteOffset":57294,"componentType":5123,"count":1212,"type":"SCALAR","min":[0],"max":[329],"name":"accessor_858"},{"bufferView":59,"byteOffset":1824,"componentType":5126,"count":330,"max":[0.3486403822898865,8.277649879455566,18.668119430541992],"min":[-0.2568405866622925,3.3786771297454834,12.744709014892578],"type":"VEC3","name":"accessor_860"},{"bufferView":59,"byteOffset":5784,"componentType":5126,"count":330,"max":[0.9995260238647461,0.9999979734420776,0.9999020099639893],"min":[-0.9995260238647461,-0.999908983707428,-0.9993150234222412],"type":"VEC3","name":"accessor_862"},{"bufferView":60,"byteOffset":0,"componentType":5126,"count":330,"max":[0.715399980545044,0.9979970455169678],"min":[0.007108990103006363,0.6608330011367798],"type":"VEC2","name":"accessor_864"},{"bufferView":65,"byteOffset":59718,"componentType":5123,"count":144,"type":"SCALAR","min":[0],"max":[56],"name":"accessor_885"},{"bufferView":61,"byteOffset":0,"componentType":5126,"count":57,"max":[0.22361303865909576,4.96235990524292,13.923399925231934],"min":[-0.13181346654891968,3.2461090087890625,2.3338000774383545],"type":"VEC3","name":"accessor_887"},{"bufferView":61,"byteOffset":684,"componentType":5126,"count":57,"max":[1,0.9236199855804443,0.0014510536566376686],"min":[-1,0,-0.15391601622104645],"type":"VEC3","name":"accessor_889"},{"bufferView":62,"byteOffset":0,"componentType":5126,"count":57,"max":[0.6296600103378296,0.45388197898864746],"min":[0.009698989801108837,0.4138219952583313],"type":"VEC2","name":"accessor_891"},{"bufferView":65,"byteOffset":60006,"componentType":5123,"count":1950,"type":"SCALAR","min":[0],"max":[785],"name":"accessor_912"},{"bufferView":63,"byteOffset":0,"componentType":5126,"count":786,"max":[5.6421709060668945,3.7955899238586426,7.006839752197266],"min":[-5.5503692626953125,2.046433925628662,-12.2677001953125],"type":"VEC3","name":"accessor_914"},{"bufferView":63,"byteOffset":9432,"componentType":5126,"count":786,"max":[0.9999939799308777,0.8140360116958618,0.002874773694202304],"min":[-0.9999939799308777,-0.9398350119590759,-0.9385690093040466],"type":"VEC3","name":"accessor_916"},{"bufferView":65,"byteOffset":63906,"componentType":5123,"count":4662,"type":"SCALAR","min":[0],"max":[1173],"name":"accessor_939"},{"bufferView":63,"byteOffset":18864,"componentType":5126,"count":1174,"max":[14.271200180053711,4.286581993103027,4.580667018890381],"min":[-14.179399490356445,2.830212116241455,-1.6261030435562134],"type":"VEC3","name":"accessor_941"},{"bufferView":63,"byteOffset":32952,"componentType":5126,"count":1174,"max":[1,0.999875009059906,0.9996780157089233],"min":[-1,-1,-0.9978160262107849],"type":"VEC3","name":"accessor_943"},{"bufferView":64,"byteOffset":0,"componentType":5126,"count":1174,"max":[0.9988830089569092,1],"min":[-0.0005959999980404973,0.1922919750213623],"type":"VEC2","name":"accessor_945"},{"bufferView":66,"componentType":5126,"count":1416,"type":"VEC3","min":[-0.8067859151079837,3.149455416202545,-16.295459270477295],"max":[0.8067861535265655,8.275320053100586,-3.9108]},{"bufferView":67,"componentType":5126,"count":1416,"type":"VEC3"},{"bufferView":68,"componentType":5126,"count":504,"type":"VEC3","min":[-0.31274942392132493,5.659651557800999,-15.025097370751311],"max":[0.31275042676178044,7.845653420175723,-12.839095508376587]},{"bufferView":69,"componentType":5126,"count":504,"type":"VEC3"},{"bufferView":70,"componentType":5126,"count":504,"type":"VEC2"}],"asset":{"generator":"collada2gltf@","version":"2.0","copyright":"FlightGear model authors / Flightradar24 contributors; GPLv2. See UPSTREAM-CREDITS.md and LICENSE.txt."},"bufferViews":[{"buffer":0,"byteLength":629,"byteOffset":387774,"name":"binary_bufferView0"},{"buffer":0,"byteLength":355,"byteOffset":388403,"name":"binary_bufferView1"},{"buffer":0,"byteLength":685,"byteOffset":388758,"name":"binary_bufferView2"},{"buffer":0,"byteLength":439,"byteOffset":389443,"name":"binary_bufferView3"},{"buffer":0,"byteLength":677,"byteOffset":389882,"name":"binary_bufferView4"},{"buffer":0,"byteLength":355,"byteOffset":390559,"name":"binary_bufferView5"},{"buffer":0,"byteLength":1942809,"byteOffset":390914,"name":"binary_bufferView6"},{"buffer":0,"byteLength":2784,"byteOffset":0,"target":34962,"name":"bufferView_0","byteStride":12},{"buffer":0,"byteLength":928,"byteOffset":2784,"target":34962,"name":"bufferView_0","byteStride":8},{"buffer":0,"byteLength":2592,"byteOffset":3712,"target":34962,"name":"bufferView_0","byteStride":12},{"buffer":0,"byteLength":864,"byteOffset":6304,"target":34962,"name":"bufferView_0","byteStride":8},{"buffer":0,"byteLength":2784,"byteOffset":7168,"target":34962,"name":"bufferView_0","byteStride":12},{"buffer":0,"byteLength":928,"byteOffset":9952,"target":34962,"name":"bufferView_0","byteStride":8},{"buffer":0,"byteLength":2592,"byteOffset":10880,"target":34962,"name":"bufferView_0","byteStride":12},{"buffer":0,"byteLength":864,"byteOffset":13472,"target":34962,"name":"bufferView_0","byteStride":8},{"buffer":0,"byteLength":2808,"byteOffset":14336,"target":34962,"name":"bufferView_0","byteStride":12},{"buffer":0,"byteLength":936,"byteOffset":17144,"target":34962,"name":"bufferView_0","byteStride":8},{"buffer":0,"byteLength":42084,"byteOffset":18080,"target":34962,"name":"bufferView_0","byteStride":12},{"buffer":0,"byteLength":13296,"byteOffset":60164,"target":34962,"name":"bufferView_0","byteStride":8},{"buffer":0,"byteLength":4836,"byteOffset":73460,"target":34962,"name":"bufferView_0","byteStride":12},{"buffer":0,"byteLength":2344,"byteOffset":78296,"target":34962,"name":"bufferView_0","byteStride":8},{"buffer":0,"byteLength":1776,"byteOffset":80640,"target":34962,"name":"bufferView_0","byteStride":12},{"buffer":0,"byteLength":592,"byteOffset":82416,"target":34962,"name":"bufferView_0","byteStride":8},{"buffer":0,"byteLength":1680,"byteOffset":83008,"target":34962,"name":"bufferView_0","byteStride":12},{"buffer":0,"byteLength":560,"byteOffset":84688,"target":34962,"name":"bufferView_0","byteStride":8},{"buffer":0,"byteLength":62280,"byteOffset":85248,"target":34962,"name":"bufferView_0","byteStride":12},{"buffer":0,"byteLength":20760,"byteOffset":147528,"target":34962,"name":"bufferView_0","byteStride":8},{"buffer":0,"byteLength":2880,"byteOffset":168288,"target":34962,"name":"bufferView_0","byteStride":12},{"buffer":0,"byteLength":960,"byteOffset":171168,"target":34962,"name":"bufferView_0","byteStride":8},{"buffer":0,"byteLength":2832,"byteOffset":172128,"target":34962,"name":"bufferView_0","byteStride":12},{"buffer":0,"byteLength":944,"byteOffset":174960,"target":34962,"name":"bufferView_0","byteStride":8},{"buffer":0,"byteLength":1056,"byteOffset":175904,"target":34962,"name":"bufferView_0","byteStride":12},{"buffer":0,"byteLength":352,"byteOffset":176960,"target":34962,"name":"bufferView_0","byteStride":8},{"buffer":0,"byteLength":1008,"byteOffset":177312,"target":34962,"name":"bufferView_0","byteStride":12},{"buffer":0,"byteLength":336,"byteOffset":178320,"target":34962,"name":"bufferView_0","byteStride":8},{"buffer":0,"byteLength":1080,"byteOffset":178656,"target":34962,"name":"bufferView_0","byteStride":12},{"buffer":0,"byteLength":360,"byteOffset":179736,"target":34962,"name":"bufferView_0","byteStride":8},{"buffer":0,"byteLength":2748,"byteOffset":180096,"target":34962,"name":"bufferView_0","byteStride":12},{"buffer":0,"byteLength":336,"byteOffset":182844,"target":34962,"name":"bufferView_0","byteStride":8},{"buffer":0,"byteLength":3948,"byteOffset":183180,"target":34962,"name":"bufferView_0","byteStride":12},{"buffer":0,"byteLength":1896,"byteOffset":187128,"target":34962,"name":"bufferView_0","byteStride":8},{"buffer":0,"byteLength":2184,"byteOffset":189024,"target":34962,"name":"bufferView_0","byteStride":12},{"buffer":0,"byteLength":728,"byteOffset":191208,"target":34962,"name":"bufferView_0","byteStride":8},{"buffer":0,"byteLength":2880,"byteOffset":191936,"target":34962,"name":"bufferView_0","byteStride":12},{"buffer":0,"byteLength":960,"byteOffset":194816,"target":34962,"name":"bufferView_0","byteStride":8},{"buffer":0,"byteLength":2832,"byteOffset":195776,"target":34962,"name":"bufferView_0","byteStride":12},{"buffer":0,"byteLength":944,"byteOffset":198608,"target":34962,"name":"bufferView_0","byteStride":8},{"buffer":0,"byteLength":1056,"byteOffset":199552,"target":34962,"name":"bufferView_0","byteStride":12},{"buffer":0,"byteLength":352,"byteOffset":200608,"target":34962,"name":"bufferView_0","byteStride":8},{"buffer":0,"byteLength":1008,"byteOffset":200960,"target":34962,"name":"bufferView_0","byteStride":12},{"buffer":0,"byteLength":336,"byteOffset":201968,"target":34962,"name":"bufferView_0","byteStride":8},{"buffer":0,"byteLength":3216,"byteOffset":202304,"target":34962,"name":"bufferView_0","byteStride":12},{"buffer":0,"byteLength":1072,"byteOffset":205520,"target":34962,"name":"bufferView_0","byteStride":8},{"buffer":0,"byteLength":16896,"byteOffset":206592,"target":34962,"name":"bufferView_0","byteStride":12},{"buffer":0,"byteLength":5632,"byteOffset":223488,"target":34962,"name":"bufferView_0","byteStride":8},{"buffer":0,"byteLength":4560,"byteOffset":229120,"target":34962,"name":"bufferView_0","byteStride":12},{"buffer":0,"byteLength":1120,"byteOffset":233680,"target":34962,"name":"bufferView_0","byteStride":8},{"buffer":0,"byteLength":8304,"byteOffset":234800,"target":34962,"name":"bufferView_0","byteStride":12},{"buffer":0,"byteLength":800,"byteOffset":243104,"target":34962,"name":"bufferView_0","byteStride":8},{"buffer":0,"byteLength":9744,"byteOffset":243904,"target":34962,"name":"bufferView_0","byteStride":12},{"buffer":0,"byteLength":2640,"byteOffset":253648,"target":34962,"name":"bufferView_0","byteStride":8},{"buffer":0,"byteLength":1368,"byteOffset":256288,"target":34962,"name":"bufferView_0","byteStride":12},{"buffer":0,"byteLength":456,"byteOffset":257656,"target":34962,"name":"bufferView_0","byteStride":8},{"buffer":0,"byteLength":47040,"byteOffset":258112,"target":34962,"name":"bufferView_0","byteStride":12},{"buffer":0,"byteLength":9392,"byteOffset":305152,"target":34962,"name":"bufferView_0","byteStride":8},{"buffer":0,"byteLength":73230,"byteOffset":314544,"target":34963,"name":"bufferView_1"},{"buffer":1,"byteOffset":0,"byteLength":16992,"target":34962},{"buffer":1,"byteOffset":16992,"byteLength":16992,"target":34962},{"buffer":1,"byteOffset":33984,"byteLength":6048,"target":34962},{"buffer":1,"byteOffset":40032,"byteLength":6048,"target":34962},{"buffer":1,"byteOffset":46080,"byteLength":4032,"target":34962}],"buffers":[{"byteLength":2333723,"extras":{},"name":"binary_glTF","uri":"../q400-v1-0.bin"},{"uri":"q400-tail-v1.bin?tail=2","byteLength":50112}],"images":[{"name":"Q400_House_png_001","extras":{},"bufferView":6,"mimeType":"image/png"},{"uri":"../../../airlines/THY.png"}],"materials":[{"name":"DefaultWhite_000","pbrMetallicRoughness":{"roughnessFactor":1,"metallicFactor":0,"baseColorFactor":[0.6038273590607633,0.6038273590607633,0.6038273590607633,1]}},{"name":"fuselage_000","pbrMetallicRoughness":{"roughnessFactor":1,"metallicFactor":0,"baseColorTexture":{"index":0}}},{"name":"gear_000","pbrMetallicRoughness":{"roughnessFactor":1,"metallicFactor":0,"baseColorTexture":{"index":0}}},{"name":"windows_000","alphaMode":"BLEND","doubleSided":true,"pbrMetallicRoughness":{"roughnessFactor":1,"metallicFactor":0,"baseColorFactor":[0.002476780303399257,0.002476780303399257,0.002476780303399257,1]}},{"name":"Operator tail paint","doubleSided":true,"pbrMetallicRoughness":{"baseColorFactor":[0.7843137254901961,0.09803921568627451,0.19607843137254902,1],"metallicFactor":0,"roughnessFactor":0.65}},{"name":"Operator logo identification","doubleSided":true,"alphaMode":"MASK","alphaCutoff":0.08,"pbrMetallicRoughness":{"baseColorTexture":{"index":1},"metallicFactor":0,"roughnessFactor":0.7},"emissiveFactor":[0.18,0.18,0.18],"emissiveTexture":{"index":1}}],"meshes":[{"primitives":[{"attributes":{"NORMAL":100,"POSITION":99,"TEXCOORD_0":101},"indices":98,"material":2,"mode":4}],"name":"mesh-split"},{"name":"rootNode_mesh","primitives":[{"attributes":{"NORMAL":26,"POSITION":21,"TEXCOORD_0":30},"indices":16,"material":1,"mode":4},{"attributes":{"NORMAL":70,"POSITION":65,"TEXCOORD_0":74},"indices":60,"material":1,"mode":4},{"attributes":{"NORMAL":108,"POSITION":103,"TEXCOORD_0":112},"indices":102,"material":1,"mode":4},{"attributes":{"NORMAL":2,"POSITION":1,"TEXCOORD_0":3},"indices":0,"material":1,"mode":4},{"attributes":{"NORMAL":6,"POSITION":5,"TEXCOORD_0":7},"indices":4,"material":1,"mode":4},{"attributes":{"NORMAL":10,"POSITION":9,"TEXCOORD_0":11},"indices":8,"material":1,"mode":4},{"attributes":{"NORMAL":14,"POSITION":13,"TEXCOORD_0":15},"indices":12,"material":1,"mode":4},{"attributes":{"NORMAL":19,"POSITION":18,"TEXCOORD_0":20},"indices":17,"material":1,"mode":4},{"attributes":{"NORMAL":24,"POSITION":23,"TEXCOORD_0":25},"indices":22,"material":1,"mode":4},{"attributes":{"NORMAL":29,"POSITION":28,"TEXCOORD_0":31},"indices":27,"material":1,"mode":4},{"attributes":{"NORMAL":34,"POSITION":33,"TEXCOORD_0":35},"indices":32,"material":1,"mode":4},{"attributes":{"NORMAL":38,"POSITION":37,"TEXCOORD_0":39},"indices":36,"material":1,"mode":4},{"attributes":{"NORMAL":42,"POSITION":41,"TEXCOORD_0":43},"indices":40,"material":1,"mode":4},{"attributes":{"NORMAL":46,"POSITION":45,"TEXCOORD_0":47},"indices":44,"material":1,"mode":4},{"attributes":{"NORMAL":50,"POSITION":49,"TEXCOORD_0":51},"indices":48,"material":1,"mode":4},{"attributes":{"NORMAL":54,"POSITION":53,"TEXCOORD_0":55},"indices":52,"material":1,"mode":4},{"attributes":{"NORMAL":58,"POSITION":57,"TEXCOORD_0":59},"indices":56,"material":1,"mode":4},{"attributes":{"NORMAL":63,"POSITION":62,"TEXCOORD_0":64},"indices":61,"material":1,"mode":4},{"attributes":{"NORMAL":68,"POSITION":67,"TEXCOORD_0":69},"indices":66,"material":1,"mode":4},{"attributes":{"NORMAL":73,"POSITION":72,"TEXCOORD_0":75},"indices":71,"material":1,"mode":4},{"attributes":{"NORMAL":78,"POSITION":77,"TEXCOORD_0":79},"indices":76,"material":1,"mode":4},{"attributes":{"NORMAL":82,"POSITION":81,"TEXCOORD_0":83},"indices":80,"material":1,"mode":4},{"attributes":{"NORMAL":86,"POSITION":85,"TEXCOORD_0":87},"indices":84,"material":1,"mode":4},{"attributes":{"NORMAL":89,"POSITION":88,"TEXCOORD_0":90},"indices":52,"material":1,"mode":4},{"attributes":{"NORMAL":92,"POSITION":91,"TEXCOORD_0":93},"indices":56,"material":1,"mode":4},{"attributes":{"NORMAL":96,"POSITION":95,"TEXCOORD_0":97},"indices":94,"material":1,"mode":4},{"attributes":{"NORMAL":106,"POSITION":105,"TEXCOORD_0":107},"indices":104,"material":1,"mode":4},{"attributes":{"NORMAL":111,"POSITION":110},"indices":109,"material":0,"mode":4},{"attributes":{"NORMAL":115,"POSITION":114},"indices":113,"material":0,"mode":4},{"attributes":{"NORMAL":118,"POSITION":117,"TEXCOORD_0":119},"indices":116,"material":1,"mode":4},{"attributes":{"NORMAL":122,"POSITION":121,"TEXCOORD_0":123},"indices":120,"material":1,"mode":4},{"attributes":{"NORMAL":126,"POSITION":125},"indices":124,"material":3,"mode":4},{"attributes":{"NORMAL":129,"POSITION":128,"TEXCOORD_0":130},"indices":127,"material":1,"mode":4}]},{"name":"Airline tail surface overlay","primitives":[{"attributes":{"POSITION":131,"NORMAL":132},"material":4},{"attributes":{"POSITION":133,"NORMAL":134,"TEXCOORD_0":135},"material":5}]}],"nodes":[{"matrix":[-4.3711398899999997e-8,0,1,0,1,0,4.3711398899999997e-8,0,0,1,0,0,-4.316919803619386,3.206290006637573,-3.060889959335327,1],"name":"propL","mesh":0},{"matrix":[-4.3711398899999997e-8,0,1,0,1,0,4.3711398899999997e-8,0,0,1,0,0,4.408720016479492,3.206290006637573,-3.060889959335327,1],"name":"propR","mesh":0},{"children":[0,1],"matrix":[1,0,0,0,0,1,0,0,0,0,1,0,0,0,0,1],"name":"rootNode","mesh":1},{"name":"SkywardCoordinateAlignment","matrix":[-1,0,-1.2246467991473532e-16,0,0,1,0,0,1.2246467991473532e-16,0,-1,0,0.04590034484863252,0,2.3726601600646973,1],"children":[2]},{"name":"AirlineTailBranding","mesh":2}],"samplers":[{"magFilter":9729,"minFilter":9729,"wrapS":10497,"wrapT":10497,"name":"sampler_0"},{"magFilter":9729,"minFilter":9987,"wrapS":33071,"wrapT":33071}],"scene":0,"scenes":[{"nodes":[3,4],"name":"defaultScene"}],"textures":[{"sampler":0,"source":0,"name":"texture_Q400_House_png_001"},{"source":1,"sampler":1}],"extras":{"skyward":{"source":"https://github.com/Flightradar24/fr24-3d-models","commit":"dd53267690c6a4ecbb290a3acf0284333a5d68a9","changes":"Converted legacy glTF to glTF 2.0 with Cesium; rigid axis alignment and horizontal centering only. Original geometry, materials and paint retained. Added surface-following operator tail paint and unmodified identification-logo texture. Branding is illustrative, not a registration-specific livery.","license":"GPL-2.0","sourceFiles":["source/q400/q400.blend","source/q400/q400.zip"],"operator":"THY"}}}