{"accessors":[{"bufferView":2,"componentType":5123,"count":4800,"max":[1077],"min":[0],"type":"SCALAR"},{"bufferView":3,"componentType":5126,"count":1078,"max":[1.8881676197052002,-0.3531251847743988,1.1279016733169556],"min":[1.7452186346054077,-0.7607022523880005,0.7209035754203796],"type":"VEC3"},{"bufferView":4,"componentType":5126,"count":1078,"type":"VEC3"},{"bufferView":5,"componentType":5126,"count":1078,"type":"VEC4"},{"bufferView":6,"componentType":5126,"count":1078,"max":[0.9968299269676208,0.992337386123836],"min":[0.8833160996437073,0.8787894025444984],"type":"VEC2"},{"bufferView":7,"componentType":5123,"count":1536,"max":[305],"min":[0],"type":"SCALAR"},{"bufferView":8,"componentType":5126,"count":306,"max":[0.028813645243644714,0.024246759712696075,3.4705443382263184],"min":[-0.02881436049938202,-0.46747732162475586,2.717557191848755],"type":"VEC3"},{"bufferView":9,"componentType":5126,"count":306,"type":"VEC3"},{"bufferView":10,"componentType":5126,"count":306,"type":"VEC4"},{"bufferView":11,"componentType":5126,"count":306,"max":[0.935091495513916,0.59259894490242],"min":[0.7514128088951111,0.5343736410140991],"type":"VEC2"},{"bufferView":12,"componentType":5121,"count":732,"max":[217],"min":[0],"type":"SCALAR"},{"bufferView":13,"componentType":5126,"count":218,"max":[0.005636285524815321,0.19403566420078278,-3.1268253326416016],"min":[-0.00563771603628993,0.14415866136550903,-3.239443302154541],"type":"VEC3"},{"bufferView":14,"componentType":5126,"count":218,"type":"VEC3"},{"bufferView":15,"componentType":5126,"count":218,"type":"VEC4"},{"bufferView":16,"componentType":5126,"count":218,"max":[0.8540981411933899,0.934864453971386],"min":[0.7825551629066467,0.9031793549656868],"type":"VEC2"},{"bufferView":17,"componentType":5123,"count":1350,"max":[401],"min":[0],"type":"SCALAR"},{"bufferView":18,"componentType":5126,"count":402,"max":[0.8765818476676941,1.4310587644577026,3.617246627807617],"min":[-0.9585273861885071,-0.48661646246910095,3.5429935455322266],"type":"VEC3"},{"bufferView":19,"componentType":5126,"count":402,"type":"VEC3"},{"bufferView":20,"componentType":5126,"count":402,"type":"VEC4"},{"bufferView":21,"componentType":5126,"count":402,"max":[0.846840500831604,0.47402191162109375],"min":[0.1611604392528534,0.09406614303588867],"type":"VEC2"},{"bufferView":22,"componentType":5121,"count":123,"max":[34],"min":[0],"type":"SCALAR"},{"bufferView":23,"componentType":5126,"count":35,"max":[0.6381815075874329,1.1918365955352783,1.5275136232376099],"min":[0.44891849160194397,0.6702534556388855,0.7065615653991699],"type":"VEC3"},{"bufferView":24,"componentType":5126,"count":35,"type":"VEC3"},{"bufferView":25,"componentType":5126,"count":35,"type":"VEC4"},{"bufferView":26,"componentType":5126,"count":35,"max":[0.9999997019767761,0.9999997768770044],"min":[0,0],"type":"VEC2"},{"bufferView":27,"componentType":5121,"count":966,"max":[250],"min":[0],"type":"SCALAR"},{"bufferView":28,"componentType":5126,"count":251,"max":[0.6250855922698975,1.2140306234359741,3.419832944869995],"min":[-0.6250865459442139,0.04744745418429375,-0.8832816481590271],"type":"VEC3"},{"bufferView":29,"componentType":5126,"count":251,"type":"VEC3"},{"bufferView":30,"componentType":5126,"count":251,"max":[1,1],"min":[0,0],"type":"VEC2"},{"bufferView":31,"componentType":5123,"count":3120,"max":[729],"min":[0],"type":"SCALAR"},{"bufferView":32,"componentType":5126,"count":730,"max":[0.3656403422355652,1.7356926202774048,0.4933008849620819],"min":[-0.3656417727470398,-0.26056259870529175,-3.7413735389709473],"type":"VEC3"},{"bufferView":33,"componentType":5126,"count":730,"type":"VEC3"},{"bufferView":34,"componentType":5126,"count":730,"type":"VEC4"},{"bufferView":35,"componentType":5126,"count":730,"max":[0.9876065254211426,0.8096991777420044],"min":[0.490885853767395,0.655247151851654],"type":"VEC2"},{"bufferView":36,"componentType":5121,"count":264,"max":[87],"min":[0],"type":"SCALAR"},{"bufferView":37,"componentType":5126,"count":88,"max":[-0.9973183274269104,0.35573673248291016,0.8536068201065063],"min":[-3.5954928398132324,-0.10606931149959564,0.14305372536182404],"type":"VEC3"},{"bufferView":38,"componentType":5126,"count":88,"type":"VEC3"},{"bufferView":39,"componentType":5126,"count":88,"type":"VEC4"},{"bufferView":40,"componentType":5126,"count":88,"max":[0.6654500365257263,0.7214817404747009],"min":[0.008176092058420181,0.510861337184906],"type":"VEC2"},{"bufferView":41,"componentType":5121,"count":1188,"max":[239],"min":[0],"type":"SCALAR"},{"bufferView":42,"componentType":5126,"count":240,"max":[0.047523293644189835,1.9514447450637817,-3.246147394180298],"min":[-0.047524724155664444,0.1902424693107605,-3.9572854042053223],"type":"VEC3"},{"bufferView":43,"componentType":5126,"count":240,"type":"VEC3"},{"bufferView":44,"componentType":5126,"count":240,"type":"VEC4"},{"bufferView":45,"componentType":5126,"count":240,"max":[0.9862548112869263,0.3814488649368286],"min":[0.005324611905962229,0.007485389709472656],"type":"VEC2"},{"bufferView":46,"componentType":5123,"count":1224,"max":[275],"min":[0],"type":"SCALAR"},{"bufferView":47,"componentType":5126,"count":276,"max":[0.812346875667572,1.4072527885437012,3.6172475814819336],"min":[-0.8123453259468079,-0.006769423373043537,3.5429935455322266],"type":"VEC3"},{"bufferView":48,"componentType":5126,"count":276,"type":"VEC3"},{"bufferView":49,"componentType":5126,"count":276,"type":"VEC4"},{"bufferView":50,"componentType":5126,"count":276,"max":[0.9715455174446106,0.5117670893669128],"min":[0.9112558960914612,0.3463723659515381],"type":"VEC2"},{"bufferView":51,"componentType":5123,"count":1440,"max":[256],"min":[0],"type":"SCALAR"},{"bufferView":52,"componentType":5126,"count":257,"max":[0.1705176681280136,0.6534826159477234,3.9572854042053223],"min":[-0.17051838338375092,0.31244659423828125,3.5164153575897217],"type":"VEC3"},{"bufferView":53,"componentType":5126,"count":257,"type":"VEC3"},{"bufferView":54,"componentType":5126,"count":257,"type":"VEC4"},{"bufferView":55,"componentType":5126,"count":257,"max":[0.9919352531433105,0.8691743612289429],"min":[0.8862385749816895,0.7634777426719666],"type":"VEC2"},{"bufferView":56,"componentType":5123,"count":1344,"max":[275],"min":[0],"type":"SCALAR"},{"bufferView":57,"componentType":5126,"count":276,"max":[0.09095265716314316,-0.37122517824172974,3.50315523147583],"min":[-0.09095337241888046,-0.6596622467041016,2.5428502559661865],"type":"VEC3"},{"bufferView":58,"componentType":5126,"count":276,"type":"VEC3"},{"bufferView":59,"componentType":5126,"count":276,"type":"VEC4"},{"bufferView":60,"componentType":5126,"count":276,"max":[0.6457135081291199,0.8679330945014954],"min":[0.40778788924217224,0.8342223763465881],"type":"VEC2"},{"bufferView":61,"componentType":5123,"count":2304,"max":[563],"min":[0],"type":"SCALAR"},{"bufferView":62,"componentType":5126,"count":564,"max":[0.4411545693874359,1.1152105331420898,0.2097446620464325],"min":[-0.4411565363407135,1.0869635343551636,0.1305086463689804],"type":"VEC3"},{"bufferView":63,"componentType":5126,"count":564,"type":"VEC3"},{"bufferView":64,"componentType":5126,"count":564,"type":"VEC4"},{"bufferView":65,"componentType":5126,"count":564,"max":[0.7183476686477661,0.903675377368927],"min":[0.6739215850830078,0.8878377676010132],"type":"VEC2"},{"bufferView":66,"componentType":5123,"count":7185,"max":[1608],"min":[0],"type":"SCALAR"},{"bufferView":67,"componentType":5126,"count":1609,"max":[0.6399675607681274,1.7737007141113281,3.5164170265197754],"min":[-0.639969527721405,-0.15560045838356018,-3.723487138748169],"type":"VEC3"},{"bufferView":68,"componentType":5126,"count":1609,"type":"VEC3"},{"bufferView":69,"componentType":5126,"count":1609,"type":"VEC4"},{"bufferView":70,"componentType":5126,"count":1609,"max":[0.9627436399459839,0.41982394456863403],"min":[0.029994897544384003,0.027277588844299316],"type":"VEC2"},{"bufferView":71,"componentType":5123,"count":2028,"max":[486],"min":[0],"type":"SCALAR"},{"bufferView":72,"componentType":5126,"count":487,"max":[5.003761291503906,1.7737008333206177,3.4915788173675537],"min":[-5.003761291503906,-0.13840439915657043,-3.723487138748169],"type":"VEC3"},{"bufferView":73,"componentType":5126,"count":487,"type":"VEC3"},{"bufferView":74,"componentType":5126,"count":487,"max":[0.9291915893554688,0.9606797359883785],"min":[0.6697844862937927,0.2740108370780945],"type":"VEC2"},{"bufferView":75,"componentType":5123,"count":1908,"max":[385],"min":[0],"type":"SCALAR"},{"bufferView":76,"componentType":5126,"count":386,"max":[5.791074275970459,0.4979926347732544,0.7347697019577026],"min":[-5.791074275970459,0.48759064078330994,0.6606557369232178],"type":"VEC3"},{"bufferView":77,"componentType":5126,"count":386,"type":"VEC3"},{"bufferView":78,"componentType":5126,"count":386,"max":[0.4668084383010864,0.7974589914083481],"min":[0.26669788360595703,0.7837505489587784],"type":"VEC2"},{"bufferView":79,"componentType":5121,"count":357,"max":[102],"min":[0],"type":"SCALAR"},{"bufferView":80,"componentType":5126,"count":103,"max":[-0.090925432741642,1.2979756593704224,1.8446987867355347],"min":[-0.6417455077171326,0.32993951439857483,0.5517556667327881],"type":"VEC3"},{"bufferView":81,"componentType":5126,"count":103,"type":"VEC3"},{"bufferView":82,"componentType":5126,"count":103,"type":"VEC4"},{"bufferView":83,"componentType":5126,"count":103,"max":[0.6622985601425171,0.3642129898071289],"min":[0.5184409618377686,0.2565056085586548],"type":"VEC2"},{"bufferView":84,"componentType":5121,"count":198,"max":[70],"min":[0],"type":"SCALAR"},{"bufferView":85,"componentType":5126,"count":71,"max":[0.8607516288757324,0.025359779596328735,0.3014269471168518],"min":[-0.8607525825500488,-0.30976226925849915,-0.060792092233896255],"type":"VEC3"},{"bufferView":86,"componentType":5126,"count":71,"type":"VEC3"},{"bufferView":87,"componentType":5126,"count":71,"type":"VEC4"},{"bufferView":88,"componentType":5126,"count":71,"max":[0.9748842716217041,0.8851653337478638],"min":[0.8864090442657471,0.5325395166873932],"type":"VEC2"},{"bufferView":89,"componentType":5121,"count":135,"max":[50],"min":[0],"type":"SCALAR"},{"bufferView":90,"componentType":5126,"count":51,"max":[0.5689204931259155,0.7011916637420654,-0.03624410554766655],"min":[0.4027474522590637,0.06800360977649689,-0.6531302332878113],"type":"VEC3"},{"bufferView":91,"componentType":5126,"count":51,"type":"VEC3"},{"bufferView":92,"componentType":5126,"count":51,"type":"VEC4"},{"bufferView":93,"componentType":5126,"count":51,"max":[0.6120489835739136,0.22115474939346313],"min":[0.5427429676055908,0.1500171422958374],"type":"VEC2"},{"bufferView":94,"componentType":5123,"count":1464,"max":[305],"min":[0],"type":"SCALAR"},{"bufferView":95,"componentType":5126,"count":306,"max":[-1.6981183290481567,-0.329314261674881,1.2699127197265625],"min":[-1.9366344213485718,-0.6486442685127258,0.3148565888404846],"type":"VEC3"},{"bufferView":96,"componentType":5126,"count":306,"type":"VEC3"},{"bufferView":97,"componentType":5126,"count":306,"type":"VEC4"},{"bufferView":98,"componentType":5126,"count":306,"max":[0.6296955943107605,0.991502471268177],"min":[0.4085874557495117,0.9554108567535877],"type":"VEC2"},{"bufferView":99,"componentType":5123,"count":2028,"max":[473],"min":[0],"type":"SCALAR"},{"bufferView":100,"componentType":5126,"count":474,"max":[1.955884575843811,0.5231106281280518,-2.672495126724243],"min":[-1.955886960029602,0.4642126262187958,-3.26896333694458],"type":"VEC3"},{"bufferView":101,"componentType":5126,"count":474,"type":"VEC3"},{"bufferView":102,"componentType":5126,"count":474,"type":"VEC4"},{"bufferView":103,"componentType":5126,"count":474,"max":[0.397176593542099,0.9835909381508827],"min":[0.011930227279663086,0.833256185054779],"type":"VEC2"},{"bufferView":104,"componentType":5123,"count":4800,"max":[1077],"min":[0],"type":"SCALAR"},{"bufferView":105,"componentType":5126,"count":1078,"max":[0.06081445887684822,-0.39515918493270874,3.3560614585876465],"min":[-0.060816556215286255,-0.7582921981811523,2.993443489074707],"type":"VEC3"},{"bufferView":106,"componentType":5126,"count":1078,"type":"VEC3"},{"bufferView":107,"componentType":5126,"count":1078,"type":"VEC4"},{"bufferView":108,"componentType":5126,"count":1078,"max":[0.9971007108688354,0.9927611611783504],"min":[0.8835868835449219,0.8792131766676903],"type":"VEC2"},{"bufferView":109,"componentType":5121,"count":123,"max":[34],"min":[0],"type":"SCALAR"},{"bufferView":110,"componentType":5126,"count":35,"max":[-0.4489194452762604,1.1918365955352783,1.5275137424468994],"min":[-0.6381824612617493,0.6702534556388855,0.7065616250038147],"type":"VEC3"},{"bufferView":111,"componentType":5126,"count":35,"type":"VEC3"},{"bufferView":112,"componentType":5126,"count":35,"type":"VEC4"},{"bufferView":113,"componentType":5126,"count":35,"max":[0.9999999403953552,1],"min":[1.4175900275859021e-7,8.940696716308594e-7],"type":"VEC2"},{"bufferView":114,"componentType":5121,"count":264,"max":[87],"min":[0],"type":"SCALAR"},{"bufferView":115,"componentType":5126,"count":88,"max":[3.595491647720337,0.35573673248291016,0.8536065816879272],"min":[0.9973171353340149,-0.10606931149959564,0.14305348694324493],"type":"VEC3"},{"bufferView":116,"componentType":5126,"count":88,"type":"VEC3"},{"bufferView":117,"componentType":5126,"count":88,"type":"VEC4"},{"bufferView":118,"componentType":5126,"count":88,"max":[0.6654500365257263,0.7214817404747009],"min":[0.008176092058420181,0.510861337184906],"type":"VEC2"},{"bufferView":119,"componentType":5123,"count":1344,"max":[293],"min":[0],"type":"SCALAR"},{"bufferView":120,"componentType":5126,"count":294,"max":[1.753443717956543,0.061328742653131485,1.1011486053466797],"min":[1.130394697189331,-0.4629712998867035,0.7675526142120361],"type":"VEC3"},{"bufferView":121,"componentType":5126,"count":294,"type":"VEC3"},{"bufferView":122,"componentType":5126,"count":294,"type":"VEC4"},{"bufferView":123,"componentType":5126,"count":294,"max":[0.11947301775217056,0.7985217124223709],"min":[0.014364304021000862,0.7220459282398224],"type":"VEC2"},{"bufferView":124,"componentType":5121,"count":357,"max":[102],"min":[0],"type":"SCALAR"},{"bufferView":125,"componentType":5126,"count":103,"max":[0.6417446136474609,1.2979756593704224,1.8446986675262451],"min":[0.09092352539300919,0.32993951439857483,0.5517555475234985],"type":"VEC3"},{"bufferView":126,"componentType":5126,"count":103,"type":"VEC3"},{"bufferView":127,"componentType":5126,"count":103,"type":"VEC4"},{"bufferView":128,"componentType":5126,"count":103,"max":[0.47505855560302734,0.19141298532485962],"min":[0.3312009572982788,0.0837056040763855],"type":"VEC2"},{"bufferView":129,"componentType":5123,"count":5568,"max":[1217],"min":[0],"type":"SCALAR"},{"bufferView":130,"componentType":5126,"count":1218,"max":[0.4063785970211029,0.009997743181884289,2.6128196716308594],"min":[-0.40637853741645813,-0.2093912959098816,2.323812484741211],"type":"VEC3"},{"bufferView":131,"componentType":5126,"count":1218,"type":"VEC3"},{"bufferView":132,"componentType":5126,"count":1218,"type":"VEC4"},{"bufferView":133,"componentType":5126,"count":1218,"max":[0.7424806356430054,0.9762791693210602],"min":[0.6480921506881714,0.9046279191970825],"type":"VEC2"},{"bufferView":134,"componentType":5121,"count":108,"max":[71],"min":[0],"type":"SCALAR"},{"bufferView":135,"componentType":5126,"count":72,"max":[0.8645467758178711,1.4300847053527832,3.595041513442993],"min":[-0.9474074840545654,-0.29473748803138733,3.5657055377960205],"type":"VEC3"},{"bufferView":136,"componentType":5126,"count":72,"type":"VEC3"},{"bufferView":137,"componentType":5126,"count":72,"type":"VEC4"},{"bufferView":138,"componentType":5126,"count":72,"max":[0.6338777542114258,0.9061428159475327],"min":[0.34774819016456604,0.5744901597499847],"type":"VEC2"},{"bufferView":139,"componentType":5121,"count":240,"max":[87],"min":[0],"type":"SCALAR"},{"bufferView":140,"componentType":5126,"count":88,"max":[1.8293524980545044,0.540829598903656,-2.4747252464294434],"min":[-1.829353928565979,0.4465215802192688,-3.039628267288208],"type":"VEC3"},{"bufferView":141,"componentType":5126,"count":88,"type":"VEC3"},{"bufferView":142,"componentType":5126,"count":88,"type":"VEC4"},{"bufferView":143,"componentType":5126,"count":88,"max":[0.38413098454475403,0.9601719826459885],"min":[0.02527359127998352,0.8147503882646561],"type":"VEC2"},{"bufferView":144,"componentType":5123,"count":4800,"max":[1077],"min":[0],"type":"SCALAR"},{"bufferView":145,"componentType":5126,"count":1078,"max":[-1.7452163696289062,-0.3531251847743988,1.1279017925262451],"min":[-1.8881653547286987,-0.7607022523880005,0.7209036946296692],"type":"VEC3"},{"bufferView":146,"componentType":5126,"count":1078,"type":"VEC3"},{"bufferView":147,"componentType":5126,"count":1078,"type":"VEC4"},{"bufferView":148,"componentType":5126,"count":1078,"max":[0.9966984391212463,0.9924022704362869],"min":[0.8831846117973328,0.878854289650917],"type":"VEC2"},{"bufferView":149,"componentType":5121,"count":204,"max":[49],"min":[0],"type":"SCALAR"},{"bufferView":150,"componentType":5126,"count":50,"max":[5.003759384155273,0.434354692697525,0.8541924953460693],"min":[3.5935540199279785,0.269814670085907,0.4362364113330841],"type":"VEC3"},{"bufferView":151,"componentType":5126,"count":50,"type":"VEC3"},{"bufferView":152,"componentType":5126,"count":50,"type":"VEC4"},{"bufferView":153,"componentType":5126,"count":50,"max":[0.77297043800354,0.6867750585079193],"min":[0.07577032595872879,0.4981762766838074],"type":"VEC2"},{"bufferView":154,"componentType":5123,"count":5580,"max":[1062],"min":[0],"type":"SCALAR"},{"bufferView":155,"componentType":5126,"count":1063,"max":[0.4341365396976471,1.3278526067733765,2.829509735107422],"min":[-0.43413758277893066,-0.13840462267398834,-0.18049947917461395],"type":"VEC3"},{"bufferView":156,"componentType":5126,"count":1063,"type":"VEC3"},{"bufferView":157,"componentType":5126,"count":1063,"type":"VEC4"},{"bufferView":158,"componentType":5126,"count":1063,"max":[0.846759557723999,0.5808573961257935],"min":[0.1443300098180771,0.031500816345214844],"type":"VEC2"},{"bufferView":159,"componentType":5123,"count":2016,"max":[523],"min":[0],"type":"SCALAR"},{"bufferView":160,"componentType":5126,"count":524,"max":[0.08583265542984009,0.2251897007226944,3.0474913120269775],"min":[-0.08583337068557739,0.053523678332567215,3.03637433052063],"type":"VEC3"},{"bufferView":161,"componentType":5126,"count":524,"type":"VEC3"},{"bufferView":162,"componentType":5126,"count":524,"type":"VEC4"},{"bufferView":163,"componentType":5126,"count":524,"max":[0.9948720335960388,0.3338310122489929],"min":[0.9343237280845642,0.2732827663421631],"type":"VEC2"},{"bufferView":164,"componentType":5123,"count":1464,"max":[305],"min":[0],"type":"SCALAR"},{"bufferView":165,"componentType":5126,"count":306,"max":[1.9366346597671509,-0.329314261674881,1.2699127197265625],"min":[1.6981185674667358,-0.6486442685127258,0.3148565888404846],"type":"VEC3"},{"bufferView":166,"componentType":5126,"count":306,"type":"VEC3"},{"bufferView":167,"componentType":5126,"count":306,"type":"VEC4"},{"bufferView":168,"componentType":5126,"count":306,"max":[0.6296955943107605,0.9470533058047295],"min":[0.4085874557495117,0.9109616950154305],"type":"VEC2"},{"bufferView":169,"componentType":5121,"count":204,"max":[48],"min":[0],"type":"SCALAR"},{"bufferView":170,"componentType":5126,"count":49,"max":[-3.5935556888580322,0.434354692697525,0.8541929721832275],"min":[-5.003760814666748,0.269814670085907,0.4362368881702423],"type":"VEC3"},{"bufferView":171,"componentType":5126,"count":49,"type":"VEC3"},{"bufferView":172,"componentType":5126,"count":49,"type":"VEC4"},{"bufferView":173,"componentType":5126,"count":49,"max":[0.77297043800354,0.6867750585079193],"min":[0.0757703185081482,0.4981762766838074],"type":"VEC2"},{"bufferView":174,"componentType":5123,"count":4908,"max":[1044],"min":[0],"type":"SCALAR"},{"bufferView":175,"componentType":5126,"count":1045,"max":[5.7863874435424805,0.49986666440963745,1.7687627077102661],"min":[-5.786389350891113,-0.106069415807724,-0.11625651270151138],"type":"VEC3"},{"bufferView":176,"componentType":5126,"count":1045,"type":"VEC3"},{"bufferView":177,"componentType":5126,"count":1045,"type":"VEC4"},{"bufferView":178,"componentType":5126,"count":1045,"max":[0.8320579528808594,0.728933721780777],"min":[0.007535211741924286,0.046603500843048096],"type":"VEC2"},{"bufferView":179,"componentType":5123,"count":1344,"max":[293],"min":[0],"type":"SCALAR"},{"bufferView":180,"componentType":5126,"count":294,"max":[-1.130395531654358,0.06132975593209267,1.1011487245559692],"min":[-1.7534445524215698,-0.4629712998867035,0.7675527334213257],"type":"VEC3"},{"bufferView":181,"componentType":5126,"count":294,"type":"VEC3"},{"bufferView":182,"componentType":5126,"count":294,"type":"VEC4"},{"bufferView":183,"componentType":5126,"count":294,"max":[0.23495838046073914,0.7985217124223709],"min":[0.12984967231750488,0.7220459282398224],"type":"VEC2"},{"bufferView":184,"componentType":5126,"count":2448,"type":"VEC3","min":[-0.38121853047374754,0.18854919672012316,-3.9572854042053223],"max":[0.38121677184583574,1.9458826780319214,-0.9491999999999998]},{"bufferView":185,"componentType":5126,"count":2448,"type":"VEC3"},{"bufferView":186,"componentType":5126,"count":264,"type":"VEC3","min":[-0.0890182760331367,0.6192237895856163,-3.668105501322959],"max":[0.08901629497821612,1.2937208903824886,-2.993608400526086]},{"bufferView":187,"componentType":5126,"count":264,"type":"VEC3"},{"bufferView":188,"componentType":5126,"count":264,"type":"VEC2"}],"asset":{"generator":"Khronos Blender glTF 2.0 exporter","version":"2.0","copyright":"FlightGear model authors / FlightAirMap contributors; GPL-2.0. See source/flightairmap/sr22/ for license and editable sources."},"bufferViews":[{"buffer":0,"byteLength":660288,"byteOffset":0},{"buffer":0,"byteLength":38733,"byteOffset":660288},{"buffer":0,"byteLength":9600,"byteOffset":699022,"target":34963},{"buffer":0,"byteLength":12936,"byteOffset":708624,"target":34962},{"buffer":0,"byteLength":12936,"byteOffset":721560,"target":34962},{"buffer":0,"byteLength":17248,"byteOffset":734496,"target":34962},{"buffer":0,"byteLength":8624,"byteOffset":751744,"target":34962},{"buffer":0,"byteLength":3072,"byteOffset":760368,"target":34963},{"buffer":0,"byteLength":3672,"byteOffset":763440,"target":34962},{"buffer":0,"byteLength":3672,"byteOffset":767112,"target":34962},{"buffer":0,"byteLength":4896,"byteOffset":770784,"target":34962},{"buffer":0,"byteLength":2448,"byteOffset":775680,"target":34962},{"buffer":0,"byteLength":732,"byteOffset":778128,"target":34963},{"buffer":0,"byteLength":2616,"byteOffset":778860,"target":34962},{"buffer":0,"byteLength":2616,"byteOffset":781476,"target":34962},{"buffer":0,"byteLength":3488,"byteOffset":784092,"target":34962},{"buffer":0,"byteLength":1744,"byteOffset":787580,"target":34962},{"buffer":0,"byteLength":2700,"byteOffset":789324,"target":34963},{"buffer":0,"byteLength":4824,"byteOffset":792024,"target":34962},{"buffer":0,"byteLength":4824,"byteOffset":796848,"target":34962},{"buffer":0,"byteLength":6432,"byteOffset":801672,"target":34962},{"buffer":0,"byteLength":3216,"byteOffset":808104,"target":34962},{"buffer":0,"byteLength":123,"byteOffset":811320,"target":34963},{"buffer":0,"byteLength":420,"byteOffset":811444,"target":34962},{"buffer":0,"byteLength":420,"byteOffset":811864,"target":34962},{"buffer":0,"byteLength":560,"byteOffset":812284,"target":34962},{"buffer":0,"byteLength":280,"byteOffset":812844,"target":34962},{"buffer":0,"byteLength":966,"byteOffset":813124,"target":34963},{"buffer":0,"byteLength":3012,"byteOffset":814092,"target":34962},{"buffer":0,"byteLength":3012,"byteOffset":817104,"target":34962},{"buffer":0,"byteLength":2008,"byteOffset":820116,"target":34962},{"buffer":0,"byteLength":6240,"byteOffset":822124,"target":34963},{"buffer":0,"byteLength":8760,"byteOffset":828364,"target":34962},{"buffer":0,"byteLength":8760,"byteOffset":837124,"target":34962},{"buffer":0,"byteLength":11680,"byteOffset":845884,"target":34962},{"buffer":0,"byteLength":5840,"byteOffset":857564,"target":34962},{"buffer":0,"byteLength":264,"byteOffset":863404,"target":34963},{"buffer":0,"byteLength":1056,"byteOffset":863668,"target":34962},{"buffer":0,"byteLength":1056,"byteOffset":864724,"target":34962},{"buffer":0,"byteLength":1408,"byteOffset":865780,"target":34962},{"buffer":0,"byteLength":704,"byteOffset":867188,"target":34962},{"buffer":0,"byteLength":1188,"byteOffset":867892,"target":34963},{"buffer":0,"byteLength":2880,"byteOffset":869080,"target":34962},{"buffer":0,"byteLength":2880,"byteOffset":871960,"target":34962},{"buffer":0,"byteLength":3840,"byteOffset":874840,"target":34962},{"buffer":0,"byteLength":1920,"byteOffset":878680,"target":34962},{"buffer":0,"byteLength":2448,"byteOffset":880600,"target":34963},{"buffer":0,"byteLength":3312,"byteOffset":883048,"target":34962},{"buffer":0,"byteLength":3312,"byteOffset":886360,"target":34962},{"buffer":0,"byteLength":4416,"byteOffset":889672,"target":34962},{"buffer":0,"byteLength":2208,"byteOffset":894088,"target":34962},{"buffer":0,"byteLength":2880,"byteOffset":896296,"target":34963},{"buffer":0,"byteLength":3084,"byteOffset":899176,"target":34962},{"buffer":0,"byteLength":3084,"byteOffset":902260,"target":34962},{"buffer":0,"byteLength":4112,"byteOffset":905344,"target":34962},{"buffer":0,"byteLength":2056,"byteOffset":909456,"target":34962},{"buffer":0,"byteLength":2688,"byteOffset":911512,"target":34963},{"buffer":0,"byteLength":3312,"byteOffset":914200,"target":34962},{"buffer":0,"byteLength":3312,"byteOffset":917512,"target":34962},{"buffer":0,"byteLength":4416,"byteOffset":920824,"target":34962},{"buffer":0,"byteLength":2208,"byteOffset":925240,"target":34962},{"buffer":0,"byteLength":4608,"byteOffset":927448,"target":34963},{"buffer":0,"byteLength":6768,"byteOffset":932056,"target":34962},{"buffer":0,"byteLength":6768,"byteOffset":938824,"target":34962},{"buffer":0,"byteLength":9024,"byteOffset":945592,"target":34962},{"buffer":0,"byteLength":4512,"byteOffset":954616,"target":34962},{"buffer":0,"byteLength":14370,"byteOffset":959128,"target":34963},{"buffer":0,"byteLength":19308,"byteOffset":973500,"target":34962},{"buffer":0,"byteLength":19308,"byteOffset":992808,"target":34962},{"buffer":0,"byteLength":25744,"byteOffset":1012116,"target":34962},{"buffer":0,"byteLength":12872,"byteOffset":1037860,"target":34962},{"buffer":0,"byteLength":4056,"byteOffset":1050732,"target":34963},{"buffer":0,"byteLength":5844,"byteOffset":1054788,"target":34962},{"buffer":0,"byteLength":5844,"byteOffset":1060632,"target":34962},{"buffer":0,"byteLength":3896,"byteOffset":1066476,"target":34962},{"buffer":0,"byteLength":3816,"byteOffset":1070372,"target":34963},{"buffer":0,"byteLength":4632,"byteOffset":1074188,"target":34962},{"buffer":0,"byteLength":4632,"byteOffset":1078820,"target":34962},{"buffer":0,"byteLength":3088,"byteOffset":1083452,"target":34962},{"buffer":0,"byteLength":357,"byteOffset":1086540,"target":34963},{"buffer":0,"byteLength":1236,"byteOffset":1086900,"target":34962},{"buffer":0,"byteLength":1236,"byteOffset":1088136,"target":34962},{"buffer":0,"byteLength":1648,"byteOffset":1089372,"target":34962},{"buffer":0,"byteLength":824,"byteOffset":1091020,"target":34962},{"buffer":0,"byteLength":198,"byteOffset":1091844,"target":34963},{"buffer":0,"byteLength":852,"byteOffset":1092044,"target":34962},{"buffer":0,"byteLength":852,"byteOffset":1092896,"target":34962},{"buffer":0,"byteLength":1136,"byteOffset":1093748,"target":34962},{"buffer":0,"byteLength":568,"byteOffset":1094884,"target":34962},{"buffer":0,"byteLength":135,"byteOffset":1095452,"target":34963},{"buffer":0,"byteLength":612,"byteOffset":1095588,"target":34962},{"buffer":0,"byteLength":612,"byteOffset":1096200,"target":34962},{"buffer":0,"byteLength":816,"byteOffset":1096812,"target":34962},{"buffer":0,"byteLength":408,"byteOffset":1097628,"target":34962},{"buffer":0,"byteLength":2928,"byteOffset":1098036,"target":34963},{"buffer":0,"byteLength":3672,"byteOffset":1100964,"target":34962},{"buffer":0,"byteLength":3672,"byteOffset":1104636,"target":34962},{"buffer":0,"byteLength":4896,"byteOffset":1108308,"target":34962},{"buffer":0,"byteLength":2448,"byteOffset":1113204,"target":34962},{"buffer":0,"byteLength":4056,"byteOffset":1115652,"target":34963},{"buffer":0,"byteLength":5688,"byteOffset":1119708,"target":34962},{"buffer":0,"byteLength":5688,"byteOffset":1125396,"target":34962},{"buffer":0,"byteLength":7584,"byteOffset":1131084,"target":34962},{"buffer":0,"byteLength":3792,"byteOffset":1138668,"target":34962},{"buffer":0,"byteLength":9600,"byteOffset":1142460,"target":34963},{"buffer":0,"byteLength":12936,"byteOffset":1152060,"target":34962},{"buffer":0,"byteLength":12936,"byteOffset":1164996,"target":34962},{"buffer":0,"byteLength":17248,"byteOffset":1177932,"target":34962},{"buffer":0,"byteLength":8624,"byteOffset":1195180,"target":34962},{"buffer":0,"byteLength":123,"byteOffset":1203804,"target":34963},{"buffer":0,"byteLength":420,"byteOffset":1203928,"target":34962},{"buffer":0,"byteLength":420,"byteOffset":1204348,"target":34962},{"buffer":0,"byteLength":560,"byteOffset":1204768,"target":34962},{"buffer":0,"byteLength":280,"byteOffset":1205328,"target":34962},{"buffer":0,"byteLength":264,"byteOffset":1205608,"target":34963},{"buffer":0,"byteLength":1056,"byteOffset":1205872,"target":34962},{"buffer":0,"byteLength":1056,"byteOffset":1206928,"target":34962},{"buffer":0,"byteLength":1408,"byteOffset":1207984,"target":34962},{"buffer":0,"byteLength":704,"byteOffset":1209392,"target":34962},{"buffer":0,"byteLength":2688,"byteOffset":1210096,"target":34963},{"buffer":0,"byteLength":3528,"byteOffset":1212784,"target":34962},{"buffer":0,"byteLength":3528,"byteOffset":1216312,"target":34962},{"buffer":0,"byteLength":4704,"byteOffset":1219840,"target":34962},{"buffer":0,"byteLength":2352,"byteOffset":1224544,"target":34962},{"buffer":0,"byteLength":357,"byteOffset":1226896,"target":34963},{"buffer":0,"byteLength":1236,"byteOffset":1227256,"target":34962},{"buffer":0,"byteLength":1236,"byteOffset":1228492,"target":34962},{"buffer":0,"byteLength":1648,"byteOffset":1229728,"target":34962},{"buffer":0,"byteLength":824,"byteOffset":1231376,"target":34962},{"buffer":0,"byteLength":11136,"byteOffset":1232200,"target":34963},{"buffer":0,"byteLength":14616,"byteOffset":1243336,"target":34962},{"buffer":0,"byteLength":14616,"byteOffset":1257952,"target":34962},{"buffer":0,"byteLength":19488,"byteOffset":1272568,"target":34962},{"buffer":0,"byteLength":9744,"byteOffset":1292056,"target":34962},{"buffer":0,"byteLength":108,"byteOffset":1301800,"target":34963},{"buffer":0,"byteLength":864,"byteOffset":1301908,"target":34962},{"buffer":0,"byteLength":864,"byteOffset":1302772,"target":34962},{"buffer":0,"byteLength":1152,"byteOffset":1303636,"target":34962},{"buffer":0,"byteLength":576,"byteOffset":1304788,"target":34962},{"buffer":0,"byteLength":240,"byteOffset":1305364,"target":34963},{"buffer":0,"byteLength":1056,"byteOffset":1305604,"target":34962},{"buffer":0,"byteLength":1056,"byteOffset":1306660,"target":34962},{"buffer":0,"byteLength":1408,"byteOffset":1307716,"target":34962},{"buffer":0,"byteLength":704,"byteOffset":1309124,"target":34962},{"buffer":0,"byteLength":9600,"byteOffset":1309828,"target":34963},{"buffer":0,"byteLength":12936,"byteOffset":1319428,"target":34962},{"buffer":0,"byteLength":12936,"byteOffset":1332364,"target":34962},{"buffer":0,"byteLength":17248,"byteOffset":1345300,"target":34962},{"buffer":0,"byteLength":8624,"byteOffset":1362548,"target":34962},{"buffer":0,"byteLength":204,"byteOffset":1371172,"target":34963},{"buffer":0,"byteLength":600,"byteOffset":1371376,"target":34962},{"buffer":0,"byteLength":600,"byteOffset":1371976,"target":34962},{"buffer":0,"byteLength":800,"byteOffset":1372576,"target":34962},{"buffer":0,"byteLength":400,"byteOffset":1373376,"target":34962},{"buffer":0,"byteLength":11160,"byteOffset":1373776,"target":34963},{"buffer":0,"byteLength":12756,"byteOffset":1384936,"target":34962},{"buffer":0,"byteLength":12756,"byteOffset":1397692,"target":34962},{"buffer":0,"byteLength":17008,"byteOffset":1410448,"target":34962},{"buffer":0,"byteLength":8504,"byteOffset":1427456,"target":34962},{"buffer":0,"byteLength":4032,"byteOffset":1435960,"target":34963},{"buffer":0,"byteLength":6288,"byteOffset":1439992,"target":34962},{"buffer":0,"byteLength":6288,"byteOffset":1446280,"target":34962},{"buffer":0,"byteLength":8384,"byteOffset":1452568,"target":34962},{"buffer":0,"byteLength":4192,"byteOffset":1460952,"target":34962},{"buffer":0,"byteLength":2928,"byteOffset":1465144,"target":34963},{"buffer":0,"byteLength":3672,"byteOffset":1468072,"target":34962},{"buffer":0,"byteLength":3672,"byteOffset":1471744,"target":34962},{"buffer":0,"byteLength":4896,"byteOffset":1475416,"target":34962},{"buffer":0,"byteLength":2448,"byteOffset":1480312,"target":34962},{"buffer":0,"byteLength":204,"byteOffset":1482760,"target":34963},{"buffer":0,"byteLength":588,"byteOffset":1482964,"target":34962},{"buffer":0,"byteLength":588,"byteOffset":1483552,"target":34962},{"buffer":0,"byteLength":784,"byteOffset":1484140,"target":34962},{"buffer":0,"byteLength":392,"byteOffset":1484924,"target":34962},{"buffer":0,"byteLength":9816,"byteOffset":1485316,"target":34963},{"buffer":0,"byteLength":12540,"byteOffset":1495132,"target":34962},{"buffer":0,"byteLength":12540,"byteOffset":1507672,"target":34962},{"buffer":0,"byteLength":16720,"byteOffset":1520212,"target":34962},{"buffer":0,"byteLength":8360,"byteOffset":1536932,"target":34962},{"buffer":0,"byteLength":2688,"byteOffset":1545292,"target":34963},{"buffer":0,"byteLength":3528,"byteOffset":1547980,"target":34962},{"buffer":0,"byteLength":3528,"byteOffset":1551508,"target":34962},{"buffer":0,"byteLength":4704,"byteOffset":1555036,"target":34962},{"buffer":0,"byteLength":2352,"byteOffset":1559740,"target":34962},{"buffer":1,"byteOffset":0,"byteLength":29376,"target":34962},{"buffer":1,"byteOffset":29376,"byteLength":29376,"target":34962},{"buffer":1,"byteOffset":58752,"byteLength":3168,"target":34962},{"buffer":1,"byteOffset":61920,"byteLength":3168,"target":34962},{"buffer":1,"byteOffset":65088,"byteLength":2112,"target":34962}],"buffers":[{"byteLength":1562092,"extras":{},"uri":"../sr22-v1-0.bin"},{"uri":"sr22-tail-v1.bin","byteLength":67200}],"images":[{"bufferView":0,"mimeType":"image/png","name":"texture.png","extras":{}},{"bufferView":1,"mimeType":"image/png","name":"prop.png","extras":{}},{"uri":"../../../airlines/PGT.png"}],"materials":[{"name":"DefaultWhite","pbrMetallicRoughness":{"baseColorFactor":[0.800000011920929,0.800000011920929,0.800000011920929,1],"baseColorTexture":{"index":0},"metallicFactor":0}},{"alphaMode":"BLEND","name":"transparent","pbrMetallicRoughness":{"baseColorFactor":[0.6400000190734865,0.6400000190734865,0.6400000190734865,0.30000001192092896],"baseColorTexture":{"index":1},"metallicFactor":0}},{"alphaMode":"BLEND","name":"transparent.001","pbrMetallicRoughness":{"baseColorFactor":[0.6400000190734865,0.6400000190734865,0.6400000190734865,0.30000001192092896],"metallicFactor":0}},{"name":"Operator tail paint","doubleSided":true,"pbrMetallicRoughness":{"baseColorFactor":[0.8980392156862745,0.7137254901960784,0.12549019607843137,1],"metallicFactor":0,"roughnessFactor":0.65}},{"name":"Operator logo identification","doubleSided":true,"alphaMode":"BLEND","pbrMetallicRoughness":{"baseColorTexture":{"index":2},"metallicFactor":0,"roughnessFactor":0.7},"emissiveFactor":[0.18,0.18,0.18],"emissiveTexture":{"index":2}}],"meshes":[{"name":"roueG","primitives":[{"attributes":{"NORMAL":2,"POSITION":1,"TANGENT":3,"TEXCOORD_0":4},"indices":0,"material":0}]},{"name":"axeA","primitives":[{"attributes":{"NORMAL":7,"POSITION":6,"TANGENT":8,"TEXCOORD_0":9},"indices":5,"material":0}]},{"name":"crochet","primitives":[{"attributes":{"NORMAL":12,"POSITION":11,"TANGENT":13,"TEXCOORD_0":14},"indices":10,"material":0}]},{"name":"propdisc","primitives":[{"attributes":{"NORMAL":17,"POSITION":16,"TANGENT":18,"TEXCOORD_0":19},"indices":15,"material":1}]},{"name":"vitreporteG","primitives":[{"attributes":{"NORMAL":22,"POSITION":21,"TANGENT":23,"TEXCOORD_0":24},"indices":20,"material":2}]},{"name":"vitres","primitives":[{"attributes":{"NORMAL":27,"POSITION":26,"TEXCOORD_0":28},"indices":25,"material":2}]},{"name":"antennes","primitives":[{"attributes":{"NORMAL":31,"POSITION":30,"TANGENT":32,"TEXCOORD_0":33},"indices":29,"material":0}]},{"name":"voletD","primitives":[{"attributes":{"NORMAL":36,"POSITION":35,"TANGENT":37,"TEXCOORD_0":38},"indices":34,"material":0}]},{"name":"direction","primitives":[{"attributes":{"NORMAL":41,"POSITION":40,"TANGENT":42,"TEXCOORD_0":43},"indices":39,"material":0}]},{"name":"helice","primitives":[{"attributes":{"NORMAL":46,"POSITION":45,"TANGENT":47,"TEXCOORD_0":48},"indices":44,"material":0}]},{"name":"bol","primitives":[{"attributes":{"NORMAL":51,"POSITION":50,"TANGENT":52,"TEXCOORD_0":53},"indices":49,"material":0}]},{"name":"cacheA","primitives":[{"attributes":{"NORMAL":56,"POSITION":55,"TANGENT":57,"TEXCOORD_0":58},"indices":54,"material":0}]},{"name":"poignees","primitives":[{"attributes":{"NORMAL":61,"POSITION":60,"TANGENT":62,"TEXCOORD_0":63},"indices":59,"material":0}]},{"name":"fuselage","primitives":[{"attributes":{"NORMAL":66,"POSITION":65,"TANGENT":67,"TEXCOORD_0":68},"indices":64,"material":0}]},{"name":"trous","primitives":[{"attributes":{"NORMAL":71,"POSITION":70,"TEXCOORD_0":72},"indices":69,"material":0}]},{"name":"tipwing","primitives":[{"attributes":{"NORMAL":75,"POSITION":74,"TEXCOORD_0":76},"indices":73,"material":0}]},{"name":"porteD","primitives":[{"attributes":{"NORMAL":79,"POSITION":78,"TANGENT":80,"TEXCOORD_0":81},"indices":77,"material":0}]},{"name":"marchepieds","primitives":[{"attributes":{"NORMAL":84,"POSITION":83,"TANGENT":85,"TEXCOORD_0":86},"indices":82,"material":0}]},{"name":"cargo","primitives":[{"attributes":{"NORMAL":89,"POSITION":88,"TANGENT":90,"TEXCOORD_0":91},"indices":87,"material":0}]},{"name":"cacheD","primitives":[{"attributes":{"NORMAL":94,"POSITION":93,"TANGENT":95,"TEXCOORD_0":96},"indices":92,"material":0}]},{"name":"profondeur","primitives":[{"attributes":{"NORMAL":99,"POSITION":98,"TANGENT":100,"TEXCOORD_0":101},"indices":97,"material":0}]},{"name":"roueA","primitives":[{"attributes":{"NORMAL":104,"POSITION":103,"TANGENT":105,"TEXCOORD_0":106},"indices":102,"material":0}]},{"name":"vitreporteD","primitives":[{"attributes":{"NORMAL":109,"POSITION":108,"TANGENT":110,"TEXCOORD_0":111},"indices":107,"material":2}]},{"name":"voletG","primitives":[{"attributes":{"NORMAL":114,"POSITION":113,"TANGENT":115,"TEXCOORD_0":116},"indices":112,"material":0}]},{"name":"axeG","primitives":[{"attributes":{"NORMAL":119,"POSITION":118,"TANGENT":120,"TEXCOORD_0":121},"indices":117,"material":0}]},{"name":"porteG","primitives":[{"attributes":{"NORMAL":124,"POSITION":123,"TANGENT":125,"TEXCOORD_0":126},"indices":122,"material":0}]},{"name":"echappes","primitives":[{"attributes":{"NORMAL":129,"POSITION":128,"TANGENT":130,"TEXCOORD_0":131},"indices":127,"material":0}]},{"name":"propblur","primitives":[{"attributes":{"NORMAL":134,"POSITION":133,"TANGENT":135,"TEXCOORD_0":136},"indices":132,"material":1}]},{"name":"ailes2","primitives":[{"attributes":{"NORMAL":139,"POSITION":138,"TANGENT":140,"TEXCOORD_0":141},"indices":137,"material":0}]},{"name":"roueD","primitives":[{"attributes":{"NORMAL":144,"POSITION":143,"TANGENT":145,"TEXCOORD_0":146},"indices":142,"material":0}]},{"name":"aileronG","primitives":[{"attributes":{"NORMAL":149,"POSITION":148,"TANGENT":150,"TEXCOORD_0":151},"indices":147,"material":0}]},{"name":"bosses","primitives":[{"attributes":{"NORMAL":154,"POSITION":153,"TANGENT":155,"TEXCOORD_0":156},"indices":152,"material":0}]},{"name":"lampe","primitives":[{"attributes":{"NORMAL":159,"POSITION":158,"TANGENT":160,"TEXCOORD_0":161},"indices":157,"material":0}]},{"name":"cacheG","primitives":[{"attributes":{"NORMAL":164,"POSITION":163,"TANGENT":165,"TEXCOORD_0":166},"indices":162,"material":0}]},{"name":"aileronD","primitives":[{"attributes":{"NORMAL":169,"POSITION":168,"TANGENT":170,"TEXCOORD_0":171},"indices":167,"material":0}]},{"name":"ailes","primitives":[{"attributes":{"NORMAL":174,"POSITION":173,"TANGENT":175,"TEXCOORD_0":176},"indices":172,"material":0}]},{"name":"axeD","primitives":[{"attributes":{"NORMAL":179,"POSITION":178,"TANGENT":180,"TEXCOORD_0":181},"indices":177,"material":0}]},{"name":"Airline tail surface overlay","primitives":[{"attributes":{"POSITION":182,"NORMAL":183},"material":3},{"attributes":{"POSITION":184,"NORMAL":185,"TEXCOORD_0":186},"material":4}]}],"nodes":[{"mesh":34,"name":"aileronD"},{"mesh":30,"name":"aileronG"},{"mesh":35,"name":"ailes"},{"mesh":28,"name":"ailes2"},{"mesh":6,"name":"antennes"},{"mesh":1,"name":"axeA"},{"mesh":36,"name":"axeD"},{"mesh":24,"name":"axeG"},{"mesh":10,"name":"bol"},{"mesh":31,"name":"bosses"},{"mesh":11,"name":"cacheA"},{"mesh":19,"name":"cacheD"},{"mesh":33,"name":"cacheG"},{"mesh":18,"name":"cargo"},{"mesh":2,"name":"crochet"},{"mesh":8,"name":"direction"},{"mesh":26,"name":"echappes"},{"mesh":13,"name":"fuselage"},{"mesh":9,"name":"helice"},{"mesh":32,"name":"lampe"},{"mesh":17,"name":"marchepieds"},{"mesh":12,"name":"poignees"},{"mesh":16,"name":"porteD"},{"mesh":25,"name":"porteG"},{"mesh":20,"name":"profondeur"},{"mesh":27,"name":"propblur"},{"mesh":3,"name":"propdisc"},{"mesh":21,"name":"roueA"},{"mesh":29,"name":"roueD"},{"mesh":0,"name":"roueG"},{"mesh":15,"name":"tipwing"},{"mesh":14,"name":"trous"},{"mesh":22,"name":"vitreporteD"},{"mesh":4,"name":"vitreporteG"},{"mesh":5,"name":"vitres"},{"mesh":7,"name":"voletD"},{"mesh":23,"name":"voletG"},{"name":"SkywardCoordinateAlignment","matrix":[1,0,0,0,0,1,0,0,0,0,1,0,0,0,0,1],"children":[36,35,34,33,32,31,30,29,28,27,26,25,24,23,22,21,20,19,18,17,16,15,14,13,12,11,10,9,8,7,6,5,4,3,2,1,0]},{"name":"AirlineTailBranding","mesh":37}],"samplers":[{},{"magFilter":9729,"minFilter":9987,"wrapS":33071,"wrapT":33071}],"scene":0,"scenes":[{"name":"Scene","nodes":[37,38]}],"textures":[{"sampler":0,"source":0},{"sampler":0,"source":1},{"source":2,"sampler":1}],"extras":{"skyward":{"source":"https://github.com/Ysurac/FlightAirMap-3dmodels","commit":"0906d9ba1bdd906ce45807e45ed706c09912db19","changes":"Converted legacy glTF to glTF 2.0 with Cesium; rigid axis alignment, horizontal centering, and source transforms baked into positions/normals for correct Cesium bounds. Original shape, materials and paint retained. Added surface-following operator tail paint and unmodified identification-logo texture. Branding is illustrative, not a registration-specific livery.","license":"GPL-2.0","sourceFiles":["source/flightairmap/sr22/COPYING","source/flightairmap/sr22/sr22.blend"],"operator":"PGT"}}}