{"accessors":[{"bufferView":1,"componentType":5123,"count":408,"max":[315],"min":[0],"type":"SCALAR"},{"bufferView":2,"componentType":5126,"count":316,"max":[0.5950021147727966,0.7485156059265137,16.2793025970459],"min":[-0.5950040221214294,-0.4868246018886566,15.341590881347656],"type":"VEC3"},{"bufferView":3,"componentType":5126,"count":316,"type":"VEC3"},{"bufferView":4,"componentType":5126,"count":316,"max":[1,1],"min":[0,0],"type":"VEC2"},{"bufferView":5,"componentType":5123,"count":3468,"max":[2325],"min":[0],"type":"SCALAR"},{"bufferView":6,"componentType":5126,"count":2326,"max":[1.4797860383987427,1.852123737335205,14.054244995117188],"min":[-1.4797884225845337,-0.4691484868526459,-6.361234188079834],"type":"VEC3"},{"bufferView":7,"componentType":5126,"count":2326,"type":"VEC3"},{"bufferView":8,"componentType":5126,"count":2326,"max":[1,1],"min":[0,0],"type":"VEC2"},{"bufferView":9,"componentType":5123,"count":65910,"max":[14771],"min":[0],"type":"SCALAR"},{"bufferView":10,"componentType":5126,"count":14772,"max":[14.49080753326416,6.715670108795166,20.768375396728516],"min":[-14.49080753326416,-1.3175698518753052,-20.768375396728516],"type":"VEC3"},{"bufferView":11,"componentType":5126,"count":14772,"type":"VEC3"},{"bufferView":12,"componentType":5126,"count":14772,"max":[0.9902786016464233,1.042399063706398],"min":[0.004318236839026213,0.012526392936706543],"type":"VEC2"},{"bufferView":13,"componentType":5126,"count":3582,"type":"VEC3","min":[-1.0153740334976742,1.49406413435936,-19.856216430664062],"max":[1.015375330527997,6.687704563140869,-7.604133129119873]},{"bufferView":14,"componentType":5126,"count":3582,"type":"VEC3"},{"bufferView":15,"componentType":5126,"count":576,"type":"VEC3","min":[-0.2583386981487274,3.654229029700309,-16.65647302099034],"max":[0.25833835542201994,6.3886807154537735,-13.922021335236877]},{"bufferView":16,"componentType":5126,"count":576,"type":"VEC3"},{"bufferView":17,"componentType":5126,"count":576,"type":"VEC2"}],"asset":{"generator":"Khronos Blender glTF 2.0 exporter","version":"2.0","copyright":"FlightGear model authors / FlightAirMap contributors; GPL-2.0. See source/flightairmap/t134/ for license and editable sources."},"bufferViews":[{"buffer":0,"byteLength":495728,"byteOffset":0},{"buffer":0,"byteLength":816,"byteOffset":495728,"target":34963},{"buffer":0,"byteLength":3792,"byteOffset":496544,"target":34962},{"buffer":0,"byteLength":3792,"byteOffset":500336,"target":34962},{"buffer":0,"byteLength":2528,"byteOffset":504128,"target":34962},{"buffer":0,"byteLength":6936,"byteOffset":506656,"target":34963},{"buffer":0,"byteLength":27912,"byteOffset":513592,"target":34962},{"buffer":0,"byteLength":27912,"byteOffset":541504,"target":34962},{"buffer":0,"byteLength":18608,"byteOffset":569416,"target":34962},{"buffer":0,"byteLength":131820,"byteOffset":588024,"target":34963},{"buffer":0,"byteLength":177264,"byteOffset":719844,"target":34962},{"buffer":0,"byteLength":177264,"byteOffset":897108,"target":34962},{"buffer":0,"byteLength":118176,"byteOffset":1074372,"target":34962},{"buffer":1,"byteOffset":0,"byteLength":42984,"target":34962},{"buffer":1,"byteOffset":42984,"byteLength":42984,"target":34962},{"buffer":1,"byteOffset":85968,"byteLength":6912,"target":34962},{"buffer":1,"byteOffset":92880,"byteLength":6912,"target":34962},{"buffer":1,"byteOffset":99792,"byteLength":4608,"target":34962}],"buffers":[{"byteLength":1192548,"extras":{},"uri":"../t134-v1-0.bin"},{"uri":"t134-tail-v1.bin?tail=2","byteLength":104400}],"images":[{"bufferView":0,"mimeType":"image/png","name":"texture.png","extras":{}},{"uri":"../../../airlines/JBU.png"}],"materials":[{"name":"DefaultWhite","pbrMetallicRoughness":{"baseColorFactor":[0.800000011920929,0.800000011920929,0.800000011920929,1],"baseColorTexture":{"index":0},"metallicFactor":0}},{"alphaMode":"BLEND","name":"Transparent","pbrMetallicRoughness":{"baseColorFactor":[0.800000011920929,0.800000011920929,0.800000011920929,0.30000001192092896],"metallicFactor":0}},{"alphaMode":"BLEND","name":"Transparent.001","pbrMetallicRoughness":{"baseColorFactor":[0.800000011920929,0.800000011920929,0.800000011920929,0.30000001192092896],"baseColorTexture":{"index":0},"metallicFactor":0}},{"name":"Operator tail paint","doubleSided":true,"pbrMetallicRoughness":{"baseColorFactor":[0.09803921568627451,0.2235294117647059,0.4745098039215686,1],"metallicFactor":0,"roughnessFactor":0.65}},{"name":"Operator logo identification","doubleSided":true,"alphaMode":"MASK","alphaCutoff":0.08,"pbrMetallicRoughness":{"baseColorTexture":{"index":1},"metallicFactor":0,"roughnessFactor":0.7},"emissiveFactor":[0.18,0.18,0.18],"emissiveTexture":{"index":1}}],"meshes":[{"name":"noze2","primitives":[{"attributes":{"NORMAL":2,"POSITION":1,"TEXCOORD_0":3},"indices":0,"material":2},{"attributes":{"NORMAL":6,"POSITION":5,"TEXCOORD_0":7},"indices":4,"material":1},{"attributes":{"NORMAL":10,"POSITION":9,"TEXCOORD_0":11},"indices":8,"material":0}]},{"name":"Airline tail surface overlay","primitives":[{"attributes":{"POSITION":12,"NORMAL":13},"material":3},{"attributes":{"POSITION":14,"NORMAL":15,"TEXCOORD_0":16},"material":4}]}],"nodes":[{"mesh":0,"name":"noze2"},{"name":"SkywardCoordinateAlignment","matrix":[1,0,0,0,0,1,0,0,0,0,1,0,0,0,0,1],"children":[0]},{"name":"AirlineTailBranding","mesh":1}],"samplers":[{},{"magFilter":9729,"minFilter":9987,"wrapS":33071,"wrapT":33071}],"scene":0,"scenes":[{"name":"Scene","nodes":[1,2]}],"textures":[{"sampler":0,"source":0},{"source":1,"sampler":1}],"extras":{"skyward":{"source":"https://github.com/Ysurac/FlightAirMap-3dmodels","commit":"0906d9ba1bdd906ce45807e45ed706c09912db19","changes":"Converted legacy glTF to glTF 2.0 with Cesium; rigid axis alignment, horizontal centering, and source transforms baked into positions/normals for correct Cesium bounds. Original shape, materials and paint retained. Added surface-following operator tail paint and unmodified identification-logo texture. Branding is illustrative, not a registration-specific livery.","license":"GPL-2.0","sourceFiles":["source/flightairmap/t134/COPYING","source/flightairmap/t134/t134.blend"],"operator":"JBU"}}}