{"asset":{"version":"2.0","generator":"Skyward original illustrative jumbo silhouette"},"scene":0,"scenes":[{"nodes":[0]}],"nodes":[{"mesh":0}],"meshes":[{"primitives":[{"attributes":{"POSITION":0},"indices":1,"material":0}]}],"materials":[{"pbrMetallicRoughness":{"baseColorFactor":[0.85,0.94,0.96,1],"metallicFactor":0.15,"roughnessFactor":0.6},"doubleSided":true}],"buffers":[{"uri":"data:application/octet-stream;base64,","byteLength":8778}],"bufferViews":[{"buffer":0,"byteOffset":0,"byteLength":7524,"target":34962},{"buffer":0,"byteOffset":7524,"byteLength":1254,"target":34963}],"accessors":[{"bufferView":0,"componentType":5126,"count":627,"type":"VEC3","min":[-34.8,-3.565,-35.2],"max":[34.8,13.950000000000001,35.2]},{"bufferView":1,"componentType":5123,"count":627,"type":"SCALAR"}]}