{"asset":{"version":"2.0","generator":"Skyward original illustrative a220 profile; logos for operator identification"},"scene":0,"scenes":[{"nodes":[0,1]}],"nodes":[{"mesh":0},{"mesh":1,"name":"Gear"}],"meshes":[{"primitives":[{"attributes":{"POSITION":0,"NORMAL":1},"material":0},{"attributes":{"POSITION":2,"NORMAL":3},"material":1},{"attributes":{"POSITION":4,"NORMAL":5},"material":2},{"attributes":{"POSITION":6,"NORMAL":7},"material":3},{"attributes":{"POSITION":10,"NORMAL":11,"TEXCOORD_0":12},"material":5},{"attributes":{"POSITION":13,"NORMAL":14},"material":6},{"attributes":{"POSITION":15,"NORMAL":16},"material":7}]},{"primitives":[{"attributes":{"POSITION":8,"NORMAL":9},"material":4}]}],"materials":[{"doubleSided":true,"pbrMetallicRoughness":{"baseColorFactor":[0.94,0.95,0.96,1],"metallicFactor":0.18,"roughnessFactor":0.3}},{"doubleSided":true,"pbrMetallicRoughness":{"baseColorFactor":[0.64,0.68,0.72,1],"metallicFactor":0.18,"roughnessFactor":0.3}},{"doubleSided":true,"pbrMetallicRoughness":{"baseColorFactor":[0.13725490196078433,0.30196078431372547,0.6078431372549019,1],"metallicFactor":0.18,"roughnessFactor":0.3}},{"doubleSided":true,"pbrMetallicRoughness":{"baseColorFactor":[0.02,0.055,0.085,1],"metallicFactor":0.18,"roughnessFactor":0.17}},{"doubleSided":true,"pbrMetallicRoughness":{"baseColorFactor":[0.07,0.08,0.09,1],"metallicFactor":0.18,"roughnessFactor":0.3}},{"doubleSided":true,"pbrMetallicRoughness":{"baseColorFactor":[1,1,1,1],"metallicFactor":0,"roughnessFactor":0.75,"baseColorTexture":{"index":0}},"alphaMode":"BLEND"},{"doubleSided":true,"pbrMetallicRoughness":{"baseColorFactor":[0.36,0.4,0.44,1],"metallicFactor":0.7,"roughnessFactor":0.3}},{"doubleSided":true,"pbrMetallicRoughness":{"baseColorFactor":[0.13725490196078433,0.30196078431372547,0.6078431372549019,1],"metallicFactor":0.18,"roughnessFactor":0.3}}],"buffers":[{"uri":"a220-v3.bin","byteLength":213888}],"bufferViews":[{"buffer":0,"byteOffset":0,"byteLength":34560,"target":34962},{"buffer":0,"byteOffset":34560,"byteLength":34560,"target":34962},{"buffer":0,"byteOffset":69120,"byteLength":2880,"target":34962},{"buffer":0,"byteOffset":72000,"byteLength":2880,"target":34962},{"buffer":0,"byteOffset":74880,"byteLength":1296,"target":34962},{"buffer":0,"byteOffset":76176,"byteLength":1296,"target":34962},{"buffer":0,"byteOffset":77472,"byteLength":29088,"target":34962},{"buffer":0,"byteOffset":106560,"byteLength":29088,"target":34962},{"buffer":0,"byteOffset":135648,"byteLength":2592,"target":34962},{"buffer":0,"byteOffset":138240,"byteLength":2592,"target":34962},{"buffer":0,"byteOffset":140832,"byteLength":288,"target":34962},{"buffer":0,"byteOffset":141120,"byteLength":288,"target":34962},{"buffer":0,"byteOffset":141408,"byteLength":192,"target":34962},{"buffer":0,"byteOffset":141600,"byteLength":15264,"target":34962},{"buffer":0,"byteOffset":156864,"byteLength":15264,"target":34962},{"buffer":0,"byteOffset":172128,"byteLength":20880,"target":34962},{"buffer":0,"byteOffset":193008,"byteLength":20880,"target":34962}],"accessors":[{"bufferView":0,"componentType":5126,"count":2880,"type":"VEC3","min":[-1.75,-1.75,-19.0],"max":[1.75,1.75,19.0]},{"bufferView":1,"componentType":5126,"count":2880,"type":"VEC3"},{"bufferView":2,"componentType":5126,"count":240,"type":"VEC3","min":[-17.5,-2.1525,-18.62],"max":[17.5,1.3800000000000001,3.8000000000000003]},{"bufferView":3,"componentType":5126,"count":240,"type":"VEC3"},{"bufferView":4,"componentType":5126,"count":108,"type":"VEC3","min":[-17.5,0.7000000000000001,-18.81],"max":[17.5,7.26,-7.22]},{"bufferView":5,"componentType":5126,"count":108,"type":"VEC3"},{"bufferView":6,"componentType":5126,"count":2424,"type":"VEC3","min":[-7.406000000000001,-2.7685,-8.870000000000001],"max":[7.406000000000001,1.1725,15.77]},{"bufferView":7,"componentType":5126,"count":2424,"type":"VEC3"},{"bufferView":8,"componentType":5126,"count":216,"type":"VEC3","min":[-1.7000000000000002,-3.75,-4.180000000000001],"max":[1.7000000000000002,-1.7499999999999998,11.4]},{"bufferView":9,"componentType":5126,"count":216,"type":"VEC3"},{"bufferView":10,"componentType":5126,"count":24,"type":"VEC3","min":[-1.79,-0.735,-16.986],"max":[1.79,5.550000000000001,8.7075]},{"bufferView":11,"componentType":5126,"count":24,"type":"VEC3"},{"bufferView":12,"componentType":5126,"count":24,"type":"VEC2"},{"bufferView":13,"componentType":5126,"count":1272,"type":"VEC3","min":[-7.5383000000000004,-2.9008,-8.74],"max":[7.5383000000000004,1.05,10.690000000000001]},{"bufferView":14,"componentType":5126,"count":1272,"type":"VEC3"},{"bufferView":15,"componentType":5126,"count":1740,"type":"VEC3","min":[-7.595000000000001,-2.9574999999999996,-7.22],"max":[7.595000000000001,-0.8574999999999999,11.4]},{"bufferView":16,"componentType":5126,"count":1740,"type":"VEC3"}],"images":[{"uri":"../../airlines/SAS.png"}],"textures":[{"source":0,"sampler":0}],"samplers":[{"magFilter":9729,"minFilter":9987,"wrapS":33071,"wrapT":33071}]}