{"asset":{"version":"2.0","generator":"Skyward detailed procedural a220 fallback v6; approximate airframe; operator identification logos"},"scene":0,"scenes":[{"nodes":[0,1,5,6,7,8,9,10,11,12,13,14,15,16,17]}],"nodes":[{"mesh":0},{"mesh":1,"name":"Gear","children":[2,3,4]},{"mesh":2,"name":"WheelN","translation":[0,-3.35,11.02]},{"mesh":3,"name":"WheelL","translation":[-1.4000000000000001,-3.35,-3.8000000000000003]},{"mesh":4,"name":"WheelR","translation":[1.4000000000000001,-3.35,-3.8000000000000003]},{"mesh":5,"name":"SlatL"},{"mesh":6,"name":"FlapL"},{"mesh":7,"name":"SpoilerL"},{"mesh":8,"name":"ElevatorL"},{"mesh":9,"name":"SlatR"},{"mesh":10,"name":"FlapR"},{"mesh":11,"name":"SpoilerR"},{"mesh":12,"name":"ElevatorR"},{"mesh":13,"name":"Rudder"},{"mesh":14,"name":"FlexWingL"},{"mesh":15,"name":"FlexWingR"},{"mesh":16,"name":"SkywardFan0"},{"mesh":17,"name":"SkywardFan1"}],"meshes":[{"name":"AirframeWithCockpitGlazing","primitives":[{"indices":3,"attributes":{"POSITION":0,"NORMAL":1,"TEXCOORD_0":2},"material":0},{"indices":6,"attributes":{"POSITION":4,"NORMAL":5},"material":1},{"indices":9,"attributes":{"POSITION":7,"NORMAL":8},"material":2},{"attributes":{"POSITION":10,"NORMAL":11},"material":3},{"indices":15,"attributes":{"POSITION":12,"NORMAL":13,"TEXCOORD_0":14},"material":5},{"indices":18,"attributes":{"POSITION":16,"NORMAL":17},"material":6},{"indices":21,"attributes":{"POSITION":19,"NORMAL":20},"material":7},{"attributes":{"POSITION":101,"NORMAL":102,"TEXCOORD_0":103},"material":8}]},{"primitives":[{"indices":58,"attributes":{"POSITION":55,"NORMAL":56,"TEXCOORD_0":57},"material":0,"extras":{"gear":true}},{"indices":61,"attributes":{"POSITION":59,"NORMAL":60},"material":1,"extras":{"gear":true}},{"indices":64,"attributes":{"POSITION":62,"NORMAL":63},"material":6,"extras":{"gear":true}}]},{"primitives":[{"indices":24,"attributes":{"POSITION":22,"NORMAL":23},"material":4,"extras":{"wheel":0}},{"indices":94,"attributes":{"POSITION":92,"NORMAL":93},"material":6,"extras":{"wheel":0}}]},{"primitives":[{"indices":27,"attributes":{"POSITION":25,"NORMAL":26},"material":4,"extras":{"wheel":1}},{"indices":97,"attributes":{"POSITION":95,"NORMAL":96},"material":6,"extras":{"wheel":1}}]},{"primitives":[{"indices":30,"attributes":{"POSITION":28,"NORMAL":29},"material":4,"extras":{"wheel":2}},{"indices":100,"attributes":{"POSITION":98,"NORMAL":99},"material":6,"extras":{"wheel":2}}]},{"primitives":[{"indices":67,"attributes":{"POSITION":65,"NORMAL":66},"material":1,"extras":{"surface":0}}]},{"primitives":[{"indices":70,"attributes":{"POSITION":68,"NORMAL":69},"material":1,"extras":{"surface":1}}]},{"primitives":[{"indices":73,"attributes":{"POSITION":71,"NORMAL":72},"material":1,"extras":{"surface":2}}]},{"primitives":[{"indices":76,"attributes":{"POSITION":74,"NORMAL":75},"material":1,"extras":{"surface":3}}]},{"primitives":[{"indices":79,"attributes":{"POSITION":77,"NORMAL":78},"material":1,"extras":{"surface":4}}]},{"primitives":[{"indices":82,"attributes":{"POSITION":80,"NORMAL":81},"material":1,"extras":{"surface":5}}]},{"primitives":[{"indices":85,"attributes":{"POSITION":83,"NORMAL":84},"material":1,"extras":{"surface":6}}]},{"primitives":[{"indices":88,"attributes":{"POSITION":86,"NORMAL":87},"material":1,"extras":{"surface":7}}]},{"primitives":[{"indices":91,"attributes":{"POSITION":89,"NORMAL":90},"material":2,"extras":{"surface":8}}]},{"primitives":[{"indices":33,"attributes":{"POSITION":31,"NORMAL":32},"material":1,"extras":{"wing":0}},{"indices":36,"attributes":{"POSITION":34,"NORMAL":35},"material":2,"extras":{"wing":0}},{"indices":39,"attributes":{"POSITION":37,"NORMAL":38},"material":6,"extras":{"wing":0}}]},{"primitives":[{"indices":42,"attributes":{"POSITION":40,"NORMAL":41},"material":1,"extras":{"wing":1}},{"indices":45,"attributes":{"POSITION":43,"NORMAL":44},"material":2,"extras":{"wing":1}},{"indices":48,"attributes":{"POSITION":46,"NORMAL":47},"material":6,"extras":{"wing":1}}]},{"primitives":[{"indices":51,"attributes":{"POSITION":49,"NORMAL":50},"material":6,"extras":{"fan":0}}]},{"primitives":[{"indices":54,"attributes":{"POSITION":52,"NORMAL":53},"material":6,"extras":{"fan":1}}]}],"materials":[{"doubleSided":true,"pbrMetallicRoughness":{"baseColorFactor":[0.94,0.95,0.96,1],"metallicFactor":0.04,"roughnessFactor":0.27,"baseColorTexture":{"index":1}}},{"doubleSided":true,"pbrMetallicRoughness":{"baseColorFactor":[0.64,0.68,0.72,1],"metallicFactor":0.04,"roughnessFactor":0.4}},{"doubleSided":true,"pbrMetallicRoughness":{"baseColorFactor":[0.9450980392156862,0.4196078431372549,0.13333333333333333,1],"metallicFactor":0.04,"roughnessFactor":0.27}},{"doubleSided":true,"pbrMetallicRoughness":{"baseColorFactor":[0.02,0.055,0.085,1],"metallicFactor":0,"roughnessFactor":0.12}},{"doubleSided":true,"pbrMetallicRoughness":{"baseColorFactor":[0.07,0.08,0.09,1],"metallicFactor":0,"roughnessFactor":0.86}},{"doubleSided":true,"pbrMetallicRoughness":{"baseColorFactor":[1,1,1,1],"metallicFactor":0,"roughnessFactor":0.75,"baseColorTexture":{"index":0}},"alphaMode":"MASK","alphaCutoff":0.08},{"doubleSided":true,"pbrMetallicRoughness":{"baseColorFactor":[0.36,0.4,0.44,1],"metallicFactor":0.8,"roughnessFactor":0.28}},{"doubleSided":true,"pbrMetallicRoughness":{"baseColorFactor":[0.9450980392156862,0.4196078431372549,0.13333333333333333,1],"metallicFactor":0.04,"roughnessFactor":0.27}},{"name":"Operator title","doubleSided":true,"alphaMode":"MASK","alphaCutoff":0.15,"pbrMetallicRoughness":{"baseColorTexture":{"index":2},"baseColorFactor":[0.9450980392156862,0.4196078431372549,0.13333333333333333,1],"roughnessFactor":0.6,"metallicFactor":0}}],"buffers":[{"uri":"a220-v4.bin?tail=2&rig=1&detail=6","byteLength":1303168},{"uri":"a220-title.bin?detail=6","byteLength":18432}],"bufferViews":[{"buffer":0,"byteOffset":0,"byteLength":31980,"target":34962},{"buffer":0,"byteOffset":31980,"byteLength":31980,"target":34962},{"buffer":0,"byteOffset":63960,"byteLength":21320,"target":34962},{"buffer":0,"byteOffset":85280,"byteLength":61440,"target":34963},{"buffer":0,"byteOffset":146720,"byteLength":1080,"target":34962},{"buffer":0,"byteOffset":147800,"byteLength":1080,"target":34962},{"buffer":0,"byteOffset":148880,"byteLength":576,"target":34963},{"buffer":0,"byteOffset":149456,"byteLength":288,"target":34962},{"buffer":0,"byteOffset":149744,"byteLength":288,"target":34962},{"buffer":0,"byteOffset":150032,"byteLength":144,"target":34963},{"buffer":0,"byteOffset":150176,"byteLength":183312,"target":34962},{"buffer":0,"byteOffset":333488,"byteLength":183312,"target":34962},{"buffer":0,"byteOffset":516800,"byteLength":192,"target":34962},{"buffer":0,"byteOffset":516992,"byteLength":192,"target":34962},{"buffer":0,"byteOffset":517184,"byteLength":128,"target":34962},{"buffer":0,"byteOffset":517312,"byteLength":96,"target":34963},{"buffer":0,"byteOffset":517408,"byteLength":50568,"target":34962},{"buffer":0,"byteOffset":567976,"byteLength":50568,"target":34962},{"buffer":0,"byteOffset":618544,"byteLength":49920,"target":34963},{"buffer":0,"byteOffset":668464,"byteLength":20376,"target":34962},{"buffer":0,"byteOffset":688840,"byteLength":20376,"target":34962},{"buffer":0,"byteOffset":709216,"byteLength":36912,"target":34963},{"buffer":0,"byteOffset":746128,"byteLength":21504,"target":34962},{"buffer":0,"byteOffset":767632,"byteLength":21504,"target":34962},{"buffer":0,"byteOffset":789136,"byteLength":10752,"target":34963},{"buffer":0,"byteOffset":799888,"byteLength":21504,"target":34962},{"buffer":0,"byteOffset":821392,"byteLength":21504,"target":34962},{"buffer":0,"byteOffset":842896,"byteLength":10752,"target":34963},{"buffer":0,"byteOffset":853648,"byteLength":21504,"target":34962},{"buffer":0,"byteOffset":875152,"byteLength":21504,"target":34962},{"buffer":0,"byteOffset":896656,"byteLength":10752,"target":34963},{"buffer":0,"byteOffset":907408,"byteLength":39156,"target":34962},{"buffer":0,"byteOffset":946564,"byteLength":39156,"target":34962},{"buffer":0,"byteOffset":985720,"byteLength":58944,"target":34963},{"buffer":0,"byteOffset":1044664,"byteLength":336,"target":34962},{"buffer":0,"byteOffset":1045000,"byteLength":336,"target":34962},{"buffer":0,"byteOffset":1045336,"byteLength":144,"target":34963},{"buffer":0,"byteOffset":1045480,"byteLength":432,"target":34962},{"buffer":0,"byteOffset":1045912,"byteLength":432,"target":34962},{"buffer":0,"byteOffset":1046344,"byteLength":288,"target":34963},{"buffer":0,"byteOffset":1046632,"byteLength":39156,"target":34962},{"buffer":0,"byteOffset":1085788,"byteLength":39156,"target":34962},{"buffer":0,"byteOffset":1124944,"byteLength":58944,"target":34963},{"buffer":0,"byteOffset":1183888,"byteLength":336,"target":34962},{"buffer":0,"byteOffset":1184224,"byteLength":336,"target":34962},{"buffer":0,"byteOffset":1184560,"byteLength":144,"target":34963},{"buffer":0,"byteOffset":1184704,"byteLength":432,"target":34962},{"buffer":0,"byteOffset":1185136,"byteLength":432,"target":34962},{"buffer":0,"byteOffset":1185568,"byteLength":288,"target":34963},{"buffer":0,"byteOffset":1185856,"byteLength":9036,"target":34962},{"buffer":0,"byteOffset":1194892,"byteLength":9036,"target":34962},{"buffer":0,"byteOffset":1203928,"byteLength":12960,"target":34963},{"buffer":0,"byteOffset":1216888,"byteLength":9036,"target":34962},{"buffer":0,"byteOffset":1225924,"byteLength":9036,"target":34962},{"buffer":0,"byteOffset":1234960,"byteLength":12960,"target":34963},{"buffer":0,"byteOffset":1247920,"byteLength":864,"target":34962},{"buffer":0,"byteOffset":1248784,"byteLength":864,"target":34962},{"buffer":0,"byteOffset":1249648,"byteLength":576,"target":34962},{"buffer":0,"byteOffset":1250224,"byteLength":432,"target":34963},{"buffer":0,"byteOffset":1250656,"byteLength":2304,"target":34962},{"buffer":0,"byteOffset":1252960,"byteLength":2304,"target":34962},{"buffer":0,"byteOffset":1255264,"byteLength":1152,"target":34963},{"buffer":0,"byteOffset":1256416,"byteLength":6912,"target":34962},{"buffer":0,"byteOffset":1263328,"byteLength":6912,"target":34962},{"buffer":0,"byteOffset":1270240,"byteLength":3456,"target":34963},{"buffer":0,"byteOffset":1273696,"byteLength":864,"target":34962},{"buffer":0,"byteOffset":1274560,"byteLength":864,"target":34962},{"buffer":0,"byteOffset":1275424,"byteLength":288,"target":34963},{"buffer":0,"byteOffset":1275712,"byteLength":1728,"target":34962},{"buffer":0,"byteOffset":1277440,"byteLength":1728,"target":34962},{"buffer":0,"byteOffset":1279168,"byteLength":576,"target":34963},{"buffer":0,"byteOffset":1279744,"byteLength":288,"target":34962},{"buffer":0,"byteOffset":1280032,"byteLength":288,"target":34962},{"buffer":0,"byteOffset":1280320,"byteLength":96,"target":34963},{"buffer":0,"byteOffset":1280416,"byteLength":288,"target":34962},{"buffer":0,"byteOffset":1280704,"byteLength":288,"target":34962},{"buffer":0,"byteOffset":1280992,"byteLength":144,"target":34963},{"buffer":0,"byteOffset":1281136,"byteLength":864,"target":34962},{"buffer":0,"byteOffset":1282000,"byteLength":864,"target":34962},{"buffer":0,"byteOffset":1282864,"byteLength":288,"target":34963},{"buffer":0,"byteOffset":1283152,"byteLength":1728,"target":34962},{"buffer":0,"byteOffset":1284880,"byteLength":1728,"target":34962},{"buffer":0,"byteOffset":1286608,"byteLength":576,"target":34963},{"buffer":0,"byteOffset":1287184,"byteLength":288,"target":34962},{"buffer":0,"byteOffset":1287472,"byteLength":288,"target":34962},{"buffer":0,"byteOffset":1287760,"byteLength":96,"target":34963},{"buffer":0,"byteOffset":1287856,"byteLength":288,"target":34962},{"buffer":0,"byteOffset":1288144,"byteLength":288,"target":34962},{"buffer":0,"byteOffset":1288432,"byteLength":144,"target":34963},{"buffer":0,"byteOffset":1288576,"byteLength":168,"target":34962},{"buffer":0,"byteOffset":1288744,"byteLength":168,"target":34962},{"buffer":0,"byteOffset":1288912,"byteLength":144,"target":34963},{"buffer":0,"byteOffset":1289056,"byteLength":1584,"target":34962},{"buffer":0,"byteOffset":1290640,"byteLength":1584,"target":34962},{"buffer":0,"byteOffset":1292224,"byteLength":1536,"target":34963},{"buffer":0,"byteOffset":1293760,"byteLength":1584,"target":34962},{"buffer":0,"byteOffset":1295344,"byteLength":1584,"target":34962},{"buffer":0,"byteOffset":1296928,"byteLength":1536,"target":34963},{"buffer":0,"byteOffset":1298464,"byteLength":1584,"target":34962},{"buffer":0,"byteOffset":1300048,"byteLength":1584,"target":34962},{"buffer":0,"byteOffset":1301632,"byteLength":1536,"target":34963},{"buffer":1,"byteOffset":0,"byteLength":6912,"target":34962},{"buffer":1,"byteOffset":6912,"byteLength":6912,"target":34962},{"buffer":1,"byteOffset":13824,"byteLength":4608,"target":34962}],"accessors":[{"bufferView":0,"componentType":5126,"count":2665,"type":"VEC3","min":[-1.75,-1.75,-19.0],"max":[1.75,1.75,19.0]},{"bufferView":1,"componentType":5126,"count":2665,"type":"VEC3"},{"bufferView":2,"componentType":5126,"count":2665,"type":"VEC2"},{"bufferView":3,"componentType":5125,"count":15360,"type":"SCALAR"},{"bufferView":4,"componentType":5126,"count":90,"type":"VEC3","min":[-6.79,-2.1525,-17.67],"max":[6.510000000000001,1.3800000000000001,1.71]},{"bufferView":5,"componentType":5126,"count":90,"type":"VEC3"},{"bufferView":6,"componentType":5125,"count":144,"type":"SCALAR"},{"bufferView":7,"componentType":5126,"count":24,"type":"VEC3","min":[-0.1,0.7000000000000001,-17.67],"max":[0.1,7.26,-10.64]},{"bufferView":8,"componentType":5126,"count":24,"type":"VEC3"},{"bufferView":9,"componentType":5125,"count":36,"type":"SCALAR"},{"bufferView":10,"componentType":5126,"count":15276,"type":"VEC3","min":[-7.406000000000001,-2.7685,-8.870000000000001],"max":[7.406000000000001,1.4453400170540023,16.834]},{"bufferView":11,"componentType":5126,"count":15276,"type":"VEC3"},{"bufferView":12,"componentType":5126,"count":16,"type":"VEC3","min":[-1.79,-0.735,-17.024],"max":[1.79,5.8274,8.7075]},{"bufferView":13,"componentType":5126,"count":16,"type":"VEC3"},{"bufferView":14,"componentType":5126,"count":16,"type":"VEC2"},{"bufferView":15,"componentType":5125,"count":24,"type":"SCALAR"},{"bufferView":16,"componentType":5126,"count":4214,"type":"VEC3","min":[-7.577990000000001,-2.9404899999999996,-9.175],"max":[7.577990000000001,1.4540002710918467,16.834]},{"bufferView":17,"componentType":5126,"count":4214,"type":"VEC3"},{"bufferView":18,"componentType":5125,"count":12480,"type":"SCALAR"},{"bufferView":19,"componentType":5126,"count":1698,"type":"VEC3","min":[-7.595000000000001,-2.9574999999999996,-7.22],"max":[7.595000000000001,-0.8574999999999999,11.4]},{"bufferView":20,"componentType":5126,"count":1698,"type":"VEC3"},{"bufferView":21,"componentType":5125,"count":9228,"type":"SCALAR"},{"bufferView":22,"componentType":5126,"count":1792,"type":"VEC3","min":[-0.41000000000000003,-0.4,-0.4],"max":[0.41000000000000003,0.4,0.4]},{"bufferView":23,"componentType":5126,"count":1792,"type":"VEC3"},{"bufferView":24,"componentType":5125,"count":2688,"type":"SCALAR"},{"bufferView":25,"componentType":5126,"count":1792,"type":"VEC3","min":[-0.41000000000000003,-0.4,-0.4],"max":[0.41000000000000003,0.4,0.4]},{"bufferView":26,"componentType":5126,"count":1792,"type":"VEC3"},{"bufferView":27,"componentType":5125,"count":2688,"type":"SCALAR"},{"bufferView":28,"componentType":5126,"count":1792,"type":"VEC3","min":[-0.41000000000000003,-0.4,-0.4],"max":[0.41000000000000003,0.4,0.4]},{"bufferView":29,"componentType":5126,"count":1792,"type":"VEC3"},{"bufferView":30,"componentType":5125,"count":2688,"type":"SCALAR"},{"bufferView":31,"componentType":5126,"count":3263,"type":"VEC3","min":[-17.5,-1.2129669101819327,-9.609043478260869],"max":[-1.3125,0.9752139521329724,3.8000000000000003]},{"bufferView":32,"componentType":5126,"count":3263,"type":"VEC3"},{"bufferView":33,"componentType":5125,"count":14736,"type":"SCALAR"},{"bufferView":34,"componentType":5126,"count":28,"type":"VEC3","min":[-17.5,0.96,-8.74],"max":[-16.8,3.24,-5.7]},{"bufferView":35,"componentType":5126,"count":28,"type":"VEC3"},{"bufferView":36,"componentType":5125,"count":36,"type":"SCALAR"},{"bufferView":37,"componentType":5126,"count":36,"type":"VEC3","min":[-17.5,-0.49115087872673385,-8.04555],"max":[-1.3125,0.9644773130187095,-3.1768000000000014]},{"bufferView":38,"componentType":5126,"count":36,"type":"VEC3"},{"bufferView":39,"componentType":5125,"count":72,"type":"SCALAR"},{"bufferView":40,"componentType":5126,"count":3263,"type":"VEC3","min":[1.3125,-1.2129669101819327,-9.609043478260869],"max":[17.5,0.9752139521329724,3.8000000000000003]},{"bufferView":41,"componentType":5126,"count":3263,"type":"VEC3"},{"bufferView":42,"componentType":5125,"count":14736,"type":"SCALAR"},{"bufferView":43,"componentType":5126,"count":28,"type":"VEC3","min":[16.8,0.96,-8.74],"max":[17.5,3.24,-5.7]},{"bufferView":44,"componentType":5126,"count":28,"type":"VEC3"},{"bufferView":45,"componentType":5125,"count":36,"type":"SCALAR"},{"bufferView":46,"componentType":5126,"count":36,"type":"VEC3","min":[1.3125,-0.49115087872673385,-8.04555],"max":[17.5,0.9644773130187095,-3.1768000000000014]},{"bufferView":47,"componentType":5126,"count":36,"type":"VEC3"},{"bufferView":48,"componentType":5125,"count":72,"type":"SCALAR"},{"bufferView":49,"componentType":5126,"count":753,"type":"VEC3","min":[-7.377642958039309,-2.7401429580393084,1.1593],"max":[-5.922357041960692,-1.284857041960691,2.0900000000000003]},{"bufferView":50,"componentType":5126,"count":753,"type":"VEC3"},{"bufferView":51,"componentType":5125,"count":3240,"type":"SCALAR"},{"bufferView":52,"componentType":5126,"count":753,"type":"VEC3","min":[5.922357041960692,-2.7401429580393084,1.1593],"max":[7.377642958039309,-1.284857041960691,2.0900000000000003]},{"bufferView":53,"componentType":5126,"count":753,"type":"VEC3"},{"bufferView":54,"componentType":5125,"count":3240,"type":"SCALAR"},{"bufferView":55,"componentType":5126,"count":72,"type":"VEC3","min":[-2.02,-2.775,-4.45],"max":[0.9200000000000002,-1.2875,11.67]},{"bufferView":56,"componentType":5126,"count":72,"type":"VEC3"},{"bufferView":57,"componentType":5126,"count":72,"type":"VEC2"},{"bufferView":58,"componentType":5125,"count":108,"type":"SCALAR"},{"bufferView":59,"componentType":5126,"count":192,"type":"VEC3","min":[-1.52,-2.95,-3.9200000000000004],"max":[1.52,-2.35,11.139999999999999]},{"bufferView":60,"componentType":5126,"count":192,"type":"VEC3"},{"bufferView":61,"componentType":5125,"count":288,"type":"SCALAR"},{"bufferView":62,"componentType":5126,"count":576,"type":"VEC3","min":[-1.82,-3.44,-3.89],"max":[1.82,-1.2249999999999999,11.473051532483916]},{"bufferView":63,"componentType":5126,"count":576,"type":"VEC3"},{"bufferView":64,"componentType":5125,"count":864,"type":"SCALAR"},{"bufferView":65,"componentType":5126,"count":72,"type":"VEC3","min":[-15.75,-1.0526489484905552,-5.808471666171417],"max":[-1.3125,0.7538506248154924,3.8000000000000003]},{"bufferView":66,"componentType":5126,"count":72,"type":"VEC3"},{"bufferView":67,"componentType":5125,"count":72,"type":"SCALAR"},{"bufferView":68,"componentType":5126,"count":144,"type":"VEC3","min":[-15.75,-0.8936748844154149,-8.55],"max":[-1.3125,0.7489898251784568,-4.957457787486989]},{"bufferView":69,"componentType":5126,"count":144,"type":"VEC3"},{"bufferView":70,"componentType":5125,"count":144,"type":"SCALAR"},{"bufferView":71,"componentType":5126,"count":24,"type":"VEC3","min":[-15.75,-0.39853885128862937,-7.8375],"max":[-1.3125,0.8055683856136915,-2.6577417013759317]},{"bufferView":72,"componentType":5126,"count":24,"type":"VEC3"},{"bufferView":73,"componentType":5125,"count":24,"type":"SCALAR"},{"bufferView":74,"componentType":5126,"count":24,"type":"VEC3","min":[-6.3,0.6400000000000001,-18.62],"max":[-0.7000000000000001,1.36,-15.77]},{"bufferView":75,"componentType":5126,"count":24,"type":"VEC3"},{"bufferView":76,"componentType":5125,"count":36,"type":"SCALAR"},{"bufferView":77,"componentType":5126,"count":72,"type":"VEC3","min":[1.3125,-1.0526489484905552,-5.808471666171417],"max":[15.75,0.7538506248154924,3.8000000000000003]},{"bufferView":78,"componentType":5126,"count":72,"type":"VEC3"},{"bufferView":79,"componentType":5125,"count":72,"type":"SCALAR"},{"bufferView":80,"componentType":5126,"count":144,"type":"VEC3","min":[1.3125,-0.8936748844154149,-8.55],"max":[15.75,0.7489898251784568,-4.957457787486989]},{"bufferView":81,"componentType":5126,"count":144,"type":"VEC3"},{"bufferView":82,"componentType":5125,"count":144,"type":"SCALAR"},{"bufferView":83,"componentType":5126,"count":24,"type":"VEC3","min":[1.3125,-0.39853885128862937,-7.8375],"max":[15.75,0.8055683856136915,-2.6577417013759317]},{"bufferView":84,"componentType":5126,"count":24,"type":"VEC3"},{"bufferView":85,"componentType":5125,"count":24,"type":"SCALAR"},{"bufferView":86,"componentType":5126,"count":24,"type":"VEC3","min":[0.7000000000000001,0.6400000000000001,-18.62],"max":[6.3,1.36,-15.77]},{"bufferView":87,"componentType":5126,"count":24,"type":"VEC3"},{"bufferView":88,"componentType":5125,"count":36,"type":"SCALAR"},{"bufferView":89,"componentType":5126,"count":14,"type":"VEC3","min":[0,0.6200000000000001,-18.81],"max":[0,7.34,-17.024]},{"bufferView":90,"componentType":5126,"count":14,"type":"VEC3"},{"bufferView":91,"componentType":5125,"count":36,"type":"SCALAR"},{"bufferView":92,"componentType":5126,"count":132,"type":"VEC3","min":[-0.41100000000000003,-0.22000000000000003,-0.22000000000000003],"max":[0.41100000000000003,0.22000000000000003,0.22000000000000003]},{"bufferView":93,"componentType":5126,"count":132,"type":"VEC3"},{"bufferView":94,"componentType":5125,"count":384,"type":"SCALAR"},{"bufferView":95,"componentType":5126,"count":132,"type":"VEC3","min":[-0.41100000000000003,-0.22000000000000003,-0.22000000000000003],"max":[0.41100000000000003,0.22000000000000003,0.22000000000000003]},{"bufferView":96,"componentType":5126,"count":132,"type":"VEC3"},{"bufferView":97,"componentType":5125,"count":384,"type":"SCALAR"},{"bufferView":98,"componentType":5126,"count":132,"type":"VEC3","min":[-0.41100000000000003,-0.22000000000000003,-0.22000000000000003],"max":[0.41100000000000003,0.22000000000000003,0.22000000000000003]},{"bufferView":99,"componentType":5126,"count":132,"type":"VEC3"},{"bufferView":100,"componentType":5125,"count":384,"type":"SCALAR"},{"bufferView":101,"componentType":5126,"count":576,"type":"VEC3","min":[-1.6606665305566841,0.63,-4.56],"max":[1.6606665305566841,1.0675,9.5]},{"bufferView":102,"componentType":5126,"count":576,"type":"VEC3"},{"bufferView":103,"componentType":5126,"count":576,"type":"VEC2"}],"images":[{"uri":"../../airlines/EZY.png"},{"uri":"fallback-paint-v5.png"},{"uri":"title-EZY.png"}],"textures":[{"source":0,"sampler":0},{"source":1,"sampler":0},{"source":2,"sampler":0}],"samplers":[{"magFilter":9729,"minFilter":9987,"wrapS":33071,"wrapT":33071}]}