{"asset":{"version":"2.0","generator":"Skyward detailed procedural a319 fallback v5; approximate airframe; operator identification logos"},"scene":0,"scenes":[{"nodes":[0,1,5,6,7,8]}],"nodes":[{"mesh":0},{"mesh":1,"name":"Gear","children":[2,3,4]},{"mesh":2,"name":"WheelN","translation":[0,-3.6,9.86]},{"mesh":3,"name":"WheelL","translation":[-1.6,-3.6,-3.4000000000000004]},{"mesh":4,"name":"WheelR","translation":[1.6,-3.6,-3.4000000000000004]},{"mesh":5,"name":"FlexWingL"},{"mesh":6,"name":"FlexWingR"},{"mesh":7,"name":"SkywardFan0"},{"mesh":8,"name":"SkywardFan1"}],"meshes":[{"name":"AirframeWithCockpitGlazing","primitives":[{"indices":3,"attributes":{"POSITION":0,"NORMAL":1,"TEXCOORD_0":2},"material":0},{"indices":6,"attributes":{"POSITION":4,"NORMAL":5},"material":1},{"indices":9,"attributes":{"POSITION":7,"NORMAL":8},"material":2},{"attributes":{"POSITION":10,"NORMAL":11},"material":3},{"indices":15,"attributes":{"POSITION":12,"NORMAL":13,"TEXCOORD_0":14},"material":5},{"indices":18,"attributes":{"POSITION":16,"NORMAL":17},"material":6},{"indices":21,"attributes":{"POSITION":19,"NORMAL":20},"material":7}]},{"primitives":[{"indices":57,"attributes":{"POSITION":55,"NORMAL":56},"material":1,"extras":{"gear":true}},{"indices":60,"attributes":{"POSITION":58,"NORMAL":59},"material":6,"extras":{"gear":true}}]},{"primitives":[{"indices":24,"attributes":{"POSITION":22,"NORMAL":23},"material":4,"extras":{"wheel":0}}]},{"primitives":[{"indices":27,"attributes":{"POSITION":25,"NORMAL":26},"material":4,"extras":{"wheel":1}}]},{"primitives":[{"indices":30,"attributes":{"POSITION":28,"NORMAL":29},"material":4,"extras":{"wheel":2}}]},{"primitives":[{"indices":33,"attributes":{"POSITION":31,"NORMAL":32},"material":1,"extras":{"wing":0}},{"indices":36,"attributes":{"POSITION":34,"NORMAL":35},"material":2,"extras":{"wing":0}},{"indices":39,"attributes":{"POSITION":37,"NORMAL":38},"material":6,"extras":{"wing":0}}]},{"primitives":[{"indices":42,"attributes":{"POSITION":40,"NORMAL":41},"material":1,"extras":{"wing":1}},{"indices":45,"attributes":{"POSITION":43,"NORMAL":44},"material":2,"extras":{"wing":1}},{"indices":48,"attributes":{"POSITION":46,"NORMAL":47},"material":6,"extras":{"wing":1}}]},{"primitives":[{"indices":51,"attributes":{"POSITION":49,"NORMAL":50},"material":6,"extras":{"fan":0}}]},{"primitives":[{"indices":54,"attributes":{"POSITION":52,"NORMAL":53},"material":6,"extras":{"fan":1}}]}],"materials":[{"doubleSided":true,"pbrMetallicRoughness":{"baseColorFactor":[0.03,0.16,0.6,1],"metallicFactor":0.04,"roughnessFactor":0.27,"baseColorTexture":{"index":1}}},{"doubleSided":true,"pbrMetallicRoughness":{"baseColorFactor":[0.64,0.68,0.72,1],"metallicFactor":0.04,"roughnessFactor":0.4}},{"doubleSided":true,"pbrMetallicRoughness":{"baseColorFactor":[0.1450980392156863,0.2980392156862745,0.7607843137254902,1],"metallicFactor":0.04,"roughnessFactor":0.27}},{"doubleSided":true,"pbrMetallicRoughness":{"baseColorFactor":[0.02,0.055,0.085,1],"metallicFactor":0,"roughnessFactor":0.12}},{"doubleSided":true,"pbrMetallicRoughness":{"baseColorFactor":[0.07,0.08,0.09,1],"metallicFactor":0,"roughnessFactor":0.86}},{"doubleSided":true,"pbrMetallicRoughness":{"baseColorFactor":[1,1,1,1],"metallicFactor":0,"roughnessFactor":0.75,"baseColorTexture":{"index":0}},"alphaMode":"MASK","alphaCutoff":0.08},{"doubleSided":true,"pbrMetallicRoughness":{"baseColorFactor":[0.36,0.4,0.44,1],"metallicFactor":0.8,"roughnessFactor":0.28}},{"doubleSided":true,"pbrMetallicRoughness":{"baseColorFactor":[0.1450980392156863,0.2980392156862745,0.7607843137254902,1],"metallicFactor":0.04,"roughnessFactor":0.27}}],"buffers":[{"uri":"a319-v4.bin?tail=2&rig=1&detail=5","byteLength":1186960}],"bufferViews":[{"buffer":0,"byteOffset":0,"byteLength":31980,"target":34962},{"buffer":0,"byteOffset":31980,"byteLength":31980,"target":34962},{"buffer":0,"byteOffset":63960,"byteLength":21320,"target":34962},{"buffer":0,"byteOffset":85280,"byteLength":61440,"target":34963},{"buffer":0,"byteOffset":146720,"byteLength":1080,"target":34962},{"buffer":0,"byteOffset":147800,"byteLength":1080,"target":34962},{"buffer":0,"byteOffset":148880,"byteLength":576,"target":34963},{"buffer":0,"byteOffset":149456,"byteLength":288,"target":34962},{"buffer":0,"byteOffset":149744,"byteLength":288,"target":34962},{"buffer":0,"byteOffset":150032,"byteLength":144,"target":34963},{"buffer":0,"byteOffset":150176,"byteLength":181872,"target":34962},{"buffer":0,"byteOffset":332048,"byteLength":181872,"target":34962},{"buffer":0,"byteOffset":513920,"byteLength":192,"target":34962},{"buffer":0,"byteOffset":514112,"byteLength":192,"target":34962},{"buffer":0,"byteOffset":514304,"byteLength":128,"target":34962},{"buffer":0,"byteOffset":514432,"byteLength":96,"target":34963},{"buffer":0,"byteOffset":514528,"byteLength":36816,"target":34962},{"buffer":0,"byteOffset":551344,"byteLength":36816,"target":34962},{"buffer":0,"byteOffset":588160,"byteLength":34560,"target":34963},{"buffer":0,"byteOffset":622720,"byteLength":20376,"target":34962},{"buffer":0,"byteOffset":643096,"byteLength":20376,"target":34962},{"buffer":0,"byteOffset":663472,"byteLength":36912,"target":34963},{"buffer":0,"byteOffset":700384,"byteLength":14424,"target":34962},{"buffer":0,"byteOffset":714808,"byteLength":14424,"target":34962},{"buffer":0,"byteOffset":729232,"byteLength":7680,"target":34963},{"buffer":0,"byteOffset":736912,"byteLength":14424,"target":34962},{"buffer":0,"byteOffset":751336,"byteLength":14424,"target":34962},{"buffer":0,"byteOffset":765760,"byteLength":7680,"target":34963},{"buffer":0,"byteOffset":773440,"byteLength":14424,"target":34962},{"buffer":0,"byteOffset":787864,"byteLength":14424,"target":34962},{"buffer":0,"byteOffset":802288,"byteLength":7680,"target":34963},{"buffer":0,"byteOffset":809968,"byteLength":42036,"target":34962},{"buffer":0,"byteOffset":852004,"byteLength":42036,"target":34962},{"buffer":0,"byteOffset":894040,"byteLength":59904,"target":34963},{"buffer":0,"byteOffset":953944,"byteLength":336,"target":34962},{"buffer":0,"byteOffset":954280,"byteLength":336,"target":34962},{"buffer":0,"byteOffset":954616,"byteLength":144,"target":34963},{"buffer":0,"byteOffset":954760,"byteLength":432,"target":34962},{"buffer":0,"byteOffset":955192,"byteLength":432,"target":34962},{"buffer":0,"byteOffset":955624,"byteLength":288,"target":34963},{"buffer":0,"byteOffset":955912,"byteLength":42036,"target":34962},{"buffer":0,"byteOffset":997948,"byteLength":42036,"target":34962},{"buffer":0,"byteOffset":1039984,"byteLength":59904,"target":34963},{"buffer":0,"byteOffset":1099888,"byteLength":336,"target":34962},{"buffer":0,"byteOffset":1100224,"byteLength":336,"target":34962},{"buffer":0,"byteOffset":1100560,"byteLength":144,"target":34963},{"buffer":0,"byteOffset":1100704,"byteLength":432,"target":34962},{"buffer":0,"byteOffset":1101136,"byteLength":432,"target":34962},{"buffer":0,"byteOffset":1101568,"byteLength":288,"target":34963},{"buffer":0,"byteOffset":1101856,"byteLength":9036,"target":34962},{"buffer":0,"byteOffset":1110892,"byteLength":9036,"target":34962},{"buffer":0,"byteOffset":1119928,"byteLength":12960,"target":34963},{"buffer":0,"byteOffset":1132888,"byteLength":9036,"target":34962},{"buffer":0,"byteOffset":1141924,"byteLength":9036,"target":34962},{"buffer":0,"byteOffset":1150960,"byteLength":12960,"target":34963},{"buffer":0,"byteOffset":1163920,"byteLength":2304,"target":34962},{"buffer":0,"byteOffset":1166224,"byteLength":2304,"target":34962},{"buffer":0,"byteOffset":1168528,"byteLength":1152,"target":34963},{"buffer":0,"byteOffset":1169680,"byteLength":6912,"target":34962},{"buffer":0,"byteOffset":1176592,"byteLength":6912,"target":34962},{"buffer":0,"byteOffset":1183504,"byteLength":3456,"target":34963}],"accessors":[{"bufferView":0,"componentType":5126,"count":2665,"type":"VEC3","min":[-2.0,-2.0,-17.0],"max":[2.0,2.0,17.0]},{"bufferView":1,"componentType":5126,"count":2665,"type":"VEC3"},{"bufferView":2,"componentType":5126,"count":2665,"type":"VEC2"},{"bufferView":3,"componentType":5125,"count":15360,"type":"SCALAR"},{"bufferView":4,"componentType":5126,"count":90,"type":"VEC3","min":[-6.6,-2.44,-16.66],"max":[6.32,1.48,1.53]},{"bufferView":5,"componentType":5126,"count":90,"type":"VEC3"},{"bufferView":6,"componentType":5125,"count":144,"type":"SCALAR"},{"bufferView":7,"componentType":5126,"count":24,"type":"VEC3","min":[-0.1,0.8,-16.83],"max":[0.1,6.93,-9.520000000000001]},{"bufferView":8,"componentType":5126,"count":24,"type":"VEC3"},{"bufferView":9,"componentType":5125,"count":36,"type":"SCALAR"},{"bufferView":10,"componentType":5126,"count":15156,"type":"VEC3","min":[-7.324,-3.1639999999999997,-7.95],"max":[7.324,1.6637647044804742,15.062]},{"bufferView":11,"componentType":5126,"count":15156,"type":"VEC3"},{"bufferView":12,"componentType":5126,"count":16,"type":"VEC3","min":[-2.04,-0.84,-15.232000000000001],"max":[2.04,5.774,8.16]},{"bufferView":13,"componentType":5126,"count":16,"type":"VEC3"},{"bufferView":14,"componentType":5126,"count":16,"type":"VEC2"},{"bufferView":15,"componentType":5125,"count":24,"type":"SCALAR"},{"bufferView":16,"componentType":5126,"count":3068,"type":"VEC3","min":[-7.4752,-3.3152,-8.255],"max":[7.4752,1.6724249585183186,15.062]},{"bufferView":17,"componentType":5126,"count":3068,"type":"VEC3"},{"bufferView":18,"componentType":5125,"count":8640,"type":"SCALAR"},{"bufferView":19,"componentType":5126,"count":1698,"type":"VEC3","min":[-7.54,-3.38,-6.46],"max":[7.54,-0.98,10.2]},{"bufferView":20,"componentType":5126,"count":1698,"type":"VEC3"},{"bufferView":21,"componentType":5125,"count":9228,"type":"SCALAR"},{"bufferView":22,"componentType":5126,"count":1202,"type":"VEC3","min":[-0.25,-0.4,-0.4],"max":[0.25,0.4,0.4]},{"bufferView":23,"componentType":5126,"count":1202,"type":"VEC3"},{"bufferView":24,"componentType":5125,"count":1920,"type":"SCALAR"},{"bufferView":25,"componentType":5126,"count":1202,"type":"VEC3","min":[-0.25,-0.4,-0.4],"max":[0.25,0.4,0.4]},{"bufferView":26,"componentType":5126,"count":1202,"type":"VEC3"},{"bufferView":27,"componentType":5125,"count":1920,"type":"SCALAR"},{"bufferView":28,"componentType":5126,"count":1202,"type":"VEC3","min":[-0.25,-0.4,-0.4],"max":[0.25,0.4,0.4]},{"bufferView":29,"componentType":5126,"count":1202,"type":"VEC3"},{"bufferView":30,"componentType":5125,"count":1920,"type":"SCALAR"},{"bufferView":31,"componentType":5126,"count":3503,"type":"VEC3","min":[-17.0,-1.280680919636466,-9.602782608695652],"max":[-1.5,0.9672966940137122,3.4000000000000004]},{"bufferView":32,"componentType":5126,"count":3503,"type":"VEC3"},{"bufferView":33,"componentType":5125,"count":14976,"type":"SCALAR"},{"bufferView":34,"componentType":5126,"count":28,"type":"VEC3","min":[-17.0,0.96,-9.18],"max":[-16.32,3.24,-6.46]},{"bufferView":35,"componentType":5126,"count":28,"type":"VEC3"},{"bufferView":36,"componentType":5125,"count":36,"type":"SCALAR"},{"bufferView":37,"componentType":5126,"count":36,"type":"VEC3","min":[-17.0,-0.6340034178081304,-8.55865],"max":[-1.5,0.9585323327009506,-2.8423999999999996]},{"bufferView":38,"componentType":5126,"count":36,"type":"VEC3"},{"bufferView":39,"componentType":5125,"count":72,"type":"SCALAR"},{"bufferView":40,"componentType":5126,"count":3503,"type":"VEC3","min":[1.5,-1.280680919636466,-9.602782608695652],"max":[17.0,0.9672966940137122,3.4000000000000004]},{"bufferView":41,"componentType":5126,"count":3503,"type":"VEC3"},{"bufferView":42,"componentType":5125,"count":14976,"type":"SCALAR"},{"bufferView":43,"componentType":5126,"count":28,"type":"VEC3","min":[16.32,0.96,-9.18],"max":[17.0,3.24,-6.46]},{"bufferView":44,"componentType":5126,"count":28,"type":"VEC3"},{"bufferView":45,"componentType":5125,"count":36,"type":"SCALAR"},{"bufferView":46,"componentType":5126,"count":36,"type":"VEC3","min":[1.5,-0.6340034178081304,-8.55865],"max":[17.0,0.9585323327009506,-2.8423999999999996]},{"bufferView":47,"componentType":5126,"count":36,"type":"VEC3"},{"bufferView":48,"componentType":5125,"count":72,"type":"SCALAR"},{"bufferView":49,"componentType":5126,"count":753,"type":"VEC3","min":[-7.291591952044924,-3.131591952044924,1.0232],"max":[-5.628408047955076,-1.4684080479550756,1.87]},{"bufferView":50,"componentType":5126,"count":753,"type":"VEC3"},{"bufferView":51,"componentType":5125,"count":3240,"type":"SCALAR"},{"bufferView":52,"componentType":5126,"count":753,"type":"VEC3","min":[5.628408047955076,-3.131591952044924,1.0232],"max":[7.291591952044924,-1.4684080479550756,1.87]},{"bufferView":53,"componentType":5126,"count":753,"type":"VEC3"},{"bufferView":54,"componentType":5125,"count":3240,"type":"SCALAR"},{"bufferView":55,"componentType":5126,"count":192,"type":"VEC3","min":[-1.7200000000000002,-3.2,-3.5200000000000005],"max":[1.7200000000000002,-2.6,9.979999999999999]},{"bufferView":56,"componentType":5126,"count":192,"type":"VEC3"},{"bufferView":57,"componentType":5125,"count":288,"type":"SCALAR"},{"bufferView":58,"componentType":5126,"count":576,"type":"VEC3","min":[-1.8900000000000001,-3.8000000000000003,-3.6000000000000005],"max":[1.8900000000000001,-1.4,10.313142921678068]},{"bufferView":59,"componentType":5126,"count":576,"type":"VEC3"},{"bufferView":60,"componentType":5125,"count":864,"type":"SCALAR"}],"images":[{"uri":"../../airlines/SWA.png"},{"uri":"fallback-paint-v5.png"}],"textures":[{"source":0,"sampler":0},{"source":1,"sampler":0}],"samplers":[{"magFilter":9729,"minFilter":9987,"wrapS":33071,"wrapT":33071}]}