{"asset":{"version":"2.0","generator":"Skyward detailed procedural a319 fallback v6; approximate airframe; operator identification logos"},"scene":0,"scenes":[{"nodes":[0,1,5,6,7,8,9,10,11,12,13,14,15,16,17]}],"nodes":[{"mesh":0},{"mesh":1,"name":"Gear","children":[2,3,4]},{"mesh":2,"name":"WheelN","translation":[0,-3.6,9.86]},{"mesh":3,"name":"WheelL","translation":[-1.6,-3.6,-3.4000000000000004]},{"mesh":4,"name":"WheelR","translation":[1.6,-3.6,-3.4000000000000004]},{"mesh":5,"name":"SlatL"},{"mesh":6,"name":"FlapL"},{"mesh":7,"name":"SpoilerL"},{"mesh":8,"name":"ElevatorL"},{"mesh":9,"name":"SlatR"},{"mesh":10,"name":"FlapR"},{"mesh":11,"name":"SpoilerR"},{"mesh":12,"name":"ElevatorR"},{"mesh":13,"name":"Rudder"},{"mesh":14,"name":"FlexWingL"},{"mesh":15,"name":"FlexWingR"},{"mesh":16,"name":"SkywardFan0"},{"mesh":17,"name":"SkywardFan1"}],"meshes":[{"name":"AirframeWithCockpitGlazing","primitives":[{"indices":3,"attributes":{"POSITION":0,"NORMAL":1,"TEXCOORD_0":2},"material":0},{"indices":6,"attributes":{"POSITION":4,"NORMAL":5},"material":1},{"indices":9,"attributes":{"POSITION":7,"NORMAL":8},"material":2},{"attributes":{"POSITION":10,"NORMAL":11},"material":3},{"indices":15,"attributes":{"POSITION":12,"NORMAL":13,"TEXCOORD_0":14},"material":5},{"indices":18,"attributes":{"POSITION":16,"NORMAL":17},"material":6},{"indices":21,"attributes":{"POSITION":19,"NORMAL":20},"material":7},{"attributes":{"POSITION":101,"NORMAL":102,"TEXCOORD_0":103},"material":8}]},{"primitives":[{"indices":58,"attributes":{"POSITION":55,"NORMAL":56,"TEXCOORD_0":57},"material":0,"extras":{"gear":true}},{"indices":61,"attributes":{"POSITION":59,"NORMAL":60},"material":1,"extras":{"gear":true}},{"indices":64,"attributes":{"POSITION":62,"NORMAL":63},"material":6,"extras":{"gear":true}}]},{"primitives":[{"indices":24,"attributes":{"POSITION":22,"NORMAL":23},"material":4,"extras":{"wheel":0}},{"indices":94,"attributes":{"POSITION":92,"NORMAL":93},"material":6,"extras":{"wheel":0}}]},{"primitives":[{"indices":27,"attributes":{"POSITION":25,"NORMAL":26},"material":4,"extras":{"wheel":1}},{"indices":97,"attributes":{"POSITION":95,"NORMAL":96},"material":6,"extras":{"wheel":1}}]},{"primitives":[{"indices":30,"attributes":{"POSITION":28,"NORMAL":29},"material":4,"extras":{"wheel":2}},{"indices":100,"attributes":{"POSITION":98,"NORMAL":99},"material":6,"extras":{"wheel":2}}]},{"primitives":[{"indices":67,"attributes":{"POSITION":65,"NORMAL":66},"material":1,"extras":{"surface":0}}]},{"primitives":[{"indices":70,"attributes":{"POSITION":68,"NORMAL":69},"material":1,"extras":{"surface":1}}]},{"primitives":[{"indices":73,"attributes":{"POSITION":71,"NORMAL":72},"material":1,"extras":{"surface":2}}]},{"primitives":[{"indices":76,"attributes":{"POSITION":74,"NORMAL":75},"material":1,"extras":{"surface":3}}]},{"primitives":[{"indices":79,"attributes":{"POSITION":77,"NORMAL":78},"material":1,"extras":{"surface":4}}]},{"primitives":[{"indices":82,"attributes":{"POSITION":80,"NORMAL":81},"material":1,"extras":{"surface":5}}]},{"primitives":[{"indices":85,"attributes":{"POSITION":83,"NORMAL":84},"material":1,"extras":{"surface":6}}]},{"primitives":[{"indices":88,"attributes":{"POSITION":86,"NORMAL":87},"material":1,"extras":{"surface":7}}]},{"primitives":[{"indices":91,"attributes":{"POSITION":89,"NORMAL":90},"material":2,"extras":{"surface":8}}]},{"primitives":[{"indices":33,"attributes":{"POSITION":31,"NORMAL":32},"material":1,"extras":{"wing":0}},{"indices":36,"attributes":{"POSITION":34,"NORMAL":35},"material":2,"extras":{"wing":0}},{"indices":39,"attributes":{"POSITION":37,"NORMAL":38},"material":6,"extras":{"wing":0}}]},{"primitives":[{"indices":42,"attributes":{"POSITION":40,"NORMAL":41},"material":1,"extras":{"wing":1}},{"indices":45,"attributes":{"POSITION":43,"NORMAL":44},"material":2,"extras":{"wing":1}},{"indices":48,"attributes":{"POSITION":46,"NORMAL":47},"material":6,"extras":{"wing":1}}]},{"primitives":[{"indices":51,"attributes":{"POSITION":49,"NORMAL":50},"material":6,"extras":{"fan":0}}]},{"primitives":[{"indices":54,"attributes":{"POSITION":52,"NORMAL":53},"material":6,"extras":{"fan":1}}]}],"materials":[{"doubleSided":true,"pbrMetallicRoughness":{"baseColorFactor":[0.94,0.95,0.96,1],"metallicFactor":0.04,"roughnessFactor":0.27,"baseColorTexture":{"index":1}}},{"doubleSided":true,"pbrMetallicRoughness":{"baseColorFactor":[0.64,0.68,0.72,1],"metallicFactor":0.04,"roughnessFactor":0.4}},{"doubleSided":true,"pbrMetallicRoughness":{"baseColorFactor":[0.7725490196078432,0.09803921568627451,0.4823529411764706,1],"metallicFactor":0.04,"roughnessFactor":0.27}},{"doubleSided":true,"pbrMetallicRoughness":{"baseColorFactor":[0.02,0.055,0.085,1],"metallicFactor":0,"roughnessFactor":0.12}},{"doubleSided":true,"pbrMetallicRoughness":{"baseColorFactor":[0.07,0.08,0.09,1],"metallicFactor":0,"roughnessFactor":0.86}},{"doubleSided":true,"pbrMetallicRoughness":{"baseColorFactor":[1,1,1,1],"metallicFactor":0,"roughnessFactor":0.75,"baseColorTexture":{"index":0}},"alphaMode":"MASK","alphaCutoff":0.08},{"doubleSided":true,"pbrMetallicRoughness":{"baseColorFactor":[0.36,0.4,0.44,1],"metallicFactor":0.8,"roughnessFactor":0.28}},{"doubleSided":true,"pbrMetallicRoughness":{"baseColorFactor":[0.7725490196078432,0.09803921568627451,0.4823529411764706,1],"metallicFactor":0.04,"roughnessFactor":0.27}},{"name":"Operator title","doubleSided":true,"alphaMode":"MASK","alphaCutoff":0.15,"pbrMetallicRoughness":{"baseColorTexture":{"index":2},"baseColorFactor":[0.7725490196078432,0.09803921568627451,0.4823529411764706,1],"roughnessFactor":0.6,"metallicFactor":0}}],"buffers":[{"uri":"a319-v4.bin?tail=2&rig=1&detail=6","byteLength":1300672},{"uri":"a319-title.bin?detail=6","byteLength":18432}],"bufferViews":[{"buffer":0,"byteOffset":0,"byteLength":31980,"target":34962},{"buffer":0,"byteOffset":31980,"byteLength":31980,"target":34962},{"buffer":0,"byteOffset":63960,"byteLength":21320,"target":34962},{"buffer":0,"byteOffset":85280,"byteLength":61440,"target":34963},{"buffer":0,"byteOffset":146720,"byteLength":1080,"target":34962},{"buffer":0,"byteOffset":147800,"byteLength":1080,"target":34962},{"buffer":0,"byteOffset":148880,"byteLength":576,"target":34963},{"buffer":0,"byteOffset":149456,"byteLength":288,"target":34962},{"buffer":0,"byteOffset":149744,"byteLength":288,"target":34962},{"buffer":0,"byteOffset":150032,"byteLength":144,"target":34963},{"buffer":0,"byteOffset":150176,"byteLength":181872,"target":34962},{"buffer":0,"byteOffset":332048,"byteLength":181872,"target":34962},{"buffer":0,"byteOffset":513920,"byteLength":192,"target":34962},{"buffer":0,"byteOffset":514112,"byteLength":192,"target":34962},{"buffer":0,"byteOffset":514304,"byteLength":128,"target":34962},{"buffer":0,"byteOffset":514432,"byteLength":96,"target":34963},{"buffer":0,"byteOffset":514528,"byteLength":50760,"target":34962},{"buffer":0,"byteOffset":565288,"byteLength":50760,"target":34962},{"buffer":0,"byteOffset":616048,"byteLength":49920,"target":34963},{"buffer":0,"byteOffset":665968,"byteLength":20376,"target":34962},{"buffer":0,"byteOffset":686344,"byteLength":20376,"target":34962},{"buffer":0,"byteOffset":706720,"byteLength":36912,"target":34963},{"buffer":0,"byteOffset":743632,"byteLength":21504,"target":34962},{"buffer":0,"byteOffset":765136,"byteLength":21504,"target":34962},{"buffer":0,"byteOffset":786640,"byteLength":10752,"target":34963},{"buffer":0,"byteOffset":797392,"byteLength":21504,"target":34962},{"buffer":0,"byteOffset":818896,"byteLength":21504,"target":34962},{"buffer":0,"byteOffset":840400,"byteLength":10752,"target":34963},{"buffer":0,"byteOffset":851152,"byteLength":21504,"target":34962},{"buffer":0,"byteOffset":872656,"byteLength":21504,"target":34962},{"buffer":0,"byteOffset":894160,"byteLength":10752,"target":34963},{"buffer":0,"byteOffset":904912,"byteLength":39156,"target":34962},{"buffer":0,"byteOffset":944068,"byteLength":39156,"target":34962},{"buffer":0,"byteOffset":983224,"byteLength":58944,"target":34963},{"buffer":0,"byteOffset":1042168,"byteLength":336,"target":34962},{"buffer":0,"byteOffset":1042504,"byteLength":336,"target":34962},{"buffer":0,"byteOffset":1042840,"byteLength":144,"target":34963},{"buffer":0,"byteOffset":1042984,"byteLength":432,"target":34962},{"buffer":0,"byteOffset":1043416,"byteLength":432,"target":34962},{"buffer":0,"byteOffset":1043848,"byteLength":288,"target":34963},{"buffer":0,"byteOffset":1044136,"byteLength":39156,"target":34962},{"buffer":0,"byteOffset":1083292,"byteLength":39156,"target":34962},{"buffer":0,"byteOffset":1122448,"byteLength":58944,"target":34963},{"buffer":0,"byteOffset":1181392,"byteLength":336,"target":34962},{"buffer":0,"byteOffset":1181728,"byteLength":336,"target":34962},{"buffer":0,"byteOffset":1182064,"byteLength":144,"target":34963},{"buffer":0,"byteOffset":1182208,"byteLength":432,"target":34962},{"buffer":0,"byteOffset":1182640,"byteLength":432,"target":34962},{"buffer":0,"byteOffset":1183072,"byteLength":288,"target":34963},{"buffer":0,"byteOffset":1183360,"byteLength":9036,"target":34962},{"buffer":0,"byteOffset":1192396,"byteLength":9036,"target":34962},{"buffer":0,"byteOffset":1201432,"byteLength":12960,"target":34963},{"buffer":0,"byteOffset":1214392,"byteLength":9036,"target":34962},{"buffer":0,"byteOffset":1223428,"byteLength":9036,"target":34962},{"buffer":0,"byteOffset":1232464,"byteLength":12960,"target":34963},{"buffer":0,"byteOffset":1245424,"byteLength":864,"target":34962},{"buffer":0,"byteOffset":1246288,"byteLength":864,"target":34962},{"buffer":0,"byteOffset":1247152,"byteLength":576,"target":34962},{"buffer":0,"byteOffset":1247728,"byteLength":432,"target":34963},{"buffer":0,"byteOffset":1248160,"byteLength":2304,"target":34962},{"buffer":0,"byteOffset":1250464,"byteLength":2304,"target":34962},{"buffer":0,"byteOffset":1252768,"byteLength":1152,"target":34963},{"buffer":0,"byteOffset":1253920,"byteLength":6912,"target":34962},{"buffer":0,"byteOffset":1260832,"byteLength":6912,"target":34962},{"buffer":0,"byteOffset":1267744,"byteLength":3456,"target":34963},{"buffer":0,"byteOffset":1271200,"byteLength":864,"target":34962},{"buffer":0,"byteOffset":1272064,"byteLength":864,"target":34962},{"buffer":0,"byteOffset":1272928,"byteLength":288,"target":34963},{"buffer":0,"byteOffset":1273216,"byteLength":1728,"target":34962},{"buffer":0,"byteOffset":1274944,"byteLength":1728,"target":34962},{"buffer":0,"byteOffset":1276672,"byteLength":576,"target":34963},{"buffer":0,"byteOffset":1277248,"byteLength":288,"target":34962},{"buffer":0,"byteOffset":1277536,"byteLength":288,"target":34962},{"buffer":0,"byteOffset":1277824,"byteLength":96,"target":34963},{"buffer":0,"byteOffset":1277920,"byteLength":288,"target":34962},{"buffer":0,"byteOffset":1278208,"byteLength":288,"target":34962},{"buffer":0,"byteOffset":1278496,"byteLength":144,"target":34963},{"buffer":0,"byteOffset":1278640,"byteLength":864,"target":34962},{"buffer":0,"byteOffset":1279504,"byteLength":864,"target":34962},{"buffer":0,"byteOffset":1280368,"byteLength":288,"target":34963},{"buffer":0,"byteOffset":1280656,"byteLength":1728,"target":34962},{"buffer":0,"byteOffset":1282384,"byteLength":1728,"target":34962},{"buffer":0,"byteOffset":1284112,"byteLength":576,"target":34963},{"buffer":0,"byteOffset":1284688,"byteLength":288,"target":34962},{"buffer":0,"byteOffset":1284976,"byteLength":288,"target":34962},{"buffer":0,"byteOffset":1285264,"byteLength":96,"target":34963},{"buffer":0,"byteOffset":1285360,"byteLength":288,"target":34962},{"buffer":0,"byteOffset":1285648,"byteLength":288,"target":34962},{"buffer":0,"byteOffset":1285936,"byteLength":144,"target":34963},{"buffer":0,"byteOffset":1286080,"byteLength":168,"target":34962},{"buffer":0,"byteOffset":1286248,"byteLength":168,"target":34962},{"buffer":0,"byteOffset":1286416,"byteLength":144,"target":34963},{"buffer":0,"byteOffset":1286560,"byteLength":1584,"target":34962},{"buffer":0,"byteOffset":1288144,"byteLength":1584,"target":34962},{"buffer":0,"byteOffset":1289728,"byteLength":1536,"target":34963},{"buffer":0,"byteOffset":1291264,"byteLength":1584,"target":34962},{"buffer":0,"byteOffset":1292848,"byteLength":1584,"target":34962},{"buffer":0,"byteOffset":1294432,"byteLength":1536,"target":34963},{"buffer":0,"byteOffset":1295968,"byteLength":1584,"target":34962},{"buffer":0,"byteOffset":1297552,"byteLength":1584,"target":34962},{"buffer":0,"byteOffset":1299136,"byteLength":1536,"target":34963},{"buffer":1,"byteOffset":0,"byteLength":6912,"target":34962},{"buffer":1,"byteOffset":6912,"byteLength":6912,"target":34962},{"buffer":1,"byteOffset":13824,"byteLength":4608,"target":34962}],"accessors":[{"bufferView":0,"componentType":5126,"count":2665,"type":"VEC3","min":[-2.0,-2.0,-17.0],"max":[2.0,2.0,17.0]},{"bufferView":1,"componentType":5126,"count":2665,"type":"VEC3"},{"bufferView":2,"componentType":5126,"count":2665,"type":"VEC2"},{"bufferView":3,"componentType":5125,"count":15360,"type":"SCALAR"},{"bufferView":4,"componentType":5126,"count":90,"type":"VEC3","min":[-6.6,-2.44,-15.81],"max":[6.32,1.48,1.53]},{"bufferView":5,"componentType":5126,"count":90,"type":"VEC3"},{"bufferView":6,"componentType":5125,"count":144,"type":"SCALAR"},{"bufferView":7,"componentType":5126,"count":24,"type":"VEC3","min":[-0.1,0.8,-15.81],"max":[0.1,6.93,-9.520000000000001]},{"bufferView":8,"componentType":5126,"count":24,"type":"VEC3"},{"bufferView":9,"componentType":5125,"count":36,"type":"SCALAR"},{"bufferView":10,"componentType":5126,"count":15156,"type":"VEC3","min":[-7.324,-3.1639999999999997,-7.95],"max":[7.324,1.6637647044804742,15.062]},{"bufferView":11,"componentType":5126,"count":15156,"type":"VEC3"},{"bufferView":12,"componentType":5126,"count":16,"type":"VEC3","min":[-2.04,-0.84,-15.232000000000001],"max":[2.04,5.648199999999999,8.16]},{"bufferView":13,"componentType":5126,"count":16,"type":"VEC3"},{"bufferView":14,"componentType":5126,"count":16,"type":"VEC2"},{"bufferView":15,"componentType":5125,"count":24,"type":"SCALAR"},{"bufferView":16,"componentType":5126,"count":4230,"type":"VEC3","min":[-7.52056,-3.3605599999999995,-8.255],"max":[7.52056,1.6724249585183186,15.062]},{"bufferView":17,"componentType":5126,"count":4230,"type":"VEC3"},{"bufferView":18,"componentType":5125,"count":12480,"type":"SCALAR"},{"bufferView":19,"componentType":5126,"count":1698,"type":"VEC3","min":[-7.54,-3.38,-6.46],"max":[7.54,-0.98,10.2]},{"bufferView":20,"componentType":5126,"count":1698,"type":"VEC3"},{"bufferView":21,"componentType":5125,"count":9228,"type":"SCALAR"},{"bufferView":22,"componentType":5126,"count":1792,"type":"VEC3","min":[-0.41000000000000003,-0.4,-0.4],"max":[0.41000000000000003,0.4,0.4]},{"bufferView":23,"componentType":5126,"count":1792,"type":"VEC3"},{"bufferView":24,"componentType":5125,"count":2688,"type":"SCALAR"},{"bufferView":25,"componentType":5126,"count":1792,"type":"VEC3","min":[-0.41000000000000003,-0.4,-0.4],"max":[0.41000000000000003,0.4,0.4]},{"bufferView":26,"componentType":5126,"count":1792,"type":"VEC3"},{"bufferView":27,"componentType":5125,"count":2688,"type":"SCALAR"},{"bufferView":28,"componentType":5126,"count":1792,"type":"VEC3","min":[-0.41000000000000003,-0.4,-0.4],"max":[0.41000000000000003,0.4,0.4]},{"bufferView":29,"componentType":5126,"count":1792,"type":"VEC3"},{"bufferView":30,"componentType":5125,"count":2688,"type":"SCALAR"},{"bufferView":31,"componentType":5126,"count":3263,"type":"VEC3","min":[-17.0,-1.280680919636466,-8.84886956521739],"max":[-1.5,0.9672966940137122,3.4000000000000004]},{"bufferView":32,"componentType":5126,"count":3263,"type":"VEC3"},{"bufferView":33,"componentType":5125,"count":14736,"type":"SCALAR"},{"bufferView":34,"componentType":5126,"count":28,"type":"VEC3","min":[-17.0,0.96,-8.16],"max":[-16.32,3.24,-5.44]},{"bufferView":35,"componentType":5126,"count":28,"type":"VEC3"},{"bufferView":36,"componentType":5125,"count":36,"type":"SCALAR"},{"bufferView":37,"componentType":5126,"count":36,"type":"VEC3","min":[-17.0,-0.6340034178081304,-7.5386500000000005],"max":[-1.5,0.9585323327009506,-2.8423999999999996]},{"bufferView":38,"componentType":5126,"count":36,"type":"VEC3"},{"bufferView":39,"componentType":5125,"count":72,"type":"SCALAR"},{"bufferView":40,"componentType":5126,"count":3263,"type":"VEC3","min":[1.5,-1.280680919636466,-8.84886956521739],"max":[17.0,0.9672966940137122,3.4000000000000004]},{"bufferView":41,"componentType":5126,"count":3263,"type":"VEC3"},{"bufferView":42,"componentType":5125,"count":14736,"type":"SCALAR"},{"bufferView":43,"componentType":5126,"count":28,"type":"VEC3","min":[16.32,0.96,-8.16],"max":[17.0,3.24,-5.44]},{"bufferView":44,"componentType":5126,"count":28,"type":"VEC3"},{"bufferView":45,"componentType":5125,"count":36,"type":"SCALAR"},{"bufferView":46,"componentType":5126,"count":36,"type":"VEC3","min":[1.5,-0.6340034178081304,-7.5386500000000005],"max":[17.0,0.9585323327009506,-2.8423999999999996]},{"bufferView":47,"componentType":5126,"count":36,"type":"VEC3"},{"bufferView":48,"componentType":5125,"count":72,"type":"SCALAR"},{"bufferView":49,"componentType":5126,"count":753,"type":"VEC3","min":[-7.291591952044924,-3.131591952044924,1.0232],"max":[-5.628408047955076,-1.4684080479550756,1.87]},{"bufferView":50,"componentType":5126,"count":753,"type":"VEC3"},{"bufferView":51,"componentType":5125,"count":3240,"type":"SCALAR"},{"bufferView":52,"componentType":5126,"count":753,"type":"VEC3","min":[5.628408047955076,-3.131591952044924,1.0232],"max":[7.291591952044924,-1.4684080479550756,1.87]},{"bufferView":53,"componentType":5126,"count":753,"type":"VEC3"},{"bufferView":54,"componentType":5125,"count":3240,"type":"SCALAR"},{"bufferView":55,"componentType":5126,"count":72,"type":"VEC3","min":[-2.22,-3.025,-4.050000000000001],"max":[1.12,-1.475,10.51]},{"bufferView":56,"componentType":5126,"count":72,"type":"VEC3"},{"bufferView":57,"componentType":5126,"count":72,"type":"VEC2"},{"bufferView":58,"componentType":5125,"count":108,"type":"SCALAR"},{"bufferView":59,"componentType":5126,"count":192,"type":"VEC3","min":[-1.7200000000000002,-3.2,-3.5200000000000005],"max":[1.7200000000000002,-2.6,9.979999999999999]},{"bufferView":60,"componentType":5126,"count":192,"type":"VEC3"},{"bufferView":61,"componentType":5125,"count":288,"type":"SCALAR"},{"bufferView":62,"componentType":5126,"count":576,"type":"VEC3","min":[-2.02,-3.69,-3.49],"max":[2.02,-1.4,10.313142921678068]},{"bufferView":63,"componentType":5126,"count":576,"type":"VEC3"},{"bufferView":64,"componentType":5125,"count":864,"type":"SCALAR"},{"bufferView":65,"componentType":5126,"count":72,"type":"VEC3","min":[-15.3,-1.1372385328599703,-5.53705359604811],"max":[-1.5,0.7481821379928089,3.4000000000000004]},{"bufferView":66,"componentType":5126,"count":72,"type":"VEC3"},{"bufferView":67,"componentType":5125,"count":72,"type":"SCALAR"},{"bufferView":68,"componentType":5126,"count":144,"type":"VEC3","min":[-15.3,-0.9949985807927396,-7.99],"max":[-1.5,0.7438330014754614,-4.435620125646253]},{"bufferView":69,"componentType":5126,"count":144,"type":"VEC3"},{"bufferView":70,"componentType":5125,"count":144,"type":"SCALAR"},{"bufferView":71,"componentType":5126,"count":24,"type":"VEC3","min":[-15.3,-0.5519821301003527,-7.3525],"max":[-1.5,0.7944559239701449,-2.37797941702057]},{"bufferView":72,"componentType":5126,"count":24,"type":"VEC3"},{"bufferView":73,"componentType":5125,"count":24,"type":"SCALAR"},{"bufferView":74,"componentType":5126,"count":24,"type":"VEC3","min":[-6.12,0.74,-16.66],"max":[-0.8,1.46,-14.11]},{"bufferView":75,"componentType":5126,"count":24,"type":"VEC3"},{"bufferView":76,"componentType":5125,"count":36,"type":"SCALAR"},{"bufferView":77,"componentType":5126,"count":72,"type":"VEC3","min":[1.5,-1.1372385328599703,-5.53705359604811],"max":[15.3,0.7481821379928089,3.4000000000000004]},{"bufferView":78,"componentType":5126,"count":72,"type":"VEC3"},{"bufferView":79,"componentType":5125,"count":72,"type":"SCALAR"},{"bufferView":80,"componentType":5126,"count":144,"type":"VEC3","min":[1.5,-0.9949985807927396,-7.99],"max":[15.3,0.7438330014754614,-4.435620125646253]},{"bufferView":81,"componentType":5126,"count":144,"type":"VEC3"},{"bufferView":82,"componentType":5125,"count":144,"type":"SCALAR"},{"bufferView":83,"componentType":5126,"count":24,"type":"VEC3","min":[1.5,-0.5519821301003527,-7.3525],"max":[15.3,0.7944559239701449,-2.37797941702057]},{"bufferView":84,"componentType":5126,"count":24,"type":"VEC3"},{"bufferView":85,"componentType":5125,"count":24,"type":"SCALAR"},{"bufferView":86,"componentType":5126,"count":24,"type":"VEC3","min":[0.8,0.74,-16.66],"max":[6.12,1.46,-14.11]},{"bufferView":87,"componentType":5126,"count":24,"type":"VEC3"},{"bufferView":88,"componentType":5125,"count":36,"type":"SCALAR"},{"bufferView":89,"componentType":5126,"count":14,"type":"VEC3","min":[0,0.7200000000000001,-16.83],"max":[0,7.01,-15.232000000000001]},{"bufferView":90,"componentType":5126,"count":14,"type":"VEC3"},{"bufferView":91,"componentType":5125,"count":36,"type":"SCALAR"},{"bufferView":92,"componentType":5126,"count":132,"type":"VEC3","min":[-0.41100000000000003,-0.22000000000000003,-0.22000000000000003],"max":[0.41100000000000003,0.22000000000000003,0.22000000000000003]},{"bufferView":93,"componentType":5126,"count":132,"type":"VEC3"},{"bufferView":94,"componentType":5125,"count":384,"type":"SCALAR"},{"bufferView":95,"componentType":5126,"count":132,"type":"VEC3","min":[-0.41100000000000003,-0.22000000000000003,-0.22000000000000003],"max":[0.41100000000000003,0.22000000000000003,0.22000000000000003]},{"bufferView":96,"componentType":5126,"count":132,"type":"VEC3"},{"bufferView":97,"componentType":5125,"count":384,"type":"SCALAR"},{"bufferView":98,"componentType":5126,"count":132,"type":"VEC3","min":[-0.41100000000000003,-0.22000000000000003,-0.22000000000000003],"max":[0.41100000000000003,0.22000000000000003,0.22000000000000003]},{"bufferView":99,"componentType":5126,"count":132,"type":"VEC3"},{"bufferView":100,"componentType":5125,"count":384,"type":"SCALAR"},{"bufferView":101,"componentType":5126,"count":576,"type":"VEC3","min":[-1.8939046063504963,0.72,-4.08],"max":[1.8939046063504963,1.22,8.5]},{"bufferView":102,"componentType":5126,"count":576,"type":"VEC3"},{"bufferView":103,"componentType":5126,"count":576,"type":"VEC2"}],"images":[{"uri":"../../airlines/WZZ.png"},{"uri":"fallback-paint-v5.png"},{"uri":"title-WZZ.png"}],"textures":[{"source":0,"sampler":0},{"source":1,"sampler":0},{"source":2,"sampler":0}],"samplers":[{"magFilter":9729,"minFilter":9987,"wrapS":33071,"wrapT":33071}]}