{"asset":{"version":"2.0","generator":"Skyward original illustrative a319 profile; logos for operator identification"},"scene":0,"scenes":[{"nodes":[0,1]}],"nodes":[{"mesh":0},{"mesh":1,"name":"Gear","children":[2,3,4]},{"mesh":2,"name":"WheelN","translation":[0,-3.6,9.86]},{"mesh":3,"name":"WheelL","translation":[-1.6,-3.6,-3.4000000000000004]},{"mesh":4,"name":"WheelR","translation":[1.6,-3.6,-3.4000000000000004]}],"meshes":[{"primitives":[{"attributes":{"POSITION":0,"NORMAL":1},"material":0},{"attributes":{"POSITION":2,"NORMAL":3},"material":1},{"attributes":{"POSITION":4,"NORMAL":5},"material":2},{"attributes":{"POSITION":6,"NORMAL":7},"material":3},{"attributes":{"POSITION":10,"NORMAL":11,"TEXCOORD_0":12},"material":5},{"attributes":{"POSITION":13,"NORMAL":14},"material":6},{"attributes":{"POSITION":15,"NORMAL":16},"material":7}]},{"primitives":[{"attributes":{"POSITION":8,"NORMAL":9},"material":4}]},{"primitives":[{"attributes":{"POSITION":17,"NORMAL":18},"material":4,"extras":{"wheel":0}}]},{"primitives":[{"attributes":{"POSITION":19,"NORMAL":20},"material":4,"extras":{"wheel":1}}]},{"primitives":[{"attributes":{"POSITION":21,"NORMAL":22},"material":4,"extras":{"wheel":2}}]}],"materials":[{"doubleSided":true,"pbrMetallicRoughness":{"baseColorFactor":[0.94,0.95,0.96,1],"metallicFactor":0.18,"roughnessFactor":0.3}},{"doubleSided":true,"pbrMetallicRoughness":{"baseColorFactor":[0.64,0.68,0.72,1],"metallicFactor":0.18,"roughnessFactor":0.3}},{"doubleSided":true,"pbrMetallicRoughness":{"baseColorFactor":[0.4470588235294118,0.11764705882352941,0.28627450980392155,1],"metallicFactor":0.18,"roughnessFactor":0.3}},{"doubleSided":true,"pbrMetallicRoughness":{"baseColorFactor":[0.02,0.055,0.085,1],"metallicFactor":0.18,"roughnessFactor":0.17}},{"doubleSided":true,"pbrMetallicRoughness":{"baseColorFactor":[0.07,0.08,0.09,1],"metallicFactor":0.18,"roughnessFactor":0.3}},{"doubleSided":true,"pbrMetallicRoughness":{"baseColorFactor":[1,1,1,1],"metallicFactor":0,"roughnessFactor":0.75,"baseColorTexture":{"index":0}},"alphaMode":"MASK","alphaCutoff":0.08},{"doubleSided":true,"pbrMetallicRoughness":{"baseColorFactor":[0.36,0.4,0.44,1],"metallicFactor":0.7,"roughnessFactor":0.3}},{"doubleSided":true,"pbrMetallicRoughness":{"baseColorFactor":[0.4470588235294118,0.11764705882352941,0.28627450980392155,1],"metallicFactor":0.18,"roughnessFactor":0.3}}],"buffers":[{"uri":"a319-v4.bin?tail=2","byteLength":236064}],"bufferViews":[{"buffer":0,"byteOffset":0,"byteLength":34560,"target":34962},{"buffer":0,"byteOffset":34560,"byteLength":34560,"target":34962},{"buffer":0,"byteOffset":69120,"byteLength":2880,"target":34962},{"buffer":0,"byteOffset":72000,"byteLength":2880,"target":34962},{"buffer":0,"byteOffset":74880,"byteLength":1296,"target":34962},{"buffer":0,"byteOffset":76176,"byteLength":1296,"target":34962},{"buffer":0,"byteOffset":77472,"byteLength":27648,"target":34962},{"buffer":0,"byteOffset":105120,"byteLength":27648,"target":34962},{"buffer":0,"byteOffset":132768,"byteLength":1296,"target":34962},{"buffer":0,"byteOffset":134064,"byteLength":1296,"target":34962},{"buffer":0,"byteOffset":135360,"byteLength":288,"target":34962},{"buffer":0,"byteOffset":135648,"byteLength":288,"target":34962},{"buffer":0,"byteOffset":135936,"byteLength":192,"target":34962},{"buffer":0,"byteOffset":136128,"byteLength":15264,"target":34962},{"buffer":0,"byteOffset":151392,"byteLength":15264,"target":34962},{"buffer":0,"byteOffset":166656,"byteLength":20880,"target":34962},{"buffer":0,"byteOffset":187536,"byteLength":20880,"target":34962},{"buffer":0,"byteOffset":208416,"byteLength":4608,"target":34962},{"buffer":0,"byteOffset":213024,"byteLength":4608,"target":34962},{"buffer":0,"byteOffset":217632,"byteLength":4608,"target":34962},{"buffer":0,"byteOffset":222240,"byteLength":4608,"target":34962},{"buffer":0,"byteOffset":226848,"byteLength":4608,"target":34962},{"buffer":0,"byteOffset":231456,"byteLength":4608,"target":34962}],"accessors":[{"bufferView":0,"componentType":5126,"count":2880,"type":"VEC3","min":[-2.0,-2.0,-17.0],"max":[2.0,2.0,17.0]},{"bufferView":1,"componentType":5126,"count":2880,"type":"VEC3"},{"bufferView":2,"componentType":5126,"count":240,"type":"VEC3","min":[-17.0,-2.44,-16.66],"max":[17.0,1.48,3.4000000000000004]},{"bufferView":3,"componentType":5126,"count":240,"type":"VEC3"},{"bufferView":4,"componentType":5126,"count":108,"type":"VEC3","min":[-17.0,0.8,-16.83],"max":[17.0,6.93,-6.46]},{"bufferView":5,"componentType":5126,"count":108,"type":"VEC3"},{"bufferView":6,"componentType":5126,"count":2304,"type":"VEC3","min":[-7.324,-3.1639999999999997,-7.95],"max":[7.324,1.34,14.11]},{"bufferView":7,"componentType":5126,"count":2304,"type":"VEC3"},{"bufferView":8,"componentType":5126,"count":108,"type":"VEC3","min":[-1.7000000000000002,-3.5999999999999996,-3.5000000000000004],"max":[1.7000000000000002,-1.9999999999999998,9.959999999999999]},{"bufferView":9,"componentType":5126,"count":108,"type":"VEC3"},{"bufferView":10,"componentType":5126,"count":24,"type":"VEC3","min":[-2.04,-0.84,-15.232000000000001],"max":[2.04,5.774,8.16]},{"bufferView":11,"componentType":5126,"count":24,"type":"VEC3"},{"bufferView":12,"componentType":5126,"count":24,"type":"VEC2"},{"bufferView":13,"componentType":5126,"count":1272,"type":"VEC3","min":[-7.4752,-3.3152,-7.82],"max":[7.4752,1.2,9.570000000000002]},{"bufferView":14,"componentType":5126,"count":1272,"type":"VEC3"},{"bufferView":15,"componentType":5126,"count":1740,"type":"VEC3","min":[-7.54,-3.38,-6.46],"max":[7.54,-0.98,10.2]},{"bufferView":16,"componentType":5126,"count":1740,"type":"VEC3"},{"bufferView":17,"componentType":5126,"count":384,"type":"VEC3","min":[-0.25,-0.4,-0.4],"max":[0.25,0.4,0.4]},{"bufferView":18,"componentType":5126,"count":384,"type":"VEC3"},{"bufferView":19,"componentType":5126,"count":384,"type":"VEC3","min":[-0.25,-0.4,-0.4],"max":[0.25,0.4,0.4]},{"bufferView":20,"componentType":5126,"count":384,"type":"VEC3"},{"bufferView":21,"componentType":5126,"count":384,"type":"VEC3","min":[-0.25,-0.4,-0.4],"max":[0.25,0.4,0.4]},{"bufferView":22,"componentType":5126,"count":384,"type":"VEC3"}],"images":[{"uri":"../../airlines/QTR.png"}],"textures":[{"source":0,"sampler":0}],"samplers":[{"magFilter":9729,"minFilter":9987,"wrapS":33071,"wrapT":33071}]}