{"asset":{"version":"2.0","generator":"Skyward detailed procedural a321 fallback v6; approximate airframe; operator identification logos"},"scene":0,"scenes":[{"nodes":[0,1,5,6,7,8,9,10,11,12,13,14,15,16,17]}],"nodes":[{"mesh":0},{"mesh":1,"name":"Gear","children":[2,3,4]},{"mesh":2,"name":"WheelN","translation":[0,-3.6,13.049999999999999]},{"mesh":3,"name":"WheelL","translation":[-1.6,-3.6,-4.5]},{"mesh":4,"name":"WheelR","translation":[1.6,-3.6,-4.5]},{"mesh":5,"name":"SlatL"},{"mesh":6,"name":"FlapL"},{"mesh":7,"name":"SpoilerL"},{"mesh":8,"name":"ElevatorL"},{"mesh":9,"name":"SlatR"},{"mesh":10,"name":"FlapR"},{"mesh":11,"name":"SpoilerR"},{"mesh":12,"name":"ElevatorR"},{"mesh":13,"name":"Rudder"},{"mesh":14,"name":"FlexWingL"},{"mesh":15,"name":"FlexWingR"},{"mesh":16,"name":"SkywardFan0"},{"mesh":17,"name":"SkywardFan1"}],"meshes":[{"name":"AirframeWithCockpitGlazing","primitives":[{"indices":3,"attributes":{"POSITION":0,"NORMAL":1,"TEXCOORD_0":2},"material":0},{"indices":6,"attributes":{"POSITION":4,"NORMAL":5},"material":1},{"indices":9,"attributes":{"POSITION":7,"NORMAL":8},"material":2},{"attributes":{"POSITION":10,"NORMAL":11},"material":3},{"indices":15,"attributes":{"POSITION":12,"NORMAL":13,"TEXCOORD_0":14},"material":5},{"indices":18,"attributes":{"POSITION":16,"NORMAL":17},"material":6},{"indices":21,"attributes":{"POSITION":19,"NORMAL":20},"material":7},{"attributes":{"POSITION":101,"NORMAL":102,"TEXCOORD_0":103},"material":8}]},{"primitives":[{"indices":58,"attributes":{"POSITION":55,"NORMAL":56,"TEXCOORD_0":57},"material":0,"extras":{"gear":true}},{"indices":61,"attributes":{"POSITION":59,"NORMAL":60},"material":1,"extras":{"gear":true}},{"indices":64,"attributes":{"POSITION":62,"NORMAL":63},"material":6,"extras":{"gear":true}}]},{"primitives":[{"indices":24,"attributes":{"POSITION":22,"NORMAL":23},"material":4,"extras":{"wheel":0}},{"indices":94,"attributes":{"POSITION":92,"NORMAL":93},"material":6,"extras":{"wheel":0}}]},{"primitives":[{"indices":27,"attributes":{"POSITION":25,"NORMAL":26},"material":4,"extras":{"wheel":1}},{"indices":97,"attributes":{"POSITION":95,"NORMAL":96},"material":6,"extras":{"wheel":1}}]},{"primitives":[{"indices":30,"attributes":{"POSITION":28,"NORMAL":29},"material":4,"extras":{"wheel":2}},{"indices":100,"attributes":{"POSITION":98,"NORMAL":99},"material":6,"extras":{"wheel":2}}]},{"primitives":[{"indices":67,"attributes":{"POSITION":65,"NORMAL":66},"material":1,"extras":{"surface":0}}]},{"primitives":[{"indices":70,"attributes":{"POSITION":68,"NORMAL":69},"material":1,"extras":{"surface":1}}]},{"primitives":[{"indices":73,"attributes":{"POSITION":71,"NORMAL":72},"material":1,"extras":{"surface":2}}]},{"primitives":[{"indices":76,"attributes":{"POSITION":74,"NORMAL":75},"material":1,"extras":{"surface":3}}]},{"primitives":[{"indices":79,"attributes":{"POSITION":77,"NORMAL":78},"material":1,"extras":{"surface":4}}]},{"primitives":[{"indices":82,"attributes":{"POSITION":80,"NORMAL":81},"material":1,"extras":{"surface":5}}]},{"primitives":[{"indices":85,"attributes":{"POSITION":83,"NORMAL":84},"material":1,"extras":{"surface":6}}]},{"primitives":[{"indices":88,"attributes":{"POSITION":86,"NORMAL":87},"material":1,"extras":{"surface":7}}]},{"primitives":[{"indices":91,"attributes":{"POSITION":89,"NORMAL":90},"material":2,"extras":{"surface":8}}]},{"primitives":[{"indices":33,"attributes":{"POSITION":31,"NORMAL":32},"material":1,"extras":{"wing":0}},{"indices":36,"attributes":{"POSITION":34,"NORMAL":35},"material":2,"extras":{"wing":0}},{"indices":39,"attributes":{"POSITION":37,"NORMAL":38},"material":6,"extras":{"wing":0}}]},{"primitives":[{"indices":42,"attributes":{"POSITION":40,"NORMAL":41},"material":1,"extras":{"wing":1}},{"indices":45,"attributes":{"POSITION":43,"NORMAL":44},"material":2,"extras":{"wing":1}},{"indices":48,"attributes":{"POSITION":46,"NORMAL":47},"material":6,"extras":{"wing":1}}]},{"primitives":[{"indices":51,"attributes":{"POSITION":49,"NORMAL":50},"material":6,"extras":{"fan":0}}]},{"primitives":[{"indices":54,"attributes":{"POSITION":52,"NORMAL":53},"material":6,"extras":{"fan":1}}]}],"materials":[{"doubleSided":true,"pbrMetallicRoughness":{"baseColorFactor":[0.94,0.95,0.96,1],"metallicFactor":0.04,"roughnessFactor":0.27,"baseColorTexture":{"index":1}}},{"doubleSided":true,"pbrMetallicRoughness":{"baseColorFactor":[0.64,0.68,0.72,1],"metallicFactor":0.04,"roughnessFactor":0.4}},{"doubleSided":true,"pbrMetallicRoughness":{"baseColorFactor":[0.13725490196078433,0.30196078431372547,0.6078431372549019,1],"metallicFactor":0.04,"roughnessFactor":0.27}},{"doubleSided":true,"pbrMetallicRoughness":{"baseColorFactor":[0.02,0.055,0.085,1],"metallicFactor":0,"roughnessFactor":0.12}},{"doubleSided":true,"pbrMetallicRoughness":{"baseColorFactor":[0.07,0.08,0.09,1],"metallicFactor":0,"roughnessFactor":0.86}},{"doubleSided":true,"pbrMetallicRoughness":{"baseColorFactor":[1,1,1,1],"metallicFactor":0,"roughnessFactor":0.75,"baseColorTexture":{"index":0}},"alphaMode":"MASK","alphaCutoff":0.08},{"doubleSided":true,"pbrMetallicRoughness":{"baseColorFactor":[0.36,0.4,0.44,1],"metallicFactor":0.8,"roughnessFactor":0.28}},{"doubleSided":true,"pbrMetallicRoughness":{"baseColorFactor":[0.13725490196078433,0.30196078431372547,0.6078431372549019,1],"metallicFactor":0.04,"roughnessFactor":0.27}},{"name":"Operator title","doubleSided":true,"alphaMode":"MASK","alphaCutoff":0.15,"pbrMetallicRoughness":{"baseColorTexture":{"index":2},"baseColorFactor":[0.13725490196078433,0.30196078431372547,0.6078431372549019,1],"roughnessFactor":0.6,"metallicFactor":0}}],"buffers":[{"uri":"a321-v4.bin?tail=2&rig=1&detail=6","byteLength":1309312},{"uri":"a321-title.bin?detail=6","byteLength":18432}],"bufferViews":[{"buffer":0,"byteOffset":0,"byteLength":31980,"target":34962},{"buffer":0,"byteOffset":31980,"byteLength":31980,"target":34962},{"buffer":0,"byteOffset":63960,"byteLength":21320,"target":34962},{"buffer":0,"byteOffset":85280,"byteLength":61440,"target":34963},{"buffer":0,"byteOffset":146720,"byteLength":1080,"target":34962},{"buffer":0,"byteOffset":147800,"byteLength":1080,"target":34962},{"buffer":0,"byteOffset":148880,"byteLength":576,"target":34963},{"buffer":0,"byteOffset":149456,"byteLength":288,"target":34962},{"buffer":0,"byteOffset":149744,"byteLength":288,"target":34962},{"buffer":0,"byteOffset":150032,"byteLength":144,"target":34963},{"buffer":0,"byteOffset":150176,"byteLength":186192,"target":34962},{"buffer":0,"byteOffset":336368,"byteLength":186192,"target":34962},{"buffer":0,"byteOffset":522560,"byteLength":192,"target":34962},{"buffer":0,"byteOffset":522752,"byteLength":192,"target":34962},{"buffer":0,"byteOffset":522944,"byteLength":128,"target":34962},{"buffer":0,"byteOffset":523072,"byteLength":96,"target":34963},{"buffer":0,"byteOffset":523168,"byteLength":50760,"target":34962},{"buffer":0,"byteOffset":573928,"byteLength":50760,"target":34962},{"buffer":0,"byteOffset":624688,"byteLength":49920,"target":34963},{"buffer":0,"byteOffset":674608,"byteLength":20376,"target":34962},{"buffer":0,"byteOffset":694984,"byteLength":20376,"target":34962},{"buffer":0,"byteOffset":715360,"byteLength":36912,"target":34963},{"buffer":0,"byteOffset":752272,"byteLength":21504,"target":34962},{"buffer":0,"byteOffset":773776,"byteLength":21504,"target":34962},{"buffer":0,"byteOffset":795280,"byteLength":10752,"target":34963},{"buffer":0,"byteOffset":806032,"byteLength":21504,"target":34962},{"buffer":0,"byteOffset":827536,"byteLength":21504,"target":34962},{"buffer":0,"byteOffset":849040,"byteLength":10752,"target":34963},{"buffer":0,"byteOffset":859792,"byteLength":21504,"target":34962},{"buffer":0,"byteOffset":881296,"byteLength":21504,"target":34962},{"buffer":0,"byteOffset":902800,"byteLength":10752,"target":34963},{"buffer":0,"byteOffset":913552,"byteLength":39156,"target":34962},{"buffer":0,"byteOffset":952708,"byteLength":39156,"target":34962},{"buffer":0,"byteOffset":991864,"byteLength":58944,"target":34963},{"buffer":0,"byteOffset":1050808,"byteLength":336,"target":34962},{"buffer":0,"byteOffset":1051144,"byteLength":336,"target":34962},{"buffer":0,"byteOffset":1051480,"byteLength":144,"target":34963},{"buffer":0,"byteOffset":1051624,"byteLength":432,"target":34962},{"buffer":0,"byteOffset":1052056,"byteLength":432,"target":34962},{"buffer":0,"byteOffset":1052488,"byteLength":288,"target":34963},{"buffer":0,"byteOffset":1052776,"byteLength":39156,"target":34962},{"buffer":0,"byteOffset":1091932,"byteLength":39156,"target":34962},{"buffer":0,"byteOffset":1131088,"byteLength":58944,"target":34963},{"buffer":0,"byteOffset":1190032,"byteLength":336,"target":34962},{"buffer":0,"byteOffset":1190368,"byteLength":336,"target":34962},{"buffer":0,"byteOffset":1190704,"byteLength":144,"target":34963},{"buffer":0,"byteOffset":1190848,"byteLength":432,"target":34962},{"buffer":0,"byteOffset":1191280,"byteLength":432,"target":34962},{"buffer":0,"byteOffset":1191712,"byteLength":288,"target":34963},{"buffer":0,"byteOffset":1192000,"byteLength":9036,"target":34962},{"buffer":0,"byteOffset":1201036,"byteLength":9036,"target":34962},{"buffer":0,"byteOffset":1210072,"byteLength":12960,"target":34963},{"buffer":0,"byteOffset":1223032,"byteLength":9036,"target":34962},{"buffer":0,"byteOffset":1232068,"byteLength":9036,"target":34962},{"buffer":0,"byteOffset":1241104,"byteLength":12960,"target":34963},{"buffer":0,"byteOffset":1254064,"byteLength":864,"target":34962},{"buffer":0,"byteOffset":1254928,"byteLength":864,"target":34962},{"buffer":0,"byteOffset":1255792,"byteLength":576,"target":34962},{"buffer":0,"byteOffset":1256368,"byteLength":432,"target":34963},{"buffer":0,"byteOffset":1256800,"byteLength":2304,"target":34962},{"buffer":0,"byteOffset":1259104,"byteLength":2304,"target":34962},{"buffer":0,"byteOffset":1261408,"byteLength":1152,"target":34963},{"buffer":0,"byteOffset":1262560,"byteLength":6912,"target":34962},{"buffer":0,"byteOffset":1269472,"byteLength":6912,"target":34962},{"buffer":0,"byteOffset":1276384,"byteLength":3456,"target":34963},{"buffer":0,"byteOffset":1279840,"byteLength":864,"target":34962},{"buffer":0,"byteOffset":1280704,"byteLength":864,"target":34962},{"buffer":0,"byteOffset":1281568,"byteLength":288,"target":34963},{"buffer":0,"byteOffset":1281856,"byteLength":1728,"target":34962},{"buffer":0,"byteOffset":1283584,"byteLength":1728,"target":34962},{"buffer":0,"byteOffset":1285312,"byteLength":576,"target":34963},{"buffer":0,"byteOffset":1285888,"byteLength":288,"target":34962},{"buffer":0,"byteOffset":1286176,"byteLength":288,"target":34962},{"buffer":0,"byteOffset":1286464,"byteLength":96,"target":34963},{"buffer":0,"byteOffset":1286560,"byteLength":288,"target":34962},{"buffer":0,"byteOffset":1286848,"byteLength":288,"target":34962},{"buffer":0,"byteOffset":1287136,"byteLength":144,"target":34963},{"buffer":0,"byteOffset":1287280,"byteLength":864,"target":34962},{"buffer":0,"byteOffset":1288144,"byteLength":864,"target":34962},{"buffer":0,"byteOffset":1289008,"byteLength":288,"target":34963},{"buffer":0,"byteOffset":1289296,"byteLength":1728,"target":34962},{"buffer":0,"byteOffset":1291024,"byteLength":1728,"target":34962},{"buffer":0,"byteOffset":1292752,"byteLength":576,"target":34963},{"buffer":0,"byteOffset":1293328,"byteLength":288,"target":34962},{"buffer":0,"byteOffset":1293616,"byteLength":288,"target":34962},{"buffer":0,"byteOffset":1293904,"byteLength":96,"target":34963},{"buffer":0,"byteOffset":1294000,"byteLength":288,"target":34962},{"buffer":0,"byteOffset":1294288,"byteLength":288,"target":34962},{"buffer":0,"byteOffset":1294576,"byteLength":144,"target":34963},{"buffer":0,"byteOffset":1294720,"byteLength":168,"target":34962},{"buffer":0,"byteOffset":1294888,"byteLength":168,"target":34962},{"buffer":0,"byteOffset":1295056,"byteLength":144,"target":34963},{"buffer":0,"byteOffset":1295200,"byteLength":1584,"target":34962},{"buffer":0,"byteOffset":1296784,"byteLength":1584,"target":34962},{"buffer":0,"byteOffset":1298368,"byteLength":1536,"target":34963},{"buffer":0,"byteOffset":1299904,"byteLength":1584,"target":34962},{"buffer":0,"byteOffset":1301488,"byteLength":1584,"target":34962},{"buffer":0,"byteOffset":1303072,"byteLength":1536,"target":34963},{"buffer":0,"byteOffset":1304608,"byteLength":1584,"target":34962},{"buffer":0,"byteOffset":1306192,"byteLength":1584,"target":34962},{"buffer":0,"byteOffset":1307776,"byteLength":1536,"target":34963},{"buffer":1,"byteOffset":0,"byteLength":6912,"target":34962},{"buffer":1,"byteOffset":6912,"byteLength":6912,"target":34962},{"buffer":1,"byteOffset":13824,"byteLength":4608,"target":34962}],"accessors":[{"bufferView":0,"componentType":5126,"count":2665,"type":"VEC3","min":[-2.0,-2.0,-22.5],"max":[2.0,2.0,22.5]},{"bufferView":1,"componentType":5126,"count":2665,"type":"VEC3"},{"bufferView":2,"componentType":5126,"count":2665,"type":"VEC2"},{"bufferView":3,"componentType":5125,"count":15360,"type":"SCALAR"},{"bufferView":4,"componentType":5126,"count":90,"type":"VEC3","min":[-6.9799999999999995,-2.44,-20.925],"max":[6.7,1.48,2.025]},{"bufferView":5,"componentType":5126,"count":90,"type":"VEC3"},{"bufferView":6,"componentType":5125,"count":144,"type":"SCALAR"},{"bufferView":7,"componentType":5126,"count":24,"type":"VEC3","min":[-0.1,0.8,-20.925],"max":[0.1,8.524999999999999,-12.600000000000001]},{"bufferView":8,"componentType":5126,"count":24,"type":"VEC3"},{"bufferView":9,"componentType":5125,"count":36,"type":"SCALAR"},{"bufferView":10,"componentType":5126,"count":15516,"type":"VEC3","min":[-7.704,-3.1639999999999997,-10.48],"max":[7.704,1.6637647044804742,19.935]},{"bufferView":11,"componentType":5126,"count":15516,"type":"VEC3"},{"bufferView":12,"componentType":5126,"count":16,"type":"VEC3","min":[-2.04,-0.84,-20.16],"max":[2.04,6.828499999999999,10.25]},{"bufferView":13,"componentType":5126,"count":16,"type":"VEC3"},{"bufferView":14,"componentType":5126,"count":16,"type":"VEC2"},{"bufferView":15,"componentType":5125,"count":24,"type":"SCALAR"},{"bufferView":16,"componentType":5126,"count":4230,"type":"VEC3","min":[-7.90056,-3.3605599999999995,-10.785],"max":[7.90056,1.6724249585183186,19.935]},{"bufferView":17,"componentType":5126,"count":4230,"type":"VEC3"},{"bufferView":18,"componentType":5125,"count":12480,"type":"SCALAR"},{"bufferView":19,"componentType":5126,"count":1698,"type":"VEC3","min":[-7.92,-3.38,-8.55],"max":[7.92,-0.98,13.5]},{"bufferView":20,"componentType":5126,"count":1698,"type":"VEC3"},{"bufferView":21,"componentType":5125,"count":9228,"type":"SCALAR"},{"bufferView":22,"componentType":5126,"count":1792,"type":"VEC3","min":[-0.41000000000000003,-0.4,-0.4],"max":[0.41000000000000003,0.4,0.4]},{"bufferView":23,"componentType":5126,"count":1792,"type":"VEC3"},{"bufferView":24,"componentType":5125,"count":2688,"type":"SCALAR"},{"bufferView":25,"componentType":5126,"count":1792,"type":"VEC3","min":[-0.41000000000000003,-0.4,-0.4],"max":[0.41000000000000003,0.4,0.4]},{"bufferView":26,"componentType":5126,"count":1792,"type":"VEC3"},{"bufferView":27,"componentType":5125,"count":2688,"type":"SCALAR"},{"bufferView":28,"componentType":5126,"count":1792,"type":"VEC3","min":[-0.41000000000000003,-0.4,-0.4],"max":[0.41000000000000003,0.4,0.4]},{"bufferView":29,"componentType":5126,"count":1792,"type":"VEC3"},{"bufferView":30,"componentType":5125,"count":2688,"type":"SCALAR"},{"bufferView":31,"componentType":5126,"count":3263,"type":"VEC3","min":[-18.0,-1.4038423936364992,-12.044347826086959],"max":[-1.5,0.9890691538416778,4.5]},{"bufferView":32,"componentType":5126,"count":3263,"type":"VEC3"},{"bufferView":33,"componentType":5125,"count":14736,"type":"SCALAR"},{"bufferView":34,"componentType":5126,"count":28,"type":"VEC3","min":[-18.0,0.96,-11.25],"max":[-17.28,3.24,-7.65]},{"bufferView":35,"componentType":5126,"count":28,"type":"VEC3"},{"bufferView":36,"componentType":5125,"count":36,"type":"SCALAR"},{"bufferView":37,"componentType":5126,"count":36,"type":"VEC3","min":[-18.0,-0.5505339353342902,-10.427625],"max":[-1.5,0.9748810285747875,-3.7620000000000005]},{"bufferView":38,"componentType":5126,"count":36,"type":"VEC3"},{"bufferView":39,"componentType":5125,"count":72,"type":"SCALAR"},{"bufferView":40,"componentType":5126,"count":3263,"type":"VEC3","min":[1.5,-1.4038423936364992,-12.044347826086959],"max":[18.0,0.9890691538416778,4.5]},{"bufferView":41,"componentType":5126,"count":3263,"type":"VEC3"},{"bufferView":42,"componentType":5125,"count":14736,"type":"SCALAR"},{"bufferView":43,"componentType":5126,"count":28,"type":"VEC3","min":[17.28,0.96,-11.25],"max":[18.0,3.24,-7.65]},{"bufferView":44,"componentType":5126,"count":28,"type":"VEC3"},{"bufferView":45,"componentType":5125,"count":36,"type":"SCALAR"},{"bufferView":46,"componentType":5126,"count":36,"type":"VEC3","min":[1.5,-0.5505339353342902,-10.427625],"max":[18.0,0.9748810285747875,-3.7620000000000005]},{"bufferView":47,"componentType":5126,"count":36,"type":"VEC3"},{"bufferView":48,"componentType":5125,"count":72,"type":"SCALAR"},{"bufferView":49,"componentType":5126,"count":753,"type":"VEC3","min":[-7.671591952044924,-3.131591952044924,1.3752000000000002],"max":[-6.008408047955076,-1.4684080479550756,2.475]},{"bufferView":50,"componentType":5126,"count":753,"type":"VEC3"},{"bufferView":51,"componentType":5125,"count":3240,"type":"SCALAR"},{"bufferView":52,"componentType":5126,"count":753,"type":"VEC3","min":[6.008408047955076,-3.131591952044924,1.3752000000000002],"max":[7.671591952044924,-1.4684080479550756,2.475]},{"bufferView":53,"componentType":5126,"count":753,"type":"VEC3"},{"bufferView":54,"componentType":5125,"count":3240,"type":"SCALAR"},{"bufferView":55,"componentType":5126,"count":72,"type":"VEC3","min":[-2.22,-3.025,-5.15],"max":[1.12,-1.475,13.7]},{"bufferView":56,"componentType":5126,"count":72,"type":"VEC3"},{"bufferView":57,"componentType":5126,"count":72,"type":"VEC2"},{"bufferView":58,"componentType":5125,"count":108,"type":"SCALAR"},{"bufferView":59,"componentType":5126,"count":192,"type":"VEC3","min":[-1.7200000000000002,-3.2,-4.62],"max":[1.7200000000000002,-2.6,13.169999999999998]},{"bufferView":60,"componentType":5126,"count":192,"type":"VEC3"},{"bufferView":61,"componentType":5125,"count":288,"type":"SCALAR"},{"bufferView":62,"componentType":5126,"count":576,"type":"VEC3","min":[-2.02,-3.69,-4.59],"max":[2.02,-1.4,13.503142921678068]},{"bufferView":63,"componentType":5126,"count":576,"type":"VEC3"},{"bufferView":64,"componentType":5125,"count":864,"type":"SCALAR"},{"bufferView":65,"componentType":5126,"count":72,"type":"VEC3","min":[-16.2,-1.2139921758440786,-7.778453288887204],"max":[-1.5,0.7637704767551882,4.5]},{"bufferView":66,"componentType":5126,"count":72,"type":"VEC3"},{"bufferView":67,"componentType":5125,"count":72,"type":"SCALAR"},{"bufferView":68,"componentType":5126,"count":144,"type":"VEC3","min":[-16.2,-1.0257334157550966,-11.025],"max":[-1.5,0.7580142666586989,-5.870673695708277]},{"bufferView":69,"componentType":5126,"count":144,"type":"VEC3"},{"bufferView":70,"componentType":5125,"count":144,"type":"SCALAR"},{"bufferView":71,"componentType":5126,"count":24,"type":"VEC3","min":[-16.2,-0.4393881133681138,-10.18125],"max":[-1.5,0.8250151934898977,-3.147325698997814]},{"bufferView":72,"componentType":5126,"count":24,"type":"VEC3"},{"bufferView":73,"componentType":5125,"count":24,"type":"SCALAR"},{"bufferView":74,"componentType":5126,"count":24,"type":"VEC3","min":[-6.4799999999999995,0.74,-22.05],"max":[-0.8,1.46,-18.675]},{"bufferView":75,"componentType":5126,"count":24,"type":"VEC3"},{"bufferView":76,"componentType":5125,"count":36,"type":"SCALAR"},{"bufferView":77,"componentType":5126,"count":72,"type":"VEC3","min":[1.5,-1.2139921758440786,-7.778453288887204],"max":[16.2,0.7637704767551882,4.5]},{"bufferView":78,"componentType":5126,"count":72,"type":"VEC3"},{"bufferView":79,"componentType":5125,"count":72,"type":"SCALAR"},{"bufferView":80,"componentType":5126,"count":144,"type":"VEC3","min":[1.5,-1.0257334157550966,-11.025],"max":[16.2,0.7580142666586989,-5.870673695708277]},{"bufferView":81,"componentType":5126,"count":144,"type":"VEC3"},{"bufferView":82,"componentType":5125,"count":144,"type":"SCALAR"},{"bufferView":83,"componentType":5126,"count":24,"type":"VEC3","min":[1.5,-0.4393881133681138,-10.18125],"max":[16.2,0.8250151934898977,-3.147325698997814]},{"bufferView":84,"componentType":5126,"count":24,"type":"VEC3"},{"bufferView":85,"componentType":5125,"count":24,"type":"SCALAR"},{"bufferView":86,"componentType":5126,"count":24,"type":"VEC3","min":[0.8,0.74,-22.05],"max":[6.4799999999999995,1.46,-18.675]},{"bufferView":87,"componentType":5126,"count":24,"type":"VEC3"},{"bufferView":88,"componentType":5125,"count":36,"type":"SCALAR"},{"bufferView":89,"componentType":5126,"count":14,"type":"VEC3","min":[0,0.7200000000000001,-22.275],"max":[0,8.604999999999999,-20.16]},{"bufferView":90,"componentType":5126,"count":14,"type":"VEC3"},{"bufferView":91,"componentType":5125,"count":36,"type":"SCALAR"},{"bufferView":92,"componentType":5126,"count":132,"type":"VEC3","min":[-0.41100000000000003,-0.22000000000000003,-0.22000000000000003],"max":[0.41100000000000003,0.22000000000000003,0.22000000000000003]},{"bufferView":93,"componentType":5126,"count":132,"type":"VEC3"},{"bufferView":94,"componentType":5125,"count":384,"type":"SCALAR"},{"bufferView":95,"componentType":5126,"count":132,"type":"VEC3","min":[-0.41100000000000003,-0.22000000000000003,-0.22000000000000003],"max":[0.41100000000000003,0.22000000000000003,0.22000000000000003]},{"bufferView":96,"componentType":5126,"count":132,"type":"VEC3"},{"bufferView":97,"componentType":5125,"count":384,"type":"SCALAR"},{"bufferView":98,"componentType":5126,"count":132,"type":"VEC3","min":[-0.41100000000000003,-0.22000000000000003,-0.22000000000000003],"max":[0.41100000000000003,0.22000000000000003,0.22000000000000003]},{"bufferView":99,"componentType":5126,"count":132,"type":"VEC3"},{"bufferView":100,"componentType":5125,"count":384,"type":"SCALAR"},{"bufferView":101,"componentType":5126,"count":576,"type":"VEC3","min":[-1.8939046063504963,0.72,-5.3999999999999995],"max":[1.8939046063504963,1.22,11.25]},{"bufferView":102,"componentType":5126,"count":576,"type":"VEC3"},{"bufferView":103,"componentType":5126,"count":576,"type":"VEC2"}],"images":[{"uri":"../../airlines/SAS.png"},{"uri":"fallback-paint-v5.png"},{"uri":"title-SAS.png"}],"textures":[{"source":0,"sampler":0},{"source":1,"sampler":0},{"source":2,"sampler":0}],"samplers":[{"magFilter":9729,"minFilter":9987,"wrapS":33071,"wrapT":33071}]}