{"asset":{"version":"2.0","generator":"Skyward detailed procedural a321 fallback v5; approximate airframe; operator identification logos"},"scene":0,"scenes":[{"nodes":[0,1,5,6,7,8]}],"nodes":[{"mesh":0},{"mesh":1,"name":"Gear","children":[2,3,4]},{"mesh":2,"name":"WheelN","translation":[0,-3.6,13.049999999999999]},{"mesh":3,"name":"WheelL","translation":[-1.6,-3.6,-4.5]},{"mesh":4,"name":"WheelR","translation":[1.6,-3.6,-4.5]},{"mesh":5,"name":"FlexWingL"},{"mesh":6,"name":"FlexWingR"},{"mesh":7,"name":"SkywardFan0"},{"mesh":8,"name":"SkywardFan1"}],"meshes":[{"name":"AirframeWithCockpitGlazing","primitives":[{"indices":3,"attributes":{"POSITION":0,"NORMAL":1,"TEXCOORD_0":2},"material":0},{"indices":6,"attributes":{"POSITION":4,"NORMAL":5},"material":1},{"indices":9,"attributes":{"POSITION":7,"NORMAL":8},"material":2},{"attributes":{"POSITION":10,"NORMAL":11},"material":3},{"indices":15,"attributes":{"POSITION":12,"NORMAL":13,"TEXCOORD_0":14},"material":5},{"indices":18,"attributes":{"POSITION":16,"NORMAL":17},"material":6},{"indices":21,"attributes":{"POSITION":19,"NORMAL":20},"material":7}]},{"primitives":[{"indices":57,"attributes":{"POSITION":55,"NORMAL":56},"material":1,"extras":{"gear":true}},{"indices":60,"attributes":{"POSITION":58,"NORMAL":59},"material":6,"extras":{"gear":true}}]},{"primitives":[{"indices":24,"attributes":{"POSITION":22,"NORMAL":23},"material":4,"extras":{"wheel":0}}]},{"primitives":[{"indices":27,"attributes":{"POSITION":25,"NORMAL":26},"material":4,"extras":{"wheel":1}}]},{"primitives":[{"indices":30,"attributes":{"POSITION":28,"NORMAL":29},"material":4,"extras":{"wheel":2}}]},{"primitives":[{"indices":33,"attributes":{"POSITION":31,"NORMAL":32},"material":1,"extras":{"wing":0}},{"indices":36,"attributes":{"POSITION":34,"NORMAL":35},"material":2,"extras":{"wing":0}},{"indices":39,"attributes":{"POSITION":37,"NORMAL":38},"material":6,"extras":{"wing":0}}]},{"primitives":[{"indices":42,"attributes":{"POSITION":40,"NORMAL":41},"material":1,"extras":{"wing":1}},{"indices":45,"attributes":{"POSITION":43,"NORMAL":44},"material":2,"extras":{"wing":1}},{"indices":48,"attributes":{"POSITION":46,"NORMAL":47},"material":6,"extras":{"wing":1}}]},{"primitives":[{"indices":51,"attributes":{"POSITION":49,"NORMAL":50},"material":6,"extras":{"fan":0}}]},{"primitives":[{"indices":54,"attributes":{"POSITION":52,"NORMAL":53},"material":6,"extras":{"fan":1}}]}],"materials":[{"doubleSided":true,"pbrMetallicRoughness":{"baseColorFactor":[0.94,0.95,0.96,1],"metallicFactor":0.04,"roughnessFactor":0.27,"baseColorTexture":{"index":1}}},{"doubleSided":true,"pbrMetallicRoughness":{"baseColorFactor":[0.64,0.68,0.72,1],"metallicFactor":0.04,"roughnessFactor":0.4}},{"doubleSided":true,"pbrMetallicRoughness":{"baseColorFactor":[0.13725490196078433,0.30196078431372547,0.6078431372549019,1],"metallicFactor":0.04,"roughnessFactor":0.27}},{"doubleSided":true,"pbrMetallicRoughness":{"baseColorFactor":[0.02,0.055,0.085,1],"metallicFactor":0,"roughnessFactor":0.12}},{"doubleSided":true,"pbrMetallicRoughness":{"baseColorFactor":[0.07,0.08,0.09,1],"metallicFactor":0,"roughnessFactor":0.86}},{"doubleSided":true,"pbrMetallicRoughness":{"baseColorFactor":[1,1,1,1],"metallicFactor":0,"roughnessFactor":0.75,"baseColorTexture":{"index":0}},"alphaMode":"MASK","alphaCutoff":0.08},{"doubleSided":true,"pbrMetallicRoughness":{"baseColorFactor":[0.36,0.4,0.44,1],"metallicFactor":0.8,"roughnessFactor":0.28}},{"doubleSided":true,"pbrMetallicRoughness":{"baseColorFactor":[0.13725490196078433,0.30196078431372547,0.6078431372549019,1],"metallicFactor":0.04,"roughnessFactor":0.27}}],"buffers":[{"uri":"a321-v4.bin?tail=2&rig=1&detail=5","byteLength":1195600}],"bufferViews":[{"buffer":0,"byteOffset":0,"byteLength":31980,"target":34962},{"buffer":0,"byteOffset":31980,"byteLength":31980,"target":34962},{"buffer":0,"byteOffset":63960,"byteLength":21320,"target":34962},{"buffer":0,"byteOffset":85280,"byteLength":61440,"target":34963},{"buffer":0,"byteOffset":146720,"byteLength":1080,"target":34962},{"buffer":0,"byteOffset":147800,"byteLength":1080,"target":34962},{"buffer":0,"byteOffset":148880,"byteLength":576,"target":34963},{"buffer":0,"byteOffset":149456,"byteLength":288,"target":34962},{"buffer":0,"byteOffset":149744,"byteLength":288,"target":34962},{"buffer":0,"byteOffset":150032,"byteLength":144,"target":34963},{"buffer":0,"byteOffset":150176,"byteLength":186192,"target":34962},{"buffer":0,"byteOffset":336368,"byteLength":186192,"target":34962},{"buffer":0,"byteOffset":522560,"byteLength":192,"target":34962},{"buffer":0,"byteOffset":522752,"byteLength":192,"target":34962},{"buffer":0,"byteOffset":522944,"byteLength":128,"target":34962},{"buffer":0,"byteOffset":523072,"byteLength":96,"target":34963},{"buffer":0,"byteOffset":523168,"byteLength":36816,"target":34962},{"buffer":0,"byteOffset":559984,"byteLength":36816,"target":34962},{"buffer":0,"byteOffset":596800,"byteLength":34560,"target":34963},{"buffer":0,"byteOffset":631360,"byteLength":20376,"target":34962},{"buffer":0,"byteOffset":651736,"byteLength":20376,"target":34962},{"buffer":0,"byteOffset":672112,"byteLength":36912,"target":34963},{"buffer":0,"byteOffset":709024,"byteLength":14424,"target":34962},{"buffer":0,"byteOffset":723448,"byteLength":14424,"target":34962},{"buffer":0,"byteOffset":737872,"byteLength":7680,"target":34963},{"buffer":0,"byteOffset":745552,"byteLength":14424,"target":34962},{"buffer":0,"byteOffset":759976,"byteLength":14424,"target":34962},{"buffer":0,"byteOffset":774400,"byteLength":7680,"target":34963},{"buffer":0,"byteOffset":782080,"byteLength":14424,"target":34962},{"buffer":0,"byteOffset":796504,"byteLength":14424,"target":34962},{"buffer":0,"byteOffset":810928,"byteLength":7680,"target":34963},{"buffer":0,"byteOffset":818608,"byteLength":42036,"target":34962},{"buffer":0,"byteOffset":860644,"byteLength":42036,"target":34962},{"buffer":0,"byteOffset":902680,"byteLength":59904,"target":34963},{"buffer":0,"byteOffset":962584,"byteLength":336,"target":34962},{"buffer":0,"byteOffset":962920,"byteLength":336,"target":34962},{"buffer":0,"byteOffset":963256,"byteLength":144,"target":34963},{"buffer":0,"byteOffset":963400,"byteLength":432,"target":34962},{"buffer":0,"byteOffset":963832,"byteLength":432,"target":34962},{"buffer":0,"byteOffset":964264,"byteLength":288,"target":34963},{"buffer":0,"byteOffset":964552,"byteLength":42036,"target":34962},{"buffer":0,"byteOffset":1006588,"byteLength":42036,"target":34962},{"buffer":0,"byteOffset":1048624,"byteLength":59904,"target":34963},{"buffer":0,"byteOffset":1108528,"byteLength":336,"target":34962},{"buffer":0,"byteOffset":1108864,"byteLength":336,"target":34962},{"buffer":0,"byteOffset":1109200,"byteLength":144,"target":34963},{"buffer":0,"byteOffset":1109344,"byteLength":432,"target":34962},{"buffer":0,"byteOffset":1109776,"byteLength":432,"target":34962},{"buffer":0,"byteOffset":1110208,"byteLength":288,"target":34963},{"buffer":0,"byteOffset":1110496,"byteLength":9036,"target":34962},{"buffer":0,"byteOffset":1119532,"byteLength":9036,"target":34962},{"buffer":0,"byteOffset":1128568,"byteLength":12960,"target":34963},{"buffer":0,"byteOffset":1141528,"byteLength":9036,"target":34962},{"buffer":0,"byteOffset":1150564,"byteLength":9036,"target":34962},{"buffer":0,"byteOffset":1159600,"byteLength":12960,"target":34963},{"buffer":0,"byteOffset":1172560,"byteLength":2304,"target":34962},{"buffer":0,"byteOffset":1174864,"byteLength":2304,"target":34962},{"buffer":0,"byteOffset":1177168,"byteLength":1152,"target":34963},{"buffer":0,"byteOffset":1178320,"byteLength":6912,"target":34962},{"buffer":0,"byteOffset":1185232,"byteLength":6912,"target":34962},{"buffer":0,"byteOffset":1192144,"byteLength":3456,"target":34963}],"accessors":[{"bufferView":0,"componentType":5126,"count":2665,"type":"VEC3","min":[-2.0,-2.0,-22.5],"max":[2.0,2.0,22.5]},{"bufferView":1,"componentType":5126,"count":2665,"type":"VEC3"},{"bufferView":2,"componentType":5126,"count":2665,"type":"VEC2"},{"bufferView":3,"componentType":5125,"count":15360,"type":"SCALAR"},{"bufferView":4,"componentType":5126,"count":90,"type":"VEC3","min":[-6.9799999999999995,-2.44,-22.05],"max":[6.7,1.48,2.025]},{"bufferView":5,"componentType":5126,"count":90,"type":"VEC3"},{"bufferView":6,"componentType":5125,"count":144,"type":"SCALAR"},{"bufferView":7,"componentType":5126,"count":24,"type":"VEC3","min":[-0.1,0.8,-22.275],"max":[0.1,8.524999999999999,-12.600000000000001]},{"bufferView":8,"componentType":5126,"count":24,"type":"VEC3"},{"bufferView":9,"componentType":5125,"count":36,"type":"SCALAR"},{"bufferView":10,"componentType":5126,"count":15516,"type":"VEC3","min":[-7.704,-3.1639999999999997,-10.48],"max":[7.704,1.6637647044804742,19.935]},{"bufferView":11,"componentType":5126,"count":15516,"type":"VEC3"},{"bufferView":12,"componentType":5126,"count":16,"type":"VEC3","min":[-2.04,-0.84,-20.16],"max":[2.04,6.995,10.25]},{"bufferView":13,"componentType":5126,"count":16,"type":"VEC3"},{"bufferView":14,"componentType":5126,"count":16,"type":"VEC2"},{"bufferView":15,"componentType":5125,"count":24,"type":"SCALAR"},{"bufferView":16,"componentType":5126,"count":3068,"type":"VEC3","min":[-7.8552,-3.3152,-10.785],"max":[7.8552,1.6724249585183186,19.935]},{"bufferView":17,"componentType":5126,"count":3068,"type":"VEC3"},{"bufferView":18,"componentType":5125,"count":8640,"type":"SCALAR"},{"bufferView":19,"componentType":5126,"count":1698,"type":"VEC3","min":[-7.92,-3.38,-8.55],"max":[7.92,-0.98,13.5]},{"bufferView":20,"componentType":5126,"count":1698,"type":"VEC3"},{"bufferView":21,"componentType":5125,"count":9228,"type":"SCALAR"},{"bufferView":22,"componentType":5126,"count":1202,"type":"VEC3","min":[-0.25,-0.4,-0.4],"max":[0.25,0.4,0.4]},{"bufferView":23,"componentType":5126,"count":1202,"type":"VEC3"},{"bufferView":24,"componentType":5125,"count":1920,"type":"SCALAR"},{"bufferView":25,"componentType":5126,"count":1202,"type":"VEC3","min":[-0.25,-0.4,-0.4],"max":[0.25,0.4,0.4]},{"bufferView":26,"componentType":5126,"count":1202,"type":"VEC3"},{"bufferView":27,"componentType":5125,"count":1920,"type":"SCALAR"},{"bufferView":28,"componentType":5126,"count":1202,"type":"VEC3","min":[-0.25,-0.4,-0.4],"max":[0.25,0.4,0.4]},{"bufferView":29,"componentType":5126,"count":1202,"type":"VEC3"},{"bufferView":30,"componentType":5125,"count":1920,"type":"SCALAR"},{"bufferView":31,"componentType":5126,"count":3503,"type":"VEC3","min":[-18.0,-1.4038423936364992,-12.709565217391306],"max":[-1.5,0.9890691538416778,4.5]},{"bufferView":32,"componentType":5126,"count":3503,"type":"VEC3"},{"bufferView":33,"componentType":5125,"count":14976,"type":"SCALAR"},{"bufferView":34,"componentType":5126,"count":28,"type":"VEC3","min":[-18.0,0.96,-12.15],"max":[-17.28,3.24,-8.55]},{"bufferView":35,"componentType":5126,"count":28,"type":"VEC3"},{"bufferView":36,"componentType":5125,"count":36,"type":"SCALAR"},{"bufferView":37,"componentType":5126,"count":36,"type":"VEC3","min":[-18.0,-0.5505339353342902,-11.327625000000001],"max":[-1.5,0.9748810285747875,-3.7620000000000005]},{"bufferView":38,"componentType":5126,"count":36,"type":"VEC3"},{"bufferView":39,"componentType":5125,"count":72,"type":"SCALAR"},{"bufferView":40,"componentType":5126,"count":3503,"type":"VEC3","min":[1.5,-1.4038423936364992,-12.709565217391306],"max":[18.0,0.9890691538416778,4.5]},{"bufferView":41,"componentType":5126,"count":3503,"type":"VEC3"},{"bufferView":42,"componentType":5125,"count":14976,"type":"SCALAR"},{"bufferView":43,"componentType":5126,"count":28,"type":"VEC3","min":[17.28,0.96,-12.15],"max":[18.0,3.24,-8.55]},{"bufferView":44,"componentType":5126,"count":28,"type":"VEC3"},{"bufferView":45,"componentType":5125,"count":36,"type":"SCALAR"},{"bufferView":46,"componentType":5126,"count":36,"type":"VEC3","min":[1.5,-0.5505339353342902,-11.327625000000001],"max":[18.0,0.9748810285747875,-3.7620000000000005]},{"bufferView":47,"componentType":5126,"count":36,"type":"VEC3"},{"bufferView":48,"componentType":5125,"count":72,"type":"SCALAR"},{"bufferView":49,"componentType":5126,"count":753,"type":"VEC3","min":[-7.671591952044924,-3.131591952044924,1.3752000000000002],"max":[-6.008408047955076,-1.4684080479550756,2.475]},{"bufferView":50,"componentType":5126,"count":753,"type":"VEC3"},{"bufferView":51,"componentType":5125,"count":3240,"type":"SCALAR"},{"bufferView":52,"componentType":5126,"count":753,"type":"VEC3","min":[6.008408047955076,-3.131591952044924,1.3752000000000002],"max":[7.671591952044924,-1.4684080479550756,2.475]},{"bufferView":53,"componentType":5126,"count":753,"type":"VEC3"},{"bufferView":54,"componentType":5125,"count":3240,"type":"SCALAR"},{"bufferView":55,"componentType":5126,"count":192,"type":"VEC3","min":[-1.7200000000000002,-3.2,-4.62],"max":[1.7200000000000002,-2.6,13.169999999999998]},{"bufferView":56,"componentType":5126,"count":192,"type":"VEC3"},{"bufferView":57,"componentType":5125,"count":288,"type":"SCALAR"},{"bufferView":58,"componentType":5126,"count":576,"type":"VEC3","min":[-1.8900000000000001,-3.8000000000000003,-4.7],"max":[1.8900000000000001,-1.4,13.503142921678068]},{"bufferView":59,"componentType":5126,"count":576,"type":"VEC3"},{"bufferView":60,"componentType":5125,"count":864,"type":"SCALAR"}],"images":[{"uri":"../../airlines/ANA.png"},{"uri":"fallback-paint-v5.png"}],"textures":[{"source":0,"sampler":0},{"source":1,"sampler":0}],"samplers":[{"magFilter":9729,"minFilter":9987,"wrapS":33071,"wrapT":33071}]}