{"asset":{"version":"2.0","generator":"Skyward detailed procedural a330 fallback v5; approximate airframe; operator identification logos"},"scene":0,"scenes":[{"nodes":[0,1,5,6,7,8]}],"nodes":[{"mesh":0},{"mesh":1,"name":"Gear","children":[2,3,4]},{"mesh":2,"name":"WheelN","translation":[0,-4.4,18.56]},{"mesh":3,"name":"WheelL","translation":[-2.2399999999999998,-4.4,-6.4]},{"mesh":4,"name":"WheelR","translation":[2.2399999999999998,-4.4,-6.4]},{"mesh":5,"name":"FlexWingL"},{"mesh":6,"name":"FlexWingR"},{"mesh":7,"name":"SkywardFan0"},{"mesh":8,"name":"SkywardFan1"}],"meshes":[{"name":"AirframeWithCockpitGlazing","primitives":[{"indices":3,"attributes":{"POSITION":0,"NORMAL":1,"TEXCOORD_0":2},"material":0},{"indices":6,"attributes":{"POSITION":4,"NORMAL":5},"material":1},{"indices":9,"attributes":{"POSITION":7,"NORMAL":8},"material":2},{"attributes":{"POSITION":10,"NORMAL":11},"material":3},{"indices":15,"attributes":{"POSITION":12,"NORMAL":13,"TEXCOORD_0":14},"material":5},{"indices":18,"attributes":{"POSITION":16,"NORMAL":17},"material":6},{"indices":21,"attributes":{"POSITION":19,"NORMAL":20},"material":7}]},{"primitives":[{"indices":57,"attributes":{"POSITION":55,"NORMAL":56},"material":1,"extras":{"gear":true}},{"indices":60,"attributes":{"POSITION":58,"NORMAL":59},"material":6,"extras":{"gear":true}}]},{"primitives":[{"indices":24,"attributes":{"POSITION":22,"NORMAL":23},"material":4,"extras":{"wheel":0}}]},{"primitives":[{"indices":27,"attributes":{"POSITION":25,"NORMAL":26},"material":4,"extras":{"wheel":1}}]},{"primitives":[{"indices":30,"attributes":{"POSITION":28,"NORMAL":29},"material":4,"extras":{"wheel":2}}]},{"primitives":[{"indices":33,"attributes":{"POSITION":31,"NORMAL":32},"material":1,"extras":{"wing":0}},{"indices":36,"attributes":{"POSITION":34,"NORMAL":35},"material":2,"extras":{"wing":0}},{"indices":39,"attributes":{"POSITION":37,"NORMAL":38},"material":6,"extras":{"wing":0}}]},{"primitives":[{"indices":42,"attributes":{"POSITION":40,"NORMAL":41},"material":1,"extras":{"wing":1}},{"indices":45,"attributes":{"POSITION":43,"NORMAL":44},"material":2,"extras":{"wing":1}},{"indices":48,"attributes":{"POSITION":46,"NORMAL":47},"material":6,"extras":{"wing":1}}]},{"primitives":[{"indices":51,"attributes":{"POSITION":49,"NORMAL":50},"material":6,"extras":{"fan":0}}]},{"primitives":[{"indices":54,"attributes":{"POSITION":52,"NORMAL":53},"material":6,"extras":{"fan":1}}]}],"materials":[{"doubleSided":true,"pbrMetallicRoughness":{"baseColorFactor":[0.94,0.95,0.96,1],"metallicFactor":0.04,"roughnessFactor":0.27,"baseColorTexture":{"index":1}}},{"doubleSided":true,"pbrMetallicRoughness":{"baseColorFactor":[0.64,0.68,0.72,1],"metallicFactor":0.04,"roughnessFactor":0.4}},{"doubleSided":true,"pbrMetallicRoughness":{"baseColorFactor":[0.07058823529411765,0.3843137254901961,0.34901960784313724,1],"metallicFactor":0.04,"roughnessFactor":0.27}},{"doubleSided":true,"pbrMetallicRoughness":{"baseColorFactor":[0.02,0.055,0.085,1],"metallicFactor":0,"roughnessFactor":0.12}},{"doubleSided":true,"pbrMetallicRoughness":{"baseColorFactor":[0.07,0.08,0.09,1],"metallicFactor":0,"roughnessFactor":0.86}},{"doubleSided":true,"pbrMetallicRoughness":{"baseColorFactor":[1,1,1,1],"metallicFactor":0,"roughnessFactor":0.75,"baseColorTexture":{"index":0}},"alphaMode":"MASK","alphaCutoff":0.08},{"doubleSided":true,"pbrMetallicRoughness":{"baseColorFactor":[0.36,0.4,0.44,1],"metallicFactor":0.8,"roughnessFactor":0.28}},{"doubleSided":true,"pbrMetallicRoughness":{"baseColorFactor":[0.07058823529411765,0.3843137254901961,0.34901960784313724,1],"metallicFactor":0.04,"roughnessFactor":0.27}}],"buffers":[{"uri":"a330-v4.bin?tail=2&rig=1&detail=5","byteLength":1211440}],"bufferViews":[{"buffer":0,"byteOffset":0,"byteLength":31980,"target":34962},{"buffer":0,"byteOffset":31980,"byteLength":31980,"target":34962},{"buffer":0,"byteOffset":63960,"byteLength":21320,"target":34962},{"buffer":0,"byteOffset":85280,"byteLength":61440,"target":34963},{"buffer":0,"byteOffset":146720,"byteLength":1080,"target":34962},{"buffer":0,"byteOffset":147800,"byteLength":1080,"target":34962},{"buffer":0,"byteOffset":148880,"byteLength":576,"target":34963},{"buffer":0,"byteOffset":149456,"byteLength":288,"target":34962},{"buffer":0,"byteOffset":149744,"byteLength":288,"target":34962},{"buffer":0,"byteOffset":150032,"byteLength":144,"target":34963},{"buffer":0,"byteOffset":150176,"byteLength":194112,"target":34962},{"buffer":0,"byteOffset":344288,"byteLength":194112,"target":34962},{"buffer":0,"byteOffset":538400,"byteLength":192,"target":34962},{"buffer":0,"byteOffset":538592,"byteLength":192,"target":34962},{"buffer":0,"byteOffset":538784,"byteLength":128,"target":34962},{"buffer":0,"byteOffset":538912,"byteLength":96,"target":34963},{"buffer":0,"byteOffset":539008,"byteLength":36816,"target":34962},{"buffer":0,"byteOffset":575824,"byteLength":36816,"target":34962},{"buffer":0,"byteOffset":612640,"byteLength":34560,"target":34963},{"buffer":0,"byteOffset":647200,"byteLength":20376,"target":34962},{"buffer":0,"byteOffset":667576,"byteLength":20376,"target":34962},{"buffer":0,"byteOffset":687952,"byteLength":36912,"target":34963},{"buffer":0,"byteOffset":724864,"byteLength":14424,"target":34962},{"buffer":0,"byteOffset":739288,"byteLength":14424,"target":34962},{"buffer":0,"byteOffset":753712,"byteLength":7680,"target":34963},{"buffer":0,"byteOffset":761392,"byteLength":14424,"target":34962},{"buffer":0,"byteOffset":775816,"byteLength":14424,"target":34962},{"buffer":0,"byteOffset":790240,"byteLength":7680,"target":34963},{"buffer":0,"byteOffset":797920,"byteLength":14424,"target":34962},{"buffer":0,"byteOffset":812344,"byteLength":14424,"target":34962},{"buffer":0,"byteOffset":826768,"byteLength":7680,"target":34963},{"buffer":0,"byteOffset":834448,"byteLength":42036,"target":34962},{"buffer":0,"byteOffset":876484,"byteLength":42036,"target":34962},{"buffer":0,"byteOffset":918520,"byteLength":59904,"target":34963},{"buffer":0,"byteOffset":978424,"byteLength":336,"target":34962},{"buffer":0,"byteOffset":978760,"byteLength":336,"target":34962},{"buffer":0,"byteOffset":979096,"byteLength":144,"target":34963},{"buffer":0,"byteOffset":979240,"byteLength":432,"target":34962},{"buffer":0,"byteOffset":979672,"byteLength":432,"target":34962},{"buffer":0,"byteOffset":980104,"byteLength":288,"target":34963},{"buffer":0,"byteOffset":980392,"byteLength":42036,"target":34962},{"buffer":0,"byteOffset":1022428,"byteLength":42036,"target":34962},{"buffer":0,"byteOffset":1064464,"byteLength":59904,"target":34963},{"buffer":0,"byteOffset":1124368,"byteLength":336,"target":34962},{"buffer":0,"byteOffset":1124704,"byteLength":336,"target":34962},{"buffer":0,"byteOffset":1125040,"byteLength":144,"target":34963},{"buffer":0,"byteOffset":1125184,"byteLength":432,"target":34962},{"buffer":0,"byteOffset":1125616,"byteLength":432,"target":34962},{"buffer":0,"byteOffset":1126048,"byteLength":288,"target":34963},{"buffer":0,"byteOffset":1126336,"byteLength":9036,"target":34962},{"buffer":0,"byteOffset":1135372,"byteLength":9036,"target":34962},{"buffer":0,"byteOffset":1144408,"byteLength":12960,"target":34963},{"buffer":0,"byteOffset":1157368,"byteLength":9036,"target":34962},{"buffer":0,"byteOffset":1166404,"byteLength":9036,"target":34962},{"buffer":0,"byteOffset":1175440,"byteLength":12960,"target":34963},{"buffer":0,"byteOffset":1188400,"byteLength":2304,"target":34962},{"buffer":0,"byteOffset":1190704,"byteLength":2304,"target":34962},{"buffer":0,"byteOffset":1193008,"byteLength":1152,"target":34963},{"buffer":0,"byteOffset":1194160,"byteLength":6912,"target":34962},{"buffer":0,"byteOffset":1201072,"byteLength":6912,"target":34962},{"buffer":0,"byteOffset":1207984,"byteLength":3456,"target":34963}],"accessors":[{"bufferView":0,"componentType":5126,"count":2665,"type":"VEC3","min":[-2.8,-2.8,-32.0],"max":[2.8,2.8,32.0]},{"bufferView":1,"componentType":5126,"count":2665,"type":"VEC3"},{"bufferView":2,"componentType":5126,"count":2665,"type":"VEC2"},{"bufferView":3,"componentType":5125,"count":15360,"type":"SCALAR"},{"bufferView":4,"componentType":5126,"count":90,"type":"VEC3","min":[-11.540000000000001,-3.36,-31.36],"max":[11.26,1.7999999999999998,2.88]},{"bufferView":5,"componentType":5126,"count":90,"type":"VEC3"},{"bufferView":6,"componentType":5125,"count":144,"type":"SCALAR"},{"bufferView":7,"componentType":5126,"count":24,"type":"VEC3","min":[-0.1,1.1199999999999999,-31.68],"max":[0.1,12.079999999999998,-17.92]},{"bufferView":8,"componentType":5126,"count":24,"type":"VEC3"},{"bufferView":9,"componentType":5125,"count":36,"type":"SCALAR"},{"bufferView":10,"componentType":5126,"count":16176,"type":"VEC3","min":[-12.6096,-4.4296,-14.850000000000001],"max":[12.6096,2.317146230619682,28.352]},{"bufferView":11,"componentType":5126,"count":16176,"type":"VEC3"},{"bufferView":12,"componentType":5126,"count":16,"type":"VEC3","min":[-2.84,-1.176,-28.672],"max":[2.84,9.904,14.54]},{"bufferView":13,"componentType":5126,"count":16,"type":"VEC3"},{"bufferView":14,"componentType":5126,"count":16,"type":"VEC2"},{"bufferView":15,"componentType":5125,"count":24,"type":"SCALAR"},{"bufferView":16,"componentType":5126,"count":3068,"type":"VEC3","min":[-12.82128,-4.64128,-15.155000000000001],"max":[12.82128,2.325806484657526,28.352]},{"bufferView":17,"componentType":5126,"count":3068,"type":"VEC3"},{"bufferView":18,"componentType":5125,"count":8640,"type":"SCALAR"},{"bufferView":19,"componentType":5126,"count":1698,"type":"VEC3","min":[-12.912,-4.731999999999999,-12.16],"max":[12.912,-1.3719999999999999,19.2]},{"bufferView":20,"componentType":5126,"count":1698,"type":"VEC3"},{"bufferView":21,"componentType":5125,"count":9228,"type":"SCALAR"},{"bufferView":22,"componentType":5126,"count":1202,"type":"VEC3","min":[-0.25,-0.4,-0.4],"max":[0.25,0.4,0.4]},{"bufferView":23,"componentType":5126,"count":1202,"type":"VEC3"},{"bufferView":24,"componentType":5125,"count":1920,"type":"SCALAR"},{"bufferView":25,"componentType":5126,"count":1202,"type":"VEC3","min":[-0.25,-0.4,-0.4],"max":[0.25,0.4,0.4]},{"bufferView":26,"componentType":5126,"count":1202,"type":"VEC3"},{"bufferView":27,"componentType":5125,"count":1920,"type":"SCALAR"},{"bufferView":28,"componentType":5126,"count":1202,"type":"VEC3","min":[-0.25,-0.4,-0.4],"max":[0.25,0.4,0.4]},{"bufferView":29,"componentType":5126,"count":1202,"type":"VEC3"},{"bufferView":30,"componentType":5125,"count":1920,"type":"SCALAR"},{"bufferView":31,"componentType":5126,"count":3503,"type":"VEC3","min":[-30.0,-1.9765758487274656,-18.07582608695652],"max":[-2.0999999999999996,1.026676129908164,6.4]},{"bufferView":32,"componentType":5126,"count":3503,"type":"VEC3"},{"bufferView":33,"componentType":5125,"count":14976,"type":"SCALAR"},{"bufferView":34,"componentType":5126,"count":28,"type":"VEC3","min":[-30.0,0.96,-17.28],"max":[-28.799999999999997,3.24,-12.16]},{"bufferView":35,"componentType":5126,"count":28,"type":"VEC3"},{"bufferView":36,"componentType":5125,"count":36,"type":"SCALAR"},{"bufferView":37,"componentType":5126,"count":36,"type":"VEC3","min":[-30.0,-0.7663593746976571,-16.110400000000002],"max":[-2.0999999999999996,1.0031196850841422,-5.3504000000000005]},{"bufferView":38,"componentType":5126,"count":36,"type":"VEC3"},{"bufferView":39,"componentType":5125,"count":72,"type":"SCALAR"},{"bufferView":40,"componentType":5126,"count":3503,"type":"VEC3","min":[2.0999999999999996,-1.9765758487274656,-18.07582608695652],"max":[30.0,1.026676129908164,6.4]},{"bufferView":41,"componentType":5126,"count":3503,"type":"VEC3"},{"bufferView":42,"componentType":5125,"count":14976,"type":"SCALAR"},{"bufferView":43,"componentType":5126,"count":28,"type":"VEC3","min":[28.799999999999997,0.96,-17.28],"max":[30.0,3.24,-12.16]},{"bufferView":44,"componentType":5126,"count":28,"type":"VEC3"},{"bufferView":45,"componentType":5125,"count":36,"type":"SCALAR"},{"bufferView":46,"componentType":5126,"count":36,"type":"VEC3","min":[2.0999999999999996,-0.7663593746976571,-16.110400000000002],"max":[30.0,1.0031196850841422,-5.3504000000000005]},{"bufferView":47,"componentType":5126,"count":36,"type":"VEC3"},{"bufferView":48,"componentType":5125,"count":72,"type":"SCALAR"},{"bufferView":49,"componentType":5126,"count":753,"type":"VEC3","min":[-12.564228732862894,-4.384228732862894,1.9572800000000001],"max":[-10.235771267137107,-2.055771267137106,3.52]},{"bufferView":50,"componentType":5126,"count":753,"type":"VEC3"},{"bufferView":51,"componentType":5125,"count":3240,"type":"SCALAR"},{"bufferView":52,"componentType":5126,"count":753,"type":"VEC3","min":[10.235771267137107,-4.384228732862894,1.9572800000000001],"max":[12.564228732862894,-2.055771267137106,3.52]},{"bufferView":53,"componentType":5126,"count":753,"type":"VEC3"},{"bufferView":54,"componentType":5125,"count":3240,"type":"SCALAR"},{"bufferView":55,"componentType":5126,"count":192,"type":"VEC3","min":[-2.36,-4.0,-6.5200000000000005],"max":[2.36,-3.4,18.68]},{"bufferView":56,"componentType":5126,"count":192,"type":"VEC3"},{"bufferView":57,"componentType":5125,"count":288,"type":"SCALAR"},{"bufferView":58,"componentType":5126,"count":576,"type":"VEC3","min":[-2.53,-4.6000000000000005,-6.6000000000000005],"max":[2.53,-1.9599999999999997,19.013396389393193]},{"bufferView":59,"componentType":5126,"count":576,"type":"VEC3"},{"bufferView":60,"componentType":5125,"count":864,"type":"SCALAR"}],"images":[{"uri":"../../airlines/CPA.png"},{"uri":"fallback-paint-v5.png"}],"textures":[{"source":0,"sampler":0},{"source":1,"sampler":0}],"samplers":[{"magFilter":9729,"minFilter":9987,"wrapS":33071,"wrapT":33071}]}