{"asset":{"version":"2.0","generator":"Skyward original illustrative profile; airline-inspired paint, no official logos"},"scene":0,"scenes":[{"nodes":[0,1]}],"nodes":[{"mesh":0},{"mesh":1,"name":"Gear"}],"meshes":[{"primitives":[{"attributes":{"POSITION":0,"NORMAL":1},"material":0},{"attributes":{"POSITION":2,"NORMAL":3},"material":1},{"attributes":{"POSITION":4,"NORMAL":5},"material":2},{"attributes":{"POSITION":6,"NORMAL":7},"material":3}]},{"primitives":[{"attributes":{"POSITION":8,"NORMAL":9},"material":4}]}],"materials":[{"doubleSided":true,"pbrMetallicRoughness":{"baseColorFactor":[0.91,0.94,0.96,1],"metallicFactor":0.15,"roughnessFactor":0.45}},{"doubleSided":true,"pbrMetallicRoughness":{"baseColorFactor":[0.52,0.6,0.66,1],"metallicFactor":0.15,"roughnessFactor":0.45}},{"doubleSided":true,"pbrMetallicRoughness":{"baseColorFactor":[0.4470588235294118,0.11764705882352941,0.28627450980392155,1],"metallicFactor":0.15,"roughnessFactor":0.45}},{"doubleSided":true,"pbrMetallicRoughness":{"baseColorFactor":[0.025,0.06,0.09,1],"metallicFactor":0.15,"roughnessFactor":0.45}},{"doubleSided":true,"pbrMetallicRoughness":{"baseColorFactor":[0.08,0.1,0.12,1],"metallicFactor":0.15,"roughnessFactor":0.45}}],"buffers":[{"uri":"a330.bin","byteLength":37368}],"bufferViews":[{"buffer":0,"byteOffset":0,"byteLength":10080,"target":34962},{"buffer":0,"byteOffset":10080,"byteLength":10080,"target":34962},{"buffer":0,"byteOffset":20160,"byteLength":288,"target":34962},{"buffer":0,"byteOffset":20448,"byteLength":288,"target":34962},{"buffer":0,"byteOffset":20736,"byteLength":108,"target":34962},{"buffer":0,"byteOffset":20844,"byteLength":108,"target":34962},{"buffer":0,"byteOffset":20952,"byteLength":5616,"target":34962},{"buffer":0,"byteOffset":26568,"byteLength":5616,"target":34962},{"buffer":0,"byteOffset":32184,"byteLength":2592,"target":34962},{"buffer":0,"byteOffset":34776,"byteLength":2592,"target":34962}],"accessors":[{"bufferView":0,"componentType":5126,"count":840,"type":"VEC3","min":[-12.940000000000001,-4.62,-32.0],"max":[12.940000000000001,2.8,32.0]},{"bufferView":1,"componentType":5126,"count":840,"type":"VEC3"},{"bufferView":2,"componentType":5126,"count":24,"type":"VEC3","min":[-30.0,-1.4,-31.36],"max":[30.0,0.9799999999999999,5.12]},{"bufferView":3,"componentType":5126,"count":24,"type":"VEC3"},{"bufferView":4,"componentType":5126,"count":9,"type":"VEC3","min":[-30.0,0,-31.36],"max":[30.0,11.760000000000002,-10.24]},{"bufferView":5,"componentType":5126,"count":9,"type":"VEC3"},{"bufferView":6,"componentType":5126,"count":468,"type":"VEC3","min":[-12.7552,-4.4352,-16],"max":[12.7552,1.68,26.88]},{"bufferView":7,"componentType":5126,"count":468,"type":"VEC3"},{"bufferView":8,"componentType":5126,"count":216,"type":"VEC3","min":[-2.6399999999999997,-5.3999999999999995,-7.0],"max":[2.6399999999999997,-2.6999999999999997,19.16]},{"bufferView":9,"componentType":5126,"count":216,"type":"VEC3"}]}