{"asset":{"version":"2.0","generator":"Skyward original illustrative a330 profile; logos for operator identification"},"scene":0,"scenes":[{"nodes":[0,1]}],"nodes":[{"mesh":0},{"mesh":1,"name":"Gear","children":[2,3,4]},{"mesh":2,"name":"WheelN","translation":[0,-4.4,18.56]},{"mesh":3,"name":"WheelL","translation":[-2.2399999999999998,-4.4,-6.4]},{"mesh":4,"name":"WheelR","translation":[2.2399999999999998,-4.4,-6.4]}],"meshes":[{"primitives":[{"attributes":{"POSITION":0,"NORMAL":1},"material":0},{"attributes":{"POSITION":2,"NORMAL":3},"material":1},{"attributes":{"POSITION":4,"NORMAL":5},"material":2},{"attributes":{"POSITION":6,"NORMAL":7},"material":3},{"attributes":{"POSITION":10,"NORMAL":11,"TEXCOORD_0":12},"material":5},{"attributes":{"POSITION":13,"NORMAL":14},"material":6},{"attributes":{"POSITION":15,"NORMAL":16},"material":7}]},{"primitives":[{"attributes":{"POSITION":8,"NORMAL":9},"material":4}]},{"primitives":[{"attributes":{"POSITION":17,"NORMAL":18},"material":4,"extras":{"wheel":0}}]},{"primitives":[{"attributes":{"POSITION":19,"NORMAL":20},"material":4,"extras":{"wheel":1}}]},{"primitives":[{"attributes":{"POSITION":21,"NORMAL":22},"material":4,"extras":{"wheel":2}}]}],"materials":[{"doubleSided":true,"pbrMetallicRoughness":{"baseColorFactor":[0.94,0.95,0.96,1],"metallicFactor":0.18,"roughnessFactor":0.3}},{"doubleSided":true,"pbrMetallicRoughness":{"baseColorFactor":[0.64,0.68,0.72,1],"metallicFactor":0.18,"roughnessFactor":0.3}},{"doubleSided":true,"pbrMetallicRoughness":{"baseColorFactor":[0.7843137254901961,0.09803921568627451,0.19607843137254902,1],"metallicFactor":0.18,"roughnessFactor":0.3}},{"doubleSided":true,"pbrMetallicRoughness":{"baseColorFactor":[0.02,0.055,0.085,1],"metallicFactor":0.18,"roughnessFactor":0.17}},{"doubleSided":true,"pbrMetallicRoughness":{"baseColorFactor":[0.07,0.08,0.09,1],"metallicFactor":0.18,"roughnessFactor":0.3}},{"doubleSided":true,"pbrMetallicRoughness":{"baseColorFactor":[1,1,1,1],"metallicFactor":0,"roughnessFactor":0.75,"baseColorTexture":{"index":0}},"alphaMode":"MASK","alphaCutoff":0.08},{"doubleSided":true,"pbrMetallicRoughness":{"baseColorFactor":[0.36,0.4,0.44,1],"metallicFactor":0.7,"roughnessFactor":0.3}},{"doubleSided":true,"pbrMetallicRoughness":{"baseColorFactor":[0.7843137254901961,0.09803921568627451,0.19607843137254902,1],"metallicFactor":0.18,"roughnessFactor":0.3}}],"buffers":[{"uri":"a330-v4.bin?tail=2","byteLength":260544}],"bufferViews":[{"buffer":0,"byteOffset":0,"byteLength":34560,"target":34962},{"buffer":0,"byteOffset":34560,"byteLength":34560,"target":34962},{"buffer":0,"byteOffset":69120,"byteLength":2880,"target":34962},{"buffer":0,"byteOffset":72000,"byteLength":2880,"target":34962},{"buffer":0,"byteOffset":74880,"byteLength":1296,"target":34962},{"buffer":0,"byteOffset":76176,"byteLength":1296,"target":34962},{"buffer":0,"byteOffset":77472,"byteLength":39888,"target":34962},{"buffer":0,"byteOffset":117360,"byteLength":39888,"target":34962},{"buffer":0,"byteOffset":157248,"byteLength":1296,"target":34962},{"buffer":0,"byteOffset":158544,"byteLength":1296,"target":34962},{"buffer":0,"byteOffset":159840,"byteLength":288,"target":34962},{"buffer":0,"byteOffset":160128,"byteLength":288,"target":34962},{"buffer":0,"byteOffset":160416,"byteLength":192,"target":34962},{"buffer":0,"byteOffset":160608,"byteLength":15264,"target":34962},{"buffer":0,"byteOffset":175872,"byteLength":15264,"target":34962},{"buffer":0,"byteOffset":191136,"byteLength":20880,"target":34962},{"buffer":0,"byteOffset":212016,"byteLength":20880,"target":34962},{"buffer":0,"byteOffset":232896,"byteLength":4608,"target":34962},{"buffer":0,"byteOffset":237504,"byteLength":4608,"target":34962},{"buffer":0,"byteOffset":242112,"byteLength":4608,"target":34962},{"buffer":0,"byteOffset":246720,"byteLength":4608,"target":34962},{"buffer":0,"byteOffset":251328,"byteLength":4608,"target":34962},{"buffer":0,"byteOffset":255936,"byteLength":4608,"target":34962}],"accessors":[{"bufferView":0,"componentType":5126,"count":2880,"type":"VEC3","min":[-2.8,-2.8,-32.0],"max":[2.8,2.8,32.0]},{"bufferView":1,"componentType":5126,"count":2880,"type":"VEC3"},{"bufferView":2,"componentType":5126,"count":240,"type":"VEC3","min":[-30.0,-3.36,-31.36],"max":[30.0,1.7999999999999998,6.4]},{"bufferView":3,"componentType":5126,"count":240,"type":"VEC3"},{"bufferView":4,"componentType":5126,"count":108,"type":"VEC3","min":[-30.0,0.96,-31.68],"max":[30.0,12.079999999999998,-12.16]},{"bufferView":5,"componentType":5126,"count":108,"type":"VEC3"},{"bufferView":6,"componentType":5126,"count":3324,"type":"VEC3","min":[-12.6096,-4.4296,-14.850000000000001],"max":[12.6096,1.876,26.56]},{"bufferView":7,"componentType":5126,"count":3324,"type":"VEC3"},{"bufferView":8,"componentType":5126,"count":108,"type":"VEC3","min":[-2.34,-4.3999999999999995,-6.5],"max":[2.34,-2.8,18.66]},{"bufferView":9,"componentType":5126,"count":108,"type":"VEC3"},{"bufferView":10,"componentType":5126,"count":24,"type":"VEC3","min":[-2.84,-1.176,-28.672],"max":[2.84,9.904,14.54]},{"bufferView":11,"componentType":5126,"count":24,"type":"VEC3"},{"bufferView":12,"componentType":5126,"count":24,"type":"VEC2"},{"bufferView":13,"componentType":5126,"count":1272,"type":"VEC3","min":[-12.82128,-4.64128,-14.72],"max":[12.82128,1.68,17.970000000000002]},{"bufferView":14,"componentType":5126,"count":1272,"type":"VEC3"},{"bufferView":15,"componentType":5126,"count":1740,"type":"VEC3","min":[-12.912,-4.731999999999999,-12.16],"max":[12.912,-1.3719999999999999,19.2]},{"bufferView":16,"componentType":5126,"count":1740,"type":"VEC3"},{"bufferView":17,"componentType":5126,"count":384,"type":"VEC3","min":[-0.25,-0.4,-0.4],"max":[0.25,0.4,0.4]},{"bufferView":18,"componentType":5126,"count":384,"type":"VEC3"},{"bufferView":19,"componentType":5126,"count":384,"type":"VEC3","min":[-0.25,-0.4,-0.4],"max":[0.25,0.4,0.4]},{"bufferView":20,"componentType":5126,"count":384,"type":"VEC3"},{"bufferView":21,"componentType":5126,"count":384,"type":"VEC3","min":[-0.25,-0.4,-0.4],"max":[0.25,0.4,0.4]},{"bufferView":22,"componentType":5126,"count":384,"type":"VEC3"}],"images":[{"uri":"../../airlines/JAL.png"}],"textures":[{"source":0,"sampler":0}],"samplers":[{"magFilter":9729,"minFilter":9987,"wrapS":33071,"wrapT":33071}]}