{"asset":{"version":"2.0","generator":"Skyward original illustrative a330 profile; logos for operator identification"},"scene":0,"scenes":[{"nodes":[0,1]}],"nodes":[{"mesh":0},{"mesh":1,"name":"Gear"}],"meshes":[{"primitives":[{"attributes":{"POSITION":0,"NORMAL":1},"material":0},{"attributes":{"POSITION":2,"NORMAL":3},"material":1},{"attributes":{"POSITION":4,"NORMAL":5},"material":2},{"attributes":{"POSITION":6,"NORMAL":7},"material":3},{"attributes":{"POSITION":10,"NORMAL":11,"TEXCOORD_0":12},"material":5},{"attributes":{"POSITION":13,"NORMAL":14},"material":6}]},{"primitives":[{"attributes":{"POSITION":8,"NORMAL":9},"material":4}]}],"materials":[{"doubleSided":true,"pbrMetallicRoughness":{"baseColorFactor":[0.94,0.95,0.96,1],"metallicFactor":0.18,"roughnessFactor":0.3}},{"doubleSided":true,"pbrMetallicRoughness":{"baseColorFactor":[0.64,0.68,0.72,1],"metallicFactor":0.18,"roughnessFactor":0.3}},{"doubleSided":true,"pbrMetallicRoughness":{"baseColorFactor":[0.13725490196078433,0.30196078431372547,0.6078431372549019,1],"metallicFactor":0.18,"roughnessFactor":0.3}},{"doubleSided":true,"pbrMetallicRoughness":{"baseColorFactor":[0.02,0.055,0.085,1],"metallicFactor":0.18,"roughnessFactor":0.17}},{"doubleSided":true,"pbrMetallicRoughness":{"baseColorFactor":[0.07,0.08,0.09,1],"metallicFactor":0.18,"roughnessFactor":0.3}},{"doubleSided":true,"pbrMetallicRoughness":{"baseColorFactor":[1,1,1,1],"metallicFactor":0,"roughnessFactor":0.75,"baseColorTexture":{"index":0}},"alphaMode":"BLEND"},{"doubleSided":true,"pbrMetallicRoughness":{"baseColorFactor":[0.36,0.4,0.44,1],"metallicFactor":0.7,"roughnessFactor":0.3}}],"buffers":[{"uri":"a330-v2.bin","byteLength":235200}],"bufferViews":[{"buffer":0,"byteOffset":0,"byteLength":55296,"target":34962},{"buffer":0,"byteOffset":55296,"byteLength":55296,"target":34962},{"buffer":0,"byteOffset":110592,"byteLength":2880,"target":34962},{"buffer":0,"byteOffset":113472,"byteLength":2880,"target":34962},{"buffer":0,"byteOffset":116352,"byteLength":1296,"target":34962},{"buffer":0,"byteOffset":117648,"byteLength":1296,"target":34962},{"buffer":0,"byteOffset":118944,"byteLength":39888,"target":34962},{"buffer":0,"byteOffset":158832,"byteLength":39888,"target":34962},{"buffer":0,"byteOffset":198720,"byteLength":2592,"target":34962},{"buffer":0,"byteOffset":201312,"byteLength":2592,"target":34962},{"buffer":0,"byteOffset":203904,"byteLength":288,"target":34962},{"buffer":0,"byteOffset":204192,"byteLength":288,"target":34962},{"buffer":0,"byteOffset":204480,"byteLength":192,"target":34962},{"buffer":0,"byteOffset":204672,"byteLength":15264,"target":34962},{"buffer":0,"byteOffset":219936,"byteLength":15264,"target":34962}],"accessors":[{"bufferView":0,"componentType":5126,"count":4608,"type":"VEC3","min":[-12.912,-4.731999999999999,-32.0],"max":[12.912,2.8,32.0]},{"bufferView":1,"componentType":5126,"count":4608,"type":"VEC3"},{"bufferView":2,"componentType":5126,"count":240,"type":"VEC3","min":[-30.0,-3.36,-31.36],"max":[30.0,1.7999999999999998,6.4]},{"bufferView":3,"componentType":5126,"count":240,"type":"VEC3"},{"bufferView":4,"componentType":5126,"count":108,"type":"VEC3","min":[-30.0,0.96,-31.68],"max":[30.0,12.079999999999998,-12.16]},{"bufferView":5,"componentType":5126,"count":108,"type":"VEC3"},{"bufferView":6,"componentType":5126,"count":3324,"type":"VEC3","min":[-12.6096,-4.4296,-14.850000000000001],"max":[12.6096,1.876,26.56]},{"bufferView":7,"componentType":5126,"count":3324,"type":"VEC3"},{"bufferView":8,"componentType":5126,"count":216,"type":"VEC3","min":[-2.5399999999999996,-4.800000000000001,-6.78],"max":[2.5399999999999996,-2.8,18.939999999999998]},{"bufferView":9,"componentType":5126,"count":216,"type":"VEC3"},{"bufferView":10,"componentType":5126,"count":24,"type":"VEC3","min":[-2.84,-1.176,-28.608],"max":[2.84,9.2,14.54]},{"bufferView":11,"componentType":5126,"count":24,"type":"VEC3"},{"bufferView":12,"componentType":5126,"count":24,"type":"VEC2"},{"bufferView":13,"componentType":5126,"count":1272,"type":"VEC3","min":[-12.82128,-4.64128,-14.72],"max":[12.82128,1.68,17.970000000000002]},{"bufferView":14,"componentType":5126,"count":1272,"type":"VEC3"}],"images":[{"uri":"../../airlines/SAS.png"}],"textures":[{"source":0,"sampler":0}],"samplers":[{"magFilter":9729,"minFilter":9987,"wrapS":33071,"wrapT":33071}]}