{"asset":{"version":"2.0","generator":"Skyward detailed procedural a330 fallback v6; approximate airframe; operator identification logos"},"scene":0,"scenes":[{"nodes":[0,1,7,8,9,10,11,12,13,14,15,16,17,18,19]}],"nodes":[{"mesh":0},{"mesh":1,"name":"Gear","children":[2,3,4,5,6]},{"mesh":2,"name":"WheelN","translation":[0,-4.4,18.56]},{"mesh":3,"name":"WheelL","translation":[-3.08,-4.4,-6.925000000000001]},{"mesh":4,"name":"WheelR","translation":[3.08,-4.4,-6.925000000000001]},{"mesh":5,"name":"WheelL2","translation":[-3.08,-4.4,-5.875]},{"mesh":6,"name":"WheelR2","translation":[3.08,-4.4,-5.875]},{"mesh":7,"name":"SlatL"},{"mesh":8,"name":"FlapL"},{"mesh":9,"name":"SpoilerL"},{"mesh":10,"name":"ElevatorL"},{"mesh":11,"name":"SlatR"},{"mesh":12,"name":"FlapR"},{"mesh":13,"name":"SpoilerR"},{"mesh":14,"name":"ElevatorR"},{"mesh":15,"name":"Rudder"},{"mesh":16,"name":"FlexWingL"},{"mesh":17,"name":"FlexWingR"},{"mesh":18,"name":"SkywardFan0"},{"mesh":19,"name":"SkywardFan1"}],"meshes":[{"name":"AirframeWithCockpitGlazing","primitives":[{"indices":3,"attributes":{"POSITION":0,"NORMAL":1,"TEXCOORD_0":2},"material":0},{"indices":6,"attributes":{"POSITION":4,"NORMAL":5},"material":1},{"indices":9,"attributes":{"POSITION":7,"NORMAL":8},"material":2},{"attributes":{"POSITION":10,"NORMAL":11},"material":3},{"indices":15,"attributes":{"POSITION":12,"NORMAL":13,"TEXCOORD_0":14},"material":5},{"indices":18,"attributes":{"POSITION":16,"NORMAL":17},"material":6},{"indices":21,"attributes":{"POSITION":19,"NORMAL":20},"material":7},{"attributes":{"POSITION":113,"NORMAL":114,"TEXCOORD_0":115},"material":8}]},{"primitives":[{"indices":64,"attributes":{"POSITION":61,"NORMAL":62,"TEXCOORD_0":63},"material":0,"extras":{"gear":true}},{"indices":67,"attributes":{"POSITION":65,"NORMAL":66},"material":1,"extras":{"gear":true}},{"indices":70,"attributes":{"POSITION":68,"NORMAL":69},"material":6,"extras":{"gear":true}}]},{"primitives":[{"indices":24,"attributes":{"POSITION":22,"NORMAL":23},"material":4,"extras":{"wheel":0}},{"indices":100,"attributes":{"POSITION":98,"NORMAL":99},"material":6,"extras":{"wheel":0}}]},{"primitives":[{"indices":27,"attributes":{"POSITION":25,"NORMAL":26},"material":4,"extras":{"wheel":1}},{"indices":103,"attributes":{"POSITION":101,"NORMAL":102},"material":6,"extras":{"wheel":1}}]},{"primitives":[{"indices":30,"attributes":{"POSITION":28,"NORMAL":29},"material":4,"extras":{"wheel":2}},{"indices":106,"attributes":{"POSITION":104,"NORMAL":105},"material":6,"extras":{"wheel":2}}]},{"primitives":[{"indices":33,"attributes":{"POSITION":31,"NORMAL":32},"material":4,"extras":{"wheel":3}},{"indices":109,"attributes":{"POSITION":107,"NORMAL":108},"material":6,"extras":{"wheel":3}}]},{"primitives":[{"indices":36,"attributes":{"POSITION":34,"NORMAL":35},"material":4,"extras":{"wheel":4}},{"indices":112,"attributes":{"POSITION":110,"NORMAL":111},"material":6,"extras":{"wheel":4}}]},{"primitives":[{"indices":73,"attributes":{"POSITION":71,"NORMAL":72},"material":1,"extras":{"surface":0}}]},{"primitives":[{"indices":76,"attributes":{"POSITION":74,"NORMAL":75},"material":1,"extras":{"surface":1}}]},{"primitives":[{"indices":79,"attributes":{"POSITION":77,"NORMAL":78},"material":1,"extras":{"surface":2}}]},{"primitives":[{"indices":82,"attributes":{"POSITION":80,"NORMAL":81},"material":1,"extras":{"surface":3}}]},{"primitives":[{"indices":85,"attributes":{"POSITION":83,"NORMAL":84},"material":1,"extras":{"surface":4}}]},{"primitives":[{"indices":88,"attributes":{"POSITION":86,"NORMAL":87},"material":1,"extras":{"surface":5}}]},{"primitives":[{"indices":91,"attributes":{"POSITION":89,"NORMAL":90},"material":1,"extras":{"surface":6}}]},{"primitives":[{"indices":94,"attributes":{"POSITION":92,"NORMAL":93},"material":1,"extras":{"surface":7}}]},{"primitives":[{"indices":97,"attributes":{"POSITION":95,"NORMAL":96},"material":2,"extras":{"surface":8}}]},{"primitives":[{"indices":39,"attributes":{"POSITION":37,"NORMAL":38},"material":1,"extras":{"wing":0}},{"indices":42,"attributes":{"POSITION":40,"NORMAL":41},"material":2,"extras":{"wing":0}},{"indices":45,"attributes":{"POSITION":43,"NORMAL":44},"material":6,"extras":{"wing":0}}]},{"primitives":[{"indices":48,"attributes":{"POSITION":46,"NORMAL":47},"material":1,"extras":{"wing":1}},{"indices":51,"attributes":{"POSITION":49,"NORMAL":50},"material":2,"extras":{"wing":1}},{"indices":54,"attributes":{"POSITION":52,"NORMAL":53},"material":6,"extras":{"wing":1}}]},{"primitives":[{"indices":57,"attributes":{"POSITION":55,"NORMAL":56},"material":6,"extras":{"fan":0}}]},{"primitives":[{"indices":60,"attributes":{"POSITION":58,"NORMAL":59},"material":6,"extras":{"fan":1}}]}],"materials":[{"doubleSided":true,"pbrMetallicRoughness":{"baseColorFactor":[0.94,0.95,0.96,1],"metallicFactor":0.04,"roughnessFactor":0.27,"baseColorTexture":{"index":1}}},{"doubleSided":true,"pbrMetallicRoughness":{"baseColorFactor":[0.64,0.68,0.72,1],"metallicFactor":0.04,"roughnessFactor":0.4}},{"doubleSided":true,"pbrMetallicRoughness":{"baseColorFactor":[0.7725490196078432,0.09803921568627451,0.4823529411764706,1],"metallicFactor":0.04,"roughnessFactor":0.27}},{"doubleSided":true,"pbrMetallicRoughness":{"baseColorFactor":[0.02,0.055,0.085,1],"metallicFactor":0,"roughnessFactor":0.12}},{"doubleSided":true,"pbrMetallicRoughness":{"baseColorFactor":[0.07,0.08,0.09,1],"metallicFactor":0,"roughnessFactor":0.86}},{"doubleSided":true,"pbrMetallicRoughness":{"baseColorFactor":[1,1,1,1],"metallicFactor":0,"roughnessFactor":0.75,"baseColorTexture":{"index":0}},"alphaMode":"MASK","alphaCutoff":0.08},{"doubleSided":true,"pbrMetallicRoughness":{"baseColorFactor":[0.36,0.4,0.44,1],"metallicFactor":0.8,"roughnessFactor":0.28}},{"doubleSided":true,"pbrMetallicRoughness":{"baseColorFactor":[0.7725490196078432,0.09803921568627451,0.4823529411764706,1],"metallicFactor":0.04,"roughnessFactor":0.27}},{"name":"Operator title","doubleSided":true,"alphaMode":"MASK","alphaCutoff":0.15,"pbrMetallicRoughness":{"baseColorTexture":{"index":2},"baseColorFactor":[0.7725490196078432,0.09803921568627451,0.4823529411764706,1],"roughnessFactor":0.6,"metallicFactor":0}}],"buffers":[{"uri":"a330-v4.bin?tail=2&rig=1&detail=6","byteLength":1457440},{"uri":"a330-title.bin?detail=6","byteLength":18432}],"bufferViews":[{"buffer":0,"byteOffset":0,"byteLength":31980,"target":34962},{"buffer":0,"byteOffset":31980,"byteLength":31980,"target":34962},{"buffer":0,"byteOffset":63960,"byteLength":21320,"target":34962},{"buffer":0,"byteOffset":85280,"byteLength":61440,"target":34963},{"buffer":0,"byteOffset":146720,"byteLength":1080,"target":34962},{"buffer":0,"byteOffset":147800,"byteLength":1080,"target":34962},{"buffer":0,"byteOffset":148880,"byteLength":576,"target":34963},{"buffer":0,"byteOffset":149456,"byteLength":288,"target":34962},{"buffer":0,"byteOffset":149744,"byteLength":288,"target":34962},{"buffer":0,"byteOffset":150032,"byteLength":144,"target":34963},{"buffer":0,"byteOffset":150176,"byteLength":194112,"target":34962},{"buffer":0,"byteOffset":344288,"byteLength":194112,"target":34962},{"buffer":0,"byteOffset":538400,"byteLength":192,"target":34962},{"buffer":0,"byteOffset":538592,"byteLength":192,"target":34962},{"buffer":0,"byteOffset":538784,"byteLength":128,"target":34962},{"buffer":0,"byteOffset":538912,"byteLength":96,"target":34963},{"buffer":0,"byteOffset":539008,"byteLength":50760,"target":34962},{"buffer":0,"byteOffset":589768,"byteLength":50760,"target":34962},{"buffer":0,"byteOffset":640528,"byteLength":49920,"target":34963},{"buffer":0,"byteOffset":690448,"byteLength":20376,"target":34962},{"buffer":0,"byteOffset":710824,"byteLength":20376,"target":34962},{"buffer":0,"byteOffset":731200,"byteLength":36912,"target":34963},{"buffer":0,"byteOffset":768112,"byteLength":21504,"target":34962},{"buffer":0,"byteOffset":789616,"byteLength":21504,"target":34962},{"buffer":0,"byteOffset":811120,"byteLength":10752,"target":34963},{"buffer":0,"byteOffset":821872,"byteLength":21504,"target":34962},{"buffer":0,"byteOffset":843376,"byteLength":21504,"target":34962},{"buffer":0,"byteOffset":864880,"byteLength":10752,"target":34963},{"buffer":0,"byteOffset":875632,"byteLength":21504,"target":34962},{"buffer":0,"byteOffset":897136,"byteLength":21504,"target":34962},{"buffer":0,"byteOffset":918640,"byteLength":10752,"target":34963},{"buffer":0,"byteOffset":929392,"byteLength":21504,"target":34962},{"buffer":0,"byteOffset":950896,"byteLength":21504,"target":34962},{"buffer":0,"byteOffset":972400,"byteLength":10752,"target":34963},{"buffer":0,"byteOffset":983152,"byteLength":21504,"target":34962},{"buffer":0,"byteOffset":1004656,"byteLength":21504,"target":34962},{"buffer":0,"byteOffset":1026160,"byteLength":10752,"target":34963},{"buffer":0,"byteOffset":1036912,"byteLength":39156,"target":34962},{"buffer":0,"byteOffset":1076068,"byteLength":39156,"target":34962},{"buffer":0,"byteOffset":1115224,"byteLength":58944,"target":34963},{"buffer":0,"byteOffset":1174168,"byteLength":336,"target":34962},{"buffer":0,"byteOffset":1174504,"byteLength":336,"target":34962},{"buffer":0,"byteOffset":1174840,"byteLength":144,"target":34963},{"buffer":0,"byteOffset":1174984,"byteLength":432,"target":34962},{"buffer":0,"byteOffset":1175416,"byteLength":432,"target":34962},{"buffer":0,"byteOffset":1175848,"byteLength":288,"target":34963},{"buffer":0,"byteOffset":1176136,"byteLength":39156,"target":34962},{"buffer":0,"byteOffset":1215292,"byteLength":39156,"target":34962},{"buffer":0,"byteOffset":1254448,"byteLength":58944,"target":34963},{"buffer":0,"byteOffset":1313392,"byteLength":336,"target":34962},{"buffer":0,"byteOffset":1313728,"byteLength":336,"target":34962},{"buffer":0,"byteOffset":1314064,"byteLength":144,"target":34963},{"buffer":0,"byteOffset":1314208,"byteLength":432,"target":34962},{"buffer":0,"byteOffset":1314640,"byteLength":432,"target":34962},{"buffer":0,"byteOffset":1315072,"byteLength":288,"target":34963},{"buffer":0,"byteOffset":1315360,"byteLength":9036,"target":34962},{"buffer":0,"byteOffset":1324396,"byteLength":9036,"target":34962},{"buffer":0,"byteOffset":1333432,"byteLength":12960,"target":34963},{"buffer":0,"byteOffset":1346392,"byteLength":9036,"target":34962},{"buffer":0,"byteOffset":1355428,"byteLength":9036,"target":34962},{"buffer":0,"byteOffset":1364464,"byteLength":12960,"target":34963},{"buffer":0,"byteOffset":1377424,"byteLength":864,"target":34962},{"buffer":0,"byteOffset":1378288,"byteLength":864,"target":34962},{"buffer":0,"byteOffset":1379152,"byteLength":576,"target":34962},{"buffer":0,"byteOffset":1379728,"byteLength":432,"target":34963},{"buffer":0,"byteOffset":1380160,"byteLength":3840,"target":34962},{"buffer":0,"byteOffset":1384000,"byteLength":3840,"target":34962},{"buffer":0,"byteOffset":1387840,"byteLength":1920,"target":34963},{"buffer":0,"byteOffset":1389760,"byteLength":11520,"target":34962},{"buffer":0,"byteOffset":1401280,"byteLength":11520,"target":34962},{"buffer":0,"byteOffset":1412800,"byteLength":5760,"target":34963},{"buffer":0,"byteOffset":1418560,"byteLength":864,"target":34962},{"buffer":0,"byteOffset":1419424,"byteLength":864,"target":34962},{"buffer":0,"byteOffset":1420288,"byteLength":288,"target":34963},{"buffer":0,"byteOffset":1420576,"byteLength":1728,"target":34962},{"buffer":0,"byteOffset":1422304,"byteLength":1728,"target":34962},{"buffer":0,"byteOffset":1424032,"byteLength":576,"target":34963},{"buffer":0,"byteOffset":1424608,"byteLength":288,"target":34962},{"buffer":0,"byteOffset":1424896,"byteLength":288,"target":34962},{"buffer":0,"byteOffset":1425184,"byteLength":96,"target":34963},{"buffer":0,"byteOffset":1425280,"byteLength":288,"target":34962},{"buffer":0,"byteOffset":1425568,"byteLength":288,"target":34962},{"buffer":0,"byteOffset":1425856,"byteLength":144,"target":34963},{"buffer":0,"byteOffset":1426000,"byteLength":864,"target":34962},{"buffer":0,"byteOffset":1426864,"byteLength":864,"target":34962},{"buffer":0,"byteOffset":1427728,"byteLength":288,"target":34963},{"buffer":0,"byteOffset":1428016,"byteLength":1728,"target":34962},{"buffer":0,"byteOffset":1429744,"byteLength":1728,"target":34962},{"buffer":0,"byteOffset":1431472,"byteLength":576,"target":34963},{"buffer":0,"byteOffset":1432048,"byteLength":288,"target":34962},{"buffer":0,"byteOffset":1432336,"byteLength":288,"target":34962},{"buffer":0,"byteOffset":1432624,"byteLength":96,"target":34963},{"buffer":0,"byteOffset":1432720,"byteLength":288,"target":34962},{"buffer":0,"byteOffset":1433008,"byteLength":288,"target":34962},{"buffer":0,"byteOffset":1433296,"byteLength":144,"target":34963},{"buffer":0,"byteOffset":1433440,"byteLength":168,"target":34962},{"buffer":0,"byteOffset":1433608,"byteLength":168,"target":34962},{"buffer":0,"byteOffset":1433776,"byteLength":144,"target":34963},{"buffer":0,"byteOffset":1433920,"byteLength":1584,"target":34962},{"buffer":0,"byteOffset":1435504,"byteLength":1584,"target":34962},{"buffer":0,"byteOffset":1437088,"byteLength":1536,"target":34963},{"buffer":0,"byteOffset":1438624,"byteLength":1584,"target":34962},{"buffer":0,"byteOffset":1440208,"byteLength":1584,"target":34962},{"buffer":0,"byteOffset":1441792,"byteLength":1536,"target":34963},{"buffer":0,"byteOffset":1443328,"byteLength":1584,"target":34962},{"buffer":0,"byteOffset":1444912,"byteLength":1584,"target":34962},{"buffer":0,"byteOffset":1446496,"byteLength":1536,"target":34963},{"buffer":0,"byteOffset":1448032,"byteLength":1584,"target":34962},{"buffer":0,"byteOffset":1449616,"byteLength":1584,"target":34962},{"buffer":0,"byteOffset":1451200,"byteLength":1536,"target":34963},{"buffer":0,"byteOffset":1452736,"byteLength":1584,"target":34962},{"buffer":0,"byteOffset":1454320,"byteLength":1584,"target":34962},{"buffer":0,"byteOffset":1455904,"byteLength":1536,"target":34963},{"buffer":1,"byteOffset":0,"byteLength":6912,"target":34962},{"buffer":1,"byteOffset":6912,"byteLength":6912,"target":34962},{"buffer":1,"byteOffset":13824,"byteLength":4608,"target":34962}],"accessors":[{"bufferView":0,"componentType":5126,"count":2665,"type":"VEC3","min":[-2.8,-2.8,-32.0],"max":[2.8,2.8,32.0]},{"bufferView":1,"componentType":5126,"count":2665,"type":"VEC3"},{"bufferView":2,"componentType":5126,"count":2665,"type":"VEC2"},{"bufferView":3,"componentType":5125,"count":15360,"type":"SCALAR"},{"bufferView":4,"componentType":5126,"count":90,"type":"VEC3","min":[-11.540000000000001,-3.36,-29.76],"max":[11.26,1.7999999999999998,2.88]},{"bufferView":5,"componentType":5126,"count":90,"type":"VEC3"},{"bufferView":6,"componentType":5125,"count":144,"type":"SCALAR"},{"bufferView":7,"componentType":5126,"count":24,"type":"VEC3","min":[-0.1,1.1199999999999999,-29.76],"max":[0.1,12.079999999999998,-17.92]},{"bufferView":8,"componentType":5126,"count":24,"type":"VEC3"},{"bufferView":9,"componentType":5125,"count":36,"type":"SCALAR"},{"bufferView":10,"componentType":5126,"count":16176,"type":"VEC3","min":[-12.6096,-4.4296,-14.850000000000001],"max":[12.6096,2.317146230619682,28.352]},{"bufferView":11,"componentType":5126,"count":16176,"type":"VEC3"},{"bufferView":12,"componentType":5126,"count":16,"type":"VEC3","min":[-2.84,-1.176,-28.672],"max":[2.84,9.6672,14.54]},{"bufferView":13,"componentType":5126,"count":16,"type":"VEC3"},{"bufferView":14,"componentType":5126,"count":16,"type":"VEC2"},{"bufferView":15,"componentType":5125,"count":24,"type":"SCALAR"},{"bufferView":16,"componentType":5126,"count":4230,"type":"VEC3","min":[-12.884784,-4.704784,-15.155000000000001],"max":[12.884784,2.325806484657526,28.352]},{"bufferView":17,"componentType":5126,"count":4230,"type":"VEC3"},{"bufferView":18,"componentType":5125,"count":12480,"type":"SCALAR"},{"bufferView":19,"componentType":5126,"count":1698,"type":"VEC3","min":[-12.912,-4.731999999999999,-12.16],"max":[12.912,-1.3719999999999999,19.2]},{"bufferView":20,"componentType":5126,"count":1698,"type":"VEC3"},{"bufferView":21,"componentType":5125,"count":9228,"type":"SCALAR"},{"bufferView":22,"componentType":5126,"count":1792,"type":"VEC3","min":[-0.41000000000000003,-0.4,-0.4],"max":[0.41000000000000003,0.4,0.4]},{"bufferView":23,"componentType":5126,"count":1792,"type":"VEC3"},{"bufferView":24,"componentType":5125,"count":2688,"type":"SCALAR"},{"bufferView":25,"componentType":5126,"count":1792,"type":"VEC3","min":[-0.41000000000000003,-0.52,-0.52],"max":[0.41000000000000003,0.52,0.52]},{"bufferView":26,"componentType":5126,"count":1792,"type":"VEC3"},{"bufferView":27,"componentType":5125,"count":2688,"type":"SCALAR"},{"bufferView":28,"componentType":5126,"count":1792,"type":"VEC3","min":[-0.41000000000000003,-0.52,-0.52],"max":[0.41000000000000003,0.52,0.52]},{"bufferView":29,"componentType":5126,"count":1792,"type":"VEC3"},{"bufferView":30,"componentType":5125,"count":2688,"type":"SCALAR"},{"bufferView":31,"componentType":5126,"count":1792,"type":"VEC3","min":[-0.41000000000000003,-0.52,-0.52],"max":[0.41000000000000003,0.52,0.52]},{"bufferView":32,"componentType":5126,"count":1792,"type":"VEC3"},{"bufferView":33,"componentType":5125,"count":2688,"type":"SCALAR"},{"bufferView":34,"componentType":5126,"count":1792,"type":"VEC3","min":[-0.41000000000000003,-0.52,-0.52],"max":[0.41000000000000003,0.52,0.52]},{"bufferView":35,"componentType":5126,"count":1792,"type":"VEC3"},{"bufferView":36,"componentType":5125,"count":2688,"type":"SCALAR"},{"bufferView":37,"componentType":5126,"count":3263,"type":"VEC3","min":[-30.0,-1.9765758487274656,-18.54886956521739],"max":[-2.0999999999999996,1.026676129908164,6.4]},{"bufferView":38,"componentType":5126,"count":3263,"type":"VEC3"},{"bufferView":39,"componentType":5125,"count":14736,"type":"SCALAR"},{"bufferView":40,"componentType":5126,"count":28,"type":"VEC3","min":[-30.0,0.96,-17.92],"max":[-28.799999999999997,3.24,-12.8]},{"bufferView":41,"componentType":5126,"count":28,"type":"VEC3"},{"bufferView":42,"componentType":5125,"count":36,"type":"SCALAR"},{"bufferView":43,"componentType":5126,"count":36,"type":"VEC3","min":[-30.0,-0.7663593746976571,-16.750400000000003],"max":[-2.0999999999999996,1.0031196850841422,-5.3504000000000005]},{"bufferView":44,"componentType":5126,"count":36,"type":"VEC3"},{"bufferView":45,"componentType":5125,"count":72,"type":"SCALAR"},{"bufferView":46,"componentType":5126,"count":3263,"type":"VEC3","min":[2.0999999999999996,-1.9765758487274656,-18.54886956521739],"max":[30.0,1.026676129908164,6.4]},{"bufferView":47,"componentType":5126,"count":3263,"type":"VEC3"},{"bufferView":48,"componentType":5125,"count":14736,"type":"SCALAR"},{"bufferView":49,"componentType":5126,"count":28,"type":"VEC3","min":[28.799999999999997,0.96,-17.92],"max":[30.0,3.24,-12.8]},{"bufferView":50,"componentType":5126,"count":28,"type":"VEC3"},{"bufferView":51,"componentType":5125,"count":36,"type":"SCALAR"},{"bufferView":52,"componentType":5126,"count":36,"type":"VEC3","min":[2.0999999999999996,-0.7663593746976571,-16.750400000000003],"max":[30.0,1.0031196850841422,-5.3504000000000005]},{"bufferView":53,"componentType":5126,"count":36,"type":"VEC3"},{"bufferView":54,"componentType":5125,"count":72,"type":"SCALAR"},{"bufferView":55,"componentType":5126,"count":753,"type":"VEC3","min":[-12.564228732862894,-4.384228732862894,1.9572800000000001],"max":[-10.235771267137107,-2.055771267137106,3.52]},{"bufferView":56,"componentType":5126,"count":753,"type":"VEC3"},{"bufferView":57,"componentType":5125,"count":3240,"type":"SCALAR"},{"bufferView":58,"componentType":5126,"count":753,"type":"VEC3","min":[10.235771267137107,-4.384228732862894,1.9572800000000001],"max":[12.564228732862894,-2.055771267137106,3.52]},{"bufferView":59,"componentType":5126,"count":753,"type":"VEC3"},{"bufferView":60,"componentType":5125,"count":3240,"type":"SCALAR"},{"bufferView":61,"componentType":5126,"count":72,"type":"VEC3","min":[-3.7,-3.8249999999999997,-7.575000000000001],"max":[2.6,-2.0749999999999997,19.209999999999997]},{"bufferView":62,"componentType":5126,"count":72,"type":"VEC3"},{"bufferView":63,"componentType":5126,"count":72,"type":"VEC2"},{"bufferView":64,"componentType":5125,"count":108,"type":"SCALAR"},{"bufferView":65,"componentType":5126,"count":320,"type":"VEC3","min":[-3.2,-4.0,-7.045000000000001],"max":[3.2,-3.4,18.68]},{"bufferView":66,"componentType":5126,"count":320,"type":"VEC3"},{"bufferView":67,"componentType":5125,"count":480,"type":"SCALAR"},{"bufferView":68,"componentType":5126,"count":960,"type":"VEC3","min":[-3.5,-4.49,-7.015000000000001],"max":[3.5,-1.9599999999999997,19.013396389393193]},{"bufferView":69,"componentType":5126,"count":960,"type":"VEC3"},{"bufferView":70,"componentType":5125,"count":1440,"type":"SCALAR"},{"bufferView":71,"componentType":5126,"count":72,"type":"VEC3","min":[-27.0,-1.706566650089356,-12.982689121972912],"max":[-2.0999999999999996,0.7906957891629345,6.4]},{"bufferView":72,"componentType":5126,"count":72,"type":"VEC3"},{"bufferView":73,"componentType":5125,"count":72,"type":"SCALAR"},{"bufferView":74,"componentType":5126,"count":144,"type":"VEC3","min":[-27.0,-1.4388208579628037,-17.6],"max":[-2.0999999999999996,0.7825091792479272,-8.34940258945177]},{"bufferView":75,"componentType":5126,"count":144,"type":"VEC3"},{"bufferView":76,"componentType":5125,"count":144,"type":"SCALAR"},{"bufferView":77,"componentType":5126,"count":24,"type":"VEC3","min":[-27.0,-0.6049075390124283,-16.400000000000002],"max":[-2.0999999999999996,0.8777993862967435,-4.476196549685779]},{"bufferView":78,"componentType":5126,"count":24,"type":"VEC3"},{"bufferView":79,"componentType":5125,"count":24,"type":"SCALAR"},{"bufferView":80,"componentType":5126,"count":24,"type":"VEC3","min":[-10.799999999999999,1.0599999999999998,-31.36],"max":[-1.1199999999999999,1.7799999999999998,-26.56]},{"bufferView":81,"componentType":5126,"count":24,"type":"VEC3"},{"bufferView":82,"componentType":5125,"count":36,"type":"SCALAR"},{"bufferView":83,"componentType":5126,"count":72,"type":"VEC3","min":[2.0999999999999996,-1.706566650089356,-12.982689121972912],"max":[27.0,0.7906957891629345,6.4]},{"bufferView":84,"componentType":5126,"count":72,"type":"VEC3"},{"bufferView":85,"componentType":5125,"count":72,"type":"SCALAR"},{"bufferView":86,"componentType":5126,"count":144,"type":"VEC3","min":[2.0999999999999996,-1.4388208579628037,-17.6],"max":[27.0,0.7825091792479272,-8.34940258945177]},{"bufferView":87,"componentType":5126,"count":144,"type":"VEC3"},{"bufferView":88,"componentType":5125,"count":144,"type":"SCALAR"},{"bufferView":89,"componentType":5126,"count":24,"type":"VEC3","min":[2.0999999999999996,-0.6049075390124283,-16.400000000000002],"max":[27.0,0.8777993862967435,-4.476196549685779]},{"bufferView":90,"componentType":5126,"count":24,"type":"VEC3"},{"bufferView":91,"componentType":5125,"count":24,"type":"SCALAR"},{"bufferView":92,"componentType":5126,"count":24,"type":"VEC3","min":[1.1199999999999999,1.0599999999999998,-31.36],"max":[10.799999999999999,1.7799999999999998,-26.56]},{"bufferView":93,"componentType":5126,"count":24,"type":"VEC3"},{"bufferView":94,"componentType":5125,"count":36,"type":"SCALAR"},{"bufferView":95,"componentType":5126,"count":14,"type":"VEC3","min":[0,1.0399999999999998,-31.68],"max":[0,12.159999999999998,-28.672]},{"bufferView":96,"componentType":5126,"count":14,"type":"VEC3"},{"bufferView":97,"componentType":5125,"count":36,"type":"SCALAR"},{"bufferView":98,"componentType":5126,"count":132,"type":"VEC3","min":[-0.41100000000000003,-0.22000000000000003,-0.22000000000000003],"max":[0.41100000000000003,0.22000000000000003,0.22000000000000003]},{"bufferView":99,"componentType":5126,"count":132,"type":"VEC3"},{"bufferView":100,"componentType":5125,"count":384,"type":"SCALAR"},{"bufferView":101,"componentType":5126,"count":132,"type":"VEC3","min":[-0.41100000000000003,-0.28600000000000003,-0.28600000000000003],"max":[0.41100000000000003,0.28600000000000003,0.28600000000000003]},{"bufferView":102,"componentType":5126,"count":132,"type":"VEC3"},{"bufferView":103,"componentType":5125,"count":384,"type":"SCALAR"},{"bufferView":104,"componentType":5126,"count":132,"type":"VEC3","min":[-0.41100000000000003,-0.28600000000000003,-0.28600000000000003],"max":[0.41100000000000003,0.28600000000000003,0.28600000000000003]},{"bufferView":105,"componentType":5126,"count":132,"type":"VEC3"},{"bufferView":106,"componentType":5125,"count":384,"type":"SCALAR"},{"bufferView":107,"componentType":5126,"count":132,"type":"VEC3","min":[-0.41100000000000003,-0.28600000000000003,-0.28600000000000003],"max":[0.41100000000000003,0.28600000000000003,0.28600000000000003]},{"bufferView":108,"componentType":5126,"count":132,"type":"VEC3"},{"bufferView":109,"componentType":5125,"count":384,"type":"SCALAR"},{"bufferView":110,"componentType":5126,"count":132,"type":"VEC3","min":[-0.41100000000000003,-0.28600000000000003,-0.28600000000000003],"max":[0.41100000000000003,0.28600000000000003,0.28600000000000003]},{"bufferView":111,"componentType":5126,"count":132,"type":"VEC3"},{"bufferView":112,"componentType":5125,"count":384,"type":"SCALAR"},{"bufferView":113,"componentType":5126,"count":576,"type":"VEC3","min":[-2.6402664488906944,1.008,-7.68],"max":[2.6402664488906944,1.708,16.0]},{"bufferView":114,"componentType":5126,"count":576,"type":"VEC3"},{"bufferView":115,"componentType":5126,"count":576,"type":"VEC2"}],"images":[{"uri":"../../airlines/WZZ.png"},{"uri":"fallback-paint-v5.png"},{"uri":"title-WZZ.png"}],"textures":[{"source":0,"sampler":0},{"source":1,"sampler":0},{"source":2,"sampler":0}],"samplers":[{"magFilter":9729,"minFilter":9987,"wrapS":33071,"wrapT":33071}]}