{"asset":{"version":"2.0","generator":"Skyward detailed procedural a350 fallback v5; approximate airframe; operator identification logos"},"scene":0,"scenes":[{"nodes":[0,1,5,6,7,8]}],"nodes":[{"mesh":0},{"mesh":1,"name":"Gear","children":[2,3,4]},{"mesh":2,"name":"WheelN","translation":[0,-4.6,19.43]},{"mesh":3,"name":"WheelL","translation":[-2.4000000000000004,-4.6,-6.7]},{"mesh":4,"name":"WheelR","translation":[2.4000000000000004,-4.6,-6.7]},{"mesh":5,"name":"FlexWingL"},{"mesh":6,"name":"FlexWingR"},{"mesh":7,"name":"SkywardFan0"},{"mesh":8,"name":"SkywardFan1"}],"meshes":[{"name":"AirframeWithCockpitGlazing","primitives":[{"indices":3,"attributes":{"POSITION":0,"NORMAL":1,"TEXCOORD_0":2},"material":0},{"indices":6,"attributes":{"POSITION":4,"NORMAL":5},"material":1},{"indices":9,"attributes":{"POSITION":7,"NORMAL":8},"material":2},{"attributes":{"POSITION":10,"NORMAL":11},"material":3},{"indices":15,"attributes":{"POSITION":12,"NORMAL":13,"TEXCOORD_0":14},"material":5},{"indices":18,"attributes":{"POSITION":16,"NORMAL":17},"material":6},{"indices":21,"attributes":{"POSITION":19,"NORMAL":20},"material":7}]},{"primitives":[{"indices":57,"attributes":{"POSITION":55,"NORMAL":56},"material":1,"extras":{"gear":true}},{"indices":60,"attributes":{"POSITION":58,"NORMAL":59},"material":6,"extras":{"gear":true}}]},{"primitives":[{"indices":24,"attributes":{"POSITION":22,"NORMAL":23},"material":4,"extras":{"wheel":0}}]},{"primitives":[{"indices":27,"attributes":{"POSITION":25,"NORMAL":26},"material":4,"extras":{"wheel":1}}]},{"primitives":[{"indices":30,"attributes":{"POSITION":28,"NORMAL":29},"material":4,"extras":{"wheel":2}}]},{"primitives":[{"indices":33,"attributes":{"POSITION":31,"NORMAL":32},"material":1,"extras":{"wing":0}},{"indices":36,"attributes":{"POSITION":34,"NORMAL":35},"material":2,"extras":{"wing":0}},{"indices":39,"attributes":{"POSITION":37,"NORMAL":38},"material":6,"extras":{"wing":0}}]},{"primitives":[{"indices":42,"attributes":{"POSITION":40,"NORMAL":41},"material":1,"extras":{"wing":1}},{"indices":45,"attributes":{"POSITION":43,"NORMAL":44},"material":2,"extras":{"wing":1}},{"indices":48,"attributes":{"POSITION":46,"NORMAL":47},"material":6,"extras":{"wing":1}}]},{"primitives":[{"indices":51,"attributes":{"POSITION":49,"NORMAL":50},"material":6,"extras":{"fan":0}}]},{"primitives":[{"indices":54,"attributes":{"POSITION":52,"NORMAL":53},"material":6,"extras":{"fan":1}}]}],"materials":[{"doubleSided":true,"pbrMetallicRoughness":{"baseColorFactor":[0.94,0.95,0.96,1],"metallicFactor":0.04,"roughnessFactor":0.27,"baseColorTexture":{"index":1}}},{"doubleSided":true,"pbrMetallicRoughness":{"baseColorFactor":[0.64,0.68,0.72,1],"metallicFactor":0.04,"roughnessFactor":0.4}},{"doubleSided":true,"pbrMetallicRoughness":{"baseColorFactor":[0.13333333333333333,0.4,0.7411764705882353,1],"metallicFactor":0.04,"roughnessFactor":0.27}},{"doubleSided":true,"pbrMetallicRoughness":{"baseColorFactor":[0.02,0.055,0.085,1],"metallicFactor":0,"roughnessFactor":0.12}},{"doubleSided":true,"pbrMetallicRoughness":{"baseColorFactor":[0.07,0.08,0.09,1],"metallicFactor":0,"roughnessFactor":0.86}},{"doubleSided":true,"pbrMetallicRoughness":{"baseColorFactor":[1,1,1,1],"metallicFactor":0,"roughnessFactor":0.75,"baseColorTexture":{"index":0}},"alphaMode":"MASK","alphaCutoff":0.08},{"doubleSided":true,"pbrMetallicRoughness":{"baseColorFactor":[0.36,0.4,0.44,1],"metallicFactor":0.8,"roughnessFactor":0.28}},{"doubleSided":true,"pbrMetallicRoughness":{"baseColorFactor":[0.13333333333333333,0.4,0.7411764705882353,1],"metallicFactor":0.04,"roughnessFactor":0.27}}],"buffers":[{"uri":"a350-v4.bin?tail=2&rig=1&detail=5","byteLength":1212880}],"bufferViews":[{"buffer":0,"byteOffset":0,"byteLength":31980,"target":34962},{"buffer":0,"byteOffset":31980,"byteLength":31980,"target":34962},{"buffer":0,"byteOffset":63960,"byteLength":21320,"target":34962},{"buffer":0,"byteOffset":85280,"byteLength":61440,"target":34963},{"buffer":0,"byteOffset":146720,"byteLength":1080,"target":34962},{"buffer":0,"byteOffset":147800,"byteLength":1080,"target":34962},{"buffer":0,"byteOffset":148880,"byteLength":576,"target":34963},{"buffer":0,"byteOffset":149456,"byteLength":288,"target":34962},{"buffer":0,"byteOffset":149744,"byteLength":288,"target":34962},{"buffer":0,"byteOffset":150032,"byteLength":144,"target":34963},{"buffer":0,"byteOffset":150176,"byteLength":194832,"target":34962},{"buffer":0,"byteOffset":345008,"byteLength":194832,"target":34962},{"buffer":0,"byteOffset":539840,"byteLength":192,"target":34962},{"buffer":0,"byteOffset":540032,"byteLength":192,"target":34962},{"buffer":0,"byteOffset":540224,"byteLength":128,"target":34962},{"buffer":0,"byteOffset":540352,"byteLength":96,"target":34963},{"buffer":0,"byteOffset":540448,"byteLength":36816,"target":34962},{"buffer":0,"byteOffset":577264,"byteLength":36816,"target":34962},{"buffer":0,"byteOffset":614080,"byteLength":34560,"target":34963},{"buffer":0,"byteOffset":648640,"byteLength":20376,"target":34962},{"buffer":0,"byteOffset":669016,"byteLength":20376,"target":34962},{"buffer":0,"byteOffset":689392,"byteLength":36912,"target":34963},{"buffer":0,"byteOffset":726304,"byteLength":14424,"target":34962},{"buffer":0,"byteOffset":740728,"byteLength":14424,"target":34962},{"buffer":0,"byteOffset":755152,"byteLength":7680,"target":34963},{"buffer":0,"byteOffset":762832,"byteLength":14424,"target":34962},{"buffer":0,"byteOffset":777256,"byteLength":14424,"target":34962},{"buffer":0,"byteOffset":791680,"byteLength":7680,"target":34963},{"buffer":0,"byteOffset":799360,"byteLength":14424,"target":34962},{"buffer":0,"byteOffset":813784,"byteLength":14424,"target":34962},{"buffer":0,"byteOffset":828208,"byteLength":7680,"target":34963},{"buffer":0,"byteOffset":835888,"byteLength":42036,"target":34962},{"buffer":0,"byteOffset":877924,"byteLength":42036,"target":34962},{"buffer":0,"byteOffset":919960,"byteLength":59904,"target":34963},{"buffer":0,"byteOffset":979864,"byteLength":336,"target":34962},{"buffer":0,"byteOffset":980200,"byteLength":336,"target":34962},{"buffer":0,"byteOffset":980536,"byteLength":144,"target":34963},{"buffer":0,"byteOffset":980680,"byteLength":432,"target":34962},{"buffer":0,"byteOffset":981112,"byteLength":432,"target":34962},{"buffer":0,"byteOffset":981544,"byteLength":288,"target":34963},{"buffer":0,"byteOffset":981832,"byteLength":42036,"target":34962},{"buffer":0,"byteOffset":1023868,"byteLength":42036,"target":34962},{"buffer":0,"byteOffset":1065904,"byteLength":59904,"target":34963},{"buffer":0,"byteOffset":1125808,"byteLength":336,"target":34962},{"buffer":0,"byteOffset":1126144,"byteLength":336,"target":34962},{"buffer":0,"byteOffset":1126480,"byteLength":144,"target":34963},{"buffer":0,"byteOffset":1126624,"byteLength":432,"target":34962},{"buffer":0,"byteOffset":1127056,"byteLength":432,"target":34962},{"buffer":0,"byteOffset":1127488,"byteLength":288,"target":34963},{"buffer":0,"byteOffset":1127776,"byteLength":9036,"target":34962},{"buffer":0,"byteOffset":1136812,"byteLength":9036,"target":34962},{"buffer":0,"byteOffset":1145848,"byteLength":12960,"target":34963},{"buffer":0,"byteOffset":1158808,"byteLength":9036,"target":34962},{"buffer":0,"byteOffset":1167844,"byteLength":9036,"target":34962},{"buffer":0,"byteOffset":1176880,"byteLength":12960,"target":34963},{"buffer":0,"byteOffset":1189840,"byteLength":2304,"target":34962},{"buffer":0,"byteOffset":1192144,"byteLength":2304,"target":34962},{"buffer":0,"byteOffset":1194448,"byteLength":1152,"target":34963},{"buffer":0,"byteOffset":1195600,"byteLength":6912,"target":34962},{"buffer":0,"byteOffset":1202512,"byteLength":6912,"target":34962},{"buffer":0,"byteOffset":1209424,"byteLength":3456,"target":34963}],"accessors":[{"bufferView":0,"componentType":5126,"count":2665,"type":"VEC3","min":[-3.0,-3.0,-33.5],"max":[3.0,3.0,33.5]},{"bufferView":1,"componentType":5126,"count":2665,"type":"VEC3"},{"bufferView":2,"componentType":5126,"count":2665,"type":"VEC2"},{"bufferView":3,"componentType":5125,"count":15360,"type":"SCALAR"},{"bufferView":4,"componentType":5126,"count":90,"type":"VEC3","min":[-12.49,-3.59,-32.83],"max":[12.209999999999999,1.8800000000000003,3.015]},{"bufferView":5,"componentType":5126,"count":90,"type":"VEC3"},{"bufferView":6,"componentType":5125,"count":144,"type":"SCALAR"},{"bufferView":7,"componentType":5126,"count":24,"type":"VEC3","min":[-0.1,1.2000000000000002,-33.165],"max":[0.1,12.715,-18.76]},{"bufferView":8,"componentType":5126,"count":24,"type":"VEC3"},{"bufferView":9,"componentType":5125,"count":36,"type":"SCALAR"},{"bufferView":10,"componentType":5126,"count":16236,"type":"VEC3","min":[-13.934,-5.034,-15.540000000000001],"max":[13.934,2.4804916121544838,29.681]},{"bufferView":11,"componentType":5126,"count":16236,"type":"VEC3"},{"bufferView":12,"componentType":5126,"count":16,"type":"VEC3","min":[-3.04,-1.26,-30.016000000000002],"max":[3.04,10.437000000000001,15.280000000000001]},{"bufferView":13,"componentType":5126,"count":16,"type":"VEC3"},{"bufferView":14,"componentType":5126,"count":16,"type":"VEC2"},{"bufferView":15,"componentType":5125,"count":24,"type":"SCALAR"},{"bufferView":16,"componentType":5126,"count":3068,"type":"VEC3","min":[-14.2112,-5.3111999999999995,-15.845],"max":[14.2112,2.489151866192328,29.681]},{"bufferView":17,"componentType":5126,"count":3068,"type":"VEC3"},{"bufferView":18,"componentType":5125,"count":8640,"type":"SCALAR"},{"bufferView":19,"componentType":5126,"count":1698,"type":"VEC3","min":[-14.33,-5.43,-12.73],"max":[14.33,-1.4699999999999998,20.099999999999998]},{"bufferView":20,"componentType":5126,"count":1698,"type":"VEC3"},{"bufferView":21,"componentType":5125,"count":9228,"type":"SCALAR"},{"bufferView":22,"componentType":5126,"count":1202,"type":"VEC3","min":[-0.25,-0.4,-0.4],"max":[0.25,0.4,0.4]},{"bufferView":23,"componentType":5126,"count":1202,"type":"VEC3"},{"bufferView":24,"componentType":5125,"count":1920,"type":"SCALAR"},{"bufferView":25,"componentType":5126,"count":1202,"type":"VEC3","min":[-0.25,-0.4,-0.4],"max":[0.25,0.4,0.4]},{"bufferView":26,"componentType":5126,"count":1202,"type":"VEC3"},{"bufferView":27,"componentType":5125,"count":1920,"type":"SCALAR"},{"bufferView":28,"componentType":5126,"count":1202,"type":"VEC3","min":[-0.25,-0.4,-0.4],"max":[0.25,0.4,0.4]},{"bufferView":29,"componentType":5126,"count":1202,"type":"VEC3"},{"bufferView":30,"componentType":5125,"count":1920,"type":"SCALAR"},{"bufferView":31,"componentType":5126,"count":3503,"type":"VEC3","min":[-32.5,-2.1001653416365653,-18.923130434782607],"max":[-2.25,1.5326140734976093,6.7]},{"bufferView":32,"componentType":5126,"count":3503,"type":"VEC3"},{"bufferView":33,"componentType":5125,"count":14976,"type":"SCALAR"},{"bufferView":34,"componentType":5126,"count":28,"type":"VEC3","min":[-32.5,0.96,-18.09],"max":[-31.2,3.24,-12.73]},{"bufferView":35,"componentType":5126,"count":28,"type":"VEC3"},{"bufferView":36,"componentType":5125,"count":36,"type":"SCALAR"},{"bufferView":37,"componentType":5126,"count":36,"type":"VEC3","min":[-32.5,-0.8335949703866099,-16.865575],"max":[-2.25,1.5075784203224614,-5.601200000000001]},{"bufferView":38,"componentType":5126,"count":36,"type":"VEC3"},{"bufferView":39,"componentType":5125,"count":72,"type":"SCALAR"},{"bufferView":40,"componentType":5126,"count":3503,"type":"VEC3","min":[2.25,-2.1001653416365653,-18.923130434782607],"max":[32.5,1.5326140734976093,6.7]},{"bufferView":41,"componentType":5126,"count":3503,"type":"VEC3"},{"bufferView":42,"componentType":5125,"count":14976,"type":"SCALAR"},{"bufferView":43,"componentType":5126,"count":28,"type":"VEC3","min":[31.2,0.96,-18.09],"max":[32.5,3.24,-12.73]},{"bufferView":44,"componentType":5126,"count":28,"type":"VEC3"},{"bufferView":45,"componentType":5125,"count":36,"type":"SCALAR"},{"bufferView":46,"componentType":5126,"count":36,"type":"VEC3","min":[2.25,-0.8335949703866099,-16.865575],"max":[32.5,1.5075784203224614,-5.601200000000001]},{"bufferView":47,"componentType":5126,"count":36,"type":"VEC3"},{"bufferView":48,"componentType":5125,"count":72,"type":"SCALAR"},{"bufferView":49,"componentType":5126,"count":753,"type":"VEC3","min":[-13.874585245415695,-4.974585245415694,2.0252000000000003],"max":[-10.825414754584305,-1.9254147545843054,3.685]},{"bufferView":50,"componentType":5126,"count":753,"type":"VEC3"},{"bufferView":51,"componentType":5125,"count":3240,"type":"SCALAR"},{"bufferView":52,"componentType":5126,"count":753,"type":"VEC3","min":[10.825414754584305,-4.974585245415694,2.0252000000000003],"max":[13.874585245415695,-1.9254147545843054,3.685]},{"bufferView":53,"componentType":5126,"count":753,"type":"VEC3"},{"bufferView":54,"componentType":5125,"count":3240,"type":"SCALAR"},{"bufferView":55,"componentType":5126,"count":192,"type":"VEC3","min":[-2.5200000000000005,-4.2,-6.82],"max":[2.5200000000000005,-3.6,19.55]},{"bufferView":56,"componentType":5126,"count":192,"type":"VEC3"},{"bufferView":57,"componentType":5125,"count":288,"type":"SCALAR"},{"bufferView":58,"componentType":5126,"count":576,"type":"VEC3","min":[-2.6900000000000004,-4.8,-6.9],"max":[2.6900000000000004,-2.0999999999999996,19.883451755812878]},{"bufferView":59,"componentType":5126,"count":576,"type":"VEC3"},{"bufferView":60,"componentType":5125,"count":864,"type":"SCALAR"}],"images":[{"uri":"../../airlines/UAL.png"},{"uri":"fallback-paint-v5.png"}],"textures":[{"source":0,"sampler":0},{"source":1,"sampler":0}],"samplers":[{"magFilter":9729,"minFilter":9987,"wrapS":33071,"wrapT":33071}]}