{"asset":{"version":"2.0","generator":"Skyward original illustrative a350 profile; logos for operator identification"},"scene":0,"scenes":[{"nodes":[0,1]}],"nodes":[{"mesh":0},{"mesh":1,"name":"Gear"}],"meshes":[{"primitives":[{"attributes":{"POSITION":0,"NORMAL":1},"material":0},{"attributes":{"POSITION":2,"NORMAL":3},"material":1},{"attributes":{"POSITION":4,"NORMAL":5},"material":2},{"attributes":{"POSITION":6,"NORMAL":7},"material":3},{"attributes":{"POSITION":10,"NORMAL":11,"TEXCOORD_0":12},"material":5},{"attributes":{"POSITION":13,"NORMAL":14},"material":6},{"attributes":{"POSITION":15,"NORMAL":16},"material":7}]},{"primitives":[{"attributes":{"POSITION":8,"NORMAL":9},"material":4}]}],"materials":[{"doubleSided":true,"pbrMetallicRoughness":{"baseColorFactor":[0.94,0.95,0.96,1],"metallicFactor":0.18,"roughnessFactor":0.3}},{"doubleSided":true,"pbrMetallicRoughness":{"baseColorFactor":[0.64,0.68,0.72,1],"metallicFactor":0.18,"roughnessFactor":0.3}},{"doubleSided":true,"pbrMetallicRoughness":{"baseColorFactor":[0.13725490196078433,0.6470588235294118,0.8352941176470589,1],"metallicFactor":0.18,"roughnessFactor":0.3}},{"doubleSided":true,"pbrMetallicRoughness":{"baseColorFactor":[0.02,0.055,0.085,1],"metallicFactor":0.18,"roughnessFactor":0.17}},{"doubleSided":true,"pbrMetallicRoughness":{"baseColorFactor":[0.07,0.08,0.09,1],"metallicFactor":0.18,"roughnessFactor":0.3}},{"doubleSided":true,"pbrMetallicRoughness":{"baseColorFactor":[1,1,1,1],"metallicFactor":0,"roughnessFactor":0.75,"baseColorTexture":{"index":0}},"alphaMode":"BLEND"},{"doubleSided":true,"pbrMetallicRoughness":{"baseColorFactor":[0.36,0.4,0.44,1],"metallicFactor":0.7,"roughnessFactor":0.3}},{"doubleSided":true,"pbrMetallicRoughness":{"baseColorFactor":[0.13725490196078433,0.6470588235294118,0.8352941176470589,1],"metallicFactor":0.18,"roughnessFactor":0.3}}],"buffers":[{"uri":"a350-v3.bin","byteLength":236928}],"bufferViews":[{"buffer":0,"byteOffset":0,"byteLength":34560,"target":34962},{"buffer":0,"byteOffset":34560,"byteLength":34560,"target":34962},{"buffer":0,"byteOffset":69120,"byteLength":2880,"target":34962},{"buffer":0,"byteOffset":72000,"byteLength":2880,"target":34962},{"buffer":0,"byteOffset":74880,"byteLength":1296,"target":34962},{"buffer":0,"byteOffset":76176,"byteLength":1296,"target":34962},{"buffer":0,"byteOffset":77472,"byteLength":40608,"target":34962},{"buffer":0,"byteOffset":118080,"byteLength":40608,"target":34962},{"buffer":0,"byteOffset":158688,"byteLength":2592,"target":34962},{"buffer":0,"byteOffset":161280,"byteLength":2592,"target":34962},{"buffer":0,"byteOffset":163872,"byteLength":288,"target":34962},{"buffer":0,"byteOffset":164160,"byteLength":288,"target":34962},{"buffer":0,"byteOffset":164448,"byteLength":192,"target":34962},{"buffer":0,"byteOffset":164640,"byteLength":15264,"target":34962},{"buffer":0,"byteOffset":179904,"byteLength":15264,"target":34962},{"buffer":0,"byteOffset":195168,"byteLength":20880,"target":34962},{"buffer":0,"byteOffset":216048,"byteLength":20880,"target":34962}],"accessors":[{"bufferView":0,"componentType":5126,"count":2880,"type":"VEC3","min":[-3.0,-3.0,-33.5],"max":[3.0,3.0,33.5]},{"bufferView":1,"componentType":5126,"count":2880,"type":"VEC3"},{"bufferView":2,"componentType":5126,"count":240,"type":"VEC3","min":[-32.5,-3.59,-32.83],"max":[32.5,1.8800000000000003,6.7]},{"bufferView":3,"componentType":5126,"count":240,"type":"VEC3"},{"bufferView":4,"componentType":5126,"count":108,"type":"VEC3","min":[-32.5,0.96,-33.165],"max":[32.5,12.715,-12.73]},{"bufferView":5,"componentType":5126,"count":108,"type":"VEC3"},{"bufferView":6,"componentType":5126,"count":3384,"type":"VEC3","min":[-13.934,-5.034,-15.540000000000001],"max":[13.934,2.0100000000000002,27.805]},{"bufferView":7,"componentType":5126,"count":3384,"type":"VEC3"},{"bufferView":8,"componentType":5126,"count":216,"type":"VEC3","min":[-2.7,-5.0,-7.08],"max":[2.7,-3.0,19.81]},{"bufferView":9,"componentType":5126,"count":216,"type":"VEC3"},{"bufferView":10,"componentType":5126,"count":24,"type":"VEC3","min":[-3.04,-1.26,-29.949],"max":[3.04,9.7,15.280000000000001]},{"bufferView":11,"componentType":5126,"count":24,"type":"VEC3"},{"bufferView":12,"componentType":5126,"count":24,"type":"VEC2"},{"bufferView":13,"componentType":5126,"count":1272,"type":"VEC3","min":[-14.2112,-5.3111999999999995,-15.41],"max":[14.2112,1.7999999999999998,18.810000000000002]},{"bufferView":14,"componentType":5126,"count":1272,"type":"VEC3"},{"bufferView":15,"componentType":5126,"count":1740,"type":"VEC3","min":[-14.33,-5.43,-12.73],"max":[14.33,-1.4699999999999998,20.099999999999998]},{"bufferView":16,"componentType":5126,"count":1740,"type":"VEC3"}],"images":[{"uri":"../../airlines/KLM.png"}],"textures":[{"source":0,"sampler":0}],"samplers":[{"magFilter":9729,"minFilter":9987,"wrapS":33071,"wrapT":33071}]}