{"asset":{"version":"2.0","generator":"Skyward original illustrative a350 profile; logos for operator identification"},"scene":0,"scenes":[{"nodes":[0,1]}],"nodes":[{"mesh":0},{"mesh":1,"name":"Gear"}],"meshes":[{"primitives":[{"attributes":{"POSITION":0,"NORMAL":1},"material":0},{"attributes":{"POSITION":2,"NORMAL":3},"material":1},{"attributes":{"POSITION":4,"NORMAL":5},"material":2},{"attributes":{"POSITION":6,"NORMAL":7},"material":3},{"attributes":{"POSITION":10,"NORMAL":11,"TEXCOORD_0":12},"material":5},{"attributes":{"POSITION":13,"NORMAL":14},"material":6}]},{"primitives":[{"attributes":{"POSITION":8,"NORMAL":9},"material":4}]}],"materials":[{"doubleSided":true,"pbrMetallicRoughness":{"baseColorFactor":[0.03,0.16,0.6,1],"metallicFactor":0.18,"roughnessFactor":0.3}},{"doubleSided":true,"pbrMetallicRoughness":{"baseColorFactor":[0.64,0.68,0.72,1],"metallicFactor":0.18,"roughnessFactor":0.3}},{"doubleSided":true,"pbrMetallicRoughness":{"baseColorFactor":[0.1450980392156863,0.2980392156862745,0.7607843137254902,1],"metallicFactor":0.18,"roughnessFactor":0.3}},{"doubleSided":true,"pbrMetallicRoughness":{"baseColorFactor":[0.02,0.055,0.085,1],"metallicFactor":0.18,"roughnessFactor":0.17}},{"doubleSided":true,"pbrMetallicRoughness":{"baseColorFactor":[0.07,0.08,0.09,1],"metallicFactor":0.18,"roughnessFactor":0.3}},{"doubleSided":true,"pbrMetallicRoughness":{"baseColorFactor":[1,1,1,1],"metallicFactor":0,"roughnessFactor":0.75,"baseColorTexture":{"index":0}},"alphaMode":"BLEND"},{"doubleSided":true,"pbrMetallicRoughness":{"baseColorFactor":[0.36,0.4,0.44,1],"metallicFactor":0.7,"roughnessFactor":0.3}}],"buffers":[{"uri":"a350-v2.bin","byteLength":236640}],"bufferViews":[{"buffer":0,"byteOffset":0,"byteLength":55296,"target":34962},{"buffer":0,"byteOffset":55296,"byteLength":55296,"target":34962},{"buffer":0,"byteOffset":110592,"byteLength":2880,"target":34962},{"buffer":0,"byteOffset":113472,"byteLength":2880,"target":34962},{"buffer":0,"byteOffset":116352,"byteLength":1296,"target":34962},{"buffer":0,"byteOffset":117648,"byteLength":1296,"target":34962},{"buffer":0,"byteOffset":118944,"byteLength":40608,"target":34962},{"buffer":0,"byteOffset":159552,"byteLength":40608,"target":34962},{"buffer":0,"byteOffset":200160,"byteLength":2592,"target":34962},{"buffer":0,"byteOffset":202752,"byteLength":2592,"target":34962},{"buffer":0,"byteOffset":205344,"byteLength":288,"target":34962},{"buffer":0,"byteOffset":205632,"byteLength":288,"target":34962},{"buffer":0,"byteOffset":205920,"byteLength":192,"target":34962},{"buffer":0,"byteOffset":206112,"byteLength":15264,"target":34962},{"buffer":0,"byteOffset":221376,"byteLength":15264,"target":34962}],"accessors":[{"bufferView":0,"componentType":5126,"count":4608,"type":"VEC3","min":[-14.33,-5.43,-33.5],"max":[14.33,3.0,33.5]},{"bufferView":1,"componentType":5126,"count":4608,"type":"VEC3"},{"bufferView":2,"componentType":5126,"count":240,"type":"VEC3","min":[-32.5,-3.59,-32.83],"max":[32.5,1.8800000000000003,6.7]},{"bufferView":3,"componentType":5126,"count":240,"type":"VEC3"},{"bufferView":4,"componentType":5126,"count":108,"type":"VEC3","min":[-32.5,0.96,-33.165],"max":[32.5,12.715,-12.73]},{"bufferView":5,"componentType":5126,"count":108,"type":"VEC3"},{"bufferView":6,"componentType":5126,"count":3384,"type":"VEC3","min":[-13.934,-5.034,-15.540000000000001],"max":[13.934,2.0100000000000002,27.805]},{"bufferView":7,"componentType":5126,"count":3384,"type":"VEC3"},{"bufferView":8,"componentType":5126,"count":216,"type":"VEC3","min":[-2.7,-5.0,-7.08],"max":[2.7,-3.0,19.81]},{"bufferView":9,"componentType":5126,"count":216,"type":"VEC3"},{"bufferView":10,"componentType":5126,"count":24,"type":"VEC3","min":[-3.04,-1.26,-29.949],"max":[3.04,9.7,15.280000000000001]},{"bufferView":11,"componentType":5126,"count":24,"type":"VEC3"},{"bufferView":12,"componentType":5126,"count":24,"type":"VEC2"},{"bufferView":13,"componentType":5126,"count":1272,"type":"VEC3","min":[-14.2112,-5.3111999999999995,-15.41],"max":[14.2112,1.7999999999999998,18.810000000000002]},{"bufferView":14,"componentType":5126,"count":1272,"type":"VEC3"}],"images":[{"uri":"../../airlines/SWA.png"}],"textures":[{"source":0,"sampler":0}],"samplers":[{"magFilter":9729,"minFilter":9987,"wrapS":33071,"wrapT":33071}]}