{"asset":{"version":"2.0","generator":"Skyward detailed procedural a350 fallback v6; approximate airframe; operator identification logos"},"scene":0,"scenes":[{"nodes":[0,1,7,8,9,10,11,12,13,14,15,16,17,18,19]}],"nodes":[{"mesh":0},{"mesh":1,"name":"Gear","children":[2,3,4,5,6]},{"mesh":2,"name":"WheelN","translation":[0,-4.6,19.43]},{"mesh":3,"name":"WheelL","translation":[-3.3000000000000003,-4.6,-7.2250000000000005]},{"mesh":4,"name":"WheelR","translation":[3.3000000000000003,-4.6,-7.2250000000000005]},{"mesh":5,"name":"WheelL2","translation":[-3.3000000000000003,-4.6,-6.175]},{"mesh":6,"name":"WheelR2","translation":[3.3000000000000003,-4.6,-6.175]},{"mesh":7,"name":"SlatL"},{"mesh":8,"name":"FlapL"},{"mesh":9,"name":"SpoilerL"},{"mesh":10,"name":"ElevatorL"},{"mesh":11,"name":"SlatR"},{"mesh":12,"name":"FlapR"},{"mesh":13,"name":"SpoilerR"},{"mesh":14,"name":"ElevatorR"},{"mesh":15,"name":"Rudder"},{"mesh":16,"name":"FlexWingL"},{"mesh":17,"name":"FlexWingR"},{"mesh":18,"name":"SkywardFan0"},{"mesh":19,"name":"SkywardFan1"}],"meshes":[{"name":"AirframeWithCockpitGlazing","primitives":[{"indices":3,"attributes":{"POSITION":0,"NORMAL":1,"TEXCOORD_0":2},"material":0},{"indices":6,"attributes":{"POSITION":4,"NORMAL":5},"material":1},{"indices":9,"attributes":{"POSITION":7,"NORMAL":8},"material":2},{"attributes":{"POSITION":10,"NORMAL":11},"material":3},{"indices":15,"attributes":{"POSITION":12,"NORMAL":13,"TEXCOORD_0":14},"material":5},{"indices":18,"attributes":{"POSITION":16,"NORMAL":17},"material":6},{"indices":21,"attributes":{"POSITION":19,"NORMAL":20},"material":7},{"attributes":{"POSITION":113,"NORMAL":114,"TEXCOORD_0":115},"material":8}]},{"primitives":[{"indices":64,"attributes":{"POSITION":61,"NORMAL":62,"TEXCOORD_0":63},"material":0,"extras":{"gear":true}},{"indices":67,"attributes":{"POSITION":65,"NORMAL":66},"material":1,"extras":{"gear":true}},{"indices":70,"attributes":{"POSITION":68,"NORMAL":69},"material":6,"extras":{"gear":true}}]},{"primitives":[{"indices":24,"attributes":{"POSITION":22,"NORMAL":23},"material":4,"extras":{"wheel":0}},{"indices":100,"attributes":{"POSITION":98,"NORMAL":99},"material":6,"extras":{"wheel":0}}]},{"primitives":[{"indices":27,"attributes":{"POSITION":25,"NORMAL":26},"material":4,"extras":{"wheel":1}},{"indices":103,"attributes":{"POSITION":101,"NORMAL":102},"material":6,"extras":{"wheel":1}}]},{"primitives":[{"indices":30,"attributes":{"POSITION":28,"NORMAL":29},"material":4,"extras":{"wheel":2}},{"indices":106,"attributes":{"POSITION":104,"NORMAL":105},"material":6,"extras":{"wheel":2}}]},{"primitives":[{"indices":33,"attributes":{"POSITION":31,"NORMAL":32},"material":4,"extras":{"wheel":3}},{"indices":109,"attributes":{"POSITION":107,"NORMAL":108},"material":6,"extras":{"wheel":3}}]},{"primitives":[{"indices":36,"attributes":{"POSITION":34,"NORMAL":35},"material":4,"extras":{"wheel":4}},{"indices":112,"attributes":{"POSITION":110,"NORMAL":111},"material":6,"extras":{"wheel":4}}]},{"primitives":[{"indices":73,"attributes":{"POSITION":71,"NORMAL":72},"material":1,"extras":{"surface":0}}]},{"primitives":[{"indices":76,"attributes":{"POSITION":74,"NORMAL":75},"material":1,"extras":{"surface":1}}]},{"primitives":[{"indices":79,"attributes":{"POSITION":77,"NORMAL":78},"material":1,"extras":{"surface":2}}]},{"primitives":[{"indices":82,"attributes":{"POSITION":80,"NORMAL":81},"material":1,"extras":{"surface":3}}]},{"primitives":[{"indices":85,"attributes":{"POSITION":83,"NORMAL":84},"material":1,"extras":{"surface":4}}]},{"primitives":[{"indices":88,"attributes":{"POSITION":86,"NORMAL":87},"material":1,"extras":{"surface":5}}]},{"primitives":[{"indices":91,"attributes":{"POSITION":89,"NORMAL":90},"material":1,"extras":{"surface":6}}]},{"primitives":[{"indices":94,"attributes":{"POSITION":92,"NORMAL":93},"material":1,"extras":{"surface":7}}]},{"primitives":[{"indices":97,"attributes":{"POSITION":95,"NORMAL":96},"material":2,"extras":{"surface":8}}]},{"primitives":[{"indices":39,"attributes":{"POSITION":37,"NORMAL":38},"material":1,"extras":{"wing":0}},{"indices":42,"attributes":{"POSITION":40,"NORMAL":41},"material":2,"extras":{"wing":0}},{"indices":45,"attributes":{"POSITION":43,"NORMAL":44},"material":6,"extras":{"wing":0}}]},{"primitives":[{"indices":48,"attributes":{"POSITION":46,"NORMAL":47},"material":1,"extras":{"wing":1}},{"indices":51,"attributes":{"POSITION":49,"NORMAL":50},"material":2,"extras":{"wing":1}},{"indices":54,"attributes":{"POSITION":52,"NORMAL":53},"material":6,"extras":{"wing":1}}]},{"primitives":[{"indices":57,"attributes":{"POSITION":55,"NORMAL":56},"material":6,"extras":{"fan":0}}]},{"primitives":[{"indices":60,"attributes":{"POSITION":58,"NORMAL":59},"material":6,"extras":{"fan":1}}]}],"materials":[{"doubleSided":true,"pbrMetallicRoughness":{"baseColorFactor":[0.94,0.95,0.96,1],"metallicFactor":0.04,"roughnessFactor":0.27,"baseColorTexture":{"index":1}}},{"doubleSided":true,"pbrMetallicRoughness":{"baseColorFactor":[0.64,0.68,0.72,1],"metallicFactor":0.04,"roughnessFactor":0.4}},{"doubleSided":true,"pbrMetallicRoughness":{"baseColorFactor":[0.9450980392156862,0.4196078431372549,0.13333333333333333,1],"metallicFactor":0.04,"roughnessFactor":0.27}},{"doubleSided":true,"pbrMetallicRoughness":{"baseColorFactor":[0.02,0.055,0.085,1],"metallicFactor":0,"roughnessFactor":0.12}},{"doubleSided":true,"pbrMetallicRoughness":{"baseColorFactor":[0.07,0.08,0.09,1],"metallicFactor":0,"roughnessFactor":0.86}},{"doubleSided":true,"pbrMetallicRoughness":{"baseColorFactor":[1,1,1,1],"metallicFactor":0,"roughnessFactor":0.75,"baseColorTexture":{"index":0}},"alphaMode":"MASK","alphaCutoff":0.08},{"doubleSided":true,"pbrMetallicRoughness":{"baseColorFactor":[0.36,0.4,0.44,1],"metallicFactor":0.8,"roughnessFactor":0.28}},{"doubleSided":true,"pbrMetallicRoughness":{"baseColorFactor":[0.9450980392156862,0.4196078431372549,0.13333333333333333,1],"metallicFactor":0.04,"roughnessFactor":0.27}},{"name":"Operator title","doubleSided":true,"alphaMode":"MASK","alphaCutoff":0.15,"pbrMetallicRoughness":{"baseColorTexture":{"index":2},"baseColorFactor":[0.9450980392156862,0.4196078431372549,0.13333333333333333,1],"roughnessFactor":0.6,"metallicFactor":0}}],"buffers":[{"uri":"a350-v4.bin?tail=2&rig=1&detail=6","byteLength":1458880},{"uri":"a350-title.bin?detail=6","byteLength":18432}],"bufferViews":[{"buffer":0,"byteOffset":0,"byteLength":31980,"target":34962},{"buffer":0,"byteOffset":31980,"byteLength":31980,"target":34962},{"buffer":0,"byteOffset":63960,"byteLength":21320,"target":34962},{"buffer":0,"byteOffset":85280,"byteLength":61440,"target":34963},{"buffer":0,"byteOffset":146720,"byteLength":1080,"target":34962},{"buffer":0,"byteOffset":147800,"byteLength":1080,"target":34962},{"buffer":0,"byteOffset":148880,"byteLength":576,"target":34963},{"buffer":0,"byteOffset":149456,"byteLength":288,"target":34962},{"buffer":0,"byteOffset":149744,"byteLength":288,"target":34962},{"buffer":0,"byteOffset":150032,"byteLength":144,"target":34963},{"buffer":0,"byteOffset":150176,"byteLength":194832,"target":34962},{"buffer":0,"byteOffset":345008,"byteLength":194832,"target":34962},{"buffer":0,"byteOffset":539840,"byteLength":192,"target":34962},{"buffer":0,"byteOffset":540032,"byteLength":192,"target":34962},{"buffer":0,"byteOffset":540224,"byteLength":128,"target":34962},{"buffer":0,"byteOffset":540352,"byteLength":96,"target":34963},{"buffer":0,"byteOffset":540448,"byteLength":50760,"target":34962},{"buffer":0,"byteOffset":591208,"byteLength":50760,"target":34962},{"buffer":0,"byteOffset":641968,"byteLength":49920,"target":34963},{"buffer":0,"byteOffset":691888,"byteLength":20376,"target":34962},{"buffer":0,"byteOffset":712264,"byteLength":20376,"target":34962},{"buffer":0,"byteOffset":732640,"byteLength":36912,"target":34963},{"buffer":0,"byteOffset":769552,"byteLength":21504,"target":34962},{"buffer":0,"byteOffset":791056,"byteLength":21504,"target":34962},{"buffer":0,"byteOffset":812560,"byteLength":10752,"target":34963},{"buffer":0,"byteOffset":823312,"byteLength":21504,"target":34962},{"buffer":0,"byteOffset":844816,"byteLength":21504,"target":34962},{"buffer":0,"byteOffset":866320,"byteLength":10752,"target":34963},{"buffer":0,"byteOffset":877072,"byteLength":21504,"target":34962},{"buffer":0,"byteOffset":898576,"byteLength":21504,"target":34962},{"buffer":0,"byteOffset":920080,"byteLength":10752,"target":34963},{"buffer":0,"byteOffset":930832,"byteLength":21504,"target":34962},{"buffer":0,"byteOffset":952336,"byteLength":21504,"target":34962},{"buffer":0,"byteOffset":973840,"byteLength":10752,"target":34963},{"buffer":0,"byteOffset":984592,"byteLength":21504,"target":34962},{"buffer":0,"byteOffset":1006096,"byteLength":21504,"target":34962},{"buffer":0,"byteOffset":1027600,"byteLength":10752,"target":34963},{"buffer":0,"byteOffset":1038352,"byteLength":39156,"target":34962},{"buffer":0,"byteOffset":1077508,"byteLength":39156,"target":34962},{"buffer":0,"byteOffset":1116664,"byteLength":58944,"target":34963},{"buffer":0,"byteOffset":1175608,"byteLength":336,"target":34962},{"buffer":0,"byteOffset":1175944,"byteLength":336,"target":34962},{"buffer":0,"byteOffset":1176280,"byteLength":144,"target":34963},{"buffer":0,"byteOffset":1176424,"byteLength":432,"target":34962},{"buffer":0,"byteOffset":1176856,"byteLength":432,"target":34962},{"buffer":0,"byteOffset":1177288,"byteLength":288,"target":34963},{"buffer":0,"byteOffset":1177576,"byteLength":39156,"target":34962},{"buffer":0,"byteOffset":1216732,"byteLength":39156,"target":34962},{"buffer":0,"byteOffset":1255888,"byteLength":58944,"target":34963},{"buffer":0,"byteOffset":1314832,"byteLength":336,"target":34962},{"buffer":0,"byteOffset":1315168,"byteLength":336,"target":34962},{"buffer":0,"byteOffset":1315504,"byteLength":144,"target":34963},{"buffer":0,"byteOffset":1315648,"byteLength":432,"target":34962},{"buffer":0,"byteOffset":1316080,"byteLength":432,"target":34962},{"buffer":0,"byteOffset":1316512,"byteLength":288,"target":34963},{"buffer":0,"byteOffset":1316800,"byteLength":9036,"target":34962},{"buffer":0,"byteOffset":1325836,"byteLength":9036,"target":34962},{"buffer":0,"byteOffset":1334872,"byteLength":12960,"target":34963},{"buffer":0,"byteOffset":1347832,"byteLength":9036,"target":34962},{"buffer":0,"byteOffset":1356868,"byteLength":9036,"target":34962},{"buffer":0,"byteOffset":1365904,"byteLength":12960,"target":34963},{"buffer":0,"byteOffset":1378864,"byteLength":864,"target":34962},{"buffer":0,"byteOffset":1379728,"byteLength":864,"target":34962},{"buffer":0,"byteOffset":1380592,"byteLength":576,"target":34962},{"buffer":0,"byteOffset":1381168,"byteLength":432,"target":34963},{"buffer":0,"byteOffset":1381600,"byteLength":3840,"target":34962},{"buffer":0,"byteOffset":1385440,"byteLength":3840,"target":34962},{"buffer":0,"byteOffset":1389280,"byteLength":1920,"target":34963},{"buffer":0,"byteOffset":1391200,"byteLength":11520,"target":34962},{"buffer":0,"byteOffset":1402720,"byteLength":11520,"target":34962},{"buffer":0,"byteOffset":1414240,"byteLength":5760,"target":34963},{"buffer":0,"byteOffset":1420000,"byteLength":864,"target":34962},{"buffer":0,"byteOffset":1420864,"byteLength":864,"target":34962},{"buffer":0,"byteOffset":1421728,"byteLength":288,"target":34963},{"buffer":0,"byteOffset":1422016,"byteLength":1728,"target":34962},{"buffer":0,"byteOffset":1423744,"byteLength":1728,"target":34962},{"buffer":0,"byteOffset":1425472,"byteLength":576,"target":34963},{"buffer":0,"byteOffset":1426048,"byteLength":288,"target":34962},{"buffer":0,"byteOffset":1426336,"byteLength":288,"target":34962},{"buffer":0,"byteOffset":1426624,"byteLength":96,"target":34963},{"buffer":0,"byteOffset":1426720,"byteLength":288,"target":34962},{"buffer":0,"byteOffset":1427008,"byteLength":288,"target":34962},{"buffer":0,"byteOffset":1427296,"byteLength":144,"target":34963},{"buffer":0,"byteOffset":1427440,"byteLength":864,"target":34962},{"buffer":0,"byteOffset":1428304,"byteLength":864,"target":34962},{"buffer":0,"byteOffset":1429168,"byteLength":288,"target":34963},{"buffer":0,"byteOffset":1429456,"byteLength":1728,"target":34962},{"buffer":0,"byteOffset":1431184,"byteLength":1728,"target":34962},{"buffer":0,"byteOffset":1432912,"byteLength":576,"target":34963},{"buffer":0,"byteOffset":1433488,"byteLength":288,"target":34962},{"buffer":0,"byteOffset":1433776,"byteLength":288,"target":34962},{"buffer":0,"byteOffset":1434064,"byteLength":96,"target":34963},{"buffer":0,"byteOffset":1434160,"byteLength":288,"target":34962},{"buffer":0,"byteOffset":1434448,"byteLength":288,"target":34962},{"buffer":0,"byteOffset":1434736,"byteLength":144,"target":34963},{"buffer":0,"byteOffset":1434880,"byteLength":168,"target":34962},{"buffer":0,"byteOffset":1435048,"byteLength":168,"target":34962},{"buffer":0,"byteOffset":1435216,"byteLength":144,"target":34963},{"buffer":0,"byteOffset":1435360,"byteLength":1584,"target":34962},{"buffer":0,"byteOffset":1436944,"byteLength":1584,"target":34962},{"buffer":0,"byteOffset":1438528,"byteLength":1536,"target":34963},{"buffer":0,"byteOffset":1440064,"byteLength":1584,"target":34962},{"buffer":0,"byteOffset":1441648,"byteLength":1584,"target":34962},{"buffer":0,"byteOffset":1443232,"byteLength":1536,"target":34963},{"buffer":0,"byteOffset":1444768,"byteLength":1584,"target":34962},{"buffer":0,"byteOffset":1446352,"byteLength":1584,"target":34962},{"buffer":0,"byteOffset":1447936,"byteLength":1536,"target":34963},{"buffer":0,"byteOffset":1449472,"byteLength":1584,"target":34962},{"buffer":0,"byteOffset":1451056,"byteLength":1584,"target":34962},{"buffer":0,"byteOffset":1452640,"byteLength":1536,"target":34963},{"buffer":0,"byteOffset":1454176,"byteLength":1584,"target":34962},{"buffer":0,"byteOffset":1455760,"byteLength":1584,"target":34962},{"buffer":0,"byteOffset":1457344,"byteLength":1536,"target":34963},{"buffer":1,"byteOffset":0,"byteLength":6912,"target":34962},{"buffer":1,"byteOffset":6912,"byteLength":6912,"target":34962},{"buffer":1,"byteOffset":13824,"byteLength":4608,"target":34962}],"accessors":[{"bufferView":0,"componentType":5126,"count":2665,"type":"VEC3","min":[-3.0,-3.0,-33.5],"max":[3.0,3.0,33.5]},{"bufferView":1,"componentType":5126,"count":2665,"type":"VEC3"},{"bufferView":2,"componentType":5126,"count":2665,"type":"VEC2"},{"bufferView":3,"componentType":5125,"count":15360,"type":"SCALAR"},{"bufferView":4,"componentType":5126,"count":90,"type":"VEC3","min":[-12.49,-3.59,-31.155],"max":[12.209999999999999,1.8800000000000003,3.015]},{"bufferView":5,"componentType":5126,"count":90,"type":"VEC3"},{"bufferView":6,"componentType":5125,"count":144,"type":"SCALAR"},{"bufferView":7,"componentType":5126,"count":24,"type":"VEC3","min":[-0.1,1.2000000000000002,-31.155],"max":[0.1,11.04,-18.76]},{"bufferView":8,"componentType":5126,"count":24,"type":"VEC3"},{"bufferView":9,"componentType":5125,"count":36,"type":"SCALAR"},{"bufferView":10,"componentType":5126,"count":16236,"type":"VEC3","min":[-13.934,-5.034,-15.540000000000001],"max":[13.934,2.4804916121544838,29.681]},{"bufferView":11,"componentType":5126,"count":16236,"type":"VEC3"},{"bufferView":12,"componentType":5126,"count":16,"type":"VEC3","min":[-3.04,-1.26,-30.016000000000002],"max":[3.04,8.9496,15.280000000000001]},{"bufferView":13,"componentType":5126,"count":16,"type":"VEC3"},{"bufferView":14,"componentType":5126,"count":16,"type":"VEC2"},{"bufferView":15,"componentType":5125,"count":24,"type":"SCALAR"},{"bufferView":16,"componentType":5126,"count":4230,"type":"VEC3","min":[-14.29436,-5.39436,-15.845],"max":[14.29436,2.489151866192328,29.681]},{"bufferView":17,"componentType":5126,"count":4230,"type":"VEC3"},{"bufferView":18,"componentType":5125,"count":12480,"type":"SCALAR"},{"bufferView":19,"componentType":5126,"count":1698,"type":"VEC3","min":[-14.33,-5.43,-12.73],"max":[14.33,-1.4699999999999998,20.099999999999998]},{"bufferView":20,"componentType":5126,"count":1698,"type":"VEC3"},{"bufferView":21,"componentType":5125,"count":9228,"type":"SCALAR"},{"bufferView":22,"componentType":5126,"count":1792,"type":"VEC3","min":[-0.41000000000000003,-0.4,-0.4],"max":[0.41000000000000003,0.4,0.4]},{"bufferView":23,"componentType":5126,"count":1792,"type":"VEC3"},{"bufferView":24,"componentType":5125,"count":2688,"type":"SCALAR"},{"bufferView":25,"componentType":5126,"count":1792,"type":"VEC3","min":[-0.41000000000000003,-0.52,-0.52],"max":[0.41000000000000003,0.52,0.52]},{"bufferView":26,"componentType":5126,"count":1792,"type":"VEC3"},{"bufferView":27,"componentType":5125,"count":2688,"type":"SCALAR"},{"bufferView":28,"componentType":5126,"count":1792,"type":"VEC3","min":[-0.41000000000000003,-0.52,-0.52],"max":[0.41000000000000003,0.52,0.52]},{"bufferView":29,"componentType":5126,"count":1792,"type":"VEC3"},{"bufferView":30,"componentType":5125,"count":2688,"type":"SCALAR"},{"bufferView":31,"componentType":5126,"count":1792,"type":"VEC3","min":[-0.41000000000000003,-0.52,-0.52],"max":[0.41000000000000003,0.52,0.52]},{"bufferView":32,"componentType":5126,"count":1792,"type":"VEC3"},{"bufferView":33,"componentType":5125,"count":2688,"type":"SCALAR"},{"bufferView":34,"componentType":5126,"count":1792,"type":"VEC3","min":[-0.41000000000000003,-0.52,-0.52],"max":[0.41000000000000003,0.52,0.52]},{"bufferView":35,"componentType":5126,"count":1792,"type":"VEC3"},{"bufferView":36,"componentType":5125,"count":2688,"type":"SCALAR"},{"bufferView":37,"componentType":5126,"count":3263,"type":"VEC3","min":[-32.5,-2.1001653416365653,-20.408782608695653],"max":[-2.25,1.532614073497609,6.7]},{"bufferView":38,"componentType":5126,"count":3263,"type":"VEC3"},{"bufferView":39,"componentType":5125,"count":14736,"type":"SCALAR"},{"bufferView":40,"componentType":5126,"count":28,"type":"VEC3","min":[-32.5,0.96,-20.1],"max":[-31.2,3.24,-14.74]},{"bufferView":41,"componentType":5126,"count":28,"type":"VEC3"},{"bufferView":42,"componentType":5125,"count":36,"type":"SCALAR"},{"bufferView":43,"componentType":5126,"count":36,"type":"VEC3","min":[-32.5,-0.8335949703866099,-18.875575],"max":[-2.25,1.5075784203224614,-5.601200000000001]},{"bufferView":44,"componentType":5126,"count":36,"type":"VEC3"},{"bufferView":45,"componentType":5125,"count":72,"type":"SCALAR"},{"bufferView":46,"componentType":5126,"count":3263,"type":"VEC3","min":[2.25,-2.1001653416365653,-20.408782608695653],"max":[32.5,1.532614073497609,6.7]},{"bufferView":47,"componentType":5126,"count":3263,"type":"VEC3"},{"bufferView":48,"componentType":5125,"count":14736,"type":"SCALAR"},{"bufferView":49,"componentType":5126,"count":28,"type":"VEC3","min":[31.2,0.96,-20.1],"max":[32.5,3.24,-14.74]},{"bufferView":50,"componentType":5126,"count":28,"type":"VEC3"},{"bufferView":51,"componentType":5125,"count":36,"type":"SCALAR"},{"bufferView":52,"componentType":5126,"count":36,"type":"VEC3","min":[2.25,-0.8335949703866099,-18.875575],"max":[32.5,1.5075784203224614,-5.601200000000001]},{"bufferView":53,"componentType":5126,"count":36,"type":"VEC3"},{"bufferView":54,"componentType":5125,"count":72,"type":"SCALAR"},{"bufferView":55,"componentType":5126,"count":753,"type":"VEC3","min":[-13.874585245415695,-4.974585245415694,2.0252000000000003],"max":[-10.825414754584305,-1.9254147545843054,3.685]},{"bufferView":56,"componentType":5126,"count":753,"type":"VEC3"},{"bufferView":57,"componentType":5125,"count":3240,"type":"SCALAR"},{"bufferView":58,"componentType":5126,"count":753,"type":"VEC3","min":[10.825414754584305,-4.974585245415694,2.0252000000000003],"max":[13.874585245415695,-1.9254147545843054,3.685]},{"bufferView":59,"componentType":5126,"count":753,"type":"VEC3"},{"bufferView":60,"componentType":5125,"count":3240,"type":"SCALAR"},{"bufferView":61,"componentType":5126,"count":72,"type":"VEC3","min":[-3.9200000000000004,-4.025,-7.875000000000001],"max":[2.8200000000000003,-2.225,20.08]},{"bufferView":62,"componentType":5126,"count":72,"type":"VEC3"},{"bufferView":63,"componentType":5126,"count":72,"type":"VEC2"},{"bufferView":64,"componentType":5125,"count":108,"type":"SCALAR"},{"bufferView":65,"componentType":5126,"count":320,"type":"VEC3","min":[-3.4200000000000004,-4.2,-7.345000000000001],"max":[3.4200000000000004,-3.6,19.55]},{"bufferView":66,"componentType":5126,"count":320,"type":"VEC3"},{"bufferView":67,"componentType":5125,"count":480,"type":"SCALAR"},{"bufferView":68,"componentType":5126,"count":960,"type":"VEC3","min":[-3.72,-4.6899999999999995,-7.315],"max":[3.72,-2.0999999999999996,19.883451755812878]},{"bufferView":69,"componentType":5126,"count":960,"type":"VEC3"},{"bufferView":70,"componentType":5125,"count":1440,"type":"SCALAR"},{"bufferView":71,"componentType":5126,"count":72,"type":"VEC3","min":[-29.25,-1.8174994618122948,-14.931252674565393],"max":[-2.25,0.794947154279947,6.7]},{"bufferView":72,"componentType":5126,"count":72,"type":"VEC3"},{"bufferView":73,"componentType":5125,"count":72,"type":"SCALAR"},{"bufferView":74,"componentType":5126,"count":144,"type":"VEC3","min":[-29.25,-1.5372030856798105,-19.765],"max":[-2.25,0.7863767970251738,-8.740780835832322]},{"bufferView":75,"componentType":5126,"count":144,"type":"VEC3"},{"bufferView":76,"componentType":5125,"count":144,"type":"SCALAR"},{"bufferView":77,"componentType":5126,"count":24,"type":"VEC3","min":[-29.25,-0.671233986513597,-18.50875],"max":[-2.25,0.8861337325294033,-4.6860182629523]},{"bufferView":78,"componentType":5126,"count":24,"type":"VEC3"},{"bufferView":79,"componentType":5125,"count":24,"type":"SCALAR"},{"bufferView":80,"componentType":5126,"count":24,"type":"VEC3","min":[-11.7,1.1400000000000001,-32.83],"max":[-1.2000000000000002,1.8600000000000003,-27.805]},{"bufferView":81,"componentType":5126,"count":24,"type":"VEC3"},{"bufferView":82,"componentType":5125,"count":36,"type":"SCALAR"},{"bufferView":83,"componentType":5126,"count":72,"type":"VEC3","min":[2.25,-1.8174994618122948,-14.931252674565393],"max":[29.25,0.794947154279947,6.7]},{"bufferView":84,"componentType":5126,"count":72,"type":"VEC3"},{"bufferView":85,"componentType":5125,"count":72,"type":"SCALAR"},{"bufferView":86,"componentType":5126,"count":144,"type":"VEC3","min":[2.25,-1.5372030856798105,-19.765],"max":[29.25,0.7863767970251738,-8.740780835832322]},{"bufferView":87,"componentType":5126,"count":144,"type":"VEC3"},{"bufferView":88,"componentType":5125,"count":144,"type":"SCALAR"},{"bufferView":89,"componentType":5126,"count":24,"type":"VEC3","min":[2.25,-0.671233986513597,-18.50875],"max":[29.25,0.8861337325294033,-4.6860182629523]},{"bufferView":90,"componentType":5126,"count":24,"type":"VEC3"},{"bufferView":91,"componentType":5125,"count":24,"type":"SCALAR"},{"bufferView":92,"componentType":5126,"count":24,"type":"VEC3","min":[1.2000000000000002,1.1400000000000001,-32.83],"max":[11.7,1.8600000000000003,-27.805]},{"bufferView":93,"componentType":5126,"count":24,"type":"VEC3"},{"bufferView":94,"componentType":5125,"count":36,"type":"SCALAR"},{"bufferView":95,"componentType":5126,"count":14,"type":"VEC3","min":[0,1.12,-33.165],"max":[0,11.12,-30.016000000000002]},{"bufferView":96,"componentType":5126,"count":14,"type":"VEC3"},{"bufferView":97,"componentType":5125,"count":36,"type":"SCALAR"},{"bufferView":98,"componentType":5126,"count":132,"type":"VEC3","min":[-0.41100000000000003,-0.22000000000000003,-0.22000000000000003],"max":[0.41100000000000003,0.22000000000000003,0.22000000000000003]},{"bufferView":99,"componentType":5126,"count":132,"type":"VEC3"},{"bufferView":100,"componentType":5125,"count":384,"type":"SCALAR"},{"bufferView":101,"componentType":5126,"count":132,"type":"VEC3","min":[-0.41100000000000003,-0.28600000000000003,-0.28600000000000003],"max":[0.41100000000000003,0.28600000000000003,0.28600000000000003]},{"bufferView":102,"componentType":5126,"count":132,"type":"VEC3"},{"bufferView":103,"componentType":5125,"count":384,"type":"SCALAR"},{"bufferView":104,"componentType":5126,"count":132,"type":"VEC3","min":[-0.41100000000000003,-0.28600000000000003,-0.28600000000000003],"max":[0.41100000000000003,0.28600000000000003,0.28600000000000003]},{"bufferView":105,"componentType":5126,"count":132,"type":"VEC3"},{"bufferView":106,"componentType":5125,"count":384,"type":"SCALAR"},{"bufferView":107,"componentType":5126,"count":132,"type":"VEC3","min":[-0.41100000000000003,-0.28600000000000003,-0.28600000000000003],"max":[0.41100000000000003,0.28600000000000003,0.28600000000000003]},{"bufferView":108,"componentType":5126,"count":132,"type":"VEC3"},{"bufferView":109,"componentType":5125,"count":384,"type":"SCALAR"},{"bufferView":110,"componentType":5126,"count":132,"type":"VEC3","min":[-0.41100000000000003,-0.28600000000000003,-0.28600000000000003],"max":[0.41100000000000003,0.28600000000000003,0.28600000000000003]},{"bufferView":111,"componentType":5126,"count":132,"type":"VEC3"},{"bufferView":112,"componentType":5125,"count":384,"type":"SCALAR"},{"bufferView":113,"componentType":5126,"count":576,"type":"VEC3","min":[-2.8268569095257443,1.08,-8.04],"max":[2.8268569095257443,1.83,16.75]},{"bufferView":114,"componentType":5126,"count":576,"type":"VEC3"},{"bufferView":115,"componentType":5126,"count":576,"type":"VEC2"}],"images":[{"uri":"../../airlines/EZY.png"},{"uri":"fallback-paint-v5.png"},{"uri":"title-EZY.png"}],"textures":[{"source":0,"sampler":0},{"source":1,"sampler":0},{"source":2,"sampler":0}],"samplers":[{"magFilter":9729,"minFilter":9987,"wrapS":33071,"wrapT":33071}]}