{"asset":{"version":"2.0","generator":"Skyward detailed procedural a35k fallback v6; approximate airframe; operator identification logos"},"scene":0,"scenes":[{"nodes":[0,1,9,10,11,12,13,14,15,16,17,18,19,20,21]}],"nodes":[{"mesh":0},{"mesh":1,"name":"Gear","children":[2,3,4,5,6,7,8]},{"mesh":2,"name":"WheelN","translation":[0,-4.6,21.459999999999997]},{"mesh":3,"name":"WheelL","translation":[-3.3000000000000003,-4.6,-8.450000000000001]},{"mesh":4,"name":"WheelR","translation":[3.3000000000000003,-4.6,-8.450000000000001]},{"mesh":5,"name":"WheelL2","translation":[-3.3000000000000003,-4.6,-7.4]},{"mesh":6,"name":"WheelR2","translation":[3.3000000000000003,-4.6,-7.4]},{"mesh":7,"name":"WheelL3","translation":[-3.3000000000000003,-4.6,-6.3500000000000005]},{"mesh":8,"name":"WheelR3","translation":[3.3000000000000003,-4.6,-6.3500000000000005]},{"mesh":9,"name":"SlatL"},{"mesh":10,"name":"FlapL"},{"mesh":11,"name":"SpoilerL"},{"mesh":12,"name":"ElevatorL"},{"mesh":13,"name":"SlatR"},{"mesh":14,"name":"FlapR"},{"mesh":15,"name":"SpoilerR"},{"mesh":16,"name":"ElevatorR"},{"mesh":17,"name":"Rudder"},{"mesh":18,"name":"FlexWingL"},{"mesh":19,"name":"FlexWingR"},{"mesh":20,"name":"SkywardFan0"},{"mesh":21,"name":"SkywardFan1"}],"meshes":[{"name":"AirframeWithCockpitGlazing","primitives":[{"indices":3,"attributes":{"POSITION":0,"NORMAL":1,"TEXCOORD_0":2},"material":0},{"indices":6,"attributes":{"POSITION":4,"NORMAL":5},"material":1},{"indices":9,"attributes":{"POSITION":7,"NORMAL":8},"material":2},{"attributes":{"POSITION":10,"NORMAL":11},"material":3},{"indices":15,"attributes":{"POSITION":12,"NORMAL":13,"TEXCOORD_0":14},"material":5},{"indices":18,"attributes":{"POSITION":16,"NORMAL":17},"material":6},{"indices":21,"attributes":{"POSITION":19,"NORMAL":20},"material":7},{"attributes":{"POSITION":125,"NORMAL":126,"TEXCOORD_0":127},"material":8}]},{"primitives":[{"indices":70,"attributes":{"POSITION":67,"NORMAL":68,"TEXCOORD_0":69},"material":0,"extras":{"gear":true}},{"indices":73,"attributes":{"POSITION":71,"NORMAL":72},"material":1,"extras":{"gear":true}},{"indices":76,"attributes":{"POSITION":74,"NORMAL":75},"material":6,"extras":{"gear":true}}]},{"primitives":[{"indices":24,"attributes":{"POSITION":22,"NORMAL":23},"material":4,"extras":{"wheel":0}},{"indices":106,"attributes":{"POSITION":104,"NORMAL":105},"material":6,"extras":{"wheel":0}}]},{"primitives":[{"indices":27,"attributes":{"POSITION":25,"NORMAL":26},"material":4,"extras":{"wheel":1}},{"indices":109,"attributes":{"POSITION":107,"NORMAL":108},"material":6,"extras":{"wheel":1}}]},{"primitives":[{"indices":30,"attributes":{"POSITION":28,"NORMAL":29},"material":4,"extras":{"wheel":2}},{"indices":112,"attributes":{"POSITION":110,"NORMAL":111},"material":6,"extras":{"wheel":2}}]},{"primitives":[{"indices":33,"attributes":{"POSITION":31,"NORMAL":32},"material":4,"extras":{"wheel":3}},{"indices":115,"attributes":{"POSITION":113,"NORMAL":114},"material":6,"extras":{"wheel":3}}]},{"primitives":[{"indices":36,"attributes":{"POSITION":34,"NORMAL":35},"material":4,"extras":{"wheel":4}},{"indices":118,"attributes":{"POSITION":116,"NORMAL":117},"material":6,"extras":{"wheel":4}}]},{"primitives":[{"indices":39,"attributes":{"POSITION":37,"NORMAL":38},"material":4,"extras":{"wheel":5}},{"indices":121,"attributes":{"POSITION":119,"NORMAL":120},"material":6,"extras":{"wheel":5}}]},{"primitives":[{"indices":42,"attributes":{"POSITION":40,"NORMAL":41},"material":4,"extras":{"wheel":6}},{"indices":124,"attributes":{"POSITION":122,"NORMAL":123},"material":6,"extras":{"wheel":6}}]},{"primitives":[{"indices":79,"attributes":{"POSITION":77,"NORMAL":78},"material":1,"extras":{"surface":0}}]},{"primitives":[{"indices":82,"attributes":{"POSITION":80,"NORMAL":81},"material":1,"extras":{"surface":1}}]},{"primitives":[{"indices":85,"attributes":{"POSITION":83,"NORMAL":84},"material":1,"extras":{"surface":2}}]},{"primitives":[{"indices":88,"attributes":{"POSITION":86,"NORMAL":87},"material":1,"extras":{"surface":3}}]},{"primitives":[{"indices":91,"attributes":{"POSITION":89,"NORMAL":90},"material":1,"extras":{"surface":4}}]},{"primitives":[{"indices":94,"attributes":{"POSITION":92,"NORMAL":93},"material":1,"extras":{"surface":5}}]},{"primitives":[{"indices":97,"attributes":{"POSITION":95,"NORMAL":96},"material":1,"extras":{"surface":6}}]},{"primitives":[{"indices":100,"attributes":{"POSITION":98,"NORMAL":99},"material":1,"extras":{"surface":7}}]},{"primitives":[{"indices":103,"attributes":{"POSITION":101,"NORMAL":102},"material":2,"extras":{"surface":8}}]},{"primitives":[{"indices":45,"attributes":{"POSITION":43,"NORMAL":44},"material":1,"extras":{"wing":0}},{"indices":48,"attributes":{"POSITION":46,"NORMAL":47},"material":2,"extras":{"wing":0}},{"indices":51,"attributes":{"POSITION":49,"NORMAL":50},"material":6,"extras":{"wing":0}}]},{"primitives":[{"indices":54,"attributes":{"POSITION":52,"NORMAL":53},"material":1,"extras":{"wing":1}},{"indices":57,"attributes":{"POSITION":55,"NORMAL":56},"material":2,"extras":{"wing":1}},{"indices":60,"attributes":{"POSITION":58,"NORMAL":59},"material":6,"extras":{"wing":1}}]},{"primitives":[{"indices":63,"attributes":{"POSITION":61,"NORMAL":62},"material":6,"extras":{"fan":0}}]},{"primitives":[{"indices":66,"attributes":{"POSITION":64,"NORMAL":65},"material":6,"extras":{"fan":1}}]}],"materials":[{"doubleSided":true,"pbrMetallicRoughness":{"baseColorFactor":[0.94,0.95,0.96,1],"metallicFactor":0.04,"roughnessFactor":0.27,"baseColorTexture":{"index":1}}},{"doubleSided":true,"pbrMetallicRoughness":{"baseColorFactor":[0.64,0.68,0.72,1],"metallicFactor":0.04,"roughnessFactor":0.4}},{"doubleSided":true,"pbrMetallicRoughness":{"baseColorFactor":[0.14901960784313725,0.24705882352941178,0.5058823529411764,1],"metallicFactor":0.04,"roughnessFactor":0.27}},{"doubleSided":true,"pbrMetallicRoughness":{"baseColorFactor":[0.02,0.055,0.085,1],"metallicFactor":0,"roughnessFactor":0.12}},{"doubleSided":true,"pbrMetallicRoughness":{"baseColorFactor":[0.07,0.08,0.09,1],"metallicFactor":0,"roughnessFactor":0.86}},{"doubleSided":true,"pbrMetallicRoughness":{"baseColorFactor":[1,1,1,1],"metallicFactor":0,"roughnessFactor":0.75,"baseColorTexture":{"index":0}},"alphaMode":"MASK","alphaCutoff":0.08},{"doubleSided":true,"pbrMetallicRoughness":{"baseColorFactor":[0.36,0.4,0.44,1],"metallicFactor":0.8,"roughnessFactor":0.28}},{"doubleSided":true,"pbrMetallicRoughness":{"baseColorFactor":[0.14901960784313725,0.24705882352941178,0.5058823529411764,1],"metallicFactor":0.04,"roughnessFactor":0.27}},{"name":"Operator title","doubleSided":true,"alphaMode":"MASK","alphaCutoff":0.15,"pbrMetallicRoughness":{"baseColorTexture":{"index":2},"baseColorFactor":[0.14901960784313725,0.24705882352941178,0.5058823529411764,1],"roughnessFactor":0.6,"metallicFactor":0}}],"buffers":[{"uri":"a35k-v4.bin?tail=2&rig=1&detail=6","byteLength":1596928},{"uri":"a35k-title.bin?detail=6","byteLength":18432}],"bufferViews":[{"buffer":0,"byteOffset":0,"byteLength":31980,"target":34962},{"buffer":0,"byteOffset":31980,"byteLength":31980,"target":34962},{"buffer":0,"byteOffset":63960,"byteLength":21320,"target":34962},{"buffer":0,"byteOffset":85280,"byteLength":61440,"target":34963},{"buffer":0,"byteOffset":146720,"byteLength":1080,"target":34962},{"buffer":0,"byteOffset":147800,"byteLength":1080,"target":34962},{"buffer":0,"byteOffset":148880,"byteLength":576,"target":34963},{"buffer":0,"byteOffset":149456,"byteLength":288,"target":34962},{"buffer":0,"byteOffset":149744,"byteLength":288,"target":34962},{"buffer":0,"byteOffset":150032,"byteLength":144,"target":34963},{"buffer":0,"byteOffset":150176,"byteLength":197712,"target":34962},{"buffer":0,"byteOffset":347888,"byteLength":197712,"target":34962},{"buffer":0,"byteOffset":545600,"byteLength":192,"target":34962},{"buffer":0,"byteOffset":545792,"byteLength":192,"target":34962},{"buffer":0,"byteOffset":545984,"byteLength":128,"target":34962},{"buffer":0,"byteOffset":546112,"byteLength":96,"target":34963},{"buffer":0,"byteOffset":546208,"byteLength":50760,"target":34962},{"buffer":0,"byteOffset":596968,"byteLength":50760,"target":34962},{"buffer":0,"byteOffset":647728,"byteLength":49920,"target":34963},{"buffer":0,"byteOffset":697648,"byteLength":20376,"target":34962},{"buffer":0,"byteOffset":718024,"byteLength":20376,"target":34962},{"buffer":0,"byteOffset":738400,"byteLength":36912,"target":34963},{"buffer":0,"byteOffset":775312,"byteLength":21504,"target":34962},{"buffer":0,"byteOffset":796816,"byteLength":21504,"target":34962},{"buffer":0,"byteOffset":818320,"byteLength":10752,"target":34963},{"buffer":0,"byteOffset":829072,"byteLength":21504,"target":34962},{"buffer":0,"byteOffset":850576,"byteLength":21504,"target":34962},{"buffer":0,"byteOffset":872080,"byteLength":10752,"target":34963},{"buffer":0,"byteOffset":882832,"byteLength":21504,"target":34962},{"buffer":0,"byteOffset":904336,"byteLength":21504,"target":34962},{"buffer":0,"byteOffset":925840,"byteLength":10752,"target":34963},{"buffer":0,"byteOffset":936592,"byteLength":21504,"target":34962},{"buffer":0,"byteOffset":958096,"byteLength":21504,"target":34962},{"buffer":0,"byteOffset":979600,"byteLength":10752,"target":34963},{"buffer":0,"byteOffset":990352,"byteLength":21504,"target":34962},{"buffer":0,"byteOffset":1011856,"byteLength":21504,"target":34962},{"buffer":0,"byteOffset":1033360,"byteLength":10752,"target":34963},{"buffer":0,"byteOffset":1044112,"byteLength":21504,"target":34962},{"buffer":0,"byteOffset":1065616,"byteLength":21504,"target":34962},{"buffer":0,"byteOffset":1087120,"byteLength":10752,"target":34963},{"buffer":0,"byteOffset":1097872,"byteLength":21504,"target":34962},{"buffer":0,"byteOffset":1119376,"byteLength":21504,"target":34962},{"buffer":0,"byteOffset":1140880,"byteLength":10752,"target":34963},{"buffer":0,"byteOffset":1151632,"byteLength":39156,"target":34962},{"buffer":0,"byteOffset":1190788,"byteLength":39156,"target":34962},{"buffer":0,"byteOffset":1229944,"byteLength":58944,"target":34963},{"buffer":0,"byteOffset":1288888,"byteLength":336,"target":34962},{"buffer":0,"byteOffset":1289224,"byteLength":336,"target":34962},{"buffer":0,"byteOffset":1289560,"byteLength":144,"target":34963},{"buffer":0,"byteOffset":1289704,"byteLength":432,"target":34962},{"buffer":0,"byteOffset":1290136,"byteLength":432,"target":34962},{"buffer":0,"byteOffset":1290568,"byteLength":288,"target":34963},{"buffer":0,"byteOffset":1290856,"byteLength":39156,"target":34962},{"buffer":0,"byteOffset":1330012,"byteLength":39156,"target":34962},{"buffer":0,"byteOffset":1369168,"byteLength":58944,"target":34963},{"buffer":0,"byteOffset":1428112,"byteLength":336,"target":34962},{"buffer":0,"byteOffset":1428448,"byteLength":336,"target":34962},{"buffer":0,"byteOffset":1428784,"byteLength":144,"target":34963},{"buffer":0,"byteOffset":1428928,"byteLength":432,"target":34962},{"buffer":0,"byteOffset":1429360,"byteLength":432,"target":34962},{"buffer":0,"byteOffset":1429792,"byteLength":288,"target":34963},{"buffer":0,"byteOffset":1430080,"byteLength":9036,"target":34962},{"buffer":0,"byteOffset":1439116,"byteLength":9036,"target":34962},{"buffer":0,"byteOffset":1448152,"byteLength":12960,"target":34963},{"buffer":0,"byteOffset":1461112,"byteLength":9036,"target":34962},{"buffer":0,"byteOffset":1470148,"byteLength":9036,"target":34962},{"buffer":0,"byteOffset":1479184,"byteLength":12960,"target":34963},{"buffer":0,"byteOffset":1492144,"byteLength":864,"target":34962},{"buffer":0,"byteOffset":1493008,"byteLength":864,"target":34962},{"buffer":0,"byteOffset":1493872,"byteLength":576,"target":34962},{"buffer":0,"byteOffset":1494448,"byteLength":432,"target":34963},{"buffer":0,"byteOffset":1494880,"byteLength":5376,"target":34962},{"buffer":0,"byteOffset":1500256,"byteLength":5376,"target":34962},{"buffer":0,"byteOffset":1505632,"byteLength":2688,"target":34963},{"buffer":0,"byteOffset":1508320,"byteLength":16128,"target":34962},{"buffer":0,"byteOffset":1524448,"byteLength":16128,"target":34962},{"buffer":0,"byteOffset":1540576,"byteLength":8064,"target":34963},{"buffer":0,"byteOffset":1548640,"byteLength":864,"target":34962},{"buffer":0,"byteOffset":1549504,"byteLength":864,"target":34962},{"buffer":0,"byteOffset":1550368,"byteLength":288,"target":34963},{"buffer":0,"byteOffset":1550656,"byteLength":1728,"target":34962},{"buffer":0,"byteOffset":1552384,"byteLength":1728,"target":34962},{"buffer":0,"byteOffset":1554112,"byteLength":576,"target":34963},{"buffer":0,"byteOffset":1554688,"byteLength":288,"target":34962},{"buffer":0,"byteOffset":1554976,"byteLength":288,"target":34962},{"buffer":0,"byteOffset":1555264,"byteLength":96,"target":34963},{"buffer":0,"byteOffset":1555360,"byteLength":288,"target":34962},{"buffer":0,"byteOffset":1555648,"byteLength":288,"target":34962},{"buffer":0,"byteOffset":1555936,"byteLength":144,"target":34963},{"buffer":0,"byteOffset":1556080,"byteLength":864,"target":34962},{"buffer":0,"byteOffset":1556944,"byteLength":864,"target":34962},{"buffer":0,"byteOffset":1557808,"byteLength":288,"target":34963},{"buffer":0,"byteOffset":1558096,"byteLength":1728,"target":34962},{"buffer":0,"byteOffset":1559824,"byteLength":1728,"target":34962},{"buffer":0,"byteOffset":1561552,"byteLength":576,"target":34963},{"buffer":0,"byteOffset":1562128,"byteLength":288,"target":34962},{"buffer":0,"byteOffset":1562416,"byteLength":288,"target":34962},{"buffer":0,"byteOffset":1562704,"byteLength":96,"target":34963},{"buffer":0,"byteOffset":1562800,"byteLength":288,"target":34962},{"buffer":0,"byteOffset":1563088,"byteLength":288,"target":34962},{"buffer":0,"byteOffset":1563376,"byteLength":144,"target":34963},{"buffer":0,"byteOffset":1563520,"byteLength":168,"target":34962},{"buffer":0,"byteOffset":1563688,"byteLength":168,"target":34962},{"buffer":0,"byteOffset":1563856,"byteLength":144,"target":34963},{"buffer":0,"byteOffset":1564000,"byteLength":1584,"target":34962},{"buffer":0,"byteOffset":1565584,"byteLength":1584,"target":34962},{"buffer":0,"byteOffset":1567168,"byteLength":1536,"target":34963},{"buffer":0,"byteOffset":1568704,"byteLength":1584,"target":34962},{"buffer":0,"byteOffset":1570288,"byteLength":1584,"target":34962},{"buffer":0,"byteOffset":1571872,"byteLength":1536,"target":34963},{"buffer":0,"byteOffset":1573408,"byteLength":1584,"target":34962},{"buffer":0,"byteOffset":1574992,"byteLength":1584,"target":34962},{"buffer":0,"byteOffset":1576576,"byteLength":1536,"target":34963},{"buffer":0,"byteOffset":1578112,"byteLength":1584,"target":34962},{"buffer":0,"byteOffset":1579696,"byteLength":1584,"target":34962},{"buffer":0,"byteOffset":1581280,"byteLength":1536,"target":34963},{"buffer":0,"byteOffset":1582816,"byteLength":1584,"target":34962},{"buffer":0,"byteOffset":1584400,"byteLength":1584,"target":34962},{"buffer":0,"byteOffset":1585984,"byteLength":1536,"target":34963},{"buffer":0,"byteOffset":1587520,"byteLength":1584,"target":34962},{"buffer":0,"byteOffset":1589104,"byteLength":1584,"target":34962},{"buffer":0,"byteOffset":1590688,"byteLength":1536,"target":34963},{"buffer":0,"byteOffset":1592224,"byteLength":1584,"target":34962},{"buffer":0,"byteOffset":1593808,"byteLength":1584,"target":34962},{"buffer":0,"byteOffset":1595392,"byteLength":1536,"target":34963},{"buffer":1,"byteOffset":0,"byteLength":6912,"target":34962},{"buffer":1,"byteOffset":6912,"byteLength":6912,"target":34962},{"buffer":1,"byteOffset":13824,"byteLength":4608,"target":34962}],"accessors":[{"bufferView":0,"componentType":5126,"count":2665,"type":"VEC3","min":[-3.0,-3.0,-37.0],"max":[3.0,3.0,37.0]},{"bufferView":1,"componentType":5126,"count":2665,"type":"VEC3"},{"bufferView":2,"componentType":5126,"count":2665,"type":"VEC2"},{"bufferView":3,"componentType":5125,"count":15360,"type":"SCALAR"},{"bufferView":4,"componentType":5126,"count":90,"type":"VEC3","min":[-12.49,-3.59,-34.410000000000004],"max":[12.209999999999999,1.8800000000000003,3.33]},{"bufferView":5,"componentType":5126,"count":90,"type":"VEC3"},{"bufferView":6,"componentType":5125,"count":144,"type":"SCALAR"},{"bufferView":7,"componentType":5126,"count":24,"type":"VEC3","min":[-0.1,1.2000000000000002,-34.410000000000004],"max":[0.1,11.879999999999999,-20.720000000000002]},{"bufferView":8,"componentType":5126,"count":24,"type":"VEC3"},{"bufferView":9,"componentType":5125,"count":36,"type":"SCALAR"},{"bufferView":10,"componentType":5126,"count":16476,"type":"VEC3","min":[-13.934,-5.034,-17.15],"max":[13.934,2.480491612154483,32.782000000000004]},{"bufferView":11,"componentType":5126,"count":16476,"type":"VEC3"},{"bufferView":12,"componentType":5126,"count":16,"type":"VEC3","min":[-3.04,-1.26,-33.152],"max":[3.04,9.5712,16.61]},{"bufferView":13,"componentType":5126,"count":16,"type":"VEC3"},{"bufferView":14,"componentType":5126,"count":16,"type":"VEC2"},{"bufferView":15,"componentType":5125,"count":24,"type":"SCALAR"},{"bufferView":16,"componentType":5126,"count":4230,"type":"VEC3","min":[-14.29436,-5.39436,-17.455],"max":[14.29436,2.4891518661923273,32.782000000000004]},{"bufferView":17,"componentType":5126,"count":4230,"type":"VEC3"},{"bufferView":18,"componentType":5125,"count":12480,"type":"SCALAR"},{"bufferView":19,"componentType":5126,"count":1698,"type":"VEC3","min":[-14.33,-5.43,-14.06],"max":[14.33,-1.4699999999999998,22.2]},{"bufferView":20,"componentType":5126,"count":1698,"type":"VEC3"},{"bufferView":21,"componentType":5125,"count":9228,"type":"SCALAR"},{"bufferView":22,"componentType":5126,"count":1792,"type":"VEC3","min":[-0.41000000000000003,-0.4,-0.4],"max":[0.41000000000000003,0.4,0.4]},{"bufferView":23,"componentType":5126,"count":1792,"type":"VEC3"},{"bufferView":24,"componentType":5125,"count":2688,"type":"SCALAR"},{"bufferView":25,"componentType":5126,"count":1792,"type":"VEC3","min":[-0.41000000000000003,-0.52,-0.52],"max":[0.41000000000000003,0.52,0.52]},{"bufferView":26,"componentType":5126,"count":1792,"type":"VEC3"},{"bufferView":27,"componentType":5125,"count":2688,"type":"SCALAR"},{"bufferView":28,"componentType":5126,"count":1792,"type":"VEC3","min":[-0.41000000000000003,-0.52,-0.52],"max":[0.41000000000000003,0.52,0.52]},{"bufferView":29,"componentType":5126,"count":1792,"type":"VEC3"},{"bufferView":30,"componentType":5125,"count":2688,"type":"SCALAR"},{"bufferView":31,"componentType":5126,"count":1792,"type":"VEC3","min":[-0.41000000000000003,-0.52,-0.52],"max":[0.41000000000000003,0.52,0.52]},{"bufferView":32,"componentType":5126,"count":1792,"type":"VEC3"},{"bufferView":33,"componentType":5125,"count":2688,"type":"SCALAR"},{"bufferView":34,"componentType":5126,"count":1792,"type":"VEC3","min":[-0.41000000000000003,-0.52,-0.52],"max":[0.41000000000000003,0.52,0.52]},{"bufferView":35,"componentType":5126,"count":1792,"type":"VEC3"},{"bufferView":36,"componentType":5125,"count":2688,"type":"SCALAR"},{"bufferView":37,"componentType":5126,"count":1792,"type":"VEC3","min":[-0.41000000000000003,-0.52,-0.52],"max":[0.41000000000000003,0.52,0.52]},{"bufferView":38,"componentType":5126,"count":1792,"type":"VEC3"},{"bufferView":39,"componentType":5125,"count":2688,"type":"SCALAR"},{"bufferView":40,"componentType":5126,"count":1792,"type":"VEC3","min":[-0.41000000000000003,-0.52,-0.52],"max":[0.41000000000000003,0.52,0.52]},{"bufferView":41,"componentType":5126,"count":1792,"type":"VEC3"},{"bufferView":42,"componentType":5125,"count":2688,"type":"SCALAR"},{"bufferView":43,"componentType":5126,"count":3263,"type":"VEC3","min":[-32.5,-2.1785408250911322,-22.541043478260875],"max":[-2.25,1.5464692752063145,7.4]},{"bufferView":44,"componentType":5126,"count":3263,"type":"VEC3"},{"bufferView":45,"componentType":5125,"count":14736,"type":"SCALAR"},{"bufferView":46,"componentType":5126,"count":28,"type":"VEC3","min":[-32.5,0.96,-22.200000000000003],"max":[-31.2,3.24,-16.28]},{"bufferView":47,"componentType":5126,"count":28,"type":"VEC3"},{"bufferView":48,"componentType":5125,"count":36,"type":"SCALAR"},{"bufferView":49,"componentType":5126,"count":36,"type":"VEC3","min":[-32.5,-0.780478026994166,-20.84765],"max":[-2.25,1.5179821358785395,-6.186400000000001]},{"bufferView":50,"componentType":5126,"count":36,"type":"VEC3"},{"bufferView":51,"componentType":5125,"count":72,"type":"SCALAR"},{"bufferView":52,"componentType":5126,"count":3263,"type":"VEC3","min":[2.25,-2.1785408250911322,-22.541043478260875],"max":[32.5,1.5464692752063145,7.4]},{"bufferView":53,"componentType":5126,"count":3263,"type":"VEC3"},{"bufferView":54,"componentType":5125,"count":14736,"type":"SCALAR"},{"bufferView":55,"componentType":5126,"count":28,"type":"VEC3","min":[31.2,0.96,-22.200000000000003],"max":[32.5,3.24,-16.28]},{"bufferView":56,"componentType":5126,"count":28,"type":"VEC3"},{"bufferView":57,"componentType":5125,"count":36,"type":"SCALAR"},{"bufferView":58,"componentType":5126,"count":36,"type":"VEC3","min":[2.25,-0.780478026994166,-20.84765],"max":[32.5,1.5179821358785395,-6.186400000000001]},{"bufferView":59,"componentType":5126,"count":36,"type":"VEC3"},{"bufferView":60,"componentType":5125,"count":72,"type":"SCALAR"},{"bufferView":61,"componentType":5126,"count":753,"type":"VEC3","min":[-13.874585245415695,-4.974585245415694,2.2492],"max":[-10.825414754584305,-1.9254147545843054,4.07]},{"bufferView":62,"componentType":5126,"count":753,"type":"VEC3"},{"bufferView":63,"componentType":5125,"count":3240,"type":"SCALAR"},{"bufferView":64,"componentType":5126,"count":753,"type":"VEC3","min":[10.825414754584305,-4.974585245415694,2.2492],"max":[13.874585245415695,-1.9254147545843054,4.07]},{"bufferView":65,"componentType":5126,"count":753,"type":"VEC3"},{"bufferView":66,"componentType":5125,"count":3240,"type":"SCALAR"},{"bufferView":67,"componentType":5126,"count":72,"type":"VEC3","min":[-3.9200000000000004,-4.025,-9.100000000000001],"max":[2.8200000000000003,-2.225,22.109999999999996]},{"bufferView":68,"componentType":5126,"count":72,"type":"VEC3"},{"bufferView":69,"componentType":5126,"count":72,"type":"VEC2"},{"bufferView":70,"componentType":5125,"count":108,"type":"SCALAR"},{"bufferView":71,"componentType":5126,"count":448,"type":"VEC3","min":[-3.4200000000000004,-4.2,-8.57],"max":[3.4200000000000004,-3.6,21.58]},{"bufferView":72,"componentType":5126,"count":448,"type":"VEC3"},{"bufferView":73,"componentType":5125,"count":672,"type":"SCALAR"},{"bufferView":74,"componentType":5126,"count":1344,"type":"VEC3","min":[-3.72,-4.6899999999999995,-8.540000000000001],"max":[3.72,-2.0999999999999996,21.913451755812876]},{"bufferView":75,"componentType":5126,"count":1344,"type":"VEC3"},{"bufferView":76,"componentType":5125,"count":2016,"type":"SCALAR"},{"bufferView":77,"componentType":5126,"count":72,"type":"VEC3","min":[-29.25,-1.866342689165818,-16.49123429728118],"max":[-2.25,0.8048670062196429,7.4]},{"bufferView":78,"componentType":5126,"count":72,"type":"VEC3"},{"bufferView":79,"componentType":5125,"count":72,"type":"SCALAR"},{"bufferView":80,"componentType":5126,"count":144,"type":"VEC3","min":[-29.25,-1.556761617019492,-21.830000000000002],"max":[-2.25,0.7954012385054159,-9.65399674405361]},{"bufferView":81,"componentType":5126,"count":144,"type":"VEC3"},{"bufferView":82,"componentType":5125,"count":144,"type":"SCALAR"},{"bufferView":83,"componentType":5126,"count":24,"type":"VEC3","min":[-29.25,-0.6295718657015847,-20.442500000000003],"max":[-2.25,0.9055805404056096,-5.175602260574182]},{"bufferView":84,"componentType":5126,"count":24,"type":"VEC3"},{"bufferView":85,"componentType":5125,"count":24,"type":"SCALAR"},{"bufferView":86,"componentType":5126,"count":24,"type":"VEC3","min":[-11.7,1.1400000000000001,-36.26],"max":[-1.2000000000000002,1.8600000000000003,-30.709999999999997]},{"bufferView":87,"componentType":5126,"count":24,"type":"VEC3"},{"bufferView":88,"componentType":5125,"count":36,"type":"SCALAR"},{"bufferView":89,"componentType":5126,"count":72,"type":"VEC3","min":[2.25,-1.866342689165818,-16.49123429728118],"max":[29.25,0.8048670062196429,7.4]},{"bufferView":90,"componentType":5126,"count":72,"type":"VEC3"},{"bufferView":91,"componentType":5125,"count":72,"type":"SCALAR"},{"bufferView":92,"componentType":5126,"count":144,"type":"VEC3","min":[2.25,-1.556761617019492,-21.830000000000002],"max":[29.25,0.7954012385054159,-9.65399674405361]},{"bufferView":93,"componentType":5126,"count":144,"type":"VEC3"},{"bufferView":94,"componentType":5125,"count":144,"type":"SCALAR"},{"bufferView":95,"componentType":5126,"count":24,"type":"VEC3","min":[2.25,-0.6295718657015847,-20.442500000000003],"max":[29.25,0.9055805404056096,-5.175602260574182]},{"bufferView":96,"componentType":5126,"count":24,"type":"VEC3"},{"bufferView":97,"componentType":5125,"count":24,"type":"SCALAR"},{"bufferView":98,"componentType":5126,"count":24,"type":"VEC3","min":[1.2000000000000002,1.1400000000000001,-36.26],"max":[11.7,1.8600000000000003,-30.709999999999997]},{"bufferView":99,"componentType":5126,"count":24,"type":"VEC3"},{"bufferView":100,"componentType":5125,"count":36,"type":"SCALAR"},{"bufferView":101,"componentType":5126,"count":14,"type":"VEC3","min":[0,1.12,-36.63],"max":[0,11.959999999999999,-33.152]},{"bufferView":102,"componentType":5126,"count":14,"type":"VEC3"},{"bufferView":103,"componentType":5125,"count":36,"type":"SCALAR"},{"bufferView":104,"componentType":5126,"count":132,"type":"VEC3","min":[-0.41100000000000003,-0.22000000000000003,-0.22000000000000003],"max":[0.41100000000000003,0.22000000000000003,0.22000000000000003]},{"bufferView":105,"componentType":5126,"count":132,"type":"VEC3"},{"bufferView":106,"componentType":5125,"count":384,"type":"SCALAR"},{"bufferView":107,"componentType":5126,"count":132,"type":"VEC3","min":[-0.41100000000000003,-0.28600000000000003,-0.28600000000000003],"max":[0.41100000000000003,0.28600000000000003,0.28600000000000003]},{"bufferView":108,"componentType":5126,"count":132,"type":"VEC3"},{"bufferView":109,"componentType":5125,"count":384,"type":"SCALAR"},{"bufferView":110,"componentType":5126,"count":132,"type":"VEC3","min":[-0.41100000000000003,-0.28600000000000003,-0.28600000000000003],"max":[0.41100000000000003,0.28600000000000003,0.28600000000000003]},{"bufferView":111,"componentType":5126,"count":132,"type":"VEC3"},{"bufferView":112,"componentType":5125,"count":384,"type":"SCALAR"},{"bufferView":113,"componentType":5126,"count":132,"type":"VEC3","min":[-0.41100000000000003,-0.28600000000000003,-0.28600000000000003],"max":[0.41100000000000003,0.28600000000000003,0.28600000000000003]},{"bufferView":114,"componentType":5126,"count":132,"type":"VEC3"},{"bufferView":115,"componentType":5125,"count":384,"type":"SCALAR"},{"bufferView":116,"componentType":5126,"count":132,"type":"VEC3","min":[-0.41100000000000003,-0.28600000000000003,-0.28600000000000003],"max":[0.41100000000000003,0.28600000000000003,0.28600000000000003]},{"bufferView":117,"componentType":5126,"count":132,"type":"VEC3"},{"bufferView":118,"componentType":5125,"count":384,"type":"SCALAR"},{"bufferView":119,"componentType":5126,"count":132,"type":"VEC3","min":[-0.41100000000000003,-0.28600000000000003,-0.28600000000000003],"max":[0.41100000000000003,0.28600000000000003,0.28600000000000003]},{"bufferView":120,"componentType":5126,"count":132,"type":"VEC3"},{"bufferView":121,"componentType":5125,"count":384,"type":"SCALAR"},{"bufferView":122,"componentType":5126,"count":132,"type":"VEC3","min":[-0.41100000000000003,-0.28600000000000003,-0.28600000000000003],"max":[0.41100000000000003,0.28600000000000003,0.28600000000000003]},{"bufferView":123,"componentType":5126,"count":132,"type":"VEC3"},{"bufferView":124,"componentType":5125,"count":384,"type":"SCALAR"},{"bufferView":125,"componentType":5126,"count":576,"type":"VEC3","min":[-2.8268569095257443,1.08,-8.879999999999999],"max":[2.8268569095257443,1.83,18.5]},{"bufferView":126,"componentType":5126,"count":576,"type":"VEC3"},{"bufferView":127,"componentType":5126,"count":576,"type":"VEC2"}],"images":[{"uri":"../../airlines/BAW.png"},{"uri":"fallback-paint-v5.png"},{"uri":"title-BAW.png"}],"textures":[{"source":0,"sampler":0},{"source":1,"sampler":0},{"source":2,"sampler":0}],"samplers":[{"magFilter":9729,"minFilter":9987,"wrapS":33071,"wrapT":33071}]}