{"asset":{"version":"2.0","generator":"Skyward detailed procedural a35k fallback v5; approximate airframe; operator identification logos"},"scene":0,"scenes":[{"nodes":[0,1,5,6,7,8]}],"nodes":[{"mesh":0},{"mesh":1,"name":"Gear","children":[2,3,4]},{"mesh":2,"name":"WheelN","translation":[0,-4.6,21.459999999999997]},{"mesh":3,"name":"WheelL","translation":[-2.4000000000000004,-4.6,-7.4]},{"mesh":4,"name":"WheelR","translation":[2.4000000000000004,-4.6,-7.4]},{"mesh":5,"name":"FlexWingL"},{"mesh":6,"name":"FlexWingR"},{"mesh":7,"name":"SkywardFan0"},{"mesh":8,"name":"SkywardFan1"}],"meshes":[{"name":"AirframeWithCockpitGlazing","primitives":[{"indices":3,"attributes":{"POSITION":0,"NORMAL":1,"TEXCOORD_0":2},"material":0},{"indices":6,"attributes":{"POSITION":4,"NORMAL":5},"material":1},{"indices":9,"attributes":{"POSITION":7,"NORMAL":8},"material":2},{"attributes":{"POSITION":10,"NORMAL":11},"material":3},{"indices":15,"attributes":{"POSITION":12,"NORMAL":13,"TEXCOORD_0":14},"material":5},{"indices":18,"attributes":{"POSITION":16,"NORMAL":17},"material":6},{"indices":21,"attributes":{"POSITION":19,"NORMAL":20},"material":7}]},{"primitives":[{"indices":57,"attributes":{"POSITION":55,"NORMAL":56},"material":1,"extras":{"gear":true}},{"indices":60,"attributes":{"POSITION":58,"NORMAL":59},"material":6,"extras":{"gear":true}}]},{"primitives":[{"indices":24,"attributes":{"POSITION":22,"NORMAL":23},"material":4,"extras":{"wheel":0}}]},{"primitives":[{"indices":27,"attributes":{"POSITION":25,"NORMAL":26},"material":4,"extras":{"wheel":1}}]},{"primitives":[{"indices":30,"attributes":{"POSITION":28,"NORMAL":29},"material":4,"extras":{"wheel":2}}]},{"primitives":[{"indices":33,"attributes":{"POSITION":31,"NORMAL":32},"material":1,"extras":{"wing":0}},{"indices":36,"attributes":{"POSITION":34,"NORMAL":35},"material":2,"extras":{"wing":0}},{"indices":39,"attributes":{"POSITION":37,"NORMAL":38},"material":6,"extras":{"wing":0}}]},{"primitives":[{"indices":42,"attributes":{"POSITION":40,"NORMAL":41},"material":1,"extras":{"wing":1}},{"indices":45,"attributes":{"POSITION":43,"NORMAL":44},"material":2,"extras":{"wing":1}},{"indices":48,"attributes":{"POSITION":46,"NORMAL":47},"material":6,"extras":{"wing":1}}]},{"primitives":[{"indices":51,"attributes":{"POSITION":49,"NORMAL":50},"material":6,"extras":{"fan":0}}]},{"primitives":[{"indices":54,"attributes":{"POSITION":52,"NORMAL":53},"material":6,"extras":{"fan":1}}]}],"materials":[{"doubleSided":true,"pbrMetallicRoughness":{"baseColorFactor":[0.94,0.95,0.96,1],"metallicFactor":0.04,"roughnessFactor":0.27,"baseColorTexture":{"index":1}}},{"doubleSided":true,"pbrMetallicRoughness":{"baseColorFactor":[0.64,0.68,0.72,1],"metallicFactor":0.04,"roughnessFactor":0.4}},{"doubleSided":true,"pbrMetallicRoughness":{"baseColorFactor":[0.09019607843137255,0.23529411764705882,0.4470588235294118,1],"metallicFactor":0.04,"roughnessFactor":0.27}},{"doubleSided":true,"pbrMetallicRoughness":{"baseColorFactor":[0.02,0.055,0.085,1],"metallicFactor":0,"roughnessFactor":0.12}},{"doubleSided":true,"pbrMetallicRoughness":{"baseColorFactor":[0.07,0.08,0.09,1],"metallicFactor":0,"roughnessFactor":0.86}},{"doubleSided":true,"pbrMetallicRoughness":{"baseColorFactor":[1,1,1,1],"metallicFactor":0,"roughnessFactor":0.75,"baseColorTexture":{"index":0}},"alphaMode":"MASK","alphaCutoff":0.08},{"doubleSided":true,"pbrMetallicRoughness":{"baseColorFactor":[0.36,0.4,0.44,1],"metallicFactor":0.8,"roughnessFactor":0.28}},{"doubleSided":true,"pbrMetallicRoughness":{"baseColorFactor":[0.09019607843137255,0.23529411764705882,0.4470588235294118,1],"metallicFactor":0.04,"roughnessFactor":0.27}}],"buffers":[{"uri":"a35k-v4.bin?tail=2&rig=1&detail=5","byteLength":1218640}],"bufferViews":[{"buffer":0,"byteOffset":0,"byteLength":31980,"target":34962},{"buffer":0,"byteOffset":31980,"byteLength":31980,"target":34962},{"buffer":0,"byteOffset":63960,"byteLength":21320,"target":34962},{"buffer":0,"byteOffset":85280,"byteLength":61440,"target":34963},{"buffer":0,"byteOffset":146720,"byteLength":1080,"target":34962},{"buffer":0,"byteOffset":147800,"byteLength":1080,"target":34962},{"buffer":0,"byteOffset":148880,"byteLength":576,"target":34963},{"buffer":0,"byteOffset":149456,"byteLength":288,"target":34962},{"buffer":0,"byteOffset":149744,"byteLength":288,"target":34962},{"buffer":0,"byteOffset":150032,"byteLength":144,"target":34963},{"buffer":0,"byteOffset":150176,"byteLength":197712,"target":34962},{"buffer":0,"byteOffset":347888,"byteLength":197712,"target":34962},{"buffer":0,"byteOffset":545600,"byteLength":192,"target":34962},{"buffer":0,"byteOffset":545792,"byteLength":192,"target":34962},{"buffer":0,"byteOffset":545984,"byteLength":128,"target":34962},{"buffer":0,"byteOffset":546112,"byteLength":96,"target":34963},{"buffer":0,"byteOffset":546208,"byteLength":36816,"target":34962},{"buffer":0,"byteOffset":583024,"byteLength":36816,"target":34962},{"buffer":0,"byteOffset":619840,"byteLength":34560,"target":34963},{"buffer":0,"byteOffset":654400,"byteLength":20376,"target":34962},{"buffer":0,"byteOffset":674776,"byteLength":20376,"target":34962},{"buffer":0,"byteOffset":695152,"byteLength":36912,"target":34963},{"buffer":0,"byteOffset":732064,"byteLength":14424,"target":34962},{"buffer":0,"byteOffset":746488,"byteLength":14424,"target":34962},{"buffer":0,"byteOffset":760912,"byteLength":7680,"target":34963},{"buffer":0,"byteOffset":768592,"byteLength":14424,"target":34962},{"buffer":0,"byteOffset":783016,"byteLength":14424,"target":34962},{"buffer":0,"byteOffset":797440,"byteLength":7680,"target":34963},{"buffer":0,"byteOffset":805120,"byteLength":14424,"target":34962},{"buffer":0,"byteOffset":819544,"byteLength":14424,"target":34962},{"buffer":0,"byteOffset":833968,"byteLength":7680,"target":34963},{"buffer":0,"byteOffset":841648,"byteLength":42036,"target":34962},{"buffer":0,"byteOffset":883684,"byteLength":42036,"target":34962},{"buffer":0,"byteOffset":925720,"byteLength":59904,"target":34963},{"buffer":0,"byteOffset":985624,"byteLength":336,"target":34962},{"buffer":0,"byteOffset":985960,"byteLength":336,"target":34962},{"buffer":0,"byteOffset":986296,"byteLength":144,"target":34963},{"buffer":0,"byteOffset":986440,"byteLength":432,"target":34962},{"buffer":0,"byteOffset":986872,"byteLength":432,"target":34962},{"buffer":0,"byteOffset":987304,"byteLength":288,"target":34963},{"buffer":0,"byteOffset":987592,"byteLength":42036,"target":34962},{"buffer":0,"byteOffset":1029628,"byteLength":42036,"target":34962},{"buffer":0,"byteOffset":1071664,"byteLength":59904,"target":34963},{"buffer":0,"byteOffset":1131568,"byteLength":336,"target":34962},{"buffer":0,"byteOffset":1131904,"byteLength":336,"target":34962},{"buffer":0,"byteOffset":1132240,"byteLength":144,"target":34963},{"buffer":0,"byteOffset":1132384,"byteLength":432,"target":34962},{"buffer":0,"byteOffset":1132816,"byteLength":432,"target":34962},{"buffer":0,"byteOffset":1133248,"byteLength":288,"target":34963},{"buffer":0,"byteOffset":1133536,"byteLength":9036,"target":34962},{"buffer":0,"byteOffset":1142572,"byteLength":9036,"target":34962},{"buffer":0,"byteOffset":1151608,"byteLength":12960,"target":34963},{"buffer":0,"byteOffset":1164568,"byteLength":9036,"target":34962},{"buffer":0,"byteOffset":1173604,"byteLength":9036,"target":34962},{"buffer":0,"byteOffset":1182640,"byteLength":12960,"target":34963},{"buffer":0,"byteOffset":1195600,"byteLength":2304,"target":34962},{"buffer":0,"byteOffset":1197904,"byteLength":2304,"target":34962},{"buffer":0,"byteOffset":1200208,"byteLength":1152,"target":34963},{"buffer":0,"byteOffset":1201360,"byteLength":6912,"target":34962},{"buffer":0,"byteOffset":1208272,"byteLength":6912,"target":34962},{"buffer":0,"byteOffset":1215184,"byteLength":3456,"target":34963}],"accessors":[{"bufferView":0,"componentType":5126,"count":2665,"type":"VEC3","min":[-3.0,-3.0,-37.0],"max":[3.0,3.0,37.0]},{"bufferView":1,"componentType":5126,"count":2665,"type":"VEC3"},{"bufferView":2,"componentType":5126,"count":2665,"type":"VEC2"},{"bufferView":3,"componentType":5125,"count":15360,"type":"SCALAR"},{"bufferView":4,"componentType":5126,"count":90,"type":"VEC3","min":[-12.49,-3.59,-36.26],"max":[12.209999999999999,1.8800000000000003,3.33]},{"bufferView":5,"componentType":5126,"count":90,"type":"VEC3"},{"bufferView":6,"componentType":5125,"count":144,"type":"SCALAR"},{"bufferView":7,"componentType":5126,"count":24,"type":"VEC3","min":[-0.1,1.2000000000000002,-36.63],"max":[0.1,13.729999999999999,-20.720000000000002]},{"bufferView":8,"componentType":5126,"count":24,"type":"VEC3"},{"bufferView":9,"componentType":5125,"count":36,"type":"SCALAR"},{"bufferView":10,"componentType":5126,"count":16476,"type":"VEC3","min":[-13.934,-5.034,-17.15],"max":[13.934,2.480491612154483,32.782000000000004]},{"bufferView":11,"componentType":5126,"count":16476,"type":"VEC3"},{"bufferView":12,"componentType":5126,"count":16,"type":"VEC3","min":[-3.04,-1.26,-33.152],"max":[3.04,11.214,16.61]},{"bufferView":13,"componentType":5126,"count":16,"type":"VEC3"},{"bufferView":14,"componentType":5126,"count":16,"type":"VEC2"},{"bufferView":15,"componentType":5125,"count":24,"type":"SCALAR"},{"bufferView":16,"componentType":5126,"count":3068,"type":"VEC3","min":[-14.2112,-5.3111999999999995,-17.455],"max":[14.2112,2.4891518661923273,32.782000000000004]},{"bufferView":17,"componentType":5126,"count":3068,"type":"VEC3"},{"bufferView":18,"componentType":5125,"count":8640,"type":"SCALAR"},{"bufferView":19,"componentType":5126,"count":1698,"type":"VEC3","min":[-14.33,-5.43,-14.06],"max":[14.33,-1.4699999999999998,22.2]},{"bufferView":20,"componentType":5126,"count":1698,"type":"VEC3"},{"bufferView":21,"componentType":5125,"count":9228,"type":"SCALAR"},{"bufferView":22,"componentType":5126,"count":1202,"type":"VEC3","min":[-0.25,-0.4,-0.4],"max":[0.25,0.4,0.4]},{"bufferView":23,"componentType":5126,"count":1202,"type":"VEC3"},{"bufferView":24,"componentType":5125,"count":1920,"type":"SCALAR"},{"bufferView":25,"componentType":5126,"count":1202,"type":"VEC3","min":[-0.25,-0.4,-0.4],"max":[0.25,0.4,0.4]},{"bufferView":26,"componentType":5126,"count":1202,"type":"VEC3"},{"bufferView":27,"componentType":5125,"count":1920,"type":"SCALAR"},{"bufferView":28,"componentType":5126,"count":1202,"type":"VEC3","min":[-0.25,-0.4,-0.4],"max":[0.25,0.4,0.4]},{"bufferView":29,"componentType":5126,"count":1202,"type":"VEC3"},{"bufferView":30,"componentType":5125,"count":1920,"type":"SCALAR"},{"bufferView":31,"componentType":5126,"count":3503,"type":"VEC3","min":[-32.5,-2.1785408250911322,-20.90017391304348],"max":[-2.25,1.5464692752063145,7.4]},{"bufferView":32,"componentType":5126,"count":3503,"type":"VEC3"},{"bufferView":33,"componentType":5125,"count":14976,"type":"SCALAR"},{"bufferView":34,"componentType":5126,"count":28,"type":"VEC3","min":[-32.5,0.96,-19.98],"max":[-31.2,3.24,-14.06]},{"bufferView":35,"componentType":5126,"count":28,"type":"VEC3"},{"bufferView":36,"componentType":5125,"count":36,"type":"SCALAR"},{"bufferView":37,"componentType":5126,"count":36,"type":"VEC3","min":[-32.5,-0.780478026994166,-18.62765],"max":[-2.25,1.5179821358785395,-6.186400000000001]},{"bufferView":38,"componentType":5126,"count":36,"type":"VEC3"},{"bufferView":39,"componentType":5125,"count":72,"type":"SCALAR"},{"bufferView":40,"componentType":5126,"count":3503,"type":"VEC3","min":[2.25,-2.1785408250911322,-20.90017391304348],"max":[32.5,1.5464692752063145,7.4]},{"bufferView":41,"componentType":5126,"count":3503,"type":"VEC3"},{"bufferView":42,"componentType":5125,"count":14976,"type":"SCALAR"},{"bufferView":43,"componentType":5126,"count":28,"type":"VEC3","min":[31.2,0.96,-19.98],"max":[32.5,3.24,-14.06]},{"bufferView":44,"componentType":5126,"count":28,"type":"VEC3"},{"bufferView":45,"componentType":5125,"count":36,"type":"SCALAR"},{"bufferView":46,"componentType":5126,"count":36,"type":"VEC3","min":[2.25,-0.780478026994166,-18.62765],"max":[32.5,1.5179821358785395,-6.186400000000001]},{"bufferView":47,"componentType":5126,"count":36,"type":"VEC3"},{"bufferView":48,"componentType":5125,"count":72,"type":"SCALAR"},{"bufferView":49,"componentType":5126,"count":753,"type":"VEC3","min":[-13.874585245415695,-4.974585245415694,2.2492],"max":[-10.825414754584305,-1.9254147545843054,4.07]},{"bufferView":50,"componentType":5126,"count":753,"type":"VEC3"},{"bufferView":51,"componentType":5125,"count":3240,"type":"SCALAR"},{"bufferView":52,"componentType":5126,"count":753,"type":"VEC3","min":[10.825414754584305,-4.974585245415694,2.2492],"max":[13.874585245415695,-1.9254147545843054,4.07]},{"bufferView":53,"componentType":5126,"count":753,"type":"VEC3"},{"bufferView":54,"componentType":5125,"count":3240,"type":"SCALAR"},{"bufferView":55,"componentType":5126,"count":192,"type":"VEC3","min":[-2.5200000000000005,-4.2,-7.5200000000000005],"max":[2.5200000000000005,-3.6,21.58]},{"bufferView":56,"componentType":5126,"count":192,"type":"VEC3"},{"bufferView":57,"componentType":5125,"count":288,"type":"SCALAR"},{"bufferView":58,"componentType":5126,"count":576,"type":"VEC3","min":[-2.6900000000000004,-4.8,-7.6000000000000005],"max":[2.6900000000000004,-2.0999999999999996,21.913451755812876]},{"bufferView":59,"componentType":5126,"count":576,"type":"VEC3"},{"bufferView":60,"componentType":5125,"count":864,"type":"SCALAR"}],"images":[{"uri":"../../airlines/DLH.png"},{"uri":"fallback-paint-v5.png"}],"textures":[{"source":0,"sampler":0},{"source":1,"sampler":0}],"samplers":[{"magFilter":9729,"minFilter":9987,"wrapS":33071,"wrapT":33071}]}