{"asset":{"version":"2.0","generator":"Skyward original illustrative a35k profile; logos for operator identification"},"scene":0,"scenes":[{"nodes":[0,1]}],"nodes":[{"mesh":0},{"mesh":1,"name":"Gear","children":[2,3,4]},{"mesh":2,"name":"WheelN","translation":[0,-4.6,21.459999999999997]},{"mesh":3,"name":"WheelL","translation":[-2.4000000000000004,-4.6,-7.4]},{"mesh":4,"name":"WheelR","translation":[2.4000000000000004,-4.6,-7.4]}],"meshes":[{"primitives":[{"attributes":{"POSITION":0,"NORMAL":1},"material":0},{"attributes":{"POSITION":2,"NORMAL":3},"material":1},{"attributes":{"POSITION":4,"NORMAL":5},"material":2},{"attributes":{"POSITION":6,"NORMAL":7},"material":3},{"attributes":{"POSITION":10,"NORMAL":11,"TEXCOORD_0":12},"material":5},{"attributes":{"POSITION":13,"NORMAL":14},"material":6},{"attributes":{"POSITION":15,"NORMAL":16},"material":7}]},{"primitives":[{"attributes":{"POSITION":8,"NORMAL":9},"material":4}]},{"primitives":[{"attributes":{"POSITION":17,"NORMAL":18},"material":4,"extras":{"wheel":0}}]},{"primitives":[{"attributes":{"POSITION":19,"NORMAL":20},"material":4,"extras":{"wheel":1}}]},{"primitives":[{"attributes":{"POSITION":21,"NORMAL":22},"material":4,"extras":{"wheel":2}}]}],"materials":[{"doubleSided":true,"pbrMetallicRoughness":{"baseColorFactor":[0.94,0.95,0.96,1],"metallicFactor":0.18,"roughnessFactor":0.3}},{"doubleSided":true,"pbrMetallicRoughness":{"baseColorFactor":[0.64,0.68,0.72,1],"metallicFactor":0.18,"roughnessFactor":0.3}},{"doubleSided":true,"pbrMetallicRoughness":{"baseColorFactor":[0.09019607843137255,0.1843137254901961,0.3607843137254902,1],"metallicFactor":0.18,"roughnessFactor":0.3}},{"doubleSided":true,"pbrMetallicRoughness":{"baseColorFactor":[0.02,0.055,0.085,1],"metallicFactor":0.18,"roughnessFactor":0.17}},{"doubleSided":true,"pbrMetallicRoughness":{"baseColorFactor":[0.07,0.08,0.09,1],"metallicFactor":0.18,"roughnessFactor":0.3}},{"doubleSided":true,"pbrMetallicRoughness":{"baseColorFactor":[1,1,1,1],"metallicFactor":0,"roughnessFactor":0.75,"baseColorTexture":{"index":0}},"alphaMode":"BLEND"},{"doubleSided":true,"pbrMetallicRoughness":{"baseColorFactor":[0.36,0.4,0.44,1],"metallicFactor":0.7,"roughnessFactor":0.3}},{"doubleSided":true,"pbrMetallicRoughness":{"baseColorFactor":[0.09019607843137255,0.1843137254901961,0.3607843137254902,1],"metallicFactor":0.18,"roughnessFactor":0.3}}],"buffers":[{"uri":"a35k-v4.bin","byteLength":267744}],"bufferViews":[{"buffer":0,"byteOffset":0,"byteLength":34560,"target":34962},{"buffer":0,"byteOffset":34560,"byteLength":34560,"target":34962},{"buffer":0,"byteOffset":69120,"byteLength":2880,"target":34962},{"buffer":0,"byteOffset":72000,"byteLength":2880,"target":34962},{"buffer":0,"byteOffset":74880,"byteLength":1296,"target":34962},{"buffer":0,"byteOffset":76176,"byteLength":1296,"target":34962},{"buffer":0,"byteOffset":77472,"byteLength":43488,"target":34962},{"buffer":0,"byteOffset":120960,"byteLength":43488,"target":34962},{"buffer":0,"byteOffset":164448,"byteLength":1296,"target":34962},{"buffer":0,"byteOffset":165744,"byteLength":1296,"target":34962},{"buffer":0,"byteOffset":167040,"byteLength":288,"target":34962},{"buffer":0,"byteOffset":167328,"byteLength":288,"target":34962},{"buffer":0,"byteOffset":167616,"byteLength":192,"target":34962},{"buffer":0,"byteOffset":167808,"byteLength":15264,"target":34962},{"buffer":0,"byteOffset":183072,"byteLength":15264,"target":34962},{"buffer":0,"byteOffset":198336,"byteLength":20880,"target":34962},{"buffer":0,"byteOffset":219216,"byteLength":20880,"target":34962},{"buffer":0,"byteOffset":240096,"byteLength":4608,"target":34962},{"buffer":0,"byteOffset":244704,"byteLength":4608,"target":34962},{"buffer":0,"byteOffset":249312,"byteLength":4608,"target":34962},{"buffer":0,"byteOffset":253920,"byteLength":4608,"target":34962},{"buffer":0,"byteOffset":258528,"byteLength":4608,"target":34962},{"buffer":0,"byteOffset":263136,"byteLength":4608,"target":34962}],"accessors":[{"bufferView":0,"componentType":5126,"count":2880,"type":"VEC3","min":[-3.0,-3.0,-37.0],"max":[3.0,3.0,37.0]},{"bufferView":1,"componentType":5126,"count":2880,"type":"VEC3"},{"bufferView":2,"componentType":5126,"count":240,"type":"VEC3","min":[-32.5,-3.59,-36.26],"max":[32.5,1.8800000000000003,7.4]},{"bufferView":3,"componentType":5126,"count":240,"type":"VEC3"},{"bufferView":4,"componentType":5126,"count":108,"type":"VEC3","min":[-32.5,0.96,-36.63],"max":[32.5,13.729999999999999,-14.06]},{"bufferView":5,"componentType":5126,"count":108,"type":"VEC3"},{"bufferView":6,"componentType":5126,"count":3624,"type":"VEC3","min":[-13.934,-5.034,-17.15],"max":[13.934,2.0100000000000002,30.709999999999997]},{"bufferView":7,"componentType":5126,"count":3624,"type":"VEC3"},{"bufferView":8,"componentType":5126,"count":108,"type":"VEC3","min":[-2.5000000000000004,-4.6,-7.5],"max":[2.5000000000000004,-3.0,21.56]},{"bufferView":9,"componentType":5126,"count":108,"type":"VEC3"},{"bufferView":10,"componentType":5126,"count":24,"type":"VEC3","min":[-3.04,-1.26,-33.078],"max":[3.04,10.4,16.61]},{"bufferView":11,"componentType":5126,"count":24,"type":"VEC3"},{"bufferView":12,"componentType":5126,"count":24,"type":"VEC2"},{"bufferView":13,"componentType":5126,"count":1272,"type":"VEC3","min":[-14.2112,-5.3111999999999995,-17.02],"max":[14.2112,1.7999999999999998,20.770000000000003]},{"bufferView":14,"componentType":5126,"count":1272,"type":"VEC3"},{"bufferView":15,"componentType":5126,"count":1740,"type":"VEC3","min":[-14.33,-5.43,-14.06],"max":[14.33,-1.4699999999999998,22.2]},{"bufferView":16,"componentType":5126,"count":1740,"type":"VEC3"},{"bufferView":17,"componentType":5126,"count":384,"type":"VEC3","min":[-0.25,-0.4,-0.4],"max":[0.25,0.4,0.4]},{"bufferView":18,"componentType":5126,"count":384,"type":"VEC3"},{"bufferView":19,"componentType":5126,"count":384,"type":"VEC3","min":[-0.25,-0.4,-0.4],"max":[0.25,0.4,0.4]},{"bufferView":20,"componentType":5126,"count":384,"type":"VEC3"},{"bufferView":21,"componentType":5126,"count":384,"type":"VEC3","min":[-0.25,-0.4,-0.4],"max":[0.25,0.4,0.4]},{"bufferView":22,"componentType":5126,"count":384,"type":"VEC3"}],"images":[{"uri":"../../airlines/SIA.png"}],"textures":[{"source":0,"sampler":0}],"samplers":[{"magFilter":9729,"minFilter":9987,"wrapS":33071,"wrapT":33071}]}