{"asset":{"version":"2.0","generator":"Skyward detailed procedural a380 fallback v6; approximate airframe; operator identification logos"},"scene":0,"scenes":[{"nodes":[0,1,13,14,15,16,17,18,19,20,21,22,23,24,25,26,27]}],"nodes":[{"mesh":0},{"mesh":1,"name":"Gear","children":[2,3,4,5,6,7,8,9,10,11,12]},{"mesh":2,"name":"WheelN","translation":[0,-5.6,21.169999999999998]},{"mesh":3,"name":"WheelL","translation":[-4.4,-5.6,-7.825000000000001]},{"mesh":4,"name":"WheelR","translation":[4.4,-5.6,-7.825000000000001]},{"mesh":5,"name":"WheelL2","translation":[-4.4,-5.6,-6.775]},{"mesh":6,"name":"WheelR2","translation":[4.4,-5.6,-6.775]},{"mesh":7,"name":"WheelBL0","translation":[-1.68,-5.6,-12.73]},{"mesh":8,"name":"WheelBR0","translation":[1.68,-5.6,-12.73]},{"mesh":9,"name":"WheelBL1","translation":[-1.68,-5.6,-11.68]},{"mesh":10,"name":"WheelBR1","translation":[1.68,-5.6,-11.68]},{"mesh":11,"name":"WheelBL2","translation":[-1.68,-5.6,-10.629999999999999]},{"mesh":12,"name":"WheelBR2","translation":[1.68,-5.6,-10.629999999999999]},{"mesh":13,"name":"SlatL"},{"mesh":14,"name":"FlapL"},{"mesh":15,"name":"SpoilerL"},{"mesh":16,"name":"ElevatorL"},{"mesh":17,"name":"SlatR"},{"mesh":18,"name":"FlapR"},{"mesh":19,"name":"SpoilerR"},{"mesh":20,"name":"ElevatorR"},{"mesh":21,"name":"Rudder"},{"mesh":22,"name":"FlexWingL"},{"mesh":23,"name":"FlexWingR"},{"mesh":24,"name":"SkywardFan0"},{"mesh":25,"name":"SkywardFan1"},{"mesh":26,"name":"SkywardFan2"},{"mesh":27,"name":"SkywardFan3"}],"meshes":[{"name":"AirframeWithCockpitGlazing","primitives":[{"indices":3,"attributes":{"POSITION":0,"NORMAL":1,"TEXCOORD_0":2},"material":0},{"indices":6,"attributes":{"POSITION":4,"NORMAL":5},"material":1},{"indices":9,"attributes":{"POSITION":7,"NORMAL":8},"material":2},{"attributes":{"POSITION":10,"NORMAL":11},"material":3},{"indices":15,"attributes":{"POSITION":12,"NORMAL":13,"TEXCOORD_0":14},"material":5},{"indices":18,"attributes":{"POSITION":16,"NORMAL":17},"material":6},{"indices":21,"attributes":{"POSITION":19,"NORMAL":20},"material":7},{"attributes":{"POSITION":155,"NORMAL":156,"TEXCOORD_0":157},"material":8}]},{"primitives":[{"indices":88,"attributes":{"POSITION":85,"NORMAL":86,"TEXCOORD_0":87},"material":0,"extras":{"gear":true}},{"indices":91,"attributes":{"POSITION":89,"NORMAL":90},"material":1,"extras":{"gear":true}},{"indices":94,"attributes":{"POSITION":92,"NORMAL":93},"material":6,"extras":{"gear":true}}]},{"primitives":[{"indices":24,"attributes":{"POSITION":22,"NORMAL":23},"material":4,"extras":{"wheel":0}},{"indices":124,"attributes":{"POSITION":122,"NORMAL":123},"material":6,"extras":{"wheel":0}}]},{"primitives":[{"indices":27,"attributes":{"POSITION":25,"NORMAL":26},"material":4,"extras":{"wheel":1}},{"indices":127,"attributes":{"POSITION":125,"NORMAL":126},"material":6,"extras":{"wheel":1}}]},{"primitives":[{"indices":30,"attributes":{"POSITION":28,"NORMAL":29},"material":4,"extras":{"wheel":2}},{"indices":130,"attributes":{"POSITION":128,"NORMAL":129},"material":6,"extras":{"wheel":2}}]},{"primitives":[{"indices":33,"attributes":{"POSITION":31,"NORMAL":32},"material":4,"extras":{"wheel":3}},{"indices":133,"attributes":{"POSITION":131,"NORMAL":132},"material":6,"extras":{"wheel":3}}]},{"primitives":[{"indices":36,"attributes":{"POSITION":34,"NORMAL":35},"material":4,"extras":{"wheel":4}},{"indices":136,"attributes":{"POSITION":134,"NORMAL":135},"material":6,"extras":{"wheel":4}}]},{"primitives":[{"indices":39,"attributes":{"POSITION":37,"NORMAL":38},"material":4,"extras":{"wheel":5}},{"indices":139,"attributes":{"POSITION":137,"NORMAL":138},"material":6,"extras":{"wheel":5}}]},{"primitives":[{"indices":42,"attributes":{"POSITION":40,"NORMAL":41},"material":4,"extras":{"wheel":6}},{"indices":142,"attributes":{"POSITION":140,"NORMAL":141},"material":6,"extras":{"wheel":6}}]},{"primitives":[{"indices":45,"attributes":{"POSITION":43,"NORMAL":44},"material":4,"extras":{"wheel":7}},{"indices":145,"attributes":{"POSITION":143,"NORMAL":144},"material":6,"extras":{"wheel":7}}]},{"primitives":[{"indices":48,"attributes":{"POSITION":46,"NORMAL":47},"material":4,"extras":{"wheel":8}},{"indices":148,"attributes":{"POSITION":146,"NORMAL":147},"material":6,"extras":{"wheel":8}}]},{"primitives":[{"indices":51,"attributes":{"POSITION":49,"NORMAL":50},"material":4,"extras":{"wheel":9}},{"indices":151,"attributes":{"POSITION":149,"NORMAL":150},"material":6,"extras":{"wheel":9}}]},{"primitives":[{"indices":54,"attributes":{"POSITION":52,"NORMAL":53},"material":4,"extras":{"wheel":10}},{"indices":154,"attributes":{"POSITION":152,"NORMAL":153},"material":6,"extras":{"wheel":10}}]},{"primitives":[{"indices":97,"attributes":{"POSITION":95,"NORMAL":96},"material":1,"extras":{"surface":0}}]},{"primitives":[{"indices":100,"attributes":{"POSITION":98,"NORMAL":99},"material":1,"extras":{"surface":1}}]},{"primitives":[{"indices":103,"attributes":{"POSITION":101,"NORMAL":102},"material":1,"extras":{"surface":2}}]},{"primitives":[{"indices":106,"attributes":{"POSITION":104,"NORMAL":105},"material":1,"extras":{"surface":3}}]},{"primitives":[{"indices":109,"attributes":{"POSITION":107,"NORMAL":108},"material":1,"extras":{"surface":4}}]},{"primitives":[{"indices":112,"attributes":{"POSITION":110,"NORMAL":111},"material":1,"extras":{"surface":5}}]},{"primitives":[{"indices":115,"attributes":{"POSITION":113,"NORMAL":114},"material":1,"extras":{"surface":6}}]},{"primitives":[{"indices":118,"attributes":{"POSITION":116,"NORMAL":117},"material":1,"extras":{"surface":7}}]},{"primitives":[{"indices":121,"attributes":{"POSITION":119,"NORMAL":120},"material":2,"extras":{"surface":8}}]},{"primitives":[{"indices":57,"attributes":{"POSITION":55,"NORMAL":56},"material":1,"extras":{"wing":0}},{"indices":60,"attributes":{"POSITION":58,"NORMAL":59},"material":2,"extras":{"wing":0}},{"indices":63,"attributes":{"POSITION":61,"NORMAL":62},"material":6,"extras":{"wing":0}}]},{"primitives":[{"indices":66,"attributes":{"POSITION":64,"NORMAL":65},"material":1,"extras":{"wing":1}},{"indices":69,"attributes":{"POSITION":67,"NORMAL":68},"material":2,"extras":{"wing":1}},{"indices":72,"attributes":{"POSITION":70,"NORMAL":71},"material":6,"extras":{"wing":1}}]},{"primitives":[{"indices":75,"attributes":{"POSITION":73,"NORMAL":74},"material":6,"extras":{"fan":0}}]},{"primitives":[{"indices":78,"attributes":{"POSITION":76,"NORMAL":77},"material":6,"extras":{"fan":1}}]},{"primitives":[{"indices":81,"attributes":{"POSITION":79,"NORMAL":80},"material":6,"extras":{"fan":2}}]},{"primitives":[{"indices":84,"attributes":{"POSITION":82,"NORMAL":83},"material":6,"extras":{"fan":3}}]}],"materials":[{"doubleSided":true,"pbrMetallicRoughness":{"baseColorFactor":[0.94,0.95,0.96,1],"metallicFactor":0.04,"roughnessFactor":0.27,"baseColorTexture":{"index":1}}},{"doubleSided":true,"pbrMetallicRoughness":{"baseColorFactor":[0.64,0.68,0.72,1],"metallicFactor":0.04,"roughnessFactor":0.4}},{"doubleSided":true,"pbrMetallicRoughness":{"baseColorFactor":[0.8980392156862745,0.7137254901960784,0.12549019607843137,1],"metallicFactor":0.04,"roughnessFactor":0.27}},{"doubleSided":true,"pbrMetallicRoughness":{"baseColorFactor":[0.02,0.055,0.085,1],"metallicFactor":0,"roughnessFactor":0.12}},{"doubleSided":true,"pbrMetallicRoughness":{"baseColorFactor":[0.07,0.08,0.09,1],"metallicFactor":0,"roughnessFactor":0.86}},{"doubleSided":true,"pbrMetallicRoughness":{"baseColorFactor":[1,1,1,1],"metallicFactor":0,"roughnessFactor":0.75,"baseColorTexture":{"index":0}},"alphaMode":"MASK","alphaCutoff":0.08},{"doubleSided":true,"pbrMetallicRoughness":{"baseColorFactor":[0.36,0.4,0.44,1],"metallicFactor":0.8,"roughnessFactor":0.28}},{"doubleSided":true,"pbrMetallicRoughness":{"baseColorFactor":[0.8980392156862745,0.7137254901960784,0.12549019607843137,1],"metallicFactor":0.04,"roughnessFactor":0.27}},{"name":"Operator title","doubleSided":true,"alphaMode":"MASK","alphaCutoff":0.15,"pbrMetallicRoughness":{"baseColorTexture":{"index":2},"baseColorFactor":[0.8980392156862745,0.7137254901960784,0.12549019607843137,1],"roughnessFactor":0.6,"metallicFactor":0}}],"buffers":[{"uri":"a380-v4.bin?tail=2&rig=1&detail=6","byteLength":2436832},{"uri":"a380-title.bin?detail=6","byteLength":18432}],"bufferViews":[{"buffer":0,"byteOffset":0,"byteLength":31980,"target":34962},{"buffer":0,"byteOffset":31980,"byteLength":31980,"target":34962},{"buffer":0,"byteOffset":63960,"byteLength":21320,"target":34962},{"buffer":0,"byteOffset":85280,"byteLength":61440,"target":34963},{"buffer":0,"byteOffset":146720,"byteLength":1488,"target":34962},{"buffer":0,"byteOffset":148208,"byteLength":1488,"target":34962},{"buffer":0,"byteOffset":149696,"byteLength":864,"target":34963},{"buffer":0,"byteOffset":150560,"byteLength":288,"target":34962},{"buffer":0,"byteOffset":150848,"byteLength":288,"target":34962},{"buffer":0,"byteOffset":151136,"byteLength":144,"target":34963},{"buffer":0,"byteOffset":151280,"byteLength":373248,"target":34962},{"buffer":0,"byteOffset":524528,"byteLength":373248,"target":34962},{"buffer":0,"byteOffset":897776,"byteLength":192,"target":34962},{"buffer":0,"byteOffset":897968,"byteLength":192,"target":34962},{"buffer":0,"byteOffset":898160,"byteLength":128,"target":34962},{"buffer":0,"byteOffset":898288,"byteLength":96,"target":34963},{"buffer":0,"byteOffset":898384,"byteLength":74160,"target":34962},{"buffer":0,"byteOffset":972544,"byteLength":74160,"target":34962},{"buffer":0,"byteOffset":1046704,"byteLength":86784,"target":34963},{"buffer":0,"byteOffset":1133488,"byteLength":40656,"target":34962},{"buffer":0,"byteOffset":1174144,"byteLength":40656,"target":34962},{"buffer":0,"byteOffset":1214800,"byteLength":73776,"target":34963},{"buffer":0,"byteOffset":1288576,"byteLength":21504,"target":34962},{"buffer":0,"byteOffset":1310080,"byteLength":21504,"target":34962},{"buffer":0,"byteOffset":1331584,"byteLength":10752,"target":34963},{"buffer":0,"byteOffset":1342336,"byteLength":21504,"target":34962},{"buffer":0,"byteOffset":1363840,"byteLength":21504,"target":34962},{"buffer":0,"byteOffset":1385344,"byteLength":10752,"target":34963},{"buffer":0,"byteOffset":1396096,"byteLength":21504,"target":34962},{"buffer":0,"byteOffset":1417600,"byteLength":21504,"target":34962},{"buffer":0,"byteOffset":1439104,"byteLength":10752,"target":34963},{"buffer":0,"byteOffset":1449856,"byteLength":21504,"target":34962},{"buffer":0,"byteOffset":1471360,"byteLength":21504,"target":34962},{"buffer":0,"byteOffset":1492864,"byteLength":10752,"target":34963},{"buffer":0,"byteOffset":1503616,"byteLength":21504,"target":34962},{"buffer":0,"byteOffset":1525120,"byteLength":21504,"target":34962},{"buffer":0,"byteOffset":1546624,"byteLength":10752,"target":34963},{"buffer":0,"byteOffset":1557376,"byteLength":21504,"target":34962},{"buffer":0,"byteOffset":1578880,"byteLength":21504,"target":34962},{"buffer":0,"byteOffset":1600384,"byteLength":10752,"target":34963},{"buffer":0,"byteOffset":1611136,"byteLength":21504,"target":34962},{"buffer":0,"byteOffset":1632640,"byteLength":21504,"target":34962},{"buffer":0,"byteOffset":1654144,"byteLength":10752,"target":34963},{"buffer":0,"byteOffset":1664896,"byteLength":21504,"target":34962},{"buffer":0,"byteOffset":1686400,"byteLength":21504,"target":34962},{"buffer":0,"byteOffset":1707904,"byteLength":10752,"target":34963},{"buffer":0,"byteOffset":1718656,"byteLength":21504,"target":34962},{"buffer":0,"byteOffset":1740160,"byteLength":21504,"target":34962},{"buffer":0,"byteOffset":1761664,"byteLength":10752,"target":34963},{"buffer":0,"byteOffset":1772416,"byteLength":21504,"target":34962},{"buffer":0,"byteOffset":1793920,"byteLength":21504,"target":34962},{"buffer":0,"byteOffset":1815424,"byteLength":10752,"target":34963},{"buffer":0,"byteOffset":1826176,"byteLength":21504,"target":34962},{"buffer":0,"byteOffset":1847680,"byteLength":21504,"target":34962},{"buffer":0,"byteOffset":1869184,"byteLength":10752,"target":34963},{"buffer":0,"byteOffset":1879936,"byteLength":39156,"target":34962},{"buffer":0,"byteOffset":1919092,"byteLength":39156,"target":34962},{"buffer":0,"byteOffset":1958248,"byteLength":58944,"target":34963},{"buffer":0,"byteOffset":2017192,"byteLength":336,"target":34962},{"buffer":0,"byteOffset":2017528,"byteLength":336,"target":34962},{"buffer":0,"byteOffset":2017864,"byteLength":144,"target":34963},{"buffer":0,"byteOffset":2018008,"byteLength":432,"target":34962},{"buffer":0,"byteOffset":2018440,"byteLength":432,"target":34962},{"buffer":0,"byteOffset":2018872,"byteLength":288,"target":34963},{"buffer":0,"byteOffset":2019160,"byteLength":39156,"target":34962},{"buffer":0,"byteOffset":2058316,"byteLength":39156,"target":34962},{"buffer":0,"byteOffset":2097472,"byteLength":58944,"target":34963},{"buffer":0,"byteOffset":2156416,"byteLength":336,"target":34962},{"buffer":0,"byteOffset":2156752,"byteLength":336,"target":34962},{"buffer":0,"byteOffset":2157088,"byteLength":144,"target":34963},{"buffer":0,"byteOffset":2157232,"byteLength":432,"target":34962},{"buffer":0,"byteOffset":2157664,"byteLength":432,"target":34962},{"buffer":0,"byteOffset":2158096,"byteLength":288,"target":34963},{"buffer":0,"byteOffset":2158384,"byteLength":9036,"target":34962},{"buffer":0,"byteOffset":2167420,"byteLength":9036,"target":34962},{"buffer":0,"byteOffset":2176456,"byteLength":12960,"target":34963},{"buffer":0,"byteOffset":2189416,"byteLength":9036,"target":34962},{"buffer":0,"byteOffset":2198452,"byteLength":9036,"target":34962},{"buffer":0,"byteOffset":2207488,"byteLength":12960,"target":34963},{"buffer":0,"byteOffset":2220448,"byteLength":9036,"target":34962},{"buffer":0,"byteOffset":2229484,"byteLength":9036,"target":34962},{"buffer":0,"byteOffset":2238520,"byteLength":12960,"target":34963},{"buffer":0,"byteOffset":2251480,"byteLength":9036,"target":34962},{"buffer":0,"byteOffset":2260516,"byteLength":9036,"target":34962},{"buffer":0,"byteOffset":2269552,"byteLength":12960,"target":34963},{"buffer":0,"byteOffset":2282512,"byteLength":864,"target":34962},{"buffer":0,"byteOffset":2283376,"byteLength":864,"target":34962},{"buffer":0,"byteOffset":2284240,"byteLength":576,"target":34962},{"buffer":0,"byteOffset":2284816,"byteLength":432,"target":34963},{"buffer":0,"byteOffset":2285248,"byteLength":8448,"target":34962},{"buffer":0,"byteOffset":2293696,"byteLength":8448,"target":34962},{"buffer":0,"byteOffset":2302144,"byteLength":4224,"target":34963},{"buffer":0,"byteOffset":2306368,"byteLength":25344,"target":34962},{"buffer":0,"byteOffset":2331712,"byteLength":25344,"target":34962},{"buffer":0,"byteOffset":2357056,"byteLength":12672,"target":34963},{"buffer":0,"byteOffset":2369728,"byteLength":864,"target":34962},{"buffer":0,"byteOffset":2370592,"byteLength":864,"target":34962},{"buffer":0,"byteOffset":2371456,"byteLength":288,"target":34963},{"buffer":0,"byteOffset":2371744,"byteLength":1728,"target":34962},{"buffer":0,"byteOffset":2373472,"byteLength":1728,"target":34962},{"buffer":0,"byteOffset":2375200,"byteLength":576,"target":34963},{"buffer":0,"byteOffset":2375776,"byteLength":288,"target":34962},{"buffer":0,"byteOffset":2376064,"byteLength":288,"target":34962},{"buffer":0,"byteOffset":2376352,"byteLength":96,"target":34963},{"buffer":0,"byteOffset":2376448,"byteLength":288,"target":34962},{"buffer":0,"byteOffset":2376736,"byteLength":288,"target":34962},{"buffer":0,"byteOffset":2377024,"byteLength":144,"target":34963},{"buffer":0,"byteOffset":2377168,"byteLength":864,"target":34962},{"buffer":0,"byteOffset":2378032,"byteLength":864,"target":34962},{"buffer":0,"byteOffset":2378896,"byteLength":288,"target":34963},{"buffer":0,"byteOffset":2379184,"byteLength":1728,"target":34962},{"buffer":0,"byteOffset":2380912,"byteLength":1728,"target":34962},{"buffer":0,"byteOffset":2382640,"byteLength":576,"target":34963},{"buffer":0,"byteOffset":2383216,"byteLength":288,"target":34962},{"buffer":0,"byteOffset":2383504,"byteLength":288,"target":34962},{"buffer":0,"byteOffset":2383792,"byteLength":96,"target":34963},{"buffer":0,"byteOffset":2383888,"byteLength":288,"target":34962},{"buffer":0,"byteOffset":2384176,"byteLength":288,"target":34962},{"buffer":0,"byteOffset":2384464,"byteLength":144,"target":34963},{"buffer":0,"byteOffset":2384608,"byteLength":168,"target":34962},{"buffer":0,"byteOffset":2384776,"byteLength":168,"target":34962},{"buffer":0,"byteOffset":2384944,"byteLength":144,"target":34963},{"buffer":0,"byteOffset":2385088,"byteLength":1584,"target":34962},{"buffer":0,"byteOffset":2386672,"byteLength":1584,"target":34962},{"buffer":0,"byteOffset":2388256,"byteLength":1536,"target":34963},{"buffer":0,"byteOffset":2389792,"byteLength":1584,"target":34962},{"buffer":0,"byteOffset":2391376,"byteLength":1584,"target":34962},{"buffer":0,"byteOffset":2392960,"byteLength":1536,"target":34963},{"buffer":0,"byteOffset":2394496,"byteLength":1584,"target":34962},{"buffer":0,"byteOffset":2396080,"byteLength":1584,"target":34962},{"buffer":0,"byteOffset":2397664,"byteLength":1536,"target":34963},{"buffer":0,"byteOffset":2399200,"byteLength":1584,"target":34962},{"buffer":0,"byteOffset":2400784,"byteLength":1584,"target":34962},{"buffer":0,"byteOffset":2402368,"byteLength":1536,"target":34963},{"buffer":0,"byteOffset":2403904,"byteLength":1584,"target":34962},{"buffer":0,"byteOffset":2405488,"byteLength":1584,"target":34962},{"buffer":0,"byteOffset":2407072,"byteLength":1536,"target":34963},{"buffer":0,"byteOffset":2408608,"byteLength":1584,"target":34962},{"buffer":0,"byteOffset":2410192,"byteLength":1584,"target":34962},{"buffer":0,"byteOffset":2411776,"byteLength":1536,"target":34963},{"buffer":0,"byteOffset":2413312,"byteLength":1584,"target":34962},{"buffer":0,"byteOffset":2414896,"byteLength":1584,"target":34962},{"buffer":0,"byteOffset":2416480,"byteLength":1536,"target":34963},{"buffer":0,"byteOffset":2418016,"byteLength":1584,"target":34962},{"buffer":0,"byteOffset":2419600,"byteLength":1584,"target":34962},{"buffer":0,"byteOffset":2421184,"byteLength":1536,"target":34963},{"buffer":0,"byteOffset":2422720,"byteLength":1584,"target":34962},{"buffer":0,"byteOffset":2424304,"byteLength":1584,"target":34962},{"buffer":0,"byteOffset":2425888,"byteLength":1536,"target":34963},{"buffer":0,"byteOffset":2427424,"byteLength":1584,"target":34962},{"buffer":0,"byteOffset":2429008,"byteLength":1584,"target":34962},{"buffer":0,"byteOffset":2430592,"byteLength":1536,"target":34963},{"buffer":0,"byteOffset":2432128,"byteLength":1584,"target":34962},{"buffer":0,"byteOffset":2433712,"byteLength":1584,"target":34962},{"buffer":0,"byteOffset":2435296,"byteLength":1536,"target":34963},{"buffer":1,"byteOffset":0,"byteLength":6912,"target":34962},{"buffer":1,"byteOffset":6912,"byteLength":6912,"target":34962},{"buffer":1,"byteOffset":13824,"byteLength":4608,"target":34962}],"accessors":[{"bufferView":0,"componentType":5126,"count":2665,"type":"VEC3","min":[-4.0,-4.72,-36.5],"max":[4.0,4.72,36.5]},{"bufferView":1,"componentType":5126,"count":2665,"type":"VEC3"},{"bufferView":2,"componentType":5126,"count":2665,"type":"VEC2"},{"bufferView":3,"componentType":5125,"count":15360,"type":"SCALAR"},{"bufferView":4,"componentType":5126,"count":124,"type":"VEC3","min":[-25.740000000000002,-4.739999999999999,-33.945],"max":[25.46,2.2800000000000002,3.285]},{"bufferView":5,"componentType":5126,"count":124,"type":"VEC3"},{"bufferView":6,"componentType":5125,"count":216,"type":"SCALAR"},{"bufferView":7,"componentType":5126,"count":24,"type":"VEC3","min":[-0.1,1.6,-33.945],"max":[0.1,12.76,-20.44]},{"bufferView":8,"componentType":5126,"count":24,"type":"VEC3"},{"bufferView":9,"componentType":5125,"count":36,"type":"SCALAR"},{"bufferView":10,"componentType":5126,"count":31104,"type":"VEC3","min":[-27.328000000000003,-6.327999999999999,-16.919999999999998],"max":[27.328000000000003,3.890717853397622,32.339]},{"bufferView":11,"componentType":5126,"count":31104,"type":"VEC3"},{"bufferView":12,"componentType":5126,"count":16,"type":"VEC3","min":[-4.04,-1.68,-32.704],"max":[4.04,10.4824,17.27]},{"bufferView":13,"componentType":5126,"count":16,"type":"VEC3"},{"bufferView":14,"componentType":5126,"count":16,"type":"VEC2"},{"bufferView":15,"componentType":5125,"count":24,"type":"SCALAR"},{"bufferView":16,"componentType":5126,"count":6180,"type":"VEC3","min":[-27.721120000000003,-6.721119999999999,-17.224999999999998],"max":[27.721120000000003,3.900936953162278,32.339]},{"bufferView":17,"componentType":5126,"count":6180,"type":"VEC3"},{"bufferView":18,"componentType":5125,"count":21696,"type":"SCALAR"},{"bufferView":19,"componentType":5126,"count":3388,"type":"VEC3","min":[-27.76,-6.76,-13.870000000000001],"max":[27.76,-1.96,21.9]},{"bufferView":20,"componentType":5126,"count":3388,"type":"VEC3"},{"bufferView":21,"componentType":5125,"count":18444,"type":"SCALAR"},{"bufferView":22,"componentType":5126,"count":1792,"type":"VEC3","min":[-0.41000000000000003,-0.4,-0.4],"max":[0.41000000000000003,0.4,0.4]},{"bufferView":23,"componentType":5126,"count":1792,"type":"VEC3"},{"bufferView":24,"componentType":5125,"count":2688,"type":"SCALAR"},{"bufferView":25,"componentType":5126,"count":1792,"type":"VEC3","min":[-0.41000000000000003,-0.52,-0.52],"max":[0.41000000000000003,0.52,0.52]},{"bufferView":26,"componentType":5126,"count":1792,"type":"VEC3"},{"bufferView":27,"componentType":5125,"count":2688,"type":"SCALAR"},{"bufferView":28,"componentType":5126,"count":1792,"type":"VEC3","min":[-0.41000000000000003,-0.52,-0.52],"max":[0.41000000000000003,0.52,0.52]},{"bufferView":29,"componentType":5126,"count":1792,"type":"VEC3"},{"bufferView":30,"componentType":5125,"count":2688,"type":"SCALAR"},{"bufferView":31,"componentType":5126,"count":1792,"type":"VEC3","min":[-0.41000000000000003,-0.52,-0.52],"max":[0.41000000000000003,0.52,0.52]},{"bufferView":32,"componentType":5126,"count":1792,"type":"VEC3"},{"bufferView":33,"componentType":5125,"count":2688,"type":"SCALAR"},{"bufferView":34,"componentType":5126,"count":1792,"type":"VEC3","min":[-0.41000000000000003,-0.52,-0.52],"max":[0.41000000000000003,0.52,0.52]},{"bufferView":35,"componentType":5126,"count":1792,"type":"VEC3"},{"bufferView":36,"componentType":5125,"count":2688,"type":"SCALAR"},{"bufferView":37,"componentType":5126,"count":1792,"type":"VEC3","min":[-0.41000000000000003,-0.52,-0.52],"max":[0.41000000000000003,0.52,0.52]},{"bufferView":38,"componentType":5126,"count":1792,"type":"VEC3"},{"bufferView":39,"componentType":5125,"count":2688,"type":"SCALAR"},{"bufferView":40,"componentType":5126,"count":1792,"type":"VEC3","min":[-0.41000000000000003,-0.52,-0.52],"max":[0.41000000000000003,0.52,0.52]},{"bufferView":41,"componentType":5126,"count":1792,"type":"VEC3"},{"bufferView":42,"componentType":5125,"count":2688,"type":"SCALAR"},{"bufferView":43,"componentType":5126,"count":1792,"type":"VEC3","min":[-0.41000000000000003,-0.52,-0.52],"max":[0.41000000000000003,0.52,0.52]},{"bufferView":44,"componentType":5126,"count":1792,"type":"VEC3"},{"bufferView":45,"componentType":5125,"count":2688,"type":"SCALAR"},{"bufferView":46,"componentType":5126,"count":1792,"type":"VEC3","min":[-0.41000000000000003,-0.52,-0.52],"max":[0.41000000000000003,0.52,0.52]},{"bufferView":47,"componentType":5126,"count":1792,"type":"VEC3"},{"bufferView":48,"componentType":5125,"count":2688,"type":"SCALAR"},{"bufferView":49,"componentType":5126,"count":1792,"type":"VEC3","min":[-0.41000000000000003,-0.52,-0.52],"max":[0.41000000000000003,0.52,0.52]},{"bufferView":50,"componentType":5126,"count":1792,"type":"VEC3"},{"bufferView":51,"componentType":5125,"count":2688,"type":"SCALAR"},{"bufferView":52,"componentType":5126,"count":1792,"type":"VEC3","min":[-0.41000000000000003,-0.52,-0.52],"max":[0.41000000000000003,0.52,0.52]},{"bufferView":53,"componentType":5126,"count":1792,"type":"VEC3"},{"bufferView":54,"componentType":5125,"count":2688,"type":"SCALAR"},{"bufferView":55,"componentType":5126,"count":3263,"type":"VEC3","min":[-40.0,-2.6173443274547656,-20.07817391304348],"max":[-3.0,1.0444899606764997,7.300000000000001]},{"bufferView":56,"componentType":5126,"count":3263,"type":"VEC3"},{"bufferView":57,"componentType":5125,"count":14736,"type":"SCALAR"},{"bufferView":58,"componentType":5126,"count":28,"type":"VEC3","min":[-40.0,0.96,-18.979999999999997],"max":[-38.4,3.24,-13.139999999999999]},{"bufferView":59,"componentType":5126,"count":28,"type":"VEC3"},{"bufferView":60,"componentType":5125,"count":36,"type":"SCALAR"},{"bufferView":61,"componentType":5126,"count":36,"type":"VEC3","min":[-40.0,-1.238066161764515,-17.645925],"max":[-3.0,1.0164958907991,-6.1028]},{"bufferView":62,"componentType":5126,"count":36,"type":"VEC3"},{"bufferView":63,"componentType":5125,"count":72,"type":"SCALAR"},{"bufferView":64,"componentType":5126,"count":3263,"type":"VEC3","min":[3.0,-2.6173443274547656,-20.07817391304348],"max":[40.0,1.0444899606764997,7.300000000000001]},{"bufferView":65,"componentType":5126,"count":3263,"type":"VEC3"},{"bufferView":66,"componentType":5125,"count":14736,"type":"SCALAR"},{"bufferView":67,"componentType":5126,"count":28,"type":"VEC3","min":[38.4,0.96,-18.979999999999997],"max":[40.0,3.24,-13.139999999999999]},{"bufferView":68,"componentType":5126,"count":28,"type":"VEC3"},{"bufferView":69,"componentType":5125,"count":36,"type":"SCALAR"},{"bufferView":70,"componentType":5126,"count":36,"type":"VEC3","min":[3.0,-1.238066161764515,-17.645925],"max":[40.0,1.0164958907991,-6.1028]},{"bufferView":71,"componentType":5126,"count":36,"type":"VEC3"},{"bufferView":72,"componentType":5125,"count":72,"type":"SCALAR"},{"bufferView":73,"componentType":5126,"count":753,"type":"VEC3","min":[-16.863183904089848,-6.263183904089848,2.2064000000000004],"max":[-13.536816095910151,-2.9368160959101512,4.015000000000001]},{"bufferView":74,"componentType":5126,"count":753,"type":"VEC3"},{"bufferView":75,"componentType":5125,"count":3240,"type":"SCALAR"},{"bufferView":76,"componentType":5126,"count":753,"type":"VEC3","min":[-27.26318390408985,-6.263183904089848,-5.4586],"max":[-23.936816095910153,-2.9368160959101512,-3.6499999999999995]},{"bufferView":77,"componentType":5126,"count":753,"type":"VEC3"},{"bufferView":78,"componentType":5125,"count":3240,"type":"SCALAR"},{"bufferView":79,"componentType":5126,"count":753,"type":"VEC3","min":[13.536816095910151,-6.263183904089848,2.2064000000000004],"max":[16.863183904089848,-2.9368160959101512,4.015000000000001]},{"bufferView":80,"componentType":5126,"count":753,"type":"VEC3"},{"bufferView":81,"componentType":5125,"count":3240,"type":"SCALAR"},{"bufferView":82,"componentType":5126,"count":753,"type":"VEC3","min":[23.936816095910153,-6.263183904089848,-5.4586],"max":[27.26318390408985,-2.9368160959101512,-3.6499999999999995]},{"bufferView":83,"componentType":5126,"count":753,"type":"VEC3"},{"bufferView":84,"componentType":5125,"count":3240,"type":"SCALAR"},{"bufferView":85,"componentType":5126,"count":72,"type":"VEC3","min":[-5.0200000000000005,-5.025,-8.475000000000001],"max":[3.9200000000000004,-2.975,21.819999999999997]},{"bufferView":86,"componentType":5126,"count":72,"type":"VEC3"},{"bufferView":87,"componentType":5126,"count":72,"type":"VEC2"},{"bufferView":88,"componentType":5125,"count":108,"type":"SCALAR"},{"bufferView":89,"componentType":5126,"count":704,"type":"VEC3","min":[-4.5200000000000005,-5.2,-12.85],"max":[4.5200000000000005,-4.6,21.29]},{"bufferView":90,"componentType":5126,"count":704,"type":"VEC3"},{"bufferView":91,"componentType":5125,"count":1056,"type":"SCALAR"},{"bufferView":92,"componentType":5126,"count":2112,"type":"VEC3","min":[-4.82,-5.6899999999999995,-12.82],"max":[4.82,-2.8,21.623690288310115]},{"bufferView":93,"componentType":5126,"count":2112,"type":"VEC3"},{"bufferView":94,"componentType":5125,"count":3168,"type":"SCALAR"},{"bufferView":95,"componentType":5126,"count":72,"type":"VEC3","min":[-36.0,-2.3093650852581717,-13.348379779750351],"max":[-3.0,0.8034498845139721,7.300000000000001]},{"bufferView":96,"componentType":5126,"count":72,"type":"VEC3"},{"bufferView":97,"componentType":5125,"count":72,"type":"SCALAR"},{"bufferView":98,"componentType":5126,"count":144,"type":"VEC3","min":[-36.0,-2.0039675411138234,-18.615],"max":[-3.0,0.794112032579667,-9.523537328593424]},{"bufferView":99,"componentType":5126,"count":144,"type":"VEC3"},{"bufferView":100,"componentType":5125,"count":144,"type":"SCALAR"},{"bufferView":101,"componentType":5126,"count":24,"type":"VEC3","min":[-36.0,-1.0855235972461579,-17.246249999999996],"max":[-3.0,0.902802424994723,-5.105661689485341]},{"bufferView":102,"componentType":5126,"count":24,"type":"VEC3"},{"bufferView":103,"componentType":5125,"count":24,"type":"SCALAR"},{"bufferView":104,"componentType":5126,"count":24,"type":"VEC3","min":[-14.399999999999999,1.54,-35.769999999999996],"max":[-1.6,2.2600000000000002,-30.294999999999998]},{"bufferView":105,"componentType":5126,"count":24,"type":"VEC3"},{"bufferView":106,"componentType":5125,"count":36,"type":"SCALAR"},{"bufferView":107,"componentType":5126,"count":72,"type":"VEC3","min":[3.0,-2.3093650852581717,-13.348379779750351],"max":[36.0,0.8034498845139721,7.300000000000001]},{"bufferView":108,"componentType":5126,"count":72,"type":"VEC3"},{"bufferView":109,"componentType":5125,"count":72,"type":"SCALAR"},{"bufferView":110,"componentType":5126,"count":144,"type":"VEC3","min":[3.0,-2.0039675411138234,-18.615],"max":[36.0,0.794112032579667,-9.523537328593424]},{"bufferView":111,"componentType":5126,"count":144,"type":"VEC3"},{"bufferView":112,"componentType":5125,"count":144,"type":"SCALAR"},{"bufferView":113,"componentType":5126,"count":24,"type":"VEC3","min":[3.0,-1.0855235972461579,-17.246249999999996],"max":[36.0,0.902802424994723,-5.105661689485341]},{"bufferView":114,"componentType":5126,"count":24,"type":"VEC3"},{"bufferView":115,"componentType":5125,"count":24,"type":"SCALAR"},{"bufferView":116,"componentType":5126,"count":24,"type":"VEC3","min":[1.6,1.54,-35.769999999999996],"max":[14.399999999999999,2.2600000000000002,-30.294999999999998]},{"bufferView":117,"componentType":5126,"count":24,"type":"VEC3"},{"bufferView":118,"componentType":5125,"count":36,"type":"SCALAR"},{"bufferView":119,"componentType":5126,"count":14,"type":"VEC3","min":[0,1.52,-36.135],"max":[0,12.84,-32.704]},{"bufferView":120,"componentType":5126,"count":14,"type":"VEC3"},{"bufferView":121,"componentType":5125,"count":36,"type":"SCALAR"},{"bufferView":122,"componentType":5126,"count":132,"type":"VEC3","min":[-0.41100000000000003,-0.22000000000000003,-0.22000000000000003],"max":[0.41100000000000003,0.22000000000000003,0.22000000000000003]},{"bufferView":123,"componentType":5126,"count":132,"type":"VEC3"},{"bufferView":124,"componentType":5125,"count":384,"type":"SCALAR"},{"bufferView":125,"componentType":5126,"count":132,"type":"VEC3","min":[-0.41100000000000003,-0.28600000000000003,-0.28600000000000003],"max":[0.41100000000000003,0.28600000000000003,0.28600000000000003]},{"bufferView":126,"componentType":5126,"count":132,"type":"VEC3"},{"bufferView":127,"componentType":5125,"count":384,"type":"SCALAR"},{"bufferView":128,"componentType":5126,"count":132,"type":"VEC3","min":[-0.41100000000000003,-0.28600000000000003,-0.28600000000000003],"max":[0.41100000000000003,0.28600000000000003,0.28600000000000003]},{"bufferView":129,"componentType":5126,"count":132,"type":"VEC3"},{"bufferView":130,"componentType":5125,"count":384,"type":"SCALAR"},{"bufferView":131,"componentType":5126,"count":132,"type":"VEC3","min":[-0.41100000000000003,-0.28600000000000003,-0.28600000000000003],"max":[0.41100000000000003,0.28600000000000003,0.28600000000000003]},{"bufferView":132,"componentType":5126,"count":132,"type":"VEC3"},{"bufferView":133,"componentType":5125,"count":384,"type":"SCALAR"},{"bufferView":134,"componentType":5126,"count":132,"type":"VEC3","min":[-0.41100000000000003,-0.28600000000000003,-0.28600000000000003],"max":[0.41100000000000003,0.28600000000000003,0.28600000000000003]},{"bufferView":135,"componentType":5126,"count":132,"type":"VEC3"},{"bufferView":136,"componentType":5125,"count":384,"type":"SCALAR"},{"bufferView":137,"componentType":5126,"count":132,"type":"VEC3","min":[-0.41100000000000003,-0.28600000000000003,-0.28600000000000003],"max":[0.41100000000000003,0.28600000000000003,0.28600000000000003]},{"bufferView":138,"componentType":5126,"count":132,"type":"VEC3"},{"bufferView":139,"componentType":5125,"count":384,"type":"SCALAR"},{"bufferView":140,"componentType":5126,"count":132,"type":"VEC3","min":[-0.41100000000000003,-0.28600000000000003,-0.28600000000000003],"max":[0.41100000000000003,0.28600000000000003,0.28600000000000003]},{"bufferView":141,"componentType":5126,"count":132,"type":"VEC3"},{"bufferView":142,"componentType":5125,"count":384,"type":"SCALAR"},{"bufferView":143,"componentType":5126,"count":132,"type":"VEC3","min":[-0.41100000000000003,-0.28600000000000003,-0.28600000000000003],"max":[0.41100000000000003,0.28600000000000003,0.28600000000000003]},{"bufferView":144,"componentType":5126,"count":132,"type":"VEC3"},{"bufferView":145,"componentType":5125,"count":384,"type":"SCALAR"},{"bufferView":146,"componentType":5126,"count":132,"type":"VEC3","min":[-0.41100000000000003,-0.28600000000000003,-0.28600000000000003],"max":[0.41100000000000003,0.28600000000000003,0.28600000000000003]},{"bufferView":147,"componentType":5126,"count":132,"type":"VEC3"},{"bufferView":148,"componentType":5125,"count":384,"type":"SCALAR"},{"bufferView":149,"componentType":5126,"count":132,"type":"VEC3","min":[-0.41100000000000003,-0.28600000000000003,-0.28600000000000003],"max":[0.41100000000000003,0.28600000000000003,0.28600000000000003]},{"bufferView":150,"componentType":5126,"count":132,"type":"VEC3"},{"bufferView":151,"componentType":5125,"count":384,"type":"SCALAR"},{"bufferView":152,"componentType":5126,"count":132,"type":"VEC3","min":[-0.41100000000000003,-0.28600000000000003,-0.28600000000000003],"max":[0.41100000000000003,0.28600000000000003,0.28600000000000003]},{"bufferView":153,"componentType":5126,"count":132,"type":"VEC3"},{"bufferView":154,"componentType":5125,"count":384,"type":"SCALAR"},{"bufferView":155,"componentType":5126,"count":576,"type":"VEC3","min":[-3.7598092127009926,1.6991999999999998,-8.76],"max":[3.7598092127009926,2.8792,18.25]},{"bufferView":156,"componentType":5126,"count":576,"type":"VEC3"},{"bufferView":157,"componentType":5126,"count":576,"type":"VEC2"}],"images":[{"uri":"../../airlines/PGT.png"},{"uri":"fallback-paint-v5.png"},{"uri":"title-PGT.png"}],"textures":[{"source":0,"sampler":0},{"source":1,"sampler":0},{"source":2,"sampler":0}],"samplers":[{"magFilter":9729,"minFilter":9987,"wrapS":33071,"wrapT":33071}]}