{"asset":{"version":"2.0","generator":"Skyward original illustrative a380 profile; logos for operator identification"},"scene":0,"scenes":[{"nodes":[0,1]}],"nodes":[{"mesh":0},{"mesh":1,"name":"Gear","children":[2,3,4]},{"mesh":2,"name":"WheelN","translation":[0,-5.6,21.169999999999998]},{"mesh":3,"name":"WheelL","translation":[-3.2,-5.6,-7.300000000000001]},{"mesh":4,"name":"WheelR","translation":[3.2,-5.6,-7.300000000000001]}],"meshes":[{"primitives":[{"attributes":{"POSITION":0,"NORMAL":1},"material":0},{"attributes":{"POSITION":2,"NORMAL":3},"material":1},{"attributes":{"POSITION":4,"NORMAL":5},"material":2},{"attributes":{"POSITION":6,"NORMAL":7},"material":3},{"attributes":{"POSITION":10,"NORMAL":11,"TEXCOORD_0":12},"material":5},{"attributes":{"POSITION":13,"NORMAL":14},"material":6},{"attributes":{"POSITION":15,"NORMAL":16},"material":7}]},{"primitives":[{"attributes":{"POSITION":8,"NORMAL":9},"material":4}]},{"primitives":[{"attributes":{"POSITION":17,"NORMAL":18},"material":4,"extras":{"wheel":0}}]},{"primitives":[{"attributes":{"POSITION":19,"NORMAL":20},"material":4,"extras":{"wheel":1}}]},{"primitives":[{"attributes":{"POSITION":21,"NORMAL":22},"material":4,"extras":{"wheel":2}}]}],"materials":[{"doubleSided":true,"pbrMetallicRoughness":{"baseColorFactor":[0.94,0.95,0.96,1],"metallicFactor":0.18,"roughnessFactor":0.3}},{"doubleSided":true,"pbrMetallicRoughness":{"baseColorFactor":[0.64,0.68,0.72,1],"metallicFactor":0.18,"roughnessFactor":0.3}},{"doubleSided":true,"pbrMetallicRoughness":{"baseColorFactor":[0.4470588235294118,0.11764705882352941,0.28627450980392155,1],"metallicFactor":0.18,"roughnessFactor":0.3}},{"doubleSided":true,"pbrMetallicRoughness":{"baseColorFactor":[0.02,0.055,0.085,1],"metallicFactor":0.18,"roughnessFactor":0.17}},{"doubleSided":true,"pbrMetallicRoughness":{"baseColorFactor":[0.07,0.08,0.09,1],"metallicFactor":0.18,"roughnessFactor":0.3}},{"doubleSided":true,"pbrMetallicRoughness":{"baseColorFactor":[1,1,1,1],"metallicFactor":0,"roughnessFactor":0.75,"baseColorTexture":{"index":0}},"alphaMode":"MASK","alphaCutoff":0.08},{"doubleSided":true,"pbrMetallicRoughness":{"baseColorFactor":[0.36,0.4,0.44,1],"metallicFactor":0.7,"roughnessFactor":0.3}},{"doubleSided":true,"pbrMetallicRoughness":{"baseColorFactor":[0.4470588235294118,0.11764705882352941,0.28627450980392155,1],"metallicFactor":0.18,"roughnessFactor":0.3}}],"buffers":[{"uri":"a380-v4.bin?tail=2","byteLength":424704}],"bufferViews":[{"buffer":0,"byteOffset":0,"byteLength":34560,"target":34962},{"buffer":0,"byteOffset":34560,"byteLength":34560,"target":34962},{"buffer":0,"byteOffset":69120,"byteLength":3744,"target":34962},{"buffer":0,"byteOffset":72864,"byteLength":3744,"target":34962},{"buffer":0,"byteOffset":76608,"byteLength":1296,"target":34962},{"buffer":0,"byteOffset":77904,"byteLength":1296,"target":34962},{"buffer":0,"byteOffset":79200,"byteLength":85392,"target":34962},{"buffer":0,"byteOffset":164592,"byteLength":85392,"target":34962},{"buffer":0,"byteOffset":249984,"byteLength":1296,"target":34962},{"buffer":0,"byteOffset":251280,"byteLength":1296,"target":34962},{"buffer":0,"byteOffset":252576,"byteLength":288,"target":34962},{"buffer":0,"byteOffset":252864,"byteLength":288,"target":34962},{"buffer":0,"byteOffset":253152,"byteLength":192,"target":34962},{"buffer":0,"byteOffset":253344,"byteLength":30240,"target":34962},{"buffer":0,"byteOffset":283584,"byteLength":30240,"target":34962},{"buffer":0,"byteOffset":313824,"byteLength":41616,"target":34962},{"buffer":0,"byteOffset":355440,"byteLength":41616,"target":34962},{"buffer":0,"byteOffset":397056,"byteLength":4608,"target":34962},{"buffer":0,"byteOffset":401664,"byteLength":4608,"target":34962},{"buffer":0,"byteOffset":406272,"byteLength":4608,"target":34962},{"buffer":0,"byteOffset":410880,"byteLength":4608,"target":34962},{"buffer":0,"byteOffset":415488,"byteLength":4608,"target":34962},{"buffer":0,"byteOffset":420096,"byteLength":4608,"target":34962}],"accessors":[{"bufferView":0,"componentType":5126,"count":2880,"type":"VEC3","min":[-4.0,-4.72,-36.5],"max":[4.0,4.72,36.5]},{"bufferView":1,"componentType":5126,"count":2880,"type":"VEC3"},{"bufferView":2,"componentType":5126,"count":312,"type":"VEC3","min":[-40.0,-4.739999999999999,-35.769999999999996],"max":[40.0,2.2800000000000002,7.300000000000001]},{"bufferView":3,"componentType":5126,"count":312,"type":"VEC3"},{"bufferView":4,"componentType":5126,"count":108,"type":"VEC3","min":[-40.0,0.96,-36.135],"max":[40.0,14.584999999999999,-13.870000000000001]},{"bufferView":5,"componentType":5126,"count":108,"type":"VEC3"},{"bufferView":6,"componentType":5126,"count":7116,"type":"VEC3","min":[-27.328000000000003,-6.327999999999999,-16.919999999999998],"max":[27.328000000000003,2.98,30.294999999999998]},{"bufferView":7,"componentType":5126,"count":7116,"type":"VEC3"},{"bufferView":8,"componentType":5126,"count":108,"type":"VEC3","min":[-3.3000000000000003,-5.6,-7.4],"max":[3.3000000000000003,-4.0,21.27]},{"bufferView":9,"componentType":5126,"count":108,"type":"VEC3"},{"bufferView":10,"componentType":5126,"count":24,"type":"VEC3","min":[-4.04,-1.68,-32.704],"max":[4.04,12.103,17.27]},{"bufferView":11,"componentType":5126,"count":24,"type":"VEC3"},{"bufferView":12,"componentType":5126,"count":24,"type":"VEC2"},{"bufferView":13,"componentType":5126,"count":2520,"type":"VEC3","min":[-27.6304,-6.6304,-16.79],"max":[27.6304,2.4,20.490000000000002]},{"bufferView":14,"componentType":5126,"count":2520,"type":"VEC3"},{"bufferView":15,"componentType":5126,"count":3468,"type":"VEC3","min":[-27.76,-6.76,-13.870000000000001],"max":[27.76,-1.96,21.9]},{"bufferView":16,"componentType":5126,"count":3468,"type":"VEC3"},{"bufferView":17,"componentType":5126,"count":384,"type":"VEC3","min":[-0.25,-0.4,-0.4],"max":[0.25,0.4,0.4]},{"bufferView":18,"componentType":5126,"count":384,"type":"VEC3"},{"bufferView":19,"componentType":5126,"count":384,"type":"VEC3","min":[-0.25,-0.4,-0.4],"max":[0.25,0.4,0.4]},{"bufferView":20,"componentType":5126,"count":384,"type":"VEC3"},{"bufferView":21,"componentType":5126,"count":384,"type":"VEC3","min":[-0.25,-0.4,-0.4],"max":[0.25,0.4,0.4]},{"bufferView":22,"componentType":5126,"count":384,"type":"VEC3"}],"images":[{"uri":"../../airlines/QTR.png"}],"textures":[{"source":0,"sampler":0}],"samplers":[{"magFilter":9729,"minFilter":9987,"wrapS":33071,"wrapT":33071}]}