{"asset":{"version":"2.0","generator":"Skyward original illustrative a380 profile; logos for operator identification"},"scene":0,"scenes":[{"nodes":[0,1]}],"nodes":[{"mesh":0},{"mesh":1,"name":"Gear"}],"meshes":[{"primitives":[{"attributes":{"POSITION":0,"NORMAL":1},"material":0},{"attributes":{"POSITION":2,"NORMAL":3},"material":1},{"attributes":{"POSITION":4,"NORMAL":5},"material":2},{"attributes":{"POSITION":6,"NORMAL":7},"material":3},{"attributes":{"POSITION":10,"NORMAL":11,"TEXCOORD_0":12},"material":5},{"attributes":{"POSITION":13,"NORMAL":14},"material":6}]},{"primitives":[{"attributes":{"POSITION":8,"NORMAL":9},"material":4}]}],"materials":[{"doubleSided":true,"pbrMetallicRoughness":{"baseColorFactor":[0.94,0.95,0.96,1],"metallicFactor":0.18,"roughnessFactor":0.3}},{"doubleSided":true,"pbrMetallicRoughness":{"baseColorFactor":[0.64,0.68,0.72,1],"metallicFactor":0.18,"roughnessFactor":0.3}},{"doubleSided":true,"pbrMetallicRoughness":{"baseColorFactor":[0.14901960784313725,0.24705882352941178,0.5058823529411764,1],"metallicFactor":0.18,"roughnessFactor":0.3}},{"doubleSided":true,"pbrMetallicRoughness":{"baseColorFactor":[0.02,0.055,0.085,1],"metallicFactor":0.18,"roughnessFactor":0.17}},{"doubleSided":true,"pbrMetallicRoughness":{"baseColorFactor":[0.07,0.08,0.09,1],"metallicFactor":0.18,"roughnessFactor":0.3}},{"doubleSided":true,"pbrMetallicRoughness":{"baseColorFactor":[1,1,1,1],"metallicFactor":0,"roughnessFactor":0.75,"baseColorTexture":{"index":0}},"alphaMode":"BLEND"},{"doubleSided":true,"pbrMetallicRoughness":{"baseColorFactor":[0.36,0.4,0.44,1],"metallicFactor":0.7,"roughnessFactor":0.3}}],"buffers":[{"uri":"a380-v2.bin","byteLength":399360}],"bufferViews":[{"buffer":0,"byteOffset":0,"byteLength":76032,"target":34962},{"buffer":0,"byteOffset":76032,"byteLength":76032,"target":34962},{"buffer":0,"byteOffset":152064,"byteLength":3744,"target":34962},{"buffer":0,"byteOffset":155808,"byteLength":3744,"target":34962},{"buffer":0,"byteOffset":159552,"byteLength":1296,"target":34962},{"buffer":0,"byteOffset":160848,"byteLength":1296,"target":34962},{"buffer":0,"byteOffset":162144,"byteLength":85392,"target":34962},{"buffer":0,"byteOffset":247536,"byteLength":85392,"target":34962},{"buffer":0,"byteOffset":332928,"byteLength":2592,"target":34962},{"buffer":0,"byteOffset":335520,"byteLength":2592,"target":34962},{"buffer":0,"byteOffset":338112,"byteLength":288,"target":34962},{"buffer":0,"byteOffset":338400,"byteLength":288,"target":34962},{"buffer":0,"byteOffset":338688,"byteLength":192,"target":34962},{"buffer":0,"byteOffset":338880,"byteLength":30240,"target":34962},{"buffer":0,"byteOffset":369120,"byteLength":30240,"target":34962}],"accessors":[{"bufferView":0,"componentType":5126,"count":6336,"type":"VEC3","min":[-27.76,-6.76,-36.5],"max":[27.76,4.72,36.5]},{"bufferView":1,"componentType":5126,"count":6336,"type":"VEC3"},{"bufferView":2,"componentType":5126,"count":312,"type":"VEC3","min":[-40.0,-4.739999999999999,-35.769999999999996],"max":[40.0,2.2800000000000002,7.300000000000001]},{"bufferView":3,"componentType":5126,"count":312,"type":"VEC3"},{"bufferView":4,"componentType":5126,"count":108,"type":"VEC3","min":[-40.0,0.96,-36.135],"max":[40.0,14.584999999999999,-13.870000000000001]},{"bufferView":5,"componentType":5126,"count":108,"type":"VEC3"},{"bufferView":6,"componentType":5126,"count":7116,"type":"VEC3","min":[-27.328000000000003,-6.327999999999999,-16.919999999999998],"max":[27.328000000000003,2.98,30.294999999999998]},{"bufferView":7,"componentType":5126,"count":7116,"type":"VEC3"},{"bufferView":8,"componentType":5126,"count":216,"type":"VEC3","min":[-3.5,-6.0,-7.680000000000001],"max":[3.5,-4.0,21.549999999999997]},{"bufferView":9,"componentType":5126,"count":216,"type":"VEC3"},{"bufferView":10,"componentType":5126,"count":24,"type":"VEC3","min":[-4.04,-1.68,-32.631],"max":[4.04,11.3,17.27]},{"bufferView":11,"componentType":5126,"count":24,"type":"VEC3"},{"bufferView":12,"componentType":5126,"count":24,"type":"VEC2"},{"bufferView":13,"componentType":5126,"count":2520,"type":"VEC3","min":[-27.6304,-6.6304,-16.79],"max":[27.6304,2.4,20.490000000000002]},{"bufferView":14,"componentType":5126,"count":2520,"type":"VEC3"}],"images":[{"uri":"../../airlines/BAW.png"}],"textures":[{"source":0,"sampler":0}],"samplers":[{"magFilter":9729,"minFilter":9987,"wrapS":33071,"wrapT":33071}]}