{"asset":{"version":"2.0","generator":"Skyward original illustrative profile; airline-inspired paint, no official logos"},"scene":0,"scenes":[{"nodes":[0,1]}],"nodes":[{"mesh":0},{"mesh":1,"name":"Gear"}],"meshes":[{"primitives":[{"attributes":{"POSITION":0,"NORMAL":1},"material":0},{"attributes":{"POSITION":2,"NORMAL":3},"material":1},{"attributes":{"POSITION":4,"NORMAL":5},"material":2},{"attributes":{"POSITION":6,"NORMAL":7},"material":3}]},{"primitives":[{"attributes":{"POSITION":8,"NORMAL":9},"material":4}]}],"materials":[{"doubleSided":true,"pbrMetallicRoughness":{"baseColorFactor":[0.91,0.94,0.96,1],"metallicFactor":0.15,"roughnessFactor":0.45}},{"doubleSided":true,"pbrMetallicRoughness":{"baseColorFactor":[0.52,0.6,0.66,1],"metallicFactor":0.15,"roughnessFactor":0.45}},{"doubleSided":true,"pbrMetallicRoughness":{"baseColorFactor":[0.4470588235294118,0.11764705882352941,0.28627450980392155,1],"metallicFactor":0.15,"roughnessFactor":0.45}},{"doubleSided":true,"pbrMetallicRoughness":{"baseColorFactor":[0.025,0.06,0.09,1],"metallicFactor":0.15,"roughnessFactor":0.45}},{"doubleSided":true,"pbrMetallicRoughness":{"baseColorFactor":[0.08,0.1,0.12,1],"metallicFactor":0.15,"roughnessFactor":0.45}}],"buffers":[{"uri":"a380.bin","byteLength":55224}],"bufferViews":[{"buffer":0,"byteOffset":0,"byteLength":12960,"target":34962},{"buffer":0,"byteOffset":12960,"byteLength":12960,"target":34962},{"buffer":0,"byteOffset":25920,"byteLength":288,"target":34962},{"buffer":0,"byteOffset":26208,"byteLength":288,"target":34962},{"buffer":0,"byteOffset":26496,"byteLength":108,"target":34962},{"buffer":0,"byteOffset":26604,"byteLength":108,"target":34962},{"buffer":0,"byteOffset":26712,"byteLength":11664,"target":34962},{"buffer":0,"byteOffset":38376,"byteLength":11664,"target":34962},{"buffer":0,"byteOffset":50040,"byteLength":2592,"target":34962},{"buffer":0,"byteOffset":52632,"byteLength":2592,"target":34962}],"accessors":[{"bufferView":0,"componentType":5126,"count":1080,"type":"VEC3","min":[-27.8,-6.6000000000000005,-36.5],"max":[27.8,4.0,36.5]},{"bufferView":1,"componentType":5126,"count":1080,"type":"VEC3"},{"bufferView":2,"componentType":5126,"count":24,"type":"VEC3","min":[-40.0,-2.0,-35.769999999999996],"max":[40.0,1.4,5.84]},{"bufferView":3,"componentType":5126,"count":24,"type":"VEC3"},{"bufferView":4,"componentType":5126,"count":9,"type":"VEC3","min":[-40.0,0,-35.769999999999996],"max":[40.0,14.22,-11.68]},{"bufferView":5,"componentType":5126,"count":9,"type":"VEC3"},{"bufferView":6,"componentType":5126,"count":972,"type":"VEC3","min":[-27.536,-6.336,-18],"max":[27.536,3.08,30.66]},{"bufferView":7,"componentType":5126,"count":972,"type":"VEC3"},{"bufferView":8,"componentType":5126,"count":216,"type":"VEC3","min":[-3.6,-6.6,-7.9],"max":[3.6,-3.9,21.77]},{"bufferView":9,"componentType":5126,"count":216,"type":"VEC3"}]}