{"asset":{"version":"2.0","generator":"Skyward detailed procedural a380 fallback v5; approximate airframe; operator identification logos"},"scene":0,"scenes":[{"nodes":[0,1,5,6,7,8,9,10]}],"nodes":[{"mesh":0},{"mesh":1,"name":"Gear","children":[2,3,4]},{"mesh":2,"name":"WheelN","translation":[0,-5.6,21.169999999999998]},{"mesh":3,"name":"WheelL","translation":[-3.2,-5.6,-7.300000000000001]},{"mesh":4,"name":"WheelR","translation":[3.2,-5.6,-7.300000000000001]},{"mesh":5,"name":"FlexWingL"},{"mesh":6,"name":"FlexWingR"},{"mesh":7,"name":"SkywardFan0"},{"mesh":8,"name":"SkywardFan1"},{"mesh":9,"name":"SkywardFan2"},{"mesh":10,"name":"SkywardFan3"}],"meshes":[{"name":"AirframeWithCockpitGlazing","primitives":[{"indices":3,"attributes":{"POSITION":0,"NORMAL":1,"TEXCOORD_0":2},"material":0},{"indices":6,"attributes":{"POSITION":4,"NORMAL":5},"material":1},{"indices":9,"attributes":{"POSITION":7,"NORMAL":8},"material":2},{"attributes":{"POSITION":10,"NORMAL":11},"material":3},{"indices":15,"attributes":{"POSITION":12,"NORMAL":13,"TEXCOORD_0":14},"material":5},{"indices":18,"attributes":{"POSITION":16,"NORMAL":17},"material":6},{"indices":21,"attributes":{"POSITION":19,"NORMAL":20},"material":7}]},{"primitives":[{"indices":63,"attributes":{"POSITION":61,"NORMAL":62},"material":1,"extras":{"gear":true}},{"indices":66,"attributes":{"POSITION":64,"NORMAL":65},"material":6,"extras":{"gear":true}}]},{"primitives":[{"indices":24,"attributes":{"POSITION":22,"NORMAL":23},"material":4,"extras":{"wheel":0}}]},{"primitives":[{"indices":27,"attributes":{"POSITION":25,"NORMAL":26},"material":4,"extras":{"wheel":1}}]},{"primitives":[{"indices":30,"attributes":{"POSITION":28,"NORMAL":29},"material":4,"extras":{"wheel":2}}]},{"primitives":[{"indices":33,"attributes":{"POSITION":31,"NORMAL":32},"material":1,"extras":{"wing":0}},{"indices":36,"attributes":{"POSITION":34,"NORMAL":35},"material":2,"extras":{"wing":0}},{"indices":39,"attributes":{"POSITION":37,"NORMAL":38},"material":6,"extras":{"wing":0}}]},{"primitives":[{"indices":42,"attributes":{"POSITION":40,"NORMAL":41},"material":1,"extras":{"wing":1}},{"indices":45,"attributes":{"POSITION":43,"NORMAL":44},"material":2,"extras":{"wing":1}},{"indices":48,"attributes":{"POSITION":46,"NORMAL":47},"material":6,"extras":{"wing":1}}]},{"primitives":[{"indices":51,"attributes":{"POSITION":49,"NORMAL":50},"material":6,"extras":{"fan":0}}]},{"primitives":[{"indices":54,"attributes":{"POSITION":52,"NORMAL":53},"material":6,"extras":{"fan":1}}]},{"primitives":[{"indices":57,"attributes":{"POSITION":55,"NORMAL":56},"material":6,"extras":{"fan":2}}]},{"primitives":[{"indices":60,"attributes":{"POSITION":58,"NORMAL":59},"material":6,"extras":{"fan":3}}]}],"materials":[{"doubleSided":true,"pbrMetallicRoughness":{"baseColorFactor":[0.94,0.95,0.96,1],"metallicFactor":0.04,"roughnessFactor":0.27,"baseColorTexture":{"index":1}}},{"doubleSided":true,"pbrMetallicRoughness":{"baseColorFactor":[0.64,0.68,0.72,1],"metallicFactor":0.04,"roughnessFactor":0.4}},{"doubleSided":true,"pbrMetallicRoughness":{"baseColorFactor":[0.08627450980392157,0.27058823529411763,0.48627450980392156,1],"metallicFactor":0.04,"roughnessFactor":0.27}},{"doubleSided":true,"pbrMetallicRoughness":{"baseColorFactor":[0.02,0.055,0.085,1],"metallicFactor":0,"roughnessFactor":0.12}},{"doubleSided":true,"pbrMetallicRoughness":{"baseColorFactor":[0.07,0.08,0.09,1],"metallicFactor":0,"roughnessFactor":0.86}},{"doubleSided":true,"pbrMetallicRoughness":{"baseColorFactor":[1,1,1,1],"metallicFactor":0,"roughnessFactor":0.75,"baseColorTexture":{"index":0}},"alphaMode":"MASK","alphaCutoff":0.08},{"doubleSided":true,"pbrMetallicRoughness":{"baseColorFactor":[0.36,0.4,0.44,1],"metallicFactor":0.8,"roughnessFactor":0.28}},{"doubleSided":true,"pbrMetallicRoughness":{"baseColorFactor":[0.08627450980392157,0.27058823529411763,0.48627450980392156,1],"metallicFactor":0.04,"roughnessFactor":0.27}}],"buffers":[{"uri":"a380-v4.bin?tail=2&rig=1&detail=5","byteLength":1766080}],"bufferViews":[{"buffer":0,"byteOffset":0,"byteLength":31980,"target":34962},{"buffer":0,"byteOffset":31980,"byteLength":31980,"target":34962},{"buffer":0,"byteOffset":63960,"byteLength":21320,"target":34962},{"buffer":0,"byteOffset":85280,"byteLength":61440,"target":34963},{"buffer":0,"byteOffset":146720,"byteLength":1488,"target":34962},{"buffer":0,"byteOffset":148208,"byteLength":1488,"target":34962},{"buffer":0,"byteOffset":149696,"byteLength":864,"target":34963},{"buffer":0,"byteOffset":150560,"byteLength":288,"target":34962},{"buffer":0,"byteOffset":150848,"byteLength":288,"target":34962},{"buffer":0,"byteOffset":151136,"byteLength":144,"target":34963},{"buffer":0,"byteOffset":151280,"byteLength":373248,"target":34962},{"buffer":0,"byteOffset":524528,"byteLength":373248,"target":34962},{"buffer":0,"byteOffset":897776,"byteLength":192,"target":34962},{"buffer":0,"byteOffset":897968,"byteLength":192,"target":34962},{"buffer":0,"byteOffset":898160,"byteLength":128,"target":34962},{"buffer":0,"byteOffset":898288,"byteLength":96,"target":34963},{"buffer":0,"byteOffset":898384,"byteLength":52416,"target":34962},{"buffer":0,"byteOffset":950800,"byteLength":52416,"target":34962},{"buffer":0,"byteOffset":1003216,"byteLength":59136,"target":34963},{"buffer":0,"byteOffset":1062352,"byteLength":40656,"target":34962},{"buffer":0,"byteOffset":1103008,"byteLength":40656,"target":34962},{"buffer":0,"byteOffset":1143664,"byteLength":73776,"target":34963},{"buffer":0,"byteOffset":1217440,"byteLength":14424,"target":34962},{"buffer":0,"byteOffset":1231864,"byteLength":14424,"target":34962},{"buffer":0,"byteOffset":1246288,"byteLength":7680,"target":34963},{"buffer":0,"byteOffset":1253968,"byteLength":14424,"target":34962},{"buffer":0,"byteOffset":1268392,"byteLength":14424,"target":34962},{"buffer":0,"byteOffset":1282816,"byteLength":7680,"target":34963},{"buffer":0,"byteOffset":1290496,"byteLength":14424,"target":34962},{"buffer":0,"byteOffset":1304920,"byteLength":14424,"target":34962},{"buffer":0,"byteOffset":1319344,"byteLength":7680,"target":34963},{"buffer":0,"byteOffset":1327024,"byteLength":42036,"target":34962},{"buffer":0,"byteOffset":1369060,"byteLength":42036,"target":34962},{"buffer":0,"byteOffset":1411096,"byteLength":59904,"target":34963},{"buffer":0,"byteOffset":1471000,"byteLength":336,"target":34962},{"buffer":0,"byteOffset":1471336,"byteLength":336,"target":34962},{"buffer":0,"byteOffset":1471672,"byteLength":144,"target":34963},{"buffer":0,"byteOffset":1471816,"byteLength":432,"target":34962},{"buffer":0,"byteOffset":1472248,"byteLength":432,"target":34962},{"buffer":0,"byteOffset":1472680,"byteLength":288,"target":34963},{"buffer":0,"byteOffset":1472968,"byteLength":42036,"target":34962},{"buffer":0,"byteOffset":1515004,"byteLength":42036,"target":34962},{"buffer":0,"byteOffset":1557040,"byteLength":59904,"target":34963},{"buffer":0,"byteOffset":1616944,"byteLength":336,"target":34962},{"buffer":0,"byteOffset":1617280,"byteLength":336,"target":34962},{"buffer":0,"byteOffset":1617616,"byteLength":144,"target":34963},{"buffer":0,"byteOffset":1617760,"byteLength":432,"target":34962},{"buffer":0,"byteOffset":1618192,"byteLength":432,"target":34962},{"buffer":0,"byteOffset":1618624,"byteLength":288,"target":34963},{"buffer":0,"byteOffset":1618912,"byteLength":9036,"target":34962},{"buffer":0,"byteOffset":1627948,"byteLength":9036,"target":34962},{"buffer":0,"byteOffset":1636984,"byteLength":12960,"target":34963},{"buffer":0,"byteOffset":1649944,"byteLength":9036,"target":34962},{"buffer":0,"byteOffset":1658980,"byteLength":9036,"target":34962},{"buffer":0,"byteOffset":1668016,"byteLength":12960,"target":34963},{"buffer":0,"byteOffset":1680976,"byteLength":9036,"target":34962},{"buffer":0,"byteOffset":1690012,"byteLength":9036,"target":34962},{"buffer":0,"byteOffset":1699048,"byteLength":12960,"target":34963},{"buffer":0,"byteOffset":1712008,"byteLength":9036,"target":34962},{"buffer":0,"byteOffset":1721044,"byteLength":9036,"target":34962},{"buffer":0,"byteOffset":1730080,"byteLength":12960,"target":34963},{"buffer":0,"byteOffset":1743040,"byteLength":2304,"target":34962},{"buffer":0,"byteOffset":1745344,"byteLength":2304,"target":34962},{"buffer":0,"byteOffset":1747648,"byteLength":1152,"target":34963},{"buffer":0,"byteOffset":1748800,"byteLength":6912,"target":34962},{"buffer":0,"byteOffset":1755712,"byteLength":6912,"target":34962},{"buffer":0,"byteOffset":1762624,"byteLength":3456,"target":34963}],"accessors":[{"bufferView":0,"componentType":5126,"count":2665,"type":"VEC3","min":[-4.0,-4.72,-36.5],"max":[4.0,4.72,36.5]},{"bufferView":1,"componentType":5126,"count":2665,"type":"VEC3"},{"bufferView":2,"componentType":5126,"count":2665,"type":"VEC2"},{"bufferView":3,"componentType":5125,"count":15360,"type":"SCALAR"},{"bufferView":4,"componentType":5126,"count":124,"type":"VEC3","min":[-25.740000000000002,-4.739999999999999,-35.769999999999996],"max":[25.46,2.2800000000000002,3.285]},{"bufferView":5,"componentType":5126,"count":124,"type":"VEC3"},{"bufferView":6,"componentType":5125,"count":216,"type":"SCALAR"},{"bufferView":7,"componentType":5126,"count":24,"type":"VEC3","min":[-0.1,1.6,-36.135],"max":[0.1,14.584999999999999,-20.44]},{"bufferView":8,"componentType":5126,"count":24,"type":"VEC3"},{"bufferView":9,"componentType":5125,"count":36,"type":"SCALAR"},{"bufferView":10,"componentType":5126,"count":31104,"type":"VEC3","min":[-27.328000000000003,-6.327999999999999,-16.919999999999998],"max":[27.328000000000003,3.890717853397622,32.339]},{"bufferView":11,"componentType":5126,"count":31104,"type":"VEC3"},{"bufferView":12,"componentType":5126,"count":16,"type":"VEC3","min":[-4.04,-1.68,-32.704],"max":[4.04,12.103,17.27]},{"bufferView":13,"componentType":5126,"count":16,"type":"VEC3"},{"bufferView":14,"componentType":5126,"count":16,"type":"VEC2"},{"bufferView":15,"componentType":5125,"count":24,"type":"SCALAR"},{"bufferView":16,"componentType":5126,"count":4368,"type":"VEC3","min":[-27.6304,-6.6304,-17.224999999999998],"max":[27.6304,3.900936953162278,32.339]},{"bufferView":17,"componentType":5126,"count":4368,"type":"VEC3"},{"bufferView":18,"componentType":5125,"count":14784,"type":"SCALAR"},{"bufferView":19,"componentType":5126,"count":3388,"type":"VEC3","min":[-27.76,-6.76,-13.870000000000001],"max":[27.76,-1.96,21.9]},{"bufferView":20,"componentType":5126,"count":3388,"type":"VEC3"},{"bufferView":21,"componentType":5125,"count":18444,"type":"SCALAR"},{"bufferView":22,"componentType":5126,"count":1202,"type":"VEC3","min":[-0.25,-0.4,-0.4],"max":[0.25,0.4,0.4]},{"bufferView":23,"componentType":5126,"count":1202,"type":"VEC3"},{"bufferView":24,"componentType":5125,"count":1920,"type":"SCALAR"},{"bufferView":25,"componentType":5126,"count":1202,"type":"VEC3","min":[-0.25,-0.4,-0.4],"max":[0.25,0.4,0.4]},{"bufferView":26,"componentType":5126,"count":1202,"type":"VEC3"},{"bufferView":27,"componentType":5125,"count":1920,"type":"SCALAR"},{"bufferView":28,"componentType":5126,"count":1202,"type":"VEC3","min":[-0.25,-0.4,-0.4],"max":[0.25,0.4,0.4]},{"bufferView":29,"componentType":5126,"count":1202,"type":"VEC3"},{"bufferView":30,"componentType":5125,"count":1920,"type":"SCALAR"},{"bufferView":31,"componentType":5126,"count":3503,"type":"VEC3","min":[-40.0,-2.6173443274547656,-20.617739130434785],"max":[-3.0,1.0444899606764995,7.300000000000001]},{"bufferView":32,"componentType":5126,"count":3503,"type":"VEC3"},{"bufferView":33,"componentType":5125,"count":14976,"type":"SCALAR"},{"bufferView":34,"componentType":5126,"count":28,"type":"VEC3","min":[-40.0,0.96,-19.71],"max":[-38.4,3.24,-13.870000000000001]},{"bufferView":35,"componentType":5126,"count":28,"type":"VEC3"},{"bufferView":36,"componentType":5125,"count":36,"type":"SCALAR"},{"bufferView":37,"componentType":5126,"count":36,"type":"VEC3","min":[-40.0,-1.238066161764515,-18.375925],"max":[-3.0,1.0164958907990997,-6.1028]},{"bufferView":38,"componentType":5126,"count":36,"type":"VEC3"},{"bufferView":39,"componentType":5125,"count":72,"type":"SCALAR"},{"bufferView":40,"componentType":5126,"count":3503,"type":"VEC3","min":[3.0,-2.6173443274547656,-20.617739130434785],"max":[40.0,1.0444899606764995,7.300000000000001]},{"bufferView":41,"componentType":5126,"count":3503,"type":"VEC3"},{"bufferView":42,"componentType":5125,"count":14976,"type":"SCALAR"},{"bufferView":43,"componentType":5126,"count":28,"type":"VEC3","min":[38.4,0.96,-19.71],"max":[40.0,3.24,-13.870000000000001]},{"bufferView":44,"componentType":5126,"count":28,"type":"VEC3"},{"bufferView":45,"componentType":5125,"count":36,"type":"SCALAR"},{"bufferView":46,"componentType":5126,"count":36,"type":"VEC3","min":[3.0,-1.238066161764515,-18.375925],"max":[40.0,1.0164958907990997,-6.1028]},{"bufferView":47,"componentType":5126,"count":36,"type":"VEC3"},{"bufferView":48,"componentType":5125,"count":72,"type":"SCALAR"},{"bufferView":49,"componentType":5126,"count":753,"type":"VEC3","min":[-16.863183904089848,-6.263183904089848,2.2064000000000004],"max":[-13.536816095910151,-2.9368160959101512,4.015000000000001]},{"bufferView":50,"componentType":5126,"count":753,"type":"VEC3"},{"bufferView":51,"componentType":5125,"count":3240,"type":"SCALAR"},{"bufferView":52,"componentType":5126,"count":753,"type":"VEC3","min":[-27.26318390408985,-6.263183904089848,-5.4586],"max":[-23.936816095910153,-2.9368160959101512,-3.6499999999999995]},{"bufferView":53,"componentType":5126,"count":753,"type":"VEC3"},{"bufferView":54,"componentType":5125,"count":3240,"type":"SCALAR"},{"bufferView":55,"componentType":5126,"count":753,"type":"VEC3","min":[13.536816095910151,-6.263183904089848,2.2064000000000004],"max":[16.863183904089848,-2.9368160959101512,4.015000000000001]},{"bufferView":56,"componentType":5126,"count":753,"type":"VEC3"},{"bufferView":57,"componentType":5125,"count":3240,"type":"SCALAR"},{"bufferView":58,"componentType":5126,"count":753,"type":"VEC3","min":[23.936816095910153,-6.263183904089848,-5.4586],"max":[27.26318390408985,-2.9368160959101512,-3.6499999999999995]},{"bufferView":59,"componentType":5126,"count":753,"type":"VEC3"},{"bufferView":60,"componentType":5125,"count":3240,"type":"SCALAR"},{"bufferView":61,"componentType":5126,"count":192,"type":"VEC3","min":[-3.3200000000000003,-5.2,-7.420000000000001],"max":[3.3200000000000003,-4.6,21.29]},{"bufferView":62,"componentType":5126,"count":192,"type":"VEC3"},{"bufferView":63,"componentType":5125,"count":288,"type":"SCALAR"},{"bufferView":64,"componentType":5126,"count":576,"type":"VEC3","min":[-3.49,-5.8,-7.500000000000001],"max":[3.49,-2.8,21.623690288310115]},{"bufferView":65,"componentType":5126,"count":576,"type":"VEC3"},{"bufferView":66,"componentType":5125,"count":864,"type":"SCALAR"}],"images":[{"uri":"../../airlines/RYR.png"},{"uri":"fallback-paint-v5.png"}],"textures":[{"source":0,"sampler":0},{"source":1,"sampler":0}],"samplers":[{"magFilter":9729,"minFilter":9987,"wrapS":33071,"wrapT":33071}]}