{"asset":{"version":"2.0","generator":"Skyward detailed procedural b737 fallback v5; approximate airframe; operator identification logos"},"scene":0,"scenes":[{"nodes":[0,1,5,6,7,8]}],"nodes":[{"mesh":0},{"mesh":1,"name":"Gear","children":[2,3,4]},{"mesh":2,"name":"WheelN","translation":[0,-3.5,11.6]},{"mesh":3,"name":"WheelL","translation":[-1.52,-3.5,-4.0]},{"mesh":4,"name":"WheelR","translation":[1.52,-3.5,-4.0]},{"mesh":5,"name":"FlexWingL"},{"mesh":6,"name":"FlexWingR"},{"mesh":7,"name":"SkywardFan0"},{"mesh":8,"name":"SkywardFan1"}],"meshes":[{"name":"AirframeWithCockpitGlazing","primitives":[{"indices":3,"attributes":{"POSITION":0,"NORMAL":1,"TEXCOORD_0":2},"material":0},{"indices":6,"attributes":{"POSITION":4,"NORMAL":5},"material":1},{"indices":9,"attributes":{"POSITION":7,"NORMAL":8},"material":2},{"attributes":{"POSITION":10,"NORMAL":11},"material":3},{"indices":15,"attributes":{"POSITION":12,"NORMAL":13,"TEXCOORD_0":14},"material":5},{"indices":18,"attributes":{"POSITION":16,"NORMAL":17},"material":6},{"indices":21,"attributes":{"POSITION":19,"NORMAL":20},"material":7}]},{"primitives":[{"indices":57,"attributes":{"POSITION":55,"NORMAL":56},"material":1,"extras":{"gear":true}},{"indices":60,"attributes":{"POSITION":58,"NORMAL":59},"material":6,"extras":{"gear":true}}]},{"primitives":[{"indices":24,"attributes":{"POSITION":22,"NORMAL":23},"material":4,"extras":{"wheel":0}}]},{"primitives":[{"indices":27,"attributes":{"POSITION":25,"NORMAL":26},"material":4,"extras":{"wheel":1}}]},{"primitives":[{"indices":30,"attributes":{"POSITION":28,"NORMAL":29},"material":4,"extras":{"wheel":2}}]},{"primitives":[{"indices":33,"attributes":{"POSITION":31,"NORMAL":32},"material":1,"extras":{"wing":0}},{"indices":36,"attributes":{"POSITION":34,"NORMAL":35},"material":2,"extras":{"wing":0}},{"indices":39,"attributes":{"POSITION":37,"NORMAL":38},"material":6,"extras":{"wing":0}}]},{"primitives":[{"indices":42,"attributes":{"POSITION":40,"NORMAL":41},"material":1,"extras":{"wing":1}},{"indices":45,"attributes":{"POSITION":43,"NORMAL":44},"material":2,"extras":{"wing":1}},{"indices":48,"attributes":{"POSITION":46,"NORMAL":47},"material":6,"extras":{"wing":1}}]},{"primitives":[{"indices":51,"attributes":{"POSITION":49,"NORMAL":50},"material":6,"extras":{"fan":0}}]},{"primitives":[{"indices":54,"attributes":{"POSITION":52,"NORMAL":53},"material":6,"extras":{"fan":1}}]}],"materials":[{"doubleSided":true,"pbrMetallicRoughness":{"baseColorFactor":[0.94,0.95,0.96,1],"metallicFactor":0.04,"roughnessFactor":0.27,"baseColorTexture":{"index":1}}},{"doubleSided":true,"pbrMetallicRoughness":{"baseColorFactor":[0.64,0.68,0.72,1],"metallicFactor":0.04,"roughnessFactor":0.4}},{"doubleSided":true,"pbrMetallicRoughness":{"baseColorFactor":[0.14901960784313725,0.23921568627450981,0.49411764705882355,1],"metallicFactor":0.04,"roughnessFactor":0.27}},{"doubleSided":true,"pbrMetallicRoughness":{"baseColorFactor":[0.02,0.055,0.085,1],"metallicFactor":0,"roughnessFactor":0.12}},{"doubleSided":true,"pbrMetallicRoughness":{"baseColorFactor":[0.07,0.08,0.09,1],"metallicFactor":0,"roughnessFactor":0.86}},{"doubleSided":true,"pbrMetallicRoughness":{"baseColorFactor":[1,1,1,1],"metallicFactor":0,"roughnessFactor":0.75,"baseColorTexture":{"index":0}},"alphaMode":"MASK","alphaCutoff":0.08},{"doubleSided":true,"pbrMetallicRoughness":{"baseColorFactor":[0.36,0.4,0.44,1],"metallicFactor":0.8,"roughnessFactor":0.28}},{"doubleSided":true,"pbrMetallicRoughness":{"baseColorFactor":[0.14901960784313725,0.23921568627450981,0.49411764705882355,1],"metallicFactor":0.04,"roughnessFactor":0.27}}],"buffers":[{"uri":"b737-v4.bin?tail=2&rig=1&detail=5","byteLength":1191280}],"bufferViews":[{"buffer":0,"byteOffset":0,"byteLength":31980,"target":34962},{"buffer":0,"byteOffset":31980,"byteLength":31980,"target":34962},{"buffer":0,"byteOffset":63960,"byteLength":21320,"target":34962},{"buffer":0,"byteOffset":85280,"byteLength":61440,"target":34963},{"buffer":0,"byteOffset":146720,"byteLength":1080,"target":34962},{"buffer":0,"byteOffset":147800,"byteLength":1080,"target":34962},{"buffer":0,"byteOffset":148880,"byteLength":576,"target":34963},{"buffer":0,"byteOffset":149456,"byteLength":288,"target":34962},{"buffer":0,"byteOffset":149744,"byteLength":288,"target":34962},{"buffer":0,"byteOffset":150032,"byteLength":144,"target":34963},{"buffer":0,"byteOffset":150176,"byteLength":184032,"target":34962},{"buffer":0,"byteOffset":334208,"byteLength":184032,"target":34962},{"buffer":0,"byteOffset":518240,"byteLength":192,"target":34962},{"buffer":0,"byteOffset":518432,"byteLength":192,"target":34962},{"buffer":0,"byteOffset":518624,"byteLength":128,"target":34962},{"buffer":0,"byteOffset":518752,"byteLength":96,"target":34963},{"buffer":0,"byteOffset":518848,"byteLength":36816,"target":34962},{"buffer":0,"byteOffset":555664,"byteLength":36816,"target":34962},{"buffer":0,"byteOffset":592480,"byteLength":34560,"target":34963},{"buffer":0,"byteOffset":627040,"byteLength":20376,"target":34962},{"buffer":0,"byteOffset":647416,"byteLength":20376,"target":34962},{"buffer":0,"byteOffset":667792,"byteLength":36912,"target":34963},{"buffer":0,"byteOffset":704704,"byteLength":14424,"target":34962},{"buffer":0,"byteOffset":719128,"byteLength":14424,"target":34962},{"buffer":0,"byteOffset":733552,"byteLength":7680,"target":34963},{"buffer":0,"byteOffset":741232,"byteLength":14424,"target":34962},{"buffer":0,"byteOffset":755656,"byteLength":14424,"target":34962},{"buffer":0,"byteOffset":770080,"byteLength":7680,"target":34963},{"buffer":0,"byteOffset":777760,"byteLength":14424,"target":34962},{"buffer":0,"byteOffset":792184,"byteLength":14424,"target":34962},{"buffer":0,"byteOffset":806608,"byteLength":7680,"target":34963},{"buffer":0,"byteOffset":814288,"byteLength":42036,"target":34962},{"buffer":0,"byteOffset":856324,"byteLength":42036,"target":34962},{"buffer":0,"byteOffset":898360,"byteLength":59904,"target":34963},{"buffer":0,"byteOffset":958264,"byteLength":336,"target":34962},{"buffer":0,"byteOffset":958600,"byteLength":336,"target":34962},{"buffer":0,"byteOffset":958936,"byteLength":144,"target":34963},{"buffer":0,"byteOffset":959080,"byteLength":432,"target":34962},{"buffer":0,"byteOffset":959512,"byteLength":432,"target":34962},{"buffer":0,"byteOffset":959944,"byteLength":288,"target":34963},{"buffer":0,"byteOffset":960232,"byteLength":42036,"target":34962},{"buffer":0,"byteOffset":1002268,"byteLength":42036,"target":34962},{"buffer":0,"byteOffset":1044304,"byteLength":59904,"target":34963},{"buffer":0,"byteOffset":1104208,"byteLength":336,"target":34962},{"buffer":0,"byteOffset":1104544,"byteLength":336,"target":34962},{"buffer":0,"byteOffset":1104880,"byteLength":144,"target":34963},{"buffer":0,"byteOffset":1105024,"byteLength":432,"target":34962},{"buffer":0,"byteOffset":1105456,"byteLength":432,"target":34962},{"buffer":0,"byteOffset":1105888,"byteLength":288,"target":34963},{"buffer":0,"byteOffset":1106176,"byteLength":9036,"target":34962},{"buffer":0,"byteOffset":1115212,"byteLength":9036,"target":34962},{"buffer":0,"byteOffset":1124248,"byteLength":12960,"target":34963},{"buffer":0,"byteOffset":1137208,"byteLength":9036,"target":34962},{"buffer":0,"byteOffset":1146244,"byteLength":9036,"target":34962},{"buffer":0,"byteOffset":1155280,"byteLength":12960,"target":34963},{"buffer":0,"byteOffset":1168240,"byteLength":2304,"target":34962},{"buffer":0,"byteOffset":1170544,"byteLength":2304,"target":34962},{"buffer":0,"byteOffset":1172848,"byteLength":1152,"target":34963},{"buffer":0,"byteOffset":1174000,"byteLength":6912,"target":34962},{"buffer":0,"byteOffset":1180912,"byteLength":6912,"target":34962},{"buffer":0,"byteOffset":1187824,"byteLength":3456,"target":34963}],"accessors":[{"bufferView":0,"componentType":5126,"count":2665,"type":"VEC3","min":[-1.9,-1.9,-20.0],"max":[1.9,1.9,20.0]},{"bufferView":1,"componentType":5126,"count":2665,"type":"VEC3"},{"bufferView":2,"componentType":5126,"count":2665,"type":"VEC2"},{"bufferView":3,"componentType":5125,"count":15360,"type":"SCALAR"},{"bufferView":4,"componentType":5126,"count":90,"type":"VEC3","min":[-6.79,-2.3249999999999997,-19.6],"max":[6.510000000000001,1.44,1.8]},{"bufferView":5,"componentType":5126,"count":90,"type":"VEC3"},{"bufferView":6,"componentType":5125,"count":144,"type":"SCALAR"},{"bufferView":7,"componentType":5126,"count":24,"type":"VEC3","min":[-0.1,0.76,-19.8],"max":[0.1,7.699999999999999,-11.200000000000001]},{"bufferView":8,"componentType":5126,"count":24,"type":"VEC3"},{"bufferView":9,"componentType":5125,"count":36,"type":"SCALAR"},{"bufferView":10,"componentType":5126,"count":15336,"type":"VEC3","min":[-7.4708000000000006,-3.0058,-9.330000000000002],"max":[7.4708000000000006,1.576658294776192,17.72]},{"bufferView":11,"componentType":5126,"count":15336,"type":"VEC3"},{"bufferView":12,"componentType":5126,"count":16,"type":"VEC3","min":[-1.94,-0.7979999999999999,-17.92],"max":[1.94,6.34,9.215]},{"bufferView":13,"componentType":5126,"count":16,"type":"VEC3"},{"bufferView":14,"componentType":5126,"count":16,"type":"VEC2"},{"bufferView":15,"componentType":5125,"count":24,"type":"SCALAR"},{"bufferView":16,"componentType":5126,"count":3068,"type":"VEC3","min":[-7.61444,-3.1494399999999994,-9.635000000000002],"max":[7.61444,1.5853185488140362,17.72]},{"bufferView":17,"componentType":5126,"count":3068,"type":"VEC3"},{"bufferView":18,"componentType":5125,"count":8640,"type":"SCALAR"},{"bufferView":19,"componentType":5126,"count":1698,"type":"VEC3","min":[-7.676,-3.2109999999999994,-7.6],"max":[7.676,-0.9309999999999999,12.0]},{"bufferView":20,"componentType":5126,"count":1698,"type":"VEC3"},{"bufferView":21,"componentType":5125,"count":9228,"type":"SCALAR"},{"bufferView":22,"componentType":5126,"count":1202,"type":"VEC3","min":[-0.25,-0.4,-0.4],"max":[0.25,0.4,0.4]},{"bufferView":23,"componentType":5126,"count":1202,"type":"VEC3"},{"bufferView":24,"componentType":5125,"count":1920,"type":"SCALAR"},{"bufferView":25,"componentType":5126,"count":1202,"type":"VEC3","min":[-0.25,-0.4,-0.4],"max":[0.25,0.4,0.4]},{"bufferView":26,"componentType":5126,"count":1202,"type":"VEC3"},{"bufferView":27,"componentType":5125,"count":1920,"type":"SCALAR"},{"bufferView":28,"componentType":5126,"count":1202,"type":"VEC3","min":[-0.25,-0.4,-0.4],"max":[0.25,0.4,0.4]},{"bufferView":29,"componentType":5126,"count":1202,"type":"VEC3"},{"bufferView":30,"componentType":5125,"count":1920,"type":"SCALAR"},{"bufferView":31,"componentType":5126,"count":3503,"type":"VEC3","min":[-17.5,-1.3028599054546661,-11.297391304347826],"max":[-1.4249999999999998,0.9791725811926025,4.0]},{"bufferView":32,"componentType":5126,"count":3503,"type":"VEC3"},{"bufferView":33,"componentType":5125,"count":14976,"type":"SCALAR"},{"bufferView":34,"componentType":5126,"count":28,"type":"VEC3","min":[-17.5,0.96,-10.8],"max":[-16.8,3.24,-7.6]},{"bufferView":35,"componentType":5126,"count":28,"type":"VEC3"},{"bufferView":36,"componentType":5125,"count":36,"type":"SCALAR"},{"bufferView":37,"componentType":5126,"count":36,"type":"VEC3","min":[-17.5,-0.5434746091860356,-10.068999999999999],"max":[-1.4249999999999998,0.967449803177589,-3.344000000000001]},{"bufferView":38,"componentType":5126,"count":36,"type":"VEC3"},{"bufferView":39,"componentType":5125,"count":72,"type":"SCALAR"},{"bufferView":40,"componentType":5126,"count":3503,"type":"VEC3","min":[1.4249999999999998,-1.3028599054546661,-11.297391304347826],"max":[17.5,0.9791725811926025,4.0]},{"bufferView":41,"componentType":5126,"count":3503,"type":"VEC3"},{"bufferView":42,"componentType":5125,"count":14976,"type":"SCALAR"},{"bufferView":43,"componentType":5126,"count":28,"type":"VEC3","min":[16.8,0.96,-10.8],"max":[17.5,3.24,-7.6]},{"bufferView":44,"componentType":5126,"count":28,"type":"VEC3"},{"bufferView":45,"componentType":5125,"count":36,"type":"SCALAR"},{"bufferView":46,"componentType":5126,"count":36,"type":"VEC3","min":[1.4249999999999998,-0.5434746091860356,-10.068999999999999],"max":[17.5,0.967449803177589,-3.344000000000001]},{"bufferView":47,"componentType":5126,"count":36,"type":"VEC3"},{"bufferView":48,"componentType":5125,"count":72,"type":"SCALAR"},{"bufferView":49,"componentType":5126,"count":753,"type":"VEC3","min":[-7.440012354442678,-2.9750123544426774,1.21844],"max":[-5.8599876455573225,-1.3949876455573216,2.2]},{"bufferView":50,"componentType":5126,"count":753,"type":"VEC3"},{"bufferView":51,"componentType":5125,"count":3240,"type":"SCALAR"},{"bufferView":52,"componentType":5126,"count":753,"type":"VEC3","min":[5.8599876455573225,-2.9750123544426774,1.21844],"max":[7.440012354442678,-1.3949876455573216,2.2]},{"bufferView":53,"componentType":5126,"count":753,"type":"VEC3"},{"bufferView":54,"componentType":5125,"count":3240,"type":"SCALAR"},{"bufferView":55,"componentType":5126,"count":192,"type":"VEC3","min":[-1.6400000000000001,-3.0999999999999996,-4.12],"max":[1.6400000000000001,-2.5,11.719999999999999]},{"bufferView":56,"componentType":5126,"count":192,"type":"VEC3"},{"bufferView":57,"componentType":5125,"count":288,"type":"SCALAR"},{"bufferView":58,"componentType":5126,"count":576,"type":"VEC3","min":[-1.81,-3.7,-4.2],"max":[1.81,-1.3299999999999998,12.053107139871592]},{"bufferView":59,"componentType":5126,"count":576,"type":"VEC3"},{"bufferView":60,"componentType":5125,"count":864,"type":"SCALAR"}],"images":[{"uri":"../../airlines/AFR.png"},{"uri":"fallback-paint-v5.png"}],"textures":[{"source":0,"sampler":0},{"source":1,"sampler":0}],"samplers":[{"magFilter":9729,"minFilter":9987,"wrapS":33071,"wrapT":33071}]}