{"asset":{"version":"2.0","generator":"Skyward original illustrative b737max profile; logos for operator identification"},"scene":0,"scenes":[{"nodes":[0,1]}],"nodes":[{"mesh":0},{"mesh":1,"name":"Gear","children":[2,3,4]},{"mesh":2,"name":"WheelN","translation":[0,-3.5,11.6]},{"mesh":3,"name":"WheelL","translation":[-1.52,-3.5,-4.0]},{"mesh":4,"name":"WheelR","translation":[1.52,-3.5,-4.0]}],"meshes":[{"primitives":[{"attributes":{"POSITION":0,"NORMAL":1},"material":0},{"attributes":{"POSITION":2,"NORMAL":3},"material":1},{"attributes":{"POSITION":4,"NORMAL":5},"material":2},{"attributes":{"POSITION":6,"NORMAL":7},"material":3},{"attributes":{"POSITION":10,"NORMAL":11,"TEXCOORD_0":12},"material":5},{"attributes":{"POSITION":13,"NORMAL":14},"material":6},{"attributes":{"POSITION":15,"NORMAL":16},"material":7}]},{"primitives":[{"attributes":{"POSITION":8,"NORMAL":9},"material":4}]},{"primitives":[{"attributes":{"POSITION":17,"NORMAL":18},"material":4,"extras":{"wheel":0}}]},{"primitives":[{"attributes":{"POSITION":19,"NORMAL":20},"material":4,"extras":{"wheel":1}}]},{"primitives":[{"attributes":{"POSITION":21,"NORMAL":22},"material":4,"extras":{"wheel":2}}]}],"materials":[{"doubleSided":true,"pbrMetallicRoughness":{"baseColorFactor":[0.94,0.95,0.96,1],"metallicFactor":0.18,"roughnessFactor":0.3}},{"doubleSided":true,"pbrMetallicRoughness":{"baseColorFactor":[0.64,0.68,0.72,1],"metallicFactor":0.18,"roughnessFactor":0.3}},{"doubleSided":true,"pbrMetallicRoughness":{"baseColorFactor":[0.796078431372549,0.12549019607843137,0.2,1],"metallicFactor":0.18,"roughnessFactor":0.3}},{"doubleSided":true,"pbrMetallicRoughness":{"baseColorFactor":[0.02,0.055,0.085,1],"metallicFactor":0.18,"roughnessFactor":0.17}},{"doubleSided":true,"pbrMetallicRoughness":{"baseColorFactor":[0.07,0.08,0.09,1],"metallicFactor":0.18,"roughnessFactor":0.3}},{"doubleSided":true,"pbrMetallicRoughness":{"baseColorFactor":[1,1,1,1],"metallicFactor":0,"roughnessFactor":0.75,"baseColorTexture":{"index":0}},"alphaMode":"BLEND"},{"doubleSided":true,"pbrMetallicRoughness":{"baseColorFactor":[0.36,0.4,0.44,1],"metallicFactor":0.7,"roughnessFactor":0.3}},{"doubleSided":true,"pbrMetallicRoughness":{"baseColorFactor":[0.796078431372549,0.12549019607843137,0.2,1],"metallicFactor":0.18,"roughnessFactor":0.3}}],"buffers":[{"uri":"b737max-v4.bin","byteLength":242112}],"bufferViews":[{"buffer":0,"byteOffset":0,"byteLength":34560,"target":34962},{"buffer":0,"byteOffset":34560,"byteLength":34560,"target":34962},{"buffer":0,"byteOffset":69120,"byteLength":2880,"target":34962},{"buffer":0,"byteOffset":72000,"byteLength":2880,"target":34962},{"buffer":0,"byteOffset":74880,"byteLength":2160,"target":34962},{"buffer":0,"byteOffset":77040,"byteLength":2160,"target":34962},{"buffer":0,"byteOffset":79200,"byteLength":29808,"target":34962},{"buffer":0,"byteOffset":109008,"byteLength":29808,"target":34962},{"buffer":0,"byteOffset":138816,"byteLength":1296,"target":34962},{"buffer":0,"byteOffset":140112,"byteLength":1296,"target":34962},{"buffer":0,"byteOffset":141408,"byteLength":288,"target":34962},{"buffer":0,"byteOffset":141696,"byteLength":288,"target":34962},{"buffer":0,"byteOffset":141984,"byteLength":192,"target":34962},{"buffer":0,"byteOffset":142176,"byteLength":15264,"target":34962},{"buffer":0,"byteOffset":157440,"byteLength":15264,"target":34962},{"buffer":0,"byteOffset":172704,"byteLength":20880,"target":34962},{"buffer":0,"byteOffset":193584,"byteLength":20880,"target":34962},{"buffer":0,"byteOffset":214464,"byteLength":4608,"target":34962},{"buffer":0,"byteOffset":219072,"byteLength":4608,"target":34962},{"buffer":0,"byteOffset":223680,"byteLength":4608,"target":34962},{"buffer":0,"byteOffset":228288,"byteLength":4608,"target":34962},{"buffer":0,"byteOffset":232896,"byteLength":4608,"target":34962},{"buffer":0,"byteOffset":237504,"byteLength":4608,"target":34962}],"accessors":[{"bufferView":0,"componentType":5126,"count":2880,"type":"VEC3","min":[-1.9,-1.9,-20.0],"max":[1.9,1.9,20.0]},{"bufferView":1,"componentType":5126,"count":2880,"type":"VEC3"},{"bufferView":2,"componentType":5126,"count":240,"type":"VEC3","min":[-18.0,-2.3249999999999997,-19.6],"max":[18.0,1.44,4.0]},{"bufferView":3,"componentType":5126,"count":240,"type":"VEC3"},{"bufferView":4,"componentType":5126,"count":180,"type":"VEC3","min":[-18.36,-0.9400000000000001,-19.8],"max":[18.36,7.699999999999999,-7.6]},{"bufferView":5,"componentType":5126,"count":180,"type":"VEC3"},{"bufferView":6,"componentType":5126,"count":2484,"type":"VEC3","min":[-7.8431999999999995,-3.1881999999999997,-9.330000000000002],"max":[7.8431999999999995,1.273,16.599999999999998]},{"bufferView":7,"componentType":5126,"count":2484,"type":"VEC3"},{"bufferView":8,"componentType":5126,"count":108,"type":"VEC3","min":[-1.62,-3.5,-4.1],"max":[1.62,-1.9000000000000001,11.7]},{"bufferView":9,"componentType":5126,"count":108,"type":"VEC3"},{"bufferView":10,"componentType":5126,"count":24,"type":"VEC3","min":[-1.94,-0.7979999999999999,-17.88],"max":[1.94,5.9,9.215]},{"bufferView":11,"componentType":5126,"count":24,"type":"VEC3"},{"bufferView":12,"componentType":5126,"count":24,"type":"VEC2"},{"bufferView":13,"componentType":5126,"count":1272,"type":"VEC3","min":[-8.01876,-3.3637599999999996,-9.200000000000001],"max":[8.01876,1.14,11.250000000000002]},{"bufferView":14,"componentType":5126,"count":1272,"type":"VEC3"},{"bufferView":15,"componentType":5126,"count":1740,"type":"VEC3","min":[-8.094,-3.4389999999999996,-7.6],"max":[8.094,-0.9309999999999996,12.0]},{"bufferView":16,"componentType":5126,"count":1740,"type":"VEC3"},{"bufferView":17,"componentType":5126,"count":384,"type":"VEC3","min":[-0.25,-0.4,-0.4],"max":[0.25,0.4,0.4]},{"bufferView":18,"componentType":5126,"count":384,"type":"VEC3"},{"bufferView":19,"componentType":5126,"count":384,"type":"VEC3","min":[-0.25,-0.4,-0.4],"max":[0.25,0.4,0.4]},{"bufferView":20,"componentType":5126,"count":384,"type":"VEC3"},{"bufferView":21,"componentType":5126,"count":384,"type":"VEC3","min":[-0.25,-0.4,-0.4],"max":[0.25,0.4,0.4]},{"bufferView":22,"componentType":5126,"count":384,"type":"VEC3"}],"images":[{"uri":"../../airlines/QFA.png"}],"textures":[{"source":0,"sampler":0}],"samplers":[{"magFilter":9729,"minFilter":9987,"wrapS":33071,"wrapT":33071}]}