{"asset":{"version":"2.0","generator":"Skyward detailed procedural b737max fallback v6; approximate airframe; operator identification logos"},"scene":0,"scenes":[{"nodes":[0,1,5,6,7,8,9,10,11,12,13,14,15,16,17]}],"nodes":[{"mesh":0},{"mesh":1,"name":"Gear","children":[2,3,4]},{"mesh":2,"name":"WheelN","translation":[0,-3.5,11.6]},{"mesh":3,"name":"WheelL","translation":[-1.52,-3.5,-4.0]},{"mesh":4,"name":"WheelR","translation":[1.52,-3.5,-4.0]},{"mesh":5,"name":"SlatL"},{"mesh":6,"name":"FlapL"},{"mesh":7,"name":"SpoilerL"},{"mesh":8,"name":"ElevatorL"},{"mesh":9,"name":"SlatR"},{"mesh":10,"name":"FlapR"},{"mesh":11,"name":"SpoilerR"},{"mesh":12,"name":"ElevatorR"},{"mesh":13,"name":"Rudder"},{"mesh":14,"name":"FlexWingL"},{"mesh":15,"name":"FlexWingR"},{"mesh":16,"name":"SkywardFan0"},{"mesh":17,"name":"SkywardFan1"}],"meshes":[{"name":"AirframeWithCockpitGlazing","primitives":[{"indices":3,"attributes":{"POSITION":0,"NORMAL":1,"TEXCOORD_0":2},"material":0},{"indices":6,"attributes":{"POSITION":4,"NORMAL":5},"material":1},{"indices":9,"attributes":{"POSITION":7,"NORMAL":8},"material":2},{"attributes":{"POSITION":10,"NORMAL":11},"material":3},{"indices":15,"attributes":{"POSITION":12,"NORMAL":13,"TEXCOORD_0":14},"material":5},{"indices":18,"attributes":{"POSITION":16,"NORMAL":17},"material":6},{"indices":21,"attributes":{"POSITION":19,"NORMAL":20},"material":7},{"attributes":{"POSITION":101,"NORMAL":102,"TEXCOORD_0":103},"material":8}]},{"primitives":[{"indices":58,"attributes":{"POSITION":55,"NORMAL":56,"TEXCOORD_0":57},"material":0,"extras":{"gear":true}},{"indices":61,"attributes":{"POSITION":59,"NORMAL":60},"material":1,"extras":{"gear":true}},{"indices":64,"attributes":{"POSITION":62,"NORMAL":63},"material":6,"extras":{"gear":true}}]},{"primitives":[{"indices":24,"attributes":{"POSITION":22,"NORMAL":23},"material":4,"extras":{"wheel":0}},{"indices":94,"attributes":{"POSITION":92,"NORMAL":93},"material":6,"extras":{"wheel":0}}]},{"primitives":[{"indices":27,"attributes":{"POSITION":25,"NORMAL":26},"material":4,"extras":{"wheel":1}},{"indices":97,"attributes":{"POSITION":95,"NORMAL":96},"material":6,"extras":{"wheel":1}}]},{"primitives":[{"indices":30,"attributes":{"POSITION":28,"NORMAL":29},"material":4,"extras":{"wheel":2}},{"indices":100,"attributes":{"POSITION":98,"NORMAL":99},"material":6,"extras":{"wheel":2}}]},{"primitives":[{"indices":67,"attributes":{"POSITION":65,"NORMAL":66},"material":1,"extras":{"surface":0}}]},{"primitives":[{"indices":70,"attributes":{"POSITION":68,"NORMAL":69},"material":1,"extras":{"surface":1}}]},{"primitives":[{"indices":73,"attributes":{"POSITION":71,"NORMAL":72},"material":1,"extras":{"surface":2}}]},{"primitives":[{"indices":76,"attributes":{"POSITION":74,"NORMAL":75},"material":1,"extras":{"surface":3}}]},{"primitives":[{"indices":79,"attributes":{"POSITION":77,"NORMAL":78},"material":1,"extras":{"surface":4}}]},{"primitives":[{"indices":82,"attributes":{"POSITION":80,"NORMAL":81},"material":1,"extras":{"surface":5}}]},{"primitives":[{"indices":85,"attributes":{"POSITION":83,"NORMAL":84},"material":1,"extras":{"surface":6}}]},{"primitives":[{"indices":88,"attributes":{"POSITION":86,"NORMAL":87},"material":1,"extras":{"surface":7}}]},{"primitives":[{"indices":91,"attributes":{"POSITION":89,"NORMAL":90},"material":2,"extras":{"surface":8}}]},{"primitives":[{"indices":33,"attributes":{"POSITION":31,"NORMAL":32},"material":1,"extras":{"wing":0}},{"indices":36,"attributes":{"POSITION":34,"NORMAL":35},"material":2,"extras":{"wing":0}},{"indices":39,"attributes":{"POSITION":37,"NORMAL":38},"material":6,"extras":{"wing":0}}]},{"primitives":[{"indices":42,"attributes":{"POSITION":40,"NORMAL":41},"material":1,"extras":{"wing":1}},{"indices":45,"attributes":{"POSITION":43,"NORMAL":44},"material":2,"extras":{"wing":1}},{"indices":48,"attributes":{"POSITION":46,"NORMAL":47},"material":6,"extras":{"wing":1}}]},{"primitives":[{"indices":51,"attributes":{"POSITION":49,"NORMAL":50},"material":6,"extras":{"fan":0}}]},{"primitives":[{"indices":54,"attributes":{"POSITION":52,"NORMAL":53},"material":6,"extras":{"fan":1}}]}],"materials":[{"doubleSided":true,"pbrMetallicRoughness":{"baseColorFactor":[0.94,0.95,0.96,1],"metallicFactor":0.04,"roughnessFactor":0.27,"baseColorTexture":{"index":1}}},{"doubleSided":true,"pbrMetallicRoughness":{"baseColorFactor":[0.64,0.68,0.72,1],"metallicFactor":0.04,"roughnessFactor":0.4}},{"doubleSided":true,"pbrMetallicRoughness":{"baseColorFactor":[0.09019607843137255,0.1843137254901961,0.3607843137254902,1],"metallicFactor":0.04,"roughnessFactor":0.27}},{"doubleSided":true,"pbrMetallicRoughness":{"baseColorFactor":[0.02,0.055,0.085,1],"metallicFactor":0,"roughnessFactor":0.12}},{"doubleSided":true,"pbrMetallicRoughness":{"baseColorFactor":[0.07,0.08,0.09,1],"metallicFactor":0,"roughnessFactor":0.86}},{"doubleSided":true,"pbrMetallicRoughness":{"baseColorFactor":[1,1,1,1],"metallicFactor":0,"roughnessFactor":0.75,"baseColorTexture":{"index":0}},"alphaMode":"MASK","alphaCutoff":0.08},{"doubleSided":true,"pbrMetallicRoughness":{"baseColorFactor":[0.36,0.4,0.44,1],"metallicFactor":0.8,"roughnessFactor":0.28}},{"doubleSided":true,"pbrMetallicRoughness":{"baseColorFactor":[0.09019607843137255,0.1843137254901961,0.3607843137254902,1],"metallicFactor":0.04,"roughnessFactor":0.27}},{"name":"Operator title","doubleSided":true,"alphaMode":"MASK","alphaCutoff":0.15,"pbrMetallicRoughness":{"baseColorTexture":{"index":2},"baseColorFactor":[0.09019607843137255,0.1843137254901961,0.3607843137254902,1],"roughnessFactor":0.6,"metallicFactor":0}}],"buffers":[{"uri":"b737max-v4.bin?tail=2&rig=1&detail=6","byteLength":1306624},{"uri":"b737max-title.bin?detail=6","byteLength":18432}],"bufferViews":[{"buffer":0,"byteOffset":0,"byteLength":31980,"target":34962},{"buffer":0,"byteOffset":31980,"byteLength":31980,"target":34962},{"buffer":0,"byteOffset":63960,"byteLength":21320,"target":34962},{"buffer":0,"byteOffset":85280,"byteLength":61440,"target":34963},{"buffer":0,"byteOffset":146720,"byteLength":1080,"target":34962},{"buffer":0,"byteOffset":147800,"byteLength":1080,"target":34962},{"buffer":0,"byteOffset":148880,"byteLength":576,"target":34963},{"buffer":0,"byteOffset":149456,"byteLength":288,"target":34962},{"buffer":0,"byteOffset":149744,"byteLength":288,"target":34962},{"buffer":0,"byteOffset":150032,"byteLength":144,"target":34963},{"buffer":0,"byteOffset":150176,"byteLength":184032,"target":34962},{"buffer":0,"byteOffset":334208,"byteLength":184032,"target":34962},{"buffer":0,"byteOffset":518240,"byteLength":192,"target":34962},{"buffer":0,"byteOffset":518432,"byteLength":192,"target":34962},{"buffer":0,"byteOffset":518624,"byteLength":128,"target":34962},{"buffer":0,"byteOffset":518752,"byteLength":96,"target":34963},{"buffer":0,"byteOffset":518848,"byteLength":50760,"target":34962},{"buffer":0,"byteOffset":569608,"byteLength":50760,"target":34962},{"buffer":0,"byteOffset":620368,"byteLength":49920,"target":34963},{"buffer":0,"byteOffset":670288,"byteLength":20376,"target":34962},{"buffer":0,"byteOffset":690664,"byteLength":20376,"target":34962},{"buffer":0,"byteOffset":711040,"byteLength":36912,"target":34963},{"buffer":0,"byteOffset":747952,"byteLength":21504,"target":34962},{"buffer":0,"byteOffset":769456,"byteLength":21504,"target":34962},{"buffer":0,"byteOffset":790960,"byteLength":10752,"target":34963},{"buffer":0,"byteOffset":801712,"byteLength":21504,"target":34962},{"buffer":0,"byteOffset":823216,"byteLength":21504,"target":34962},{"buffer":0,"byteOffset":844720,"byteLength":10752,"target":34963},{"buffer":0,"byteOffset":855472,"byteLength":21504,"target":34962},{"buffer":0,"byteOffset":876976,"byteLength":21504,"target":34962},{"buffer":0,"byteOffset":898480,"byteLength":10752,"target":34963},{"buffer":0,"byteOffset":909232,"byteLength":39156,"target":34962},{"buffer":0,"byteOffset":948388,"byteLength":39156,"target":34962},{"buffer":0,"byteOffset":987544,"byteLength":58944,"target":34963},{"buffer":0,"byteOffset":1046488,"byteLength":672,"target":34962},{"buffer":0,"byteOffset":1047160,"byteLength":672,"target":34962},{"buffer":0,"byteOffset":1047832,"byteLength":288,"target":34963},{"buffer":0,"byteOffset":1048120,"byteLength":432,"target":34962},{"buffer":0,"byteOffset":1048552,"byteLength":432,"target":34962},{"buffer":0,"byteOffset":1048984,"byteLength":288,"target":34963},{"buffer":0,"byteOffset":1049272,"byteLength":39156,"target":34962},{"buffer":0,"byteOffset":1088428,"byteLength":39156,"target":34962},{"buffer":0,"byteOffset":1127584,"byteLength":58944,"target":34963},{"buffer":0,"byteOffset":1186528,"byteLength":672,"target":34962},{"buffer":0,"byteOffset":1187200,"byteLength":672,"target":34962},{"buffer":0,"byteOffset":1187872,"byteLength":288,"target":34963},{"buffer":0,"byteOffset":1188160,"byteLength":432,"target":34962},{"buffer":0,"byteOffset":1188592,"byteLength":432,"target":34962},{"buffer":0,"byteOffset":1189024,"byteLength":288,"target":34963},{"buffer":0,"byteOffset":1189312,"byteLength":9036,"target":34962},{"buffer":0,"byteOffset":1198348,"byteLength":9036,"target":34962},{"buffer":0,"byteOffset":1207384,"byteLength":12960,"target":34963},{"buffer":0,"byteOffset":1220344,"byteLength":9036,"target":34962},{"buffer":0,"byteOffset":1229380,"byteLength":9036,"target":34962},{"buffer":0,"byteOffset":1238416,"byteLength":12960,"target":34963},{"buffer":0,"byteOffset":1251376,"byteLength":864,"target":34962},{"buffer":0,"byteOffset":1252240,"byteLength":864,"target":34962},{"buffer":0,"byteOffset":1253104,"byteLength":576,"target":34962},{"buffer":0,"byteOffset":1253680,"byteLength":432,"target":34963},{"buffer":0,"byteOffset":1254112,"byteLength":2304,"target":34962},{"buffer":0,"byteOffset":1256416,"byteLength":2304,"target":34962},{"buffer":0,"byteOffset":1258720,"byteLength":1152,"target":34963},{"buffer":0,"byteOffset":1259872,"byteLength":6912,"target":34962},{"buffer":0,"byteOffset":1266784,"byteLength":6912,"target":34962},{"buffer":0,"byteOffset":1273696,"byteLength":3456,"target":34963},{"buffer":0,"byteOffset":1277152,"byteLength":864,"target":34962},{"buffer":0,"byteOffset":1278016,"byteLength":864,"target":34962},{"buffer":0,"byteOffset":1278880,"byteLength":288,"target":34963},{"buffer":0,"byteOffset":1279168,"byteLength":1728,"target":34962},{"buffer":0,"byteOffset":1280896,"byteLength":1728,"target":34962},{"buffer":0,"byteOffset":1282624,"byteLength":576,"target":34963},{"buffer":0,"byteOffset":1283200,"byteLength":288,"target":34962},{"buffer":0,"byteOffset":1283488,"byteLength":288,"target":34962},{"buffer":0,"byteOffset":1283776,"byteLength":96,"target":34963},{"buffer":0,"byteOffset":1283872,"byteLength":288,"target":34962},{"buffer":0,"byteOffset":1284160,"byteLength":288,"target":34962},{"buffer":0,"byteOffset":1284448,"byteLength":144,"target":34963},{"buffer":0,"byteOffset":1284592,"byteLength":864,"target":34962},{"buffer":0,"byteOffset":1285456,"byteLength":864,"target":34962},{"buffer":0,"byteOffset":1286320,"byteLength":288,"target":34963},{"buffer":0,"byteOffset":1286608,"byteLength":1728,"target":34962},{"buffer":0,"byteOffset":1288336,"byteLength":1728,"target":34962},{"buffer":0,"byteOffset":1290064,"byteLength":576,"target":34963},{"buffer":0,"byteOffset":1290640,"byteLength":288,"target":34962},{"buffer":0,"byteOffset":1290928,"byteLength":288,"target":34962},{"buffer":0,"byteOffset":1291216,"byteLength":96,"target":34963},{"buffer":0,"byteOffset":1291312,"byteLength":288,"target":34962},{"buffer":0,"byteOffset":1291600,"byteLength":288,"target":34962},{"buffer":0,"byteOffset":1291888,"byteLength":144,"target":34963},{"buffer":0,"byteOffset":1292032,"byteLength":168,"target":34962},{"buffer":0,"byteOffset":1292200,"byteLength":168,"target":34962},{"buffer":0,"byteOffset":1292368,"byteLength":144,"target":34963},{"buffer":0,"byteOffset":1292512,"byteLength":1584,"target":34962},{"buffer":0,"byteOffset":1294096,"byteLength":1584,"target":34962},{"buffer":0,"byteOffset":1295680,"byteLength":1536,"target":34963},{"buffer":0,"byteOffset":1297216,"byteLength":1584,"target":34962},{"buffer":0,"byteOffset":1298800,"byteLength":1584,"target":34962},{"buffer":0,"byteOffset":1300384,"byteLength":1536,"target":34963},{"buffer":0,"byteOffset":1301920,"byteLength":1584,"target":34962},{"buffer":0,"byteOffset":1303504,"byteLength":1584,"target":34962},{"buffer":0,"byteOffset":1305088,"byteLength":1536,"target":34963},{"buffer":1,"byteOffset":0,"byteLength":6912,"target":34962},{"buffer":1,"byteOffset":6912,"byteLength":6912,"target":34962},{"buffer":1,"byteOffset":13824,"byteLength":4608,"target":34962}],"accessors":[{"bufferView":0,"componentType":5126,"count":2665,"type":"VEC3","min":[-1.9,-1.9,-20.0],"max":[1.9,1.9,20.0]},{"bufferView":1,"componentType":5126,"count":2665,"type":"VEC3"},{"bufferView":2,"componentType":5126,"count":2665,"type":"VEC2"},{"bufferView":3,"componentType":5125,"count":15360,"type":"SCALAR"},{"bufferView":4,"componentType":5126,"count":90,"type":"VEC3","min":[-6.9799999999999995,-2.3249999999999997,-18.6],"max":[6.7,1.44,1.8]},{"bufferView":5,"componentType":5126,"count":90,"type":"VEC3"},{"bufferView":6,"componentType":5125,"count":144,"type":"SCALAR"},{"bufferView":7,"componentType":5126,"count":24,"type":"VEC3","min":[-0.1,0.76,-18.6],"max":[0.1,7.699999999999999,-11.200000000000001]},{"bufferView":8,"componentType":5126,"count":24,"type":"VEC3"},{"bufferView":9,"componentType":5125,"count":36,"type":"SCALAR"},{"bufferView":10,"componentType":5126,"count":15336,"type":"VEC3","min":[-7.8431999999999995,-3.1881999999999997,-9.330000000000002],"max":[7.8431999999999995,1.576658294776192,17.72]},{"bufferView":11,"componentType":5126,"count":15336,"type":"VEC3"},{"bufferView":12,"componentType":5126,"count":16,"type":"VEC3","min":[-1.94,-0.7979999999999999,-17.92],"max":[1.94,6.192,9.215]},{"bufferView":13,"componentType":5126,"count":16,"type":"VEC3"},{"bufferView":14,"componentType":5126,"count":16,"type":"VEC2"},{"bufferView":15,"componentType":5125,"count":24,"type":"SCALAR"},{"bufferView":16,"componentType":5126,"count":4230,"type":"VEC3","min":[-8.071428,-3.416428,-9.635000000000002],"max":[8.071428,1.5853185488140362,17.72]},{"bufferView":17,"componentType":5126,"count":4230,"type":"VEC3"},{"bufferView":18,"componentType":5125,"count":12480,"type":"SCALAR"},{"bufferView":19,"componentType":5126,"count":1698,"type":"VEC3","min":[-8.094,-3.4389999999999996,-7.6],"max":[8.094,-0.9309999999999996,12.0]},{"bufferView":20,"componentType":5126,"count":1698,"type":"VEC3"},{"bufferView":21,"componentType":5125,"count":9228,"type":"SCALAR"},{"bufferView":22,"componentType":5126,"count":1792,"type":"VEC3","min":[-0.41000000000000003,-0.4,-0.4],"max":[0.41000000000000003,0.4,0.4]},{"bufferView":23,"componentType":5126,"count":1792,"type":"VEC3"},{"bufferView":24,"componentType":5125,"count":2688,"type":"SCALAR"},{"bufferView":25,"componentType":5126,"count":1792,"type":"VEC3","min":[-0.41000000000000003,-0.4,-0.4],"max":[0.41000000000000003,0.4,0.4]},{"bufferView":26,"componentType":5126,"count":1792,"type":"VEC3"},{"bufferView":27,"componentType":5125,"count":2688,"type":"SCALAR"},{"bufferView":28,"componentType":5126,"count":1792,"type":"VEC3","min":[-0.41000000000000003,-0.4,-0.4],"max":[0.41000000000000003,0.4,0.4]},{"bufferView":29,"componentType":5126,"count":1792,"type":"VEC3"},{"bufferView":30,"componentType":5125,"count":2688,"type":"SCALAR"},{"bufferView":31,"componentType":5126,"count":3263,"type":"VEC3","min":[-18.0,-1.3028599054546661,-11.297391304347826],"max":[-1.4249999999999998,0.9791725811926025,4.0]},{"bufferView":32,"componentType":5126,"count":3263,"type":"VEC3"},{"bufferView":33,"componentType":5125,"count":14736,"type":"SCALAR"},{"bufferView":34,"componentType":5126,"count":56,"type":"VEC3","min":[-18.36,-0.9400000000000001,-11.0],"max":[-17.28,3.24,-7.6]},{"bufferView":35,"componentType":5126,"count":56,"type":"VEC3"},{"bufferView":36,"componentType":5125,"count":72,"type":"SCALAR"},{"bufferView":37,"componentType":5126,"count":36,"type":"VEC3","min":[-18.0,-0.5434746091860356,-10.068999999999999],"max":[-1.4249999999999998,0.967449803177589,-3.344000000000001]},{"bufferView":38,"componentType":5126,"count":36,"type":"VEC3"},{"bufferView":39,"componentType":5125,"count":72,"type":"SCALAR"},{"bufferView":40,"componentType":5126,"count":3263,"type":"VEC3","min":[1.4249999999999998,-1.3028599054546661,-11.297391304347826],"max":[18.0,0.9791725811926025,4.0]},{"bufferView":41,"componentType":5126,"count":3263,"type":"VEC3"},{"bufferView":42,"componentType":5125,"count":14736,"type":"SCALAR"},{"bufferView":43,"componentType":5126,"count":56,"type":"VEC3","min":[17.28,-0.9400000000000001,-11.0],"max":[18.36,3.24,-7.6]},{"bufferView":44,"componentType":5126,"count":56,"type":"VEC3"},{"bufferView":45,"componentType":5125,"count":72,"type":"SCALAR"},{"bufferView":46,"componentType":5126,"count":36,"type":"VEC3","min":[1.4249999999999998,-0.5434746091860356,-10.068999999999999],"max":[18.0,0.967449803177589,-3.344000000000001]},{"bufferView":47,"componentType":5126,"count":36,"type":"VEC3"},{"bufferView":48,"componentType":5125,"count":72,"type":"SCALAR"},{"bufferView":49,"componentType":5126,"count":753,"type":"VEC3","min":[-7.80557065542994,-3.1505706554299393,1.20476],"max":[-5.87442934457006,-1.21942934457006,2.2]},{"bufferView":50,"componentType":5126,"count":753,"type":"VEC3"},{"bufferView":51,"componentType":5125,"count":3240,"type":"SCALAR"},{"bufferView":52,"componentType":5126,"count":753,"type":"VEC3","min":[5.87442934457006,-3.1505706554299393,1.20476],"max":[7.80557065542994,-1.21942934457006,2.2]},{"bufferView":53,"componentType":5126,"count":753,"type":"VEC3"},{"bufferView":54,"componentType":5125,"count":3240,"type":"SCALAR"},{"bufferView":55,"componentType":5126,"count":72,"type":"VEC3","min":[-2.14,-2.925,-4.65],"max":[1.04,-1.4,12.25]},{"bufferView":56,"componentType":5126,"count":72,"type":"VEC3"},{"bufferView":57,"componentType":5126,"count":72,"type":"VEC2"},{"bufferView":58,"componentType":5125,"count":108,"type":"SCALAR"},{"bufferView":59,"componentType":5126,"count":192,"type":"VEC3","min":[-1.6400000000000001,-3.0999999999999996,-4.12],"max":[1.6400000000000001,-2.5,11.719999999999999]},{"bufferView":60,"componentType":5126,"count":192,"type":"VEC3"},{"bufferView":61,"componentType":5125,"count":288,"type":"SCALAR"},{"bufferView":62,"componentType":5126,"count":576,"type":"VEC3","min":[-1.94,-3.59,-4.09],"max":[1.94,-1.3299999999999998,12.053107139871592]},{"bufferView":63,"componentType":5126,"count":576,"type":"VEC3"},{"bufferView":64,"componentType":5125,"count":864,"type":"SCALAR"},{"bufferView":65,"componentType":5126,"count":72,"type":"VEC3","min":[-16.2,-1.1341041563058476,-7.71418070123307],"max":[-1.4249999999999998,0.756684868226834,4.0]},{"bufferView":66,"componentType":5126,"count":72,"type":"VEC3"},{"bufferView":67,"componentType":5125,"count":72,"type":"SCALAR"},{"bufferView":68,"componentType":5126,"count":144,"type":"VEC3","min":[-16.2,-0.9667630362267524,-10.6],"max":[-1.4249999999999998,0.7515682370299546,-5.218376618407357]},{"bufferView":69,"componentType":5126,"count":144,"type":"VEC3"},{"bufferView":70,"componentType":5125,"count":144,"type":"SCALAR"},{"bufferView":71,"componentType":5126,"count":24,"type":"VEC3","min":[-16.2,-0.44556721188276777,-9.85],"max":[-1.4249999999999998,0.8111246164354646,-2.7976228435536123]},{"bufferView":72,"componentType":5126,"count":24,"type":"VEC3"},{"bufferView":73,"componentType":5125,"count":24,"type":"SCALAR"},{"bufferView":74,"componentType":5126,"count":24,"type":"VEC3","min":[-6.4799999999999995,0.7,-19.6],"max":[-0.76,1.42,-16.599999999999998]},{"bufferView":75,"componentType":5126,"count":24,"type":"VEC3"},{"bufferView":76,"componentType":5125,"count":36,"type":"SCALAR"},{"bufferView":77,"componentType":5126,"count":72,"type":"VEC3","min":[1.4249999999999998,-1.1341041563058476,-7.71418070123307],"max":[16.2,0.756684868226834,4.0]},{"bufferView":78,"componentType":5126,"count":72,"type":"VEC3"},{"bufferView":79,"componentType":5125,"count":72,"type":"SCALAR"},{"bufferView":80,"componentType":5126,"count":144,"type":"VEC3","min":[1.4249999999999998,-0.9667630362267524,-10.6],"max":[16.2,0.7515682370299546,-5.218376618407357]},{"bufferView":81,"componentType":5126,"count":144,"type":"VEC3"},{"bufferView":82,"componentType":5125,"count":144,"type":"SCALAR"},{"bufferView":83,"componentType":5126,"count":24,"type":"VEC3","min":[1.4249999999999998,-0.44556721188276777,-9.85],"max":[16.2,0.8111246164354646,-2.7976228435536123]},{"bufferView":84,"componentType":5126,"count":24,"type":"VEC3"},{"bufferView":85,"componentType":5125,"count":24,"type":"SCALAR"},{"bufferView":86,"componentType":5126,"count":24,"type":"VEC3","min":[0.76,0.7,-19.6],"max":[6.4799999999999995,1.42,-16.599999999999998]},{"bufferView":87,"componentType":5126,"count":24,"type":"VEC3"},{"bufferView":88,"componentType":5125,"count":36,"type":"SCALAR"},{"bufferView":89,"componentType":5126,"count":14,"type":"VEC3","min":[0,0.68,-19.8],"max":[0,7.779999999999999,-17.92]},{"bufferView":90,"componentType":5126,"count":14,"type":"VEC3"},{"bufferView":91,"componentType":5125,"count":36,"type":"SCALAR"},{"bufferView":92,"componentType":5126,"count":132,"type":"VEC3","min":[-0.41100000000000003,-0.22000000000000003,-0.22000000000000003],"max":[0.41100000000000003,0.22000000000000003,0.22000000000000003]},{"bufferView":93,"componentType":5126,"count":132,"type":"VEC3"},{"bufferView":94,"componentType":5125,"count":384,"type":"SCALAR"},{"bufferView":95,"componentType":5126,"count":132,"type":"VEC3","min":[-0.41100000000000003,-0.22000000000000003,-0.22000000000000003],"max":[0.41100000000000003,0.22000000000000003,0.22000000000000003]},{"bufferView":96,"componentType":5126,"count":132,"type":"VEC3"},{"bufferView":97,"componentType":5125,"count":384,"type":"SCALAR"},{"bufferView":98,"componentType":5126,"count":132,"type":"VEC3","min":[-0.41100000000000003,-0.22000000000000003,-0.22000000000000003],"max":[0.41100000000000003,0.22000000000000003,0.22000000000000003]},{"bufferView":99,"componentType":5126,"count":132,"type":"VEC3"},{"bufferView":100,"componentType":5125,"count":384,"type":"SCALAR"},{"bufferView":101,"componentType":5126,"count":576,"type":"VEC3","min":[-1.8006093760329713,0.6839999999999999,-4.8],"max":[1.8006093760329713,1.159,10.0]},{"bufferView":102,"componentType":5126,"count":576,"type":"VEC3"},{"bufferView":103,"componentType":5126,"count":576,"type":"VEC2"}],"images":[{"uri":"../../airlines/SIA.png"},{"uri":"fallback-paint-v5.png"},{"uri":"title-SIA.png"}],"textures":[{"source":0,"sampler":0},{"source":1,"sampler":0},{"source":2,"sampler":0}],"samplers":[{"magFilter":9729,"minFilter":9987,"wrapS":33071,"wrapT":33071}]}