{"asset":{"version":"2.0","generator":"Skyward original illustrative profile; airline-inspired paint, no official logos"},"scene":0,"scenes":[{"nodes":[0,1]}],"nodes":[{"mesh":0},{"mesh":1,"name":"Gear"}],"meshes":[{"primitives":[{"attributes":{"POSITION":0,"NORMAL":1},"material":0},{"attributes":{"POSITION":2,"NORMAL":3},"material":1},{"attributes":{"POSITION":4,"NORMAL":5},"material":2},{"attributes":{"POSITION":6,"NORMAL":7},"material":3}]},{"primitives":[{"attributes":{"POSITION":8,"NORMAL":9},"material":4}]}],"materials":[{"doubleSided":true,"pbrMetallicRoughness":{"baseColorFactor":[0.91,0.94,0.96,1],"metallicFactor":0.15,"roughnessFactor":0.45}},{"doubleSided":true,"pbrMetallicRoughness":{"baseColorFactor":[0.52,0.6,0.66,1],"metallicFactor":0.15,"roughnessFactor":0.45}},{"doubleSided":true,"pbrMetallicRoughness":{"baseColorFactor":[0.14901960784313725,0.23921568627450981,0.49411764705882355,1],"metallicFactor":0.15,"roughnessFactor":0.45}},{"doubleSided":true,"pbrMetallicRoughness":{"baseColorFactor":[0.025,0.06,0.09,1],"metallicFactor":0.15,"roughnessFactor":0.45}},{"doubleSided":true,"pbrMetallicRoughness":{"baseColorFactor":[0.08,0.1,0.12,1],"metallicFactor":0.15,"roughnessFactor":0.45}}],"buffers":[{"uri":"b737.bin","byteLength":35352}],"bufferViews":[{"buffer":0,"byteOffset":0,"byteLength":10080,"target":34962},{"buffer":0,"byteOffset":10080,"byteLength":10080,"target":34962},{"buffer":0,"byteOffset":20160,"byteLength":288,"target":34962},{"buffer":0,"byteOffset":20448,"byteLength":288,"target":34962},{"buffer":0,"byteOffset":20736,"byteLength":108,"target":34962},{"buffer":0,"byteOffset":20844,"byteLength":108,"target":34962},{"buffer":0,"byteOffset":20952,"byteLength":4608,"target":34962},{"buffer":0,"byteOffset":25560,"byteLength":4608,"target":34962},{"buffer":0,"byteOffset":30168,"byteLength":2592,"target":34962},{"buffer":0,"byteOffset":32760,"byteLength":2592,"target":34962}],"accessors":[{"bufferView":0,"componentType":5126,"count":840,"type":"VEC3","min":[-7.695,-3.135,-20.0],"max":[7.695,1.9,20.0]},{"bufferView":1,"componentType":5126,"count":840,"type":"VEC3"},{"bufferView":2,"componentType":5126,"count":24,"type":"VEC3","min":[-17.5,-0.95,-19.6],"max":[17.5,0.6649999999999999,3.2]},{"bufferView":3,"componentType":5126,"count":24,"type":"VEC3"},{"bufferView":4,"componentType":5126,"count":9,"type":"VEC3","min":[-17.5,0,-19.6],"max":[17.5,7.5,-6.4]},{"bufferView":5,"componentType":5126,"count":9,"type":"VEC3"},{"bufferView":6,"componentType":5126,"count":384,"type":"VEC3","min":[-7.5696,-3.0096,-10],"max":[7.5696,1.14,16.8]},{"bufferView":7,"componentType":5126,"count":384,"type":"VEC3"},{"bufferView":8,"componentType":5126,"count":216,"type":"VEC3","min":[-1.92,-4.5,-4.6],"max":[1.92,-1.7999999999999998,12.2]},{"bufferView":9,"componentType":5126,"count":216,"type":"VEC3"}]}