{"asset":{"version":"2.0","generator":"Skyward original illustrative profile; airline-inspired paint, no official logos"},"scene":0,"scenes":[{"nodes":[0,1]}],"nodes":[{"mesh":0},{"mesh":1,"name":"Gear"}],"meshes":[{"primitives":[{"attributes":{"POSITION":0,"NORMAL":1},"material":0},{"attributes":{"POSITION":2,"NORMAL":3},"material":1},{"attributes":{"POSITION":4,"NORMAL":5},"material":2},{"attributes":{"POSITION":6,"NORMAL":7},"material":3}]},{"primitives":[{"attributes":{"POSITION":8,"NORMAL":9},"material":4}]}],"materials":[{"doubleSided":true,"pbrMetallicRoughness":{"baseColorFactor":[0.91,0.94,0.96,1],"metallicFactor":0.15,"roughnessFactor":0.45}},{"doubleSided":true,"pbrMetallicRoughness":{"baseColorFactor":[0.52,0.6,0.66,1],"metallicFactor":0.15,"roughnessFactor":0.45}},{"doubleSided":true,"pbrMetallicRoughness":{"baseColorFactor":[0.2235294117647059,0.49019607843137253,0.6862745098039216,1],"metallicFactor":0.15,"roughnessFactor":0.45}},{"doubleSided":true,"pbrMetallicRoughness":{"baseColorFactor":[0.025,0.06,0.09,1],"metallicFactor":0.15,"roughnessFactor":0.45}},{"doubleSided":true,"pbrMetallicRoughness":{"baseColorFactor":[0.08,0.1,0.12,1],"metallicFactor":0.15,"roughnessFactor":0.45}}],"buffers":[{"uri":"b747.bin","byteLength":58104}],"bufferViews":[{"buffer":0,"byteOffset":0,"byteLength":17280,"target":34962},{"buffer":0,"byteOffset":17280,"byteLength":17280,"target":34962},{"buffer":0,"byteOffset":34560,"byteLength":288,"target":34962},{"buffer":0,"byteOffset":34848,"byteLength":288,"target":34962},{"buffer":0,"byteOffset":35136,"byteLength":108,"target":34962},{"buffer":0,"byteOffset":35244,"byteLength":108,"target":34962},{"buffer":0,"byteOffset":35352,"byteLength":8784,"target":34962},{"buffer":0,"byteOffset":44136,"byteLength":8784,"target":34962},{"buffer":0,"byteOffset":52920,"byteLength":2592,"target":34962},{"buffer":0,"byteOffset":55512,"byteLength":2592,"target":34962}],"accessors":[{"bufferView":0,"componentType":5126,"count":1440,"type":"VEC3","min":[-22.587500000000002,-5.362500000000001,-35.5],"max":[22.587500000000002,4.2250000000000005,35.5]},{"bufferView":1,"componentType":5126,"count":1440,"type":"VEC3"},{"bufferView":2,"componentType":5126,"count":24,"type":"VEC3","min":[-32.5,-1.625,-34.79],"max":[32.5,1.1375,5.68]},{"bufferView":3,"componentType":5126,"count":24,"type":"VEC3"},{"bufferView":4,"componentType":5126,"count":9,"type":"VEC3","min":[-32.5,0,-34.79],"max":[32.5,13.190000000000001,-11.36]},{"bufferView":5,"componentType":5126,"count":9,"type":"VEC3"},{"bufferView":6,"componentType":5126,"count":732,"type":"VEC3","min":[-22.373,-5.148000000000001,-18],"max":[22.373,1.95,29.82]},{"bufferView":7,"componentType":5126,"count":732,"type":"VEC3"},{"bufferView":8,"componentType":5126,"count":216,"type":"VEC3","min":[-3.0,-5.85,-7.7],"max":[3.0,-3.15,21.19]},{"bufferView":9,"componentType":5126,"count":216,"type":"VEC3"}]}