{"asset":{"version":"2.0","generator":"Skyward original illustrative b747 profile; logos for operator identification"},"scene":0,"scenes":[{"nodes":[0,1]}],"nodes":[{"mesh":0},{"mesh":1,"name":"Gear"}],"meshes":[{"primitives":[{"attributes":{"POSITION":0,"NORMAL":1},"material":0},{"attributes":{"POSITION":2,"NORMAL":3},"material":1},{"attributes":{"POSITION":4,"NORMAL":5},"material":2},{"attributes":{"POSITION":6,"NORMAL":7},"material":3},{"attributes":{"POSITION":10,"NORMAL":11,"TEXCOORD_0":12},"material":5},{"attributes":{"POSITION":13,"NORMAL":14},"material":6}]},{"primitives":[{"attributes":{"POSITION":8,"NORMAL":9},"material":4}]}],"materials":[{"doubleSided":true,"pbrMetallicRoughness":{"baseColorFactor":[0.94,0.95,0.96,1],"metallicFactor":0.18,"roughnessFactor":0.3}},{"doubleSided":true,"pbrMetallicRoughness":{"baseColorFactor":[0.64,0.68,0.72,1],"metallicFactor":0.18,"roughnessFactor":0.3}},{"doubleSided":true,"pbrMetallicRoughness":{"baseColorFactor":[0.13725490196078433,0.30196078431372547,0.6078431372549019,1],"metallicFactor":0.18,"roughnessFactor":0.3}},{"doubleSided":true,"pbrMetallicRoughness":{"baseColorFactor":[0.02,0.055,0.085,1],"metallicFactor":0.18,"roughnessFactor":0.17}},{"doubleSided":true,"pbrMetallicRoughness":{"baseColorFactor":[0.07,0.08,0.09,1],"metallicFactor":0.18,"roughnessFactor":0.3}},{"doubleSided":true,"pbrMetallicRoughness":{"baseColorFactor":[1,1,1,1],"metallicFactor":0,"roughnessFactor":0.75,"baseColorTexture":{"index":0}},"alphaMode":"BLEND"},{"doubleSided":true,"pbrMetallicRoughness":{"baseColorFactor":[0.36,0.4,0.44,1],"metallicFactor":0.7,"roughnessFactor":0.3}}],"buffers":[{"uri":"b747-v2.bin","byteLength":366240}],"bufferViews":[{"buffer":0,"byteOffset":0,"byteLength":89856,"target":34962},{"buffer":0,"byteOffset":89856,"byteLength":89856,"target":34962},{"buffer":0,"byteOffset":179712,"byteLength":3744,"target":34962},{"buffer":0,"byteOffset":183456,"byteLength":3744,"target":34962},{"buffer":0,"byteOffset":187200,"byteLength":432,"target":34962},{"buffer":0,"byteOffset":187632,"byteLength":432,"target":34962},{"buffer":0,"byteOffset":188064,"byteLength":55872,"target":34962},{"buffer":0,"byteOffset":243936,"byteLength":55872,"target":34962},{"buffer":0,"byteOffset":299808,"byteLength":2592,"target":34962},{"buffer":0,"byteOffset":302400,"byteLength":2592,"target":34962},{"buffer":0,"byteOffset":304992,"byteLength":288,"target":34962},{"buffer":0,"byteOffset":305280,"byteLength":288,"target":34962},{"buffer":0,"byteOffset":305568,"byteLength":192,"target":34962},{"buffer":0,"byteOffset":305760,"byteLength":30240,"target":34962},{"buffer":0,"byteOffset":336000,"byteLength":30240,"target":34962}],"accessors":[{"bufferView":0,"componentType":5126,"count":7488,"type":"VEC3","min":[-22.555,-5.4925,-35.5],"max":[22.555,4.225,35.5]},{"bufferView":1,"componentType":5126,"count":7488,"type":"VEC3"},{"bufferView":2,"componentType":5126,"count":312,"type":"VEC3","min":[-32.5,-3.8775,-34.79],"max":[32.5,1.98,7.1000000000000005]},{"bufferView":3,"componentType":5126,"count":312,"type":"VEC3"},{"bufferView":4,"componentType":5126,"count":36,"type":"VEC3","min":[-0.1,1.3,-35.145],"max":[0.1,13.545,-19.880000000000003]},{"bufferView":5,"componentType":5126,"count":36,"type":"VEC3"},{"bufferView":6,"componentType":5126,"count":4656,"type":"VEC3","min":[-22.204,-5.1415,-16.46],"max":[22.204,2.1775,29.465]},{"bufferView":7,"componentType":5126,"count":4656,"type":"VEC3"},{"bufferView":8,"componentType":5126,"count":216,"type":"VEC3","min":[-2.9,-5.25,-7.48],"max":[2.9,-3.25,20.97]},{"bufferView":9,"componentType":5126,"count":216,"type":"VEC3"},{"bufferView":10,"componentType":5126,"count":24,"type":"VEC3","min":[-3.29,-1.365,-31.737000000000002],"max":[3.29,10.350000000000001,16.2525]},{"bufferView":11,"componentType":5126,"count":24,"type":"VEC3"},{"bufferView":12,"componentType":5126,"count":24,"type":"VEC2"},{"bufferView":13,"componentType":5126,"count":2520,"type":"VEC3","min":[-22.4497,-5.3872,-16.330000000000002],"max":[22.4497,1.95,19.930000000000003]},{"bufferView":14,"componentType":5126,"count":2520,"type":"VEC3"}],"images":[{"uri":"../../airlines/SAS.png"}],"textures":[{"source":0,"sampler":0}],"samplers":[{"magFilter":9729,"minFilter":9987,"wrapS":33071,"wrapT":33071}]}