{"asset":{"version":"2.0","generator":"Skyward original illustrative b747 profile; logos for operator identification"},"scene":0,"scenes":[{"nodes":[0,1]}],"nodes":[{"mesh":0},{"mesh":1,"name":"Gear","children":[2,3,4]},{"mesh":2,"name":"WheelN","translation":[0,-4.85,20.59]},{"mesh":3,"name":"WheelL","translation":[-2.6,-4.85,-7.1000000000000005]},{"mesh":4,"name":"WheelR","translation":[2.6,-4.85,-7.1000000000000005]}],"meshes":[{"primitives":[{"attributes":{"POSITION":0,"NORMAL":1},"material":0},{"attributes":{"POSITION":2,"NORMAL":3},"material":1},{"attributes":{"POSITION":4,"NORMAL":5},"material":2},{"attributes":{"POSITION":6,"NORMAL":7},"material":3},{"attributes":{"POSITION":10,"NORMAL":11,"TEXCOORD_0":12},"material":5},{"attributes":{"POSITION":13,"NORMAL":14},"material":6},{"attributes":{"POSITION":15,"NORMAL":16},"material":7}]},{"primitives":[{"attributes":{"POSITION":8,"NORMAL":9},"material":4}]},{"primitives":[{"attributes":{"POSITION":17,"NORMAL":18},"material":4,"extras":{"wheel":0}}]},{"primitives":[{"attributes":{"POSITION":19,"NORMAL":20},"material":4,"extras":{"wheel":1}}]},{"primitives":[{"attributes":{"POSITION":21,"NORMAL":22},"material":4,"extras":{"wheel":2}}]}],"materials":[{"doubleSided":true,"pbrMetallicRoughness":{"baseColorFactor":[0.94,0.95,0.96,1],"metallicFactor":0.18,"roughnessFactor":0.3}},{"doubleSided":true,"pbrMetallicRoughness":{"baseColorFactor":[0.64,0.68,0.72,1],"metallicFactor":0.18,"roughnessFactor":0.3}},{"doubleSided":true,"pbrMetallicRoughness":{"baseColorFactor":[0.792156862745098,0.14901960784313725,0.20784313725490197,1],"metallicFactor":0.18,"roughnessFactor":0.3}},{"doubleSided":true,"pbrMetallicRoughness":{"baseColorFactor":[0.02,0.055,0.085,1],"metallicFactor":0.18,"roughnessFactor":0.17}},{"doubleSided":true,"pbrMetallicRoughness":{"baseColorFactor":[0.07,0.08,0.09,1],"metallicFactor":0.18,"roughnessFactor":0.3}},{"doubleSided":true,"pbrMetallicRoughness":{"baseColorFactor":[1,1,1,1],"metallicFactor":0,"roughnessFactor":0.75,"baseColorTexture":{"index":0}},"alphaMode":"BLEND"},{"doubleSided":true,"pbrMetallicRoughness":{"baseColorFactor":[0.36,0.4,0.44,1],"metallicFactor":0.7,"roughnessFactor":0.3}},{"doubleSided":true,"pbrMetallicRoughness":{"baseColorFactor":[0.792156862745098,0.14901960784313725,0.20784313725490197,1],"metallicFactor":0.18,"roughnessFactor":0.3}}],"buffers":[{"uri":"b747-v4.bin","byteLength":391584}],"bufferViews":[{"buffer":0,"byteOffset":0,"byteLength":48384,"target":34962},{"buffer":0,"byteOffset":48384,"byteLength":48384,"target":34962},{"buffer":0,"byteOffset":96768,"byteLength":3744,"target":34962},{"buffer":0,"byteOffset":100512,"byteLength":3744,"target":34962},{"buffer":0,"byteOffset":104256,"byteLength":432,"target":34962},{"buffer":0,"byteOffset":104688,"byteLength":432,"target":34962},{"buffer":0,"byteOffset":105120,"byteLength":55872,"target":34962},{"buffer":0,"byteOffset":160992,"byteLength":55872,"target":34962},{"buffer":0,"byteOffset":216864,"byteLength":1296,"target":34962},{"buffer":0,"byteOffset":218160,"byteLength":1296,"target":34962},{"buffer":0,"byteOffset":219456,"byteLength":288,"target":34962},{"buffer":0,"byteOffset":219744,"byteLength":288,"target":34962},{"buffer":0,"byteOffset":220032,"byteLength":192,"target":34962},{"buffer":0,"byteOffset":220224,"byteLength":30240,"target":34962},{"buffer":0,"byteOffset":250464,"byteLength":30240,"target":34962},{"buffer":0,"byteOffset":280704,"byteLength":41616,"target":34962},{"buffer":0,"byteOffset":322320,"byteLength":41616,"target":34962},{"buffer":0,"byteOffset":363936,"byteLength":4608,"target":34962},{"buffer":0,"byteOffset":368544,"byteLength":4608,"target":34962},{"buffer":0,"byteOffset":373152,"byteLength":4608,"target":34962},{"buffer":0,"byteOffset":377760,"byteLength":4608,"target":34962},{"buffer":0,"byteOffset":382368,"byteLength":4608,"target":34962},{"buffer":0,"byteOffset":386976,"byteLength":4608,"target":34962}],"accessors":[{"bufferView":0,"componentType":5126,"count":4032,"type":"VEC3","min":[-3.25,-3.25,-35.5],"max":[3.25,4.225,35.5]},{"bufferView":1,"componentType":5126,"count":4032,"type":"VEC3"},{"bufferView":2,"componentType":5126,"count":312,"type":"VEC3","min":[-32.5,-3.8775,-34.79],"max":[32.5,1.98,7.1000000000000005]},{"bufferView":3,"componentType":5126,"count":312,"type":"VEC3"},{"bufferView":4,"componentType":5126,"count":36,"type":"VEC3","min":[-0.1,1.3,-35.145],"max":[0.1,13.545,-19.880000000000003]},{"bufferView":5,"componentType":5126,"count":36,"type":"VEC3"},{"bufferView":6,"componentType":5126,"count":4656,"type":"VEC3","min":[-22.204,-5.1415,-16.46],"max":[22.204,2.1775,29.465]},{"bufferView":7,"componentType":5126,"count":4656,"type":"VEC3"},{"bufferView":8,"componentType":5126,"count":108,"type":"VEC3","min":[-2.7,-4.85,-7.2],"max":[2.7,-3.25,20.69]},{"bufferView":9,"componentType":5126,"count":108,"type":"VEC3"},{"bufferView":10,"componentType":5126,"count":24,"type":"VEC3","min":[-3.29,-1.365,-31.737000000000002],"max":[3.29,10.350000000000001,16.2525]},{"bufferView":11,"componentType":5126,"count":24,"type":"VEC3"},{"bufferView":12,"componentType":5126,"count":24,"type":"VEC2"},{"bufferView":13,"componentType":5126,"count":2520,"type":"VEC3","min":[-22.4497,-5.3872,-16.330000000000002],"max":[22.4497,1.95,19.930000000000003]},{"bufferView":14,"componentType":5126,"count":2520,"type":"VEC3"},{"bufferView":15,"componentType":5126,"count":3468,"type":"VEC3","min":[-22.555,-5.4925,-13.49],"max":[22.555,-1.5925,21.3]},{"bufferView":16,"componentType":5126,"count":3468,"type":"VEC3"},{"bufferView":17,"componentType":5126,"count":384,"type":"VEC3","min":[-0.25,-0.4,-0.4],"max":[0.25,0.4,0.4]},{"bufferView":18,"componentType":5126,"count":384,"type":"VEC3"},{"bufferView":19,"componentType":5126,"count":384,"type":"VEC3","min":[-0.25,-0.4,-0.4],"max":[0.25,0.4,0.4]},{"bufferView":20,"componentType":5126,"count":384,"type":"VEC3"},{"bufferView":21,"componentType":5126,"count":384,"type":"VEC3","min":[-0.25,-0.4,-0.4],"max":[0.25,0.4,0.4]},{"bufferView":22,"componentType":5126,"count":384,"type":"VEC3"}],"images":[{"uri":"../../airlines/UAE.png"}],"textures":[{"source":0,"sampler":0}],"samplers":[{"magFilter":9729,"minFilter":9987,"wrapS":33071,"wrapT":33071}]}