{"asset":{"version":"2.0","generator":"Skyward detailed procedural b747 fallback v5; approximate airframe; operator identification logos"},"scene":0,"scenes":[{"nodes":[0,1,5,6,7,8,9,10]}],"nodes":[{"mesh":0},{"mesh":1,"name":"Gear","children":[2,3,4]},{"mesh":2,"name":"WheelN","translation":[0,-4.85,20.59]},{"mesh":3,"name":"WheelL","translation":[-2.6,-4.85,-7.1000000000000005]},{"mesh":4,"name":"WheelR","translation":[2.6,-4.85,-7.1000000000000005]},{"mesh":5,"name":"FlexWingL"},{"mesh":6,"name":"FlexWingR"},{"mesh":7,"name":"SkywardFan0"},{"mesh":8,"name":"SkywardFan1"},{"mesh":9,"name":"SkywardFan2"},{"mesh":10,"name":"SkywardFan3"}],"meshes":[{"name":"AirframeWithCockpitGlazing","primitives":[{"indices":3,"attributes":{"POSITION":0,"NORMAL":1,"TEXCOORD_0":2},"material":0},{"indices":6,"attributes":{"POSITION":4,"NORMAL":5},"material":1},{"indices":9,"attributes":{"POSITION":7,"NORMAL":8},"material":2},{"attributes":{"POSITION":10,"NORMAL":11},"material":3},{"indices":15,"attributes":{"POSITION":12,"NORMAL":13,"TEXCOORD_0":14},"material":5},{"indices":18,"attributes":{"POSITION":16,"NORMAL":17},"material":6},{"indices":21,"attributes":{"POSITION":19,"NORMAL":20},"material":7}]},{"primitives":[{"indices":57,"attributes":{"POSITION":55,"NORMAL":56},"material":1,"extras":{"gear":true}},{"indices":60,"attributes":{"POSITION":58,"NORMAL":59},"material":6,"extras":{"gear":true}}]},{"primitives":[{"indices":24,"attributes":{"POSITION":22,"NORMAL":23},"material":4,"extras":{"wheel":0}}]},{"primitives":[{"indices":27,"attributes":{"POSITION":25,"NORMAL":26},"material":4,"extras":{"wheel":1}}]},{"primitives":[{"indices":30,"attributes":{"POSITION":28,"NORMAL":29},"material":4,"extras":{"wheel":2}}]},{"primitives":[{"indices":33,"attributes":{"POSITION":31,"NORMAL":32},"material":1,"extras":{"wing":0}},{"indices":36,"attributes":{"POSITION":34,"NORMAL":35},"material":6,"extras":{"wing":0}}]},{"primitives":[{"indices":39,"attributes":{"POSITION":37,"NORMAL":38},"material":1,"extras":{"wing":1}},{"indices":42,"attributes":{"POSITION":40,"NORMAL":41},"material":6,"extras":{"wing":1}}]},{"primitives":[{"indices":45,"attributes":{"POSITION":43,"NORMAL":44},"material":6,"extras":{"fan":0}}]},{"primitives":[{"indices":48,"attributes":{"POSITION":46,"NORMAL":47},"material":6,"extras":{"fan":1}}]},{"primitives":[{"indices":51,"attributes":{"POSITION":49,"NORMAL":50},"material":6,"extras":{"fan":2}}]},{"primitives":[{"indices":54,"attributes":{"POSITION":52,"NORMAL":53},"material":6,"extras":{"fan":3}}]}],"materials":[{"doubleSided":true,"pbrMetallicRoughness":{"baseColorFactor":[0.94,0.95,0.96,1],"metallicFactor":0.04,"roughnessFactor":0.27,"baseColorTexture":{"index":1}}},{"doubleSided":true,"pbrMetallicRoughness":{"baseColorFactor":[0.64,0.68,0.72,1],"metallicFactor":0.04,"roughnessFactor":0.4}},{"doubleSided":true,"pbrMetallicRoughness":{"baseColorFactor":[0.14901960784313725,0.24705882352941178,0.5058823529411764,1],"metallicFactor":0.04,"roughnessFactor":0.27}},{"doubleSided":true,"pbrMetallicRoughness":{"baseColorFactor":[0.02,0.055,0.085,1],"metallicFactor":0,"roughnessFactor":0.12}},{"doubleSided":true,"pbrMetallicRoughness":{"baseColorFactor":[0.07,0.08,0.09,1],"metallicFactor":0,"roughnessFactor":0.86}},{"doubleSided":true,"pbrMetallicRoughness":{"baseColorFactor":[1,1,1,1],"metallicFactor":0,"roughnessFactor":0.75,"baseColorTexture":{"index":0}},"alphaMode":"MASK","alphaCutoff":0.08},{"doubleSided":true,"pbrMetallicRoughness":{"baseColorFactor":[0.36,0.4,0.44,1],"metallicFactor":0.8,"roughnessFactor":0.28}},{"doubleSided":true,"pbrMetallicRoughness":{"baseColorFactor":[0.14901960784313725,0.24705882352941178,0.5058823529411764,1],"metallicFactor":0.04,"roughnessFactor":0.27}}],"buffers":[{"uri":"b747-v4.bin?tail=2&rig=1&detail=5","byteLength":1752672}],"bufferViews":[{"buffer":0,"byteOffset":0,"byteLength":45240,"target":34962},{"buffer":0,"byteOffset":45240,"byteLength":45240,"target":34962},{"buffer":0,"byteOffset":90480,"byteLength":30160,"target":34962},{"buffer":0,"byteOffset":120640,"byteLength":86016,"target":34963},{"buffer":0,"byteOffset":206656,"byteLength":1488,"target":34962},{"buffer":0,"byteOffset":208144,"byteLength":1488,"target":34962},{"buffer":0,"byteOffset":209632,"byteLength":864,"target":34963},{"buffer":0,"byteOffset":210496,"byteLength":288,"target":34962},{"buffer":0,"byteOffset":210784,"byteLength":288,"target":34962},{"buffer":0,"byteOffset":211072,"byteLength":144,"target":34963},{"buffer":0,"byteOffset":211216,"byteLength":336816,"target":34962},{"buffer":0,"byteOffset":548032,"byteLength":336816,"target":34962},{"buffer":0,"byteOffset":884848,"byteLength":192,"target":34962},{"buffer":0,"byteOffset":885040,"byteLength":192,"target":34962},{"buffer":0,"byteOffset":885232,"byteLength":128,"target":34962},{"buffer":0,"byteOffset":885360,"byteLength":96,"target":34963},{"buffer":0,"byteOffset":885456,"byteLength":54144,"target":34962},{"buffer":0,"byteOffset":939600,"byteLength":54144,"target":34962},{"buffer":0,"byteOffset":993744,"byteLength":56832,"target":34963},{"buffer":0,"byteOffset":1050576,"byteLength":40656,"target":34962},{"buffer":0,"byteOffset":1091232,"byteLength":40656,"target":34962},{"buffer":0,"byteOffset":1131888,"byteLength":73776,"target":34963},{"buffer":0,"byteOffset":1205664,"byteLength":14424,"target":34962},{"buffer":0,"byteOffset":1220088,"byteLength":14424,"target":34962},{"buffer":0,"byteOffset":1234512,"byteLength":7680,"target":34963},{"buffer":0,"byteOffset":1242192,"byteLength":14424,"target":34962},{"buffer":0,"byteOffset":1256616,"byteLength":14424,"target":34962},{"buffer":0,"byteOffset":1271040,"byteLength":7680,"target":34963},{"buffer":0,"byteOffset":1278720,"byteLength":14424,"target":34962},{"buffer":0,"byteOffset":1293144,"byteLength":14424,"target":34962},{"buffer":0,"byteOffset":1307568,"byteLength":7680,"target":34963},{"buffer":0,"byteOffset":1315248,"byteLength":42036,"target":34962},{"buffer":0,"byteOffset":1357284,"byteLength":42036,"target":34962},{"buffer":0,"byteOffset":1399320,"byteLength":59904,"target":34963},{"buffer":0,"byteOffset":1459224,"byteLength":432,"target":34962},{"buffer":0,"byteOffset":1459656,"byteLength":432,"target":34962},{"buffer":0,"byteOffset":1460088,"byteLength":288,"target":34963},{"buffer":0,"byteOffset":1460376,"byteLength":42036,"target":34962},{"buffer":0,"byteOffset":1502412,"byteLength":42036,"target":34962},{"buffer":0,"byteOffset":1544448,"byteLength":59904,"target":34963},{"buffer":0,"byteOffset":1604352,"byteLength":432,"target":34962},{"buffer":0,"byteOffset":1604784,"byteLength":432,"target":34962},{"buffer":0,"byteOffset":1605216,"byteLength":288,"target":34963},{"buffer":0,"byteOffset":1605504,"byteLength":9036,"target":34962},{"buffer":0,"byteOffset":1614540,"byteLength":9036,"target":34962},{"buffer":0,"byteOffset":1623576,"byteLength":12960,"target":34963},{"buffer":0,"byteOffset":1636536,"byteLength":9036,"target":34962},{"buffer":0,"byteOffset":1645572,"byteLength":9036,"target":34962},{"buffer":0,"byteOffset":1654608,"byteLength":12960,"target":34963},{"buffer":0,"byteOffset":1667568,"byteLength":9036,"target":34962},{"buffer":0,"byteOffset":1676604,"byteLength":9036,"target":34962},{"buffer":0,"byteOffset":1685640,"byteLength":12960,"target":34963},{"buffer":0,"byteOffset":1698600,"byteLength":9036,"target":34962},{"buffer":0,"byteOffset":1707636,"byteLength":9036,"target":34962},{"buffer":0,"byteOffset":1716672,"byteLength":12960,"target":34963},{"buffer":0,"byteOffset":1729632,"byteLength":2304,"target":34962},{"buffer":0,"byteOffset":1731936,"byteLength":2304,"target":34962},{"buffer":0,"byteOffset":1734240,"byteLength":1152,"target":34963},{"buffer":0,"byteOffset":1735392,"byteLength":6912,"target":34962},{"buffer":0,"byteOffset":1742304,"byteLength":6912,"target":34962},{"buffer":0,"byteOffset":1749216,"byteLength":3456,"target":34963}],"accessors":[{"bufferView":0,"componentType":5126,"count":3770,"type":"VEC3","min":[-3.25,-3.25,-35.5],"max":[3.25,4.225,35.5]},{"bufferView":1,"componentType":5126,"count":3770,"type":"VEC3"},{"bufferView":2,"componentType":5126,"count":3770,"type":"VEC2"},{"bufferView":3,"componentType":5125,"count":21504,"type":"SCALAR"},{"bufferView":4,"componentType":5126,"count":124,"type":"VEC3","min":[-20.94,-3.8775,-34.79],"max":[20.66,1.98,3.195]},{"bufferView":5,"componentType":5126,"count":124,"type":"VEC3"},{"bufferView":6,"componentType":5125,"count":216,"type":"SCALAR"},{"bufferView":7,"componentType":5126,"count":24,"type":"VEC3","min":[-0.1,1.3,-35.145],"max":[0.1,13.545,-19.880000000000003]},{"bufferView":8,"componentType":5126,"count":24,"type":"VEC3"},{"bufferView":9,"componentType":5125,"count":36,"type":"SCALAR"},{"bufferView":10,"componentType":5126,"count":28068,"type":"VEC3","min":[-22.204,-5.1415,-16.46],"max":[22.204,3.1339875160369646,28.684]},{"bufferView":11,"componentType":5126,"count":28068,"type":"VEC3"},{"bufferView":12,"componentType":5126,"count":16,"type":"VEC3","min":[-3.29,-1.365,-31.808],"max":[3.29,11.131,16.2525]},{"bufferView":13,"componentType":5126,"count":16,"type":"VEC3"},{"bufferView":14,"componentType":5126,"count":16,"type":"VEC2"},{"bufferView":15,"componentType":5125,"count":24,"type":"SCALAR"},{"bufferView":16,"componentType":5126,"count":4512,"type":"VEC3","min":[-22.4497,-5.3872,-16.765],"max":[22.4497,3.141867623573032,28.684]},{"bufferView":17,"componentType":5126,"count":4512,"type":"VEC3"},{"bufferView":18,"componentType":5125,"count":14208,"type":"SCALAR"},{"bufferView":19,"componentType":5126,"count":3388,"type":"VEC3","min":[-22.555,-5.4925,-13.49],"max":[22.555,-1.5925,21.3]},{"bufferView":20,"componentType":5126,"count":3388,"type":"VEC3"},{"bufferView":21,"componentType":5125,"count":18444,"type":"SCALAR"},{"bufferView":22,"componentType":5126,"count":1202,"type":"VEC3","min":[-0.25,-0.4,-0.4],"max":[0.25,0.4,0.4]},{"bufferView":23,"componentType":5126,"count":1202,"type":"VEC3"},{"bufferView":24,"componentType":5125,"count":1920,"type":"SCALAR"},{"bufferView":25,"componentType":5126,"count":1202,"type":"VEC3","min":[-0.25,-0.4,-0.4],"max":[0.25,0.4,0.4]},{"bufferView":26,"componentType":5126,"count":1202,"type":"VEC3"},{"bufferView":27,"componentType":5125,"count":1920,"type":"SCALAR"},{"bufferView":28,"componentType":5126,"count":1202,"type":"VEC3","min":[-0.25,-0.4,-0.4],"max":[0.25,0.4,0.4]},{"bufferView":29,"componentType":5126,"count":1202,"type":"VEC3"},{"bufferView":30,"componentType":5125,"count":1920,"type":"SCALAR"},{"bufferView":31,"componentType":5126,"count":3503,"type":"VEC3","min":[-32.5,-2.257451332182032,-20.052869565217392],"max":[-2.4375,1.0405313316168694,7.1000000000000005]},{"bufferView":32,"componentType":5126,"count":3503,"type":"VEC3"},{"bufferView":33,"componentType":5125,"count":14976,"type":"SCALAR"},{"bufferView":34,"componentType":5126,"count":36,"type":"VEC3","min":[-32.5,-0.9157424313052134,-17.872475],"max":[-2.4375,1.0135234006402205,-5.935600000000002]},{"bufferView":35,"componentType":5126,"count":36,"type":"VEC3"},{"bufferView":36,"componentType":5125,"count":72,"type":"SCALAR"},{"bufferView":37,"componentType":5126,"count":3503,"type":"VEC3","min":[2.4375,-2.257451332182032,-20.052869565217392],"max":[32.5,1.0405313316168694,7.1000000000000005]},{"bufferView":38,"componentType":5126,"count":3503,"type":"VEC3"},{"bufferView":39,"componentType":5125,"count":14976,"type":"SCALAR"},{"bufferView":40,"componentType":5126,"count":36,"type":"VEC3","min":[2.4375,-0.9157424313052134,-17.872475],"max":[32.5,1.0135234006402205,-5.935600000000002]},{"bufferView":41,"componentType":5126,"count":36,"type":"VEC3"},{"bufferView":42,"componentType":5125,"count":72,"type":"SCALAR"},{"bufferView":43,"componentType":5126,"count":753,"type":"VEC3","min":[-13.701336922073,-5.088836922073002,2.1667],"max":[-10.998663077926999,-2.386163077926998,3.9050000000000002]},{"bufferView":44,"componentType":5126,"count":753,"type":"VEC3"},{"bufferView":45,"componentType":5125,"count":3240,"type":"SCALAR"},{"bufferView":46,"componentType":5126,"count":753,"type":"VEC3","min":[-22.151336922073003,-5.088836922073002,-5.2883],"max":[-19.448663077926998,-2.386163077926998,-3.5499999999999994]},{"bufferView":47,"componentType":5126,"count":753,"type":"VEC3"},{"bufferView":48,"componentType":5125,"count":3240,"type":"SCALAR"},{"bufferView":49,"componentType":5126,"count":753,"type":"VEC3","min":[10.998663077926999,-5.088836922073002,2.1667],"max":[13.701336922073,-2.386163077926998,3.9050000000000002]},{"bufferView":50,"componentType":5126,"count":753,"type":"VEC3"},{"bufferView":51,"componentType":5125,"count":3240,"type":"SCALAR"},{"bufferView":52,"componentType":5126,"count":753,"type":"VEC3","min":[19.448663077926998,-5.088836922073002,-5.2883],"max":[22.151336922073003,-2.386163077926998,-3.5499999999999994]},{"bufferView":53,"componentType":5126,"count":753,"type":"VEC3"},{"bufferView":54,"componentType":5125,"count":3240,"type":"SCALAR"},{"bufferView":55,"componentType":5126,"count":192,"type":"VEC3","min":[-2.72,-4.45,-7.220000000000001],"max":[2.72,-3.85,20.71]},{"bufferView":56,"componentType":5126,"count":192,"type":"VEC3"},{"bufferView":57,"componentType":5125,"count":288,"type":"SCALAR"},{"bufferView":58,"componentType":5126,"count":576,"type":"VEC3","min":[-2.89,-5.05,-7.300000000000001],"max":[2.89,-2.275,21.043517075356075]},{"bufferView":59,"componentType":5126,"count":576,"type":"VEC3"},{"bufferView":60,"componentType":5125,"count":864,"type":"SCALAR"}],"images":[{"uri":"../../airlines/BAW.png"},{"uri":"fallback-paint-v5.png"}],"textures":[{"source":0,"sampler":0},{"source":1,"sampler":0}],"samplers":[{"magFilter":9729,"minFilter":9987,"wrapS":33071,"wrapT":33071}]}