{"asset":{"version":"2.0","generator":"Skyward detailed procedural b747 fallback v6; approximate airframe; operator identification logos"},"scene":0,"scenes":[{"nodes":[0,1,11,12,13,14,15,16,17,18,19,20,21,22,23,24,25]}],"nodes":[{"mesh":0},{"mesh":1,"name":"Gear","children":[2,3,4,5,6,7,8,9,10]},{"mesh":2,"name":"WheelN","translation":[0,-4.85,20.59]},{"mesh":3,"name":"WheelL","translation":[-3.575,-4.85,-7.625000000000001]},{"mesh":4,"name":"WheelR","translation":[3.575,-4.85,-7.625000000000001]},{"mesh":5,"name":"WheelL2","translation":[-3.575,-4.85,-6.575]},{"mesh":6,"name":"WheelR2","translation":[3.575,-4.85,-6.575]},{"mesh":7,"name":"WheelBL0","translation":[-1.365,-4.85,-11.885]},{"mesh":8,"name":"WheelBR0","translation":[1.365,-4.85,-11.885]},{"mesh":9,"name":"WheelBL1","translation":[-1.365,-4.85,-10.834999999999999]},{"mesh":10,"name":"WheelBR1","translation":[1.365,-4.85,-10.834999999999999]},{"mesh":11,"name":"SlatL"},{"mesh":12,"name":"FlapL"},{"mesh":13,"name":"SpoilerL"},{"mesh":14,"name":"ElevatorL"},{"mesh":15,"name":"SlatR"},{"mesh":16,"name":"FlapR"},{"mesh":17,"name":"SpoilerR"},{"mesh":18,"name":"ElevatorR"},{"mesh":19,"name":"Rudder"},{"mesh":20,"name":"FlexWingL"},{"mesh":21,"name":"FlexWingR"},{"mesh":22,"name":"SkywardFan0"},{"mesh":23,"name":"SkywardFan1"},{"mesh":24,"name":"SkywardFan2"},{"mesh":25,"name":"SkywardFan3"}],"meshes":[{"name":"AirframeWithCockpitGlazing","primitives":[{"indices":3,"attributes":{"POSITION":0,"NORMAL":1,"TEXCOORD_0":2},"material":0},{"indices":6,"attributes":{"POSITION":4,"NORMAL":5},"material":1},{"indices":9,"attributes":{"POSITION":7,"NORMAL":8},"material":2},{"attributes":{"POSITION":10,"NORMAL":11},"material":3},{"indices":15,"attributes":{"POSITION":12,"NORMAL":13,"TEXCOORD_0":14},"material":5},{"indices":18,"attributes":{"POSITION":16,"NORMAL":17},"material":6},{"indices":21,"attributes":{"POSITION":19,"NORMAL":20},"material":7},{"attributes":{"POSITION":137,"NORMAL":138,"TEXCOORD_0":139},"material":8}]},{"primitives":[{"indices":76,"attributes":{"POSITION":73,"NORMAL":74,"TEXCOORD_0":75},"material":0,"extras":{"gear":true}},{"indices":79,"attributes":{"POSITION":77,"NORMAL":78},"material":1,"extras":{"gear":true}},{"indices":82,"attributes":{"POSITION":80,"NORMAL":81},"material":6,"extras":{"gear":true}}]},{"primitives":[{"indices":24,"attributes":{"POSITION":22,"NORMAL":23},"material":4,"extras":{"wheel":0}},{"indices":112,"attributes":{"POSITION":110,"NORMAL":111},"material":6,"extras":{"wheel":0}}]},{"primitives":[{"indices":27,"attributes":{"POSITION":25,"NORMAL":26},"material":4,"extras":{"wheel":1}},{"indices":115,"attributes":{"POSITION":113,"NORMAL":114},"material":6,"extras":{"wheel":1}}]},{"primitives":[{"indices":30,"attributes":{"POSITION":28,"NORMAL":29},"material":4,"extras":{"wheel":2}},{"indices":118,"attributes":{"POSITION":116,"NORMAL":117},"material":6,"extras":{"wheel":2}}]},{"primitives":[{"indices":33,"attributes":{"POSITION":31,"NORMAL":32},"material":4,"extras":{"wheel":3}},{"indices":121,"attributes":{"POSITION":119,"NORMAL":120},"material":6,"extras":{"wheel":3}}]},{"primitives":[{"indices":36,"attributes":{"POSITION":34,"NORMAL":35},"material":4,"extras":{"wheel":4}},{"indices":124,"attributes":{"POSITION":122,"NORMAL":123},"material":6,"extras":{"wheel":4}}]},{"primitives":[{"indices":39,"attributes":{"POSITION":37,"NORMAL":38},"material":4,"extras":{"wheel":5}},{"indices":127,"attributes":{"POSITION":125,"NORMAL":126},"material":6,"extras":{"wheel":5}}]},{"primitives":[{"indices":42,"attributes":{"POSITION":40,"NORMAL":41},"material":4,"extras":{"wheel":6}},{"indices":130,"attributes":{"POSITION":128,"NORMAL":129},"material":6,"extras":{"wheel":6}}]},{"primitives":[{"indices":45,"attributes":{"POSITION":43,"NORMAL":44},"material":4,"extras":{"wheel":7}},{"indices":133,"attributes":{"POSITION":131,"NORMAL":132},"material":6,"extras":{"wheel":7}}]},{"primitives":[{"indices":48,"attributes":{"POSITION":46,"NORMAL":47},"material":4,"extras":{"wheel":8}},{"indices":136,"attributes":{"POSITION":134,"NORMAL":135},"material":6,"extras":{"wheel":8}}]},{"primitives":[{"indices":85,"attributes":{"POSITION":83,"NORMAL":84},"material":1,"extras":{"surface":0}}]},{"primitives":[{"indices":88,"attributes":{"POSITION":86,"NORMAL":87},"material":1,"extras":{"surface":1}}]},{"primitives":[{"indices":91,"attributes":{"POSITION":89,"NORMAL":90},"material":1,"extras":{"surface":2}}]},{"primitives":[{"indices":94,"attributes":{"POSITION":92,"NORMAL":93},"material":1,"extras":{"surface":3}}]},{"primitives":[{"indices":97,"attributes":{"POSITION":95,"NORMAL":96},"material":1,"extras":{"surface":4}}]},{"primitives":[{"indices":100,"attributes":{"POSITION":98,"NORMAL":99},"material":1,"extras":{"surface":5}}]},{"primitives":[{"indices":103,"attributes":{"POSITION":101,"NORMAL":102},"material":1,"extras":{"surface":6}}]},{"primitives":[{"indices":106,"attributes":{"POSITION":104,"NORMAL":105},"material":1,"extras":{"surface":7}}]},{"primitives":[{"indices":109,"attributes":{"POSITION":107,"NORMAL":108},"material":2,"extras":{"surface":8}}]},{"primitives":[{"indices":51,"attributes":{"POSITION":49,"NORMAL":50},"material":1,"extras":{"wing":0}},{"indices":54,"attributes":{"POSITION":52,"NORMAL":53},"material":6,"extras":{"wing":0}}]},{"primitives":[{"indices":57,"attributes":{"POSITION":55,"NORMAL":56},"material":1,"extras":{"wing":1}},{"indices":60,"attributes":{"POSITION":58,"NORMAL":59},"material":6,"extras":{"wing":1}}]},{"primitives":[{"indices":63,"attributes":{"POSITION":61,"NORMAL":62},"material":6,"extras":{"fan":0}}]},{"primitives":[{"indices":66,"attributes":{"POSITION":64,"NORMAL":65},"material":6,"extras":{"fan":1}}]},{"primitives":[{"indices":69,"attributes":{"POSITION":67,"NORMAL":68},"material":6,"extras":{"fan":2}}]},{"primitives":[{"indices":72,"attributes":{"POSITION":70,"NORMAL":71},"material":6,"extras":{"fan":3}}]}],"materials":[{"doubleSided":true,"pbrMetallicRoughness":{"baseColorFactor":[0.94,0.95,0.96,1],"metallicFactor":0.04,"roughnessFactor":0.27,"baseColorTexture":{"index":1}}},{"doubleSided":true,"pbrMetallicRoughness":{"baseColorFactor":[0.64,0.68,0.72,1],"metallicFactor":0.04,"roughnessFactor":0.4}},{"doubleSided":true,"pbrMetallicRoughness":{"baseColorFactor":[0.1450980392156863,0.5450980392156862,0.3137254901960784,1],"metallicFactor":0.04,"roughnessFactor":0.27}},{"doubleSided":true,"pbrMetallicRoughness":{"baseColorFactor":[0.02,0.055,0.085,1],"metallicFactor":0,"roughnessFactor":0.12}},{"doubleSided":true,"pbrMetallicRoughness":{"baseColorFactor":[0.07,0.08,0.09,1],"metallicFactor":0,"roughnessFactor":0.86}},{"doubleSided":true,"pbrMetallicRoughness":{"baseColorFactor":[1,1,1,1],"metallicFactor":0,"roughnessFactor":0.75,"baseColorTexture":{"index":0}},"alphaMode":"MASK","alphaCutoff":0.08},{"doubleSided":true,"pbrMetallicRoughness":{"baseColorFactor":[0.36,0.4,0.44,1],"metallicFactor":0.8,"roughnessFactor":0.28}},{"doubleSided":true,"pbrMetallicRoughness":{"baseColorFactor":[0.1450980392156863,0.5450980392156862,0.3137254901960784,1],"metallicFactor":0.04,"roughnessFactor":0.27}},{"name":"Operator title","doubleSided":true,"alphaMode":"MASK","alphaCutoff":0.15,"pbrMetallicRoughness":{"baseColorTexture":{"index":2},"baseColorFactor":[0.1450980392156863,0.5450980392156862,0.3137254901960784,1],"roughnessFactor":0.6,"metallicFactor":0}}],"buffers":[{"uri":"b747-v4.bin?tail=2&rig=1&detail=6","byteLength":2291136},{"uri":"b747-title.bin?detail=6","byteLength":18432}],"bufferViews":[{"buffer":0,"byteOffset":0,"byteLength":45240,"target":34962},{"buffer":0,"byteOffset":45240,"byteLength":45240,"target":34962},{"buffer":0,"byteOffset":90480,"byteLength":30160,"target":34962},{"buffer":0,"byteOffset":120640,"byteLength":86016,"target":34963},{"buffer":0,"byteOffset":206656,"byteLength":1488,"target":34962},{"buffer":0,"byteOffset":208144,"byteLength":1488,"target":34962},{"buffer":0,"byteOffset":209632,"byteLength":864,"target":34963},{"buffer":0,"byteOffset":210496,"byteLength":288,"target":34962},{"buffer":0,"byteOffset":210784,"byteLength":288,"target":34962},{"buffer":0,"byteOffset":211072,"byteLength":144,"target":34963},{"buffer":0,"byteOffset":211216,"byteLength":336816,"target":34962},{"buffer":0,"byteOffset":548032,"byteLength":336816,"target":34962},{"buffer":0,"byteOffset":884848,"byteLength":192,"target":34962},{"buffer":0,"byteOffset":885040,"byteLength":192,"target":34962},{"buffer":0,"byteOffset":885232,"byteLength":128,"target":34962},{"buffer":0,"byteOffset":885360,"byteLength":96,"target":34963},{"buffer":0,"byteOffset":885456,"byteLength":75888,"target":34962},{"buffer":0,"byteOffset":961344,"byteLength":75888,"target":34962},{"buffer":0,"byteOffset":1037232,"byteLength":84480,"target":34963},{"buffer":0,"byteOffset":1121712,"byteLength":40656,"target":34962},{"buffer":0,"byteOffset":1162368,"byteLength":40656,"target":34962},{"buffer":0,"byteOffset":1203024,"byteLength":73776,"target":34963},{"buffer":0,"byteOffset":1276800,"byteLength":21504,"target":34962},{"buffer":0,"byteOffset":1298304,"byteLength":21504,"target":34962},{"buffer":0,"byteOffset":1319808,"byteLength":10752,"target":34963},{"buffer":0,"byteOffset":1330560,"byteLength":21504,"target":34962},{"buffer":0,"byteOffset":1352064,"byteLength":21504,"target":34962},{"buffer":0,"byteOffset":1373568,"byteLength":10752,"target":34963},{"buffer":0,"byteOffset":1384320,"byteLength":21504,"target":34962},{"buffer":0,"byteOffset":1405824,"byteLength":21504,"target":34962},{"buffer":0,"byteOffset":1427328,"byteLength":10752,"target":34963},{"buffer":0,"byteOffset":1438080,"byteLength":21504,"target":34962},{"buffer":0,"byteOffset":1459584,"byteLength":21504,"target":34962},{"buffer":0,"byteOffset":1481088,"byteLength":10752,"target":34963},{"buffer":0,"byteOffset":1491840,"byteLength":21504,"target":34962},{"buffer":0,"byteOffset":1513344,"byteLength":21504,"target":34962},{"buffer":0,"byteOffset":1534848,"byteLength":10752,"target":34963},{"buffer":0,"byteOffset":1545600,"byteLength":21504,"target":34962},{"buffer":0,"byteOffset":1567104,"byteLength":21504,"target":34962},{"buffer":0,"byteOffset":1588608,"byteLength":10752,"target":34963},{"buffer":0,"byteOffset":1599360,"byteLength":21504,"target":34962},{"buffer":0,"byteOffset":1620864,"byteLength":21504,"target":34962},{"buffer":0,"byteOffset":1642368,"byteLength":10752,"target":34963},{"buffer":0,"byteOffset":1653120,"byteLength":21504,"target":34962},{"buffer":0,"byteOffset":1674624,"byteLength":21504,"target":34962},{"buffer":0,"byteOffset":1696128,"byteLength":10752,"target":34963},{"buffer":0,"byteOffset":1706880,"byteLength":21504,"target":34962},{"buffer":0,"byteOffset":1728384,"byteLength":21504,"target":34962},{"buffer":0,"byteOffset":1749888,"byteLength":10752,"target":34963},{"buffer":0,"byteOffset":1760640,"byteLength":39156,"target":34962},{"buffer":0,"byteOffset":1799796,"byteLength":39156,"target":34962},{"buffer":0,"byteOffset":1838952,"byteLength":58944,"target":34963},{"buffer":0,"byteOffset":1897896,"byteLength":432,"target":34962},{"buffer":0,"byteOffset":1898328,"byteLength":432,"target":34962},{"buffer":0,"byteOffset":1898760,"byteLength":288,"target":34963},{"buffer":0,"byteOffset":1899048,"byteLength":39156,"target":34962},{"buffer":0,"byteOffset":1938204,"byteLength":39156,"target":34962},{"buffer":0,"byteOffset":1977360,"byteLength":58944,"target":34963},{"buffer":0,"byteOffset":2036304,"byteLength":432,"target":34962},{"buffer":0,"byteOffset":2036736,"byteLength":432,"target":34962},{"buffer":0,"byteOffset":2037168,"byteLength":288,"target":34963},{"buffer":0,"byteOffset":2037456,"byteLength":9036,"target":34962},{"buffer":0,"byteOffset":2046492,"byteLength":9036,"target":34962},{"buffer":0,"byteOffset":2055528,"byteLength":12960,"target":34963},{"buffer":0,"byteOffset":2068488,"byteLength":9036,"target":34962},{"buffer":0,"byteOffset":2077524,"byteLength":9036,"target":34962},{"buffer":0,"byteOffset":2086560,"byteLength":12960,"target":34963},{"buffer":0,"byteOffset":2099520,"byteLength":9036,"target":34962},{"buffer":0,"byteOffset":2108556,"byteLength":9036,"target":34962},{"buffer":0,"byteOffset":2117592,"byteLength":12960,"target":34963},{"buffer":0,"byteOffset":2130552,"byteLength":9036,"target":34962},{"buffer":0,"byteOffset":2139588,"byteLength":9036,"target":34962},{"buffer":0,"byteOffset":2148624,"byteLength":12960,"target":34963},{"buffer":0,"byteOffset":2161584,"byteLength":864,"target":34962},{"buffer":0,"byteOffset":2162448,"byteLength":864,"target":34962},{"buffer":0,"byteOffset":2163312,"byteLength":576,"target":34962},{"buffer":0,"byteOffset":2163888,"byteLength":432,"target":34963},{"buffer":0,"byteOffset":2164320,"byteLength":6912,"target":34962},{"buffer":0,"byteOffset":2171232,"byteLength":6912,"target":34962},{"buffer":0,"byteOffset":2178144,"byteLength":3456,"target":34963},{"buffer":0,"byteOffset":2181600,"byteLength":20736,"target":34962},{"buffer":0,"byteOffset":2202336,"byteLength":20736,"target":34962},{"buffer":0,"byteOffset":2223072,"byteLength":10368,"target":34963},{"buffer":0,"byteOffset":2233440,"byteLength":864,"target":34962},{"buffer":0,"byteOffset":2234304,"byteLength":864,"target":34962},{"buffer":0,"byteOffset":2235168,"byteLength":288,"target":34963},{"buffer":0,"byteOffset":2235456,"byteLength":1728,"target":34962},{"buffer":0,"byteOffset":2237184,"byteLength":1728,"target":34962},{"buffer":0,"byteOffset":2238912,"byteLength":576,"target":34963},{"buffer":0,"byteOffset":2239488,"byteLength":288,"target":34962},{"buffer":0,"byteOffset":2239776,"byteLength":288,"target":34962},{"buffer":0,"byteOffset":2240064,"byteLength":96,"target":34963},{"buffer":0,"byteOffset":2240160,"byteLength":288,"target":34962},{"buffer":0,"byteOffset":2240448,"byteLength":288,"target":34962},{"buffer":0,"byteOffset":2240736,"byteLength":144,"target":34963},{"buffer":0,"byteOffset":2240880,"byteLength":864,"target":34962},{"buffer":0,"byteOffset":2241744,"byteLength":864,"target":34962},{"buffer":0,"byteOffset":2242608,"byteLength":288,"target":34963},{"buffer":0,"byteOffset":2242896,"byteLength":1728,"target":34962},{"buffer":0,"byteOffset":2244624,"byteLength":1728,"target":34962},{"buffer":0,"byteOffset":2246352,"byteLength":576,"target":34963},{"buffer":0,"byteOffset":2246928,"byteLength":288,"target":34962},{"buffer":0,"byteOffset":2247216,"byteLength":288,"target":34962},{"buffer":0,"byteOffset":2247504,"byteLength":96,"target":34963},{"buffer":0,"byteOffset":2247600,"byteLength":288,"target":34962},{"buffer":0,"byteOffset":2247888,"byteLength":288,"target":34962},{"buffer":0,"byteOffset":2248176,"byteLength":144,"target":34963},{"buffer":0,"byteOffset":2248320,"byteLength":168,"target":34962},{"buffer":0,"byteOffset":2248488,"byteLength":168,"target":34962},{"buffer":0,"byteOffset":2248656,"byteLength":144,"target":34963},{"buffer":0,"byteOffset":2248800,"byteLength":1584,"target":34962},{"buffer":0,"byteOffset":2250384,"byteLength":1584,"target":34962},{"buffer":0,"byteOffset":2251968,"byteLength":1536,"target":34963},{"buffer":0,"byteOffset":2253504,"byteLength":1584,"target":34962},{"buffer":0,"byteOffset":2255088,"byteLength":1584,"target":34962},{"buffer":0,"byteOffset":2256672,"byteLength":1536,"target":34963},{"buffer":0,"byteOffset":2258208,"byteLength":1584,"target":34962},{"buffer":0,"byteOffset":2259792,"byteLength":1584,"target":34962},{"buffer":0,"byteOffset":2261376,"byteLength":1536,"target":34963},{"buffer":0,"byteOffset":2262912,"byteLength":1584,"target":34962},{"buffer":0,"byteOffset":2264496,"byteLength":1584,"target":34962},{"buffer":0,"byteOffset":2266080,"byteLength":1536,"target":34963},{"buffer":0,"byteOffset":2267616,"byteLength":1584,"target":34962},{"buffer":0,"byteOffset":2269200,"byteLength":1584,"target":34962},{"buffer":0,"byteOffset":2270784,"byteLength":1536,"target":34963},{"buffer":0,"byteOffset":2272320,"byteLength":1584,"target":34962},{"buffer":0,"byteOffset":2273904,"byteLength":1584,"target":34962},{"buffer":0,"byteOffset":2275488,"byteLength":1536,"target":34963},{"buffer":0,"byteOffset":2277024,"byteLength":1584,"target":34962},{"buffer":0,"byteOffset":2278608,"byteLength":1584,"target":34962},{"buffer":0,"byteOffset":2280192,"byteLength":1536,"target":34963},{"buffer":0,"byteOffset":2281728,"byteLength":1584,"target":34962},{"buffer":0,"byteOffset":2283312,"byteLength":1584,"target":34962},{"buffer":0,"byteOffset":2284896,"byteLength":1536,"target":34963},{"buffer":0,"byteOffset":2286432,"byteLength":1584,"target":34962},{"buffer":0,"byteOffset":2288016,"byteLength":1584,"target":34962},{"buffer":0,"byteOffset":2289600,"byteLength":1536,"target":34963},{"buffer":1,"byteOffset":0,"byteLength":6912,"target":34962},{"buffer":1,"byteOffset":6912,"byteLength":6912,"target":34962},{"buffer":1,"byteOffset":13824,"byteLength":4608,"target":34962}],"accessors":[{"bufferView":0,"componentType":5126,"count":3770,"type":"VEC3","min":[-3.25,-3.25,-35.5],"max":[3.25,4.225,35.5]},{"bufferView":1,"componentType":5126,"count":3770,"type":"VEC3"},{"bufferView":2,"componentType":5126,"count":3770,"type":"VEC2"},{"bufferView":3,"componentType":5125,"count":21504,"type":"SCALAR"},{"bufferView":4,"componentType":5126,"count":124,"type":"VEC3","min":[-20.94,-3.8775,-33.015],"max":[20.66,1.98,3.195]},{"bufferView":5,"componentType":5126,"count":124,"type":"VEC3"},{"bufferView":6,"componentType":5125,"count":216,"type":"SCALAR"},{"bufferView":7,"componentType":5126,"count":24,"type":"VEC3","min":[-0.1,1.3,-33.015],"max":[0.1,12.48,-19.880000000000003]},{"bufferView":8,"componentType":5126,"count":24,"type":"VEC3"},{"bufferView":9,"componentType":5125,"count":36,"type":"SCALAR"},{"bufferView":10,"componentType":5126,"count":28068,"type":"VEC3","min":[-22.204,-5.1415,-16.46],"max":[22.204,3.1339875160369646,28.684]},{"bufferView":11,"componentType":5126,"count":28068,"type":"VEC3"},{"bufferView":12,"componentType":5126,"count":16,"type":"VEC3","min":[-3.29,-1.365,-31.808],"max":[3.29,10.080200000000001,16.2525]},{"bufferView":13,"componentType":5126,"count":16,"type":"VEC3"},{"bufferView":14,"componentType":5126,"count":16,"type":"VEC2"},{"bufferView":15,"componentType":5125,"count":24,"type":"SCALAR"},{"bufferView":16,"componentType":5126,"count":6324,"type":"VEC3","min":[-22.523410000000002,-5.46091,-16.765],"max":[22.523410000000002,3.141867623573032,28.684]},{"bufferView":17,"componentType":5126,"count":6324,"type":"VEC3"},{"bufferView":18,"componentType":5125,"count":21120,"type":"SCALAR"},{"bufferView":19,"componentType":5126,"count":3388,"type":"VEC3","min":[-22.555,-5.4925,-13.49],"max":[22.555,-1.5925,21.3]},{"bufferView":20,"componentType":5126,"count":3388,"type":"VEC3"},{"bufferView":21,"componentType":5125,"count":18444,"type":"SCALAR"},{"bufferView":22,"componentType":5126,"count":1792,"type":"VEC3","min":[-0.41000000000000003,-0.4,-0.4],"max":[0.41000000000000003,0.4,0.4]},{"bufferView":23,"componentType":5126,"count":1792,"type":"VEC3"},{"bufferView":24,"componentType":5125,"count":2688,"type":"SCALAR"},{"bufferView":25,"componentType":5126,"count":1792,"type":"VEC3","min":[-0.41000000000000003,-0.52,-0.52],"max":[0.41000000000000003,0.52,0.52]},{"bufferView":26,"componentType":5126,"count":1792,"type":"VEC3"},{"bufferView":27,"componentType":5125,"count":2688,"type":"SCALAR"},{"bufferView":28,"componentType":5126,"count":1792,"type":"VEC3","min":[-0.41000000000000003,-0.52,-0.52],"max":[0.41000000000000003,0.52,0.52]},{"bufferView":29,"componentType":5126,"count":1792,"type":"VEC3"},{"bufferView":30,"componentType":5125,"count":2688,"type":"SCALAR"},{"bufferView":31,"componentType":5126,"count":1792,"type":"VEC3","min":[-0.41000000000000003,-0.52,-0.52],"max":[0.41000000000000003,0.52,0.52]},{"bufferView":32,"componentType":5126,"count":1792,"type":"VEC3"},{"bufferView":33,"componentType":5125,"count":2688,"type":"SCALAR"},{"bufferView":34,"componentType":5126,"count":1792,"type":"VEC3","min":[-0.41000000000000003,-0.52,-0.52],"max":[0.41000000000000003,0.52,0.52]},{"bufferView":35,"componentType":5126,"count":1792,"type":"VEC3"},{"bufferView":36,"componentType":5125,"count":2688,"type":"SCALAR"},{"bufferView":37,"componentType":5126,"count":1792,"type":"VEC3","min":[-0.41000000000000003,-0.52,-0.52],"max":[0.41000000000000003,0.52,0.52]},{"bufferView":38,"componentType":5126,"count":1792,"type":"VEC3"},{"bufferView":39,"componentType":5125,"count":2688,"type":"SCALAR"},{"bufferView":40,"componentType":5126,"count":1792,"type":"VEC3","min":[-0.41000000000000003,-0.52,-0.52],"max":[0.41000000000000003,0.52,0.52]},{"bufferView":41,"componentType":5126,"count":1792,"type":"VEC3"},{"bufferView":42,"componentType":5125,"count":2688,"type":"SCALAR"},{"bufferView":43,"componentType":5126,"count":1792,"type":"VEC3","min":[-0.41000000000000003,-0.52,-0.52],"max":[0.41000000000000003,0.52,0.52]},{"bufferView":44,"componentType":5126,"count":1792,"type":"VEC3"},{"bufferView":45,"componentType":5125,"count":2688,"type":"SCALAR"},{"bufferView":46,"componentType":5126,"count":1792,"type":"VEC3","min":[-0.41000000000000003,-0.52,-0.52],"max":[0.41000000000000003,0.52,0.52]},{"bufferView":47,"componentType":5126,"count":1792,"type":"VEC3"},{"bufferView":48,"componentType":5125,"count":2688,"type":"SCALAR"},{"bufferView":49,"componentType":5126,"count":3263,"type":"VEC3","min":[-32.5,-2.257451332182032,-20.577652173913044],"max":[-2.4375,1.0405313316168694,7.1000000000000005]},{"bufferView":50,"componentType":5126,"count":3263,"type":"VEC3"},{"bufferView":51,"componentType":5125,"count":14736,"type":"SCALAR"},{"bufferView":52,"componentType":5126,"count":36,"type":"VEC3","min":[-32.5,-0.9157424313052134,-18.582475000000002],"max":[-2.4375,1.0135234006402205,-5.935600000000002]},{"bufferView":53,"componentType":5126,"count":36,"type":"VEC3"},{"bufferView":54,"componentType":5125,"count":72,"type":"SCALAR"},{"bufferView":55,"componentType":5126,"count":3263,"type":"VEC3","min":[2.4375,-2.257451332182032,-20.577652173913044],"max":[32.5,1.0405313316168694,7.1000000000000005]},{"bufferView":56,"componentType":5126,"count":3263,"type":"VEC3"},{"bufferView":57,"componentType":5125,"count":14736,"type":"SCALAR"},{"bufferView":58,"componentType":5126,"count":36,"type":"VEC3","min":[2.4375,-0.9157424313052134,-18.582475000000002],"max":[32.5,1.0135234006402205,-5.935600000000002]},{"bufferView":59,"componentType":5126,"count":36,"type":"VEC3"},{"bufferView":60,"componentType":5125,"count":72,"type":"SCALAR"},{"bufferView":61,"componentType":5126,"count":753,"type":"VEC3","min":[-13.701336922073,-5.088836922073002,2.1667],"max":[-10.998663077926999,-2.386163077926998,3.9050000000000002]},{"bufferView":62,"componentType":5126,"count":753,"type":"VEC3"},{"bufferView":63,"componentType":5125,"count":3240,"type":"SCALAR"},{"bufferView":64,"componentType":5126,"count":753,"type":"VEC3","min":[-22.151336922073003,-5.088836922073002,-5.2883],"max":[-19.448663077926998,-2.386163077926998,-3.5499999999999994]},{"bufferView":65,"componentType":5126,"count":753,"type":"VEC3"},{"bufferView":66,"componentType":5125,"count":3240,"type":"SCALAR"},{"bufferView":67,"componentType":5126,"count":753,"type":"VEC3","min":[10.998663077926999,-5.088836922073002,2.1667],"max":[13.701336922073,-2.386163077926998,3.9050000000000002]},{"bufferView":68,"componentType":5126,"count":753,"type":"VEC3"},{"bufferView":69,"componentType":5125,"count":3240,"type":"SCALAR"},{"bufferView":70,"componentType":5126,"count":753,"type":"VEC3","min":[19.448663077926998,-5.088836922073002,-5.2883],"max":[22.151336922073003,-2.386163077926998,-3.5499999999999994]},{"bufferView":71,"componentType":5126,"count":753,"type":"VEC3"},{"bufferView":72,"componentType":5125,"count":3240,"type":"SCALAR"},{"bufferView":73,"componentType":5126,"count":72,"type":"VEC3","min":[-4.195,-4.275,-8.275],"max":[3.095,-2.4125,21.24]},{"bufferView":74,"componentType":5126,"count":72,"type":"VEC3"},{"bufferView":75,"componentType":5126,"count":72,"type":"VEC2"},{"bufferView":76,"componentType":5125,"count":108,"type":"SCALAR"},{"bufferView":77,"componentType":5126,"count":576,"type":"VEC3","min":[-3.6950000000000003,-4.45,-12.004999999999999],"max":[3.6950000000000003,-3.85,20.71]},{"bufferView":78,"componentType":5126,"count":576,"type":"VEC3"},{"bufferView":79,"componentType":5125,"count":864,"type":"SCALAR"},{"bufferView":80,"componentType":5126,"count":1728,"type":"VEC3","min":[-3.995,-4.9399999999999995,-11.975],"max":[3.995,-2.275,21.043517075356075]},{"bufferView":81,"componentType":5126,"count":1728,"type":"VEC3"},{"bufferView":82,"componentType":5125,"count":2592,"type":"SCALAR"},{"bufferView":83,"componentType":5126,"count":72,"type":"VEC3","min":[-29.25,-1.9579098774428796,-14.4026707446887],"max":[-2.4375,0.8006156411026305,7.1000000000000005]},{"bufferView":84,"componentType":5126,"count":72,"type":"VEC3"},{"bufferView":85,"componentType":5125,"count":72,"type":"SCALAR"},{"bufferView":86,"componentType":5126,"count":144,"type":"VEC3","min":[-29.25,-1.6608793893024858,-19.525000000000002],"max":[-2.4375,0.7915336207281692,-9.262618497673056]},{"bufferView":87,"componentType":5126,"count":144,"type":"VEC3"},{"bufferView":88,"componentType":5125,"count":144,"type":"SCALAR"},{"bufferView":89,"componentType":5126,"count":24,"type":"VEC3","min":[-29.25,-0.7599270603353043,-18.19375],"max":[-2.4375,0.8972461941729497,-4.965780547307662]},{"bufferView":90,"componentType":5126,"count":24,"type":"VEC3"},{"bufferView":91,"componentType":5125,"count":24,"type":"SCALAR"},{"bufferView":92,"componentType":5126,"count":24,"type":"VEC3","min":[-11.7,1.24,-34.79],"max":[-1.3,1.96,-29.465]},{"bufferView":93,"componentType":5126,"count":24,"type":"VEC3"},{"bufferView":94,"componentType":5125,"count":36,"type":"SCALAR"},{"bufferView":95,"componentType":5126,"count":72,"type":"VEC3","min":[2.4375,-1.9579098774428796,-14.4026707446887],"max":[29.25,0.8006156411026305,7.1000000000000005]},{"bufferView":96,"componentType":5126,"count":72,"type":"VEC3"},{"bufferView":97,"componentType":5125,"count":72,"type":"SCALAR"},{"bufferView":98,"componentType":5126,"count":144,"type":"VEC3","min":[2.4375,-1.6608793893024858,-19.525000000000002],"max":[29.25,0.7915336207281692,-9.262618497673056]},{"bufferView":99,"componentType":5126,"count":144,"type":"VEC3"},{"bufferView":100,"componentType":5125,"count":144,"type":"SCALAR"},{"bufferView":101,"componentType":5126,"count":24,"type":"VEC3","min":[2.4375,-0.7599270603353043,-18.19375],"max":[29.25,0.8972461941729497,-4.965780547307662]},{"bufferView":102,"componentType":5126,"count":24,"type":"VEC3"},{"bufferView":103,"componentType":5125,"count":24,"type":"SCALAR"},{"bufferView":104,"componentType":5126,"count":24,"type":"VEC3","min":[1.3,1.24,-34.79],"max":[11.7,1.96,-29.465]},{"bufferView":105,"componentType":5126,"count":24,"type":"VEC3"},{"bufferView":106,"componentType":5125,"count":36,"type":"SCALAR"},{"bufferView":107,"componentType":5126,"count":14,"type":"VEC3","min":[0,1.22,-35.145],"max":[0,12.56,-31.808]},{"bufferView":108,"componentType":5126,"count":14,"type":"VEC3"},{"bufferView":109,"componentType":5125,"count":36,"type":"SCALAR"},{"bufferView":110,"componentType":5126,"count":132,"type":"VEC3","min":[-0.41100000000000003,-0.22000000000000003,-0.22000000000000003],"max":[0.41100000000000003,0.22000000000000003,0.22000000000000003]},{"bufferView":111,"componentType":5126,"count":132,"type":"VEC3"},{"bufferView":112,"componentType":5125,"count":384,"type":"SCALAR"},{"bufferView":113,"componentType":5126,"count":132,"type":"VEC3","min":[-0.41100000000000003,-0.28600000000000003,-0.28600000000000003],"max":[0.41100000000000003,0.28600000000000003,0.28600000000000003]},{"bufferView":114,"componentType":5126,"count":132,"type":"VEC3"},{"bufferView":115,"componentType":5125,"count":384,"type":"SCALAR"},{"bufferView":116,"componentType":5126,"count":132,"type":"VEC3","min":[-0.41100000000000003,-0.28600000000000003,-0.28600000000000003],"max":[0.41100000000000003,0.28600000000000003,0.28600000000000003]},{"bufferView":117,"componentType":5126,"count":132,"type":"VEC3"},{"bufferView":118,"componentType":5125,"count":384,"type":"SCALAR"},{"bufferView":119,"componentType":5126,"count":132,"type":"VEC3","min":[-0.41100000000000003,-0.28600000000000003,-0.28600000000000003],"max":[0.41100000000000003,0.28600000000000003,0.28600000000000003]},{"bufferView":120,"componentType":5126,"count":132,"type":"VEC3"},{"bufferView":121,"componentType":5125,"count":384,"type":"SCALAR"},{"bufferView":122,"componentType":5126,"count":132,"type":"VEC3","min":[-0.41100000000000003,-0.28600000000000003,-0.28600000000000003],"max":[0.41100000000000003,0.28600000000000003,0.28600000000000003]},{"bufferView":123,"componentType":5126,"count":132,"type":"VEC3"},{"bufferView":124,"componentType":5125,"count":384,"type":"SCALAR"},{"bufferView":125,"componentType":5126,"count":132,"type":"VEC3","min":[-0.41100000000000003,-0.28600000000000003,-0.28600000000000003],"max":[0.41100000000000003,0.28600000000000003,0.28600000000000003]},{"bufferView":126,"componentType":5126,"count":132,"type":"VEC3"},{"bufferView":127,"componentType":5125,"count":384,"type":"SCALAR"},{"bufferView":128,"componentType":5126,"count":132,"type":"VEC3","min":[-0.41100000000000003,-0.28600000000000003,-0.28600000000000003],"max":[0.41100000000000003,0.28600000000000003,0.28600000000000003]},{"bufferView":129,"componentType":5126,"count":132,"type":"VEC3"},{"bufferView":130,"componentType":5125,"count":384,"type":"SCALAR"},{"bufferView":131,"componentType":5126,"count":132,"type":"VEC3","min":[-0.41100000000000003,-0.28600000000000003,-0.28600000000000003],"max":[0.41100000000000003,0.28600000000000003,0.28600000000000003]},{"bufferView":132,"componentType":5126,"count":132,"type":"VEC3"},{"bufferView":133,"componentType":5125,"count":384,"type":"SCALAR"},{"bufferView":134,"componentType":5126,"count":132,"type":"VEC3","min":[-0.41100000000000003,-0.28600000000000003,-0.28600000000000003],"max":[0.41100000000000003,0.28600000000000003,0.28600000000000003]},{"bufferView":135,"componentType":5126,"count":132,"type":"VEC3"},{"bufferView":136,"componentType":5125,"count":384,"type":"SCALAR"},{"bufferView":137,"componentType":5126,"count":576,"type":"VEC3","min":[-3.0600949853195565,1.17,-8.52],"max":[3.0600949853195565,1.9825,17.75]},{"bufferView":138,"componentType":5126,"count":576,"type":"VEC3"},{"bufferView":139,"componentType":5126,"count":576,"type":"VEC2"}],"images":[{"uri":"../../airlines/ETH.png"},{"uri":"fallback-paint-v5.png"},{"uri":"title-ETH.png"}],"textures":[{"source":0,"sampler":0},{"source":1,"sampler":0},{"source":2,"sampler":0}],"samplers":[{"magFilter":9729,"minFilter":9987,"wrapS":33071,"wrapT":33071}]}