{"asset":{"version":"2.0","generator":"Skyward detailed procedural b757 fallback v5; approximate airframe; operator identification logos"},"scene":0,"scenes":[{"nodes":[0,1,5,6,7,8]}],"nodes":[{"mesh":0},{"mesh":1,"name":"Gear","children":[2,3,4]},{"mesh":2,"name":"WheelN","translation":[0,-3.5,13.629999999999999]},{"mesh":3,"name":"WheelL","translation":[-1.52,-3.5,-4.7]},{"mesh":4,"name":"WheelR","translation":[1.52,-3.5,-4.7]},{"mesh":5,"name":"FlexWingL"},{"mesh":6,"name":"FlexWingR"},{"mesh":7,"name":"SkywardFan0"},{"mesh":8,"name":"SkywardFan1"}],"meshes":[{"name":"AirframeWithCockpitGlazing","primitives":[{"indices":3,"attributes":{"POSITION":0,"NORMAL":1,"TEXCOORD_0":2},"material":0},{"indices":6,"attributes":{"POSITION":4,"NORMAL":5},"material":1},{"indices":9,"attributes":{"POSITION":7,"NORMAL":8},"material":2},{"attributes":{"POSITION":10,"NORMAL":11},"material":3},{"indices":15,"attributes":{"POSITION":12,"NORMAL":13,"TEXCOORD_0":14},"material":5},{"indices":18,"attributes":{"POSITION":16,"NORMAL":17},"material":6},{"indices":21,"attributes":{"POSITION":19,"NORMAL":20},"material":7}]},{"primitives":[{"indices":57,"attributes":{"POSITION":55,"NORMAL":56},"material":1,"extras":{"gear":true}},{"indices":60,"attributes":{"POSITION":58,"NORMAL":59},"material":6,"extras":{"gear":true}}]},{"primitives":[{"indices":24,"attributes":{"POSITION":22,"NORMAL":23},"material":4,"extras":{"wheel":0}}]},{"primitives":[{"indices":27,"attributes":{"POSITION":25,"NORMAL":26},"material":4,"extras":{"wheel":1}}]},{"primitives":[{"indices":30,"attributes":{"POSITION":28,"NORMAL":29},"material":4,"extras":{"wheel":2}}]},{"primitives":[{"indices":33,"attributes":{"POSITION":31,"NORMAL":32},"material":1,"extras":{"wing":0}},{"indices":36,"attributes":{"POSITION":34,"NORMAL":35},"material":2,"extras":{"wing":0}},{"indices":39,"attributes":{"POSITION":37,"NORMAL":38},"material":6,"extras":{"wing":0}}]},{"primitives":[{"indices":42,"attributes":{"POSITION":40,"NORMAL":41},"material":1,"extras":{"wing":1}},{"indices":45,"attributes":{"POSITION":43,"NORMAL":44},"material":2,"extras":{"wing":1}},{"indices":48,"attributes":{"POSITION":46,"NORMAL":47},"material":6,"extras":{"wing":1}}]},{"primitives":[{"indices":51,"attributes":{"POSITION":49,"NORMAL":50},"material":6,"extras":{"fan":0}}]},{"primitives":[{"indices":54,"attributes":{"POSITION":52,"NORMAL":53},"material":6,"extras":{"fan":1}}]}],"materials":[{"doubleSided":true,"pbrMetallicRoughness":{"baseColorFactor":[0.94,0.95,0.96,1],"metallicFactor":0.04,"roughnessFactor":0.27,"baseColorTexture":{"index":1}}},{"doubleSided":true,"pbrMetallicRoughness":{"baseColorFactor":[0.64,0.68,0.72,1],"metallicFactor":0.04,"roughnessFactor":0.4}},{"doubleSided":true,"pbrMetallicRoughness":{"baseColorFactor":[0.13725490196078433,0.30196078431372547,0.6078431372549019,1],"metallicFactor":0.04,"roughnessFactor":0.27}},{"doubleSided":true,"pbrMetallicRoughness":{"baseColorFactor":[0.02,0.055,0.085,1],"metallicFactor":0,"roughnessFactor":0.12}},{"doubleSided":true,"pbrMetallicRoughness":{"baseColorFactor":[0.07,0.08,0.09,1],"metallicFactor":0,"roughnessFactor":0.86}},{"doubleSided":true,"pbrMetallicRoughness":{"baseColorFactor":[1,1,1,1],"metallicFactor":0,"roughnessFactor":0.75,"baseColorTexture":{"index":0}},"alphaMode":"MASK","alphaCutoff":0.08},{"doubleSided":true,"pbrMetallicRoughness":{"baseColorFactor":[0.36,0.4,0.44,1],"metallicFactor":0.8,"roughnessFactor":0.28}},{"doubleSided":true,"pbrMetallicRoughness":{"baseColorFactor":[0.13725490196078433,0.30196078431372547,0.6078431372549019,1],"metallicFactor":0.04,"roughnessFactor":0.27}}],"buffers":[{"uri":"b757-v4.bin?tail=2&rig=1&detail=5","byteLength":1197040}],"bufferViews":[{"buffer":0,"byteOffset":0,"byteLength":31980,"target":34962},{"buffer":0,"byteOffset":31980,"byteLength":31980,"target":34962},{"buffer":0,"byteOffset":63960,"byteLength":21320,"target":34962},{"buffer":0,"byteOffset":85280,"byteLength":61440,"target":34963},{"buffer":0,"byteOffset":146720,"byteLength":1080,"target":34962},{"buffer":0,"byteOffset":147800,"byteLength":1080,"target":34962},{"buffer":0,"byteOffset":148880,"byteLength":576,"target":34963},{"buffer":0,"byteOffset":149456,"byteLength":288,"target":34962},{"buffer":0,"byteOffset":149744,"byteLength":288,"target":34962},{"buffer":0,"byteOffset":150032,"byteLength":144,"target":34963},{"buffer":0,"byteOffset":150176,"byteLength":186912,"target":34962},{"buffer":0,"byteOffset":337088,"byteLength":186912,"target":34962},{"buffer":0,"byteOffset":524000,"byteLength":192,"target":34962},{"buffer":0,"byteOffset":524192,"byteLength":192,"target":34962},{"buffer":0,"byteOffset":524384,"byteLength":128,"target":34962},{"buffer":0,"byteOffset":524512,"byteLength":96,"target":34963},{"buffer":0,"byteOffset":524608,"byteLength":36816,"target":34962},{"buffer":0,"byteOffset":561424,"byteLength":36816,"target":34962},{"buffer":0,"byteOffset":598240,"byteLength":34560,"target":34963},{"buffer":0,"byteOffset":632800,"byteLength":20376,"target":34962},{"buffer":0,"byteOffset":653176,"byteLength":20376,"target":34962},{"buffer":0,"byteOffset":673552,"byteLength":36912,"target":34963},{"buffer":0,"byteOffset":710464,"byteLength":14424,"target":34962},{"buffer":0,"byteOffset":724888,"byteLength":14424,"target":34962},{"buffer":0,"byteOffset":739312,"byteLength":7680,"target":34963},{"buffer":0,"byteOffset":746992,"byteLength":14424,"target":34962},{"buffer":0,"byteOffset":761416,"byteLength":14424,"target":34962},{"buffer":0,"byteOffset":775840,"byteLength":7680,"target":34963},{"buffer":0,"byteOffset":783520,"byteLength":14424,"target":34962},{"buffer":0,"byteOffset":797944,"byteLength":14424,"target":34962},{"buffer":0,"byteOffset":812368,"byteLength":7680,"target":34963},{"buffer":0,"byteOffset":820048,"byteLength":42036,"target":34962},{"buffer":0,"byteOffset":862084,"byteLength":42036,"target":34962},{"buffer":0,"byteOffset":904120,"byteLength":59904,"target":34963},{"buffer":0,"byteOffset":964024,"byteLength":336,"target":34962},{"buffer":0,"byteOffset":964360,"byteLength":336,"target":34962},{"buffer":0,"byteOffset":964696,"byteLength":144,"target":34963},{"buffer":0,"byteOffset":964840,"byteLength":432,"target":34962},{"buffer":0,"byteOffset":965272,"byteLength":432,"target":34962},{"buffer":0,"byteOffset":965704,"byteLength":288,"target":34963},{"buffer":0,"byteOffset":965992,"byteLength":42036,"target":34962},{"buffer":0,"byteOffset":1008028,"byteLength":42036,"target":34962},{"buffer":0,"byteOffset":1050064,"byteLength":59904,"target":34963},{"buffer":0,"byteOffset":1109968,"byteLength":336,"target":34962},{"buffer":0,"byteOffset":1110304,"byteLength":336,"target":34962},{"buffer":0,"byteOffset":1110640,"byteLength":144,"target":34963},{"buffer":0,"byteOffset":1110784,"byteLength":432,"target":34962},{"buffer":0,"byteOffset":1111216,"byteLength":432,"target":34962},{"buffer":0,"byteOffset":1111648,"byteLength":288,"target":34963},{"buffer":0,"byteOffset":1111936,"byteLength":9036,"target":34962},{"buffer":0,"byteOffset":1120972,"byteLength":9036,"target":34962},{"buffer":0,"byteOffset":1130008,"byteLength":12960,"target":34963},{"buffer":0,"byteOffset":1142968,"byteLength":9036,"target":34962},{"buffer":0,"byteOffset":1152004,"byteLength":9036,"target":34962},{"buffer":0,"byteOffset":1161040,"byteLength":12960,"target":34963},{"buffer":0,"byteOffset":1174000,"byteLength":2304,"target":34962},{"buffer":0,"byteOffset":1176304,"byteLength":2304,"target":34962},{"buffer":0,"byteOffset":1178608,"byteLength":1152,"target":34963},{"buffer":0,"byteOffset":1179760,"byteLength":6912,"target":34962},{"buffer":0,"byteOffset":1186672,"byteLength":6912,"target":34962},{"buffer":0,"byteOffset":1193584,"byteLength":3456,"target":34963}],"accessors":[{"bufferView":0,"componentType":5126,"count":2665,"type":"VEC3","min":[-1.9,-1.9,-23.5],"max":[1.9,1.9,23.5]},{"bufferView":1,"componentType":5126,"count":2665,"type":"VEC3"},{"bufferView":2,"componentType":5126,"count":2665,"type":"VEC2"},{"bufferView":3,"componentType":5125,"count":15360,"type":"SCALAR"},{"bufferView":4,"componentType":5126,"count":90,"type":"VEC3","min":[-7.359999999999999,-2.3249999999999997,-23.03],"max":[7.08,1.44,2.115]},{"bufferView":5,"componentType":5126,"count":90,"type":"VEC3"},{"bufferView":6,"componentType":5125,"count":144,"type":"SCALAR"},{"bufferView":7,"componentType":5126,"count":24,"type":"VEC3","min":[-0.1,0.76,-23.265],"max":[0.1,8.715,-13.160000000000002]},{"bufferView":8,"componentType":5126,"count":24,"type":"VEC3"},{"bufferView":9,"componentType":5125,"count":36,"type":"SCALAR"},{"bufferView":10,"componentType":5126,"count":15576,"type":"VEC3","min":[-8.040799999999999,-3.0058,-10.940000000000001],"max":[8.040799999999999,1.5766582947761918,20.821]},{"bufferView":11,"componentType":5126,"count":15576,"type":"VEC3"},{"bufferView":12,"componentType":5126,"count":16,"type":"VEC3","min":[-1.94,-0.7979999999999999,-21.056],"max":[1.94,7.116999999999999,10.545]},{"bufferView":13,"componentType":5126,"count":16,"type":"VEC3"},{"bufferView":14,"componentType":5126,"count":16,"type":"VEC2"},{"bufferView":15,"componentType":5125,"count":24,"type":"SCALAR"},{"bufferView":16,"componentType":5126,"count":3068,"type":"VEC3","min":[-8.18444,-3.1494399999999994,-11.245000000000001],"max":[8.18444,1.5853185488140362,20.821]},{"bufferView":17,"componentType":5126,"count":3068,"type":"VEC3"},{"bufferView":18,"componentType":5125,"count":8640,"type":"SCALAR"},{"bufferView":19,"componentType":5126,"count":1698,"type":"VEC3","min":[-8.246,-3.2109999999999994,-8.93],"max":[8.246,-0.9309999999999999,14.1]},{"bufferView":20,"componentType":5126,"count":1698,"type":"VEC3"},{"bufferView":21,"componentType":5125,"count":9228,"type":"SCALAR"},{"bufferView":22,"componentType":5126,"count":1202,"type":"VEC3","min":[-0.25,-0.4,-0.4],"max":[0.25,0.4,0.4]},{"bufferView":23,"componentType":5126,"count":1202,"type":"VEC3"},{"bufferView":24,"componentType":5125,"count":1920,"type":"SCALAR"},{"bufferView":25,"componentType":5126,"count":1202,"type":"VEC3","min":[-0.25,-0.4,-0.4],"max":[0.25,0.4,0.4]},{"bufferView":26,"componentType":5126,"count":1202,"type":"VEC3"},{"bufferView":27,"componentType":5125,"count":1920,"type":"SCALAR"},{"bufferView":28,"componentType":5126,"count":1202,"type":"VEC3","min":[-0.25,-0.4,-0.4],"max":[0.25,0.4,0.4]},{"bufferView":29,"componentType":5126,"count":1202,"type":"VEC3"},{"bufferView":30,"componentType":5125,"count":1920,"type":"SCALAR"},{"bufferView":31,"componentType":5126,"count":3503,"type":"VEC3","min":[-19.0,-1.3812353889092326,-13.274434782608697],"max":[-1.4249999999999998,0.993027782901308,4.7]},{"bufferView":32,"componentType":5126,"count":3503,"type":"VEC3"},{"bufferView":33,"componentType":5125,"count":14976,"type":"SCALAR"},{"bufferView":34,"componentType":5126,"count":28,"type":"VEC3","min":[-19.0,0.96,-12.69],"max":[-18.24,3.24,-8.93]},{"bufferView":35,"componentType":5126,"count":28,"type":"VEC3"},{"bufferView":36,"componentType":5125,"count":36,"type":"SCALAR"},{"bufferView":37,"componentType":5126,"count":36,"type":"VEC3","min":[-19.0,-0.49035766579359186,-11.831075],"max":[-1.4249999999999998,0.977853518733667,-3.9292000000000007]},{"bufferView":38,"componentType":5126,"count":36,"type":"VEC3"},{"bufferView":39,"componentType":5125,"count":72,"type":"SCALAR"},{"bufferView":40,"componentType":5126,"count":3503,"type":"VEC3","min":[1.4249999999999998,-1.3812353889092326,-13.274434782608697],"max":[19.0,0.993027782901308,4.7]},{"bufferView":41,"componentType":5126,"count":3503,"type":"VEC3"},{"bufferView":42,"componentType":5125,"count":14976,"type":"SCALAR"},{"bufferView":43,"componentType":5126,"count":28,"type":"VEC3","min":[18.24,0.96,-12.69],"max":[19.0,3.24,-8.93]},{"bufferView":44,"componentType":5126,"count":28,"type":"VEC3"},{"bufferView":45,"componentType":5125,"count":36,"type":"SCALAR"},{"bufferView":46,"componentType":5126,"count":36,"type":"VEC3","min":[1.4249999999999998,-0.49035766579359186,-11.831075],"max":[19.0,0.977853518733667,-3.9292000000000007]},{"bufferView":47,"componentType":5126,"count":36,"type":"VEC3"},{"bufferView":48,"componentType":5125,"count":72,"type":"SCALAR"},{"bufferView":49,"componentType":5126,"count":753,"type":"VEC3","min":[-8.010012354442678,-2.9750123544426774,1.44244],"max":[-6.429987645557322,-1.3949876455573216,2.585]},{"bufferView":50,"componentType":5126,"count":753,"type":"VEC3"},{"bufferView":51,"componentType":5125,"count":3240,"type":"SCALAR"},{"bufferView":52,"componentType":5126,"count":753,"type":"VEC3","min":[6.429987645557322,-2.9750123544426774,1.44244],"max":[8.010012354442678,-1.3949876455573216,2.585]},{"bufferView":53,"componentType":5126,"count":753,"type":"VEC3"},{"bufferView":54,"componentType":5125,"count":3240,"type":"SCALAR"},{"bufferView":55,"componentType":5126,"count":192,"type":"VEC3","min":[-1.6400000000000001,-3.0999999999999996,-4.82],"max":[1.6400000000000001,-2.5,13.749999999999998]},{"bufferView":56,"componentType":5126,"count":192,"type":"VEC3"},{"bufferView":57,"componentType":5125,"count":288,"type":"SCALAR"},{"bufferView":58,"componentType":5126,"count":576,"type":"VEC3","min":[-1.81,-3.7,-4.9],"max":[1.81,-1.3299999999999998,14.083107139871592]},{"bufferView":59,"componentType":5126,"count":576,"type":"VEC3"},{"bufferView":60,"componentType":5125,"count":864,"type":"SCALAR"}],"images":[{"uri":"../../airlines/SAS.png"},{"uri":"fallback-paint-v5.png"}],"textures":[{"source":0,"sampler":0},{"source":1,"sampler":0}],"samplers":[{"magFilter":9729,"minFilter":9987,"wrapS":33071,"wrapT":33071}]}