{"asset":{"version":"2.0","generator":"Skyward original illustrative b757 profile; logos for operator identification"},"scene":0,"scenes":[{"nodes":[0,1]}],"nodes":[{"mesh":0},{"mesh":1,"name":"Gear"}],"meshes":[{"primitives":[{"attributes":{"POSITION":0,"NORMAL":1},"material":0},{"attributes":{"POSITION":2,"NORMAL":3},"material":1},{"attributes":{"POSITION":4,"NORMAL":5},"material":2},{"attributes":{"POSITION":6,"NORMAL":7},"material":3},{"attributes":{"POSITION":10,"NORMAL":11,"TEXCOORD_0":12},"material":5},{"attributes":{"POSITION":13,"NORMAL":14},"material":6}]},{"primitives":[{"attributes":{"POSITION":8,"NORMAL":9},"material":4}]}],"materials":[{"doubleSided":true,"pbrMetallicRoughness":{"baseColorFactor":[0.94,0.95,0.96,1],"metallicFactor":0.18,"roughnessFactor":0.3}},{"doubleSided":true,"pbrMetallicRoughness":{"baseColorFactor":[0.64,0.68,0.72,1],"metallicFactor":0.18,"roughnessFactor":0.3}},{"doubleSided":true,"pbrMetallicRoughness":{"baseColorFactor":[0.7176470588235294,0.10588235294117647,0.2235294117647059,1],"metallicFactor":0.18,"roughnessFactor":0.3}},{"doubleSided":true,"pbrMetallicRoughness":{"baseColorFactor":[0.02,0.055,0.085,1],"metallicFactor":0.18,"roughnessFactor":0.17}},{"doubleSided":true,"pbrMetallicRoughness":{"baseColorFactor":[0.07,0.08,0.09,1],"metallicFactor":0.18,"roughnessFactor":0.3}},{"doubleSided":true,"pbrMetallicRoughness":{"baseColorFactor":[1,1,1,1],"metallicFactor":0,"roughnessFactor":0.75,"baseColorTexture":{"index":0}},"alphaMode":"BLEND"},{"doubleSided":true,"pbrMetallicRoughness":{"baseColorFactor":[0.36,0.4,0.44,1],"metallicFactor":0.7,"roughnessFactor":0.3}}],"buffers":[{"uri":"b757-v2.bin","byteLength":220800}],"bufferViews":[{"buffer":0,"byteOffset":0,"byteLength":55296,"target":34962},{"buffer":0,"byteOffset":55296,"byteLength":55296,"target":34962},{"buffer":0,"byteOffset":110592,"byteLength":2880,"target":34962},{"buffer":0,"byteOffset":113472,"byteLength":2880,"target":34962},{"buffer":0,"byteOffset":116352,"byteLength":1296,"target":34962},{"buffer":0,"byteOffset":117648,"byteLength":1296,"target":34962},{"buffer":0,"byteOffset":118944,"byteLength":32688,"target":34962},{"buffer":0,"byteOffset":151632,"byteLength":32688,"target":34962},{"buffer":0,"byteOffset":184320,"byteLength":2592,"target":34962},{"buffer":0,"byteOffset":186912,"byteLength":2592,"target":34962},{"buffer":0,"byteOffset":189504,"byteLength":288,"target":34962},{"buffer":0,"byteOffset":189792,"byteLength":288,"target":34962},{"buffer":0,"byteOffset":190080,"byteLength":192,"target":34962},{"buffer":0,"byteOffset":190272,"byteLength":15264,"target":34962},{"buffer":0,"byteOffset":205536,"byteLength":15264,"target":34962}],"accessors":[{"bufferView":0,"componentType":5126,"count":4608,"type":"VEC3","min":[-8.246,-3.2109999999999994,-23.5],"max":[8.246,1.9,23.5]},{"bufferView":1,"componentType":5126,"count":4608,"type":"VEC3"},{"bufferView":2,"componentType":5126,"count":240,"type":"VEC3","min":[-19.0,-2.3249999999999997,-23.03],"max":[19.0,1.44,4.7]},{"bufferView":3,"componentType":5126,"count":240,"type":"VEC3"},{"bufferView":4,"componentType":5126,"count":108,"type":"VEC3","min":[-19.0,0.76,-23.265],"max":[19.0,8.715,-8.93]},{"bufferView":5,"componentType":5126,"count":108,"type":"VEC3"},{"bufferView":6,"componentType":5126,"count":2724,"type":"VEC3","min":[-8.040799999999999,-3.0058,-10.940000000000001],"max":[8.040799999999999,1.273,19.505]},{"bufferView":7,"componentType":5126,"count":2724,"type":"VEC3"},{"bufferView":8,"componentType":5126,"count":216,"type":"VEC3","min":[-1.82,-3.9,-5.08],"max":[1.82,-1.9000000000000001,14.01]},{"bufferView":9,"componentType":5126,"count":216,"type":"VEC3"},{"bufferView":10,"componentType":5126,"count":24,"type":"VEC3","min":[-1.94,-0.7979999999999999,-21.009],"max":[1.94,6.6,10.545]},{"bufferView":11,"componentType":5126,"count":24,"type":"VEC3"},{"bufferView":12,"componentType":5126,"count":24,"type":"VEC2"},{"bufferView":13,"componentType":5126,"count":1272,"type":"VEC3","min":[-8.18444,-3.1494399999999994,-10.81],"max":[8.18444,1.14,13.210000000000003]},{"bufferView":14,"componentType":5126,"count":1272,"type":"VEC3"}],"images":[{"uri":"../../airlines/DAL.png"}],"textures":[{"source":0,"sampler":0}],"samplers":[{"magFilter":9729,"minFilter":9987,"wrapS":33071,"wrapT":33071}]}