{"asset":{"version":"2.0","generator":"Skyward original illustrative b757 profile; logos for operator identification"},"scene":0,"scenes":[{"nodes":[0,1]}],"nodes":[{"mesh":0},{"mesh":1,"name":"Gear","children":[2,3,4]},{"mesh":2,"name":"WheelN","translation":[0,-3.5,13.629999999999999]},{"mesh":3,"name":"WheelL","translation":[-1.52,-3.5,-4.7]},{"mesh":4,"name":"WheelR","translation":[1.52,-3.5,-4.7]}],"meshes":[{"primitives":[{"attributes":{"POSITION":0,"NORMAL":1},"material":0},{"attributes":{"POSITION":2,"NORMAL":3},"material":1},{"attributes":{"POSITION":4,"NORMAL":5},"material":2},{"attributes":{"POSITION":6,"NORMAL":7},"material":3},{"attributes":{"POSITION":10,"NORMAL":11,"TEXCOORD_0":12},"material":5},{"attributes":{"POSITION":13,"NORMAL":14},"material":6},{"attributes":{"POSITION":15,"NORMAL":16},"material":7}]},{"primitives":[{"attributes":{"POSITION":8,"NORMAL":9},"material":4}]},{"primitives":[{"attributes":{"POSITION":17,"NORMAL":18},"material":4,"extras":{"wheel":0}}]},{"primitives":[{"attributes":{"POSITION":19,"NORMAL":20},"material":4,"extras":{"wheel":1}}]},{"primitives":[{"attributes":{"POSITION":21,"NORMAL":22},"material":4,"extras":{"wheel":2}}]}],"materials":[{"doubleSided":true,"pbrMetallicRoughness":{"baseColorFactor":[0.94,0.95,0.96,1],"metallicFactor":0.18,"roughnessFactor":0.3}},{"doubleSided":true,"pbrMetallicRoughness":{"baseColorFactor":[0.64,0.68,0.72,1],"metallicFactor":0.18,"roughnessFactor":0.3}},{"doubleSided":true,"pbrMetallicRoughness":{"baseColorFactor":[0.13725490196078433,0.6470588235294118,0.8352941176470589,1],"metallicFactor":0.18,"roughnessFactor":0.3}},{"doubleSided":true,"pbrMetallicRoughness":{"baseColorFactor":[0.02,0.055,0.085,1],"metallicFactor":0.18,"roughnessFactor":0.17}},{"doubleSided":true,"pbrMetallicRoughness":{"baseColorFactor":[0.07,0.08,0.09,1],"metallicFactor":0.18,"roughnessFactor":0.3}},{"doubleSided":true,"pbrMetallicRoughness":{"baseColorFactor":[1,1,1,1],"metallicFactor":0,"roughnessFactor":0.75,"baseColorTexture":{"index":0}},"alphaMode":"BLEND"},{"doubleSided":true,"pbrMetallicRoughness":{"baseColorFactor":[0.36,0.4,0.44,1],"metallicFactor":0.7,"roughnessFactor":0.3}},{"doubleSided":true,"pbrMetallicRoughness":{"baseColorFactor":[0.13725490196078433,0.6470588235294118,0.8352941176470589,1],"metallicFactor":0.18,"roughnessFactor":0.3}}],"buffers":[{"uri":"b757-v4.bin","byteLength":246144}],"bufferViews":[{"buffer":0,"byteOffset":0,"byteLength":34560,"target":34962},{"buffer":0,"byteOffset":34560,"byteLength":34560,"target":34962},{"buffer":0,"byteOffset":69120,"byteLength":2880,"target":34962},{"buffer":0,"byteOffset":72000,"byteLength":2880,"target":34962},{"buffer":0,"byteOffset":74880,"byteLength":1296,"target":34962},{"buffer":0,"byteOffset":76176,"byteLength":1296,"target":34962},{"buffer":0,"byteOffset":77472,"byteLength":32688,"target":34962},{"buffer":0,"byteOffset":110160,"byteLength":32688,"target":34962},{"buffer":0,"byteOffset":142848,"byteLength":1296,"target":34962},{"buffer":0,"byteOffset":144144,"byteLength":1296,"target":34962},{"buffer":0,"byteOffset":145440,"byteLength":288,"target":34962},{"buffer":0,"byteOffset":145728,"byteLength":288,"target":34962},{"buffer":0,"byteOffset":146016,"byteLength":192,"target":34962},{"buffer":0,"byteOffset":146208,"byteLength":15264,"target":34962},{"buffer":0,"byteOffset":161472,"byteLength":15264,"target":34962},{"buffer":0,"byteOffset":176736,"byteLength":20880,"target":34962},{"buffer":0,"byteOffset":197616,"byteLength":20880,"target":34962},{"buffer":0,"byteOffset":218496,"byteLength":4608,"target":34962},{"buffer":0,"byteOffset":223104,"byteLength":4608,"target":34962},{"buffer":0,"byteOffset":227712,"byteLength":4608,"target":34962},{"buffer":0,"byteOffset":232320,"byteLength":4608,"target":34962},{"buffer":0,"byteOffset":236928,"byteLength":4608,"target":34962},{"buffer":0,"byteOffset":241536,"byteLength":4608,"target":34962}],"accessors":[{"bufferView":0,"componentType":5126,"count":2880,"type":"VEC3","min":[-1.9,-1.9,-23.5],"max":[1.9,1.9,23.5]},{"bufferView":1,"componentType":5126,"count":2880,"type":"VEC3"},{"bufferView":2,"componentType":5126,"count":240,"type":"VEC3","min":[-19.0,-2.3249999999999997,-23.03],"max":[19.0,1.44,4.7]},{"bufferView":3,"componentType":5126,"count":240,"type":"VEC3"},{"bufferView":4,"componentType":5126,"count":108,"type":"VEC3","min":[-19.0,0.76,-23.265],"max":[19.0,8.715,-8.93]},{"bufferView":5,"componentType":5126,"count":108,"type":"VEC3"},{"bufferView":6,"componentType":5126,"count":2724,"type":"VEC3","min":[-8.040799999999999,-3.0058,-10.940000000000001],"max":[8.040799999999999,1.273,19.505]},{"bufferView":7,"componentType":5126,"count":2724,"type":"VEC3"},{"bufferView":8,"componentType":5126,"count":108,"type":"VEC3","min":[-1.62,-3.5,-4.8],"max":[1.62,-1.9000000000000001,13.729999999999999]},{"bufferView":9,"componentType":5126,"count":108,"type":"VEC3"},{"bufferView":10,"componentType":5126,"count":24,"type":"VEC3","min":[-1.94,-0.7979999999999999,-21.009],"max":[1.94,6.6,10.545]},{"bufferView":11,"componentType":5126,"count":24,"type":"VEC3"},{"bufferView":12,"componentType":5126,"count":24,"type":"VEC2"},{"bufferView":13,"componentType":5126,"count":1272,"type":"VEC3","min":[-8.18444,-3.1494399999999994,-10.81],"max":[8.18444,1.14,13.210000000000003]},{"bufferView":14,"componentType":5126,"count":1272,"type":"VEC3"},{"bufferView":15,"componentType":5126,"count":1740,"type":"VEC3","min":[-8.246,-3.2109999999999994,-8.93],"max":[8.246,-0.9309999999999999,14.1]},{"bufferView":16,"componentType":5126,"count":1740,"type":"VEC3"},{"bufferView":17,"componentType":5126,"count":384,"type":"VEC3","min":[-0.25,-0.4,-0.4],"max":[0.25,0.4,0.4]},{"bufferView":18,"componentType":5126,"count":384,"type":"VEC3"},{"bufferView":19,"componentType":5126,"count":384,"type":"VEC3","min":[-0.25,-0.4,-0.4],"max":[0.25,0.4,0.4]},{"bufferView":20,"componentType":5126,"count":384,"type":"VEC3"},{"bufferView":21,"componentType":5126,"count":384,"type":"VEC3","min":[-0.25,-0.4,-0.4],"max":[0.25,0.4,0.4]},{"bufferView":22,"componentType":5126,"count":384,"type":"VEC3"}],"images":[{"uri":"../../airlines/KLM.png"}],"textures":[{"source":0,"sampler":0}],"samplers":[{"magFilter":9729,"minFilter":9987,"wrapS":33071,"wrapT":33071}]}