{"asset":{"version":"2.0","generator":"Skyward detailed procedural b757 fallback v6; approximate airframe; operator identification logos"},"scene":0,"scenes":[{"nodes":[0,1,7,8,9,10,11,12,13,14,15,16,17,18,19]}],"nodes":[{"mesh":0},{"mesh":1,"name":"Gear","children":[2,3,4,5,6]},{"mesh":2,"name":"WheelN","translation":[0,-3.5,13.629999999999999]},{"mesh":3,"name":"WheelL","translation":[-1.52,-3.5,-5.2250000000000005]},{"mesh":4,"name":"WheelR","translation":[1.52,-3.5,-5.2250000000000005]},{"mesh":5,"name":"WheelL2","translation":[-1.52,-3.5,-4.175]},{"mesh":6,"name":"WheelR2","translation":[1.52,-3.5,-4.175]},{"mesh":7,"name":"SlatL"},{"mesh":8,"name":"FlapL"},{"mesh":9,"name":"SpoilerL"},{"mesh":10,"name":"ElevatorL"},{"mesh":11,"name":"SlatR"},{"mesh":12,"name":"FlapR"},{"mesh":13,"name":"SpoilerR"},{"mesh":14,"name":"ElevatorR"},{"mesh":15,"name":"Rudder"},{"mesh":16,"name":"FlexWingL"},{"mesh":17,"name":"FlexWingR"},{"mesh":18,"name":"SkywardFan0"},{"mesh":19,"name":"SkywardFan1"}],"meshes":[{"name":"AirframeWithCockpitGlazing","primitives":[{"indices":3,"attributes":{"POSITION":0,"NORMAL":1,"TEXCOORD_0":2},"material":0},{"indices":6,"attributes":{"POSITION":4,"NORMAL":5},"material":1},{"indices":9,"attributes":{"POSITION":7,"NORMAL":8},"material":2},{"attributes":{"POSITION":10,"NORMAL":11},"material":3},{"indices":15,"attributes":{"POSITION":12,"NORMAL":13,"TEXCOORD_0":14},"material":5},{"indices":18,"attributes":{"POSITION":16,"NORMAL":17},"material":6},{"indices":21,"attributes":{"POSITION":19,"NORMAL":20},"material":7},{"attributes":{"POSITION":113,"NORMAL":114,"TEXCOORD_0":115},"material":8}]},{"primitives":[{"indices":64,"attributes":{"POSITION":61,"NORMAL":62,"TEXCOORD_0":63},"material":0,"extras":{"gear":true}},{"indices":67,"attributes":{"POSITION":65,"NORMAL":66},"material":1,"extras":{"gear":true}},{"indices":70,"attributes":{"POSITION":68,"NORMAL":69},"material":6,"extras":{"gear":true}}]},{"primitives":[{"indices":24,"attributes":{"POSITION":22,"NORMAL":23},"material":4,"extras":{"wheel":0}},{"indices":100,"attributes":{"POSITION":98,"NORMAL":99},"material":6,"extras":{"wheel":0}}]},{"primitives":[{"indices":27,"attributes":{"POSITION":25,"NORMAL":26},"material":4,"extras":{"wheel":1}},{"indices":103,"attributes":{"POSITION":101,"NORMAL":102},"material":6,"extras":{"wheel":1}}]},{"primitives":[{"indices":30,"attributes":{"POSITION":28,"NORMAL":29},"material":4,"extras":{"wheel":2}},{"indices":106,"attributes":{"POSITION":104,"NORMAL":105},"material":6,"extras":{"wheel":2}}]},{"primitives":[{"indices":33,"attributes":{"POSITION":31,"NORMAL":32},"material":4,"extras":{"wheel":3}},{"indices":109,"attributes":{"POSITION":107,"NORMAL":108},"material":6,"extras":{"wheel":3}}]},{"primitives":[{"indices":36,"attributes":{"POSITION":34,"NORMAL":35},"material":4,"extras":{"wheel":4}},{"indices":112,"attributes":{"POSITION":110,"NORMAL":111},"material":6,"extras":{"wheel":4}}]},{"primitives":[{"indices":73,"attributes":{"POSITION":71,"NORMAL":72},"material":1,"extras":{"surface":0}}]},{"primitives":[{"indices":76,"attributes":{"POSITION":74,"NORMAL":75},"material":1,"extras":{"surface":1}}]},{"primitives":[{"indices":79,"attributes":{"POSITION":77,"NORMAL":78},"material":1,"extras":{"surface":2}}]},{"primitives":[{"indices":82,"attributes":{"POSITION":80,"NORMAL":81},"material":1,"extras":{"surface":3}}]},{"primitives":[{"indices":85,"attributes":{"POSITION":83,"NORMAL":84},"material":1,"extras":{"surface":4}}]},{"primitives":[{"indices":88,"attributes":{"POSITION":86,"NORMAL":87},"material":1,"extras":{"surface":5}}]},{"primitives":[{"indices":91,"attributes":{"POSITION":89,"NORMAL":90},"material":1,"extras":{"surface":6}}]},{"primitives":[{"indices":94,"attributes":{"POSITION":92,"NORMAL":93},"material":1,"extras":{"surface":7}}]},{"primitives":[{"indices":97,"attributes":{"POSITION":95,"NORMAL":96},"material":2,"extras":{"surface":8}}]},{"primitives":[{"indices":39,"attributes":{"POSITION":37,"NORMAL":38},"material":1,"extras":{"wing":0}},{"indices":42,"attributes":{"POSITION":40,"NORMAL":41},"material":2,"extras":{"wing":0}},{"indices":45,"attributes":{"POSITION":43,"NORMAL":44},"material":6,"extras":{"wing":0}}]},{"primitives":[{"indices":48,"attributes":{"POSITION":46,"NORMAL":47},"material":1,"extras":{"wing":1}},{"indices":51,"attributes":{"POSITION":49,"NORMAL":50},"material":2,"extras":{"wing":1}},{"indices":54,"attributes":{"POSITION":52,"NORMAL":53},"material":6,"extras":{"wing":1}}]},{"primitives":[{"indices":57,"attributes":{"POSITION":55,"NORMAL":56},"material":6,"extras":{"fan":0}}]},{"primitives":[{"indices":60,"attributes":{"POSITION":58,"NORMAL":59},"material":6,"extras":{"fan":1}}]}],"materials":[{"doubleSided":true,"pbrMetallicRoughness":{"baseColorFactor":[0.94,0.95,0.96,1],"metallicFactor":0.04,"roughnessFactor":0.27,"baseColorTexture":{"index":1}}},{"doubleSided":true,"pbrMetallicRoughness":{"baseColorFactor":[0.64,0.68,0.72,1],"metallicFactor":0.04,"roughnessFactor":0.4}},{"doubleSided":true,"pbrMetallicRoughness":{"baseColorFactor":[0.14901960784313725,0.24705882352941178,0.5058823529411764,1],"metallicFactor":0.04,"roughnessFactor":0.27}},{"doubleSided":true,"pbrMetallicRoughness":{"baseColorFactor":[0.02,0.055,0.085,1],"metallicFactor":0,"roughnessFactor":0.12}},{"doubleSided":true,"pbrMetallicRoughness":{"baseColorFactor":[0.07,0.08,0.09,1],"metallicFactor":0,"roughnessFactor":0.86}},{"doubleSided":true,"pbrMetallicRoughness":{"baseColorFactor":[1,1,1,1],"metallicFactor":0,"roughnessFactor":0.75,"baseColorTexture":{"index":0}},"alphaMode":"MASK","alphaCutoff":0.08},{"doubleSided":true,"pbrMetallicRoughness":{"baseColorFactor":[0.36,0.4,0.44,1],"metallicFactor":0.8,"roughnessFactor":0.28}},{"doubleSided":true,"pbrMetallicRoughness":{"baseColorFactor":[0.14901960784313725,0.24705882352941178,0.5058823529411764,1],"metallicFactor":0.04,"roughnessFactor":0.27}},{"name":"Operator title","doubleSided":true,"alphaMode":"MASK","alphaCutoff":0.15,"pbrMetallicRoughness":{"baseColorTexture":{"index":2},"baseColorFactor":[0.14901960784313725,0.24705882352941178,0.5058823529411764,1],"roughnessFactor":0.6,"metallicFactor":0}}],"buffers":[{"uri":"b757-v4.bin?tail=2&rig=1&detail=6","byteLength":1443040},{"uri":"b757-title.bin?detail=6","byteLength":18432}],"bufferViews":[{"buffer":0,"byteOffset":0,"byteLength":31980,"target":34962},{"buffer":0,"byteOffset":31980,"byteLength":31980,"target":34962},{"buffer":0,"byteOffset":63960,"byteLength":21320,"target":34962},{"buffer":0,"byteOffset":85280,"byteLength":61440,"target":34963},{"buffer":0,"byteOffset":146720,"byteLength":1080,"target":34962},{"buffer":0,"byteOffset":147800,"byteLength":1080,"target":34962},{"buffer":0,"byteOffset":148880,"byteLength":576,"target":34963},{"buffer":0,"byteOffset":149456,"byteLength":288,"target":34962},{"buffer":0,"byteOffset":149744,"byteLength":288,"target":34962},{"buffer":0,"byteOffset":150032,"byteLength":144,"target":34963},{"buffer":0,"byteOffset":150176,"byteLength":186912,"target":34962},{"buffer":0,"byteOffset":337088,"byteLength":186912,"target":34962},{"buffer":0,"byteOffset":524000,"byteLength":192,"target":34962},{"buffer":0,"byteOffset":524192,"byteLength":192,"target":34962},{"buffer":0,"byteOffset":524384,"byteLength":128,"target":34962},{"buffer":0,"byteOffset":524512,"byteLength":96,"target":34963},{"buffer":0,"byteOffset":524608,"byteLength":50760,"target":34962},{"buffer":0,"byteOffset":575368,"byteLength":50760,"target":34962},{"buffer":0,"byteOffset":626128,"byteLength":49920,"target":34963},{"buffer":0,"byteOffset":676048,"byteLength":20376,"target":34962},{"buffer":0,"byteOffset":696424,"byteLength":20376,"target":34962},{"buffer":0,"byteOffset":716800,"byteLength":36912,"target":34963},{"buffer":0,"byteOffset":753712,"byteLength":21504,"target":34962},{"buffer":0,"byteOffset":775216,"byteLength":21504,"target":34962},{"buffer":0,"byteOffset":796720,"byteLength":10752,"target":34963},{"buffer":0,"byteOffset":807472,"byteLength":21504,"target":34962},{"buffer":0,"byteOffset":828976,"byteLength":21504,"target":34962},{"buffer":0,"byteOffset":850480,"byteLength":10752,"target":34963},{"buffer":0,"byteOffset":861232,"byteLength":21504,"target":34962},{"buffer":0,"byteOffset":882736,"byteLength":21504,"target":34962},{"buffer":0,"byteOffset":904240,"byteLength":10752,"target":34963},{"buffer":0,"byteOffset":914992,"byteLength":21504,"target":34962},{"buffer":0,"byteOffset":936496,"byteLength":21504,"target":34962},{"buffer":0,"byteOffset":958000,"byteLength":10752,"target":34963},{"buffer":0,"byteOffset":968752,"byteLength":21504,"target":34962},{"buffer":0,"byteOffset":990256,"byteLength":21504,"target":34962},{"buffer":0,"byteOffset":1011760,"byteLength":10752,"target":34963},{"buffer":0,"byteOffset":1022512,"byteLength":39156,"target":34962},{"buffer":0,"byteOffset":1061668,"byteLength":39156,"target":34962},{"buffer":0,"byteOffset":1100824,"byteLength":58944,"target":34963},{"buffer":0,"byteOffset":1159768,"byteLength":336,"target":34962},{"buffer":0,"byteOffset":1160104,"byteLength":336,"target":34962},{"buffer":0,"byteOffset":1160440,"byteLength":144,"target":34963},{"buffer":0,"byteOffset":1160584,"byteLength":432,"target":34962},{"buffer":0,"byteOffset":1161016,"byteLength":432,"target":34962},{"buffer":0,"byteOffset":1161448,"byteLength":288,"target":34963},{"buffer":0,"byteOffset":1161736,"byteLength":39156,"target":34962},{"buffer":0,"byteOffset":1200892,"byteLength":39156,"target":34962},{"buffer":0,"byteOffset":1240048,"byteLength":58944,"target":34963},{"buffer":0,"byteOffset":1298992,"byteLength":336,"target":34962},{"buffer":0,"byteOffset":1299328,"byteLength":336,"target":34962},{"buffer":0,"byteOffset":1299664,"byteLength":144,"target":34963},{"buffer":0,"byteOffset":1299808,"byteLength":432,"target":34962},{"buffer":0,"byteOffset":1300240,"byteLength":432,"target":34962},{"buffer":0,"byteOffset":1300672,"byteLength":288,"target":34963},{"buffer":0,"byteOffset":1300960,"byteLength":9036,"target":34962},{"buffer":0,"byteOffset":1309996,"byteLength":9036,"target":34962},{"buffer":0,"byteOffset":1319032,"byteLength":12960,"target":34963},{"buffer":0,"byteOffset":1331992,"byteLength":9036,"target":34962},{"buffer":0,"byteOffset":1341028,"byteLength":9036,"target":34962},{"buffer":0,"byteOffset":1350064,"byteLength":12960,"target":34963},{"buffer":0,"byteOffset":1363024,"byteLength":864,"target":34962},{"buffer":0,"byteOffset":1363888,"byteLength":864,"target":34962},{"buffer":0,"byteOffset":1364752,"byteLength":576,"target":34962},{"buffer":0,"byteOffset":1365328,"byteLength":432,"target":34963},{"buffer":0,"byteOffset":1365760,"byteLength":3840,"target":34962},{"buffer":0,"byteOffset":1369600,"byteLength":3840,"target":34962},{"buffer":0,"byteOffset":1373440,"byteLength":1920,"target":34963},{"buffer":0,"byteOffset":1375360,"byteLength":11520,"target":34962},{"buffer":0,"byteOffset":1386880,"byteLength":11520,"target":34962},{"buffer":0,"byteOffset":1398400,"byteLength":5760,"target":34963},{"buffer":0,"byteOffset":1404160,"byteLength":864,"target":34962},{"buffer":0,"byteOffset":1405024,"byteLength":864,"target":34962},{"buffer":0,"byteOffset":1405888,"byteLength":288,"target":34963},{"buffer":0,"byteOffset":1406176,"byteLength":1728,"target":34962},{"buffer":0,"byteOffset":1407904,"byteLength":1728,"target":34962},{"buffer":0,"byteOffset":1409632,"byteLength":576,"target":34963},{"buffer":0,"byteOffset":1410208,"byteLength":288,"target":34962},{"buffer":0,"byteOffset":1410496,"byteLength":288,"target":34962},{"buffer":0,"byteOffset":1410784,"byteLength":96,"target":34963},{"buffer":0,"byteOffset":1410880,"byteLength":288,"target":34962},{"buffer":0,"byteOffset":1411168,"byteLength":288,"target":34962},{"buffer":0,"byteOffset":1411456,"byteLength":144,"target":34963},{"buffer":0,"byteOffset":1411600,"byteLength":864,"target":34962},{"buffer":0,"byteOffset":1412464,"byteLength":864,"target":34962},{"buffer":0,"byteOffset":1413328,"byteLength":288,"target":34963},{"buffer":0,"byteOffset":1413616,"byteLength":1728,"target":34962},{"buffer":0,"byteOffset":1415344,"byteLength":1728,"target":34962},{"buffer":0,"byteOffset":1417072,"byteLength":576,"target":34963},{"buffer":0,"byteOffset":1417648,"byteLength":288,"target":34962},{"buffer":0,"byteOffset":1417936,"byteLength":288,"target":34962},{"buffer":0,"byteOffset":1418224,"byteLength":96,"target":34963},{"buffer":0,"byteOffset":1418320,"byteLength":288,"target":34962},{"buffer":0,"byteOffset":1418608,"byteLength":288,"target":34962},{"buffer":0,"byteOffset":1418896,"byteLength":144,"target":34963},{"buffer":0,"byteOffset":1419040,"byteLength":168,"target":34962},{"buffer":0,"byteOffset":1419208,"byteLength":168,"target":34962},{"buffer":0,"byteOffset":1419376,"byteLength":144,"target":34963},{"buffer":0,"byteOffset":1419520,"byteLength":1584,"target":34962},{"buffer":0,"byteOffset":1421104,"byteLength":1584,"target":34962},{"buffer":0,"byteOffset":1422688,"byteLength":1536,"target":34963},{"buffer":0,"byteOffset":1424224,"byteLength":1584,"target":34962},{"buffer":0,"byteOffset":1425808,"byteLength":1584,"target":34962},{"buffer":0,"byteOffset":1427392,"byteLength":1536,"target":34963},{"buffer":0,"byteOffset":1428928,"byteLength":1584,"target":34962},{"buffer":0,"byteOffset":1430512,"byteLength":1584,"target":34962},{"buffer":0,"byteOffset":1432096,"byteLength":1536,"target":34963},{"buffer":0,"byteOffset":1433632,"byteLength":1584,"target":34962},{"buffer":0,"byteOffset":1435216,"byteLength":1584,"target":34962},{"buffer":0,"byteOffset":1436800,"byteLength":1536,"target":34963},{"buffer":0,"byteOffset":1438336,"byteLength":1584,"target":34962},{"buffer":0,"byteOffset":1439920,"byteLength":1584,"target":34962},{"buffer":0,"byteOffset":1441504,"byteLength":1536,"target":34963},{"buffer":1,"byteOffset":0,"byteLength":6912,"target":34962},{"buffer":1,"byteOffset":6912,"byteLength":6912,"target":34962},{"buffer":1,"byteOffset":13824,"byteLength":4608,"target":34962}],"accessors":[{"bufferView":0,"componentType":5126,"count":2665,"type":"VEC3","min":[-1.9,-1.9,-23.5],"max":[1.9,1.9,23.5]},{"bufferView":1,"componentType":5126,"count":2665,"type":"VEC3"},{"bufferView":2,"componentType":5126,"count":2665,"type":"VEC2"},{"bufferView":3,"componentType":5125,"count":15360,"type":"SCALAR"},{"bufferView":4,"componentType":5126,"count":90,"type":"VEC3","min":[-7.359999999999999,-2.3249999999999997,-21.855],"max":[7.08,1.44,2.115]},{"bufferView":5,"componentType":5126,"count":90,"type":"VEC3"},{"bufferView":6,"componentType":5125,"count":144,"type":"SCALAR"},{"bufferView":7,"componentType":5126,"count":24,"type":"VEC3","min":[-0.1,0.76,-21.855],"max":[0.1,8.715,-13.160000000000002]},{"bufferView":8,"componentType":5126,"count":24,"type":"VEC3"},{"bufferView":9,"componentType":5125,"count":36,"type":"SCALAR"},{"bufferView":10,"componentType":5126,"count":15576,"type":"VEC3","min":[-8.040799999999999,-3.0058,-10.940000000000001],"max":[8.040799999999999,1.5766582947761918,20.821]},{"bufferView":11,"componentType":5126,"count":15576,"type":"VEC3"},{"bufferView":12,"componentType":5126,"count":16,"type":"VEC3","min":[-1.94,-0.7979999999999999,-21.056],"max":[1.94,6.943099999999999,10.545]},{"bufferView":13,"componentType":5126,"count":16,"type":"VEC3"},{"bufferView":14,"componentType":5126,"count":16,"type":"VEC2"},{"bufferView":15,"componentType":5125,"count":24,"type":"SCALAR"},{"bufferView":16,"componentType":5126,"count":4230,"type":"VEC3","min":[-8.227532,-3.192532,-11.245000000000001],"max":[8.227532,1.5853185488140362,20.821]},{"bufferView":17,"componentType":5126,"count":4230,"type":"VEC3"},{"bufferView":18,"componentType":5125,"count":12480,"type":"SCALAR"},{"bufferView":19,"componentType":5126,"count":1698,"type":"VEC3","min":[-8.246,-3.2109999999999994,-8.93],"max":[8.246,-0.9309999999999999,14.1]},{"bufferView":20,"componentType":5126,"count":1698,"type":"VEC3"},{"bufferView":21,"componentType":5125,"count":9228,"type":"SCALAR"},{"bufferView":22,"componentType":5126,"count":1792,"type":"VEC3","min":[-0.41000000000000003,-0.4,-0.4],"max":[0.41000000000000003,0.4,0.4]},{"bufferView":23,"componentType":5126,"count":1792,"type":"VEC3"},{"bufferView":24,"componentType":5125,"count":2688,"type":"SCALAR"},{"bufferView":25,"componentType":5126,"count":1792,"type":"VEC3","min":[-0.41000000000000003,-0.4,-0.4],"max":[0.41000000000000003,0.4,0.4]},{"bufferView":26,"componentType":5126,"count":1792,"type":"VEC3"},{"bufferView":27,"componentType":5125,"count":2688,"type":"SCALAR"},{"bufferView":28,"componentType":5126,"count":1792,"type":"VEC3","min":[-0.41000000000000003,-0.4,-0.4],"max":[0.41000000000000003,0.4,0.4]},{"bufferView":29,"componentType":5126,"count":1792,"type":"VEC3"},{"bufferView":30,"componentType":5125,"count":2688,"type":"SCALAR"},{"bufferView":31,"componentType":5126,"count":1792,"type":"VEC3","min":[-0.41000000000000003,-0.4,-0.4],"max":[0.41000000000000003,0.4,0.4]},{"bufferView":32,"componentType":5126,"count":1792,"type":"VEC3"},{"bufferView":33,"componentType":5125,"count":2688,"type":"SCALAR"},{"bufferView":34,"componentType":5126,"count":1792,"type":"VEC3","min":[-0.41000000000000003,-0.4,-0.4],"max":[0.41000000000000003,0.4,0.4]},{"bufferView":35,"componentType":5126,"count":1792,"type":"VEC3"},{"bufferView":36,"componentType":5125,"count":2688,"type":"SCALAR"},{"bufferView":37,"componentType":5126,"count":3263,"type":"VEC3","min":[-19.0,-1.3812353889092326,-12.92704347826087],"max":[-1.4249999999999998,0.993027782901308,4.7]},{"bufferView":38,"componentType":5126,"count":3263,"type":"VEC3"},{"bufferView":39,"componentType":5125,"count":14736,"type":"SCALAR"},{"bufferView":40,"componentType":5126,"count":28,"type":"VEC3","min":[-19.0,0.96,-12.219999999999999],"max":[-18.24,3.24,-8.459999999999999]},{"bufferView":41,"componentType":5126,"count":28,"type":"VEC3"},{"bufferView":42,"componentType":5125,"count":36,"type":"SCALAR"},{"bufferView":43,"componentType":5126,"count":36,"type":"VEC3","min":[-19.0,-0.49035766579359186,-11.361075],"max":[-1.4249999999999998,0.977853518733667,-3.9292000000000007]},{"bufferView":44,"componentType":5126,"count":36,"type":"VEC3"},{"bufferView":45,"componentType":5125,"count":72,"type":"SCALAR"},{"bufferView":46,"componentType":5126,"count":3263,"type":"VEC3","min":[1.4249999999999998,-1.3812353889092326,-12.92704347826087],"max":[19.0,0.993027782901308,4.7]},{"bufferView":47,"componentType":5126,"count":3263,"type":"VEC3"},{"bufferView":48,"componentType":5125,"count":14736,"type":"SCALAR"},{"bufferView":49,"componentType":5126,"count":28,"type":"VEC3","min":[18.24,0.96,-12.219999999999999],"max":[19.0,3.24,-8.459999999999999]},{"bufferView":50,"componentType":5126,"count":28,"type":"VEC3"},{"bufferView":51,"componentType":5125,"count":36,"type":"SCALAR"},{"bufferView":52,"componentType":5126,"count":36,"type":"VEC3","min":[1.4249999999999998,-0.49035766579359186,-11.361075],"max":[19.0,0.977853518733667,-3.9292000000000007]},{"bufferView":53,"componentType":5126,"count":36,"type":"VEC3"},{"bufferView":54,"componentType":5125,"count":72,"type":"SCALAR"},{"bufferView":55,"componentType":5126,"count":753,"type":"VEC3","min":[-8.010012354442678,-2.9750123544426774,1.44244],"max":[-6.429987645557322,-1.3949876455573216,2.585]},{"bufferView":56,"componentType":5126,"count":753,"type":"VEC3"},{"bufferView":57,"componentType":5125,"count":3240,"type":"SCALAR"},{"bufferView":58,"componentType":5126,"count":753,"type":"VEC3","min":[6.429987645557322,-2.9750123544426774,1.44244],"max":[8.010012354442678,-1.3949876455573216,2.585]},{"bufferView":59,"componentType":5126,"count":753,"type":"VEC3"},{"bufferView":60,"componentType":5125,"count":3240,"type":"SCALAR"},{"bufferView":61,"componentType":5126,"count":72,"type":"VEC3","min":[-2.14,-2.925,-5.875000000000001],"max":[1.04,-1.4,14.28]},{"bufferView":62,"componentType":5126,"count":72,"type":"VEC3"},{"bufferView":63,"componentType":5126,"count":72,"type":"VEC2"},{"bufferView":64,"componentType":5125,"count":108,"type":"SCALAR"},{"bufferView":65,"componentType":5126,"count":320,"type":"VEC3","min":[-1.6400000000000001,-3.0999999999999996,-5.345000000000001],"max":[1.6400000000000001,-2.5,13.749999999999998]},{"bufferView":66,"componentType":5126,"count":320,"type":"VEC3"},{"bufferView":67,"componentType":5125,"count":480,"type":"SCALAR"},{"bufferView":68,"componentType":5126,"count":960,"type":"VEC3","min":[-1.94,-3.59,-5.315],"max":[1.94,-1.3299999999999998,14.083107139871592]},{"bufferView":69,"componentType":5126,"count":960,"type":"VEC3"},{"bufferView":70,"componentType":5125,"count":1440,"type":"SCALAR"},{"bufferView":71,"componentType":5126,"count":72,"type":"VEC3","min":[-17.1,-1.182947383659371,-8.594162323948856],"max":[-1.4249999999999998,0.76660472016653,4.7]},{"bufferView":72,"componentType":5126,"count":72,"type":"VEC3"},{"bufferView":73,"componentType":5125,"count":72,"type":"SCALAR"},{"bufferView":74,"componentType":5126,"count":144,"type":"VEC3","min":[-17.1,-0.9863215675664341,-11.985],"max":[-1.4249999999999998,0.7605926785101966,-6.131592526628645]},{"bufferView":75,"componentType":5126,"count":144,"type":"VEC3"},{"bufferView":76,"componentType":5125,"count":144,"type":"SCALAR"},{"bufferView":77,"componentType":5126,"count":24,"type":"VEC3","min":[-17.1,-0.3739164739622521,-11.103749999999998],"max":[-1.4249999999999998,0.830571424311671,-3.287206841175495]},{"bufferView":78,"componentType":5126,"count":24,"type":"VEC3"},{"bufferView":79,"componentType":5125,"count":24,"type":"SCALAR"},{"bufferView":80,"componentType":5126,"count":24,"type":"VEC3","min":[-6.84,0.7,-23.03],"max":[-0.76,1.42,-19.505]},{"bufferView":81,"componentType":5126,"count":24,"type":"VEC3"},{"bufferView":82,"componentType":5125,"count":36,"type":"SCALAR"},{"bufferView":83,"componentType":5126,"count":72,"type":"VEC3","min":[1.4249999999999998,-1.182947383659371,-8.594162323948856],"max":[17.1,0.76660472016653,4.7]},{"bufferView":84,"componentType":5126,"count":72,"type":"VEC3"},{"bufferView":85,"componentType":5125,"count":72,"type":"SCALAR"},{"bufferView":86,"componentType":5126,"count":144,"type":"VEC3","min":[1.4249999999999998,-0.9863215675664341,-11.985],"max":[17.1,0.7605926785101966,-6.131592526628645]},{"bufferView":87,"componentType":5126,"count":144,"type":"VEC3"},{"bufferView":88,"componentType":5125,"count":144,"type":"SCALAR"},{"bufferView":89,"componentType":5126,"count":24,"type":"VEC3","min":[1.4249999999999998,-0.3739164739622521,-11.103749999999998],"max":[17.1,0.830571424311671,-3.287206841175495]},{"bufferView":90,"componentType":5126,"count":24,"type":"VEC3"},{"bufferView":91,"componentType":5125,"count":24,"type":"SCALAR"},{"bufferView":92,"componentType":5126,"count":24,"type":"VEC3","min":[0.76,0.7,-23.03],"max":[6.84,1.42,-19.505]},{"bufferView":93,"componentType":5126,"count":24,"type":"VEC3"},{"bufferView":94,"componentType":5125,"count":36,"type":"SCALAR"},{"bufferView":95,"componentType":5126,"count":14,"type":"VEC3","min":[0,0.68,-23.265],"max":[0,8.795,-21.056]},{"bufferView":96,"componentType":5126,"count":14,"type":"VEC3"},{"bufferView":97,"componentType":5125,"count":36,"type":"SCALAR"},{"bufferView":98,"componentType":5126,"count":132,"type":"VEC3","min":[-0.41100000000000003,-0.22000000000000003,-0.22000000000000003],"max":[0.41100000000000003,0.22000000000000003,0.22000000000000003]},{"bufferView":99,"componentType":5126,"count":132,"type":"VEC3"},{"bufferView":100,"componentType":5125,"count":384,"type":"SCALAR"},{"bufferView":101,"componentType":5126,"count":132,"type":"VEC3","min":[-0.41100000000000003,-0.22000000000000003,-0.22000000000000003],"max":[0.41100000000000003,0.22000000000000003,0.22000000000000003]},{"bufferView":102,"componentType":5126,"count":132,"type":"VEC3"},{"bufferView":103,"componentType":5125,"count":384,"type":"SCALAR"},{"bufferView":104,"componentType":5126,"count":132,"type":"VEC3","min":[-0.41100000000000003,-0.22000000000000003,-0.22000000000000003],"max":[0.41100000000000003,0.22000000000000003,0.22000000000000003]},{"bufferView":105,"componentType":5126,"count":132,"type":"VEC3"},{"bufferView":106,"componentType":5125,"count":384,"type":"SCALAR"},{"bufferView":107,"componentType":5126,"count":132,"type":"VEC3","min":[-0.41100000000000003,-0.22000000000000003,-0.22000000000000003],"max":[0.41100000000000003,0.22000000000000003,0.22000000000000003]},{"bufferView":108,"componentType":5126,"count":132,"type":"VEC3"},{"bufferView":109,"componentType":5125,"count":384,"type":"SCALAR"},{"bufferView":110,"componentType":5126,"count":132,"type":"VEC3","min":[-0.41100000000000003,-0.22000000000000003,-0.22000000000000003],"max":[0.41100000000000003,0.22000000000000003,0.22000000000000003]},{"bufferView":111,"componentType":5126,"count":132,"type":"VEC3"},{"bufferView":112,"componentType":5125,"count":384,"type":"SCALAR"},{"bufferView":113,"componentType":5126,"count":576,"type":"VEC3","min":[-1.8006093760329713,0.6839999999999999,-5.64],"max":[1.8006093760329713,1.159,11.75]},{"bufferView":114,"componentType":5126,"count":576,"type":"VEC3"},{"bufferView":115,"componentType":5126,"count":576,"type":"VEC2"}],"images":[{"uri":"../../airlines/BAW.png"},{"uri":"fallback-paint-v5.png"},{"uri":"title-BAW.png"}],"textures":[{"source":0,"sampler":0},{"source":1,"sampler":0},{"source":2,"sampler":0}],"samplers":[{"magFilter":9729,"minFilter":9987,"wrapS":33071,"wrapT":33071}]}