{"asset":{"version":"2.0","generator":"Skyward detailed procedural b767 fallback v5; approximate airframe; operator identification logos"},"scene":0,"scenes":[{"nodes":[0,1,5,6,7,8]}],"nodes":[{"mesh":0},{"mesh":1,"name":"Gear","children":[2,3,4]},{"mesh":2,"name":"WheelN","translation":[0,-4.1,15.95]},{"mesh":3,"name":"WheelL","translation":[-2.0,-4.1,-5.5]},{"mesh":4,"name":"WheelR","translation":[2.0,-4.1,-5.5]},{"mesh":5,"name":"FlexWingL"},{"mesh":6,"name":"FlexWingR"},{"mesh":7,"name":"SkywardFan0"},{"mesh":8,"name":"SkywardFan1"}],"meshes":[{"name":"AirframeWithCockpitGlazing","primitives":[{"indices":3,"attributes":{"POSITION":0,"NORMAL":1,"TEXCOORD_0":2},"material":0},{"indices":6,"attributes":{"POSITION":4,"NORMAL":5},"material":1},{"indices":9,"attributes":{"POSITION":7,"NORMAL":8},"material":2},{"attributes":{"POSITION":10,"NORMAL":11},"material":3},{"indices":15,"attributes":{"POSITION":12,"NORMAL":13,"TEXCOORD_0":14},"material":5},{"indices":18,"attributes":{"POSITION":16,"NORMAL":17},"material":6},{"indices":21,"attributes":{"POSITION":19,"NORMAL":20},"material":7}]},{"primitives":[{"indices":51,"attributes":{"POSITION":49,"NORMAL":50},"material":1,"extras":{"gear":true}},{"indices":54,"attributes":{"POSITION":52,"NORMAL":53},"material":6,"extras":{"gear":true}}]},{"primitives":[{"indices":24,"attributes":{"POSITION":22,"NORMAL":23},"material":4,"extras":{"wheel":0}}]},{"primitives":[{"indices":27,"attributes":{"POSITION":25,"NORMAL":26},"material":4,"extras":{"wheel":1}}]},{"primitives":[{"indices":30,"attributes":{"POSITION":28,"NORMAL":29},"material":4,"extras":{"wheel":2}}]},{"primitives":[{"indices":33,"attributes":{"POSITION":31,"NORMAL":32},"material":1,"extras":{"wing":0}},{"indices":36,"attributes":{"POSITION":34,"NORMAL":35},"material":6,"extras":{"wing":0}}]},{"primitives":[{"indices":39,"attributes":{"POSITION":37,"NORMAL":38},"material":1,"extras":{"wing":1}},{"indices":42,"attributes":{"POSITION":40,"NORMAL":41},"material":6,"extras":{"wing":1}}]},{"primitives":[{"indices":45,"attributes":{"POSITION":43,"NORMAL":44},"material":6,"extras":{"fan":0}}]},{"primitives":[{"indices":48,"attributes":{"POSITION":46,"NORMAL":47},"material":6,"extras":{"fan":1}}]}],"materials":[{"doubleSided":true,"pbrMetallicRoughness":{"baseColorFactor":[0.94,0.95,0.96,1],"metallicFactor":0.04,"roughnessFactor":0.27,"baseColorTexture":{"index":1}}},{"doubleSided":true,"pbrMetallicRoughness":{"baseColorFactor":[0.64,0.68,0.72,1],"metallicFactor":0.04,"roughnessFactor":0.4}},{"doubleSided":true,"pbrMetallicRoughness":{"baseColorFactor":[0.09019607843137255,0.1843137254901961,0.3607843137254902,1],"metallicFactor":0.04,"roughnessFactor":0.27}},{"doubleSided":true,"pbrMetallicRoughness":{"baseColorFactor":[0.02,0.055,0.085,1],"metallicFactor":0,"roughnessFactor":0.12}},{"doubleSided":true,"pbrMetallicRoughness":{"baseColorFactor":[0.07,0.08,0.09,1],"metallicFactor":0,"roughnessFactor":0.86}},{"doubleSided":true,"pbrMetallicRoughness":{"baseColorFactor":[1,1,1,1],"metallicFactor":0,"roughnessFactor":0.75,"baseColorTexture":{"index":0}},"alphaMode":"MASK","alphaCutoff":0.08},{"doubleSided":true,"pbrMetallicRoughness":{"baseColorFactor":[0.36,0.4,0.44,1],"metallicFactor":0.8,"roughnessFactor":0.28}},{"doubleSided":true,"pbrMetallicRoughness":{"baseColorFactor":[0.09019607843137255,0.1843137254901961,0.3607843137254902,1],"metallicFactor":0.04,"roughnessFactor":0.27}}],"buffers":[{"uri":"b767-v4.bin?tail=2&rig=1&detail=5","byteLength":1202608}],"bufferViews":[{"buffer":0,"byteOffset":0,"byteLength":31980,"target":34962},{"buffer":0,"byteOffset":31980,"byteLength":31980,"target":34962},{"buffer":0,"byteOffset":63960,"byteLength":21320,"target":34962},{"buffer":0,"byteOffset":85280,"byteLength":61440,"target":34963},{"buffer":0,"byteOffset":146720,"byteLength":1080,"target":34962},{"buffer":0,"byteOffset":147800,"byteLength":1080,"target":34962},{"buffer":0,"byteOffset":148880,"byteLength":576,"target":34963},{"buffer":0,"byteOffset":149456,"byteLength":288,"target":34962},{"buffer":0,"byteOffset":149744,"byteLength":288,"target":34962},{"buffer":0,"byteOffset":150032,"byteLength":144,"target":34963},{"buffer":0,"byteOffset":150176,"byteLength":190512,"target":34962},{"buffer":0,"byteOffset":340688,"byteLength":190512,"target":34962},{"buffer":0,"byteOffset":531200,"byteLength":192,"target":34962},{"buffer":0,"byteOffset":531392,"byteLength":192,"target":34962},{"buffer":0,"byteOffset":531584,"byteLength":128,"target":34962},{"buffer":0,"byteOffset":531712,"byteLength":96,"target":34963},{"buffer":0,"byteOffset":531808,"byteLength":36816,"target":34962},{"buffer":0,"byteOffset":568624,"byteLength":36816,"target":34962},{"buffer":0,"byteOffset":605440,"byteLength":34560,"target":34963},{"buffer":0,"byteOffset":640000,"byteLength":20376,"target":34962},{"buffer":0,"byteOffset":660376,"byteLength":20376,"target":34962},{"buffer":0,"byteOffset":680752,"byteLength":36912,"target":34963},{"buffer":0,"byteOffset":717664,"byteLength":14424,"target":34962},{"buffer":0,"byteOffset":732088,"byteLength":14424,"target":34962},{"buffer":0,"byteOffset":746512,"byteLength":7680,"target":34963},{"buffer":0,"byteOffset":754192,"byteLength":14424,"target":34962},{"buffer":0,"byteOffset":768616,"byteLength":14424,"target":34962},{"buffer":0,"byteOffset":783040,"byteLength":7680,"target":34963},{"buffer":0,"byteOffset":790720,"byteLength":14424,"target":34962},{"buffer":0,"byteOffset":805144,"byteLength":14424,"target":34962},{"buffer":0,"byteOffset":819568,"byteLength":7680,"target":34963},{"buffer":0,"byteOffset":827248,"byteLength":42036,"target":34962},{"buffer":0,"byteOffset":869284,"byteLength":42036,"target":34962},{"buffer":0,"byteOffset":911320,"byteLength":59904,"target":34963},{"buffer":0,"byteOffset":971224,"byteLength":432,"target":34962},{"buffer":0,"byteOffset":971656,"byteLength":432,"target":34962},{"buffer":0,"byteOffset":972088,"byteLength":288,"target":34963},{"buffer":0,"byteOffset":972376,"byteLength":42036,"target":34962},{"buffer":0,"byteOffset":1014412,"byteLength":42036,"target":34962},{"buffer":0,"byteOffset":1056448,"byteLength":59904,"target":34963},{"buffer":0,"byteOffset":1116352,"byteLength":432,"target":34962},{"buffer":0,"byteOffset":1116784,"byteLength":432,"target":34962},{"buffer":0,"byteOffset":1117216,"byteLength":288,"target":34963},{"buffer":0,"byteOffset":1117504,"byteLength":9036,"target":34962},{"buffer":0,"byteOffset":1126540,"byteLength":9036,"target":34962},{"buffer":0,"byteOffset":1135576,"byteLength":12960,"target":34963},{"buffer":0,"byteOffset":1148536,"byteLength":9036,"target":34962},{"buffer":0,"byteOffset":1157572,"byteLength":9036,"target":34962},{"buffer":0,"byteOffset":1166608,"byteLength":12960,"target":34963},{"buffer":0,"byteOffset":1179568,"byteLength":2304,"target":34962},{"buffer":0,"byteOffset":1181872,"byteLength":2304,"target":34962},{"buffer":0,"byteOffset":1184176,"byteLength":1152,"target":34963},{"buffer":0,"byteOffset":1185328,"byteLength":6912,"target":34962},{"buffer":0,"byteOffset":1192240,"byteLength":6912,"target":34962},{"buffer":0,"byteOffset":1199152,"byteLength":3456,"target":34963}],"accessors":[{"bufferView":0,"componentType":5126,"count":2665,"type":"VEC3","min":[-2.5,-2.5,-27.5],"max":[2.5,2.5,27.5]},{"bufferView":1,"componentType":5126,"count":2665,"type":"VEC3"},{"bufferView":2,"componentType":5126,"count":2665,"type":"VEC2"},{"bufferView":3,"componentType":5125,"count":15360,"type":"SCALAR"},{"bufferView":4,"componentType":5126,"count":90,"type":"VEC3","min":[-9.260000000000002,-3.015,-26.95],"max":[8.98,1.6800000000000002,2.475]},{"bufferView":5,"componentType":5126,"count":90,"type":"VEC3"},{"bufferView":6,"componentType":5125,"count":144,"type":"SCALAR"},{"bufferView":7,"componentType":5126,"count":24,"type":"VEC3","min":[-0.1,1.0,-27.225],"max":[0.1,10.475,-15.400000000000002]},{"bufferView":8,"componentType":5126,"count":24,"type":"VEC3"},{"bufferView":9,"componentType":5125,"count":36,"type":"SCALAR"},{"bufferView":10,"componentType":5126,"count":15876,"type":"VEC3","min":[-10.200000000000001,-3.955,-12.780000000000001],"max":[10.200000000000001,2.0649785281373725,24.365000000000002]},{"bufferView":11,"componentType":5126,"count":15876,"type":"VEC3"},{"bufferView":12,"componentType":5126,"count":16,"type":"VEC3","min":[-2.54,-1.05,-24.64],"max":[2.54,8.605,12.575]},{"bufferView":13,"componentType":5126,"count":16,"type":"VEC3"},{"bufferView":14,"componentType":5126,"count":16,"type":"VEC2"},{"bufferView":15,"componentType":5125,"count":24,"type":"SCALAR"},{"bufferView":16,"componentType":5126,"count":3068,"type":"VEC3","min":[-10.389000000000001,-4.144,-13.085],"max":[10.389000000000001,2.0736387821752165,24.365000000000002]},{"bufferView":17,"componentType":5126,"count":3068,"type":"VEC3"},{"bufferView":18,"componentType":5125,"count":8640,"type":"SCALAR"},{"bufferView":19,"componentType":5126,"count":1698,"type":"VEC3","min":[-10.47,-4.225,-10.45],"max":[10.47,-1.225,16.5]},{"bufferView":20,"componentType":5126,"count":1698,"type":"VEC3"},{"bufferView":21,"componentType":5125,"count":9228,"type":"SCALAR"},{"bufferView":22,"componentType":5126,"count":1202,"type":"VEC3","min":[-0.25,-0.4,-0.4],"max":[0.25,0.4,0.4]},{"bufferView":23,"componentType":5126,"count":1202,"type":"VEC3"},{"bufferView":24,"componentType":5125,"count":1920,"type":"SCALAR"},{"bufferView":25,"componentType":5126,"count":1202,"type":"VEC3","min":[-0.25,-0.4,-0.4],"max":[0.25,0.4,0.4]},{"bufferView":26,"componentType":5126,"count":1202,"type":"VEC3"},{"bufferView":27,"componentType":5125,"count":1920,"type":"SCALAR"},{"bufferView":28,"componentType":5126,"count":1202,"type":"VEC3","min":[-0.25,-0.4,-0.4],"max":[0.25,0.4,0.4]},{"bufferView":29,"componentType":5126,"count":1202,"type":"VEC3"},{"bufferView":30,"componentType":5125,"count":1920,"type":"SCALAR"},{"bufferView":31,"componentType":5126,"count":3503,"type":"VEC3","min":[-24.0,-1.7408073700001658,-15.53391304347826],"max":[-1.875,1.0088622991398284,5.5]},{"bufferView":32,"componentType":5126,"count":3503,"type":"VEC3"},{"bufferView":33,"componentType":5125,"count":14976,"type":"SCALAR"},{"bufferView":34,"componentType":5126,"count":36,"type":"VEC3","min":[-24.0,-0.699652587630799,-13.844874999999998],"max":[-1.875,0.9897434793691848,-4.5980000000000025]},{"bufferView":35,"componentType":5126,"count":36,"type":"VEC3"},{"bufferView":36,"componentType":5125,"count":72,"type":"SCALAR"},{"bufferView":37,"componentType":5126,"count":3503,"type":"VEC3","min":[1.875,-1.7408073700001658,-15.53391304347826],"max":[24.0,1.0088622991398284,5.5]},{"bufferView":38,"componentType":5126,"count":3503,"type":"VEC3"},{"bufferView":39,"componentType":5125,"count":14976,"type":"SCALAR"},{"bufferView":40,"componentType":5126,"count":36,"type":"VEC3","min":[1.875,-0.699652587630799,-13.844874999999998],"max":[24.0,0.9897434793691848,-4.5980000000000025]},{"bufferView":41,"componentType":5126,"count":36,"type":"VEC3"},{"bufferView":42,"componentType":5125,"count":72,"type":"SCALAR"},{"bufferView":43,"componentType":5126,"count":753,"type":"VEC3","min":[-10.159489940056156,-3.9144899400561552,1.6789999999999998],"max":[-8.080510059943846,-1.8355100599438445,3.025]},{"bufferView":44,"componentType":5126,"count":753,"type":"VEC3"},{"bufferView":45,"componentType":5125,"count":3240,"type":"SCALAR"},{"bufferView":46,"componentType":5126,"count":753,"type":"VEC3","min":[8.080510059943846,-3.9144899400561552,1.6789999999999998],"max":[10.159489940056156,-1.8355100599438445,3.025]},{"bufferView":47,"componentType":5126,"count":753,"type":"VEC3"},{"bufferView":48,"componentType":5125,"count":3240,"type":"SCALAR"},{"bufferView":49,"componentType":5126,"count":192,"type":"VEC3","min":[-2.12,-3.7,-5.62],"max":[2.12,-3.1,16.07]},{"bufferView":50,"componentType":5126,"count":192,"type":"VEC3"},{"bufferView":51,"componentType":5125,"count":288,"type":"SCALAR"},{"bufferView":52,"componentType":5126,"count":576,"type":"VEC3","min":[-2.29,-4.3,-5.7],"max":[2.29,-1.75,16.403307692307692]},{"bufferView":53,"componentType":5126,"count":576,"type":"VEC3"},{"bufferView":54,"componentType":5125,"count":864,"type":"SCALAR"}],"images":[{"uri":"../../airlines/SIA.png"},{"uri":"fallback-paint-v5.png"}],"textures":[{"source":0,"sampler":0},{"source":1,"sampler":0}],"samplers":[{"magFilter":9729,"minFilter":9987,"wrapS":33071,"wrapT":33071}]}