{"asset":{"version":"2.0","generator":"Skyward detailed procedural b767 fallback v6; approximate airframe; operator identification logos"},"scene":0,"scenes":[{"nodes":[0,1,7,8,9,10,11,12,13,14,15,16,17,18,19]}],"nodes":[{"mesh":0},{"mesh":1,"name":"Gear","children":[2,3,4,5,6]},{"mesh":2,"name":"WheelN","translation":[0,-4.1,15.95]},{"mesh":3,"name":"WheelL","translation":[-2.75,-4.1,-6.025]},{"mesh":4,"name":"WheelR","translation":[2.75,-4.1,-6.025]},{"mesh":5,"name":"WheelL2","translation":[-2.75,-4.1,-4.975]},{"mesh":6,"name":"WheelR2","translation":[2.75,-4.1,-4.975]},{"mesh":7,"name":"SlatL"},{"mesh":8,"name":"FlapL"},{"mesh":9,"name":"SpoilerL"},{"mesh":10,"name":"ElevatorL"},{"mesh":11,"name":"SlatR"},{"mesh":12,"name":"FlapR"},{"mesh":13,"name":"SpoilerR"},{"mesh":14,"name":"ElevatorR"},{"mesh":15,"name":"Rudder"},{"mesh":16,"name":"FlexWingL"},{"mesh":17,"name":"FlexWingR"},{"mesh":18,"name":"SkywardFan0"},{"mesh":19,"name":"SkywardFan1"}],"meshes":[{"name":"AirframeWithCockpitGlazing","primitives":[{"indices":3,"attributes":{"POSITION":0,"NORMAL":1,"TEXCOORD_0":2},"material":0},{"indices":6,"attributes":{"POSITION":4,"NORMAL":5},"material":1},{"indices":9,"attributes":{"POSITION":7,"NORMAL":8},"material":2},{"attributes":{"POSITION":10,"NORMAL":11},"material":3},{"indices":15,"attributes":{"POSITION":12,"NORMAL":13,"TEXCOORD_0":14},"material":5},{"indices":18,"attributes":{"POSITION":16,"NORMAL":17},"material":6},{"indices":21,"attributes":{"POSITION":19,"NORMAL":20},"material":7},{"attributes":{"POSITION":107,"NORMAL":108,"TEXCOORD_0":109},"material":8}]},{"primitives":[{"indices":58,"attributes":{"POSITION":55,"NORMAL":56,"TEXCOORD_0":57},"material":0,"extras":{"gear":true}},{"indices":61,"attributes":{"POSITION":59,"NORMAL":60},"material":1,"extras":{"gear":true}},{"indices":64,"attributes":{"POSITION":62,"NORMAL":63},"material":6,"extras":{"gear":true}}]},{"primitives":[{"indices":24,"attributes":{"POSITION":22,"NORMAL":23},"material":4,"extras":{"wheel":0}},{"indices":94,"attributes":{"POSITION":92,"NORMAL":93},"material":6,"extras":{"wheel":0}}]},{"primitives":[{"indices":27,"attributes":{"POSITION":25,"NORMAL":26},"material":4,"extras":{"wheel":1}},{"indices":97,"attributes":{"POSITION":95,"NORMAL":96},"material":6,"extras":{"wheel":1}}]},{"primitives":[{"indices":30,"attributes":{"POSITION":28,"NORMAL":29},"material":4,"extras":{"wheel":2}},{"indices":100,"attributes":{"POSITION":98,"NORMAL":99},"material":6,"extras":{"wheel":2}}]},{"primitives":[{"indices":33,"attributes":{"POSITION":31,"NORMAL":32},"material":4,"extras":{"wheel":3}},{"indices":103,"attributes":{"POSITION":101,"NORMAL":102},"material":6,"extras":{"wheel":3}}]},{"primitives":[{"indices":36,"attributes":{"POSITION":34,"NORMAL":35},"material":4,"extras":{"wheel":4}},{"indices":106,"attributes":{"POSITION":104,"NORMAL":105},"material":6,"extras":{"wheel":4}}]},{"primitives":[{"indices":67,"attributes":{"POSITION":65,"NORMAL":66},"material":1,"extras":{"surface":0}}]},{"primitives":[{"indices":70,"attributes":{"POSITION":68,"NORMAL":69},"material":1,"extras":{"surface":1}}]},{"primitives":[{"indices":73,"attributes":{"POSITION":71,"NORMAL":72},"material":1,"extras":{"surface":2}}]},{"primitives":[{"indices":76,"attributes":{"POSITION":74,"NORMAL":75},"material":1,"extras":{"surface":3}}]},{"primitives":[{"indices":79,"attributes":{"POSITION":77,"NORMAL":78},"material":1,"extras":{"surface":4}}]},{"primitives":[{"indices":82,"attributes":{"POSITION":80,"NORMAL":81},"material":1,"extras":{"surface":5}}]},{"primitives":[{"indices":85,"attributes":{"POSITION":83,"NORMAL":84},"material":1,"extras":{"surface":6}}]},{"primitives":[{"indices":88,"attributes":{"POSITION":86,"NORMAL":87},"material":1,"extras":{"surface":7}}]},{"primitives":[{"indices":91,"attributes":{"POSITION":89,"NORMAL":90},"material":2,"extras":{"surface":8}}]},{"primitives":[{"indices":39,"attributes":{"POSITION":37,"NORMAL":38},"material":1,"extras":{"wing":0}},{"indices":42,"attributes":{"POSITION":40,"NORMAL":41},"material":6,"extras":{"wing":0}}]},{"primitives":[{"indices":45,"attributes":{"POSITION":43,"NORMAL":44},"material":1,"extras":{"wing":1}},{"indices":48,"attributes":{"POSITION":46,"NORMAL":47},"material":6,"extras":{"wing":1}}]},{"primitives":[{"indices":51,"attributes":{"POSITION":49,"NORMAL":50},"material":6,"extras":{"fan":0}}]},{"primitives":[{"indices":54,"attributes":{"POSITION":52,"NORMAL":53},"material":6,"extras":{"fan":1}}]}],"materials":[{"doubleSided":true,"pbrMetallicRoughness":{"baseColorFactor":[0.94,0.95,0.96,1],"metallicFactor":0.04,"roughnessFactor":0.27,"baseColorTexture":{"index":1}}},{"doubleSided":true,"pbrMetallicRoughness":{"baseColorFactor":[0.64,0.68,0.72,1],"metallicFactor":0.04,"roughnessFactor":0.4}},{"doubleSided":true,"pbrMetallicRoughness":{"baseColorFactor":[0.792156862745098,0.14901960784313725,0.20784313725490197,1],"metallicFactor":0.04,"roughnessFactor":0.27}},{"doubleSided":true,"pbrMetallicRoughness":{"baseColorFactor":[0.02,0.055,0.085,1],"metallicFactor":0,"roughnessFactor":0.12}},{"doubleSided":true,"pbrMetallicRoughness":{"baseColorFactor":[0.07,0.08,0.09,1],"metallicFactor":0,"roughnessFactor":0.86}},{"doubleSided":true,"pbrMetallicRoughness":{"baseColorFactor":[1,1,1,1],"metallicFactor":0,"roughnessFactor":0.75,"baseColorTexture":{"index":0}},"alphaMode":"MASK","alphaCutoff":0.08},{"doubleSided":true,"pbrMetallicRoughness":{"baseColorFactor":[0.36,0.4,0.44,1],"metallicFactor":0.8,"roughnessFactor":0.28}},{"doubleSided":true,"pbrMetallicRoughness":{"baseColorFactor":[0.792156862745098,0.14901960784313725,0.20784313725490197,1],"metallicFactor":0.04,"roughnessFactor":0.27}},{"name":"Operator title","doubleSided":true,"alphaMode":"MASK","alphaCutoff":0.15,"pbrMetallicRoughness":{"baseColorTexture":{"index":2},"baseColorFactor":[0.792156862745098,0.14901960784313725,0.20784313725490197,1],"roughnessFactor":0.6,"metallicFactor":0}}],"buffers":[{"uri":"b767-v4.bin?tail=2&rig=1&detail=6","byteLength":1448608},{"uri":"b767-title.bin?detail=6","byteLength":18432}],"bufferViews":[{"buffer":0,"byteOffset":0,"byteLength":31980,"target":34962},{"buffer":0,"byteOffset":31980,"byteLength":31980,"target":34962},{"buffer":0,"byteOffset":63960,"byteLength":21320,"target":34962},{"buffer":0,"byteOffset":85280,"byteLength":61440,"target":34963},{"buffer":0,"byteOffset":146720,"byteLength":1080,"target":34962},{"buffer":0,"byteOffset":147800,"byteLength":1080,"target":34962},{"buffer":0,"byteOffset":148880,"byteLength":576,"target":34963},{"buffer":0,"byteOffset":149456,"byteLength":288,"target":34962},{"buffer":0,"byteOffset":149744,"byteLength":288,"target":34962},{"buffer":0,"byteOffset":150032,"byteLength":144,"target":34963},{"buffer":0,"byteOffset":150176,"byteLength":190512,"target":34962},{"buffer":0,"byteOffset":340688,"byteLength":190512,"target":34962},{"buffer":0,"byteOffset":531200,"byteLength":192,"target":34962},{"buffer":0,"byteOffset":531392,"byteLength":192,"target":34962},{"buffer":0,"byteOffset":531584,"byteLength":128,"target":34962},{"buffer":0,"byteOffset":531712,"byteLength":96,"target":34963},{"buffer":0,"byteOffset":531808,"byteLength":50760,"target":34962},{"buffer":0,"byteOffset":582568,"byteLength":50760,"target":34962},{"buffer":0,"byteOffset":633328,"byteLength":49920,"target":34963},{"buffer":0,"byteOffset":683248,"byteLength":20376,"target":34962},{"buffer":0,"byteOffset":703624,"byteLength":20376,"target":34962},{"buffer":0,"byteOffset":724000,"byteLength":36912,"target":34963},{"buffer":0,"byteOffset":760912,"byteLength":21504,"target":34962},{"buffer":0,"byteOffset":782416,"byteLength":21504,"target":34962},{"buffer":0,"byteOffset":803920,"byteLength":10752,"target":34963},{"buffer":0,"byteOffset":814672,"byteLength":21504,"target":34962},{"buffer":0,"byteOffset":836176,"byteLength":21504,"target":34962},{"buffer":0,"byteOffset":857680,"byteLength":10752,"target":34963},{"buffer":0,"byteOffset":868432,"byteLength":21504,"target":34962},{"buffer":0,"byteOffset":889936,"byteLength":21504,"target":34962},{"buffer":0,"byteOffset":911440,"byteLength":10752,"target":34963},{"buffer":0,"byteOffset":922192,"byteLength":21504,"target":34962},{"buffer":0,"byteOffset":943696,"byteLength":21504,"target":34962},{"buffer":0,"byteOffset":965200,"byteLength":10752,"target":34963},{"buffer":0,"byteOffset":975952,"byteLength":21504,"target":34962},{"buffer":0,"byteOffset":997456,"byteLength":21504,"target":34962},{"buffer":0,"byteOffset":1018960,"byteLength":10752,"target":34963},{"buffer":0,"byteOffset":1029712,"byteLength":39156,"target":34962},{"buffer":0,"byteOffset":1068868,"byteLength":39156,"target":34962},{"buffer":0,"byteOffset":1108024,"byteLength":58944,"target":34963},{"buffer":0,"byteOffset":1166968,"byteLength":432,"target":34962},{"buffer":0,"byteOffset":1167400,"byteLength":432,"target":34962},{"buffer":0,"byteOffset":1167832,"byteLength":288,"target":34963},{"buffer":0,"byteOffset":1168120,"byteLength":39156,"target":34962},{"buffer":0,"byteOffset":1207276,"byteLength":39156,"target":34962},{"buffer":0,"byteOffset":1246432,"byteLength":58944,"target":34963},{"buffer":0,"byteOffset":1305376,"byteLength":432,"target":34962},{"buffer":0,"byteOffset":1305808,"byteLength":432,"target":34962},{"buffer":0,"byteOffset":1306240,"byteLength":288,"target":34963},{"buffer":0,"byteOffset":1306528,"byteLength":9036,"target":34962},{"buffer":0,"byteOffset":1315564,"byteLength":9036,"target":34962},{"buffer":0,"byteOffset":1324600,"byteLength":12960,"target":34963},{"buffer":0,"byteOffset":1337560,"byteLength":9036,"target":34962},{"buffer":0,"byteOffset":1346596,"byteLength":9036,"target":34962},{"buffer":0,"byteOffset":1355632,"byteLength":12960,"target":34963},{"buffer":0,"byteOffset":1368592,"byteLength":864,"target":34962},{"buffer":0,"byteOffset":1369456,"byteLength":864,"target":34962},{"buffer":0,"byteOffset":1370320,"byteLength":576,"target":34962},{"buffer":0,"byteOffset":1370896,"byteLength":432,"target":34963},{"buffer":0,"byteOffset":1371328,"byteLength":3840,"target":34962},{"buffer":0,"byteOffset":1375168,"byteLength":3840,"target":34962},{"buffer":0,"byteOffset":1379008,"byteLength":1920,"target":34963},{"buffer":0,"byteOffset":1380928,"byteLength":11520,"target":34962},{"buffer":0,"byteOffset":1392448,"byteLength":11520,"target":34962},{"buffer":0,"byteOffset":1403968,"byteLength":5760,"target":34963},{"buffer":0,"byteOffset":1409728,"byteLength":864,"target":34962},{"buffer":0,"byteOffset":1410592,"byteLength":864,"target":34962},{"buffer":0,"byteOffset":1411456,"byteLength":288,"target":34963},{"buffer":0,"byteOffset":1411744,"byteLength":1728,"target":34962},{"buffer":0,"byteOffset":1413472,"byteLength":1728,"target":34962},{"buffer":0,"byteOffset":1415200,"byteLength":576,"target":34963},{"buffer":0,"byteOffset":1415776,"byteLength":288,"target":34962},{"buffer":0,"byteOffset":1416064,"byteLength":288,"target":34962},{"buffer":0,"byteOffset":1416352,"byteLength":96,"target":34963},{"buffer":0,"byteOffset":1416448,"byteLength":288,"target":34962},{"buffer":0,"byteOffset":1416736,"byteLength":288,"target":34962},{"buffer":0,"byteOffset":1417024,"byteLength":144,"target":34963},{"buffer":0,"byteOffset":1417168,"byteLength":864,"target":34962},{"buffer":0,"byteOffset":1418032,"byteLength":864,"target":34962},{"buffer":0,"byteOffset":1418896,"byteLength":288,"target":34963},{"buffer":0,"byteOffset":1419184,"byteLength":1728,"target":34962},{"buffer":0,"byteOffset":1420912,"byteLength":1728,"target":34962},{"buffer":0,"byteOffset":1422640,"byteLength":576,"target":34963},{"buffer":0,"byteOffset":1423216,"byteLength":288,"target":34962},{"buffer":0,"byteOffset":1423504,"byteLength":288,"target":34962},{"buffer":0,"byteOffset":1423792,"byteLength":96,"target":34963},{"buffer":0,"byteOffset":1423888,"byteLength":288,"target":34962},{"buffer":0,"byteOffset":1424176,"byteLength":288,"target":34962},{"buffer":0,"byteOffset":1424464,"byteLength":144,"target":34963},{"buffer":0,"byteOffset":1424608,"byteLength":168,"target":34962},{"buffer":0,"byteOffset":1424776,"byteLength":168,"target":34962},{"buffer":0,"byteOffset":1424944,"byteLength":144,"target":34963},{"buffer":0,"byteOffset":1425088,"byteLength":1584,"target":34962},{"buffer":0,"byteOffset":1426672,"byteLength":1584,"target":34962},{"buffer":0,"byteOffset":1428256,"byteLength":1536,"target":34963},{"buffer":0,"byteOffset":1429792,"byteLength":1584,"target":34962},{"buffer":0,"byteOffset":1431376,"byteLength":1584,"target":34962},{"buffer":0,"byteOffset":1432960,"byteLength":1536,"target":34963},{"buffer":0,"byteOffset":1434496,"byteLength":1584,"target":34962},{"buffer":0,"byteOffset":1436080,"byteLength":1584,"target":34962},{"buffer":0,"byteOffset":1437664,"byteLength":1536,"target":34963},{"buffer":0,"byteOffset":1439200,"byteLength":1584,"target":34962},{"buffer":0,"byteOffset":1440784,"byteLength":1584,"target":34962},{"buffer":0,"byteOffset":1442368,"byteLength":1536,"target":34963},{"buffer":0,"byteOffset":1443904,"byteLength":1584,"target":34962},{"buffer":0,"byteOffset":1445488,"byteLength":1584,"target":34962},{"buffer":0,"byteOffset":1447072,"byteLength":1536,"target":34963},{"buffer":1,"byteOffset":0,"byteLength":6912,"target":34962},{"buffer":1,"byteOffset":6912,"byteLength":6912,"target":34962},{"buffer":1,"byteOffset":13824,"byteLength":4608,"target":34962}],"accessors":[{"bufferView":0,"componentType":5126,"count":2665,"type":"VEC3","min":[-2.5,-2.5,-27.5],"max":[2.5,2.5,27.5]},{"bufferView":1,"componentType":5126,"count":2665,"type":"VEC3"},{"bufferView":2,"componentType":5126,"count":2665,"type":"VEC2"},{"bufferView":3,"componentType":5125,"count":15360,"type":"SCALAR"},{"bufferView":4,"componentType":5126,"count":90,"type":"VEC3","min":[-9.260000000000002,-3.015,-25.575000000000003],"max":[8.98,1.6800000000000002,2.475]},{"bufferView":5,"componentType":5126,"count":90,"type":"VEC3"},{"bufferView":6,"componentType":5125,"count":144,"type":"SCALAR"},{"bufferView":7,"componentType":5126,"count":24,"type":"VEC3","min":[-0.1,1.0,-25.575000000000003],"max":[0.1,10.475,-15.400000000000002]},{"bufferView":8,"componentType":5126,"count":24,"type":"VEC3"},{"bufferView":9,"componentType":5125,"count":36,"type":"SCALAR"},{"bufferView":10,"componentType":5126,"count":15876,"type":"VEC3","min":[-10.200000000000001,-3.955,-12.780000000000001],"max":[10.200000000000001,2.0649785281373725,24.365000000000002]},{"bufferView":11,"componentType":5126,"count":15876,"type":"VEC3"},{"bufferView":12,"componentType":5126,"count":16,"type":"VEC3","min":[-2.54,-1.05,-24.64],"max":[2.54,8.401499999999999,12.575]},{"bufferView":13,"componentType":5126,"count":16,"type":"VEC3"},{"bufferView":14,"componentType":5126,"count":16,"type":"VEC2"},{"bufferView":15,"componentType":5125,"count":24,"type":"SCALAR"},{"bufferView":16,"componentType":5126,"count":4230,"type":"VEC3","min":[-10.4457,-4.2007,-13.085],"max":[10.4457,2.0736387821752165,24.365000000000002]},{"bufferView":17,"componentType":5126,"count":4230,"type":"VEC3"},{"bufferView":18,"componentType":5125,"count":12480,"type":"SCALAR"},{"bufferView":19,"componentType":5126,"count":1698,"type":"VEC3","min":[-10.47,-4.225,-10.45],"max":[10.47,-1.225,16.5]},{"bufferView":20,"componentType":5126,"count":1698,"type":"VEC3"},{"bufferView":21,"componentType":5125,"count":9228,"type":"SCALAR"},{"bufferView":22,"componentType":5126,"count":1792,"type":"VEC3","min":[-0.41000000000000003,-0.4,-0.4],"max":[0.41000000000000003,0.4,0.4]},{"bufferView":23,"componentType":5126,"count":1792,"type":"VEC3"},{"bufferView":24,"componentType":5125,"count":2688,"type":"SCALAR"},{"bufferView":25,"componentType":5126,"count":1792,"type":"VEC3","min":[-0.41000000000000003,-0.52,-0.52],"max":[0.41000000000000003,0.52,0.52]},{"bufferView":26,"componentType":5126,"count":1792,"type":"VEC3"},{"bufferView":27,"componentType":5125,"count":2688,"type":"SCALAR"},{"bufferView":28,"componentType":5126,"count":1792,"type":"VEC3","min":[-0.41000000000000003,-0.52,-0.52],"max":[0.41000000000000003,0.52,0.52]},{"bufferView":29,"componentType":5126,"count":1792,"type":"VEC3"},{"bufferView":30,"componentType":5125,"count":2688,"type":"SCALAR"},{"bufferView":31,"componentType":5126,"count":1792,"type":"VEC3","min":[-0.41000000000000003,-0.52,-0.52],"max":[0.41000000000000003,0.52,0.52]},{"bufferView":32,"componentType":5126,"count":1792,"type":"VEC3"},{"bufferView":33,"componentType":5125,"count":2688,"type":"SCALAR"},{"bufferView":34,"componentType":5126,"count":1792,"type":"VEC3","min":[-0.41000000000000003,-0.52,-0.52],"max":[0.41000000000000003,0.52,0.52]},{"bufferView":35,"componentType":5126,"count":1792,"type":"VEC3"},{"bufferView":36,"componentType":5125,"count":2688,"type":"SCALAR"},{"bufferView":37,"componentType":5126,"count":3263,"type":"VEC3","min":[-24.0,-1.7408073700001658,-15.127391304347826],"max":[-1.875,1.0088622991398284,5.5]},{"bufferView":38,"componentType":5126,"count":3263,"type":"VEC3"},{"bufferView":39,"componentType":5125,"count":14736,"type":"SCALAR"},{"bufferView":40,"componentType":5126,"count":36,"type":"VEC3","min":[-24.0,-0.699652587630799,-13.294875000000001],"max":[-1.875,0.9897434793691848,-4.5980000000000025]},{"bufferView":41,"componentType":5126,"count":36,"type":"VEC3"},{"bufferView":42,"componentType":5125,"count":72,"type":"SCALAR"},{"bufferView":43,"componentType":5126,"count":3263,"type":"VEC3","min":[1.875,-1.7408073700001658,-15.127391304347826],"max":[24.0,1.0088622991398284,5.5]},{"bufferView":44,"componentType":5126,"count":3263,"type":"VEC3"},{"bufferView":45,"componentType":5125,"count":14736,"type":"SCALAR"},{"bufferView":46,"componentType":5126,"count":36,"type":"VEC3","min":[1.875,-0.699652587630799,-13.294875000000001],"max":[24.0,0.9897434793691848,-4.5980000000000025]},{"bufferView":47,"componentType":5126,"count":36,"type":"VEC3"},{"bufferView":48,"componentType":5125,"count":72,"type":"SCALAR"},{"bufferView":49,"componentType":5126,"count":753,"type":"VEC3","min":[-10.159489940056156,-3.9144899400561552,1.6789999999999998],"max":[-8.080510059943846,-1.8355100599438445,3.025]},{"bufferView":50,"componentType":5126,"count":753,"type":"VEC3"},{"bufferView":51,"componentType":5125,"count":3240,"type":"SCALAR"},{"bufferView":52,"componentType":5126,"count":753,"type":"VEC3","min":[8.080510059943846,-3.9144899400561552,1.6789999999999998],"max":[10.159489940056156,-1.8355100599438445,3.025]},{"bufferView":53,"componentType":5126,"count":753,"type":"VEC3"},{"bufferView":54,"componentType":5125,"count":3240,"type":"SCALAR"},{"bufferView":55,"componentType":5126,"count":72,"type":"VEC3","min":[-3.37,-3.525,-6.675000000000001],"max":[2.27,-1.85,16.599999999999998]},{"bufferView":56,"componentType":5126,"count":72,"type":"VEC3"},{"bufferView":57,"componentType":5126,"count":72,"type":"VEC2"},{"bufferView":58,"componentType":5125,"count":108,"type":"SCALAR"},{"bufferView":59,"componentType":5126,"count":320,"type":"VEC3","min":[-2.87,-3.7,-6.1450000000000005],"max":[2.87,-3.1,16.07]},{"bufferView":60,"componentType":5126,"count":320,"type":"VEC3"},{"bufferView":61,"componentType":5125,"count":480,"type":"SCALAR"},{"bufferView":62,"componentType":5126,"count":960,"type":"VEC3","min":[-3.17,-4.1899999999999995,-6.115],"max":[3.17,-1.75,16.403307692307692]},{"bufferView":63,"componentType":5126,"count":960,"type":"VEC3"},{"bufferView":64,"componentType":5125,"count":1440,"type":"SCALAR"},{"bufferView":65,"componentType":5126,"count":72,"type":"VEC3","min":[-21.6,-1.5087682149205404,-10.056998464195471],"max":[-1.875,0.7779416938118968,5.5]},{"bufferView":66,"componentType":5126,"count":72,"type":"VEC3"},{"bufferView":67,"componentType":5125,"count":72,"type":"SCALAR"},{"bufferView":68,"componentType":5126,"count":144,"type":"VEC3","min":[-21.6,-1.2786741748117847,-14.025],"max":[-1.875,0.7709063259161875,-7.1752678503101155]},{"bufferView":69,"componentType":5126,"count":144,"type":"VEC3"},{"bufferView":70,"componentType":5125,"count":144,"type":"SCALAR"},{"bufferView":71,"componentType":5126,"count":24,"type":"VEC3","min":[-21.6,-0.5620299163388056,-12.99375],"max":[-1.875,0.8527963475987639,-3.8467314098862175]},{"bufferView":72,"componentType":5126,"count":24,"type":"VEC3"},{"bufferView":73,"componentType":5125,"count":24,"type":"SCALAR"},{"bufferView":74,"componentType":5126,"count":24,"type":"VEC3","min":[-8.64,0.94,-26.95],"max":[-1.0,1.6600000000000001,-22.825]},{"bufferView":75,"componentType":5126,"count":24,"type":"VEC3"},{"bufferView":76,"componentType":5125,"count":36,"type":"SCALAR"},{"bufferView":77,"componentType":5126,"count":72,"type":"VEC3","min":[1.875,-1.5087682149205404,-10.056998464195471],"max":[21.6,0.7779416938118968,5.5]},{"bufferView":78,"componentType":5126,"count":72,"type":"VEC3"},{"bufferView":79,"componentType":5125,"count":72,"type":"SCALAR"},{"bufferView":80,"componentType":5126,"count":144,"type":"VEC3","min":[1.875,-1.2786741748117847,-14.025],"max":[21.6,0.7709063259161875,-7.1752678503101155]},{"bufferView":81,"componentType":5126,"count":144,"type":"VEC3"},{"bufferView":82,"componentType":5125,"count":144,"type":"SCALAR"},{"bufferView":83,"componentType":5126,"count":24,"type":"VEC3","min":[1.875,-0.5620299163388056,-12.99375],"max":[21.6,0.8527963475987639,-3.8467314098862175]},{"bufferView":84,"componentType":5126,"count":24,"type":"VEC3"},{"bufferView":85,"componentType":5125,"count":24,"type":"SCALAR"},{"bufferView":86,"componentType":5126,"count":24,"type":"VEC3","min":[1.0,0.94,-26.95],"max":[8.64,1.6600000000000001,-22.825]},{"bufferView":87,"componentType":5126,"count":24,"type":"VEC3"},{"bufferView":88,"componentType":5125,"count":36,"type":"SCALAR"},{"bufferView":89,"componentType":5126,"count":14,"type":"VEC3","min":[0,0.92,-27.225],"max":[0,10.555,-24.64]},{"bufferView":90,"componentType":5126,"count":14,"type":"VEC3"},{"bufferView":91,"componentType":5125,"count":36,"type":"SCALAR"},{"bufferView":92,"componentType":5126,"count":132,"type":"VEC3","min":[-0.41100000000000003,-0.22000000000000003,-0.22000000000000003],"max":[0.41100000000000003,0.22000000000000003,0.22000000000000003]},{"bufferView":93,"componentType":5126,"count":132,"type":"VEC3"},{"bufferView":94,"componentType":5125,"count":384,"type":"SCALAR"},{"bufferView":95,"componentType":5126,"count":132,"type":"VEC3","min":[-0.41100000000000003,-0.28600000000000003,-0.28600000000000003],"max":[0.41100000000000003,0.28600000000000003,0.28600000000000003]},{"bufferView":96,"componentType":5126,"count":132,"type":"VEC3"},{"bufferView":97,"componentType":5125,"count":384,"type":"SCALAR"},{"bufferView":98,"componentType":5126,"count":132,"type":"VEC3","min":[-0.41100000000000003,-0.28600000000000003,-0.28600000000000003],"max":[0.41100000000000003,0.28600000000000003,0.28600000000000003]},{"bufferView":99,"componentType":5126,"count":132,"type":"VEC3"},{"bufferView":100,"componentType":5125,"count":384,"type":"SCALAR"},{"bufferView":101,"componentType":5126,"count":132,"type":"VEC3","min":[-0.41100000000000003,-0.28600000000000003,-0.28600000000000003],"max":[0.41100000000000003,0.28600000000000003,0.28600000000000003]},{"bufferView":102,"componentType":5126,"count":132,"type":"VEC3"},{"bufferView":103,"componentType":5125,"count":384,"type":"SCALAR"},{"bufferView":104,"componentType":5126,"count":132,"type":"VEC3","min":[-0.41100000000000003,-0.28600000000000003,-0.28600000000000003],"max":[0.41100000000000003,0.28600000000000003,0.28600000000000003]},{"bufferView":105,"componentType":5126,"count":132,"type":"VEC3"},{"bufferView":106,"componentType":5125,"count":384,"type":"SCALAR"},{"bufferView":107,"componentType":5126,"count":576,"type":"VEC3","min":[-2.3603807579381204,0.8999999999999999,-6.6],"max":[2.3603807579381204,1.525,13.75]},{"bufferView":108,"componentType":5126,"count":576,"type":"VEC3"},{"bufferView":109,"componentType":5126,"count":576,"type":"VEC2"}],"images":[{"uri":"../../airlines/UAE.png"},{"uri":"fallback-paint-v5.png"},{"uri":"title-UAE.png"}],"textures":[{"source":0,"sampler":0},{"source":1,"sampler":0},{"source":2,"sampler":0}],"samplers":[{"magFilter":9729,"minFilter":9987,"wrapS":33071,"wrapT":33071}]}