{"asset":{"version":"2.0","generator":"Skyward original illustrative b767 profile; logos for operator identification"},"scene":0,"scenes":[{"nodes":[0,1]}],"nodes":[{"mesh":0},{"mesh":1,"name":"Gear"}],"meshes":[{"primitives":[{"attributes":{"POSITION":0,"NORMAL":1},"material":0},{"attributes":{"POSITION":2,"NORMAL":3},"material":1},{"attributes":{"POSITION":4,"NORMAL":5},"material":2},{"attributes":{"POSITION":6,"NORMAL":7},"material":3},{"attributes":{"POSITION":10,"NORMAL":11,"TEXCOORD_0":12},"material":5},{"attributes":{"POSITION":13,"NORMAL":14},"material":6},{"attributes":{"POSITION":15,"NORMAL":16},"material":7}]},{"primitives":[{"attributes":{"POSITION":8,"NORMAL":9},"material":4}]}],"materials":[{"doubleSided":true,"pbrMetallicRoughness":{"baseColorFactor":[0.94,0.95,0.96,1],"metallicFactor":0.18,"roughnessFactor":0.3}},{"doubleSided":true,"pbrMetallicRoughness":{"baseColorFactor":[0.64,0.68,0.72,1],"metallicFactor":0.18,"roughnessFactor":0.3}},{"doubleSided":true,"pbrMetallicRoughness":{"baseColorFactor":[0.13725490196078433,0.6470588235294118,0.8352941176470589,1],"metallicFactor":0.18,"roughnessFactor":0.3}},{"doubleSided":true,"pbrMetallicRoughness":{"baseColorFactor":[0.02,0.055,0.085,1],"metallicFactor":0.18,"roughnessFactor":0.17}},{"doubleSided":true,"pbrMetallicRoughness":{"baseColorFactor":[0.07,0.08,0.09,1],"metallicFactor":0.18,"roughnessFactor":0.3}},{"doubleSided":true,"pbrMetallicRoughness":{"baseColorFactor":[1,1,1,1],"metallicFactor":0,"roughnessFactor":0.75,"baseColorTexture":{"index":0}},"alphaMode":"BLEND"},{"doubleSided":true,"pbrMetallicRoughness":{"baseColorFactor":[0.36,0.4,0.44,1],"metallicFactor":0.7,"roughnessFactor":0.3}},{"doubleSided":true,"pbrMetallicRoughness":{"baseColorFactor":[0.13725490196078433,0.6470588235294118,0.8352941176470589,1],"metallicFactor":0.18,"roughnessFactor":0.3}}],"buffers":[{"uri":"b767-v3.bin","byteLength":226560}],"bufferViews":[{"buffer":0,"byteOffset":0,"byteLength":34560,"target":34962},{"buffer":0,"byteOffset":34560,"byteLength":34560,"target":34962},{"buffer":0,"byteOffset":69120,"byteLength":2880,"target":34962},{"buffer":0,"byteOffset":72000,"byteLength":2880,"target":34962},{"buffer":0,"byteOffset":74880,"byteLength":432,"target":34962},{"buffer":0,"byteOffset":75312,"byteLength":432,"target":34962},{"buffer":0,"byteOffset":75744,"byteLength":36288,"target":34962},{"buffer":0,"byteOffset":112032,"byteLength":36288,"target":34962},{"buffer":0,"byteOffset":148320,"byteLength":2592,"target":34962},{"buffer":0,"byteOffset":150912,"byteLength":2592,"target":34962},{"buffer":0,"byteOffset":153504,"byteLength":288,"target":34962},{"buffer":0,"byteOffset":153792,"byteLength":288,"target":34962},{"buffer":0,"byteOffset":154080,"byteLength":192,"target":34962},{"buffer":0,"byteOffset":154272,"byteLength":15264,"target":34962},{"buffer":0,"byteOffset":169536,"byteLength":15264,"target":34962},{"buffer":0,"byteOffset":184800,"byteLength":20880,"target":34962},{"buffer":0,"byteOffset":205680,"byteLength":20880,"target":34962}],"accessors":[{"bufferView":0,"componentType":5126,"count":2880,"type":"VEC3","min":[-2.5,-2.5,-27.5],"max":[2.5,2.5,27.5]},{"bufferView":1,"componentType":5126,"count":2880,"type":"VEC3"},{"bufferView":2,"componentType":5126,"count":240,"type":"VEC3","min":[-24.0,-3.015,-26.95],"max":[24.0,1.6800000000000002,5.5]},{"bufferView":3,"componentType":5126,"count":240,"type":"VEC3"},{"bufferView":4,"componentType":5126,"count":36,"type":"VEC3","min":[-0.1,1.0,-27.225],"max":[0.1,10.475,-15.400000000000002]},{"bufferView":5,"componentType":5126,"count":36,"type":"VEC3"},{"bufferView":6,"componentType":5126,"count":3024,"type":"VEC3","min":[-10.200000000000001,-3.955,-12.780000000000001],"max":[10.200000000000001,1.675,22.825]},{"bufferView":7,"componentType":5126,"count":3024,"type":"VEC3"},{"bufferView":8,"componentType":5126,"count":216,"type":"VEC3","min":[-2.3,-4.5,-5.88],"max":[2.3,-2.5,16.33]},{"bufferView":9,"componentType":5126,"count":216,"type":"VEC3"},{"bufferView":10,"componentType":5126,"count":24,"type":"VEC3","min":[-2.54,-1.05,-24.585],"max":[2.54,8.0,12.575]},{"bufferView":11,"componentType":5126,"count":24,"type":"VEC3"},{"bufferView":12,"componentType":5126,"count":24,"type":"VEC2"},{"bufferView":13,"componentType":5126,"count":1272,"type":"VEC3","min":[-10.389000000000001,-4.144,-12.65],"max":[10.389000000000001,1.5,15.450000000000003]},{"bufferView":14,"componentType":5126,"count":1272,"type":"VEC3"},{"bufferView":15,"componentType":5126,"count":1740,"type":"VEC3","min":[-10.47,-4.225,-10.45],"max":[10.47,-1.225,16.5]},{"bufferView":16,"componentType":5126,"count":1740,"type":"VEC3"}],"images":[{"uri":"../../airlines/KLM.png"}],"textures":[{"source":0,"sampler":0}],"samplers":[{"magFilter":9729,"minFilter":9987,"wrapS":33071,"wrapT":33071}]}