{"asset":{"version":"2.0","generator":"Skyward original illustrative b772 profile; logos for operator identification"},"scene":0,"scenes":[{"nodes":[0,1]}],"nodes":[{"mesh":0},{"mesh":1,"name":"Gear"}],"meshes":[{"primitives":[{"attributes":{"POSITION":0,"NORMAL":1},"material":0},{"attributes":{"POSITION":2,"NORMAL":3},"material":1},{"attributes":{"POSITION":4,"NORMAL":5},"material":2},{"attributes":{"POSITION":6,"NORMAL":7},"material":3},{"attributes":{"POSITION":10,"NORMAL":11,"TEXCOORD_0":12},"material":5},{"attributes":{"POSITION":13,"NORMAL":14},"material":6},{"attributes":{"POSITION":15,"NORMAL":16},"material":7}]},{"primitives":[{"attributes":{"POSITION":8,"NORMAL":9},"material":4}]}],"materials":[{"doubleSided":true,"pbrMetallicRoughness":{"baseColorFactor":[0.94,0.95,0.96,1],"metallicFactor":0.18,"roughnessFactor":0.3}},{"doubleSided":true,"pbrMetallicRoughness":{"baseColorFactor":[0.64,0.68,0.72,1],"metallicFactor":0.18,"roughnessFactor":0.3}},{"doubleSided":true,"pbrMetallicRoughness":{"baseColorFactor":[0.09019607843137255,0.23529411764705882,0.4470588235294118,1],"metallicFactor":0.18,"roughnessFactor":0.3}},{"doubleSided":true,"pbrMetallicRoughness":{"baseColorFactor":[0.02,0.055,0.085,1],"metallicFactor":0.18,"roughnessFactor":0.17}},{"doubleSided":true,"pbrMetallicRoughness":{"baseColorFactor":[0.07,0.08,0.09,1],"metallicFactor":0.18,"roughnessFactor":0.3}},{"doubleSided":true,"pbrMetallicRoughness":{"baseColorFactor":[1,1,1,1],"metallicFactor":0,"roughnessFactor":0.75,"baseColorTexture":{"index":0}},"alphaMode":"BLEND"},{"doubleSided":true,"pbrMetallicRoughness":{"baseColorFactor":[0.36,0.4,0.44,1],"metallicFactor":0.7,"roughnessFactor":0.3}},{"doubleSided":true,"pbrMetallicRoughness":{"baseColorFactor":[0.09019607843137255,0.23529411764705882,0.4470588235294118,1],"metallicFactor":0.18,"roughnessFactor":0.3}}],"buffers":[{"uri":"b772-v3.bin","byteLength":233760}],"bufferViews":[{"buffer":0,"byteOffset":0,"byteLength":34560,"target":34962},{"buffer":0,"byteOffset":34560,"byteLength":34560,"target":34962},{"buffer":0,"byteOffset":69120,"byteLength":2880,"target":34962},{"buffer":0,"byteOffset":72000,"byteLength":2880,"target":34962},{"buffer":0,"byteOffset":74880,"byteLength":432,"target":34962},{"buffer":0,"byteOffset":75312,"byteLength":432,"target":34962},{"buffer":0,"byteOffset":75744,"byteLength":39888,"target":34962},{"buffer":0,"byteOffset":115632,"byteLength":39888,"target":34962},{"buffer":0,"byteOffset":155520,"byteLength":2592,"target":34962},{"buffer":0,"byteOffset":158112,"byteLength":2592,"target":34962},{"buffer":0,"byteOffset":160704,"byteLength":288,"target":34962},{"buffer":0,"byteOffset":160992,"byteLength":288,"target":34962},{"buffer":0,"byteOffset":161280,"byteLength":192,"target":34962},{"buffer":0,"byteOffset":161472,"byteLength":15264,"target":34962},{"buffer":0,"byteOffset":176736,"byteLength":15264,"target":34962},{"buffer":0,"byteOffset":192000,"byteLength":20880,"target":34962},{"buffer":0,"byteOffset":212880,"byteLength":20880,"target":34962}],"accessors":[{"bufferView":0,"componentType":5126,"count":2880,"type":"VEC3","min":[-3.1,-3.1,-32.0],"max":[3.1,3.1,32.0]},{"bufferView":1,"componentType":5126,"count":2880,"type":"VEC3"},{"bufferView":2,"componentType":5126,"count":240,"type":"VEC3","min":[-30.5,-3.705,-31.36],"max":[30.5,1.9200000000000004,6.4]},{"bufferView":3,"componentType":5126,"count":240,"type":"VEC3"},{"bufferView":4,"componentType":5126,"count":36,"type":"VEC3","min":[-0.1,1.2400000000000002,-31.68],"max":[0.1,12.379999999999999,-17.92]},{"bufferView":5,"componentType":5126,"count":36,"type":"VEC3"},{"bufferView":6,"componentType":5126,"count":3324,"type":"VEC3","min":[-13.2268,-5.2018,-14.850000000000001],"max":[13.2268,2.0770000000000004,26.56]},{"bufferView":7,"componentType":5126,"count":3324,"type":"VEC3"},{"bufferView":8,"componentType":5126,"count":216,"type":"VEC3","min":[-2.7800000000000002,-5.1000000000000005,-6.78],"max":[2.7800000000000002,-3.1000000000000005,18.939999999999998]},{"bufferView":9,"componentType":5126,"count":216,"type":"VEC3"},{"bufferView":10,"componentType":5126,"count":24,"type":"VEC3","min":[-3.14,-1.302,-28.608],"max":[3.14,9.5,14.795]},{"bufferView":11,"componentType":5126,"count":24,"type":"VEC3"},{"bufferView":12,"componentType":5126,"count":24,"type":"VEC2"},{"bufferView":13,"componentType":5126,"count":1272,"type":"VEC3","min":[-13.51324,-5.48824,-14.72],"max":[13.51324,1.8599999999999999,17.970000000000002]},{"bufferView":14,"componentType":5126,"count":1272,"type":"VEC3"},{"bufferView":15,"componentType":5126,"count":1740,"type":"VEC3","min":[-13.636,-5.611000000000001,-12.16],"max":[13.636,-1.5189999999999997,19.2]},{"bufferView":16,"componentType":5126,"count":1740,"type":"VEC3"}],"images":[{"uri":"../../airlines/DLH.png"}],"textures":[{"source":0,"sampler":0}],"samplers":[{"magFilter":9729,"minFilter":9987,"wrapS":33071,"wrapT":33071}]}