{"asset":{"version":"2.0","generator":"Skyward original illustrative b772 profile; logos for operator identification"},"scene":0,"scenes":[{"nodes":[0,1]}],"nodes":[{"mesh":0},{"mesh":1,"name":"Gear","children":[2,3,4]},{"mesh":2,"name":"WheelN","translation":[0,-4.7,18.56]},{"mesh":3,"name":"WheelL","translation":[-2.4800000000000004,-4.7,-6.4]},{"mesh":4,"name":"WheelR","translation":[2.4800000000000004,-4.7,-6.4]}],"meshes":[{"primitives":[{"attributes":{"POSITION":0,"NORMAL":1},"material":0},{"attributes":{"POSITION":2,"NORMAL":3},"material":1},{"attributes":{"POSITION":4,"NORMAL":5},"material":2},{"attributes":{"POSITION":6,"NORMAL":7},"material":3},{"attributes":{"POSITION":10,"NORMAL":11,"TEXCOORD_0":12},"material":5},{"attributes":{"POSITION":13,"NORMAL":14},"material":6},{"attributes":{"POSITION":15,"NORMAL":16},"material":7}]},{"primitives":[{"attributes":{"POSITION":8,"NORMAL":9},"material":4}]},{"primitives":[{"attributes":{"POSITION":17,"NORMAL":18},"material":4,"extras":{"wheel":0}}]},{"primitives":[{"attributes":{"POSITION":19,"NORMAL":20},"material":4,"extras":{"wheel":1}}]},{"primitives":[{"attributes":{"POSITION":21,"NORMAL":22},"material":4,"extras":{"wheel":2}}]}],"materials":[{"doubleSided":true,"pbrMetallicRoughness":{"baseColorFactor":[0.94,0.95,0.96,1],"metallicFactor":0.18,"roughnessFactor":0.3}},{"doubleSided":true,"pbrMetallicRoughness":{"baseColorFactor":[0.64,0.68,0.72,1],"metallicFactor":0.18,"roughnessFactor":0.3}},{"doubleSided":true,"pbrMetallicRoughness":{"baseColorFactor":[0.14901960784313725,0.24705882352941178,0.5058823529411764,1],"metallicFactor":0.18,"roughnessFactor":0.3}},{"doubleSided":true,"pbrMetallicRoughness":{"baseColorFactor":[0.02,0.055,0.085,1],"metallicFactor":0.18,"roughnessFactor":0.17}},{"doubleSided":true,"pbrMetallicRoughness":{"baseColorFactor":[0.07,0.08,0.09,1],"metallicFactor":0.18,"roughnessFactor":0.3}},{"doubleSided":true,"pbrMetallicRoughness":{"baseColorFactor":[1,1,1,1],"metallicFactor":0,"roughnessFactor":0.75,"baseColorTexture":{"index":0}},"alphaMode":"MASK","alphaCutoff":0.08},{"doubleSided":true,"pbrMetallicRoughness":{"baseColorFactor":[0.36,0.4,0.44,1],"metallicFactor":0.7,"roughnessFactor":0.3}},{"doubleSided":true,"pbrMetallicRoughness":{"baseColorFactor":[0.14901960784313725,0.24705882352941178,0.5058823529411764,1],"metallicFactor":0.18,"roughnessFactor":0.3}}],"buffers":[{"uri":"b772-v4.bin?tail=2","byteLength":258816}],"bufferViews":[{"buffer":0,"byteOffset":0,"byteLength":34560,"target":34962},{"buffer":0,"byteOffset":34560,"byteLength":34560,"target":34962},{"buffer":0,"byteOffset":69120,"byteLength":2880,"target":34962},{"buffer":0,"byteOffset":72000,"byteLength":2880,"target":34962},{"buffer":0,"byteOffset":74880,"byteLength":432,"target":34962},{"buffer":0,"byteOffset":75312,"byteLength":432,"target":34962},{"buffer":0,"byteOffset":75744,"byteLength":39888,"target":34962},{"buffer":0,"byteOffset":115632,"byteLength":39888,"target":34962},{"buffer":0,"byteOffset":155520,"byteLength":1296,"target":34962},{"buffer":0,"byteOffset":156816,"byteLength":1296,"target":34962},{"buffer":0,"byteOffset":158112,"byteLength":288,"target":34962},{"buffer":0,"byteOffset":158400,"byteLength":288,"target":34962},{"buffer":0,"byteOffset":158688,"byteLength":192,"target":34962},{"buffer":0,"byteOffset":158880,"byteLength":15264,"target":34962},{"buffer":0,"byteOffset":174144,"byteLength":15264,"target":34962},{"buffer":0,"byteOffset":189408,"byteLength":20880,"target":34962},{"buffer":0,"byteOffset":210288,"byteLength":20880,"target":34962},{"buffer":0,"byteOffset":231168,"byteLength":4608,"target":34962},{"buffer":0,"byteOffset":235776,"byteLength":4608,"target":34962},{"buffer":0,"byteOffset":240384,"byteLength":4608,"target":34962},{"buffer":0,"byteOffset":244992,"byteLength":4608,"target":34962},{"buffer":0,"byteOffset":249600,"byteLength":4608,"target":34962},{"buffer":0,"byteOffset":254208,"byteLength":4608,"target":34962}],"accessors":[{"bufferView":0,"componentType":5126,"count":2880,"type":"VEC3","min":[-3.1,-3.1,-32.0],"max":[3.1,3.1,32.0]},{"bufferView":1,"componentType":5126,"count":2880,"type":"VEC3"},{"bufferView":2,"componentType":5126,"count":240,"type":"VEC3","min":[-30.5,-3.705,-31.36],"max":[30.5,1.9200000000000004,6.4]},{"bufferView":3,"componentType":5126,"count":240,"type":"VEC3"},{"bufferView":4,"componentType":5126,"count":36,"type":"VEC3","min":[-0.1,1.2400000000000002,-31.68],"max":[0.1,12.379999999999999,-17.92]},{"bufferView":5,"componentType":5126,"count":36,"type":"VEC3"},{"bufferView":6,"componentType":5126,"count":3324,"type":"VEC3","min":[-13.2268,-5.2018,-14.850000000000001],"max":[13.2268,2.0770000000000004,26.56]},{"bufferView":7,"componentType":5126,"count":3324,"type":"VEC3"},{"bufferView":8,"componentType":5126,"count":108,"type":"VEC3","min":[-2.5800000000000005,-4.7,-6.5],"max":[2.5800000000000005,-3.1000000000000005,18.66]},{"bufferView":9,"componentType":5126,"count":108,"type":"VEC3"},{"bufferView":10,"componentType":5126,"count":24,"type":"VEC3","min":[-3.14,-1.302,-28.672],"max":[3.14,10.204,14.795]},{"bufferView":11,"componentType":5126,"count":24,"type":"VEC3"},{"bufferView":12,"componentType":5126,"count":24,"type":"VEC2"},{"bufferView":13,"componentType":5126,"count":1272,"type":"VEC3","min":[-13.51324,-5.48824,-14.72],"max":[13.51324,1.8599999999999999,17.970000000000002]},{"bufferView":14,"componentType":5126,"count":1272,"type":"VEC3"},{"bufferView":15,"componentType":5126,"count":1740,"type":"VEC3","min":[-13.636,-5.611000000000001,-12.16],"max":[13.636,-1.5189999999999997,19.2]},{"bufferView":16,"componentType":5126,"count":1740,"type":"VEC3"},{"bufferView":17,"componentType":5126,"count":384,"type":"VEC3","min":[-0.25,-0.4,-0.4],"max":[0.25,0.4,0.4]},{"bufferView":18,"componentType":5126,"count":384,"type":"VEC3"},{"bufferView":19,"componentType":5126,"count":384,"type":"VEC3","min":[-0.25,-0.4,-0.4],"max":[0.25,0.4,0.4]},{"bufferView":20,"componentType":5126,"count":384,"type":"VEC3"},{"bufferView":21,"componentType":5126,"count":384,"type":"VEC3","min":[-0.25,-0.4,-0.4],"max":[0.25,0.4,0.4]},{"bufferView":22,"componentType":5126,"count":384,"type":"VEC3"}],"images":[{"uri":"../../airlines/BAW.png"}],"textures":[{"source":0,"sampler":0}],"samplers":[{"magFilter":9729,"minFilter":9987,"wrapS":33071,"wrapT":33071}]}