{"asset":{"version":"2.0","generator":"Skyward detailed procedural b772 fallback v6; approximate airframe; operator identification logos"},"scene":0,"scenes":[{"nodes":[0,1,9,10,11,12,13,14,15,16,17,18,19,20,21]}],"nodes":[{"mesh":0},{"mesh":1,"name":"Gear","children":[2,3,4,5,6,7,8]},{"mesh":2,"name":"WheelN","translation":[0,-4.7,18.56]},{"mesh":3,"name":"WheelL","translation":[-3.4100000000000006,-4.7,-7.45]},{"mesh":4,"name":"WheelR","translation":[3.4100000000000006,-4.7,-7.45]},{"mesh":5,"name":"WheelL2","translation":[-3.4100000000000006,-4.7,-6.4]},{"mesh":6,"name":"WheelR2","translation":[3.4100000000000006,-4.7,-6.4]},{"mesh":7,"name":"WheelL3","translation":[-3.4100000000000006,-4.7,-5.3500000000000005]},{"mesh":8,"name":"WheelR3","translation":[3.4100000000000006,-4.7,-5.3500000000000005]},{"mesh":9,"name":"SlatL"},{"mesh":10,"name":"FlapL"},{"mesh":11,"name":"SpoilerL"},{"mesh":12,"name":"ElevatorL"},{"mesh":13,"name":"SlatR"},{"mesh":14,"name":"FlapR"},{"mesh":15,"name":"SpoilerR"},{"mesh":16,"name":"ElevatorR"},{"mesh":17,"name":"Rudder"},{"mesh":18,"name":"FlexWingL"},{"mesh":19,"name":"FlexWingR"},{"mesh":20,"name":"SkywardFan0"},{"mesh":21,"name":"SkywardFan1"}],"meshes":[{"name":"AirframeWithCockpitGlazing","primitives":[{"indices":3,"attributes":{"POSITION":0,"NORMAL":1,"TEXCOORD_0":2},"material":0},{"indices":6,"attributes":{"POSITION":4,"NORMAL":5},"material":1},{"indices":9,"attributes":{"POSITION":7,"NORMAL":8},"material":2},{"attributes":{"POSITION":10,"NORMAL":11},"material":3},{"indices":15,"attributes":{"POSITION":12,"NORMAL":13,"TEXCOORD_0":14},"material":5},{"indices":18,"attributes":{"POSITION":16,"NORMAL":17},"material":6},{"indices":21,"attributes":{"POSITION":19,"NORMAL":20},"material":7},{"attributes":{"POSITION":119,"NORMAL":120,"TEXCOORD_0":121},"material":8}]},{"primitives":[{"indices":64,"attributes":{"POSITION":61,"NORMAL":62,"TEXCOORD_0":63},"material":0,"extras":{"gear":true}},{"indices":67,"attributes":{"POSITION":65,"NORMAL":66},"material":1,"extras":{"gear":true}},{"indices":70,"attributes":{"POSITION":68,"NORMAL":69},"material":6,"extras":{"gear":true}}]},{"primitives":[{"indices":24,"attributes":{"POSITION":22,"NORMAL":23},"material":4,"extras":{"wheel":0}},{"indices":100,"attributes":{"POSITION":98,"NORMAL":99},"material":6,"extras":{"wheel":0}}]},{"primitives":[{"indices":27,"attributes":{"POSITION":25,"NORMAL":26},"material":4,"extras":{"wheel":1}},{"indices":103,"attributes":{"POSITION":101,"NORMAL":102},"material":6,"extras":{"wheel":1}}]},{"primitives":[{"indices":30,"attributes":{"POSITION":28,"NORMAL":29},"material":4,"extras":{"wheel":2}},{"indices":106,"attributes":{"POSITION":104,"NORMAL":105},"material":6,"extras":{"wheel":2}}]},{"primitives":[{"indices":33,"attributes":{"POSITION":31,"NORMAL":32},"material":4,"extras":{"wheel":3}},{"indices":109,"attributes":{"POSITION":107,"NORMAL":108},"material":6,"extras":{"wheel":3}}]},{"primitives":[{"indices":36,"attributes":{"POSITION":34,"NORMAL":35},"material":4,"extras":{"wheel":4}},{"indices":112,"attributes":{"POSITION":110,"NORMAL":111},"material":6,"extras":{"wheel":4}}]},{"primitives":[{"indices":39,"attributes":{"POSITION":37,"NORMAL":38},"material":4,"extras":{"wheel":5}},{"indices":115,"attributes":{"POSITION":113,"NORMAL":114},"material":6,"extras":{"wheel":5}}]},{"primitives":[{"indices":42,"attributes":{"POSITION":40,"NORMAL":41},"material":4,"extras":{"wheel":6}},{"indices":118,"attributes":{"POSITION":116,"NORMAL":117},"material":6,"extras":{"wheel":6}}]},{"primitives":[{"indices":73,"attributes":{"POSITION":71,"NORMAL":72},"material":1,"extras":{"surface":0}}]},{"primitives":[{"indices":76,"attributes":{"POSITION":74,"NORMAL":75},"material":1,"extras":{"surface":1}}]},{"primitives":[{"indices":79,"attributes":{"POSITION":77,"NORMAL":78},"material":1,"extras":{"surface":2}}]},{"primitives":[{"indices":82,"attributes":{"POSITION":80,"NORMAL":81},"material":1,"extras":{"surface":3}}]},{"primitives":[{"indices":85,"attributes":{"POSITION":83,"NORMAL":84},"material":1,"extras":{"surface":4}}]},{"primitives":[{"indices":88,"attributes":{"POSITION":86,"NORMAL":87},"material":1,"extras":{"surface":5}}]},{"primitives":[{"indices":91,"attributes":{"POSITION":89,"NORMAL":90},"material":1,"extras":{"surface":6}}]},{"primitives":[{"indices":94,"attributes":{"POSITION":92,"NORMAL":93},"material":1,"extras":{"surface":7}}]},{"primitives":[{"indices":97,"attributes":{"POSITION":95,"NORMAL":96},"material":2,"extras":{"surface":8}}]},{"primitives":[{"indices":45,"attributes":{"POSITION":43,"NORMAL":44},"material":1,"extras":{"wing":0}},{"indices":48,"attributes":{"POSITION":46,"NORMAL":47},"material":6,"extras":{"wing":0}}]},{"primitives":[{"indices":51,"attributes":{"POSITION":49,"NORMAL":50},"material":1,"extras":{"wing":1}},{"indices":54,"attributes":{"POSITION":52,"NORMAL":53},"material":6,"extras":{"wing":1}}]},{"primitives":[{"indices":57,"attributes":{"POSITION":55,"NORMAL":56},"material":6,"extras":{"fan":0}}]},{"primitives":[{"indices":60,"attributes":{"POSITION":58,"NORMAL":59},"material":6,"extras":{"fan":1}}]}],"materials":[{"doubleSided":true,"pbrMetallicRoughness":{"baseColorFactor":[0.94,0.95,0.96,1],"metallicFactor":0.04,"roughnessFactor":0.27,"baseColorTexture":{"index":1}}},{"doubleSided":true,"pbrMetallicRoughness":{"baseColorFactor":[0.64,0.68,0.72,1],"metallicFactor":0.04,"roughnessFactor":0.4}},{"doubleSided":true,"pbrMetallicRoughness":{"baseColorFactor":[0.4470588235294118,0.11764705882352941,0.28627450980392155,1],"metallicFactor":0.04,"roughnessFactor":0.27}},{"doubleSided":true,"pbrMetallicRoughness":{"baseColorFactor":[0.02,0.055,0.085,1],"metallicFactor":0,"roughnessFactor":0.12}},{"doubleSided":true,"pbrMetallicRoughness":{"baseColorFactor":[0.07,0.08,0.09,1],"metallicFactor":0,"roughnessFactor":0.86}},{"doubleSided":true,"pbrMetallicRoughness":{"baseColorFactor":[1,1,1,1],"metallicFactor":0,"roughnessFactor":0.75,"baseColorTexture":{"index":0}},"alphaMode":"MASK","alphaCutoff":0.08},{"doubleSided":true,"pbrMetallicRoughness":{"baseColorFactor":[0.36,0.4,0.44,1],"metallicFactor":0.8,"roughnessFactor":0.28}},{"doubleSided":true,"pbrMetallicRoughness":{"baseColorFactor":[0.4470588235294118,0.11764705882352941,0.28627450980392155,1],"metallicFactor":0.04,"roughnessFactor":0.27}},{"name":"Operator title","doubleSided":true,"alphaMode":"MASK","alphaCutoff":0.15,"pbrMetallicRoughness":{"baseColorTexture":{"index":2},"baseColorFactor":[0.4470588235294118,0.11764705882352941,0.28627450980392155,1],"roughnessFactor":0.6,"metallicFactor":0}}],"buffers":[{"uri":"b772-v4.bin?tail=2&rig=1&detail=6","byteLength":1588096},{"uri":"b772-title.bin?detail=6","byteLength":18432}],"bufferViews":[{"buffer":0,"byteOffset":0,"byteLength":31980,"target":34962},{"buffer":0,"byteOffset":31980,"byteLength":31980,"target":34962},{"buffer":0,"byteOffset":63960,"byteLength":21320,"target":34962},{"buffer":0,"byteOffset":85280,"byteLength":61440,"target":34963},{"buffer":0,"byteOffset":146720,"byteLength":1080,"target":34962},{"buffer":0,"byteOffset":147800,"byteLength":1080,"target":34962},{"buffer":0,"byteOffset":148880,"byteLength":576,"target":34963},{"buffer":0,"byteOffset":149456,"byteLength":288,"target":34962},{"buffer":0,"byteOffset":149744,"byteLength":288,"target":34962},{"buffer":0,"byteOffset":150032,"byteLength":144,"target":34963},{"buffer":0,"byteOffset":150176,"byteLength":194112,"target":34962},{"buffer":0,"byteOffset":344288,"byteLength":194112,"target":34962},{"buffer":0,"byteOffset":538400,"byteLength":192,"target":34962},{"buffer":0,"byteOffset":538592,"byteLength":192,"target":34962},{"buffer":0,"byteOffset":538784,"byteLength":128,"target":34962},{"buffer":0,"byteOffset":538912,"byteLength":96,"target":34963},{"buffer":0,"byteOffset":539008,"byteLength":50760,"target":34962},{"buffer":0,"byteOffset":589768,"byteLength":50760,"target":34962},{"buffer":0,"byteOffset":640528,"byteLength":49920,"target":34963},{"buffer":0,"byteOffset":690448,"byteLength":20376,"target":34962},{"buffer":0,"byteOffset":710824,"byteLength":20376,"target":34962},{"buffer":0,"byteOffset":731200,"byteLength":36912,"target":34963},{"buffer":0,"byteOffset":768112,"byteLength":21504,"target":34962},{"buffer":0,"byteOffset":789616,"byteLength":21504,"target":34962},{"buffer":0,"byteOffset":811120,"byteLength":10752,"target":34963},{"buffer":0,"byteOffset":821872,"byteLength":21504,"target":34962},{"buffer":0,"byteOffset":843376,"byteLength":21504,"target":34962},{"buffer":0,"byteOffset":864880,"byteLength":10752,"target":34963},{"buffer":0,"byteOffset":875632,"byteLength":21504,"target":34962},{"buffer":0,"byteOffset":897136,"byteLength":21504,"target":34962},{"buffer":0,"byteOffset":918640,"byteLength":10752,"target":34963},{"buffer":0,"byteOffset":929392,"byteLength":21504,"target":34962},{"buffer":0,"byteOffset":950896,"byteLength":21504,"target":34962},{"buffer":0,"byteOffset":972400,"byteLength":10752,"target":34963},{"buffer":0,"byteOffset":983152,"byteLength":21504,"target":34962},{"buffer":0,"byteOffset":1004656,"byteLength":21504,"target":34962},{"buffer":0,"byteOffset":1026160,"byteLength":10752,"target":34963},{"buffer":0,"byteOffset":1036912,"byteLength":21504,"target":34962},{"buffer":0,"byteOffset":1058416,"byteLength":21504,"target":34962},{"buffer":0,"byteOffset":1079920,"byteLength":10752,"target":34963},{"buffer":0,"byteOffset":1090672,"byteLength":21504,"target":34962},{"buffer":0,"byteOffset":1112176,"byteLength":21504,"target":34962},{"buffer":0,"byteOffset":1133680,"byteLength":10752,"target":34963},{"buffer":0,"byteOffset":1144432,"byteLength":39156,"target":34962},{"buffer":0,"byteOffset":1183588,"byteLength":39156,"target":34962},{"buffer":0,"byteOffset":1222744,"byteLength":58944,"target":34963},{"buffer":0,"byteOffset":1281688,"byteLength":432,"target":34962},{"buffer":0,"byteOffset":1282120,"byteLength":432,"target":34962},{"buffer":0,"byteOffset":1282552,"byteLength":288,"target":34963},{"buffer":0,"byteOffset":1282840,"byteLength":39156,"target":34962},{"buffer":0,"byteOffset":1321996,"byteLength":39156,"target":34962},{"buffer":0,"byteOffset":1361152,"byteLength":58944,"target":34963},{"buffer":0,"byteOffset":1420096,"byteLength":432,"target":34962},{"buffer":0,"byteOffset":1420528,"byteLength":432,"target":34962},{"buffer":0,"byteOffset":1420960,"byteLength":288,"target":34963},{"buffer":0,"byteOffset":1421248,"byteLength":9036,"target":34962},{"buffer":0,"byteOffset":1430284,"byteLength":9036,"target":34962},{"buffer":0,"byteOffset":1439320,"byteLength":12960,"target":34963},{"buffer":0,"byteOffset":1452280,"byteLength":9036,"target":34962},{"buffer":0,"byteOffset":1461316,"byteLength":9036,"target":34962},{"buffer":0,"byteOffset":1470352,"byteLength":12960,"target":34963},{"buffer":0,"byteOffset":1483312,"byteLength":864,"target":34962},{"buffer":0,"byteOffset":1484176,"byteLength":864,"target":34962},{"buffer":0,"byteOffset":1485040,"byteLength":576,"target":34962},{"buffer":0,"byteOffset":1485616,"byteLength":432,"target":34963},{"buffer":0,"byteOffset":1486048,"byteLength":5376,"target":34962},{"buffer":0,"byteOffset":1491424,"byteLength":5376,"target":34962},{"buffer":0,"byteOffset":1496800,"byteLength":2688,"target":34963},{"buffer":0,"byteOffset":1499488,"byteLength":16128,"target":34962},{"buffer":0,"byteOffset":1515616,"byteLength":16128,"target":34962},{"buffer":0,"byteOffset":1531744,"byteLength":8064,"target":34963},{"buffer":0,"byteOffset":1539808,"byteLength":864,"target":34962},{"buffer":0,"byteOffset":1540672,"byteLength":864,"target":34962},{"buffer":0,"byteOffset":1541536,"byteLength":288,"target":34963},{"buffer":0,"byteOffset":1541824,"byteLength":1728,"target":34962},{"buffer":0,"byteOffset":1543552,"byteLength":1728,"target":34962},{"buffer":0,"byteOffset":1545280,"byteLength":576,"target":34963},{"buffer":0,"byteOffset":1545856,"byteLength":288,"target":34962},{"buffer":0,"byteOffset":1546144,"byteLength":288,"target":34962},{"buffer":0,"byteOffset":1546432,"byteLength":96,"target":34963},{"buffer":0,"byteOffset":1546528,"byteLength":288,"target":34962},{"buffer":0,"byteOffset":1546816,"byteLength":288,"target":34962},{"buffer":0,"byteOffset":1547104,"byteLength":144,"target":34963},{"buffer":0,"byteOffset":1547248,"byteLength":864,"target":34962},{"buffer":0,"byteOffset":1548112,"byteLength":864,"target":34962},{"buffer":0,"byteOffset":1548976,"byteLength":288,"target":34963},{"buffer":0,"byteOffset":1549264,"byteLength":1728,"target":34962},{"buffer":0,"byteOffset":1550992,"byteLength":1728,"target":34962},{"buffer":0,"byteOffset":1552720,"byteLength":576,"target":34963},{"buffer":0,"byteOffset":1553296,"byteLength":288,"target":34962},{"buffer":0,"byteOffset":1553584,"byteLength":288,"target":34962},{"buffer":0,"byteOffset":1553872,"byteLength":96,"target":34963},{"buffer":0,"byteOffset":1553968,"byteLength":288,"target":34962},{"buffer":0,"byteOffset":1554256,"byteLength":288,"target":34962},{"buffer":0,"byteOffset":1554544,"byteLength":144,"target":34963},{"buffer":0,"byteOffset":1554688,"byteLength":168,"target":34962},{"buffer":0,"byteOffset":1554856,"byteLength":168,"target":34962},{"buffer":0,"byteOffset":1555024,"byteLength":144,"target":34963},{"buffer":0,"byteOffset":1555168,"byteLength":1584,"target":34962},{"buffer":0,"byteOffset":1556752,"byteLength":1584,"target":34962},{"buffer":0,"byteOffset":1558336,"byteLength":1536,"target":34963},{"buffer":0,"byteOffset":1559872,"byteLength":1584,"target":34962},{"buffer":0,"byteOffset":1561456,"byteLength":1584,"target":34962},{"buffer":0,"byteOffset":1563040,"byteLength":1536,"target":34963},{"buffer":0,"byteOffset":1564576,"byteLength":1584,"target":34962},{"buffer":0,"byteOffset":1566160,"byteLength":1584,"target":34962},{"buffer":0,"byteOffset":1567744,"byteLength":1536,"target":34963},{"buffer":0,"byteOffset":1569280,"byteLength":1584,"target":34962},{"buffer":0,"byteOffset":1570864,"byteLength":1584,"target":34962},{"buffer":0,"byteOffset":1572448,"byteLength":1536,"target":34963},{"buffer":0,"byteOffset":1573984,"byteLength":1584,"target":34962},{"buffer":0,"byteOffset":1575568,"byteLength":1584,"target":34962},{"buffer":0,"byteOffset":1577152,"byteLength":1536,"target":34963},{"buffer":0,"byteOffset":1578688,"byteLength":1584,"target":34962},{"buffer":0,"byteOffset":1580272,"byteLength":1584,"target":34962},{"buffer":0,"byteOffset":1581856,"byteLength":1536,"target":34963},{"buffer":0,"byteOffset":1583392,"byteLength":1584,"target":34962},{"buffer":0,"byteOffset":1584976,"byteLength":1584,"target":34962},{"buffer":0,"byteOffset":1586560,"byteLength":1536,"target":34963},{"buffer":1,"byteOffset":0,"byteLength":6912,"target":34962},{"buffer":1,"byteOffset":6912,"byteLength":6912,"target":34962},{"buffer":1,"byteOffset":13824,"byteLength":4608,"target":34962}],"accessors":[{"bufferView":0,"componentType":5126,"count":2665,"type":"VEC3","min":[-3.1,-3.1,-32.0],"max":[3.1,3.1,32.0]},{"bufferView":1,"componentType":5126,"count":2665,"type":"VEC3"},{"bufferView":2,"componentType":5126,"count":2665,"type":"VEC2"},{"bufferView":3,"componentType":5125,"count":15360,"type":"SCALAR"},{"bufferView":4,"componentType":5126,"count":90,"type":"VEC3","min":[-11.73,-3.705,-29.76],"max":[11.45,1.9200000000000004,2.88]},{"bufferView":5,"componentType":5126,"count":90,"type":"VEC3"},{"bufferView":6,"componentType":5125,"count":144,"type":"SCALAR"},{"bufferView":7,"componentType":5126,"count":24,"type":"VEC3","min":[-0.1,1.2400000000000002,-29.76],"max":[0.1,10.78,-17.92]},{"bufferView":8,"componentType":5126,"count":24,"type":"VEC3"},{"bufferView":9,"componentType":5125,"count":36,"type":"SCALAR"},{"bufferView":10,"componentType":5126,"count":16176,"type":"VEC3","min":[-13.2268,-5.2018,-14.850000000000001],"max":[13.2268,2.553298761498552,28.352]},{"bufferView":11,"componentType":5126,"count":16176,"type":"VEC3"},{"bufferView":12,"componentType":5126,"count":16,"type":"VEC3","min":[-3.14,-1.302,-28.672],"max":[3.14,8.783199999999999,14.795]},{"bufferView":13,"componentType":5126,"count":16,"type":"VEC3"},{"bufferView":14,"componentType":5126,"count":16,"type":"VEC2"},{"bufferView":15,"componentType":5125,"count":24,"type":"SCALAR"},{"bufferView":16,"componentType":5126,"count":4230,"type":"VEC3","min":[-13.599172,-5.574172000000001,-15.155000000000001],"max":[13.599172,2.5619590155363965,28.352]},{"bufferView":17,"componentType":5126,"count":4230,"type":"VEC3"},{"bufferView":18,"componentType":5125,"count":12480,"type":"SCALAR"},{"bufferView":19,"componentType":5126,"count":1698,"type":"VEC3","min":[-13.636,-5.611000000000001,-12.16],"max":[13.636,-1.5189999999999997,19.2]},{"bufferView":20,"componentType":5126,"count":1698,"type":"VEC3"},{"bufferView":21,"componentType":5125,"count":9228,"type":"SCALAR"},{"bufferView":22,"componentType":5126,"count":1792,"type":"VEC3","min":[-0.41000000000000003,-0.4,-0.4],"max":[0.41000000000000003,0.4,0.4]},{"bufferView":23,"componentType":5126,"count":1792,"type":"VEC3"},{"bufferView":24,"componentType":5125,"count":2688,"type":"SCALAR"},{"bufferView":25,"componentType":5126,"count":1792,"type":"VEC3","min":[-0.41000000000000003,-0.52,-0.52],"max":[0.41000000000000003,0.52,0.52]},{"bufferView":26,"componentType":5126,"count":1792,"type":"VEC3"},{"bufferView":27,"componentType":5125,"count":2688,"type":"SCALAR"},{"bufferView":28,"componentType":5126,"count":1792,"type":"VEC3","min":[-0.41000000000000003,-0.52,-0.52],"max":[0.41000000000000003,0.52,0.52]},{"bufferView":29,"componentType":5126,"count":1792,"type":"VEC3"},{"bufferView":30,"componentType":5125,"count":2688,"type":"SCALAR"},{"bufferView":31,"componentType":5126,"count":1792,"type":"VEC3","min":[-0.41000000000000003,-0.52,-0.52],"max":[0.41000000000000003,0.52,0.52]},{"bufferView":32,"componentType":5126,"count":1792,"type":"VEC3"},{"bufferView":33,"componentType":5125,"count":2688,"type":"SCALAR"},{"bufferView":34,"componentType":5126,"count":1792,"type":"VEC3","min":[-0.41000000000000003,-0.52,-0.52],"max":[0.41000000000000003,0.52,0.52]},{"bufferView":35,"componentType":5126,"count":1792,"type":"VEC3"},{"bufferView":36,"componentType":5125,"count":2688,"type":"SCALAR"},{"bufferView":37,"componentType":5126,"count":1792,"type":"VEC3","min":[-0.41000000000000003,-0.52,-0.52],"max":[0.41000000000000003,0.52,0.52]},{"bufferView":38,"componentType":5126,"count":1792,"type":"VEC3"},{"bufferView":39,"componentType":5125,"count":2688,"type":"SCALAR"},{"bufferView":40,"componentType":5126,"count":1792,"type":"VEC3","min":[-0.41000000000000003,-0.52,-0.52],"max":[0.41000000000000003,0.52,0.52]},{"bufferView":41,"componentType":5126,"count":1792,"type":"VEC3"},{"bufferView":42,"componentType":5125,"count":2688,"type":"SCALAR"},{"bufferView":43,"componentType":5126,"count":3263,"type":"VEC3","min":[-30.5,-2.1115758487274654,-18.54886956521739],"max":[-2.325,1.026676129908164,6.4]},{"bufferView":44,"componentType":5126,"count":3263,"type":"VEC3"},{"bufferView":45,"componentType":5125,"count":14736,"type":"SCALAR"},{"bufferView":46,"componentType":5126,"count":36,"type":"VEC3","min":[-30.5,-0.9013593746976569,-16.750400000000003],"max":[-2.325,1.0031196850841422,-5.3504000000000005]},{"bufferView":47,"componentType":5126,"count":36,"type":"VEC3"},{"bufferView":48,"componentType":5125,"count":72,"type":"SCALAR"},{"bufferView":49,"componentType":5126,"count":3263,"type":"VEC3","min":[2.325,-2.1115758487274654,-18.54886956521739],"max":[30.5,1.026676129908164,6.4]},{"bufferView":50,"componentType":5126,"count":3263,"type":"VEC3"},{"bufferView":51,"componentType":5125,"count":14736,"type":"SCALAR"},{"bufferView":52,"componentType":5126,"count":36,"type":"VEC3","min":[2.325,-0.9013593746976569,-16.750400000000003],"max":[30.5,1.0031196850841422,-5.3504000000000005]},{"bufferView":53,"componentType":5126,"count":36,"type":"VEC3"},{"bufferView":54,"componentType":5125,"count":72,"type":"SCALAR"},{"bufferView":55,"componentType":5126,"count":753,"type":"VEC3","min":[-13.165404753596217,-5.140404753596218,1.92524],"max":[-10.014595246403783,-1.989595246403782,3.52]},{"bufferView":56,"componentType":5126,"count":753,"type":"VEC3"},{"bufferView":57,"componentType":5125,"count":3240,"type":"SCALAR"},{"bufferView":58,"componentType":5126,"count":753,"type":"VEC3","min":[10.014595246403783,-5.140404753596218,1.92524],"max":[13.165404753596217,-1.989595246403782,3.52]},{"bufferView":59,"componentType":5126,"count":753,"type":"VEC3"},{"bufferView":60,"componentType":5125,"count":3240,"type":"SCALAR"},{"bufferView":61,"componentType":5126,"count":72,"type":"VEC3","min":[-4.03,-4.125,-8.1],"max":[2.9300000000000006,-2.3000000000000003,19.209999999999997]},{"bufferView":62,"componentType":5126,"count":72,"type":"VEC3"},{"bufferView":63,"componentType":5126,"count":72,"type":"VEC2"},{"bufferView":64,"componentType":5125,"count":108,"type":"SCALAR"},{"bufferView":65,"componentType":5126,"count":448,"type":"VEC3","min":[-3.5300000000000007,-4.3,-7.57],"max":[3.5300000000000007,-3.7,18.68]},{"bufferView":66,"componentType":5126,"count":448,"type":"VEC3"},{"bufferView":67,"componentType":5125,"count":672,"type":"SCALAR"},{"bufferView":68,"componentType":5126,"count":1344,"type":"VEC3","min":[-3.8300000000000005,-4.79,-7.54],"max":[3.8300000000000005,-2.17,19.013478384723967]},{"bufferView":69,"componentType":5126,"count":1344,"type":"VEC3"},{"bufferView":70,"componentType":5125,"count":2016,"type":"SCALAR"},{"bufferView":71,"componentType":5126,"count":72,"type":"VEC3","min":[-27.45,-1.841566650089356,-12.982689121972912],"max":[-2.325,0.7906957891629345,6.4]},{"bufferView":72,"componentType":5126,"count":72,"type":"VEC3"},{"bufferView":73,"componentType":5125,"count":72,"type":"SCALAR"},{"bufferView":74,"componentType":5126,"count":144,"type":"VEC3","min":[-27.45,-1.573820857962804,-17.6],"max":[-2.325,0.7825091792479272,-8.34940258945177]},{"bufferView":75,"componentType":5126,"count":144,"type":"VEC3"},{"bufferView":76,"componentType":5125,"count":144,"type":"SCALAR"},{"bufferView":77,"componentType":5126,"count":24,"type":"VEC3","min":[-27.45,-0.7399075390124286,-16.400000000000002],"max":[-2.325,0.8777993862967435,-4.476196549685779]},{"bufferView":78,"componentType":5126,"count":24,"type":"VEC3"},{"bufferView":79,"componentType":5125,"count":24,"type":"SCALAR"},{"bufferView":80,"componentType":5126,"count":24,"type":"VEC3","min":[-10.98,1.1800000000000002,-31.36],"max":[-1.2400000000000002,1.9000000000000004,-26.56]},{"bufferView":81,"componentType":5126,"count":24,"type":"VEC3"},{"bufferView":82,"componentType":5125,"count":36,"type":"SCALAR"},{"bufferView":83,"componentType":5126,"count":72,"type":"VEC3","min":[2.325,-1.841566650089356,-12.982689121972912],"max":[27.45,0.7906957891629345,6.4]},{"bufferView":84,"componentType":5126,"count":72,"type":"VEC3"},{"bufferView":85,"componentType":5125,"count":72,"type":"SCALAR"},{"bufferView":86,"componentType":5126,"count":144,"type":"VEC3","min":[2.325,-1.573820857962804,-17.6],"max":[27.45,0.7825091792479272,-8.34940258945177]},{"bufferView":87,"componentType":5126,"count":144,"type":"VEC3"},{"bufferView":88,"componentType":5125,"count":144,"type":"SCALAR"},{"bufferView":89,"componentType":5126,"count":24,"type":"VEC3","min":[2.325,-0.7399075390124286,-16.400000000000002],"max":[27.45,0.8777993862967435,-4.476196549685779]},{"bufferView":90,"componentType":5126,"count":24,"type":"VEC3"},{"bufferView":91,"componentType":5125,"count":24,"type":"SCALAR"},{"bufferView":92,"componentType":5126,"count":24,"type":"VEC3","min":[1.2400000000000002,1.1800000000000002,-31.36],"max":[10.98,1.9000000000000004,-26.56]},{"bufferView":93,"componentType":5126,"count":24,"type":"VEC3"},{"bufferView":94,"componentType":5125,"count":36,"type":"SCALAR"},{"bufferView":95,"componentType":5126,"count":14,"type":"VEC3","min":[0,1.1600000000000001,-31.68],"max":[0,10.86,-28.672]},{"bufferView":96,"componentType":5126,"count":14,"type":"VEC3"},{"bufferView":97,"componentType":5125,"count":36,"type":"SCALAR"},{"bufferView":98,"componentType":5126,"count":132,"type":"VEC3","min":[-0.41100000000000003,-0.22000000000000003,-0.22000000000000003],"max":[0.41100000000000003,0.22000000000000003,0.22000000000000003]},{"bufferView":99,"componentType":5126,"count":132,"type":"VEC3"},{"bufferView":100,"componentType":5125,"count":384,"type":"SCALAR"},{"bufferView":101,"componentType":5126,"count":132,"type":"VEC3","min":[-0.41100000000000003,-0.28600000000000003,-0.28600000000000003],"max":[0.41100000000000003,0.28600000000000003,0.28600000000000003]},{"bufferView":102,"componentType":5126,"count":132,"type":"VEC3"},{"bufferView":103,"componentType":5125,"count":384,"type":"SCALAR"},{"bufferView":104,"componentType":5126,"count":132,"type":"VEC3","min":[-0.41100000000000003,-0.28600000000000003,-0.28600000000000003],"max":[0.41100000000000003,0.28600000000000003,0.28600000000000003]},{"bufferView":105,"componentType":5126,"count":132,"type":"VEC3"},{"bufferView":106,"componentType":5125,"count":384,"type":"SCALAR"},{"bufferView":107,"componentType":5126,"count":132,"type":"VEC3","min":[-0.41100000000000003,-0.28600000000000003,-0.28600000000000003],"max":[0.41100000000000003,0.28600000000000003,0.28600000000000003]},{"bufferView":108,"componentType":5126,"count":132,"type":"VEC3"},{"bufferView":109,"componentType":5125,"count":384,"type":"SCALAR"},{"bufferView":110,"componentType":5126,"count":132,"type":"VEC3","min":[-0.41100000000000003,-0.28600000000000003,-0.28600000000000003],"max":[0.41100000000000003,0.28600000000000003,0.28600000000000003]},{"bufferView":111,"componentType":5126,"count":132,"type":"VEC3"},{"bufferView":112,"componentType":5125,"count":384,"type":"SCALAR"},{"bufferView":113,"componentType":5126,"count":132,"type":"VEC3","min":[-0.41100000000000003,-0.28600000000000003,-0.28600000000000003],"max":[0.41100000000000003,0.28600000000000003,0.28600000000000003]},{"bufferView":114,"componentType":5126,"count":132,"type":"VEC3"},{"bufferView":115,"componentType":5125,"count":384,"type":"SCALAR"},{"bufferView":116,"componentType":5126,"count":132,"type":"VEC3","min":[-0.41100000000000003,-0.28600000000000003,-0.28600000000000003],"max":[0.41100000000000003,0.28600000000000003,0.28600000000000003]},{"bufferView":117,"componentType":5126,"count":132,"type":"VEC3"},{"bufferView":118,"componentType":5125,"count":384,"type":"SCALAR"},{"bufferView":119,"componentType":5126,"count":576,"type":"VEC3","min":[-2.9201521398432693,1.1159999999999999,-7.68],"max":[2.9201521398432693,1.891,16.0]},{"bufferView":120,"componentType":5126,"count":576,"type":"VEC3"},{"bufferView":121,"componentType":5126,"count":576,"type":"VEC2"}],"images":[{"uri":"../../airlines/QTR.png"},{"uri":"fallback-paint-v5.png"},{"uri":"title-QTR.png"}],"textures":[{"source":0,"sampler":0},{"source":1,"sampler":0},{"source":2,"sampler":0}],"samplers":[{"magFilter":9729,"minFilter":9987,"wrapS":33071,"wrapT":33071}]}