{"asset":{"version":"2.0","generator":"Skyward original illustrative profile; airline-inspired paint, no official logos"},"scene":0,"scenes":[{"nodes":[0,1]}],"nodes":[{"mesh":0},{"mesh":1,"name":"Gear"}],"meshes":[{"primitives":[{"attributes":{"POSITION":0,"NORMAL":1},"material":0},{"attributes":{"POSITION":2,"NORMAL":3},"material":1},{"attributes":{"POSITION":4,"NORMAL":5},"material":2},{"attributes":{"POSITION":6,"NORMAL":7},"material":3}]},{"primitives":[{"attributes":{"POSITION":8,"NORMAL":9},"material":4}]}],"materials":[{"doubleSided":true,"pbrMetallicRoughness":{"baseColorFactor":[0.91,0.94,0.96,1],"metallicFactor":0.15,"roughnessFactor":0.45}},{"doubleSided":true,"pbrMetallicRoughness":{"baseColorFactor":[0.52,0.6,0.66,1],"metallicFactor":0.15,"roughnessFactor":0.45}},{"doubleSided":true,"pbrMetallicRoughness":{"baseColorFactor":[0.2235294117647059,0.49019607843137253,0.6862745098039216,1],"metallicFactor":0.15,"roughnessFactor":0.45}},{"doubleSided":true,"pbrMetallicRoughness":{"baseColorFactor":[0.025,0.06,0.09,1],"metallicFactor":0.15,"roughnessFactor":0.45}},{"doubleSided":true,"pbrMetallicRoughness":{"baseColorFactor":[0.08,0.1,0.12,1],"metallicFactor":0.15,"roughnessFactor":0.45}}],"buffers":[{"uri":"b777.bin","byteLength":38232}],"bufferViews":[{"buffer":0,"byteOffset":0,"byteLength":10080,"target":34962},{"buffer":0,"byteOffset":10080,"byteLength":10080,"target":34962},{"buffer":0,"byteOffset":20160,"byteLength":288,"target":34962},{"buffer":0,"byteOffset":20448,"byteLength":288,"target":34962},{"buffer":0,"byteOffset":20736,"byteLength":108,"target":34962},{"buffer":0,"byteOffset":20844,"byteLength":108,"target":34962},{"buffer":0,"byteOffset":20952,"byteLength":6048,"target":34962},{"buffer":0,"byteOffset":27000,"byteLength":6048,"target":34962},{"buffer":0,"byteOffset":33048,"byteLength":2592,"target":34962},{"buffer":0,"byteOffset":35640,"byteLength":2592,"target":34962}],"accessors":[{"bufferView":0,"componentType":5126,"count":840,"type":"VEC3","min":[-14.055,-5.115000000000001,-37.0],"max":[14.055,3.1,37.0]},{"bufferView":1,"componentType":5126,"count":840,"type":"VEC3"},{"bufferView":2,"componentType":5126,"count":24,"type":"VEC3","min":[-32.5,-1.55,-36.26],"max":[32.5,1.085,5.92]},{"bufferView":3,"componentType":5126,"count":24,"type":"VEC3"},{"bufferView":4,"componentType":5126,"count":9,"type":"VEC3","min":[-32.5,0,-36.26],"max":[32.5,13.46,-11.84]},{"bufferView":5,"componentType":5126,"count":9,"type":"VEC3"},{"bufferView":6,"componentType":5126,"count":504,"type":"VEC3","min":[-13.8504,-4.910400000000001,-19],"max":[13.8504,1.8599999999999999,31.08]},{"bufferView":7,"componentType":5126,"count":504,"type":"VEC3"},{"bufferView":8,"componentType":5126,"count":216,"type":"VEC3","min":[-2.8800000000000003,-5.699999999999999,-8.0],"max":[2.8800000000000003,-2.9999999999999996,22.06]},{"bufferView":9,"componentType":5126,"count":216,"type":"VEC3"}]}