{"asset":{"version":"2.0","generator":"Skyward original illustrative b787 profile; logos for operator identification"},"scene":0,"scenes":[{"nodes":[0,1]}],"nodes":[{"mesh":0},{"mesh":1,"name":"Gear","children":[2,3,4]},{"mesh":2,"name":"WheelN","translation":[0,-4.5,18.27]},{"mesh":3,"name":"WheelL","translation":[-2.32,-4.5,-6.300000000000001]},{"mesh":4,"name":"WheelR","translation":[2.32,-4.5,-6.300000000000001]}],"meshes":[{"primitives":[{"attributes":{"POSITION":0,"NORMAL":1},"material":0},{"attributes":{"POSITION":2,"NORMAL":3},"material":1},{"attributes":{"POSITION":4,"NORMAL":5},"material":2},{"attributes":{"POSITION":6,"NORMAL":7},"material":3},{"attributes":{"POSITION":10,"NORMAL":11,"TEXCOORD_0":12},"material":5},{"attributes":{"POSITION":13,"NORMAL":14},"material":6},{"attributes":{"POSITION":15,"NORMAL":16},"material":7}]},{"primitives":[{"attributes":{"POSITION":8,"NORMAL":9},"material":4}]},{"primitives":[{"attributes":{"POSITION":17,"NORMAL":18},"material":4,"extras":{"wheel":0}}]},{"primitives":[{"attributes":{"POSITION":19,"NORMAL":20},"material":4,"extras":{"wheel":1}}]},{"primitives":[{"attributes":{"POSITION":21,"NORMAL":22},"material":4,"extras":{"wheel":2}}]}],"materials":[{"doubleSided":true,"pbrMetallicRoughness":{"baseColorFactor":[0.94,0.95,0.96,1],"metallicFactor":0.18,"roughnessFactor":0.3}},{"doubleSided":true,"pbrMetallicRoughness":{"baseColorFactor":[0.64,0.68,0.72,1],"metallicFactor":0.18,"roughnessFactor":0.3}},{"doubleSided":true,"pbrMetallicRoughness":{"baseColorFactor":[0.1450980392156863,0.5450980392156862,0.3137254901960784,1],"metallicFactor":0.18,"roughnessFactor":0.3}},{"doubleSided":true,"pbrMetallicRoughness":{"baseColorFactor":[0.02,0.055,0.085,1],"metallicFactor":0.18,"roughnessFactor":0.17}},{"doubleSided":true,"pbrMetallicRoughness":{"baseColorFactor":[0.07,0.08,0.09,1],"metallicFactor":0.18,"roughnessFactor":0.3}},{"doubleSided":true,"pbrMetallicRoughness":{"baseColorFactor":[1,1,1,1],"metallicFactor":0,"roughnessFactor":0.75,"baseColorTexture":{"index":0}},"alphaMode":"MASK","alphaCutoff":0.08},{"doubleSided":true,"pbrMetallicRoughness":{"baseColorFactor":[0.36,0.4,0.44,1],"metallicFactor":0.7,"roughnessFactor":0.3}},{"doubleSided":true,"pbrMetallicRoughness":{"baseColorFactor":[0.1450980392156863,0.5450980392156862,0.3137254901960784,1],"metallicFactor":0.18,"roughnessFactor":0.3}}],"buffers":[{"uri":"b787-v4.bin?tail=2","byteLength":257376}],"bufferViews":[{"buffer":0,"byteOffset":0,"byteLength":34560,"target":34962},{"buffer":0,"byteOffset":34560,"byteLength":34560,"target":34962},{"buffer":0,"byteOffset":69120,"byteLength":2880,"target":34962},{"buffer":0,"byteOffset":72000,"byteLength":2880,"target":34962},{"buffer":0,"byteOffset":74880,"byteLength":432,"target":34962},{"buffer":0,"byteOffset":75312,"byteLength":432,"target":34962},{"buffer":0,"byteOffset":75744,"byteLength":39168,"target":34962},{"buffer":0,"byteOffset":114912,"byteLength":39168,"target":34962},{"buffer":0,"byteOffset":154080,"byteLength":1296,"target":34962},{"buffer":0,"byteOffset":155376,"byteLength":1296,"target":34962},{"buffer":0,"byteOffset":156672,"byteLength":288,"target":34962},{"buffer":0,"byteOffset":156960,"byteLength":288,"target":34962},{"buffer":0,"byteOffset":157248,"byteLength":192,"target":34962},{"buffer":0,"byteOffset":157440,"byteLength":15264,"target":34962},{"buffer":0,"byteOffset":172704,"byteLength":15264,"target":34962},{"buffer":0,"byteOffset":187968,"byteLength":20880,"target":34962},{"buffer":0,"byteOffset":208848,"byteLength":20880,"target":34962},{"buffer":0,"byteOffset":229728,"byteLength":4608,"target":34962},{"buffer":0,"byteOffset":234336,"byteLength":4608,"target":34962},{"buffer":0,"byteOffset":238944,"byteLength":4608,"target":34962},{"buffer":0,"byteOffset":243552,"byteLength":4608,"target":34962},{"buffer":0,"byteOffset":248160,"byteLength":4608,"target":34962},{"buffer":0,"byteOffset":252768,"byteLength":4608,"target":34962}],"accessors":[{"bufferView":0,"componentType":5126,"count":2880,"type":"VEC3","min":[-2.9,-2.9,-31.5],"max":[2.9,2.9,31.5]},{"bufferView":1,"componentType":5126,"count":2880,"type":"VEC3"},{"bufferView":2,"componentType":5126,"count":240,"type":"VEC3","min":[-30.0,-3.4749999999999996,-30.87],"max":[30.0,1.8399999999999999,6.300000000000001]},{"bufferView":3,"componentType":5126,"count":240,"type":"VEC3"},{"bufferView":4,"componentType":5126,"count":36,"type":"VEC3","min":[-0.1,1.16,-31.185],"max":[0.1,12.035,-17.64]},{"bufferView":5,"componentType":5126,"count":36,"type":"VEC3"},{"bufferView":6,"componentType":5126,"count":3264,"type":"VEC3","min":[-12.9312,-4.866199999999999,-14.620000000000001],"max":[12.9312,1.943,26.145]},{"bufferView":7,"componentType":5126,"count":3264,"type":"VEC3"},{"bufferView":8,"componentType":5126,"count":108,"type":"VEC3","min":[-2.42,-4.5,-6.4],"max":[2.42,-2.9000000000000004,18.37]},{"bufferView":9,"componentType":5126,"count":108,"type":"VEC3"},{"bufferView":10,"componentType":5126,"count":24,"type":"VEC3","min":[-2.94,-1.218,-28.224],"max":[2.94,9.893,14.435]},{"bufferView":11,"componentType":5126,"count":24,"type":"VEC3"},{"bufferView":12,"componentType":5126,"count":24,"type":"VEC2"},{"bufferView":13,"componentType":5126,"count":1272,"type":"VEC3","min":[-13.199160000000001,-5.13416,-14.49],"max":[13.199160000000001,1.74,17.69]},{"bufferView":14,"componentType":5126,"count":1272,"type":"VEC3"},{"bufferView":15,"componentType":5126,"count":1740,"type":"VEC3","min":[-13.314,-5.249,-11.97],"max":[13.314,-1.4209999999999996,18.9]},{"bufferView":16,"componentType":5126,"count":1740,"type":"VEC3"},{"bufferView":17,"componentType":5126,"count":384,"type":"VEC3","min":[-0.25,-0.4,-0.4],"max":[0.25,0.4,0.4]},{"bufferView":18,"componentType":5126,"count":384,"type":"VEC3"},{"bufferView":19,"componentType":5126,"count":384,"type":"VEC3","min":[-0.25,-0.4,-0.4],"max":[0.25,0.4,0.4]},{"bufferView":20,"componentType":5126,"count":384,"type":"VEC3"},{"bufferView":21,"componentType":5126,"count":384,"type":"VEC3","min":[-0.25,-0.4,-0.4],"max":[0.25,0.4,0.4]},{"bufferView":22,"componentType":5126,"count":384,"type":"VEC3"}],"images":[{"uri":"../../airlines/ETH.png"}],"textures":[{"source":0,"sampler":0}],"samplers":[{"magFilter":9729,"minFilter":9987,"wrapS":33071,"wrapT":33071}]}