{"asset":{"version":"2.0","generator":"Skyward detailed procedural b787 fallback v6; approximate airframe; operator identification logos"},"scene":0,"scenes":[{"nodes":[0,1,7,8,9,10,11,12,13,14,15,16,17,18,19]}],"nodes":[{"mesh":0},{"mesh":1,"name":"Gear","children":[2,3,4,5,6]},{"mesh":2,"name":"WheelN","translation":[0,-4.5,18.27]},{"mesh":3,"name":"WheelL","translation":[-3.19,-4.5,-6.825000000000001]},{"mesh":4,"name":"WheelR","translation":[3.19,-4.5,-6.825000000000001]},{"mesh":5,"name":"WheelL2","translation":[-3.19,-4.5,-5.775]},{"mesh":6,"name":"WheelR2","translation":[3.19,-4.5,-5.775]},{"mesh":7,"name":"SlatL"},{"mesh":8,"name":"FlapL"},{"mesh":9,"name":"SpoilerL"},{"mesh":10,"name":"ElevatorL"},{"mesh":11,"name":"SlatR"},{"mesh":12,"name":"FlapR"},{"mesh":13,"name":"SpoilerR"},{"mesh":14,"name":"ElevatorR"},{"mesh":15,"name":"Rudder"},{"mesh":16,"name":"FlexWingL"},{"mesh":17,"name":"FlexWingR"},{"mesh":18,"name":"SkywardFan0"},{"mesh":19,"name":"SkywardFan1"}],"meshes":[{"name":"AirframeWithCockpitGlazing","primitives":[{"indices":3,"attributes":{"POSITION":0,"NORMAL":1,"TEXCOORD_0":2},"material":0},{"indices":6,"attributes":{"POSITION":4,"NORMAL":5},"material":1},{"indices":9,"attributes":{"POSITION":7,"NORMAL":8},"material":2},{"attributes":{"POSITION":10,"NORMAL":11},"material":3},{"indices":15,"attributes":{"POSITION":12,"NORMAL":13,"TEXCOORD_0":14},"material":5},{"indices":18,"attributes":{"POSITION":16,"NORMAL":17},"material":6},{"indices":21,"attributes":{"POSITION":19,"NORMAL":20},"material":7},{"attributes":{"POSITION":107,"NORMAL":108,"TEXCOORD_0":109},"material":8}]},{"primitives":[{"indices":58,"attributes":{"POSITION":55,"NORMAL":56,"TEXCOORD_0":57},"material":0,"extras":{"gear":true}},{"indices":61,"attributes":{"POSITION":59,"NORMAL":60},"material":1,"extras":{"gear":true}},{"indices":64,"attributes":{"POSITION":62,"NORMAL":63},"material":6,"extras":{"gear":true}}]},{"primitives":[{"indices":24,"attributes":{"POSITION":22,"NORMAL":23},"material":4,"extras":{"wheel":0}},{"indices":94,"attributes":{"POSITION":92,"NORMAL":93},"material":6,"extras":{"wheel":0}}]},{"primitives":[{"indices":27,"attributes":{"POSITION":25,"NORMAL":26},"material":4,"extras":{"wheel":1}},{"indices":97,"attributes":{"POSITION":95,"NORMAL":96},"material":6,"extras":{"wheel":1}}]},{"primitives":[{"indices":30,"attributes":{"POSITION":28,"NORMAL":29},"material":4,"extras":{"wheel":2}},{"indices":100,"attributes":{"POSITION":98,"NORMAL":99},"material":6,"extras":{"wheel":2}}]},{"primitives":[{"indices":33,"attributes":{"POSITION":31,"NORMAL":32},"material":4,"extras":{"wheel":3}},{"indices":103,"attributes":{"POSITION":101,"NORMAL":102},"material":6,"extras":{"wheel":3}}]},{"primitives":[{"indices":36,"attributes":{"POSITION":34,"NORMAL":35},"material":4,"extras":{"wheel":4}},{"indices":106,"attributes":{"POSITION":104,"NORMAL":105},"material":6,"extras":{"wheel":4}}]},{"primitives":[{"indices":67,"attributes":{"POSITION":65,"NORMAL":66},"material":1,"extras":{"surface":0}}]},{"primitives":[{"indices":70,"attributes":{"POSITION":68,"NORMAL":69},"material":1,"extras":{"surface":1}}]},{"primitives":[{"indices":73,"attributes":{"POSITION":71,"NORMAL":72},"material":1,"extras":{"surface":2}}]},{"primitives":[{"indices":76,"attributes":{"POSITION":74,"NORMAL":75},"material":1,"extras":{"surface":3}}]},{"primitives":[{"indices":79,"attributes":{"POSITION":77,"NORMAL":78},"material":1,"extras":{"surface":4}}]},{"primitives":[{"indices":82,"attributes":{"POSITION":80,"NORMAL":81},"material":1,"extras":{"surface":5}}]},{"primitives":[{"indices":85,"attributes":{"POSITION":83,"NORMAL":84},"material":1,"extras":{"surface":6}}]},{"primitives":[{"indices":88,"attributes":{"POSITION":86,"NORMAL":87},"material":1,"extras":{"surface":7}}]},{"primitives":[{"indices":91,"attributes":{"POSITION":89,"NORMAL":90},"material":2,"extras":{"surface":8}}]},{"primitives":[{"indices":39,"attributes":{"POSITION":37,"NORMAL":38},"material":1,"extras":{"wing":0}},{"indices":42,"attributes":{"POSITION":40,"NORMAL":41},"material":6,"extras":{"wing":0}}]},{"primitives":[{"indices":45,"attributes":{"POSITION":43,"NORMAL":44},"material":1,"extras":{"wing":1}},{"indices":48,"attributes":{"POSITION":46,"NORMAL":47},"material":6,"extras":{"wing":1}}]},{"primitives":[{"indices":51,"attributes":{"POSITION":49,"NORMAL":50},"material":6,"extras":{"fan":0}}]},{"primitives":[{"indices":54,"attributes":{"POSITION":52,"NORMAL":53},"material":6,"extras":{"fan":1}}]}],"materials":[{"doubleSided":true,"pbrMetallicRoughness":{"baseColorFactor":[0.94,0.95,0.96,1],"metallicFactor":0.04,"roughnessFactor":0.27,"baseColorTexture":{"index":1}}},{"doubleSided":true,"pbrMetallicRoughness":{"baseColorFactor":[0.64,0.68,0.72,1],"metallicFactor":0.04,"roughnessFactor":0.4}},{"doubleSided":true,"pbrMetallicRoughness":{"baseColorFactor":[0.14901960784313725,0.24705882352941178,0.5058823529411764,1],"metallicFactor":0.04,"roughnessFactor":0.27}},{"doubleSided":true,"pbrMetallicRoughness":{"baseColorFactor":[0.02,0.055,0.085,1],"metallicFactor":0,"roughnessFactor":0.12}},{"doubleSided":true,"pbrMetallicRoughness":{"baseColorFactor":[0.07,0.08,0.09,1],"metallicFactor":0,"roughnessFactor":0.86}},{"doubleSided":true,"pbrMetallicRoughness":{"baseColorFactor":[1,1,1,1],"metallicFactor":0,"roughnessFactor":0.75,"baseColorTexture":{"index":0}},"alphaMode":"MASK","alphaCutoff":0.08},{"doubleSided":true,"pbrMetallicRoughness":{"baseColorFactor":[0.36,0.4,0.44,1],"metallicFactor":0.8,"roughnessFactor":0.28}},{"doubleSided":true,"pbrMetallicRoughness":{"baseColorFactor":[0.14901960784313725,0.24705882352941178,0.5058823529411764,1],"metallicFactor":0.04,"roughnessFactor":0.27}},{"name":"Operator title","doubleSided":true,"alphaMode":"MASK","alphaCutoff":0.15,"pbrMetallicRoughness":{"baseColorTexture":{"index":2},"baseColorFactor":[0.14901960784313725,0.24705882352941178,0.5058823529411764,1],"roughnessFactor":0.6,"metallicFactor":0}}],"buffers":[{"uri":"b787-v4.bin?tail=2&rig=1&detail=6","byteLength":1454368},{"uri":"b787-title.bin?detail=6","byteLength":18432}],"bufferViews":[{"buffer":0,"byteOffset":0,"byteLength":31980,"target":34962},{"buffer":0,"byteOffset":31980,"byteLength":31980,"target":34962},{"buffer":0,"byteOffset":63960,"byteLength":21320,"target":34962},{"buffer":0,"byteOffset":85280,"byteLength":61440,"target":34963},{"buffer":0,"byteOffset":146720,"byteLength":1080,"target":34962},{"buffer":0,"byteOffset":147800,"byteLength":1080,"target":34962},{"buffer":0,"byteOffset":148880,"byteLength":576,"target":34963},{"buffer":0,"byteOffset":149456,"byteLength":288,"target":34962},{"buffer":0,"byteOffset":149744,"byteLength":288,"target":34962},{"buffer":0,"byteOffset":150032,"byteLength":144,"target":34963},{"buffer":0,"byteOffset":150176,"byteLength":193392,"target":34962},{"buffer":0,"byteOffset":343568,"byteLength":193392,"target":34962},{"buffer":0,"byteOffset":536960,"byteLength":192,"target":34962},{"buffer":0,"byteOffset":537152,"byteLength":192,"target":34962},{"buffer":0,"byteOffset":537344,"byteLength":128,"target":34962},{"buffer":0,"byteOffset":537472,"byteLength":96,"target":34963},{"buffer":0,"byteOffset":537568,"byteLength":50760,"target":34962},{"buffer":0,"byteOffset":588328,"byteLength":50760,"target":34962},{"buffer":0,"byteOffset":639088,"byteLength":49920,"target":34963},{"buffer":0,"byteOffset":689008,"byteLength":20376,"target":34962},{"buffer":0,"byteOffset":709384,"byteLength":20376,"target":34962},{"buffer":0,"byteOffset":729760,"byteLength":36912,"target":34963},{"buffer":0,"byteOffset":766672,"byteLength":21504,"target":34962},{"buffer":0,"byteOffset":788176,"byteLength":21504,"target":34962},{"buffer":0,"byteOffset":809680,"byteLength":10752,"target":34963},{"buffer":0,"byteOffset":820432,"byteLength":21504,"target":34962},{"buffer":0,"byteOffset":841936,"byteLength":21504,"target":34962},{"buffer":0,"byteOffset":863440,"byteLength":10752,"target":34963},{"buffer":0,"byteOffset":874192,"byteLength":21504,"target":34962},{"buffer":0,"byteOffset":895696,"byteLength":21504,"target":34962},{"buffer":0,"byteOffset":917200,"byteLength":10752,"target":34963},{"buffer":0,"byteOffset":927952,"byteLength":21504,"target":34962},{"buffer":0,"byteOffset":949456,"byteLength":21504,"target":34962},{"buffer":0,"byteOffset":970960,"byteLength":10752,"target":34963},{"buffer":0,"byteOffset":981712,"byteLength":21504,"target":34962},{"buffer":0,"byteOffset":1003216,"byteLength":21504,"target":34962},{"buffer":0,"byteOffset":1024720,"byteLength":10752,"target":34963},{"buffer":0,"byteOffset":1035472,"byteLength":39156,"target":34962},{"buffer":0,"byteOffset":1074628,"byteLength":39156,"target":34962},{"buffer":0,"byteOffset":1113784,"byteLength":58944,"target":34963},{"buffer":0,"byteOffset":1172728,"byteLength":432,"target":34962},{"buffer":0,"byteOffset":1173160,"byteLength":432,"target":34962},{"buffer":0,"byteOffset":1173592,"byteLength":288,"target":34963},{"buffer":0,"byteOffset":1173880,"byteLength":39156,"target":34962},{"buffer":0,"byteOffset":1213036,"byteLength":39156,"target":34962},{"buffer":0,"byteOffset":1252192,"byteLength":58944,"target":34963},{"buffer":0,"byteOffset":1311136,"byteLength":432,"target":34962},{"buffer":0,"byteOffset":1311568,"byteLength":432,"target":34962},{"buffer":0,"byteOffset":1312000,"byteLength":288,"target":34963},{"buffer":0,"byteOffset":1312288,"byteLength":9036,"target":34962},{"buffer":0,"byteOffset":1321324,"byteLength":9036,"target":34962},{"buffer":0,"byteOffset":1330360,"byteLength":12960,"target":34963},{"buffer":0,"byteOffset":1343320,"byteLength":9036,"target":34962},{"buffer":0,"byteOffset":1352356,"byteLength":9036,"target":34962},{"buffer":0,"byteOffset":1361392,"byteLength":12960,"target":34963},{"buffer":0,"byteOffset":1374352,"byteLength":864,"target":34962},{"buffer":0,"byteOffset":1375216,"byteLength":864,"target":34962},{"buffer":0,"byteOffset":1376080,"byteLength":576,"target":34962},{"buffer":0,"byteOffset":1376656,"byteLength":432,"target":34963},{"buffer":0,"byteOffset":1377088,"byteLength":3840,"target":34962},{"buffer":0,"byteOffset":1380928,"byteLength":3840,"target":34962},{"buffer":0,"byteOffset":1384768,"byteLength":1920,"target":34963},{"buffer":0,"byteOffset":1386688,"byteLength":11520,"target":34962},{"buffer":0,"byteOffset":1398208,"byteLength":11520,"target":34962},{"buffer":0,"byteOffset":1409728,"byteLength":5760,"target":34963},{"buffer":0,"byteOffset":1415488,"byteLength":864,"target":34962},{"buffer":0,"byteOffset":1416352,"byteLength":864,"target":34962},{"buffer":0,"byteOffset":1417216,"byteLength":288,"target":34963},{"buffer":0,"byteOffset":1417504,"byteLength":1728,"target":34962},{"buffer":0,"byteOffset":1419232,"byteLength":1728,"target":34962},{"buffer":0,"byteOffset":1420960,"byteLength":576,"target":34963},{"buffer":0,"byteOffset":1421536,"byteLength":288,"target":34962},{"buffer":0,"byteOffset":1421824,"byteLength":288,"target":34962},{"buffer":0,"byteOffset":1422112,"byteLength":96,"target":34963},{"buffer":0,"byteOffset":1422208,"byteLength":288,"target":34962},{"buffer":0,"byteOffset":1422496,"byteLength":288,"target":34962},{"buffer":0,"byteOffset":1422784,"byteLength":144,"target":34963},{"buffer":0,"byteOffset":1422928,"byteLength":864,"target":34962},{"buffer":0,"byteOffset":1423792,"byteLength":864,"target":34962},{"buffer":0,"byteOffset":1424656,"byteLength":288,"target":34963},{"buffer":0,"byteOffset":1424944,"byteLength":1728,"target":34962},{"buffer":0,"byteOffset":1426672,"byteLength":1728,"target":34962},{"buffer":0,"byteOffset":1428400,"byteLength":576,"target":34963},{"buffer":0,"byteOffset":1428976,"byteLength":288,"target":34962},{"buffer":0,"byteOffset":1429264,"byteLength":288,"target":34962},{"buffer":0,"byteOffset":1429552,"byteLength":96,"target":34963},{"buffer":0,"byteOffset":1429648,"byteLength":288,"target":34962},{"buffer":0,"byteOffset":1429936,"byteLength":288,"target":34962},{"buffer":0,"byteOffset":1430224,"byteLength":144,"target":34963},{"buffer":0,"byteOffset":1430368,"byteLength":168,"target":34962},{"buffer":0,"byteOffset":1430536,"byteLength":168,"target":34962},{"buffer":0,"byteOffset":1430704,"byteLength":144,"target":34963},{"buffer":0,"byteOffset":1430848,"byteLength":1584,"target":34962},{"buffer":0,"byteOffset":1432432,"byteLength":1584,"target":34962},{"buffer":0,"byteOffset":1434016,"byteLength":1536,"target":34963},{"buffer":0,"byteOffset":1435552,"byteLength":1584,"target":34962},{"buffer":0,"byteOffset":1437136,"byteLength":1584,"target":34962},{"buffer":0,"byteOffset":1438720,"byteLength":1536,"target":34963},{"buffer":0,"byteOffset":1440256,"byteLength":1584,"target":34962},{"buffer":0,"byteOffset":1441840,"byteLength":1584,"target":34962},{"buffer":0,"byteOffset":1443424,"byteLength":1536,"target":34963},{"buffer":0,"byteOffset":1444960,"byteLength":1584,"target":34962},{"buffer":0,"byteOffset":1446544,"byteLength":1584,"target":34962},{"buffer":0,"byteOffset":1448128,"byteLength":1536,"target":34963},{"buffer":0,"byteOffset":1449664,"byteLength":1584,"target":34962},{"buffer":0,"byteOffset":1451248,"byteLength":1584,"target":34962},{"buffer":0,"byteOffset":1452832,"byteLength":1536,"target":34963},{"buffer":1,"byteOffset":0,"byteLength":6912,"target":34962},{"buffer":1,"byteOffset":6912,"byteLength":6912,"target":34962},{"buffer":1,"byteOffset":13824,"byteLength":4608,"target":34962}],"accessors":[{"bufferView":0,"componentType":5126,"count":2665,"type":"VEC3","min":[-2.9,-2.9,-31.5],"max":[2.9,2.9,31.5]},{"bufferView":1,"componentType":5126,"count":2665,"type":"VEC3"},{"bufferView":2,"componentType":5126,"count":2665,"type":"VEC2"},{"bufferView":3,"componentType":5125,"count":15360,"type":"SCALAR"},{"bufferView":4,"componentType":5126,"count":90,"type":"VEC3","min":[-11.540000000000001,-3.4749999999999996,-29.295],"max":[11.26,1.8399999999999999,2.835]},{"bufferView":5,"componentType":5126,"count":90,"type":"VEC3"},{"bufferView":6,"componentType":5125,"count":144,"type":"SCALAR"},{"bufferView":7,"componentType":5126,"count":24,"type":"VEC3","min":[-0.1,1.16,-29.295],"max":[0.1,10.459999999999999,-17.64]},{"bufferView":8,"componentType":5126,"count":24,"type":"VEC3"},{"bufferView":9,"componentType":5125,"count":36,"type":"SCALAR"},{"bufferView":10,"componentType":5126,"count":16116,"type":"VEC3","min":[-12.9312,-4.866199999999999,-14.620000000000001],"max":[12.9312,2.3905253503781587,27.909]},{"bufferView":11,"componentType":5126,"count":16116,"type":"VEC3"},{"bufferView":12,"componentType":5126,"count":16,"type":"VEC3","min":[-2.94,-1.218,-28.224],"max":[2.94,8.494399999999999,14.435]},{"bufferView":13,"componentType":5126,"count":16,"type":"VEC3"},{"bufferView":14,"componentType":5126,"count":16,"type":"VEC2"},{"bufferView":15,"componentType":5125,"count":24,"type":"SCALAR"},{"bufferView":16,"componentType":5126,"count":4230,"type":"VEC3","min":[-13.279548,-5.214548,-14.925],"max":[13.279548,2.399185604416003,27.909]},{"bufferView":17,"componentType":5126,"count":4230,"type":"VEC3"},{"bufferView":18,"componentType":5125,"count":12480,"type":"SCALAR"},{"bufferView":19,"componentType":5126,"count":1698,"type":"VEC3","min":[-13.314,-5.249,-11.97],"max":[13.314,-1.4209999999999996,18.9]},{"bufferView":20,"componentType":5126,"count":1698,"type":"VEC3"},{"bufferView":21,"componentType":5125,"count":9228,"type":"SCALAR"},{"bufferView":22,"componentType":5126,"count":1792,"type":"VEC3","min":[-0.41000000000000003,-0.4,-0.4],"max":[0.41000000000000003,0.4,0.4]},{"bufferView":23,"componentType":5126,"count":1792,"type":"VEC3"},{"bufferView":24,"componentType":5125,"count":2688,"type":"SCALAR"},{"bufferView":25,"componentType":5126,"count":1792,"type":"VEC3","min":[-0.41000000000000003,-0.52,-0.52],"max":[0.41000000000000003,0.52,0.52]},{"bufferView":26,"componentType":5126,"count":1792,"type":"VEC3"},{"bufferView":27,"componentType":5125,"count":2688,"type":"SCALAR"},{"bufferView":28,"componentType":5126,"count":1792,"type":"VEC3","min":[-0.41000000000000003,-0.52,-0.52],"max":[0.41000000000000003,0.52,0.52]},{"bufferView":29,"componentType":5126,"count":1792,"type":"VEC3"},{"bufferView":30,"componentType":5125,"count":2688,"type":"SCALAR"},{"bufferView":31,"componentType":5126,"count":1792,"type":"VEC3","min":[-0.41000000000000003,-0.52,-0.52],"max":[0.41000000000000003,0.52,0.52]},{"bufferView":32,"componentType":5126,"count":1792,"type":"VEC3"},{"bufferView":33,"componentType":5125,"count":2688,"type":"SCALAR"},{"bufferView":34,"componentType":5126,"count":1792,"type":"VEC3","min":[-0.41000000000000003,-0.52,-0.52],"max":[0.41000000000000003,0.52,0.52]},{"bufferView":35,"componentType":5126,"count":1792,"type":"VEC3"},{"bufferView":36,"componentType":5125,"count":2688,"type":"SCALAR"},{"bufferView":37,"componentType":5126,"count":3263,"type":"VEC3","min":[-30.0,-2.0103793510910988,-18.724695652173914],"max":[-2.175,1.524696815378349,6.300000000000001]},{"bufferView":38,"componentType":5126,"count":3263,"type":"VEC3"},{"bufferView":39,"componentType":5125,"count":14736,"type":"SCALAR"},{"bufferView":40,"componentType":5126,"count":36,"type":"VEC3","min":[-30.0,-0.8189475094680061,-17.118675],"max":[-2.175,1.5016334400047024,-5.266800000000002]},{"bufferView":41,"componentType":5126,"count":36,"type":"VEC3"},{"bufferView":42,"componentType":5125,"count":72,"type":"SCALAR"},{"bufferView":43,"componentType":5126,"count":3263,"type":"VEC3","min":[2.175,-2.0103793510910988,-18.724695652173914],"max":[30.0,1.524696815378349,6.300000000000001]},{"bufferView":44,"componentType":5126,"count":3263,"type":"VEC3"},{"bufferView":45,"componentType":5125,"count":14736,"type":"SCALAR"},{"bufferView":46,"componentType":5126,"count":36,"type":"VEC3","min":[2.175,-0.8189475094680061,-17.118675],"max":[30.0,1.5016334400047024,-5.266800000000002]},{"bufferView":47,"componentType":5126,"count":36,"type":"VEC3"},{"bufferView":48,"componentType":5125,"count":72,"type":"SCALAR"},{"bufferView":49,"componentType":5126,"count":753,"type":"VEC3","min":[-12.873765737235171,-4.808765737235171,1.90116],"max":[-9.92623426276483,-1.8612342627648284,3.4650000000000003]},{"bufferView":50,"componentType":5126,"count":753,"type":"VEC3"},{"bufferView":51,"componentType":5125,"count":3240,"type":"SCALAR"},{"bufferView":52,"componentType":5126,"count":753,"type":"VEC3","min":[9.92623426276483,-4.808765737235171,1.90116],"max":[12.873765737235171,-1.8612342627648284,3.4650000000000003]},{"bufferView":53,"componentType":5126,"count":753,"type":"VEC3"},{"bufferView":54,"componentType":5125,"count":3240,"type":"SCALAR"},{"bufferView":55,"componentType":5126,"count":72,"type":"VEC3","min":[-3.81,-3.925,-7.475000000000001],"max":[2.71,-2.15,18.919999999999998]},{"bufferView":56,"componentType":5126,"count":72,"type":"VEC3"},{"bufferView":57,"componentType":5126,"count":72,"type":"VEC2"},{"bufferView":58,"componentType":5125,"count":108,"type":"SCALAR"},{"bufferView":59,"componentType":5126,"count":320,"type":"VEC3","min":[-3.31,-4.1,-6.945000000000001],"max":[3.31,-3.5,18.39]},{"bufferView":60,"componentType":5126,"count":320,"type":"VEC3"},{"bufferView":61,"componentType":5125,"count":480,"type":"SCALAR"},{"bufferView":62,"componentType":5126,"count":960,"type":"VEC3","min":[-3.61,-4.59,-6.915000000000001],"max":[3.61,-2.03,18.723424432040503]},{"bufferView":63,"componentType":5126,"count":960,"type":"VEC3"},{"bufferView":64,"componentType":5125,"count":1440,"type":"SCALAR"},{"bufferView":65,"componentType":5126,"count":72,"type":"VEC3","min":[-27.0,-1.7445890461817097,-13.409834604442084],"max":[-2.175,0.7892786674572635,6.300000000000001]},{"bufferView":66,"componentType":5126,"count":72,"type":"VEC3"},{"bufferView":67,"componentType":5125,"count":72,"type":"SCALAR"},{"bufferView":68,"componentType":5126,"count":144,"type":"VEC3","min":[-27.0,-1.481026782057135,-17.955],"max":[-2.175,0.7812199733221784,-8.218943173991587]},{"bufferView":69,"componentType":5126,"count":144,"type":"VEC3"},{"bufferView":70,"componentType":5125,"count":144,"type":"SCALAR"},{"bufferView":71,"componentType":5126,"count":24,"type":"VEC3","min":[-27.0,-0.6601433587153591,-16.77375],"max":[-2.175,0.8750212708858569,-4.406255978596938]},{"bufferView":72,"componentType":5126,"count":24,"type":"VEC3"},{"bufferView":73,"componentType":5125,"count":24,"type":"SCALAR"},{"bufferView":74,"componentType":5126,"count":24,"type":"VEC3","min":[-10.799999999999999,1.0999999999999999,-30.87],"max":[-1.16,1.8199999999999998,-26.145]},{"bufferView":75,"componentType":5126,"count":24,"type":"VEC3"},{"bufferView":76,"componentType":5125,"count":36,"type":"SCALAR"},{"bufferView":77,"componentType":5126,"count":72,"type":"VEC3","min":[2.175,-1.7445890461817097,-13.409834604442084],"max":[27.0,0.7892786674572635,6.300000000000001]},{"bufferView":78,"componentType":5126,"count":72,"type":"VEC3"},{"bufferView":79,"componentType":5125,"count":72,"type":"SCALAR"},{"bufferView":80,"componentType":5126,"count":144,"type":"VEC3","min":[2.175,-1.481026782057135,-17.955],"max":[27.0,0.7812199733221784,-8.218943173991587]},{"bufferView":81,"componentType":5126,"count":144,"type":"VEC3"},{"bufferView":82,"componentType":5125,"count":144,"type":"SCALAR"},{"bufferView":83,"componentType":5126,"count":24,"type":"VEC3","min":[2.175,-0.6601433587153591,-16.77375],"max":[27.0,0.8750212708858569,-4.406255978596938]},{"bufferView":84,"componentType":5126,"count":24,"type":"VEC3"},{"bufferView":85,"componentType":5125,"count":24,"type":"SCALAR"},{"bufferView":86,"componentType":5126,"count":24,"type":"VEC3","min":[1.16,1.0999999999999999,-30.87],"max":[10.799999999999999,1.8199999999999998,-26.145]},{"bufferView":87,"componentType":5126,"count":24,"type":"VEC3"},{"bufferView":88,"componentType":5125,"count":36,"type":"SCALAR"},{"bufferView":89,"componentType":5126,"count":14,"type":"VEC3","min":[0,1.0799999999999998,-31.185],"max":[0,10.54,-28.224]},{"bufferView":90,"componentType":5126,"count":14,"type":"VEC3"},{"bufferView":91,"componentType":5125,"count":36,"type":"SCALAR"},{"bufferView":92,"componentType":5126,"count":132,"type":"VEC3","min":[-0.41100000000000003,-0.22000000000000003,-0.22000000000000003],"max":[0.41100000000000003,0.22000000000000003,0.22000000000000003]},{"bufferView":93,"componentType":5126,"count":132,"type":"VEC3"},{"bufferView":94,"componentType":5125,"count":384,"type":"SCALAR"},{"bufferView":95,"componentType":5126,"count":132,"type":"VEC3","min":[-0.41100000000000003,-0.28600000000000003,-0.28600000000000003],"max":[0.41100000000000003,0.28600000000000003,0.28600000000000003]},{"bufferView":96,"componentType":5126,"count":132,"type":"VEC3"},{"bufferView":97,"componentType":5125,"count":384,"type":"SCALAR"},{"bufferView":98,"componentType":5126,"count":132,"type":"VEC3","min":[-0.41100000000000003,-0.28600000000000003,-0.28600000000000003],"max":[0.41100000000000003,0.28600000000000003,0.28600000000000003]},{"bufferView":99,"componentType":5126,"count":132,"type":"VEC3"},{"bufferView":100,"componentType":5125,"count":384,"type":"SCALAR"},{"bufferView":101,"componentType":5126,"count":132,"type":"VEC3","min":[-0.41100000000000003,-0.28600000000000003,-0.28600000000000003],"max":[0.41100000000000003,0.28600000000000003,0.28600000000000003]},{"bufferView":102,"componentType":5126,"count":132,"type":"VEC3"},{"bufferView":103,"componentType":5125,"count":384,"type":"SCALAR"},{"bufferView":104,"componentType":5126,"count":132,"type":"VEC3","min":[-0.41100000000000003,-0.28600000000000003,-0.28600000000000003],"max":[0.41100000000000003,0.28600000000000003,0.28600000000000003]},{"bufferView":105,"componentType":5126,"count":132,"type":"VEC3"},{"bufferView":106,"componentType":5125,"count":384,"type":"SCALAR"},{"bufferView":107,"componentType":5126,"count":576,"type":"VEC3","min":[-2.7335616792082194,1.044,-7.56],"max":[2.7335616792082194,1.769,15.75]},{"bufferView":108,"componentType":5126,"count":576,"type":"VEC3"},{"bufferView":109,"componentType":5126,"count":576,"type":"VEC2"}],"images":[{"uri":"../../airlines/BAW.png"},{"uri":"fallback-paint-v5.png"},{"uri":"title-BAW.png"}],"textures":[{"source":0,"sampler":0},{"source":1,"sampler":0},{"source":2,"sampler":0}],"samplers":[{"magFilter":9729,"minFilter":9987,"wrapS":33071,"wrapT":33071}]}