{"asset":{"version":"2.0","generator":"Skyward original illustrative b787 profile; logos for operator identification"},"scene":0,"scenes":[{"nodes":[0,1]}],"nodes":[{"mesh":0},{"mesh":1,"name":"Gear"}],"meshes":[{"primitives":[{"attributes":{"POSITION":0,"NORMAL":1},"material":0},{"attributes":{"POSITION":2,"NORMAL":3},"material":1},{"attributes":{"POSITION":4,"NORMAL":5},"material":2},{"attributes":{"POSITION":6,"NORMAL":7},"material":3},{"attributes":{"POSITION":10,"NORMAL":11,"TEXCOORD_0":12},"material":5},{"attributes":{"POSITION":13,"NORMAL":14},"material":6}]},{"primitives":[{"attributes":{"POSITION":8,"NORMAL":9},"material":4}]}],"materials":[{"doubleSided":true,"pbrMetallicRoughness":{"baseColorFactor":[0.94,0.95,0.96,1],"metallicFactor":0.18,"roughnessFactor":0.3}},{"doubleSided":true,"pbrMetallicRoughness":{"baseColorFactor":[0.64,0.68,0.72,1],"metallicFactor":0.18,"roughnessFactor":0.3}},{"doubleSided":true,"pbrMetallicRoughness":{"baseColorFactor":[0.7176470588235294,0.10588235294117647,0.2235294117647059,1],"metallicFactor":0.18,"roughnessFactor":0.3}},{"doubleSided":true,"pbrMetallicRoughness":{"baseColorFactor":[0.02,0.055,0.085,1],"metallicFactor":0.18,"roughnessFactor":0.17}},{"doubleSided":true,"pbrMetallicRoughness":{"baseColorFactor":[0.07,0.08,0.09,1],"metallicFactor":0.18,"roughnessFactor":0.3}},{"doubleSided":true,"pbrMetallicRoughness":{"baseColorFactor":[1,1,1,1],"metallicFactor":0,"roughnessFactor":0.75,"baseColorTexture":{"index":0}},"alphaMode":"BLEND"},{"doubleSided":true,"pbrMetallicRoughness":{"baseColorFactor":[0.36,0.4,0.44,1],"metallicFactor":0.7,"roughnessFactor":0.3}}],"buffers":[{"uri":"b787-v2.bin","byteLength":232032}],"bufferViews":[{"buffer":0,"byteOffset":0,"byteLength":55296,"target":34962},{"buffer":0,"byteOffset":55296,"byteLength":55296,"target":34962},{"buffer":0,"byteOffset":110592,"byteLength":2880,"target":34962},{"buffer":0,"byteOffset":113472,"byteLength":2880,"target":34962},{"buffer":0,"byteOffset":116352,"byteLength":432,"target":34962},{"buffer":0,"byteOffset":116784,"byteLength":432,"target":34962},{"buffer":0,"byteOffset":117216,"byteLength":39168,"target":34962},{"buffer":0,"byteOffset":156384,"byteLength":39168,"target":34962},{"buffer":0,"byteOffset":195552,"byteLength":2592,"target":34962},{"buffer":0,"byteOffset":198144,"byteLength":2592,"target":34962},{"buffer":0,"byteOffset":200736,"byteLength":288,"target":34962},{"buffer":0,"byteOffset":201024,"byteLength":288,"target":34962},{"buffer":0,"byteOffset":201312,"byteLength":192,"target":34962},{"buffer":0,"byteOffset":201504,"byteLength":15264,"target":34962},{"buffer":0,"byteOffset":216768,"byteLength":15264,"target":34962}],"accessors":[{"bufferView":0,"componentType":5126,"count":4608,"type":"VEC3","min":[-13.314,-5.249,-31.5],"max":[13.314,2.9,31.5]},{"bufferView":1,"componentType":5126,"count":4608,"type":"VEC3"},{"bufferView":2,"componentType":5126,"count":240,"type":"VEC3","min":[-30.0,-3.4749999999999996,-30.87],"max":[30.0,1.8399999999999999,6.300000000000001]},{"bufferView":3,"componentType":5126,"count":240,"type":"VEC3"},{"bufferView":4,"componentType":5126,"count":36,"type":"VEC3","min":[-0.1,1.16,-31.185],"max":[0.1,12.035,-17.64]},{"bufferView":5,"componentType":5126,"count":36,"type":"VEC3"},{"bufferView":6,"componentType":5126,"count":3264,"type":"VEC3","min":[-12.9312,-4.866199999999999,-14.620000000000001],"max":[12.9312,1.943,26.145]},{"bufferView":7,"componentType":5126,"count":3264,"type":"VEC3"},{"bufferView":8,"componentType":5126,"count":216,"type":"VEC3","min":[-2.6199999999999997,-4.9,-6.680000000000001],"max":[2.6199999999999997,-2.9000000000000004,18.65]},{"bufferView":9,"componentType":5126,"count":216,"type":"VEC3"},{"bufferView":10,"componentType":5126,"count":24,"type":"VEC3","min":[-2.94,-1.218,-28.161],"max":[2.94,9.200000000000001,14.435]},{"bufferView":11,"componentType":5126,"count":24,"type":"VEC3"},{"bufferView":12,"componentType":5126,"count":24,"type":"VEC2"},{"bufferView":13,"componentType":5126,"count":1272,"type":"VEC3","min":[-13.199160000000001,-5.13416,-14.49],"max":[13.199160000000001,1.74,17.69]},{"bufferView":14,"componentType":5126,"count":1272,"type":"VEC3"}],"images":[{"uri":"../../airlines/DAL.png"}],"textures":[{"source":0,"sampler":0}],"samplers":[{"magFilter":9729,"minFilter":9987,"wrapS":33071,"wrapT":33071}]}