{"asset":{"version":"2.0","generator":"Skyward original illustrative profile; airline-inspired paint, no official logos"},"scene":0,"scenes":[{"nodes":[0,1]}],"nodes":[{"mesh":0},{"mesh":1,"name":"Gear"}],"meshes":[{"primitives":[{"attributes":{"POSITION":0,"NORMAL":1},"material":0},{"attributes":{"POSITION":2,"NORMAL":3},"material":1},{"attributes":{"POSITION":4,"NORMAL":5},"material":2},{"attributes":{"POSITION":6,"NORMAL":7},"material":3}]},{"primitives":[{"attributes":{"POSITION":8,"NORMAL":9},"material":4}]}],"materials":[{"doubleSided":true,"pbrMetallicRoughness":{"baseColorFactor":[0.91,0.94,0.96,1],"metallicFactor":0.15,"roughnessFactor":0.45}},{"doubleSided":true,"pbrMetallicRoughness":{"baseColorFactor":[0.52,0.6,0.66,1],"metallicFactor":0.15,"roughnessFactor":0.45}},{"doubleSided":true,"pbrMetallicRoughness":{"baseColorFactor":[0.2235294117647059,0.49019607843137253,0.6862745098039216,1],"metallicFactor":0.15,"roughnessFactor":0.45}},{"doubleSided":true,"pbrMetallicRoughness":{"baseColorFactor":[0.025,0.06,0.09,1],"metallicFactor":0.15,"roughnessFactor":0.45}},{"doubleSided":true,"pbrMetallicRoughness":{"baseColorFactor":[0.08,0.1,0.12,1],"metallicFactor":0.15,"roughnessFactor":0.45}}],"buffers":[{"uri":"b787.bin","byteLength":37368}],"bufferViews":[{"buffer":0,"byteOffset":0,"byteLength":10080,"target":34962},{"buffer":0,"byteOffset":10080,"byteLength":10080,"target":34962},{"buffer":0,"byteOffset":20160,"byteLength":288,"target":34962},{"buffer":0,"byteOffset":20448,"byteLength":288,"target":34962},{"buffer":0,"byteOffset":20736,"byteLength":108,"target":34962},{"buffer":0,"byteOffset":20844,"byteLength":108,"target":34962},{"buffer":0,"byteOffset":20952,"byteLength":5616,"target":34962},{"buffer":0,"byteOffset":26568,"byteLength":5616,"target":34962},{"buffer":0,"byteOffset":32184,"byteLength":2592,"target":34962},{"buffer":0,"byteOffset":34776,"byteLength":2592,"target":34962}],"accessors":[{"bufferView":0,"componentType":5126,"count":840,"type":"VEC3","min":[-12.995000000000001,-4.785,-31.5],"max":[12.995000000000001,2.9,31.5]},{"bufferView":1,"componentType":5126,"count":840,"type":"VEC3"},{"bufferView":2,"componentType":5126,"count":24,"type":"VEC3","min":[-30.0,-1.45,-30.87],"max":[30.0,1.015,5.04]},{"bufferView":3,"componentType":5126,"count":24,"type":"VEC3"},{"bufferView":4,"componentType":5126,"count":9,"type":"VEC3","min":[-30.0,0,-30.87],"max":[30.0,11.72,-10.08]},{"bufferView":5,"componentType":5126,"count":9,"type":"VEC3"},{"bufferView":6,"componentType":5126,"count":468,"type":"VEC3","min":[-12.8036,-4.5936,-16],"max":[12.8036,1.74,26.459999999999997]},{"bufferView":7,"componentType":5126,"count":468,"type":"VEC3"},{"bufferView":8,"componentType":5126,"count":216,"type":"VEC3","min":[-2.7199999999999998,-5.5,-6.9],"max":[2.7199999999999998,-2.8,18.87]},{"bufferView":9,"componentType":5126,"count":216,"type":"VEC3"}]}