{"asset":{"version":"2.0","generator":"Skyward detailed procedural b787 fallback v5; approximate airframe; operator identification logos"},"scene":0,"scenes":[{"nodes":[0,1,5,6,7,8]}],"nodes":[{"mesh":0},{"mesh":1,"name":"Gear","children":[2,3,4]},{"mesh":2,"name":"WheelN","translation":[0,-4.5,18.27]},{"mesh":3,"name":"WheelL","translation":[-2.32,-4.5,-6.300000000000001]},{"mesh":4,"name":"WheelR","translation":[2.32,-4.5,-6.300000000000001]},{"mesh":5,"name":"FlexWingL"},{"mesh":6,"name":"FlexWingR"},{"mesh":7,"name":"SkywardFan0"},{"mesh":8,"name":"SkywardFan1"}],"meshes":[{"name":"AirframeWithCockpitGlazing","primitives":[{"indices":3,"attributes":{"POSITION":0,"NORMAL":1,"TEXCOORD_0":2},"material":0},{"indices":6,"attributes":{"POSITION":4,"NORMAL":5},"material":1},{"indices":9,"attributes":{"POSITION":7,"NORMAL":8},"material":2},{"attributes":{"POSITION":10,"NORMAL":11},"material":3},{"indices":15,"attributes":{"POSITION":12,"NORMAL":13,"TEXCOORD_0":14},"material":5},{"indices":18,"attributes":{"POSITION":16,"NORMAL":17},"material":6},{"indices":21,"attributes":{"POSITION":19,"NORMAL":20},"material":7}]},{"primitives":[{"indices":51,"attributes":{"POSITION":49,"NORMAL":50},"material":1,"extras":{"gear":true}},{"indices":54,"attributes":{"POSITION":52,"NORMAL":53},"material":6,"extras":{"gear":true}}]},{"primitives":[{"indices":24,"attributes":{"POSITION":22,"NORMAL":23},"material":4,"extras":{"wheel":0}}]},{"primitives":[{"indices":27,"attributes":{"POSITION":25,"NORMAL":26},"material":4,"extras":{"wheel":1}}]},{"primitives":[{"indices":30,"attributes":{"POSITION":28,"NORMAL":29},"material":4,"extras":{"wheel":2}}]},{"primitives":[{"indices":33,"attributes":{"POSITION":31,"NORMAL":32},"material":1,"extras":{"wing":0}},{"indices":36,"attributes":{"POSITION":34,"NORMAL":35},"material":6,"extras":{"wing":0}}]},{"primitives":[{"indices":39,"attributes":{"POSITION":37,"NORMAL":38},"material":1,"extras":{"wing":1}},{"indices":42,"attributes":{"POSITION":40,"NORMAL":41},"material":6,"extras":{"wing":1}}]},{"primitives":[{"indices":45,"attributes":{"POSITION":43,"NORMAL":44},"material":6,"extras":{"fan":0}}]},{"primitives":[{"indices":48,"attributes":{"POSITION":46,"NORMAL":47},"material":6,"extras":{"fan":1}}]}],"materials":[{"doubleSided":true,"pbrMetallicRoughness":{"baseColorFactor":[0.94,0.95,0.96,1],"metallicFactor":0.04,"roughnessFactor":0.27,"baseColorTexture":{"index":1}}},{"doubleSided":true,"pbrMetallicRoughness":{"baseColorFactor":[0.64,0.68,0.72,1],"metallicFactor":0.04,"roughnessFactor":0.4}},{"doubleSided":true,"pbrMetallicRoughness":{"baseColorFactor":[0.8980392156862745,0.7137254901960784,0.12549019607843137,1],"metallicFactor":0.04,"roughnessFactor":0.27}},{"doubleSided":true,"pbrMetallicRoughness":{"baseColorFactor":[0.02,0.055,0.085,1],"metallicFactor":0,"roughnessFactor":0.12}},{"doubleSided":true,"pbrMetallicRoughness":{"baseColorFactor":[0.07,0.08,0.09,1],"metallicFactor":0,"roughnessFactor":0.86}},{"doubleSided":true,"pbrMetallicRoughness":{"baseColorFactor":[1,1,1,1],"metallicFactor":0,"roughnessFactor":0.75,"baseColorTexture":{"index":0}},"alphaMode":"MASK","alphaCutoff":0.08},{"doubleSided":true,"pbrMetallicRoughness":{"baseColorFactor":[0.36,0.4,0.44,1],"metallicFactor":0.8,"roughnessFactor":0.28}},{"doubleSided":true,"pbrMetallicRoughness":{"baseColorFactor":[0.8980392156862745,0.7137254901960784,0.12549019607843137,1],"metallicFactor":0.04,"roughnessFactor":0.27}}],"buffers":[{"uri":"b787-v4.bin?tail=2&rig=1&detail=5","byteLength":1208368}],"bufferViews":[{"buffer":0,"byteOffset":0,"byteLength":31980,"target":34962},{"buffer":0,"byteOffset":31980,"byteLength":31980,"target":34962},{"buffer":0,"byteOffset":63960,"byteLength":21320,"target":34962},{"buffer":0,"byteOffset":85280,"byteLength":61440,"target":34963},{"buffer":0,"byteOffset":146720,"byteLength":1080,"target":34962},{"buffer":0,"byteOffset":147800,"byteLength":1080,"target":34962},{"buffer":0,"byteOffset":148880,"byteLength":576,"target":34963},{"buffer":0,"byteOffset":149456,"byteLength":288,"target":34962},{"buffer":0,"byteOffset":149744,"byteLength":288,"target":34962},{"buffer":0,"byteOffset":150032,"byteLength":144,"target":34963},{"buffer":0,"byteOffset":150176,"byteLength":193392,"target":34962},{"buffer":0,"byteOffset":343568,"byteLength":193392,"target":34962},{"buffer":0,"byteOffset":536960,"byteLength":192,"target":34962},{"buffer":0,"byteOffset":537152,"byteLength":192,"target":34962},{"buffer":0,"byteOffset":537344,"byteLength":128,"target":34962},{"buffer":0,"byteOffset":537472,"byteLength":96,"target":34963},{"buffer":0,"byteOffset":537568,"byteLength":36816,"target":34962},{"buffer":0,"byteOffset":574384,"byteLength":36816,"target":34962},{"buffer":0,"byteOffset":611200,"byteLength":34560,"target":34963},{"buffer":0,"byteOffset":645760,"byteLength":20376,"target":34962},{"buffer":0,"byteOffset":666136,"byteLength":20376,"target":34962},{"buffer":0,"byteOffset":686512,"byteLength":36912,"target":34963},{"buffer":0,"byteOffset":723424,"byteLength":14424,"target":34962},{"buffer":0,"byteOffset":737848,"byteLength":14424,"target":34962},{"buffer":0,"byteOffset":752272,"byteLength":7680,"target":34963},{"buffer":0,"byteOffset":759952,"byteLength":14424,"target":34962},{"buffer":0,"byteOffset":774376,"byteLength":14424,"target":34962},{"buffer":0,"byteOffset":788800,"byteLength":7680,"target":34963},{"buffer":0,"byteOffset":796480,"byteLength":14424,"target":34962},{"buffer":0,"byteOffset":810904,"byteLength":14424,"target":34962},{"buffer":0,"byteOffset":825328,"byteLength":7680,"target":34963},{"buffer":0,"byteOffset":833008,"byteLength":42036,"target":34962},{"buffer":0,"byteOffset":875044,"byteLength":42036,"target":34962},{"buffer":0,"byteOffset":917080,"byteLength":59904,"target":34963},{"buffer":0,"byteOffset":976984,"byteLength":432,"target":34962},{"buffer":0,"byteOffset":977416,"byteLength":432,"target":34962},{"buffer":0,"byteOffset":977848,"byteLength":288,"target":34963},{"buffer":0,"byteOffset":978136,"byteLength":42036,"target":34962},{"buffer":0,"byteOffset":1020172,"byteLength":42036,"target":34962},{"buffer":0,"byteOffset":1062208,"byteLength":59904,"target":34963},{"buffer":0,"byteOffset":1122112,"byteLength":432,"target":34962},{"buffer":0,"byteOffset":1122544,"byteLength":432,"target":34962},{"buffer":0,"byteOffset":1122976,"byteLength":288,"target":34963},{"buffer":0,"byteOffset":1123264,"byteLength":9036,"target":34962},{"buffer":0,"byteOffset":1132300,"byteLength":9036,"target":34962},{"buffer":0,"byteOffset":1141336,"byteLength":12960,"target":34963},{"buffer":0,"byteOffset":1154296,"byteLength":9036,"target":34962},{"buffer":0,"byteOffset":1163332,"byteLength":9036,"target":34962},{"buffer":0,"byteOffset":1172368,"byteLength":12960,"target":34963},{"buffer":0,"byteOffset":1185328,"byteLength":2304,"target":34962},{"buffer":0,"byteOffset":1187632,"byteLength":2304,"target":34962},{"buffer":0,"byteOffset":1189936,"byteLength":1152,"target":34963},{"buffer":0,"byteOffset":1191088,"byteLength":6912,"target":34962},{"buffer":0,"byteOffset":1198000,"byteLength":6912,"target":34962},{"buffer":0,"byteOffset":1204912,"byteLength":3456,"target":34963}],"accessors":[{"bufferView":0,"componentType":5126,"count":2665,"type":"VEC3","min":[-2.9,-2.9,-31.5],"max":[2.9,2.9,31.5]},{"bufferView":1,"componentType":5126,"count":2665,"type":"VEC3"},{"bufferView":2,"componentType":5126,"count":2665,"type":"VEC2"},{"bufferView":3,"componentType":5125,"count":15360,"type":"SCALAR"},{"bufferView":4,"componentType":5126,"count":90,"type":"VEC3","min":[-11.540000000000001,-3.4749999999999996,-30.87],"max":[11.26,1.8399999999999999,2.835]},{"bufferView":5,"componentType":5126,"count":90,"type":"VEC3"},{"bufferView":6,"componentType":5125,"count":144,"type":"SCALAR"},{"bufferView":7,"componentType":5126,"count":24,"type":"VEC3","min":[-0.1,1.16,-31.185],"max":[0.1,12.035,-17.64]},{"bufferView":8,"componentType":5126,"count":24,"type":"VEC3"},{"bufferView":9,"componentType":5125,"count":36,"type":"SCALAR"},{"bufferView":10,"componentType":5126,"count":16116,"type":"VEC3","min":[-12.9312,-4.866199999999999,-14.620000000000001],"max":[12.9312,2.3905253503781587,27.909]},{"bufferView":11,"componentType":5126,"count":16116,"type":"VEC3"},{"bufferView":12,"componentType":5126,"count":16,"type":"VEC3","min":[-2.94,-1.218,-28.224],"max":[2.94,9.893,14.435]},{"bufferView":13,"componentType":5126,"count":16,"type":"VEC3"},{"bufferView":14,"componentType":5126,"count":16,"type":"VEC2"},{"bufferView":15,"componentType":5125,"count":24,"type":"SCALAR"},{"bufferView":16,"componentType":5126,"count":3068,"type":"VEC3","min":[-13.199160000000001,-5.13416,-14.925],"max":[13.199160000000001,2.399185604416003,27.909]},{"bufferView":17,"componentType":5126,"count":3068,"type":"VEC3"},{"bufferView":18,"componentType":5125,"count":8640,"type":"SCALAR"},{"bufferView":19,"componentType":5126,"count":1698,"type":"VEC3","min":[-13.314,-5.249,-11.97],"max":[13.314,-1.4209999999999996,18.9]},{"bufferView":20,"componentType":5126,"count":1698,"type":"VEC3"},{"bufferView":21,"componentType":5125,"count":9228,"type":"SCALAR"},{"bufferView":22,"componentType":5126,"count":1202,"type":"VEC3","min":[-0.25,-0.4,-0.4],"max":[0.25,0.4,0.4]},{"bufferView":23,"componentType":5126,"count":1202,"type":"VEC3"},{"bufferView":24,"componentType":5125,"count":1920,"type":"SCALAR"},{"bufferView":25,"componentType":5126,"count":1202,"type":"VEC3","min":[-0.25,-0.4,-0.4],"max":[0.25,0.4,0.4]},{"bufferView":26,"componentType":5126,"count":1202,"type":"VEC3"},{"bufferView":27,"componentType":5125,"count":1920,"type":"SCALAR"},{"bufferView":28,"componentType":5126,"count":1202,"type":"VEC3","min":[-0.25,-0.4,-0.4],"max":[0.25,0.4,0.4]},{"bufferView":29,"componentType":5126,"count":1202,"type":"VEC3"},{"bufferView":30,"componentType":5125,"count":1920,"type":"SCALAR"},{"bufferView":31,"componentType":5126,"count":3503,"type":"VEC3","min":[-30.0,-2.0103793510910988,-17.79339130434783],"max":[-2.175,1.524696815378349,6.300000000000001]},{"bufferView":32,"componentType":5126,"count":3503,"type":"VEC3"},{"bufferView":33,"componentType":5125,"count":14976,"type":"SCALAR"},{"bufferView":34,"componentType":5126,"count":36,"type":"VEC3","min":[-30.0,-0.8189475094680061,-15.858675],"max":[-2.175,1.5016334400047024,-5.266800000000002]},{"bufferView":35,"componentType":5126,"count":36,"type":"VEC3"},{"bufferView":36,"componentType":5125,"count":72,"type":"SCALAR"},{"bufferView":37,"componentType":5126,"count":3503,"type":"VEC3","min":[2.175,-2.0103793510910988,-17.79339130434783],"max":[30.0,1.524696815378349,6.300000000000001]},{"bufferView":38,"componentType":5126,"count":3503,"type":"VEC3"},{"bufferView":39,"componentType":5125,"count":14976,"type":"SCALAR"},{"bufferView":40,"componentType":5126,"count":36,"type":"VEC3","min":[2.175,-0.8189475094680061,-15.858675],"max":[30.0,1.5016334400047024,-5.266800000000002]},{"bufferView":41,"componentType":5126,"count":36,"type":"VEC3"},{"bufferView":42,"componentType":5125,"count":72,"type":"SCALAR"},{"bufferView":43,"componentType":5126,"count":753,"type":"VEC3","min":[-12.873765737235171,-4.808765737235171,1.90116],"max":[-9.92623426276483,-1.8612342627648284,3.4650000000000003]},{"bufferView":44,"componentType":5126,"count":753,"type":"VEC3"},{"bufferView":45,"componentType":5125,"count":3240,"type":"SCALAR"},{"bufferView":46,"componentType":5126,"count":753,"type":"VEC3","min":[9.92623426276483,-4.808765737235171,1.90116],"max":[12.873765737235171,-1.8612342627648284,3.4650000000000003]},{"bufferView":47,"componentType":5126,"count":753,"type":"VEC3"},{"bufferView":48,"componentType":5125,"count":3240,"type":"SCALAR"},{"bufferView":49,"componentType":5126,"count":192,"type":"VEC3","min":[-2.44,-4.1,-6.420000000000001],"max":[2.44,-3.5,18.39]},{"bufferView":50,"componentType":5126,"count":192,"type":"VEC3"},{"bufferView":51,"componentType":5125,"count":288,"type":"SCALAR"},{"bufferView":52,"componentType":5126,"count":576,"type":"VEC3","min":[-2.61,-4.7,-6.500000000000001],"max":[2.61,-2.03,18.723424432040503]},{"bufferView":53,"componentType":5126,"count":576,"type":"VEC3"},{"bufferView":54,"componentType":5125,"count":864,"type":"SCALAR"}],"images":[{"uri":"../../airlines/PGT.png"},{"uri":"fallback-paint-v5.png"}],"textures":[{"source":0,"sampler":0},{"source":1,"sampler":0}],"samplers":[{"magFilter":9729,"minFilter":9987,"wrapS":33071,"wrapT":33071}]}