{"asset":{"version":"2.0","generator":"Skyward detailed procedural b788 fallback v5; approximate airframe; operator identification logos"},"scene":0,"scenes":[{"nodes":[0,1,5,6,7,8]}],"nodes":[{"mesh":0},{"mesh":1,"name":"Gear","children":[2,3,4]},{"mesh":2,"name":"WheelN","translation":[0,-4.5,16.529999999999998]},{"mesh":3,"name":"WheelL","translation":[-2.32,-4.5,-5.7]},{"mesh":4,"name":"WheelR","translation":[2.32,-4.5,-5.7]},{"mesh":5,"name":"FlexWingL"},{"mesh":6,"name":"FlexWingR"},{"mesh":7,"name":"SkywardFan0"},{"mesh":8,"name":"SkywardFan1"}],"meshes":[{"name":"AirframeWithCockpitGlazing","primitives":[{"indices":3,"attributes":{"POSITION":0,"NORMAL":1,"TEXCOORD_0":2},"material":0},{"indices":6,"attributes":{"POSITION":4,"NORMAL":5},"material":1},{"indices":9,"attributes":{"POSITION":7,"NORMAL":8},"material":2},{"attributes":{"POSITION":10,"NORMAL":11},"material":3},{"indices":15,"attributes":{"POSITION":12,"NORMAL":13,"TEXCOORD_0":14},"material":5},{"indices":18,"attributes":{"POSITION":16,"NORMAL":17},"material":6},{"indices":21,"attributes":{"POSITION":19,"NORMAL":20},"material":7}]},{"primitives":[{"indices":51,"attributes":{"POSITION":49,"NORMAL":50},"material":1,"extras":{"gear":true}},{"indices":54,"attributes":{"POSITION":52,"NORMAL":53},"material":6,"extras":{"gear":true}}]},{"primitives":[{"indices":24,"attributes":{"POSITION":22,"NORMAL":23},"material":4,"extras":{"wheel":0}}]},{"primitives":[{"indices":27,"attributes":{"POSITION":25,"NORMAL":26},"material":4,"extras":{"wheel":1}}]},{"primitives":[{"indices":30,"attributes":{"POSITION":28,"NORMAL":29},"material":4,"extras":{"wheel":2}}]},{"primitives":[{"indices":33,"attributes":{"POSITION":31,"NORMAL":32},"material":1,"extras":{"wing":0}},{"indices":36,"attributes":{"POSITION":34,"NORMAL":35},"material":6,"extras":{"wing":0}}]},{"primitives":[{"indices":39,"attributes":{"POSITION":37,"NORMAL":38},"material":1,"extras":{"wing":1}},{"indices":42,"attributes":{"POSITION":40,"NORMAL":41},"material":6,"extras":{"wing":1}}]},{"primitives":[{"indices":45,"attributes":{"POSITION":43,"NORMAL":44},"material":6,"extras":{"fan":0}}]},{"primitives":[{"indices":48,"attributes":{"POSITION":46,"NORMAL":47},"material":6,"extras":{"fan":1}}]}],"materials":[{"doubleSided":true,"pbrMetallicRoughness":{"baseColorFactor":[0.03,0.16,0.6,1],"metallicFactor":0.04,"roughnessFactor":0.27,"baseColorTexture":{"index":1}}},{"doubleSided":true,"pbrMetallicRoughness":{"baseColorFactor":[0.64,0.68,0.72,1],"metallicFactor":0.04,"roughnessFactor":0.4}},{"doubleSided":true,"pbrMetallicRoughness":{"baseColorFactor":[0.1450980392156863,0.2980392156862745,0.7607843137254902,1],"metallicFactor":0.04,"roughnessFactor":0.27}},{"doubleSided":true,"pbrMetallicRoughness":{"baseColorFactor":[0.02,0.055,0.085,1],"metallicFactor":0,"roughnessFactor":0.12}},{"doubleSided":true,"pbrMetallicRoughness":{"baseColorFactor":[0.07,0.08,0.09,1],"metallicFactor":0,"roughnessFactor":0.86}},{"doubleSided":true,"pbrMetallicRoughness":{"baseColorFactor":[1,1,1,1],"metallicFactor":0,"roughnessFactor":0.75,"baseColorTexture":{"index":0}},"alphaMode":"MASK","alphaCutoff":0.08},{"doubleSided":true,"pbrMetallicRoughness":{"baseColorFactor":[0.36,0.4,0.44,1],"metallicFactor":0.8,"roughnessFactor":0.28}},{"doubleSided":true,"pbrMetallicRoughness":{"baseColorFactor":[0.1450980392156863,0.2980392156862745,0.7607843137254902,1],"metallicFactor":0.04,"roughnessFactor":0.27}}],"buffers":[{"uri":"b788-v4.bin?tail=2&rig=1&detail=5","byteLength":1204048}],"bufferViews":[{"buffer":0,"byteOffset":0,"byteLength":31980,"target":34962},{"buffer":0,"byteOffset":31980,"byteLength":31980,"target":34962},{"buffer":0,"byteOffset":63960,"byteLength":21320,"target":34962},{"buffer":0,"byteOffset":85280,"byteLength":61440,"target":34963},{"buffer":0,"byteOffset":146720,"byteLength":1080,"target":34962},{"buffer":0,"byteOffset":147800,"byteLength":1080,"target":34962},{"buffer":0,"byteOffset":148880,"byteLength":576,"target":34963},{"buffer":0,"byteOffset":149456,"byteLength":288,"target":34962},{"buffer":0,"byteOffset":149744,"byteLength":288,"target":34962},{"buffer":0,"byteOffset":150032,"byteLength":144,"target":34963},{"buffer":0,"byteOffset":150176,"byteLength":191232,"target":34962},{"buffer":0,"byteOffset":341408,"byteLength":191232,"target":34962},{"buffer":0,"byteOffset":532640,"byteLength":192,"target":34962},{"buffer":0,"byteOffset":532832,"byteLength":192,"target":34962},{"buffer":0,"byteOffset":533024,"byteLength":128,"target":34962},{"buffer":0,"byteOffset":533152,"byteLength":96,"target":34963},{"buffer":0,"byteOffset":533248,"byteLength":36816,"target":34962},{"buffer":0,"byteOffset":570064,"byteLength":36816,"target":34962},{"buffer":0,"byteOffset":606880,"byteLength":34560,"target":34963},{"buffer":0,"byteOffset":641440,"byteLength":20376,"target":34962},{"buffer":0,"byteOffset":661816,"byteLength":20376,"target":34962},{"buffer":0,"byteOffset":682192,"byteLength":36912,"target":34963},{"buffer":0,"byteOffset":719104,"byteLength":14424,"target":34962},{"buffer":0,"byteOffset":733528,"byteLength":14424,"target":34962},{"buffer":0,"byteOffset":747952,"byteLength":7680,"target":34963},{"buffer":0,"byteOffset":755632,"byteLength":14424,"target":34962},{"buffer":0,"byteOffset":770056,"byteLength":14424,"target":34962},{"buffer":0,"byteOffset":784480,"byteLength":7680,"target":34963},{"buffer":0,"byteOffset":792160,"byteLength":14424,"target":34962},{"buffer":0,"byteOffset":806584,"byteLength":14424,"target":34962},{"buffer":0,"byteOffset":821008,"byteLength":7680,"target":34963},{"buffer":0,"byteOffset":828688,"byteLength":42036,"target":34962},{"buffer":0,"byteOffset":870724,"byteLength":42036,"target":34962},{"buffer":0,"byteOffset":912760,"byteLength":59904,"target":34963},{"buffer":0,"byteOffset":972664,"byteLength":432,"target":34962},{"buffer":0,"byteOffset":973096,"byteLength":432,"target":34962},{"buffer":0,"byteOffset":973528,"byteLength":288,"target":34963},{"buffer":0,"byteOffset":973816,"byteLength":42036,"target":34962},{"buffer":0,"byteOffset":1015852,"byteLength":42036,"target":34962},{"buffer":0,"byteOffset":1057888,"byteLength":59904,"target":34963},{"buffer":0,"byteOffset":1117792,"byteLength":432,"target":34962},{"buffer":0,"byteOffset":1118224,"byteLength":432,"target":34962},{"buffer":0,"byteOffset":1118656,"byteLength":288,"target":34963},{"buffer":0,"byteOffset":1118944,"byteLength":9036,"target":34962},{"buffer":0,"byteOffset":1127980,"byteLength":9036,"target":34962},{"buffer":0,"byteOffset":1137016,"byteLength":12960,"target":34963},{"buffer":0,"byteOffset":1149976,"byteLength":9036,"target":34962},{"buffer":0,"byteOffset":1159012,"byteLength":9036,"target":34962},{"buffer":0,"byteOffset":1168048,"byteLength":12960,"target":34963},{"buffer":0,"byteOffset":1181008,"byteLength":2304,"target":34962},{"buffer":0,"byteOffset":1183312,"byteLength":2304,"target":34962},{"buffer":0,"byteOffset":1185616,"byteLength":1152,"target":34963},{"buffer":0,"byteOffset":1186768,"byteLength":6912,"target":34962},{"buffer":0,"byteOffset":1193680,"byteLength":6912,"target":34962},{"buffer":0,"byteOffset":1200592,"byteLength":3456,"target":34963}],"accessors":[{"bufferView":0,"componentType":5126,"count":2665,"type":"VEC3","min":[-2.9,-2.9,-28.5],"max":[2.9,2.9,28.5]},{"bufferView":1,"componentType":5126,"count":2665,"type":"VEC3"},{"bufferView":2,"componentType":5126,"count":2665,"type":"VEC2"},{"bufferView":3,"componentType":5125,"count":15360,"type":"SCALAR"},{"bufferView":4,"componentType":5126,"count":90,"type":"VEC3","min":[-11.540000000000001,-3.4749999999999996,-27.93],"max":[11.26,1.8399999999999999,2.5650000000000004]},{"bufferView":5,"componentType":5126,"count":90,"type":"VEC3"},{"bufferView":6,"componentType":5125,"count":144,"type":"SCALAR"},{"bufferView":7,"componentType":5126,"count":24,"type":"VEC3","min":[-0.1,1.16,-28.215],"max":[0.1,11.165,-15.96]},{"bufferView":8,"componentType":5126,"count":24,"type":"VEC3"},{"bufferView":9,"componentType":5125,"count":36,"type":"SCALAR"},{"bufferView":10,"componentType":5126,"count":15936,"type":"VEC3","min":[-12.9312,-4.866199999999999,-13.240000000000002],"max":[12.9312,2.3905253503781587,25.251]},{"bufferView":11,"componentType":5126,"count":15936,"type":"VEC3"},{"bufferView":12,"componentType":5126,"count":16,"type":"VEC3","min":[-2.94,-1.218,-25.536],"max":[2.94,9.227,13.295]},{"bufferView":13,"componentType":5126,"count":16,"type":"VEC3"},{"bufferView":14,"componentType":5126,"count":16,"type":"VEC2"},{"bufferView":15,"componentType":5125,"count":24,"type":"SCALAR"},{"bufferView":16,"componentType":5126,"count":3068,"type":"VEC3","min":[-13.199160000000001,-5.13416,-13.545000000000002],"max":[13.199160000000001,2.399185604416003,25.251]},{"bufferView":17,"componentType":5126,"count":3068,"type":"VEC3"},{"bufferView":18,"componentType":5125,"count":8640,"type":"SCALAR"},{"bufferView":19,"componentType":5126,"count":1698,"type":"VEC3","min":[-13.314,-5.249,-10.83],"max":[13.314,-1.4209999999999996,17.099999999999998]},{"bufferView":20,"componentType":5126,"count":1698,"type":"VEC3"},{"bufferView":21,"componentType":5125,"count":9228,"type":"SCALAR"},{"bufferView":22,"componentType":5126,"count":1202,"type":"VEC3","min":[-0.25,-0.4,-0.4],"max":[0.25,0.4,0.4]},{"bufferView":23,"componentType":5126,"count":1202,"type":"VEC3"},{"bufferView":24,"componentType":5125,"count":1920,"type":"SCALAR"},{"bufferView":25,"componentType":5126,"count":1202,"type":"VEC3","min":[-0.25,-0.4,-0.4],"max":[0.25,0.4,0.4]},{"bufferView":26,"componentType":5126,"count":1202,"type":"VEC3"},{"bufferView":27,"componentType":5125,"count":1920,"type":"SCALAR"},{"bufferView":28,"componentType":5126,"count":1202,"type":"VEC3","min":[-0.25,-0.4,-0.4],"max":[0.25,0.4,0.4]},{"bufferView":29,"componentType":5126,"count":1202,"type":"VEC3"},{"bufferView":30,"componentType":5125,"count":1920,"type":"SCALAR"},{"bufferView":31,"componentType":5126,"count":3503,"type":"VEC3","min":[-30.0,-1.943200365272899,-16.098782608695654],"max":[-2.175,1.5128209281994585,5.7]},{"bufferView":32,"componentType":5126,"count":3503,"type":"VEC3"},{"bufferView":33,"componentType":5125,"count":14976,"type":"SCALAR"},{"bufferView":34,"componentType":5126,"count":36,"type":"VEC3","min":[-30.0,-0.8644763180901007,-14.348324999999999],"max":[-2.175,1.4927159695280643,-4.765200000000001]},{"bufferView":35,"componentType":5126,"count":36,"type":"VEC3"},{"bufferView":36,"componentType":5125,"count":72,"type":"SCALAR"},{"bufferView":37,"componentType":5126,"count":3503,"type":"VEC3","min":[2.175,-1.943200365272899,-16.098782608695654],"max":[30.0,1.5128209281994585,5.7]},{"bufferView":38,"componentType":5126,"count":3503,"type":"VEC3"},{"bufferView":39,"componentType":5125,"count":14976,"type":"SCALAR"},{"bufferView":40,"componentType":5126,"count":36,"type":"VEC3","min":[2.175,-0.8644763180901007,-14.348324999999999],"max":[30.0,1.4927159695280643,-4.765200000000001]},{"bufferView":41,"componentType":5126,"count":36,"type":"VEC3"},{"bufferView":42,"componentType":5125,"count":72,"type":"SCALAR"},{"bufferView":43,"componentType":5126,"count":753,"type":"VEC3","min":[-12.873765737235171,-4.808765737235171,1.7091599999999998],"max":[-9.92623426276483,-1.8612342627648284,3.1350000000000002]},{"bufferView":44,"componentType":5126,"count":753,"type":"VEC3"},{"bufferView":45,"componentType":5125,"count":3240,"type":"SCALAR"},{"bufferView":46,"componentType":5126,"count":753,"type":"VEC3","min":[9.92623426276483,-4.808765737235171,1.7091599999999998],"max":[12.873765737235171,-1.8612342627648284,3.1350000000000002]},{"bufferView":47,"componentType":5126,"count":753,"type":"VEC3"},{"bufferView":48,"componentType":5125,"count":3240,"type":"SCALAR"},{"bufferView":49,"componentType":5126,"count":192,"type":"VEC3","min":[-2.44,-4.1,-5.82],"max":[2.44,-3.5,16.65]},{"bufferView":50,"componentType":5126,"count":192,"type":"VEC3"},{"bufferView":51,"componentType":5125,"count":288,"type":"SCALAR"},{"bufferView":52,"componentType":5126,"count":576,"type":"VEC3","min":[-2.61,-4.7,-5.9],"max":[2.61,-2.03,16.9834244320405]},{"bufferView":53,"componentType":5126,"count":576,"type":"VEC3"},{"bufferView":54,"componentType":5125,"count":864,"type":"SCALAR"}],"images":[{"uri":"../../airlines/SWA.png"},{"uri":"fallback-paint-v5.png"}],"textures":[{"source":0,"sampler":0},{"source":1,"sampler":0}],"samplers":[{"magFilter":9729,"minFilter":9987,"wrapS":33071,"wrapT":33071}]}