{"asset":{"version":"2.0","generator":"Skyward original illustrative b788 profile; logos for operator identification"},"scene":0,"scenes":[{"nodes":[0,1]}],"nodes":[{"mesh":0},{"mesh":1,"name":"Gear","children":[2,3,4]},{"mesh":2,"name":"WheelN","translation":[0,-4.5,16.529999999999998]},{"mesh":3,"name":"WheelL","translation":[-2.32,-4.5,-5.7]},{"mesh":4,"name":"WheelR","translation":[2.32,-4.5,-5.7]}],"meshes":[{"primitives":[{"attributes":{"POSITION":0,"NORMAL":1},"material":0},{"attributes":{"POSITION":2,"NORMAL":3},"material":1},{"attributes":{"POSITION":4,"NORMAL":5},"material":2},{"attributes":{"POSITION":6,"NORMAL":7},"material":3},{"attributes":{"POSITION":10,"NORMAL":11,"TEXCOORD_0":12},"material":5},{"attributes":{"POSITION":13,"NORMAL":14},"material":6},{"attributes":{"POSITION":15,"NORMAL":16},"material":7}]},{"primitives":[{"attributes":{"POSITION":8,"NORMAL":9},"material":4}]},{"primitives":[{"attributes":{"POSITION":17,"NORMAL":18},"material":4,"extras":{"wheel":0}}]},{"primitives":[{"attributes":{"POSITION":19,"NORMAL":20},"material":4,"extras":{"wheel":1}}]},{"primitives":[{"attributes":{"POSITION":21,"NORMAL":22},"material":4,"extras":{"wheel":2}}]}],"materials":[{"doubleSided":true,"pbrMetallicRoughness":{"baseColorFactor":[0.94,0.95,0.96,1],"metallicFactor":0.18,"roughnessFactor":0.3}},{"doubleSided":true,"pbrMetallicRoughness":{"baseColorFactor":[0.64,0.68,0.72,1],"metallicFactor":0.18,"roughnessFactor":0.3}},{"doubleSided":true,"pbrMetallicRoughness":{"baseColorFactor":[0.08627450980392157,0.27058823529411763,0.48627450980392156,1],"metallicFactor":0.18,"roughnessFactor":0.3}},{"doubleSided":true,"pbrMetallicRoughness":{"baseColorFactor":[0.02,0.055,0.085,1],"metallicFactor":0.18,"roughnessFactor":0.17}},{"doubleSided":true,"pbrMetallicRoughness":{"baseColorFactor":[0.07,0.08,0.09,1],"metallicFactor":0.18,"roughnessFactor":0.3}},{"doubleSided":true,"pbrMetallicRoughness":{"baseColorFactor":[1,1,1,1],"metallicFactor":0,"roughnessFactor":0.75,"baseColorTexture":{"index":0}},"alphaMode":"MASK","alphaCutoff":0.08},{"doubleSided":true,"pbrMetallicRoughness":{"baseColorFactor":[0.36,0.4,0.44,1],"metallicFactor":0.7,"roughnessFactor":0.3}},{"doubleSided":true,"pbrMetallicRoughness":{"baseColorFactor":[0.08627450980392157,0.27058823529411763,0.48627450980392156,1],"metallicFactor":0.18,"roughnessFactor":0.3}}],"buffers":[{"uri":"b788-v4.bin?tail=2","byteLength":253056}],"bufferViews":[{"buffer":0,"byteOffset":0,"byteLength":34560,"target":34962},{"buffer":0,"byteOffset":34560,"byteLength":34560,"target":34962},{"buffer":0,"byteOffset":69120,"byteLength":2880,"target":34962},{"buffer":0,"byteOffset":72000,"byteLength":2880,"target":34962},{"buffer":0,"byteOffset":74880,"byteLength":432,"target":34962},{"buffer":0,"byteOffset":75312,"byteLength":432,"target":34962},{"buffer":0,"byteOffset":75744,"byteLength":37008,"target":34962},{"buffer":0,"byteOffset":112752,"byteLength":37008,"target":34962},{"buffer":0,"byteOffset":149760,"byteLength":1296,"target":34962},{"buffer":0,"byteOffset":151056,"byteLength":1296,"target":34962},{"buffer":0,"byteOffset":152352,"byteLength":288,"target":34962},{"buffer":0,"byteOffset":152640,"byteLength":288,"target":34962},{"buffer":0,"byteOffset":152928,"byteLength":192,"target":34962},{"buffer":0,"byteOffset":153120,"byteLength":15264,"target":34962},{"buffer":0,"byteOffset":168384,"byteLength":15264,"target":34962},{"buffer":0,"byteOffset":183648,"byteLength":20880,"target":34962},{"buffer":0,"byteOffset":204528,"byteLength":20880,"target":34962},{"buffer":0,"byteOffset":225408,"byteLength":4608,"target":34962},{"buffer":0,"byteOffset":230016,"byteLength":4608,"target":34962},{"buffer":0,"byteOffset":234624,"byteLength":4608,"target":34962},{"buffer":0,"byteOffset":239232,"byteLength":4608,"target":34962},{"buffer":0,"byteOffset":243840,"byteLength":4608,"target":34962},{"buffer":0,"byteOffset":248448,"byteLength":4608,"target":34962}],"accessors":[{"bufferView":0,"componentType":5126,"count":2880,"type":"VEC3","min":[-2.9,-2.9,-28.5],"max":[2.9,2.9,28.5]},{"bufferView":1,"componentType":5126,"count":2880,"type":"VEC3"},{"bufferView":2,"componentType":5126,"count":240,"type":"VEC3","min":[-30.0,-3.4749999999999996,-27.93],"max":[30.0,1.8399999999999999,5.7]},{"bufferView":3,"componentType":5126,"count":240,"type":"VEC3"},{"bufferView":4,"componentType":5126,"count":36,"type":"VEC3","min":[-0.1,1.16,-28.215],"max":[0.1,11.165,-15.96]},{"bufferView":5,"componentType":5126,"count":36,"type":"VEC3"},{"bufferView":6,"componentType":5126,"count":3084,"type":"VEC3","min":[-12.9312,-4.866199999999999,-13.240000000000002],"max":[12.9312,1.943,23.654999999999998]},{"bufferView":7,"componentType":5126,"count":3084,"type":"VEC3"},{"bufferView":8,"componentType":5126,"count":108,"type":"VEC3","min":[-2.42,-4.5,-5.8],"max":[2.42,-2.9000000000000004,16.63]},{"bufferView":9,"componentType":5126,"count":108,"type":"VEC3"},{"bufferView":10,"componentType":5126,"count":24,"type":"VEC3","min":[-2.94,-1.218,-25.536],"max":[2.94,9.227,13.295]},{"bufferView":11,"componentType":5126,"count":24,"type":"VEC3"},{"bufferView":12,"componentType":5126,"count":24,"type":"VEC2"},{"bufferView":13,"componentType":5126,"count":1272,"type":"VEC3","min":[-13.199160000000001,-5.13416,-13.110000000000001],"max":[13.199160000000001,1.74,16.01]},{"bufferView":14,"componentType":5126,"count":1272,"type":"VEC3"},{"bufferView":15,"componentType":5126,"count":1740,"type":"VEC3","min":[-13.314,-5.249,-10.83],"max":[13.314,-1.4209999999999996,17.099999999999998]},{"bufferView":16,"componentType":5126,"count":1740,"type":"VEC3"},{"bufferView":17,"componentType":5126,"count":384,"type":"VEC3","min":[-0.25,-0.4,-0.4],"max":[0.25,0.4,0.4]},{"bufferView":18,"componentType":5126,"count":384,"type":"VEC3"},{"bufferView":19,"componentType":5126,"count":384,"type":"VEC3","min":[-0.25,-0.4,-0.4],"max":[0.25,0.4,0.4]},{"bufferView":20,"componentType":5126,"count":384,"type":"VEC3"},{"bufferView":21,"componentType":5126,"count":384,"type":"VEC3","min":[-0.25,-0.4,-0.4],"max":[0.25,0.4,0.4]},{"bufferView":22,"componentType":5126,"count":384,"type":"VEC3"}],"images":[{"uri":"../../airlines/RYR.png"}],"textures":[{"source":0,"sampler":0}],"samplers":[{"magFilter":9729,"minFilter":9987,"wrapS":33071,"wrapT":33071}]}