{"asset":{"version":"2.0","generator":"Skyward detailed procedural b788 fallback v6; approximate airframe; operator identification logos"},"scene":0,"scenes":[{"nodes":[0,1,7,8,9,10,11,12,13,14,15,16,17,18,19]}],"nodes":[{"mesh":0},{"mesh":1,"name":"Gear","children":[2,3,4,5,6]},{"mesh":2,"name":"WheelN","translation":[0,-4.5,16.529999999999998]},{"mesh":3,"name":"WheelL","translation":[-3.19,-4.5,-6.2250000000000005]},{"mesh":4,"name":"WheelR","translation":[3.19,-4.5,-6.2250000000000005]},{"mesh":5,"name":"WheelL2","translation":[-3.19,-4.5,-5.175]},{"mesh":6,"name":"WheelR2","translation":[3.19,-4.5,-5.175]},{"mesh":7,"name":"SlatL"},{"mesh":8,"name":"FlapL"},{"mesh":9,"name":"SpoilerL"},{"mesh":10,"name":"ElevatorL"},{"mesh":11,"name":"SlatR"},{"mesh":12,"name":"FlapR"},{"mesh":13,"name":"SpoilerR"},{"mesh":14,"name":"ElevatorR"},{"mesh":15,"name":"Rudder"},{"mesh":16,"name":"FlexWingL"},{"mesh":17,"name":"FlexWingR"},{"mesh":18,"name":"SkywardFan0"},{"mesh":19,"name":"SkywardFan1"}],"meshes":[{"name":"AirframeWithCockpitGlazing","primitives":[{"indices":3,"attributes":{"POSITION":0,"NORMAL":1,"TEXCOORD_0":2},"material":0},{"indices":6,"attributes":{"POSITION":4,"NORMAL":5},"material":1},{"indices":9,"attributes":{"POSITION":7,"NORMAL":8},"material":2},{"attributes":{"POSITION":10,"NORMAL":11},"material":3},{"indices":15,"attributes":{"POSITION":12,"NORMAL":13,"TEXCOORD_0":14},"material":5},{"indices":18,"attributes":{"POSITION":16,"NORMAL":17},"material":6},{"indices":21,"attributes":{"POSITION":19,"NORMAL":20},"material":7},{"attributes":{"POSITION":107,"NORMAL":108,"TEXCOORD_0":109},"material":8}]},{"primitives":[{"indices":58,"attributes":{"POSITION":55,"NORMAL":56,"TEXCOORD_0":57},"material":0,"extras":{"gear":true}},{"indices":61,"attributes":{"POSITION":59,"NORMAL":60},"material":1,"extras":{"gear":true}},{"indices":64,"attributes":{"POSITION":62,"NORMAL":63},"material":6,"extras":{"gear":true}}]},{"primitives":[{"indices":24,"attributes":{"POSITION":22,"NORMAL":23},"material":4,"extras":{"wheel":0}},{"indices":94,"attributes":{"POSITION":92,"NORMAL":93},"material":6,"extras":{"wheel":0}}]},{"primitives":[{"indices":27,"attributes":{"POSITION":25,"NORMAL":26},"material":4,"extras":{"wheel":1}},{"indices":97,"attributes":{"POSITION":95,"NORMAL":96},"material":6,"extras":{"wheel":1}}]},{"primitives":[{"indices":30,"attributes":{"POSITION":28,"NORMAL":29},"material":4,"extras":{"wheel":2}},{"indices":100,"attributes":{"POSITION":98,"NORMAL":99},"material":6,"extras":{"wheel":2}}]},{"primitives":[{"indices":33,"attributes":{"POSITION":31,"NORMAL":32},"material":4,"extras":{"wheel":3}},{"indices":103,"attributes":{"POSITION":101,"NORMAL":102},"material":6,"extras":{"wheel":3}}]},{"primitives":[{"indices":36,"attributes":{"POSITION":34,"NORMAL":35},"material":4,"extras":{"wheel":4}},{"indices":106,"attributes":{"POSITION":104,"NORMAL":105},"material":6,"extras":{"wheel":4}}]},{"primitives":[{"indices":67,"attributes":{"POSITION":65,"NORMAL":66},"material":1,"extras":{"surface":0}}]},{"primitives":[{"indices":70,"attributes":{"POSITION":68,"NORMAL":69},"material":1,"extras":{"surface":1}}]},{"primitives":[{"indices":73,"attributes":{"POSITION":71,"NORMAL":72},"material":1,"extras":{"surface":2}}]},{"primitives":[{"indices":76,"attributes":{"POSITION":74,"NORMAL":75},"material":1,"extras":{"surface":3}}]},{"primitives":[{"indices":79,"attributes":{"POSITION":77,"NORMAL":78},"material":1,"extras":{"surface":4}}]},{"primitives":[{"indices":82,"attributes":{"POSITION":80,"NORMAL":81},"material":1,"extras":{"surface":5}}]},{"primitives":[{"indices":85,"attributes":{"POSITION":83,"NORMAL":84},"material":1,"extras":{"surface":6}}]},{"primitives":[{"indices":88,"attributes":{"POSITION":86,"NORMAL":87},"material":1,"extras":{"surface":7}}]},{"primitives":[{"indices":91,"attributes":{"POSITION":89,"NORMAL":90},"material":2,"extras":{"surface":8}}]},{"primitives":[{"indices":39,"attributes":{"POSITION":37,"NORMAL":38},"material":1,"extras":{"wing":0}},{"indices":42,"attributes":{"POSITION":40,"NORMAL":41},"material":6,"extras":{"wing":0}}]},{"primitives":[{"indices":45,"attributes":{"POSITION":43,"NORMAL":44},"material":1,"extras":{"wing":1}},{"indices":48,"attributes":{"POSITION":46,"NORMAL":47},"material":6,"extras":{"wing":1}}]},{"primitives":[{"indices":51,"attributes":{"POSITION":49,"NORMAL":50},"material":6,"extras":{"fan":0}}]},{"primitives":[{"indices":54,"attributes":{"POSITION":52,"NORMAL":53},"material":6,"extras":{"fan":1}}]}],"materials":[{"doubleSided":true,"pbrMetallicRoughness":{"baseColorFactor":[0.94,0.95,0.96,1],"metallicFactor":0.04,"roughnessFactor":0.27,"baseColorTexture":{"index":1}}},{"doubleSided":true,"pbrMetallicRoughness":{"baseColorFactor":[0.64,0.68,0.72,1],"metallicFactor":0.04,"roughnessFactor":0.4}},{"doubleSided":true,"pbrMetallicRoughness":{"baseColorFactor":[0.09019607843137255,0.1843137254901961,0.3607843137254902,1],"metallicFactor":0.04,"roughnessFactor":0.27}},{"doubleSided":true,"pbrMetallicRoughness":{"baseColorFactor":[0.02,0.055,0.085,1],"metallicFactor":0,"roughnessFactor":0.12}},{"doubleSided":true,"pbrMetallicRoughness":{"baseColorFactor":[0.07,0.08,0.09,1],"metallicFactor":0,"roughnessFactor":0.86}},{"doubleSided":true,"pbrMetallicRoughness":{"baseColorFactor":[1,1,1,1],"metallicFactor":0,"roughnessFactor":0.75,"baseColorTexture":{"index":0}},"alphaMode":"MASK","alphaCutoff":0.08},{"doubleSided":true,"pbrMetallicRoughness":{"baseColorFactor":[0.36,0.4,0.44,1],"metallicFactor":0.8,"roughnessFactor":0.28}},{"doubleSided":true,"pbrMetallicRoughness":{"baseColorFactor":[0.09019607843137255,0.1843137254901961,0.3607843137254902,1],"metallicFactor":0.04,"roughnessFactor":0.27}},{"name":"Operator title","doubleSided":true,"alphaMode":"MASK","alphaCutoff":0.15,"pbrMetallicRoughness":{"baseColorTexture":{"index":2},"baseColorFactor":[0.09019607843137255,0.1843137254901961,0.3607843137254902,1],"roughnessFactor":0.6,"metallicFactor":0}}],"buffers":[{"uri":"b788-v4.bin?tail=2&rig=1&detail=6","byteLength":1450048},{"uri":"b788-title.bin?detail=6","byteLength":18432}],"bufferViews":[{"buffer":0,"byteOffset":0,"byteLength":31980,"target":34962},{"buffer":0,"byteOffset":31980,"byteLength":31980,"target":34962},{"buffer":0,"byteOffset":63960,"byteLength":21320,"target":34962},{"buffer":0,"byteOffset":85280,"byteLength":61440,"target":34963},{"buffer":0,"byteOffset":146720,"byteLength":1080,"target":34962},{"buffer":0,"byteOffset":147800,"byteLength":1080,"target":34962},{"buffer":0,"byteOffset":148880,"byteLength":576,"target":34963},{"buffer":0,"byteOffset":149456,"byteLength":288,"target":34962},{"buffer":0,"byteOffset":149744,"byteLength":288,"target":34962},{"buffer":0,"byteOffset":150032,"byteLength":144,"target":34963},{"buffer":0,"byteOffset":150176,"byteLength":191232,"target":34962},{"buffer":0,"byteOffset":341408,"byteLength":191232,"target":34962},{"buffer":0,"byteOffset":532640,"byteLength":192,"target":34962},{"buffer":0,"byteOffset":532832,"byteLength":192,"target":34962},{"buffer":0,"byteOffset":533024,"byteLength":128,"target":34962},{"buffer":0,"byteOffset":533152,"byteLength":96,"target":34963},{"buffer":0,"byteOffset":533248,"byteLength":50760,"target":34962},{"buffer":0,"byteOffset":584008,"byteLength":50760,"target":34962},{"buffer":0,"byteOffset":634768,"byteLength":49920,"target":34963},{"buffer":0,"byteOffset":684688,"byteLength":20376,"target":34962},{"buffer":0,"byteOffset":705064,"byteLength":20376,"target":34962},{"buffer":0,"byteOffset":725440,"byteLength":36912,"target":34963},{"buffer":0,"byteOffset":762352,"byteLength":21504,"target":34962},{"buffer":0,"byteOffset":783856,"byteLength":21504,"target":34962},{"buffer":0,"byteOffset":805360,"byteLength":10752,"target":34963},{"buffer":0,"byteOffset":816112,"byteLength":21504,"target":34962},{"buffer":0,"byteOffset":837616,"byteLength":21504,"target":34962},{"buffer":0,"byteOffset":859120,"byteLength":10752,"target":34963},{"buffer":0,"byteOffset":869872,"byteLength":21504,"target":34962},{"buffer":0,"byteOffset":891376,"byteLength":21504,"target":34962},{"buffer":0,"byteOffset":912880,"byteLength":10752,"target":34963},{"buffer":0,"byteOffset":923632,"byteLength":21504,"target":34962},{"buffer":0,"byteOffset":945136,"byteLength":21504,"target":34962},{"buffer":0,"byteOffset":966640,"byteLength":10752,"target":34963},{"buffer":0,"byteOffset":977392,"byteLength":21504,"target":34962},{"buffer":0,"byteOffset":998896,"byteLength":21504,"target":34962},{"buffer":0,"byteOffset":1020400,"byteLength":10752,"target":34963},{"buffer":0,"byteOffset":1031152,"byteLength":39156,"target":34962},{"buffer":0,"byteOffset":1070308,"byteLength":39156,"target":34962},{"buffer":0,"byteOffset":1109464,"byteLength":58944,"target":34963},{"buffer":0,"byteOffset":1168408,"byteLength":432,"target":34962},{"buffer":0,"byteOffset":1168840,"byteLength":432,"target":34962},{"buffer":0,"byteOffset":1169272,"byteLength":288,"target":34963},{"buffer":0,"byteOffset":1169560,"byteLength":39156,"target":34962},{"buffer":0,"byteOffset":1208716,"byteLength":39156,"target":34962},{"buffer":0,"byteOffset":1247872,"byteLength":58944,"target":34963},{"buffer":0,"byteOffset":1306816,"byteLength":432,"target":34962},{"buffer":0,"byteOffset":1307248,"byteLength":432,"target":34962},{"buffer":0,"byteOffset":1307680,"byteLength":288,"target":34963},{"buffer":0,"byteOffset":1307968,"byteLength":9036,"target":34962},{"buffer":0,"byteOffset":1317004,"byteLength":9036,"target":34962},{"buffer":0,"byteOffset":1326040,"byteLength":12960,"target":34963},{"buffer":0,"byteOffset":1339000,"byteLength":9036,"target":34962},{"buffer":0,"byteOffset":1348036,"byteLength":9036,"target":34962},{"buffer":0,"byteOffset":1357072,"byteLength":12960,"target":34963},{"buffer":0,"byteOffset":1370032,"byteLength":864,"target":34962},{"buffer":0,"byteOffset":1370896,"byteLength":864,"target":34962},{"buffer":0,"byteOffset":1371760,"byteLength":576,"target":34962},{"buffer":0,"byteOffset":1372336,"byteLength":432,"target":34963},{"buffer":0,"byteOffset":1372768,"byteLength":3840,"target":34962},{"buffer":0,"byteOffset":1376608,"byteLength":3840,"target":34962},{"buffer":0,"byteOffset":1380448,"byteLength":1920,"target":34963},{"buffer":0,"byteOffset":1382368,"byteLength":11520,"target":34962},{"buffer":0,"byteOffset":1393888,"byteLength":11520,"target":34962},{"buffer":0,"byteOffset":1405408,"byteLength":5760,"target":34963},{"buffer":0,"byteOffset":1411168,"byteLength":864,"target":34962},{"buffer":0,"byteOffset":1412032,"byteLength":864,"target":34962},{"buffer":0,"byteOffset":1412896,"byteLength":288,"target":34963},{"buffer":0,"byteOffset":1413184,"byteLength":1728,"target":34962},{"buffer":0,"byteOffset":1414912,"byteLength":1728,"target":34962},{"buffer":0,"byteOffset":1416640,"byteLength":576,"target":34963},{"buffer":0,"byteOffset":1417216,"byteLength":288,"target":34962},{"buffer":0,"byteOffset":1417504,"byteLength":288,"target":34962},{"buffer":0,"byteOffset":1417792,"byteLength":96,"target":34963},{"buffer":0,"byteOffset":1417888,"byteLength":288,"target":34962},{"buffer":0,"byteOffset":1418176,"byteLength":288,"target":34962},{"buffer":0,"byteOffset":1418464,"byteLength":144,"target":34963},{"buffer":0,"byteOffset":1418608,"byteLength":864,"target":34962},{"buffer":0,"byteOffset":1419472,"byteLength":864,"target":34962},{"buffer":0,"byteOffset":1420336,"byteLength":288,"target":34963},{"buffer":0,"byteOffset":1420624,"byteLength":1728,"target":34962},{"buffer":0,"byteOffset":1422352,"byteLength":1728,"target":34962},{"buffer":0,"byteOffset":1424080,"byteLength":576,"target":34963},{"buffer":0,"byteOffset":1424656,"byteLength":288,"target":34962},{"buffer":0,"byteOffset":1424944,"byteLength":288,"target":34962},{"buffer":0,"byteOffset":1425232,"byteLength":96,"target":34963},{"buffer":0,"byteOffset":1425328,"byteLength":288,"target":34962},{"buffer":0,"byteOffset":1425616,"byteLength":288,"target":34962},{"buffer":0,"byteOffset":1425904,"byteLength":144,"target":34963},{"buffer":0,"byteOffset":1426048,"byteLength":168,"target":34962},{"buffer":0,"byteOffset":1426216,"byteLength":168,"target":34962},{"buffer":0,"byteOffset":1426384,"byteLength":144,"target":34963},{"buffer":0,"byteOffset":1426528,"byteLength":1584,"target":34962},{"buffer":0,"byteOffset":1428112,"byteLength":1584,"target":34962},{"buffer":0,"byteOffset":1429696,"byteLength":1536,"target":34963},{"buffer":0,"byteOffset":1431232,"byteLength":1584,"target":34962},{"buffer":0,"byteOffset":1432816,"byteLength":1584,"target":34962},{"buffer":0,"byteOffset":1434400,"byteLength":1536,"target":34963},{"buffer":0,"byteOffset":1435936,"byteLength":1584,"target":34962},{"buffer":0,"byteOffset":1437520,"byteLength":1584,"target":34962},{"buffer":0,"byteOffset":1439104,"byteLength":1536,"target":34963},{"buffer":0,"byteOffset":1440640,"byteLength":1584,"target":34962},{"buffer":0,"byteOffset":1442224,"byteLength":1584,"target":34962},{"buffer":0,"byteOffset":1443808,"byteLength":1536,"target":34963},{"buffer":0,"byteOffset":1445344,"byteLength":1584,"target":34962},{"buffer":0,"byteOffset":1446928,"byteLength":1584,"target":34962},{"buffer":0,"byteOffset":1448512,"byteLength":1536,"target":34963},{"buffer":1,"byteOffset":0,"byteLength":6912,"target":34962},{"buffer":1,"byteOffset":6912,"byteLength":6912,"target":34962},{"buffer":1,"byteOffset":13824,"byteLength":4608,"target":34962}],"accessors":[{"bufferView":0,"componentType":5126,"count":2665,"type":"VEC3","min":[-2.9,-2.9,-28.5],"max":[2.9,2.9,28.5]},{"bufferView":1,"componentType":5126,"count":2665,"type":"VEC3"},{"bufferView":2,"componentType":5126,"count":2665,"type":"VEC2"},{"bufferView":3,"componentType":5125,"count":15360,"type":"SCALAR"},{"bufferView":4,"componentType":5126,"count":90,"type":"VEC3","min":[-11.540000000000001,-3.4749999999999996,-26.505000000000003],"max":[11.26,1.8399999999999999,2.5650000000000004]},{"bufferView":5,"componentType":5126,"count":90,"type":"VEC3"},{"bufferView":6,"componentType":5125,"count":144,"type":"SCALAR"},{"bufferView":7,"componentType":5126,"count":24,"type":"VEC3","min":[-0.1,1.16,-26.505000000000003],"max":[0.1,9.74,-15.96]},{"bufferView":8,"componentType":5126,"count":24,"type":"VEC3"},{"bufferView":9,"componentType":5125,"count":36,"type":"SCALAR"},{"bufferView":10,"componentType":5126,"count":15936,"type":"VEC3","min":[-12.9312,-4.866199999999999,-13.240000000000002],"max":[12.9312,2.3905253503781587,25.251]},{"bufferView":11,"componentType":5126,"count":15936,"type":"VEC3"},{"bufferView":12,"componentType":5126,"count":16,"type":"VEC3","min":[-2.94,-1.218,-25.536],"max":[2.94,7.961599999999999,13.295]},{"bufferView":13,"componentType":5126,"count":16,"type":"VEC3"},{"bufferView":14,"componentType":5126,"count":16,"type":"VEC2"},{"bufferView":15,"componentType":5125,"count":24,"type":"SCALAR"},{"bufferView":16,"componentType":5126,"count":4230,"type":"VEC3","min":[-13.279548,-5.214548,-13.545000000000002],"max":[13.279548,2.399185604416003,25.251]},{"bufferView":17,"componentType":5126,"count":4230,"type":"VEC3"},{"bufferView":18,"componentType":5125,"count":12480,"type":"SCALAR"},{"bufferView":19,"componentType":5126,"count":1698,"type":"VEC3","min":[-13.314,-5.249,-10.83],"max":[13.314,-1.4209999999999996,17.099999999999998]},{"bufferView":20,"componentType":5126,"count":1698,"type":"VEC3"},{"bufferView":21,"componentType":5125,"count":9228,"type":"SCALAR"},{"bufferView":22,"componentType":5126,"count":1792,"type":"VEC3","min":[-0.41000000000000003,-0.4,-0.4],"max":[0.41000000000000003,0.4,0.4]},{"bufferView":23,"componentType":5126,"count":1792,"type":"VEC3"},{"bufferView":24,"componentType":5125,"count":2688,"type":"SCALAR"},{"bufferView":25,"componentType":5126,"count":1792,"type":"VEC3","min":[-0.41000000000000003,-0.52,-0.52],"max":[0.41000000000000003,0.52,0.52]},{"bufferView":26,"componentType":5126,"count":1792,"type":"VEC3"},{"bufferView":27,"componentType":5125,"count":2688,"type":"SCALAR"},{"bufferView":28,"componentType":5126,"count":1792,"type":"VEC3","min":[-0.41000000000000003,-0.52,-0.52],"max":[0.41000000000000003,0.52,0.52]},{"bufferView":29,"componentType":5126,"count":1792,"type":"VEC3"},{"bufferView":30,"componentType":5125,"count":2688,"type":"SCALAR"},{"bufferView":31,"componentType":5126,"count":1792,"type":"VEC3","min":[-0.41000000000000003,-0.52,-0.52],"max":[0.41000000000000003,0.52,0.52]},{"bufferView":32,"componentType":5126,"count":1792,"type":"VEC3"},{"bufferView":33,"componentType":5125,"count":2688,"type":"SCALAR"},{"bufferView":34,"componentType":5126,"count":1792,"type":"VEC3","min":[-0.41000000000000003,-0.52,-0.52],"max":[0.41000000000000003,0.52,0.52]},{"bufferView":35,"componentType":5126,"count":1792,"type":"VEC3"},{"bufferView":36,"componentType":5125,"count":2688,"type":"SCALAR"},{"bufferView":37,"componentType":5126,"count":3263,"type":"VEC3","min":[-30.0,-1.943200365272899,-16.941391304347828],"max":[-2.175,1.5128209281994585,5.7]},{"bufferView":38,"componentType":5126,"count":3263,"type":"VEC3"},{"bufferView":39,"componentType":5125,"count":14736,"type":"SCALAR"},{"bufferView":40,"componentType":5126,"count":36,"type":"VEC3","min":[-30.0,-0.8644763180901007,-15.488324999999998],"max":[-2.175,1.4927159695280643,-4.765200000000001]},{"bufferView":41,"componentType":5126,"count":36,"type":"VEC3"},{"bufferView":42,"componentType":5125,"count":72,"type":"SCALAR"},{"bufferView":43,"componentType":5126,"count":3263,"type":"VEC3","min":[2.175,-1.943200365272899,-16.941391304347828],"max":[30.0,1.5128209281994585,5.7]},{"bufferView":44,"componentType":5126,"count":3263,"type":"VEC3"},{"bufferView":45,"componentType":5125,"count":14736,"type":"SCALAR"},{"bufferView":46,"componentType":5126,"count":36,"type":"VEC3","min":[2.175,-0.8644763180901007,-15.488324999999998],"max":[30.0,1.4927159695280643,-4.765200000000001]},{"bufferView":47,"componentType":5126,"count":36,"type":"VEC3"},{"bufferView":48,"componentType":5125,"count":72,"type":"SCALAR"},{"bufferView":49,"componentType":5126,"count":753,"type":"VEC3","min":[-12.873765737235171,-4.808765737235171,1.7091599999999998],"max":[-9.92623426276483,-1.8612342627648284,3.1350000000000002]},{"bufferView":50,"componentType":5126,"count":753,"type":"VEC3"},{"bufferView":51,"componentType":5125,"count":3240,"type":"SCALAR"},{"bufferView":52,"componentType":5126,"count":753,"type":"VEC3","min":[9.92623426276483,-4.808765737235171,1.7091599999999998],"max":[12.873765737235171,-1.8612342627648284,3.1350000000000002]},{"bufferView":53,"componentType":5126,"count":753,"type":"VEC3"},{"bufferView":54,"componentType":5125,"count":3240,"type":"SCALAR"},{"bufferView":55,"componentType":5126,"count":72,"type":"VEC3","min":[-3.81,-3.925,-6.875000000000001],"max":[2.71,-2.15,17.179999999999996]},{"bufferView":56,"componentType":5126,"count":72,"type":"VEC3"},{"bufferView":57,"componentType":5126,"count":72,"type":"VEC2"},{"bufferView":58,"componentType":5125,"count":108,"type":"SCALAR"},{"bufferView":59,"componentType":5126,"count":320,"type":"VEC3","min":[-3.31,-4.1,-6.345000000000001],"max":[3.31,-3.5,16.65]},{"bufferView":60,"componentType":5126,"count":320,"type":"VEC3"},{"bufferView":61,"componentType":5125,"count":480,"type":"SCALAR"},{"bufferView":62,"componentType":5126,"count":960,"type":"VEC3","min":[-3.61,-4.59,-6.315],"max":[3.61,-2.03,16.9834244320405]},{"bufferView":63,"componentType":5126,"count":960,"type":"VEC3"},{"bufferView":64,"componentType":5125,"count":1440,"type":"SCALAR"},{"bufferView":65,"componentType":5126,"count":72,"type":"VEC3","min":[-27.0,-1.7027234227358328,-12.132707499257123],"max":[-2.175,0.7807759372232383,5.7]},{"bufferView":66,"componentType":5126,"count":72,"type":"VEC3"},{"bufferView":67,"componentType":5125,"count":72,"type":"SCALAR"},{"bufferView":68,"componentType":5126,"count":144,"type":"VEC3","min":[-27.0,-1.464262326623122,-16.244999999999997],"max":[-2.175,0.7734847377676852,-7.436186681230484]},{"bufferView":69,"componentType":5126,"count":144,"type":"VEC3"},{"bufferView":70,"componentType":5125,"count":144,"type":"SCALAR"},{"bufferView":71,"componentType":5126,"count":24,"type":"VEC3","min":[-27.0,-0.721558276932944,-15.176249999999998],"max":[-2.175,0.858352578420537,-3.986612552063897]},{"bufferView":72,"componentType":5126,"count":24,"type":"VEC3"},{"bufferView":73,"componentType":5125,"count":24,"type":"SCALAR"},{"bufferView":74,"componentType":5126,"count":24,"type":"VEC3","min":[-10.799999999999999,1.0999999999999999,-27.93],"max":[-1.16,1.8199999999999998,-23.654999999999998]},{"bufferView":75,"componentType":5126,"count":24,"type":"VEC3"},{"bufferView":76,"componentType":5125,"count":36,"type":"SCALAR"},{"bufferView":77,"componentType":5126,"count":72,"type":"VEC3","min":[2.175,-1.7027234227358328,-12.132707499257123],"max":[27.0,0.7807759372232383,5.7]},{"bufferView":78,"componentType":5126,"count":72,"type":"VEC3"},{"bufferView":79,"componentType":5125,"count":72,"type":"SCALAR"},{"bufferView":80,"componentType":5126,"count":144,"type":"VEC3","min":[2.175,-1.464262326623122,-16.244999999999997],"max":[27.0,0.7734847377676852,-7.436186681230484]},{"bufferView":81,"componentType":5126,"count":144,"type":"VEC3"},{"bufferView":82,"componentType":5125,"count":144,"type":"SCALAR"},{"bufferView":83,"componentType":5126,"count":24,"type":"VEC3","min":[2.175,-0.721558276932944,-15.176249999999998],"max":[27.0,0.858352578420537,-3.986612552063897]},{"bufferView":84,"componentType":5126,"count":24,"type":"VEC3"},{"bufferView":85,"componentType":5125,"count":24,"type":"SCALAR"},{"bufferView":86,"componentType":5126,"count":24,"type":"VEC3","min":[1.16,1.0999999999999999,-27.93],"max":[10.799999999999999,1.8199999999999998,-23.654999999999998]},{"bufferView":87,"componentType":5126,"count":24,"type":"VEC3"},{"bufferView":88,"componentType":5125,"count":36,"type":"SCALAR"},{"bufferView":89,"componentType":5126,"count":14,"type":"VEC3","min":[0,1.0799999999999998,-28.215],"max":[0,9.82,-25.536]},{"bufferView":90,"componentType":5126,"count":14,"type":"VEC3"},{"bufferView":91,"componentType":5125,"count":36,"type":"SCALAR"},{"bufferView":92,"componentType":5126,"count":132,"type":"VEC3","min":[-0.41100000000000003,-0.22000000000000003,-0.22000000000000003],"max":[0.41100000000000003,0.22000000000000003,0.22000000000000003]},{"bufferView":93,"componentType":5126,"count":132,"type":"VEC3"},{"bufferView":94,"componentType":5125,"count":384,"type":"SCALAR"},{"bufferView":95,"componentType":5126,"count":132,"type":"VEC3","min":[-0.41100000000000003,-0.28600000000000003,-0.28600000000000003],"max":[0.41100000000000003,0.28600000000000003,0.28600000000000003]},{"bufferView":96,"componentType":5126,"count":132,"type":"VEC3"},{"bufferView":97,"componentType":5125,"count":384,"type":"SCALAR"},{"bufferView":98,"componentType":5126,"count":132,"type":"VEC3","min":[-0.41100000000000003,-0.28600000000000003,-0.28600000000000003],"max":[0.41100000000000003,0.28600000000000003,0.28600000000000003]},{"bufferView":99,"componentType":5126,"count":132,"type":"VEC3"},{"bufferView":100,"componentType":5125,"count":384,"type":"SCALAR"},{"bufferView":101,"componentType":5126,"count":132,"type":"VEC3","min":[-0.41100000000000003,-0.28600000000000003,-0.28600000000000003],"max":[0.41100000000000003,0.28600000000000003,0.28600000000000003]},{"bufferView":102,"componentType":5126,"count":132,"type":"VEC3"},{"bufferView":103,"componentType":5125,"count":384,"type":"SCALAR"},{"bufferView":104,"componentType":5126,"count":132,"type":"VEC3","min":[-0.41100000000000003,-0.28600000000000003,-0.28600000000000003],"max":[0.41100000000000003,0.28600000000000003,0.28600000000000003]},{"bufferView":105,"componentType":5126,"count":132,"type":"VEC3"},{"bufferView":106,"componentType":5125,"count":384,"type":"SCALAR"},{"bufferView":107,"componentType":5126,"count":576,"type":"VEC3","min":[-2.7335616792082194,1.044,-6.84],"max":[2.7335616792082194,1.769,14.25]},{"bufferView":108,"componentType":5126,"count":576,"type":"VEC3"},{"bufferView":109,"componentType":5126,"count":576,"type":"VEC2"}],"images":[{"uri":"../../airlines/SIA.png"},{"uri":"fallback-paint-v5.png"},{"uri":"title-SIA.png"}],"textures":[{"source":0,"sampler":0},{"source":1,"sampler":0},{"source":2,"sampler":0}],"samplers":[{"magFilter":9729,"minFilter":9987,"wrapS":33071,"wrapT":33071}]}