{"asset":{"version":"2.0","generator":"Skyward detailed procedural b78x fallback v6; approximate airframe; operator identification logos"},"scene":0,"scenes":[{"nodes":[0,1,7,8,9,10,11,12,13,14,15,16,17,18,19]}],"nodes":[{"mesh":0},{"mesh":1,"name":"Gear","children":[2,3,4,5,6]},{"mesh":2,"name":"WheelN","translation":[0,-4.5,19.72]},{"mesh":3,"name":"WheelL","translation":[-3.19,-4.5,-7.325000000000001]},{"mesh":4,"name":"WheelR","translation":[3.19,-4.5,-7.325000000000001]},{"mesh":5,"name":"WheelL2","translation":[-3.19,-4.5,-6.275]},{"mesh":6,"name":"WheelR2","translation":[3.19,-4.5,-6.275]},{"mesh":7,"name":"SlatL"},{"mesh":8,"name":"FlapL"},{"mesh":9,"name":"SpoilerL"},{"mesh":10,"name":"ElevatorL"},{"mesh":11,"name":"SlatR"},{"mesh":12,"name":"FlapR"},{"mesh":13,"name":"SpoilerR"},{"mesh":14,"name":"ElevatorR"},{"mesh":15,"name":"Rudder"},{"mesh":16,"name":"FlexWingL"},{"mesh":17,"name":"FlexWingR"},{"mesh":18,"name":"SkywardFan0"},{"mesh":19,"name":"SkywardFan1"}],"meshes":[{"name":"AirframeWithCockpitGlazing","primitives":[{"indices":3,"attributes":{"POSITION":0,"NORMAL":1,"TEXCOORD_0":2},"material":0},{"indices":6,"attributes":{"POSITION":4,"NORMAL":5},"material":1},{"indices":9,"attributes":{"POSITION":7,"NORMAL":8},"material":2},{"attributes":{"POSITION":10,"NORMAL":11},"material":3},{"indices":18,"attributes":{"POSITION":16,"NORMAL":17},"material":6},{"indices":21,"attributes":{"POSITION":19,"NORMAL":20},"material":7}]},{"primitives":[{"indices":58,"attributes":{"POSITION":55,"NORMAL":56,"TEXCOORD_0":57},"material":0,"extras":{"gear":true}},{"indices":61,"attributes":{"POSITION":59,"NORMAL":60},"material":1,"extras":{"gear":true}},{"indices":64,"attributes":{"POSITION":62,"NORMAL":63},"material":6,"extras":{"gear":true}}]},{"primitives":[{"indices":24,"attributes":{"POSITION":22,"NORMAL":23},"material":4,"extras":{"wheel":0}},{"indices":94,"attributes":{"POSITION":92,"NORMAL":93},"material":6,"extras":{"wheel":0}}]},{"primitives":[{"indices":27,"attributes":{"POSITION":25,"NORMAL":26},"material":4,"extras":{"wheel":1}},{"indices":97,"attributes":{"POSITION":95,"NORMAL":96},"material":6,"extras":{"wheel":1}}]},{"primitives":[{"indices":30,"attributes":{"POSITION":28,"NORMAL":29},"material":4,"extras":{"wheel":2}},{"indices":100,"attributes":{"POSITION":98,"NORMAL":99},"material":6,"extras":{"wheel":2}}]},{"primitives":[{"indices":33,"attributes":{"POSITION":31,"NORMAL":32},"material":4,"extras":{"wheel":3}},{"indices":103,"attributes":{"POSITION":101,"NORMAL":102},"material":6,"extras":{"wheel":3}}]},{"primitives":[{"indices":36,"attributes":{"POSITION":34,"NORMAL":35},"material":4,"extras":{"wheel":4}},{"indices":106,"attributes":{"POSITION":104,"NORMAL":105},"material":6,"extras":{"wheel":4}}]},{"primitives":[{"indices":67,"attributes":{"POSITION":65,"NORMAL":66},"material":1,"extras":{"surface":0}}]},{"primitives":[{"indices":70,"attributes":{"POSITION":68,"NORMAL":69},"material":1,"extras":{"surface":1}}]},{"primitives":[{"indices":73,"attributes":{"POSITION":71,"NORMAL":72},"material":1,"extras":{"surface":2}}]},{"primitives":[{"indices":76,"attributes":{"POSITION":74,"NORMAL":75},"material":1,"extras":{"surface":3}}]},{"primitives":[{"indices":79,"attributes":{"POSITION":77,"NORMAL":78},"material":1,"extras":{"surface":4}}]},{"primitives":[{"indices":82,"attributes":{"POSITION":80,"NORMAL":81},"material":1,"extras":{"surface":5}}]},{"primitives":[{"indices":85,"attributes":{"POSITION":83,"NORMAL":84},"material":1,"extras":{"surface":6}}]},{"primitives":[{"indices":88,"attributes":{"POSITION":86,"NORMAL":87},"material":1,"extras":{"surface":7}}]},{"primitives":[{"indices":91,"attributes":{"POSITION":89,"NORMAL":90},"material":2,"extras":{"surface":8}}]},{"primitives":[{"indices":39,"attributes":{"POSITION":37,"NORMAL":38},"material":1,"extras":{"wing":0}},{"indices":42,"attributes":{"POSITION":40,"NORMAL":41},"material":6,"extras":{"wing":0}}]},{"primitives":[{"indices":45,"attributes":{"POSITION":43,"NORMAL":44},"material":1,"extras":{"wing":1}},{"indices":48,"attributes":{"POSITION":46,"NORMAL":47},"material":6,"extras":{"wing":1}}]},{"primitives":[{"indices":51,"attributes":{"POSITION":49,"NORMAL":50},"material":6,"extras":{"fan":0}}]},{"primitives":[{"indices":54,"attributes":{"POSITION":52,"NORMAL":53},"material":6,"extras":{"fan":1}}]}],"materials":[{"doubleSided":true,"pbrMetallicRoughness":{"baseColorFactor":[0.94,0.95,0.96,1],"metallicFactor":0.04,"roughnessFactor":0.27,"baseColorTexture":{"index":0}}},{"doubleSided":true,"pbrMetallicRoughness":{"baseColorFactor":[0.64,0.68,0.72,1],"metallicFactor":0.04,"roughnessFactor":0.4}},{"doubleSided":true,"pbrMetallicRoughness":{"baseColorFactor":[0.4392156862745098,0.5372549019607843,0.611764705882353,1],"metallicFactor":0.04,"roughnessFactor":0.27}},{"doubleSided":true,"pbrMetallicRoughness":{"baseColorFactor":[0.02,0.055,0.085,1],"metallicFactor":0,"roughnessFactor":0.12}},{"doubleSided":true,"pbrMetallicRoughness":{"baseColorFactor":[0.07,0.08,0.09,1],"metallicFactor":0,"roughnessFactor":0.86}},{"doubleSided":true,"pbrMetallicRoughness":{"baseColorFactor":[1,1,1,1],"metallicFactor":0,"roughnessFactor":0.75},"alphaMode":"MASK","alphaCutoff":0.08},{"doubleSided":true,"pbrMetallicRoughness":{"baseColorFactor":[0.36,0.4,0.44,1],"metallicFactor":0.8,"roughnessFactor":0.28}},{"doubleSided":true,"pbrMetallicRoughness":{"baseColorFactor":[0.94,0.95,0.96,1],"metallicFactor":0.04,"roughnessFactor":0.27}}],"buffers":[{"uri":"b78x-v4.bin?tail=2&rig=1&detail=6","byteLength":1458688}],"bufferViews":[{"buffer":0,"byteOffset":0,"byteLength":31980,"target":34962},{"buffer":0,"byteOffset":31980,"byteLength":31980,"target":34962},{"buffer":0,"byteOffset":63960,"byteLength":21320,"target":34962},{"buffer":0,"byteOffset":85280,"byteLength":61440,"target":34963},{"buffer":0,"byteOffset":146720,"byteLength":1080,"target":34962},{"buffer":0,"byteOffset":147800,"byteLength":1080,"target":34962},{"buffer":0,"byteOffset":148880,"byteLength":576,"target":34963},{"buffer":0,"byteOffset":149456,"byteLength":288,"target":34962},{"buffer":0,"byteOffset":149744,"byteLength":288,"target":34962},{"buffer":0,"byteOffset":150032,"byteLength":144,"target":34963},{"buffer":0,"byteOffset":150176,"byteLength":195552,"target":34962},{"buffer":0,"byteOffset":345728,"byteLength":195552,"target":34962},{"buffer":0,"byteOffset":541280,"byteLength":192,"target":34962},{"buffer":0,"byteOffset":541472,"byteLength":192,"target":34962},{"buffer":0,"byteOffset":541664,"byteLength":128,"target":34962},{"buffer":0,"byteOffset":541792,"byteLength":96,"target":34963},{"buffer":0,"byteOffset":541888,"byteLength":50760,"target":34962},{"buffer":0,"byteOffset":592648,"byteLength":50760,"target":34962},{"buffer":0,"byteOffset":643408,"byteLength":49920,"target":34963},{"buffer":0,"byteOffset":693328,"byteLength":20376,"target":34962},{"buffer":0,"byteOffset":713704,"byteLength":20376,"target":34962},{"buffer":0,"byteOffset":734080,"byteLength":36912,"target":34963},{"buffer":0,"byteOffset":770992,"byteLength":21504,"target":34962},{"buffer":0,"byteOffset":792496,"byteLength":21504,"target":34962},{"buffer":0,"byteOffset":814000,"byteLength":10752,"target":34963},{"buffer":0,"byteOffset":824752,"byteLength":21504,"target":34962},{"buffer":0,"byteOffset":846256,"byteLength":21504,"target":34962},{"buffer":0,"byteOffset":867760,"byteLength":10752,"target":34963},{"buffer":0,"byteOffset":878512,"byteLength":21504,"target":34962},{"buffer":0,"byteOffset":900016,"byteLength":21504,"target":34962},{"buffer":0,"byteOffset":921520,"byteLength":10752,"target":34963},{"buffer":0,"byteOffset":932272,"byteLength":21504,"target":34962},{"buffer":0,"byteOffset":953776,"byteLength":21504,"target":34962},{"buffer":0,"byteOffset":975280,"byteLength":10752,"target":34963},{"buffer":0,"byteOffset":986032,"byteLength":21504,"target":34962},{"buffer":0,"byteOffset":1007536,"byteLength":21504,"target":34962},{"buffer":0,"byteOffset":1029040,"byteLength":10752,"target":34963},{"buffer":0,"byteOffset":1039792,"byteLength":39156,"target":34962},{"buffer":0,"byteOffset":1078948,"byteLength":39156,"target":34962},{"buffer":0,"byteOffset":1118104,"byteLength":58944,"target":34963},{"buffer":0,"byteOffset":1177048,"byteLength":432,"target":34962},{"buffer":0,"byteOffset":1177480,"byteLength":432,"target":34962},{"buffer":0,"byteOffset":1177912,"byteLength":288,"target":34963},{"buffer":0,"byteOffset":1178200,"byteLength":39156,"target":34962},{"buffer":0,"byteOffset":1217356,"byteLength":39156,"target":34962},{"buffer":0,"byteOffset":1256512,"byteLength":58944,"target":34963},{"buffer":0,"byteOffset":1315456,"byteLength":432,"target":34962},{"buffer":0,"byteOffset":1315888,"byteLength":432,"target":34962},{"buffer":0,"byteOffset":1316320,"byteLength":288,"target":34963},{"buffer":0,"byteOffset":1316608,"byteLength":9036,"target":34962},{"buffer":0,"byteOffset":1325644,"byteLength":9036,"target":34962},{"buffer":0,"byteOffset":1334680,"byteLength":12960,"target":34963},{"buffer":0,"byteOffset":1347640,"byteLength":9036,"target":34962},{"buffer":0,"byteOffset":1356676,"byteLength":9036,"target":34962},{"buffer":0,"byteOffset":1365712,"byteLength":12960,"target":34963},{"buffer":0,"byteOffset":1378672,"byteLength":864,"target":34962},{"buffer":0,"byteOffset":1379536,"byteLength":864,"target":34962},{"buffer":0,"byteOffset":1380400,"byteLength":576,"target":34962},{"buffer":0,"byteOffset":1380976,"byteLength":432,"target":34963},{"buffer":0,"byteOffset":1381408,"byteLength":3840,"target":34962},{"buffer":0,"byteOffset":1385248,"byteLength":3840,"target":34962},{"buffer":0,"byteOffset":1389088,"byteLength":1920,"target":34963},{"buffer":0,"byteOffset":1391008,"byteLength":11520,"target":34962},{"buffer":0,"byteOffset":1402528,"byteLength":11520,"target":34962},{"buffer":0,"byteOffset":1414048,"byteLength":5760,"target":34963},{"buffer":0,"byteOffset":1419808,"byteLength":864,"target":34962},{"buffer":0,"byteOffset":1420672,"byteLength":864,"target":34962},{"buffer":0,"byteOffset":1421536,"byteLength":288,"target":34963},{"buffer":0,"byteOffset":1421824,"byteLength":1728,"target":34962},{"buffer":0,"byteOffset":1423552,"byteLength":1728,"target":34962},{"buffer":0,"byteOffset":1425280,"byteLength":576,"target":34963},{"buffer":0,"byteOffset":1425856,"byteLength":288,"target":34962},{"buffer":0,"byteOffset":1426144,"byteLength":288,"target":34962},{"buffer":0,"byteOffset":1426432,"byteLength":96,"target":34963},{"buffer":0,"byteOffset":1426528,"byteLength":288,"target":34962},{"buffer":0,"byteOffset":1426816,"byteLength":288,"target":34962},{"buffer":0,"byteOffset":1427104,"byteLength":144,"target":34963},{"buffer":0,"byteOffset":1427248,"byteLength":864,"target":34962},{"buffer":0,"byteOffset":1428112,"byteLength":864,"target":34962},{"buffer":0,"byteOffset":1428976,"byteLength":288,"target":34963},{"buffer":0,"byteOffset":1429264,"byteLength":1728,"target":34962},{"buffer":0,"byteOffset":1430992,"byteLength":1728,"target":34962},{"buffer":0,"byteOffset":1432720,"byteLength":576,"target":34963},{"buffer":0,"byteOffset":1433296,"byteLength":288,"target":34962},{"buffer":0,"byteOffset":1433584,"byteLength":288,"target":34962},{"buffer":0,"byteOffset":1433872,"byteLength":96,"target":34963},{"buffer":0,"byteOffset":1433968,"byteLength":288,"target":34962},{"buffer":0,"byteOffset":1434256,"byteLength":288,"target":34962},{"buffer":0,"byteOffset":1434544,"byteLength":144,"target":34963},{"buffer":0,"byteOffset":1434688,"byteLength":168,"target":34962},{"buffer":0,"byteOffset":1434856,"byteLength":168,"target":34962},{"buffer":0,"byteOffset":1435024,"byteLength":144,"target":34963},{"buffer":0,"byteOffset":1435168,"byteLength":1584,"target":34962},{"buffer":0,"byteOffset":1436752,"byteLength":1584,"target":34962},{"buffer":0,"byteOffset":1438336,"byteLength":1536,"target":34963},{"buffer":0,"byteOffset":1439872,"byteLength":1584,"target":34962},{"buffer":0,"byteOffset":1441456,"byteLength":1584,"target":34962},{"buffer":0,"byteOffset":1443040,"byteLength":1536,"target":34963},{"buffer":0,"byteOffset":1444576,"byteLength":1584,"target":34962},{"buffer":0,"byteOffset":1446160,"byteLength":1584,"target":34962},{"buffer":0,"byteOffset":1447744,"byteLength":1536,"target":34963},{"buffer":0,"byteOffset":1449280,"byteLength":1584,"target":34962},{"buffer":0,"byteOffset":1450864,"byteLength":1584,"target":34962},{"buffer":0,"byteOffset":1452448,"byteLength":1536,"target":34963},{"buffer":0,"byteOffset":1453984,"byteLength":1584,"target":34962},{"buffer":0,"byteOffset":1455568,"byteLength":1584,"target":34962},{"buffer":0,"byteOffset":1457152,"byteLength":1536,"target":34963}],"accessors":[{"bufferView":0,"componentType":5126,"count":2665,"type":"VEC3","min":[-2.9,-2.9,-34.0],"max":[2.9,2.9,34.0]},{"bufferView":1,"componentType":5126,"count":2665,"type":"VEC3"},{"bufferView":2,"componentType":5126,"count":2665,"type":"VEC2"},{"bufferView":3,"componentType":5125,"count":15360,"type":"SCALAR"},{"bufferView":4,"componentType":5126,"count":90,"type":"VEC3","min":[-11.540000000000001,-3.4749999999999996,-31.62],"max":[11.26,1.8399999999999999,3.06]},{"bufferView":5,"componentType":5126,"count":90,"type":"VEC3"},{"bufferView":6,"componentType":5125,"count":144,"type":"SCALAR"},{"bufferView":7,"componentType":5126,"count":24,"type":"VEC3","min":[-0.1,1.16,-31.62],"max":[0.1,11.06,-19.040000000000003]},{"bufferView":8,"componentType":5126,"count":24,"type":"VEC3"},{"bufferView":9,"componentType":5125,"count":36,"type":"SCALAR"},{"bufferView":10,"componentType":5126,"count":16296,"type":"VEC3","min":[-12.9312,-4.866199999999999,-15.770000000000001],"max":[12.9312,2.3905253503781583,30.124]},{"bufferView":11,"componentType":5126,"count":16296,"type":"VEC3"},{"bufferView":12,"componentType":5126,"count":16,"type":"VEC3","min":[-2.94,-1.218,-30.464000000000002],"max":[2.94,8.9384,15.385]},{"bufferView":13,"componentType":5126,"count":16,"type":"VEC3"},{"bufferView":14,"componentType":5126,"count":16,"type":"VEC2"},{"bufferView":15,"componentType":5125,"count":24,"type":"SCALAR"},{"bufferView":16,"componentType":5126,"count":4230,"type":"VEC3","min":[-13.279548,-5.214548,-16.075],"max":[13.279548,2.3991856044160027,30.124]},{"bufferView":17,"componentType":5126,"count":4230,"type":"VEC3"},{"bufferView":18,"componentType":5125,"count":12480,"type":"SCALAR"},{"bufferView":19,"componentType":5126,"count":1698,"type":"VEC3","min":[-13.314,-5.249,-12.92],"max":[13.314,-1.4209999999999996,20.4]},{"bufferView":20,"componentType":5126,"count":1698,"type":"VEC3"},{"bufferView":21,"componentType":5125,"count":9228,"type":"SCALAR"},{"bufferView":22,"componentType":5126,"count":1792,"type":"VEC3","min":[-0.41000000000000003,-0.4,-0.4],"max":[0.41000000000000003,0.4,0.4]},{"bufferView":23,"componentType":5126,"count":1792,"type":"VEC3"},{"bufferView":24,"componentType":5125,"count":2688,"type":"SCALAR"},{"bufferView":25,"componentType":5126,"count":1792,"type":"VEC3","min":[-0.41000000000000003,-0.52,-0.52],"max":[0.41000000000000003,0.52,0.52]},{"bufferView":26,"componentType":5126,"count":1792,"type":"VEC3"},{"bufferView":27,"componentType":5125,"count":2688,"type":"SCALAR"},{"bufferView":28,"componentType":5126,"count":1792,"type":"VEC3","min":[-0.41000000000000003,-0.52,-0.52],"max":[0.41000000000000003,0.52,0.52]},{"bufferView":29,"componentType":5126,"count":1792,"type":"VEC3"},{"bufferView":30,"componentType":5125,"count":2688,"type":"SCALAR"},{"bufferView":31,"componentType":5126,"count":1792,"type":"VEC3","min":[-0.41000000000000003,-0.52,-0.52],"max":[0.41000000000000003,0.52,0.52]},{"bufferView":32,"componentType":5126,"count":1792,"type":"VEC3"},{"bufferView":33,"componentType":5125,"count":2688,"type":"SCALAR"},{"bufferView":34,"componentType":5126,"count":1792,"type":"VEC3","min":[-0.41000000000000003,-0.52,-0.52],"max":[0.41000000000000003,0.52,0.52]},{"bufferView":35,"componentType":5126,"count":1792,"type":"VEC3"},{"bufferView":36,"componentType":5125,"count":2688,"type":"SCALAR"},{"bufferView":37,"componentType":5126,"count":3263,"type":"VEC3","min":[-30.0,-2.0663618392729317,-20.210782608695652],"max":[-2.175,1.5345933880274243,6.800000000000001]},{"bufferView":38,"componentType":5126,"count":3263,"type":"VEC3"},{"bufferView":39,"componentType":5125,"count":14736,"type":"SCALAR"},{"bufferView":40,"componentType":5126,"count":36,"type":"VEC3","min":[-30.0,-0.7810068356162607,-18.4773],"max":[-2.175,1.509064665401901,-5.684799999999999]},{"bufferView":41,"componentType":5126,"count":36,"type":"VEC3"},{"bufferView":42,"componentType":5125,"count":72,"type":"SCALAR"},{"bufferView":43,"componentType":5126,"count":3263,"type":"VEC3","min":[2.175,-2.0663618392729317,-20.210782608695652],"max":[30.0,1.5345933880274243,6.800000000000001]},{"bufferView":44,"componentType":5126,"count":3263,"type":"VEC3"},{"bufferView":45,"componentType":5125,"count":14736,"type":"SCALAR"},{"bufferView":46,"componentType":5126,"count":36,"type":"VEC3","min":[2.175,-0.7810068356162607,-18.4773],"max":[30.0,1.509064665401901,-5.684799999999999]},{"bufferView":47,"componentType":5126,"count":36,"type":"VEC3"},{"bufferView":48,"componentType":5125,"count":72,"type":"SCALAR"},{"bufferView":49,"componentType":5126,"count":753,"type":"VEC3","min":[-12.873765737235171,-4.808765737235171,2.06116],"max":[-9.92623426276483,-1.8612342627648284,3.74]},{"bufferView":50,"componentType":5126,"count":753,"type":"VEC3"},{"bufferView":51,"componentType":5125,"count":3240,"type":"SCALAR"},{"bufferView":52,"componentType":5126,"count":753,"type":"VEC3","min":[9.92623426276483,-4.808765737235171,2.06116],"max":[12.873765737235171,-1.8612342627648284,3.74]},{"bufferView":53,"componentType":5126,"count":753,"type":"VEC3"},{"bufferView":54,"componentType":5125,"count":3240,"type":"SCALAR"},{"bufferView":55,"componentType":5126,"count":72,"type":"VEC3","min":[-3.81,-3.925,-7.975000000000001],"max":[2.71,-2.15,20.369999999999997]},{"bufferView":56,"componentType":5126,"count":72,"type":"VEC3"},{"bufferView":57,"componentType":5126,"count":72,"type":"VEC2"},{"bufferView":58,"componentType":5125,"count":108,"type":"SCALAR"},{"bufferView":59,"componentType":5126,"count":320,"type":"VEC3","min":[-3.31,-4.1,-7.445000000000001],"max":[3.31,-3.5,19.84]},{"bufferView":60,"componentType":5126,"count":320,"type":"VEC3"},{"bufferView":61,"componentType":5125,"count":480,"type":"SCALAR"},{"bufferView":62,"componentType":5126,"count":960,"type":"VEC3","min":[-3.61,-4.59,-7.415000000000001],"max":[3.61,-2.03,20.173424432040502]},{"bufferView":63,"componentType":5126,"count":960,"type":"VEC3"},{"bufferView":64,"componentType":5125,"count":1440,"type":"SCALAR"},{"bufferView":65,"componentType":5126,"count":72,"type":"VEC3","min":[-27.0,-1.7794770657199406,-14.474107192096218],"max":[-2.175,0.7963642759856179,6.800000000000001]},{"bufferView":66,"componentType":5126,"count":72,"type":"VEC3"},{"bufferView":67,"componentType":5125,"count":72,"type":"SCALAR"},{"bufferView":68,"componentType":5126,"count":144,"type":"VEC3","min":[-27.0,-1.4949971615854791,-19.38],"max":[-2.175,0.7876660029509227,-8.871240251292505]},{"bufferView":69,"componentType":5126,"count":144,"type":"VEC3"},{"bufferView":70,"componentType":5125,"count":144,"type":"SCALAR"},{"bufferView":71,"componentType":5126,"count":24,"type":"VEC3","min":[-27.0,-0.6202822549690237,-18.104999999999997],"max":[-2.175,0.8889118479402899,-4.75595883404114]},{"bufferView":72,"componentType":5126,"count":24,"type":"VEC3"},{"bufferView":73,"componentType":5125,"count":24,"type":"SCALAR"},{"bufferView":74,"componentType":5126,"count":24,"type":"VEC3","min":[-10.799999999999999,1.0999999999999999,-33.32],"max":[-1.16,1.8199999999999998,-28.22]},{"bufferView":75,"componentType":5126,"count":24,"type":"VEC3"},{"bufferView":76,"componentType":5125,"count":36,"type":"SCALAR"},{"bufferView":77,"componentType":5126,"count":72,"type":"VEC3","min":[2.175,-1.7794770657199406,-14.474107192096218],"max":[27.0,0.7963642759856179,6.800000000000001]},{"bufferView":78,"componentType":5126,"count":72,"type":"VEC3"},{"bufferView":79,"componentType":5125,"count":72,"type":"SCALAR"},{"bufferView":80,"componentType":5126,"count":144,"type":"VEC3","min":[2.175,-1.4949971615854791,-19.38],"max":[27.0,0.7876660029509227,-8.871240251292505]},{"bufferView":81,"componentType":5126,"count":144,"type":"VEC3"},{"bufferView":82,"componentType":5125,"count":144,"type":"SCALAR"},{"bufferView":83,"componentType":5126,"count":24,"type":"VEC3","min":[2.175,-0.6202822549690237,-18.104999999999997],"max":[27.0,0.8889118479402899,-4.75595883404114]},{"bufferView":84,"componentType":5126,"count":24,"type":"VEC3"},{"bufferView":85,"componentType":5125,"count":24,"type":"SCALAR"},{"bufferView":86,"componentType":5126,"count":24,"type":"VEC3","min":[1.16,1.0999999999999999,-33.32],"max":[10.799999999999999,1.8199999999999998,-28.22]},{"bufferView":87,"componentType":5126,"count":24,"type":"VEC3"},{"bufferView":88,"componentType":5125,"count":36,"type":"SCALAR"},{"bufferView":89,"componentType":5126,"count":14,"type":"VEC3","min":[0,1.0799999999999998,-33.66],"max":[0,11.14,-30.464000000000002]},{"bufferView":90,"componentType":5126,"count":14,"type":"VEC3"},{"bufferView":91,"componentType":5125,"count":36,"type":"SCALAR"},{"bufferView":92,"componentType":5126,"count":132,"type":"VEC3","min":[-0.41100000000000003,-0.22000000000000003,-0.22000000000000003],"max":[0.41100000000000003,0.22000000000000003,0.22000000000000003]},{"bufferView":93,"componentType":5126,"count":132,"type":"VEC3"},{"bufferView":94,"componentType":5125,"count":384,"type":"SCALAR"},{"bufferView":95,"componentType":5126,"count":132,"type":"VEC3","min":[-0.41100000000000003,-0.28600000000000003,-0.28600000000000003],"max":[0.41100000000000003,0.28600000000000003,0.28600000000000003]},{"bufferView":96,"componentType":5126,"count":132,"type":"VEC3"},{"bufferView":97,"componentType":5125,"count":384,"type":"SCALAR"},{"bufferView":98,"componentType":5126,"count":132,"type":"VEC3","min":[-0.41100000000000003,-0.28600000000000003,-0.28600000000000003],"max":[0.41100000000000003,0.28600000000000003,0.28600000000000003]},{"bufferView":99,"componentType":5126,"count":132,"type":"VEC3"},{"bufferView":100,"componentType":5125,"count":384,"type":"SCALAR"},{"bufferView":101,"componentType":5126,"count":132,"type":"VEC3","min":[-0.41100000000000003,-0.28600000000000003,-0.28600000000000003],"max":[0.41100000000000003,0.28600000000000003,0.28600000000000003]},{"bufferView":102,"componentType":5126,"count":132,"type":"VEC3"},{"bufferView":103,"componentType":5125,"count":384,"type":"SCALAR"},{"bufferView":104,"componentType":5126,"count":132,"type":"VEC3","min":[-0.41100000000000003,-0.28600000000000003,-0.28600000000000003],"max":[0.41100000000000003,0.28600000000000003,0.28600000000000003]},{"bufferView":105,"componentType":5126,"count":132,"type":"VEC3"},{"bufferView":106,"componentType":5125,"count":384,"type":"SCALAR"}],"images":[{"uri":"fallback-paint-v5.png"}],"textures":[{"source":0,"sampler":0}],"samplers":[{"magFilter":9729,"minFilter":9987,"wrapS":10497,"wrapT":10497}]}