{"asset":{"version":"2.0","generator":"Skyward original illustrative b78x profile; logos for operator identification"},"scene":0,"scenes":[{"nodes":[0,1]}],"nodes":[{"mesh":0},{"mesh":1,"name":"Gear"}],"meshes":[{"primitives":[{"attributes":{"POSITION":0,"NORMAL":1},"material":0},{"attributes":{"POSITION":2,"NORMAL":3},"material":1},{"attributes":{"POSITION":4,"NORMAL":5},"material":2},{"attributes":{"POSITION":6,"NORMAL":7},"material":3},{"attributes":{"POSITION":10,"NORMAL":11,"TEXCOORD_0":12},"material":5},{"attributes":{"POSITION":13,"NORMAL":14},"material":6},{"attributes":{"POSITION":15,"NORMAL":16},"material":7}]},{"primitives":[{"attributes":{"POSITION":8,"NORMAL":9},"material":4}]}],"materials":[{"doubleSided":true,"pbrMetallicRoughness":{"baseColorFactor":[0.03,0.16,0.6,1],"metallicFactor":0.18,"roughnessFactor":0.3}},{"doubleSided":true,"pbrMetallicRoughness":{"baseColorFactor":[0.64,0.68,0.72,1],"metallicFactor":0.18,"roughnessFactor":0.3}},{"doubleSided":true,"pbrMetallicRoughness":{"baseColorFactor":[0.1450980392156863,0.2980392156862745,0.7607843137254902,1],"metallicFactor":0.18,"roughnessFactor":0.3}},{"doubleSided":true,"pbrMetallicRoughness":{"baseColorFactor":[0.02,0.055,0.085,1],"metallicFactor":0.18,"roughnessFactor":0.17}},{"doubleSided":true,"pbrMetallicRoughness":{"baseColorFactor":[0.07,0.08,0.09,1],"metallicFactor":0.18,"roughnessFactor":0.3}},{"doubleSided":true,"pbrMetallicRoughness":{"baseColorFactor":[1,1,1,1],"metallicFactor":0,"roughnessFactor":0.75,"baseColorTexture":{"index":0}},"alphaMode":"BLEND"},{"doubleSided":true,"pbrMetallicRoughness":{"baseColorFactor":[0.36,0.4,0.44,1],"metallicFactor":0.7,"roughnessFactor":0.3}},{"doubleSided":true,"pbrMetallicRoughness":{"baseColorFactor":[0.1450980392156863,0.2980392156862745,0.7607843137254902,1],"metallicFactor":0.18,"roughnessFactor":0.3}}],"buffers":[{"uri":"b78x-v3.bin","byteLength":236640}],"bufferViews":[{"buffer":0,"byteOffset":0,"byteLength":34560,"target":34962},{"buffer":0,"byteOffset":34560,"byteLength":34560,"target":34962},{"buffer":0,"byteOffset":69120,"byteLength":2880,"target":34962},{"buffer":0,"byteOffset":72000,"byteLength":2880,"target":34962},{"buffer":0,"byteOffset":74880,"byteLength":432,"target":34962},{"buffer":0,"byteOffset":75312,"byteLength":432,"target":34962},{"buffer":0,"byteOffset":75744,"byteLength":41328,"target":34962},{"buffer":0,"byteOffset":117072,"byteLength":41328,"target":34962},{"buffer":0,"byteOffset":158400,"byteLength":2592,"target":34962},{"buffer":0,"byteOffset":160992,"byteLength":2592,"target":34962},{"buffer":0,"byteOffset":163584,"byteLength":288,"target":34962},{"buffer":0,"byteOffset":163872,"byteLength":288,"target":34962},{"buffer":0,"byteOffset":164160,"byteLength":192,"target":34962},{"buffer":0,"byteOffset":164352,"byteLength":15264,"target":34962},{"buffer":0,"byteOffset":179616,"byteLength":15264,"target":34962},{"buffer":0,"byteOffset":194880,"byteLength":20880,"target":34962},{"buffer":0,"byteOffset":215760,"byteLength":20880,"target":34962}],"accessors":[{"bufferView":0,"componentType":5126,"count":2880,"type":"VEC3","min":[-2.9,-2.9,-34.0],"max":[2.9,2.9,34.0]},{"bufferView":1,"componentType":5126,"count":2880,"type":"VEC3"},{"bufferView":2,"componentType":5126,"count":240,"type":"VEC3","min":[-30.0,-3.4749999999999996,-33.32],"max":[30.0,1.8399999999999999,6.800000000000001]},{"bufferView":3,"componentType":5126,"count":240,"type":"VEC3"},{"bufferView":4,"componentType":5126,"count":36,"type":"VEC3","min":[-0.1,1.16,-33.66],"max":[0.1,12.76,-19.040000000000003]},{"bufferView":5,"componentType":5126,"count":36,"type":"VEC3"},{"bufferView":6,"componentType":5126,"count":3444,"type":"VEC3","min":[-12.9312,-4.866199999999999,-15.770000000000001],"max":[12.9312,1.943,28.22]},{"bufferView":7,"componentType":5126,"count":3444,"type":"VEC3"},{"bufferView":8,"componentType":5126,"count":216,"type":"VEC3","min":[-2.6199999999999997,-4.9,-7.180000000000001],"max":[2.6199999999999997,-2.9000000000000004,20.099999999999998]},{"bufferView":9,"componentType":5126,"count":216,"type":"VEC3"},{"bufferView":10,"componentType":5126,"count":24,"type":"VEC3","min":[-2.94,-1.218,-30.396],"max":[2.94,9.700000000000001,15.385]},{"bufferView":11,"componentType":5126,"count":24,"type":"VEC3"},{"bufferView":12,"componentType":5126,"count":24,"type":"VEC2"},{"bufferView":13,"componentType":5126,"count":1272,"type":"VEC3","min":[-13.199160000000001,-5.13416,-15.64],"max":[13.199160000000001,1.74,19.090000000000003]},{"bufferView":14,"componentType":5126,"count":1272,"type":"VEC3"},{"bufferView":15,"componentType":5126,"count":1740,"type":"VEC3","min":[-13.314,-5.249,-12.92],"max":[13.314,-1.4209999999999996,20.4]},{"bufferView":16,"componentType":5126,"count":1740,"type":"VEC3"}],"images":[{"uri":"../../airlines/SWA.png"}],"textures":[{"source":0,"sampler":0}],"samplers":[{"magFilter":9729,"minFilter":9987,"wrapS":33071,"wrapT":33071}]}