{"asset":{"version":"2.0","generator":"Skyward original illustrative bizjet profile; logos for operator identification"},"scene":0,"scenes":[{"nodes":[0,1]}],"nodes":[{"mesh":0},{"mesh":1,"name":"Gear","children":[2,3,4]},{"mesh":2,"name":"WheelN","translation":[0,-2.85,6.38]},{"mesh":3,"name":"WheelL","translation":[-1.0,-2.85,-2.2]},{"mesh":4,"name":"WheelR","translation":[1.0,-2.85,-2.2]}],"meshes":[{"primitives":[{"attributes":{"POSITION":0,"NORMAL":1},"material":0},{"attributes":{"POSITION":2,"NORMAL":3},"material":1},{"attributes":{"POSITION":4,"NORMAL":5},"material":2},{"attributes":{"POSITION":6,"NORMAL":7},"material":3},{"attributes":{"POSITION":10,"NORMAL":11,"TEXCOORD_0":12},"material":5},{"attributes":{"POSITION":13,"NORMAL":14},"material":6},{"attributes":{"POSITION":15,"NORMAL":16},"material":7}]},{"primitives":[{"attributes":{"POSITION":8,"NORMAL":9},"material":4}]},{"primitives":[{"attributes":{"POSITION":17,"NORMAL":18},"material":4,"extras":{"wheel":0}}]},{"primitives":[{"attributes":{"POSITION":19,"NORMAL":20},"material":4,"extras":{"wheel":1}}]},{"primitives":[{"attributes":{"POSITION":21,"NORMAL":22},"material":4,"extras":{"wheel":2}}]}],"materials":[{"doubleSided":true,"pbrMetallicRoughness":{"baseColorFactor":[0.94,0.95,0.96,1],"metallicFactor":0.18,"roughnessFactor":0.3}},{"doubleSided":true,"pbrMetallicRoughness":{"baseColorFactor":[0.64,0.68,0.72,1],"metallicFactor":0.18,"roughnessFactor":0.3}},{"doubleSided":true,"pbrMetallicRoughness":{"baseColorFactor":[0.7098039215686275,0.10980392156862745,0.18823529411764706,1],"metallicFactor":0.18,"roughnessFactor":0.3}},{"doubleSided":true,"pbrMetallicRoughness":{"baseColorFactor":[0.02,0.055,0.085,1],"metallicFactor":0.18,"roughnessFactor":0.17}},{"doubleSided":true,"pbrMetallicRoughness":{"baseColorFactor":[0.07,0.08,0.09,1],"metallicFactor":0.18,"roughnessFactor":0.3}},{"doubleSided":true,"pbrMetallicRoughness":{"baseColorFactor":[1,1,1,1],"metallicFactor":0,"roughnessFactor":0.75,"baseColorTexture":{"index":0}},"alphaMode":"MASK","alphaCutoff":0.08},{"doubleSided":true,"pbrMetallicRoughness":{"baseColorFactor":[0.36,0.4,0.44,1],"metallicFactor":0.7,"roughnessFactor":0.3}},{"doubleSided":true,"pbrMetallicRoughness":{"baseColorFactor":[0.7098039215686275,0.10980392156862745,0.18823529411764706,1],"metallicFactor":0.18,"roughnessFactor":0.3}}],"buffers":[{"uri":"bizjet-v4.bin?tail=2","byteLength":231744}],"bufferViews":[{"buffer":0,"byteOffset":0,"byteLength":34560,"target":34962},{"buffer":0,"byteOffset":34560,"byteLength":34560,"target":34962},{"buffer":0,"byteOffset":69120,"byteLength":2880,"target":34962},{"buffer":0,"byteOffset":72000,"byteLength":2880,"target":34962},{"buffer":0,"byteOffset":74880,"byteLength":1296,"target":34962},{"buffer":0,"byteOffset":76176,"byteLength":1296,"target":34962},{"buffer":0,"byteOffset":77472,"byteLength":25488,"target":34962},{"buffer":0,"byteOffset":102960,"byteLength":25488,"target":34962},{"buffer":0,"byteOffset":128448,"byteLength":1296,"target":34962},{"buffer":0,"byteOffset":129744,"byteLength":1296,"target":34962},{"buffer":0,"byteOffset":131040,"byteLength":288,"target":34962},{"buffer":0,"byteOffset":131328,"byteLength":288,"target":34962},{"buffer":0,"byteOffset":131616,"byteLength":192,"target":34962},{"buffer":0,"byteOffset":131808,"byteLength":15264,"target":34962},{"buffer":0,"byteOffset":147072,"byteLength":15264,"target":34962},{"buffer":0,"byteOffset":162336,"byteLength":20880,"target":34962},{"buffer":0,"byteOffset":183216,"byteLength":20880,"target":34962},{"buffer":0,"byteOffset":204096,"byteLength":4608,"target":34962},{"buffer":0,"byteOffset":208704,"byteLength":4608,"target":34962},{"buffer":0,"byteOffset":213312,"byteLength":4608,"target":34962},{"buffer":0,"byteOffset":217920,"byteLength":4608,"target":34962},{"buffer":0,"byteOffset":222528,"byteLength":4608,"target":34962},{"buffer":0,"byteOffset":227136,"byteLength":4608,"target":34962}],"accessors":[{"bufferView":0,"componentType":5126,"count":2880,"type":"VEC3","min":[-1.25,-1.25,-11.0],"max":[1.25,1.25,11.0]},{"bufferView":1,"componentType":5126,"count":2880,"type":"VEC3"},{"bufferView":2,"componentType":5126,"count":240,"type":"VEC3","min":[-10.5,-0.6825,-10.78],"max":[10.5,2.93,2.2]},{"bufferView":3,"componentType":5126,"count":240,"type":"VEC3"},{"bufferView":4,"componentType":5126,"count":108,"type":"VEC3","min":[-10.5,0.5,-10.89],"max":[10.5,4.4399999999999995,-4.18]},{"bufferView":5,"componentType":5126,"count":108,"type":"VEC3"},{"bufferView":6,"componentType":5126,"count":2124,"type":"VEC3","min":[-2.73,0.07,-5.852],"max":[2.73,1.0425,9.129999999999999]},{"bufferView":7,"componentType":5126,"count":2124,"type":"VEC3"},{"bufferView":8,"componentType":5126,"count":108,"type":"VEC3","min":[-1.1,-2.8499999999999996,-2.3000000000000003],"max":[1.1,-1.2499999999999998,6.4799999999999995]},{"bufferView":9,"componentType":5126,"count":108,"type":"VEC3"},{"bufferView":10,"componentType":5126,"count":24,"type":"VEC3","min":[-1.29,-0.525,-9.856],"max":[1.29,3.692,5.2425]},{"bufferView":11,"componentType":5126,"count":24,"type":"VEC3"},{"bufferView":12,"componentType":5126,"count":24,"type":"VEC2"},{"bufferView":13,"componentType":5126,"count":1272,"type":"VEC3","min":[-2.814,-0.375,-5.83],"max":[2.814,1.1265,6.21]},{"bufferView":14,"componentType":5126,"count":1272,"type":"VEC3"},{"bufferView":15,"componentType":5126,"count":1740,"type":"VEC3","min":[-2.85,-0.75,-7.8100000000000005],"max":[2.85,1.1625,6.6]},{"bufferView":16,"componentType":5126,"count":1740,"type":"VEC3"},{"bufferView":17,"componentType":5126,"count":384,"type":"VEC3","min":[-0.25,-0.4,-0.4],"max":[0.25,0.4,0.4]},{"bufferView":18,"componentType":5126,"count":384,"type":"VEC3"},{"bufferView":19,"componentType":5126,"count":384,"type":"VEC3","min":[-0.25,-0.4,-0.4],"max":[0.25,0.4,0.4]},{"bufferView":20,"componentType":5126,"count":384,"type":"VEC3"},{"bufferView":21,"componentType":5126,"count":384,"type":"VEC3","min":[-0.25,-0.4,-0.4],"max":[0.25,0.4,0.4]},{"bufferView":22,"componentType":5126,"count":384,"type":"VEC3"}],"images":[{"uri":"../../airlines/ACA.png"}],"textures":[{"source":0,"sampler":0}],"samplers":[{"magFilter":9729,"minFilter":9987,"wrapS":33071,"wrapT":33071}]}