{"asset":{"version":"2.0","generator":"Skyward original fictional demonstration airline"},"scene":0,"scenes":[{"nodes":[0,1,5,6,7,8]}],"nodes":[{"mesh":0},{"mesh":1,"name":"Gear","children":[2,3,4]},{"mesh":2,"name":"WheelN","translation":[0,-2.85,6.38]},{"mesh":3,"name":"WheelL","translation":[-1.0,-2.85,-2.2]},{"mesh":4,"name":"WheelR","translation":[1.0,-2.85,-2.2]},{"mesh":5,"name":"FlexWingL"},{"mesh":6,"name":"FlexWingR"},{"mesh":7,"name":"SkywardFan0"},{"mesh":8,"name":"SkywardFan1"}],"meshes":[{"name":"AirframeWithCockpitGlazing","primitives":[{"indices":3,"attributes":{"POSITION":0,"NORMAL":1,"TEXCOORD_0":2},"material":0},{"indices":6,"attributes":{"POSITION":4,"NORMAL":5},"material":1},{"indices":9,"attributes":{"POSITION":7,"NORMAL":8},"material":2},{"attributes":{"POSITION":10,"NORMAL":11},"material":3},{"indices":15,"attributes":{"POSITION":12,"NORMAL":13,"TEXCOORD_0":14},"material":5},{"indices":18,"attributes":{"POSITION":16,"NORMAL":17},"material":6},{"indices":21,"attributes":{"POSITION":19,"NORMAL":20},"material":7},{"attributes":{"POSITION":61,"NORMAL":62,"TEXCOORD_0":63},"material":5}]},{"primitives":[{"indices":57,"attributes":{"POSITION":55,"NORMAL":56},"material":1,"extras":{"gear":true}},{"indices":60,"attributes":{"POSITION":58,"NORMAL":59},"material":6,"extras":{"gear":true}}]},{"primitives":[{"indices":24,"attributes":{"POSITION":22,"NORMAL":23},"material":4,"extras":{"wheel":0}}]},{"primitives":[{"indices":27,"attributes":{"POSITION":25,"NORMAL":26},"material":4,"extras":{"wheel":1}}]},{"primitives":[{"indices":30,"attributes":{"POSITION":28,"NORMAL":29},"material":4,"extras":{"wheel":2}}]},{"primitives":[{"indices":33,"attributes":{"POSITION":31,"NORMAL":32},"material":1,"extras":{"wing":0}},{"indices":36,"attributes":{"POSITION":34,"NORMAL":35},"material":2,"extras":{"wing":0}},{"indices":39,"attributes":{"POSITION":37,"NORMAL":38},"material":6,"extras":{"wing":0}}]},{"primitives":[{"indices":42,"attributes":{"POSITION":40,"NORMAL":41},"material":1,"extras":{"wing":1}},{"indices":45,"attributes":{"POSITION":43,"NORMAL":44},"material":2,"extras":{"wing":1}},{"indices":48,"attributes":{"POSITION":46,"NORMAL":47},"material":6,"extras":{"wing":1}}]},{"primitives":[{"indices":51,"attributes":{"POSITION":49,"NORMAL":50},"material":6,"extras":{"fan":0}}]},{"primitives":[{"indices":54,"attributes":{"POSITION":52,"NORMAL":53},"material":6,"extras":{"fan":1}}]}],"materials":[{"doubleSided":true,"pbrMetallicRoughness":{"baseColorFactor":[0.035,0.12,0.16,1],"metallicFactor":0.04,"roughnessFactor":0.27,"baseColorTexture":{"index":1}}},{"doubleSided":true,"pbrMetallicRoughness":{"baseColorFactor":[0.64,0.68,0.72,1],"metallicFactor":0.04,"roughnessFactor":0.4}},{"doubleSided":true,"pbrMetallicRoughness":{"baseColorFactor":[0.035,0.23,0.23,1],"metallicFactor":0.04,"roughnessFactor":0.27}},{"doubleSided":true,"pbrMetallicRoughness":{"baseColorFactor":[0.02,0.055,0.085,1],"metallicFactor":0,"roughnessFactor":0.12}},{"doubleSided":true,"pbrMetallicRoughness":{"baseColorFactor":[0.07,0.08,0.09,1],"metallicFactor":0,"roughnessFactor":0.86}},{"doubleSided":true,"pbrMetallicRoughness":{"baseColorFactor":[1,1,1,1],"metallicFactor":0,"roughnessFactor":0.75,"baseColorTexture":{"index":0}},"alphaMode":"MASK","alphaCutoff":0.08},{"doubleSided":true,"pbrMetallicRoughness":{"baseColorFactor":[0.36,0.4,0.44,1],"metallicFactor":0.8,"roughnessFactor":0.28}},{"doubleSided":true,"pbrMetallicRoughness":{"baseColorFactor":[0.035,0.23,0.23,1],"metallicFactor":0.04,"roughnessFactor":0.27}}],"buffers":[{"uri":"bizjet-v4.bin?tail=2&rig=1&detail=5","byteLength":950368},{"uri":"bizjet-SKYWARD-decal.bin","byteLength":384}],"bufferViews":[{"buffer":0,"byteOffset":0,"byteLength":31980,"target":34962},{"buffer":0,"byteOffset":31980,"byteLength":31980,"target":34962},{"buffer":0,"byteOffset":63960,"byteLength":21320,"target":34962},{"buffer":0,"byteOffset":85280,"byteLength":61440,"target":34963},{"buffer":0,"byteOffset":146720,"byteLength":1080,"target":34962},{"buffer":0,"byteOffset":147800,"byteLength":1080,"target":34962},{"buffer":0,"byteOffset":148880,"byteLength":576,"target":34963},{"buffer":0,"byteOffset":149456,"byteLength":288,"target":34962},{"buffer":0,"byteOffset":149744,"byteLength":288,"target":34962},{"buffer":0,"byteOffset":150032,"byteLength":144,"target":34963},{"buffer":0,"byteOffset":150176,"byteLength":179712,"target":34962},{"buffer":0,"byteOffset":329888,"byteLength":179712,"target":34962},{"buffer":0,"byteOffset":509600,"byteLength":192,"target":34962},{"buffer":0,"byteOffset":509792,"byteLength":192,"target":34962},{"buffer":0,"byteOffset":509984,"byteLength":128,"target":34962},{"buffer":0,"byteOffset":510112,"byteLength":96,"target":34963},{"buffer":0,"byteOffset":510208,"byteLength":36816,"target":34962},{"buffer":0,"byteOffset":547024,"byteLength":36816,"target":34962},{"buffer":0,"byteOffset":583840,"byteLength":34560,"target":34963},{"buffer":0,"byteOffset":618400,"byteLength":20376,"target":34962},{"buffer":0,"byteOffset":638776,"byteLength":20376,"target":34962},{"buffer":0,"byteOffset":659152,"byteLength":36912,"target":34963},{"buffer":0,"byteOffset":696064,"byteLength":14424,"target":34962},{"buffer":0,"byteOffset":710488,"byteLength":14424,"target":34962},{"buffer":0,"byteOffset":724912,"byteLength":7680,"target":34963},{"buffer":0,"byteOffset":732592,"byteLength":14424,"target":34962},{"buffer":0,"byteOffset":747016,"byteLength":14424,"target":34962},{"buffer":0,"byteOffset":761440,"byteLength":7680,"target":34963},{"buffer":0,"byteOffset":769120,"byteLength":14424,"target":34962},{"buffer":0,"byteOffset":783544,"byteLength":14424,"target":34962},{"buffer":0,"byteOffset":797968,"byteLength":7680,"target":34963},{"buffer":0,"byteOffset":805648,"byteLength":11616,"target":34962},{"buffer":0,"byteOffset":817264,"byteLength":11616,"target":34962},{"buffer":0,"byteOffset":828880,"byteLength":4608,"target":34963},{"buffer":0,"byteOffset":833488,"byteLength":336,"target":34962},{"buffer":0,"byteOffset":833824,"byteLength":336,"target":34962},{"buffer":0,"byteOffset":834160,"byteLength":144,"target":34963},{"buffer":0,"byteOffset":834304,"byteLength":432,"target":34962},{"buffer":0,"byteOffset":834736,"byteLength":432,"target":34962},{"buffer":0,"byteOffset":835168,"byteLength":288,"target":34963},{"buffer":0,"byteOffset":835456,"byteLength":11616,"target":34962},{"buffer":0,"byteOffset":847072,"byteLength":11616,"target":34962},{"buffer":0,"byteOffset":858688,"byteLength":4608,"target":34963},{"buffer":0,"byteOffset":863296,"byteLength":336,"target":34962},{"buffer":0,"byteOffset":863632,"byteLength":336,"target":34962},{"buffer":0,"byteOffset":863968,"byteLength":144,"target":34963},{"buffer":0,"byteOffset":864112,"byteLength":432,"target":34962},{"buffer":0,"byteOffset":864544,"byteLength":432,"target":34962},{"buffer":0,"byteOffset":864976,"byteLength":288,"target":34963},{"buffer":0,"byteOffset":865264,"byteLength":9036,"target":34962},{"buffer":0,"byteOffset":874300,"byteLength":9036,"target":34962},{"buffer":0,"byteOffset":883336,"byteLength":12960,"target":34963},{"buffer":0,"byteOffset":896296,"byteLength":9036,"target":34962},{"buffer":0,"byteOffset":905332,"byteLength":9036,"target":34962},{"buffer":0,"byteOffset":914368,"byteLength":12960,"target":34963},{"buffer":0,"byteOffset":927328,"byteLength":2304,"target":34962},{"buffer":0,"byteOffset":929632,"byteLength":2304,"target":34962},{"buffer":0,"byteOffset":931936,"byteLength":1152,"target":34963},{"buffer":0,"byteOffset":933088,"byteLength":6912,"target":34962},{"buffer":0,"byteOffset":940000,"byteLength":6912,"target":34962},{"buffer":0,"byteOffset":946912,"byteLength":3456,"target":34963},{"buffer":1,"byteOffset":0,"byteLength":144,"target":34962},{"buffer":1,"byteOffset":144,"byteLength":144,"target":34962},{"buffer":1,"byteOffset":288,"byteLength":96,"target":34962}],"accessors":[{"bufferView":0,"componentType":5126,"count":2665,"type":"VEC3","min":[-1.25,-1.25,-11.0],"max":[1.25,1.25,11.0]},{"bufferView":1,"componentType":5126,"count":2665,"type":"VEC3"},{"bufferView":2,"componentType":5126,"count":2665,"type":"VEC2"},{"bufferView":3,"componentType":5125,"count":15360,"type":"SCALAR"},{"bufferView":4,"componentType":5126,"count":90,"type":"VEC3","min":[-3.78,-0.64,-10.78],"max":[3.78,2.93,-5.5]},{"bufferView":5,"componentType":5126,"count":90,"type":"VEC3"},{"bufferView":6,"componentType":5125,"count":144,"type":"SCALAR"},{"bufferView":7,"componentType":5126,"count":24,"type":"VEC3","min":[-0.1,0.5,-10.89],"max":[0.1,4.4399999999999995,-6.16]},{"bufferView":8,"componentType":5126,"count":24,"type":"VEC3"},{"bufferView":9,"componentType":5125,"count":36,"type":"SCALAR"},{"bufferView":10,"componentType":5126,"count":14976,"type":"VEC3","min":[-2.73,0.07,-8.448],"max":[2.73,1.0476447086349137,9.746]},{"bufferView":11,"componentType":5126,"count":14976,"type":"VEC3"},{"bufferView":12,"componentType":5126,"count":16,"type":"VEC3","min":[-1.29,-0.525,-9.856],"max":[1.29,3.692,5.2425]},{"bufferView":13,"componentType":5126,"count":16,"type":"VEC3"},{"bufferView":14,"componentType":5126,"count":16,"type":"VEC2"},{"bufferView":15,"componentType":5125,"count":24,"type":"SCALAR"},{"bufferView":16,"componentType":5126,"count":3068,"type":"VEC3","min":[-2.814,-0.765,-8.008],"max":[2.814,1.1265,9.746]},{"bufferView":17,"componentType":5126,"count":3068,"type":"VEC3"},{"bufferView":18,"componentType":5125,"count":8640,"type":"SCALAR"},{"bufferView":19,"componentType":5126,"count":1698,"type":"VEC3","min":[-2.85,-0.75,-7.8100000000000005],"max":[2.85,1.1625,6.6]},{"bufferView":20,"componentType":5126,"count":1698,"type":"VEC3"},{"bufferView":21,"componentType":5125,"count":9228,"type":"SCALAR"},{"bufferView":22,"componentType":5126,"count":1202,"type":"VEC3","min":[-0.25,-0.4,-0.4],"max":[0.25,0.4,0.4]},{"bufferView":23,"componentType":5126,"count":1202,"type":"VEC3"},{"bufferView":24,"componentType":5125,"count":1920,"type":"SCALAR"},{"bufferView":25,"componentType":5126,"count":1202,"type":"VEC3","min":[-0.25,-0.4,-0.4],"max":[0.25,0.4,0.4]},{"bufferView":26,"componentType":5126,"count":1202,"type":"VEC3"},{"bufferView":27,"componentType":5125,"count":1920,"type":"SCALAR"},{"bufferView":28,"componentType":5126,"count":1202,"type":"VEC3","min":[-0.25,-0.4,-0.4],"max":[0.25,0.4,0.4]},{"bufferView":29,"componentType":5126,"count":1202,"type":"VEC3"},{"bufferView":30,"componentType":5125,"count":1920,"type":"SCALAR"},{"bufferView":31,"componentType":5126,"count":968,"type":"VEC3","min":[-10.5,-0.8088229480000662,-5.83],"max":[-0.9375,0.9435449196559313,2.2]},{"bufferView":32,"componentType":5126,"count":968,"type":"VEC3"},{"bufferView":33,"componentType":5125,"count":1152,"type":"SCALAR"},{"bufferView":34,"componentType":5126,"count":28,"type":"VEC3","min":[-10.5,0.96,-5.9399999999999995],"max":[-10.08,3.24,-4.18]},{"bufferView":35,"componentType":5126,"count":28,"type":"VEC3"},{"bufferView":36,"componentType":5125,"count":36,"type":"SCALAR"},{"bufferView":37,"componentType":5126,"count":36,"type":"VEC3","min":[-10.5,-0.38756103505231965,-5.53795],"max":[-0.9375,0.9406973917476739,-1.8392]},{"bufferView":38,"componentType":5126,"count":36,"type":"VEC3"},{"bufferView":39,"componentType":5125,"count":72,"type":"SCALAR"},{"bufferView":40,"componentType":5126,"count":968,"type":"VEC3","min":[0.9375,-0.8088229480000662,-5.83],"max":[10.5,0.9435449196559313,2.2]},{"bufferView":41,"componentType":5126,"count":968,"type":"VEC3"},{"bufferView":42,"componentType":5125,"count":1152,"type":"SCALAR"},{"bufferView":43,"componentType":5126,"count":28,"type":"VEC3","min":[10.08,0.96,-5.9399999999999995],"max":[10.5,3.24,-4.18]},{"bufferView":44,"componentType":5126,"count":28,"type":"VEC3"},{"bufferView":45,"componentType":5125,"count":36,"type":"SCALAR"},{"bufferView":46,"componentType":5126,"count":36,"type":"VEC3","min":[0.9375,-0.38756103505231965,-5.53795],"max":[10.5,0.9406973917476739,-1.8392]},{"bufferView":47,"componentType":5126,"count":36,"type":"VEC3"},{"bufferView":48,"componentType":5125,"count":72,"type":"SCALAR"},{"bufferView":49,"componentType":5126,"count":753,"type":"VEC3","min":[-2.711995528913847,0.10050447108615324,-5.821999999999999],"max":[-1.7880044710861531,1.0244955289138469,-5.279999999999999]},{"bufferView":50,"componentType":5126,"count":753,"type":"VEC3"},{"bufferView":51,"componentType":5125,"count":3240,"type":"SCALAR"},{"bufferView":52,"componentType":5126,"count":753,"type":"VEC3","min":[1.7880044710861531,0.10050447108615324,-5.821999999999999],"max":[2.711995528913847,1.0244955289138469,-5.279999999999999]},{"bufferView":53,"componentType":5126,"count":753,"type":"VEC3"},{"bufferView":54,"componentType":5125,"count":3240,"type":"SCALAR"},{"bufferView":55,"componentType":5126,"count":192,"type":"VEC3","min":[-1.12,-2.45,-2.3200000000000003],"max":[1.12,-1.85,6.5]},{"bufferView":56,"componentType":5126,"count":192,"type":"VEC3"},{"bufferView":57,"componentType":5125,"count":288,"type":"SCALAR"},{"bufferView":58,"componentType":5126,"count":576,"type":"VEC3","min":[-1.29,-3.0500000000000003,-2.4000000000000004],"max":[1.29,-0.875,6.832847735072428]},{"bufferView":59,"componentType":5126,"count":576,"type":"VEC3"},{"bufferView":60,"componentType":5125,"count":864,"type":"SCALAR"},{"bufferView":61,"componentType":5126,"count":12,"type":"VEC3","min":[-1.2369923201055049,0.25,-2.6399999999999997],"max":[1.2369923201055049,0.8125,5.279999999999999]},{"bufferView":62,"componentType":5126,"count":12,"type":"VEC3"},{"bufferView":63,"componentType":5126,"count":12,"type":"VEC2"}],"images":[{"uri":"../../airlines/SKYWARD.png"},{"uri":"fallback-paint-v5.png"}],"textures":[{"source":0,"sampler":0},{"source":1,"sampler":0}],"samplers":[{"magFilter":9729,"minFilter":9987,"wrapS":33071,"wrapT":33071}]}