{"asset":{"version":"2.0","generator":"Skyward detailed procedural bizjet fallback v6; approximate airframe; operator identification logos"},"scene":0,"scenes":[{"nodes":[0,1,5,6,7,8,9,10,11,12,13,14,15,16,17]}],"nodes":[{"mesh":0},{"mesh":1,"name":"Gear","children":[2,3,4]},{"mesh":2,"name":"WheelN","translation":[0,-2.85,6.38]},{"mesh":3,"name":"WheelL","translation":[-1.0,-2.85,-2.2]},{"mesh":4,"name":"WheelR","translation":[1.0,-2.85,-2.2]},{"mesh":5,"name":"SlatL"},{"mesh":6,"name":"FlapL"},{"mesh":7,"name":"SpoilerL"},{"mesh":8,"name":"ElevatorL"},{"mesh":9,"name":"SlatR"},{"mesh":10,"name":"FlapR"},{"mesh":11,"name":"SpoilerR"},{"mesh":12,"name":"ElevatorR"},{"mesh":13,"name":"Rudder"},{"mesh":14,"name":"FlexWingL"},{"mesh":15,"name":"FlexWingR"},{"mesh":16,"name":"SkywardFan0"},{"mesh":17,"name":"SkywardFan1"}],"meshes":[{"name":"AirframeWithCockpitGlazing","primitives":[{"indices":3,"attributes":{"POSITION":0,"NORMAL":1,"TEXCOORD_0":2},"material":0},{"indices":6,"attributes":{"POSITION":4,"NORMAL":5},"material":1},{"indices":9,"attributes":{"POSITION":7,"NORMAL":8},"material":2},{"attributes":{"POSITION":10,"NORMAL":11},"material":3},{"indices":15,"attributes":{"POSITION":12,"NORMAL":13,"TEXCOORD_0":14},"material":5},{"indices":18,"attributes":{"POSITION":16,"NORMAL":17},"material":6},{"indices":21,"attributes":{"POSITION":19,"NORMAL":20},"material":7},{"attributes":{"POSITION":101,"NORMAL":102,"TEXCOORD_0":103},"material":8}]},{"primitives":[{"indices":58,"attributes":{"POSITION":55,"NORMAL":56,"TEXCOORD_0":57},"material":0,"extras":{"gear":true}},{"indices":61,"attributes":{"POSITION":59,"NORMAL":60},"material":1,"extras":{"gear":true}},{"indices":64,"attributes":{"POSITION":62,"NORMAL":63},"material":6,"extras":{"gear":true}}]},{"primitives":[{"indices":24,"attributes":{"POSITION":22,"NORMAL":23},"material":4,"extras":{"wheel":0}},{"indices":94,"attributes":{"POSITION":92,"NORMAL":93},"material":6,"extras":{"wheel":0}}]},{"primitives":[{"indices":27,"attributes":{"POSITION":25,"NORMAL":26},"material":4,"extras":{"wheel":1}},{"indices":97,"attributes":{"POSITION":95,"NORMAL":96},"material":6,"extras":{"wheel":1}}]},{"primitives":[{"indices":30,"attributes":{"POSITION":28,"NORMAL":29},"material":4,"extras":{"wheel":2}},{"indices":100,"attributes":{"POSITION":98,"NORMAL":99},"material":6,"extras":{"wheel":2}}]},{"primitives":[{"indices":67,"attributes":{"POSITION":65,"NORMAL":66},"material":1,"extras":{"surface":0}}]},{"primitives":[{"indices":70,"attributes":{"POSITION":68,"NORMAL":69},"material":1,"extras":{"surface":1}}]},{"primitives":[{"indices":73,"attributes":{"POSITION":71,"NORMAL":72},"material":1,"extras":{"surface":2}}]},{"primitives":[{"indices":76,"attributes":{"POSITION":74,"NORMAL":75},"material":1,"extras":{"surface":3}}]},{"primitives":[{"indices":79,"attributes":{"POSITION":77,"NORMAL":78},"material":1,"extras":{"surface":4}}]},{"primitives":[{"indices":82,"attributes":{"POSITION":80,"NORMAL":81},"material":1,"extras":{"surface":5}}]},{"primitives":[{"indices":85,"attributes":{"POSITION":83,"NORMAL":84},"material":1,"extras":{"surface":6}}]},{"primitives":[{"indices":88,"attributes":{"POSITION":86,"NORMAL":87},"material":1,"extras":{"surface":7}}]},{"primitives":[{"indices":91,"attributes":{"POSITION":89,"NORMAL":90},"material":2,"extras":{"surface":8}}]},{"primitives":[{"indices":33,"attributes":{"POSITION":31,"NORMAL":32},"material":1,"extras":{"wing":0}},{"indices":36,"attributes":{"POSITION":34,"NORMAL":35},"material":2,"extras":{"wing":0}},{"indices":39,"attributes":{"POSITION":37,"NORMAL":38},"material":6,"extras":{"wing":0}}]},{"primitives":[{"indices":42,"attributes":{"POSITION":40,"NORMAL":41},"material":1,"extras":{"wing":1}},{"indices":45,"attributes":{"POSITION":43,"NORMAL":44},"material":2,"extras":{"wing":1}},{"indices":48,"attributes":{"POSITION":46,"NORMAL":47},"material":6,"extras":{"wing":1}}]},{"primitives":[{"indices":51,"attributes":{"POSITION":49,"NORMAL":50},"material":6,"extras":{"fan":0}}]},{"primitives":[{"indices":54,"attributes":{"POSITION":52,"NORMAL":53},"material":6,"extras":{"fan":1}}]}],"materials":[{"doubleSided":true,"pbrMetallicRoughness":{"baseColorFactor":[0.94,0.95,0.96,1],"metallicFactor":0.04,"roughnessFactor":0.27,"baseColorTexture":{"index":1}}},{"doubleSided":true,"pbrMetallicRoughness":{"baseColorFactor":[0.64,0.68,0.72,1],"metallicFactor":0.04,"roughnessFactor":0.4}},{"doubleSided":true,"pbrMetallicRoughness":{"baseColorFactor":[0.09803921568627451,0.2235294117647059,0.4745098039215686,1],"metallicFactor":0.04,"roughnessFactor":0.27}},{"doubleSided":true,"pbrMetallicRoughness":{"baseColorFactor":[0.02,0.055,0.085,1],"metallicFactor":0,"roughnessFactor":0.12}},{"doubleSided":true,"pbrMetallicRoughness":{"baseColorFactor":[0.07,0.08,0.09,1],"metallicFactor":0,"roughnessFactor":0.86}},{"doubleSided":true,"pbrMetallicRoughness":{"baseColorFactor":[1,1,1,1],"metallicFactor":0,"roughnessFactor":0.75,"baseColorTexture":{"index":0}},"alphaMode":"MASK","alphaCutoff":0.08},{"doubleSided":true,"pbrMetallicRoughness":{"baseColorFactor":[0.36,0.4,0.44,1],"metallicFactor":0.8,"roughnessFactor":0.28}},{"doubleSided":true,"pbrMetallicRoughness":{"baseColorFactor":[0.09803921568627451,0.2235294117647059,0.4745098039215686,1],"metallicFactor":0.04,"roughnessFactor":0.27}},{"name":"Operator title","doubleSided":true,"alphaMode":"MASK","alphaCutoff":0.15,"pbrMetallicRoughness":{"baseColorTexture":{"index":2},"baseColorFactor":[0.09803921568627451,0.2235294117647059,0.4745098039215686,1],"roughnessFactor":0.6,"metallicFactor":0}}],"buffers":[{"uri":"bizjet-v4.bin?tail=2&rig=1&detail=6","byteLength":1048672},{"uri":"bizjet-title.bin?detail=6","byteLength":18432}],"bufferViews":[{"buffer":0,"byteOffset":0,"byteLength":31980,"target":34962},{"buffer":0,"byteOffset":31980,"byteLength":31980,"target":34962},{"buffer":0,"byteOffset":63960,"byteLength":21320,"target":34962},{"buffer":0,"byteOffset":85280,"byteLength":61440,"target":34963},{"buffer":0,"byteOffset":146720,"byteLength":1248,"target":34962},{"buffer":0,"byteOffset":147968,"byteLength":1248,"target":34962},{"buffer":0,"byteOffset":149216,"byteLength":576,"target":34963},{"buffer":0,"byteOffset":149792,"byteLength":288,"target":34962},{"buffer":0,"byteOffset":150080,"byteLength":288,"target":34962},{"buffer":0,"byteOffset":150368,"byteLength":144,"target":34963},{"buffer":0,"byteOffset":150512,"byteLength":179712,"target":34962},{"buffer":0,"byteOffset":330224,"byteLength":179712,"target":34962},{"buffer":0,"byteOffset":509936,"byteLength":192,"target":34962},{"buffer":0,"byteOffset":510128,"byteLength":192,"target":34962},{"buffer":0,"byteOffset":510320,"byteLength":128,"target":34962},{"buffer":0,"byteOffset":510448,"byteLength":96,"target":34963},{"buffer":0,"byteOffset":510544,"byteLength":44424,"target":34962},{"buffer":0,"byteOffset":554968,"byteLength":44424,"target":34962},{"buffer":0,"byteOffset":599392,"byteLength":46848,"target":34963},{"buffer":0,"byteOffset":646240,"byteLength":20376,"target":34962},{"buffer":0,"byteOffset":666616,"byteLength":20376,"target":34962},{"buffer":0,"byteOffset":686992,"byteLength":36912,"target":34963},{"buffer":0,"byteOffset":723904,"byteLength":21504,"target":34962},{"buffer":0,"byteOffset":745408,"byteLength":21504,"target":34962},{"buffer":0,"byteOffset":766912,"byteLength":10752,"target":34963},{"buffer":0,"byteOffset":777664,"byteLength":21504,"target":34962},{"buffer":0,"byteOffset":799168,"byteLength":21504,"target":34962},{"buffer":0,"byteOffset":820672,"byteLength":10752,"target":34963},{"buffer":0,"byteOffset":831424,"byteLength":21504,"target":34962},{"buffer":0,"byteOffset":852928,"byteLength":21504,"target":34962},{"buffer":0,"byteOffset":874432,"byteLength":10752,"target":34963},{"buffer":0,"byteOffset":885184,"byteLength":8736,"target":34962},{"buffer":0,"byteOffset":893920,"byteLength":8736,"target":34962},{"buffer":0,"byteOffset":902656,"byteLength":3648,"target":34963},{"buffer":0,"byteOffset":906304,"byteLength":336,"target":34962},{"buffer":0,"byteOffset":906640,"byteLength":336,"target":34962},{"buffer":0,"byteOffset":906976,"byteLength":144,"target":34963},{"buffer":0,"byteOffset":907120,"byteLength":432,"target":34962},{"buffer":0,"byteOffset":907552,"byteLength":432,"target":34962},{"buffer":0,"byteOffset":907984,"byteLength":288,"target":34963},{"buffer":0,"byteOffset":908272,"byteLength":8736,"target":34962},{"buffer":0,"byteOffset":917008,"byteLength":8736,"target":34962},{"buffer":0,"byteOffset":925744,"byteLength":3648,"target":34963},{"buffer":0,"byteOffset":929392,"byteLength":336,"target":34962},{"buffer":0,"byteOffset":929728,"byteLength":336,"target":34962},{"buffer":0,"byteOffset":930064,"byteLength":144,"target":34963},{"buffer":0,"byteOffset":930208,"byteLength":432,"target":34962},{"buffer":0,"byteOffset":930640,"byteLength":432,"target":34962},{"buffer":0,"byteOffset":931072,"byteLength":288,"target":34963},{"buffer":0,"byteOffset":931360,"byteLength":9036,"target":34962},{"buffer":0,"byteOffset":940396,"byteLength":9036,"target":34962},{"buffer":0,"byteOffset":949432,"byteLength":12960,"target":34963},{"buffer":0,"byteOffset":962392,"byteLength":9036,"target":34962},{"buffer":0,"byteOffset":971428,"byteLength":9036,"target":34962},{"buffer":0,"byteOffset":980464,"byteLength":12960,"target":34963},{"buffer":0,"byteOffset":993424,"byteLength":864,"target":34962},{"buffer":0,"byteOffset":994288,"byteLength":864,"target":34962},{"buffer":0,"byteOffset":995152,"byteLength":576,"target":34962},{"buffer":0,"byteOffset":995728,"byteLength":432,"target":34963},{"buffer":0,"byteOffset":996160,"byteLength":2304,"target":34962},{"buffer":0,"byteOffset":998464,"byteLength":2304,"target":34962},{"buffer":0,"byteOffset":1000768,"byteLength":1152,"target":34963},{"buffer":0,"byteOffset":1001920,"byteLength":6912,"target":34962},{"buffer":0,"byteOffset":1008832,"byteLength":6912,"target":34962},{"buffer":0,"byteOffset":1015744,"byteLength":3456,"target":34963},{"buffer":0,"byteOffset":1019200,"byteLength":864,"target":34962},{"buffer":0,"byteOffset":1020064,"byteLength":864,"target":34962},{"buffer":0,"byteOffset":1020928,"byteLength":288,"target":34963},{"buffer":0,"byteOffset":1021216,"byteLength":1728,"target":34962},{"buffer":0,"byteOffset":1022944,"byteLength":1728,"target":34962},{"buffer":0,"byteOffset":1024672,"byteLength":576,"target":34963},{"buffer":0,"byteOffset":1025248,"byteLength":288,"target":34962},{"buffer":0,"byteOffset":1025536,"byteLength":288,"target":34962},{"buffer":0,"byteOffset":1025824,"byteLength":96,"target":34963},{"buffer":0,"byteOffset":1025920,"byteLength":288,"target":34962},{"buffer":0,"byteOffset":1026208,"byteLength":288,"target":34962},{"buffer":0,"byteOffset":1026496,"byteLength":144,"target":34963},{"buffer":0,"byteOffset":1026640,"byteLength":864,"target":34962},{"buffer":0,"byteOffset":1027504,"byteLength":864,"target":34962},{"buffer":0,"byteOffset":1028368,"byteLength":288,"target":34963},{"buffer":0,"byteOffset":1028656,"byteLength":1728,"target":34962},{"buffer":0,"byteOffset":1030384,"byteLength":1728,"target":34962},{"buffer":0,"byteOffset":1032112,"byteLength":576,"target":34963},{"buffer":0,"byteOffset":1032688,"byteLength":288,"target":34962},{"buffer":0,"byteOffset":1032976,"byteLength":288,"target":34962},{"buffer":0,"byteOffset":1033264,"byteLength":96,"target":34963},{"buffer":0,"byteOffset":1033360,"byteLength":288,"target":34962},{"buffer":0,"byteOffset":1033648,"byteLength":288,"target":34962},{"buffer":0,"byteOffset":1033936,"byteLength":144,"target":34963},{"buffer":0,"byteOffset":1034080,"byteLength":168,"target":34962},{"buffer":0,"byteOffset":1034248,"byteLength":168,"target":34962},{"buffer":0,"byteOffset":1034416,"byteLength":144,"target":34963},{"buffer":0,"byteOffset":1034560,"byteLength":1584,"target":34962},{"buffer":0,"byteOffset":1036144,"byteLength":1584,"target":34962},{"buffer":0,"byteOffset":1037728,"byteLength":1536,"target":34963},{"buffer":0,"byteOffset":1039264,"byteLength":1584,"target":34962},{"buffer":0,"byteOffset":1040848,"byteLength":1584,"target":34962},{"buffer":0,"byteOffset":1042432,"byteLength":1536,"target":34963},{"buffer":0,"byteOffset":1043968,"byteLength":1584,"target":34962},{"buffer":0,"byteOffset":1045552,"byteLength":1584,"target":34962},{"buffer":0,"byteOffset":1047136,"byteLength":1536,"target":34963},{"buffer":1,"byteOffset":0,"byteLength":6912,"target":34962},{"buffer":1,"byteOffset":6912,"byteLength":6912,"target":34962},{"buffer":1,"byteOffset":13824,"byteLength":4608,"target":34962}],"accessors":[{"bufferView":0,"componentType":5126,"count":2665,"type":"VEC3","min":[-1.25,-1.25,-11.0],"max":[1.25,1.25,11.0]},{"bufferView":1,"componentType":5126,"count":2665,"type":"VEC3"},{"bufferView":2,"componentType":5126,"count":2665,"type":"VEC2"},{"bufferView":3,"componentType":5125,"count":15360,"type":"SCALAR"},{"bufferView":4,"componentType":5126,"count":104,"type":"VEC3","min":[-3.78,0.4625,-10.23],"max":[3.78,5.4148,-5.9399999999999995]},{"bufferView":5,"componentType":5126,"count":104,"type":"VEC3"},{"bufferView":6,"componentType":5125,"count":144,"type":"SCALAR"},{"bufferView":7,"componentType":5126,"count":24,"type":"VEC3","min":[-0.1,0.5,-10.23],"max":[0.1,5.21,-6.16]},{"bufferView":8,"componentType":5126,"count":24,"type":"VEC3"},{"bufferView":9,"componentType":5125,"count":36,"type":"SCALAR"},{"bufferView":10,"componentType":5126,"count":14976,"type":"VEC3","min":[-2.73,0.07,-8.448],"max":[2.73,1.0425,9.746]},{"bufferView":11,"componentType":5126,"count":14976,"type":"VEC3"},{"bufferView":12,"componentType":5126,"count":16,"type":"VEC3","min":[-1.29,-0.525,-9.856],"max":[1.29,4.180400000000001,5.2425]},{"bufferView":13,"componentType":5126,"count":16,"type":"VEC3"},{"bufferView":14,"componentType":5126,"count":16,"type":"VEC2"},{"bufferView":15,"componentType":5125,"count":24,"type":"SCALAR"},{"bufferView":16,"componentType":5126,"count":3702,"type":"VEC3","min":[-2.8392,-0.765,-8.008],"max":[2.8392,1.1517,9.746]},{"bufferView":17,"componentType":5126,"count":3702,"type":"VEC3"},{"bufferView":18,"componentType":5125,"count":11712,"type":"SCALAR"},{"bufferView":19,"componentType":5126,"count":1698,"type":"VEC3","min":[-2.85,-0.75,-7.8100000000000005],"max":[2.85,1.1625,6.6]},{"bufferView":20,"componentType":5126,"count":1698,"type":"VEC3"},{"bufferView":21,"componentType":5125,"count":9228,"type":"SCALAR"},{"bufferView":22,"componentType":5126,"count":1792,"type":"VEC3","min":[-0.41000000000000003,-0.4,-0.4],"max":[0.41000000000000003,0.4,0.4]},{"bufferView":23,"componentType":5126,"count":1792,"type":"VEC3"},{"bufferView":24,"componentType":5125,"count":2688,"type":"SCALAR"},{"bufferView":25,"componentType":5126,"count":1792,"type":"VEC3","min":[-0.41000000000000003,-0.4,-0.4],"max":[0.41000000000000003,0.4,0.4]},{"bufferView":26,"componentType":5126,"count":1792,"type":"VEC3"},{"bufferView":27,"componentType":5125,"count":2688,"type":"SCALAR"},{"bufferView":28,"componentType":5126,"count":1792,"type":"VEC3","min":[-0.41000000000000003,-0.4,-0.4],"max":[0.41000000000000003,0.4,0.4]},{"bufferView":29,"componentType":5126,"count":1792,"type":"VEC3"},{"bufferView":30,"componentType":5125,"count":2688,"type":"SCALAR"},{"bufferView":31,"componentType":5126,"count":728,"type":"VEC3","min":[-10.5,-0.8088229480000662,-6.49],"max":[-0.9375,0.9435449196559313,2.2]},{"bufferView":32,"componentType":5126,"count":728,"type":"VEC3"},{"bufferView":33,"componentType":5125,"count":912,"type":"SCALAR"},{"bufferView":34,"componentType":5126,"count":28,"type":"VEC3","min":[-10.5,0.96,-6.6],"max":[-10.08,3.24,-4.84]},{"bufferView":35,"componentType":5126,"count":28,"type":"VEC3"},{"bufferView":36,"componentType":5125,"count":36,"type":"SCALAR"},{"bufferView":37,"componentType":5126,"count":36,"type":"VEC3","min":[-10.5,-0.38756103505231965,-6.1979500000000005],"max":[-0.9375,0.9406973917476739,-1.8392]},{"bufferView":38,"componentType":5126,"count":36,"type":"VEC3"},{"bufferView":39,"componentType":5125,"count":72,"type":"SCALAR"},{"bufferView":40,"componentType":5126,"count":728,"type":"VEC3","min":[0.9375,-0.8088229480000662,-6.49],"max":[10.5,0.9435449196559313,2.2]},{"bufferView":41,"componentType":5126,"count":728,"type":"VEC3"},{"bufferView":42,"componentType":5125,"count":912,"type":"SCALAR"},{"bufferView":43,"componentType":5126,"count":28,"type":"VEC3","min":[10.08,0.96,-6.6],"max":[10.5,3.24,-4.84]},{"bufferView":44,"componentType":5126,"count":28,"type":"VEC3"},{"bufferView":45,"componentType":5125,"count":36,"type":"SCALAR"},{"bufferView":46,"componentType":5126,"count":36,"type":"VEC3","min":[0.9375,-0.38756103505231965,-6.1979500000000005],"max":[10.5,0.9406973917476739,-1.8392]},{"bufferView":47,"componentType":5126,"count":36,"type":"VEC3"},{"bufferView":48,"componentType":5125,"count":72,"type":"SCALAR"},{"bufferView":49,"componentType":5126,"count":753,"type":"VEC3","min":[-2.711995528913847,0.10050447108615324,-5.821999999999999],"max":[-1.7880044710861531,1.0244955289138469,-5.279999999999999]},{"bufferView":50,"componentType":5126,"count":753,"type":"VEC3"},{"bufferView":51,"componentType":5125,"count":3240,"type":"SCALAR"},{"bufferView":52,"componentType":5126,"count":753,"type":"VEC3","min":[1.7880044710861531,0.10050447108615324,-5.821999999999999],"max":[2.711995528913847,1.0244955289138469,-5.279999999999999]},{"bufferView":53,"componentType":5126,"count":753,"type":"VEC3"},{"bufferView":54,"componentType":5125,"count":3240,"type":"SCALAR"},{"bufferView":55,"componentType":5126,"count":72,"type":"VEC3","min":[-1.62,-2.275,-2.85],"max":[0.52,-0.9125,7.03]},{"bufferView":56,"componentType":5126,"count":72,"type":"VEC3"},{"bufferView":57,"componentType":5126,"count":72,"type":"VEC2"},{"bufferView":58,"componentType":5125,"count":108,"type":"SCALAR"},{"bufferView":59,"componentType":5126,"count":192,"type":"VEC3","min":[-1.12,-2.45,-2.3200000000000003],"max":[1.12,-1.85,6.5]},{"bufferView":60,"componentType":5126,"count":192,"type":"VEC3"},{"bufferView":61,"componentType":5125,"count":288,"type":"SCALAR"},{"bufferView":62,"componentType":5126,"count":576,"type":"VEC3","min":[-1.42,-2.94,-2.29],"max":[1.42,-0.875,6.832847735072428]},{"bufferView":63,"componentType":5126,"count":576,"type":"VEC3"},{"bufferView":64,"componentType":5125,"count":864,"type":"SCALAR"},{"bufferView":65,"componentType":5126,"count":72,"type":"VEC3","min":[-9.450000000000001,-0.7160072859682162,-4.902799385678188],"max":[-0.9375,0.7311766775247587,2.2]},{"bufferView":66,"componentType":5126,"count":72,"type":"VEC3"},{"bufferView":67,"componentType":5125,"count":72,"type":"SCALAR"},{"bufferView":68,"componentType":5126,"count":144,"type":"VEC3","min":[-9.450000000000001,-0.6239696699247139,-6.49],"max":[-0.9375,0.728362530366475,-2.8701071401240466]},{"bufferView":69,"componentType":5126,"count":144,"type":"VEC3"},{"bufferView":70,"componentType":5125,"count":144,"type":"SCALAR"},{"bufferView":71,"componentType":5126,"count":24,"type":"VEC3","min":[-9.450000000000001,-0.3373119665355223,-6.0775],"max":[-0.9375,0.7611185390395054,-1.5386925639544868]},{"bufferView":72,"componentType":5126,"count":24,"type":"VEC3"},{"bufferView":73,"componentType":5125,"count":24,"type":"SCALAR"},{"bufferView":74,"componentType":5126,"count":24,"type":"VEC3","min":[-3.78,4.6748,-10.78],"max":[-0.5,5.394799999999999,-9.129999999999999]},{"bufferView":75,"componentType":5126,"count":24,"type":"VEC3"},{"bufferView":76,"componentType":5125,"count":36,"type":"SCALAR"},{"bufferView":77,"componentType":5126,"count":72,"type":"VEC3","min":[0.9375,-0.7160072859682162,-4.902799385678188],"max":[9.450000000000001,0.7311766775247587,2.2]},{"bufferView":78,"componentType":5126,"count":72,"type":"VEC3"},{"bufferView":79,"componentType":5125,"count":72,"type":"SCALAR"},{"bufferView":80,"componentType":5126,"count":144,"type":"VEC3","min":[0.9375,-0.6239696699247139,-6.49],"max":[9.450000000000001,0.728362530366475,-2.8701071401240466]},{"bufferView":81,"componentType":5126,"count":144,"type":"VEC3"},{"bufferView":82,"componentType":5125,"count":144,"type":"SCALAR"},{"bufferView":83,"componentType":5126,"count":24,"type":"VEC3","min":[0.9375,-0.3373119665355223,-6.0775],"max":[9.450000000000001,0.7611185390395054,-1.5386925639544868]},{"bufferView":84,"componentType":5126,"count":24,"type":"VEC3"},{"bufferView":85,"componentType":5125,"count":24,"type":"SCALAR"},{"bufferView":86,"componentType":5126,"count":24,"type":"VEC3","min":[0.5,4.6748,-10.78],"max":[3.78,5.394799999999999,-9.129999999999999]},{"bufferView":87,"componentType":5126,"count":24,"type":"VEC3"},{"bufferView":88,"componentType":5125,"count":36,"type":"SCALAR"},{"bufferView":89,"componentType":5126,"count":14,"type":"VEC3","min":[0,0.42,-10.89],"max":[0,5.29,-9.856]},{"bufferView":90,"componentType":5126,"count":14,"type":"VEC3"},{"bufferView":91,"componentType":5125,"count":36,"type":"SCALAR"},{"bufferView":92,"componentType":5126,"count":132,"type":"VEC3","min":[-0.41100000000000003,-0.22000000000000003,-0.22000000000000003],"max":[0.41100000000000003,0.22000000000000003,0.22000000000000003]},{"bufferView":93,"componentType":5126,"count":132,"type":"VEC3"},{"bufferView":94,"componentType":5125,"count":384,"type":"SCALAR"},{"bufferView":95,"componentType":5126,"count":132,"type":"VEC3","min":[-0.41100000000000003,-0.22000000000000003,-0.22000000000000003],"max":[0.41100000000000003,0.22000000000000003,0.22000000000000003]},{"bufferView":96,"componentType":5126,"count":132,"type":"VEC3"},{"bufferView":97,"componentType":5125,"count":384,"type":"SCALAR"},{"bufferView":98,"componentType":5126,"count":132,"type":"VEC3","min":[-0.41100000000000003,-0.22000000000000003,-0.22000000000000003],"max":[0.41100000000000003,0.22000000000000003,0.22000000000000003]},{"bufferView":99,"componentType":5126,"count":132,"type":"VEC3"},{"bufferView":100,"componentType":5125,"count":384,"type":"SCALAR"},{"bufferView":101,"componentType":5126,"count":576,"type":"VEC3","min":[-1.1941903789690602,0.44999999999999996,-2.6399999999999997],"max":[1.1941903789690602,0.7625,5.5]},{"bufferView":102,"componentType":5126,"count":576,"type":"VEC3"},{"bufferView":103,"componentType":5126,"count":576,"type":"VEC2"}],"images":[{"uri":"../../airlines/JBU.png"},{"uri":"fallback-paint-v5.png"},{"uri":"title-JBU.png"}],"textures":[{"source":0,"sampler":0},{"source":1,"sampler":0},{"source":2,"sampler":0}],"samplers":[{"magFilter":9729,"minFilter":9987,"wrapS":33071,"wrapT":33071}]}