{"asset":{"version":"2.0","generator":"Skyward original illustrative crj profile; logos for operator identification"},"scene":0,"scenes":[{"nodes":[0,1]}],"nodes":[{"mesh":0},{"mesh":1,"name":"Gear","children":[2,3,4]},{"mesh":2,"name":"WheelN","translation":[0,-2.95,10.44]},{"mesh":3,"name":"WheelL","translation":[-1.08,-2.95,-3.6]},{"mesh":4,"name":"WheelR","translation":[1.08,-2.95,-3.6]}],"meshes":[{"primitives":[{"attributes":{"POSITION":0,"NORMAL":1},"material":0},{"attributes":{"POSITION":2,"NORMAL":3},"material":1},{"attributes":{"POSITION":4,"NORMAL":5},"material":2},{"attributes":{"POSITION":6,"NORMAL":7},"material":3},{"attributes":{"POSITION":10,"NORMAL":11,"TEXCOORD_0":12},"material":5},{"attributes":{"POSITION":13,"NORMAL":14},"material":6},{"attributes":{"POSITION":15,"NORMAL":16},"material":7}]},{"primitives":[{"attributes":{"POSITION":8,"NORMAL":9},"material":4}]},{"primitives":[{"attributes":{"POSITION":17,"NORMAL":18},"material":4,"extras":{"wheel":0}}]},{"primitives":[{"attributes":{"POSITION":19,"NORMAL":20},"material":4,"extras":{"wheel":1}}]},{"primitives":[{"attributes":{"POSITION":21,"NORMAL":22},"material":4,"extras":{"wheel":2}}]}],"materials":[{"doubleSided":true,"pbrMetallicRoughness":{"baseColorFactor":[0.94,0.95,0.96,1],"metallicFactor":0.18,"roughnessFactor":0.3}},{"doubleSided":true,"pbrMetallicRoughness":{"baseColorFactor":[0.64,0.68,0.72,1],"metallicFactor":0.18,"roughnessFactor":0.3}},{"doubleSided":true,"pbrMetallicRoughness":{"baseColorFactor":[0.13725490196078433,0.30196078431372547,0.6078431372549019,1],"metallicFactor":0.18,"roughnessFactor":0.3}},{"doubleSided":true,"pbrMetallicRoughness":{"baseColorFactor":[0.02,0.055,0.085,1],"metallicFactor":0.18,"roughnessFactor":0.17}},{"doubleSided":true,"pbrMetallicRoughness":{"baseColorFactor":[0.07,0.08,0.09,1],"metallicFactor":0.18,"roughnessFactor":0.3}},{"doubleSided":true,"pbrMetallicRoughness":{"baseColorFactor":[1,1,1,1],"metallicFactor":0,"roughnessFactor":0.75,"baseColorTexture":{"index":0}},"alphaMode":"MASK","alphaCutoff":0.08},{"doubleSided":true,"pbrMetallicRoughness":{"baseColorFactor":[0.36,0.4,0.44,1],"metallicFactor":0.7,"roughnessFactor":0.3}},{"doubleSided":true,"pbrMetallicRoughness":{"baseColorFactor":[0.13725490196078433,0.30196078431372547,0.6078431372549019,1],"metallicFactor":0.18,"roughnessFactor":0.3}}],"buffers":[{"uri":"crj-v4.bin?tail=2","byteLength":237504}],"bufferViews":[{"buffer":0,"byteOffset":0,"byteLength":34560,"target":34962},{"buffer":0,"byteOffset":34560,"byteLength":34560,"target":34962},{"buffer":0,"byteOffset":69120,"byteLength":2880,"target":34962},{"buffer":0,"byteOffset":72000,"byteLength":2880,"target":34962},{"buffer":0,"byteOffset":74880,"byteLength":1296,"target":34962},{"buffer":0,"byteOffset":76176,"byteLength":1296,"target":34962},{"buffer":0,"byteOffset":77472,"byteLength":28368,"target":34962},{"buffer":0,"byteOffset":105840,"byteLength":28368,"target":34962},{"buffer":0,"byteOffset":134208,"byteLength":1296,"target":34962},{"buffer":0,"byteOffset":135504,"byteLength":1296,"target":34962},{"buffer":0,"byteOffset":136800,"byteLength":288,"target":34962},{"buffer":0,"byteOffset":137088,"byteLength":288,"target":34962},{"buffer":0,"byteOffset":137376,"byteLength":192,"target":34962},{"buffer":0,"byteOffset":137568,"byteLength":15264,"target":34962},{"buffer":0,"byteOffset":152832,"byteLength":15264,"target":34962},{"buffer":0,"byteOffset":168096,"byteLength":20880,"target":34962},{"buffer":0,"byteOffset":188976,"byteLength":20880,"target":34962},{"buffer":0,"byteOffset":209856,"byteLength":4608,"target":34962},{"buffer":0,"byteOffset":214464,"byteLength":4608,"target":34962},{"buffer":0,"byteOffset":219072,"byteLength":4608,"target":34962},{"buffer":0,"byteOffset":223680,"byteLength":4608,"target":34962},{"buffer":0,"byteOffset":228288,"byteLength":4608,"target":34962},{"buffer":0,"byteOffset":232896,"byteLength":4608,"target":34962}],"accessors":[{"bufferView":0,"componentType":5126,"count":2880,"type":"VEC3","min":[-1.35,-1.35,-18.0],"max":[1.35,1.35,18.0]},{"bufferView":1,"componentType":5126,"count":2880,"type":"VEC3"},{"bufferView":2,"componentType":5126,"count":240,"type":"VEC3","min":[-12.5,-0.7275,-17.64],"max":[12.5,3.1100000000000003,3.6]},{"bufferView":3,"componentType":5126,"count":240,"type":"VEC3"},{"bufferView":4,"componentType":5126,"count":108,"type":"VEC3","min":[-12.5,0.54,-17.82],"max":[12.5,6.57,-6.84]},{"bufferView":5,"componentType":5126,"count":108,"type":"VEC3"},{"bufferView":6,"componentType":5126,"count":2364,"type":"VEC3","min":[-2.9484000000000004,0.08909999999999996,-9.575999999999999],"max":[2.9484000000000004,1.1259000000000001,14.94]},{"bufferView":7,"componentType":5126,"count":2364,"type":"VEC3"},{"bufferView":8,"componentType":5126,"count":108,"type":"VEC3","min":[-1.1800000000000002,-2.95,-3.7],"max":[1.1800000000000002,-1.3500000000000003,10.54]},{"bufferView":9,"componentType":5126,"count":108,"type":"VEC3"},{"bufferView":10,"componentType":5126,"count":24,"type":"VEC3","min":[-1.3900000000000001,-0.5670000000000001,-16.128],"max":[1.3900000000000001,5.346,7.9875]},{"bufferView":11,"componentType":5126,"count":24,"type":"VEC3"},{"bufferView":12,"componentType":5126,"count":24,"type":"VEC2"},{"bufferView":13,"componentType":5126,"count":1272,"type":"VEC3","min":[-3.03912,-0.405,-9.54],"max":[3.03912,1.21662,10.130000000000003]},{"bufferView":14,"componentType":5126,"count":1272,"type":"VEC3"},{"bufferView":15,"componentType":5126,"count":1740,"type":"VEC3","min":[-3.0780000000000003,-0.81,-12.78],"max":[3.0780000000000003,1.2555,10.799999999999999]},{"bufferView":16,"componentType":5126,"count":1740,"type":"VEC3"},{"bufferView":17,"componentType":5126,"count":384,"type":"VEC3","min":[-0.25,-0.4,-0.4],"max":[0.25,0.4,0.4]},{"bufferView":18,"componentType":5126,"count":384,"type":"VEC3"},{"bufferView":19,"componentType":5126,"count":384,"type":"VEC3","min":[-0.25,-0.4,-0.4],"max":[0.25,0.4,0.4]},{"bufferView":20,"componentType":5126,"count":384,"type":"VEC3"},{"bufferView":21,"componentType":5126,"count":384,"type":"VEC3","min":[-0.25,-0.4,-0.4],"max":[0.25,0.4,0.4]},{"bufferView":22,"componentType":5126,"count":384,"type":"VEC3"}],"images":[{"uri":"../../airlines/ANA.png"}],"textures":[{"source":0,"sampler":0}],"samplers":[{"magFilter":9729,"minFilter":9987,"wrapS":33071,"wrapT":33071}]}