{"asset":{"version":"2.0","generator":"Skyward detailed procedural e190 fallback v6; approximate airframe; operator identification logos"},"scene":0,"scenes":[{"nodes":[0,1,5,6,7,8,9,10,11,12,13,14,15,16,17]}],"nodes":[{"mesh":0},{"mesh":1,"name":"Gear","children":[2,3,4]},{"mesh":2,"name":"WheelN","translation":[0,-3.1,10.44]},{"mesh":3,"name":"WheelL","translation":[-1.2000000000000002,-3.1,-3.6]},{"mesh":4,"name":"WheelR","translation":[1.2000000000000002,-3.1,-3.6]},{"mesh":5,"name":"SlatL"},{"mesh":6,"name":"FlapL"},{"mesh":7,"name":"SpoilerL"},{"mesh":8,"name":"ElevatorL"},{"mesh":9,"name":"SlatR"},{"mesh":10,"name":"FlapR"},{"mesh":11,"name":"SpoilerR"},{"mesh":12,"name":"ElevatorR"},{"mesh":13,"name":"Rudder"},{"mesh":14,"name":"FlexWingL"},{"mesh":15,"name":"FlexWingR"},{"mesh":16,"name":"SkywardFan0"},{"mesh":17,"name":"SkywardFan1"}],"meshes":[{"name":"AirframeWithCockpitGlazing","primitives":[{"indices":3,"attributes":{"POSITION":0,"NORMAL":1,"TEXCOORD_0":2},"material":0},{"indices":6,"attributes":{"POSITION":4,"NORMAL":5},"material":1},{"indices":9,"attributes":{"POSITION":7,"NORMAL":8},"material":2},{"attributes":{"POSITION":10,"NORMAL":11},"material":3},{"indices":15,"attributes":{"POSITION":12,"NORMAL":13,"TEXCOORD_0":14},"material":5},{"indices":18,"attributes":{"POSITION":16,"NORMAL":17},"material":6},{"indices":21,"attributes":{"POSITION":19,"NORMAL":20},"material":7},{"attributes":{"POSITION":101,"NORMAL":102,"TEXCOORD_0":103},"material":8}]},{"primitives":[{"indices":58,"attributes":{"POSITION":55,"NORMAL":56,"TEXCOORD_0":57},"material":0,"extras":{"gear":true}},{"indices":61,"attributes":{"POSITION":59,"NORMAL":60},"material":1,"extras":{"gear":true}},{"indices":64,"attributes":{"POSITION":62,"NORMAL":63},"material":6,"extras":{"gear":true}}]},{"primitives":[{"indices":24,"attributes":{"POSITION":22,"NORMAL":23},"material":4,"extras":{"wheel":0}},{"indices":94,"attributes":{"POSITION":92,"NORMAL":93},"material":6,"extras":{"wheel":0}}]},{"primitives":[{"indices":27,"attributes":{"POSITION":25,"NORMAL":26},"material":4,"extras":{"wheel":1}},{"indices":97,"attributes":{"POSITION":95,"NORMAL":96},"material":6,"extras":{"wheel":1}}]},{"primitives":[{"indices":30,"attributes":{"POSITION":28,"NORMAL":29},"material":4,"extras":{"wheel":2}},{"indices":100,"attributes":{"POSITION":98,"NORMAL":99},"material":6,"extras":{"wheel":2}}]},{"primitives":[{"indices":67,"attributes":{"POSITION":65,"NORMAL":66},"material":1,"extras":{"surface":0}}]},{"primitives":[{"indices":70,"attributes":{"POSITION":68,"NORMAL":69},"material":1,"extras":{"surface":1}}]},{"primitives":[{"indices":73,"attributes":{"POSITION":71,"NORMAL":72},"material":1,"extras":{"surface":2}}]},{"primitives":[{"indices":76,"attributes":{"POSITION":74,"NORMAL":75},"material":1,"extras":{"surface":3}}]},{"primitives":[{"indices":79,"attributes":{"POSITION":77,"NORMAL":78},"material":1,"extras":{"surface":4}}]},{"primitives":[{"indices":82,"attributes":{"POSITION":80,"NORMAL":81},"material":1,"extras":{"surface":5}}]},{"primitives":[{"indices":85,"attributes":{"POSITION":83,"NORMAL":84},"material":1,"extras":{"surface":6}}]},{"primitives":[{"indices":88,"attributes":{"POSITION":86,"NORMAL":87},"material":1,"extras":{"surface":7}}]},{"primitives":[{"indices":91,"attributes":{"POSITION":89,"NORMAL":90},"material":2,"extras":{"surface":8}}]},{"primitives":[{"indices":33,"attributes":{"POSITION":31,"NORMAL":32},"material":1,"extras":{"wing":0}},{"indices":36,"attributes":{"POSITION":34,"NORMAL":35},"material":2,"extras":{"wing":0}},{"indices":39,"attributes":{"POSITION":37,"NORMAL":38},"material":6,"extras":{"wing":0}}]},{"primitives":[{"indices":42,"attributes":{"POSITION":40,"NORMAL":41},"material":1,"extras":{"wing":1}},{"indices":45,"attributes":{"POSITION":43,"NORMAL":44},"material":2,"extras":{"wing":1}},{"indices":48,"attributes":{"POSITION":46,"NORMAL":47},"material":6,"extras":{"wing":1}}]},{"primitives":[{"indices":51,"attributes":{"POSITION":49,"NORMAL":50},"material":6,"extras":{"fan":0}}]},{"primitives":[{"indices":54,"attributes":{"POSITION":52,"NORMAL":53},"material":6,"extras":{"fan":1}}]}],"materials":[{"doubleSided":true,"pbrMetallicRoughness":{"baseColorFactor":[0.94,0.95,0.96,1],"metallicFactor":0.04,"roughnessFactor":0.27,"baseColorTexture":{"index":1}}},{"doubleSided":true,"pbrMetallicRoughness":{"baseColorFactor":[0.64,0.68,0.72,1],"metallicFactor":0.04,"roughnessFactor":0.4}},{"doubleSided":true,"pbrMetallicRoughness":{"baseColorFactor":[0.14901960784313725,0.23921568627450981,0.49411764705882355,1],"metallicFactor":0.04,"roughnessFactor":0.27}},{"doubleSided":true,"pbrMetallicRoughness":{"baseColorFactor":[0.02,0.055,0.085,1],"metallicFactor":0,"roughnessFactor":0.12}},{"doubleSided":true,"pbrMetallicRoughness":{"baseColorFactor":[0.07,0.08,0.09,1],"metallicFactor":0,"roughnessFactor":0.86}},{"doubleSided":true,"pbrMetallicRoughness":{"baseColorFactor":[1,1,1,1],"metallicFactor":0,"roughnessFactor":0.75,"baseColorTexture":{"index":0}},"alphaMode":"MASK","alphaCutoff":0.08},{"doubleSided":true,"pbrMetallicRoughness":{"baseColorFactor":[0.36,0.4,0.44,1],"metallicFactor":0.8,"roughnessFactor":0.28}},{"doubleSided":true,"pbrMetallicRoughness":{"baseColorFactor":[0.14901960784313725,0.23921568627450981,0.49411764705882355,1],"metallicFactor":0.04,"roughnessFactor":0.27}},{"name":"Operator title","doubleSided":true,"alphaMode":"MASK","alphaCutoff":0.15,"pbrMetallicRoughness":{"baseColorTexture":{"index":2},"baseColorFactor":[0.14901960784313725,0.23921568627450981,0.49411764705882355,1],"roughnessFactor":0.6,"metallicFactor":0}}],"buffers":[{"uri":"e190-v4.bin?tail=2&rig=1&detail=6","byteLength":1302112},{"uri":"e190-title.bin?detail=6","byteLength":18432}],"bufferViews":[{"buffer":0,"byteOffset":0,"byteLength":31980,"target":34962},{"buffer":0,"byteOffset":31980,"byteLength":31980,"target":34962},{"buffer":0,"byteOffset":63960,"byteLength":21320,"target":34962},{"buffer":0,"byteOffset":85280,"byteLength":61440,"target":34963},{"buffer":0,"byteOffset":146720,"byteLength":1080,"target":34962},{"buffer":0,"byteOffset":147800,"byteLength":1080,"target":34962},{"buffer":0,"byteOffset":148880,"byteLength":576,"target":34963},{"buffer":0,"byteOffset":149456,"byteLength":288,"target":34962},{"buffer":0,"byteOffset":149744,"byteLength":288,"target":34962},{"buffer":0,"byteOffset":150032,"byteLength":144,"target":34963},{"buffer":0,"byteOffset":150176,"byteLength":182592,"target":34962},{"buffer":0,"byteOffset":332768,"byteLength":182592,"target":34962},{"buffer":0,"byteOffset":515360,"byteLength":192,"target":34962},{"buffer":0,"byteOffset":515552,"byteLength":192,"target":34962},{"buffer":0,"byteOffset":515744,"byteLength":128,"target":34962},{"buffer":0,"byteOffset":515872,"byteLength":96,"target":34963},{"buffer":0,"byteOffset":515968,"byteLength":50760,"target":34962},{"buffer":0,"byteOffset":566728,"byteLength":50760,"target":34962},{"buffer":0,"byteOffset":617488,"byteLength":49920,"target":34963},{"buffer":0,"byteOffset":667408,"byteLength":20376,"target":34962},{"buffer":0,"byteOffset":687784,"byteLength":20376,"target":34962},{"buffer":0,"byteOffset":708160,"byteLength":36912,"target":34963},{"buffer":0,"byteOffset":745072,"byteLength":21504,"target":34962},{"buffer":0,"byteOffset":766576,"byteLength":21504,"target":34962},{"buffer":0,"byteOffset":788080,"byteLength":10752,"target":34963},{"buffer":0,"byteOffset":798832,"byteLength":21504,"target":34962},{"buffer":0,"byteOffset":820336,"byteLength":21504,"target":34962},{"buffer":0,"byteOffset":841840,"byteLength":10752,"target":34963},{"buffer":0,"byteOffset":852592,"byteLength":21504,"target":34962},{"buffer":0,"byteOffset":874096,"byteLength":21504,"target":34962},{"buffer":0,"byteOffset":895600,"byteLength":10752,"target":34963},{"buffer":0,"byteOffset":906352,"byteLength":39156,"target":34962},{"buffer":0,"byteOffset":945508,"byteLength":39156,"target":34962},{"buffer":0,"byteOffset":984664,"byteLength":58944,"target":34963},{"buffer":0,"byteOffset":1043608,"byteLength":336,"target":34962},{"buffer":0,"byteOffset":1043944,"byteLength":336,"target":34962},{"buffer":0,"byteOffset":1044280,"byteLength":144,"target":34963},{"buffer":0,"byteOffset":1044424,"byteLength":432,"target":34962},{"buffer":0,"byteOffset":1044856,"byteLength":432,"target":34962},{"buffer":0,"byteOffset":1045288,"byteLength":288,"target":34963},{"buffer":0,"byteOffset":1045576,"byteLength":39156,"target":34962},{"buffer":0,"byteOffset":1084732,"byteLength":39156,"target":34962},{"buffer":0,"byteOffset":1123888,"byteLength":58944,"target":34963},{"buffer":0,"byteOffset":1182832,"byteLength":336,"target":34962},{"buffer":0,"byteOffset":1183168,"byteLength":336,"target":34962},{"buffer":0,"byteOffset":1183504,"byteLength":144,"target":34963},{"buffer":0,"byteOffset":1183648,"byteLength":432,"target":34962},{"buffer":0,"byteOffset":1184080,"byteLength":432,"target":34962},{"buffer":0,"byteOffset":1184512,"byteLength":288,"target":34963},{"buffer":0,"byteOffset":1184800,"byteLength":9036,"target":34962},{"buffer":0,"byteOffset":1193836,"byteLength":9036,"target":34962},{"buffer":0,"byteOffset":1202872,"byteLength":12960,"target":34963},{"buffer":0,"byteOffset":1215832,"byteLength":9036,"target":34962},{"buffer":0,"byteOffset":1224868,"byteLength":9036,"target":34962},{"buffer":0,"byteOffset":1233904,"byteLength":12960,"target":34963},{"buffer":0,"byteOffset":1246864,"byteLength":864,"target":34962},{"buffer":0,"byteOffset":1247728,"byteLength":864,"target":34962},{"buffer":0,"byteOffset":1248592,"byteLength":576,"target":34962},{"buffer":0,"byteOffset":1249168,"byteLength":432,"target":34963},{"buffer":0,"byteOffset":1249600,"byteLength":2304,"target":34962},{"buffer":0,"byteOffset":1251904,"byteLength":2304,"target":34962},{"buffer":0,"byteOffset":1254208,"byteLength":1152,"target":34963},{"buffer":0,"byteOffset":1255360,"byteLength":6912,"target":34962},{"buffer":0,"byteOffset":1262272,"byteLength":6912,"target":34962},{"buffer":0,"byteOffset":1269184,"byteLength":3456,"target":34963},{"buffer":0,"byteOffset":1272640,"byteLength":864,"target":34962},{"buffer":0,"byteOffset":1273504,"byteLength":864,"target":34962},{"buffer":0,"byteOffset":1274368,"byteLength":288,"target":34963},{"buffer":0,"byteOffset":1274656,"byteLength":1728,"target":34962},{"buffer":0,"byteOffset":1276384,"byteLength":1728,"target":34962},{"buffer":0,"byteOffset":1278112,"byteLength":576,"target":34963},{"buffer":0,"byteOffset":1278688,"byteLength":288,"target":34962},{"buffer":0,"byteOffset":1278976,"byteLength":288,"target":34962},{"buffer":0,"byteOffset":1279264,"byteLength":96,"target":34963},{"buffer":0,"byteOffset":1279360,"byteLength":288,"target":34962},{"buffer":0,"byteOffset":1279648,"byteLength":288,"target":34962},{"buffer":0,"byteOffset":1279936,"byteLength":144,"target":34963},{"buffer":0,"byteOffset":1280080,"byteLength":864,"target":34962},{"buffer":0,"byteOffset":1280944,"byteLength":864,"target":34962},{"buffer":0,"byteOffset":1281808,"byteLength":288,"target":34963},{"buffer":0,"byteOffset":1282096,"byteLength":1728,"target":34962},{"buffer":0,"byteOffset":1283824,"byteLength":1728,"target":34962},{"buffer":0,"byteOffset":1285552,"byteLength":576,"target":34963},{"buffer":0,"byteOffset":1286128,"byteLength":288,"target":34962},{"buffer":0,"byteOffset":1286416,"byteLength":288,"target":34962},{"buffer":0,"byteOffset":1286704,"byteLength":96,"target":34963},{"buffer":0,"byteOffset":1286800,"byteLength":288,"target":34962},{"buffer":0,"byteOffset":1287088,"byteLength":288,"target":34962},{"buffer":0,"byteOffset":1287376,"byteLength":144,"target":34963},{"buffer":0,"byteOffset":1287520,"byteLength":168,"target":34962},{"buffer":0,"byteOffset":1287688,"byteLength":168,"target":34962},{"buffer":0,"byteOffset":1287856,"byteLength":144,"target":34963},{"buffer":0,"byteOffset":1288000,"byteLength":1584,"target":34962},{"buffer":0,"byteOffset":1289584,"byteLength":1584,"target":34962},{"buffer":0,"byteOffset":1291168,"byteLength":1536,"target":34963},{"buffer":0,"byteOffset":1292704,"byteLength":1584,"target":34962},{"buffer":0,"byteOffset":1294288,"byteLength":1584,"target":34962},{"buffer":0,"byteOffset":1295872,"byteLength":1536,"target":34963},{"buffer":0,"byteOffset":1297408,"byteLength":1584,"target":34962},{"buffer":0,"byteOffset":1298992,"byteLength":1584,"target":34962},{"buffer":0,"byteOffset":1300576,"byteLength":1536,"target":34963},{"buffer":1,"byteOffset":0,"byteLength":6912,"target":34962},{"buffer":1,"byteOffset":6912,"byteLength":6912,"target":34962},{"buffer":1,"byteOffset":13824,"byteLength":4608,"target":34962}],"accessors":[{"bufferView":0,"componentType":5126,"count":2665,"type":"VEC3","min":[-1.5,-1.5,-18.0],"max":[1.5,1.5,18.0]},{"bufferView":1,"componentType":5126,"count":2665,"type":"VEC3"},{"bufferView":2,"componentType":5126,"count":2665,"type":"VEC2"},{"bufferView":3,"componentType":5125,"count":15360,"type":"SCALAR"},{"bufferView":4,"componentType":5126,"count":90,"type":"VEC3","min":[-5.6499999999999995,-1.8649999999999998,-16.740000000000002],"max":[5.37,1.2800000000000002,1.6199999999999999]},{"bufferView":5,"componentType":5126,"count":90,"type":"VEC3"},{"bufferView":6,"componentType":5125,"count":144,"type":"SCALAR"},{"bufferView":7,"componentType":5126,"count":24,"type":"VEC3","min":[-0.1,0.6000000000000001,-16.740000000000002],"max":[0.1,6.72,-10.080000000000002]},{"bufferView":8,"componentType":5126,"count":24,"type":"VEC3"},{"bufferView":9,"componentType":5125,"count":36,"type":"SCALAR"},{"bufferView":10,"componentType":5126,"count":15216,"type":"VEC3","min":[-6.1579999999999995,-2.373,-8.410000000000002],"max":[6.1579999999999995,1.2511114725354051,15.948]},{"bufferView":11,"componentType":5126,"count":15216,"type":"VEC3"},{"bufferView":12,"componentType":5126,"count":16,"type":"VEC3","min":[-1.54,-0.63,-16.128],"max":[1.54,5.3628,8.115]},{"bufferView":13,"componentType":5126,"count":16,"type":"VEC3"},{"bufferView":14,"componentType":5126,"count":16,"type":"VEC2"},{"bufferView":15,"componentType":5125,"count":24,"type":"SCALAR"},{"bufferView":16,"componentType":5126,"count":4230,"type":"VEC3","min":[-6.30542,-2.5204199999999997,-8.715000000000002],"max":[6.30542,1.2597717265732495,15.948]},{"bufferView":17,"componentType":5126,"count":4230,"type":"VEC3"},{"bufferView":18,"componentType":5125,"count":12480,"type":"SCALAR"},{"bufferView":19,"componentType":5126,"count":1698,"type":"VEC3","min":[-6.32,-2.535,-6.84],"max":[6.32,-0.735,10.799999999999999]},{"bufferView":20,"componentType":5126,"count":1698,"type":"VEC3"},{"bufferView":21,"componentType":5125,"count":9228,"type":"SCALAR"},{"bufferView":22,"componentType":5126,"count":1792,"type":"VEC3","min":[-0.41000000000000003,-0.4,-0.4],"max":[0.41000000000000003,0.4,0.4]},{"bufferView":23,"componentType":5126,"count":1792,"type":"VEC3"},{"bufferView":24,"componentType":5125,"count":2688,"type":"SCALAR"},{"bufferView":25,"componentType":5126,"count":1792,"type":"VEC3","min":[-0.41000000000000003,-0.4,-0.4],"max":[0.41000000000000003,0.4,0.4]},{"bufferView":26,"componentType":5126,"count":1792,"type":"VEC3"},{"bufferView":27,"componentType":5125,"count":2688,"type":"SCALAR"},{"bufferView":28,"componentType":5126,"count":1792,"type":"VEC3","min":[-0.41000000000000003,-0.4,-0.4],"max":[0.41000000000000003,0.4,0.4]},{"bufferView":29,"componentType":5126,"count":1792,"type":"VEC3"},{"bufferView":30,"componentType":5125,"count":2688,"type":"SCALAR"},{"bufferView":31,"componentType":5126,"count":3263,"type":"VEC3","min":[-14.5,-1.0780739149091993,-9.635478260869563],"max":[-1.125,0.9712553230733423,3.6]},{"bufferView":32,"componentType":5126,"count":3263,"type":"VEC3"},{"bufferView":33,"componentType":5125,"count":14736,"type":"SCALAR"},{"bufferView":34,"componentType":5126,"count":28,"type":"VEC3","min":[-14.5,0.96,-9.0],"max":[-13.92,3.24,-6.12]},{"bufferView":35,"componentType":5126,"count":28,"type":"VEC3"},{"bufferView":36,"componentType":5125,"count":36,"type":"SCALAR"},{"bufferView":37,"componentType":5126,"count":36,"type":"VEC3","min":[-14.5,-0.39382714826743215,-8.3421],"max":[-1.125,0.9615048228598301,-3.009600000000001]},{"bufferView":38,"componentType":5126,"count":36,"type":"VEC3"},{"bufferView":39,"componentType":5125,"count":72,"type":"SCALAR"},{"bufferView":40,"componentType":5126,"count":3263,"type":"VEC3","min":[1.125,-1.0780739149091993,-9.635478260869563],"max":[14.5,0.9712553230733423,3.6]},{"bufferView":41,"componentType":5126,"count":3263,"type":"VEC3"},{"bufferView":42,"componentType":5125,"count":14736,"type":"SCALAR"},{"bufferView":43,"componentType":5126,"count":28,"type":"VEC3","min":[13.92,0.96,-9.0],"max":[14.5,3.24,-6.12]},{"bufferView":44,"componentType":5126,"count":28,"type":"VEC3"},{"bufferView":45,"componentType":5125,"count":36,"type":"SCALAR"},{"bufferView":46,"componentType":5126,"count":36,"type":"VEC3","min":[1.125,-0.39382714826743215,-8.3421],"max":[14.5,0.9615048228598301,-3.009600000000001]},{"bufferView":47,"componentType":5126,"count":36,"type":"VEC3"},{"bufferView":48,"componentType":5125,"count":72,"type":"SCALAR"},{"bufferView":49,"componentType":5126,"count":753,"type":"VEC3","min":[-6.133693964033693,-2.348693964033693,1.1034],"max":[-4.886306035966307,-1.1013060359663067,1.98]},{"bufferView":50,"componentType":5126,"count":753,"type":"VEC3"},{"bufferView":51,"componentType":5125,"count":3240,"type":"SCALAR"},{"bufferView":52,"componentType":5126,"count":753,"type":"VEC3","min":[4.886306035966307,-2.348693964033693,1.1034],"max":[6.133693964033693,-1.1013060359663067,1.98]},{"bufferView":53,"componentType":5126,"count":753,"type":"VEC3"},{"bufferView":54,"componentType":5125,"count":3240,"type":"SCALAR"},{"bufferView":55,"componentType":5126,"count":72,"type":"VEC3","min":[-1.8200000000000003,-2.525,-4.25],"max":[0.7200000000000002,-1.1,11.09]},{"bufferView":56,"componentType":5126,"count":72,"type":"VEC3"},{"bufferView":57,"componentType":5126,"count":72,"type":"VEC2"},{"bufferView":58,"componentType":5125,"count":108,"type":"SCALAR"},{"bufferView":59,"componentType":5126,"count":192,"type":"VEC3","min":[-1.3200000000000003,-2.7,-3.72],"max":[1.3200000000000003,-2.1,10.559999999999999]},{"bufferView":60,"componentType":5126,"count":192,"type":"VEC3"},{"bufferView":61,"componentType":5125,"count":288,"type":"SCALAR"},{"bufferView":62,"componentType":5126,"count":576,"type":"VEC3","min":[-1.62,-3.19,-3.69],"max":[1.62,-1.0499999999999998,10.892953361440748]},{"bufferView":63,"componentType":5126,"count":576,"type":"VEC3"},{"bufferView":64,"componentType":5125,"count":864,"type":"SCALAR"},{"bufferView":65,"componentType":5126,"count":72,"type":"VEC3","min":[-13.05,-0.9261937406752628,-6.222762631109763],"max":[-1.125,0.7510163814041506,3.6]},{"bufferView":66,"componentType":5126,"count":72,"type":"VEC3"},{"bufferView":67,"componentType":5125,"count":72,"type":"SCALAR"},{"bufferView":68,"componentType":5126,"count":144,"type":"VEC3","min":[-13.05,-0.7755867326040773,-8.82],"max":[-1.125,0.746411413326959,-4.696538956566622]},{"bufferView":69,"componentType":5126,"count":144,"type":"VEC3"},{"bufferView":70,"componentType":5125,"count":144,"type":"SCALAR"},{"bufferView":71,"componentType":5126,"count":24,"type":"VEC3","min":[-13.05,-0.3065104906944911,-8.145],"max":[-1.125,0.8000121547919181,-2.5178605591982515]},{"bufferView":72,"componentType":5126,"count":24,"type":"VEC3"},{"bufferView":73,"componentType":5125,"count":24,"type":"SCALAR"},{"bufferView":74,"componentType":5126,"count":24,"type":"VEC3","min":[-5.22,0.54,-17.64],"max":[-0.6000000000000001,1.2600000000000002,-14.94]},{"bufferView":75,"componentType":5126,"count":24,"type":"VEC3"},{"bufferView":76,"componentType":5125,"count":36,"type":"SCALAR"},{"bufferView":77,"componentType":5126,"count":72,"type":"VEC3","min":[1.125,-0.9261937406752628,-6.222762631109763],"max":[13.05,0.7510163814041506,3.6]},{"bufferView":78,"componentType":5126,"count":72,"type":"VEC3"},{"bufferView":79,"componentType":5125,"count":72,"type":"SCALAR"},{"bufferView":80,"componentType":5126,"count":144,"type":"VEC3","min":[1.125,-0.7755867326040773,-8.82],"max":[13.05,0.746411413326959,-4.696538956566622]},{"bufferView":81,"componentType":5126,"count":144,"type":"VEC3"},{"bufferView":82,"componentType":5125,"count":144,"type":"SCALAR"},{"bufferView":83,"componentType":5126,"count":24,"type":"VEC3","min":[1.125,-0.3065104906944911,-8.145],"max":[13.05,0.8000121547919181,-2.5178605591982515]},{"bufferView":84,"componentType":5126,"count":24,"type":"VEC3"},{"bufferView":85,"componentType":5125,"count":24,"type":"SCALAR"},{"bufferView":86,"componentType":5126,"count":24,"type":"VEC3","min":[0.6000000000000001,0.54,-17.64],"max":[5.22,1.2600000000000002,-14.94]},{"bufferView":87,"componentType":5126,"count":24,"type":"VEC3"},{"bufferView":88,"componentType":5125,"count":36,"type":"SCALAR"},{"bufferView":89,"componentType":5126,"count":14,"type":"VEC3","min":[0,0.5200000000000001,-17.82],"max":[0,6.8,-16.128]},{"bufferView":90,"componentType":5126,"count":14,"type":"VEC3"},{"bufferView":91,"componentType":5125,"count":36,"type":"SCALAR"},{"bufferView":92,"componentType":5126,"count":132,"type":"VEC3","min":[-0.41100000000000003,-0.22000000000000003,-0.22000000000000003],"max":[0.41100000000000003,0.22000000000000003,0.22000000000000003]},{"bufferView":93,"componentType":5126,"count":132,"type":"VEC3"},{"bufferView":94,"componentType":5125,"count":384,"type":"SCALAR"},{"bufferView":95,"componentType":5126,"count":132,"type":"VEC3","min":[-0.41100000000000003,-0.22000000000000003,-0.22000000000000003],"max":[0.41100000000000003,0.22000000000000003,0.22000000000000003]},{"bufferView":96,"componentType":5126,"count":132,"type":"VEC3"},{"bufferView":97,"componentType":5125,"count":384,"type":"SCALAR"},{"bufferView":98,"componentType":5126,"count":132,"type":"VEC3","min":[-0.41100000000000003,-0.22000000000000003,-0.22000000000000003],"max":[0.41100000000000003,0.22000000000000003,0.22000000000000003]},{"bufferView":99,"componentType":5126,"count":132,"type":"VEC3"},{"bufferView":100,"componentType":5125,"count":384,"type":"SCALAR"},{"bufferView":101,"componentType":5126,"count":576,"type":"VEC3","min":[-1.4274284547628722,0.54,-4.32],"max":[1.4274284547628722,0.915,9.0]},{"bufferView":102,"componentType":5126,"count":576,"type":"VEC3"},{"bufferView":103,"componentType":5126,"count":576,"type":"VEC2"}],"images":[{"uri":"../../airlines/AFR.png"},{"uri":"fallback-paint-v5.png"},{"uri":"title-AFR.png"}],"textures":[{"source":0,"sampler":0},{"source":1,"sampler":0},{"source":2,"sampler":0}],"samplers":[{"magFilter":9729,"minFilter":9987,"wrapS":33071,"wrapT":33071}]}