{"asset":{"version":"2.0","generator":"Skyward original illustrative e190 profile; logos for operator identification"},"scene":0,"scenes":[{"nodes":[0,1]}],"nodes":[{"mesh":0},{"mesh":1,"name":"Gear"}],"meshes":[{"primitives":[{"attributes":{"POSITION":0,"NORMAL":1},"material":0},{"attributes":{"POSITION":2,"NORMAL":3},"material":1},{"attributes":{"POSITION":4,"NORMAL":5},"material":2},{"attributes":{"POSITION":6,"NORMAL":7},"material":3},{"attributes":{"POSITION":10,"NORMAL":11,"TEXCOORD_0":12},"material":5},{"attributes":{"POSITION":13,"NORMAL":14},"material":6},{"attributes":{"POSITION":15,"NORMAL":16},"material":7}]},{"primitives":[{"attributes":{"POSITION":8,"NORMAL":9},"material":4}]}],"materials":[{"doubleSided":true,"pbrMetallicRoughness":{"baseColorFactor":[0.94,0.95,0.96,1],"metallicFactor":0.18,"roughnessFactor":0.3}},{"doubleSided":true,"pbrMetallicRoughness":{"baseColorFactor":[0.64,0.68,0.72,1],"metallicFactor":0.18,"roughnessFactor":0.3}},{"doubleSided":true,"pbrMetallicRoughness":{"baseColorFactor":[0.09019607843137255,0.23529411764705882,0.4470588235294118,1],"metallicFactor":0.18,"roughnessFactor":0.3}},{"doubleSided":true,"pbrMetallicRoughness":{"baseColorFactor":[0.02,0.055,0.085,1],"metallicFactor":0.18,"roughnessFactor":0.17}},{"doubleSided":true,"pbrMetallicRoughness":{"baseColorFactor":[0.07,0.08,0.09,1],"metallicFactor":0.18,"roughnessFactor":0.3}},{"doubleSided":true,"pbrMetallicRoughness":{"baseColorFactor":[1,1,1,1],"metallicFactor":0,"roughnessFactor":0.75,"baseColorTexture":{"index":0}},"alphaMode":"BLEND"},{"doubleSided":true,"pbrMetallicRoughness":{"baseColorFactor":[0.36,0.4,0.44,1],"metallicFactor":0.7,"roughnessFactor":0.3}},{"doubleSided":true,"pbrMetallicRoughness":{"baseColorFactor":[0.09019607843137255,0.23529411764705882,0.4470588235294118,1],"metallicFactor":0.18,"roughnessFactor":0.3}}],"buffers":[{"uri":"e190-v3.bin","byteLength":212448}],"bufferViews":[{"buffer":0,"byteOffset":0,"byteLength":34560,"target":34962},{"buffer":0,"byteOffset":34560,"byteLength":34560,"target":34962},{"buffer":0,"byteOffset":69120,"byteLength":2880,"target":34962},{"buffer":0,"byteOffset":72000,"byteLength":2880,"target":34962},{"buffer":0,"byteOffset":74880,"byteLength":1296,"target":34962},{"buffer":0,"byteOffset":76176,"byteLength":1296,"target":34962},{"buffer":0,"byteOffset":77472,"byteLength":28368,"target":34962},{"buffer":0,"byteOffset":105840,"byteLength":28368,"target":34962},{"buffer":0,"byteOffset":134208,"byteLength":2592,"target":34962},{"buffer":0,"byteOffset":136800,"byteLength":2592,"target":34962},{"buffer":0,"byteOffset":139392,"byteLength":288,"target":34962},{"buffer":0,"byteOffset":139680,"byteLength":288,"target":34962},{"buffer":0,"byteOffset":139968,"byteLength":192,"target":34962},{"buffer":0,"byteOffset":140160,"byteLength":15264,"target":34962},{"buffer":0,"byteOffset":155424,"byteLength":15264,"target":34962},{"buffer":0,"byteOffset":170688,"byteLength":20880,"target":34962},{"buffer":0,"byteOffset":191568,"byteLength":20880,"target":34962}],"accessors":[{"bufferView":0,"componentType":5126,"count":2880,"type":"VEC3","min":[-1.5,-1.5,-18.0],"max":[1.5,1.5,18.0]},{"bufferView":1,"componentType":5126,"count":2880,"type":"VEC3"},{"bufferView":2,"componentType":5126,"count":240,"type":"VEC3","min":[-14.5,-1.8649999999999998,-17.64],"max":[14.5,1.2800000000000002,3.6]},{"bufferView":3,"componentType":5126,"count":240,"type":"VEC3"},{"bufferView":4,"componentType":5126,"count":108,"type":"VEC3","min":[-14.5,0.6000000000000001,-17.82],"max":[14.5,6.72,-6.84]},{"bufferView":5,"componentType":5126,"count":108,"type":"VEC3"},{"bufferView":6,"componentType":5126,"count":2364,"type":"VEC3","min":[-6.1579999999999995,-2.373,-8.410000000000002],"max":[6.1579999999999995,1.0050000000000001,14.94]},{"bufferView":7,"componentType":5126,"count":2364,"type":"VEC3"},{"bufferView":8,"componentType":5126,"count":216,"type":"VEC3","min":[-1.5000000000000002,-3.5,-3.98],"max":[1.5000000000000002,-1.4999999999999998,10.82]},{"bufferView":9,"componentType":5126,"count":216,"type":"VEC3"},{"bufferView":10,"componentType":5126,"count":24,"type":"VEC3","min":[-1.54,-0.63,-16.092],"max":[1.54,5.1,8.115]},{"bufferView":11,"componentType":5126,"count":24,"type":"VEC3"},{"bufferView":12,"componentType":5126,"count":24,"type":"VEC2"},{"bufferView":13,"componentType":5126,"count":1272,"type":"VEC3","min":[-6.2714,-2.4863999999999997,-8.280000000000001],"max":[6.2714,0.8999999999999999,10.130000000000003]},{"bufferView":14,"componentType":5126,"count":1272,"type":"VEC3"},{"bufferView":15,"componentType":5126,"count":1740,"type":"VEC3","min":[-6.32,-2.535,-6.84],"max":[6.32,-0.735,10.799999999999999]},{"bufferView":16,"componentType":5126,"count":1740,"type":"VEC3"}],"images":[{"uri":"../../airlines/DLH.png"}],"textures":[{"source":0,"sampler":0}],"samplers":[{"magFilter":9729,"minFilter":9987,"wrapS":33071,"wrapT":33071}]}