{"asset":{"version":"2.0","generator":"Skyward detailed procedural e190 fallback v5; approximate airframe; operator identification logos"},"scene":0,"scenes":[{"nodes":[0,1,5,6,7,8]}],"nodes":[{"mesh":0},{"mesh":1,"name":"Gear","children":[2,3,4]},{"mesh":2,"name":"WheelN","translation":[0,-3.1,10.44]},{"mesh":3,"name":"WheelL","translation":[-1.2000000000000002,-3.1,-3.6]},{"mesh":4,"name":"WheelR","translation":[1.2000000000000002,-3.1,-3.6]},{"mesh":5,"name":"FlexWingL"},{"mesh":6,"name":"FlexWingR"},{"mesh":7,"name":"SkywardFan0"},{"mesh":8,"name":"SkywardFan1"}],"meshes":[{"name":"AirframeWithCockpitGlazing","primitives":[{"indices":3,"attributes":{"POSITION":0,"NORMAL":1,"TEXCOORD_0":2},"material":0},{"indices":6,"attributes":{"POSITION":4,"NORMAL":5},"material":1},{"indices":9,"attributes":{"POSITION":7,"NORMAL":8},"material":2},{"attributes":{"POSITION":10,"NORMAL":11},"material":3},{"indices":15,"attributes":{"POSITION":12,"NORMAL":13,"TEXCOORD_0":14},"material":5},{"indices":18,"attributes":{"POSITION":16,"NORMAL":17},"material":6},{"indices":21,"attributes":{"POSITION":19,"NORMAL":20},"material":7}]},{"primitives":[{"indices":57,"attributes":{"POSITION":55,"NORMAL":56},"material":1,"extras":{"gear":true}},{"indices":60,"attributes":{"POSITION":58,"NORMAL":59},"material":6,"extras":{"gear":true}}]},{"primitives":[{"indices":24,"attributes":{"POSITION":22,"NORMAL":23},"material":4,"extras":{"wheel":0}}]},{"primitives":[{"indices":27,"attributes":{"POSITION":25,"NORMAL":26},"material":4,"extras":{"wheel":1}}]},{"primitives":[{"indices":30,"attributes":{"POSITION":28,"NORMAL":29},"material":4,"extras":{"wheel":2}}]},{"primitives":[{"indices":33,"attributes":{"POSITION":31,"NORMAL":32},"material":1,"extras":{"wing":0}},{"indices":36,"attributes":{"POSITION":34,"NORMAL":35},"material":2,"extras":{"wing":0}},{"indices":39,"attributes":{"POSITION":37,"NORMAL":38},"material":6,"extras":{"wing":0}}]},{"primitives":[{"indices":42,"attributes":{"POSITION":40,"NORMAL":41},"material":1,"extras":{"wing":1}},{"indices":45,"attributes":{"POSITION":43,"NORMAL":44},"material":2,"extras":{"wing":1}},{"indices":48,"attributes":{"POSITION":46,"NORMAL":47},"material":6,"extras":{"wing":1}}]},{"primitives":[{"indices":51,"attributes":{"POSITION":49,"NORMAL":50},"material":6,"extras":{"fan":0}}]},{"primitives":[{"indices":54,"attributes":{"POSITION":52,"NORMAL":53},"material":6,"extras":{"fan":1}}]}],"materials":[{"doubleSided":true,"pbrMetallicRoughness":{"baseColorFactor":[0.94,0.95,0.96,1],"metallicFactor":0.04,"roughnessFactor":0.27,"baseColorTexture":{"index":1}}},{"doubleSided":true,"pbrMetallicRoughness":{"baseColorFactor":[0.64,0.68,0.72,1],"metallicFactor":0.04,"roughnessFactor":0.4}},{"doubleSided":true,"pbrMetallicRoughness":{"baseColorFactor":[0.13725490196078433,0.30196078431372547,0.6078431372549019,1],"metallicFactor":0.04,"roughnessFactor":0.27}},{"doubleSided":true,"pbrMetallicRoughness":{"baseColorFactor":[0.02,0.055,0.085,1],"metallicFactor":0,"roughnessFactor":0.12}},{"doubleSided":true,"pbrMetallicRoughness":{"baseColorFactor":[0.07,0.08,0.09,1],"metallicFactor":0,"roughnessFactor":0.86}},{"doubleSided":true,"pbrMetallicRoughness":{"baseColorFactor":[1,1,1,1],"metallicFactor":0,"roughnessFactor":0.75,"baseColorTexture":{"index":0}},"alphaMode":"MASK","alphaCutoff":0.08},{"doubleSided":true,"pbrMetallicRoughness":{"baseColorFactor":[0.36,0.4,0.44,1],"metallicFactor":0.8,"roughnessFactor":0.28}},{"doubleSided":true,"pbrMetallicRoughness":{"baseColorFactor":[0.13725490196078433,0.30196078431372547,0.6078431372549019,1],"metallicFactor":0.04,"roughnessFactor":0.27}}],"buffers":[{"uri":"e190-v4.bin?tail=2&rig=1&detail=5","byteLength":1188400}],"bufferViews":[{"buffer":0,"byteOffset":0,"byteLength":31980,"target":34962},{"buffer":0,"byteOffset":31980,"byteLength":31980,"target":34962},{"buffer":0,"byteOffset":63960,"byteLength":21320,"target":34962},{"buffer":0,"byteOffset":85280,"byteLength":61440,"target":34963},{"buffer":0,"byteOffset":146720,"byteLength":1080,"target":34962},{"buffer":0,"byteOffset":147800,"byteLength":1080,"target":34962},{"buffer":0,"byteOffset":148880,"byteLength":576,"target":34963},{"buffer":0,"byteOffset":149456,"byteLength":288,"target":34962},{"buffer":0,"byteOffset":149744,"byteLength":288,"target":34962},{"buffer":0,"byteOffset":150032,"byteLength":144,"target":34963},{"buffer":0,"byteOffset":150176,"byteLength":182592,"target":34962},{"buffer":0,"byteOffset":332768,"byteLength":182592,"target":34962},{"buffer":0,"byteOffset":515360,"byteLength":192,"target":34962},{"buffer":0,"byteOffset":515552,"byteLength":192,"target":34962},{"buffer":0,"byteOffset":515744,"byteLength":128,"target":34962},{"buffer":0,"byteOffset":515872,"byteLength":96,"target":34963},{"buffer":0,"byteOffset":515968,"byteLength":36816,"target":34962},{"buffer":0,"byteOffset":552784,"byteLength":36816,"target":34962},{"buffer":0,"byteOffset":589600,"byteLength":34560,"target":34963},{"buffer":0,"byteOffset":624160,"byteLength":20376,"target":34962},{"buffer":0,"byteOffset":644536,"byteLength":20376,"target":34962},{"buffer":0,"byteOffset":664912,"byteLength":36912,"target":34963},{"buffer":0,"byteOffset":701824,"byteLength":14424,"target":34962},{"buffer":0,"byteOffset":716248,"byteLength":14424,"target":34962},{"buffer":0,"byteOffset":730672,"byteLength":7680,"target":34963},{"buffer":0,"byteOffset":738352,"byteLength":14424,"target":34962},{"buffer":0,"byteOffset":752776,"byteLength":14424,"target":34962},{"buffer":0,"byteOffset":767200,"byteLength":7680,"target":34963},{"buffer":0,"byteOffset":774880,"byteLength":14424,"target":34962},{"buffer":0,"byteOffset":789304,"byteLength":14424,"target":34962},{"buffer":0,"byteOffset":803728,"byteLength":7680,"target":34963},{"buffer":0,"byteOffset":811408,"byteLength":42036,"target":34962},{"buffer":0,"byteOffset":853444,"byteLength":42036,"target":34962},{"buffer":0,"byteOffset":895480,"byteLength":59904,"target":34963},{"buffer":0,"byteOffset":955384,"byteLength":336,"target":34962},{"buffer":0,"byteOffset":955720,"byteLength":336,"target":34962},{"buffer":0,"byteOffset":956056,"byteLength":144,"target":34963},{"buffer":0,"byteOffset":956200,"byteLength":432,"target":34962},{"buffer":0,"byteOffset":956632,"byteLength":432,"target":34962},{"buffer":0,"byteOffset":957064,"byteLength":288,"target":34963},{"buffer":0,"byteOffset":957352,"byteLength":42036,"target":34962},{"buffer":0,"byteOffset":999388,"byteLength":42036,"target":34962},{"buffer":0,"byteOffset":1041424,"byteLength":59904,"target":34963},{"buffer":0,"byteOffset":1101328,"byteLength":336,"target":34962},{"buffer":0,"byteOffset":1101664,"byteLength":336,"target":34962},{"buffer":0,"byteOffset":1102000,"byteLength":144,"target":34963},{"buffer":0,"byteOffset":1102144,"byteLength":432,"target":34962},{"buffer":0,"byteOffset":1102576,"byteLength":432,"target":34962},{"buffer":0,"byteOffset":1103008,"byteLength":288,"target":34963},{"buffer":0,"byteOffset":1103296,"byteLength":9036,"target":34962},{"buffer":0,"byteOffset":1112332,"byteLength":9036,"target":34962},{"buffer":0,"byteOffset":1121368,"byteLength":12960,"target":34963},{"buffer":0,"byteOffset":1134328,"byteLength":9036,"target":34962},{"buffer":0,"byteOffset":1143364,"byteLength":9036,"target":34962},{"buffer":0,"byteOffset":1152400,"byteLength":12960,"target":34963},{"buffer":0,"byteOffset":1165360,"byteLength":2304,"target":34962},{"buffer":0,"byteOffset":1167664,"byteLength":2304,"target":34962},{"buffer":0,"byteOffset":1169968,"byteLength":1152,"target":34963},{"buffer":0,"byteOffset":1171120,"byteLength":6912,"target":34962},{"buffer":0,"byteOffset":1178032,"byteLength":6912,"target":34962},{"buffer":0,"byteOffset":1184944,"byteLength":3456,"target":34963}],"accessors":[{"bufferView":0,"componentType":5126,"count":2665,"type":"VEC3","min":[-1.5,-1.5,-18.0],"max":[1.5,1.5,18.0]},{"bufferView":1,"componentType":5126,"count":2665,"type":"VEC3"},{"bufferView":2,"componentType":5126,"count":2665,"type":"VEC2"},{"bufferView":3,"componentType":5125,"count":15360,"type":"SCALAR"},{"bufferView":4,"componentType":5126,"count":90,"type":"VEC3","min":[-5.6499999999999995,-1.8649999999999998,-17.64],"max":[5.37,1.2800000000000002,1.6199999999999999]},{"bufferView":5,"componentType":5126,"count":90,"type":"VEC3"},{"bufferView":6,"componentType":5125,"count":144,"type":"SCALAR"},{"bufferView":7,"componentType":5126,"count":24,"type":"VEC3","min":[-0.1,0.6000000000000001,-17.82],"max":[0.1,6.72,-10.080000000000002]},{"bufferView":8,"componentType":5126,"count":24,"type":"VEC3"},{"bufferView":9,"componentType":5125,"count":36,"type":"SCALAR"},{"bufferView":10,"componentType":5126,"count":15216,"type":"VEC3","min":[-6.1579999999999995,-2.373,-8.410000000000002],"max":[6.1579999999999995,1.2511114725354051,15.948]},{"bufferView":11,"componentType":5126,"count":15216,"type":"VEC3"},{"bufferView":12,"componentType":5126,"count":16,"type":"VEC3","min":[-1.54,-0.63,-16.128],"max":[1.54,5.496,8.115]},{"bufferView":13,"componentType":5126,"count":16,"type":"VEC3"},{"bufferView":14,"componentType":5126,"count":16,"type":"VEC2"},{"bufferView":15,"componentType":5125,"count":24,"type":"SCALAR"},{"bufferView":16,"componentType":5126,"count":3068,"type":"VEC3","min":[-6.2714,-2.4863999999999997,-8.715000000000002],"max":[6.2714,1.2597717265732495,15.948]},{"bufferView":17,"componentType":5126,"count":3068,"type":"VEC3"},{"bufferView":18,"componentType":5125,"count":8640,"type":"SCALAR"},{"bufferView":19,"componentType":5126,"count":1698,"type":"VEC3","min":[-6.32,-2.535,-6.84],"max":[6.32,-0.735,10.799999999999999]},{"bufferView":20,"componentType":5126,"count":1698,"type":"VEC3"},{"bufferView":21,"componentType":5125,"count":9228,"type":"SCALAR"},{"bufferView":22,"componentType":5126,"count":1202,"type":"VEC3","min":[-0.25,-0.4,-0.4],"max":[0.25,0.4,0.4]},{"bufferView":23,"componentType":5126,"count":1202,"type":"VEC3"},{"bufferView":24,"componentType":5125,"count":1920,"type":"SCALAR"},{"bufferView":25,"componentType":5126,"count":1202,"type":"VEC3","min":[-0.25,-0.4,-0.4],"max":[0.25,0.4,0.4]},{"bufferView":26,"componentType":5126,"count":1202,"type":"VEC3"},{"bufferView":27,"componentType":5125,"count":1920,"type":"SCALAR"},{"bufferView":28,"componentType":5126,"count":1202,"type":"VEC3","min":[-0.25,-0.4,-0.4],"max":[0.25,0.4,0.4]},{"bufferView":29,"componentType":5126,"count":1202,"type":"VEC3"},{"bufferView":30,"componentType":5125,"count":1920,"type":"SCALAR"},{"bufferView":31,"componentType":5126,"count":3503,"type":"VEC3","min":[-14.5,-1.0780739149091993,-10.167652173913043],"max":[-1.125,0.9712553230733422,3.6]},{"bufferView":32,"componentType":5126,"count":3503,"type":"VEC3"},{"bufferView":33,"componentType":5125,"count":14976,"type":"SCALAR"},{"bufferView":34,"componentType":5126,"count":28,"type":"VEC3","min":[-14.5,0.96,-9.719999999999999],"max":[-13.92,3.24,-6.84]},{"bufferView":35,"componentType":5126,"count":28,"type":"VEC3"},{"bufferView":36,"componentType":5125,"count":36,"type":"SCALAR"},{"bufferView":37,"componentType":5126,"count":36,"type":"VEC3","min":[-14.5,-0.39382714826743215,-9.0621],"max":[-1.125,0.9615048228598301,-3.009600000000001]},{"bufferView":38,"componentType":5126,"count":36,"type":"VEC3"},{"bufferView":39,"componentType":5125,"count":72,"type":"SCALAR"},{"bufferView":40,"componentType":5126,"count":3503,"type":"VEC3","min":[1.125,-1.0780739149091993,-10.167652173913043],"max":[14.5,0.9712553230733422,3.6]},{"bufferView":41,"componentType":5126,"count":3503,"type":"VEC3"},{"bufferView":42,"componentType":5125,"count":14976,"type":"SCALAR"},{"bufferView":43,"componentType":5126,"count":28,"type":"VEC3","min":[13.92,0.96,-9.719999999999999],"max":[14.5,3.24,-6.84]},{"bufferView":44,"componentType":5126,"count":28,"type":"VEC3"},{"bufferView":45,"componentType":5125,"count":36,"type":"SCALAR"},{"bufferView":46,"componentType":5126,"count":36,"type":"VEC3","min":[1.125,-0.39382714826743215,-9.0621],"max":[14.5,0.9615048228598301,-3.009600000000001]},{"bufferView":47,"componentType":5126,"count":36,"type":"VEC3"},{"bufferView":48,"componentType":5125,"count":72,"type":"SCALAR"},{"bufferView":49,"componentType":5126,"count":753,"type":"VEC3","min":[-6.133693964033693,-2.348693964033693,1.1034],"max":[-4.886306035966307,-1.1013060359663067,1.98]},{"bufferView":50,"componentType":5126,"count":753,"type":"VEC3"},{"bufferView":51,"componentType":5125,"count":3240,"type":"SCALAR"},{"bufferView":52,"componentType":5126,"count":753,"type":"VEC3","min":[4.886306035966307,-2.348693964033693,1.1034],"max":[6.133693964033693,-1.1013060359663067,1.98]},{"bufferView":53,"componentType":5126,"count":753,"type":"VEC3"},{"bufferView":54,"componentType":5125,"count":3240,"type":"SCALAR"},{"bufferView":55,"componentType":5126,"count":192,"type":"VEC3","min":[-1.3200000000000003,-2.7,-3.72],"max":[1.3200000000000003,-2.1,10.559999999999999]},{"bufferView":56,"componentType":5126,"count":192,"type":"VEC3"},{"bufferView":57,"componentType":5125,"count":288,"type":"SCALAR"},{"bufferView":58,"componentType":5126,"count":576,"type":"VEC3","min":[-1.4900000000000002,-3.3000000000000003,-3.8000000000000003],"max":[1.4900000000000002,-1.0499999999999998,10.892953361440748]},{"bufferView":59,"componentType":5126,"count":576,"type":"VEC3"},{"bufferView":60,"componentType":5125,"count":864,"type":"SCALAR"}],"images":[{"uri":"../../airlines/ANA.png"},{"uri":"fallback-paint-v5.png"}],"textures":[{"source":0,"sampler":0},{"source":1,"sampler":0}],"samplers":[{"magFilter":9729,"minFilter":9987,"wrapS":33071,"wrapT":33071}]}