{"asset":{"version":"2.0","generator":"Skyward original illustrative light profile; logos for operator identification"},"scene":0,"scenes":[{"nodes":[0,1]}],"nodes":[{"mesh":0},{"mesh":1,"name":"Gear","children":[2,3,4]},{"mesh":2,"name":"WheelN","translation":[0,-2.3,2.61]},{"mesh":3,"name":"WheelL","translation":[-0.5599999999999999,-2.3,-0.9]},{"mesh":4,"name":"WheelR","translation":[0.5599999999999999,-2.3,-0.9]}],"meshes":[{"primitives":[{"attributes":{"POSITION":0,"NORMAL":1},"material":0},{"attributes":{"POSITION":2,"NORMAL":3},"material":1},{"attributes":{"POSITION":4,"NORMAL":5},"material":2},{"attributes":{"POSITION":6,"NORMAL":7},"material":3},{"attributes":{"POSITION":10,"NORMAL":11,"TEXCOORD_0":12},"material":5},{"attributes":{"POSITION":13,"NORMAL":14},"material":6},{"attributes":{"POSITION":15,"NORMAL":16},"material":7}]},{"primitives":[{"attributes":{"POSITION":8,"NORMAL":9},"material":4}]},{"primitives":[{"attributes":{"POSITION":17,"NORMAL":18},"material":4,"extras":{"wheel":0}}]},{"primitives":[{"attributes":{"POSITION":19,"NORMAL":20},"material":4,"extras":{"wheel":1}}]},{"primitives":[{"attributes":{"POSITION":21,"NORMAL":22},"material":4,"extras":{"wheel":2}}]}],"materials":[{"doubleSided":true,"pbrMetallicRoughness":{"baseColorFactor":[0.94,0.95,0.96,1],"metallicFactor":0.18,"roughnessFactor":0.3}},{"doubleSided":true,"pbrMetallicRoughness":{"baseColorFactor":[0.64,0.68,0.72,1],"metallicFactor":0.18,"roughnessFactor":0.3}},{"doubleSided":true,"pbrMetallicRoughness":{"baseColorFactor":[0.09019607843137255,0.1843137254901961,0.3607843137254902,1],"metallicFactor":0.18,"roughnessFactor":0.3}},{"doubleSided":true,"pbrMetallicRoughness":{"baseColorFactor":[0.02,0.055,0.085,1],"metallicFactor":0.18,"roughnessFactor":0.17}},{"doubleSided":true,"pbrMetallicRoughness":{"baseColorFactor":[0.07,0.08,0.09,1],"metallicFactor":0.18,"roughnessFactor":0.3}},{"doubleSided":true,"pbrMetallicRoughness":{"baseColorFactor":[1,1,1,1],"metallicFactor":0,"roughnessFactor":0.75,"baseColorTexture":{"index":0}},"alphaMode":"BLEND"},{"doubleSided":true,"pbrMetallicRoughness":{"baseColorFactor":[0.36,0.4,0.44,1],"metallicFactor":0.7,"roughnessFactor":0.3}},{"doubleSided":true,"pbrMetallicRoughness":{"baseColorFactor":[0.09019607843137255,0.1843137254901961,0.3607843137254902,1],"metallicFactor":0.18,"roughnessFactor":0.3}}],"buffers":[{"uri":"light-v4.bin","byteLength":124032}],"bufferViews":[{"buffer":0,"byteOffset":0,"byteLength":34560,"target":34962},{"buffer":0,"byteOffset":34560,"byteLength":34560,"target":34962},{"buffer":0,"byteOffset":69120,"byteLength":2016,"target":34962},{"buffer":0,"byteOffset":71136,"byteLength":2016,"target":34962},{"buffer":0,"byteOffset":73152,"byteLength":432,"target":34962},{"buffer":0,"byteOffset":73584,"byteLength":432,"target":34962},{"buffer":0,"byteOffset":74016,"byteLength":9072,"target":34962},{"buffer":0,"byteOffset":83088,"byteLength":9072,"target":34962},{"buffer":0,"byteOffset":92160,"byteLength":1296,"target":34962},{"buffer":0,"byteOffset":93456,"byteLength":1296,"target":34962},{"buffer":0,"byteOffset":94752,"byteLength":288,"target":34962},{"buffer":0,"byteOffset":95040,"byteLength":288,"target":34962},{"buffer":0,"byteOffset":95328,"byteLength":192,"target":34962},{"buffer":0,"byteOffset":95520,"byteLength":288,"target":34962},{"buffer":0,"byteOffset":95808,"byteLength":288,"target":34962},{"buffer":0,"byteOffset":96096,"byteLength":144,"target":34962},{"buffer":0,"byteOffset":96240,"byteLength":144,"target":34962},{"buffer":0,"byteOffset":96384,"byteLength":4608,"target":34962},{"buffer":0,"byteOffset":100992,"byteLength":4608,"target":34962},{"buffer":0,"byteOffset":105600,"byteLength":4608,"target":34962},{"buffer":0,"byteOffset":110208,"byteLength":4608,"target":34962},{"buffer":0,"byteOffset":114816,"byteLength":4608,"target":34962},{"buffer":0,"byteOffset":119424,"byteLength":4608,"target":34962}],"accessors":[{"bufferView":0,"componentType":5126,"count":2880,"type":"VEC3","min":[-0.7,-0.7,-4.5],"max":[0.7,0.7,4.5]},{"bufferView":1,"componentType":5126,"count":2880,"type":"VEC3"},{"bufferView":2,"componentType":5126,"count":168,"type":"VEC3","min":[-5.5,0.19999999999999996,-4.41],"max":[5.5,1.02,0.9]},{"bufferView":3,"componentType":5126,"count":168,"type":"VEC3"},{"bufferView":4,"componentType":5126,"count":36,"type":"VEC3","min":[-0.1,0.27999999999999997,-4.455],"max":[0.1,2.005,-2.5200000000000005]},{"bufferView":5,"componentType":5126,"count":36,"type":"VEC3"},{"bufferView":6,"componentType":5126,"count":756,"type":"VEC3","min":[-0.7178197484715158,-1.23,-2.2],"max":[0.7178197484715158,1.23,4.68]},{"bufferView":7,"componentType":5126,"count":756,"type":"VEC3"},{"bufferView":8,"componentType":5126,"count":108,"type":"VEC3","min":[-0.6599999999999999,-2.3,-1.0],"max":[0.6599999999999999,-0.7,2.71]},{"bufferView":9,"componentType":5126,"count":108,"type":"VEC3"},{"bufferView":10,"componentType":5126,"count":24,"type":"VEC3","min":[-0.74,-0.294,-4.023],"max":[0.74,1.6,2.3049999999999997]},{"bufferView":11,"componentType":5126,"count":24,"type":"VEC3"},{"bufferView":12,"componentType":5126,"count":24,"type":"VEC2"},{"bufferView":13,"componentType":5126,"count":24,"type":"VEC3","min":[-0.725,-0.21,-2.0700000000000003],"max":[0.725,0.42,2.5700000000000003]},{"bufferView":14,"componentType":5126,"count":24,"type":"VEC3"},{"bufferView":15,"componentType":5126,"count":12,"type":"VEC3","min":[-0.6352057030215302,-0.42,-1.71],"max":[0.6352057030215302,-0.34299999999999997,2.6999999999999997]},{"bufferView":16,"componentType":5126,"count":12,"type":"VEC3"},{"bufferView":17,"componentType":5126,"count":384,"type":"VEC3","min":[-0.25,-0.4,-0.4],"max":[0.25,0.4,0.4]},{"bufferView":18,"componentType":5126,"count":384,"type":"VEC3"},{"bufferView":19,"componentType":5126,"count":384,"type":"VEC3","min":[-0.25,-0.4,-0.4],"max":[0.25,0.4,0.4]},{"bufferView":20,"componentType":5126,"count":384,"type":"VEC3"},{"bufferView":21,"componentType":5126,"count":384,"type":"VEC3","min":[-0.25,-0.4,-0.4],"max":[0.25,0.4,0.4]},{"bufferView":22,"componentType":5126,"count":384,"type":"VEC3"}],"images":[{"uri":"../../airlines/SIA.png"}],"textures":[{"source":0,"sampler":0}],"samplers":[{"magFilter":9729,"minFilter":9987,"wrapS":33071,"wrapT":33071}]}