{"asset":{"version":"2.0","generator":"Skyward detailed procedural light fallback v5; approximate airframe; operator identification logos"},"scene":0,"scenes":[{"nodes":[0,1,5,6,7]}],"nodes":[{"mesh":0},{"mesh":1,"name":"Gear","children":[2,3,4]},{"mesh":2,"name":"WheelN","translation":[0,-2.3,2.61]},{"mesh":3,"name":"WheelL","translation":[-0.5599999999999999,-2.3,-0.9]},{"mesh":4,"name":"WheelR","translation":[0.5599999999999999,-2.3,-0.9]},{"mesh":5,"name":"FlexWingL"},{"mesh":6,"name":"FlexWingR"},{"name":"SkywardProp0","mesh":7}],"meshes":[{"name":"AirframeWithCockpitGlazing","primitives":[{"indices":3,"attributes":{"POSITION":0,"NORMAL":1,"TEXCOORD_0":2},"material":0},{"indices":6,"attributes":{"POSITION":4,"NORMAL":5},"material":1},{"indices":9,"attributes":{"POSITION":7,"NORMAL":8},"material":2},{"attributes":{"POSITION":10,"NORMAL":11},"material":3,"indices":49},{"indices":15,"attributes":{"POSITION":12,"NORMAL":13,"TEXCOORD_0":14},"material":5},{"indices":18,"attributes":{"POSITION":16,"NORMAL":17},"material":6},{"indices":21,"attributes":{"POSITION":19,"NORMAL":20},"material":7}]},{"primitives":[{"indices":45,"attributes":{"POSITION":43,"NORMAL":44},"material":1,"extras":{"gear":true}},{"indices":48,"attributes":{"POSITION":46,"NORMAL":47},"material":6,"extras":{"gear":true}}]},{"primitives":[{"indices":24,"attributes":{"POSITION":22,"NORMAL":23},"material":4,"extras":{"wheel":0}}]},{"primitives":[{"indices":27,"attributes":{"POSITION":25,"NORMAL":26},"material":4,"extras":{"wheel":1}}]},{"primitives":[{"indices":30,"attributes":{"POSITION":28,"NORMAL":29},"material":4,"extras":{"wheel":2}}]},{"primitives":[{"indices":33,"attributes":{"POSITION":31,"NORMAL":32},"material":1,"extras":{"wing":0}},{"indices":36,"attributes":{"POSITION":34,"NORMAL":35},"material":6,"extras":{"wing":0}}]},{"primitives":[{"indices":39,"attributes":{"POSITION":37,"NORMAL":38},"material":1,"extras":{"wing":1}},{"indices":42,"attributes":{"POSITION":40,"NORMAL":41},"material":6,"extras":{"wing":1}}]},{"primitives":[{"attributes":{"POSITION":10,"NORMAL":11},"material":3,"indices":50}]}],"materials":[{"doubleSided":true,"pbrMetallicRoughness":{"baseColorFactor":[0.94,0.95,0.96,1],"metallicFactor":0.04,"roughnessFactor":0.27,"baseColorTexture":{"index":1}}},{"doubleSided":true,"pbrMetallicRoughness":{"baseColorFactor":[0.64,0.68,0.72,1],"metallicFactor":0.04,"roughnessFactor":0.4}},{"doubleSided":true,"pbrMetallicRoughness":{"baseColorFactor":[0.09803921568627451,0.2235294117647059,0.4745098039215686,1],"metallicFactor":0.04,"roughnessFactor":0.27}},{"doubleSided":true,"pbrMetallicRoughness":{"baseColorFactor":[0.02,0.055,0.085,1],"metallicFactor":0,"roughnessFactor":0.12}},{"doubleSided":true,"pbrMetallicRoughness":{"baseColorFactor":[0.07,0.08,0.09,1],"metallicFactor":0,"roughnessFactor":0.86}},{"doubleSided":true,"pbrMetallicRoughness":{"baseColorFactor":[1,1,1,1],"metallicFactor":0,"roughnessFactor":0.75,"baseColorTexture":{"index":0}},"alphaMode":"MASK","alphaCutoff":0.08},{"doubleSided":true,"pbrMetallicRoughness":{"baseColorFactor":[0.36,0.4,0.44,1],"metallicFactor":0.8,"roughnessFactor":0.28}},{"doubleSided":true,"pbrMetallicRoughness":{"baseColorFactor":[0.09803921568627451,0.2235294117647059,0.4745098039215686,1],"metallicFactor":0.04,"roughnessFactor":0.27}}],"buffers":[{"uri":"light-v4.bin?tail=2&rig=1&detail=5","byteLength":441328},{"uri":"light-rotor-indices.bin?detail=5","byteLength":12576}],"bufferViews":[{"buffer":0,"byteOffset":0,"byteLength":31980,"target":34962},{"buffer":0,"byteOffset":31980,"byteLength":31980,"target":34962},{"buffer":0,"byteOffset":63960,"byteLength":21320,"target":34962},{"buffer":0,"byteOffset":85280,"byteLength":61440,"target":34963},{"buffer":0,"byteOffset":146720,"byteLength":672,"target":34962},{"buffer":0,"byteOffset":147392,"byteLength":672,"target":34962},{"buffer":0,"byteOffset":148064,"byteLength":288,"target":34963},{"buffer":0,"byteOffset":148352,"byteLength":288,"target":34962},{"buffer":0,"byteOffset":148640,"byteLength":288,"target":34962},{"buffer":0,"byteOffset":148928,"byteLength":144,"target":34963},{"buffer":0,"byteOffset":149072,"byteLength":37728,"target":34962},{"buffer":0,"byteOffset":186800,"byteLength":37728,"target":34962},{"buffer":0,"byteOffset":224528,"byteLength":192,"target":34962},{"buffer":0,"byteOffset":224720,"byteLength":192,"target":34962},{"buffer":0,"byteOffset":224912,"byteLength":128,"target":34962},{"buffer":0,"byteOffset":225040,"byteLength":96,"target":34963},{"buffer":0,"byteOffset":225136,"byteLength":17280,"target":34962},{"buffer":0,"byteOffset":242416,"byteLength":17280,"target":34962},{"buffer":0,"byteOffset":259696,"byteLength":7680,"target":34963},{"buffer":0,"byteOffset":267376,"byteLength":96,"target":34962},{"buffer":0,"byteOffset":267472,"byteLength":96,"target":34962},{"buffer":0,"byteOffset":267568,"byteLength":48,"target":34963},{"buffer":0,"byteOffset":267616,"byteLength":14424,"target":34962},{"buffer":0,"byteOffset":282040,"byteLength":14424,"target":34962},{"buffer":0,"byteOffset":296464,"byteLength":7680,"target":34963},{"buffer":0,"byteOffset":304144,"byteLength":14424,"target":34962},{"buffer":0,"byteOffset":318568,"byteLength":14424,"target":34962},{"buffer":0,"byteOffset":332992,"byteLength":7680,"target":34963},{"buffer":0,"byteOffset":340672,"byteLength":14424,"target":34962},{"buffer":0,"byteOffset":355096,"byteLength":14424,"target":34962},{"buffer":0,"byteOffset":369520,"byteLength":7680,"target":34963},{"buffer":0,"byteOffset":377200,"byteLength":8160,"target":34962},{"buffer":0,"byteOffset":385360,"byteLength":8160,"target":34962},{"buffer":0,"byteOffset":393520,"byteLength":3456,"target":34963},{"buffer":0,"byteOffset":396976,"byteLength":288,"target":34962},{"buffer":0,"byteOffset":397264,"byteLength":288,"target":34962},{"buffer":0,"byteOffset":397552,"byteLength":192,"target":34963},{"buffer":0,"byteOffset":397744,"byteLength":8160,"target":34962},{"buffer":0,"byteOffset":405904,"byteLength":8160,"target":34962},{"buffer":0,"byteOffset":414064,"byteLength":3456,"target":34963},{"buffer":0,"byteOffset":417520,"byteLength":288,"target":34962},{"buffer":0,"byteOffset":417808,"byteLength":288,"target":34962},{"buffer":0,"byteOffset":418096,"byteLength":192,"target":34963},{"buffer":0,"byteOffset":418288,"byteLength":2304,"target":34962},{"buffer":0,"byteOffset":420592,"byteLength":2304,"target":34962},{"buffer":0,"byteOffset":422896,"byteLength":1152,"target":34963},{"buffer":0,"byteOffset":424048,"byteLength":6912,"target":34962},{"buffer":0,"byteOffset":430960,"byteLength":6912,"target":34962},{"buffer":0,"byteOffset":437872,"byteLength":3456,"target":34963},{"buffer":1,"byteOffset":0,"byteLength":12432,"target":34963},{"buffer":1,"byteOffset":12432,"byteLength":144,"target":34963}],"accessors":[{"bufferView":0,"componentType":5126,"count":2665,"type":"VEC3","min":[-0.7,-0.7,-4.5],"max":[0.7,0.7,4.5]},{"bufferView":1,"componentType":5126,"count":2665,"type":"VEC3"},{"bufferView":2,"componentType":5126,"count":2665,"type":"VEC2"},{"bufferView":3,"componentType":5125,"count":15360,"type":"SCALAR"},{"bufferView":4,"componentType":5126,"count":56,"type":"VEC3","min":[-1.98,0.19999999999999996,-4.41],"max":[1.98,0.9599999999999999,-2.88]},{"bufferView":5,"componentType":5126,"count":56,"type":"VEC3"},{"bufferView":6,"componentType":5125,"count":72,"type":"SCALAR"},{"bufferView":7,"componentType":5126,"count":24,"type":"VEC3","min":[-0.1,0.27999999999999997,-4.455],"max":[0.1,2.005,-2.5200000000000005]},{"bufferView":8,"componentType":5126,"count":24,"type":"VEC3"},{"bufferView":9,"componentType":5125,"count":36,"type":"SCALAR"},{"bufferView":10,"componentType":5126,"count":3144,"type":"VEC3","min":[-0.7189384865393472,-1.23,-2.2],"max":[0.7189384865393472,1.23,4.68]},{"bufferView":11,"componentType":5126,"count":3144,"type":"VEC3"},{"bufferView":12,"componentType":5126,"count":16,"type":"VEC3","min":[-0.74,-0.294,-4.032],"max":[0.74,1.6989999999999998,2.3049999999999997]},{"bufferView":13,"componentType":5126,"count":16,"type":"VEC3"},{"bufferView":14,"componentType":5126,"count":16,"type":"VEC2"},{"bufferView":15,"componentType":5125,"count":24,"type":"SCALAR"},{"bufferView":16,"componentType":5126,"count":1440,"type":"VEC3","min":[-0.7287199625466853,-0.435,-2.22],"max":[0.7287199625466853,0.7259056982650003,3.5100000000000002]},{"bufferView":17,"componentType":5126,"count":1440,"type":"VEC3"},{"bufferView":18,"componentType":5125,"count":1920,"type":"SCALAR"},{"bufferView":19,"componentType":5126,"count":8,"type":"VEC3","min":[-0.6352057030215302,-0.42,-1.71],"max":[0.6352057030215302,-0.34299999999999997,2.6999999999999997]},{"bufferView":20,"componentType":5126,"count":8,"type":"VEC3"},{"bufferView":21,"componentType":5125,"count":12,"type":"SCALAR"},{"bufferView":22,"componentType":5126,"count":1202,"type":"VEC3","min":[-0.25,-0.4,-0.4],"max":[0.25,0.4,0.4]},{"bufferView":23,"componentType":5126,"count":1202,"type":"VEC3"},{"bufferView":24,"componentType":5125,"count":1920,"type":"SCALAR"},{"bufferView":25,"componentType":5126,"count":1202,"type":"VEC3","min":[-0.25,-0.4,-0.4],"max":[0.25,0.4,0.4]},{"bufferView":26,"componentType":5126,"count":1202,"type":"VEC3"},{"bufferView":27,"componentType":5125,"count":1920,"type":"SCALAR"},{"bufferView":28,"componentType":5126,"count":1202,"type":"VEC3","min":[-0.25,-0.4,-0.4],"max":[0.25,0.4,0.4]},{"bufferView":29,"componentType":5126,"count":1202,"type":"VEC3"},{"bufferView":30,"componentType":5125,"count":1920,"type":"SCALAR"},{"bufferView":31,"componentType":5126,"count":680,"type":"VEC3","min":[-5.5,0.3364138171742496,-1.5300000000000002],"max":[-0.5249999999999999,0.8875217298127344,0.9]},{"bufferView":32,"componentType":5126,"count":680,"type":"VEC3"},{"bufferView":33,"componentType":5125,"count":864,"type":"SCALAR"},{"bufferView":34,"componentType":5126,"count":24,"type":"VEC3","min":[-5.5,0.5383008192221055,-1.0998899999999998],"max":[-0.5249999999999999,0.8866244251174459,-0.7524000000000003]},{"bufferView":35,"componentType":5126,"count":24,"type":"VEC3"},{"bufferView":36,"componentType":5125,"count":48,"type":"SCALAR"},{"bufferView":37,"componentType":5126,"count":680,"type":"VEC3","min":[0.5249999999999999,0.3364138171742496,-1.5300000000000002],"max":[5.5,0.8875217298127344,0.9]},{"bufferView":38,"componentType":5126,"count":680,"type":"VEC3"},{"bufferView":39,"componentType":5125,"count":864,"type":"SCALAR"},{"bufferView":40,"componentType":5126,"count":24,"type":"VEC3","min":[0.5249999999999999,0.5383008192221055,-1.0998899999999998],"max":[5.5,0.8866244251174459,-0.7524000000000003]},{"bufferView":41,"componentType":5126,"count":24,"type":"VEC3"},{"bufferView":42,"componentType":5125,"count":48,"type":"SCALAR"},{"bufferView":43,"componentType":5126,"count":192,"type":"VEC3","min":[-0.6799999999999999,-1.9,-1.02],"max":[0.6799999999999999,-1.2999999999999998,2.73]},{"bufferView":44,"componentType":5126,"count":192,"type":"VEC3"},{"bufferView":45,"componentType":5125,"count":288,"type":"SCALAR"},{"bufferView":46,"componentType":5126,"count":576,"type":"VEC3","min":[-0.8499999999999999,-2.5,-1.1],"max":[0.8499999999999999,-0.48999999999999994,3.0625852399281426]},{"bufferView":47,"componentType":5126,"count":576,"type":"VEC3"},{"bufferView":48,"componentType":5125,"count":864,"type":"SCALAR"},{"bufferView":49,"componentType":5125,"count":3108,"type":"SCALAR"},{"bufferView":50,"componentType":5125,"count":36,"type":"SCALAR"}],"images":[{"uri":"../../airlines/JBU.png"},{"uri":"fallback-paint-v5.png"}],"textures":[{"source":0,"sampler":0},{"source":1,"sampler":0}],"samplers":[{"magFilter":9729,"minFilter":9987,"wrapS":33071,"wrapT":33071}]}