{"asset":{"version":"2.0","generator":"Skyward detailed procedural light fallback v6; approximate airframe; operator identification logos"},"scene":0,"scenes":[{"nodes":[0,1,5,6,7,8,9,10,11,12,13,14,15,16]}],"nodes":[{"mesh":0},{"mesh":1,"name":"Gear","children":[2,3,4]},{"mesh":2,"name":"WheelN","translation":[0,-2.3,2.61]},{"mesh":3,"name":"WheelL","translation":[-0.5599999999999999,-2.3,-0.9]},{"mesh":4,"name":"WheelR","translation":[0.5599999999999999,-2.3,-0.9]},{"mesh":5,"name":"SlatL"},{"mesh":6,"name":"FlapL"},{"mesh":7,"name":"SpoilerL"},{"mesh":8,"name":"ElevatorL"},{"mesh":9,"name":"SlatR"},{"mesh":10,"name":"FlapR"},{"mesh":11,"name":"SpoilerR"},{"mesh":12,"name":"ElevatorR"},{"mesh":13,"name":"Rudder"},{"mesh":14,"name":"FlexWingL"},{"mesh":15,"name":"FlexWingR"},{"name":"SkywardProp0","mesh":16}],"meshes":[{"name":"AirframeWithCockpitGlazing","primitives":[{"indices":3,"attributes":{"POSITION":0,"NORMAL":1,"TEXCOORD_0":2},"material":0},{"indices":6,"attributes":{"POSITION":4,"NORMAL":5},"material":1},{"indices":9,"attributes":{"POSITION":7,"NORMAL":8},"material":2},{"attributes":{"POSITION":10,"NORMAL":11},"material":3,"indices":89},{"indices":15,"attributes":{"POSITION":12,"NORMAL":13,"TEXCOORD_0":14},"material":5},{"indices":18,"attributes":{"POSITION":16,"NORMAL":17},"material":6},{"indices":21,"attributes":{"POSITION":19,"NORMAL":20},"material":7}]},{"primitives":[{"indices":46,"attributes":{"POSITION":43,"NORMAL":44,"TEXCOORD_0":45},"material":0,"extras":{"gear":true}},{"indices":49,"attributes":{"POSITION":47,"NORMAL":48},"material":1,"extras":{"gear":true}},{"indices":52,"attributes":{"POSITION":50,"NORMAL":51},"material":6,"extras":{"gear":true}}]},{"primitives":[{"indices":24,"attributes":{"POSITION":22,"NORMAL":23},"material":4,"extras":{"wheel":0}},{"indices":82,"attributes":{"POSITION":80,"NORMAL":81},"material":6,"extras":{"wheel":0}}]},{"primitives":[{"indices":27,"attributes":{"POSITION":25,"NORMAL":26},"material":4,"extras":{"wheel":1}},{"indices":85,"attributes":{"POSITION":83,"NORMAL":84},"material":6,"extras":{"wheel":1}}]},{"primitives":[{"indices":30,"attributes":{"POSITION":28,"NORMAL":29},"material":4,"extras":{"wheel":2}},{"indices":88,"attributes":{"POSITION":86,"NORMAL":87},"material":6,"extras":{"wheel":2}}]},{"primitives":[{"indices":55,"attributes":{"POSITION":53,"NORMAL":54},"material":1,"extras":{"surface":0}}]},{"primitives":[{"indices":58,"attributes":{"POSITION":56,"NORMAL":57},"material":1,"extras":{"surface":1}}]},{"primitives":[{"indices":61,"attributes":{"POSITION":59,"NORMAL":60},"material":1,"extras":{"surface":2}}]},{"primitives":[{"indices":64,"attributes":{"POSITION":62,"NORMAL":63},"material":1,"extras":{"surface":3}}]},{"primitives":[{"indices":67,"attributes":{"POSITION":65,"NORMAL":66},"material":1,"extras":{"surface":4}}]},{"primitives":[{"indices":70,"attributes":{"POSITION":68,"NORMAL":69},"material":1,"extras":{"surface":5}}]},{"primitives":[{"indices":73,"attributes":{"POSITION":71,"NORMAL":72},"material":1,"extras":{"surface":6}}]},{"primitives":[{"indices":76,"attributes":{"POSITION":74,"NORMAL":75},"material":1,"extras":{"surface":7}}]},{"primitives":[{"indices":79,"attributes":{"POSITION":77,"NORMAL":78},"material":2,"extras":{"surface":8}}]},{"primitives":[{"indices":33,"attributes":{"POSITION":31,"NORMAL":32},"material":1,"extras":{"wing":0}},{"indices":36,"attributes":{"POSITION":34,"NORMAL":35},"material":6,"extras":{"wing":0}}]},{"primitives":[{"indices":39,"attributes":{"POSITION":37,"NORMAL":38},"material":1,"extras":{"wing":1}},{"indices":42,"attributes":{"POSITION":40,"NORMAL":41},"material":6,"extras":{"wing":1}}]},{"primitives":[{"attributes":{"POSITION":10,"NORMAL":11},"material":3,"indices":90}]}],"materials":[{"doubleSided":true,"pbrMetallicRoughness":{"baseColorFactor":[0.94,0.95,0.96,1],"metallicFactor":0.04,"roughnessFactor":0.27,"baseColorTexture":{"index":1}}},{"doubleSided":true,"pbrMetallicRoughness":{"baseColorFactor":[0.64,0.68,0.72,1],"metallicFactor":0.04,"roughnessFactor":0.4}},{"doubleSided":true,"pbrMetallicRoughness":{"baseColorFactor":[0.7843137254901961,0.09803921568627451,0.19607843137254902,1],"metallicFactor":0.04,"roughnessFactor":0.27}},{"doubleSided":true,"pbrMetallicRoughness":{"baseColorFactor":[0.02,0.055,0.085,1],"metallicFactor":0,"roughnessFactor":0.12}},{"doubleSided":true,"pbrMetallicRoughness":{"baseColorFactor":[0.07,0.08,0.09,1],"metallicFactor":0,"roughnessFactor":0.86}},{"doubleSided":true,"pbrMetallicRoughness":{"baseColorFactor":[1,1,1,1],"metallicFactor":0,"roughnessFactor":0.75,"baseColorTexture":{"index":0}},"alphaMode":"MASK","alphaCutoff":0.08},{"doubleSided":true,"pbrMetallicRoughness":{"baseColorFactor":[0.36,0.4,0.44,1],"metallicFactor":0.8,"roughnessFactor":0.28}},{"doubleSided":true,"pbrMetallicRoughness":{"baseColorFactor":[0.7843137254901961,0.09803921568627451,0.19607843137254902,1],"metallicFactor":0.04,"roughnessFactor":0.27}}],"buffers":[{"uri":"light-v4.bin?tail=2&rig=1&detail=6","byteLength":424096},{"uri":"light-rotor-indices.bin?detail=6","byteLength":12576}],"bufferViews":[{"buffer":0,"byteOffset":0,"byteLength":31980,"target":34962},{"buffer":0,"byteOffset":31980,"byteLength":31980,"target":34962},{"buffer":0,"byteOffset":63960,"byteLength":21320,"target":34962},{"buffer":0,"byteOffset":85280,"byteLength":61440,"target":34963},{"buffer":0,"byteOffset":146720,"byteLength":672,"target":34962},{"buffer":0,"byteOffset":147392,"byteLength":672,"target":34962},{"buffer":0,"byteOffset":148064,"byteLength":288,"target":34963},{"buffer":0,"byteOffset":148352,"byteLength":288,"target":34962},{"buffer":0,"byteOffset":148640,"byteLength":288,"target":34962},{"buffer":0,"byteOffset":148928,"byteLength":144,"target":34963},{"buffer":0,"byteOffset":149072,"byteLength":37728,"target":34962},{"buffer":0,"byteOffset":186800,"byteLength":37728,"target":34962},{"buffer":0,"byteOffset":224528,"byteLength":192,"target":34962},{"buffer":0,"byteOffset":224720,"byteLength":192,"target":34962},{"buffer":0,"byteOffset":224912,"byteLength":128,"target":34962},{"buffer":0,"byteOffset":225040,"byteLength":96,"target":34963},{"buffer":0,"byteOffset":225136,"byteLength":17280,"target":34962},{"buffer":0,"byteOffset":242416,"byteLength":17280,"target":34962},{"buffer":0,"byteOffset":259696,"byteLength":7680,"target":34963},{"buffer":0,"byteOffset":267376,"byteLength":96,"target":34962},{"buffer":0,"byteOffset":267472,"byteLength":96,"target":34962},{"buffer":0,"byteOffset":267568,"byteLength":48,"target":34963},{"buffer":0,"byteOffset":267616,"byteLength":10752,"target":34962},{"buffer":0,"byteOffset":278368,"byteLength":10752,"target":34962},{"buffer":0,"byteOffset":289120,"byteLength":5376,"target":34963},{"buffer":0,"byteOffset":294496,"byteLength":10752,"target":34962},{"buffer":0,"byteOffset":305248,"byteLength":10752,"target":34962},{"buffer":0,"byteOffset":316000,"byteLength":5376,"target":34963},{"buffer":0,"byteOffset":321376,"byteLength":10752,"target":34962},{"buffer":0,"byteOffset":332128,"byteLength":10752,"target":34962},{"buffer":0,"byteOffset":342880,"byteLength":5376,"target":34963},{"buffer":0,"byteOffset":348256,"byteLength":6720,"target":34962},{"buffer":0,"byteOffset":354976,"byteLength":6720,"target":34962},{"buffer":0,"byteOffset":361696,"byteLength":2976,"target":34963},{"buffer":0,"byteOffset":364672,"byteLength":288,"target":34962},{"buffer":0,"byteOffset":364960,"byteLength":288,"target":34962},{"buffer":0,"byteOffset":365248,"byteLength":192,"target":34963},{"buffer":0,"byteOffset":365440,"byteLength":6720,"target":34962},{"buffer":0,"byteOffset":372160,"byteLength":6720,"target":34962},{"buffer":0,"byteOffset":378880,"byteLength":2976,"target":34963},{"buffer":0,"byteOffset":381856,"byteLength":288,"target":34962},{"buffer":0,"byteOffset":382144,"byteLength":288,"target":34962},{"buffer":0,"byteOffset":382432,"byteLength":192,"target":34963},{"buffer":0,"byteOffset":382624,"byteLength":864,"target":34962},{"buffer":0,"byteOffset":383488,"byteLength":864,"target":34962},{"buffer":0,"byteOffset":384352,"byteLength":576,"target":34962},{"buffer":0,"byteOffset":384928,"byteLength":432,"target":34963},{"buffer":0,"byteOffset":385360,"byteLength":2304,"target":34962},{"buffer":0,"byteOffset":387664,"byteLength":2304,"target":34962},{"buffer":0,"byteOffset":389968,"byteLength":1152,"target":34963},{"buffer":0,"byteOffset":391120,"byteLength":6912,"target":34962},{"buffer":0,"byteOffset":398032,"byteLength":6912,"target":34962},{"buffer":0,"byteOffset":404944,"byteLength":3456,"target":34963},{"buffer":0,"byteOffset":408400,"byteLength":432,"target":34962},{"buffer":0,"byteOffset":408832,"byteLength":432,"target":34962},{"buffer":0,"byteOffset":409264,"byteLength":144,"target":34963},{"buffer":0,"byteOffset":409408,"byteLength":864,"target":34962},{"buffer":0,"byteOffset":410272,"byteLength":864,"target":34962},{"buffer":0,"byteOffset":411136,"byteLength":288,"target":34963},{"buffer":0,"byteOffset":411424,"byteLength":144,"target":34962},{"buffer":0,"byteOffset":411568,"byteLength":144,"target":34962},{"buffer":0,"byteOffset":411712,"byteLength":48,"target":34963},{"buffer":0,"byteOffset":411760,"byteLength":288,"target":34962},{"buffer":0,"byteOffset":412048,"byteLength":288,"target":34962},{"buffer":0,"byteOffset":412336,"byteLength":144,"target":34963},{"buffer":0,"byteOffset":412480,"byteLength":432,"target":34962},{"buffer":0,"byteOffset":412912,"byteLength":432,"target":34962},{"buffer":0,"byteOffset":413344,"byteLength":144,"target":34963},{"buffer":0,"byteOffset":413488,"byteLength":864,"target":34962},{"buffer":0,"byteOffset":414352,"byteLength":864,"target":34962},{"buffer":0,"byteOffset":415216,"byteLength":288,"target":34963},{"buffer":0,"byteOffset":415504,"byteLength":144,"target":34962},{"buffer":0,"byteOffset":415648,"byteLength":144,"target":34962},{"buffer":0,"byteOffset":415792,"byteLength":48,"target":34963},{"buffer":0,"byteOffset":415840,"byteLength":288,"target":34962},{"buffer":0,"byteOffset":416128,"byteLength":288,"target":34962},{"buffer":0,"byteOffset":416416,"byteLength":144,"target":34963},{"buffer":0,"byteOffset":416560,"byteLength":168,"target":34962},{"buffer":0,"byteOffset":416728,"byteLength":168,"target":34962},{"buffer":0,"byteOffset":416896,"byteLength":144,"target":34963},{"buffer":0,"byteOffset":417040,"byteLength":792,"target":34962},{"buffer":0,"byteOffset":417832,"byteLength":792,"target":34962},{"buffer":0,"byteOffset":418624,"byteLength":768,"target":34963},{"buffer":0,"byteOffset":419392,"byteLength":792,"target":34962},{"buffer":0,"byteOffset":420184,"byteLength":792,"target":34962},{"buffer":0,"byteOffset":420976,"byteLength":768,"target":34963},{"buffer":0,"byteOffset":421744,"byteLength":792,"target":34962},{"buffer":0,"byteOffset":422536,"byteLength":792,"target":34962},{"buffer":0,"byteOffset":423328,"byteLength":768,"target":34963},{"buffer":1,"byteOffset":0,"byteLength":12432,"target":34963},{"buffer":1,"byteOffset":12432,"byteLength":144,"target":34963}],"accessors":[{"bufferView":0,"componentType":5126,"count":2665,"type":"VEC3","min":[-0.7,-0.7,-4.5],"max":[0.7,0.7,4.5]},{"bufferView":1,"componentType":5126,"count":2665,"type":"VEC3"},{"bufferView":2,"componentType":5126,"count":2665,"type":"VEC2"},{"bufferView":3,"componentType":5125,"count":15360,"type":"SCALAR"},{"bufferView":4,"componentType":5126,"count":56,"type":"VEC3","min":[-1.98,0.19999999999999996,-4.1850000000000005],"max":[1.98,0.9599999999999999,-2.88]},{"bufferView":5,"componentType":5126,"count":56,"type":"VEC3"},{"bufferView":6,"componentType":5125,"count":72,"type":"SCALAR"},{"bufferView":7,"componentType":5126,"count":24,"type":"VEC3","min":[-0.1,0.27999999999999997,-4.1850000000000005],"max":[0.1,1.78,-2.5200000000000005]},{"bufferView":8,"componentType":5126,"count":24,"type":"VEC3"},{"bufferView":9,"componentType":5125,"count":36,"type":"SCALAR"},{"bufferView":10,"componentType":5126,"count":3144,"type":"VEC3","min":[-0.7189384865393472,-1.23,-2.2],"max":[0.7189384865393472,1.23,4.68]},{"bufferView":11,"componentType":5126,"count":3144,"type":"VEC3"},{"bufferView":12,"componentType":5126,"count":16,"type":"VEC3","min":[-0.74,-0.294,-4.032],"max":[0.74,1.4992,2.3049999999999997]},{"bufferView":13,"componentType":5126,"count":16,"type":"VEC3"},{"bufferView":14,"componentType":5126,"count":16,"type":"VEC2"},{"bufferView":15,"componentType":5125,"count":24,"type":"SCALAR"},{"bufferView":16,"componentType":5126,"count":1440,"type":"VEC3","min":[-0.7287199625466853,-0.435,-2.22],"max":[0.7287199625466853,0.7259056982650003,3.5100000000000002]},{"bufferView":17,"componentType":5126,"count":1440,"type":"VEC3"},{"bufferView":18,"componentType":5125,"count":1920,"type":"SCALAR"},{"bufferView":19,"componentType":5126,"count":8,"type":"VEC3","min":[-0.6352057030215302,-0.42,-1.71],"max":[0.6352057030215302,-0.34299999999999997,2.6999999999999997]},{"bufferView":20,"componentType":5126,"count":8,"type":"VEC3"},{"bufferView":21,"componentType":5125,"count":12,"type":"SCALAR"},{"bufferView":22,"componentType":5126,"count":896,"type":"VEC3","min":[-0.16,-0.28,-0.28],"max":[0.16,0.28,0.28]},{"bufferView":23,"componentType":5126,"count":896,"type":"VEC3"},{"bufferView":24,"componentType":5125,"count":1344,"type":"SCALAR"},{"bufferView":25,"componentType":5126,"count":896,"type":"VEC3","min":[-0.16,-0.25,-0.25],"max":[0.16,0.25,0.25]},{"bufferView":26,"componentType":5126,"count":896,"type":"VEC3"},{"bufferView":27,"componentType":5125,"count":1344,"type":"SCALAR"},{"bufferView":28,"componentType":5126,"count":896,"type":"VEC3","min":[-0.16,-0.25,-0.25],"max":[0.16,0.25,0.25]},{"bufferView":29,"componentType":5126,"count":896,"type":"VEC3"},{"bufferView":30,"componentType":5125,"count":1344,"type":"SCALAR"},{"bufferView":31,"componentType":5126,"count":560,"type":"VEC3","min":[-5.5,0.3364138171742496,-1.5300000000000002],"max":[-0.5249999999999999,0.8875217298127344,0.9]},{"bufferView":32,"componentType":5126,"count":560,"type":"VEC3"},{"bufferView":33,"componentType":5125,"count":744,"type":"SCALAR"},{"bufferView":34,"componentType":5126,"count":24,"type":"VEC3","min":[-5.5,0.5383008192221055,-1.0998899999999998],"max":[-0.5249999999999999,0.8866244251174459,-0.7524000000000003]},{"bufferView":35,"componentType":5126,"count":24,"type":"VEC3"},{"bufferView":36,"componentType":5125,"count":48,"type":"SCALAR"},{"bufferView":37,"componentType":5126,"count":560,"type":"VEC3","min":[0.5249999999999999,0.3364138171742496,-1.5300000000000002],"max":[5.5,0.8875217298127344,0.9]},{"bufferView":38,"componentType":5126,"count":560,"type":"VEC3"},{"bufferView":39,"componentType":5125,"count":744,"type":"SCALAR"},{"bufferView":40,"componentType":5126,"count":24,"type":"VEC3","min":[0.5249999999999999,0.5383008192221055,-1.0998899999999998],"max":[5.5,0.8866244251174459,-0.7524000000000003]},{"bufferView":41,"componentType":5126,"count":24,"type":"VEC3"},{"bufferView":42,"componentType":5125,"count":48,"type":"SCALAR"},{"bufferView":43,"componentType":5126,"count":72,"type":"VEC3","min":[-1.18,-1.7249999999999999,-1.55],"max":[0.07999999999999996,-0.4999999999999999,3.26]},{"bufferView":44,"componentType":5126,"count":72,"type":"VEC3"},{"bufferView":45,"componentType":5126,"count":72,"type":"VEC2"},{"bufferView":46,"componentType":5125,"count":108,"type":"SCALAR"},{"bufferView":47,"componentType":5126,"count":192,"type":"VEC3","min":[-0.6799999999999999,-1.9,-1.02],"max":[0.6799999999999999,-1.2999999999999998,2.73]},{"bufferView":48,"componentType":5126,"count":192,"type":"VEC3"},{"bufferView":49,"componentType":5125,"count":288,"type":"SCALAR"},{"bufferView":50,"componentType":5126,"count":576,"type":"VEC3","min":[-0.98,-2.3899999999999997,-0.99],"max":[0.98,-0.48999999999999994,3.0625852399281426]},{"bufferView":51,"componentType":5126,"count":576,"type":"VEC3"},{"bufferView":52,"componentType":5125,"count":864,"type":"SCALAR"},{"bufferView":53,"componentType":5126,"count":36,"type":"VEC3","min":[-4.95,0.38260922555772386,-0.30767963140691307],"max":[-0.5249999999999999,0.7302193233054765,0.9]},{"bufferView":54,"componentType":5126,"count":36,"type":"VEC3"},{"bufferView":55,"componentType":5125,"count":36,"type":"SCALAR"},{"bufferView":56,"componentType":5126,"count":72,"type":"VEC3","min":[-4.95,0.4239488796302793,-1.5300000000000002],"max":[-0.5249999999999999,0.7260267039856698,-1.115017856687341]},{"bufferView":57,"componentType":5126,"count":72,"type":"VEC3"},{"bufferView":58,"componentType":5125,"count":72,"type":"SCALAR"},{"bufferView":59,"componentType":5126,"count":12,"type":"VEC3","min":[-4.95,0.5566007109195383,-1.0125],"max":[-0.5249999999999999,0.750529412008529,-0.6294651397995629]},{"bufferView":60,"componentType":5126,"count":12,"type":"VEC3"},{"bufferView":61,"componentType":5125,"count":12,"type":"SCALAR"},{"bufferView":62,"componentType":5126,"count":24,"type":"VEC3","min":[-1.98,0.21999999999999997,-4.41],"max":[-0.27999999999999997,0.94,-3.735]},{"bufferView":63,"componentType":5126,"count":24,"type":"VEC3"},{"bufferView":64,"componentType":5125,"count":36,"type":"SCALAR"},{"bufferView":65,"componentType":5126,"count":36,"type":"VEC3","min":[0.5249999999999999,0.38260922555772386,-0.30767963140691307],"max":[4.95,0.7302193233054765,0.9]},{"bufferView":66,"componentType":5126,"count":36,"type":"VEC3"},{"bufferView":67,"componentType":5125,"count":36,"type":"SCALAR"},{"bufferView":68,"componentType":5126,"count":72,"type":"VEC3","min":[0.5249999999999999,0.4239488796302793,-1.5300000000000002],"max":[4.95,0.7260267039856698,-1.115017856687341]},{"bufferView":69,"componentType":5126,"count":72,"type":"VEC3"},{"bufferView":70,"componentType":5125,"count":72,"type":"SCALAR"},{"bufferView":71,"componentType":5126,"count":12,"type":"VEC3","min":[0.5249999999999999,0.5566007109195383,-1.0125],"max":[4.95,0.750529412008529,-0.6294651397995629]},{"bufferView":72,"componentType":5126,"count":12,"type":"VEC3"},{"bufferView":73,"componentType":5125,"count":12,"type":"SCALAR"},{"bufferView":74,"componentType":5126,"count":24,"type":"VEC3","min":[0.27999999999999997,0.21999999999999997,-4.41],"max":[1.98,0.94,-3.735]},{"bufferView":75,"componentType":5126,"count":24,"type":"VEC3"},{"bufferView":76,"componentType":5125,"count":36,"type":"SCALAR"},{"bufferView":77,"componentType":5126,"count":14,"type":"VEC3","min":[0,0.19999999999999996,-4.455],"max":[0,1.86,-4.032]},{"bufferView":78,"componentType":5126,"count":14,"type":"VEC3"},{"bufferView":79,"componentType":5125,"count":36,"type":"SCALAR"},{"bufferView":80,"componentType":5126,"count":66,"type":"VEC3","min":[-0.161,-0.15400000000000003,-0.15400000000000003],"max":[0.161,0.15400000000000003,0.15400000000000003]},{"bufferView":81,"componentType":5126,"count":66,"type":"VEC3"},{"bufferView":82,"componentType":5125,"count":192,"type":"SCALAR"},{"bufferView":83,"componentType":5126,"count":66,"type":"VEC3","min":[-0.161,-0.1375,-0.1375],"max":[0.161,0.1375,0.1375]},{"bufferView":84,"componentType":5126,"count":66,"type":"VEC3"},{"bufferView":85,"componentType":5125,"count":192,"type":"SCALAR"},{"bufferView":86,"componentType":5126,"count":66,"type":"VEC3","min":[-0.161,-0.1375,-0.1375],"max":[0.161,0.1375,0.1375]},{"bufferView":87,"componentType":5126,"count":66,"type":"VEC3"},{"bufferView":88,"componentType":5125,"count":192,"type":"SCALAR"},{"bufferView":89,"componentType":5125,"count":3108,"type":"SCALAR"},{"bufferView":90,"componentType":5125,"count":36,"type":"SCALAR"}],"images":[{"uri":"../../airlines/JAL.png"},{"uri":"fallback-paint-v5.png"}],"textures":[{"source":0,"sampler":0},{"source":1,"sampler":0}],"samplers":[{"magFilter":9729,"minFilter":9987,"wrapS":33071,"wrapT":33071}]}