{"asset":{"version":"2.0","generator":"Skyward detailed procedural pc12 fallback v5; approximate airframe; operator identification logos"},"scene":0,"scenes":[{"nodes":[0,1,5,6,7]}],"nodes":[{"mesh":0},{"mesh":1,"name":"Gear","children":[2,3,4]},{"mesh":2,"name":"WheelN","translation":[0,-2.35,4.06]},{"mesh":3,"name":"WheelL","translation":[-0.6000000000000001,-2.35,-1.4000000000000001]},{"mesh":4,"name":"WheelR","translation":[0.6000000000000001,-2.35,-1.4000000000000001]},{"mesh":5,"name":"FlexWingL"},{"mesh":6,"name":"FlexWingR"},{"name":"SkywardProp0","mesh":7}],"meshes":[{"name":"AirframeWithCockpitGlazing","primitives":[{"indices":3,"attributes":{"POSITION":0,"NORMAL":1,"TEXCOORD_0":2},"material":0},{"indices":6,"attributes":{"POSITION":4,"NORMAL":5},"material":1},{"indices":9,"attributes":{"POSITION":7,"NORMAL":8},"material":2},{"attributes":{"POSITION":10,"NORMAL":11},"material":3,"indices":49},{"indices":15,"attributes":{"POSITION":12,"NORMAL":13,"TEXCOORD_0":14},"material":5},{"indices":18,"attributes":{"POSITION":16,"NORMAL":17},"material":6},{"indices":21,"attributes":{"POSITION":19,"NORMAL":20},"material":7}]},{"primitives":[{"indices":45,"attributes":{"POSITION":43,"NORMAL":44},"material":1,"extras":{"gear":true}},{"indices":48,"attributes":{"POSITION":46,"NORMAL":47},"material":6,"extras":{"gear":true}}]},{"primitives":[{"indices":24,"attributes":{"POSITION":22,"NORMAL":23},"material":4,"extras":{"wheel":0}}]},{"primitives":[{"indices":27,"attributes":{"POSITION":25,"NORMAL":26},"material":4,"extras":{"wheel":1}}]},{"primitives":[{"indices":30,"attributes":{"POSITION":28,"NORMAL":29},"material":4,"extras":{"wheel":2}}]},{"primitives":[{"indices":33,"attributes":{"POSITION":31,"NORMAL":32},"material":1,"extras":{"wing":0}},{"indices":36,"attributes":{"POSITION":34,"NORMAL":35},"material":6,"extras":{"wing":0}}]},{"primitives":[{"indices":39,"attributes":{"POSITION":37,"NORMAL":38},"material":1,"extras":{"wing":1}},{"indices":42,"attributes":{"POSITION":40,"NORMAL":41},"material":6,"extras":{"wing":1}}]},{"primitives":[{"attributes":{"POSITION":10,"NORMAL":11},"material":3,"indices":50}]}],"materials":[{"doubleSided":true,"pbrMetallicRoughness":{"baseColorFactor":[0.94,0.95,0.96,1],"metallicFactor":0.04,"roughnessFactor":0.27,"baseColorTexture":{"index":1}}},{"doubleSided":true,"pbrMetallicRoughness":{"baseColorFactor":[0.64,0.68,0.72,1],"metallicFactor":0.04,"roughnessFactor":0.4}},{"doubleSided":true,"pbrMetallicRoughness":{"baseColorFactor":[0.09803921568627451,0.2235294117647059,0.4745098039215686,1],"metallicFactor":0.04,"roughnessFactor":0.27}},{"doubleSided":true,"pbrMetallicRoughness":{"baseColorFactor":[0.02,0.055,0.085,1],"metallicFactor":0,"roughnessFactor":0.12}},{"doubleSided":true,"pbrMetallicRoughness":{"baseColorFactor":[0.07,0.08,0.09,1],"metallicFactor":0,"roughnessFactor":0.86}},{"doubleSided":true,"pbrMetallicRoughness":{"baseColorFactor":[1,1,1,1],"metallicFactor":0,"roughnessFactor":0.75,"baseColorTexture":{"index":0}},"alphaMode":"MASK","alphaCutoff":0.08},{"doubleSided":true,"pbrMetallicRoughness":{"baseColorFactor":[0.36,0.4,0.44,1],"metallicFactor":0.8,"roughnessFactor":0.28}},{"doubleSided":true,"pbrMetallicRoughness":{"baseColorFactor":[0.09803921568627451,0.2235294117647059,0.4745098039215686,1],"metallicFactor":0.04,"roughnessFactor":0.27}}],"buffers":[{"uri":"pc12-v4.bin?tail=2&rig=1&detail=5","byteLength":445648},{"uri":"pc12-rotor-indices.bin?detail=5","byteLength":13296}],"bufferViews":[{"buffer":0,"byteOffset":0,"byteLength":31980,"target":34962},{"buffer":0,"byteOffset":31980,"byteLength":31980,"target":34962},{"buffer":0,"byteOffset":63960,"byteLength":21320,"target":34962},{"buffer":0,"byteOffset":85280,"byteLength":61440,"target":34963},{"buffer":0,"byteOffset":146720,"byteLength":672,"target":34962},{"buffer":0,"byteOffset":147392,"byteLength":672,"target":34962},{"buffer":0,"byteOffset":148064,"byteLength":288,"target":34963},{"buffer":0,"byteOffset":148352,"byteLength":288,"target":34962},{"buffer":0,"byteOffset":148640,"byteLength":288,"target":34962},{"buffer":0,"byteOffset":148928,"byteLength":144,"target":34963},{"buffer":0,"byteOffset":149072,"byteLength":39888,"target":34962},{"buffer":0,"byteOffset":188960,"byteLength":39888,"target":34962},{"buffer":0,"byteOffset":228848,"byteLength":192,"target":34962},{"buffer":0,"byteOffset":229040,"byteLength":192,"target":34962},{"buffer":0,"byteOffset":229232,"byteLength":128,"target":34962},{"buffer":0,"byteOffset":229360,"byteLength":96,"target":34963},{"buffer":0,"byteOffset":229456,"byteLength":17280,"target":34962},{"buffer":0,"byteOffset":246736,"byteLength":17280,"target":34962},{"buffer":0,"byteOffset":264016,"byteLength":7680,"target":34963},{"buffer":0,"byteOffset":271696,"byteLength":96,"target":34962},{"buffer":0,"byteOffset":271792,"byteLength":96,"target":34962},{"buffer":0,"byteOffset":271888,"byteLength":48,"target":34963},{"buffer":0,"byteOffset":271936,"byteLength":14424,"target":34962},{"buffer":0,"byteOffset":286360,"byteLength":14424,"target":34962},{"buffer":0,"byteOffset":300784,"byteLength":7680,"target":34963},{"buffer":0,"byteOffset":308464,"byteLength":14424,"target":34962},{"buffer":0,"byteOffset":322888,"byteLength":14424,"target":34962},{"buffer":0,"byteOffset":337312,"byteLength":7680,"target":34963},{"buffer":0,"byteOffset":344992,"byteLength":14424,"target":34962},{"buffer":0,"byteOffset":359416,"byteLength":14424,"target":34962},{"buffer":0,"byteOffset":373840,"byteLength":7680,"target":34963},{"buffer":0,"byteOffset":381520,"byteLength":8160,"target":34962},{"buffer":0,"byteOffset":389680,"byteLength":8160,"target":34962},{"buffer":0,"byteOffset":397840,"byteLength":3456,"target":34963},{"buffer":0,"byteOffset":401296,"byteLength":288,"target":34962},{"buffer":0,"byteOffset":401584,"byteLength":288,"target":34962},{"buffer":0,"byteOffset":401872,"byteLength":192,"target":34963},{"buffer":0,"byteOffset":402064,"byteLength":8160,"target":34962},{"buffer":0,"byteOffset":410224,"byteLength":8160,"target":34962},{"buffer":0,"byteOffset":418384,"byteLength":3456,"target":34963},{"buffer":0,"byteOffset":421840,"byteLength":288,"target":34962},{"buffer":0,"byteOffset":422128,"byteLength":288,"target":34962},{"buffer":0,"byteOffset":422416,"byteLength":192,"target":34963},{"buffer":0,"byteOffset":422608,"byteLength":2304,"target":34962},{"buffer":0,"byteOffset":424912,"byteLength":2304,"target":34962},{"buffer":0,"byteOffset":427216,"byteLength":1152,"target":34963},{"buffer":0,"byteOffset":428368,"byteLength":6912,"target":34962},{"buffer":0,"byteOffset":435280,"byteLength":6912,"target":34962},{"buffer":0,"byteOffset":442192,"byteLength":3456,"target":34963},{"buffer":1,"byteOffset":0,"byteLength":13152,"target":34963},{"buffer":1,"byteOffset":13152,"byteLength":144,"target":34963}],"accessors":[{"bufferView":0,"componentType":5126,"count":2665,"type":"VEC3","min":[-0.75,-0.75,-7.0],"max":[0.75,0.75,7.0]},{"bufferView":1,"componentType":5126,"count":2665,"type":"VEC3"},{"bufferView":2,"componentType":5126,"count":2665,"type":"VEC2"},{"bufferView":3,"componentType":5125,"count":15360,"type":"SCALAR"},{"bufferView":4,"componentType":5126,"count":56,"type":"VEC3","min":[-2.88,1.27,-6.859999999999999],"max":[2.88,2.0300000000000002,-4.48]},{"bufferView":5,"componentType":5126,"count":56,"type":"VEC3"},{"bufferView":6,"componentType":5125,"count":72,"type":"SCALAR"},{"bufferView":7,"componentType":5126,"count":24,"type":"VEC3","min":[-0.1,0.30000000000000004,-6.93],"max":[0.1,2.78,-3.9200000000000004]},{"bufferView":8,"componentType":5126,"count":24,"type":"VEC3"},{"bufferView":9,"componentType":5125,"count":36,"type":"SCALAR"},{"bufferView":10,"componentType":5126,"count":3324,"type":"VEC3","min":[-0.7679769141809365,-1.23,-3.35],"max":[0.7679769141809365,1.23,7.28]},{"bufferView":11,"componentType":5126,"count":3324,"type":"VEC3"},{"bufferView":12,"componentType":5126,"count":16,"type":"VEC3","min":[-0.79,-0.315,-6.272],"max":[0.79,2.3040000000000003,3.2975000000000003]},{"bufferView":13,"componentType":5126,"count":16,"type":"VEC3"},{"bufferView":14,"componentType":5126,"count":16,"type":"VEC2"},{"bufferView":15,"componentType":5125,"count":24,"type":"SCALAR"},{"bufferView":16,"componentType":5126,"count":1440,"type":"VEC3","min":[-0.7776273425833755,-0.4650000000000001,-3.4450000000000003],"max":[0.7776273425833755,0.774624201504262,5.46]},{"bufferView":17,"componentType":5126,"count":1440,"type":"VEC3"},{"bufferView":18,"componentType":5125,"count":1920,"type":"SCALAR"},{"bufferView":19,"componentType":5126,"count":8,"type":"VEC3","min":[-0.6787918246659254,-0.44999999999999996,-2.66],"max":[0.6787918246659254,-0.3675,4.2]},{"bufferView":20,"componentType":5126,"count":8,"type":"VEC3"},{"bufferView":21,"componentType":5125,"count":12,"type":"SCALAR"},{"bufferView":22,"componentType":5126,"count":1202,"type":"VEC3","min":[-0.25,-0.4,-0.4],"max":[0.25,0.4,0.4]},{"bufferView":23,"componentType":5126,"count":1202,"type":"VEC3"},{"bufferView":24,"componentType":5125,"count":1920,"type":"SCALAR"},{"bufferView":25,"componentType":5126,"count":1202,"type":"VEC3","min":[-0.25,-0.4,-0.4],"max":[0.25,0.4,0.4]},{"bufferView":26,"componentType":5126,"count":1202,"type":"VEC3"},{"bufferView":27,"componentType":5125,"count":1920,"type":"SCALAR"},{"bufferView":28,"componentType":5126,"count":1202,"type":"VEC3","min":[-0.25,-0.4,-0.4],"max":[0.25,0.4,0.4]},{"bufferView":29,"componentType":5126,"count":1202,"type":"VEC3"},{"bufferView":30,"componentType":5125,"count":1920,"type":"SCALAR"},{"bufferView":31,"componentType":5126,"count":680,"type":"VEC3","min":[-8.0,0.30303260449327724,-2.38],"max":[-0.5625,0.9380893574864758,1.4000000000000001]},{"bufferView":32,"componentType":5126,"count":680,"type":"VEC3"},{"bufferView":33,"componentType":5125,"count":864,"type":"SCALAR"},{"bufferView":34,"componentType":5126,"count":24,"type":"VEC3","min":[-8.0,0.6126346076788307,-1.7109399999999997],"max":[-0.5625,0.9322491057382492,-1.1704]},{"bufferView":35,"componentType":5126,"count":24,"type":"VEC3"},{"bufferView":36,"componentType":5125,"count":48,"type":"SCALAR"},{"bufferView":37,"componentType":5126,"count":680,"type":"VEC3","min":[0.5625,0.30303260449327724,-2.38],"max":[8.0,0.9380893574864758,1.4000000000000001]},{"bufferView":38,"componentType":5126,"count":680,"type":"VEC3"},{"bufferView":39,"componentType":5125,"count":864,"type":"SCALAR"},{"bufferView":40,"componentType":5126,"count":24,"type":"VEC3","min":[0.5625,0.6126346076788307,-1.7109399999999997],"max":[8.0,0.9322491057382492,-1.1704]},{"bufferView":41,"componentType":5126,"count":24,"type":"VEC3"},{"bufferView":42,"componentType":5125,"count":48,"type":"SCALAR"},{"bufferView":43,"componentType":5126,"count":192,"type":"VEC3","min":[-0.7200000000000001,-1.95,-1.52],"max":[0.7200000000000001,-1.35,4.18]},{"bufferView":44,"componentType":5126,"count":192,"type":"VEC3"},{"bufferView":45,"componentType":5125,"count":288,"type":"SCALAR"},{"bufferView":46,"componentType":5126,"count":576,"type":"VEC3","min":[-0.8900000000000001,-2.5500000000000003,-1.6],"max":[0.8900000000000001,-0.5249999999999999,4.512610991480864]},{"bufferView":47,"componentType":5126,"count":576,"type":"VEC3"},{"bufferView":48,"componentType":5125,"count":864,"type":"SCALAR"},{"bufferView":49,"componentType":5125,"count":3288,"type":"SCALAR"},{"bufferView":50,"componentType":5125,"count":36,"type":"SCALAR"}],"images":[{"uri":"../../airlines/JBU.png"},{"uri":"fallback-paint-v5.png"}],"textures":[{"source":0,"sampler":0},{"source":1,"sampler":0}],"samplers":[{"magFilter":9729,"minFilter":9987,"wrapS":33071,"wrapT":33071}]}