{"asset":{"version":"2.0","generator":"Skyward original illustrative pc12 profile; logos for operator identification"},"scene":0,"scenes":[{"nodes":[0,1,5]}],"nodes":[{"mesh":0},{"mesh":1,"name":"Gear","children":[2,3,4]},{"mesh":2,"name":"WheelN","translation":[0,-2.35,4.06]},{"mesh":3,"name":"WheelL","translation":[-0.6000000000000001,-2.35,-1.4000000000000001]},{"mesh":4,"name":"WheelR","translation":[0.6000000000000001,-2.35,-1.4000000000000001]},{"name":"SkywardProp0","mesh":5}],"meshes":[{"primitives":[{"attributes":{"POSITION":0,"NORMAL":1},"material":0},{"attributes":{"POSITION":2,"NORMAL":3},"material":1},{"attributes":{"POSITION":4,"NORMAL":5},"material":2},{"attributes":{"POSITION":6,"NORMAL":7},"material":3,"indices":23},{"attributes":{"POSITION":10,"NORMAL":11,"TEXCOORD_0":12},"material":5},{"attributes":{"POSITION":13,"NORMAL":14},"material":6},{"attributes":{"POSITION":15,"NORMAL":16},"material":7}]},{"primitives":[{"attributes":{"POSITION":8,"NORMAL":9},"material":4}]},{"primitives":[{"attributes":{"POSITION":17,"NORMAL":18},"material":4,"extras":{"wheel":0}}]},{"primitives":[{"attributes":{"POSITION":19,"NORMAL":20},"material":4,"extras":{"wheel":1}}]},{"primitives":[{"attributes":{"POSITION":21,"NORMAL":22},"material":4,"extras":{"wheel":2}}]},{"primitives":[{"attributes":{"POSITION":6,"NORMAL":7},"material":3,"indices":24}]}],"materials":[{"doubleSided":true,"pbrMetallicRoughness":{"baseColorFactor":[0.94,0.95,0.96,1],"metallicFactor":0.18,"roughnessFactor":0.3}},{"doubleSided":true,"pbrMetallicRoughness":{"baseColorFactor":[0.64,0.68,0.72,1],"metallicFactor":0.18,"roughnessFactor":0.3}},{"doubleSided":true,"pbrMetallicRoughness":{"baseColorFactor":[0.07058823529411765,0.3843137254901961,0.34901960784313724,1],"metallicFactor":0.18,"roughnessFactor":0.3}},{"doubleSided":true,"pbrMetallicRoughness":{"baseColorFactor":[0.02,0.055,0.085,1],"metallicFactor":0.18,"roughnessFactor":0.17}},{"doubleSided":true,"pbrMetallicRoughness":{"baseColorFactor":[0.07,0.08,0.09,1],"metallicFactor":0.18,"roughnessFactor":0.3}},{"doubleSided":true,"pbrMetallicRoughness":{"baseColorFactor":[1,1,1,1],"metallicFactor":0,"roughnessFactor":0.75,"baseColorTexture":{"index":0}},"alphaMode":"MASK","alphaCutoff":0.08},{"doubleSided":true,"pbrMetallicRoughness":{"baseColorFactor":[0.36,0.4,0.44,1],"metallicFactor":0.7,"roughnessFactor":0.3}},{"doubleSided":true,"pbrMetallicRoughness":{"baseColorFactor":[0.07058823529411765,0.3843137254901961,0.34901960784313724,1],"metallicFactor":0.18,"roughnessFactor":0.3}}],"buffers":[{"uri":"pc12-v4.bin?tail=2","byteLength":128352},{"uri":"pc12-rotor-indices.bin","byteLength":3744}],"bufferViews":[{"buffer":0,"byteOffset":0,"byteLength":34560,"target":34962},{"buffer":0,"byteOffset":34560,"byteLength":34560,"target":34962},{"buffer":0,"byteOffset":69120,"byteLength":2016,"target":34962},{"buffer":0,"byteOffset":71136,"byteLength":2016,"target":34962},{"buffer":0,"byteOffset":73152,"byteLength":432,"target":34962},{"buffer":0,"byteOffset":73584,"byteLength":432,"target":34962},{"buffer":0,"byteOffset":74016,"byteLength":11232,"target":34962},{"buffer":0,"byteOffset":85248,"byteLength":11232,"target":34962},{"buffer":0,"byteOffset":96480,"byteLength":1296,"target":34962},{"buffer":0,"byteOffset":97776,"byteLength":1296,"target":34962},{"buffer":0,"byteOffset":99072,"byteLength":288,"target":34962},{"buffer":0,"byteOffset":99360,"byteLength":288,"target":34962},{"buffer":0,"byteOffset":99648,"byteLength":192,"target":34962},{"buffer":0,"byteOffset":99840,"byteLength":288,"target":34962},{"buffer":0,"byteOffset":100128,"byteLength":288,"target":34962},{"buffer":0,"byteOffset":100416,"byteLength":144,"target":34962},{"buffer":0,"byteOffset":100560,"byteLength":144,"target":34962},{"buffer":0,"byteOffset":100704,"byteLength":4608,"target":34962},{"buffer":0,"byteOffset":105312,"byteLength":4608,"target":34962},{"buffer":0,"byteOffset":109920,"byteLength":4608,"target":34962},{"buffer":0,"byteOffset":114528,"byteLength":4608,"target":34962},{"buffer":0,"byteOffset":119136,"byteLength":4608,"target":34962},{"buffer":0,"byteOffset":123744,"byteLength":4608,"target":34962},{"buffer":1,"byteOffset":0,"byteLength":3600,"target":34963},{"buffer":1,"byteOffset":3600,"byteLength":144,"target":34963}],"accessors":[{"bufferView":0,"componentType":5126,"count":2880,"type":"VEC3","min":[-0.75,-0.75,-7.0],"max":[0.75,0.75,7.0]},{"bufferView":1,"componentType":5126,"count":2880,"type":"VEC3"},{"bufferView":2,"componentType":5126,"count":168,"type":"VEC3","min":[-8.0,0.36750000000000005,-6.859999999999999],"max":[8.0,2.0300000000000002,1.4000000000000001]},{"bufferView":3,"componentType":5126,"count":168,"type":"VEC3"},{"bufferView":4,"componentType":5126,"count":36,"type":"VEC3","min":[-0.1,0.30000000000000004,-6.93],"max":[0.1,2.78,-3.9200000000000004]},{"bufferView":5,"componentType":5126,"count":36,"type":"VEC3"},{"bufferView":6,"componentType":5126,"count":936,"type":"VEC3","min":[-0.7679769141809365,-1.23,-3.35],"max":[0.7679769141809365,1.23,7.28]},{"bufferView":7,"componentType":5126,"count":936,"type":"VEC3"},{"bufferView":8,"componentType":5126,"count":108,"type":"VEC3","min":[-0.7000000000000001,-2.35,-1.5000000000000002],"max":[0.7000000000000001,-0.75,4.159999999999999]},{"bufferView":9,"componentType":5126,"count":108,"type":"VEC3"},{"bufferView":10,"componentType":5126,"count":24,"type":"VEC3","min":[-0.79,-0.315,-6.272],"max":[0.79,2.3040000000000003,3.2975000000000003]},{"bufferView":11,"componentType":5126,"count":24,"type":"VEC3"},{"bufferView":12,"componentType":5126,"count":24,"type":"VEC2"},{"bufferView":13,"componentType":5126,"count":24,"type":"VEC3","min":[-0.775,-0.22499999999999998,-3.22],"max":[0.775,0.44999999999999996,3.97]},{"bufferView":14,"componentType":5126,"count":24,"type":"VEC3"},{"bufferView":15,"componentType":5126,"count":12,"type":"VEC3","min":[-0.6787918246659254,-0.44999999999999996,-2.66],"max":[0.6787918246659254,-0.3675,4.2]},{"bufferView":16,"componentType":5126,"count":12,"type":"VEC3"},{"bufferView":17,"componentType":5126,"count":384,"type":"VEC3","min":[-0.25,-0.4,-0.4],"max":[0.25,0.4,0.4]},{"bufferView":18,"componentType":5126,"count":384,"type":"VEC3"},{"bufferView":19,"componentType":5126,"count":384,"type":"VEC3","min":[-0.25,-0.4,-0.4],"max":[0.25,0.4,0.4]},{"bufferView":20,"componentType":5126,"count":384,"type":"VEC3"},{"bufferView":21,"componentType":5126,"count":384,"type":"VEC3","min":[-0.25,-0.4,-0.4],"max":[0.25,0.4,0.4]},{"bufferView":22,"componentType":5126,"count":384,"type":"VEC3"},{"bufferView":23,"componentType":5125,"count":900,"type":"SCALAR"},{"bufferView":24,"componentType":5125,"count":36,"type":"SCALAR"}],"images":[{"uri":"../../airlines/CPA.png"}],"textures":[{"source":0,"sampler":0}],"samplers":[{"magFilter":9729,"minFilter":9987,"wrapS":33071,"wrapT":33071}]}