{"asset":{"version":"2.0","generator":"Skyward detailed procedural pc12 fallback v6; approximate airframe; operator identification logos"},"scene":0,"scenes":[{"nodes":[0,1,5,6,7,8,9,10,11,12,13,14,15,16]}],"nodes":[{"mesh":0},{"mesh":1,"name":"Gear","children":[2,3,4]},{"mesh":2,"name":"WheelN","translation":[0,-2.35,4.06]},{"mesh":3,"name":"WheelL","translation":[-0.6000000000000001,-2.35,-1.4000000000000001]},{"mesh":4,"name":"WheelR","translation":[0.6000000000000001,-2.35,-1.4000000000000001]},{"mesh":5,"name":"SlatL"},{"mesh":6,"name":"FlapL"},{"mesh":7,"name":"SpoilerL"},{"mesh":8,"name":"ElevatorL"},{"mesh":9,"name":"SlatR"},{"mesh":10,"name":"FlapR"},{"mesh":11,"name":"SpoilerR"},{"mesh":12,"name":"ElevatorR"},{"mesh":13,"name":"Rudder"},{"mesh":14,"name":"FlexWingL"},{"mesh":15,"name":"FlexWingR"},{"name":"SkywardProp0","mesh":16}],"meshes":[{"name":"AirframeWithCockpitGlazing","primitives":[{"indices":3,"attributes":{"POSITION":0,"NORMAL":1,"TEXCOORD_0":2},"material":0},{"indices":6,"attributes":{"POSITION":4,"NORMAL":5},"material":1},{"indices":9,"attributes":{"POSITION":7,"NORMAL":8},"material":2},{"attributes":{"POSITION":10,"NORMAL":11},"material":3,"indices":89},{"indices":15,"attributes":{"POSITION":12,"NORMAL":13,"TEXCOORD_0":14},"material":5},{"indices":18,"attributes":{"POSITION":16,"NORMAL":17},"material":6},{"indices":21,"attributes":{"POSITION":19,"NORMAL":20},"material":7}]},{"primitives":[{"indices":46,"attributes":{"POSITION":43,"NORMAL":44,"TEXCOORD_0":45},"material":0,"extras":{"gear":true}},{"indices":49,"attributes":{"POSITION":47,"NORMAL":48},"material":1,"extras":{"gear":true}},{"indices":52,"attributes":{"POSITION":50,"NORMAL":51},"material":6,"extras":{"gear":true}}]},{"primitives":[{"indices":24,"attributes":{"POSITION":22,"NORMAL":23},"material":4,"extras":{"wheel":0}},{"indices":82,"attributes":{"POSITION":80,"NORMAL":81},"material":6,"extras":{"wheel":0}}]},{"primitives":[{"indices":27,"attributes":{"POSITION":25,"NORMAL":26},"material":4,"extras":{"wheel":1}},{"indices":85,"attributes":{"POSITION":83,"NORMAL":84},"material":6,"extras":{"wheel":1}}]},{"primitives":[{"indices":30,"attributes":{"POSITION":28,"NORMAL":29},"material":4,"extras":{"wheel":2}},{"indices":88,"attributes":{"POSITION":86,"NORMAL":87},"material":6,"extras":{"wheel":2}}]},{"primitives":[{"indices":55,"attributes":{"POSITION":53,"NORMAL":54},"material":1,"extras":{"surface":0}}]},{"primitives":[{"indices":58,"attributes":{"POSITION":56,"NORMAL":57},"material":1,"extras":{"surface":1}}]},{"primitives":[{"indices":61,"attributes":{"POSITION":59,"NORMAL":60},"material":1,"extras":{"surface":2}}]},{"primitives":[{"indices":64,"attributes":{"POSITION":62,"NORMAL":63},"material":1,"extras":{"surface":3}}]},{"primitives":[{"indices":67,"attributes":{"POSITION":65,"NORMAL":66},"material":1,"extras":{"surface":4}}]},{"primitives":[{"indices":70,"attributes":{"POSITION":68,"NORMAL":69},"material":1,"extras":{"surface":5}}]},{"primitives":[{"indices":73,"attributes":{"POSITION":71,"NORMAL":72},"material":1,"extras":{"surface":6}}]},{"primitives":[{"indices":76,"attributes":{"POSITION":74,"NORMAL":75},"material":1,"extras":{"surface":7}}]},{"primitives":[{"indices":79,"attributes":{"POSITION":77,"NORMAL":78},"material":2,"extras":{"surface":8}}]},{"primitives":[{"indices":33,"attributes":{"POSITION":31,"NORMAL":32},"material":1,"extras":{"wing":0}},{"indices":36,"attributes":{"POSITION":34,"NORMAL":35},"material":6,"extras":{"wing":0}}]},{"primitives":[{"indices":39,"attributes":{"POSITION":37,"NORMAL":38},"material":1,"extras":{"wing":1}},{"indices":42,"attributes":{"POSITION":40,"NORMAL":41},"material":6,"extras":{"wing":1}}]},{"primitives":[{"attributes":{"POSITION":10,"NORMAL":11},"material":3,"indices":90}]}],"materials":[{"doubleSided":true,"pbrMetallicRoughness":{"baseColorFactor":[0.94,0.95,0.96,1],"metallicFactor":0.04,"roughnessFactor":0.27,"baseColorTexture":{"index":1}}},{"doubleSided":true,"pbrMetallicRoughness":{"baseColorFactor":[0.64,0.68,0.72,1],"metallicFactor":0.04,"roughnessFactor":0.4}},{"doubleSided":true,"pbrMetallicRoughness":{"baseColorFactor":[0.9450980392156862,0.4196078431372549,0.13333333333333333,1],"metallicFactor":0.04,"roughnessFactor":0.27}},{"doubleSided":true,"pbrMetallicRoughness":{"baseColorFactor":[0.02,0.055,0.085,1],"metallicFactor":0,"roughnessFactor":0.12}},{"doubleSided":true,"pbrMetallicRoughness":{"baseColorFactor":[0.07,0.08,0.09,1],"metallicFactor":0,"roughnessFactor":0.86}},{"doubleSided":true,"pbrMetallicRoughness":{"baseColorFactor":[1,1,1,1],"metallicFactor":0,"roughnessFactor":0.75,"baseColorTexture":{"index":0}},"alphaMode":"MASK","alphaCutoff":0.08},{"doubleSided":true,"pbrMetallicRoughness":{"baseColorFactor":[0.36,0.4,0.44,1],"metallicFactor":0.8,"roughnessFactor":0.28}},{"doubleSided":true,"pbrMetallicRoughness":{"baseColorFactor":[0.9450980392156862,0.4196078431372549,0.13333333333333333,1],"metallicFactor":0.04,"roughnessFactor":0.27}}],"buffers":[{"uri":"pc12-v4.bin?tail=2&rig=1&detail=6","byteLength":428416},{"uri":"pc12-rotor-indices.bin?detail=6","byteLength":13296}],"bufferViews":[{"buffer":0,"byteOffset":0,"byteLength":31980,"target":34962},{"buffer":0,"byteOffset":31980,"byteLength":31980,"target":34962},{"buffer":0,"byteOffset":63960,"byteLength":21320,"target":34962},{"buffer":0,"byteOffset":85280,"byteLength":61440,"target":34963},{"buffer":0,"byteOffset":146720,"byteLength":672,"target":34962},{"buffer":0,"byteOffset":147392,"byteLength":672,"target":34962},{"buffer":0,"byteOffset":148064,"byteLength":288,"target":34963},{"buffer":0,"byteOffset":148352,"byteLength":288,"target":34962},{"buffer":0,"byteOffset":148640,"byteLength":288,"target":34962},{"buffer":0,"byteOffset":148928,"byteLength":144,"target":34963},{"buffer":0,"byteOffset":149072,"byteLength":39888,"target":34962},{"buffer":0,"byteOffset":188960,"byteLength":39888,"target":34962},{"buffer":0,"byteOffset":228848,"byteLength":192,"target":34962},{"buffer":0,"byteOffset":229040,"byteLength":192,"target":34962},{"buffer":0,"byteOffset":229232,"byteLength":128,"target":34962},{"buffer":0,"byteOffset":229360,"byteLength":96,"target":34963},{"buffer":0,"byteOffset":229456,"byteLength":17280,"target":34962},{"buffer":0,"byteOffset":246736,"byteLength":17280,"target":34962},{"buffer":0,"byteOffset":264016,"byteLength":7680,"target":34963},{"buffer":0,"byteOffset":271696,"byteLength":96,"target":34962},{"buffer":0,"byteOffset":271792,"byteLength":96,"target":34962},{"buffer":0,"byteOffset":271888,"byteLength":48,"target":34963},{"buffer":0,"byteOffset":271936,"byteLength":10752,"target":34962},{"buffer":0,"byteOffset":282688,"byteLength":10752,"target":34962},{"buffer":0,"byteOffset":293440,"byteLength":5376,"target":34963},{"buffer":0,"byteOffset":298816,"byteLength":10752,"target":34962},{"buffer":0,"byteOffset":309568,"byteLength":10752,"target":34962},{"buffer":0,"byteOffset":320320,"byteLength":5376,"target":34963},{"buffer":0,"byteOffset":325696,"byteLength":10752,"target":34962},{"buffer":0,"byteOffset":336448,"byteLength":10752,"target":34962},{"buffer":0,"byteOffset":347200,"byteLength":5376,"target":34963},{"buffer":0,"byteOffset":352576,"byteLength":6720,"target":34962},{"buffer":0,"byteOffset":359296,"byteLength":6720,"target":34962},{"buffer":0,"byteOffset":366016,"byteLength":2976,"target":34963},{"buffer":0,"byteOffset":368992,"byteLength":288,"target":34962},{"buffer":0,"byteOffset":369280,"byteLength":288,"target":34962},{"buffer":0,"byteOffset":369568,"byteLength":192,"target":34963},{"buffer":0,"byteOffset":369760,"byteLength":6720,"target":34962},{"buffer":0,"byteOffset":376480,"byteLength":6720,"target":34962},{"buffer":0,"byteOffset":383200,"byteLength":2976,"target":34963},{"buffer":0,"byteOffset":386176,"byteLength":288,"target":34962},{"buffer":0,"byteOffset":386464,"byteLength":288,"target":34962},{"buffer":0,"byteOffset":386752,"byteLength":192,"target":34963},{"buffer":0,"byteOffset":386944,"byteLength":864,"target":34962},{"buffer":0,"byteOffset":387808,"byteLength":864,"target":34962},{"buffer":0,"byteOffset":388672,"byteLength":576,"target":34962},{"buffer":0,"byteOffset":389248,"byteLength":432,"target":34963},{"buffer":0,"byteOffset":389680,"byteLength":2304,"target":34962},{"buffer":0,"byteOffset":391984,"byteLength":2304,"target":34962},{"buffer":0,"byteOffset":394288,"byteLength":1152,"target":34963},{"buffer":0,"byteOffset":395440,"byteLength":6912,"target":34962},{"buffer":0,"byteOffset":402352,"byteLength":6912,"target":34962},{"buffer":0,"byteOffset":409264,"byteLength":3456,"target":34963},{"buffer":0,"byteOffset":412720,"byteLength":432,"target":34962},{"buffer":0,"byteOffset":413152,"byteLength":432,"target":34962},{"buffer":0,"byteOffset":413584,"byteLength":144,"target":34963},{"buffer":0,"byteOffset":413728,"byteLength":864,"target":34962},{"buffer":0,"byteOffset":414592,"byteLength":864,"target":34962},{"buffer":0,"byteOffset":415456,"byteLength":288,"target":34963},{"buffer":0,"byteOffset":415744,"byteLength":144,"target":34962},{"buffer":0,"byteOffset":415888,"byteLength":144,"target":34962},{"buffer":0,"byteOffset":416032,"byteLength":48,"target":34963},{"buffer":0,"byteOffset":416080,"byteLength":288,"target":34962},{"buffer":0,"byteOffset":416368,"byteLength":288,"target":34962},{"buffer":0,"byteOffset":416656,"byteLength":144,"target":34963},{"buffer":0,"byteOffset":416800,"byteLength":432,"target":34962},{"buffer":0,"byteOffset":417232,"byteLength":432,"target":34962},{"buffer":0,"byteOffset":417664,"byteLength":144,"target":34963},{"buffer":0,"byteOffset":417808,"byteLength":864,"target":34962},{"buffer":0,"byteOffset":418672,"byteLength":864,"target":34962},{"buffer":0,"byteOffset":419536,"byteLength":288,"target":34963},{"buffer":0,"byteOffset":419824,"byteLength":144,"target":34962},{"buffer":0,"byteOffset":419968,"byteLength":144,"target":34962},{"buffer":0,"byteOffset":420112,"byteLength":48,"target":34963},{"buffer":0,"byteOffset":420160,"byteLength":288,"target":34962},{"buffer":0,"byteOffset":420448,"byteLength":288,"target":34962},{"buffer":0,"byteOffset":420736,"byteLength":144,"target":34963},{"buffer":0,"byteOffset":420880,"byteLength":168,"target":34962},{"buffer":0,"byteOffset":421048,"byteLength":168,"target":34962},{"buffer":0,"byteOffset":421216,"byteLength":144,"target":34963},{"buffer":0,"byteOffset":421360,"byteLength":792,"target":34962},{"buffer":0,"byteOffset":422152,"byteLength":792,"target":34962},{"buffer":0,"byteOffset":422944,"byteLength":768,"target":34963},{"buffer":0,"byteOffset":423712,"byteLength":792,"target":34962},{"buffer":0,"byteOffset":424504,"byteLength":792,"target":34962},{"buffer":0,"byteOffset":425296,"byteLength":768,"target":34963},{"buffer":0,"byteOffset":426064,"byteLength":792,"target":34962},{"buffer":0,"byteOffset":426856,"byteLength":792,"target":34962},{"buffer":0,"byteOffset":427648,"byteLength":768,"target":34963},{"buffer":1,"byteOffset":0,"byteLength":13152,"target":34963},{"buffer":1,"byteOffset":13152,"byteLength":144,"target":34963}],"accessors":[{"bufferView":0,"componentType":5126,"count":2665,"type":"VEC3","min":[-0.75,-0.75,-7.0],"max":[0.75,0.75,7.0]},{"bufferView":1,"componentType":5126,"count":2665,"type":"VEC3"},{"bufferView":2,"componentType":5126,"count":2665,"type":"VEC2"},{"bufferView":3,"componentType":5125,"count":15360,"type":"SCALAR"},{"bufferView":4,"componentType":5126,"count":56,"type":"VEC3","min":[-2.88,1.27,-6.510000000000001],"max":[2.88,2.0300000000000002,-4.48]},{"bufferView":5,"componentType":5126,"count":56,"type":"VEC3"},{"bufferView":6,"componentType":5125,"count":72,"type":"SCALAR"},{"bufferView":7,"componentType":5126,"count":24,"type":"VEC3","min":[-0.1,0.30000000000000004,-6.510000000000001],"max":[0.1,2.85,-3.9200000000000004]},{"bufferView":8,"componentType":5126,"count":24,"type":"VEC3"},{"bufferView":9,"componentType":5125,"count":36,"type":"SCALAR"},{"bufferView":10,"componentType":5126,"count":3324,"type":"VEC3","min":[-0.7679769141809365,-1.23,-3.35],"max":[0.7679769141809365,1.23,7.28]},{"bufferView":11,"componentType":5126,"count":3324,"type":"VEC3"},{"bufferView":12,"componentType":5126,"count":16,"type":"VEC3","min":[-0.79,-0.315,-6.272],"max":[0.79,2.3040000000000003,3.2975000000000003]},{"bufferView":13,"componentType":5126,"count":16,"type":"VEC3"},{"bufferView":14,"componentType":5126,"count":16,"type":"VEC2"},{"bufferView":15,"componentType":5125,"count":24,"type":"SCALAR"},{"bufferView":16,"componentType":5126,"count":1440,"type":"VEC3","min":[-0.7776273425833755,-0.4650000000000001,-3.4450000000000003],"max":[0.7776273425833755,0.774624201504262,5.46]},{"bufferView":17,"componentType":5126,"count":1440,"type":"VEC3"},{"bufferView":18,"componentType":5125,"count":1920,"type":"SCALAR"},{"bufferView":19,"componentType":5126,"count":8,"type":"VEC3","min":[-0.6787918246659254,-0.44999999999999996,-2.66],"max":[0.6787918246659254,-0.3675,4.2]},{"bufferView":20,"componentType":5126,"count":8,"type":"VEC3"},{"bufferView":21,"componentType":5125,"count":12,"type":"SCALAR"},{"bufferView":22,"componentType":5126,"count":896,"type":"VEC3","min":[-0.16,-0.28,-0.28],"max":[0.16,0.28,0.28]},{"bufferView":23,"componentType":5126,"count":896,"type":"VEC3"},{"bufferView":24,"componentType":5125,"count":1344,"type":"SCALAR"},{"bufferView":25,"componentType":5126,"count":896,"type":"VEC3","min":[-0.16,-0.25,-0.25],"max":[0.16,0.25,0.25]},{"bufferView":26,"componentType":5126,"count":896,"type":"VEC3"},{"bufferView":27,"componentType":5125,"count":1344,"type":"SCALAR"},{"bufferView":28,"componentType":5126,"count":896,"type":"VEC3","min":[-0.16,-0.25,-0.25],"max":[0.16,0.25,0.25]},{"bufferView":29,"componentType":5126,"count":896,"type":"VEC3"},{"bufferView":30,"componentType":5125,"count":1344,"type":"SCALAR"},{"bufferView":31,"componentType":5126,"count":560,"type":"VEC3","min":[-8.0,0.30303260449327724,-2.38],"max":[-0.5625,0.9380893574864758,1.4000000000000001]},{"bufferView":32,"componentType":5126,"count":560,"type":"VEC3"},{"bufferView":33,"componentType":5125,"count":744,"type":"SCALAR"},{"bufferView":34,"componentType":5126,"count":24,"type":"VEC3","min":[-8.0,0.6126346076788307,-1.7109399999999997],"max":[-0.5625,0.9322491057382492,-1.1704]},{"bufferView":35,"componentType":5126,"count":24,"type":"VEC3"},{"bufferView":36,"componentType":5125,"count":48,"type":"SCALAR"},{"bufferView":37,"componentType":5126,"count":560,"type":"VEC3","min":[0.5625,0.30303260449327724,-2.38],"max":[8.0,0.9380893574864758,1.4000000000000001]},{"bufferView":38,"componentType":5126,"count":560,"type":"VEC3"},{"bufferView":39,"componentType":5125,"count":744,"type":"SCALAR"},{"bufferView":40,"componentType":5126,"count":24,"type":"VEC3","min":[0.5625,0.6126346076788307,-1.7109399999999997],"max":[8.0,0.9322491057382492,-1.1704]},{"bufferView":41,"componentType":5126,"count":24,"type":"VEC3"},{"bufferView":42,"componentType":5125,"count":48,"type":"SCALAR"},{"bufferView":43,"componentType":5126,"count":72,"type":"VEC3","min":[-1.2200000000000002,-1.775,-2.0500000000000003],"max":[0.1200000000000001,-0.5375,4.71]},{"bufferView":44,"componentType":5126,"count":72,"type":"VEC3"},{"bufferView":45,"componentType":5126,"count":72,"type":"VEC2"},{"bufferView":46,"componentType":5125,"count":108,"type":"SCALAR"},{"bufferView":47,"componentType":5126,"count":192,"type":"VEC3","min":[-0.7200000000000001,-1.95,-1.52],"max":[0.7200000000000001,-1.35,4.18]},{"bufferView":48,"componentType":5126,"count":192,"type":"VEC3"},{"bufferView":49,"componentType":5125,"count":288,"type":"SCALAR"},{"bufferView":50,"componentType":5126,"count":576,"type":"VEC3","min":[-1.02,-2.44,-1.4900000000000002],"max":[1.02,-0.5249999999999999,4.512610991480864]},{"bufferView":51,"componentType":5126,"count":576,"type":"VEC3"},{"bufferView":52,"componentType":5125,"count":864,"type":"SCALAR"},{"bufferView":53,"componentType":5126,"count":36,"type":"VEC3","min":[-7.2,0.3748921286453484,-0.4786127599663092],"max":[-0.5625,0.7767300584751857,1.4000000000000001]},{"bufferView":54,"componentType":5126,"count":36,"type":"VEC3"},{"bufferView":55,"componentType":5125,"count":36,"type":"SCALAR"},{"bufferView":56,"componentType":5126,"count":72,"type":"VEC3","min":[-7.2,0.4391982572026568,-2.38],"max":[-0.5625,0.770208206199931,-1.7344722215136414]},{"bufferView":57,"componentType":5126,"count":72,"type":"VEC3"},{"bufferView":58,"componentType":5125,"count":72,"type":"SCALAR"},{"bufferView":59,"componentType":5126,"count":12,"type":"VEC3","min":[-7.2,0.645545550319282,-1.5749999999999997],"max":[-0.5625,0.8083235297910454,-0.9791679952437644]},{"bufferView":60,"componentType":5126,"count":12,"type":"VEC3"},{"bufferView":61,"componentType":5125,"count":12,"type":"SCALAR"},{"bufferView":62,"componentType":5126,"count":24,"type":"VEC3","min":[-2.88,1.29,-6.859999999999999],"max":[-0.30000000000000004,2.0100000000000002,-5.81]},{"bufferView":63,"componentType":5126,"count":24,"type":"VEC3"},{"bufferView":64,"componentType":5125,"count":36,"type":"SCALAR"},{"bufferView":65,"componentType":5126,"count":36,"type":"VEC3","min":[0.5625,0.3748921286453484,-0.4786127599663092],"max":[7.2,0.7767300584751857,1.4000000000000001]},{"bufferView":66,"componentType":5126,"count":36,"type":"VEC3"},{"bufferView":67,"componentType":5125,"count":36,"type":"SCALAR"},{"bufferView":68,"componentType":5126,"count":72,"type":"VEC3","min":[0.5625,0.4391982572026568,-2.38],"max":[7.2,0.770208206199931,-1.7344722215136414]},{"bufferView":69,"componentType":5126,"count":72,"type":"VEC3"},{"bufferView":70,"componentType":5125,"count":72,"type":"SCALAR"},{"bufferView":71,"componentType":5126,"count":12,"type":"VEC3","min":[0.5625,0.645545550319282,-1.5749999999999997],"max":[7.2,0.8083235297910454,-0.9791679952437644]},{"bufferView":72,"componentType":5126,"count":12,"type":"VEC3"},{"bufferView":73,"componentType":5125,"count":12,"type":"SCALAR"},{"bufferView":74,"componentType":5126,"count":24,"type":"VEC3","min":[0.30000000000000004,1.29,-6.859999999999999],"max":[2.88,2.0100000000000002,-5.81]},{"bufferView":75,"componentType":5126,"count":24,"type":"VEC3"},{"bufferView":76,"componentType":5125,"count":36,"type":"SCALAR"},{"bufferView":77,"componentType":5126,"count":14,"type":"VEC3","min":[0,0.22000000000000003,-6.93],"max":[0,2.93,-6.272]},{"bufferView":78,"componentType":5126,"count":14,"type":"VEC3"},{"bufferView":79,"componentType":5125,"count":36,"type":"SCALAR"},{"bufferView":80,"componentType":5126,"count":66,"type":"VEC3","min":[-0.161,-0.15400000000000003,-0.15400000000000003],"max":[0.161,0.15400000000000003,0.15400000000000003]},{"bufferView":81,"componentType":5126,"count":66,"type":"VEC3"},{"bufferView":82,"componentType":5125,"count":192,"type":"SCALAR"},{"bufferView":83,"componentType":5126,"count":66,"type":"VEC3","min":[-0.161,-0.1375,-0.1375],"max":[0.161,0.1375,0.1375]},{"bufferView":84,"componentType":5126,"count":66,"type":"VEC3"},{"bufferView":85,"componentType":5125,"count":192,"type":"SCALAR"},{"bufferView":86,"componentType":5126,"count":66,"type":"VEC3","min":[-0.161,-0.1375,-0.1375],"max":[0.161,0.1375,0.1375]},{"bufferView":87,"componentType":5126,"count":66,"type":"VEC3"},{"bufferView":88,"componentType":5125,"count":192,"type":"SCALAR"},{"bufferView":89,"componentType":5125,"count":3288,"type":"SCALAR"},{"bufferView":90,"componentType":5125,"count":36,"type":"SCALAR"}],"images":[{"uri":"../../airlines/EZY.png"},{"uri":"fallback-paint-v5.png"}],"textures":[{"source":0,"sampler":0},{"source":1,"sampler":0}],"samplers":[{"magFilter":9729,"minFilter":9987,"wrapS":33071,"wrapT":33071}]}