{"asset":{"version":"2.0","generator":"Skyward detailed procedural regional fallback v5; approximate airframe; operator identification logos"},"scene":0,"scenes":[{"nodes":[0,1,5,6,7,8]}],"nodes":[{"mesh":0},{"mesh":1,"name":"Gear","children":[2,3,4]},{"mesh":2,"name":"WheelN","translation":[0,-3.1,9.28]},{"mesh":3,"name":"WheelL","translation":[-1.2000000000000002,-3.1,-3.2]},{"mesh":4,"name":"WheelR","translation":[1.2000000000000002,-3.1,-3.2]},{"mesh":5,"name":"FlexWingL"},{"mesh":6,"name":"FlexWingR"},{"mesh":7,"name":"SkywardFan0"},{"mesh":8,"name":"SkywardFan1"}],"meshes":[{"name":"AirframeWithCockpitGlazing","primitives":[{"indices":3,"attributes":{"POSITION":0,"NORMAL":1,"TEXCOORD_0":2},"material":0},{"indices":6,"attributes":{"POSITION":4,"NORMAL":5},"material":1},{"indices":9,"attributes":{"POSITION":7,"NORMAL":8},"material":2},{"attributes":{"POSITION":10,"NORMAL":11},"material":3},{"indices":15,"attributes":{"POSITION":12,"NORMAL":13,"TEXCOORD_0":14},"material":5},{"indices":18,"attributes":{"POSITION":16,"NORMAL":17},"material":6},{"indices":21,"attributes":{"POSITION":19,"NORMAL":20},"material":7}]},{"primitives":[{"indices":57,"attributes":{"POSITION":55,"NORMAL":56},"material":1,"extras":{"gear":true}},{"indices":60,"attributes":{"POSITION":58,"NORMAL":59},"material":6,"extras":{"gear":true}}]},{"primitives":[{"indices":24,"attributes":{"POSITION":22,"NORMAL":23},"material":4,"extras":{"wheel":0}}]},{"primitives":[{"indices":27,"attributes":{"POSITION":25,"NORMAL":26},"material":4,"extras":{"wheel":1}}]},{"primitives":[{"indices":30,"attributes":{"POSITION":28,"NORMAL":29},"material":4,"extras":{"wheel":2}}]},{"primitives":[{"indices":33,"attributes":{"POSITION":31,"NORMAL":32},"material":1,"extras":{"wing":0}},{"indices":36,"attributes":{"POSITION":34,"NORMAL":35},"material":2,"extras":{"wing":0}},{"indices":39,"attributes":{"POSITION":37,"NORMAL":38},"material":6,"extras":{"wing":0}}]},{"primitives":[{"indices":42,"attributes":{"POSITION":40,"NORMAL":41},"material":1,"extras":{"wing":1}},{"indices":45,"attributes":{"POSITION":43,"NORMAL":44},"material":2,"extras":{"wing":1}},{"indices":48,"attributes":{"POSITION":46,"NORMAL":47},"material":6,"extras":{"wing":1}}]},{"primitives":[{"indices":51,"attributes":{"POSITION":49,"NORMAL":50},"material":6,"extras":{"fan":0}}]},{"primitives":[{"indices":54,"attributes":{"POSITION":52,"NORMAL":53},"material":6,"extras":{"fan":1}}]}],"materials":[{"doubleSided":true,"pbrMetallicRoughness":{"baseColorFactor":[0.94,0.95,0.96,1],"metallicFactor":0.04,"roughnessFactor":0.27,"baseColorTexture":{"index":1}}},{"doubleSided":true,"pbrMetallicRoughness":{"baseColorFactor":[0.64,0.68,0.72,1],"metallicFactor":0.04,"roughnessFactor":0.4}},{"doubleSided":true,"pbrMetallicRoughness":{"baseColorFactor":[0.07058823529411765,0.3843137254901961,0.34901960784313724,1],"metallicFactor":0.04,"roughnessFactor":0.27}},{"doubleSided":true,"pbrMetallicRoughness":{"baseColorFactor":[0.02,0.055,0.085,1],"metallicFactor":0,"roughnessFactor":0.12}},{"doubleSided":true,"pbrMetallicRoughness":{"baseColorFactor":[0.07,0.08,0.09,1],"metallicFactor":0,"roughnessFactor":0.86}},{"doubleSided":true,"pbrMetallicRoughness":{"baseColorFactor":[1,1,1,1],"metallicFactor":0,"roughnessFactor":0.75,"baseColorTexture":{"index":0}},"alphaMode":"MASK","alphaCutoff":0.08},{"doubleSided":true,"pbrMetallicRoughness":{"baseColorFactor":[0.36,0.4,0.44,1],"metallicFactor":0.8,"roughnessFactor":0.28}},{"doubleSided":true,"pbrMetallicRoughness":{"baseColorFactor":[0.07058823529411765,0.3843137254901961,0.34901960784313724,1],"metallicFactor":0.04,"roughnessFactor":0.27}}],"buffers":[{"uri":"regional-v4.bin?tail=2&rig=1&detail=5","byteLength":1185520}],"bufferViews":[{"buffer":0,"byteOffset":0,"byteLength":31980,"target":34962},{"buffer":0,"byteOffset":31980,"byteLength":31980,"target":34962},{"buffer":0,"byteOffset":63960,"byteLength":21320,"target":34962},{"buffer":0,"byteOffset":85280,"byteLength":61440,"target":34963},{"buffer":0,"byteOffset":146720,"byteLength":1080,"target":34962},{"buffer":0,"byteOffset":147800,"byteLength":1080,"target":34962},{"buffer":0,"byteOffset":148880,"byteLength":576,"target":34963},{"buffer":0,"byteOffset":149456,"byteLength":288,"target":34962},{"buffer":0,"byteOffset":149744,"byteLength":288,"target":34962},{"buffer":0,"byteOffset":150032,"byteLength":144,"target":34963},{"buffer":0,"byteOffset":150176,"byteLength":181152,"target":34962},{"buffer":0,"byteOffset":331328,"byteLength":181152,"target":34962},{"buffer":0,"byteOffset":512480,"byteLength":192,"target":34962},{"buffer":0,"byteOffset":512672,"byteLength":192,"target":34962},{"buffer":0,"byteOffset":512864,"byteLength":128,"target":34962},{"buffer":0,"byteOffset":512992,"byteLength":96,"target":34963},{"buffer":0,"byteOffset":513088,"byteLength":36816,"target":34962},{"buffer":0,"byteOffset":549904,"byteLength":36816,"target":34962},{"buffer":0,"byteOffset":586720,"byteLength":34560,"target":34963},{"buffer":0,"byteOffset":621280,"byteLength":20376,"target":34962},{"buffer":0,"byteOffset":641656,"byteLength":20376,"target":34962},{"buffer":0,"byteOffset":662032,"byteLength":36912,"target":34963},{"buffer":0,"byteOffset":698944,"byteLength":14424,"target":34962},{"buffer":0,"byteOffset":713368,"byteLength":14424,"target":34962},{"buffer":0,"byteOffset":727792,"byteLength":7680,"target":34963},{"buffer":0,"byteOffset":735472,"byteLength":14424,"target":34962},{"buffer":0,"byteOffset":749896,"byteLength":14424,"target":34962},{"buffer":0,"byteOffset":764320,"byteLength":7680,"target":34963},{"buffer":0,"byteOffset":772000,"byteLength":14424,"target":34962},{"buffer":0,"byteOffset":786424,"byteLength":14424,"target":34962},{"buffer":0,"byteOffset":800848,"byteLength":7680,"target":34963},{"buffer":0,"byteOffset":808528,"byteLength":42036,"target":34962},{"buffer":0,"byteOffset":850564,"byteLength":42036,"target":34962},{"buffer":0,"byteOffset":892600,"byteLength":59904,"target":34963},{"buffer":0,"byteOffset":952504,"byteLength":336,"target":34962},{"buffer":0,"byteOffset":952840,"byteLength":336,"target":34962},{"buffer":0,"byteOffset":953176,"byteLength":144,"target":34963},{"buffer":0,"byteOffset":953320,"byteLength":432,"target":34962},{"buffer":0,"byteOffset":953752,"byteLength":432,"target":34962},{"buffer":0,"byteOffset":954184,"byteLength":288,"target":34963},{"buffer":0,"byteOffset":954472,"byteLength":42036,"target":34962},{"buffer":0,"byteOffset":996508,"byteLength":42036,"target":34962},{"buffer":0,"byteOffset":1038544,"byteLength":59904,"target":34963},{"buffer":0,"byteOffset":1098448,"byteLength":336,"target":34962},{"buffer":0,"byteOffset":1098784,"byteLength":336,"target":34962},{"buffer":0,"byteOffset":1099120,"byteLength":144,"target":34963},{"buffer":0,"byteOffset":1099264,"byteLength":432,"target":34962},{"buffer":0,"byteOffset":1099696,"byteLength":432,"target":34962},{"buffer":0,"byteOffset":1100128,"byteLength":288,"target":34963},{"buffer":0,"byteOffset":1100416,"byteLength":9036,"target":34962},{"buffer":0,"byteOffset":1109452,"byteLength":9036,"target":34962},{"buffer":0,"byteOffset":1118488,"byteLength":12960,"target":34963},{"buffer":0,"byteOffset":1131448,"byteLength":9036,"target":34962},{"buffer":0,"byteOffset":1140484,"byteLength":9036,"target":34962},{"buffer":0,"byteOffset":1149520,"byteLength":12960,"target":34963},{"buffer":0,"byteOffset":1162480,"byteLength":2304,"target":34962},{"buffer":0,"byteOffset":1164784,"byteLength":2304,"target":34962},{"buffer":0,"byteOffset":1167088,"byteLength":1152,"target":34963},{"buffer":0,"byteOffset":1168240,"byteLength":6912,"target":34962},{"buffer":0,"byteOffset":1175152,"byteLength":6912,"target":34962},{"buffer":0,"byteOffset":1182064,"byteLength":3456,"target":34963}],"accessors":[{"bufferView":0,"componentType":5126,"count":2665,"type":"VEC3","min":[-1.5,-1.5,-16.0],"max":[1.5,1.5,16.0]},{"bufferView":1,"componentType":5126,"count":2665,"type":"VEC3"},{"bufferView":2,"componentType":5126,"count":2665,"type":"VEC2"},{"bufferView":3,"componentType":5125,"count":15360,"type":"SCALAR"},{"bufferView":4,"componentType":5126,"count":90,"type":"VEC3","min":[-5.27,-1.8649999999999998,-15.68],"max":[4.99,1.2800000000000002,1.44]},{"bufferView":5,"componentType":5126,"count":90,"type":"VEC3"},{"bufferView":6,"componentType":5125,"count":144,"type":"SCALAR"},{"bufferView":7,"componentType":5126,"count":24,"type":"VEC3","min":[-0.1,0.6000000000000001,-15.84],"max":[0.1,6.14,-8.96]},{"bufferView":8,"componentType":5126,"count":24,"type":"VEC3"},{"bufferView":9,"componentType":5125,"count":36,"type":"SCALAR"},{"bufferView":10,"componentType":5126,"count":15096,"type":"VEC3","min":[-5.7780000000000005,-2.373,-7.49],"max":[5.7780000000000005,1.2511114725354051,14.176]},{"bufferView":11,"componentType":5126,"count":15096,"type":"VEC3"},{"bufferView":12,"componentType":5126,"count":16,"type":"VEC3","min":[-1.54,-0.63,-14.336],"max":[1.54,5.052,7.355]},{"bufferView":13,"componentType":5126,"count":16,"type":"VEC3"},{"bufferView":14,"componentType":5126,"count":16,"type":"VEC2"},{"bufferView":15,"componentType":5125,"count":24,"type":"SCALAR"},{"bufferView":16,"componentType":5126,"count":3068,"type":"VEC3","min":[-5.8914,-2.4863999999999997,-7.795],"max":[5.8914,1.2597717265732495,14.176]},{"bufferView":17,"componentType":5126,"count":3068,"type":"VEC3"},{"bufferView":18,"componentType":5125,"count":8640,"type":"SCALAR"},{"bufferView":19,"componentType":5126,"count":1698,"type":"VEC3","min":[-5.9399999999999995,-2.535,-6.08],"max":[5.9399999999999995,-0.735,9.6]},{"bufferView":20,"componentType":5126,"count":1698,"type":"VEC3"},{"bufferView":21,"componentType":5125,"count":9228,"type":"SCALAR"},{"bufferView":22,"componentType":5126,"count":1202,"type":"VEC3","min":[-0.25,-0.4,-0.4],"max":[0.25,0.4,0.4]},{"bufferView":23,"componentType":5126,"count":1202,"type":"VEC3"},{"bufferView":24,"componentType":5125,"count":1920,"type":"SCALAR"},{"bufferView":25,"componentType":5126,"count":1202,"type":"VEC3","min":[-0.25,-0.4,-0.4],"max":[0.25,0.4,0.4]},{"bufferView":26,"componentType":5126,"count":1202,"type":"VEC3"},{"bufferView":27,"componentType":5125,"count":1920,"type":"SCALAR"},{"bufferView":28,"componentType":5126,"count":1202,"type":"VEC3","min":[-0.25,-0.4,-0.4],"max":[0.25,0.4,0.4]},{"bufferView":29,"componentType":5126,"count":1202,"type":"VEC3"},{"bufferView":30,"componentType":5125,"count":1920,"type":"SCALAR"},{"bufferView":31,"componentType":5126,"count":3503,"type":"VEC3","min":[-13.5,-1.0332879243637327,-9.03791304347826],"max":[-1.125,0.963338064954082,3.2]},{"bufferView":32,"componentType":5126,"count":3503,"type":"VEC3"},{"bufferView":33,"componentType":5125,"count":14976,"type":"SCALAR"},{"bufferView":34,"componentType":5126,"count":28,"type":"VEC3","min":[-13.5,0.96,-8.64],"max":[-12.959999999999999,3.24,-6.08]},{"bufferView":35,"componentType":5126,"count":28,"type":"VEC3"},{"bufferView":36,"componentType":5125,"count":36,"type":"SCALAR"},{"bufferView":37,"componentType":5126,"count":36,"type":"VEC3","min":[-13.5,-0.4241796873488285,-8.055200000000001],"max":[-1.125,0.9555598425420712,-2.6752000000000002]},{"bufferView":38,"componentType":5126,"count":36,"type":"VEC3"},{"bufferView":39,"componentType":5125,"count":72,"type":"SCALAR"},{"bufferView":40,"componentType":5126,"count":3503,"type":"VEC3","min":[1.125,-1.0332879243637327,-9.03791304347826],"max":[13.5,0.963338064954082,3.2]},{"bufferView":41,"componentType":5126,"count":3503,"type":"VEC3"},{"bufferView":42,"componentType":5125,"count":14976,"type":"SCALAR"},{"bufferView":43,"componentType":5126,"count":28,"type":"VEC3","min":[12.959999999999999,0.96,-8.64],"max":[13.5,3.24,-6.08]},{"bufferView":44,"componentType":5126,"count":28,"type":"VEC3"},{"bufferView":45,"componentType":5125,"count":36,"type":"SCALAR"},{"bufferView":46,"componentType":5126,"count":36,"type":"VEC3","min":[1.125,-0.4241796873488285,-8.055200000000001],"max":[13.5,0.9555598425420712,-2.6752000000000002]},{"bufferView":47,"componentType":5126,"count":36,"type":"VEC3"},{"bufferView":48,"componentType":5125,"count":72,"type":"SCALAR"},{"bufferView":49,"componentType":5126,"count":753,"type":"VEC3","min":[-5.753693964033693,-2.348693964033693,0.9754],"max":[-4.506306035966307,-1.1013060359663067,1.76]},{"bufferView":50,"componentType":5126,"count":753,"type":"VEC3"},{"bufferView":51,"componentType":5125,"count":3240,"type":"SCALAR"},{"bufferView":52,"componentType":5126,"count":753,"type":"VEC3","min":[4.506306035966307,-2.348693964033693,0.9754],"max":[5.753693964033693,-1.1013060359663067,1.76]},{"bufferView":53,"componentType":5126,"count":753,"type":"VEC3"},{"bufferView":54,"componentType":5125,"count":3240,"type":"SCALAR"},{"bufferView":55,"componentType":5126,"count":192,"type":"VEC3","min":[-1.3200000000000003,-2.7,-3.3200000000000003],"max":[1.3200000000000003,-2.1,9.399999999999999]},{"bufferView":56,"componentType":5126,"count":192,"type":"VEC3"},{"bufferView":57,"componentType":5125,"count":288,"type":"SCALAR"},{"bufferView":58,"componentType":5126,"count":576,"type":"VEC3","min":[-1.4900000000000002,-3.3000000000000003,-3.4000000000000004],"max":[1.4900000000000002,-1.0499999999999998,9.732953361440748]},{"bufferView":59,"componentType":5126,"count":576,"type":"VEC3"},{"bufferView":60,"componentType":5125,"count":864,"type":"SCALAR"}],"images":[{"uri":"../../airlines/CPA.png"},{"uri":"fallback-paint-v5.png"}],"textures":[{"source":0,"sampler":0},{"source":1,"sampler":0}],"samplers":[{"magFilter":9729,"minFilter":9987,"wrapS":33071,"wrapT":33071}]}