{"asset":{"version":"2.0","generator":"Skyward original fictional demonstration airline"},"scene":0,"scenes":[{"nodes":[0,1,5,6,7,8,9,10,11,12,13,14,15,16,17]}],"nodes":[{"mesh":0},{"mesh":1,"name":"Gear","children":[2,3,4]},{"mesh":2,"name":"WheelN","translation":[0,-3.1,9.28]},{"mesh":3,"name":"WheelL","translation":[-1.2000000000000002,-3.1,-3.2]},{"mesh":4,"name":"WheelR","translation":[1.2000000000000002,-3.1,-3.2]},{"mesh":5,"name":"SlatL"},{"mesh":6,"name":"FlapL"},{"mesh":7,"name":"SpoilerL"},{"mesh":8,"name":"ElevatorL"},{"mesh":9,"name":"SlatR"},{"mesh":10,"name":"FlapR"},{"mesh":11,"name":"SpoilerR"},{"mesh":12,"name":"ElevatorR"},{"mesh":13,"name":"Rudder"},{"mesh":14,"name":"FlexWingL"},{"mesh":15,"name":"FlexWingR"},{"mesh":16,"name":"SkywardFan0"},{"mesh":17,"name":"SkywardFan1"}],"meshes":[{"name":"AirframeWithCockpitGlazing","primitives":[{"indices":3,"attributes":{"POSITION":0,"NORMAL":1,"TEXCOORD_0":2},"material":0},{"indices":6,"attributes":{"POSITION":4,"NORMAL":5},"material":1},{"indices":9,"attributes":{"POSITION":7,"NORMAL":8},"material":2},{"attributes":{"POSITION":10,"NORMAL":11},"material":3},{"indices":110,"attributes":{"POSITION":12,"NORMAL":13,"TEXCOORD_0":14},"material":5},{"indices":18,"attributes":{"POSITION":16,"NORMAL":17},"material":6},{"indices":21,"attributes":{"POSITION":19,"NORMAL":20},"material":7},{"attributes":{"POSITION":107,"NORMAL":108,"TEXCOORD_0":109},"material":9}]},{"primitives":[{"indices":58,"attributes":{"POSITION":55,"NORMAL":56,"TEXCOORD_0":57},"material":0,"extras":{"gear":true}},{"indices":61,"attributes":{"POSITION":59,"NORMAL":60},"material":1,"extras":{"gear":true}},{"indices":64,"attributes":{"POSITION":62,"NORMAL":63},"material":6,"extras":{"gear":true}}]},{"primitives":[{"indices":24,"attributes":{"POSITION":22,"NORMAL":23},"material":4,"extras":{"wheel":0}},{"indices":94,"attributes":{"POSITION":92,"NORMAL":93},"material":6,"extras":{"wheel":0}}]},{"primitives":[{"indices":27,"attributes":{"POSITION":25,"NORMAL":26},"material":4,"extras":{"wheel":1}},{"indices":97,"attributes":{"POSITION":95,"NORMAL":96},"material":6,"extras":{"wheel":1}}]},{"primitives":[{"indices":30,"attributes":{"POSITION":28,"NORMAL":29},"material":4,"extras":{"wheel":2}},{"indices":100,"attributes":{"POSITION":98,"NORMAL":99},"material":6,"extras":{"wheel":2}}]},{"primitives":[{"indices":67,"attributes":{"POSITION":65,"NORMAL":66},"material":1,"extras":{"surface":0}}]},{"primitives":[{"indices":70,"attributes":{"POSITION":68,"NORMAL":69},"material":1,"extras":{"surface":1}}]},{"primitives":[{"indices":73,"attributes":{"POSITION":71,"NORMAL":72},"material":1,"extras":{"surface":2}}]},{"primitives":[{"indices":76,"attributes":{"POSITION":74,"NORMAL":75},"material":1,"extras":{"surface":3}}]},{"primitives":[{"indices":79,"attributes":{"POSITION":77,"NORMAL":78},"material":1,"extras":{"surface":4}}]},{"primitives":[{"indices":82,"attributes":{"POSITION":80,"NORMAL":81},"material":1,"extras":{"surface":5}}]},{"primitives":[{"indices":85,"attributes":{"POSITION":83,"NORMAL":84},"material":1,"extras":{"surface":6}}]},{"primitives":[{"indices":88,"attributes":{"POSITION":86,"NORMAL":87},"material":1,"extras":{"surface":7}}]},{"primitives":[{"indices":91,"attributes":{"POSITION":89,"NORMAL":90},"material":2,"extras":{"surface":8}}]},{"primitives":[{"indices":33,"attributes":{"POSITION":31,"NORMAL":32},"material":1,"extras":{"wing":0}},{"indices":36,"attributes":{"POSITION":34,"NORMAL":35},"material":2,"extras":{"wing":0}},{"indices":39,"attributes":{"POSITION":37,"NORMAL":38},"material":6,"extras":{"wing":0}}]},{"primitives":[{"indices":42,"attributes":{"POSITION":40,"NORMAL":41},"material":1,"extras":{"wing":1}},{"indices":45,"attributes":{"POSITION":43,"NORMAL":44},"material":2,"extras":{"wing":1}},{"indices":48,"attributes":{"POSITION":46,"NORMAL":47},"material":6,"extras":{"wing":1}}]},{"primitives":[{"indices":51,"attributes":{"POSITION":49,"NORMAL":50},"material":6,"extras":{"fan":0}}]},{"primitives":[{"indices":54,"attributes":{"POSITION":52,"NORMAL":53},"material":6,"extras":{"fan":1}}]}],"materials":[{"doubleSided":true,"pbrMetallicRoughness":{"baseColorFactor":[0.035,0.12,0.16,1],"metallicFactor":0.04,"roughnessFactor":0.27,"baseColorTexture":{"index":1}}},{"doubleSided":true,"pbrMetallicRoughness":{"baseColorFactor":[0.64,0.68,0.72,1],"metallicFactor":0.04,"roughnessFactor":0.4}},{"doubleSided":true,"pbrMetallicRoughness":{"baseColorFactor":[0.035,0.23,0.23,1],"metallicFactor":0.04,"roughnessFactor":0.27}},{"doubleSided":true,"pbrMetallicRoughness":{"baseColorFactor":[0.02,0.055,0.085,1],"metallicFactor":0,"roughnessFactor":0.12}},{"doubleSided":true,"pbrMetallicRoughness":{"baseColorFactor":[0.07,0.08,0.09,1],"metallicFactor":0,"roughnessFactor":0.86}},{"doubleSided":true,"pbrMetallicRoughness":{"baseColorFactor":[1,1,1,1],"metallicFactor":0,"roughnessFactor":0.75,"baseColorTexture":{"index":0}},"alphaMode":"MASK","alphaCutoff":0.08},{"doubleSided":true,"pbrMetallicRoughness":{"baseColorFactor":[0.36,0.4,0.44,1],"metallicFactor":0.8,"roughnessFactor":0.28}},{"doubleSided":true,"pbrMetallicRoughness":{"baseColorFactor":[0.035,0.23,0.23,1],"metallicFactor":0.04,"roughnessFactor":0.27}},{"name":"Operator title","doubleSided":true,"alphaMode":"MASK","alphaCutoff":0.15,"pbrMetallicRoughness":{"baseColorTexture":{"index":2},"baseColorFactor":[0.7843137254901961,0.09803921568627451,0.19607843137254902,1],"roughnessFactor":0.6,"metallicFactor":0}},{"doubleSided":true,"pbrMetallicRoughness":{"baseColorFactor":[1,1,1,1],"metallicFactor":0,"roughnessFactor":0.75,"baseColorTexture":{"index":3}},"alphaMode":"MASK","alphaCutoff":0.08,"name":"skyVVard fuselage title","emissiveTexture":{"index":3},"emissiveFactor":[0.25,0.25,0.25]}],"buffers":[{"uri":"regional-v4.bin?tail=2&rig=1&detail=6","byteLength":1299232},{"uri":"regional-title.bin?detail=6","byteLength":18432},{"uri":"regional-SKYWARD-decal.bin","byteLength":384},{"uri":"regional-SKYWARD-body-v3.bin","byteLength":6192}],"bufferViews":[{"buffer":0,"byteOffset":0,"byteLength":31980,"target":34962},{"buffer":0,"byteOffset":31980,"byteLength":31980,"target":34962},{"buffer":0,"byteOffset":63960,"byteLength":21320,"target":34962},{"buffer":0,"byteOffset":85280,"byteLength":61440,"target":34963},{"buffer":0,"byteOffset":146720,"byteLength":1080,"target":34962},{"buffer":0,"byteOffset":147800,"byteLength":1080,"target":34962},{"buffer":0,"byteOffset":148880,"byteLength":576,"target":34963},{"buffer":0,"byteOffset":149456,"byteLength":288,"target":34962},{"buffer":0,"byteOffset":149744,"byteLength":288,"target":34962},{"buffer":0,"byteOffset":150032,"byteLength":144,"target":34963},{"buffer":0,"byteOffset":150176,"byteLength":181152,"target":34962},{"buffer":0,"byteOffset":331328,"byteLength":181152,"target":34962},{"buffer":0,"byteOffset":512480,"byteLength":192,"target":34962},{"buffer":0,"byteOffset":512672,"byteLength":192,"target":34962},{"buffer":0,"byteOffset":512864,"byteLength":128,"target":34962},{"buffer":0,"byteOffset":512992,"byteLength":96,"target":34963},{"buffer":0,"byteOffset":513088,"byteLength":50760,"target":34962},{"buffer":0,"byteOffset":563848,"byteLength":50760,"target":34962},{"buffer":0,"byteOffset":614608,"byteLength":49920,"target":34963},{"buffer":0,"byteOffset":664528,"byteLength":20376,"target":34962},{"buffer":0,"byteOffset":684904,"byteLength":20376,"target":34962},{"buffer":0,"byteOffset":705280,"byteLength":36912,"target":34963},{"buffer":0,"byteOffset":742192,"byteLength":21504,"target":34962},{"buffer":0,"byteOffset":763696,"byteLength":21504,"target":34962},{"buffer":0,"byteOffset":785200,"byteLength":10752,"target":34963},{"buffer":0,"byteOffset":795952,"byteLength":21504,"target":34962},{"buffer":0,"byteOffset":817456,"byteLength":21504,"target":34962},{"buffer":0,"byteOffset":838960,"byteLength":10752,"target":34963},{"buffer":0,"byteOffset":849712,"byteLength":21504,"target":34962},{"buffer":0,"byteOffset":871216,"byteLength":21504,"target":34962},{"buffer":0,"byteOffset":892720,"byteLength":10752,"target":34963},{"buffer":0,"byteOffset":903472,"byteLength":39156,"target":34962},{"buffer":0,"byteOffset":942628,"byteLength":39156,"target":34962},{"buffer":0,"byteOffset":981784,"byteLength":58944,"target":34963},{"buffer":0,"byteOffset":1040728,"byteLength":336,"target":34962},{"buffer":0,"byteOffset":1041064,"byteLength":336,"target":34962},{"buffer":0,"byteOffset":1041400,"byteLength":144,"target":34963},{"buffer":0,"byteOffset":1041544,"byteLength":432,"target":34962},{"buffer":0,"byteOffset":1041976,"byteLength":432,"target":34962},{"buffer":0,"byteOffset":1042408,"byteLength":288,"target":34963},{"buffer":0,"byteOffset":1042696,"byteLength":39156,"target":34962},{"buffer":0,"byteOffset":1081852,"byteLength":39156,"target":34962},{"buffer":0,"byteOffset":1121008,"byteLength":58944,"target":34963},{"buffer":0,"byteOffset":1179952,"byteLength":336,"target":34962},{"buffer":0,"byteOffset":1180288,"byteLength":336,"target":34962},{"buffer":0,"byteOffset":1180624,"byteLength":144,"target":34963},{"buffer":0,"byteOffset":1180768,"byteLength":432,"target":34962},{"buffer":0,"byteOffset":1181200,"byteLength":432,"target":34962},{"buffer":0,"byteOffset":1181632,"byteLength":288,"target":34963},{"buffer":0,"byteOffset":1181920,"byteLength":9036,"target":34962},{"buffer":0,"byteOffset":1190956,"byteLength":9036,"target":34962},{"buffer":0,"byteOffset":1199992,"byteLength":12960,"target":34963},{"buffer":0,"byteOffset":1212952,"byteLength":9036,"target":34962},{"buffer":0,"byteOffset":1221988,"byteLength":9036,"target":34962},{"buffer":0,"byteOffset":1231024,"byteLength":12960,"target":34963},{"buffer":0,"byteOffset":1243984,"byteLength":864,"target":34962},{"buffer":0,"byteOffset":1244848,"byteLength":864,"target":34962},{"buffer":0,"byteOffset":1245712,"byteLength":576,"target":34962},{"buffer":0,"byteOffset":1246288,"byteLength":432,"target":34963},{"buffer":0,"byteOffset":1246720,"byteLength":2304,"target":34962},{"buffer":0,"byteOffset":1249024,"byteLength":2304,"target":34962},{"buffer":0,"byteOffset":1251328,"byteLength":1152,"target":34963},{"buffer":0,"byteOffset":1252480,"byteLength":6912,"target":34962},{"buffer":0,"byteOffset":1259392,"byteLength":6912,"target":34962},{"buffer":0,"byteOffset":1266304,"byteLength":3456,"target":34963},{"buffer":0,"byteOffset":1269760,"byteLength":864,"target":34962},{"buffer":0,"byteOffset":1270624,"byteLength":864,"target":34962},{"buffer":0,"byteOffset":1271488,"byteLength":288,"target":34963},{"buffer":0,"byteOffset":1271776,"byteLength":1728,"target":34962},{"buffer":0,"byteOffset":1273504,"byteLength":1728,"target":34962},{"buffer":0,"byteOffset":1275232,"byteLength":576,"target":34963},{"buffer":0,"byteOffset":1275808,"byteLength":288,"target":34962},{"buffer":0,"byteOffset":1276096,"byteLength":288,"target":34962},{"buffer":0,"byteOffset":1276384,"byteLength":96,"target":34963},{"buffer":0,"byteOffset":1276480,"byteLength":288,"target":34962},{"buffer":0,"byteOffset":1276768,"byteLength":288,"target":34962},{"buffer":0,"byteOffset":1277056,"byteLength":144,"target":34963},{"buffer":0,"byteOffset":1277200,"byteLength":864,"target":34962},{"buffer":0,"byteOffset":1278064,"byteLength":864,"target":34962},{"buffer":0,"byteOffset":1278928,"byteLength":288,"target":34963},{"buffer":0,"byteOffset":1279216,"byteLength":1728,"target":34962},{"buffer":0,"byteOffset":1280944,"byteLength":1728,"target":34962},{"buffer":0,"byteOffset":1282672,"byteLength":576,"target":34963},{"buffer":0,"byteOffset":1283248,"byteLength":288,"target":34962},{"buffer":0,"byteOffset":1283536,"byteLength":288,"target":34962},{"buffer":0,"byteOffset":1283824,"byteLength":96,"target":34963},{"buffer":0,"byteOffset":1283920,"byteLength":288,"target":34962},{"buffer":0,"byteOffset":1284208,"byteLength":288,"target":34962},{"buffer":0,"byteOffset":1284496,"byteLength":144,"target":34963},{"buffer":0,"byteOffset":1284640,"byteLength":168,"target":34962},{"buffer":0,"byteOffset":1284808,"byteLength":168,"target":34962},{"buffer":0,"byteOffset":1284976,"byteLength":144,"target":34963},{"buffer":0,"byteOffset":1285120,"byteLength":1584,"target":34962},{"buffer":0,"byteOffset":1286704,"byteLength":1584,"target":34962},{"buffer":0,"byteOffset":1288288,"byteLength":1536,"target":34963},{"buffer":0,"byteOffset":1289824,"byteLength":1584,"target":34962},{"buffer":0,"byteOffset":1291408,"byteLength":1584,"target":34962},{"buffer":0,"byteOffset":1292992,"byteLength":1536,"target":34963},{"buffer":0,"byteOffset":1294528,"byteLength":1584,"target":34962},{"buffer":0,"byteOffset":1296112,"byteLength":1584,"target":34962},{"buffer":0,"byteOffset":1297696,"byteLength":1536,"target":34963},{"buffer":1,"byteOffset":0,"byteLength":6912,"target":34962},{"buffer":1,"byteOffset":6912,"byteLength":6912,"target":34962},{"buffer":1,"byteOffset":13824,"byteLength":4608,"target":34962},{"buffer":2,"byteOffset":0,"byteLength":144,"target":34962},{"buffer":2,"byteOffset":144,"byteLength":144,"target":34962},{"buffer":2,"byteOffset":288,"byteLength":96,"target":34962},{"buffer":3,"byteOffset":0,"byteLength":2304,"target":34962},{"buffer":3,"byteOffset":2304,"byteLength":2304,"target":34962},{"buffer":3,"byteOffset":4608,"byteLength":1536,"target":34962},{"buffer":3,"byteOffset":6144,"byteLength":48,"target":34963}],"accessors":[{"bufferView":0,"componentType":5126,"count":2665,"type":"VEC3","min":[-1.5,-1.5,-16.0],"max":[1.5,1.5,16.0]},{"bufferView":1,"componentType":5126,"count":2665,"type":"VEC3"},{"bufferView":2,"componentType":5126,"count":2665,"type":"VEC2"},{"bufferView":3,"componentType":5125,"count":15360,"type":"SCALAR"},{"bufferView":4,"componentType":5126,"count":90,"type":"VEC3","min":[-5.27,-1.8649999999999998,-14.88],"max":[4.99,1.2800000000000002,1.44]},{"bufferView":5,"componentType":5126,"count":90,"type":"VEC3"},{"bufferView":6,"componentType":5125,"count":144,"type":"SCALAR"},{"bufferView":7,"componentType":5126,"count":24,"type":"VEC3","min":[-0.1,0.6000000000000001,-14.88],"max":[0.1,6.14,-8.96]},{"bufferView":8,"componentType":5126,"count":24,"type":"VEC3"},{"bufferView":9,"componentType":5125,"count":36,"type":"SCALAR"},{"bufferView":10,"componentType":5126,"count":15096,"type":"VEC3","min":[-5.7780000000000005,-2.373,-7.49],"max":[5.7780000000000005,1.2511114725354051,14.176]},{"bufferView":11,"componentType":5126,"count":15096,"type":"VEC3"},{"bufferView":12,"componentType":5126,"count":16,"type":"VEC3","min":[-1.54,-0.63,-14.336],"max":[1.54,4.9336,7.355]},{"bufferView":13,"componentType":5126,"count":16,"type":"VEC3"},{"bufferView":14,"componentType":5126,"count":16,"type":"VEC2"},{"bufferView":15,"componentType":5125,"count":24,"type":"SCALAR"},{"bufferView":16,"componentType":5126,"count":4230,"type":"VEC3","min":[-5.92542,-2.5204199999999997,-7.795],"max":[5.92542,1.2597717265732495,14.176]},{"bufferView":17,"componentType":5126,"count":4230,"type":"VEC3"},{"bufferView":18,"componentType":5125,"count":12480,"type":"SCALAR"},{"bufferView":19,"componentType":5126,"count":1698,"type":"VEC3","min":[-5.9399999999999995,-2.535,-6.08],"max":[5.9399999999999995,-0.735,9.6]},{"bufferView":20,"componentType":5126,"count":1698,"type":"VEC3"},{"bufferView":21,"componentType":5125,"count":9228,"type":"SCALAR"},{"bufferView":22,"componentType":5126,"count":1792,"type":"VEC3","min":[-0.41000000000000003,-0.4,-0.4],"max":[0.41000000000000003,0.4,0.4]},{"bufferView":23,"componentType":5126,"count":1792,"type":"VEC3"},{"bufferView":24,"componentType":5125,"count":2688,"type":"SCALAR"},{"bufferView":25,"componentType":5126,"count":1792,"type":"VEC3","min":[-0.41000000000000003,-0.4,-0.4],"max":[0.41000000000000003,0.4,0.4]},{"bufferView":26,"componentType":5126,"count":1792,"type":"VEC3"},{"bufferView":27,"componentType":5125,"count":2688,"type":"SCALAR"},{"bufferView":28,"componentType":5126,"count":1792,"type":"VEC3","min":[-0.41000000000000003,-0.4,-0.4],"max":[0.41000000000000003,0.4,0.4]},{"bufferView":29,"componentType":5126,"count":1792,"type":"VEC3"},{"bufferView":30,"componentType":5125,"count":2688,"type":"SCALAR"},{"bufferView":31,"componentType":5126,"count":3263,"type":"VEC3","min":[-13.5,-1.0332879243637327,-8.091826086956521],"max":[-1.125,0.963338064954082,3.2]},{"bufferView":32,"componentType":5126,"count":3263,"type":"VEC3"},{"bufferView":33,"componentType":5125,"count":14736,"type":"SCALAR"},{"bufferView":34,"componentType":5126,"count":28,"type":"VEC3","min":[-13.5,0.96,-7.359999999999999],"max":[-12.959999999999999,3.24,-4.8]},{"bufferView":35,"componentType":5126,"count":28,"type":"VEC3"},{"bufferView":36,"componentType":5125,"count":36,"type":"SCALAR"},{"bufferView":37,"componentType":5126,"count":36,"type":"VEC3","min":[-13.5,-0.4241796873488285,-6.775199999999999],"max":[-1.125,0.9555598425420712,-2.6752000000000002]},{"bufferView":38,"componentType":5126,"count":36,"type":"VEC3"},{"bufferView":39,"componentType":5125,"count":72,"type":"SCALAR"},{"bufferView":40,"componentType":5126,"count":3263,"type":"VEC3","min":[1.125,-1.0332879243637327,-8.091826086956521],"max":[13.5,0.963338064954082,3.2]},{"bufferView":41,"componentType":5126,"count":3263,"type":"VEC3"},{"bufferView":42,"componentType":5125,"count":14736,"type":"SCALAR"},{"bufferView":43,"componentType":5126,"count":28,"type":"VEC3","min":[12.959999999999999,0.96,-7.359999999999999],"max":[13.5,3.24,-4.8]},{"bufferView":44,"componentType":5126,"count":28,"type":"VEC3"},{"bufferView":45,"componentType":5125,"count":36,"type":"SCALAR"},{"bufferView":46,"componentType":5126,"count":36,"type":"VEC3","min":[1.125,-0.4241796873488285,-6.775199999999999],"max":[13.5,0.9555598425420712,-2.6752000000000002]},{"bufferView":47,"componentType":5126,"count":36,"type":"VEC3"},{"bufferView":48,"componentType":5125,"count":72,"type":"SCALAR"},{"bufferView":49,"componentType":5126,"count":753,"type":"VEC3","min":[-5.753693964033693,-2.348693964033693,0.9754],"max":[-4.506306035966307,-1.1013060359663067,1.76]},{"bufferView":50,"componentType":5126,"count":753,"type":"VEC3"},{"bufferView":51,"componentType":5125,"count":3240,"type":"SCALAR"},{"bufferView":52,"componentType":5126,"count":753,"type":"VEC3","min":[4.506306035966307,-2.348693964033693,0.9754],"max":[5.753693964033693,-1.1013060359663067,1.76]},{"bufferView":53,"componentType":5126,"count":753,"type":"VEC3"},{"bufferView":54,"componentType":5125,"count":3240,"type":"SCALAR"},{"bufferView":55,"componentType":5126,"count":72,"type":"VEC3","min":[-1.8200000000000003,-2.525,-3.85],"max":[0.7200000000000002,-1.1,9.93]},{"bufferView":56,"componentType":5126,"count":72,"type":"VEC3"},{"bufferView":57,"componentType":5126,"count":72,"type":"VEC2"},{"bufferView":58,"componentType":5125,"count":108,"type":"SCALAR"},{"bufferView":59,"componentType":5126,"count":192,"type":"VEC3","min":[-1.3200000000000003,-2.7,-3.3200000000000003],"max":[1.3200000000000003,-2.1,9.399999999999999]},{"bufferView":60,"componentType":5126,"count":192,"type":"VEC3"},{"bufferView":61,"componentType":5125,"count":288,"type":"SCALAR"},{"bufferView":62,"componentType":5126,"count":576,"type":"VEC3","min":[-1.62,-3.19,-3.29],"max":[1.62,-1.0499999999999998,9.732953361440748]},{"bufferView":63,"componentType":5126,"count":576,"type":"VEC3"},{"bufferView":64,"componentType":5125,"count":864,"type":"SCALAR"},{"bufferView":65,"componentType":5126,"count":72,"type":"VEC3","min":[-12.15,-0.898283325044678,-4.891344560986456],"max":[-1.125,0.7453478945814672,3.2]},{"bufferView":66,"componentType":5126,"count":72,"type":"VEC3"},{"bufferView":67,"componentType":5125,"count":72,"type":"SCALAR"},{"bufferView":68,"componentType":5126,"count":144,"type":"VEC3","min":[-12.15,-0.764410428981402,-7.199999999999999],"max":[-1.125,0.7412545896239636,-4.174701294725885]},{"bufferView":69,"componentType":5126,"count":144,"type":"VEC3"},{"bufferView":70,"componentType":5125,"count":144,"type":"SCALAR"},{"bufferView":71,"componentType":5126,"count":24,"type":"VEC3","min":[-12.15,-0.3474537695062143,-6.6],"max":[-1.125,0.7888996931483717,-2.2380982748428897]},{"bufferView":72,"componentType":5126,"count":24,"type":"VEC3"},{"bufferView":73,"componentType":5125,"count":24,"type":"SCALAR"},{"bufferView":74,"componentType":5126,"count":24,"type":"VEC3","min":[-4.859999999999999,0.54,-15.68],"max":[-0.6000000000000001,1.2600000000000002,-13.28]},{"bufferView":75,"componentType":5126,"count":24,"type":"VEC3"},{"bufferView":76,"componentType":5125,"count":36,"type":"SCALAR"},{"bufferView":77,"componentType":5126,"count":72,"type":"VEC3","min":[1.125,-0.898283325044678,-4.891344560986456],"max":[12.15,0.7453478945814672,3.2]},{"bufferView":78,"componentType":5126,"count":72,"type":"VEC3"},{"bufferView":79,"componentType":5125,"count":72,"type":"SCALAR"},{"bufferView":80,"componentType":5126,"count":144,"type":"VEC3","min":[1.125,-0.764410428981402,-7.199999999999999],"max":[12.15,0.7412545896239636,-4.174701294725885]},{"bufferView":81,"componentType":5126,"count":144,"type":"VEC3"},{"bufferView":82,"componentType":5125,"count":144,"type":"SCALAR"},{"bufferView":83,"componentType":5126,"count":24,"type":"VEC3","min":[1.125,-0.3474537695062143,-6.6],"max":[12.15,0.7888996931483717,-2.2380982748428897]},{"bufferView":84,"componentType":5126,"count":24,"type":"VEC3"},{"bufferView":85,"componentType":5125,"count":24,"type":"SCALAR"},{"bufferView":86,"componentType":5126,"count":24,"type":"VEC3","min":[0.6000000000000001,0.54,-15.68],"max":[4.859999999999999,1.2600000000000002,-13.28]},{"bufferView":87,"componentType":5126,"count":24,"type":"VEC3"},{"bufferView":88,"componentType":5125,"count":36,"type":"SCALAR"},{"bufferView":89,"componentType":5126,"count":14,"type":"VEC3","min":[0,0.5200000000000001,-15.84],"max":[0,6.22,-14.336]},{"bufferView":90,"componentType":5126,"count":14,"type":"VEC3"},{"bufferView":91,"componentType":5125,"count":36,"type":"SCALAR"},{"bufferView":92,"componentType":5126,"count":132,"type":"VEC3","min":[-0.41100000000000003,-0.22000000000000003,-0.22000000000000003],"max":[0.41100000000000003,0.22000000000000003,0.22000000000000003]},{"bufferView":93,"componentType":5126,"count":132,"type":"VEC3"},{"bufferView":94,"componentType":5125,"count":384,"type":"SCALAR"},{"bufferView":95,"componentType":5126,"count":132,"type":"VEC3","min":[-0.41100000000000003,-0.22000000000000003,-0.22000000000000003],"max":[0.41100000000000003,0.22000000000000003,0.22000000000000003]},{"bufferView":96,"componentType":5126,"count":132,"type":"VEC3"},{"bufferView":97,"componentType":5125,"count":384,"type":"SCALAR"},{"bufferView":98,"componentType":5126,"count":132,"type":"VEC3","min":[-0.41100000000000003,-0.22000000000000003,-0.22000000000000003],"max":[0.41100000000000003,0.22000000000000003,0.22000000000000003]},{"bufferView":99,"componentType":5126,"count":132,"type":"VEC3"},{"bufferView":100,"componentType":5125,"count":384,"type":"SCALAR"},{"bufferView":101,"componentType":5126,"count":576,"type":"VEC3","min":[-1.4274284547628722,0.54,-3.84],"max":[1.4274284547628722,0.915,8.0]},{"bufferView":102,"componentType":5126,"count":576,"type":"VEC3"},{"bufferView":103,"componentType":5126,"count":576,"type":"VEC2"},{"bufferView":104,"componentType":5126,"count":12,"type":"VEC3","min":[-1.484390784126606,0.30000000000000004,-3.84],"max":[1.484390784126606,0.9750000000000001,7.68]},{"bufferView":105,"componentType":5126,"count":12,"type":"VEC3"},{"bufferView":106,"componentType":5126,"count":12,"type":"VEC2"},{"bufferView":107,"componentType":5126,"count":192,"type":"VEC3","min":[-1.53,-0.8250000000000001,1.4999999999999996],"max":[1.53,0.8250000000000002,8.1]},{"bufferView":108,"componentType":5126,"count":192,"type":"VEC3"},{"bufferView":109,"componentType":5126,"count":192,"type":"VEC2"},{"bufferView":110,"componentType":5125,"count":12,"type":"SCALAR"}],"images":[{"uri":"../../airlines/SKYWARD-tail-v2.png"},{"uri":"fallback-paint-v5.png"},{"uri":"title-THY.png"},{"uri":"../../airlines/SKYWARD-body-v3.png"}],"textures":[{"source":0,"sampler":0},{"source":1,"sampler":0},{"source":2,"sampler":0},{"source":3,"sampler":0}],"samplers":[{"magFilter":9729,"minFilter":9987,"wrapS":33071,"wrapT":33071}]}