{"asset":{"version":"2.0","generator":"Skyward original illustrative profile; airline-inspired paint, no official logos"},"scene":0,"scenes":[{"nodes":[0,1]}],"nodes":[{"mesh":0},{"mesh":1,"name":"Gear"}],"meshes":[{"primitives":[{"attributes":{"POSITION":0,"NORMAL":1},"material":0},{"attributes":{"POSITION":2,"NORMAL":3},"material":1},{"attributes":{"POSITION":4,"NORMAL":5},"material":2},{"attributes":{"POSITION":6,"NORMAL":7},"material":3}]},{"primitives":[{"attributes":{"POSITION":8,"NORMAL":9},"material":4}]}],"materials":[{"doubleSided":true,"pbrMetallicRoughness":{"baseColorFactor":[0.91,0.94,0.96,1],"metallicFactor":0.15,"roughnessFactor":0.45}},{"doubleSided":true,"pbrMetallicRoughness":{"baseColorFactor":[0.52,0.6,0.66,1],"metallicFactor":0.15,"roughnessFactor":0.45}},{"doubleSided":true,"pbrMetallicRoughness":{"baseColorFactor":[0.1450980392156863,0.5450980392156862,0.3137254901960784,1],"metallicFactor":0.15,"roughnessFactor":0.45}},{"doubleSided":true,"pbrMetallicRoughness":{"baseColorFactor":[0.025,0.06,0.09,1],"metallicFactor":0.15,"roughnessFactor":0.45}},{"doubleSided":true,"pbrMetallicRoughness":{"baseColorFactor":[0.08,0.1,0.12,1],"metallicFactor":0.15,"roughnessFactor":0.45}}],"buffers":[{"uri":"regional.bin","byteLength":34776}],"bufferViews":[{"buffer":0,"byteOffset":0,"byteLength":10080,"target":34962},{"buffer":0,"byteOffset":10080,"byteLength":10080,"target":34962},{"buffer":0,"byteOffset":20160,"byteLength":288,"target":34962},{"buffer":0,"byteOffset":20448,"byteLength":288,"target":34962},{"buffer":0,"byteOffset":20736,"byteLength":108,"target":34962},{"buffer":0,"byteOffset":20844,"byteLength":108,"target":34962},{"buffer":0,"byteOffset":20952,"byteLength":4320,"target":34962},{"buffer":0,"byteOffset":25272,"byteLength":4320,"target":34962},{"buffer":0,"byteOffset":29592,"byteLength":2592,"target":34962},{"buffer":0,"byteOffset":32184,"byteLength":2592,"target":34962}],"accessors":[{"bufferView":0,"componentType":5126,"count":840,"type":"VEC3","min":[-5.955,-2.475,-16.0],"max":[5.955,1.5,16.0]},{"bufferView":1,"componentType":5126,"count":840,"type":"VEC3"},{"bufferView":2,"componentType":5126,"count":24,"type":"VEC3","min":[-13.5,-0.75,-15.68],"max":[13.5,0.5249999999999999,2.56]},{"bufferView":3,"componentType":5126,"count":24,"type":"VEC3"},{"bufferView":4,"componentType":5126,"count":9,"type":"VEC3","min":[-13.5,0,-15.68],"max":[13.5,5.98,-5.12]},{"bufferView":5,"componentType":5126,"count":9,"type":"VEC3"},{"bufferView":6,"componentType":5126,"count":360,"type":"VEC3","min":[-5.856,-2.3760000000000003,-8],"max":[5.856,0.8999999999999999,13.44]},{"bufferView":7,"componentType":5126,"count":360,"type":"VEC3"},{"bufferView":8,"componentType":5126,"count":216,"type":"VEC3","min":[-1.6,-4.1,-3.8000000000000003],"max":[1.6,-1.4,9.879999999999999]},{"bufferView":9,"componentType":5126,"count":216,"type":"VEC3"}]}