{"asset":{"version":"2.0","generator":"Skyward original illustrative regional profile; logos for operator identification"},"scene":0,"scenes":[{"nodes":[0,1]}],"nodes":[{"mesh":0},{"mesh":1,"name":"Gear"}],"meshes":[{"primitives":[{"attributes":{"POSITION":0,"NORMAL":1},"material":0},{"attributes":{"POSITION":2,"NORMAL":3},"material":1},{"attributes":{"POSITION":4,"NORMAL":5},"material":2},{"attributes":{"POSITION":6,"NORMAL":7},"material":3},{"attributes":{"POSITION":10,"NORMAL":11,"TEXCOORD_0":12},"material":5},{"attributes":{"POSITION":13,"NORMAL":14},"material":6}]},{"primitives":[{"attributes":{"POSITION":8,"NORMAL":9},"material":4}]}],"materials":[{"doubleSided":true,"pbrMetallicRoughness":{"baseColorFactor":[0.94,0.95,0.96,1],"metallicFactor":0.18,"roughnessFactor":0.3}},{"doubleSided":true,"pbrMetallicRoughness":{"baseColorFactor":[0.64,0.68,0.72,1],"metallicFactor":0.18,"roughnessFactor":0.3}},{"doubleSided":true,"pbrMetallicRoughness":{"baseColorFactor":[0.09803921568627451,0.2235294117647059,0.4745098039215686,1],"metallicFactor":0.18,"roughnessFactor":0.3}},{"doubleSided":true,"pbrMetallicRoughness":{"baseColorFactor":[0.02,0.055,0.085,1],"metallicFactor":0.18,"roughnessFactor":0.17}},{"doubleSided":true,"pbrMetallicRoughness":{"baseColorFactor":[0.07,0.08,0.09,1],"metallicFactor":0.18,"roughnessFactor":0.3}},{"doubleSided":true,"pbrMetallicRoughness":{"baseColorFactor":[1,1,1,1],"metallicFactor":0,"roughnessFactor":0.75,"baseColorTexture":{"index":0}},"alphaMode":"BLEND"},{"doubleSided":true,"pbrMetallicRoughness":{"baseColorFactor":[0.36,0.4,0.44,1],"metallicFactor":0.7,"roughnessFactor":0.3}}],"buffers":[{"uri":"regional-v2.bin","byteLength":209280}],"bufferViews":[{"buffer":0,"byteOffset":0,"byteLength":55296,"target":34962},{"buffer":0,"byteOffset":55296,"byteLength":55296,"target":34962},{"buffer":0,"byteOffset":110592,"byteLength":2880,"target":34962},{"buffer":0,"byteOffset":113472,"byteLength":2880,"target":34962},{"buffer":0,"byteOffset":116352,"byteLength":1296,"target":34962},{"buffer":0,"byteOffset":117648,"byteLength":1296,"target":34962},{"buffer":0,"byteOffset":118944,"byteLength":26928,"target":34962},{"buffer":0,"byteOffset":145872,"byteLength":26928,"target":34962},{"buffer":0,"byteOffset":172800,"byteLength":2592,"target":34962},{"buffer":0,"byteOffset":175392,"byteLength":2592,"target":34962},{"buffer":0,"byteOffset":177984,"byteLength":288,"target":34962},{"buffer":0,"byteOffset":178272,"byteLength":288,"target":34962},{"buffer":0,"byteOffset":178560,"byteLength":192,"target":34962},{"buffer":0,"byteOffset":178752,"byteLength":15264,"target":34962},{"buffer":0,"byteOffset":194016,"byteLength":15264,"target":34962}],"accessors":[{"bufferView":0,"componentType":5126,"count":4608,"type":"VEC3","min":[-5.9399999999999995,-2.535,-16.0],"max":[5.9399999999999995,1.5,16.0]},{"bufferView":1,"componentType":5126,"count":4608,"type":"VEC3"},{"bufferView":2,"componentType":5126,"count":240,"type":"VEC3","min":[-13.5,-1.8649999999999998,-15.68],"max":[13.5,1.2800000000000002,3.2]},{"bufferView":3,"componentType":5126,"count":240,"type":"VEC3"},{"bufferView":4,"componentType":5126,"count":108,"type":"VEC3","min":[-13.5,0.6000000000000001,-15.84],"max":[13.5,6.14,-6.08]},{"bufferView":5,"componentType":5126,"count":108,"type":"VEC3"},{"bufferView":6,"componentType":5126,"count":2244,"type":"VEC3","min":[-5.7780000000000005,-2.373,-7.49],"max":[5.7780000000000005,1.0050000000000001,13.28]},{"bufferView":7,"componentType":5126,"count":2244,"type":"VEC3"},{"bufferView":8,"componentType":5126,"count":216,"type":"VEC3","min":[-1.5000000000000002,-3.5,-3.58],"max":[1.5000000000000002,-1.4999999999999998,9.66]},{"bufferView":9,"componentType":5126,"count":216,"type":"VEC3"},{"bufferView":10,"componentType":5126,"count":24,"type":"VEC3","min":[-1.54,-0.63,-14.304],"max":[1.54,4.7,7.355]},{"bufferView":11,"componentType":5126,"count":24,"type":"VEC3"},{"bufferView":12,"componentType":5126,"count":24,"type":"VEC2"},{"bufferView":13,"componentType":5126,"count":1272,"type":"VEC3","min":[-5.8914,-2.4863999999999997,-7.36],"max":[5.8914,0.8999999999999999,9.010000000000002]},{"bufferView":14,"componentType":5126,"count":1272,"type":"VEC3"}],"images":[{"uri":"../../airlines/JBU.png"}],"textures":[{"source":0,"sampler":0}],"samplers":[{"magFilter":9729,"minFilter":9987,"wrapS":33071,"wrapT":33071}]}