{"asset":{"version":"2.0","generator":"Skyward original fictional demonstration airline"},"scene":0,"scenes":[{"nodes":[0,1,5,6,7,8,9,10,11,12,13,14,15,16,17]}],"nodes":[{"mesh":0},{"mesh":1,"name":"Gear","children":[2,3,4]},{"mesh":2,"name":"WheelN","translation":[0,-3.0,6.67]},{"mesh":3,"name":"WheelL","translation":[-1.1199999999999999,-3.0,-2.3000000000000003]},{"mesh":4,"name":"WheelR","translation":[1.1199999999999999,-3.0,-2.3000000000000003]},{"mesh":5,"name":"SlatL"},{"mesh":6,"name":"FlapL"},{"mesh":7,"name":"SpoilerL"},{"mesh":8,"name":"ElevatorL"},{"mesh":9,"name":"SlatR"},{"mesh":10,"name":"FlapR"},{"mesh":11,"name":"SpoilerR"},{"mesh":12,"name":"ElevatorR"},{"mesh":13,"name":"Rudder"},{"mesh":14,"name":"FlexWingL"},{"mesh":15,"name":"FlexWingR"},{"name":"SkywardProp0","mesh":16},{"name":"SkywardProp1","mesh":17}],"meshes":[{"name":"AirframeWithCockpitGlazing","primitives":[{"indices":3,"attributes":{"POSITION":0,"NORMAL":1,"TEXCOORD_0":2},"material":0},{"indices":6,"attributes":{"POSITION":4,"NORMAL":5},"material":1},{"indices":9,"attributes":{"POSITION":7,"NORMAL":8},"material":2},{"attributes":{"POSITION":10,"NORMAL":11},"material":3,"indices":95},{"indices":101,"attributes":{"POSITION":12,"NORMAL":13,"TEXCOORD_0":14},"material":5},{"indices":18,"attributes":{"POSITION":16,"NORMAL":17},"material":6},{"indices":21,"attributes":{"POSITION":19,"NORMAL":20},"material":7},{"attributes":{"POSITION":98,"NORMAL":99,"TEXCOORD_0":100},"material":9}]},{"primitives":[{"indices":46,"attributes":{"POSITION":43,"NORMAL":44,"TEXCOORD_0":45},"material":0,"extras":{"gear":true}},{"indices":49,"attributes":{"POSITION":47,"NORMAL":48},"material":1,"extras":{"gear":true}},{"indices":52,"attributes":{"POSITION":50,"NORMAL":51},"material":6,"extras":{"gear":true}}]},{"primitives":[{"indices":24,"attributes":{"POSITION":22,"NORMAL":23},"material":4,"extras":{"wheel":0}},{"indices":82,"attributes":{"POSITION":80,"NORMAL":81},"material":6,"extras":{"wheel":0}}]},{"primitives":[{"indices":27,"attributes":{"POSITION":25,"NORMAL":26},"material":4,"extras":{"wheel":1}},{"indices":85,"attributes":{"POSITION":83,"NORMAL":84},"material":6,"extras":{"wheel":1}}]},{"primitives":[{"indices":30,"attributes":{"POSITION":28,"NORMAL":29},"material":4,"extras":{"wheel":2}},{"indices":88,"attributes":{"POSITION":86,"NORMAL":87},"material":6,"extras":{"wheel":2}}]},{"primitives":[{"indices":55,"attributes":{"POSITION":53,"NORMAL":54},"material":1,"extras":{"surface":0}}]},{"primitives":[{"indices":58,"attributes":{"POSITION":56,"NORMAL":57},"material":1,"extras":{"surface":1}}]},{"primitives":[{"indices":61,"attributes":{"POSITION":59,"NORMAL":60},"material":1,"extras":{"surface":2}}]},{"primitives":[{"indices":64,"attributes":{"POSITION":62,"NORMAL":63},"material":1,"extras":{"surface":3}}]},{"primitives":[{"indices":67,"attributes":{"POSITION":65,"NORMAL":66},"material":1,"extras":{"surface":4}}]},{"primitives":[{"indices":70,"attributes":{"POSITION":68,"NORMAL":69},"material":1,"extras":{"surface":5}}]},{"primitives":[{"indices":73,"attributes":{"POSITION":71,"NORMAL":72},"material":1,"extras":{"surface":6}}]},{"primitives":[{"indices":76,"attributes":{"POSITION":74,"NORMAL":75},"material":1,"extras":{"surface":7}}]},{"primitives":[{"indices":79,"attributes":{"POSITION":77,"NORMAL":78},"material":2,"extras":{"surface":8}}]},{"primitives":[{"indices":33,"attributes":{"POSITION":31,"NORMAL":32},"material":1,"extras":{"wing":0}},{"indices":36,"attributes":{"POSITION":34,"NORMAL":35},"material":6,"extras":{"wing":0}}]},{"primitives":[{"indices":39,"attributes":{"POSITION":37,"NORMAL":38},"material":1,"extras":{"wing":1}},{"indices":42,"attributes":{"POSITION":40,"NORMAL":41},"material":6,"extras":{"wing":1}}]},{"primitives":[{"attributes":{"POSITION":10,"NORMAL":11},"material":3,"indices":96}]},{"primitives":[{"attributes":{"POSITION":10,"NORMAL":11},"material":3,"indices":97}]}],"materials":[{"doubleSided":true,"pbrMetallicRoughness":{"baseColorFactor":[0.035,0.12,0.16,1],"metallicFactor":0.04,"roughnessFactor":0.27,"baseColorTexture":{"index":1}}},{"doubleSided":true,"pbrMetallicRoughness":{"baseColorFactor":[0.64,0.68,0.72,1],"metallicFactor":0.04,"roughnessFactor":0.4}},{"doubleSided":true,"pbrMetallicRoughness":{"baseColorFactor":[0.035,0.23,0.23,1],"metallicFactor":0.04,"roughnessFactor":0.27}},{"doubleSided":true,"pbrMetallicRoughness":{"baseColorFactor":[0.02,0.055,0.085,1],"metallicFactor":0,"roughnessFactor":0.12}},{"doubleSided":true,"pbrMetallicRoughness":{"baseColorFactor":[0.07,0.08,0.09,1],"metallicFactor":0,"roughnessFactor":0.86}},{"doubleSided":true,"pbrMetallicRoughness":{"baseColorFactor":[1,1,1,1],"metallicFactor":0,"roughnessFactor":0.75,"baseColorTexture":{"index":0}},"alphaMode":"MASK","alphaCutoff":0.08},{"doubleSided":true,"pbrMetallicRoughness":{"baseColorFactor":[0.36,0.4,0.44,1],"metallicFactor":0.8,"roughnessFactor":0.28}},{"doubleSided":true,"pbrMetallicRoughness":{"baseColorFactor":[0.035,0.23,0.23,1],"metallicFactor":0.04,"roughnessFactor":0.27}},{"name":"Operator title","doubleSided":true,"alphaMode":"MASK","alphaCutoff":0.15,"pbrMetallicRoughness":{"baseColorTexture":{"index":2},"baseColorFactor":[0.7843137254901961,0.09803921568627451,0.19607843137254902,1],"roughnessFactor":0.6,"metallicFactor":0}},{"doubleSided":true,"pbrMetallicRoughness":{"baseColorFactor":[1,1,1,1],"metallicFactor":0,"roughnessFactor":0.75,"baseColorTexture":{"index":3}},"alphaMode":"MASK","alphaCutoff":0.08,"name":"skyVVard fuselage title","emissiveTexture":{"index":3},"emissiveFactor":[0.25,0.25,0.25]}],"buffers":[{"uri":"turboprop-v4.bin?tail=2&rig=1&detail=6","byteLength":1002928},{"uri":"turboprop-title.bin?detail=6","byteLength":18432},{"uri":"turboprop-SKYWARD-decal.bin","byteLength":384},{"uri":"turboprop-rotor-indices.bin?detail=6","byteLength":61056},{"uri":"turboprop-SKYWARD-body-v3.bin","byteLength":6192}],"bufferViews":[{"buffer":0,"byteOffset":0,"byteLength":31980,"target":34962},{"buffer":0,"byteOffset":31980,"byteLength":31980,"target":34962},{"buffer":0,"byteOffset":63960,"byteLength":21320,"target":34962},{"buffer":0,"byteOffset":85280,"byteLength":61440,"target":34963},{"buffer":0,"byteOffset":146720,"byteLength":1080,"target":34962},{"buffer":0,"byteOffset":147800,"byteLength":1080,"target":34962},{"buffer":0,"byteOffset":148880,"byteLength":576,"target":34963},{"buffer":0,"byteOffset":149456,"byteLength":288,"target":34962},{"buffer":0,"byteOffset":149744,"byteLength":288,"target":34962},{"buffer":0,"byteOffset":150032,"byteLength":144,"target":34963},{"buffer":0,"byteOffset":150176,"byteLength":183168,"target":34962},{"buffer":0,"byteOffset":333344,"byteLength":183168,"target":34962},{"buffer":0,"byteOffset":516512,"byteLength":192,"target":34962},{"buffer":0,"byteOffset":516704,"byteLength":192,"target":34962},{"buffer":0,"byteOffset":516896,"byteLength":128,"target":34962},{"buffer":0,"byteOffset":517024,"byteLength":96,"target":34963},{"buffer":0,"byteOffset":517120,"byteLength":52416,"target":34962},{"buffer":0,"byteOffset":569536,"byteLength":52416,"target":34962},{"buffer":0,"byteOffset":621952,"byteLength":59136,"target":34963},{"buffer":0,"byteOffset":681088,"byteLength":20376,"target":34962},{"buffer":0,"byteOffset":701464,"byteLength":20376,"target":34962},{"buffer":0,"byteOffset":721840,"byteLength":36912,"target":34963},{"buffer":0,"byteOffset":758752,"byteLength":21504,"target":34962},{"buffer":0,"byteOffset":780256,"byteLength":21504,"target":34962},{"buffer":0,"byteOffset":801760,"byteLength":10752,"target":34963},{"buffer":0,"byteOffset":812512,"byteLength":21504,"target":34962},{"buffer":0,"byteOffset":834016,"byteLength":21504,"target":34962},{"buffer":0,"byteOffset":855520,"byteLength":10752,"target":34963},{"buffer":0,"byteOffset":866272,"byteLength":21504,"target":34962},{"buffer":0,"byteOffset":887776,"byteLength":21504,"target":34962},{"buffer":0,"byteOffset":909280,"byteLength":10752,"target":34963},{"buffer":0,"byteOffset":920032,"byteLength":6720,"target":34962},{"buffer":0,"byteOffset":926752,"byteLength":6720,"target":34962},{"buffer":0,"byteOffset":933472,"byteLength":2976,"target":34963},{"buffer":0,"byteOffset":936448,"byteLength":288,"target":34962},{"buffer":0,"byteOffset":936736,"byteLength":288,"target":34962},{"buffer":0,"byteOffset":937024,"byteLength":192,"target":34963},{"buffer":0,"byteOffset":937216,"byteLength":6720,"target":34962},{"buffer":0,"byteOffset":943936,"byteLength":6720,"target":34962},{"buffer":0,"byteOffset":950656,"byteLength":2976,"target":34963},{"buffer":0,"byteOffset":953632,"byteLength":288,"target":34962},{"buffer":0,"byteOffset":953920,"byteLength":288,"target":34962},{"buffer":0,"byteOffset":954208,"byteLength":192,"target":34963},{"buffer":0,"byteOffset":954400,"byteLength":864,"target":34962},{"buffer":0,"byteOffset":955264,"byteLength":864,"target":34962},{"buffer":0,"byteOffset":956128,"byteLength":576,"target":34962},{"buffer":0,"byteOffset":956704,"byteLength":432,"target":34963},{"buffer":0,"byteOffset":957136,"byteLength":2304,"target":34962},{"buffer":0,"byteOffset":959440,"byteLength":2304,"target":34962},{"buffer":0,"byteOffset":961744,"byteLength":1152,"target":34963},{"buffer":0,"byteOffset":962896,"byteLength":6912,"target":34962},{"buffer":0,"byteOffset":969808,"byteLength":6912,"target":34962},{"buffer":0,"byteOffset":976720,"byteLength":3456,"target":34963},{"buffer":0,"byteOffset":980176,"byteLength":432,"target":34962},{"buffer":0,"byteOffset":980608,"byteLength":432,"target":34962},{"buffer":0,"byteOffset":981040,"byteLength":144,"target":34963},{"buffer":0,"byteOffset":981184,"byteLength":864,"target":34962},{"buffer":0,"byteOffset":982048,"byteLength":864,"target":34962},{"buffer":0,"byteOffset":982912,"byteLength":288,"target":34963},{"buffer":0,"byteOffset":983200,"byteLength":144,"target":34962},{"buffer":0,"byteOffset":983344,"byteLength":144,"target":34962},{"buffer":0,"byteOffset":983488,"byteLength":48,"target":34963},{"buffer":0,"byteOffset":983536,"byteLength":288,"target":34962},{"buffer":0,"byteOffset":983824,"byteLength":288,"target":34962},{"buffer":0,"byteOffset":984112,"byteLength":144,"target":34963},{"buffer":0,"byteOffset":984256,"byteLength":432,"target":34962},{"buffer":0,"byteOffset":984688,"byteLength":432,"target":34962},{"buffer":0,"byteOffset":985120,"byteLength":144,"target":34963},{"buffer":0,"byteOffset":985264,"byteLength":864,"target":34962},{"buffer":0,"byteOffset":986128,"byteLength":864,"target":34962},{"buffer":0,"byteOffset":986992,"byteLength":288,"target":34963},{"buffer":0,"byteOffset":987280,"byteLength":144,"target":34962},{"buffer":0,"byteOffset":987424,"byteLength":144,"target":34962},{"buffer":0,"byteOffset":987568,"byteLength":48,"target":34963},{"buffer":0,"byteOffset":987616,"byteLength":288,"target":34962},{"buffer":0,"byteOffset":987904,"byteLength":288,"target":34962},{"buffer":0,"byteOffset":988192,"byteLength":144,"target":34963},{"buffer":0,"byteOffset":988336,"byteLength":168,"target":34962},{"buffer":0,"byteOffset":988504,"byteLength":168,"target":34962},{"buffer":0,"byteOffset":988672,"byteLength":144,"target":34963},{"buffer":0,"byteOffset":988816,"byteLength":1584,"target":34962},{"buffer":0,"byteOffset":990400,"byteLength":1584,"target":34962},{"buffer":0,"byteOffset":991984,"byteLength":1536,"target":34963},{"buffer":0,"byteOffset":993520,"byteLength":1584,"target":34962},{"buffer":0,"byteOffset":995104,"byteLength":1584,"target":34962},{"buffer":0,"byteOffset":996688,"byteLength":1536,"target":34963},{"buffer":0,"byteOffset":998224,"byteLength":1584,"target":34962},{"buffer":0,"byteOffset":999808,"byteLength":1584,"target":34962},{"buffer":0,"byteOffset":1001392,"byteLength":1536,"target":34963},{"buffer":1,"byteOffset":0,"byteLength":6912,"target":34962},{"buffer":1,"byteOffset":6912,"byteLength":6912,"target":34962},{"buffer":1,"byteOffset":13824,"byteLength":4608,"target":34962},{"buffer":2,"byteOffset":0,"byteLength":144,"target":34962},{"buffer":2,"byteOffset":144,"byteLength":144,"target":34962},{"buffer":2,"byteOffset":288,"byteLength":96,"target":34962},{"buffer":3,"byteOffset":0,"byteLength":59904,"target":34963},{"buffer":3,"byteOffset":59904,"byteLength":576,"target":34963},{"buffer":3,"byteOffset":60480,"byteLength":576,"target":34963},{"buffer":4,"byteOffset":0,"byteLength":2304,"target":34962},{"buffer":4,"byteOffset":2304,"byteLength":2304,"target":34962},{"buffer":4,"byteOffset":4608,"byteLength":1536,"target":34962},{"buffer":4,"byteOffset":6144,"byteLength":48,"target":34963}],"accessors":[{"bufferView":0,"componentType":5126,"count":2665,"type":"VEC3","min":[-1.4,-1.4,-11.5],"max":[1.4,1.4,11.5]},{"bufferView":1,"componentType":5126,"count":2665,"type":"VEC3"},{"bufferView":2,"componentType":5126,"count":2665,"type":"VEC2"},{"bufferView":3,"componentType":5125,"count":15360,"type":"SCALAR"},{"bufferView":4,"componentType":5126,"count":90,"type":"VEC3","min":[-5.08,0.27999999999999997,-10.695],"max":[4.800000000000001,1.24,1.0350000000000001]},{"bufferView":5,"componentType":5126,"count":90,"type":"VEC3"},{"bufferView":6,"componentType":5125,"count":144,"type":"SCALAR"},{"bufferView":7,"componentType":5126,"count":24,"type":"VEC3","min":[-0.1,0.5599999999999999,-10.695],"max":[0.1,4.734999999999999,-6.44]},{"bufferView":8,"componentType":5126,"count":24,"type":"VEC3"},{"bufferView":9,"componentType":5125,"count":36,"type":"SCALAR"},{"bufferView":10,"componentType":5126,"count":15264,"type":"VEC3","min":[-7.44,-2.12,-5.42],"max":[7.590000000000001,3.11,10.189]},{"bufferView":11,"componentType":5126,"count":15264,"type":"VEC3"},{"bufferView":12,"componentType":5126,"count":16,"type":"VEC3","min":[-1.44,-0.588,-10.304],"max":[1.44,3.8678999999999997,5.5600000000000005]},{"bufferView":13,"componentType":5126,"count":16,"type":"VEC3"},{"bufferView":14,"componentType":5126,"count":16,"type":"VEC2"},{"bufferView":15,"componentType":5125,"count":24,"type":"SCALAR"},{"bufferView":16,"componentType":5126,"count":4368,"type":"VEC3","min":[-5.558660000000001,-0.855,-5.65],"max":[5.558660000000001,1.1783850210130529,10.189]},{"bufferView":17,"componentType":5126,"count":4368,"type":"VEC3"},{"bufferView":18,"componentType":5125,"count":14784,"type":"SCALAR"},{"bufferView":19,"componentType":5126,"count":1698,"type":"VEC3","min":[-5.57,-0.84,-4.37],"max":[5.57,1.05,6.8999999999999995]},{"bufferView":20,"componentType":5126,"count":1698,"type":"VEC3"},{"bufferView":21,"componentType":5125,"count":9228,"type":"SCALAR"},{"bufferView":22,"componentType":5126,"count":1792,"type":"VEC3","min":[-0.41000000000000003,-0.4,-0.4],"max":[0.41000000000000003,0.4,0.4]},{"bufferView":23,"componentType":5126,"count":1792,"type":"VEC3"},{"bufferView":24,"componentType":5125,"count":2688,"type":"SCALAR"},{"bufferView":25,"componentType":5126,"count":1792,"type":"VEC3","min":[-0.41000000000000003,-0.4,-0.4],"max":[0.41000000000000003,0.4,0.4]},{"bufferView":26,"componentType":5126,"count":1792,"type":"VEC3"},{"bufferView":27,"componentType":5125,"count":2688,"type":"SCALAR"},{"bufferView":28,"componentType":5126,"count":1792,"type":"VEC3","min":[-0.41000000000000003,-0.4,-0.4],"max":[0.41000000000000003,0.4,0.4]},{"bufferView":29,"componentType":5126,"count":1792,"type":"VEC3"},{"bufferView":30,"componentType":5125,"count":2688,"type":"SCALAR"},{"bufferView":31,"componentType":5126,"count":560,"type":"VEC3","min":[-13.0,0.6069464216675268,-3.9100000000000006],"max":[-1.0499999999999998,1.3931110872992103,2.3000000000000003]},{"bufferView":32,"componentType":5126,"count":560,"type":"VEC3"},{"bufferView":33,"componentType":5125,"count":744,"type":"SCALAR"},{"bufferView":34,"componentType":5126,"count":24,"type":"VEC3","min":[-13.0,1.1104354269009362,-2.8108299999999997],"max":[-1.0499999999999998,1.378373530855695,-1.922800000000001]},{"bufferView":35,"componentType":5126,"count":24,"type":"VEC3"},{"bufferView":36,"componentType":5125,"count":48,"type":"SCALAR"},{"bufferView":37,"componentType":5126,"count":560,"type":"VEC3","min":[1.0499999999999998,0.6069464216675268,-3.9100000000000006],"max":[13.0,1.3931110872992103,2.3000000000000003]},{"bufferView":38,"componentType":5126,"count":560,"type":"VEC3"},{"bufferView":39,"componentType":5125,"count":744,"type":"SCALAR"},{"bufferView":40,"componentType":5126,"count":24,"type":"VEC3","min":[1.0499999999999998,1.1104354269009362,-2.8108299999999997],"max":[13.0,1.378373530855695,-1.922800000000001]},{"bufferView":41,"componentType":5126,"count":24,"type":"VEC3"},{"bufferView":42,"componentType":5125,"count":48,"type":"SCALAR"},{"bufferView":43,"componentType":5126,"count":72,"type":"VEC3","min":[-1.7399999999999998,-2.425,-2.95],"max":[0.6399999999999999,-1.025,7.32]},{"bufferView":44,"componentType":5126,"count":72,"type":"VEC3"},{"bufferView":45,"componentType":5126,"count":72,"type":"VEC2"},{"bufferView":46,"componentType":5125,"count":108,"type":"SCALAR"},{"bufferView":47,"componentType":5126,"count":192,"type":"VEC3","min":[-1.2399999999999998,-2.5999999999999996,-2.4200000000000004],"max":[1.2399999999999998,-2.0,6.79]},{"bufferView":48,"componentType":5126,"count":192,"type":"VEC3"},{"bufferView":49,"componentType":5125,"count":288,"type":"SCALAR"},{"bufferView":50,"componentType":5126,"count":576,"type":"VEC3","min":[-1.5399999999999998,-3.09,-2.39],"max":[1.5399999999999998,-0.9799999999999999,7.122912045934738]},{"bufferView":51,"componentType":5126,"count":576,"type":"VEC3"},{"bufferView":52,"componentType":5125,"count":864,"type":"SCALAR"},{"bufferView":53,"componentType":5126,"count":36,"type":"VEC3","min":[-11.700000000000001,0.7250013542030721,-0.7862923913732223],"max":[-1.0499999999999998,1.224449381780662,2.3000000000000003]},{"bufferView":54,"componentType":5126,"count":36,"type":"VEC3"},{"bufferView":55,"componentType":5125,"count":36,"type":"SCALAR"},{"bufferView":56,"componentType":5126,"count":72,"type":"VEC3","min":[-11.700000000000001,0.8306471368329359,-3.9100000000000006],"max":[-1.0499999999999998,1.2137349101856008,-2.8494900782009824]},{"bufferView":57,"componentType":5126,"count":72,"type":"VEC3"},{"bufferView":58,"componentType":5125,"count":72,"type":"SCALAR"},{"bufferView":59,"componentType":5126,"count":12,"type":"VEC3","min":[-11.700000000000001,1.16964626123882,-2.5874999999999995],"max":[-1.0499999999999998,1.2763529417995743,-1.608633135043327]},{"bufferView":60,"componentType":5126,"count":12,"type":"VEC3"},{"bufferView":61,"componentType":5125,"count":12,"type":"SCALAR"},{"bufferView":62,"componentType":5126,"count":24,"type":"VEC3","min":[-4.68,0.49999999999999994,-11.27],"max":[-0.5599999999999999,1.22,-9.545]},{"bufferView":63,"componentType":5126,"count":24,"type":"VEC3"},{"bufferView":64,"componentType":5125,"count":36,"type":"SCALAR"},{"bufferView":65,"componentType":5126,"count":36,"type":"VEC3","min":[1.0499999999999998,0.7250013542030721,-0.7862923913732223],"max":[11.700000000000001,1.224449381780662,2.3000000000000003]},{"bufferView":66,"componentType":5126,"count":36,"type":"VEC3"},{"bufferView":67,"componentType":5125,"count":36,"type":"SCALAR"},{"bufferView":68,"componentType":5126,"count":72,"type":"VEC3","min":[1.0499999999999998,0.8306471368329359,-3.9100000000000006],"max":[11.700000000000001,1.2137349101856008,-2.8494900782009824]},{"bufferView":69,"componentType":5126,"count":72,"type":"VEC3"},{"bufferView":70,"componentType":5125,"count":72,"type":"SCALAR"},{"bufferView":71,"componentType":5126,"count":12,"type":"VEC3","min":[1.0499999999999998,1.16964626123882,-2.5874999999999995],"max":[11.700000000000001,1.2763529417995743,-1.608633135043327]},{"bufferView":72,"componentType":5126,"count":12,"type":"VEC3"},{"bufferView":73,"componentType":5125,"count":12,"type":"SCALAR"},{"bufferView":74,"componentType":5126,"count":24,"type":"VEC3","min":[0.5599999999999999,0.49999999999999994,-11.27],"max":[4.68,1.22,-9.545]},{"bufferView":75,"componentType":5126,"count":24,"type":"VEC3"},{"bufferView":76,"componentType":5125,"count":36,"type":"SCALAR"},{"bufferView":77,"componentType":5126,"count":14,"type":"VEC3","min":[0,0.4799999999999999,-11.385],"max":[0,4.8149999999999995,-10.304]},{"bufferView":78,"componentType":5126,"count":14,"type":"VEC3"},{"bufferView":79,"componentType":5125,"count":36,"type":"SCALAR"},{"bufferView":80,"componentType":5126,"count":132,"type":"VEC3","min":[-0.41100000000000003,-0.22000000000000003,-0.22000000000000003],"max":[0.41100000000000003,0.22000000000000003,0.22000000000000003]},{"bufferView":81,"componentType":5126,"count":132,"type":"VEC3"},{"bufferView":82,"componentType":5125,"count":384,"type":"SCALAR"},{"bufferView":83,"componentType":5126,"count":132,"type":"VEC3","min":[-0.41100000000000003,-0.22000000000000003,-0.22000000000000003],"max":[0.41100000000000003,0.22000000000000003,0.22000000000000003]},{"bufferView":84,"componentType":5126,"count":132,"type":"VEC3"},{"bufferView":85,"componentType":5125,"count":384,"type":"SCALAR"},{"bufferView":86,"componentType":5126,"count":132,"type":"VEC3","min":[-0.41100000000000003,-0.22000000000000003,-0.22000000000000003],"max":[0.41100000000000003,0.22000000000000003,0.22000000000000003]},{"bufferView":87,"componentType":5126,"count":132,"type":"VEC3"},{"bufferView":88,"componentType":5125,"count":384,"type":"SCALAR"},{"bufferView":89,"componentType":5126,"count":576,"type":"VEC3","min":[-1.3341332244453472,0.504,-2.76],"max":[1.3341332244453472,0.854,5.75]},{"bufferView":90,"componentType":5126,"count":576,"type":"VEC3"},{"bufferView":91,"componentType":5126,"count":576,"type":"VEC2"},{"bufferView":92,"componentType":5126,"count":12,"type":"VEC3","min":[-1.3854313985181654,0.27999999999999997,-2.76],"max":[1.3854313985181654,0.9099999999999999,5.52]},{"bufferView":93,"componentType":5126,"count":12,"type":"VEC3"},{"bufferView":94,"componentType":5126,"count":12,"type":"VEC2"},{"bufferView":95,"componentType":5125,"count":14976,"type":"SCALAR"},{"bufferView":96,"componentType":5125,"count":144,"type":"SCALAR"},{"bufferView":97,"componentType":5125,"count":144,"type":"SCALAR"},{"bufferView":98,"componentType":5126,"count":192,"type":"VEC3","min":[-1.43,-0.77,0.36999999999999966],"max":[1.43,0.77,6.529999999999999]},{"bufferView":99,"componentType":5126,"count":192,"type":"VEC3"},{"bufferView":100,"componentType":5126,"count":192,"type":"VEC2"},{"bufferView":101,"componentType":5125,"count":12,"type":"SCALAR"}],"images":[{"uri":"../../airlines/SKYWARD-tail-v2.png"},{"uri":"fallback-paint-v5.png"},{"uri":"title-THY.png"},{"uri":"../../airlines/SKYWARD-body-v3.png"}],"textures":[{"source":0,"sampler":0},{"source":1,"sampler":0},{"source":2,"sampler":0},{"source":3,"sampler":0}],"samplers":[{"magFilter":9729,"minFilter":9987,"wrapS":33071,"wrapT":33071}]}