{"asset":{"version":"2.0","generator":"Skyward detailed procedural turboprop fallback v5; approximate airframe; operator identification logos"},"scene":0,"scenes":[{"nodes":[0,1,5,6,7,8]}],"nodes":[{"mesh":0},{"mesh":1,"name":"Gear","children":[2,3,4]},{"mesh":2,"name":"WheelN","translation":[0,-3.0,6.67]},{"mesh":3,"name":"WheelL","translation":[-1.1199999999999999,-3.0,-2.3000000000000003]},{"mesh":4,"name":"WheelR","translation":[1.1199999999999999,-3.0,-2.3000000000000003]},{"mesh":5,"name":"FlexWingL"},{"mesh":6,"name":"FlexWingR"},{"name":"SkywardProp0","mesh":7},{"name":"SkywardProp1","mesh":8}],"meshes":[{"name":"AirframeWithCockpitGlazing","primitives":[{"indices":3,"attributes":{"POSITION":0,"NORMAL":1,"TEXCOORD_0":2},"material":0},{"indices":6,"attributes":{"POSITION":4,"NORMAL":5},"material":1},{"indices":9,"attributes":{"POSITION":7,"NORMAL":8},"material":2},{"attributes":{"POSITION":10,"NORMAL":11},"material":3,"indices":49},{"indices":15,"attributes":{"POSITION":12,"NORMAL":13,"TEXCOORD_0":14},"material":5},{"indices":18,"attributes":{"POSITION":16,"NORMAL":17},"material":6},{"indices":21,"attributes":{"POSITION":19,"NORMAL":20},"material":7}]},{"primitives":[{"indices":45,"attributes":{"POSITION":43,"NORMAL":44},"material":1,"extras":{"gear":true}},{"indices":48,"attributes":{"POSITION":46,"NORMAL":47},"material":6,"extras":{"gear":true}}]},{"primitives":[{"indices":24,"attributes":{"POSITION":22,"NORMAL":23},"material":4,"extras":{"wheel":0}}]},{"primitives":[{"indices":27,"attributes":{"POSITION":25,"NORMAL":26},"material":4,"extras":{"wheel":1}}]},{"primitives":[{"indices":30,"attributes":{"POSITION":28,"NORMAL":29},"material":4,"extras":{"wheel":2}}]},{"primitives":[{"indices":33,"attributes":{"POSITION":31,"NORMAL":32},"material":1,"extras":{"wing":0}},{"indices":36,"attributes":{"POSITION":34,"NORMAL":35},"material":6,"extras":{"wing":0}}]},{"primitives":[{"indices":39,"attributes":{"POSITION":37,"NORMAL":38},"material":1,"extras":{"wing":1}},{"indices":42,"attributes":{"POSITION":40,"NORMAL":41},"material":6,"extras":{"wing":1}}]},{"primitives":[{"attributes":{"POSITION":10,"NORMAL":11},"material":3,"indices":50}]},{"primitives":[{"attributes":{"POSITION":10,"NORMAL":11},"material":3,"indices":51}]}],"materials":[{"doubleSided":true,"pbrMetallicRoughness":{"baseColorFactor":[0.03,0.16,0.6,1],"metallicFactor":0.04,"roughnessFactor":0.27,"baseColorTexture":{"index":1}}},{"doubleSided":true,"pbrMetallicRoughness":{"baseColorFactor":[0.64,0.68,0.72,1],"metallicFactor":0.04,"roughnessFactor":0.4}},{"doubleSided":true,"pbrMetallicRoughness":{"baseColorFactor":[0.1450980392156863,0.2980392156862745,0.7607843137254902,1],"metallicFactor":0.04,"roughnessFactor":0.27}},{"doubleSided":true,"pbrMetallicRoughness":{"baseColorFactor":[0.02,0.055,0.085,1],"metallicFactor":0,"roughnessFactor":0.12}},{"doubleSided":true,"pbrMetallicRoughness":{"baseColorFactor":[0.07,0.08,0.09,1],"metallicFactor":0,"roughnessFactor":0.86}},{"doubleSided":true,"pbrMetallicRoughness":{"baseColorFactor":[1,1,1,1],"metallicFactor":0,"roughnessFactor":0.75,"baseColorTexture":{"index":0}},"alphaMode":"MASK","alphaCutoff":0.08},{"doubleSided":true,"pbrMetallicRoughness":{"baseColorFactor":[0.36,0.4,0.44,1],"metallicFactor":0.8,"roughnessFactor":0.28}},{"doubleSided":true,"pbrMetallicRoughness":{"baseColorFactor":[0.1450980392156863,0.2980392156862745,0.7607843137254902,1],"metallicFactor":0.04,"roughnessFactor":0.27}}],"buffers":[{"uri":"turboprop-v4.bin?tail=2&rig=1&detail=5","byteLength":904576},{"uri":"turboprop-rotor-indices.bin?detail=5","byteLength":61056}],"bufferViews":[{"buffer":0,"byteOffset":0,"byteLength":31980,"target":34962},{"buffer":0,"byteOffset":31980,"byteLength":31980,"target":34962},{"buffer":0,"byteOffset":63960,"byteLength":21320,"target":34962},{"buffer":0,"byteOffset":85280,"byteLength":61440,"target":34963},{"buffer":0,"byteOffset":146720,"byteLength":1080,"target":34962},{"buffer":0,"byteOffset":147800,"byteLength":1080,"target":34962},{"buffer":0,"byteOffset":148880,"byteLength":576,"target":34963},{"buffer":0,"byteOffset":149456,"byteLength":288,"target":34962},{"buffer":0,"byteOffset":149744,"byteLength":288,"target":34962},{"buffer":0,"byteOffset":150032,"byteLength":144,"target":34963},{"buffer":0,"byteOffset":150176,"byteLength":183168,"target":34962},{"buffer":0,"byteOffset":333344,"byteLength":183168,"target":34962},{"buffer":0,"byteOffset":516512,"byteLength":192,"target":34962},{"buffer":0,"byteOffset":516704,"byteLength":192,"target":34962},{"buffer":0,"byteOffset":516896,"byteLength":128,"target":34962},{"buffer":0,"byteOffset":517024,"byteLength":96,"target":34963},{"buffer":0,"byteOffset":517120,"byteLength":44616,"target":34962},{"buffer":0,"byteOffset":561736,"byteLength":44616,"target":34962},{"buffer":0,"byteOffset":606352,"byteLength":46848,"target":34963},{"buffer":0,"byteOffset":653200,"byteLength":20376,"target":34962},{"buffer":0,"byteOffset":673576,"byteLength":20376,"target":34962},{"buffer":0,"byteOffset":693952,"byteLength":36912,"target":34963},{"buffer":0,"byteOffset":730864,"byteLength":14424,"target":34962},{"buffer":0,"byteOffset":745288,"byteLength":14424,"target":34962},{"buffer":0,"byteOffset":759712,"byteLength":7680,"target":34963},{"buffer":0,"byteOffset":767392,"byteLength":14424,"target":34962},{"buffer":0,"byteOffset":781816,"byteLength":14424,"target":34962},{"buffer":0,"byteOffset":796240,"byteLength":7680,"target":34963},{"buffer":0,"byteOffset":803920,"byteLength":14424,"target":34962},{"buffer":0,"byteOffset":818344,"byteLength":14424,"target":34962},{"buffer":0,"byteOffset":832768,"byteLength":7680,"target":34963},{"buffer":0,"byteOffset":840448,"byteLength":8160,"target":34962},{"buffer":0,"byteOffset":848608,"byteLength":8160,"target":34962},{"buffer":0,"byteOffset":856768,"byteLength":3456,"target":34963},{"buffer":0,"byteOffset":860224,"byteLength":288,"target":34962},{"buffer":0,"byteOffset":860512,"byteLength":288,"target":34962},{"buffer":0,"byteOffset":860800,"byteLength":192,"target":34963},{"buffer":0,"byteOffset":860992,"byteLength":8160,"target":34962},{"buffer":0,"byteOffset":869152,"byteLength":8160,"target":34962},{"buffer":0,"byteOffset":877312,"byteLength":3456,"target":34963},{"buffer":0,"byteOffset":880768,"byteLength":288,"target":34962},{"buffer":0,"byteOffset":881056,"byteLength":288,"target":34962},{"buffer":0,"byteOffset":881344,"byteLength":192,"target":34963},{"buffer":0,"byteOffset":881536,"byteLength":2304,"target":34962},{"buffer":0,"byteOffset":883840,"byteLength":2304,"target":34962},{"buffer":0,"byteOffset":886144,"byteLength":1152,"target":34963},{"buffer":0,"byteOffset":887296,"byteLength":6912,"target":34962},{"buffer":0,"byteOffset":894208,"byteLength":6912,"target":34962},{"buffer":0,"byteOffset":901120,"byteLength":3456,"target":34963},{"buffer":1,"byteOffset":0,"byteLength":59904,"target":34963},{"buffer":1,"byteOffset":59904,"byteLength":576,"target":34963},{"buffer":1,"byteOffset":60480,"byteLength":576,"target":34963}],"accessors":[{"bufferView":0,"componentType":5126,"count":2665,"type":"VEC3","min":[-1.4,-1.4,-11.5],"max":[1.4,1.4,11.5]},{"bufferView":1,"componentType":5126,"count":2665,"type":"VEC3"},{"bufferView":2,"componentType":5126,"count":2665,"type":"VEC2"},{"bufferView":3,"componentType":5125,"count":15360,"type":"SCALAR"},{"bufferView":4,"componentType":5126,"count":90,"type":"VEC3","min":[-5.08,-0.7,-11.27],"max":[4.800000000000001,1.24,1.0350000000000001]},{"bufferView":5,"componentType":5126,"count":90,"type":"VEC3"},{"bufferView":6,"componentType":5125,"count":144,"type":"SCALAR"},{"bufferView":7,"componentType":5126,"count":24,"type":"VEC3","min":[-0.1,0.5599999999999999,-11.385],"max":[0.1,4.734999999999999,-6.44]},{"bufferView":8,"componentType":5126,"count":24,"type":"VEC3"},{"bufferView":9,"componentType":5125,"count":36,"type":"SCALAR"},{"bufferView":10,"componentType":5126,"count":15264,"type":"VEC3","min":[-7.44,-2.12,-5.42],"max":[7.590000000000001,3.11,10.189]},{"bufferView":11,"componentType":5126,"count":15264,"type":"VEC3"},{"bufferView":12,"componentType":5126,"count":16,"type":"VEC3","min":[-1.44,-0.588,-10.304],"max":[1.44,3.953,5.5600000000000005]},{"bufferView":13,"componentType":5126,"count":16,"type":"VEC3"},{"bufferView":14,"componentType":5126,"count":16,"type":"VEC2"},{"bufferView":15,"componentType":5125,"count":24,"type":"SCALAR"},{"bufferView":16,"componentType":5126,"count":3718,"type":"VEC3","min":[-5.5322000000000005,-0.855,-5.65],"max":[5.5322000000000005,1.1783850210130529,10.189]},{"bufferView":17,"componentType":5126,"count":3718,"type":"VEC3"},{"bufferView":18,"componentType":5125,"count":11712,"type":"SCALAR"},{"bufferView":19,"componentType":5126,"count":1698,"type":"VEC3","min":[-5.57,-0.84,-4.37],"max":[5.57,1.05,6.8999999999999995]},{"bufferView":20,"componentType":5126,"count":1698,"type":"VEC3"},{"bufferView":21,"componentType":5125,"count":9228,"type":"SCALAR"},{"bufferView":22,"componentType":5126,"count":1202,"type":"VEC3","min":[-0.25,-0.4,-0.4],"max":[0.25,0.4,0.4]},{"bufferView":23,"componentType":5126,"count":1202,"type":"VEC3"},{"bufferView":24,"componentType":5125,"count":1920,"type":"SCALAR"},{"bufferView":25,"componentType":5126,"count":1202,"type":"VEC3","min":[-0.25,-0.4,-0.4],"max":[0.25,0.4,0.4]},{"bufferView":26,"componentType":5126,"count":1202,"type":"VEC3"},{"bufferView":27,"componentType":5125,"count":1920,"type":"SCALAR"},{"bufferView":28,"componentType":5126,"count":1202,"type":"VEC3","min":[-0.25,-0.4,-0.4],"max":[0.25,0.4,0.4]},{"bufferView":29,"componentType":5126,"count":1202,"type":"VEC3"},{"bufferView":30,"componentType":5125,"count":1920,"type":"SCALAR"},{"bufferView":31,"componentType":5126,"count":680,"type":"VEC3","min":[-13.0,0.6069464216675268,-3.9100000000000006],"max":[-1.0499999999999998,1.3931110872992103,2.3000000000000003]},{"bufferView":32,"componentType":5126,"count":680,"type":"VEC3"},{"bufferView":33,"componentType":5125,"count":864,"type":"SCALAR"},{"bufferView":34,"componentType":5126,"count":24,"type":"VEC3","min":[-13.0,1.1104354269009362,-2.8108299999999997],"max":[-1.0499999999999998,1.378373530855695,-1.922800000000001]},{"bufferView":35,"componentType":5126,"count":24,"type":"VEC3"},{"bufferView":36,"componentType":5125,"count":48,"type":"SCALAR"},{"bufferView":37,"componentType":5126,"count":680,"type":"VEC3","min":[1.0499999999999998,0.6069464216675268,-3.9100000000000006],"max":[13.0,1.3931110872992103,2.3000000000000003]},{"bufferView":38,"componentType":5126,"count":680,"type":"VEC3"},{"bufferView":39,"componentType":5125,"count":864,"type":"SCALAR"},{"bufferView":40,"componentType":5126,"count":24,"type":"VEC3","min":[1.0499999999999998,1.1104354269009362,-2.8108299999999997],"max":[13.0,1.378373530855695,-1.922800000000001]},{"bufferView":41,"componentType":5126,"count":24,"type":"VEC3"},{"bufferView":42,"componentType":5125,"count":48,"type":"SCALAR"},{"bufferView":43,"componentType":5126,"count":192,"type":"VEC3","min":[-1.2399999999999998,-2.5999999999999996,-2.4200000000000004],"max":[1.2399999999999998,-2.0,6.79]},{"bufferView":44,"componentType":5126,"count":192,"type":"VEC3"},{"bufferView":45,"componentType":5125,"count":288,"type":"SCALAR"},{"bufferView":46,"componentType":5126,"count":576,"type":"VEC3","min":[-1.41,-3.2,-2.5000000000000004],"max":[1.41,-0.9799999999999999,7.122912045934738]},{"bufferView":47,"componentType":5126,"count":576,"type":"VEC3"},{"bufferView":48,"componentType":5125,"count":864,"type":"SCALAR"},{"bufferView":49,"componentType":5125,"count":14976,"type":"SCALAR"},{"bufferView":50,"componentType":5125,"count":144,"type":"SCALAR"},{"bufferView":51,"componentType":5125,"count":144,"type":"SCALAR"}],"images":[{"uri":"../../airlines/SWA.png"},{"uri":"fallback-paint-v5.png"}],"textures":[{"source":0,"sampler":0},{"source":1,"sampler":0}],"samplers":[{"magFilter":9729,"minFilter":9987,"wrapS":33071,"wrapT":33071}]}