{"asset":{"version":"2.0","generator":"Skyward original illustrative turboprop profile; logos for operator identification"},"scene":0,"scenes":[{"nodes":[0,1,5,6]}],"nodes":[{"mesh":0},{"mesh":1,"name":"Gear","children":[2,3,4]},{"mesh":2,"name":"WheelN","translation":[0,-3.0,6.67]},{"mesh":3,"name":"WheelL","translation":[-1.1199999999999999,-3.0,-2.3000000000000003]},{"mesh":4,"name":"WheelR","translation":[1.1199999999999999,-3.0,-2.3000000000000003]},{"name":"SkywardProp0","mesh":5},{"name":"SkywardProp1","mesh":6}],"meshes":[{"primitives":[{"attributes":{"POSITION":0,"NORMAL":1},"material":0},{"attributes":{"POSITION":2,"NORMAL":3},"material":1},{"attributes":{"POSITION":4,"NORMAL":5},"material":2},{"attributes":{"POSITION":6,"NORMAL":7},"material":3,"indices":23},{"attributes":{"POSITION":10,"NORMAL":11,"TEXCOORD_0":12},"material":5},{"attributes":{"POSITION":13,"NORMAL":14},"material":6},{"attributes":{"POSITION":15,"NORMAL":16},"material":7}]},{"primitives":[{"attributes":{"POSITION":8,"NORMAL":9},"material":4}]},{"primitives":[{"attributes":{"POSITION":17,"NORMAL":18},"material":4,"extras":{"wheel":0}}]},{"primitives":[{"attributes":{"POSITION":19,"NORMAL":20},"material":4,"extras":{"wheel":1}}]},{"primitives":[{"attributes":{"POSITION":21,"NORMAL":22},"material":4,"extras":{"wheel":2}}]},{"primitives":[{"attributes":{"POSITION":6,"NORMAL":7},"material":3,"indices":24}]},{"primitives":[{"attributes":{"POSITION":6,"NORMAL":7},"material":3,"indices":25}]}],"materials":[{"doubleSided":true,"pbrMetallicRoughness":{"baseColorFactor":[0.94,0.95,0.96,1],"metallicFactor":0.18,"roughnessFactor":0.3}},{"doubleSided":true,"pbrMetallicRoughness":{"baseColorFactor":[0.64,0.68,0.72,1],"metallicFactor":0.18,"roughnessFactor":0.3}},{"doubleSided":true,"pbrMetallicRoughness":{"baseColorFactor":[0.7725490196078432,0.09803921568627451,0.4823529411764706,1],"metallicFactor":0.18,"roughnessFactor":0.3}},{"doubleSided":true,"pbrMetallicRoughness":{"baseColorFactor":[0.02,0.055,0.085,1],"metallicFactor":0.18,"roughnessFactor":0.17}},{"doubleSided":true,"pbrMetallicRoughness":{"baseColorFactor":[0.07,0.08,0.09,1],"metallicFactor":0.18,"roughnessFactor":0.3}},{"doubleSided":true,"pbrMetallicRoughness":{"baseColorFactor":[1,1,1,1],"metallicFactor":0,"roughnessFactor":0.75,"baseColorTexture":{"index":0}},"alphaMode":"MASK","alphaCutoff":0.08},{"doubleSided":true,"pbrMetallicRoughness":{"baseColorFactor":[0.36,0.4,0.44,1],"metallicFactor":0.7,"roughnessFactor":0.3}},{"doubleSided":true,"pbrMetallicRoughness":{"baseColorFactor":[0.7725490196078432,0.09803921568627451,0.4823529411764706,1],"metallicFactor":0.18,"roughnessFactor":0.3}}],"buffers":[{"uri":"turboprop-v4.bin?tail=2","byteLength":236928},{"uri":"turboprop-rotor-indices.bin","byteLength":9648}],"bufferViews":[{"buffer":0,"byteOffset":0,"byteLength":34560,"target":34962},{"buffer":0,"byteOffset":34560,"byteLength":34560,"target":34962},{"buffer":0,"byteOffset":69120,"byteLength":2880,"target":34962},{"buffer":0,"byteOffset":72000,"byteLength":2880,"target":34962},{"buffer":0,"byteOffset":74880,"byteLength":432,"target":34962},{"buffer":0,"byteOffset":75312,"byteLength":432,"target":34962},{"buffer":0,"byteOffset":75744,"byteLength":28944,"target":34962},{"buffer":0,"byteOffset":104688,"byteLength":28944,"target":34962},{"buffer":0,"byteOffset":133632,"byteLength":1296,"target":34962},{"buffer":0,"byteOffset":134928,"byteLength":1296,"target":34962},{"buffer":0,"byteOffset":136224,"byteLength":288,"target":34962},{"buffer":0,"byteOffset":136512,"byteLength":288,"target":34962},{"buffer":0,"byteOffset":136800,"byteLength":192,"target":34962},{"buffer":0,"byteOffset":136992,"byteLength":15264,"target":34962},{"buffer":0,"byteOffset":152256,"byteLength":15264,"target":34962},{"buffer":0,"byteOffset":167520,"byteLength":20880,"target":34962},{"buffer":0,"byteOffset":188400,"byteLength":20880,"target":34962},{"buffer":0,"byteOffset":209280,"byteLength":4608,"target":34962},{"buffer":0,"byteOffset":213888,"byteLength":4608,"target":34962},{"buffer":0,"byteOffset":218496,"byteLength":4608,"target":34962},{"buffer":0,"byteOffset":223104,"byteLength":4608,"target":34962},{"buffer":0,"byteOffset":227712,"byteLength":4608,"target":34962},{"buffer":0,"byteOffset":232320,"byteLength":4608,"target":34962},{"buffer":1,"byteOffset":0,"byteLength":8496,"target":34963},{"buffer":1,"byteOffset":8496,"byteLength":576,"target":34963},{"buffer":1,"byteOffset":9072,"byteLength":576,"target":34963}],"accessors":[{"bufferView":0,"componentType":5126,"count":2880,"type":"VEC3","min":[-1.4,-1.4,-11.5],"max":[1.4,1.4,11.5]},{"bufferView":1,"componentType":5126,"count":2880,"type":"VEC3"},{"bufferView":2,"componentType":5126,"count":240,"type":"VEC3","min":[-13.0,-0.7,-11.27],"max":[13.0,1.24,2.3000000000000003]},{"bufferView":3,"componentType":5126,"count":240,"type":"VEC3"},{"bufferView":4,"componentType":5126,"count":36,"type":"VEC3","min":[-0.1,0.5599999999999999,-11.385],"max":[0.1,4.734999999999999,-6.44]},{"bufferView":5,"componentType":5126,"count":36,"type":"VEC3"},{"bufferView":6,"componentType":5126,"count":2412,"type":"VEC3","min":[-7.44,-2.12,-5.42],"max":[7.590000000000001,3.11,9.545]},{"bufferView":7,"componentType":5126,"count":2412,"type":"VEC3"},{"bufferView":8,"componentType":5126,"count":108,"type":"VEC3","min":[-1.22,-3.0,-2.4000000000000004],"max":[1.22,-1.4000000000000001,6.77]},{"bufferView":9,"componentType":5126,"count":108,"type":"VEC3"},{"bufferView":10,"componentType":5126,"count":24,"type":"VEC3","min":[-1.44,-0.588,-10.304],"max":[1.44,3.953,5.5600000000000005]},{"bufferView":11,"componentType":5126,"count":24,"type":"VEC3"},{"bufferView":12,"componentType":5126,"count":24,"type":"VEC2"},{"bufferView":13,"componentType":5126,"count":1272,"type":"VEC3","min":[-5.5322000000000005,-0.42,-5.29],"max":[5.5322000000000005,1.0122,6.49]},{"bufferView":14,"componentType":5126,"count":1272,"type":"VEC3"},{"bufferView":15,"componentType":5126,"count":1740,"type":"VEC3","min":[-5.57,-0.84,-4.37],"max":[5.57,1.05,6.8999999999999995]},{"bufferView":16,"componentType":5126,"count":1740,"type":"VEC3"},{"bufferView":17,"componentType":5126,"count":384,"type":"VEC3","min":[-0.25,-0.4,-0.4],"max":[0.25,0.4,0.4]},{"bufferView":18,"componentType":5126,"count":384,"type":"VEC3"},{"bufferView":19,"componentType":5126,"count":384,"type":"VEC3","min":[-0.25,-0.4,-0.4],"max":[0.25,0.4,0.4]},{"bufferView":20,"componentType":5126,"count":384,"type":"VEC3"},{"bufferView":21,"componentType":5126,"count":384,"type":"VEC3","min":[-0.25,-0.4,-0.4],"max":[0.25,0.4,0.4]},{"bufferView":22,"componentType":5126,"count":384,"type":"VEC3"},{"bufferView":23,"componentType":5125,"count":2124,"type":"SCALAR"},{"bufferView":24,"componentType":5125,"count":144,"type":"SCALAR"},{"bufferView":25,"componentType":5125,"count":144,"type":"SCALAR"}],"images":[{"uri":"../../airlines/WZZ.png"}],"textures":[{"source":0,"sampler":0}],"samplers":[{"magFilter":9729,"minFilter":9987,"wrapS":33071,"wrapT":33071}]}