{"accessors":[{"bufferView":4,"componentType":5123,"count":16209,"max":[4774],"min":[0],"type":"SCALAR"},{"bufferView":5,"componentType":5126,"count":4775,"max":[1.1989046335220337,2.265758752822876,4.364345073699951],"min":[-1.1778653860092163,-0.48635002970695496,-6.174914836883545],"type":"VEC3"},{"bufferView":6,"componentType":5126,"count":4775,"type":"VEC3"},{"bufferView":7,"componentType":5126,"count":4775,"type":"VEC4"},{"bufferView":8,"componentType":5126,"count":4775,"max":[469.89300537109375,43.05070114135742],"min":[-470.42999267578125,-1551.1400146484375],"type":"VEC2"},{"bufferView":9,"componentType":5123,"count":1728,"max":[545],"min":[0],"type":"SCALAR"},{"bufferView":10,"componentType":5126,"count":546,"max":[0.29835790395736694,2.1673099994659424,1.5889040231704712],"min":[-0.3020420968532562,1.3395800590515137,0.9884430766105652],"type":"VEC3"},{"bufferView":11,"componentType":5126,"count":546,"type":"VEC3"},{"bufferView":12,"componentType":5126,"count":546,"type":"VEC4"},{"bufferView":13,"componentType":5126,"count":546,"max":[300.0669860839844,301.6340026855469],"min":[-300.3949890136719,-298.8290100097656],"type":"VEC2"},{"bufferView":14,"componentType":5123,"count":3372,"max":[843],"min":[0],"type":"SCALAR"},{"bufferView":15,"componentType":5126,"count":844,"max":[0.19779573380947113,2.2464187145233154,-1.6204149723052979],"min":[-0.25241050124168396,0.3180367946624756,-6.30196475982666],"type":"VEC3"},{"bufferView":16,"componentType":5126,"count":844,"type":"VEC3"},{"bufferView":17,"componentType":5126,"count":844,"type":"VEC4"},{"bufferView":18,"componentType":5126,"count":844,"max":[0.9589099884033203,0.9585699997842312],"min":[0.042750000953674316,0.032260000705718994],"type":"VEC2"},{"bufferView":19,"componentType":5123,"count":3960,"max":[1163],"min":[0],"type":"SCALAR"},{"bufferView":20,"componentType":5126,"count":1164,"max":[1.2156447172164917,2.2859086990356445,4.209675312042236],"min":[-1.184435486793518,-0.40123993158340454,-6.253554821014404],"type":"VEC3"},{"bufferView":21,"componentType":5126,"count":1164,"type":"VEC3"},{"bufferView":22,"componentType":5126,"count":1164,"type":"VEC4"},{"bufferView":23,"componentType":5126,"count":1164,"max":[1200.3800048828125,7543.43994140625],"min":[-1199.8299560546875,-2925.89990234375],"type":"VEC2"},{"bufferView":24,"componentType":5123,"count":13917,"max":[5492],"min":[0],"type":"SCALAR"},{"bufferView":25,"componentType":5126,"count":5493,"max":[0.8011069297790527,0.9634490609169006,4.205355167388916],"min":[-0.7517160773277283,-0.4343099892139435,0.44147709012031555],"type":"VEC3"},{"bufferView":26,"componentType":5126,"count":5493,"type":"VEC3"},{"bufferView":27,"componentType":5126,"count":5493,"type":"VEC4"},{"bufferView":28,"componentType":5126,"count":5493,"max":[0.9989500045776367,0.9877599999308586],"min":[0,0],"type":"VEC2"},{"bufferView":29,"componentType":5123,"count":1257,"max":[416],"min":[0],"type":"SCALAR"},{"bufferView":30,"componentType":5126,"count":417,"max":[0.25910550355911255,1.8036398887634277,-4.879264831542969],"min":[-0.04462151229381561,0.576826810836792,-6.319115161895752],"type":"VEC3"},{"bufferView":31,"componentType":5126,"count":417,"type":"VEC3"},{"bufferView":32,"componentType":5126,"count":417,"type":"VEC4"},{"bufferView":33,"componentType":5126,"count":417,"max":[0.9920700192451477,0.6609799861907959],"min":[0.7028099894523621,0.0071700215339660645],"type":"VEC2"},{"bufferView":34,"componentType":5123,"count":24552,"max":[7301],"min":[0],"type":"SCALAR"},{"bufferView":35,"componentType":5126,"count":7302,"max":[1.3081849813461304,1.7281889915466309,4.239875316619873],"min":[-1.2235050201416016,-1.06413996219635,-6.527315139770508],"type":"VEC3"},{"bufferView":36,"componentType":5126,"count":7302,"type":"VEC3"},{"bufferView":37,"componentType":5126,"count":7302,"type":"VEC4"},{"bufferView":38,"componentType":5126,"count":7302,"max":[0.89069002866745,0.9265900030732155],"min":[0.0035800000187009573,0.029160022735595703],"type":"VEC2"},{"bufferView":39,"componentType":5123,"count":9768,"max":[4294],"min":[0],"type":"SCALAR"},{"bufferView":40,"componentType":5126,"count":4295,"max":[5.251924991607666,2.3638501167297363,6.527315139770508],"min":[-5.251924991607666,1.3866510391235352,-3.9646852016448975],"type":"VEC3"},{"bufferView":41,"componentType":5126,"count":4295,"type":"VEC3"},{"bufferView":42,"componentType":5126,"count":4295,"type":"VEC4"},{"bufferView":43,"componentType":5126,"count":4295,"max":[0.9879599809646606,0.6800900101661682],"min":[0.041200000792741776,0.16333997249603271],"type":"VEC2"}],"asset":{"generator":"Khronos Blender glTF 2.0 exporter","version":"2.0","copyright":"FlightGear model authors / FlightAirMap contributors; GPL-2.0. See source/flightairmap/b407/ for license and editable sources."},"bufferViews":[{"buffer":0,"byteLength":230493,"byteOffset":0},{"buffer":0,"byteLength":652778,"byteOffset":230493},{"buffer":0,"byteLength":485897,"byteOffset":883271},{"buffer":0,"byteLength":327626,"byteOffset":1369168},{"buffer":0,"byteLength":32418,"byteOffset":1696794,"target":34963},{"buffer":0,"byteLength":57300,"byteOffset":1729212,"target":34962},{"buffer":0,"byteLength":57300,"byteOffset":1786512,"target":34962},{"buffer":0,"byteLength":76400,"byteOffset":1843812,"target":34962},{"buffer":0,"byteLength":38200,"byteOffset":1920212,"target":34962},{"buffer":0,"byteLength":3456,"byteOffset":1958412,"target":34963},{"buffer":0,"byteLength":6552,"byteOffset":1961868,"target":34962},{"buffer":0,"byteLength":6552,"byteOffset":1968420,"target":34962},{"buffer":0,"byteLength":8736,"byteOffset":1974972,"target":34962},{"buffer":0,"byteLength":4368,"byteOffset":1983708,"target":34962},{"buffer":0,"byteLength":6744,"byteOffset":1988076,"target":34963},{"buffer":0,"byteLength":10128,"byteOffset":1994820,"target":34962},{"buffer":0,"byteLength":10128,"byteOffset":2004948,"target":34962},{"buffer":0,"byteLength":13504,"byteOffset":2015076,"target":34962},{"buffer":0,"byteLength":6752,"byteOffset":2028580,"target":34962},{"buffer":0,"byteLength":7920,"byteOffset":2035332,"target":34963},{"buffer":0,"byteLength":13968,"byteOffset":2043252,"target":34962},{"buffer":0,"byteLength":13968,"byteOffset":2057220,"target":34962},{"buffer":0,"byteLength":18624,"byteOffset":2071188,"target":34962},{"buffer":0,"byteLength":9312,"byteOffset":2089812,"target":34962},{"buffer":0,"byteLength":27834,"byteOffset":2099124,"target":34963},{"buffer":0,"byteLength":65916,"byteOffset":2126960,"target":34962},{"buffer":0,"byteLength":65916,"byteOffset":2192876,"target":34962},{"buffer":0,"byteLength":87888,"byteOffset":2258792,"target":34962},{"buffer":0,"byteLength":43944,"byteOffset":2346680,"target":34962},{"buffer":0,"byteLength":2514,"byteOffset":2390624,"target":34963},{"buffer":0,"byteLength":5004,"byteOffset":2393140,"target":34962},{"buffer":0,"byteLength":5004,"byteOffset":2398144,"target":34962},{"buffer":0,"byteLength":6672,"byteOffset":2403148,"target":34962},{"buffer":0,"byteLength":3336,"byteOffset":2409820,"target":34962},{"buffer":0,"byteLength":49104,"byteOffset":2413156,"target":34963},{"buffer":0,"byteLength":87624,"byteOffset":2462260,"target":34962},{"buffer":0,"byteLength":87624,"byteOffset":2549884,"target":34962},{"buffer":0,"byteLength":116832,"byteOffset":2637508,"target":34962},{"buffer":0,"byteLength":58416,"byteOffset":2754340,"target":34962},{"buffer":0,"byteLength":19536,"byteOffset":2812756,"target":34963},{"buffer":0,"byteLength":51540,"byteOffset":2832292,"target":34962},{"buffer":0,"byteLength":51540,"byteOffset":2883832,"target":34962},{"buffer":0,"byteLength":68720,"byteOffset":2935372,"target":34962},{"buffer":0,"byteLength":34360,"byteOffset":3004092,"target":34962}],"buffers":[{"byteLength":3038452,"extras":{},"uri":"b407-v1-0.bin"}],"images":[{"bufferView":0,"mimeType":"image/jpeg","name":"interior.jpg","extras":{}},{"bufferView":1,"mimeType":"image/jpeg","name":"Fuselage_T.jpg","extras":{}},{"bufferView":2,"mimeType":"image/jpeg","name":"Misc_T.jpg","extras":{}},{"bufferView":3,"mimeType":"image/jpeg","name":"Fuselage_Tail_T.jpg","extras":{}}],"materials":[{"alphaMode":"BLEND","name":"ac3dmat14","pbrMetallicRoughness":{"baseColorFactor":[0.800000011920929,0.800000011920929,0.800000011920929,0.2160000056028366],"metallicFactor":0}},{"alphaMode":"BLEND","name":"Material__25","pbrMetallicRoughness":{"baseColorTexture":{"index":0},"metallicFactor":0}},{"alphaMode":"BLEND","name":"Material__25.001","pbrMetallicRoughness":{"baseColorTexture":{"index":1},"metallicFactor":0}},{"alphaMode":"BLEND","name":"Material__25.002","pbrMetallicRoughness":{"baseColorTexture":{"index":2},"metallicFactor":0}},{"alphaMode":"BLEND","name":"Material__25.003","pbrMetallicRoughness":{"baseColorTexture":{"index":3},"metallicFactor":0}},{"alphaMode":"BLEND","name":"Material__25.004","pbrMetallicRoughness":{"baseColorTexture":{"index":2},"metallicFactor":0}},{"alphaMode":"BLEND","name":"Material__25.005","pbrMetallicRoughness":{"baseColorTexture":{"index":1},"metallicFactor":0}},{"alphaMode":"BLEND","name":"Material__25.006","pbrMetallicRoughness":{"baseColorTexture":{"index":2},"metallicFactor":0}}],"meshes":[{"name":"bell407.007","primitives":[{"attributes":{"NORMAL":2,"POSITION":1,"TANGENT":3,"TEXCOORD_0":4},"indices":0,"material":2},{"attributes":{"NORMAL":7,"POSITION":6,"TANGENT":8,"TEXCOORD_0":9},"indices":5,"material":6},{"attributes":{"NORMAL":12,"POSITION":11,"TANGENT":13,"TEXCOORD_0":14},"indices":10,"material":4},{"attributes":{"NORMAL":17,"POSITION":16,"TANGENT":18,"TEXCOORD_0":19},"indices":15,"material":0},{"attributes":{"NORMAL":22,"POSITION":21,"TANGENT":23,"TEXCOORD_0":24},"indices":20,"material":1},{"attributes":{"NORMAL":27,"POSITION":26,"TANGENT":28,"TEXCOORD_0":29},"indices":25,"material":7},{"attributes":{"NORMAL":32,"POSITION":31,"TANGENT":33,"TEXCOORD_0":34},"indices":30,"material":3},{"attributes":{"NORMAL":37,"POSITION":36,"TANGENT":38,"TEXCOORD_0":39},"indices":35,"material":5}]}],"nodes":[{"name":"bell407"},{"name":"bell407.001"},{"children":[3],"name":"bell407.002"},{"mesh":0,"name":"tailrotor"},{"name":"SkywardCoordinateAlignment","matrix":[1,0,0,0,0,1,0,0,0,0,1,0,0,0,0,1],"children":[2,1,0]}],"samplers":[{}],"scene":0,"scenes":[{"name":"Scene","nodes":[4]}],"textures":[{"sampler":0,"source":0},{"sampler":0,"source":1},{"sampler":0,"source":2},{"sampler":0,"source":3}],"extras":{"skyward":{"source":"https://github.com/Ysurac/FlightAirMap-3dmodels","commit":"0906d9ba1bdd906ce45807e45ed706c09912db19","changes":"Converted legacy glTF to glTF 2.0 with Cesium; rigid axis alignment, horizontal centering, and source transforms baked into positions/normals for correct Cesium bounds. Original shape, materials and paint retained.","license":"GPL-2.0","sourceFiles":["source/flightairmap/b407/b407.blend"]}}}