{"accessors":[{"bufferView":2,"componentType":5123,"count":1224,"max":[391],"min":[0],"type":"SCALAR"},{"bufferView":3,"componentType":5126,"count":392,"max":[0.7898250818252563,0.9907625317573547,3.262986421585083],"min":[-0.7898261547088623,0.4325254261493683,-0.8346871137619019],"type":"VEC3"},{"bufferView":4,"componentType":5126,"count":392,"type":"VEC3"},{"bufferView":5,"componentType":5126,"count":392,"type":"VEC4"},{"bufferView":6,"componentType":5126,"count":392,"max":[1,1],"min":[0,0],"type":"VEC2"},{"bufferView":7,"componentType":5123,"count":43947,"max":[9435],"min":[0],"type":"SCALAR"},{"bufferView":8,"componentType":5126,"count":9436,"max":[6.23416805267334,2.4448137283325195,5.5105366706848145],"min":[-6.23416805267334,-0.7925776839256287,-5.5105366706848145],"type":"VEC3"},{"bufferView":9,"componentType":5126,"count":9436,"type":"VEC3"},{"bufferView":10,"componentType":5126,"count":9436,"type":"VEC4"},{"bufferView":11,"componentType":5126,"count":9436,"max":[0.9932004809379578,0.9957204712554812],"min":[0.0023422562517225742,0.012761712074279785],"type":"VEC2"},{"bufferView":12,"componentType":5123,"count":4158,"max":[1277],"min":[0],"type":"SCALAR"},{"bufferView":13,"componentType":5126,"count":1278,"max":[3.1837806701660156,1.1295385360717773,3.766134738922119],"min":[-3.255094051361084,-0.9766506552696228,3.6847898960113525],"type":"VEC3"},{"bufferView":14,"componentType":5126,"count":1278,"type":"VEC3"},{"bufferView":15,"componentType":5126,"count":1278,"type":"VEC4"},{"bufferView":16,"componentType":5126,"count":1278,"max":[0.7159103751182556,0.9126594588160515],"min":[0.25560373067855835,0.10290241241455078],"type":"VEC2"}],"asset":{"generator":"Khronos Blender glTF 2.0 exporter","version":"2.0","copyright":"FlightGear model authors / FlightAirMap contributors; GPL-2.0. See source/flightairmap/c421/ for license and editable sources."},"bufferViews":[{"buffer":0,"byteLength":929821,"byteOffset":0},{"buffer":0,"byteLength":38733,"byteOffset":929821},{"buffer":0,"byteLength":2448,"byteOffset":968554,"target":34963},{"buffer":0,"byteLength":4704,"byteOffset":971004,"target":34962},{"buffer":0,"byteLength":4704,"byteOffset":975708,"target":34962},{"buffer":0,"byteLength":6272,"byteOffset":980412,"target":34962},{"buffer":0,"byteLength":3136,"byteOffset":986684,"target":34962},{"buffer":0,"byteLength":87894,"byteOffset":989820,"target":34963},{"buffer":0,"byteLength":113232,"byteOffset":1077716,"target":34962},{"buffer":0,"byteLength":113232,"byteOffset":1190948,"target":34962},{"buffer":0,"byteLength":150976,"byteOffset":1304180,"target":34962},{"buffer":0,"byteLength":75488,"byteOffset":1455156,"target":34962},{"buffer":0,"byteLength":8316,"byteOffset":1530644,"target":34963},{"buffer":0,"byteLength":15336,"byteOffset":1538960,"target":34962},{"buffer":0,"byteLength":15336,"byteOffset":1554296,"target":34962},{"buffer":0,"byteLength":20448,"byteOffset":1569632,"target":34962},{"buffer":0,"byteLength":10224,"byteOffset":1590080,"target":34962}],"buffers":[{"byteLength":1600304,"extras":{},"uri":"c421-v1-0.bin"}],"images":[{"bufferView":0,"mimeType":"image/png","name":"texture.png","extras":{}},{"bufferView":1,"mimeType":"image/png","name":"prop.png","extras":{}}],"materials":[{"name":"DefaultWhite","pbrMetallicRoughness":{"baseColorFactor":[0.800000011920929,0.800000011920929,0.800000011920929,1],"baseColorTexture":{"index":0},"metallicFactor":0}},{"alphaMode":"BLEND","name":"transparent","pbrMetallicRoughness":{"baseColorFactor":[0,0,0.4000000059604645,0.30000001192092896],"metallicFactor":0}},{"alphaMode":"BLEND","name":"transparenthelices","pbrMetallicRoughness":{"baseColorFactor":[0.800000011920929,0.800000011920929,0.800000011920929,0.30000001192092896],"baseColorTexture":{"index":1},"metallicFactor":0}}],"meshes":[{"name":"fuselage","primitives":[{"attributes":{"NORMAL":2,"POSITION":1,"TANGENT":3,"TEXCOORD_0":4},"indices":0,"material":1},{"attributes":{"NORMAL":7,"POSITION":6,"TANGENT":8,"TEXCOORD_0":9},"indices":5,"material":0},{"attributes":{"NORMAL":12,"POSITION":11,"TANGENT":13,"TEXCOORD_0":14},"indices":10,"material":2}]}],"nodes":[{"mesh":0,"name":"fuselage"},{"name":"Sun"},{"name":"SkywardCoordinateAlignment","matrix":[1,0,0,0,0,1,0,0,0,0,1,0,0,0,0,1],"children":[1,0]}],"samplers":[{}],"scene":0,"scenes":[{"name":"Scene","nodes":[2]}],"textures":[{"sampler":0,"source":0},{"sampler":0,"source":1}],"extras":{"skyward":{"source":"https://github.com/Ysurac/FlightAirMap-3dmodels","commit":"0906d9ba1bdd906ce45807e45ed706c09912db19","changes":"Converted legacy glTF to glTF 2.0 with Cesium; rigid axis alignment, horizontal centering, and source transforms baked into positions/normals for correct Cesium bounds. Original shape, materials and paint retained.","license":"GPL-2.0","sourceFiles":["source/flightairmap/c421/c421.blend"]}}}