{"asset":{"version":"2.0","copyright":"Douglas DC-6B: original FlightGear / FGMEMBERS model authors; GPL-2.0. Original source and license in source/heritage/dc6."},"scene":0,"scenes":[{"nodes":[0,1,2,3,4,5,6,7,8,9,10,11,12,13,14,15,16,17,18,19,20,21,22,23,24,25,26,27,28,29,30,31,32,33,34,35,36,37,38,39,40,41,42,43,44,45,46,47,48,49,50,51,52,53,54,55,56,57,58,59,60,61,62]}],"nodes":[{"name":"Cflap1.1","mesh":0},{"name":"Cflap1.2","mesh":1},{"name":"Cflap1.3","mesh":2},{"name":"Cflap1.4","mesh":3},{"name":"Cflap1.5","mesh":4},{"name":"Cflap1.6","mesh":5},{"name":"Cflap1.7","mesh":6},{"name":"Cflap1.8","mesh":7},{"name":"Cflap2.1","mesh":8},{"name":"Cflap2.2","mesh":9},{"name":"Cflap2.3","mesh":10},{"name":"Cflap2.4","mesh":11},{"name":"Cflap2.5","mesh":12},{"name":"Cflap2.6","mesh":13},{"name":"Cflap2.7","mesh":14},{"name":"Cflap2.8","mesh":15},{"name":"Cflap3.1","mesh":16},{"name":"Cflap3.2","mesh":17},{"name":"Cflap3.3","mesh":18},{"name":"Cflap3.4","mesh":19},{"name":"Cflap3.5","mesh":20},{"name":"Cflap3.6","mesh":21},{"name":"Cflap3.7","mesh":22},{"name":"Cflap3.8","mesh":23},{"name":"Cflap4.1","mesh":24},{"name":"Cflap4.2","mesh":25},{"name":"Cflap4.3","mesh":26},{"name":"Cflap4.4","mesh":27},{"name":"Cflap4.5","mesh":28},{"name":"Cflap4.6","mesh":29},{"name":"Cflap4.7","mesh":30},{"name":"Cflap4.8","mesh":31},{"name":"Eng1","mesh":32},{"name":"Eng2","mesh":33},{"name":"Eng3","mesh":34},{"name":"Eng4","mesh":35},{"name":"Fuselage","mesh":36},{"name":"Glass","mesh":37},{"name":"HStab","mesh":38},{"name":"LHaileron","mesh":39},{"name":"LHelevator","mesh":40},{"name":"LHflap_0","mesh":41},{"name":"LHflap_1","mesh":42},{"name":"LHwing","mesh":43},{"name":"Nacelle1","mesh":44},{"name":"Nacelle2","mesh":45},{"name":"Nacelle3","mesh":46},{"name":"Nacelle4","mesh":47},{"name":"RHaileron","mesh":48},{"name":"RHelevator","mesh":49},{"name":"RHflap","mesh":50},{"name":"RHwing","mesh":51},{"name":"Rudder","mesh":52},{"name":"Spinner1","mesh":53},{"name":"Spinner2","mesh":54},{"name":"Spinner3","mesh":55},{"name":"Spinner4","mesh":56},{"name":"VStab","mesh":57},{"name":"prop1","mesh":58},{"name":"prop2","mesh":59},{"name":"prop3","mesh":60},{"name":"prop4","mesh":61},{"name":"windows","mesh":62}],"meshes":[{"name":"Cflap1.1","primitives":[{"attributes":{"POSITION":0,"NORMAL":1,"TEXCOORD_0":2},"material":0}]},{"name":"Cflap1.2","primitives":[{"attributes":{"POSITION":3,"NORMAL":4,"TEXCOORD_0":5},"material":0}]},{"name":"Cflap1.3","primitives":[{"attributes":{"POSITION":6,"NORMAL":7,"TEXCOORD_0":8},"material":0}]},{"name":"Cflap1.4","primitives":[{"attributes":{"POSITION":9,"NORMAL":10,"TEXCOORD_0":11},"material":0}]},{"name":"Cflap1.5","primitives":[{"attributes":{"POSITION":12,"NORMAL":13,"TEXCOORD_0":14},"material":0}]},{"name":"Cflap1.6","primitives":[{"attributes":{"POSITION":15,"NORMAL":16,"TEXCOORD_0":17},"material":0}]},{"name":"Cflap1.7","primitives":[{"attributes":{"POSITION":18,"NORMAL":19,"TEXCOORD_0":20},"material":0}]},{"name":"Cflap1.8","primitives":[{"attributes":{"POSITION":21,"NORMAL":22,"TEXCOORD_0":23},"material":0}]},{"name":"Cflap2.1","primitives":[{"attributes":{"POSITION":24,"NORMAL":25,"TEXCOORD_0":26},"material":0}]},{"name":"Cflap2.2","primitives":[{"attributes":{"POSITION":27,"NORMAL":28,"TEXCOORD_0":29},"material":0}]},{"name":"Cflap2.3","primitives":[{"attributes":{"POSITION":30,"NORMAL":31,"TEXCOORD_0":32},"material":0}]},{"name":"Cflap2.4","primitives":[{"attributes":{"POSITION":33,"NORMAL":34,"TEXCOORD_0":35},"material":0}]},{"name":"Cflap2.5","primitives":[{"attributes":{"POSITION":36,"NORMAL":37,"TEXCOORD_0":38},"material":0}]},{"name":"Cflap2.6","primitives":[{"attributes":{"POSITION":39,"NORMAL":40,"TEXCOORD_0":41},"material":0}]},{"name":"Cflap2.7","primitives":[{"attributes":{"POSITION":42,"NORMAL":43,"TEXCOORD_0":44},"material":0}]},{"name":"Cflap2.8","primitives":[{"attributes":{"POSITION":45,"NORMAL":46,"TEXCOORD_0":47},"material":0}]},{"name":"Cflap3.1","primitives":[{"attributes":{"POSITION":48,"NORMAL":49,"TEXCOORD_0":50},"material":0}]},{"name":"Cflap3.2","primitives":[{"attributes":{"POSITION":51,"NORMAL":52,"TEXCOORD_0":53},"material":0}]},{"name":"Cflap3.3","primitives":[{"attributes":{"POSITION":54,"NORMAL":55,"TEXCOORD_0":56},"material":0}]},{"name":"Cflap3.4","primitives":[{"attributes":{"POSITION":57,"NORMAL":58,"TEXCOORD_0":59},"material":0}]},{"name":"Cflap3.5","primitives":[{"attributes":{"POSITION":60,"NORMAL":61,"TEXCOORD_0":62},"material":0}]},{"name":"Cflap3.6","primitives":[{"attributes":{"POSITION":63,"NORMAL":64,"TEXCOORD_0":65},"material":0}]},{"name":"Cflap3.7","primitives":[{"attributes":{"POSITION":66,"NORMAL":67,"TEXCOORD_0":68},"material":0}]},{"name":"Cflap3.8","primitives":[{"attributes":{"POSITION":69,"NORMAL":70,"TEXCOORD_0":71},"material":0}]},{"name":"Cflap4.1","primitives":[{"attributes":{"POSITION":72,"NORMAL":73,"TEXCOORD_0":74},"material":0}]},{"name":"Cflap4.2","primitives":[{"attributes":{"POSITION":75,"NORMAL":76,"TEXCOORD_0":77},"material":0}]},{"name":"Cflap4.3","primitives":[{"attributes":{"POSITION":78,"NORMAL":79,"TEXCOORD_0":80},"material":0}]},{"name":"Cflap4.4","primitives":[{"attributes":{"POSITION":81,"NORMAL":82,"TEXCOORD_0":83},"material":0}]},{"name":"Cflap4.5","primitives":[{"attributes":{"POSITION":84,"NORMAL":85,"TEXCOORD_0":86},"material":0}]},{"name":"Cflap4.6","primitives":[{"attributes":{"POSITION":87,"NORMAL":88,"TEXCOORD_0":89},"material":0}]},{"name":"Cflap4.7","primitives":[{"attributes":{"POSITION":90,"NORMAL":91,"TEXCOORD_0":92},"material":0}]},{"name":"Cflap4.8","primitives":[{"attributes":{"POSITION":93,"NORMAL":94,"TEXCOORD_0":95},"material":0}]},{"name":"Eng1","primitives":[{"attributes":{"POSITION":96,"NORMAL":97,"TEXCOORD_0":98},"material":1}]},{"name":"Eng2","primitives":[{"attributes":{"POSITION":99,"NORMAL":100,"TEXCOORD_0":101},"material":1}]},{"name":"Eng3","primitives":[{"attributes":{"POSITION":102,"NORMAL":103,"TEXCOORD_0":104},"material":1}]},{"name":"Eng4","primitives":[{"attributes":{"POSITION":105,"NORMAL":106,"TEXCOORD_0":107},"material":1}]},{"name":"Fuselage","primitives":[{"attributes":{"POSITION":108,"NORMAL":109,"TEXCOORD_0":110},"material":0}]},{"name":"Glass","primitives":[{"attributes":{"POSITION":111,"NORMAL":112,"TEXCOORD_0":113},"material":2}]},{"name":"HStab","primitives":[{"attributes":{"POSITION":114,"NORMAL":115,"TEXCOORD_0":116},"material":3}]},{"name":"LHaileron","primitives":[{"attributes":{"POSITION":117,"NORMAL":118,"TEXCOORD_0":119},"material":0}]},{"name":"LHelevator","primitives":[{"attributes":{"POSITION":120,"NORMAL":121,"TEXCOORD_0":122},"material":0}]},{"name":"LHflap_0","primitives":[{"attributes":{"POSITION":123,"NORMAL":124,"TEXCOORD_0":125},"material":4}]},{"name":"LHflap_1","primitives":[{"attributes":{"POSITION":126,"NORMAL":127,"TEXCOORD_0":128},"material":0}]},{"name":"LHwing","primitives":[{"attributes":{"POSITION":129,"NORMAL":130,"TEXCOORD_0":131},"material":0}]},{"name":"Nacelle1","primitives":[{"attributes":{"POSITION":132,"NORMAL":133,"TEXCOORD_0":134},"material":0}]},{"name":"Nacelle2","primitives":[{"attributes":{"POSITION":135,"NORMAL":136,"TEXCOORD_0":137},"material":0}]},{"name":"Nacelle3","primitives":[{"attributes":{"POSITION":138,"NORMAL":139,"TEXCOORD_0":140},"material":0}]},{"name":"Nacelle4","primitives":[{"attributes":{"POSITION":141,"NORMAL":142,"TEXCOORD_0":143},"material":0}]},{"name":"RHaileron","primitives":[{"attributes":{"POSITION":144,"NORMAL":145,"TEXCOORD_0":146},"material":0}]},{"name":"RHelevator","primitives":[{"attributes":{"POSITION":147,"NORMAL":148,"TEXCOORD_0":149},"material":0}]},{"name":"RHflap","primitives":[{"attributes":{"POSITION":150,"NORMAL":151,"TEXCOORD_0":152},"material":0}]},{"name":"RHwing","primitives":[{"attributes":{"POSITION":153,"NORMAL":154,"TEXCOORD_0":155},"material":0}]},{"name":"Rudder","primitives":[{"attributes":{"POSITION":156,"NORMAL":157,"TEXCOORD_0":158},"material":0}]},{"name":"Spinner1","primitives":[{"attributes":{"POSITION":159,"NORMAL":160,"TEXCOORD_0":161},"material":4}]},{"name":"Spinner2","primitives":[{"attributes":{"POSITION":162,"NORMAL":163,"TEXCOORD_0":164},"material":4}]},{"name":"Spinner3","primitives":[{"attributes":{"POSITION":165,"NORMAL":166,"TEXCOORD_0":167},"material":4}]},{"name":"Spinner4","primitives":[{"attributes":{"POSITION":168,"NORMAL":169,"TEXCOORD_0":170},"material":4}]},{"name":"VStab","primitives":[{"attributes":{"POSITION":171,"NORMAL":172,"TEXCOORD_0":173},"material":0}]},{"name":"prop1","primitives":[{"attributes":{"POSITION":174,"NORMAL":175,"TEXCOORD_0":176},"material":0}]},{"name":"prop2","primitives":[{"attributes":{"POSITION":177,"NORMAL":178,"TEXCOORD_0":179},"material":0}]},{"name":"prop3","primitives":[{"attributes":{"POSITION":180,"NORMAL":181,"TEXCOORD_0":182},"material":0}]},{"name":"prop4","primitives":[{"attributes":{"POSITION":183,"NORMAL":184,"TEXCOORD_0":185},"material":0}]},{"name":"windows","primitives":[{"attributes":{"POSITION":186,"NORMAL":187,"TEXCOORD_0":188},"material":2}]}],"materials":[{"name":"paint1.png","doubleSided":true,"pbrMetallicRoughness":{"metallicFactor":0.08,"roughnessFactor":0.65,"baseColorFactor":[0.9,0.9,0.9,1.0],"baseColorTexture":{"index":0}}},{"name":"paint1.png","doubleSided":true,"pbrMetallicRoughness":{"metallicFactor":0.08,"roughnessFactor":0.65,"baseColorFactor":[0.0,0.0,0.0,1.0],"baseColorTexture":{"index":0}}},{"name":"Glass","doubleSided":true,"pbrMetallicRoughness":{"metallicFactor":0.08,"roughnessFactor":0.65,"baseColorFactor":[0.5,0.6,0.7,0.5]},"alphaMode":"BLEND"},{"name":"paint1.png","doubleSided":true,"pbrMetallicRoughness":{"metallicFactor":0.08,"roughnessFactor":0.65,"baseColorFactor":[1.0,1.0,1.0,1.0],"baseColorTexture":{"index":0}}},{"name":"LHflap_0","doubleSided":true,"pbrMetallicRoughness":{"metallicFactor":0.08,"roughnessFactor":0.65,"baseColorFactor":[0.9,0.9,0.9,1.0]}}],"images":[{"bufferView":0,"mimeType":"image/png"}],"textures":[{"sampler":0,"source":0}],"samplers":[{"magFilter":9729,"minFilter":9987,"wrapS":10497,"wrapT":10497}],"buffers":[{"uri":"dc6-v1.bin","byteLength":865328}],"bufferViews":[{"buffer":0,"byteOffset":0,"byteLength":114029},{"buffer":0,"byteOffset":114032,"byteLength":432,"target":34962},{"buffer":0,"byteOffset":114464,"byteLength":432,"target":34962},{"buffer":0,"byteOffset":114896,"byteLength":288,"target":34962},{"buffer":0,"byteOffset":115184,"byteLength":432,"target":34962},{"buffer":0,"byteOffset":115616,"byteLength":432,"target":34962},{"buffer":0,"byteOffset":116048,"byteLength":288,"target":34962},{"buffer":0,"byteOffset":116336,"byteLength":432,"target":34962},{"buffer":0,"byteOffset":116768,"byteLength":432,"target":34962},{"buffer":0,"byteOffset":117200,"byteLength":288,"target":34962},{"buffer":0,"byteOffset":117488,"byteLength":432,"target":34962},{"buffer":0,"byteOffset":117920,"byteLength":432,"target":34962},{"buffer":0,"byteOffset":118352,"byteLength":288,"target":34962},{"buffer":0,"byteOffset":118640,"byteLength":432,"target":34962},{"buffer":0,"byteOffset":119072,"byteLength":432,"target":34962},{"buffer":0,"byteOffset":119504,"byteLength":288,"target":34962},{"buffer":0,"byteOffset":119792,"byteLength":432,"target":34962},{"buffer":0,"byteOffset":120224,"byteLength":432,"target":34962},{"buffer":0,"byteOffset":120656,"byteLength":288,"target":34962},{"buffer":0,"byteOffset":120944,"byteLength":432,"target":34962},{"buffer":0,"byteOffset":121376,"byteLength":432,"target":34962},{"buffer":0,"byteOffset":121808,"byteLength":288,"target":34962},{"buffer":0,"byteOffset":122096,"byteLength":432,"target":34962},{"buffer":0,"byteOffset":122528,"byteLength":432,"target":34962},{"buffer":0,"byteOffset":122960,"byteLength":288,"target":34962},{"buffer":0,"byteOffset":123248,"byteLength":432,"target":34962},{"buffer":0,"byteOffset":123680,"byteLength":432,"target":34962},{"buffer":0,"byteOffset":124112,"byteLength":288,"target":34962},{"buffer":0,"byteOffset":124400,"byteLength":432,"target":34962},{"buffer":0,"byteOffset":124832,"byteLength":432,"target":34962},{"buffer":0,"byteOffset":125264,"byteLength":288,"target":34962},{"buffer":0,"byteOffset":125552,"byteLength":432,"target":34962},{"buffer":0,"byteOffset":125984,"byteLength":432,"target":34962},{"buffer":0,"byteOffset":126416,"byteLength":288,"target":34962},{"buffer":0,"byteOffset":126704,"byteLength":432,"target":34962},{"buffer":0,"byteOffset":127136,"byteLength":432,"target":34962},{"buffer":0,"byteOffset":127568,"byteLength":288,"target":34962},{"buffer":0,"byteOffset":127856,"byteLength":432,"target":34962},{"buffer":0,"byteOffset":128288,"byteLength":432,"target":34962},{"buffer":0,"byteOffset":128720,"byteLength":288,"target":34962},{"buffer":0,"byteOffset":129008,"byteLength":432,"target":34962},{"buffer":0,"byteOffset":129440,"byteLength":432,"target":34962},{"buffer":0,"byteOffset":129872,"byteLength":288,"target":34962},{"buffer":0,"byteOffset":130160,"byteLength":432,"target":34962},{"buffer":0,"byteOffset":130592,"byteLength":432,"target":34962},{"buffer":0,"byteOffset":131024,"byteLength":288,"target":34962},{"buffer":0,"byteOffset":131312,"byteLength":432,"target":34962},{"buffer":0,"byteOffset":131744,"byteLength":432,"target":34962},{"buffer":0,"byteOffset":132176,"byteLength":288,"target":34962},{"buffer":0,"byteOffset":132464,"byteLength":432,"target":34962},{"buffer":0,"byteOffset":132896,"byteLength":432,"target":34962},{"buffer":0,"byteOffset":133328,"byteLength":288,"target":34962},{"buffer":0,"byteOffset":133616,"byteLength":432,"target":34962},{"buffer":0,"byteOffset":134048,"byteLength":432,"target":34962},{"buffer":0,"byteOffset":134480,"byteLength":288,"target":34962},{"buffer":0,"byteOffset":134768,"byteLength":432,"target":34962},{"buffer":0,"byteOffset":135200,"byteLength":432,"target":34962},{"buffer":0,"byteOffset":135632,"byteLength":288,"target":34962},{"buffer":0,"byteOffset":135920,"byteLength":432,"target":34962},{"buffer":0,"byteOffset":136352,"byteLength":432,"target":34962},{"buffer":0,"byteOffset":136784,"byteLength":288,"target":34962},{"buffer":0,"byteOffset":137072,"byteLength":432,"target":34962},{"buffer":0,"byteOffset":137504,"byteLength":432,"target":34962},{"buffer":0,"byteOffset":137936,"byteLength":288,"target":34962},{"buffer":0,"byteOffset":138224,"byteLength":432,"target":34962},{"buffer":0,"byteOffset":138656,"byteLength":432,"target":34962},{"buffer":0,"byteOffset":139088,"byteLength":288,"target":34962},{"buffer":0,"byteOffset":139376,"byteLength":432,"target":34962},{"buffer":0,"byteOffset":139808,"byteLength":432,"target":34962},{"buffer":0,"byteOffset":140240,"byteLength":288,"target":34962},{"buffer":0,"byteOffset":140528,"byteLength":432,"target":34962},{"buffer":0,"byteOffset":140960,"byteLength":432,"target":34962},{"buffer":0,"byteOffset":141392,"byteLength":288,"target":34962},{"buffer":0,"byteOffset":141680,"byteLength":432,"target":34962},{"buffer":0,"byteOffset":142112,"byteLength":432,"target":34962},{"buffer":0,"byteOffset":142544,"byteLength":288,"target":34962},{"buffer":0,"byteOffset":142832,"byteLength":432,"target":34962},{"buffer":0,"byteOffset":143264,"byteLength":432,"target":34962},{"buffer":0,"byteOffset":143696,"byteLength":288,"target":34962},{"buffer":0,"byteOffset":143984,"byteLength":432,"target":34962},{"buffer":0,"byteOffset":144416,"byteLength":432,"target":34962},{"buffer":0,"byteOffset":144848,"byteLength":288,"target":34962},{"buffer":0,"byteOffset":145136,"byteLength":432,"target":34962},{"buffer":0,"byteOffset":145568,"byteLength":432,"target":34962},{"buffer":0,"byteOffset":146000,"byteLength":288,"target":34962},{"buffer":0,"byteOffset":146288,"byteLength":432,"target":34962},{"buffer":0,"byteOffset":146720,"byteLength":432,"target":34962},{"buffer":0,"byteOffset":147152,"byteLength":288,"target":34962},{"buffer":0,"byteOffset":147440,"byteLength":432,"target":34962},{"buffer":0,"byteOffset":147872,"byteLength":432,"target":34962},{"buffer":0,"byteOffset":148304,"byteLength":288,"target":34962},{"buffer":0,"byteOffset":148592,"byteLength":432,"target":34962},{"buffer":0,"byteOffset":149024,"byteLength":432,"target":34962},{"buffer":0,"byteOffset":149456,"byteLength":288,"target":34962},{"buffer":0,"byteOffset":149744,"byteLength":432,"target":34962},{"buffer":0,"byteOffset":150176,"byteLength":432,"target":34962},{"buffer":0,"byteOffset":150608,"byteLength":288,"target":34962},{"buffer":0,"byteOffset":150896,"byteLength":4320,"target":34962},{"buffer":0,"byteOffset":155216,"byteLength":4320,"target":34962},{"buffer":0,"byteOffset":159536,"byteLength":2880,"target":34962},{"buffer":0,"byteOffset":162416,"byteLength":4320,"target":34962},{"buffer":0,"byteOffset":166736,"byteLength":4320,"target":34962},{"buffer":0,"byteOffset":171056,"byteLength":2880,"target":34962},{"buffer":0,"byteOffset":173936,"byteLength":4320,"target":34962},{"buffer":0,"byteOffset":178256,"byteLength":4320,"target":34962},{"buffer":0,"byteOffset":182576,"byteLength":2880,"target":34962},{"buffer":0,"byteOffset":185456,"byteLength":4320,"target":34962},{"buffer":0,"byteOffset":189776,"byteLength":4320,"target":34962},{"buffer":0,"byteOffset":194096,"byteLength":2880,"target":34962},{"buffer":0,"byteOffset":196976,"byteLength":72432,"target":34962},{"buffer":0,"byteOffset":269408,"byteLength":72432,"target":34962},{"buffer":0,"byteOffset":341840,"byteLength":48288,"target":34962},{"buffer":0,"byteOffset":390128,"byteLength":792,"target":34962},{"buffer":0,"byteOffset":390920,"byteLength":792,"target":34962},{"buffer":0,"byteOffset":391712,"byteLength":528,"target":34962},{"buffer":0,"byteOffset":392240,"byteLength":3888,"target":34962},{"buffer":0,"byteOffset":396128,"byteLength":3888,"target":34962},{"buffer":0,"byteOffset":400016,"byteLength":2592,"target":34962},{"buffer":0,"byteOffset":402608,"byteLength":1152,"target":34962},{"buffer":0,"byteOffset":403760,"byteLength":1152,"target":34962},{"buffer":0,"byteOffset":404912,"byteLength":768,"target":34962},{"buffer":0,"byteOffset":405680,"byteLength":1080,"target":34962},{"buffer":0,"byteOffset":406760,"byteLength":1080,"target":34962},{"buffer":0,"byteOffset":407840,"byteLength":720,"target":34962},{"buffer":0,"byteOffset":408560,"byteLength":288,"target":34962},{"buffer":0,"byteOffset":408848,"byteLength":288,"target":34962},{"buffer":0,"byteOffset":409136,"byteLength":192,"target":34962},{"buffer":0,"byteOffset":409328,"byteLength":288,"target":34962},{"buffer":0,"byteOffset":409616,"byteLength":288,"target":34962},{"buffer":0,"byteOffset":409904,"byteLength":192,"target":34962},{"buffer":0,"byteOffset":410096,"byteLength":9864,"target":34962},{"buffer":0,"byteOffset":419960,"byteLength":9864,"target":34962},{"buffer":0,"byteOffset":429824,"byteLength":6576,"target":34962},{"buffer":0,"byteOffset":436400,"byteLength":17784,"target":34962},{"buffer":0,"byteOffset":454184,"byteLength":17784,"target":34962},{"buffer":0,"byteOffset":471968,"byteLength":11856,"target":34962},{"buffer":0,"byteOffset":483824,"byteLength":18072,"target":34962},{"buffer":0,"byteOffset":501896,"byteLength":18072,"target":34962},{"buffer":0,"byteOffset":519968,"byteLength":12048,"target":34962},{"buffer":0,"byteOffset":532016,"byteLength":18072,"target":34962},{"buffer":0,"byteOffset":550088,"byteLength":18072,"target":34962},{"buffer":0,"byteOffset":568160,"byteLength":12048,"target":34962},{"buffer":0,"byteOffset":580208,"byteLength":17784,"target":34962},{"buffer":0,"byteOffset":597992,"byteLength":17784,"target":34962},{"buffer":0,"byteOffset":615776,"byteLength":11856,"target":34962},{"buffer":0,"byteOffset":627632,"byteLength":1152,"target":34962},{"buffer":0,"byteOffset":628784,"byteLength":1152,"target":34962},{"buffer":0,"byteOffset":629936,"byteLength":768,"target":34962},{"buffer":0,"byteOffset":630704,"byteLength":1080,"target":34962},{"buffer":0,"byteOffset":631784,"byteLength":1080,"target":34962},{"buffer":0,"byteOffset":632864,"byteLength":720,"target":34962},{"buffer":0,"byteOffset":633584,"byteLength":576,"target":34962},{"buffer":0,"byteOffset":634160,"byteLength":576,"target":34962},{"buffer":0,"byteOffset":634736,"byteLength":384,"target":34962},{"buffer":0,"byteOffset":635120,"byteLength":9864,"target":34962},{"buffer":0,"byteOffset":644984,"byteLength":9864,"target":34962},{"buffer":0,"byteOffset":654848,"byteLength":6576,"target":34962},{"buffer":0,"byteOffset":661424,"byteLength":3024,"target":34962},{"buffer":0,"byteOffset":664448,"byteLength":3024,"target":34962},{"buffer":0,"byteOffset":667472,"byteLength":2016,"target":34962},{"buffer":0,"byteOffset":669488,"byteLength":5184,"target":34962},{"buffer":0,"byteOffset":674672,"byteLength":5184,"target":34962},{"buffer":0,"byteOffset":679856,"byteLength":3456,"target":34962},{"buffer":0,"byteOffset":683312,"byteLength":5184,"target":34962},{"buffer":0,"byteOffset":688496,"byteLength":5184,"target":34962},{"buffer":0,"byteOffset":693680,"byteLength":3456,"target":34962},{"buffer":0,"byteOffset":697136,"byteLength":5184,"target":34962},{"buffer":0,"byteOffset":702320,"byteLength":5184,"target":34962},{"buffer":0,"byteOffset":707504,"byteLength":3456,"target":34962},{"buffer":0,"byteOffset":710960,"byteLength":5184,"target":34962},{"buffer":0,"byteOffset":716144,"byteLength":5184,"target":34962},{"buffer":0,"byteOffset":721328,"byteLength":3456,"target":34962},{"buffer":0,"byteOffset":724784,"byteLength":6624,"target":34962},{"buffer":0,"byteOffset":731408,"byteLength":6624,"target":34962},{"buffer":0,"byteOffset":738032,"byteLength":4416,"target":34962},{"buffer":0,"byteOffset":742448,"byteLength":11016,"target":34962},{"buffer":0,"byteOffset":753464,"byteLength":11016,"target":34962},{"buffer":0,"byteOffset":764480,"byteLength":7344,"target":34962},{"buffer":0,"byteOffset":771824,"byteLength":11016,"target":34962},{"buffer":0,"byteOffset":782840,"byteLength":11016,"target":34962},{"buffer":0,"byteOffset":793856,"byteLength":7344,"target":34962},{"buffer":0,"byteOffset":801200,"byteLength":11016,"target":34962},{"buffer":0,"byteOffset":812216,"byteLength":11016,"target":34962},{"buffer":0,"byteOffset":823232,"byteLength":7344,"target":34962},{"buffer":0,"byteOffset":830576,"byteLength":11016,"target":34962},{"buffer":0,"byteOffset":841592,"byteLength":11016,"target":34962},{"buffer":0,"byteOffset":852608,"byteLength":7344,"target":34962},{"buffer":0,"byteOffset":859952,"byteLength":2016,"target":34962},{"buffer":0,"byteOffset":861968,"byteLength":2016,"target":34962},{"buffer":0,"byteOffset":863984,"byteLength":1344,"target":34962}],"accessors":[{"bufferView":1,"componentType":5126,"count":36,"type":"VEC3","min":[8.322079,0.727515,6.514798000000001],"max":[8.761909,1.071055,6.900804000000001]},{"bufferView":2,"componentType":5126,"count":36,"type":"VEC3","min":[-0.8110320851992956,-0.7997968931293548,-0.986753250827445],"max":[0.8069147204681542,0.7997976558616787,0.9867586248697631]},{"bufferView":3,"componentType":5126,"count":36,"type":"VEC2"},{"bufferView":4,"componentType":5126,"count":36,"type":"VEC3","min":[8.716994,0.263686,6.514829000000001],"max":[8.930633,0.756614,6.900796000000001]},{"bufferView":5,"componentType":5126,"count":36,"type":"VEC3","min":[-0.9400651419239184,-0.9518824103971594,-0.9867807665052307],"max":[0.9400646040690286,0.9497793991799747,0.9867455394869697]},{"bufferView":6,"componentType":5126,"count":36,"type":"VEC2"},{"bufferView":7,"componentType":5126,"count":36,"type":"VEC3","min":[8.715745,-0.227026,6.514588000000001],"max":[8.930568,0.26642,6.90082]},{"bufferView":8,"componentType":5126,"count":36,"type":"VEC3","min":[-0.9400969320846471,-0.9498317113518442,-0.9867647530829512],"max":[0.9400976277751864,0.9518881296818942,0.9867385886513478]},{"bufferView":9,"componentType":5126,"count":36,"type":"VEC2"},{"bufferView":10,"componentType":5126,"count":36,"type":"VEC3","min":[8.32193,-0.541395,6.514743000000001],"max":[8.761827,-0.197555,6.900818000000001]},{"bufferView":11,"componentType":5126,"count":36,"type":"VEC3","min":[-0.8109257846656749,-0.7996504280659896,-0.9867247624016984],"max":[0.8069275233382692,0.7996506583858444,0.9867591181368364]},{"bufferView":12,"componentType":5126,"count":36,"type":"VEC2"},{"bufferView":13,"componentType":5126,"count":36,"type":"VEC3","min":[7.397034,-0.541264,6.514505000000001],"max":[7.83798,-0.196311,6.900804000000001]},{"bufferView":14,"componentType":5126,"count":36,"type":"VEC3","min":[-0.8069118453533871,-0.7997792659125478,-0.9867549669711598],"max":[0.8109798640538427,0.7997800696240311,0.9867539635707687]},{"bufferView":15,"componentType":5126,"count":36,"type":"VEC2"},{"bufferView":16,"componentType":5126,"count":36,"type":"VEC3","min":[7.228449,-0.226925,6.514437000000001],"max":[7.444324,0.266838,6.900781]},{"bufferView":17,"componentType":5126,"count":36,"type":"VEC3","min":[-0.9401382111322687,-0.9498364237197554,-0.9867656996033852],"max":[0.940138465824371,0.9519568652729806,0.9867377818420282]},{"bufferView":18,"componentType":5126,"count":36,"type":"VEC2"},{"bufferView":19,"componentType":5126,"count":36,"type":"VEC3","min":[7.228442,0.2632,6.514563000000001],"max":[7.443627,0.756715,6.900782]},{"bufferView":20,"componentType":5126,"count":36,"type":"VEC3","min":[-0.9401061648841326,-0.9518881656353305,-0.9867579977195247],"max":[0.9401061231363895,0.9497813544159717,0.9867579977500534]},{"bufferView":21,"componentType":5126,"count":36,"type":"VEC2"},{"bufferView":22,"componentType":5126,"count":36,"type":"VEC3","min":[7.397174,0.726342,6.51459],"max":[7.837721,1.071147,6.900788]},{"bufferView":23,"componentType":5126,"count":36,"type":"VEC3","min":[-0.806724196092628,-0.7995341593230227,-0.9867557202827709],"max":[0.8106672007592184,0.799534940912792,0.986755720284943]},{"bufferView":24,"componentType":5126,"count":36,"type":"VEC2"},{"bufferView":25,"componentType":5126,"count":36,"type":"VEC3","min":[4.097153,0.376661,7.380088000000001],"max":[4.536983,0.720201,7.766095000000001]},{"bufferView":26,"componentType":5126,"count":36,"type":"VEC3","min":[-0.8109134490742432,-0.7997968931293546,-0.9867532507839508],"max":[0.8070299886584338,0.7997971472279372,0.9867586248977819]},{"bufferView":27,"componentType":5126,"count":36,"type":"VEC2"},{"bufferView":28,"componentType":5126,"count":36,"type":"VEC3","min":[4.492069,-0.087168,7.380118],"max":[4.705707,0.40576,7.7660860000000005]},{"bufferView":29,"componentType":5126,"count":36,"type":"VEC3","min":[-0.9400650503823592,-0.9518824103971342,-0.9867455393720184],"max":[0.9400646040690278,0.949754482720135,0.9867390020909276]},{"bufferView":30,"componentType":5126,"count":36,"type":"VEC2"},{"bufferView":31,"componentType":5126,"count":36,"type":"VEC3","min":[4.490819,-0.57788,7.3798770000000005],"max":[4.705641,-0.084434,7.766109]},{"bufferView":32,"componentType":5126,"count":36,"type":"VEC3","min":[-0.9400970403574668,-0.9497755276051403,-0.9867288801470869],"max":[0.9400972928411346,0.9518893422545631,0.9867647534211884]},{"bufferView":33,"componentType":5126,"count":36,"type":"VEC2"},{"bufferView":34,"componentType":5126,"count":36,"type":"VEC3","min":[4.097004,-0.892249,7.380034],"max":[4.536901,-0.548409,7.766109]},{"bufferView":35,"componentType":5126,"count":36,"type":"VEC3","min":[-0.8108140647927848,-0.799651055276519,-0.9867627836930063],"max":[0.8068163984356093,0.7996506107863075,0.9867247623840719]},{"bufferView":36,"componentType":5126,"count":36,"type":"VEC2"},{"bufferView":37,"componentType":5126,"count":36,"type":"VEC3","min":[3.172107,-0.892117,7.379794],"max":[3.613053,-0.547165,7.766094000000001]},{"bufferView":38,"componentType":5126,"count":36,"type":"VEC3","min":[-0.8068306553067999,-0.799780069624031,-0.9867539633771509],"max":[0.810979868192781,0.7997800110827886,0.9867549669550235]},{"bufferView":39,"componentType":5126,"count":36,"type":"VEC2"},{"bufferView":40,"componentType":5126,"count":36,"type":"VEC3","min":[3.003524,-0.577779,7.379727000000001],"max":[3.219398,-0.084016,7.766071]},{"bufferView":41,"componentType":5126,"count":36,"type":"VEC3","min":[-0.9401385785908417,-0.9498046247227085,-0.9867417338218317],"max":[0.9401385024446469,0.9519431330454244,0.9867377818420265]},{"bufferView":42,"componentType":5126,"count":36,"type":"VEC2"},{"bufferView":43,"componentType":5126,"count":36,"type":"VEC3","min":[3.003516,-0.087654,7.379853000000001],"max":[3.218702,0.405861,7.766072]},{"bufferView":44,"componentType":5126,"count":36,"type":"VEC3","min":[-0.9401061648841325,-0.951888165635331,-0.9867579977290613],"max":[0.9401062217780332,0.9498326406477106,0.986757997743538]},{"bufferView":45,"componentType":5126,"count":36,"type":"VEC2"},{"bufferView":46,"componentType":5126,"count":36,"type":"VEC3","min":[3.172249,0.375488,7.37988],"max":[3.612797,0.720293,7.766078]},{"bufferView":47,"componentType":5126,"count":36,"type":"VEC3","min":[-0.8067241960926266,-0.7995351041786181,-0.9867517453188662],"max":[0.8106672007592184,0.7995356417934343,0.9867557202750215]},{"bufferView":48,"componentType":5126,"count":36,"type":"VEC2"},{"bufferView":49,"componentType":5126,"count":36,"type":"VEC3","min":[-3.615233,0.376661,7.380088000000001],"max":[-3.175403,0.720201,7.766095000000001]},{"bufferView":50,"componentType":5126,"count":36,"type":"VEC3","min":[-0.8110322478885058,-0.7997968931293543,-0.9867493523916383],"max":[0.8070327830662405,0.7997976419444918,0.9867547288991164]},{"bufferView":51,"componentType":5126,"count":36,"type":"VEC2"},{"bufferView":52,"componentType":5126,"count":36,"type":"VEC3","min":[-3.220318,-0.087168,7.380118],"max":[-3.006679,0.40576,7.7660860000000005]},{"bufferView":53,"componentType":5126,"count":36,"type":"VEC3","min":[-0.9400647031156885,-0.9518824103971352,-0.9867455393720184],"max":[0.940064604069028,0.9497793991799373,0.9867455394582094]},{"bufferView":54,"componentType":5126,"count":36,"type":"VEC2"},{"bufferView":55,"componentType":5126,"count":36,"type":"VEC3","min":[-3.221567,-0.57788,7.3798770000000005],"max":[-3.006745,-0.084434,7.766109]},{"bufferView":56,"componentType":5126,"count":36,"type":"VEC3","min":[-0.9400974920456312,-0.9497755276051321,-0.9867337357163868],"max":[0.9400972928411345,0.9518893422545551,0.9867647534211863]},{"bufferView":57,"componentType":5126,"count":36,"type":"VEC2"},{"bufferView":58,"componentType":5126,"count":36,"type":"VEC3","min":[-3.615382,-0.892249,7.380034],"max":[-3.175485,-0.548409,7.766109]},{"bufferView":59,"componentType":5126,"count":36,"type":"VEC3","min":[-0.8108140647928347,-0.7996504069335801,-0.9867627836930046],"max":[0.8068161663458913,0.7996506107863075,0.9867247624207774]},{"bufferView":60,"componentType":5126,"count":36,"type":"VEC2"},{"bufferView":61,"componentType":5126,"count":36,"type":"VEC3","min":[-4.540279,-0.892117,7.379794],"max":[-4.099333,-0.547165,7.766094000000001]},{"bufferView":62,"componentType":5126,"count":36,"type":"VEC3","min":[-0.8069118453533904,-0.7997800696240313,-0.9867512824146009],"max":[0.810979868192781,0.7997800637491879,0.9867549669550235]},{"bufferView":63,"componentType":5126,"count":36,"type":"VEC2"},{"bufferView":64,"componentType":5126,"count":36,"type":"VEC3","min":[-4.708862,-0.577779,7.379727000000001],"max":[-4.492988,-0.084016,7.766071]},{"bufferView":65,"componentType":5126,"count":36,"type":"VEC3","min":[-0.9401385785908414,-0.949789628675056,-0.9867377818327817],"max":[0.9401382813044905,0.9519431330454311,0.9867377818420282]},{"bufferView":66,"componentType":5126,"count":36,"type":"VEC2"},{"bufferView":67,"componentType":5126,"count":36,"type":"VEC3","min":[-4.70887,-0.087654,7.379853000000001],"max":[-4.493685,0.405861,7.766072]},{"bufferView":68,"componentType":5126,"count":36,"type":"VEC3","min":[-0.94010656489946,-0.951888165635332,-0.9867579977195031],"max":[0.9401063139496574,0.9498325844738992,0.9867579977531759]},{"bufferView":69,"componentType":5126,"count":36,"type":"VEC2"},{"bufferView":70,"componentType":5126,"count":36,"type":"VEC3","min":[-4.540137,0.375488,7.37988],"max":[-4.099589,0.720293,7.766078]},{"bufferView":71,"componentType":5126,"count":36,"type":"VEC3","min":[-0.8067241960926267,-0.7995351041786187,-0.9867517453188676],"max":[0.8106672007592184,0.7995356417934347,0.9867557202750215]},{"bufferView":72,"componentType":5126,"count":36,"type":"VEC2"},{"bufferView":73,"componentType":5126,"count":36,"type":"VEC3","min":[-7.837596,0.727515,6.514798000000001],"max":[-7.397767,1.071055,6.900804000000001]},{"bufferView":74,"componentType":5126,"count":36,"type":"VEC3","min":[-0.8110322520680326,-0.7997961992303949,-0.9867493524518821],"max":[0.8069463192534553,0.799797277838258,0.9867547289206556]},{"bufferView":75,"componentType":5126,"count":36,"type":"VEC2"},{"bufferView":76,"componentType":5126,"count":36,"type":"VEC3","min":[-7.442514,0.263686,6.5148280000000005],"max":[-7.228877,0.756614,6.900796000000001]},{"bufferView":77,"componentType":5126,"count":36,"type":"VEC3","min":[-0.9400652031868089,-0.9518824103971321,-0.9867390019924497],"max":[0.9400650503823592,0.9497544827201392,0.9867455394582095]},{"bufferView":78,"componentType":5126,"count":36,"type":"VEC2"},{"bufferView":79,"componentType":5126,"count":36,"type":"VEC3","min":[-7.443764,-0.227026,6.514588000000001],"max":[-7.228941,0.26642,6.90082]},{"bufferView":80,"componentType":5126,"count":36,"type":"VEC3","min":[-0.9400969844715166,-0.9498305278296071,-0.9867647530829599],"max":[0.9400970403574662,0.9518893660749026,0.9867337356679301]},{"bufferView":81,"componentType":5126,"count":36,"type":"VEC2"},{"bufferView":82,"componentType":5126,"count":36,"type":"VEC3","min":[-7.837579,-0.541395,6.514743000000001],"max":[-7.397682,-0.197555,6.900818000000001]},{"bufferView":83,"componentType":5126,"count":36,"type":"VEC3","min":[-0.810925951460459,-0.7996514654102349,-0.9867591178427269],"max":[0.8068161663459453,0.7996504357497413,0.9867627837119954]},{"bufferView":84,"componentType":5126,"count":36,"type":"VEC2"},{"bufferView":85,"componentType":5126,"count":36,"type":"VEC3","min":[-8.762475,-0.541264,6.5145040000000005],"max":[-8.321528,-0.196311,6.900804000000001]},{"bufferView":86,"componentType":5126,"count":36,"type":"VEC3","min":[-0.8069116126610819,-0.799778954501478,-0.9867512824146007],"max":[0.8109817689966947,0.7997800637491873,0.986751282597487]},{"bufferView":87,"componentType":5126,"count":36,"type":"VEC2"},{"bufferView":88,"componentType":5126,"count":36,"type":"VEC3","min":[-8.93106,-0.226925,6.514437000000001],"max":[-8.715185,0.266838,6.900781]},{"bufferView":89,"componentType":5126,"count":36,"type":"VEC3","min":[-0.9401383075407218,-0.9498354266147728,-0.9867617544824754],"max":[0.9401384055921232,0.9519421609568528,0.9867630368886166]},{"bufferView":90,"componentType":5126,"count":36,"type":"VEC2"},{"bufferView":91,"componentType":5126,"count":36,"type":"VEC3","min":[-8.931067,0.2632,6.514563000000001],"max":[-8.715881,0.756715,6.900782]},{"bufferView":92,"componentType":5126,"count":36,"type":"VEC3","min":[-0.9401062177071057,-0.9518881892990458,-0.9867534925999022],"max":[0.9401057759373824,0.9497802645961674,0.9867579977500494]},{"bufferView":93,"componentType":5126,"count":36,"type":"VEC2"},{"bufferView":94,"componentType":5126,"count":36,"type":"VEC3","min":[-8.762335,0.726342,6.514589000000001],"max":[-8.321787,1.071147,6.900787000000001]},{"bufferView":95,"componentType":5126,"count":36,"type":"VEC3","min":[-0.8067241960926987,-0.7995349077691615,-0.9867517452007554],"max":[0.8106649450469013,0.7995358243282984,0.9867557202749921]},{"bufferView":96,"componentType":5126,"count":36,"type":"VEC2"},{"bufferView":97,"componentType":5126,"count":360,"type":"VEC3","min":[7.510933,-0.303704,7.582333],"max":[8.648085,0.833448,8.081569000000002]},{"bufferView":98,"componentType":5126,"count":360,"type":"VEC3","min":[-0.9579549449821969,-0.9579548681954632,-0.297064713548197],"max":[0.9579541579021701,0.9579540882776428,0.9274896246454961]},{"bufferView":99,"componentType":5126,"count":360,"type":"VEC2"},{"bufferView":100,"componentType":5126,"count":360,"type":"VEC3","min":[3.286009,-0.654532,8.447624000000001],"max":[4.423161,0.482619,8.946861]},{"bufferView":101,"componentType":5126,"count":360,"type":"VEC3","min":[-0.957954603545434,-0.9579549890408781,-0.29706501478633235],"max":[0.9579545143424476,0.9579545213813808,0.9274880204532072]},{"bufferView":102,"componentType":5126,"count":360,"type":"VEC2"},{"bufferView":103,"componentType":5126,"count":360,"type":"VEC3","min":[-4.426377,-0.654532,8.447624000000001],"max":[-3.289226,0.482619,8.946861]},{"bufferView":104,"componentType":5126,"count":360,"type":"VEC3","min":[-0.9579550782437051,-0.9579549890408781,-0.2970650147863324],"max":[0.9579545143424474,0.9579545143424474,0.927488020453207]},{"bufferView":105,"componentType":5126,"count":360,"type":"VEC2"},{"bufferView":106,"componentType":5126,"count":360,"type":"VEC3","min":[-8.648576,-0.303704,7.582333],"max":[-7.511424,0.833448,8.081569000000002]},{"bufferView":107,"componentType":5126,"count":360,"type":"VEC3","min":[-0.9579547416180068,-0.9579549181411428,-0.297065905626008],"max":[0.9579541236839656,0.9579541704396888,0.9274900177255636]},{"bufferView":108,"componentType":5126,"count":360,"type":"VEC2"},{"bufferView":109,"componentType":5126,"count":6036,"type":"VEC3","min":[-1.541786,-1.16383,-15.884818000000001],"max":[1.541786,2.411873,15.884818000000001]},{"bufferView":110,"componentType":5126,"count":6036,"type":"VEC3","min":[-0.9999659174714816,-1.0,-0.41822623772967504],"max":[0.9999659178003889,1.0,0.9999971502413691]},{"bufferView":111,"componentType":5126,"count":6036,"type":"VEC2"},{"bufferView":112,"componentType":5126,"count":66,"type":"VEC3","min":[-1.182556,0.983976,12.68847],"max":[1.182556,1.484961,14.064675000000001]},{"bufferView":113,"componentType":5126,"count":66,"type":"VEC3","min":[-0.934446978820006,0.3012602267854924,0.17084570142886876],"max":[0.9347086609223892,0.4647463808475582,0.7552365474406149]},{"bufferView":114,"componentType":5126,"count":66,"type":"VEC2"},{"bufferView":115,"componentType":5126,"count":324,"type":"VEC3","min":[-7.234192,0.404806,-15.051581],"max":[7.234192,0.828333,-11.099817999999999]},{"bufferView":116,"componentType":5126,"count":324,"type":"VEC3","min":[-1.0,-0.9989436857425934,-0.9996732184180523],"max":[1.0,0.9995165182975772,0.2462671339472249]},{"bufferView":117,"componentType":5126,"count":324,"type":"VEC2"},{"bufferView":118,"componentType":5126,"count":96,"type":"VEC3","min":[10.627968,0.412358,1.7682630000000006],"max":[17.728754,1.417126,3.1447730000000007]},{"bufferView":119,"componentType":5126,"count":96,"type":"VEC3","min":[-0.9925420172066984,-0.9874867088876865,-0.20118466263241208],"max":[0.7171630871334852,0.9917696812167689,0.9978972177804537]},{"bufferView":120,"componentType":5126,"count":96,"type":"VEC2"},{"bufferView":121,"componentType":5126,"count":90,"type":"VEC3","min":[1.218108,0.489609,-14.633359],"max":[7.234192,0.74353,-13.226279]},{"bufferView":122,"componentType":5126,"count":90,"type":"VEC3","min":[-1.0,-0.9963172321779991,-0.09514848587825224],"max":[0.7115766519769395,0.9990745393776037,0.9996732276090765]},{"bufferView":123,"componentType":5126,"count":90,"type":"VEC2"},{"bufferView":124,"componentType":5126,"count":24,"type":"VEC3","min":[2.25425,-0.627065,0.7360540000000007],"max":[10.651708,0.595051,2.328360000000001]},{"bufferView":125,"componentType":5126,"count":24,"type":"VEC3","min":[-1.0,-9.670437860219845e-06,-0.1657953400528259],"max":[0.9925419588834415,0.27408063838953634,0.9958307665672785]},{"bufferView":126,"componentType":5126,"count":24,"type":"VEC2"},{"bufferView":127,"componentType":5126,"count":24,"type":"VEC3","min":[2.25425,-0.627065,0.7360540000000007],"max":[10.651708,0.59505,2.328360000000001]},{"bufferView":128,"componentType":5126,"count":24,"type":"VEC3","min":[-0.14203111092172563,-0.9823310000649426,-0.1833337543302228],"max":[0.13779044772378804,0.9797222499785108,0.5165770023756223]},{"bufferView":129,"componentType":5126,"count":24,"type":"VEC2"},{"bufferView":130,"componentType":5126,"count":822,"type":"VEC3","min":[0.651317,-0.943157,-1.401553999999999],"max":[17.923372,1.477774,6.214101000000001]},{"bufferView":131,"componentType":5126,"count":822,"type":"VEC3","min":[-0.7171630871334853,-0.9988242004030004,-0.9978972177804537],"max":[1.0,0.9992108902990913,0.9859290803900648]},{"bufferView":132,"componentType":5126,"count":822,"type":"VEC2"},{"bufferView":133,"componentType":5126,"count":1482,"type":"VEC3","min":[7.260575,-0.743638,2.6203910000000006],"max":[8.898443,1.240658,8.050038]},{"bufferView":134,"componentType":5126,"count":1482,"type":"VEC3","min":[-0.9989970183946315,-0.9960131176203123,-1.0],"max":[0.9989965428147327,0.9989058871331956,0.999997022936721]},{"bufferView":135,"componentType":5126,"count":1482,"type":"VEC2"},{"bufferView":136,"componentType":5126,"count":1506,"type":"VEC3","min":[3.03565,-1.094466,2.4091400000000007],"max":[4.673518,0.88983,8.91533]},{"bufferView":137,"componentType":5126,"count":1506,"type":"VEC3","min":[-0.9989970183946316,-0.9999994549660551,-0.8091083254347937],"max":[0.9991220079965022,0.9999542410590199,1.0]},{"bufferView":138,"componentType":5126,"count":1506,"type":"VEC2"},{"bufferView":139,"componentType":5126,"count":1506,"type":"VEC3","min":[-4.673934,-1.094466,2.4091400000000007],"max":[-3.036066,0.88983,8.91533]},{"bufferView":140,"componentType":5126,"count":1506,"type":"VEC3","min":[-0.9989970183946316,-0.9999994549660551,-0.8091083254347943],"max":[0.9991220215903406,0.9999542410586649,1.0]},{"bufferView":141,"componentType":5126,"count":1506,"type":"VEC2"},{"bufferView":142,"componentType":5126,"count":1482,"type":"VEC3","min":[-8.898933,-0.743638,2.6203910000000006],"max":[-7.261066,1.240658,8.050038]},{"bufferView":143,"componentType":5126,"count":1482,"type":"VEC3","min":[-0.9989970183946315,-0.9960131249966998,-1.0],"max":[0.9989965428147329,0.998905887138678,0.9999970239890985]},{"bufferView":144,"componentType":5126,"count":1482,"type":"VEC2"},{"bufferView":145,"componentType":5126,"count":96,"type":"VEC3","min":[-17.728754,0.412358,1.7682630000000006],"max":[-10.627968,1.417132,3.1447730000000007]},{"bufferView":146,"componentType":5126,"count":96,"type":"VEC3","min":[-0.717163087133486,-0.9874865838004094,-0.20118466263241316],"max":[0.9925421445428585,0.9917696812167688,0.9978972185981507]},{"bufferView":147,"componentType":5126,"count":96,"type":"VEC2"},{"bufferView":148,"componentType":5126,"count":90,"type":"VEC3","min":[-7.234192,0.489609,-14.633359],"max":[-1.218108,0.74353,-13.226276999999998]},{"bufferView":149,"componentType":5126,"count":90,"type":"VEC3","min":[-0.711570772461849,-0.9958875690423372,-0.09514848573753353],"max":[1.0,0.9959643707526507,0.9996732184180523]},{"bufferView":150,"componentType":5126,"count":90,"type":"VEC2"},{"bufferView":151,"componentType":5126,"count":48,"type":"VEC3","min":[-10.651708,-0.627065,0.7360540000000007],"max":[-2.25425,0.59505,2.328360000000001]},{"bufferView":152,"componentType":5126,"count":48,"type":"VEC3","min":[-0.9925420613934708,-0.9823310000649425,-0.1833337543302227],"max":[1.0,0.9797222499785109,0.9958307665670759]},{"bufferView":153,"componentType":5126,"count":48,"type":"VEC2"},{"bufferView":154,"componentType":5126,"count":822,"type":"VEC3","min":[-17.923372,-0.943302,-1.401553999999999],"max":[-0.651317,1.47778,6.214101000000001]},{"bufferView":155,"componentType":5126,"count":822,"type":"VEC3","min":[-1.0,-0.9978893996293626,-0.9978972185981507],"max":[0.717163087133486,0.9992108902990913,0.9867631343291694]},{"bufferView":156,"componentType":5126,"count":822,"type":"VEC2"},{"bufferView":157,"componentType":5126,"count":252,"type":"VEC3","min":[-0.080133,1.715702,-14.966716],"max":[0.080158,6.251566,-13.173083]},{"bufferView":158,"componentType":5126,"count":252,"type":"VEC3","min":[-0.9988320441905967,-0.9999998983838019,-0.1827854532576235],"max":[0.9988162910937497,0.8097788480485814,0.9981889280933728]},{"bufferView":159,"componentType":5126,"count":252,"type":"VEC2"},{"bufferView":160,"componentType":5126,"count":432,"type":"VEC3","min":[7.768902,-0.045736,8.077961],"max":[8.390117,0.575479,8.756672000000002]},{"bufferView":161,"componentType":5126,"count":432,"type":"VEC3","min":[-0.9927484428242056,-0.9927484642136618,0.10058497405501897],"max":[0.9927486877625348,0.9927485525705629,0.8770302198957413]},{"bufferView":162,"componentType":5126,"count":432,"type":"VEC2"},{"bufferView":163,"componentType":5126,"count":432,"type":"VEC3","min":[3.543977,-0.390896,8.943252000000001],"max":[4.165192,0.230319,9.621964]},{"bufferView":164,"componentType":5126,"count":432,"type":"VEC3","min":[-0.992748578013174,-0.9927484642136616,0.10058432527312199],"max":[0.9927486877625346,0.9927485525705627,0.8770237133959083]},{"bufferView":165,"componentType":5126,"count":432,"type":"VEC2"},{"bufferView":166,"componentType":5126,"count":432,"type":"VEC3","min":[-4.165608,-0.390896,8.943252000000001],"max":[-3.544393,0.230319,9.621964]},{"bufferView":167,"componentType":5126,"count":432,"type":"VEC3","min":[-0.9927484642136618,-0.9927485739566989,0.10058432527312143],"max":[0.9927486877625347,0.9927484428242056,0.8770237133959083]},{"bufferView":168,"componentType":5126,"count":432,"type":"VEC2"},{"bufferView":169,"componentType":5126,"count":432,"type":"VEC3","min":[-8.390607,-0.045736,8.077961],"max":[-7.769392,0.575479,8.756672000000002]},{"bufferView":170,"componentType":5126,"count":432,"type":"VEC3","min":[-0.9927485780131745,-0.9927484642136616,0.10058474664000822],"max":[0.9927486877625347,0.9927485525705629,0.8770302198957413]},{"bufferView":171,"componentType":5126,"count":432,"type":"VEC2"},{"bufferView":172,"componentType":5126,"count":552,"type":"VEC3","min":[-0.186811,0.702268,-15.811137],"max":[0.186823,6.255546,-5.902469999999999]},{"bufferView":173,"componentType":5126,"count":552,"type":"VEC3","min":[-0.999653965987096,-0.5763345473360353,-0.9992309567588114],"max":[0.9997858091732102,0.9999998983837307,0.4711607294625928]},{"bufferView":174,"componentType":5126,"count":552,"type":"VEC2"},{"bufferView":175,"componentType":5126,"count":918,"type":"VEC3","min":[6.281253,-0.869499,8.148052],"max":[9.878259,2.24603,8.250547000000001]},{"bufferView":176,"componentType":5126,"count":918,"type":"VEC3","min":[-0.9040882765931842,-0.8374272578587179,-0.999952950629407],"max":[0.9906141319202394,1.0,0.9999485993570009]},{"bufferView":177,"componentType":5126,"count":918,"type":"VEC2"},{"bufferView":178,"componentType":5126,"count":918,"type":"VEC3","min":[2.05633,-1.214659,9.033695000000002],"max":[5.653336,1.900869,9.136190000000001]},{"bufferView":179,"componentType":5126,"count":918,"type":"VEC3","min":[-0.9041041247793,-0.8374269833476709,-0.9999529479147687],"max":[0.9906146653990501,1.0,0.9999485944090193]},{"bufferView":180,"componentType":5126,"count":918,"type":"VEC2"},{"bufferView":181,"componentType":5126,"count":918,"type":"VEC3","min":[-5.656056,-1.214659,9.033695000000002],"max":[-2.05905,1.900869,9.136190000000001]},{"bufferView":182,"componentType":5126,"count":918,"type":"VEC3","min":[-0.9040882295846147,-0.8374273472629957,-0.9999529479147687],"max":[0.9906146653990514,1.0,0.9999485944090193]},{"bufferView":183,"componentType":5126,"count":918,"type":"VEC2"},{"bufferView":184,"componentType":5126,"count":918,"type":"VEC3","min":[-9.878255,-0.869499,8.148052],"max":[-6.281249,2.246032,8.250547000000001]},{"bufferView":185,"componentType":5126,"count":918,"type":"VEC3","min":[-0.904104171791927,-0.8374282523803718,-0.9999529516235361],"max":[0.990611105265747,1.0,0.9999485921648341]},{"bufferView":186,"componentType":5126,"count":918,"type":"VEC2"},{"bufferView":187,"componentType":5126,"count":168,"type":"VEC3","min":[-1.541786,0.638782,-7.153554999999999],"max":[1.541786,1.098162,11.168813]},{"bufferView":188,"componentType":5126,"count":168,"type":"VEC3","min":[-0.9937653637595599,0.11148147884531631,-0.03289792105094515],"max":[0.9937653471600733,0.11759025512468974,0.03389871810634582]},{"bufferView":189,"componentType":5126,"count":168,"type":"VEC2"}],"extras":{"skyward":{"source":"https://github.com/FGMEMBERS/dc6","commit":"93b85a97efa5274cca16849c72aea5367e309ca2","license":"GPL-2.0","changes":"Triangulated AC3D exterior, authored crease normals, rigid nose +Z rotation; deployed landing gear and hidden cabin omitted for airborne display. Original meshes and texture coordinates retained. No dimensional stretching.","sourceFiles":["source/heritage/dc6/Models/dc6.ac"]}}}