{"accessors":[{"bufferView":1,"componentType":5123,"count":39132,"max":[10297],"min":[0],"type":"SCALAR"},{"bufferView":2,"componentType":5126,"count":10298,"max":[10.226099014282227,5.010912895202637,14.891301155090332],"min":[-10.226099014282227,-0.7213881611824036,-14.891301155090332],"type":"VEC3"},{"bufferView":3,"componentType":5126,"count":10298,"type":"VEC3"},{"bufferView":4,"componentType":5126,"count":10298,"max":[0.9955539703369141,0.9951078700833023],"min":[0.0009419809794053435,0.009079992771148682],"type":"VEC2"},{"bufferView":5,"componentType":5123,"count":1806,"max":[677],"min":[0],"type":"SCALAR"},{"bufferView":6,"componentType":5126,"count":678,"max":[1.1727632284164429,1.808203101158142,12.334477424621582],"min":[-1.1727570295333862,1.1782479286193848,-4.941545009613037],"type":"VEC3"},{"bufferView":7,"componentType":5126,"count":678,"type":"VEC3"},{"bufferView":8,"componentType":5126,"count":678,"type":"VEC4"},{"bufferView":9,"componentType":5126,"count":678,"max":[1,1],"min":[0,0],"type":"VEC2"},{"bufferView":10,"componentType":5123,"count":1008,"max":[319],"min":[0],"type":"SCALAR"},{"bufferView":11,"componentType":5126,"count":320,"max":[1.174043893814087,1.8226310014724731,12.36660385131836],"min":[-1.1740362644195557,1.2042088508605957,10.99260425567627],"type":"VEC3"},{"bufferView":12,"componentType":5126,"count":320,"type":"VEC3"},{"bufferView":13,"componentType":5126,"count":320,"type":"VEC4"},{"bufferView":14,"componentType":5126,"count":320,"max":[0.7895510196685791,0.8534899950027466],"min":[0.5495510101318359,0.801148995757103],"type":"VEC2"},{"bufferView":15,"componentType":5123,"count":8640,"max":[1728],"min":[0],"type":"SCALAR"},{"bufferView":16,"componentType":5126,"count":1729,"max":[0.17736312747001648,2.426828145980835,10.421177864074707],"min":[-0.17735692858695984,-0.4202120900154114,-5.462924480438232],"type":"VEC3"},{"bufferView":17,"componentType":5126,"count":1729,"type":"VEC3"},{"bufferView":18,"componentType":5126,"count":1729,"type":"VEC4"},{"bufferView":19,"componentType":5126,"count":1729,"max":[0.35345301032066345,0.8906129971146584],"min":[0.017457500100135803,0.8455149978399277],"type":"VEC2"},{"bufferView":20,"componentType":5123,"count":1920,"max":[423],"min":[0],"type":"SCALAR"},{"bufferView":21,"componentType":5126,"count":424,"max":[1.1687484979629517,1.100064992904663,11.906911849975586],"min":[-1.168746829032898,1.0537970066070557,11.855094909667969],"type":"VEC3"},{"bufferView":22,"componentType":5126,"count":424,"type":"VEC3"},{"bufferView":23,"componentType":5126,"count":424,"type":"VEC4"},{"bufferView":24,"componentType":5126,"count":424,"max":[0.6447359919548035,0.05567002296447754],"min":[0.44926199316978455,0.012879014015197754],"type":"VEC2"}],"asset":{"generator":"Khronos Blender glTF 2.0 exporter","version":"2.0","copyright":"FlightGear model authors / FlightAirMap contributors; GPL-2.0. See source/flightairmap/e145/ for license and editable sources."},"bufferViews":[{"buffer":0,"byteLength":837818,"byteOffset":0},{"buffer":0,"byteLength":78264,"byteOffset":837818,"target":34963},{"buffer":0,"byteLength":123576,"byteOffset":916084,"target":34962},{"buffer":0,"byteLength":123576,"byteOffset":1039660,"target":34962},{"buffer":0,"byteLength":82384,"byteOffset":1163236,"target":34962},{"buffer":0,"byteLength":3612,"byteOffset":1245620,"target":34963},{"buffer":0,"byteLength":8136,"byteOffset":1249232,"target":34962},{"buffer":0,"byteLength":8136,"byteOffset":1257368,"target":34962},{"buffer":0,"byteLength":10848,"byteOffset":1265504,"target":34962},{"buffer":0,"byteLength":5424,"byteOffset":1276352,"target":34962},{"buffer":0,"byteLength":2016,"byteOffset":1281776,"target":34963},{"buffer":0,"byteLength":3840,"byteOffset":1283792,"target":34962},{"buffer":0,"byteLength":3840,"byteOffset":1287632,"target":34962},{"buffer":0,"byteLength":5120,"byteOffset":1291472,"target":34962},{"buffer":0,"byteLength":2560,"byteOffset":1296592,"target":34962},{"buffer":0,"byteLength":17280,"byteOffset":1299152,"target":34963},{"buffer":0,"byteLength":20748,"byteOffset":1316432,"target":34962},{"buffer":0,"byteLength":20748,"byteOffset":1337180,"target":34962},{"buffer":0,"byteLength":27664,"byteOffset":1357928,"target":34962},{"buffer":0,"byteLength":13832,"byteOffset":1385592,"target":34962},{"buffer":0,"byteLength":3840,"byteOffset":1399424,"target":34963},{"buffer":0,"byteLength":5088,"byteOffset":1403264,"target":34962},{"buffer":0,"byteLength":5088,"byteOffset":1408352,"target":34962},{"buffer":0,"byteLength":6784,"byteOffset":1413440,"target":34962},{"buffer":0,"byteLength":3392,"byteOffset":1420224,"target":34962}],"buffers":[{"byteLength":1423616,"extras":{},"uri":"e145-v1-0.bin"}],"images":[{"bufferView":0,"mimeType":"image/png","name":"texture.png","extras":{}}],"materials":[{"name":"ac3dmat1","pbrMetallicRoughness":{"baseColorFactor":[0.800000011920929,0.800000011920929,0.800000011920929,1],"baseColorTexture":{"index":0},"metallicFactor":0}},{"alphaMode":"BLEND","name":"Transparent","pbrMetallicRoughness":{"baseColorFactor":[0.800000011920929,0.800000011920929,0.800000011920929,0.30000001192092896],"metallicFactor":0}}],"meshes":[{"name":"direction","primitives":[{"attributes":{"NORMAL":2,"POSITION":1,"TEXCOORD_0":3},"indices":0,"material":0}]},{"name":"vitres","primitives":[{"attributes":{"NORMAL":6,"POSITION":5,"TANGENT":7,"TEXCOORD_0":8},"indices":4,"material":1}]},{"name":"contourvitres","primitives":[{"attributes":{"NORMAL":11,"POSITION":10,"TANGENT":12,"TEXCOORD_0":13},"indices":9,"material":0}]},{"name":"antennes","primitives":[{"attributes":{"NORMAL":16,"POSITION":15,"TANGENT":17,"TEXCOORD_0":18},"indices":14,"material":0}]},{"name":"AOA","primitives":[{"attributes":{"NORMAL":21,"POSITION":20,"TANGENT":22,"TEXCOORD_0":23},"indices":19,"material":0}]}],"nodes":[{"mesh":3,"name":"antennes"},{"mesh":4,"name":"AOA"},{"mesh":2,"name":"contourvitres"},{"mesh":0,"name":"direction"},{"mesh":1,"name":"vitres"},{"name":"SkywardCoordinateAlignment","matrix":[1,0,0,0,0,1,0,0,0,0,1,0,0,0,0,1],"children":[4,3,2,0,1]}],"samplers":[{}],"scene":0,"scenes":[{"name":"Scene","nodes":[5]}],"textures":[{"sampler":0,"source":0}],"extras":{"skyward":{"source":"https://github.com/Ysurac/FlightAirMap-3dmodels","commit":"0906d9ba1bdd906ce45807e45ed706c09912db19","changes":"Converted legacy glTF to glTF 2.0 with Cesium; rigid axis alignment, horizontal centering, and source transforms baked into positions/normals for correct Cesium bounds. Original shape, materials and paint retained.","license":"GPL-2.0","sourceFiles":["source/flightairmap/e145/COPYING","source/flightairmap/e145/e145.blend"]}}}